<svg xmlns="http://www.w3.org/2000/svg" viewBox="0 0 83.33 79.94"><defs><style>.cls-1{isolation:isolate;}.cls-2{opacity:0.6;}.cls-129,.cls-2{mix-blend-mode:multiply;}.cls-3{fill:#fff;opacity:0;}.cls-4{fill:#fefeff;opacity:0.01;}.cls-5{fill:#fdfefe;opacity:0.02;}.cls-6{fill:#fcfdfe;opacity:0.03;}.cls-7{fill:#fbfdfd;opacity:0.03;}.cls-8{fill:#fafcfd;opacity:0.04;}.cls-9{fill:#f9fbfd;opacity:0.05;}.cls-10{fill:#f8fbfc;opacity:0.06;}.cls-11{fill:#f7fafc;opacity:0.07;}.cls-12{fill:#f6fafb;opacity:0.08;}.cls-13{fill:#f5f9fb;opacity:0.08;}.cls-14{fill:#f4f9fb;opacity:0.09;}.cls-15{fill:#f3f8fa;opacity:0.1;}.cls-16{fill:#f2f7fa;opacity:0.11;}.cls-17{fill:#f1f7f9;opacity:0.12;}.cls-18{fill:#f0f6f9;opacity:0.13;}.cls-19{fill:#eff6f9;opacity:0.13;}.cls-20{fill:#eef5f8;opacity:0.14;}.cls-21{fill:#edf4f8;opacity:0.15;}.cls-22{fill:#ecf4f7;opacity:0.16;}.cls-23{fill:#ebf3f7;opacity:0.17;}.cls-24{fill:#eaf3f7;opacity:0.18;}.cls-25{fill:#e9f2f6;opacity:0.18;}.cls-26{fill:#e8f1f6;opacity:0.19;}.cls-27{fill:#e7f1f5;opacity:0.2;}.cls-28{fill:#e6f0f5;opacity:0.21;}.cls-29{fill:#e5f0f5;opacity:0.22;}.cls-30{fill:#e4eff4;opacity:0.23;}.cls-31{fill:#e3eff4;opacity:0.24;}.cls-32{fill:#e2eef3;opacity:0.24;}.cls-33{fill:#e1edf3;opacity:0.25;}.cls-34{fill:#e0edf2;opacity:0.26;}.cls-35{fill:#dfecf2;opacity:0.27;}.cls-36{fill:#deecf2;opacity:0.28;}.cls-37{fill:#ddebf1;opacity:0.29;}.cls-38{fill:#dceaf1;opacity:0.29;}.cls-39{fill:#dbeaf0;opacity:0.3;}.cls-40{fill:#dae9f0;opacity:0.31;}.cls-41{fill:#d9e9f0;opacity:0.32;}.cls-42{fill:#d8e8ef;opacity:0.33;}.cls-43{fill:#d7e7ef;opacity:0.34;}.cls-44{fill:#d6e7ee;opacity:0.34;}.cls-45{fill:#d5e6ee;opacity:0.35;}.cls-46{fill:#d4e6ee;opacity:0.36;}.cls-47{fill:#d3e5ed;opacity:0.37;}.cls-48{fill:#d2e5ed;opacity:0.38;}.cls-49{fill:#d1e4ec;opacity:0.39;}.cls-50{fill:#d0e3ec;opacity:0.39;}.cls-51{fill:#cfe3ec;opacity:0.4;}.cls-52{fill:#cee2eb;opacity:0.41;}.cls-53{fill:#cde2eb;opacity:0.42;}.cls-54{fill:#cce1ea;opacity:0.43;}.cls-55{fill:#cbe0ea;opacity:0.44;}.cls-56{fill:#cae0ea;opacity:0.45;}.cls-57{fill:#c9dfe9;opacity:0.45;}.cls-58{fill:#c8dfe9;opacity:0.46;}.cls-59{fill:#c7dee8;opacity:0.47;}.cls-60{fill:#c6dde8;opacity:0.48;}.cls-61{fill:#c5dde8;opacity:0.49;}.cls-62,.cls-63{fill:#c4dce7;}.cls-62{opacity:0.5;}.cls-63{opacity:0.5;}.cls-64{fill:#c3dbe6;opacity:0.51;}.cls-65{fill:#c2dbe6;opacity:0.52;}.cls-66{fill:#c1dae6;opacity:0.53;}.cls-67{fill:#c0d9e5;opacity:0.54;}.cls-68{fill:#bfd9e5;opacity:0.55;}.cls-69{fill:#bed8e4;opacity:0.55;}.cls-70{fill:#bdd8e4;opacity:0.56;}.cls-71{fill:#bcd7e4;opacity:0.57;}.cls-72{fill:#bbd6e3;opacity:0.58;}.cls-73{fill:#bad6e3;opacity:0.59;}.cls-74{fill:#b9d5e2;opacity:0.6;}.cls-75{fill:#b8d5e2;opacity:0.61;}.cls-76{fill:#b7d4e2;opacity:0.61;}.cls-77{fill:#b6d3e1;opacity:0.62;}.cls-78{fill:#b5d3e1;opacity:0.63;}.cls-79{fill:#b4d2e0;opacity:0.64;}.cls-80{fill:#b3d2e0;opacity:0.65;}.cls-81{fill:#b2d1e0;opacity:0.66;}.cls-82{fill:#b1d1df;opacity:0.66;}.cls-83{fill:#b0d0df;opacity:0.67;}.cls-84{fill:#afcfde;opacity:0.68;}.cls-85{fill:#aecfde;opacity:0.69;}.cls-86{fill:#adcede;opacity:0.7;}.cls-87{fill:#accedd;opacity:0.71;}.cls-88{fill:#abcddd;opacity:0.71;}.cls-89{fill:#aaccdc;opacity:0.72;}.cls-90{fill:#a9ccdc;opacity:0.73;}.cls-91{fill:#a8cbdc;opacity:0.74;}.cls-92{fill:#a7cbdb;opacity:0.75;}.cls-93{fill:#a6cadb;opacity:0.76;}.cls-94{fill:#a5c9da;opacity:0.76;}.cls-95{fill:#a4c9da;opacity:0.77;}.cls-96{fill:#a3c8d9;opacity:0.78;}.cls-97{fill:#a2c8d9;opacity:0.79;}.cls-98{fill:#a1c7d9;opacity:0.8;}.cls-99{fill:#a0c7d8;opacity:0.81;}.cls-100{fill:#9fc6d8;opacity:0.82;}.cls-101{fill:#9ec5d7;opacity:0.82;}.cls-102{fill:#9dc5d7;opacity:0.83;}.cls-103{fill:#9cc4d7;opacity:0.84;}.cls-104{fill:#9bc4d6;opacity:0.85;}.cls-105{fill:#9ac3d6;opacity:0.86;}.cls-106{fill:#99c2d5;opacity:0.87;}.cls-107{fill:#98c2d5;opacity:0.87;}.cls-108{fill:#97c1d5;opacity:0.88;}.cls-109{fill:#96c1d4;opacity:0.89;}.cls-110{fill:#95c0d4;opacity:0.9;}.cls-111{fill:#94bfd3;opacity:0.91;}.cls-112{fill:#93bfd3;opacity:0.92;}.cls-113{fill:#92bed3;opacity:0.92;}.cls-114{fill:#91bed2;opacity:0.93;}.cls-115{fill:#90bdd2;opacity:0.94;}.cls-116{fill:#8fbdd1;opacity:0.95;}.cls-117{fill:#8ebcd1;opacity:0.96;}.cls-118{fill:#8dbbd1;opacity:0.97;}.cls-119{fill:#8cbbd0;opacity:0.97;}.cls-120{fill:#8bbad0;opacity:0.98;}.cls-121{fill:#8abacf;opacity:0.99;}.cls-122{fill:#89b9cf;}.cls-123{fill:#fffdfa;}.cls-124{fill:#afa697;}.cls-125{fill:#ffec00;}.cls-126{fill:#1497c4;}.cls-127{fill:#ce1d1d;}.cls-128{fill:#070400;}.cls-129{fill:#fff2d9;opacity:0.5;}</style></defs><title>1</title><g class="cls-1"><g id="Layer_2" data-name="Layer 2"><g id="l1"><g class="cls-2"><path class="cls-3" d="M83.33,69.31c0,5.87-18.66,10.63-41.67,10.63S0,75.18,0,69.31,18.65,58.68,41.66,58.68,83.33,63.44,83.33,69.31Z"/><path class="cls-4" d="M83,69.31c0,5.82-18.5,10.55-41.33,10.55S.34,75.13.34,69.31s18.5-10.54,41.32-10.54S83,63.49,83,69.31Z"/><path class="cls-5" d="M82.65,69.31c0,5.78-18.35,10.46-41,10.46s-41-4.68-41-10.46S19,58.85,41.66,58.85,82.65,63.53,82.65,69.31Z"/><path class="cls-6" d="M82.32,69.31c0,5.73-18.2,10.38-40.66,10.38S1,75,1,69.31s18.2-10.37,40.65-10.37S82.32,63.58,82.32,69.31Z"/><path class="cls-7" d="M82,69.31C82,75,63.93,79.6,41.66,79.6S1.35,75,1.35,69.31,19.39,59,41.66,59,82,63.63,82,69.31Z"/><path class="cls-8" d="M81.64,69.31c0,5.63-17.9,10.21-40,10.21s-40-4.58-40-10.21,17.9-10.2,40-10.2S81.64,63.68,81.64,69.31Z"/><path class="cls-9" d="M81.31,69.31c0,5.59-17.75,10.12-39.65,10.12S2,74.9,2,69.31,19.77,59.2,41.66,59.2,81.31,63.72,81.31,69.31Z"/><path class="cls-10" d="M81,69.31c0,5.54-17.6,10-39.31,10s-39.3-4.49-39.3-10,17.59-10,39.3-10S81,63.77,81,69.31Z"/><path class="cls-11" d="M80.63,69.31c0,5.49-17.44,10-39,10s-39-4.46-39-10,17.45-9.94,39-9.94S80.63,63.82,80.63,69.31Z"/><path class="cls-12" d="M80.3,69.31c0,5.44-17.3,9.86-38.64,9.86S3,74.75,3,69.31s17.29-9.86,38.63-9.86S80.3,63.87,80.3,69.31Z"/><path class="cls-13" d="M80,69.31c0,5.4-17.15,9.78-38.3,9.78s-38.3-4.38-38.3-9.78,17.15-9.77,38.3-9.77S80,63.91,80,69.31Z"/><path class="cls-14" d="M79.62,69.31c0,5.35-17,9.69-38,9.69s-38-4.34-38-9.69,17-9.68,38-9.68S79.62,64,79.62,69.31Z"/><path class="cls-15" d="M79.29,69.31c0,5.3-16.85,9.6-37.63,9.6S4,74.61,4,69.31s16.84-9.6,37.62-9.6S79.29,64,79.29,69.31Z"/><path class="cls-16" d="M79,69.31c0,5.25-16.69,9.52-37.29,9.52S4.37,74.56,4.37,69.31s16.7-9.51,37.29-9.51S79,64.06,79,69.31Z"/><path class="cls-17" d="M78.62,69.31c0,5.21-16.55,9.43-37,9.43S4.71,74.52,4.71,69.31s16.54-9.43,36.95-9.43S78.62,64.1,78.62,69.31Z"/><path class="cls-18" d="M78.28,69.31c0,5.16-16.4,9.35-36.62,9.35S5.05,74.47,5.05,69.31,21.44,60,41.66,60,78.28,64.15,78.28,69.31Z"/><path class="cls-19" d="M77.94,69.31c0,5.11-16.24,9.26-36.28,9.26S5.38,74.42,5.38,69.31s16.24-9.25,36.28-9.25S77.94,64.2,77.94,69.31Z"/><path class="cls-20" d="M77.61,69.31c0,5.06-16.1,9.17-35.95,9.17S5.72,74.37,5.72,69.31s16.09-9.17,35.94-9.17S77.61,64.25,77.61,69.31Z"/><path class="cls-21" d="M77.27,69.31c0,5-15.94,9.09-35.61,9.09s-35.6-4.07-35.6-9.09S22,60.23,41.66,60.23,77.27,64.29,77.27,69.31Z"/><path class="cls-22" d="M76.93,69.31c0,5-15.79,9-35.27,9s-35.27-4-35.27-9,15.79-9,35.27-9S76.93,64.34,76.93,69.31Z"/><path class="cls-23" d="M76.6,69.31c0,4.92-15.64,8.92-34.94,8.92s-34.93-4-34.93-8.92S22.37,60.4,41.66,60.4,76.6,64.39,76.6,69.31Z"/><path class="cls-24" d="M76.26,69.31c0,4.87-15.49,8.83-34.6,8.83s-34.59-4-34.59-8.83,15.48-8.83,34.59-8.83S76.26,64.44,76.26,69.31Z"/><path class="cls-25" d="M75.92,69.31c0,4.83-15.34,8.75-34.26,8.75S7.4,74.14,7.4,69.31s15.34-8.74,34.26-8.74S75.92,64.48,75.92,69.31Z"/><path class="cls-26" d="M75.59,69.31C75.59,74.09,60.4,78,41.66,78S7.74,74.09,7.74,69.31s15.19-8.65,33.92-8.65S75.59,64.53,75.59,69.31Z"/><path class="cls-27" d="M75.25,69.31c0,4.73-15,8.57-33.59,8.57S8.08,74,8.08,69.31s15-8.57,33.58-8.57S75.25,64.58,75.25,69.31Z"/><path class="cls-28" d="M74.91,69.31C74.91,74,60,77.8,41.66,77.8S8.41,74,8.41,69.31s14.89-8.48,33.25-8.48S74.91,64.63,74.91,69.31Z"/><path class="cls-29" d="M74.58,69.31c0,4.64-14.74,8.4-32.92,8.4S8.75,74,8.75,69.31s14.73-8.4,32.91-8.4S74.58,64.67,74.58,69.31Z"/><path class="cls-30" d="M74.24,69.31c0,4.59-14.59,8.32-32.58,8.32S9.09,73.9,9.09,69.31,23.67,61,41.66,61,74.24,64.72,74.24,69.31Z"/><path class="cls-31" d="M73.9,69.31c0,4.54-14.43,8.23-32.24,8.23S9.42,73.85,9.42,69.31s14.44-8.22,32.24-8.22S73.9,64.77,73.9,69.31Z"/><path class="cls-32" d="M73.57,69.31c0,4.5-14.29,8.14-31.91,8.14s-31.9-3.64-31.9-8.14S24,61.17,41.66,61.17,73.57,64.82,73.57,69.31Z"/><path class="cls-33" d="M73.23,69.31c0,4.45-14.13,8.06-31.57,8.06s-31.57-3.61-31.57-8.06,14.14-8.05,31.57-8.05S73.23,64.86,73.23,69.31Z"/><path class="cls-34" d="M72.89,69.31c0,4.4-14,8-31.23,8s-31.23-3.57-31.23-8,14-8,31.23-8S72.89,64.91,72.89,69.31Z"/><path class="cls-35" d="M72.56,69.31c0,4.35-13.83,7.89-30.9,7.89s-30.89-3.54-30.89-7.89,13.83-7.88,30.89-7.88S72.56,65,72.56,69.31Z"/><path class="cls-36" d="M72.22,69.31c0,4.31-13.68,7.8-30.56,7.8S11.1,73.62,11.1,69.31s13.68-7.79,30.56-7.79S72.22,65,72.22,69.31Z"/><path class="cls-37" d="M71.89,69.31c0,4.26-13.54,7.71-30.23,7.71s-30.22-3.45-30.22-7.71S25,61.6,41.66,61.6,71.89,65.05,71.89,69.31Z"/><path class="cls-38" d="M71.55,69.31c0,4.21-13.38,7.63-29.89,7.63s-29.88-3.42-29.88-7.63,13.38-7.62,29.88-7.62S71.55,65.1,71.55,69.31Z"/><path class="cls-39" d="M71.21,69.31c0,4.16-13.23,7.54-29.55,7.54s-29.55-3.38-29.55-7.54,13.23-7.54,29.55-7.54S71.21,65.15,71.21,69.31Z"/><path class="cls-40" d="M70.88,69.31c0,4.12-13.08,7.46-29.22,7.46s-29.21-3.34-29.21-7.46,13.08-7.45,29.21-7.45S70.88,65.19,70.88,69.31Z"/><path class="cls-41" d="M70.54,69.31c0,4.07-12.93,7.37-28.88,7.37s-28.87-3.3-28.87-7.37,12.92-7.37,28.87-7.37S70.54,65.24,70.54,69.31Z"/><path class="cls-42" d="M70.2,69.31c0,4-12.78,7.29-28.54,7.29s-28.54-3.27-28.54-7.29S25.9,62,41.66,62,70.2,65.29,70.2,69.31Z"/><path class="cls-43" d="M69.87,69.31c0,4-12.63,7.2-28.21,7.2s-28.2-3.23-28.2-7.2,12.63-7.19,28.2-7.19S69.87,65.34,69.87,69.31Z"/><path class="cls-44" d="M69.53,69.31c0,3.93-12.48,7.11-27.87,7.11S13.8,73.24,13.8,69.31,26.27,62.2,41.66,62.2,69.53,65.38,69.53,69.31Z"/><path class="cls-45" d="M69.19,69.31c0,3.88-12.32,7-27.53,7s-27.53-3.15-27.53-7,12.33-7,27.53-7S69.19,65.43,69.19,69.31Z"/><path class="cls-46" d="M68.86,69.31c0,3.83-12.18,6.94-27.2,6.94s-27.19-3.11-27.19-6.94,12.17-6.94,27.19-6.94S68.86,65.48,68.86,69.31Z"/><path class="cls-47" d="M68.52,69.31c0,3.78-12,6.86-26.86,6.86s-26.85-3.08-26.85-6.86,12-6.85,26.85-6.85S68.52,65.53,68.52,69.31Z"/><path class="cls-48" d="M68.18,69.31c0,3.74-11.87,6.77-26.52,6.77s-26.52-3-26.52-6.77S27,62.55,41.66,62.55,68.18,65.57,68.18,69.31Z"/><path class="cls-49" d="M67.85,69.31C67.85,73,56.12,76,41.66,76s-26.18-3-26.18-6.68,11.72-6.68,26.18-6.68S67.85,65.62,67.85,69.31Z"/><path class="cls-50" d="M67.51,69.31c0,3.64-11.57,6.6-25.85,6.6s-25.84-3-25.84-6.6,11.57-6.59,25.84-6.59S67.51,65.67,67.51,69.31Z"/><path class="cls-51" d="M67.17,69.31c0,3.6-11.42,6.51-25.51,6.51s-25.51-2.91-25.51-6.51S27.57,62.8,41.66,62.8,67.17,65.72,67.17,69.31Z"/><path class="cls-52" d="M66.84,69.31c0,3.55-11.27,6.43-25.18,6.43s-25.17-2.88-25.17-6.43,11.27-6.42,25.17-6.42S66.84,65.76,66.84,69.31Z"/><path class="cls-53" d="M66.5,69.31c0,3.5-11.12,6.34-24.84,6.34s-24.84-2.84-24.84-6.34S27.94,63,41.66,63,66.5,65.81,66.5,69.31Z"/><path class="cls-54" d="M66.16,69.31c0,3.45-11,6.26-24.5,6.26s-24.5-2.81-24.5-6.26,11-6.25,24.5-6.25S66.16,65.86,66.16,69.31Z"/><path class="cls-55" d="M65.83,69.31c0,3.41-10.82,6.17-24.17,6.17S17.5,72.72,17.5,69.31s10.82-6.16,24.16-6.16S65.83,65.91,65.83,69.31Z"/><path class="cls-56" d="M65.49,69.31c0,3.36-10.67,6.08-23.83,6.08s-23.83-2.72-23.83-6.08,10.67-6.08,23.83-6.08S65.49,66,65.49,69.31Z"/><path class="cls-57" d="M65.16,69.31c0,3.31-10.52,6-23.5,6s-23.49-2.69-23.49-6,10.52-6,23.49-6S65.16,66,65.16,69.31Z"/><path class="cls-58" d="M64.82,69.31c0,3.26-10.37,5.91-23.16,5.91s-23.15-2.65-23.15-5.91S28.87,63.4,41.66,63.4,64.82,66.05,64.82,69.31Z"/><path class="cls-59" d="M64.48,69.31c0,3.22-10.21,5.83-22.82,5.83s-22.82-2.61-22.82-5.83,10.22-5.82,22.82-5.82S64.48,66.1,64.48,69.31Z"/><path class="cls-60" d="M64.15,69.31c0,3.17-10.07,5.74-22.49,5.74s-22.48-2.57-22.48-5.74,10.07-5.73,22.48-5.73S64.15,66.14,64.15,69.31Z"/><path class="cls-61" d="M63.81,69.31c0,3.12-9.92,5.65-22.15,5.65s-22.14-2.53-22.14-5.65,9.91-5.65,22.14-5.65S63.81,66.19,63.81,69.31Z"/><path class="cls-62" d="M63.47,69.31c0,3.07-9.76,5.57-21.81,5.57s-21.81-2.5-21.81-5.57,9.77-5.56,21.81-5.56S63.47,66.24,63.47,69.31Z"/><path class="cls-63" d="M63.14,69.31c0,3-9.62,5.48-21.48,5.48s-21.47-2.45-21.47-5.48,9.61-5.48,21.47-5.48S63.14,66.29,63.14,69.31Z"/><path class="cls-64" d="M62.8,69.31c0,3-9.46,5.4-21.14,5.4s-21.13-2.42-21.13-5.4S30,63.92,41.66,63.92,62.8,66.33,62.8,69.31Z"/><path class="cls-65" d="M62.46,69.31c0,2.93-9.31,5.31-20.8,5.31s-20.8-2.38-20.8-5.31S30.17,64,41.66,64,62.46,66.38,62.46,69.31Z"/><path class="cls-66" d="M62.13,69.31c0,2.88-9.17,5.22-20.47,5.22S21.2,72.19,21.2,69.31s9.16-5.22,20.46-5.22S62.13,66.43,62.13,69.31Z"/><path class="cls-67" d="M61.79,69.31c0,2.84-9,5.14-20.13,5.14s-20.12-2.3-20.12-5.14,9-5.13,20.12-5.13S61.79,66.48,61.79,69.31Z"/><path class="cls-68" d="M61.45,69.31c0,2.79-8.86,5-19.79,5s-19.79-2.26-19.79-5,8.86-5,19.79-5S61.45,66.52,61.45,69.31Z"/><path class="cls-69" d="M61.12,69.31c0,2.74-8.71,5-19.46,5s-19.45-2.23-19.45-5,8.71-5,19.45-5S61.12,66.57,61.12,69.31Z"/><path class="cls-70" d="M60.78,69.31c0,2.69-8.56,4.88-19.12,4.88S22.55,72,22.55,69.31s8.55-4.87,19.11-4.87S60.78,66.62,60.78,69.31Z"/><path class="cls-71" d="M60.44,69.31c0,2.65-8.4,4.8-18.78,4.8S22.88,72,22.88,69.31s8.41-4.79,18.78-4.79S60.44,66.67,60.44,69.31Z"/><path class="cls-72" d="M60.11,69.31c0,2.6-8.26,4.71-18.45,4.71s-18.44-2.11-18.44-4.71,8.26-4.7,18.44-4.7S60.11,66.71,60.11,69.31Z"/><path class="cls-73" d="M59.77,69.31c0,2.55-8.11,4.62-18.11,4.62s-18.11-2.07-18.11-4.62,8.11-4.62,18.11-4.62S59.77,66.76,59.77,69.31Z"/><path class="cls-74" d="M59.43,69.31c0,2.51-8,4.54-17.77,4.54s-17.77-2-17.77-4.54,8-4.53,17.77-4.53S59.43,66.81,59.43,69.31Z"/><path class="cls-75" d="M59.1,69.31c0,2.46-7.81,4.45-17.44,4.45s-17.43-2-17.43-4.45,7.8-4.45,17.43-4.45S59.1,66.85,59.1,69.31Z"/><path class="cls-76" d="M58.76,69.31c0,2.41-7.65,4.37-17.1,4.37s-17.1-2-17.1-4.37S32.22,65,41.66,65,58.76,66.9,58.76,69.31Z"/><path class="cls-77" d="M58.43,69.31c0,2.36-7.51,4.28-16.77,4.28S24.9,71.67,24.9,69.31,32.4,65,41.66,65,58.43,67,58.43,69.31Z"/><path class="cls-78" d="M58.09,69.31c0,2.32-7.36,4.19-16.43,4.19s-16.42-1.87-16.42-4.19,7.35-4.19,16.42-4.19S58.09,67,58.09,69.31Z"/><path class="cls-79" d="M57.75,69.31c0,2.27-7.2,4.11-16.09,4.11s-16.09-1.84-16.09-4.11,7.21-4.1,16.09-4.1S57.75,67,57.75,69.31Z"/><path class="cls-80" d="M57.42,69.31c0,2.22-7.06,4-15.76,4s-15.75-1.8-15.75-4,7.05-4,15.75-4S57.42,67.09,57.42,69.31Z"/><path class="cls-81" d="M57.08,69.31c0,2.17-6.9,3.94-15.42,3.94s-15.41-1.77-15.41-3.94,6.9-3.93,15.41-3.93S57.08,67.14,57.08,69.31Z"/><path class="cls-82" d="M56.74,69.31c0,2.13-6.75,3.85-15.08,3.85s-15.08-1.72-15.08-3.85,6.75-3.84,15.08-3.84S56.74,67.19,56.74,69.31Z"/><path class="cls-83" d="M56.41,69.31c0,2.08-6.6,3.76-14.75,3.76s-14.74-1.68-14.74-3.76,6.6-3.76,14.74-3.76S56.41,67.23,56.41,69.31Z"/><path class="cls-84" d="M56.07,69.31c0,2-6.45,3.68-14.41,3.68s-14.4-1.65-14.4-3.68,6.45-3.67,14.4-3.67S56.07,67.28,56.07,69.31Z"/><path class="cls-85" d="M55.73,69.31c0,2-6.3,3.59-14.07,3.59s-14.07-1.61-14.07-3.59,6.3-3.59,14.07-3.59S55.73,67.33,55.73,69.31Z"/><path class="cls-86" d="M55.4,69.31c0,1.94-6.15,3.51-13.74,3.51s-13.73-1.57-13.73-3.51,6.15-3.5,13.73-3.5S55.4,67.38,55.4,69.31Z"/><path class="cls-87" d="M55.06,69.31c0,1.89-6,3.42-13.4,3.42S28.27,71.2,28.27,69.31s6-3.41,13.39-3.41S55.06,67.42,55.06,69.31Z"/><path class="cls-88" d="M54.72,69.31c0,1.84-5.84,3.34-13.06,3.34S28.6,71.15,28.6,69.31,34.45,66,41.66,66,54.72,67.47,54.72,69.31Z"/><path class="cls-89" d="M54.39,69.31c0,1.79-5.7,3.25-12.73,3.25S28.94,71.1,28.94,69.31s5.69-3.24,12.72-3.24S54.39,67.52,54.39,69.31Z"/><path class="cls-90" d="M54.05,69.31c0,1.75-5.55,3.16-12.39,3.16s-12.38-1.41-12.38-3.16,5.54-3.16,12.38-3.16S54.05,67.57,54.05,69.31Z"/><path class="cls-91" d="M53.71,69.31c0,1.7-5.39,3.08-12.05,3.08s-12-1.38-12-3.08,5.4-3.07,12-3.07S53.71,67.61,53.71,69.31Z"/><path class="cls-92" d="M53.38,69.31c0,1.65-5.25,3-11.72,3S30,71,30,69.31s5.24-3,11.71-3S53.38,67.66,53.38,69.31Z"/><path class="cls-93" d="M53,69.31c0,1.6-5.09,2.91-11.38,2.91s-11.38-1.31-11.38-2.91,5.1-2.9,11.38-2.9S53,67.71,53,69.31Z"/><path class="cls-94" d="M52.7,69.31c0,1.56-4.94,2.82-11,2.82s-11-1.26-11-2.82,4.94-2.81,11-2.81S52.7,67.76,52.7,69.31Z"/><path class="cls-95" d="M52.37,69.31c0,1.51-4.79,2.73-10.71,2.73S31,70.82,31,69.31s4.79-2.73,10.7-2.73S52.37,67.8,52.37,69.31Z"/><path class="cls-96" d="M52,69.31C52,70.77,47.39,72,41.66,72s-10.37-1.19-10.37-2.65,4.65-2.64,10.37-2.64S52,67.85,52,69.31Z"/><path class="cls-97" d="M51.7,69.31c0,1.42-4.5,2.56-10,2.56s-10-1.14-10-2.56,4.49-2.56,10-2.56S51.7,67.9,51.7,69.31Z"/><path class="cls-98" d="M51.36,69.31c0,1.37-4.34,2.48-9.7,2.48S32,70.68,32,69.31s4.34-2.47,9.69-2.47S51.36,68,51.36,69.31Z"/><path class="cls-99" d="M51,69.31c0,1.32-4.19,2.39-9.36,2.39s-9.36-1.07-9.36-2.39,4.19-2.38,9.36-2.38S51,68,51,69.31Z"/><path class="cls-100" d="M50.69,69.31c0,1.27-4,2.3-9,2.3s-9-1-9-2.3,4-2.3,9-2.3S50.69,68,50.69,69.31Z"/><path class="cls-101" d="M50.35,69.31c0,1.23-3.89,2.22-8.69,2.22S33,70.54,33,69.31s3.89-2.21,8.68-2.21S50.35,68.09,50.35,69.31Z"/><path class="cls-102" d="M50,69.31c0,1.18-3.74,2.13-8.35,2.13s-8.35-1-8.35-2.13,3.74-2.13,8.35-2.13S50,68.14,50,69.31Z"/><path class="cls-103" d="M49.68,69.31c0,1.13-3.59,2-8,2s-8-.92-8-2,3.59-2,8-2S49.68,68.18,49.68,69.31Z"/><path class="cls-104" d="M49.34,69.31c0,1.08-3.44,2-7.68,2s-7.67-.88-7.67-2,3.43-2,7.67-2S49.34,68.23,49.34,69.31Z"/><path class="cls-105" d="M49,69.31c0,1-3.28,1.88-7.34,1.88s-7.34-.84-7.34-1.88,3.29-1.87,7.34-1.87S49,68.28,49,69.31Z"/><path class="cls-106" d="M48.67,69.31c0,1-3.14,1.79-7,1.79s-7-.8-7-1.79,3.13-1.78,7-1.78S48.67,68.33,48.67,69.31Z"/><path class="cls-107" d="M48.33,69.31c0,.94-3,1.7-6.67,1.7S35,70.25,35,69.31s3-1.7,6.66-1.7S48.33,68.37,48.33,69.31Z"/><path class="cls-108" d="M48,69.31c0,.89-2.83,1.62-6.33,1.62s-6.33-.73-6.33-1.62,2.84-1.61,6.33-1.61S48,68.42,48,69.31Z"/><path class="cls-109" d="M47.66,69.31c0,.85-2.69,1.53-6,1.53s-6-.68-6-1.53,2.68-1.53,6-1.53S47.66,68.47,47.66,69.31Z"/><path class="cls-110" d="M47.32,69.31c0,.8-2.53,1.45-5.66,1.45S36,70.11,36,69.31s2.53-1.44,5.65-1.44S47.32,68.51,47.32,69.31Z"/><path class="cls-111" d="M47,69.31c0,.75-2.38,1.36-5.32,1.36s-5.32-.61-5.32-1.36S38.72,68,41.66,68,47,68.56,47,69.31Z"/><path class="cls-112" d="M46.65,69.31c0,.7-2.23,1.27-5,1.27s-5-.57-5-1.27,2.23-1.27,5-1.27S46.65,68.61,46.65,69.31Z"/><path class="cls-113" d="M46.31,69.31c0,.66-2.08,1.19-4.65,1.19S37,70,37,69.31s2.09-1.18,4.65-1.18S46.31,68.66,46.31,69.31Z"/><path class="cls-114" d="M46,69.31c0,.61-1.93,1.1-4.31,1.1s-4.31-.49-4.31-1.1,1.93-1.1,4.31-1.1S46,68.7,46,69.31Z"/><path class="cls-115" d="M45.64,69.31c0,.56-1.78,1-4,1s-4-.46-4-1,1.78-1,4-1S45.64,68.75,45.64,69.31Z"/><path class="cls-116" d="M45.3,69.31c0,.51-1.63.93-3.64.93S38,69.82,38,69.31s1.63-.92,3.64-.92S45.3,68.8,45.3,69.31Z"/><path class="cls-117" d="M45,69.31c0,.47-1.48.85-3.31.85s-3.3-.38-3.3-.85,1.48-.84,3.3-.84S45,68.85,45,69.31Z"/><path class="cls-118" d="M44.63,69.31c0,.42-1.33.76-3,.76s-3-.34-3-.76,1.32-.75,3-.75S44.63,68.89,44.63,69.31Z"/><path class="cls-119" d="M44.29,69.31c0,.37-1.17.67-2.63.67S39,69.68,39,69.31s1.18-.67,2.63-.67S44.29,68.94,44.29,69.31Z"/><path class="cls-120" d="M44,69.31c0,.32-1,.59-2.3.59s-2.29-.27-2.29-.59,1-.58,2.29-.58S44,69,44,69.31Z"/><path class="cls-121" d="M43.62,69.31c0,.28-.88.5-2,.5s-1.95-.22-1.95-.5.87-.49,1.95-.49S43.62,69,43.62,69.31Z"/><path class="cls-122" d="M43.28,69.31c0,.23-.72.42-1.62.42S40,69.54,40,69.31s.73-.41,1.62-.41S43.28,69.08,43.28,69.31Z"/></g><rect class="cls-123" x="19.99" y="0.3" width="47.01" height="60.24"/><path class="cls-124" d="M67.29,60.83H19.69V0h47.6Zm-47-.59H66.7V.59H20.28Z"/><rect class="cls-125" x="42.06" y="0.3" width="6.2" height="5.52"/><rect class="cls-126" x="48.26" y="0.3" width="6.2" height="5.52"/><rect class="cls-127" x="54.46" y="0.3" width="6.2" height="5.52"/><rect class="cls-128" x="60.66" y="0.3" width="6.2" height="5.52"/><path class="cls-128" d="M31.3,16.54a3,3,0,1,1,3-3A3,3,0,0,1,31.3,16.54Zm0-5.87a2.91,2.91,0,1,0,3,2.91A2.95,2.95,0,0,0,31.3,10.67Z"/><path class="cls-128" d="M31.3,15.81a2.23,2.23,0,1,1,2.29-2.23A2.26,2.26,0,0,1,31.3,15.81Zm0-4.41a2.18,2.18,0,1,0,2.24,2.18A2.21,2.21,0,0,0,31.3,11.4Z"/><path class="cls-128" d="M31.3,15.11a1.54,1.54,0,1,1,1.57-1.53A1.55,1.55,0,0,1,31.3,15.11Zm0-3a1.49,1.49,0,1,0,1.52,1.49A1.5,1.5,0,0,0,31.3,12.09Z"/><path class="cls-128" d="M31.78,13.58a.47.47,0,0,1-.48.45.46.46,0,1,1,0-.91A.47.47,0,0,1,31.78,13.58Z"/><rect class="cls-128" x="31.27" y="8.56" width="0.07" height="10.03"/><polygon class="cls-128" points="36.28 13.49 36.28 13.56 26.25 13.58 26.25 13.51 36.28 13.49"/><rect class="cls-125" x="19.7" y="36.09" width="6.2" height="5.52" transform="translate(-16.11 61.55) rotate(-89.85)"/><rect class="cls-126" x="19.69" y="42.29" width="6.2" height="5.52" transform="translate(-22.32 67.72) rotate(-89.85)"/><rect class="cls-127" x="19.67" y="48.49" width="6.2" height="5.52" transform="translate(-28.53 73.9) rotate(-89.86)"/><rect class="cls-128" x="19.65" y="54.69" width="6.2" height="5.52" transform="translate(-34.75 80.06) rotate(-89.85)"/><path class="cls-128" d="M58.44,16.54a3,3,0,1,1,3-3A3,3,0,0,1,58.44,16.54Zm0-5.87a2.91,2.91,0,1,0,3,2.91A2.94,2.94,0,0,0,58.44,10.67Z"/><path class="cls-128" d="M58.44,15.81a2.23,2.23,0,1,1,2.29-2.23A2.26,2.26,0,0,1,58.44,15.81Zm0-4.41a2.18,2.18,0,1,0,2.23,2.18A2.22,2.22,0,0,0,58.44,11.4Z"/><path class="cls-128" d="M58.44,15.11A1.54,1.54,0,1,1,60,13.58,1.55,1.55,0,0,1,58.44,15.11Zm0-3A1.49,1.49,0,1,0,60,13.58,1.51,1.51,0,0,0,58.44,12.09Z"/><path class="cls-128" d="M58.91,13.58a.46.46,0,0,1-.47.45.46.46,0,1,1,0-.91A.46.46,0,0,1,58.91,13.58Z"/><rect class="cls-128" x="58.4" y="8.56" width="0.07" height="10.03"/><polygon class="cls-128" points="63.42 13.49 63.42 13.56 53.39 13.58 53.39 13.51 63.42 13.49"/><path class="cls-128" d="M31.63,54.68a3,3,0,1,1,3-3A3,3,0,0,1,31.63,54.68Zm0-5.87a2.91,2.91,0,1,0,3,2.91A2.94,2.94,0,0,0,31.63,48.81Z"/><path class="cls-128" d="M31.63,54a2.23,2.23,0,1,1,2.28-2.23A2.26,2.26,0,0,1,31.63,54Zm0-4.41a2.18,2.18,0,1,0,2.23,2.18A2.2,2.2,0,0,0,31.63,49.54Z"/><path class="cls-128" d="M31.63,53.25a1.54,1.54,0,1,1,1.56-1.53A1.55,1.55,0,0,1,31.63,53.25Zm0-3a1.49,1.49,0,1,0,1.51,1.49A1.51,1.51,0,0,0,31.63,50.23Z"/><path class="cls-128" d="M32.1,51.72a.46.46,0,0,1-.47.45.46.46,0,1,1,0-.91A.46.46,0,0,1,32.1,51.72Z"/><rect class="cls-128" x="31.59" y="46.7" width="0.07" height="10.03"/><polygon class="cls-128" points="36.6 51.63 36.6 51.7 26.58 51.72 26.58 51.65 36.6 51.63"/><path class="cls-128" d="M58.76,54.68a3,3,0,1,1,3-3A3,3,0,0,1,58.76,54.68Zm0-5.87a2.91,2.91,0,1,0,3,2.91A2.94,2.94,0,0,0,58.76,48.81Z"/><path class="cls-128" d="M58.76,54a2.23,2.23,0,1,1,2.29-2.23A2.26,2.26,0,0,1,58.76,54Zm0-4.41A2.18,2.18,0,1,0,61,51.72,2.2,2.2,0,0,0,58.76,49.54Z"/><path class="cls-128" d="M58.76,53.25a1.54,1.54,0,1,1,1.57-1.53A1.56,1.56,0,0,1,58.76,53.25Zm0-3a1.49,1.49,0,1,0,1.52,1.49A1.5,1.5,0,0,0,58.76,50.23Z"/><path class="cls-128" d="M59.23,51.72a.47.47,0,1,1-.47-.46A.46.46,0,0,1,59.23,51.72Z"/><rect class="cls-128" x="58.73" y="46.7" width="0.07" height="10.03"/><polygon class="cls-128" points="63.74 51.63 63.74 51.7 53.71 51.72 53.71 51.65 63.74 51.63"/><rect class="cls-128" x="44.58" y="11.63" width="0.14" height="3.69"/><polygon class="cls-128" points="46.49 13.57 46.49 13.7 42.8 13.7 42.8 13.56 46.49 13.57"/><rect class="cls-128" x="45.67" y="49.79" width="0.14" height="3.69"/><polygon class="cls-128" points="47.58 51.73 47.58 51.87 43.9 51.86 43.9 51.72 47.58 51.73"/><path class="cls-129" d="M60.86,2c0,11.2-4.73,22.17-10.93,31.27-4,5.86-8.79,11.84-14.9,15.62-3.31,2-6.67,4.48-10.37,5.86-.78.3-1.9.64-2.21,1.31s-.37,3,.29,3.37a9.3,9.3,0,0,0,2.34.23c.94.11,1.9.14,2.85.18,2.19.09,35.17-1.3,37.72-1,.22-4.35.56-40.5.63-45.64,0-3.38.26-6.7.43-10.06C66.79,1.55,66.38.61,64.64.5A4.07,4.07,0,0,0,61,2.11c.05-.16,0-.33.09-.49Z"/><path class="cls-129" d="M65.26,5.3c-.57,1.2-.32,3-.38,4.26a63.85,63.85,0,0,1-1,8.71,80.79,80.79,0,0,1-4.77,15.87,54.45,54.45,0,0,1-9.57,15.74,56.11,56.11,0,0,1-6.21,6c-1.53,1.26-3.5,2.1-4.82,3.53,2,.14,3.92-.18,5.89-.18s4.09.11,6.14.21c3,.14,6-.12,8.93-.11,1.22,0,2.44,0,3.64.1.7.06,2,.66,2.68.21s.41-2.4.41-3.3v-5c0-6,.29-12.07,0-18.11s.34-12.2.62-18.24a54.36,54.36,0,0,0-.1-7.11,17.45,17.45,0,0,0-.13-3.32c-.71-2.23-1.51.79-1.51,1.71Z"/><path class="cls-129" d="M42.16.6a8.5,8.5,0,0,0-2.89,1.24,33.5,33.5,0,0,0-6.92,4.61,31.47,31.47,0,0,0-8,10.94c-2,4.57-4,21-4.06,26-.51-5,.35-34.16.16-38.31a14.69,14.69,0,0,1-.1-3c.21-1.32,1.16-1,2.43-1,1.62,0,16.28.7,19.32-.29,0,.15-.09,0-.19.09Z"/></g></g></g></svg>