<svg xmlns="http://www.w3.org/2000/svg" viewBox="0 0 95.4 84.94"><defs><style>.cls-1{isolation:isolate;}.cls-145,.cls-2{opacity:0.6;}.cls-125,.cls-134,.cls-140,.cls-146,.cls-147,.cls-2{mix-blend-mode:multiply;}.cls-145,.cls-3{fill:#fff;}.cls-3{opacity:0;}.cls-4{fill:#fefeff;opacity:0.01;}.cls-5{fill:#fdfefe;opacity:0.02;}.cls-6{fill:#fcfdfe;opacity:0.03;}.cls-7{fill:#fbfdfd;opacity:0.03;}.cls-8{fill:#fafcfd;opacity:0.04;}.cls-9{fill:#f9fbfd;opacity:0.05;}.cls-10{fill:#f8fbfc;opacity:0.06;}.cls-11{fill:#f7fafc;opacity:0.07;}.cls-12{fill:#f6fafb;opacity:0.08;}.cls-13{fill:#f5f9fb;opacity:0.08;}.cls-14{fill:#f4f9fb;opacity:0.09;}.cls-15{fill:#f3f8fa;opacity:0.1;}.cls-16{fill:#f2f7fa;opacity:0.11;}.cls-17{fill:#f1f7f9;opacity:0.12;}.cls-18{fill:#f0f6f9;opacity:0.13;}.cls-19{fill:#eff6f9;opacity:0.13;}.cls-20{fill:#eef5f8;opacity:0.14;}.cls-21{fill:#edf4f8;opacity:0.15;}.cls-22{fill:#ecf4f7;opacity:0.16;}.cls-23{fill:#ebf3f7;opacity:0.17;}.cls-24{fill:#eaf3f7;opacity:0.18;}.cls-25{fill:#e9f2f6;opacity:0.18;}.cls-26{fill:#e8f1f6;opacity:0.19;}.cls-27{fill:#e7f1f5;opacity:0.2;}.cls-28{fill:#e6f0f5;opacity:0.21;}.cls-29{fill:#e5f0f5;opacity:0.22;}.cls-30{fill:#e4eff4;opacity:0.23;}.cls-31{fill:#e3eff4;opacity:0.24;}.cls-32{fill:#e2eef3;opacity:0.24;}.cls-33{fill:#e1edf3;opacity:0.25;}.cls-34{fill:#e0edf2;opacity:0.26;}.cls-35{fill:#dfecf2;opacity:0.27;}.cls-36{fill:#deecf2;opacity:0.28;}.cls-37{fill:#ddebf1;opacity:0.29;}.cls-38{fill:#dceaf1;opacity:0.29;}.cls-39{fill:#dbeaf0;opacity:0.3;}.cls-40{fill:#dae9f0;opacity:0.31;}.cls-41{fill:#d9e9f0;opacity:0.32;}.cls-42{fill:#d8e8ef;opacity:0.33;}.cls-43{fill:#d7e7ef;opacity:0.34;}.cls-44{fill:#d6e7ee;opacity:0.34;}.cls-45{fill:#d5e6ee;opacity:0.35;}.cls-46{fill:#d4e6ee;opacity:0.36;}.cls-47{fill:#d3e5ed;opacity:0.37;}.cls-48{fill:#d2e5ed;opacity:0.38;}.cls-49{fill:#d1e4ec;opacity:0.39;}.cls-50{fill:#d0e3ec;opacity:0.39;}.cls-51{fill:#cfe3ec;opacity:0.4;}.cls-52{fill:#cee2eb;opacity:0.41;}.cls-53{fill:#cde2eb;opacity:0.42;}.cls-54{fill:#cce1ea;opacity:0.43;}.cls-55{fill:#cbe0ea;opacity:0.44;}.cls-56{fill:#cae0ea;opacity:0.45;}.cls-57{fill:#c9dfe9;opacity:0.45;}.cls-58{fill:#c8dfe9;opacity:0.46;}.cls-59{fill:#c7dee8;opacity:0.47;}.cls-60{fill:#c6dde8;opacity:0.48;}.cls-61{fill:#c5dde8;opacity:0.49;}.cls-62,.cls-63{fill:#c4dce7;}.cls-62{opacity:0.5;}.cls-63{opacity:0.5;}.cls-64{fill:#c3dbe6;opacity:0.51;}.cls-65{fill:#c2dbe6;opacity:0.52;}.cls-66{fill:#c1dae6;opacity:0.53;}.cls-67{fill:#c0d9e5;opacity:0.54;}.cls-68{fill:#bfd9e5;opacity:0.55;}.cls-69{fill:#bed8e4;opacity:0.55;}.cls-70{fill:#bdd8e4;opacity:0.56;}.cls-71{fill:#bcd7e4;opacity:0.57;}.cls-72{fill:#bbd6e3;opacity:0.58;}.cls-73{fill:#bad6e3;opacity:0.59;}.cls-74{fill:#b9d5e2;opacity:0.6;}.cls-75{fill:#b8d5e2;opacity:0.61;}.cls-76{fill:#b7d4e2;opacity:0.61;}.cls-77{fill:#b6d3e1;opacity:0.62;}.cls-78{fill:#b5d3e1;opacity:0.63;}.cls-79{fill:#b4d2e0;opacity:0.64;}.cls-80{fill:#b3d2e0;opacity:0.65;}.cls-81{fill:#b2d1e0;opacity:0.66;}.cls-82{fill:#b1d1df;opacity:0.66;}.cls-83{fill:#b0d0df;opacity:0.67;}.cls-84{fill:#afcfde;opacity:0.68;}.cls-85{fill:#aecfde;opacity:0.69;}.cls-86{fill:#adcede;opacity:0.7;}.cls-87{fill:#accedd;opacity:0.71;}.cls-88{fill:#abcddd;opacity:0.71;}.cls-89{fill:#aaccdc;opacity:0.72;}.cls-90{fill:#a9ccdc;opacity:0.73;}.cls-91{fill:#a8cbdc;opacity:0.74;}.cls-92{fill:#a7cbdb;opacity:0.75;}.cls-93{fill:#a6cadb;opacity:0.76;}.cls-94{fill:#a5c9da;opacity:0.76;}.cls-95{fill:#a4c9da;opacity:0.77;}.cls-96{fill:#a3c8d9;opacity:0.78;}.cls-97{fill:#a2c8d9;opacity:0.79;}.cls-98{fill:#a1c7d9;opacity:0.8;}.cls-99{fill:#a0c7d8;opacity:0.81;}.cls-100{fill:#9fc6d8;opacity:0.82;}.cls-101{fill:#9ec5d7;opacity:0.82;}.cls-102{fill:#9dc5d7;opacity:0.83;}.cls-103{fill:#9cc4d7;opacity:0.84;}.cls-104{fill:#9bc4d6;opacity:0.85;}.cls-105{fill:#9ac3d6;opacity:0.86;}.cls-106{fill:#99c2d5;opacity:0.87;}.cls-107{fill:#98c2d5;opacity:0.87;}.cls-108{fill:#97c1d5;opacity:0.88;}.cls-109{fill:#96c1d4;opacity:0.89;}.cls-110{fill:#95c0d4;opacity:0.9;}.cls-111{fill:#94bfd3;opacity:0.91;}.cls-112{fill:#93bfd3;opacity:0.92;}.cls-113{fill:#92bed3;opacity:0.92;}.cls-114{fill:#91bed2;opacity:0.93;}.cls-115{fill:#90bdd2;opacity:0.94;}.cls-116{fill:#8fbdd1;opacity:0.95;}.cls-117{fill:#8ebcd1;opacity:0.96;}.cls-118{fill:#8dbbd1;opacity:0.97;}.cls-119{fill:#8cbbd0;opacity:0.97;}.cls-120{fill:#8bbad0;opacity:0.98;}.cls-121{fill:#8abacf;opacity:0.99;}.cls-122{fill:#89b9cf;}.cls-123{fill:#473321;}.cls-124,.cls-125{fill:#d4584d;}.cls-126{fill:#ea706a;}.cls-127{fill:#fc7e7e;}.cls-128{fill:#9e592a;}.cls-129{fill:#351e03;}.cls-130{fill:#a06107;}.cls-131{fill:#e2c30e;}.cls-132,.cls-134{fill:#ccaa06;}.cls-133{fill:#f2cd14;}.cls-134,.cls-140{opacity:0.3;}.cls-135{fill:#ffd72e;}.cls-136{fill:#7c4203;}.cls-137,.cls-140{fill:#ff9715;}.cls-138{fill:#ffa543;}.cls-139{fill:#ffcb97;}.cls-139,.cls-147{opacity:0.5;}.cls-141{fill:#023530;}.cls-142,.cls-146,.cls-147{fill:#42938d;}.cls-143{fill:#338980;}.cls-144{fill:#66c6bd;}</style></defs><title>2</title><g class="cls-1"><g id="Layer_2" data-name="Layer 2"><g id="l1"><g class="cls-2"><path class="cls-3" d="M83.33,74.31c0,5.87-18.66,10.63-41.67,10.63S0,80.18,0,74.31,18.65,63.68,41.66,63.68,83.33,68.44,83.33,74.31Z"/><path class="cls-4" d="M83,74.31c0,5.82-18.5,10.55-41.33,10.55S.34,80.13.34,74.31s18.5-10.55,41.32-10.55S83,68.48,83,74.31Z"/><path class="cls-5" d="M82.65,74.31c0,5.77-18.35,10.46-41,10.46s-41-4.69-41-10.46S19,63.85,41.66,63.85,82.65,68.53,82.65,74.31Z"/><path class="cls-6" d="M82.32,74.31c0,5.73-18.2,10.37-40.66,10.37S1,80,1,74.31s18.2-10.37,40.65-10.37S82.32,68.58,82.32,74.31Z"/><path class="cls-7" d="M82,74.31C82,80,63.93,84.6,41.66,84.6S1.35,80,1.35,74.31,19.39,64,41.66,64,82,68.63,82,74.31Z"/><path class="cls-8" d="M81.64,74.31c0,5.63-17.9,10.2-40,10.2s-40-4.57-40-10.2,17.9-10.2,40-10.2S81.64,68.67,81.64,74.31Z"/><path class="cls-9" d="M81.31,74.31c0,5.58-17.75,10.12-39.65,10.12S2,79.89,2,74.31,19.77,64.19,41.66,64.19,81.31,68.72,81.31,74.31Z"/><path class="cls-10" d="M81,74.31c0,5.54-17.6,10-39.31,10s-39.3-4.49-39.3-10,17.59-10,39.3-10S81,68.77,81,74.31Z"/><path class="cls-11" d="M80.63,74.31c0,5.49-17.44,9.94-39,9.94s-39-4.45-39-9.94,17.45-9.94,39-9.94S80.63,68.82,80.63,74.31Z"/><path class="cls-12" d="M80.3,74.31c0,5.44-17.3,9.86-38.64,9.86S3,79.75,3,74.31s17.29-9.86,38.63-9.86S80.3,68.86,80.3,74.31Z"/><path class="cls-13" d="M80,74.31c0,5.39-17.15,9.77-38.3,9.77S3.36,79.7,3.36,74.31s17.15-9.77,38.3-9.77S80,68.91,80,74.31Z"/><path class="cls-14" d="M79.62,74.31c0,5.35-17,9.69-38,9.69s-38-4.34-38-9.69,17-9.69,38-9.69S79.62,69,79.62,74.31Z"/><path class="cls-15" d="M79.29,74.31c0,5.3-16.85,9.6-37.63,9.6S4,79.61,4,74.31s16.84-9.6,37.62-9.6S79.29,69,79.29,74.31Z"/><path class="cls-16" d="M79,74.31c0,5.25-16.69,9.52-37.29,9.52S4.37,79.56,4.37,74.31s16.7-9.51,37.29-9.51S79,69.05,79,74.31Z"/><path class="cls-17" d="M78.62,74.31c0,5.2-16.55,9.43-37,9.43S4.71,79.51,4.71,74.31s16.54-9.43,36.95-9.43S78.62,69.1,78.62,74.31Z"/><path class="cls-18" d="M78.28,74.31c0,5.16-16.4,9.34-36.62,9.34S5.05,79.47,5.05,74.31,21.44,65,41.66,65,78.28,69.15,78.28,74.31Z"/><path class="cls-19" d="M77.94,74.31c0,5.11-16.24,9.26-36.28,9.26S5.38,79.42,5.38,74.31s16.24-9.26,36.28-9.26S77.94,69.2,77.94,74.31Z"/><path class="cls-20" d="M77.61,74.31c0,5.06-16.1,9.17-35.95,9.17S5.72,79.37,5.72,74.31s16.09-9.17,35.94-9.17S77.61,69.24,77.61,74.31Z"/><path class="cls-21" d="M77.27,74.31c0,5-15.94,9.09-35.61,9.09s-35.6-4.08-35.6-9.09S22,65.22,41.66,65.22,77.27,69.29,77.27,74.31Z"/><path class="cls-22" d="M76.93,74.31c0,5-15.79,9-35.27,9s-35.27-4-35.27-9,15.79-9,35.27-9S76.93,69.34,76.93,74.31Z"/><path class="cls-23" d="M76.6,74.31c0,4.92-15.64,8.91-34.94,8.91s-34.93-4-34.93-8.91S22.37,65.4,41.66,65.4,76.6,69.39,76.6,74.31Z"/><path class="cls-24" d="M76.26,74.31c0,4.87-15.49,8.83-34.6,8.83s-34.59-4-34.59-8.83,15.48-8.83,34.59-8.83S76.26,69.43,76.26,74.31Z"/><path class="cls-25" d="M75.92,74.31c0,4.82-15.34,8.74-34.26,8.74S7.4,79.13,7.4,74.31s15.34-8.74,34.26-8.74S75.92,69.48,75.92,74.31Z"/><path class="cls-26" d="M75.59,74.31C75.59,79.09,60.4,83,41.66,83S7.74,79.09,7.74,74.31s15.19-8.66,33.92-8.66S75.59,69.53,75.59,74.31Z"/><path class="cls-27" d="M75.25,74.31c0,4.73-15,8.57-33.59,8.57S8.08,79,8.08,74.31s15-8.57,33.58-8.57S75.25,69.58,75.25,74.31Z"/><path class="cls-28" d="M74.91,74.31C74.91,79,60,82.8,41.66,82.8S8.41,79,8.41,74.31s14.89-8.48,33.25-8.48S74.91,69.62,74.91,74.31Z"/><path class="cls-29" d="M74.58,74.31c0,4.64-14.74,8.4-32.92,8.4S8.75,79,8.75,74.31s14.73-8.4,32.91-8.4S74.58,69.67,74.58,74.31Z"/><path class="cls-30" d="M74.24,74.31c0,4.59-14.59,8.31-32.58,8.31S9.09,78.9,9.09,74.31,23.67,66,41.66,66,74.24,69.72,74.24,74.31Z"/><path class="cls-31" d="M73.9,74.31c0,4.54-14.43,8.23-32.24,8.23S9.42,78.85,9.42,74.31s14.43-8.23,32.24-8.23S73.9,69.77,73.9,74.31Z"/><path class="cls-32" d="M73.57,74.31c0,4.49-14.29,8.14-31.91,8.14S9.76,78.8,9.76,74.31,24,66.17,41.66,66.17,73.57,69.81,73.57,74.31Z"/><path class="cls-33" d="M73.23,74.31c0,4.45-14.13,8.06-31.57,8.06s-31.57-3.61-31.57-8.06,14.14-8,31.57-8S73.23,69.86,73.23,74.31Z"/><path class="cls-34" d="M72.89,74.31c0,4.4-14,8-31.23,8s-31.23-3.57-31.23-8,14-8,31.23-8S72.89,69.91,72.89,74.31Z"/><path class="cls-35" d="M72.56,74.31c0,4.35-13.83,7.88-30.9,7.88s-30.89-3.53-30.89-7.88,13.83-7.88,30.89-7.88S72.56,70,72.56,74.31Z"/><path class="cls-36" d="M72.22,74.31c0,4.3-13.68,7.8-30.56,7.8s-30.56-3.5-30.56-7.8,13.68-7.8,30.56-7.8S72.22,70,72.22,74.31Z"/><path class="cls-37" d="M71.89,74.31c0,4.26-13.54,7.71-30.23,7.71s-30.22-3.45-30.22-7.71S25,66.6,41.66,66.6,71.89,70.05,71.89,74.31Z"/><path class="cls-38" d="M71.55,74.31c0,4.21-13.38,7.63-29.89,7.63s-29.88-3.42-29.88-7.63,13.38-7.63,29.88-7.63S71.55,70.1,71.55,74.31Z"/><path class="cls-39" d="M71.21,74.31c0,4.16-13.23,7.54-29.55,7.54s-29.55-3.38-29.55-7.54,13.23-7.54,29.55-7.54S71.21,70.14,71.21,74.31Z"/><path class="cls-40" d="M70.88,74.31c0,4.11-13.08,7.45-29.22,7.45s-29.21-3.34-29.21-7.45,13.08-7.45,29.21-7.45S70.88,70.19,70.88,74.31Z"/><path class="cls-41" d="M70.54,74.31c0,4.07-12.93,7.37-28.88,7.37s-28.87-3.3-28.87-7.37,12.92-7.37,28.87-7.37S70.54,70.24,70.54,74.31Z"/><path class="cls-42" d="M70.2,74.31c0,4-12.78,7.28-28.54,7.28s-28.54-3.26-28.54-7.28S25.9,67,41.66,67,70.2,70.29,70.2,74.31Z"/><path class="cls-43" d="M69.87,74.31c0,4-12.63,7.2-28.21,7.2s-28.2-3.23-28.2-7.2,12.62-7.2,28.2-7.2S69.87,70.33,69.87,74.31Z"/><path class="cls-44" d="M69.53,74.31c0,3.92-12.48,7.11-27.87,7.11S13.8,78.23,13.8,74.31,26.27,67.2,41.66,67.2,69.53,70.38,69.53,74.31Z"/><path class="cls-45" d="M69.19,74.31c0,3.88-12.32,7-27.53,7s-27.53-3.15-27.53-7,12.33-7,27.53-7S69.19,70.43,69.19,74.31Z"/><path class="cls-46" d="M68.86,74.31c0,3.83-12.18,6.94-27.2,6.94s-27.19-3.11-27.19-6.94,12.17-6.94,27.19-6.94S68.86,70.48,68.86,74.31Z"/><path class="cls-47" d="M68.52,74.31c0,3.78-12,6.85-26.86,6.85s-26.85-3.07-26.85-6.85,12-6.85,26.85-6.85S68.52,70.52,68.52,74.31Z"/><path class="cls-48" d="M68.18,74.31c0,3.73-11.87,6.77-26.52,6.77s-26.52-3-26.52-6.77S27,67.54,41.66,67.54,68.18,70.57,68.18,74.31Z"/><path class="cls-49" d="M67.85,74.31C67.85,78,56.12,81,41.66,81s-26.18-3-26.18-6.68,11.72-6.68,26.18-6.68S67.85,70.62,67.85,74.31Z"/><path class="cls-50" d="M67.51,74.31c0,3.64-11.57,6.6-25.85,6.6s-25.84-3-25.84-6.6,11.57-6.59,25.84-6.59S67.51,70.67,67.51,74.31Z"/><path class="cls-51" d="M67.17,74.31c0,3.59-11.42,6.51-25.51,6.51S16.15,77.9,16.15,74.31,27.57,67.8,41.66,67.8,67.17,70.71,67.17,74.31Z"/><path class="cls-52" d="M66.84,74.31c0,3.55-11.27,6.42-25.18,6.42s-25.17-2.87-25.17-6.42,11.27-6.42,25.17-6.42S66.84,70.76,66.84,74.31Z"/><path class="cls-53" d="M66.5,74.31c0,3.5-11.12,6.34-24.84,6.34s-24.84-2.84-24.84-6.34S27.94,68,41.66,68,66.5,70.81,66.5,74.31Z"/><path class="cls-54" d="M66.16,74.31c0,3.45-11,6.25-24.5,6.25s-24.5-2.8-24.5-6.25,11-6.25,24.5-6.25S66.16,70.86,66.16,74.31Z"/><path class="cls-55" d="M65.83,74.31c0,3.4-10.82,6.17-24.17,6.17S17.5,77.71,17.5,74.31s10.81-6.17,24.16-6.17S65.83,70.9,65.83,74.31Z"/><path class="cls-56" d="M65.49,74.31c0,3.36-10.67,6.08-23.83,6.08s-23.83-2.72-23.83-6.08,10.67-6.08,23.83-6.08S65.49,71,65.49,74.31Z"/><path class="cls-57" d="M65.16,74.31c0,3.31-10.52,6-23.5,6s-23.49-2.68-23.49-6,10.52-6,23.49-6S65.16,71,65.16,74.31Z"/><path class="cls-58" d="M64.82,74.31c0,3.26-10.37,5.91-23.16,5.91s-23.15-2.65-23.15-5.91S28.87,68.4,41.66,68.4,64.82,71.05,64.82,74.31Z"/><path class="cls-59" d="M64.48,74.31c0,3.21-10.21,5.82-22.82,5.82s-22.82-2.61-22.82-5.82,10.22-5.82,22.82-5.82S64.48,71.09,64.48,74.31Z"/><path class="cls-60" d="M64.15,74.31c0,3.17-10.07,5.74-22.49,5.74s-22.48-2.57-22.48-5.74,10.06-5.74,22.48-5.74S64.15,71.14,64.15,74.31Z"/><path class="cls-61" d="M63.81,74.31c0,3.12-9.92,5.65-22.15,5.65s-22.14-2.53-22.14-5.65,9.91-5.65,22.14-5.65S63.81,71.19,63.81,74.31Z"/><path class="cls-62" d="M63.47,74.31c0,3.07-9.76,5.57-21.81,5.57s-21.81-2.5-21.81-5.57,9.77-5.56,21.81-5.56S63.47,71.24,63.47,74.31Z"/><path class="cls-63" d="M63.14,74.31c0,3-9.62,5.48-21.48,5.48s-21.47-2.46-21.47-5.48,9.61-5.48,21.47-5.48S63.14,71.28,63.14,74.31Z"/><path class="cls-64" d="M62.8,74.31c0,3-9.46,5.39-21.14,5.39s-21.13-2.41-21.13-5.39S30,68.92,41.66,68.92,62.8,71.33,62.8,74.31Z"/><path class="cls-65" d="M62.46,74.31c0,2.93-9.31,5.31-20.8,5.31s-20.8-2.38-20.8-5.31S30.17,69,41.66,69,62.46,71.38,62.46,74.31Z"/><path class="cls-66" d="M62.13,74.31c0,2.88-9.17,5.22-20.47,5.22S21.2,77.19,21.2,74.31s9.16-5.22,20.46-5.22S62.13,71.43,62.13,74.31Z"/><path class="cls-67" d="M61.79,74.31c0,2.83-9,5.14-20.13,5.14s-20.12-2.31-20.12-5.14,9-5.14,20.12-5.14S61.79,71.47,61.79,74.31Z"/><path class="cls-68" d="M61.45,74.31c0,2.79-8.86,5-19.79,5s-19.79-2.26-19.79-5,8.86-5,19.79-5S61.45,71.52,61.45,74.31Z"/><path class="cls-69" d="M61.12,74.31c0,2.74-8.71,5-19.46,5s-19.45-2.22-19.45-5,8.71-5,19.45-5S61.12,71.57,61.12,74.31Z"/><path class="cls-70" d="M60.78,74.31c0,2.69-8.56,4.88-19.12,4.88S22.55,77,22.55,74.31s8.55-4.88,19.11-4.88S60.78,71.61,60.78,74.31Z"/><path class="cls-71" d="M60.44,74.31c0,2.64-8.4,4.79-18.78,4.79S22.88,77,22.88,74.31s8.41-4.79,18.78-4.79S60.44,71.66,60.44,74.31Z"/><path class="cls-72" d="M60.11,74.31c0,2.6-8.26,4.71-18.45,4.71s-18.44-2.11-18.44-4.71,8.25-4.71,18.44-4.71S60.11,71.71,60.11,74.31Z"/><path class="cls-73" d="M59.77,74.31c0,2.55-8.11,4.62-18.11,4.62s-18.11-2.07-18.11-4.62,8.11-4.62,18.11-4.62S59.77,71.76,59.77,74.31Z"/><path class="cls-74" d="M59.43,74.31c0,2.5-8,4.53-17.77,4.53s-17.77-2-17.77-4.53,8-4.53,17.77-4.53S59.43,71.8,59.43,74.31Z"/><path class="cls-75" d="M59.1,74.31c0,2.45-7.81,4.45-17.44,4.45s-17.43-2-17.43-4.45,7.8-4.45,17.43-4.45S59.1,71.85,59.1,74.31Z"/><path class="cls-76" d="M58.76,74.31c0,2.41-7.65,4.36-17.1,4.36s-17.1-2-17.1-4.36S32.22,70,41.66,70,58.76,71.9,58.76,74.31Z"/><path class="cls-77" d="M58.43,74.31c0,2.36-7.51,4.28-16.77,4.28S24.9,76.67,24.9,74.31,32.4,70,41.66,70,58.43,72,58.43,74.31Z"/><path class="cls-78" d="M58.09,74.31c0,2.31-7.36,4.19-16.43,4.19s-16.42-1.88-16.42-4.19,7.35-4.19,16.42-4.19S58.09,72,58.09,74.31Z"/><path class="cls-79" d="M57.75,74.31c0,2.27-7.2,4.11-16.09,4.11s-16.09-1.84-16.09-4.11,7.21-4.1,16.09-4.1S57.75,72,57.75,74.31Z"/><path class="cls-80" d="M57.42,74.31c0,2.22-7.06,4-15.76,4s-15.75-1.8-15.75-4,7.05-4,15.75-4S57.42,72.09,57.42,74.31Z"/><path class="cls-81" d="M57.08,74.31c0,2.17-6.9,3.93-15.42,3.93s-15.41-1.76-15.41-3.93,6.9-3.93,15.41-3.93S57.08,72.14,57.08,74.31Z"/><path class="cls-82" d="M56.74,74.31c0,2.12-6.75,3.85-15.08,3.85s-15.08-1.73-15.08-3.85,6.75-3.85,15.08-3.85S56.74,72.18,56.74,74.31Z"/><path class="cls-83" d="M56.41,74.31c0,2.08-6.6,3.76-14.75,3.76s-14.74-1.68-14.74-3.76,6.6-3.76,14.74-3.76S56.41,72.23,56.41,74.31Z"/><path class="cls-84" d="M56.07,74.31c0,2-6.45,3.68-14.41,3.68s-14.4-1.65-14.4-3.68,6.44-3.68,14.4-3.68S56.07,72.28,56.07,74.31Z"/><path class="cls-85" d="M55.73,74.31c0,2-6.3,3.59-14.07,3.59s-14.07-1.61-14.07-3.59,6.3-3.59,14.07-3.59S55.73,72.33,55.73,74.31Z"/><path class="cls-86" d="M55.4,74.31c0,1.93-6.15,3.5-13.74,3.5s-13.73-1.57-13.73-3.5,6.15-3.5,13.73-3.5S55.4,72.37,55.4,74.31Z"/><path class="cls-87" d="M55.06,74.31c0,1.89-6,3.42-13.4,3.42S28.27,76.2,28.27,74.31s6-3.42,13.39-3.42S55.06,72.42,55.06,74.31Z"/><path class="cls-88" d="M54.72,74.31c0,1.84-5.84,3.33-13.06,3.33S28.6,76.15,28.6,74.31,34.45,71,41.66,71,54.72,72.47,54.72,74.31Z"/><path class="cls-89" d="M54.39,74.31c0,1.79-5.7,3.25-12.73,3.25S28.94,76.1,28.94,74.31s5.69-3.25,12.72-3.25S54.39,72.52,54.39,74.31Z"/><path class="cls-90" d="M54.05,74.31c0,1.74-5.55,3.16-12.39,3.16s-12.38-1.42-12.38-3.16,5.54-3.16,12.38-3.16S54.05,72.56,54.05,74.31Z"/><path class="cls-91" d="M53.71,74.31c0,1.7-5.39,3.08-12.05,3.08s-12-1.38-12-3.08,5.4-3.07,12-3.07S53.71,72.61,53.71,74.31Z"/><path class="cls-92" d="M53.38,74.31c0,1.65-5.25,3-11.72,3S30,76,30,74.31s5.24-3,11.71-3S53.38,72.66,53.38,74.31Z"/><path class="cls-93" d="M53,74.31c0,1.6-5.09,2.9-11.38,2.9s-11.38-1.3-11.38-2.9,5.1-2.9,11.38-2.9S53,72.71,53,74.31Z"/><path class="cls-94" d="M52.7,74.31c0,1.55-4.94,2.82-11,2.82s-11-1.27-11-2.82,4.94-2.82,11-2.82S52.7,72.75,52.7,74.31Z"/><path class="cls-95" d="M52.37,74.31c0,1.51-4.79,2.73-10.71,2.73S31,75.82,31,74.31s4.79-2.73,10.7-2.73S52.37,72.8,52.37,74.31Z"/><path class="cls-96" d="M52,74.31C52,75.77,47.39,77,41.66,77s-10.37-1.19-10.37-2.65,4.64-2.64,10.37-2.64S52,72.85,52,74.31Z"/><path class="cls-97" d="M51.7,74.31c0,1.41-4.5,2.56-10,2.56s-10-1.15-10-2.56,4.49-2.56,10-2.56S51.7,72.9,51.7,74.31Z"/><path class="cls-98" d="M51.36,74.31c0,1.36-4.34,2.47-9.7,2.47S32,75.67,32,74.31s4.34-2.47,9.69-2.47S51.36,72.94,51.36,74.31Z"/><path class="cls-99" d="M51,74.31c0,1.32-4.19,2.39-9.36,2.39s-9.36-1.07-9.36-2.39,4.19-2.39,9.36-2.39S51,73,51,74.31Z"/><path class="cls-100" d="M50.69,74.31c0,1.27-4,2.3-9,2.3s-9-1-9-2.3,4-2.3,9-2.3S50.69,73,50.69,74.31Z"/><path class="cls-101" d="M50.35,74.31c0,1.22-3.89,2.22-8.69,2.22S33,75.53,33,74.31s3.88-2.22,8.68-2.22S50.35,73.09,50.35,74.31Z"/><path class="cls-102" d="M50,74.31c0,1.18-3.74,2.13-8.35,2.13s-8.35-1-8.35-2.13,3.74-2.13,8.35-2.13S50,73.13,50,74.31Z"/><path class="cls-103" d="M49.68,74.31c0,1.13-3.59,2-8,2s-8-.91-8-2,3.59-2,8-2S49.68,73.18,49.68,74.31Z"/><path class="cls-104" d="M49.34,74.31c0,1.08-3.44,2-7.68,2s-7.67-.88-7.67-2,3.43-2,7.67-2S49.34,73.23,49.34,74.31Z"/><path class="cls-105" d="M49,74.31c0,1-3.28,1.87-7.34,1.87s-7.34-.84-7.34-1.87,3.29-1.87,7.34-1.87S49,73.27,49,74.31Z"/><path class="cls-106" d="M48.67,74.31c0,1-3.14,1.79-7,1.79s-7-.8-7-1.79,3.13-1.79,7-1.79S48.67,73.32,48.67,74.31Z"/><path class="cls-107" d="M48.33,74.31c0,.94-3,1.7-6.67,1.7S35,75.25,35,74.31s3-1.7,6.66-1.7S48.33,73.37,48.33,74.31Z"/><path class="cls-108" d="M48,74.31c0,.89-2.83,1.62-6.33,1.62s-6.33-.73-6.33-1.62,2.84-1.61,6.33-1.61S48,73.42,48,74.31Z"/><path class="cls-109" d="M47.66,74.31c0,.84-2.69,1.53-6,1.53s-6-.69-6-1.53,2.68-1.53,6-1.53S47.66,73.46,47.66,74.31Z"/><path class="cls-110" d="M47.32,74.31c0,.8-2.53,1.44-5.66,1.44S36,75.11,36,74.31s2.53-1.44,5.65-1.44S47.32,73.51,47.32,74.31Z"/><path class="cls-111" d="M47,74.31c0,.75-2.38,1.36-5.32,1.36s-5.32-.61-5.32-1.36S38.72,73,41.66,73,47,73.56,47,74.31Z"/><path class="cls-112" d="M46.65,74.31c0,.7-2.23,1.27-5,1.27s-5-.57-5-1.27,2.23-1.27,5-1.27S46.65,73.61,46.65,74.31Z"/><path class="cls-113" d="M46.31,74.31c0,.65-2.08,1.19-4.65,1.19S37,75,37,74.31s2.08-1.18,4.65-1.18S46.31,73.65,46.31,74.31Z"/><path class="cls-114" d="M46,74.31c0,.61-1.93,1.1-4.31,1.1s-4.31-.49-4.31-1.1,1.93-1.1,4.31-1.1S46,73.7,46,74.31Z"/><path class="cls-115" d="M45.64,74.31c0,.56-1.78,1-4,1s-4-.45-4-1,1.78-1,4-1S45.64,73.75,45.64,74.31Z"/><path class="cls-116" d="M45.3,74.31c0,.51-1.63.93-3.64.93S38,74.82,38,74.31s1.63-.93,3.64-.93S45.3,73.8,45.3,74.31Z"/><path class="cls-117" d="M45,74.31c0,.46-1.48.84-3.31.84s-3.3-.38-3.3-.84,1.48-.84,3.3-.84S45,73.84,45,74.31Z"/><path class="cls-118" d="M44.63,74.31c0,.42-1.33.76-3,.76s-3-.34-3-.76,1.32-.76,3-.76S44.63,73.89,44.63,74.31Z"/><path class="cls-119" d="M44.29,74.31c0,.37-1.17.67-2.63.67S39,74.68,39,74.31s1.18-.67,2.63-.67S44.29,73.94,44.29,74.31Z"/><path class="cls-120" d="M44,74.31c0,.32-1,.58-2.3.58s-2.29-.26-2.29-.58,1-.58,2.29-.58S44,74,44,74.31Z"/><path class="cls-121" d="M43.62,74.31c0,.27-.88.5-2,.5s-1.95-.23-1.95-.5.87-.5,1.95-.5S43.62,74,43.62,74.31Z"/><path class="cls-122" d="M43.28,74.31c0,.23-.72.41-1.62.41S40,74.54,40,74.31s.73-.41,1.62-.41S43.28,74.08,43.28,74.31Z"/></g><polygon class="cls-123" points="53.98 61.33 47.86 54.73 89.28 12.52 95.4 19.11 53.98 61.33"/><polygon class="cls-124" points="53.87 60.69 48.11 54.48 89.28 12.52 95.05 18.73 53.87 60.69"/><path class="cls-125" d="M88.7,13.7a7.15,7.15,0,0,0-1.78,3A14,14,0,0,1,85.18,20c-2,3-3.41,6.48-5.27,9.59-1.61,2.68-3.51,5.24-5.36,7.74-.6.82-1.22,1.62-1.77,2.47a8.66,8.66,0,0,0-1.44,2.39c1.46-.77,2.48-2.77,3.83-3.82a49.18,49.18,0,0,0,4.39-4.15c2.21-2.19,4.3-4.45,6.54-6.62,1.7-1.63,3.55-3.17,5.13-4.93.57-.64,1.13-1.27,1.75-1.84.36-.33,1.12-.76,1.32-1.23.36-.83-.58-1.36-1.12-1.88S92,16.24,91.39,15.55s-.92-1.16-1.43-1.71c-.82-.91-.83,0-1.63,0Z"/><path class="cls-126" d="M74.46,28c-1.13,1-2,2.33-3.16,3.37S69,33.66,67.93,34.86c-2.16,2.34-4.54,4.59-6.88,6.73a88.1,88.1,0,0,0-8.87,9.56c-.83,1-2,2.7-.76,4,.88.89,1.61,2.65,3.06,2.11A7.52,7.52,0,0,0,57,54.79c1-1.22,2-2.46,2.93-3.71,3.83-4.85,7.91-9.44,11.81-14.22,1.28-1.56,2.47-3.23,3.63-4.89A10.11,10.11,0,0,0,77,29.14a1.39,1.39,0,1,0-2.63-.87Z"/><path class="cls-125" d="M88.93,13.2a40.56,40.56,0,0,1-.4,4.85,28,28,0,0,1-2.1,6.59c-1.09,2.3-2.14,5.16-3.83,7,3.29-3.38,6.34-7.07,9.64-10.43.52-.54,1.12-1,1.66-1.55s.88-.63.4-1.27-1-.86-1.45-1.32-.85-1-1.31-1.46-2.34-2.89-2.61-2.44Z"/><path class="cls-127" d="M70.78,31.67c-1.14,1-2.06,2.36-3.16,3.46-1.34,1.35-2.73,2.65-4,4.11-2.26,2.68-4.74,5.16-7.15,7.68-1.35,1.41-3.55,3.29-3.75,5.47s2,.63,2.71-.1c2-2.08,3.43-4.6,5.35-6.73,3.36-3.74,6.67-7.51,10-11.21.43-.48,2-1.92,1.31-2.86-.54-.74-1.26.14-1.68.37Z"/><polygon class="cls-128" points="52.19 54.08 51.85 54.44 50.08 52.61 50.42 52.25 52.19 54.08"/><polygon class="cls-128" points="56.75 49.35 56.41 49.71 54.64 47.88 54.98 47.52 56.75 49.35"/><polygon class="cls-129" points="60.75 45.24 60.4 45.6 58.63 43.77 58.98 43.41 60.75 45.24"/><polygon class="cls-129" points="64.77 41.1 64.43 41.47 62.66 39.63 63 39.27 64.77 41.1"/><polygon class="cls-129" points="68.01 37.92 67.67 38.28 65.9 36.45 66.24 36.09 68.01 37.92"/><polygon class="cls-129" points="71.17 34.68 70.83 35.05 69.05 33.22 69.39 32.85 71.17 34.68"/><polygon class="cls-129" points="74.57 31.08 74.22 31.44 72.45 29.61 72.8 29.25 74.57 31.08"/><polygon class="cls-129" points="77.91 27.68 77.56 28.04 75.79 26.21 76.13 25.84 77.91 27.68"/><polygon class="cls-129" points="81.56 24.13 81.21 24.49 79.44 22.66 79.78 22.3 81.56 24.13"/><polygon class="cls-129" points="85.49 20.35 85.15 20.71 83.38 18.88 83.72 18.52 85.49 20.35"/><polygon class="cls-129" points="89.43 16.01 89.09 16.37 87.32 14.54 87.66 14.18 89.43 16.01"/><polygon class="cls-130" points="52.99 58.81 45.44 55.11 68.51 4.05 76.06 7.75 52.99 58.81"/><polygon class="cls-131" points="52.69 58.28 45.58 54.8 68.51 4.05 75.62 7.53 52.69 58.28"/><path class="cls-132" d="M68.38,5.28a6.82,6.82,0,0,0-.63,3.2A13.14,13.14,0,0,1,67.28,12c-.84,3.3-.93,6.84-1.58,10.2-.56,2.89-1.42,5.78-2.25,8.6-.26.91-.56,1.83-.77,2.76a8.14,8.14,0,0,0-.5,2.58c1-1.17,1.3-3.27,2.16-4.65a48.81,48.81,0,0,0,2.55-5.12c1.25-2.67,2.37-5.36,3.66-8,1-2,2.12-4,2.94-6.07.3-.74.6-1.49,1-2.2.21-.41.75-1,.78-1.53,0-.85-1-1-1.61-1.26S72.12,6.39,71.36,6s-1.19-.7-1.82-1c-1-.51-.74.3-1.45.53Z"/><path class="cls-133" d="M60.37,22.63c-.68,1.26-1,2.73-1.71,4s-1.27,2.81-1.86,4.23c-1.15,2.78-2.53,5.56-3.91,8.23A85.21,85.21,0,0,0,48.11,50.5c-.4,1.18-.91,3,.61,3.73,1.06.48,2.28,1.77,3.39.8a7.19,7.19,0,0,0,1.48-3c.5-1.41.94-2.83,1.4-4.25,1.83-5.55,4-11,5.87-16.47.63-1.8,1.15-3.67,1.64-5.52a9.38,9.38,0,0,0,.5-3c-.13-2-2.58-1.53-2.61.14Z"/><path class="cls-134" d="M68.42,4.76a38.81,38.81,0,0,1,1.21,4.39,25.71,25.71,0,0,1,.26,6.49c-.22,2.38-.23,5.24-1.12,7.45,1.83-4.08,3.34-8.34,5.17-12.41.29-.65.66-1.29,1-1.92s.57-.85-.06-1.25-1.19-.4-1.71-.66S72.09,6.28,71.52,6s-3-1.74-3.1-1.26Z"/><path class="cls-135" d="M58.31,27.11c-.7,1.27-1.07,2.77-1.69,4.11-.75,1.64-1.57,3.24-2.19,5-1.14,3.11-2.53,6.13-3.85,9.16C49.84,47,48.49,49.41,49,51.39s2-.13,2.37-1c1.07-2.5,1.55-5.2,2.56-7.72,1.77-4.41,3.49-8.84,5.29-13.24.23-.56,1.16-2.36.24-2.95-.72-.46-1.08.55-1.37.9Z"/><polygon class="cls-128" points="49.06 53.06 48.88 53.5 46.72 52.49 46.91 52.06 49.06 53.06"/><polygon class="cls-128" points="51.58 47.37 51.39 47.8 49.24 46.8 49.42 46.37 51.58 47.37"/><polygon class="cls-128" points="53.79 42.41 53.61 42.85 51.45 41.84 51.63 41.41 53.79 42.41"/><polygon class="cls-128" points="56.02 37.41 55.84 37.85 53.68 36.85 53.87 36.41 56.02 37.41"/><polygon class="cls-128" points="57.87 33.52 57.69 33.96 55.52 32.96 55.71 32.52 57.87 33.52"/><polygon class="cls-128" points="59.62 29.62 59.43 30.06 57.27 29.05 57.46 28.62 59.62 29.62"/><polygon class="cls-128" points="61.47 25.31 61.28 25.74 59.12 24.74 59.31 24.3 61.47 25.31"/><polygon class="cls-128" points="63.33 21.19 63.14 21.63 60.98 20.63 61.17 20.19 63.33 21.19"/><polygon class="cls-128" points="65.41 16.84 65.23 17.28 63.07 16.28 63.25 15.84 65.41 16.84"/><polygon class="cls-128" points="67.68 12.2 67.49 12.63 65.33 11.63 65.52 11.2 67.68 12.2"/><polygon class="cls-128" points="69.77 7.05 69.59 7.49 67.43 6.49 67.61 6.05 69.77 7.05"/><path class="cls-136" d="M35.79,1l-1-.62-21,38.74,43.85,26ZM34,14.37l.61.36L46.79,52.41l-25.29-15Z"/><path class="cls-137" d="M35.38.62,34.32,0l-21,38.74,43.85,26ZM33.6,14l.61.36L46.38,52,21.09,37Z"/><path class="cls-138" d="M32.58,7.56c1.13.94,1.44,2.84,2.49,4A8,8,0,0,1,36.35,13a16.08,16.08,0,0,1,1.21,3.54c.83,2.86,1.79,5.68,2.76,8.5.6,1.74,1.21,3.49,1.94,5.18.42,1,.87,2.44,1.73,3.11.85-.52-.06-2.43-.27-3.09-.54-1.75-1-3.51-1.47-5.29-.33-1.3-.51-2.64-.83-3.94s-.85-2.63-1.15-4a26.25,26.25,0,0,0-.93-3.94c-.43-1.11-.87-2.22-1.26-3.36-.46-1.35-.95-2.69-1.35-4.07s-.46-3.78-1.89-4.53c-.67-.35-.8.43-1,1.1a21.46,21.46,0,0,0-.68,2.59,10.81,10.81,0,0,0-.55,2.94Z"/><path class="cls-138" d="M14.1,38.72c1,1.24,3.16,2,4.57,2.75,1.63.81,3.27,1.59,4.89,2.42s3.33,1.83,5,2.71c1.26.67,2.47,1.48,3.77,2.11.91.45,3.09,1.89,4,1.53A8.47,8.47,0,0,0,34,48.68c-1.32-.78-2.67-1.5-4-2.29A65.86,65.86,0,0,1,23.42,42c-1.57-1.2-3.52-2.71-4.14-4.73-.33-1.07-.16-2.81-1-3.58-1.71-1.56-3.15,4-4,4.94-.19.19-.06.1-.2.11Z"/><path class="cls-139" d="M33.82,2.06c.08,2.13-3,4.18-.64,6.08a14.33,14.33,0,0,1,3.21,3.54c.92,1.42,1.56,3.56,2.87,4.62.17-.44-.4-1.62-.54-2.12-.31-1.08-.64-2.16-1-3.22A52.55,52.55,0,0,1,36,5.72C35.9,5.29,34.89.56,33.86,2Z"/><path class="cls-138" d="M41,32.86c.86,3.06,1.77,6.13,2.63,9.18.39,1.35.9,2.65,1.34,4A19.87,19.87,0,0,0,46,49.14c.57,1.1,1.54,1.87,2.09,3s.67,2.12,1.15,3.13a23,23,0,0,0,2.43,3.9c.72,1,1.6,2.38,2.65,2.94,1.62.85.52-1.25.21-1.93a45.62,45.62,0,0,1-1.83-4.39l-3.13-9c-1.22-3.52-2.14-7.12-3.4-10.62a25.48,25.48,0,0,0-1.5-3.84c-.38-.68-1-1.79-1.84-1.93-1.42-.23-1.87,1.89-1.55,2.82Z"/><path class="cls-139" d="M41.42,32.05a4.18,4.18,0,0,0,1.43,3.39c1.25,1.29,1.66,3.2,2.4,4.83C46.12,42.18,47.08,44.1,48,46c.61,1.23,1.21,3.43,2.3,4.25.3-1.2-1-3.12-1.46-4.19-.63-1.64-1.14-3.32-1.73-5-.82-2.34-1.6-4.71-2.22-7.12-.21-.8-.78-3.34-1.93-3.3-.68,0-1.36,1.14-1.39,1.76Z"/><path class="cls-140" d="M31.88,6.27A15.67,15.67,0,0,0,29.8,9.73c-.86,1.61-1.89,3.12-2.77,4.73-1.34,2.41-2.68,4.81-3.86,7.31-1,2.15-2.06,4.25-3.09,6.39-.89,1.82-2.61,4.12-2.63,6.21,1.5.65,4-3.9,4.67-4.89,1.95-2.75,4.45-5.31,6-8.32,1.64-3.19,4.51-5.93,5.57-9.42.31-1,.17-2,.39-3s1-1.89.67-2.91c-.62-2.18-2.83.17-3.38,1.23Z"/><polygon class="cls-136" points="18.88 34.24 16.62 33 16.78 32.69 19.04 33.93 18.88 34.24"/><polygon class="cls-136" points="21.09 29.89 18.83 28.66 18.99 28.34 21.25 29.58 21.09 29.89"/><polygon class="cls-136" points="22.83 26.4 20.58 25.16 20.73 24.85 22.99 26.08 22.83 26.4"/><polygon class="cls-136" points="24.81 23.07 22.56 21.82 22.72 21.51 24.97 22.76 24.81 23.07"/><polygon class="cls-136" points="27.04 18.74 24.79 17.49 24.95 17.18 27.2 18.43 27.04 18.74"/><polygon class="cls-136" points="29.07 15.29 26.82 14.04 26.98 13.73 29.23 14.98 29.07 15.29"/><polygon class="cls-136" points="30.79 12.04 28.54 10.79 28.69 10.47 30.95 11.73 30.79 12.04"/><polygon class="cls-136" points="32.52 8.59 30.27 7.33 30.43 7.02 32.68 8.28 32.52 8.59"/><polygon class="cls-136" points="34.62 5.03 32.37 3.77 32.53 3.46 34.78 4.71 34.62 5.03"/><polygon class="cls-136" points="18.23 31.88 17.29 31.36 17.38 31.18 18.32 31.71 18.23 31.88"/><polygon class="cls-136" points="19.06 30.43 18.12 29.91 18.21 29.74 19.15 30.26 19.06 30.43"/><polygon class="cls-136" points="20.5 27.76 19.56 27.24 19.65 27.07 20.59 27.59 20.5 27.76"/><polygon class="cls-136" points="21.22 26.46 20.28 25.93 20.36 25.76 21.3 26.29 21.22 26.46"/><polygon class="cls-136" points="22.42 24.51 21.48 23.98 21.56 23.82 22.5 24.34 22.42 24.51"/><polygon class="cls-136" points="23.25 23.06 22.31 22.54 22.4 22.36 23.34 22.89 23.25 23.06"/><polygon class="cls-136" points="24.69 20.39 23.75 19.87 23.84 19.7 24.78 20.22 24.69 20.39"/><polygon class="cls-136" points="25.41 19.09 24.47 18.56 24.55 18.39 25.49 18.92 25.41 19.09"/><polygon class="cls-136" points="26.47 16.87 25.53 16.34 25.62 16.17 26.56 16.7 26.47 16.87"/><polygon class="cls-136" points="27.3 15.42 26.36 14.89 26.45 14.72 27.39 15.25 27.3 15.42"/><polygon class="cls-136" points="28.38 13.27 27.43 12.75 27.52 12.58 28.46 13.1 28.38 13.27"/><polygon class="cls-136" points="29.08 12.08 28.13 11.56 28.22 11.39 29.16 11.91 29.08 12.08"/><polygon class="cls-136" points="30.1 10.11 29.16 9.59 29.25 9.41 30.19 9.94 30.1 10.11"/><polygon class="cls-136" points="30.8 8.92 29.86 8.39 29.95 8.22 30.89 8.75 30.8 8.92"/><polygon class="cls-136" points="32.09 6.39 31.15 5.87 31.24 5.7 32.18 6.22 32.09 6.39"/><polygon class="cls-136" points="32.8 5.21 31.85 4.68 31.94 4.51 32.88 5.03 32.8 5.21"/><path class="cls-141" d="M64.56,33.92a.29.29,0,0,1-.31.27h-29a.29.29,0,0,1-.31-.27h0a.29.29,0,0,1,.31-.26H64.25a.29.29,0,0,1,.31.26Z"/><path class="cls-141" d="M44.93,18.88s0-.13,0-.15a1,1,0,0,0-.07.25A1,1,0,0,1,46,18c.81.06.48.49.75,1s.67.39,1.31.3,1.07.28,1.7.28c1.81,0,.12-1.78,1.09-2.08s2.13,1.33,1.66,2c-.67,1-2.68,1.13-3.83.9-.81-.16-1.59-.28-2.41-.39-.52-.07-1.15-.23-1.3-.74-.07,0-.14,0-.2,0Z"/><path class="cls-142" d="M49.32,8.65a.76.76,0,0,1-.81.69h0a.76.76,0,0,1-.81-.69V7.45a.76.76,0,0,1,.81-.69h0a.76.76,0,0,1,.81.69Z"/><path class="cls-141" d="M49.32,19.41a.75.75,0,0,1-.81.68h0a.76.76,0,0,1-.81-.68V10a.76.76,0,0,1,.81-.69h0a.76.76,0,0,1,.81.69Z"/><path class="cls-143" d="M48.38,8.62c-4.21,0-7.63,2.89-7.63,6.45s3.42,6.46,7.63,6.46S56,18.64,56,15.07,52.6,8.62,48.38,8.62Zm0,11.33c-3.22,0-5.83-2.31-5.83-5.16s2.61-5.16,5.83-5.16,5.84,2.31,5.84,5.16S51.6,20,48.38,20Z"/><path class="cls-142" d="M46.18,20.22,44.78,20A1.55,1.55,0,0,0,43,21l-6,24.9a1.22,1.22,0,0,0,.62,1.33l-2.19,9c-.16.66-.59,2.11.18,2.25l1,2c.78.13,1.5-3.13,1.65-3.79l2.21-9.09v0a1.39,1.39,0,0,0,1-1l6.05-24.91A1.32,1.32,0,0,0,46.18,20.22Z"/><path class="cls-144" d="M44.38,20.27c-.66-.56-.83.82-.88,1.14a14.34,14.34,0,0,1-.68,2.33c-.68,2-1.11,4.07-1.6,6.14-.94,4-1.83,8.08-3.12,12a16.18,16.18,0,0,0-.87,3.2,2.84,2.84,0,0,0,0,1.16c.15.39.57.5.61,1a5.22,5.22,0,0,1-.27,1.28c-.09.57-.11,1.15-.2,1.71a19.52,19.52,0,0,0-.55,3.86c.46-1.41.76-2.87,1.16-4.31a23.2,23.2,0,0,0,.82-3.58c0-.42,0-.85,0-1.27a12.07,12.07,0,0,1,.43-1.75c.34-1.53.78-3,1.16-4.55.5-2,1.25-4,1.89-6,.5-1.56.82-3.15,1.3-4.71.56-1.82,1.52-3.6,2-5.42.3-1.23.11-1.9-1.28-2.32Z"/><path class="cls-145" d="M44.31,20.09c-1-.07-1.26,2.11-1.45,2.72-.44,1.42-.64,2.84-1,4.28-.68,3.05-1.64,6.05-2.4,9.09-.51,2.09-.92,4.17-1.43,6.23-.2.82-.34,1.7-.52,2.49A2.23,2.23,0,0,0,37.41,46c.1.34.66.61.41,1a12,12,0,0,1,.7-4.27c.48-1.7.67-3.42,1.06-5.14.9-3.94,2.48-7.74,3.43-11.68.31-1.25.82-2.47,1.22-3.7.25-.77.61-1.52-.06-2.13Z"/><path class="cls-146" d="M43.15,20.79c.05-.95,2.09.18,2.32.69.65,1.41-.63,2.73-.56,4.17a3.28,3.28,0,0,1-.6,1.8,4.79,4.79,0,0,0-.34,2A31,31,0,0,1,42.9,34.2c-.68,2.54-1,5.15-1.78,7.68-.35,1.16-1,3.37-2.6,3.59a5.27,5.27,0,0,1-.89,0c-.28.59.07,1,.69,1.33,1,.45,1.08.45.85,1.42a21.75,21.75,0,0,0-.25,2.56c-.1.81-.4,1.62-.56,2.42-.21,1-.3,3.17-1.54,3.66-.65.26-1.09-.36-1.25.39s.69,1.13.89,1.72c.09.26,0,.49.27.66a7.21,7.21,0,0,0,1.15-2.4,15.09,15.09,0,0,0,.51-2.11c.34-1.55.65-3.14.94-4.7A7.2,7.2,0,0,1,40.49,47c1.07-1.3,4.89-19.42,5.39-21a18.06,18.06,0,0,0,1-3.41c.11-.93.29-1.8-.89-2.2-.54-.18-2.26-.66-2.53.06.07.14,0,0,.07-.06Z"/><path class="cls-142" d="M51,20l1.4-.24a1.56,1.56,0,0,1,1.82,1l6,24.91A1.2,1.2,0,0,1,59.59,47l2.2,9c.16.65.59,2.11-.19,2.24l-1,2c-.78.14-1.49-3.13-1.65-3.78l-2.21-9.09a0,0,0,0,0,0,0,1.39,1.39,0,0,1-1-1l-6-24.91A1.32,1.32,0,0,1,51,20Z"/><path class="cls-144" d="M52.75,20c.66-.56.83.82.89,1.14a15.25,15.25,0,0,0,.67,2.32c.68,2,1.11,4.08,1.6,6.15,1,4,1.83,8.08,3.12,12a16.21,16.21,0,0,1,.88,3.2,3,3,0,0,1,0,1.16c-.15.38-.57.5-.61,1a5.32,5.32,0,0,0,.27,1.28c.09.57.11,1.14.2,1.71a18.81,18.81,0,0,1,.55,3.86c-.46-1.41-.76-2.88-1.16-4.31a23.47,23.47,0,0,1-.82-3.58c-.05-.42,0-.85,0-1.27a13.49,13.49,0,0,0-.42-1.75c-.35-1.53-.79-3-1.17-4.55-.5-2-1.25-4-1.89-6-.5-1.57-.82-3.15-1.3-4.72-.56-1.81-1.52-3.59-2-5.42-.3-1.21-.11-1.89,1.28-2.31Z"/><path class="cls-145" d="M52.82,19.84c1-.09,1.26,2.1,1.45,2.71.45,1.42.64,2.83,1,4.28.67,3.05,1.63,6.05,2.39,9.09.51,2.09.92,4.17,1.43,6.23.2.82.34,1.7.53,2.49a2.25,2.25,0,0,1,.14,1.1c-.1.33-.66.59-.41,1a12.09,12.09,0,0,0-.7-4.28c-.48-1.69-.67-3.41-1.06-5.13-.9-3.94-2.48-7.74-3.43-11.68-.31-1.25-.82-2.47-1.22-3.7-.25-.77-.61-1.52.06-2.14Z"/><path class="cls-146" d="M54,20.53c0-1-2.09.18-2.32.68-.64,1.42.64,2.74.56,4.17a3.32,3.32,0,0,0,.6,1.81,4.75,4.75,0,0,1,.34,2,29.82,29.82,0,0,0,1.08,4.79c.67,2.53,1,5.15,1.77,7.68.35,1.16,1,3.37,2.6,3.59a8.75,8.75,0,0,0,.89,0c.28.59-.07,1-.69,1.33C57.87,47,57.73,47,58,48a22.18,22.18,0,0,1,.25,2.56c.1.82.4,1.62.57,2.43.2,1,.3,3.16,1.54,3.65.64.27,1.08-.35,1.24.4s-.68,1.13-.89,1.72c-.09.26-.05.49-.27.66A7.21,7.21,0,0,1,59.25,57a17.06,17.06,0,0,1-.51-2.11c-.34-1.55-.65-3.15-.94-4.71a7.3,7.3,0,0,0-1.15-3.39c-1.08-1.3-4.9-19.43-5.4-21a19.06,19.06,0,0,1-1-3.41c-.11-.94-.28-1.8.89-2.2.54-.19,2.26-.66,2.53.06-.07.14,0,0-.07-.06Z"/><path class="cls-142" d="M50.8,20.87a2.36,2.36,0,0,1-4.58,0,2.36,2.36,0,0,1,4.58,0Z"/><path class="cls-146" d="M46.63,19.86c.16-1,2.25-.76,2.39.23s-1.43,1.46-2.18.84c-.79,1.89,3.33,2.08,3.89.21s-2.84-3.23-3.89-1.45Z"/><path class="cls-141" d="M50.06,5.69a2,2,0,0,1-1.68,2.18h0a2,2,0,0,1-1.67-2.18V2.27A1.51,1.51,0,0,1,48.38.61h0a1.51,1.51,0,0,1,1.68,1.66Z"/><path class="cls-141" d="M49.78,19.34c.71.53.41,2.07-.35,2.56a2.29,2.29,0,0,1-1.77.34c-.55-.18-.68-.65-1.1-.93-.36.55.85,1,1.3,1.1a7.37,7.37,0,0,0,1.86.07c.47,0,.31-.09.52.33.11.24.16.56.27.81.25.59.53,1.38.77,1.86,0-.92-.33-1.82-.34-2.73a2.56,2.56,0,0,1,.25-.92c.07-.23,0-.61.09-.81s1.26-.73.89-1.09-1.14.69-1.57.73a1.63,1.63,0,0,0-1.5-1.56c-.06-.1,0-.06.06-.1Z"/><path class="cls-141" d="M43.9,31.23a1.35,1.35,0,1,1-1.33-1.08A1.22,1.22,0,0,1,43.9,31.23Z"/><path class="cls-141" d="M55.89,30.78a1.36,1.36,0,1,1-1.34-1.1A1.24,1.24,0,0,1,55.89,30.78Z"/><path class="cls-141" d="M38.51,41.62a.9.9,0,0,1-1.06.52h0a.73.73,0,0,1-.63-.89l1.1-3.62a.88.88,0,0,1,1-.53h0a.73.73,0,0,1,.63.89Z"/><path class="cls-141" d="M61.89,50.92a3.55,3.55,0,1,1-3.51-3.08A3.32,3.32,0,0,1,61.89,50.92Z"/><path class="cls-142" d="M61.55,50.92a3.2,3.2,0,1,1-3.17-2.77A3,3,0,0,1,61.55,50.92Z"/><path class="cls-141" d="M58.82,50.92a.73.73,0,1,1-.71-.6A.66.66,0,0,1,58.82,50.92Z"/><path class="cls-147" d="M58.26,48.44c1.33.47,2.08,2.09,1.28,3.15a3,3,0,0,1-2.25,1.15c.27.73,2,.66,2.61.41a2.64,2.64,0,0,0,1.53-2.37,2.26,2.26,0,0,0-1.07-2.16c-.56-.35-1.57-.78-2.2-.4Z"/><path class="cls-141" d="M50.06,37.16a1.23,1.23,0,0,1-1.33,1.12h0a1.23,1.23,0,0,1-1.32-1.12V30.93a1.24,1.24,0,0,1,1.32-1.13h0a1.24,1.24,0,0,1,1.33,1.13Z"/></g></g></g></svg>