<svg xmlns="http://www.w3.org/2000/svg" viewBox="0 0 83.37 79.16"><defs><style>.cls-1{isolation:isolate;}.cls-2{fill:#b2a896;}.cls-3,.cls-8{fill:#fff2d9;}.cls-4{fill:#a08e75;}.cls-5{fill:#5fb0b2;}.cls-6{fill:#d4584d;}.cls-7{fill:#f29706;}.cls-10,.cls-12,.cls-24,.cls-25,.cls-26,.cls-27,.cls-38,.cls-39,.cls-8{mix-blend-mode:multiply;}.cls-40,.cls-9{fill:#fff;}.cls-10,.cls-27,.cls-9{opacity:0.3;}.cls-10{fill:#80adad;}.cls-11{fill:#fff243;}.cls-12,.cls-27{fill:#1b6d96;}.cls-12{opacity:0.4;}.cls-13{fill:#e00b2a;}.cls-14{fill:#7c0303;}.cls-15{fill:#b5130f;}.cls-16{fill:#fcd8b6;}.cls-17{fill:#e0b892;}.cls-18{fill:#ffe5cf;}.cls-19{fill:#c68a59;}.cls-20{fill:#8a5d3b;}.cls-21{fill:#faaf40;}.cls-22,.cls-25,.cls-26{fill:#a87c4f;}.cls-23{fill:#ffe5b6;}.cls-24{fill:#ffc880;opacity:0.23;}.cls-25{opacity:0.79;}.cls-26{opacity:0.55;}.cls-28{fill:#0030bf;}.cls-29{fill:#00097f;}.cls-30{fill:#000955;}.cls-31{fill:#26a9e0;}.cls-32{fill:#1b75bb;}.cls-33{fill:#52d6ff;}.cls-34,.cls-38{fill:#bec2cc;}.cls-35{fill:#ced3dd;}.cls-36{fill:#dce2ea;}.cls-37{fill:#e9edf2;}.cls-38,.cls-39{opacity:0.6;}.cls-40{opacity:0;}.cls-41{fill:#fefeff;opacity:0.01;}.cls-42{fill:#fdfefe;opacity:0.02;}.cls-43{fill:#fcfdfe;opacity:0.03;}.cls-44{fill:#fbfdfd;opacity:0.03;}.cls-45{fill:#fafcfd;opacity:0.04;}.cls-46{fill:#f9fbfd;opacity:0.05;}.cls-47{fill:#f8fbfc;opacity:0.06;}.cls-48{fill:#f7fafc;opacity:0.07;}.cls-49{fill:#f6fafb;opacity:0.08;}.cls-50{fill:#f5f9fb;opacity:0.08;}.cls-51{fill:#f4f9fb;opacity:0.09;}.cls-52{fill:#f3f8fa;opacity:0.1;}.cls-53{fill:#f2f7fa;opacity:0.11;}.cls-54{fill:#f1f7f9;opacity:0.12;}.cls-55{fill:#f0f6f9;opacity:0.13;}.cls-56{fill:#eff6f9;opacity:0.13;}.cls-57{fill:#eef5f8;opacity:0.14;}.cls-58{fill:#edf4f8;opacity:0.15;}.cls-59{fill:#ecf4f7;opacity:0.16;}.cls-60{fill:#ebf3f7;opacity:0.17;}.cls-61{fill:#eaf3f7;opacity:0.18;}.cls-62{fill:#e9f2f6;opacity:0.18;}.cls-63{fill:#e8f1f6;opacity:0.19;}.cls-64{fill:#e7f1f5;opacity:0.2;}.cls-65{fill:#e6f0f5;opacity:0.21;}.cls-66{fill:#e5f0f5;opacity:0.22;}.cls-67{fill:#e4eff4;opacity:0.23;}.cls-68{fill:#e3eff4;opacity:0.24;}.cls-69{fill:#e2eef3;opacity:0.24;}.cls-70{fill:#e1edf3;opacity:0.25;}.cls-71{fill:#e0edf2;opacity:0.26;}.cls-72{fill:#dfecf2;opacity:0.27;}.cls-73{fill:#deecf2;opacity:0.28;}.cls-74{fill:#ddebf1;opacity:0.29;}.cls-75{fill:#dceaf1;opacity:0.29;}.cls-76{fill:#dbeaf0;opacity:0.3;}.cls-77{fill:#dae9f0;opacity:0.31;}.cls-78{fill:#d9e9f0;opacity:0.32;}.cls-79{fill:#d8e8ef;opacity:0.33;}.cls-80{fill:#d7e7ef;opacity:0.34;}.cls-81{fill:#d6e7ee;opacity:0.34;}.cls-82{fill:#d5e6ee;opacity:0.35;}.cls-83{fill:#d4e6ee;opacity:0.36;}.cls-84{fill:#d3e5ed;opacity:0.37;}.cls-85{fill:#d2e5ed;opacity:0.38;}.cls-86{fill:#d1e4ec;opacity:0.39;}.cls-87{fill:#d0e3ec;opacity:0.39;}.cls-88{fill:#cfe3ec;opacity:0.4;}.cls-89{fill:#cee2eb;opacity:0.41;}.cls-90{fill:#cde2eb;opacity:0.42;}.cls-91{fill:#cce1ea;opacity:0.43;}.cls-92{fill:#cbe0ea;opacity:0.44;}.cls-93{fill:#cae0ea;opacity:0.45;}.cls-94{fill:#c9dfe9;opacity:0.45;}.cls-95{fill:#c8dfe9;opacity:0.46;}.cls-96{fill:#c7dee8;opacity:0.47;}.cls-97{fill:#c6dde8;opacity:0.48;}.cls-98{fill:#c5dde8;opacity:0.49;}.cls-100,.cls-99{fill:#c4dce7;}.cls-99{opacity:0.5;}.cls-100{opacity:0.5;}.cls-101{fill:#c3dbe6;opacity:0.51;}.cls-102{fill:#c2dbe6;opacity:0.52;}.cls-103{fill:#c1dae6;opacity:0.53;}.cls-104{fill:#c0d9e5;opacity:0.54;}.cls-105{fill:#bfd9e5;opacity:0.55;}.cls-106{fill:#bed8e4;opacity:0.55;}.cls-107{fill:#bdd8e4;opacity:0.56;}.cls-108{fill:#bcd7e4;opacity:0.57;}.cls-109{fill:#bbd6e3;opacity:0.58;}.cls-110{fill:#bad6e3;opacity:0.59;}.cls-111{fill:#b9d5e2;opacity:0.6;}.cls-112{fill:#b8d5e2;opacity:0.61;}.cls-113{fill:#b7d4e2;opacity:0.61;}.cls-114{fill:#b6d3e1;opacity:0.62;}.cls-115{fill:#b5d3e1;opacity:0.63;}.cls-116{fill:#b4d2e0;opacity:0.64;}.cls-117{fill:#b3d2e0;opacity:0.65;}.cls-118{fill:#b2d1e0;opacity:0.66;}.cls-119{fill:#b1d1df;opacity:0.66;}.cls-120{fill:#b0d0df;opacity:0.67;}.cls-121{fill:#afcfde;opacity:0.68;}.cls-122{fill:#aecfde;opacity:0.69;}.cls-123{fill:#adcede;opacity:0.7;}.cls-124{fill:#accedd;opacity:0.71;}.cls-125{fill:#abcddd;opacity:0.71;}.cls-126{fill:#aaccdc;opacity:0.72;}.cls-127{fill:#a9ccdc;opacity:0.73;}.cls-128{fill:#a8cbdc;opacity:0.74;}.cls-129{fill:#a7cbdb;opacity:0.75;}.cls-130{fill:#a6cadb;opacity:0.76;}.cls-131{fill:#a5c9da;opacity:0.76;}.cls-132{fill:#a4c9da;opacity:0.77;}.cls-133{fill:#a3c8d9;opacity:0.78;}.cls-134{fill:#a2c8d9;opacity:0.79;}.cls-135{fill:#a1c7d9;opacity:0.8;}.cls-136{fill:#a0c7d8;opacity:0.81;}.cls-137{fill:#9fc6d8;opacity:0.82;}.cls-138{fill:#9ec5d7;opacity:0.82;}.cls-139{fill:#9dc5d7;opacity:0.83;}.cls-140{fill:#9cc4d7;opacity:0.84;}.cls-141{fill:#9bc4d6;opacity:0.85;}.cls-142{fill:#9ac3d6;opacity:0.86;}.cls-143{fill:#99c2d5;opacity:0.87;}.cls-144{fill:#98c2d5;opacity:0.87;}.cls-145{fill:#97c1d5;opacity:0.88;}.cls-146{fill:#96c1d4;opacity:0.89;}.cls-147{fill:#95c0d4;opacity:0.9;}.cls-148{fill:#94bfd3;opacity:0.91;}.cls-149{fill:#93bfd3;opacity:0.92;}.cls-150{fill:#92bed3;opacity:0.92;}.cls-151{fill:#91bed2;opacity:0.93;}.cls-152{fill:#90bdd2;opacity:0.94;}.cls-153{fill:#8fbdd1;opacity:0.95;}.cls-154{fill:#8ebcd1;opacity:0.96;}.cls-155{fill:#8dbbd1;opacity:0.97;}.cls-156{fill:#8cbbd0;opacity:0.97;}.cls-157{fill:#8bbad0;opacity:0.98;}.cls-158{fill:#8abacf;opacity:0.99;}.cls-159{fill:#89b9cf;}</style></defs><title>3</title><g class="cls-1"><g id="Layer_2" data-name="Layer 2"><g id="l1"><path class="cls-2" d="M56.81,57.44a.66.66,0,0,1-.63.69H16.94a.67.67,0,0,1-.64-.69V8.15a.66.66,0,0,1,.64-.68H56.18a.65.65,0,0,1,.63.68Z"/><path class="cls-3" d="M56.81,57.08a.66.66,0,0,1-.63.69H16.94a.67.67,0,0,1-.64-.69V7.79a.67.67,0,0,1,.64-.69H56.18a.66.66,0,0,1,.63.69Z"/><path class="cls-4" d="M56.18,57.88H16.94a.78.78,0,0,1-.75-.8V7.79a.78.78,0,0,1,.75-.8H56.18a.77.77,0,0,1,.74.8V57.08A.77.77,0,0,1,56.18,57.88ZM16.94,7.22a.54.54,0,0,0-.52.57V57.08a.54.54,0,0,0,.52.57H56.18a.54.54,0,0,0,.52-.57V7.79a.54.54,0,0,0-.52-.57Z"/><path class="cls-5" d="M43.61,34.91c-.67-1.08-2.49-.45-3.06.47-.76,1.21,0,2.52-.18,3.8-2,1.26-7-.29-6.6-3-1.77-.32-3.72,1.65-2.84,3.45.55,1.11,2.86,2.21.14,3.26-1.56.61-3.14-.89-4.51.27-2.16,1.82-.56,4.34,1.58,5a5.21,5.21,0,0,0,4.58-1.27c.71-.62,1.48-2.56,2.85-2s0,2.53,1,3.39c.51.49,1.57-.06,1.94.3.57.55-.16,1.87.19,2.54.86,1.7,3.18.94,4.15-.17,1.54-1.75.73-2.72.19-4.46-.75-2.4.62-1.32,1.74-2.34s-.2-2.52,1.61-2.16c.94.18,1.4,2,2.69.85s-.89-2.19-.78-3.36c.08-.8,1.77-1.33,1.15-2.71-.53-1.18-2.13-.91-3.21-1,.13-1.14,1.42-2.35-.18-3.13-1.29-.63-2.24.6-2.54,1.74.08.22.06-.11.13-.18Z"/><path class="cls-6" d="M21.26,16.59c.77,2.09,2.07,2.06,4.33,1.8s7.71-1.63,7.57,2.34c-.11,3.3-5,3.54-6.89,5.41a6.45,6.45,0,0,0-1.51,3.51A14.48,14.48,0,0,1,23,33.15c-1.87,3.67.95,7.92,4.66,9.22,4.5,1.58,6.51-.87,9-4,2-2.51,4.14-5.39,7.56-5.82,2.21-.28,3.94,0,4.22,2.35,3.33-4.42-6.47-3.16-8.39-2.51-2.35.79-5.31,2.82-7.92,2.2-3.32-.79-2.09-4.06.23-5.26,1.16-.6,2.3-.86,3.18-1.87s1.06-2.67,1.92-3.7c.7-.85,1.78-1,2.42-1.87a3.8,3.8,0,0,0,0-3.87,5.49,5.49,0,0,0-7.05-2.22,10.6,10.6,0,0,1-6.19,1.27,5.25,5.25,0,0,1-3.18-1.39c-.5-.54-.65-2-1.27-2.12-1.4-.18-1.56,4.55.15,3.67Z"/><path class="cls-7" d="M39,28.54a2.53,2.53,0,0,1-.62,0,13.91,13.91,0,0,1-.16-3.13c.11-.48.78-.58.78-1.3s-.81-1.43-1.33-1.72c-3.27-1.84-5.55,2.92-1.75,2.7.09.78.83,3.16.63,3.79s-2.2,1.65-3,1.41c-.88-5.57-8.3,2.61-3.4,3.22,1.29.16,1.49-.57,2.44-1s1.18-.1,2.05,0c1.24.11,2.75,0,2.58,1.78-.23,2.43-6.77,3.41-4.87,7.13,1.09,2.14,4.71,1.21,5.84-.4,1-1.39,1.13-4.15.8-5.79-.12-.63-1.21-1.79-.7-2.42s2.38.67,2.17-1.2c.3.06.77-.12,1.07-.06.63-1-.69-1-.14-1.92.46-.75,2.39-.8,3.07-1.55s1-2-.17-2.55-1.7.61-2.54,1.1c0-.46.4-1.72,0-2.1-.76-.75-1.6.28-1.86.84s.17,1.59,0,2.11c-.21.69-.78.93-.92,1.23Z"/><path class="cls-8" d="M52,8.63c0,6.43-.52,13.46-2.57,19.6a69.7,69.7,0,0,1-9,17.35C37.35,50.09,28.5,56.14,23.19,57.7c6.06.45,16.49-.58,22.51-.34,2.72.11,5.48,0,8.2,0,2,0,2.17-.3,2.25-2.26.06-1.68,0-3.38,0-5.06,0-7.39-.51-14.9-.16-22.34.16-3.53,0-7.1,0-10.63,0-2.61.86-5.55.32-8.12-.27-1.3-.57-1.64-2.1-1.6-.83,0-2.36.37-2.24,1.44Z"/><path class="cls-9" d="M28.17,8.15c-3.78,1.2-5.31,9.46-6.15,12.74-1.24,4.84-1.17,10.09-2.57,14.8-.56-.9-.39-2.65-.48-3.77-.18-2.12-.33-4.29-.45-6.41-.25-4.3-.39-8.68-.8-12.94-.09-1-.54-2.83-.16-3.78.53-1.32,1.67-1,3.06-1,2.24,0,5.36.51,7.44-.13.25,0,0,.13,0,.29Z"/><path class="cls-10" d="M41.52.35c-2.12-.56-3.78,5.86-4.3,7.36-1.75,5-3.59,9.91-5.67,14.77S27.43,32.2,25.4,37.1c-.73,1.74-1.21,3.57-1.93,5.3-.49,1.17-1.52,2.7-1.53,4,0,1.81,1.42,2,3,2.59,2.63.94,5.07,2.22,7.72,3.15,5.12,1.79,10.35,4.15,15.67,5.3,1.75.37,4.76,1.32,6.24-.08s1.26-4,1.48-5.67c.4-3,.74-6,1.36-9C58.6,36.9,61.94,32.49,64,27.1a26.2,26.2,0,0,0,1.6-9.55A13.11,13.11,0,0,0,62.1,8c-1.91-2-4.78-2.33-7.4-2.91S50,3.17,47.47,2.06c-1.78-.8-4.65-2.29-6.6-2Z"/><path class="cls-2" d="M61.15,61.4a.68.68,0,0,1-.84.42L23.62,48a.65.65,0,0,1-.35-.86L40.91,1.09a.66.66,0,0,1,.84-.42L78.44,14.44a.66.66,0,0,1,.34.87Z"/><path class="cls-3" d="M61.27,61.06a.66.66,0,0,1-.83.42L23.74,47.71a.66.66,0,0,1-.34-.87L41,.75a.67.67,0,0,1,.83-.42l36.7,13.78a.65.65,0,0,1,.34.86Z"/><path class="cls-4" d="M60.65,61.63a.69.69,0,0,1-.25,0L23.7,47.81a.72.72,0,0,1-.39-.38.81.81,0,0,1,0-.63L40.93.71a.82.82,0,0,1,.74-.53.64.64,0,0,1,.24.05L78.61,14a.78.78,0,0,1,.4.38A.86.86,0,0,1,79,15L61.38,61.1A.8.8,0,0,1,60.65,61.63ZM41.67.41a.58.58,0,0,0-.53.38L23.5,46.88a.66.66,0,0,0,0,.46.53.53,0,0,0,.27.26l36.7,13.78a.56.56,0,0,0,.69-.36L78.81,14.93a.58.58,0,0,0,0-.45.48.48,0,0,0-.27-.27L41.84.44Z"/><path class="cls-5" d="M56.86,35.69c-.23-1.23-2.16-1.28-3-.63-1.14.87-.86,2.38-1.52,3.49-2.29.49-6.48-2.74-5.1-5.1-1.55-.92-4.08.24-3.9,2.23.11,1.23,1.88,3.06-1,3.1-1.68,0-2.63-1.94-4.32-1.34-2.67,1-2.07,3.87-.31,5.22a5.2,5.2,0,0,0,4.74.42c.89-.32,2.3-1.87,3.37-.84s-.87,2.38-.32,3.51c.31.64,1.5.49,1.71,1,.33.71-.81,1.69-.73,2.43.2,1.9,2.64,2,3.94,1.3,2.07-1.1,1.66-2.29,1.78-4.1.15-2.51,1-1,2.46-1.58,1.23-.48.71-2.43,2.28-1.46.81.5.59,2.36,2.21,1.74s-.05-2.35.48-3.41c.35-.72,2.13-.62,2-2.13-.08-1.29-1.67-1.6-2.65-2,.53-1,2.16-1.7.95-3-1-1.05-2.31-.23-3,.73,0,.24.1-.09.19-.12Z"/><path class="cls-11" d="M42.52,10.72c0,2.22,1.2,2.65,3.41,3.2s7.78,1.18,6.24,4.85c-1.28,3-6,1.54-8.39,2.64a6.59,6.59,0,0,0-2.66,2.75,14.83,14.83,0,0,1-2.88,2.66c-3.06,2.78-2,7.74,1.06,10.26,3.64,3.05,6.39,1.47,9.86-.57,2.78-1.65,5.8-3.59,9.15-2.8,2.16.52,3.69,1.38,3.1,3.68,4.7-3-4.92-5.22-6.95-5.29-2.47-.08-6,.78-8.19-.72-2.82-1.91-.5-4.53,2.1-4.84,1.3-.15,2.46,0,3.64-.63s2-2.12,3.12-2.79c.95-.54,2-.3,2.93-.9a3.75,3.75,0,0,0,1.39-3.61c-.27-2.81-3.15-4.75-5.79-4.55a10.61,10.61,0,0,1-6.24-1,5.2,5.2,0,0,1-2.48-2.42c-.27-.68.12-2.13-.43-2.42-1.24-.66-3.09,3.71-1.17,3.48Z"/><path class="cls-7" d="M54.78,28.1a2.87,2.87,0,0,1-.57-.24,14.27,14.27,0,0,1,1-3c.27-.42.94-.28,1.19-.95a2.67,2.67,0,0,0-.62-2.07c-2.41-2.87-6.24.78-2.61,1.9-.19.77-.35,3.26-.77,3.78a4.08,4.08,0,0,1-3.3.26c1.17-5.51-8.69-.47-4.33,1.82,1.16.61,1.6,0,2.63-.05s1.14.32,1.93.7c1.11.53,2.56,1,1.77,2.57C50,35,43.53,33.65,44,37.8c.26,2.38,4,2.79,5.61,1.68,1.4-1,2.54-3.49,2.82-5.13.11-.64-.49-2.1.22-2.52s2,1.46,2.45-.36c.26.17.76.15,1,.33,1-.76-.28-1.2.56-1.85s2.52.09,3.42-.37,1.66-1.54.76-2.45-1.81,0-2.77.14c.2-.42,1-1.47.76-2-.44-1-1.58-.3-2,.14s-.41,1.54-.75,2-1.07.6-1.31.83Z"/><path class="cls-8" d="M74.09,14.06c-2.3,6-5.31,12.4-9.42,17.42a69.89,69.89,0,0,1-14.6,13.07c-4.49,3.14-14.94,5.7-20.46,5.29,5.51,2.54,15.64,5.24,21.17,7.58,2.51,1.06,5.12,1.94,7.67,2.88,1.88.69,2.14.48,2.92-1.33.66-1.54,1.21-3.15,1.81-4.73C65.82,47.33,68,40.14,71,33.3c1.42-3.24,2.54-6.64,3.8-9.94.94-2.44,2.8-4.88,3.21-7.48.21-1.31,0-1.73-1.39-2.24-.78-.27-2.34-.48-2.61.56Z"/><path class="cls-9" d="M52,5.25c-4-.2-8.35,7-10.31,9.75C38.8,19.09,37,24,34,27.94c-.2-1,.59-2.61.9-3.69.6-2,1.23-4.12,1.88-6.15C38.08,14,39.5,9.84,40.65,5.72c.26-1,.51-2.84,1.2-3.6,1-1,1.9-.3,3.2.18,2.1.79,4.83,2.37,7,2.49.21.14-.06.12-.15.26Z"/><path class="cls-12" d="M47.55,37.7c1.17-5.56,8.05,4.89,9.11,6.34,3.63,5,7.3,9.88,11,14.78C70.74,62.9,77.39,70.45,74,76.54c-2.21,4-6.45-3-7.79-5-3.47-5.18-6.43-10.72-9.92-15.88-2.49-3.68-4.34-8-6.39-12-.4-.79-3.5-6.21-1.88-6.42Z"/><polygon class="cls-13" points="66.53 73.8 48.76 44.15 53.06 41.76 70.83 71.41 66.53 73.8"/><polygon class="cls-14" points="66.53 73.8 48.76 44.15 50.15 43.38 67.92 73.03 66.53 73.8"/><polygon class="cls-15" points="69.63 72.08 51.86 42.42 53.06 41.76 70.83 71.41 69.63 72.08"/><path class="cls-15" d="M48.4,40.55a6.52,6.52,0,0,1-.51-1.34c-.2-.47-.37-1-.53-1.44-.08-.26-.38-.86,0-1.07s.76.33,1,.53c.41.41.77.88,1.16,1.32a5.92,5.92,0,0,1,1,1.13.56.56,0,0,0-.56.29c0-.09-.27-.26-.37-.1s.19.32.26.37c-.15.12-.51-.05-.71,0a1.71,1.71,0,0,0-.64.34Z"/><path class="cls-16" d="M49,44.31a7,7,0,0,0-.39-2.5,6.67,6.67,0,0,1-.22-1.08c0-.48.56-.48.9-.71.17-.12.28-.29.51-.33s.35.06.54,0,.31-.07.52.05a3.68,3.68,0,0,1,.51.37,11.67,11.67,0,0,1,1.86,1.69.55.55,0,0,1-.06.76,1.5,1.5,0,0,1-.43.3c-.15.06-.36,0-.47.13.18.3,0,.75-.34,1a1.16,1.16,0,0,1-1.17.26,1,1,0,0,1-1.76.08Z"/><path class="cls-17" d="M48.35,40.52a3.89,3.89,0,0,0,.13,1.36c.07.46.15.92.21,1.37a3.15,3.15,0,0,0,.21,1c.14.25.51.64.92.52s.13-.24,0-.42a.85.85,0,0,1-.2-.61A4,4,0,0,0,49,42,1.1,1.1,0,0,1,49,40.81c.12-.16.28-.24.25-.46s-.2-.24-.43-.15a1.16,1.16,0,0,0-.45.36Z"/><path class="cls-18" d="M49.68,39.88A2.91,2.91,0,0,1,50.84,41a1.31,1.31,0,0,1,.25.57,1.67,1.67,0,0,0,.06.59c.18.4.38.55.24,1-.07.25-.2,1,.35.64s.06-.91.5-1.15c.21-.11.38,0,.58-.18A.44.44,0,0,0,53,42a3.26,3.26,0,0,0-1.09-1.16A7.94,7.94,0,0,0,50.8,40c-.22-.12-.87-.53-1.08-.12Z"/><path class="cls-19" d="M49.18,40c-.29.33-.82.21-.88.73A6.08,6.08,0,0,0,48.47,42a8.7,8.7,0,0,0,.33,2.08c.15.41.75,1,1.37.69-.13-.16-.4-.21-.59-.33a.83.83,0,0,1-.39-.63c-.1-.53-.26-1.06-.35-1.6a6.22,6.22,0,0,1-.22-1.29.61.61,0,0,1,.26-.45c.08-.08.37-.3.28-.34Z"/><path class="cls-19" d="M48.9,40.27c.15,0,.26-.24.43-.24a1.89,1.89,0,0,1,.46.2c0-.17-.37-.23-.32-.4s.48-.11.61-.09c.1-.27.63,0,.68.13-.13,0-.28-.13-.43-.09s-.19.25-.34.35c0,.17.15.37,0,.56-.16-.07-.21-.25-.4-.32a.88.88,0,0,0-.51,0c-.15,0-.36.3-.47.08s.22-.28.37-.2Z"/><path class="cls-20" d="M48.31,40.52a1,1,0,0,1,.66-.47c.09,0,.26,0,.34-.07s0-.22.07-.3a.31.31,0,0,1,.33-.15c.17,0,.13,0,.28,0s.14-.09.29-.06a.56.56,0,0,1,.29.17.58.58,0,0,0-.39,0c-.07,0,0,.13-.12.18s-.13,0-.18,0c-.65,0,0,.21-.05.44a1.4,1.4,0,0,0-.77-.08,1.34,1.34,0,0,0-.46.2c-.1.06-.21.22-.31.23Z"/><path class="cls-14" d="M47.31,36.88c-.2.21.1.68.17.88s.26.63.37,1,.2.56.28.86a1.58,1.58,0,0,0,.27.76,1.86,1.86,0,0,1,.62-.41,5.33,5.33,0,0,1-.65-.82,8.53,8.53,0,0,1-.37-1,2.46,2.46,0,0,1-.27-.86c0-.13.19-.28.07-.4s-.36-.06-.46,0Z"/><path class="cls-13" d="M47.43,36.87c.15-.26.73.56.8.66.22.38.44.75.67,1.12.09.15.21.66.39.72s.27-.09.41-.09.31.12.47.09a3.59,3.59,0,0,0-.67-.74,10,10,0,0,1-.69-.77c-.2-.25-.41-.51-.63-.76-.07-.09-.72-.72-.77-.27Z"/><path class="cls-21" d="M70,69.76a.31.31,0,0,1,.1-.05,7.86,7.86,0,0,0-3,1.14,7.78,7.78,0,0,0-1.28.87c-.15.14-.33.3-.34.49s.27.31.13.58c.28.2.28.31.41.59s.29.55.49.57c.38,0,1.49-.8,1.86-1a9.88,9.88,0,0,1,2-1c.25-.07.69.06.88,0,.4-.17.1-.41,0-.54s-.14,0-.15-.21.19-.2.17-.32-.21-.1-.3-.21,0-.17-.06-.26c-.2-.34-.33-.88-1-.66Z"/><path class="cls-22" d="M70.78,70.4a5.79,5.79,0,0,0-4,1.08c-.34.25-1.15.83-1.24,1.25s.21.26.38,0a2.92,2.92,0,0,1,.56-.7,6.71,6.71,0,0,1,2.81-1.31,5.29,5.29,0,0,1,.78-.08,7.19,7.19,0,0,1,.74.21c.62.09.39-.55-.11-.45Z"/><path class="cls-22" d="M71.19,71.3a3.22,3.22,0,0,0-1.94,0,7.61,7.61,0,0,0-1.89.8,3.79,3.79,0,0,0-1.45,1.14c-.1.17-.28.63.11.51.23-.07.41-.59.57-.75a6.38,6.38,0,0,1,3-1.32,5.7,5.7,0,0,1,1.42,0c.67,0,.54-.57,0-.39Z"/><path class="cls-22" d="M71.52,71.86a7.46,7.46,0,0,1-1.35.1,7.12,7.12,0,0,0-1.5.49c-.55.23-2.51,1.06-2.15,1.79.29,0,1-.76,1.35-.95a9.4,9.4,0,0,1,1.73-.82,3.4,3.4,0,0,1,.87-.19,4.16,4.16,0,0,1,.75.14c.77.06.62-.58.11-.73Z"/><path class="cls-23" d="M66.66,74.3a6.12,6.12,0,0,0,.81,1.46,5.54,5.54,0,0,0,1.1,1.41,2.74,2.74,0,0,0,3.49-.71c1-1.13.3-2.08-.12-3.09-.1-.25-.2-.49-.32-.73s-.25-.31-.67-.35a4.34,4.34,0,0,0-1.75.12,4.58,4.58,0,0,0-2.68,2.13Z"/><path class="cls-24" d="M71.47,72.34a4.41,4.41,0,0,0-3.65.61c-.49.35-1.17.81-1.14,1.38a3.19,3.19,0,0,0,.77,1.4c.41.51.91,1.32,1.59,1.56.45.17,1.91.19,2.18-.37a2.25,2.25,0,0,1-1.65-.41A2,2,0,0,1,68.72,75c0-1.41,1.71-2,2.81-2.69Z"/><path class="cls-25" d="M66.73,74.13c0,.33.49,1,.7,1.33a8.75,8.75,0,0,0,.95,1.31c.67.74,2.34,1.23,3.25.19-.27-.22-.67-.12-1-.12a2.28,2.28,0,0,1-1.22-.34A3.87,3.87,0,0,1,68,74.87c-.22-.47-.27-1.18-.69-1.45s-.31-.25-.41-.6-.41-.37-.42-.63.37-.57.18-.76-.74.13-.91.28a.71.71,0,0,0-.24.38c0,.17.15.26.16.36,0,.3-.18.61.34.64a1.65,1.65,0,0,0,0,.8c.16.27.52.13.73.41Z"/><path class="cls-25" d="M69.67,72.21c.14.16.46.1.68.17a2.18,2.18,0,0,1,.66.44,4.16,4.16,0,0,1,.9,1.18c.27.53.85,2,0,2.57.91-.49.71-1.49.52-2.1-.12-.38-.23-.74-.38-1.11s-.46-.64-.4-1c.41-.16-.06-.7-.23-.81.18-.2,0-.38-.18-.45.39-.29-.32-.74-.42-1-.2-.41-.4-.6-1-.33.41.21,1,.69.84,1.21s-.88.71-.86,1.18Z"/><path class="cls-26" d="M69,72.36c-1.67.36-2.1,1.58-1.48,2.68.44.77,1.24,2.3,2.47,2.09,0-.45-.77-.79-1-1.12a1.65,1.65,0,0,1-.49-1.47A5.29,5.29,0,0,1,69.52,73c.34-.43.27-1.15-.47-.65Z"/><path class="cls-27" d="M63.24,26.6c3.17-4.73,5.64,7.52,6.07,9.25,1.5,6,3.08,11.87,4.67,17.78,1.33,4.94,4.67,14.4-.75,18.81-3.55,2.89-4.88-5.14-5.37-7.48-1.28-6.09-2-12.33-3.25-18.41-.94-4.34-1-9-1.43-13.51-.07-.88-.92-7,.66-6.65Z"/><polygon class="cls-28" points="69.58 68.47 62.85 34.62 67.7 33.8 74.43 67.65 69.58 68.47"/><polygon class="cls-29" points="69.58 68.47 62.85 34.62 64.41 34.35 71.14 68.21 69.58 68.47"/><polygon class="cls-30" points="73.08 67.88 66.35 34.02 67.7 33.8 74.43 67.65 73.08 67.88"/><path class="cls-31" d="M63.72,31.1a7.44,7.44,0,0,1,0-1.42c0-.52,0-1,0-1.54,0-.27-.08-.93.36-1s.61.57.72.82c.26.53.44,1.09.65,1.64A5.2,5.2,0,0,1,66,31a.55.55,0,0,0-.62.09c0-.1-.17-.33-.31-.22s.07.37.12.44c-.18.06-.46-.22-.67-.26a1.75,1.75,0,0,0-.72.11Z"/><path class="cls-16" d="M63,34.83a7.1,7.1,0,0,0,.48-2.48,6.51,6.51,0,0,1,.16-1.09c.17-.46.69-.27,1.08-.38a1.34,1.34,0,0,1,.59-.13c.2,0,.32.17.51.21s.31,0,.47.21a3.38,3.38,0,0,1,.35.52A11.6,11.6,0,0,1,67.8,33.9a.57.57,0,0,1-.32.7,1.2,1.2,0,0,1-.51.13c-.16,0-.35-.08-.48,0,.07.34-.28.7-.66.83a1.19,1.19,0,0,1-1.19-.15A1,1,0,0,1,63,34.88Z"/><path class="cls-17" d="M63.68,31.07a3.94,3.94,0,0,0-.33,1.32c-.09.45-.17.91-.26,1.36a3.09,3.09,0,0,0-.16,1c0,.28.27.77.7.79s.2-.18.15-.38a.91.91,0,0,1,0-.65,3.78,3.78,0,0,0,0-1.89,1.11,1.11,0,0,1,.35-1.12c.16-.11.34-.13.38-.35s-.11-.29-.35-.28a1.24,1.24,0,0,0-.55.18Z"/><path class="cls-18" d="M65.15,30.9a2.94,2.94,0,0,1,.72,1.44,1.35,1.35,0,0,1,0,.63,1.83,1.83,0,0,0-.14.57c0,.43.18.65-.12,1.06-.15.21-.53.87.11.71s.37-.83.86-.91c.23,0,.37.1.61,0a.43.43,0,0,0,.32-.45,3.08,3.08,0,0,0-.64-1.46,7.39,7.39,0,0,0-.74-1.14c-.16-.19-.64-.79-1-.48Z"/><path class="cls-19" d="M64.64,30.88c-.39.21-.85-.08-1.08.4a6.69,6.69,0,0,0-.25,1.18,9.19,9.19,0,0,0-.4,2.08c0,.44.37,1.18,1.07,1.1-.07-.19-.31-.33-.44-.5a.84.84,0,0,1-.17-.73c.09-.54.12-1.08.22-1.62a6.35,6.35,0,0,1,.23-1.29.61.61,0,0,1,.39-.34c.11-.05.46-.16.38-.23Z"/><path class="cls-19" d="M64.29,31c.14,0,.32-.14.49-.08s.28.26.37.34c0-.17-.28-.34-.17-.48s.48.05.6.11c.18-.22.6.2.6.35C66.06,31.2,66,31,65.8,31s-.27.17-.44.22,0,.4-.18.52c-.13-.11-.12-.3-.27-.42a.82.82,0,0,0-.47-.19c-.16,0-.45.15-.47-.09s.29-.18.41-.07Z"/><path class="cls-20" d="M63.65,31.05a1,1,0,0,1,.78-.23c.09,0,.25.09.34.05s.09-.2.17-.26a.34.34,0,0,1,.37,0c.15.06.1.09.25.11s.16,0,.29,0a.5.5,0,0,1,.22.26.47.47,0,0,0-.36-.14c-.09,0,0,.12-.18.12s-.12-.07-.16-.09c-.61-.23,0,.22-.2.4a1.35,1.35,0,0,0-.69-.33,1.41,1.41,0,0,0-.5,0c-.12,0-.28.14-.38.11Z"/><path class="cls-32" d="M63.94,27.29c-.26.12-.14.67-.14.88s0,.69,0,1,0,.59,0,.9a1.65,1.65,0,0,0,0,.8,2.11,2.11,0,0,1,.72-.17,6.07,6.07,0,0,1-.34-1,7.51,7.51,0,0,1,0-1.06,2.52,2.52,0,0,1,0-.91c.05-.12.27-.2.2-.35a.46.46,0,0,0-.44-.14Z"/><path class="cls-33" d="M64.06,27.31c.22-.19.5.78.52.9.09.43.17.85.26,1.27,0,.18,0,.7.13.81s.28,0,.4.05.26.22.42.24a3.65,3.65,0,0,0-.38-.92,7.89,7.89,0,0,1-.39-.95c-.11-.31-.21-.62-.34-.93,0-.11-.44-.91-.63-.51Z"/><path class="cls-21" d="M74.17,65.81l.11,0a8.22,8.22,0,0,0-3.2.07,8.81,8.81,0,0,0-1.49.4c-.2.09-.42.18-.49.36s.14.38-.08.58a1,1,0,0,1,.19.69c0,.17.09.62.27.7a7,7,0,0,0,2.09-.32,9.18,9.18,0,0,1,2.2-.22c.26,0,.63.28.83.27.45,0,.24-.36.2-.51s-.11-.09-.07-.24.25-.13.27-.25-.16-.16-.21-.3,0-.16,0-.26c-.07-.39,0-.94-.69-.94Z"/><path class="cls-22" d="M74.73,66.68a5.84,5.84,0,0,0-4.15-.32c-.4.12-1.36.41-1.58.77s.1.31.35.13a3.18,3.18,0,0,1,.77-.47,6.76,6.76,0,0,1,3.08-.3,4.45,4.45,0,0,1,.76.19c.27.11.4.31.64.44.55.29.55-.38,0-.46Z"/><path class="cls-22" d="M74.81,67.67A3.27,3.27,0,0,0,73,67a8,8,0,0,0-2.06.13,3.72,3.72,0,0,0-1.75.59c-.15.13-.47.51-.07.52.24,0,.59-.41.79-.52a6.4,6.4,0,0,1,3.22-.25,5,5,0,0,1,1.37.43c.62.22.7-.37.13-.38Z"/><path class="cls-22" d="M74.93,68.3a7.83,7.83,0,0,1-1.3-.35,7,7,0,0,0-1.58,0c-.6,0-2.72.17-2.64,1,.27.13,1.22-.38,1.6-.44a8.92,8.92,0,0,1,1.91-.2,3.8,3.8,0,0,1,.89.11c.28.09.41.28.65.38.71.32.78-.34.34-.65Z"/><path class="cls-23" d="M69.53,69a6.12,6.12,0,0,0,.27,1.65,5.57,5.57,0,0,0,.56,1.7,2.75,2.75,0,0,0,3.53.49c1.37-.72,1-1.86.93-3a6.65,6.65,0,0,0-.06-.78c0-.35-.13-.39-.5-.56a4.37,4.37,0,0,0-5,.64Z"/><path class="cls-24" d="M74.73,68.74a4.42,4.42,0,0,0-3.65-.64c-.58.16-1.38.37-1.54.92a3.15,3.15,0,0,0,.25,1.58,4.61,4.61,0,0,0,1,2c.37.3,1.74.81,2.19.37-.66-.24-1.08-.36-1.43-.94a2,2,0,0,1-.29-1.68c.51-1.31,2.27-1.29,3.54-1.59Z"/><path class="cls-25" d="M69.65,68.85c-.13.3.13,1.09.22,1.48a9.15,9.15,0,0,0,.44,1.55c.39.92,1.79,1.94,3,1.27-.19-.3-.6-.34-.94-.46a2.27,2.27,0,0,1-1-.72,3.87,3.87,0,0,1-.75-2c0-.51.14-1.19-.16-1.59s-.21-.33-.19-.7-.25-.48-.18-.73.55-.41.42-.66-.73-.12-.94,0a.68.68,0,0,0-.36.28c-.09.15.06.29,0,.4-.06.29-.37.51.1.7a1.75,1.75,0,0,0-.23.77c.07.31.45.3.55.63Z"/><path class="cls-25" d="M73.07,68c.07.2.4.26.58.4a2.2,2.2,0,0,1,.48.63,4.09,4.09,0,0,1,.45,1.41c.08.59.12,2.19-.91,2.4,1-.15,1.17-1.16,1.2-1.79,0-.4,0-.79,0-1.18s-.22-.76,0-1c.45,0,.18-.69,0-.85.25-.13.16-.35,0-.48.46-.14,0-.8-.07-1,0-.46-.18-.7-.82-.65.31.34.69,1,.38,1.42s-1.07.38-1.21.83Z"/><path class="cls-26" d="M72.35,67.92c-1.71-.22-2.52.79-2.3,2,.15.87.39,2.58,1.62,2.79.15-.42-.47-1-.62-1.41a1.62,1.62,0,0,1,0-1.54,5.06,5.06,0,0,1,1.59-1.11c.46-.3.64-1-.23-.78Z"/><path class="cls-27" d="M82,39.91a5,5,0,0,1-.52,7h0a5,5,0,0,1-7-.89l-4.48-5.43a5,5,0,0,1,.51-7h0a5,5,0,0,1,7,.88Z"/><path class="cls-34" d="M82.51,40.88c1.29,1.25,1.11,3.53-.41,5.08h0c-1.52,1.55-3.81,1.79-5.1.54l-7.49-7.25c-1.3-1.25-1.12-3.53.4-5.08h0c1.53-1.55,3.81-1.79,5.11-.54Z"/><path class="cls-35" d="M70,36.37c-.32.75,1.09,2,1.48,2.38a31,31,0,0,0,2.91,2.7,16.45,16.45,0,0,0,1.94,1.36c.48.27,1.47.95,2.14.63,1.3-.63,0-2.74-.34-3.32A18.23,18.23,0,0,0,74,35a2.33,2.33,0,0,0-2.78-.47,2.62,2.62,0,0,0-.87,1.06c-.1.23-.47.93-.41,1s0-.08,0-.12Z"/><path class="cls-36" d="M70.69,35.27c-1.11,1.09.86,2.95,1.39,3.55s1.41,1.41,2.35,1,.42-1.55.17-2.13a5.08,5.08,0,0,0-2.43-2.71c-.26-.11-1.76-.22-1.51.43Z"/><path class="cls-37" d="M70.5,35.53c-.41.77.62,2,1,2.47s.83.85,1.4.64.41-.74.29-1.11a4.32,4.32,0,0,0-1.57-2.08c-.2-.13-1.38-.4-1.15.22Z"/><path class="cls-38" d="M70.58,33.71A2.27,2.27,0,0,1,73,34a15.12,15.12,0,0,1,2.61,1.87,17.09,17.09,0,0,1,3.59,4.82c.59,1.06,1.4,2.65.39,4s-2.72.63-3.58.11c-1.23-.74-2.17-2-3.38-2.66a29.4,29.4,0,0,0,4.37,4,3.61,3.61,0,0,0,4.27.08,3.1,3.1,0,0,0,1.38-4.31,27.8,27.8,0,0,0-4.46-4.81,26.74,26.74,0,0,0-3.77-3.53,4,4,0,0,0-1.63-.51,4.34,4.34,0,0,0-1.14,0,3.69,3.69,0,0,0-1,.48.71.71,0,0,0-.15.15s-.13,0-.17-.09Z"/><path class="cls-38" d="M72.18,33.11a5.77,5.77,0,0,0,1.06.38,7.45,7.45,0,0,1,1.54.85,14.1,14.1,0,0,1,2.23,2,33.33,33.33,0,0,1,3.33,3.79,5,5,0,0,1,1.25,3.6,3.92,3.92,0,0,1-1.88,2.38,3.11,3.11,0,0,1-3.13-.43c.36,1.45,2.43,1.74,3.81,1.33a3.83,3.83,0,0,0,2.92-3.51c-.11-2.33-2.16-3.65-3.54-5.13a51.25,51.25,0,0,0-4.14-4.07,4.38,4.38,0,0,0-1.72-1c-.6-.17-1.27-.1-1.87-.24Z"/><g class="cls-39"><path class="cls-40" d="M83.33,68.53c0,5.87-18.66,10.63-41.67,10.63S0,74.4,0,68.53,18.65,57.9,41.66,57.9,83.33,62.66,83.33,68.53Z"/><path class="cls-41" d="M83,68.53c0,5.82-18.5,10.55-41.33,10.55S.34,74.35.34,68.53,18.84,58,41.66,58,83,62.71,83,68.53Z"/><path class="cls-42" d="M82.65,68.53c0,5.78-18.35,10.46-41,10.46s-41-4.68-41-10.46S19,58.07,41.66,58.07,82.65,62.75,82.65,68.53Z"/><path class="cls-43" d="M82.32,68.53c0,5.73-18.2,10.38-40.66,10.38S1,74.26,1,68.53s18.2-10.37,40.65-10.37S82.32,62.8,82.32,68.53Z"/><path class="cls-44" d="M82,68.53c0,5.68-18.05,10.29-40.32,10.29S1.35,74.21,1.35,68.53s18-10.28,40.31-10.28S82,62.85,82,68.53Z"/><path class="cls-45" d="M81.64,68.53c0,5.63-17.9,10.21-40,10.21s-40-4.58-40-10.21,17.9-10.2,40-10.2S81.64,62.9,81.64,68.53Z"/><path class="cls-46" d="M81.31,68.53c0,5.59-17.75,10.12-39.65,10.12S2,74.12,2,68.53,19.77,58.42,41.66,58.42,81.31,62.94,81.31,68.53Z"/><path class="cls-47" d="M81,68.53c0,5.54-17.6,10-39.31,10s-39.3-4.49-39.3-10,17.59-10,39.3-10S81,63,81,68.53Z"/><path class="cls-48" d="M80.63,68.53c0,5.49-17.44,10-39,10s-39-4.46-39-10,17.45-9.94,39-9.94S80.63,63,80.63,68.53Z"/><path class="cls-49" d="M80.3,68.53c0,5.44-17.3,9.86-38.64,9.86S3,74,3,68.53s17.29-9.86,38.63-9.86S80.3,63.09,80.3,68.53Z"/><path class="cls-50" d="M80,68.53c0,5.4-17.15,9.78-38.3,9.78s-38.3-4.38-38.3-9.78,17.15-9.77,38.3-9.77S80,63.13,80,68.53Z"/><path class="cls-51" d="M79.62,68.53c0,5.35-17,9.69-38,9.69s-38-4.34-38-9.69,17-9.68,38-9.68S79.62,63.18,79.62,68.53Z"/><path class="cls-52" d="M79.29,68.53c0,5.3-16.85,9.6-37.63,9.6S4,73.83,4,68.53s16.84-9.6,37.62-9.6S79.29,63.23,79.29,68.53Z"/><path class="cls-53" d="M79,68.53c0,5.25-16.69,9.52-37.29,9.52S4.37,73.78,4.37,68.53,21.07,59,41.66,59,79,63.28,79,68.53Z"/><path class="cls-54" d="M78.62,68.53c0,5.21-16.55,9.43-37,9.43S4.71,73.74,4.71,68.53,21.25,59.1,41.66,59.1,78.62,63.32,78.62,68.53Z"/><path class="cls-55" d="M78.28,68.53c0,5.16-16.39,9.35-36.62,9.35S5.05,73.69,5.05,68.53s16.39-9.34,36.61-9.34S78.28,63.37,78.28,68.53Z"/><path class="cls-56" d="M77.94,68.53c0,5.11-16.24,9.26-36.28,9.26S5.38,73.64,5.38,68.53s16.24-9.25,36.28-9.25S77.94,63.42,77.94,68.53Z"/><path class="cls-57" d="M77.61,68.53c0,5.07-16.1,9.17-35.95,9.17S5.72,73.6,5.72,68.53s16.09-9.17,35.94-9.17S77.61,63.47,77.61,68.53Z"/><path class="cls-58" d="M77.27,68.53c0,5-15.94,9.09-35.61,9.09s-35.6-4.07-35.6-9.09S22,59.45,41.66,59.45,77.27,63.51,77.27,68.53Z"/><path class="cls-59" d="M76.93,68.53c0,5-15.79,9-35.27,9s-35.27-4-35.27-9,15.79-9,35.27-9S76.93,63.56,76.93,68.53Z"/><path class="cls-60" d="M76.6,68.53c0,4.92-15.64,8.92-34.94,8.92s-34.93-4-34.93-8.92,15.64-8.91,34.93-8.91S76.6,63.61,76.6,68.53Z"/><path class="cls-61" d="M76.26,68.53c0,4.88-15.49,8.83-34.6,8.83s-34.59-4-34.59-8.83,15.48-8.82,34.59-8.82S76.26,63.66,76.26,68.53Z"/><path class="cls-62" d="M75.92,68.53c0,4.83-15.34,8.75-34.26,8.75S7.4,73.36,7.4,68.53s15.34-8.74,34.26-8.74S75.92,63.7,75.92,68.53Z"/><path class="cls-63" d="M75.59,68.53c0,4.78-15.19,8.66-33.93,8.66S7.74,73.31,7.74,68.53s15.19-8.65,33.92-8.65S75.59,63.75,75.59,68.53Z"/><path class="cls-64" d="M75.25,68.53c0,4.73-15,8.57-33.59,8.57S8.08,73.26,8.08,68.53,23.11,60,41.66,60,75.25,63.8,75.25,68.53Z"/><path class="cls-65" d="M74.91,68.53C74.91,73.22,60,77,41.66,77S8.41,73.22,8.41,68.53s14.89-8.48,33.25-8.48S74.91,63.85,74.91,68.53Z"/><path class="cls-66" d="M74.58,68.53c0,4.64-14.74,8.4-32.92,8.4S8.75,73.17,8.75,68.53s14.73-8.4,32.91-8.4S74.58,63.89,74.58,68.53Z"/><path class="cls-67" d="M74.24,68.53c0,4.59-14.58,8.32-32.58,8.32S9.09,73.12,9.09,68.53s14.58-8.31,32.57-8.31S74.24,63.94,74.24,68.53Z"/><path class="cls-68" d="M73.9,68.53c0,4.54-14.43,8.23-32.24,8.23S9.42,73.07,9.42,68.53s14.43-8.22,32.24-8.22S73.9,64,73.9,68.53Z"/><path class="cls-69" d="M73.57,68.53c0,4.5-14.29,8.14-31.91,8.14S9.76,73,9.76,68.53,24,60.39,41.66,60.39,73.57,64,73.57,68.53Z"/><path class="cls-70" d="M73.23,68.53c0,4.45-14.13,8.06-31.57,8.06S10.09,73,10.09,68.53s14.14-8.05,31.57-8.05S73.23,64.08,73.23,68.53Z"/><path class="cls-71" d="M72.89,68.53c0,4.4-14,8-31.23,8s-31.23-3.57-31.23-8,14-8,31.23-8S72.89,64.13,72.89,68.53Z"/><path class="cls-72" d="M72.56,68.53c0,4.35-13.83,7.89-30.9,7.89s-30.89-3.54-30.89-7.89,13.83-7.88,30.89-7.88S72.56,64.18,72.56,68.53Z"/><path class="cls-73" d="M72.22,68.53c0,4.31-13.68,7.8-30.56,7.8S11.1,72.84,11.1,68.53s13.68-7.79,30.56-7.79S72.22,64.23,72.22,68.53Z"/><path class="cls-74" d="M71.89,68.53c0,4.26-13.54,7.72-30.23,7.72s-30.22-3.46-30.22-7.72S25,60.82,41.66,60.82,71.89,64.27,71.89,68.53Z"/><path class="cls-75" d="M71.55,68.53c0,4.21-13.38,7.63-29.89,7.63s-29.88-3.42-29.88-7.63,13.38-7.62,29.88-7.62S71.55,64.32,71.55,68.53Z"/><path class="cls-76" d="M71.21,68.53c0,4.16-13.23,7.54-29.55,7.54s-29.55-3.38-29.55-7.54S25.34,61,41.66,61,71.21,64.37,71.21,68.53Z"/><path class="cls-77" d="M70.88,68.53C70.88,72.65,57.8,76,41.66,76s-29.21-3.34-29.21-7.46,13.08-7.45,29.21-7.45S70.88,64.41,70.88,68.53Z"/><path class="cls-78" d="M70.54,68.53c0,4.07-12.93,7.37-28.88,7.37s-28.87-3.3-28.87-7.37,12.92-7.37,28.87-7.37S70.54,64.46,70.54,68.53Z"/><path class="cls-79" d="M70.2,68.53c0,4-12.77,7.29-28.54,7.29s-28.54-3.27-28.54-7.29,12.78-7.28,28.54-7.28S70.2,64.51,70.2,68.53Z"/><path class="cls-80" d="M69.87,68.53c0,4-12.63,7.2-28.21,7.2s-28.2-3.22-28.2-7.2,12.63-7.19,28.2-7.19S69.87,64.56,69.87,68.53Z"/><path class="cls-81" d="M69.53,68.53c0,3.93-12.48,7.11-27.87,7.11S13.8,72.46,13.8,68.53s12.47-7.11,27.86-7.11S69.53,64.6,69.53,68.53Z"/><path class="cls-82" d="M69.19,68.53c0,3.88-12.32,7-27.53,7s-27.53-3.15-27.53-7,12.33-7,27.53-7S69.19,64.65,69.19,68.53Z"/><path class="cls-83" d="M68.86,68.53c0,3.83-12.18,6.94-27.2,6.94s-27.19-3.11-27.19-6.94,12.17-6.94,27.19-6.94S68.86,64.7,68.86,68.53Z"/><path class="cls-84" d="M68.52,68.53c0,3.79-12,6.86-26.86,6.86s-26.85-3.07-26.85-6.86,12-6.85,26.85-6.85S68.52,64.75,68.52,68.53Z"/><path class="cls-85" d="M68.18,68.53c0,3.74-11.87,6.77-26.52,6.77s-26.52-3-26.52-6.77S27,61.77,41.66,61.77,68.18,64.79,68.18,68.53Z"/><path class="cls-86" d="M67.85,68.53c0,3.69-11.73,6.68-26.19,6.68s-26.18-3-26.18-6.68,11.72-6.68,26.18-6.68S67.85,64.84,67.85,68.53Z"/><path class="cls-87" d="M67.51,68.53c0,3.64-11.57,6.6-25.85,6.6s-25.84-3-25.84-6.6,11.57-6.59,25.84-6.59S67.51,64.89,67.51,68.53Z"/><path class="cls-88" d="M67.17,68.53c0,3.6-11.42,6.51-25.51,6.51s-25.51-2.91-25.51-6.51S27.57,62,41.66,62,67.17,64.94,67.17,68.53Z"/><path class="cls-89" d="M66.84,68.53c0,3.55-11.27,6.43-25.18,6.43s-25.17-2.88-25.17-6.43,11.27-6.42,25.17-6.42S66.84,65,66.84,68.53Z"/><path class="cls-90" d="M66.5,68.53c0,3.5-11.12,6.34-24.84,6.34S16.82,72,16.82,68.53,27.94,62.2,41.66,62.2,66.5,65,66.5,68.53Z"/><path class="cls-91" d="M66.16,68.53c0,3.45-11,6.26-24.5,6.26S17.16,72,17.16,68.53s11-6.25,24.5-6.25S66.16,65.08,66.16,68.53Z"/><path class="cls-92" d="M65.83,68.53c0,3.41-10.82,6.17-24.17,6.17S17.5,71.94,17.5,68.53s10.82-6.16,24.16-6.16S65.83,65.13,65.83,68.53Z"/><path class="cls-93" d="M65.49,68.53c0,3.36-10.67,6.08-23.83,6.08s-23.83-2.72-23.83-6.08,10.67-6.08,23.83-6.08S65.49,65.17,65.49,68.53Z"/><path class="cls-94" d="M65.16,68.53c0,3.31-10.52,6-23.5,6s-23.49-2.69-23.49-6,10.52-6,23.49-6S65.16,65.22,65.16,68.53Z"/><path class="cls-95" d="M64.82,68.53c0,3.26-10.37,5.91-23.16,5.91s-23.15-2.65-23.15-5.91,10.36-5.91,23.15-5.91S64.82,65.27,64.82,68.53Z"/><path class="cls-96" d="M64.48,68.53c0,3.22-10.21,5.83-22.82,5.83s-22.82-2.61-22.82-5.83,10.22-5.82,22.82-5.82S64.48,65.32,64.48,68.53Z"/><path class="cls-97" d="M64.15,68.53c0,3.17-10.07,5.74-22.49,5.74S19.18,71.7,19.18,68.53,29.24,62.8,41.66,62.8,64.15,65.36,64.15,68.53Z"/><path class="cls-98" d="M63.81,68.53c0,3.12-9.92,5.65-22.15,5.65s-22.14-2.53-22.14-5.65,9.91-5.65,22.14-5.65S63.81,65.41,63.81,68.53Z"/><path class="cls-99" d="M63.47,68.53c0,3.07-9.76,5.57-21.81,5.57s-21.81-2.5-21.81-5.57S29.62,63,41.66,63,63.47,65.46,63.47,68.53Z"/><path class="cls-100" d="M63.14,68.53c0,3-9.62,5.48-21.48,5.48s-21.47-2.45-21.47-5.48,9.61-5.48,21.47-5.48S63.14,65.51,63.14,68.53Z"/><path class="cls-101" d="M62.8,68.53c0,3-9.46,5.4-21.14,5.4s-21.13-2.42-21.13-5.4S30,63.14,41.66,63.14,62.8,65.55,62.8,68.53Z"/><path class="cls-102" d="M62.46,68.53c0,2.93-9.31,5.31-20.8,5.31s-20.8-2.38-20.8-5.31,9.31-5.3,20.8-5.3S62.46,65.6,62.46,68.53Z"/><path class="cls-103" d="M62.13,68.53c0,2.89-9.17,5.23-20.47,5.23S21.2,71.42,21.2,68.53s9.16-5.22,20.46-5.22S62.13,65.65,62.13,68.53Z"/><path class="cls-104" d="M61.79,68.53c0,2.84-9,5.14-20.13,5.14s-20.12-2.3-20.12-5.14,9-5.13,20.12-5.13S61.79,65.7,61.79,68.53Z"/><path class="cls-105" d="M61.45,68.53c0,2.79-8.86,5-19.79,5s-19.79-2.26-19.79-5,8.86-5.05,19.79-5.05S61.45,65.74,61.45,68.53Z"/><path class="cls-106" d="M61.12,68.53c0,2.74-8.71,5-19.46,5s-19.45-2.23-19.45-5,8.71-5,19.45-5S61.12,65.79,61.12,68.53Z"/><path class="cls-107" d="M60.78,68.53c0,2.7-8.56,4.88-19.12,4.88s-19.12-2.18-19.12-4.88,8.56-4.87,19.12-4.87S60.78,65.84,60.78,68.53Z"/><path class="cls-108" d="M60.44,68.53c0,2.65-8.4,4.8-18.78,4.8s-18.78-2.15-18.78-4.8,8.41-4.79,18.78-4.79S60.44,65.89,60.44,68.53Z"/><path class="cls-109" d="M60.11,68.53c0,2.6-8.26,4.71-18.45,4.71s-18.44-2.11-18.44-4.71,8.26-4.7,18.44-4.7S60.11,65.93,60.11,68.53Z"/><path class="cls-110" d="M59.77,68.53c0,2.55-8.11,4.62-18.11,4.62s-18.11-2.07-18.11-4.62,8.11-4.62,18.11-4.62S59.77,66,59.77,68.53Z"/><path class="cls-111" d="M59.43,68.53c0,2.51-8,4.54-17.77,4.54s-17.77-2-17.77-4.54S31.85,64,41.66,64,59.43,66,59.43,68.53Z"/><path class="cls-112" d="M59.1,68.53C59.1,71,51.29,73,41.66,73s-17.43-2-17.43-4.45,7.8-4.45,17.43-4.45S59.1,66.08,59.1,68.53Z"/><path class="cls-113" d="M58.76,68.53c0,2.41-7.65,4.37-17.1,4.37s-17.1-2-17.1-4.37,7.66-4.36,17.1-4.36S58.76,66.12,58.76,68.53Z"/><path class="cls-114" d="M58.43,68.53c0,2.36-7.51,4.28-16.77,4.28S24.9,70.89,24.9,68.53s7.5-4.27,16.76-4.27S58.43,66.17,58.43,68.53Z"/><path class="cls-115" d="M58.09,68.53c0,2.32-7.36,4.19-16.43,4.19s-16.42-1.87-16.42-4.19,7.35-4.19,16.42-4.19S58.09,66.22,58.09,68.53Z"/><path class="cls-116" d="M57.75,68.53c0,2.27-7.2,4.11-16.09,4.11S25.57,70.8,25.57,68.53s7.21-4.1,16.09-4.1S57.75,66.26,57.75,68.53Z"/><path class="cls-117" d="M57.42,68.53c0,2.22-7.06,4-15.76,4s-15.75-1.8-15.75-4,7.05-4,15.75-4S57.42,66.31,57.42,68.53Z"/><path class="cls-118" d="M57.08,68.53c0,2.17-6.9,3.94-15.42,3.94S26.25,70.7,26.25,68.53s6.9-3.93,15.41-3.93S57.08,66.36,57.08,68.53Z"/><path class="cls-119" d="M56.74,68.53c0,2.13-6.75,3.85-15.08,3.85s-15.08-1.72-15.08-3.85,6.75-3.84,15.08-3.84S56.74,66.41,56.74,68.53Z"/><path class="cls-120" d="M56.41,68.53c0,2.08-6.6,3.77-14.75,3.77s-14.74-1.69-14.74-3.77,6.6-3.76,14.74-3.76S56.41,66.45,56.41,68.53Z"/><path class="cls-121" d="M56.07,68.53c0,2-6.45,3.68-14.41,3.68s-14.4-1.65-14.4-3.68,6.45-3.67,14.4-3.67S56.07,66.5,56.07,68.53Z"/><path class="cls-122" d="M55.73,68.53c0,2-6.3,3.59-14.07,3.59s-14.07-1.61-14.07-3.59,6.3-3.59,14.07-3.59S55.73,66.55,55.73,68.53Z"/><path class="cls-123" d="M55.4,68.53c0,1.94-6.15,3.51-13.74,3.51s-13.73-1.57-13.73-3.51S34.08,65,41.66,65,55.4,66.6,55.4,68.53Z"/><path class="cls-124" d="M55.06,68.53c0,1.89-6,3.42-13.4,3.42s-13.39-1.53-13.39-3.42,6-3.41,13.39-3.41S55.06,66.64,55.06,68.53Z"/><path class="cls-125" d="M54.72,68.53c0,1.84-5.84,3.34-13.06,3.34S28.6,70.37,28.6,68.53s5.85-3.33,13.06-3.33S54.72,66.69,54.72,68.53Z"/><path class="cls-126" d="M54.39,68.53c0,1.8-5.7,3.25-12.73,3.25s-12.72-1.45-12.72-3.25,5.69-3.24,12.72-3.24S54.39,66.74,54.39,68.53Z"/><path class="cls-127" d="M54.05,68.53c0,1.75-5.55,3.16-12.39,3.16s-12.39-1.41-12.39-3.16,5.55-3.16,12.39-3.16S54.05,66.79,54.05,68.53Z"/><path class="cls-128" d="M53.71,68.53c0,1.7-5.39,3.08-12.05,3.08s-12-1.38-12-3.08,5.4-3.07,12-3.07S53.71,66.83,53.71,68.53Z"/><path class="cls-129" d="M53.38,68.53c0,1.65-5.25,3-11.72,3S30,70.18,30,68.53s5.24-3,11.71-3S53.38,66.88,53.38,68.53Z"/><path class="cls-130" d="M53,68.53c0,1.61-5.09,2.91-11.38,2.91s-11.38-1.3-11.38-2.91,5.1-2.9,11.38-2.9S53,66.93,53,68.53Z"/><path class="cls-131" d="M52.7,68.53c0,1.56-4.94,2.82-11,2.82s-11-1.26-11-2.82,4.94-2.81,11-2.81S52.7,67,52.7,68.53Z"/><path class="cls-132" d="M52.37,68.53c0,1.51-4.79,2.73-10.71,2.73S31,70,31,68.53s4.79-2.73,10.7-2.73S52.37,67,52.37,68.53Z"/><path class="cls-133" d="M52,68.53c0,1.46-4.64,2.65-10.37,2.65S31.29,70,31.29,68.53s4.65-2.64,10.37-2.64S52,67.07,52,68.53Z"/><path class="cls-134" d="M51.7,68.53c0,1.42-4.5,2.56-10,2.56s-10-1.14-10-2.56S36.12,66,41.66,66,51.7,67.12,51.7,68.53Z"/><path class="cls-135" d="M51.36,68.53C51.36,69.9,47,71,41.66,71S32,69.9,32,68.53s4.34-2.47,9.69-2.47S51.36,67.17,51.36,68.53Z"/><path class="cls-136" d="M51,68.53c0,1.32-4.19,2.39-9.36,2.39s-9.36-1.07-9.36-2.39,4.19-2.38,9.36-2.38S51,67.21,51,68.53Z"/><path class="cls-137" d="M50.69,68.53c0,1.27-4,2.31-9,2.31s-9-1-9-2.31,4-2.3,9-2.3S50.69,67.26,50.69,68.53Z"/><path class="cls-138" d="M50.35,68.53c0,1.23-3.89,2.22-8.69,2.22S33,69.76,33,68.53s3.88-2.21,8.68-2.21S50.35,67.31,50.35,68.53Z"/><path class="cls-139" d="M50,68.53c0,1.18-3.74,2.13-8.35,2.13s-8.35-1-8.35-2.13,3.74-2.13,8.35-2.13S50,67.36,50,68.53Z"/><path class="cls-140" d="M49.68,68.53c0,1.13-3.59,2-8,2s-8-.92-8-2,3.59-2,8-2S49.68,67.4,49.68,68.53Z"/><path class="cls-141" d="M49.34,68.53c0,1.08-3.44,2-7.68,2s-7.67-.88-7.67-2,3.43-2,7.67-2S49.34,67.45,49.34,68.53Z"/><path class="cls-142" d="M49,68.53c0,1-3.28,1.88-7.34,1.88s-7.34-.84-7.34-1.88,3.29-1.87,7.34-1.87S49,67.5,49,68.53Z"/><path class="cls-143" d="M48.67,68.53c0,1-3.14,1.79-7,1.79s-7-.8-7-1.79,3.13-1.78,7-1.78S48.67,67.55,48.67,68.53Z"/><path class="cls-144" d="M48.33,68.53c0,.94-3,1.7-6.67,1.7S35,69.47,35,68.53s3-1.7,6.66-1.7S48.33,67.59,48.33,68.53Z"/><path class="cls-145" d="M48,68.53c0,.89-2.83,1.62-6.33,1.62s-6.33-.73-6.33-1.62,2.84-1.61,6.33-1.61S48,67.64,48,68.53Z"/><path class="cls-146" d="M47.66,68.53c0,.85-2.69,1.53-6,1.53s-6-.68-6-1.53,2.68-1.53,6-1.53S47.66,67.69,47.66,68.53Z"/><path class="cls-147" d="M47.32,68.53c0,.8-2.53,1.45-5.66,1.45S36,69.33,36,68.53s2.54-1.44,5.66-1.44S47.32,67.74,47.32,68.53Z"/><path class="cls-148" d="M47,68.53c0,.75-2.38,1.36-5.32,1.36s-5.32-.61-5.32-1.36,2.38-1.35,5.32-1.35S47,67.78,47,68.53Z"/><path class="cls-149" d="M46.65,68.53c0,.71-2.23,1.28-5,1.28s-5-.57-5-1.28,2.23-1.27,5-1.27S46.65,67.83,46.65,68.53Z"/><path class="cls-150" d="M46.31,68.53c0,.66-2.08,1.19-4.65,1.19S37,69.19,37,68.53s2.09-1.18,4.65-1.18S46.31,67.88,46.31,68.53Z"/><path class="cls-151" d="M46,68.53c0,.61-1.93,1.1-4.31,1.1s-4.31-.49-4.31-1.1,1.93-1.1,4.31-1.1S46,67.93,46,68.53Z"/><path class="cls-152" d="M45.64,68.53c0,.56-1.78,1-4,1s-4-.46-4-1,1.78-1,4-1S45.64,68,45.64,68.53Z"/><path class="cls-153" d="M45.3,68.53c0,.52-1.63.93-3.64.93S38,69.05,38,68.53s1.63-.92,3.64-.92S45.3,68,45.3,68.53Z"/><path class="cls-154" d="M45,68.53c0,.47-1.48.85-3.31.85s-3.3-.38-3.3-.85,1.48-.84,3.3-.84S45,68.07,45,68.53Z"/><path class="cls-155" d="M44.63,68.53c0,.42-1.33.76-3,.76s-3-.34-3-.76,1.32-.75,3-.75S44.63,68.12,44.63,68.53Z"/><path class="cls-156" d="M44.29,68.53c0,.37-1.18.67-2.63.67S39,68.9,39,68.53s1.18-.67,2.63-.67S44.29,68.16,44.29,68.53Z"/><path class="cls-157" d="M44,68.53c0,.33-1,.59-2.3.59s-2.29-.26-2.29-.59,1-.58,2.29-.58S44,68.21,44,68.53Z"/><path class="cls-158" d="M43.62,68.53c0,.28-.88.5-2,.5s-1.95-.22-1.95-.5.87-.5,1.95-.5S43.62,68.26,43.62,68.53Z"/><path class="cls-159" d="M43.28,68.53c0,.23-.72.42-1.62.42S40,68.76,40,68.53s.73-.41,1.62-.41S43.28,68.3,43.28,68.53Z"/></g></g></g></g></svg>