<svg xmlns="http://www.w3.org/2000/svg" viewBox="0 0 83.33 79.01"><defs><style>.cls-1{isolation:isolate;}.cls-2{fill:#ffeb97;}.cls-3{fill:#826a02;}.cls-4,.cls-7{fill:#ddc55f;}.cls-5{fill:#efd565;}.cls-6{fill:#f7df77;}.cls-28,.cls-7,.cls-9{opacity:0.3;}.cls-11,.cls-13,.cls-16,.cls-17,.cls-23,.cls-24,.cls-27,.cls-28,.cls-30,.cls-7,.cls-9{mix-blend-mode:multiply;}.cls-8,.cls-9{fill:#16aad8;}.cls-10,.cls-11{fill:#20c6a6;}.cls-11,.cls-13,.cls-23{opacity:0.4;}.cls-12,.cls-13{fill:#885cbc;}.cls-14{fill:#a073e0;}.cls-15,.cls-16{fill:#ad3636;}.cls-16{opacity:0.5;}.cls-17{fill:#1b6d96;opacity:0.1;}.cls-18{fill:#7f4505;}.cls-19{fill:#ffc50d;}.cls-20{fill:#d39d07;}.cls-21{fill:#bc8804;}.cls-22{fill:#ffd876;}.cls-23,.cls-24{fill:#e8a754;}.cls-24,.cls-25,.cls-30{opacity:0.6;}.cls-25{fill:#dd7812;}.cls-26,.cls-27,.cls-28{fill:#d38d42;}.cls-29{fill:#f4831e;}.cls-31{fill:#fff;opacity:0;}.cls-32{fill:#fefeff;opacity:0.01;}.cls-33{fill:#fdfefe;opacity:0.02;}.cls-34{fill:#fcfdfe;opacity:0.03;}.cls-35{fill:#fbfdfd;opacity:0.03;}.cls-36{fill:#fafcfd;opacity:0.04;}.cls-37{fill:#f9fbfd;opacity:0.05;}.cls-38{fill:#f8fbfc;opacity:0.06;}.cls-39{fill:#f7fafc;opacity:0.07;}.cls-40{fill:#f6fafb;opacity:0.08;}.cls-41{fill:#f5f9fb;opacity:0.08;}.cls-42{fill:#f4f9fb;opacity:0.09;}.cls-43{fill:#f3f8fa;opacity:0.1;}.cls-44{fill:#f2f7fa;opacity:0.11;}.cls-45{fill:#f1f7f9;opacity:0.12;}.cls-46{fill:#f0f6f9;opacity:0.13;}.cls-47{fill:#eff6f9;opacity:0.13;}.cls-48{fill:#eef5f8;opacity:0.14;}.cls-49{fill:#edf4f8;opacity:0.15;}.cls-50{fill:#ecf4f7;opacity:0.16;}.cls-51{fill:#ebf3f7;opacity:0.17;}.cls-52{fill:#eaf3f7;opacity:0.18;}.cls-53{fill:#e9f2f6;opacity:0.18;}.cls-54{fill:#e8f1f6;opacity:0.19;}.cls-55{fill:#e7f1f5;opacity:0.2;}.cls-56{fill:#e6f0f5;opacity:0.21;}.cls-57{fill:#e5f0f5;opacity:0.22;}.cls-58{fill:#e4eff4;opacity:0.23;}.cls-59{fill:#e3eff4;opacity:0.24;}.cls-60{fill:#e2eef3;opacity:0.24;}.cls-61{fill:#e1edf3;opacity:0.25;}.cls-62{fill:#e0edf2;opacity:0.26;}.cls-63{fill:#dfecf2;opacity:0.27;}.cls-64{fill:#deecf2;opacity:0.28;}.cls-65{fill:#ddebf1;opacity:0.29;}.cls-66{fill:#dceaf1;opacity:0.29;}.cls-67{fill:#dbeaf0;opacity:0.3;}.cls-68{fill:#dae9f0;opacity:0.31;}.cls-69{fill:#d9e9f0;opacity:0.32;}.cls-70{fill:#d8e8ef;opacity:0.33;}.cls-71{fill:#d7e7ef;opacity:0.34;}.cls-72{fill:#d6e7ee;opacity:0.34;}.cls-73{fill:#d5e6ee;opacity:0.35;}.cls-74{fill:#d4e6ee;opacity:0.36;}.cls-75{fill:#d3e5ed;opacity:0.37;}.cls-76{fill:#d2e5ed;opacity:0.38;}.cls-77{fill:#d1e4ec;opacity:0.39;}.cls-78{fill:#d0e3ec;opacity:0.39;}.cls-79{fill:#cfe3ec;opacity:0.4;}.cls-80{fill:#cee2eb;opacity:0.41;}.cls-81{fill:#cde2eb;opacity:0.42;}.cls-82{fill:#cce1ea;opacity:0.43;}.cls-83{fill:#cbe0ea;opacity:0.44;}.cls-84{fill:#cae0ea;opacity:0.45;}.cls-85{fill:#c9dfe9;opacity:0.45;}.cls-86{fill:#c8dfe9;opacity:0.46;}.cls-87{fill:#c7dee8;opacity:0.47;}.cls-88{fill:#c6dde8;opacity:0.48;}.cls-89{fill:#c5dde8;opacity:0.49;}.cls-90,.cls-91{fill:#c4dce7;}.cls-90{opacity:0.5;}.cls-91{opacity:0.5;}.cls-92{fill:#c3dbe6;opacity:0.51;}.cls-93{fill:#c2dbe6;opacity:0.52;}.cls-94{fill:#c1dae6;opacity:0.53;}.cls-95{fill:#c0d9e5;opacity:0.54;}.cls-96{fill:#bfd9e5;opacity:0.55;}.cls-97{fill:#bed8e4;opacity:0.55;}.cls-98{fill:#bdd8e4;opacity:0.56;}.cls-99{fill:#bcd7e4;opacity:0.57;}.cls-100{fill:#bbd6e3;opacity:0.58;}.cls-101{fill:#bad6e3;opacity:0.59;}.cls-102{fill:#b9d5e2;opacity:0.6;}.cls-103{fill:#b8d5e2;opacity:0.61;}.cls-104{fill:#b7d4e2;opacity:0.61;}.cls-105{fill:#b6d3e1;opacity:0.62;}.cls-106{fill:#b5d3e1;opacity:0.63;}.cls-107{fill:#b4d2e0;opacity:0.64;}.cls-108{fill:#b3d2e0;opacity:0.65;}.cls-109{fill:#b2d1e0;opacity:0.66;}.cls-110{fill:#b1d1df;opacity:0.66;}.cls-111{fill:#b0d0df;opacity:0.67;}.cls-112{fill:#afcfde;opacity:0.68;}.cls-113{fill:#aecfde;opacity:0.69;}.cls-114{fill:#adcede;opacity:0.7;}.cls-115{fill:#accedd;opacity:0.71;}.cls-116{fill:#abcddd;opacity:0.71;}.cls-117{fill:#aaccdc;opacity:0.72;}.cls-118{fill:#a9ccdc;opacity:0.73;}.cls-119{fill:#a8cbdc;opacity:0.74;}.cls-120{fill:#a7cbdb;opacity:0.75;}.cls-121{fill:#a6cadb;opacity:0.76;}.cls-122{fill:#a5c9da;opacity:0.76;}.cls-123{fill:#a4c9da;opacity:0.77;}.cls-124{fill:#a3c8d9;opacity:0.78;}.cls-125{fill:#a2c8d9;opacity:0.79;}.cls-126{fill:#a1c7d9;opacity:0.8;}.cls-127{fill:#a0c7d8;opacity:0.81;}.cls-128{fill:#9fc6d8;opacity:0.82;}.cls-129{fill:#9ec5d7;opacity:0.82;}.cls-130{fill:#9dc5d7;opacity:0.83;}.cls-131{fill:#9cc4d7;opacity:0.84;}.cls-132{fill:#9bc4d6;opacity:0.85;}.cls-133{fill:#9ac3d6;opacity:0.86;}.cls-134{fill:#99c2d5;opacity:0.87;}.cls-135{fill:#98c2d5;opacity:0.87;}.cls-136{fill:#97c1d5;opacity:0.88;}.cls-137{fill:#96c1d4;opacity:0.89;}.cls-138{fill:#95c0d4;opacity:0.9;}.cls-139{fill:#94bfd3;opacity:0.91;}.cls-140{fill:#93bfd3;opacity:0.92;}.cls-141{fill:#92bed3;opacity:0.92;}.cls-142{fill:#91bed2;opacity:0.93;}.cls-143{fill:#90bdd2;opacity:0.94;}.cls-144{fill:#8fbdd1;opacity:0.95;}.cls-145{fill:#8ebcd1;opacity:0.96;}.cls-146{fill:#8dbbd1;opacity:0.97;}.cls-147{fill:#8cbbd0;opacity:0.97;}.cls-148{fill:#8bbad0;opacity:0.98;}.cls-149{fill:#8abacf;opacity:0.99;}.cls-150{fill:#89b9cf;}</style></defs><title>4</title><g class="cls-1"><g id="Layer_2" data-name="Layer 2"><g id="l1"><path class="cls-2" d="M59.41,34c1.8,1.82,2.54,4.62,2.83,7.2a17.59,17.59,0,0,1,0,4.35c-.15,1-.77,2.52-.56,3.47.91-.53,1.62-2,2.08-3a12.29,12.29,0,0,0,1-3.84,12,12,0,0,0-.46-5.64c-.93-2.52-3-2.51-5-2.78Z"/><path class="cls-3" d="M65.05,30.37c-1.45-1.17-13,6.35-14.18,4.92-.53-.67,10.12-9.63,7-16.19-4.42-9.22-15.5-7.19-24.52-2.2-11.41,6.29-15.89,21.33-10,33.6s19.89,17.1,31.3,10.8S75.34,38.69,65.05,30.37ZM45,33.7a4.77,4.77,0,0,1-6.65-2.24,5.46,5.46,0,0,1,2.17-7.1,4.77,4.77,0,0,1,6.65,2.24A5.47,5.47,0,0,1,45,33.7Z"/><path class="cls-4" d="M64.93,30.05C63.5,28.89,52.13,36.28,51,34.87c-.52-.66,9.92-9.48,6.81-15.95-4.36-9.11-15.24-7.14-24.09-2.25-11.19,6.18-15.55,21-9.74,33.11S43.57,66.7,54.76,60.53,75.06,38.29,64.93,30.05ZM45.22,33.28a4.7,4.7,0,0,1-6.54-2.23,5.4,5.4,0,0,1,2.12-7,4.69,4.69,0,0,1,6.53,2.23A5.39,5.39,0,0,1,45.22,33.28Z"/><path class="cls-5" d="M24.86,26.24c-1,.87-1.45,2.8-1.8,4.09a19.83,19.83,0,0,0-.75,5.26c0,4,.47,8.09,2.6,11.59,1.56,2.56,5.12,3.07,4.86-.71a29.85,29.85,0,0,1,1.56-12.71,31,31,0,0,1,4.11-7.21c.94-1.29,2.33-2.78,2.49-4.55a2.89,2.89,0,0,0-2.87-3,9,9,0,0,0-5,1.55c-2.54,1.4-4,3.61-5.66,5.92,0,.17.09.06.13.11Z"/><path class="cls-6" d="M24.62,26.86c-1.68,2.49-2.11,6.48-1.91,9.52.06.88.82,4.6,1.93,2.72a16.33,16.33,0,0,0,.84-3.27A20.05,20.05,0,0,1,27,31.89a36,36,0,0,1,3.87-5.61c.83-1,2.08-2.5,2-4,0-2.17-2.83-.77-3.73-.32a9.28,9.28,0,0,0-3,2.75c-.35.43-.8.8-1.1,1.22s-.53,1.08-.77,1.22Z"/><path class="cls-5" d="M51,35.74c-1.54.86-.77,5.59-1,7.16a27.79,27.79,0,0,1-2.7,8.68,25.37,25.37,0,0,1-4,5.54c-.89,1.07-2.14,1.67-3,2.7a12.34,12.34,0,0,0,3.75.7A15.37,15.37,0,0,0,49,60a24.22,24.22,0,0,0,9.87-5.83,21,21,0,0,0,6.46-11.13c.63-2.84.9-6.33-.7-9-1.83-3-5.06-.87-7.28.06a16.34,16.34,0,0,1-3.64,1c-.83.15-2.2.16-2.87.73,0,.17.09.06.13.11Z"/><path class="cls-6" d="M56.8,34.92c3,3,3.34,8.56,2.55,12.62a22,22,0,0,1-5.23,10c4.71-2.7,8.87-6.32,10.16-12.26.7-3.24,2.37-12.25-2.78-12.2-1.2,0-4.1.55-4.59,1.86Z"/><path class="cls-7" d="M33.9,17c5.76-3.13,14.35.88,16.18,7.86a18.76,18.76,0,0,1,.85,6.26,23.29,23.29,0,0,1-.83,3.34c1.06-.38,1.93-1.61,2.71-2.44A25.34,25.34,0,0,0,55,29.46a12.92,12.92,0,0,0,2.47-5.86c.41-5-3.57-9.19-7.66-10.54A9.48,9.48,0,0,0,45.4,13a19.75,19.75,0,0,0-4.22.76c-1.35.48-2.66,1.14-4,1.6-1.11.38-2.31,1.09-3.35,1.45Z"/><path class="cls-8" d="M24,33.07a3.66,3.66,0,0,0-.44,2.25,2.31,2.31,0,0,0,.83,1.8c.92,1.09.78,2.58,2.32,3.07A4.51,4.51,0,0,0,31,38.79a6,6,0,0,0,1.46-4.31c.1-4.47-4.63-5.48-7.31-3-.37.34-.9,1.62-1.1,1.63Z"/><path class="cls-9" d="M23.86,33.54c-.29-.76,1.1-1.93,1.71-2a12.92,12.92,0,0,1,1.34.17c.53,0,.92-.22,1.44,0C30.52,32.42,31,36,30,37.8c-.37.63-1.39,1.76-2.16,1.69s-1.08-1.15-1.63-1.56a12,12,0,0,1-1.74-1.33c-.57-.65-.32-1.42-.73-2.06-1.5.38.91,3,1.23,3.47.92,1.5,1.23,2.38,3,2.18,3.25-.35,4.44-3,4.1-6.3a4.1,4.1,0,0,0-3.95-3.71c-1,0-4.68,1.32-4.1,2.89Z"/><path class="cls-10" d="M30.18,46.14c-1.3.91-.7,3.69-.16,4.93a12.68,12.68,0,0,0,2.43,4.32c1,1.06,2.42,2.09,3.86,1.84A8,8,0,0,0,39.85,56c2.18-1.93,1.43-6.65.57-9.14a4.58,4.58,0,0,0-5.2-3.31c-.65.07-5.54,1.66-5.15,2.57Z"/><path class="cls-11" d="M30.13,45.67a3.36,3.36,0,0,0-.62,2.7c.1.49.32.91.44,1.37A14,14,0,0,1,30,51.31a9.19,9.19,0,0,0,3.23,4.85,6.12,6.12,0,0,0,4.59.77c2.06-.52,3-2,3.43-4.17a10.51,10.51,0,0,0-1.74-7.41c-1.12-1.5-2.87-1.59-4.49-1.48.21.88,1.73,1.1,2.25,1.9s.82,1.38,1.22,2c1.08,1.77.3,4.36-1.64,4.8-2.18.5-3.85-.94-4.89-2.88a3.87,3.87,0,0,1-.57-2.89,15.06,15.06,0,0,0,.76-2,2.09,2.09,0,0,0-2.07.95Z"/><path class="cls-11" d="M36.91,44.61c-1.22-.7-2.65,2.7-2.9,3.66-.38,1.47-.57,3.32.53,4.53,1.35,1.48,3.29-.17,4.36-1.22A4.5,4.5,0,0,0,40,47.89a8.64,8.64,0,0,1,.29,6.47,4.85,4.85,0,0,1-5.08,2.31c-2.08-.62-3.64-2.72-4.6-4.73-.71-1.48-1.52-3.83-.71-5.38,1.21-2.34,4.93-2.78,7-2a.8.8,0,0,0-.28-.13Z"/><path class="cls-12" d="M45.55,50.07c-1.59.84.05,3.09.67,4,.41.58.61,1.33,1.08,1.88a4.71,4.71,0,0,0,2.4,1.31c3.52,1,6.52-2.61,6.44-6.24-.08-3.37-2.66-6.37-5.81-5.58A7.34,7.34,0,0,0,45.47,49c-.29.53-.71,1.23-.44,1.86Z"/><path class="cls-13" d="M46.29,47.87c-.72.31-.5,1.81-.27,2.44.29.79,1,1,1.44,1.68,1.21,1.72,2.76,3.26,4.67,1.51,2.51-2.3,1.29-7.71-2.29-7.29,1.76-.92,3.36-.33,4.48,1.52S56.42,52,55.51,54c-1.33,2.93-5.9,4.34-7.95,1.61-1.42-1.9-3.51-5.57-1.41-7.67Z"/><path class="cls-13" d="M49.25,46.74c-1.44,1.1-1.71,4.31-.69,5.86,1.18,1.78,3.9,1,4.79-.7A4.56,4.56,0,0,0,52,46.73c-.9-.69-2.1-.39-3.12-.29.47-1.69,3.49-.85,4.42-.11a7.43,7.43,0,0,1,2.55,4.85c.08,3-3.07,6.77-5.93,6.43C48.57,57.46,47.62,56.23,47,55s-1.76-2.44-2.08-3.82.85-2.9,1.78-3.56a11.43,11.43,0,0,1,1.6-1c.3-.15.41-.55.84-.27a.44.44,0,0,1,.1.74Z"/><path class="cls-14" d="M49.4,46.85c-.79.5.59.86.83,1a4.43,4.43,0,0,1,1.27,2.46c.08,1.21-1,1-1.21,1.76-.3,1.07,1.12.58,1.55.36,1.79-.94,1.57-3.53.31-4.94A2.46,2.46,0,0,0,49,47.17Z"/><path class="cls-15" d="M52.07,38.73c.13.76,1.69,1,2.19,1.74.33.51.4,1.24.72,1.71.44.66,1.21.69,1.65,1.37.85,1.32.14,4.26.26,5.85.11,1.38.47,4.13,2.13,4,2.24-.21,2.59-2.62,2.64-4.57.07-2.5,1.32-3.74,2.68-5.52a4.87,4.87,0,0,0,.89-4.86c-.7-1.7-1.66-1.1-3.05-1.23-.69-.06-.88-.39-1.44-.77a3.12,3.12,0,0,0-2-.43,6,6,0,0,0-3.71,1.46A1.75,1.75,0,0,0,52,39c.16,0,.16-.11.24-.21Z"/><path class="cls-16" d="M51.85,38.45C52,40,53.66,40,54.32,41.36a3.43,3.43,0,0,0,1.24,1.7c.66.4,1,.48,1.25,1.39.58,2.38-1.52,8,1.87,8.83,2.38.55,3-2.32,2.94-4.23a7.22,7.22,0,0,1,.51-3,8.62,8.62,0,0,1,1.27-1.65,8.2,8.2,0,0,0,1.66-4.46C65,37.59,63.28,38.77,62,38c-.52-.32-.68-1.64-1.52-1.4-1.16.33.85,1.57,1.14,1.9.7.8,1.5,1.68,1.27,2.75-.35,1.55-1.38,1.58-2.12,2.76-.43.69-1.1,3-1.92,1.44-.55-1.1-.17-2.37-1.08-3.36-.61-.66-1.55-.63-2.16-1.19a2.78,2.78,0,0,1-.63-2c.2-.47,1.37-.37,1-1,0-.07-1.38-.66-1.54-.74-.8-.42-3,0-2.57,1.52Z"/><path class="cls-16" d="M53.23,37.79c-.09,0,0-.17-.15-.13-.44,1.22,1.15,2.22,1.82,2.89a11,11,0,0,1,1.94,2.5c1,1.85.5,4,1,5.92.24,1,1,2.14,2,1.27.77-.66.56-2.34,1.11-3.3s1.51-1.63,2-2.78a10,10,0,0,0,.91-3A2.76,2.76,0,0,0,63.19,39c-.54-.44-1.29-.24-1.82-.78s-.53-1.29-1.2-1.62-1.36-.09-2-.18c1.85-1.3,2.88,1,4.6,1,.81,0,1.31-.26,2,.59a3.23,3.23,0,0,1,.54,2.08c0,1.94-1,2.73-2,4.13a9.52,9.52,0,0,0-1.73,3.94c-.2,1.66,0,2.93-1.14,4.13s-2.94,1.62-3.23-.6a36.23,36.23,0,0,1-.08-5.51,5,5,0,0,0-.29-2.33c-.38-.62-1.12-.59-1.59-1.11s-.49-1.28-.77-1.75c-.39-.67-.84-.65-1.49-1.09a2.09,2.09,0,0,1-1-1.44c-.07-.6.68-1.73,1.05-.85Z"/><path class="cls-17" d="M63.87,50c-1.34-1.13-2.17-3.81-3.11-5.38-1.61-2.66-3.41-5.21-5.15-7.77-2.77-4-5.09-8.41-7.78-12.5-1.85-2.81-3.68-5.54-5.32-8.48-1-1.83-1.93-5.34-3.52-6.58C37.14,11.84,36,8,36,6.61c0-2.24.13-4.33-1.7-5.88A12.8,12.8,0,0,1,39.7,2.64c2.52,1.62,2,4.18,3.54,6.41,1.16,1.64,3,2.54,4.26,4.3,2.09,2.9,4.27,5.79,6.38,8.73,7.28,10.14,15.61,19.61,20.64,31.26,1.18,2.75,2.18,7.18-2,5.24-2.64-1.22-8-5.63-7.78-8.92Z"/><path class="cls-18" d="M44,17.09C46.63,21.66,50.43,27.63,54.86,34,64,47.21,72.34,57.18,73.48,56.28S68.12,43.94,59,30.74c-4.43-6.39-8.67-12-12-16C46,15.57,44.93,16.34,44,17.09Z"/><path class="cls-19" d="M40.9,11.65a35.9,35.9,0,0,0,2,3.61c.58,1,1.2,2,1.77,3s1,1.81,1.52,2.66,1.29.93,2.2.42A4.33,4.33,0,0,0,50,19.5c.31-.8-.46-1.51-.92-2.07-1.41-1.73-2.88-3.42-4.28-5.14-.37-.46-.72-.92-1.11-1.34-.16-.18-.77-1-1-1.06s-.9.68-1.13.86-.89.62-.53,1.13Z"/><path class="cls-20" d="M43,9.71c.65,1.11,3.85,4.88,4.6,5.78.6.72,1.22,1.45,1.83,2.16a1.61,1.61,0,0,1,.4,1.92,2.73,2.73,0,0,1-3.25,1.56c2.24-1.59-.82-5.88-1.74-7.4-.8-1.32-1.65-3.13-3.33-2.85.29-.22.58-.41.87-.62s.5-.61.76-.73c0,.09,0,0,0,.1A.34.34,0,0,1,43,9.71Z"/><path class="cls-20" d="M43.19,9.29a.63.63,0,0,1-.12.84L41.2,11.61a.53.53,0,0,1-.78-.12h0a.62.62,0,0,1,.12-.84L42.4,9.17a.55.55,0,0,1,.79.12Z"/><path class="cls-21" d="M42.28,9.36c.36.48-.17,1.16-.52,1.52s-.7.71-1.08.3c-.09-.1-.22-.44-.35-.18s.12.39.23.48c.32.26.58.09.87-.14s.53-.46.82-.65a2.48,2.48,0,0,0,.8-.58.72.72,0,0,0,0-.9c-.24-.24-.59,0-.79.16Z"/><path class="cls-22" d="M41.06,11.81c.45.64.8,1.32,1.19,2s.92,1.5,1.36,2.27.92,1.6,1.36,2.4A13.62,13.62,0,0,0,46.1,20.3c.24-.18-.56-1.42-.67-1.65-.32-.65-.68-1.28-1-1.94-.52-1.07-1-2.17-1.4-3.29a16.44,16.44,0,0,1-.51-1.69c-.15-.52-.35-.64-.78-.37-.15.1-.61.52-.74.44Z"/><path class="cls-21" d="M42.58,10.63A9.52,9.52,0,0,1,44,11.7a20,20,0,0,1,1.33,1.57,27.4,27.4,0,0,1,2.21,3.19,4.52,4.52,0,0,1,.77,2.78,2.43,2.43,0,0,1-1,1.38c-.51.35-.76.05-1.23-.11,0,.35.44.81.72.9a2.31,2.31,0,0,0,1.35-.07c.88-.32,2.14-1.42,1.7-2.54a7.38,7.38,0,0,0-1.34-2c-.51-.58-1-1.18-1.48-1.77-.79-1-1.61-1.91-2.37-2.91-.38-.5-.79-1-1.17-1.45-.12-.16-.26-.48-.49-.44a1.08,1.08,0,0,0-.46.46Z"/><path class="cls-23" d="M49.8,20.2c2.89,4.18,5.89,8.28,8.44,12.7a26.47,26.47,0,0,1,2.82,5.66c.19.64.1,2.92-1,2.12,2.45,3.4,4.88,6.63,7.54,9.76,1.21,1.41,2.49,2.73,3.78,4,.53.52,1.33,1.38,1.37.19,0-1.35-1.36-3.39-1.95-4.52A171.58,171.58,0,0,0,55.45,25.81c-.93-1.2-1.92-2.28-2.79-3.54-.49-.71-2.07-3.54-2.91-2.14Z"/><path class="cls-24" d="M50.78,20.42c2.91,4.21,6.22,8.78,8.86,13.39a32.66,32.66,0,0,1,3.06,5.75c.45,1.36,0,2-1,2.87a18.67,18.67,0,0,0,3.59,4.87c1.55,1.7,2.85,3.67,4.35,5.42.46.54,1.53,2.23,2.28,2.3,1.16.1-.49-2.38-.72-2.82-1.79-3.33-3.56-6.68-5.42-9.94-1.35-2.35-2.68-4.7-4.22-6.92-1.2-1.73-2.5-3.42-3.62-5.22a54,54,0,0,0-6.1-8.57c-.43-.46-1.18-.88-1.5-1.44Z"/><path class="cls-25" d="M47.65,22.11c-.08.45.72,1.45,1,1.92.48.78,1,1.59,1.41,2.39,1,1.72,2.21,3.31,3.33,4.93s2.13,3.08,3.2,4.61c.59.86,1.19,1.7,1.82,2.52a7.75,7.75,0,0,0,2.12,2.25c-3.16-5.32-6.9-10.21-9.41-16-.39-.9-.79-2.83-1.47-3.46-.45-.42-.62,0-1.13.28-.28.15-1.08.52-1.09.34Z"/><path class="cls-26" d="M40.54,10.65c-.4-.41-1.33-.07-1.89-.34a4.42,4.42,0,0,1-2.18-3.17c-.18-1.54.75-2.76.14-4.33A10.08,10.08,0,0,0,34.87.42c.49-.25,1,.17,1.39.46a5.72,5.72,0,0,0,2.27.83A6.76,6.76,0,0,1,42.59,6a4,4,0,0,1-.53,3.5c-.43.52-1.39,1.57-1.94.76Z"/><path class="cls-27" d="M40.66,10.47c-.58-.52-1.61-.15-2.31-.47a2.75,2.75,0,0,1-1.49-2.64c.46,1.08,1.16,2.51,2.53,2.11a5.61,5.61,0,0,0-.49-1.29,13.07,13.07,0,0,1-.39-2.25,10.08,10.08,0,0,0-1.33-3.34,11.46,11.46,0,0,1,1.68,4.32,3.61,3.61,0,0,0,.75,1.93c.66.58.46-.08.37-.65a10,10,0,0,0-1.43-4.57,5.93,5.93,0,0,0-2.34-2.06c.56.56,1.41.79,2,1.36a6.25,6.25,0,0,1,1.57,2.72c.17.6.38,4.13,1.36,3.13,1.18-1.21-.7-4.32-1.62-5.13-.61-.54-1.37-.9-2-1.41A9.59,9.59,0,0,0,35.79.84a7,7,0,0,0,2,1A6.88,6.88,0,0,1,40,3.54a11.24,11.24,0,0,1,1.45,2.25,8.35,8.35,0,0,0,.64,1.6c.68-.73-.74-2.84-1.19-3.49,1.21,1.43,2.3,2.56,1.67,4.59-.29,1-1.13,2.35-2.31,1.86Z"/><path class="cls-28" d="M35.17.52c1.06,1.28,2.65,2,3.72,3.26.8,1,1.81,3,.57,4-.77.68-1.43-.05-2-.64s-1-.59-.95.33c.1,1.45,1.61,2.11,2.72,2.24a4.81,4.81,0,0,1,.84.1c.23.06.45.33.66.37.7.11,1.41-.59,1.72-1.21.94-1.91-.76-5.29-2.22-6.55A6.32,6.32,0,0,0,37.36,1.3,2.6,2.6,0,0,1,36,.58c-.22-.2-1.14-1-1.11-.26Z"/><path class="cls-25" d="M51.09,21.58c1.24,1.06,2.58,3.57,3.58,5.13,1.28,2,2.86,3.76,4.3,5.59a84.17,84.17,0,0,1,5.64,8.43,70.07,70.07,0,0,1,3.51,6.57,17.35,17.35,0,0,1,1,2.69c.15.53.88,2.13,1.14.58.12-.74-1-2.27-1.32-2.92a29.25,29.25,0,0,0-1.64-2.88C66.17,43,65.08,41.21,64,39.44s-2-3.66-3.27-5.33c-1.15-1.52-2.33-3-3.42-4.56S55.16,26.48,54,25c-.67-.87-1.9-3.46-3-3.46Z"/><path class="cls-29" d="M47.44,22c.44,1.94,2.35,3.91,3.44,5.54s2.11,3.76,3.58,5.24c-1.45-2.34-2.83-4.89-4.08-7.37-.9-1.78-.83-3.78-3.06-3.37Z"/><g class="cls-30"><path class="cls-31" d="M83.33,68.38C83.33,74.25,64.67,79,41.66,79S0,74.25,0,68.38,18.65,57.75,41.66,57.75,83.33,62.51,83.33,68.38Z"/><path class="cls-32" d="M83,68.38c0,5.82-18.5,10.55-41.33,10.55S.34,74.2.34,68.38s18.5-10.54,41.32-10.54S83,62.56,83,68.38Z"/><path class="cls-33" d="M82.65,68.38c0,5.78-18.35,10.46-41,10.46s-41-4.68-41-10.46S19,57.92,41.66,57.92,82.65,62.6,82.65,68.38Z"/><path class="cls-34" d="M82.32,68.38c0,5.73-18.2,10.38-40.66,10.38S1,74.11,1,68.38,19.21,58,41.66,58,82.32,62.65,82.32,68.38Z"/><path class="cls-35" d="M82,68.38c0,5.68-18.05,10.29-40.32,10.29S1.35,74.06,1.35,68.38s18-10.29,40.31-10.29S82,62.7,82,68.38Z"/><path class="cls-36" d="M81.64,68.38c0,5.63-17.9,10.2-40,10.2s-40-4.57-40-10.2,17.9-10.2,40-10.2S81.64,62.75,81.64,68.38Z"/><path class="cls-37" d="M81.31,68.38C81.31,74,63.56,78.5,41.66,78.5S2,74,2,68.38,19.77,58.27,41.66,58.27,81.31,62.79,81.31,68.38Z"/><path class="cls-38" d="M81,68.38c0,5.54-17.6,10-39.31,10s-39.3-4.49-39.3-10,17.59-10,39.3-10S81,62.84,81,68.38Z"/><path class="cls-39" d="M80.64,68.38c0,5.49-17.45,10-39,10s-39-4.46-39-10,17.45-9.94,39-9.94S80.64,62.89,80.64,68.38Z"/><path class="cls-40" d="M80.3,68.38c0,5.44-17.3,9.86-38.64,9.86S3,73.82,3,68.38s17.29-9.86,38.63-9.86S80.3,62.93,80.3,68.38Z"/><path class="cls-41" d="M80,68.38c0,5.4-17.15,9.77-38.3,9.77s-38.3-4.37-38.3-9.77,17.15-9.77,38.3-9.77S80,63,80,68.38Z"/><path class="cls-42" d="M79.63,68.38c0,5.35-17,9.69-38,9.69s-38-4.34-38-9.69,17-9.68,38-9.68S79.63,63,79.63,68.38Z"/><path class="cls-43" d="M79.29,68.38c0,5.3-16.85,9.6-37.63,9.6S4,73.68,4,68.38s16.84-9.6,37.62-9.6S79.29,63.08,79.29,68.38Z"/><path class="cls-44" d="M79,68.38c0,5.25-16.69,9.52-37.29,9.52S4.37,73.63,4.37,68.38s16.7-9.51,37.29-9.51S79,63.12,79,68.38Z"/><path class="cls-45" d="M78.62,68.38c0,5.21-16.55,9.43-37,9.43S4.71,73.59,4.71,68.38,21.25,59,41.66,59,78.62,63.17,78.62,68.38Z"/><path class="cls-46" d="M78.28,68.38c0,5.16-16.4,9.34-36.62,9.34S5.05,73.54,5.05,68.38,21.44,59,41.66,59,78.28,63.22,78.28,68.38Z"/><path class="cls-47" d="M77.94,68.38c0,5.11-16.24,9.26-36.28,9.26S5.38,73.49,5.38,68.38s16.25-9.26,36.28-9.26S77.94,63.27,77.94,68.38Z"/><path class="cls-48" d="M77.61,68.38c0,5.06-16.1,9.17-35.95,9.17S5.72,73.44,5.72,68.38s16.09-9.17,35.94-9.17S77.61,63.31,77.61,68.38Z"/><path class="cls-49" d="M77.27,68.38c0,5-15.94,9.09-35.61,9.09S6.06,73.4,6.06,68.38,22,59.3,41.66,59.3,77.27,63.36,77.27,68.38Z"/><path class="cls-50" d="M76.93,68.38c0,5-15.79,9-35.27,9s-35.27-4-35.27-9,15.79-9,35.27-9S76.93,63.41,76.93,68.38Z"/><path class="cls-51" d="M76.6,68.38C76.6,73.3,61,77.3,41.66,77.3s-34.93-4-34.93-8.92,15.64-8.91,34.93-8.91S76.6,63.46,76.6,68.38Z"/><path class="cls-52" d="M76.26,68.38c0,4.87-15.49,8.83-34.6,8.83s-34.59-4-34.59-8.83,15.48-8.83,34.59-8.83S76.26,63.5,76.26,68.38Z"/><path class="cls-53" d="M75.92,68.38c0,4.83-15.34,8.74-34.26,8.74S7.4,73.21,7.4,68.38s15.34-8.74,34.26-8.74S75.92,63.55,75.92,68.38Z"/><path class="cls-54" d="M75.59,68.38C75.59,73.16,60.4,77,41.66,77S7.74,73.16,7.74,68.38s15.19-8.65,33.92-8.65S75.59,63.6,75.59,68.38Z"/><path class="cls-55" d="M75.25,68.38c0,4.73-15,8.57-33.59,8.57S8.08,73.11,8.08,68.38s15-8.57,33.58-8.57S75.25,63.65,75.25,68.38Z"/><path class="cls-56" d="M74.91,68.38c0,4.68-14.88,8.49-33.25,8.49S8.41,73.06,8.41,68.38,23.3,59.9,41.66,59.9,74.91,63.69,74.91,68.38Z"/><path class="cls-57" d="M74.58,68.38c0,4.64-14.74,8.4-32.92,8.4S8.75,73,8.75,68.38,23.48,60,41.66,60,74.58,63.74,74.58,68.38Z"/><path class="cls-58" d="M74.24,68.38c0,4.59-14.59,8.31-32.58,8.31S9.09,73,9.09,68.38s14.58-8.31,32.57-8.31S74.24,63.79,74.24,68.38Z"/><path class="cls-59" d="M73.91,68.38c0,4.54-14.44,8.23-32.25,8.23S9.42,72.92,9.42,68.38s14.44-8.23,32.24-8.23S73.91,63.84,73.91,68.38Z"/><path class="cls-60" d="M73.57,68.38c0,4.5-14.29,8.14-31.91,8.14s-31.9-3.64-31.9-8.14S24,60.24,41.66,60.24,73.57,63.88,73.57,68.38Z"/><path class="cls-61" d="M73.23,68.38c0,4.45-14.13,8.06-31.57,8.06s-31.57-3.61-31.57-8.06,14.14-8,31.57-8S73.23,63.93,73.23,68.38Z"/><path class="cls-62" d="M72.9,68.38c0,4.4-14,8-31.24,8s-31.23-3.57-31.23-8,14-8,31.23-8S72.9,64,72.9,68.38Z"/><path class="cls-63" d="M72.56,68.38c0,4.35-13.83,7.88-30.9,7.88s-30.89-3.53-30.89-7.88S24.6,60.5,41.66,60.5,72.56,64,72.56,68.38Z"/><path class="cls-64" d="M72.22,68.38c0,4.31-13.68,7.8-30.56,7.8S11.1,72.69,11.1,68.38s13.68-7.8,30.56-7.8S72.22,64.07,72.22,68.38Z"/><path class="cls-65" d="M71.89,68.38c0,4.26-13.54,7.71-30.23,7.71s-30.22-3.45-30.22-7.71S25,60.67,41.66,60.67,71.89,64.12,71.89,68.38Z"/><path class="cls-66" d="M71.55,68.38c0,4.21-13.38,7.63-29.89,7.63s-29.88-3.42-29.88-7.63,13.38-7.62,29.88-7.62S71.55,64.17,71.55,68.38Z"/><path class="cls-67" d="M71.21,68.38c0,4.16-13.23,7.54-29.55,7.54s-29.55-3.38-29.55-7.54,13.23-7.54,29.55-7.54S71.21,64.22,71.21,68.38Z"/><path class="cls-68" d="M70.88,68.38c0,4.12-13.08,7.46-29.22,7.46S12.45,72.5,12.45,68.38s13.08-7.45,29.21-7.45S70.88,64.26,70.88,68.38Z"/><path class="cls-69" d="M70.54,68.38c0,4.07-12.93,7.37-28.88,7.37s-28.87-3.3-28.87-7.37S25.71,61,41.66,61,70.54,64.31,70.54,68.38Z"/><path class="cls-70" d="M70.2,68.38c0,4-12.78,7.28-28.54,7.28S13.12,72.4,13.12,68.38,25.9,61.1,41.66,61.1,70.2,64.36,70.2,68.38Z"/><path class="cls-71" d="M69.87,68.38c0,4-12.63,7.2-28.21,7.2s-28.2-3.23-28.2-7.2,12.63-7.19,28.2-7.19S69.87,64.41,69.87,68.38Z"/><path class="cls-72" d="M69.53,68.38c0,3.93-12.48,7.11-27.87,7.11S13.8,72.31,13.8,68.38s12.47-7.11,27.86-7.11S69.53,64.45,69.53,68.38Z"/><path class="cls-73" d="M69.19,68.38c0,3.88-12.32,7-27.53,7s-27.53-3.15-27.53-7,12.33-7,27.53-7S69.19,64.5,69.19,68.38Z"/><path class="cls-74" d="M68.86,68.38c0,3.83-12.18,6.94-27.2,6.94s-27.19-3.11-27.19-6.94,12.17-6.94,27.19-6.94S68.86,64.55,68.86,68.38Z"/><path class="cls-75" d="M68.52,68.38c0,3.78-12,6.85-26.86,6.85s-26.85-3.07-26.85-6.85,12-6.85,26.85-6.85S68.52,64.6,68.52,68.38Z"/><path class="cls-76" d="M68.18,68.38c0,3.74-11.87,6.77-26.52,6.77s-26.52-3-26.52-6.77S27,61.61,41.66,61.61,68.18,64.64,68.18,68.38Z"/><path class="cls-77" d="M67.85,68.38c0,3.69-11.73,6.68-26.19,6.68s-26.18-3-26.18-6.68S27.2,61.7,41.66,61.7,67.85,64.69,67.85,68.38Z"/><path class="cls-78" d="M67.51,68.38C67.51,72,55.94,75,41.66,75s-25.84-3-25.84-6.6,11.57-6.59,25.84-6.59S67.51,64.74,67.51,68.38Z"/><path class="cls-79" d="M67.17,68.38c0,3.59-11.42,6.51-25.51,6.51S16.15,72,16.15,68.38s11.42-6.51,25.51-6.51S67.17,64.79,67.17,68.38Z"/><path class="cls-80" d="M66.84,68.38c0,3.55-11.27,6.43-25.18,6.43s-25.17-2.88-25.17-6.43S27.76,62,41.66,62,66.84,64.83,66.84,68.38Z"/><path class="cls-81" d="M66.5,68.38c0,3.5-11.12,6.34-24.84,6.34s-24.84-2.84-24.84-6.34S27.94,62,41.66,62,66.5,64.88,66.5,68.38Z"/><path class="cls-82" d="M66.17,68.38c0,3.45-11,6.25-24.51,6.25s-24.5-2.8-24.5-6.25,11-6.25,24.5-6.25S66.17,64.93,66.17,68.38Z"/><path class="cls-83" d="M65.83,68.38c0,3.41-10.82,6.17-24.17,6.17S17.5,71.79,17.5,68.38s10.82-6.16,24.16-6.16S65.83,65,65.83,68.38Z"/><path class="cls-84" d="M65.49,68.38c0,3.36-10.67,6.08-23.83,6.08s-23.83-2.72-23.83-6.08S28.5,62.3,41.66,62.3,65.49,65,65.49,68.38Z"/><path class="cls-85" d="M65.16,68.38c0,3.31-10.52,6-23.5,6s-23.49-2.69-23.49-6,10.52-6,23.49-6S65.16,65.07,65.16,68.38Z"/><path class="cls-86" d="M64.82,68.38c0,3.26-10.37,5.91-23.16,5.91s-23.15-2.65-23.15-5.91,10.36-5.91,23.15-5.91S64.82,65.12,64.82,68.38Z"/><path class="cls-87" d="M64.48,68.38c0,3.22-10.21,5.82-22.82,5.82s-22.82-2.6-22.82-5.82,10.22-5.82,22.82-5.82S64.48,65.16,64.48,68.38Z"/><path class="cls-88" d="M64.15,68.38c0,3.17-10.07,5.74-22.49,5.74s-22.48-2.57-22.48-5.74,10.07-5.73,22.48-5.73S64.15,65.21,64.15,68.38Z"/><path class="cls-89" d="M63.81,68.38c0,3.12-9.92,5.65-22.15,5.65S19.52,71.5,19.52,68.38s9.91-5.65,22.14-5.65S63.81,65.26,63.81,68.38Z"/><path class="cls-90" d="M63.47,68.38c0,3.07-9.76,5.57-21.81,5.57s-21.81-2.5-21.81-5.57,9.77-5.56,21.81-5.56S63.47,65.31,63.47,68.38Z"/><path class="cls-91" d="M63.14,68.38c0,3-9.62,5.48-21.48,5.48s-21.47-2.45-21.47-5.48S29.8,62.9,41.66,62.9,63.14,65.35,63.14,68.38Z"/><path class="cls-92" d="M62.8,68.38c0,3-9.46,5.39-21.14,5.39s-21.13-2.41-21.13-5.39S30,63,41.66,63,62.8,65.4,62.8,68.38Z"/><path class="cls-93" d="M62.46,68.38c0,2.93-9.31,5.31-20.8,5.31s-20.8-2.38-20.8-5.31,9.31-5.31,20.8-5.31S62.46,65.45,62.46,68.38Z"/><path class="cls-94" d="M62.13,68.38c0,2.88-9.17,5.22-20.47,5.22S21.2,71.26,21.2,68.38s9.16-5.22,20.46-5.22S62.13,65.5,62.13,68.38Z"/><path class="cls-95" d="M61.79,68.38c0,2.84-9,5.14-20.13,5.14s-20.12-2.3-20.12-5.14,9-5.13,20.12-5.13S61.79,65.54,61.79,68.38Z"/><path class="cls-96" d="M61.45,68.38c0,2.79-8.86,5.05-19.79,5.05s-19.79-2.26-19.79-5.05,8.86-5,19.79-5S61.45,65.59,61.45,68.38Z"/><path class="cls-97" d="M61.12,68.38c0,2.74-8.71,5-19.46,5s-19.45-2.23-19.45-5,8.71-5,19.45-5S61.12,65.64,61.12,68.38Z"/><path class="cls-98" d="M60.78,68.38c0,2.69-8.56,4.88-19.12,4.88s-19.11-2.19-19.11-4.88S31.1,63.5,41.66,63.5,60.78,65.69,60.78,68.38Z"/><path class="cls-99" d="M60.44,68.38c0,2.65-8.4,4.79-18.78,4.79S22.88,71,22.88,68.38s8.41-4.79,18.78-4.79S60.44,65.73,60.44,68.38Z"/><path class="cls-100" d="M60.11,68.38c0,2.6-8.26,4.71-18.45,4.71S23.22,71,23.22,68.38s8.26-4.7,18.44-4.7S60.11,65.78,60.11,68.38Z"/><path class="cls-101" d="M59.77,68.38c0,2.55-8.11,4.62-18.11,4.62s-18.11-2.07-18.11-4.62,8.11-4.62,18.11-4.62S59.77,65.83,59.77,68.38Z"/><path class="cls-102" d="M59.44,68.38c0,2.5-8,4.54-17.78,4.54s-17.77-2-17.77-4.54,8-4.53,17.77-4.53S59.44,65.88,59.44,68.38Z"/><path class="cls-103" d="M59.1,68.38c0,2.46-7.81,4.45-17.44,4.45s-17.43-2-17.43-4.45,7.8-4.45,17.43-4.45S59.1,65.92,59.1,68.38Z"/><path class="cls-104" d="M58.76,68.38c0,2.41-7.65,4.36-17.1,4.36s-17.1-1.95-17.1-4.36S32.22,64,41.66,64,58.76,66,58.76,68.38Z"/><path class="cls-105" d="M58.43,68.38c0,2.36-7.51,4.28-16.77,4.28S24.9,70.74,24.9,68.38s7.5-4.27,16.76-4.27S58.43,66,58.43,68.38Z"/><path class="cls-106" d="M58.09,68.38c0,2.31-7.36,4.19-16.43,4.19s-16.42-1.88-16.42-4.19,7.35-4.19,16.42-4.19S58.09,66.07,58.09,68.38Z"/><path class="cls-107" d="M57.75,68.38c0,2.27-7.2,4.11-16.09,4.11s-16.09-1.84-16.09-4.11,7.21-4.1,16.09-4.1S57.75,66.11,57.75,68.38Z"/><path class="cls-108" d="M57.42,68.38c0,2.22-7.06,4-15.76,4s-15.75-1.8-15.75-4,7.05-4,15.75-4S57.42,66.16,57.42,68.38Z"/><path class="cls-109" d="M57.08,68.38c0,2.17-6.9,3.94-15.42,3.94s-15.41-1.77-15.41-3.94,6.9-3.93,15.41-3.93S57.08,66.21,57.08,68.38Z"/><path class="cls-110" d="M56.74,68.38c0,2.13-6.75,3.85-15.08,3.85s-15.08-1.72-15.08-3.85,6.75-3.85,15.08-3.85S56.74,66.26,56.74,68.38Z"/><path class="cls-111" d="M56.41,68.38c0,2.08-6.6,3.76-14.75,3.76s-14.74-1.68-14.74-3.76,6.6-3.76,14.74-3.76S56.41,66.3,56.41,68.38Z"/><path class="cls-112" d="M56.07,68.38c0,2-6.45,3.68-14.41,3.68s-14.4-1.65-14.4-3.68,6.45-3.67,14.4-3.67S56.07,66.35,56.07,68.38Z"/><path class="cls-113" d="M55.73,68.38c0,2-6.3,3.59-14.07,3.59s-14.07-1.61-14.07-3.59,6.3-3.59,14.07-3.59S55.73,66.4,55.73,68.38Z"/><path class="cls-114" d="M55.4,68.38c0,1.94-6.15,3.51-13.74,3.51s-13.73-1.57-13.73-3.51,6.15-3.5,13.73-3.5S55.4,66.45,55.4,68.38Z"/><path class="cls-115" d="M55.06,68.38c0,1.89-6,3.42-13.4,3.42s-13.39-1.53-13.39-3.42S34.26,65,41.66,65,55.06,66.49,55.06,68.38Z"/><path class="cls-116" d="M54.72,68.38c0,1.84-5.84,3.33-13.06,3.33S28.6,70.22,28.6,68.38s5.85-3.33,13.06-3.33S54.72,66.54,54.72,68.38Z"/><path class="cls-117" d="M54.39,68.38c0,1.79-5.7,3.25-12.73,3.25s-12.72-1.46-12.72-3.25,5.69-3.24,12.72-3.24S54.39,66.59,54.39,68.38Z"/><path class="cls-118" d="M54.05,68.38c0,1.75-5.55,3.16-12.39,3.16s-12.38-1.41-12.38-3.16,5.54-3.16,12.38-3.16S54.05,66.64,54.05,68.38Z"/><path class="cls-119" d="M53.71,68.38c0,1.7-5.39,3.08-12.05,3.08s-12-1.38-12-3.08,5.4-3.07,12-3.07S53.71,66.68,53.71,68.38Z"/><path class="cls-120" d="M53.38,68.38c0,1.65-5.25,3-11.72,3S30,70,30,68.38s5.24-3,11.71-3S53.38,66.73,53.38,68.38Z"/><path class="cls-121" d="M53,68.38c0,1.6-5.09,2.9-11.38,2.9S30.28,70,30.28,68.38s5.1-2.9,11.38-2.9S53,66.78,53,68.38Z"/><path class="cls-122" d="M52.7,68.38c0,1.56-4.94,2.82-11,2.82s-11-1.26-11-2.82,4.94-2.81,11-2.81S52.7,66.82,52.7,68.38Z"/><path class="cls-123" d="M52.37,68.38c0,1.51-4.79,2.73-10.71,2.73S31,69.89,31,68.38s4.79-2.73,10.7-2.73S52.37,66.87,52.37,68.38Z"/><path class="cls-124" d="M52,68.38C52,69.84,47.39,71,41.66,71s-10.37-1.19-10.37-2.65,4.65-2.64,10.37-2.64S52,66.92,52,68.38Z"/><path class="cls-125" d="M51.7,68.38c0,1.41-4.5,2.56-10,2.56s-10-1.15-10-2.56,4.49-2.56,10-2.56S51.7,67,51.7,68.38Z"/><path class="cls-126" d="M51.36,68.38c0,1.37-4.34,2.48-9.7,2.48S32,69.75,32,68.38s4.34-2.47,9.69-2.47S51.36,67,51.36,68.38Z"/><path class="cls-127" d="M51,68.38c0,1.32-4.19,2.39-9.36,2.39S32.3,69.7,32.3,68.38,36.49,66,41.66,66,51,67.06,51,68.38Z"/><path class="cls-128" d="M50.69,68.38c0,1.27-4,2.3-9,2.3s-9-1-9-2.3,4-2.3,9-2.3S50.69,67.11,50.69,68.38Z"/><path class="cls-129" d="M50.35,68.38c0,1.22-3.89,2.22-8.69,2.22S33,69.6,33,68.38s3.89-2.21,8.68-2.21S50.35,67.16,50.35,68.38Z"/><path class="cls-130" d="M50,68.38c0,1.18-3.74,2.13-8.35,2.13s-8.35-1-8.35-2.13,3.74-2.13,8.35-2.13S50,67.2,50,68.38Z"/><path class="cls-131" d="M49.68,68.38c0,1.13-3.59,2.05-8,2.05s-8-.92-8-2.05,3.59-2,8-2S49.68,67.25,49.68,68.38Z"/><path class="cls-132" d="M49.34,68.38c0,1.08-3.44,2-7.68,2s-7.67-.88-7.67-2,3.43-2,7.67-2S49.34,67.3,49.34,68.38Z"/><path class="cls-133" d="M49,68.38c0,1-3.28,1.87-7.34,1.87s-7.34-.83-7.34-1.87,3.29-1.87,7.34-1.87S49,67.35,49,68.38Z"/><path class="cls-134" d="M48.67,68.38c0,1-3.14,1.79-7,1.79s-7-.8-7-1.79,3.13-1.78,7-1.78S48.67,67.39,48.67,68.38Z"/><path class="cls-135" d="M48.33,68.38c0,.94-3,1.7-6.67,1.7S35,69.32,35,68.38s3-1.7,6.66-1.7S48.33,67.44,48.33,68.38Z"/><path class="cls-136" d="M48,68.38c0,.89-2.83,1.62-6.33,1.62s-6.33-.73-6.33-1.62,2.84-1.61,6.33-1.61S48,67.49,48,68.38Z"/><path class="cls-137" d="M47.66,68.38c0,.85-2.69,1.53-6,1.53s-6-.68-6-1.53,2.68-1.53,6-1.53S47.66,67.54,47.66,68.38Z"/><path class="cls-138" d="M47.32,68.38c0,.8-2.53,1.45-5.66,1.45S36,69.18,36,68.38s2.53-1.44,5.65-1.44S47.32,67.58,47.32,68.38Z"/><path class="cls-139" d="M47,68.38c0,.75-2.38,1.36-5.32,1.36s-5.32-.61-5.32-1.36S38.72,67,41.66,67,47,67.63,47,68.38Z"/><path class="cls-140" d="M46.65,68.38c0,.7-2.23,1.27-5,1.27s-5-.57-5-1.27,2.23-1.27,5-1.27S46.65,67.68,46.65,68.38Z"/><path class="cls-141" d="M46.31,68.38c0,.66-2.08,1.19-4.65,1.19S37,69,37,68.38s2.09-1.18,4.65-1.18S46.31,67.73,46.31,68.38Z"/><path class="cls-142" d="M46,68.38c0,.61-1.93,1.1-4.31,1.1s-4.31-.49-4.31-1.1,1.93-1.1,4.31-1.1S46,67.77,46,68.38Z"/><path class="cls-143" d="M45.64,68.38c0,.56-1.78,1-4,1s-4-.46-4-1,1.78-1,4-1S45.64,67.82,45.64,68.38Z"/><path class="cls-144" d="M45.3,68.38c0,.51-1.63.93-3.64.93S38,68.89,38,68.38s1.63-.93,3.64-.93S45.3,67.87,45.3,68.38Z"/><path class="cls-145" d="M45,68.38c0,.47-1.48.84-3.31.84s-3.3-.37-3.3-.84,1.48-.84,3.3-.84S45,67.92,45,68.38Z"/><path class="cls-146" d="M44.63,68.38c0,.42-1.33.76-3,.76s-3-.34-3-.76,1.32-.75,3-.75S44.63,68,44.63,68.38Z"/><path class="cls-147" d="M44.29,68.38c0,.37-1.17.67-2.63.67S39,68.75,39,68.38s1.18-.67,2.63-.67S44.29,68,44.29,68.38Z"/><path class="cls-148" d="M44,68.38c0,.32-1,.59-2.3.59s-2.29-.27-2.29-.59,1-.58,2.29-.58S44,68.06,44,68.38Z"/><path class="cls-149" d="M43.62,68.38c0,.28-.88.5-2,.5s-1.95-.22-1.95-.5.87-.5,1.95-.5S43.62,68.11,43.62,68.38Z"/><path class="cls-150" d="M43.28,68.38c0,.23-.72.41-1.62.41S40,68.61,40,68.38s.73-.41,1.62-.41S43.28,68.15,43.28,68.38Z"/></g></g></g></g></svg>