<?xml version="1.0" encoding="utf-8"?>
<!-- Generator: Adobe Illustrator 24.0.0, SVG Export Plug-In . SVG Version: 6.00 Build 0)  -->
<svg version="1.1"
	 id="svg2" inkscape:version="1.0 (4035a4fb49, 2020-05-01)" sodipodi:docname="No-Image-Placeholder.svg" xmlns:cc="http://creativecommons.org/ns#" xmlns:dc="http://purl.org/dc/elements/1.1/" xmlns:inkscape="http://www.inkscape.org/namespaces/inkscape" xmlns:rdf="http://www.w3.org/1999/02/22-rdf-syntax-ns#" xmlns:sodipodi="http://sodipodi.sourceforge.net/DTD/sodipodi-0.dtd" xmlns:svg="http://www.w3.org/2000/svg"
	 xmlns="http://www.w3.org/2000/svg" xmlns:xlink="http://www.w3.org/1999/xlink" x="0px" y="0px" viewBox="0 0 329.8 406"
	 style="enable-background:new 0 0 329.8 406;" xml:space="preserve">
<style type="text/css">
	.st0{fill:#9F9F9F;}
	.st1{fill:url(#rect961_1_);stroke:#FFFFFF;stroke-width:5.398;stroke-linecap:round;stroke-linejoin:round;}
	
		.st2{fill-rule:evenodd;clip-rule:evenodd;fill:#CCCCCC;stroke:#FFFFFF;stroke-width:2.2567;stroke-linecap:round;stroke-linejoin:round;stroke-miterlimit:10;}
	
		.st3{fill-rule:evenodd;clip-rule:evenodd;fill:#FFFFFF;stroke:#FFFFFF;stroke-width:2.2567;stroke-linecap:round;stroke-linejoin:round;stroke-miterlimit:10;}
	
		.st4{fill-rule:evenodd;clip-rule:evenodd;fill:#B3B3B3;stroke:#FFFFFF;stroke-width:2.2567;stroke-linecap:round;stroke-linejoin:round;stroke-miterlimit:10;}
	.st5{fill:#767676;}
	.st6{font-family:'Helvetica-Bold';}
	.st7{font-size:32px;}
</style>
<defs>
	<inkscape:path-effect  effect="spiro" id="path-effect3414" is_visible="true" lpeversion="0"></inkscape:path-effect>
	<inkscape:path-effect  effect="spiro" id="path-effect3410" is_visible="true" lpeversion="0"></inkscape:path-effect>
	<inkscape:path-effect  effect="spiro" id="path-effect3406" is_visible="true" lpeversion="0"></inkscape:path-effect>
	<inkscape:path-effect  effect="spiro" id="path-effect3402" is_visible="true" lpeversion="0"></inkscape:path-effect>
	<inkscape:path-effect  effect="spiro" id="path-effect3398" is_visible="true" lpeversion="0"></inkscape:path-effect>
	<inkscape:path-effect  effect="spiro" id="path-effect3392" is_visible="true" lpeversion="0"></inkscape:path-effect>
	<inkscape:path-effect  effect="spiro" id="path-effect3388" is_visible="true" lpeversion="0"></inkscape:path-effect>
	<inkscape:path-effect  effect="spiro" id="path-effect3372" is_visible="true" lpeversion="0"></inkscape:path-effect>
	<inkscape:path-effect  effect="spiro" id="path-effect3368" is_visible="true" lpeversion="0"></inkscape:path-effect>
	<inkscape:path-effect  effect="spiro" id="path-effect3364" is_visible="true" lpeversion="0"></inkscape:path-effect>
	<inkscape:path-effect  effect="spiro" id="path-effect3360" is_visible="true" lpeversion="0"></inkscape:path-effect>
	<inkscape:path-effect  effect="spiro" id="path-effect3346" is_visible="true" lpeversion="0"></inkscape:path-effect>
	<inkscape:path-effect  effect="spiro" id="path-effect3392-8" is_visible="true" lpeversion="0"></inkscape:path-effect>
</defs>
<sodipodi:namedview  bordercolor="#666666" borderopacity="1.0" fit-margin-bottom="0" fit-margin-left="0" fit-margin-right="0" fit-margin-top="0" id="base" inkscape:current-layer="layer1" inkscape:cx="148.40044" inkscape:cy="109.10202" inkscape:document-rotation="0" inkscape:document-units="px" inkscape:guide-bbox="true" inkscape:object-nodes="true" inkscape:pageopacity="0.0" inkscape:pageshadow="2" inkscape:snap-smooth-nodes="true" inkscape:window-height="1004" inkscape:window-maximized="1" inkscape:window-width="1920" inkscape:window-x="0" inkscape:window-y="42" inkscape:zoom="0.7071068" pagecolor="#ffffff" showgrid="false" showguides="false" units="px">
	<inkscape:grid  id="grid3336" originx="-399.13435" originy="-510.42818" type="xygrid"></inkscape:grid>
	<sodipodi:guide  id="guide3375" orientation="0,1" position="-117.13437,-25.564321"></sodipodi:guide>
	<sodipodi:guide  id="guide3377" orientation="0,1" position="-114.13437,-23.564321"></sodipodi:guide>
	<sodipodi:guide  id="guide3380" orientation="0,1" position="-121.13437,-27.564321"></sodipodi:guide>
	<sodipodi:guide  id="guide3382" orientation="0,1" position="-114.13437,-22.564321"></sodipodi:guide>
	<sodipodi:guide  id="guide3384" orientation="0,1" position="-114.13437,-21.564321"></sodipodi:guide>
	<sodipodi:guide  id="guide3416" orientation="-2,0.5" position="-115.13437,-25.564311"></sodipodi:guide>
	<sodipodi:guide  id="guide3420" orientation="-2,0.5" position="-115.13437,-25.564311"></sodipodi:guide>
	<sodipodi:guide  id="guide4180" orientation="0.24382204,-0.96981999" position="206.80442,220.41193"></sodipodi:guide>
	<sodipodi:guide  id="guide4182" orientation="1,0" position="86.804424,280.52227"></sodipodi:guide>
	<sodipodi:guide  id="guide4186" orientation="1,0" position="206.80442,250.52231"></sodipodi:guide>
	<sodipodi:guide  id="guide4188" orientation="-0.24382199,0.96982" position="206.80442,190.30156"></sodipodi:guide>
</sodipodi:namedview>
<g id="layer1" transform="translate(-399.13437,-122.79051)" inkscape:groupmode="layer" inkscape:label="Layer 1">
	<g id="g1015" transform="translate(43.778173,191.04163)">
		<path id="rect1002" class="st0" d="M441,57l63-18.5c4.5-1.3,9.1,1.2,10.4,5.7l20.7,70.7c1.3,4.5-1.2,9.1-5.7,10.4l-63,18.5
			c-4.5,1.3-9.1-1.2-10.4-5.7l-20.7-70.7C434,62.9,436.6,58.3,441,57z"/>
		<g id="g1000" transform="rotate(16.320529,538.13563,-184.89727)">
			
				<linearGradient id="rect961_1_" gradientUnits="userSpaceOnUse" x1="1255.8799" y1="391.5474" x2="1254.2714" y2="289.3704" gradientTransform="matrix(0.9597 -0.281 -0.281 -0.9597 -493.3094 735.4362)">
				<stop  offset="0" style="stop-color:#C2C2C2"/>
				<stop  offset="1" style="stop-color:#9F9F9F"/>
			</linearGradient>
			<path id="rect961" class="st1" d="M551.8,1.6l98.6,0c2.5,0,4.6,2.1,4.6,4.6l0,106.8c0,2.5-2.1,4.6-4.6,4.6l-98.6,0
				c-2.5,0-4.6-2.1-4.6-4.6V6.2C547.2,3.7,549.2,1.6,551.8,1.6z"/>
			<g id="g875" transform="matrix(0.17265471,0,0,0.17265471,512.49324,-6.3296456)">
				
					<rect id="rect3338" x="290.6" y="86.8" transform="matrix(2.819178e-06 1 -1 2.819178e-06 847.9086 -183.1917)" class="st2" width="450" height="491.1"/>
				
					<rect id="rect3342" x="410.6" y="-33.2" transform="matrix(2.819178e-06 1 -1 2.819178e-06 727.9096 -303.1902)" class="st3" width="210" height="491.1"/>
				
					<path id="path3344" inkscape:connector-curvature="0" inkscape:original-d="m 300,317.36255 38.46147,-53.53818 60.53097,-45.16084 15.88277,18.57394 13.61285,-38.68356 8.20133,-2.98188 13.3106,-28.2093 180,179.99979" inkscape:path-effect="#path-effect3346" sodipodi:nodetypes="cccccccc" class="st2" d="
					M300,317.4l38.5-53.5l60.5-45.2l15.9,18.6l13.6-38.7l8.2-3l13.3-28.2l180,180"/>
				<path id="path3390-0" inkscape:connector-curvature="0" sodipodi:nodetypes="cscccccccccccc" class="st4" d="M450,167.4
					c4.1,16.5,7.7,33.1,10.9,49.7c2.4,12.7,4.5,25.4,6.3,38.1l-22.1-7.2L399,218.7l5.3,46.4l-1.6,24.8l10.1,30.4l73.2-11.8
					l84.1-21.1l-47.8-77.4l-9.7,14.9l-27.1-22.1L450,167.4z"/>
				
					<path id="path3358" inkscape:connector-curvature="0" inkscape:original-d="m 419.99999,347.36252 81.89918,-74.42959 18.50574,-9.68009 23.6512,-44.18894 25.94388,-21.70121 179.99999,179.99979" inkscape:path-effect="#path-effect3360" sodipodi:nodetypes="cccccc" class="st2" d="
					M420,347.4l81.9-74.4l18.5-9.7l23.7-44.2l25.9-21.7l180,180"/>
				
					<path id="path3386" inkscape:connector-curvature="0" inkscape:original-d="m 569.99999,197.36269 35.9388,80.91289 v 30.11038 30.11038 l 22.45864,19.46652 c 5.77311,-6.36416 13.54339,-11.40815 22.44431,-15.70477 13.00316,-6.27685 32.0432,-8.74899 47.17057,-13.6217 6.8762,-2.21491 12.68001,-4.81998 18.21343,-7.87277 1.55883,-0.86001 1.99765,-2.671 3.77424,-3.40107 h -30 l -40.52149,-40.55006 -29.85645,-48.91972 -10.25307,8.83886 z" inkscape:path-effect="#path-effect3388" sodipodi:nodetypes="cccccssscccccc" class="st4" d="
					M570,197.4l35.9,80.9v30.1v30.1l22.5,19.5c6.5-6.5,14.1-11.8,22.4-15.7c14.8-7,31.3-9.4,47.2-13.6c6.4-1.7,12.9-3.9,18.2-7.9
					c1.4-1,2.6-2.2,3.8-3.4h-30l-40.5-40.5l-29.9-48.9l-10.3,8.8L570,197.4z"/>
				<path id="path3370" inkscape:connector-curvature="0" sodipodi:nodetypes="cssssscsssssc" class="st3" d="M420,557.4
					c-0.4-9.6-8.8-17.6,17.1-30.7c31.8-16,125.9-35.9,152.2-60c19.4-17.8-70.4-37.7-55-59.1c7-9.7,59-20,82.1-30.3
					c21.9-9.8,15.1-19.8,31.4-30c15.7-9.8,68.3-19.8,72.2-30c-10.4,10.5-68.8,20.4-90,30c-22.3,10.1-21.5,19.9-49.4,29.5
					c-30.1,10.3-89.1,20.6-102.7,30.5c-28.4,20.9,46.9,42.6,16.2,60c-41.5,23.6-149.3,43.3-194.1,60c-30.9,11.5-28.4,17.7-30,30"/>
			</g>
		</g>
	</g>
	<text transform="matrix(1 0 0 1 481.1162 412.1253)" class="st5 st6 st7">NO IMAGE</text>
	<text transform="matrix(1 0 0 1 472.8115 452.1253)" class="st5 st6 st7">AVAILABLE</text>
</g>
</svg>
