<svg xmlns="http://www.w3.org/2000/svg" viewBox="0 0 132.08 187.89"><defs><style>.cls-1{fill:#fff;}.cls-2{fill:#111;}.cls-3{fill:#e7dfdd;}</style></defs><title>2</title><g id="Layer_2" data-name="Layer 2"><g id="Layer_4" data-name="Layer 4"><path class="cls-1" d="M126.41,22a3.85,3.85,0,0,1,2.5,4.81l-7.51,23a3.88,3.88,0,0,1-4.82,2.45L58.88,33.49a3.8,3.8,0,0,1-2.55-4.06l6.52,2.12h0L93,41.42a1.39,1.39,0,0,0,.47,0A1.5,1.5,0,0,0,94,38.54l-3.12-1,5.52-16.81a1.47,1.47,0,0,0-.94-1.89A1.21,1.21,0,0,0,95,18.8a1.48,1.48,0,0,0-1.47,1L88,36.61l-10-3.26,5.53-16.76a1.48,1.48,0,0,0-1-1.89,1.5,1.5,0,0,0-1.89.94L75.17,32.4l-9.91-3.25,5.52-16.72a1.51,1.51,0,0,0-1-1.89,1.44,1.44,0,0,0-1.89,1L62.38,28.25,57.13,26.5,63.89,5.63a3.88,3.88,0,0,1,4.86-2.46ZM122,29.1a1.5,1.5,0,0,0-2.84-1l-6,18.18a1.43,1.43,0,0,0,.94,1.89,1.91,1.91,0,0,0,.52.1,1.47,1.47,0,0,0,1.37-1Zm-12.8-4.16a1.53,1.53,0,0,0-1-1.89s0,0,0,0a1.54,1.54,0,0,0-1.89,1l-5.53,16.81,0-.05a1.3,1.3,0,0,0-.43,0,1.47,1.47,0,0,0-1.46,1,1.43,1.43,0,0,0,.94,1.89l5.76,1.89a1.27,1.27,0,0,0,.43,0,1.5,1.5,0,0,0,.47-2.93l-2.83-.9Z"/><path class="cls-2" d="M127.35,19.09a6.86,6.86,0,0,1,4.39,8.64l-7.46,23a6.87,6.87,0,0,1-8.64,4.39l-4.06-1.32c1,7,3.45,9.86,6.8,13.59a63.63,63.63,0,0,1,4.34,5.25,17.93,17.93,0,0,1,2.84,16.15L96.42,181.67c-4.77,12.75-38.44,2.74-52.7-2.13-1.22-.37-2.5-.75-3.77-1.18C22.19,172.6-2.93,162.21.28,150.69L30.93,58a17.71,17.71,0,0,1,11.8-11.33,64.5,64.5,0,0,1,6.52-1.7c5-1,8.59-1.89,13.5-7l-4.81-1.56a6.89,6.89,0,0,1-4.39-8.64l7.5-23A6.82,6.82,0,0,1,69.65.34Zm1.56,7.69a3.85,3.85,0,0,0-2.5-4.81L68.75,3.17a3.88,3.88,0,0,0-4.86,2.46L57.13,26.5l5.25,1.75L67.9,11.49a1.44,1.44,0,0,1,1.89-1,1.51,1.51,0,0,1,1,1.89L65.26,29.15l9.91,3.25,5.57-16.76a1.5,1.5,0,0,1,1.89-.94,1.48,1.48,0,0,1,1,1.89L78.05,33.35l10,3.26,5.52-16.77a1.48,1.48,0,0,1,1.47-1,1.21,1.21,0,0,1,.42.05,1.47,1.47,0,0,1,.94,1.89L90.85,37.55l3.12,1a1.5,1.5,0,0,1-.48,2.93,1.39,1.39,0,0,1-.47,0L62.89,31.55h0l-6.52-2.12a3.8,3.8,0,0,0,2.55,4.06l57.7,18.79a3.88,3.88,0,0,0,4.82-2.45Zm-6.23,61.06a14.64,14.64,0,0,0-2.36-13.41,64.73,64.73,0,0,0-4.16-5c-3.78-4.25-6.8-7.65-7.74-16.67L65.92,39s0,.05,0,.09c-6,6.66-10.44,7.6-16,8.83-1.94.43-4,.85-6.28,1.56a15,15,0,0,0-9.87,9.4L27.1,79.06l89,29c.1,0,.1.14.19.19l1.28-4.11-14.93-4.81a1.52,1.52,0,0,1,.95-2.88l14.87,4.81Zm-17.85,57.09,10.62-34c-.09,0-.14,0-.23,0h0L73.71,97.38,26.16,81.89,17,109.56l16.2,5.29a1.5,1.5,0,0,1-.94,2.84l-16.2-5.25-1,2.93,47.64,15.54,41.51,13.55A1.69,1.69,0,0,1,104.83,144.93Zm-9.54,30.41,8.78-28.09a1.94,1.94,0,0,1-.52.09.45.45,0,0,1-.23-.05l-89.16-29-11,33.29c-1.94,6.9,14.4,16.81,41.51,25.17,27.15,9.26,46.37,10.86,48.92,4l.47-1.56c-3.73,1.56-12.09,3.4-27.67.09a.16.16,0,0,1-.14,0,1.48,1.48,0,0,1-1-1.74A1.43,1.43,0,0,1,67,176.33c20.78,4.44,27.63-.8,27.67-.85S95.1,175.39,95.29,175.34Z"/><path class="cls-3" d="M120.32,74.43a14.64,14.64,0,0,1,2.36,13.41l-4.21,13.41L103.6,96.44a1.52,1.52,0,0,0-.95,2.88l14.93,4.81-1.28,4.11c-.09,0-.09-.14-.19-.19l-89-29,6.66-20.21a15,15,0,0,1,9.87-9.4c2.31-.71,4.34-1.13,6.28-1.56,5.52-1.23,9.92-2.17,16-8.83,0,0,0-.09,0-.09l42.5,13.79c.94,9,4,12.42,7.74,16.67A64.73,64.73,0,0,1,120.32,74.43ZM99,96.53A1.45,1.45,0,0,0,98,94.64L94.3,93.41a1.52,1.52,0,0,0-1,2.88l3.73,1.18A1.43,1.43,0,0,0,99,96.53ZM57.18,52.05A1.51,1.51,0,0,0,58,50.11a1.6,1.6,0,0,0-2-.85,1.53,1.53,0,0,0-.85,1.94,1.4,1.4,0,0,0,.94.9,1.61,1.61,0,0,0,1,0ZM51,53.61A1.53,1.53,0,0,0,52.27,52a1.5,1.5,0,0,0-1.65-1.37,1.52,1.52,0,0,0-1.32,1.66,1.42,1.42,0,0,0,1,1.27A1.5,1.5,0,0,0,51,53.61Zm-5.57,1a1.55,1.55,0,0,0,.94-1.94,1.53,1.53,0,0,0-1.94-.9,1.55,1.55,0,0,0-.94,1.94,1.68,1.68,0,0,0,1,.9A1.7,1.7,0,0,0,45.38,54.6ZM41,57.43a1.52,1.52,0,0,0-2.27-2,1.61,1.61,0,0,0,.15,2.17,1.17,1.17,0,0,0,.52.29A1.48,1.48,0,0,0,41,57.43Zm-2.6,4.72a1.49,1.49,0,0,0-.89-1.89,1.51,1.51,0,0,0-1.94.9,1.45,1.45,0,0,0,.95,1.89v.05A1.47,1.47,0,0,0,38.43,62.15ZM36.5,67.82a1.46,1.46,0,0,0-1-1.89,1.51,1.51,0,1,0,1,1.89Zm-1.8,5.71a1.53,1.53,0,0,0-1-1.89,1.55,1.55,0,0,0-1.89,1,1.43,1.43,0,0,0,1.42,1.93A1.47,1.47,0,0,0,34.7,73.53Z"/><path class="cls-2" d="M121.07,27.21a1.45,1.45,0,0,1,1,1.89l-6,18.18a1.47,1.47,0,0,1-1.37,1,1.91,1.91,0,0,1-.52-.1,1.43,1.43,0,0,1-.94-1.89l6-18.18A1.45,1.45,0,0,1,121.07,27.21Z"/><path class="cls-1" d="M115.45,110.93l-10.62,34a1.69,1.69,0,0,0-.57-.47L62.75,130.91,64,127.18a2.82,2.82,0,0,0,3.54-1.8L68.94,121l4.34,1.41a2.81,2.81,0,0,0,3.54-1.79l2-6.28a2.83,2.83,0,0,0-1.8-3.54l-4.34-1.42,1.41-4.3a2.86,2.86,0,0,0-1.79-3.58l1.37-4.16,41.46,13.55h0C115.31,110.93,115.36,110.89,115.45,110.93Z"/><path class="cls-2" d="M108.27,23.05a1.53,1.53,0,0,1,1,1.89l-5.57,16.81,2.83.9a1.5,1.5,0,0,1-.47,2.93,1.27,1.27,0,0,1-.43,0l-5.76-1.89a1.43,1.43,0,0,1-.94-1.89,1.47,1.47,0,0,1,1.46-1,1.3,1.3,0,0,1,.43,0l0,.05L106.34,24a1.54,1.54,0,0,1,1.89-1S108.23,23.05,108.27,23.05Z"/><path class="cls-3" d="M104.07,147.25l-8.78,28.09c-.19,0-.43,0-.62.14s-6.89,5.29-27.67.85a1.43,1.43,0,0,0-1.74,1.14,1.48,1.48,0,0,0,1,1.74.16.16,0,0,0,.14,0c15.58,3.31,23.94,1.47,27.67-.09l-.47,1.56c-2.55,6.84-21.77,5.24-48.92-4-27.11-8.36-43.45-18.27-41.51-25.17l11-33.29,89.16,29a.45.45,0,0,0,.23.05A1.94,1.94,0,0,0,104.07,147.25Zm-43.68,29a1.49,1.49,0,0,0-1-1.89c-1.74-.47-3.63-1-5.57-1.66a1.49,1.49,0,0,0-1.89.95,1.51,1.51,0,0,0,1,1.89c2,.66,3.88,1.23,5.67,1.75A1.53,1.53,0,0,0,60.39,176.29Z"/><path class="cls-2" d="M98,94.64a1.49,1.49,0,0,1-1,2.83l-3.73-1.18a1.52,1.52,0,0,1,1-2.88Z"/><path class="cls-2" d="M77.06,110.84a2.83,2.83,0,0,1,1.8,3.54l-2,6.28a2.81,2.81,0,0,1-3.54,1.79L68.94,121l-1.42,4.34a2.82,2.82,0,0,1-3.54,1.8l-6.19-2A2.82,2.82,0,0,1,56,121.6l1.42-4.29-4.3-1.42a2.84,2.84,0,0,1-1.84-3.59l2-6.23a2.88,2.88,0,0,1,3.59-1.8l4.3,1.42,1.41-4.34a2.79,2.79,0,0,1,3.55-1.8l6.23,2a2.86,2.86,0,0,1,1.79,3.58l-1.41,4.3Zm-3,8.69,1.89-5.91-5.57-1.79a1.46,1.46,0,0,1-1-1.89l1.8-5.57-5.86-1.94-1.79,5.62a1.57,1.57,0,0,1-1.89,1l-5.58-1.8-1.93,5.86,5.57,1.84a1.51,1.51,0,0,1,1,1.89l-1.84,5.57,5.86,1.89,1.79-5.57a1.51,1.51,0,0,1,1.94-1Z"/><path class="cls-1" d="M73.71,97.38l-1.37,4.16-6.23-2a2.79,2.79,0,0,0-3.55,1.8l-1.41,4.34-4.3-1.42a2.88,2.88,0,0,0-3.59,1.8l-2,6.23a2.84,2.84,0,0,0,1.84,3.59l4.3,1.42L56,121.6a2.82,2.82,0,0,0,1.84,3.55l6.19,2-1.23,3.73L15.11,115.37l1-2.93,16.2,5.25a1.5,1.5,0,0,0,.94-2.84L17,109.56l9.12-27.67Z"/><path class="cls-2" d="M59.35,174.4a1.49,1.49,0,0,1,1,1.89,1.53,1.53,0,0,1-1.84,1c-1.79-.52-3.68-1.09-5.67-1.75a1.51,1.51,0,0,1-1-1.89,1.49,1.49,0,0,1,1.89-.95C55.72,173.36,57.61,173.93,59.35,174.4Z"/><path class="cls-2" d="M58,50.11a1.51,1.51,0,0,1-.85,1.94v.05a1.61,1.61,0,0,1-1,0,1.4,1.4,0,0,1-.94-.9,1.53,1.53,0,0,1,.85-1.94A1.6,1.6,0,0,1,58,50.11Z"/><path class="cls-2" d="M52.27,52A1.53,1.53,0,0,1,51,53.61a1.5,1.5,0,0,1-.66-.1,1.42,1.42,0,0,1-1-1.27,1.52,1.52,0,0,1,1.32-1.66A1.5,1.5,0,0,1,52.27,52Z"/><path class="cls-2" d="M46.32,52.66a1.55,1.55,0,0,1-.94,1.94,1.7,1.7,0,0,1-1,0,1.68,1.68,0,0,1-1-.9,1.55,1.55,0,0,1,.94-1.94A1.53,1.53,0,0,1,46.32,52.66Z"/><path class="cls-2" d="M40.89,55.31A1.54,1.54,0,0,1,41,57.43a1.48,1.48,0,0,1-1.6.43,1.17,1.17,0,0,1-.52-.29,1.61,1.61,0,0,1-.15-2.17A1.54,1.54,0,0,1,40.89,55.31Z"/><path class="cls-2" d="M37.54,60.26a1.49,1.49,0,0,1,.89,1.89,1.47,1.47,0,0,1-1.88,1v-.05a1.45,1.45,0,0,1-.95-1.89A1.51,1.51,0,0,1,37.54,60.26Z"/><path class="cls-2" d="M35.55,65.93a1.46,1.46,0,0,1,1,1.89,1.49,1.49,0,1,1-1-1.89Z"/><path class="cls-2" d="M33.71,71.64a1.53,1.53,0,0,1,1,1.89,1.47,1.47,0,0,1-1.46,1,1.43,1.43,0,0,1-1.42-1.93A1.55,1.55,0,0,1,33.71,71.64Z"/></g></g></svg>