<svg xmlns="http://www.w3.org/2000/svg" viewBox="0 0 74.73 95.98"><defs><style>.cls-1{fill:#b7d9f7;}.cls-1,.cls-3,.cls-4{stroke:#444b56;}.cls-1,.cls-2,.cls-3,.cls-4{stroke-linecap:round;stroke-linejoin:round;stroke-width:4.5px;}.cls-2,.cls-4{fill:none;}.cls-2{stroke:#fff;}.cls-3{fill:#fff;}</style></defs><title>3</title><g id="Layer_2" data-name="Layer 2"><g id="Layer_5" data-name="Layer 5"><path class="cls-1" d="M21,16.43H2.25v77.3H65.41a7.1,7.1,0,0,0,7.07-7.07V16.6h-19"/><polyline class="cls-2" points="13.61 44.6 16.62 48.97 26.66 39.62"/><polyline class="cls-2" points="13.61 60.8 16.62 65.17 26.66 55.82"/><polyline class="cls-2" points="13.61 77 16.62 81.36 26.66 72.02"/><line class="cls-2" x1="35.07" y1="48.97" x2="61.76" y2="48.97"/><line class="cls-2" x1="35.07" y1="63.92" x2="61.76" y2="63.92"/><line class="cls-2" x1="35.07" y1="78.87" x2="61.76" y2="78.87"/><path class="cls-3" d="M53.49,17.67A15.42,15.42,0,1,1,38.07,2.25,15.42,15.42,0,0,1,53.49,17.67Z"/><line class="cls-4" x1="38.07" y1="10.94" x2="38.07" y2="24.4"/><line class="cls-4" x1="44.79" y1="17.67" x2="31.35" y2="17.67"/></g></g></svg>