<svg xmlns="http://www.w3.org/2000/svg" viewBox="0 0 104.55 169.24"><defs><style>.cls-1{fill:#fff;}.cls-2{fill:#e7dfdd;}.cls-3{fill:#4f6b88;}.cls-4{fill:#111;}.cls-5{fill:#68264a;}</style></defs><title>4</title><g id="Layer_2" data-name="Layer 2"><g id="Layer_4" data-name="Layer 4"><path class="cls-1" d="M17.13,66.16a4.73,4.73,0,1,1,4.75-4.75A4.73,4.73,0,0,1,17.13,66.16Z"/><path class="cls-2" d="M4.82,61.41A12.32,12.32,0,1,1,17.13,73.76,12.32,12.32,0,0,1,4.82,61.41Zm12.31-7.17a7.18,7.18,0,1,0,7.18,7.17A7.18,7.18,0,0,0,17.13,54.24Z"/><path class="cls-3" d="M42.07,135.05a7.27,7.27,0,0,1-3.25,6v-4.52a4.4,4.4,0,0,0-8.8,0v4.21a7,7,0,0,1-2.74-5.71,7.4,7.4,0,1,1,14.79,0Z"/><path class="cls-3" d="M30.91,56.2A14.55,14.55,0,0,0,26.4,50a43.82,43.82,0,0,1,12.35-5.21l1.46,7.41A36.5,36.5,0,0,0,30.91,56.2Z"/><path class="cls-3" d="M13.35,75.65a41,41,0,0,0,16,51.1,9.78,9.78,0,0,0-4.29,6.18A48.45,48.45,0,0,1,6.79,72,14.42,14.42,0,0,0,13.35,75.65Z"/><path class="cls-2" d="M65.53,89.12l-4.4.89c-.08,0-.15-.08-.19-.15l-1-5.14,4.48-.88Z"/><path class="cls-1" d="M66.19,81l-8.53,1.7A1.51,1.51,0,0,1,56,81.52l-.73-3.74,10.88-2.16.81,4.24a.93.93,0,0,1-.12.73A.91.91,0,0,1,66.19,81Z"/><path class="cls-1" d="M42.45,22.94,39.17,6.34a1.46,1.46,0,0,1,.23-1.12,1.45,1.45,0,0,1,.93-.61L50.94,2.52a2.1,2.1,0,0,1,2.47,1.66l3.17,16L47.31,22l-1-5a1.27,1.27,0,0,0-1.47-1,1.29,1.29,0,0,0-1,1.47l1,5Zm-.08-13L43,12.71a1.21,1.21,0,0,0,1.2,1h.23a1.23,1.23,0,0,0,1-1.47l-.54-2.82a1.27,1.27,0,0,0-1.47-1A1.29,1.29,0,0,0,42.37,9.89Z"/><path class="cls-2" d="M68.81,161.79A1.25,1.25,0,0,0,67.57,163a1.23,1.23,0,0,0,1.24,1.23h6.33a1.22,1.22,0,1,0,0-2.43Zm32.92,5H23.5a.35.35,0,0,1-.38-.35v-2.24l39.44.08a1.24,1.24,0,0,0,0-2.47l-39.44-.08V156a.42.42,0,0,1,.38-.42h7.76a1.21,1.21,0,0,0,1.2-1.24V136.55a1.94,1.94,0,0,1,2-1.93,1.91,1.91,0,0,1,1.93,1.93v17.79a1.25,1.25,0,0,0,1.24,1.24h64.14a.39.39,0,0,1,.35.42v10.42A.35.35,0,0,1,101.73,166.77Z"/><path class="cls-2" d="M87.22,132.54a1.22,1.22,0,0,0,1.23-1.24,1.23,1.23,0,0,0-1.23-1.19H83.13a1.24,1.24,0,0,0-1.2,1.23,1.21,1.21,0,0,0,1.2,1.24h0Zm5.83,11.23H54.65a9.09,9.09,0,0,1-9.11-9.07l0-8.26a.91.91,0,0,1,.69-.23h55.27c.38,0,.62.19.65.08V130l-8.6.08a1.24,1.24,0,0,0,0,2.47h0l8.56-.08v2.32A9.07,9.07,0,0,1,93.05,143.77Z"/><path class="cls-2" d="M67.23,72.88,47.74,76.74a.29.29,0,0,1-.19-.24L37.67,26.68a.34.34,0,0,1,.07-.31l8.49-1.66s.08,0,.12,0a.47.47,0,0,0,.23,0c.08,0,.12-.07.19-.11l15.48-3.05a.31.31,0,0,1,.19.23L72.28,71.6a.56.56,0,0,1,0,.31l-2.93.58a1.18,1.18,0,0,0-1.23-.58A1.05,1.05,0,0,0,67.23,72.88Zm.31-9.69a1.18,1.18,0,0,0-1.43-.93,1.2,1.2,0,0,0-1,1.47,1.24,1.24,0,0,0,1.2,1,.61.61,0,0,0,.23,0A1.2,1.2,0,0,0,67.54,63.19Zm-.43,3.9a1.16,1.16,0,0,0-1,1.42,1.23,1.23,0,0,0,1.19,1,.45.45,0,0,0,.23,0,1.21,1.21,0,0,0,1-1.47A1.17,1.17,0,0,0,67.11,67.09ZM63.14,54a1.23,1.23,0,0,0,1.23,1h.23a1.3,1.3,0,0,0,1-1.47,1.28,1.28,0,0,0-1.47-1A1.25,1.25,0,0,0,63.14,54Zm.5-3.86a1.22,1.22,0,1,0-.5-2.39,1.23,1.23,0,0,0,.23,2.43A.73.73,0,0,0,63.64,50.18Zm1.43,7.26a1.23,1.23,0,0,0-.93,1.47,1.21,1.21,0,0,0,1.2,1,.49.49,0,0,0,.23,0,1.17,1.17,0,0,0,1-1.43A1.24,1.24,0,0,0,65.07,57.44Z"/><path class="cls-4" d="M88.45,131.3a1.22,1.22,0,0,1-1.23,1.24l-4,0h0a1.21,1.21,0,0,1-1.2-1.24,1.24,1.24,0,0,1,1.2-1.23h4.09A1.23,1.23,0,0,1,88.45,131.3Z"/><path class="cls-4" d="M75.14,161.83a1.22,1.22,0,1,1,0,2.43H68.81A1.23,1.23,0,0,1,67.57,163a1.25,1.25,0,0,1,1.24-1.24Z"/><path class="cls-5" d="M65.14,63.73a1.2,1.2,0,0,1,1-1.47,1.18,1.18,0,0,1,1.43.93,1.2,1.2,0,0,1-1,1.47.61.61,0,0,1-.23,0A1.24,1.24,0,0,1,65.14,63.73Z"/><path class="cls-5" d="M66.53,58.4a1.17,1.17,0,0,1-1,1.43.49.49,0,0,1-.23,0,1.21,1.21,0,0,1-1.2-1,1.22,1.22,0,1,1,2.39-.51Z"/><path class="cls-5" d="M66.15,68.51a1.22,1.22,0,0,1,2.39-.5,1.21,1.21,0,0,1-1,1.47.45.45,0,0,1-.23,0A1.23,1.23,0,0,1,66.15,68.51Z"/><path class="cls-5" d="M63.14,54a1.25,1.25,0,0,1,1-1.43,1.28,1.28,0,0,1,1.47,1,1.3,1.3,0,0,1-1,1.47h-.23A1.23,1.23,0,0,1,63.14,54Z"/><path class="cls-5" d="M64.6,48.76a1.22,1.22,0,0,1-1,1.42.73.73,0,0,1-.27,0,1.23,1.23,0,0,1-.23-2.43A1.22,1.22,0,0,1,64.6,48.76Z"/><path class="cls-4" d="M43,12.71l-.58-2.82a1.29,1.29,0,0,1,1-1.46,1.27,1.27,0,0,1,1.47,1l.54,2.82a1.23,1.23,0,0,1-1,1.47h-.23A1.21,1.21,0,0,1,43,12.71Z"/><path class="cls-4" d="M12.43,61.41a4.73,4.73,0,1,0,4.7-4.7A4.73,4.73,0,0,0,12.43,61.41Zm-2.47,0a7.18,7.18,0,1,1,7.17,7.18A7.18,7.18,0,0,1,10,61.41Z"/><path class="cls-4" d="M38.75,44.78A43.82,43.82,0,0,0,26.4,50a14.55,14.55,0,0,1,4.51,6.21,36.5,36.5,0,0,1,9.3-4ZM17.13,49.1A12.33,12.33,0,1,0,29.45,61.41,12.32,12.32,0,0,0,17.13,49.1ZM10,91.9a41,41,0,0,1,3.35-16.25A14.42,14.42,0,0,1,6.79,72a48.45,48.45,0,0,0,18.29,61,9.78,9.78,0,0,1,4.29-6.18A41.21,41.21,0,0,1,10,91.9Zm91.73,63.68H37.59a1.25,1.25,0,0,1-1.24-1.24V136.55a1.91,1.91,0,0,0-1.93-1.93,1.94,1.94,0,0,0-2,1.93v17.79a1.21,1.21,0,0,1-1.2,1.24H23.5a.42.42,0,0,0-.38.42v5.71l39.44.08a1.24,1.24,0,0,1,0,2.47l-39.44-.08v2.24a.35.35,0,0,0,.38.35h78.23a.35.35,0,0,0,.35-.35V156A.39.39,0,0,0,101.73,155.58ZM61.13,90l4.4-.89-1.12-5.28-4.48.88,1,5.14C61,89.93,61.05,90,61.13,90Zm-3.47-7.33L66.19,81a.91.91,0,0,0,.61-.39.93.93,0,0,0,.12-.73l-.81-4.24L55.23,77.78,56,81.52A1.51,1.51,0,0,0,57.66,82.68Zm-12.12,52a9.09,9.09,0,0,0,9.11,9.07h38.4a9.07,9.07,0,0,0,9.06-9v-2.32l-8.56.08h0a1.24,1.24,0,0,1,0-2.47l8.6-.08v-3.66c0,.11-.27-.08-.65-.08H46.19a.91.91,0,0,0-.69.23ZM39.17,6.34l3.28,16.6,2.43-.47-1-5a1.29,1.29,0,0,1,1-1.47,1.27,1.27,0,0,1,1.47,1l1,5,9.27-1.81-3.17-16a2.1,2.1,0,0,0-2.47-1.66L40.33,4.61a1.45,1.45,0,0,0-.93.61A1.46,1.46,0,0,0,39.17,6.34Zm-1.5,20.34L47.55,76.5a.29.29,0,0,0,.19.24l19.49-3.86a1.05,1.05,0,0,1,.85-1,1.18,1.18,0,0,1,1.23.58l2.93-.58a.56.56,0,0,0,0-.31L62.44,21.78a.31.31,0,0,0-.19-.23L46.77,24.6c-.07,0-.11.11-.19.11a.47.47,0,0,1-.23,0s-.08,0-.12,0l-8.49,1.66A.34.34,0,0,0,37.67,26.68ZM43.8,138.56A9.74,9.74,0,0,1,39,143.89s-.12,0-.16,0v9.19h62.91a2.88,2.88,0,0,1,2.82,2.89v10.42a2.84,2.84,0,0,1-2.82,2.82H23.5a2.8,2.8,0,0,1-2.81-2.82V156a2.84,2.84,0,0,1,2.81-2.89H30v-9.53a9.33,9.33,0,0,1-5.09-7.76A51.34,51.34,0,0,1,0,91.9,50.62,50.62,0,0,1,5,69.83a14.68,14.68,0,0,1,19.1-21.34,48.68,48.68,0,0,1,14.16-6.14l-3-15.17a2.88,2.88,0,0,1,.39-2.12A2.47,2.47,0,0,1,37.28,24l2.78-.54L36.74,6.81a3.94,3.94,0,0,1,.62-2.94,3.81,3.81,0,0,1,2.51-1.66L50.44.09a4.6,4.6,0,0,1,5.4,3.59l3.17,16,2.78-.54a2.64,2.64,0,0,1,3,2.2L74.71,71.1a2.85,2.85,0,0,1-.42,2.12,2.38,2.38,0,0,1-1.58,1.08l-4.21.85.85,4.25a3.32,3.32,0,0,1-.5,2.54,3.37,3.37,0,0,1-2,1.39l1.08,5.45a2.26,2.26,0,0,1-.38,1.77,2.31,2.31,0,0,1-1.47,1l-4.4.88a2.46,2.46,0,0,1-.54,0A2.39,2.39,0,0,1,59.66,92a2.54,2.54,0,0,1-1.12-1.66l-1-5.21h-.11A4,4,0,0,1,53.53,82l-.74-3.74-4.59.93a2.37,2.37,0,0,1-.46,0A2.74,2.74,0,0,1,45.11,77l-4.4-22.39a34.73,34.73,0,0,0-9.06,4.06,16.88,16.88,0,0,1,.27,2.77A14.8,14.8,0,0,1,17.13,76.19c-.46,0-.88-.07-1.31-.11A38.28,38.28,0,0,0,12.47,91.9a38.78,38.78,0,0,0,19.6,33.69,9.59,9.59,0,0,1,2.59-.38A9.86,9.86,0,0,1,43.11,130v-3.74c0-1.43,1.35-2.51,3.08-2.51h55.27c1.74,0,3.09,1.08,3.09,2.51v8.45a11.53,11.53,0,0,1-11.5,11.5H54.65A11.55,11.55,0,0,1,43.8,138.56Zm-5,2.51a7.27,7.27,0,0,0,3.25-6,7.4,7.4,0,1,0-14.79,0A7,7,0,0,0,30,140.76v-4.21a4.4,4.4,0,0,1,8.8,0Z"/></g></g></svg>