<svg xmlns="http://www.w3.org/2000/svg" viewBox="0 0 131.41 225.44"><defs><style>.cls-1{fill:#4d9df4;}</style></defs><title>1</title><g id="Layer_2" data-name="Layer 2"><g id="Layer_7" data-name="Layer 7"><path class="cls-1" d="M114.43,225.44H17c-9.36,0-17-7.34-17-16.36V16.37C0,7.34,7.62,0,17,0h97.45c9.36,0,17,7.34,17,16.37V209.08C131.41,218.1,123.79,225.44,114.43,225.44ZM17,9.21c-4.29,0-7.77,3.21-7.77,7.16V209.08c0,3.94,3.48,7.15,7.77,7.15h97.45c4.28,0,7.77-3.21,7.77-7.15V16.37c0-4-3.49-7.16-7.77-7.16Z"/><path class="cls-1" d="M40.13,64.68A21.07,21.07,0,1,1,61.19,43.61,21.09,21.09,0,0,1,40.13,64.68Zm0-32.93A11.86,11.86,0,1,0,52,43.61,11.87,11.87,0,0,0,40.13,31.75Z"/><path class="cls-1" d="M92.36,64.68a21.07,21.07,0,1,1,0-42.13,4.6,4.6,0,0,1,0,9.2,11.86,11.86,0,1,0,11.86,11.86,4.6,4.6,0,0,1,9.2,0A21.09,21.09,0,0,1,92.36,64.68Z"/><path class="cls-1" d="M40.13,110.65a4.61,4.61,0,1,1,0-9.21A11.86,11.86,0,1,0,28.27,89.58a4.61,4.61,0,0,1-9.21,0,21.07,21.07,0,1,1,21.07,21.07Z"/><path class="cls-1" d="M92.36,110.65a21.07,21.07,0,1,1,21.06-21.07A21.09,21.09,0,0,1,92.36,110.65Zm0-32.93a11.86,11.86,0,1,0,11.86,11.86A11.87,11.87,0,0,0,92.36,77.72Z"/><path class="cls-1" d="M40.13,156.28a21.07,21.07,0,1,1,21.06-21.07A21.09,21.09,0,0,1,40.13,156.28Zm0-32.93A11.86,11.86,0,1,0,52,135.21,11.87,11.87,0,0,0,40.13,123.35Z"/><path class="cls-1" d="M92.36,156.28a21.07,21.07,0,1,1,21.06-21.07,4.6,4.6,0,1,1-9.2,0,11.86,11.86,0,1,0-11.86,11.86,4.61,4.61,0,0,1,0,9.21Z"/><path class="cls-1" d="M40.13,202.89a4.6,4.6,0,1,1,0-9.2,11.86,11.86,0,1,0-11.86-11.86,4.61,4.61,0,0,1-9.21,0,21.07,21.07,0,1,1,21.07,21.06Z"/><path class="cls-1" d="M92.36,202.89a21.07,21.07,0,1,1,21.06-21.06A21.08,21.08,0,0,1,92.36,202.89Zm0-32.92a11.86,11.86,0,1,0,11.86,11.86A11.87,11.87,0,0,0,92.36,170Z"/></g></g></svg>