<svg xmlns="http://www.w3.org/2000/svg" viewBox="0 0 235.86 236"><defs><style>.cls-1{fill:none;stroke:#4d9df4;stroke-miterlimit:10;stroke-width:10px;}</style></defs><title>2</title><g id="Layer_2" data-name="Layer 2"><g id="Layer_7" data-name="Layer 7"><g id="iGgWC3"><path class="cls-1" d="M192.05,27.75a2.81,2.81,0,0,0-1.57-.14c-9,0-17.91,0-26.86,0-1.5,0-2-.43-2-1.94.08-6.27.07-12.54,0-18.81,0-1.41.39-1.88,1.84-1.88q32.76.06,65.51,0c1.48,0,1.83.52,1.82,1.9q0,32.84,0,65.68c0,1.53-.48,1.94-2,1.92q-9.26-.1-18.5,0c-1.44,0-1.87-.44-1.87-1.87.06-9.55,0-19.1,0-28.67-.75,0-1.07.53-1.47.93-3.82,3.81-7.65,7.62-11.45,11.45-4.92,4.94-9.79,9.93-14.72,14.86C176.47,75.65,172,80,167.51,84.48c-2.32,2.31-2.31,2.34-.43,5a92.7,92.7,0,0,1,10.31,18.68A87.66,87.66,0,0,1,183,129.29a75.12,75.12,0,0,1,1,14.06A116.14,116.14,0,0,1,181.76,161a85.2,85.2,0,0,1-7.82,21.83,87.6,87.6,0,0,1-10.77,16.25,95.9,95.9,0,0,1-11.6,11.64,87.1,87.1,0,0,1-13.26,9.16,80.76,80.76,0,0,1-14.16,6.4,87.38,87.38,0,0,1-17,4.13c-7.14.89-14.29.62-21.42.41a57.66,57.66,0,0,1-14.59-2.5,112,112,0,0,1-13.93-5A91.42,91.42,0,0,1,24.5,197.85a81.86,81.86,0,0,1-10-15.69,89,89,0,0,1-4.93-11.73,104.5,104.5,0,0,1-3.44-13.9c-1.21-6.8-1.19-13.62-1-20.45A73.37,73.37,0,0,1,6,127.41a87.65,87.65,0,0,1,2.06-9.71,78,78,0,0,1,2.8-8.4c1.12-2.81,2.39-5.53,3.71-8.24a81.08,81.08,0,0,1,7.86-12.72A89,89,0,0,1,35,74.61,90.11,90.11,0,0,1,55.18,61.1a84.24,84.24,0,0,1,20.29-7A102,102,0,0,1,88.1,52.43a90.74,90.74,0,0,1,23.21,1.45,86.89,86.89,0,0,1,17.85,5.33c3.08,1.27,6,2.84,8.91,4.39a64.67,64.67,0,0,1,9.9,6.45,1.44,1.44,0,0,0,2.26-.18q20.66-20.72,41.35-41.39C191.77,28.28,192.07,28.13,192.05,27.75ZM161.57,140.31c.3-1.78-.6-4.9-.94-8a52.4,52.4,0,0,0-3.17-12.92c-2.63-6.92-5.8-13.56-10.8-19.09A118,118,0,0,0,135.45,89,60.58,60.58,0,0,0,111,76.84,68.93,68.93,0,0,0,99.42,75a64.85,64.85,0,0,0-13.93.39,61.06,61.06,0,0,0-14.25,3.41A67.49,67.49,0,0,0,50.68,91,66.42,66.42,0,0,0,29.34,125.6a63.12,63.12,0,0,0-1.72,10.93,33.37,33.37,0,0,0-.26,5.63c.38,3.58.3,7.18,1,10.76a94.69,94.69,0,0,0,2.41,9.59,62.2,62.2,0,0,0,7.68,16.17,66.2,66.2,0,0,0,18.11,18.43,64.59,64.59,0,0,0,20.19,9.33,63.66,63.66,0,0,0,20.39,2.22,66.83,66.83,0,0,0,30.71-8.89,66.36,66.36,0,0,0,16.12-13,67.61,67.61,0,0,0,13.61-23.09C160.06,156.57,161.12,149.23,161.57,140.31Z"/></g></g></g></svg>