<svg xmlns="http://www.w3.org/2000/svg" viewBox="0 0 259.29 225"><defs><style>.cls-1{fill:#4d9df4;}</style></defs><title>4</title><g id="Layer_2" data-name="Layer 2"><g id="Layer_7" data-name="Layer 7"><path class="cls-1" d="M193.08,24.48C167.22,24.48,153,38.86,153,65c0,6.77,2.26,11.84,4.45,16.75,2.26,5.09,4.4,9.89,4.4,17,0,4.09-1.67,6.94-3.68,10.06a5.49,5.49,0,0,0-.58,0c-.07,0-6.91,1-11-2.52-2.24-1.91-3.32-4.89-3.32-9.11V80.37A4.19,4.19,0,0,0,139,76.18a4.26,4.26,0,0,0-4.24,4.19V97.12c0,6.75,2.12,12,6.28,15.54,4,3.41,9,4.41,12.67,4.63a15.44,15.44,0,0,0-.75,4.56,13.86,13.86,0,0,0,.11,1.6,21,21,0,0,0-12,4.56c-4.17,3.55-6.28,8.78-6.28,15.53v77.23a4.24,4.24,0,0,0,8.47,0V143.54c0-4.19,1.07-7.16,3.28-9.07,3.08-2.66,7.73-2.76,9.88-2.65.74,1.15,1.53,2.24,2.29,3.29,2.48,3.41,4.62,6.36,4.62,9.87a11.46,11.46,0,0,1-.49,3,.41.41,0,0,0-.05.09s0,.06,0,.08A43.85,43.85,0,0,1,159,156.3c-2.84,5.25-6.06,11.2-6.06,18.32,0,26.68,20.73,44.6,40.1,44.6,34.65,0,66.21-46.4,66.21-97.37S227.73,24.48,193.08,24.48Zm0,186.28c-15.28,0-31.64-14.53-31.64-36.14,0-5,2.45-9.5,5-14.29a52.85,52.85,0,0,0,4.36-9.5,17.35,17.35,0,0,1,13.85-10.34,4.23,4.23,0,1,0-1-8.4,25.7,25.7,0,0,0-13.42,5.81,38.69,38.69,0,0,0-4.73-7.76c-2.2-3-4.1-5.66-4.1-8.29s1.47-4.83,3.31-7.68a33,33,0,0,0,4.79-9.77,20.91,20.91,0,0,0,8.71,3.69,4.37,4.37,0,0,0,.72.06,4.23,4.23,0,0,0,.71-8.4,12.63,12.63,0,0,1-9.82-8.34,3.76,3.76,0,0,0-.36-.61,57.27,57.27,0,0,0-4.34-12.53c-2-4.48-3.72-8.34-3.72-13.3,0-21.25,10.64-32,31.64-32,27.25,0,57.75,38,57.75,88.91S220.33,210.76,193.08,210.76Z"/><path class="cls-1" d="M227.15,69.94a4.24,4.24,0,0,0-7.57,3.8,109.59,109.59,0,0,1,0,96.18,4.23,4.23,0,0,0,1.89,5.68,4.16,4.16,0,0,0,1.89.45,4.21,4.21,0,0,0,3.79-2.34,118.12,118.12,0,0,0,0-103.77Z"/><path class="cls-1" d="M37.81,43.58a4.21,4.21,0,0,0-5.68,1.89,118.13,118.13,0,0,0,0,103.75,4.24,4.24,0,1,0,7.58-3.78,109.72,109.72,0,0,1,0-96.18A4.22,4.22,0,0,0,37.81,43.58Z"/><path class="cls-1" d="M121,51.7a4.28,4.28,0,0,0-4.24,4.19V72.64c0,4.27-1.11,7.4-3.3,9.27-3.82,3.29-10.08,2.38-10.17,2.36a4,4,0,0,0-.6,0c-2-3.12-3.67-6-3.67-10.06,0-7.11,2.14-11.92,4.4-17,2.19-4.91,4.45-10,4.45-16.75C107.86,14.38,93.62,0,67.75,0,35.77,0,0,41.64,0,97.37s35.77,97.38,67.75,97.38c21.74,0,40.11-20.43,40.11-44.62,0-7.11-3.22-13.06-6.06-18.31-2.2-4.06-4.27-7.9-4.27-11.32s2.14-6.46,4.61-9.88c.77-1.05,1.55-2.14,2.29-3.29,2-.11,6.13,0,9,2.44,2.21,1.88,3.33,5,3.33,9.29v77.23a4.24,4.24,0,0,0,8.47,0V119.06c0-6.89-2.13-12.19-6.32-15.75A20,20,0,0,0,107.75,99a13.86,13.86,0,0,0,.11-1.6,15.65,15.65,0,0,0-.76-4.59,20.22,20.22,0,0,0,11.8-4.39c4.19-3.56,6.32-8.86,6.32-15.75V55.89A4.19,4.19,0,0,0,121,51.7Zm-25.69,54a38.44,38.44,0,0,0-4.86,8.06A25.74,25.74,0,0,0,77.15,108a4.2,4.2,0,0,0-4.71,3.69,4.25,4.25,0,0,0,3.7,4.72A17.35,17.35,0,0,1,90.2,127.18c0,.12.14.2.19.32a61.28,61.28,0,0,0,4,8.35c2.59,4.78,5,9.31,5,14.28,0,21.63-16.36,36.15-31.64,36.15-27.41,0-59.28-38.83-59.28-88.91S40.34,8.47,67.75,8.47c21,0,31.64,10.77,31.64,32,0,5-1.71,8.83-3.71,13.3a55.56,55.56,0,0,0-4.46,13.13c-.07.15-.18.25-.24.41a12.68,12.68,0,0,1-9.82,8.35,4.23,4.23,0,0,0,.71,8.4,4.56,4.56,0,0,0,.72-.06,21.05,21.05,0,0,0,8.8-3.75,34.16,34.16,0,0,0,4.7,9.43c1.84,2.84,3.3,5.08,3.3,7.67S97.49,102.62,95.3,105.65Z"/></g></g></svg>