<svg xmlns="http://www.w3.org/2000/svg" viewBox="0 0 137.23 209"><defs><style>.cls-1{fill:#4d9df4;stroke:#4d9df4;stroke-miterlimit:10;stroke-width:5px;}</style></defs><title>5</title><g id="Layer_2" data-name="Layer 2"><g id="Layer_7" data-name="Layer 7"><path class="cls-1" d="M68.61,206.5A66.07,66.07,0,0,1,2.5,140.38V125.25A66.15,66.15,0,0,1,44,63.88l1.49,3.71a62.14,62.14,0,0,0-39,57.66v15.13a62.11,62.11,0,0,0,106,43.92,61.71,61.71,0,0,0,18.19-43.92V125.25A62.15,62.15,0,0,0,92,67.7L93.53,64a66.14,66.14,0,0,1,41.2,61.25v15.13A66.13,66.13,0,0,1,68.61,206.5Z"/><path class="cls-1" d="M41,132.19a19.19,19.19,0,0,1-13.6-5.63l2.83-2.82a15.26,15.26,0,0,0,21.54,0l2.83,2.82A19.19,19.19,0,0,1,41,132.19Z"/><path class="cls-1" d="M94.63,132.19A19.15,19.15,0,0,1,81,126.56l2.82-2.82a15.26,15.26,0,0,0,21.54,0l2.83,2.82A19.17,19.17,0,0,1,94.63,132.19Z"/><path class="cls-1" d="M68.29,177.74a19.11,19.11,0,0,1-13.6-5.63l2.83-2.83a15.23,15.23,0,0,0,21.54,0l2.82,2.83A19.1,19.1,0,0,1,68.29,177.74Z"/><path class="cls-1" d="M49.87,51.17,23.08,44.1A21.14,21.14,0,0,1,33.87,3.22l26.79,7.07ZM28.48,6.52A17.15,17.15,0,0,0,24.1,40.24l22.92,6,8.75-33.14L32.85,7.09A17.37,17.37,0,0,0,28.48,6.52Z"/><path class="cls-1" d="M86.9,51.3,75.82,10.5l26.74-7.26A21.14,21.14,0,0,1,113.63,44Zm-6.17-38,9,33.08,22.87-6.21a17.14,17.14,0,0,0,12-21,17.16,17.16,0,0,0-21-12Z"/><path class="cls-1" d="M73.73,76.56a3,3,0,0,1,3-3h0a3,3,0,0,1,3,3h0a3,3,0,0,1-3,3h0A3,3,0,0,1,73.73,76.56Zm0-10a3,3,0,0,1,3-3h0a3,3,0,0,1,3,3h0a3,3,0,0,1-3,3h0A3,3,0,0,1,73.73,66.56Zm0-10a3,3,0,0,1,3-3h0a3,3,0,0,1,3,3h0a3,3,0,0,1-3,3h0A3,3,0,0,1,73.73,56.56Zm0-10a3,3,0,0,1,3-3h0a3,3,0,0,1,3,3h0a3,3,0,0,1-3,3h0A3,3,0,0,1,73.73,46.56Z"/><path class="cls-1" d="M57.69,96.56a3,3,0,0,1,3-3h0a3,3,0,0,1,3,3h0a3,3,0,0,1-3,3h0A3,3,0,0,1,57.69,96.56Zm0-10a3,3,0,0,1,3-3h0a3,3,0,0,1,3,3h0a3,3,0,0,1-3,3h0A3,3,0,0,1,57.69,86.56Zm0-10a3,3,0,0,1,3-3h0a3,3,0,0,1,3,3h0a3,3,0,0,1-3,3h0A3,3,0,0,1,57.69,76.56Zm0-10a3,3,0,0,1,3-3h0a3,3,0,0,1,3,3h0a3,3,0,0,1-3,3h0A3,3,0,0,1,57.69,66.56Zm0-10a3,3,0,0,1,3-3h0a3,3,0,0,1,3,3h0a3,3,0,0,1-3,3h0A3,3,0,0,1,57.69,56.56Zm0-10a3,3,0,0,1,3-3h0a3,3,0,0,1,3,3h0a3,3,0,0,1-3,3h0A3,3,0,0,1,57.69,46.56Z"/></g></g></svg>