<svg xmlns="http://www.w3.org/2000/svg" viewBox="0 0 175.54 170.95"><defs><style>.cls-1{fill:#4d9df4;}</style></defs><title>6</title><g id="Layer_2" data-name="Layer 2"><g id="Layer_7" data-name="Layer 7"><path class="cls-1" d="M59.4,74.19a22.54,22.54,0,0,0,7.66-1.36,3.25,3.25,0,1,0-2.23-6.1,15.74,15.74,0,0,1-11.63-.32,15.56,15.56,0,0,1-5.3-3.74,3.25,3.25,0,0,0-4.77,4.41,22,22,0,0,0,7.5,5.3A22.29,22.29,0,0,0,59.4,74.19Z"/><path class="cls-1" d="M69,100.19A3.15,3.15,0,0,0,65.67,97a21.26,21.26,0,0,0-20.56,19A3.25,3.25,0,0,0,48,119.63l.34,0a3.26,3.26,0,0,0,3.23-2.91,14.76,14.76,0,0,1,9-12.1,15,15,0,0,1,5.24-1.12A3.24,3.24,0,0,0,69,100.19Z"/><path class="cls-1" d="M127.88,62.67a15.75,15.75,0,0,1-16.94,4.06,3.25,3.25,0,1,0-2.23,6.1,22.48,22.48,0,0,0,7.65,1.36,22.17,22.17,0,0,0,8.78-1.82,22,22,0,0,0,7.5-5.29,3.24,3.24,0,1,0-4.76-4.41Z"/><path class="cls-1" d="M117.65,98.64A21.42,21.42,0,0,0,110.09,97a3.32,3.32,0,0,0-3.33,3.16,3.24,3.24,0,0,0,3.16,3.33,15.1,15.1,0,0,1,5.25,1.12,14.79,14.79,0,0,1,9,12.1,3.24,3.24,0,0,0,3.22,2.91l.35,0a3.24,3.24,0,0,0,2.88-3.57A21.27,21.27,0,0,0,117.65,98.64Z"/><path class="cls-1" d="M175.54,87.79a24.46,24.46,0,0,0-11.95-21,22,22,0,0,0,4-12.68A22.25,22.25,0,0,0,147,32v-.45A22.22,22.22,0,0,0,119.39,10,18.28,18.28,0,0,0,103.18,0,19,19,0,0,0,87.77,8.09,19,19,0,0,0,72.36,0,18.3,18.3,0,0,0,56.15,10,22.22,22.22,0,0,0,28.51,31.51c0,.15,0,.3,0,.45A22.24,22.24,0,0,0,12,66.8a24.42,24.42,0,0,0,3,43.51,21.24,21.24,0,0,0,13.9,26.92,20.27,20.27,0,0,0-.14,2.34A20.43,20.43,0,0,0,55,159.19a18.65,18.65,0,0,0,32.74,3.61,18.65,18.65,0,0,0,32.75-3.61,20.43,20.43,0,0,0,26.29-19.62,20.27,20.27,0,0,0-.13-2.34,21.25,21.25,0,0,0,13.89-26.92A24.31,24.31,0,0,0,175.54,87.79ZM72.36,164.45a12.08,12.08,0,0,1-12-10.14c0-.06,0-.09-.05-.14,0-.91,0-3.66,0-4.76l0-1.29a3.25,3.25,0,1,0-6.49,0l0,1.17c0,1.48,0,2.59,0,3.46a14.25,14.25,0,0,1-4.62.8,14,14,0,0,1-14-14,13.36,13.36,0,0,1,.1-1.41,21.29,21.29,0,0,0,9.74-2.5A3.25,3.25,0,0,0,42,129.94a14.68,14.68,0,0,1-8.83,1.61h0a14.77,14.77,0,0,1-10.92-21.65.08.08,0,0,0,0,0,14.8,14.8,0,0,1,13-7.68,3.25,3.25,0,0,0,0-6.5A21.28,21.28,0,0,0,18,104.46a17.84,17.84,0,0,1-1.34-32.74,22.1,22.1,0,0,0,13.56,4.62,3.25,3.25,0,1,0,0-6.49,15.67,15.67,0,0,1-10.7-4.22l-.06-.08a15.57,15.57,0,0,1-4.93-11.43A15.75,15.75,0,0,1,30.22,38.39c.53,0,1.06,0,1.59.08A15.64,15.64,0,0,1,41.35,43,3.25,3.25,0,0,0,46,38.46a22.12,22.12,0,0,0-10.86-6c0-.34-.1-.65-.1-1A15.57,15.57,0,0,1,54.3,16.22a18.82,18.82,0,0,0-.14,2,17.62,17.62,0,0,0,.12,2.05,3.24,3.24,0,0,0,3.22,2.88h.37a3.25,3.25,0,0,0,2.86-3.59,12,12,0,0,1-.08-1.33A11.48,11.48,0,0,1,61.11,15a.43.43,0,0,0,0-.07A11.73,11.73,0,0,1,72.36,6.5c6.59,0,12.17,5.35,12.17,11.7V49.26a21.32,21.32,0,0,0-3.78-2.64,21,21,0,0,0-13-2.31,3.24,3.24,0,1,0,1,6.42,14.67,14.67,0,0,1,15.85,9.54v50.41a14.67,14.67,0,0,1-15.85,9.54,3.25,3.25,0,0,0-1,6.43,21.23,21.23,0,0,0,13-2.31,21.44,21.44,0,0,0,3.79-2.65V152.3A12.17,12.17,0,0,1,72.36,164.45Zm85.23-60a21.26,21.26,0,0,0-17.2-8.79,3.25,3.25,0,0,0,0,6.5,14.78,14.78,0,0,1,13,7.68s0,0,0,0a14.6,14.6,0,0,1,1.79,7,14.8,14.8,0,0,1-12.71,14.6h0a14.69,14.69,0,0,1-8.84-1.61,3.25,3.25,0,1,0-3.07,5.72,21.29,21.29,0,0,0,9.74,2.5,13.36,13.36,0,0,1,.1,1.41,14,14,0,0,1-14,14,14.31,14.31,0,0,1-4.63-.8c0-.87,0-2,0-3.47l0-1.16a3.25,3.25,0,0,0-6.5,0l0,1.29c0,1.1.08,3.85,0,4.76,0,.05,0,.08-.06.14a12.15,12.15,0,0,1-24.14-2V121.69a21,21,0,0,0,3.78,2.65,21.23,21.23,0,0,0,13,2.31,3.25,3.25,0,1,0-1-6.43A14.65,14.65,0,0,1,91,110.68V60.27a14.67,14.67,0,0,1,15.84-9.54,3.24,3.24,0,1,0,1-6.42,21,21,0,0,0-13,2.3A21.37,21.37,0,0,0,91,49.26V18.2c0-6.35,5.57-11.7,12.16-11.7a11.72,11.72,0,0,1,11.21,8.39.43.43,0,0,0,0,.07,11.48,11.48,0,0,1,.46,3.24,12,12,0,0,1-.07,1.33,3.24,3.24,0,0,0,2.86,3.59H118a3.25,3.25,0,0,0,3.23-2.88,17.62,17.62,0,0,0,.12-2.05,18.82,18.82,0,0,0-.14-2,15.57,15.57,0,0,1,19.29,15.29c0,.35-.08.66-.1,1a22.12,22.12,0,0,0-10.86,6A3.25,3.25,0,0,0,134.19,43a15.66,15.66,0,0,1,9.55-4.56c.52,0,1-.08,1.59-.08a15.75,15.75,0,0,1,15.73,15.73,15.59,15.59,0,0,1-4.92,11.43s0,.06-.07.08a15.67,15.67,0,0,1-10.7,4.22,3.25,3.25,0,1,0,0,6.49,22.15,22.15,0,0,0,13.57-4.62,17.84,17.84,0,0,1-1.35,32.74Z"/></g></g></svg>