<svg xmlns="http://www.w3.org/2000/svg" viewBox="0 0 179.16 177"><defs><style>.cls-1{fill:#4d9df4;}</style></defs><title>7</title><g id="Layer_2" data-name="Layer 2"><g id="Layer_7" data-name="Layer 7"><path class="cls-1" d="M127.68,12c-13.44,0-22.1,4.72-29.06,8.51-4.86,2.66-8.7,4.76-13,4.76C78,25.23,71.72,8.38,70.14,2.48A3.35,3.35,0,0,0,63.67,4.2c.77,2.84,7.82,27.72,22,27.72,6,0,10.92-2.71,16.17-5.57,6.61-3.61,14.11-7.7,25.85-7.7,21.58,0,44.8,22,44.8,70.35,0,55.08-41.37,76.65-67.44,77.31-14.19.36-25.52-6-35.47-11.6-8.15-4.6-15.85-8.94-24-8.94-23.18,0-23.18,21-23.18,27.89a3.34,3.34,0,0,0,6.68,0c0-15.06,4.78-21.21,16.5-21.21,6.39,0,13,3.75,20.72,8.08,10.71,6,22.83,12.91,38.92,12.47,35.85-.91,74-30.65,74-84C179.16,36.07,152.48,12,127.68,12Z"/><path class="cls-1" d="M137.44,134.23a3.35,3.35,0,0,0,2.11,6,3.33,3.33,0,0,0,2.1-.74c12.69-10.3,20-25,21.63-43.76C165.4,71.91,158.19,55,151.76,45a3.34,3.34,0,1,0-5.62,3.61c5.86,9.12,12.43,24.59,10.48,46.48C155.13,112,148.67,125.13,137.44,134.23Z"/><path class="cls-1" d="M79.93,116.89a3.82,3.82,0,0,0,.47-.31,13,13,0,0,1,17.09-1.07,3.34,3.34,0,1,0,4.08-5.3,19.52,19.52,0,0,0-15.93-3.66c.07-.17.15-.31.22-.49a59.47,59.47,0,0,0,1.9-32.88,20.25,20.25,0,0,0,14.17,0,3.34,3.34,0,1,0-2.3-6.28,13.86,13.86,0,0,1-10.25-.28,13.72,13.72,0,0,1-4.68-3.3c-.06-.06-.15-.09-.21-.15a35.9,35.9,0,0,0-8.65-12.28A91.27,91.27,0,0,1,48,3.77,3.34,3.34,0,0,0,41.4,4.92c.21,1.18,5.35,29.27,30,51,10.57,9.31,14.31,31.2,8.18,47.79-2.57,6.94-9.2,18.63-24.75,18.85C20,123.1,0,141.71,0,173.66a3.35,3.35,0,0,0,6.69,0c0-38,30.22-44.12,48.24-44.38A30.93,30.93,0,0,0,79.93,116.89Z"/></g></g></svg>