<svg xmlns="http://www.w3.org/2000/svg" viewBox="0 0 184.66 206.74"><defs><style>.cls-1,.cls-2,.cls-3{fill:#4d9df4;}.cls-1,.cls-2{stroke:#4d9df4;stroke-miterlimit:10;}.cls-1{stroke-width:6px;}.cls-2{stroke-width:4px;}</style></defs><title>8</title><g id="Layer_2" data-name="Layer 2"><g id="Layer_7" data-name="Layer 7"><polygon class="cls-1" points="181.66 127.14 160.46 127.14 160.46 123.14 177.66 123.14 177.66 60.51 172.45 60.51 172.45 56.51 181.66 56.51 181.66 127.14"/><polygon class="cls-2" points="18.14 127.14 2 127.14 2 56.51 56.51 56.51 56.51 2 127.14 2 127.14 55.02 123.14 55.02 123.14 6 60.51 6 60.51 60.51 6 60.51 6 123.14 18.14 123.14 18.14 127.14"/><path class="cls-2" d="M89.44,196.17a63,63,0,0,1-34.63-10.39A63.06,63.06,0,0,1,34.15,163,78.25,78.25,0,0,1,25,129.5a67.31,67.31,0,0,1,6.7-32.74A57.94,57.94,0,0,1,49.92,75.29c8.4-6,18.52-10,30.07-11.78,51.27-8,65-19.07,78.26-29.79l2.62-2.12.6,3.32a322.49,322.49,0,0,1,4.23,51.37c0,16.42-1.43,31.22-4.24,44-3.55,16.11-9.34,29.07-17.2,38.5A77,77,0,0,1,115,191,66,66,0,0,1,89.44,196.17ZM158.09,39a99.37,99.37,0,0,1-23,14.25c-13.34,5.94-31.16,10.59-54.48,14.23-10.93,1.7-20.47,5.43-28.36,11.09a54,54,0,0,0-17,20,63.48,63.48,0,0,0-6.29,30.8,74.37,74.37,0,0,0,8.73,31.77,58.35,58.35,0,0,0,45.77,30.75,61.44,61.44,0,0,0,30-4.57,73,73,0,0,0,27.78-21.06c7.45-8.94,12.95-21.32,16.36-36.8,2.75-12.5,4.15-27,4.15-43.14A326.08,326.08,0,0,0,158.09,39Z"/><path class="cls-3" d="M35.15,133.7h0a3,3,0,0,1,2.75-3.23h0a3,3,0,0,1,3.24,2.75h0a3,3,0,0,1-2.76,3.23h-.24A3,3,0,0,1,35.15,133.7Zm2.75-7.24a3,3,0,0,1-2.76-3.23h0a3,3,0,0,1,3.23-2.75h0a3,3,0,0,1,2.75,3.23h0a3,3,0,0,1-3,2.76H37.9ZM39,116.52a3,3,0,0,1-2.16-3.65h0a3,3,0,0,1,3.65-2.16h0a3,3,0,0,1,2.16,3.65h0a3,3,0,0,1-2.9,2.25h0A3.2,3.2,0,0,1,39,116.52Zm2.82-9.59a3,3,0,0,1-1.45-4h0a3,3,0,0,1,4-1.45h0a3,3,0,0,1,1.45,4h0a3,3,0,0,1-2.72,1.74h0A3,3,0,0,1,41.84,106.93ZM46.41,98a3,3,0,0,1-.64-4.19h0A3,3,0,0,1,50,93.2h0a3,3,0,0,1,.65,4.19h0a3,3,0,0,1-2.42,1.22h0A3,3,0,0,1,46.41,98Zm6.24-7.81A3,3,0,0,1,52.87,86h0a3,3,0,0,1,4.24.21h0a3,3,0,0,1-.22,4.24h0a3,3,0,0,1-2,.77h0A3,3,0,0,1,52.65,90.22Zm7.69-6.39a3,3,0,0,1,1-4.11h0a3,3,0,0,1,4.11,1h0a3,3,0,0,1-1,4.11h0a2.94,2.94,0,0,1-1.53.42h0A3,3,0,0,1,60.34,83.83ZM69.11,79a3,3,0,0,1,1.75-3.86h0a3,3,0,0,1,3.87,1.75h0A3,3,0,0,1,73,80.8h0a3,3,0,0,1-1,.19h0A3,3,0,0,1,69.11,79Zm9.47-3.2a3,3,0,0,1,2.33-3.54h0a3,3,0,0,1,3.54,2.33h0a3,3,0,0,1-2.33,3.55h0a3.15,3.15,0,0,1-.61.06h0A3,3,0,0,1,78.58,75.84Zm9.84-1.77a3,3,0,0,1,2.44-3.47h0a3,3,0,0,1,3.47,2.45h0a3,3,0,0,1-2.45,3.46h0a2.94,2.94,0,0,1-.51,0h0A3,3,0,0,1,88.42,74.07Zm9.84-1.77a3,3,0,0,1,2.32-3.55h0a3,3,0,0,1,3.55,2.33h0a3,3,0,0,1-2.33,3.55h0a3.15,3.15,0,0,1-.61.06h0A3,3,0,0,1,98.26,72.3ZM108,70.19a3,3,0,0,1,2.17-3.65h0a3,3,0,0,1,3.64,2.17h0a3,3,0,0,1-2.16,3.65h0a3.18,3.18,0,0,1-.74.09h0A3,3,0,0,1,108,70.19Zm9.66-2.56a3,3,0,0,1,2-3.77h0a3,3,0,0,1,3.77,2h0a3,3,0,0,1-2,3.76h0a2.89,2.89,0,0,1-.91.15h0A3,3,0,0,1,117.69,67.63Z"/><path class="cls-2" d="M40.86,204.39l-3.92-.78a164.87,164.87,0,0,1,7.29-24.15c4.8-12.65,13.32-30.84,26.69-45.69,12.14-13.49,27.41-24,40.87-33.18,14.19-9.72,26.44-18.11,28-25.82l3.91.81c-1.91,9.29-14.16,17.68-29.68,28.31-13.28,9.1-28.33,19.42-40.16,32.55C61,150.82,52.67,168.5,48,180.8A164.59,164.59,0,0,0,40.86,204.39Z"/><path class="cls-2" d="M92.34,118.58l-4-.08c0-1,.6-23.35,10.69-39.21l3.38,2.15C92.91,96.37,92.34,118.36,92.34,118.58Z"/><path class="cls-2" d="M120.05,143.35A186.11,186.11,0,0,1,93.52,141c-11.79-1.76-21.45-3.9-21.55-3.92l.87-3.91c.38.09,38.07,8.38,55.89,5.64l.61,4A61.23,61.23,0,0,1,120.05,143.35Z"/></g></g></svg>