<svg xmlns="http://www.w3.org/2000/svg" xmlns:xlink="http://www.w3.org/1999/xlink" viewBox="0 0 367.57 82.78"><defs><style>.cls-1{fill:#cbae75;}.cls-2{fill:#142448;}.cls-3{fill:url(#linear-gradient);}</style><linearGradient id="linear-gradient" x1="-29.56" y1="-16.83" x2="74.81" y2="87.53" gradientUnits="userSpaceOnUse"><stop offset="0" stop-color="#ffdeb6"/><stop offset="0.5" stop-color="#cbae75"/><stop offset="1" stop-color="#7c6547"/></linearGradient></defs><g id="Layer_2" data-name="Layer 2"><g id="Layer_7" data-name="Layer 7"><path class="cls-1" d="M100.34,72.75a5.89,5.89,0,0,1,1.73.23,3.44,3.44,0,0,1,1.2.65,2.67,2.67,0,0,1,.7,1,3.71,3.71,0,0,1,0,2.6,2.67,2.67,0,0,1-.72,1,3.33,3.33,0,0,1-1.2.68,5.45,5.45,0,0,1-1.7.24H99v3.49H97.12V72.75Zm0,5a2.93,2.93,0,0,0,.89-.13,1.93,1.93,0,0,0,.63-.36,1.52,1.52,0,0,0,.37-.58,2.28,2.28,0,0,0,.13-.76,2.09,2.09,0,0,0-.13-.72,1.37,1.37,0,0,0-.37-.55,1.76,1.76,0,0,0-.62-.35,3,3,0,0,0-.9-.12H99v3.57Z"/><path class="cls-1" d="M118.85,82.67h-1.67a.72.72,0,0,1-.68-.37l-2.09-3.18a.68.68,0,0,0-.26-.25.87.87,0,0,0-.41-.08H113v3.88H111.1V72.75h3a6.25,6.25,0,0,1,1.73.21,3.39,3.39,0,0,1,1.19.58,2.23,2.23,0,0,1,.68.91A2.88,2.88,0,0,1,118,75.6a3,3,0,0,1-.15,1,2.6,2.6,0,0,1-.42.81,3.26,3.26,0,0,1-.69.64,3.62,3.62,0,0,1-.93.43,2,2,0,0,1,.33.24,2.42,2.42,0,0,1,.28.34Zm-4.75-5.2a2.77,2.77,0,0,0,.91-.13,1.88,1.88,0,0,0,.64-.36,1.45,1.45,0,0,0,.37-.55,1.73,1.73,0,0,0,.13-.69,1.42,1.42,0,0,0-.5-1.16,2.38,2.38,0,0,0-1.52-.41H113v3.3Z"/><path class="cls-1" d="M134.74,77.71a5.54,5.54,0,0,1-.36,2,4.62,4.62,0,0,1-2.6,2.67,5.47,5.47,0,0,1-2.06.38,5.39,5.39,0,0,1-2-.38,4.77,4.77,0,0,1-1.59-1.06,4.88,4.88,0,0,1-1-1.61,5.85,5.85,0,0,1,0-4,4.88,4.88,0,0,1,1-1.61A4.62,4.62,0,0,1,127.67,73a5.39,5.39,0,0,1,2-.38,5.88,5.88,0,0,1,1.42.17,4.89,4.89,0,0,1,1.22.5,4.44,4.44,0,0,1,1,.77,4.85,4.85,0,0,1,1.22,2.24A5.69,5.69,0,0,1,134.74,77.71Zm-1.89,0a4.79,4.79,0,0,0-.21-1.47,3.2,3.2,0,0,0-.63-1.1,2.73,2.73,0,0,0-1-.69,3.43,3.43,0,0,0-1.31-.24,3.4,3.4,0,0,0-1.31.24,2.85,2.85,0,0,0-1,.69,3,3,0,0,0-.62,1.1,4.5,4.5,0,0,0-.22,1.47,4.43,4.43,0,0,0,.22,1.46,3,3,0,0,0,.62,1.1,2.85,2.85,0,0,0,1,.69,3.4,3.4,0,0,0,1.31.24A3.43,3.43,0,0,0,131,81a2.73,2.73,0,0,0,1-.69,3.11,3.11,0,0,0,.63-1.1A4.72,4.72,0,0,0,132.85,77.71Z"/><path class="cls-1" d="M145.08,72.75a5.78,5.78,0,0,1,1.72.23,3.27,3.27,0,0,1,1.2.65,2.59,2.59,0,0,1,.71,1,3.71,3.71,0,0,1,0,2.6,2.67,2.67,0,0,1-.72,1,3.3,3.3,0,0,1-1.21.68,5.34,5.34,0,0,1-1.69.24H143.7v3.49h-1.84V72.75Zm0,5a2.93,2.93,0,0,0,.89-.13,1.93,1.93,0,0,0,.63-.36,1.52,1.52,0,0,0,.37-.58,2.29,2.29,0,0,0,.12-.76,2.09,2.09,0,0,0-.12-.72,1.49,1.49,0,0,0-.37-.55,1.81,1.81,0,0,0-.63-.35,2.9,2.9,0,0,0-.89-.12H143.7v3.57Z"/><path class="cls-1" d="M157.69,74.22V77h3.48v1.42h-3.48v2.8h4.41v1.48h-6.26V72.75h6.26v1.47Z"/><path class="cls-1" d="M177,82.67H175.3a.72.72,0,0,1-.68-.37l-2.09-3.18a.68.68,0,0,0-.26-.25.87.87,0,0,0-.41-.08h-.79v3.88h-1.85V72.75h3A6.25,6.25,0,0,1,174,73a3.39,3.39,0,0,1,1.19.58,2.32,2.32,0,0,1,.68.91,2.88,2.88,0,0,1,.22,1.15,3,3,0,0,1-.15,1,2.83,2.83,0,0,1-.42.81,3.26,3.26,0,0,1-.69.64,3.62,3.62,0,0,1-.93.43,2,2,0,0,1,.33.24,1.84,1.84,0,0,1,.27.34Zm-4.75-5.2a2.77,2.77,0,0,0,.91-.13,1.88,1.88,0,0,0,.64-.36,1.57,1.57,0,0,0,.37-.55,1.93,1.93,0,0,0,.13-.69,1.42,1.42,0,0,0-.5-1.16,2.38,2.38,0,0,0-1.52-.41h-1.18v3.3Z"/><path class="cls-1" d="M190.2,74.26h-3v8.41h-1.84V74.26h-3V72.75h7.82Z"/><path class="cls-1" d="M201.26,78.83v3.84h-1.84V78.83l-3.62-6.08h1.63a.61.61,0,0,1,.38.11,1.22,1.22,0,0,1,.24.3l1.81,3.31c.1.2.2.39.28.56s.15.35.21.52c.06-.17.13-.35.21-.52l.27-.56,1.8-3.31a1,1,0,0,1,.23-.28.55.55,0,0,1,.38-.13h1.64Z"/><path class="cls-1" d="M230.4,72.75v9.92h-1.63V76.26c0-.26,0-.53,0-.83l-3,5.63a.71.71,0,0,1-.66.41h-.26a.7.7,0,0,1-.65-.41l-3-5.65,0,.45c0,.14,0,.28,0,.4v6.41h-1.63V72.75h1.61l.16,0a.38.38,0,0,1,.13.09.74.74,0,0,1,.11.16l3,5.51c.08.15.15.3.22.46s.13.31.19.48c.07-.17.13-.34.2-.5s.14-.3.22-.45l2.93-5.5a.74.74,0,0,1,.12-.16.51.51,0,0,1,.13-.09l.16,0h1.61Z"/><path class="cls-1" d="M246.6,82.67h-1.43a.61.61,0,0,1-.39-.12.73.73,0,0,1-.22-.3l-.75-2H239.7l-.74,2a.57.57,0,0,1-.21.29.59.59,0,0,1-.39.13h-1.44l3.9-9.92h1.88Zm-3.26-3.75-1.21-3.3a5.12,5.12,0,0,1-.18-.52c-.07-.2-.13-.42-.19-.65-.06.23-.13.45-.19.65s-.13.39-.18.54l-1.21,3.28Z"/><path class="cls-1" d="M261.48,72.75v9.92h-.94a.82.82,0,0,1-.37-.07.92.92,0,0,1-.29-.25l-5.18-6.61a8.39,8.39,0,0,1,0,.84v6.09h-1.62V72.75h1.17l.15,0a.51.51,0,0,1,.13.09l.13.15,5.2,6.65c0-.17,0-.32,0-.48s0-.3,0-.43v-6Z"/><path class="cls-1" d="M277.68,82.67h-1.42a.63.63,0,0,1-.4-.12.73.73,0,0,1-.22-.3l-.74-2h-4.11l-.74,2a.66.66,0,0,1-.22.29.56.56,0,0,1-.39.13H268l3.9-9.92h1.88Zm-3.26-3.75-1.2-3.3a4.94,4.94,0,0,1-.19-.52c-.06-.2-.13-.42-.19-.65-.06.23-.12.45-.19.65a5.66,5.66,0,0,1-.18.54l-1.2,3.28Z"/><path class="cls-1" d="M292.09,77.7v4a5.3,5.3,0,0,1-1.61.81,6.37,6.37,0,0,1-1.83.26,6.15,6.15,0,0,1-2.2-.38,4.8,4.8,0,0,1-1.68-1.05,4.66,4.66,0,0,1-1.08-1.6,5.44,5.44,0,0,1-.37-2,5.62,5.62,0,0,1,.36-2,4.73,4.73,0,0,1,1-1.61,4.65,4.65,0,0,1,1.63-1,5.79,5.79,0,0,1,2.14-.37,6.52,6.52,0,0,1,1.12.09,6.32,6.32,0,0,1,1,.27,4.19,4.19,0,0,1,.82.41,5.08,5.08,0,0,1,.68.52l-.53.84a.49.49,0,0,1-.32.25.6.6,0,0,1-.43-.1l-.46-.26a2.54,2.54,0,0,0-.5-.23,3.4,3.4,0,0,0-.63-.16,4.62,4.62,0,0,0-.79-.06,3.32,3.32,0,0,0-1.33.25,2.82,2.82,0,0,0-1,.7,3.37,3.37,0,0,0-.64,1.11,4.35,4.35,0,0,0-.23,1.44,4.48,4.48,0,0,0,.25,1.52,3.28,3.28,0,0,0,.68,1.13,3,3,0,0,0,1.07.71,3.86,3.86,0,0,0,1.39.24,3.73,3.73,0,0,0,1-.12,4.76,4.76,0,0,0,.84-.31v-1.8h-1.25a.37.37,0,0,1-.28-.1.35.35,0,0,1-.1-.24v-1Z"/><path class="cls-1" d="M301.21,74.22V77h3.47v1.42h-3.47v2.8h4.41v1.48h-6.26V72.75h6.26v1.47Z"/><path class="cls-1" d="M323.5,72.75v9.92h-1.63V76.26c0-.26,0-.53,0-.83l-3,5.63a.71.71,0,0,1-.66.41H318a.7.7,0,0,1-.65-.41l-3-5.65,0,.45c0,.14,0,.28,0,.4v6.41h-1.63V72.75h1.61l.16,0a.51.51,0,0,1,.13.09.74.74,0,0,1,.11.16l3,5.51c.08.15.15.3.22.46s.13.31.19.48c.07-.17.13-.34.2-.5s.14-.3.22-.45l2.93-5.5a.74.74,0,0,1,.12-.16.38.38,0,0,1,.13-.09l.16,0h1.61Z"/><path class="cls-1" d="M333.05,74.22V77h3.47v1.42h-3.47v2.8h4.4v1.48H331.2V72.75h6.25v1.47Z"/><path class="cls-1" d="M352.94,72.75v9.92H352a.8.8,0,0,1-.36-.07.83.83,0,0,1-.29-.25l-5.18-6.61a8.39,8.39,0,0,1,0,.84v6.09h-1.62V72.75h1.17l.15,0a.47.47,0,0,1,.12.09,1,1,0,0,1,.14.15l5.2,6.65c0-.17,0-.32,0-.48s0-.3,0-.43v-6Z"/><path class="cls-1" d="M367.57,74.26h-3v8.41h-1.85V74.26h-3V72.75h7.83Z"/><path class="cls-2" d="M143.45,27.43a30.08,30.08,0,0,1-1.91,11,24.24,24.24,0,0,1-5.39,8.45,24,24,0,0,1-8.36,5.45A29.27,29.27,0,0,1,117,54.22H97V.6h20a29.07,29.07,0,0,1,10.8,1.93A23.69,23.69,0,0,1,136.15,8a24.46,24.46,0,0,1,5.39,8.48A30,30,0,0,1,143.45,27.43Zm-7.44,0a26.85,26.85,0,0,0-1.35-8.83A18.6,18.6,0,0,0,130.84,12a16.24,16.24,0,0,0-6-4.11A20.73,20.73,0,0,0,117,6.47H104.23V48.35H117a20.73,20.73,0,0,0,7.86-1.42,16.46,16.46,0,0,0,6-4.1,18.33,18.33,0,0,0,3.82-6.57A26.85,26.85,0,0,0,136,27.43Z"/><path class="cls-2" d="M187,48.31l0,5.91H153.89V.6h33.05V6.51H161.15V24.32H182V30H161.15v18.3Z"/><path class="cls-2" d="M227.54,48.12v6.1H197.12V.6h7.22V48.12Z"/><path class="cls-2" d="M291.34.6V54.22H285V14.82q0-.8.06-1.68c0-.6.08-1.21.13-1.84L266.76,44.83a2.8,2.8,0,0,1-2.62,1.69h-1.05a2.79,2.79,0,0,1-2.62-1.69L241.68,11.15a32.82,32.82,0,0,1,.23,3.67v39.4h-6.36V.6h5.35a4.41,4.41,0,0,1,1.49.19,2.16,2.16,0,0,1,1,1l18.52,33c.3.6.59,1.22.88,1.87s.55,1.31.8,2c.25-.67.51-1.34.79-2a18.28,18.28,0,0,1,.9-1.89l18.18-33a2,2,0,0,1,1-1A4.62,4.62,0,0,1,286,.6Z"/><path class="cls-2" d="M312.3,54.22H305V.6h7.26Z"/><path class="cls-2" d="M363.64,43.15a1.4,1.4,0,0,1,1.05.48l2.88,3.11a22.94,22.94,0,0,1-8,5.95,27.36,27.36,0,0,1-11.36,2.13,26.41,26.41,0,0,1-10.47-2,22.9,22.9,0,0,1-8.05-5.61,25.37,25.37,0,0,1-5.16-8.67,32.13,32.13,0,0,1-1.84-11.11,31.22,31.22,0,0,1,1.91-11.11A25.38,25.38,0,0,1,330,7.63,24.09,24.09,0,0,1,338.27,2a27.67,27.67,0,0,1,10.67-2A26,26,0,0,1,359,1.83a25.49,25.49,0,0,1,7.71,5l-2.4,3.33a1.91,1.91,0,0,1-.58.62,1.65,1.65,0,0,1-.95.24,3,3,0,0,1-1.65-.73,26.15,26.15,0,0,0-2.54-1.63A20,20,0,0,0,354.7,7a19.74,19.74,0,0,0-5.8-.73,19.53,19.53,0,0,0-7.6,1.44,16.64,16.64,0,0,0-5.93,4.17,19.16,19.16,0,0,0-3.87,6.66,26.42,26.42,0,0,0-1.39,8.87,25.87,25.87,0,0,0,1.44,8.94A19.77,19.77,0,0,0,335.48,43a16.61,16.61,0,0,0,5.88,4.13,18.64,18.64,0,0,0,7.31,1.42,29.9,29.9,0,0,0,4.33-.28,17.08,17.08,0,0,0,3.55-.88,14.29,14.29,0,0,0,3-1.51,20.87,20.87,0,0,0,2.79-2.19A1.9,1.9,0,0,1,363.64,43.15Z"/><path class="cls-3" d="M66.29,9H12.09L0,15.72V7.33L12.09.58H38.61C49.86.58,59.37,3.44,66.29,9Zm9.65,13.17a31.73,31.73,0,0,0-2.34-4.79H12.09L0,24.1v8.38l12.09-6.75h65A35.94,35.94,0,0,0,75.94,22.14Zm2.56,12H12.09L0,40.87v8.38L12.09,42.5H78.37a48.07,48.07,0,0,0,.25-5C78.62,36.33,78.58,35.21,78.5,34.11ZM12.09,50.88,0,57.63V66l12.09-6.75H72.88a33.55,33.55,0,0,0,2.52-4.79q.73-1.74,1.32-3.6Zm0,16.77L0,74.4v8.38L12.09,76H36.85c11.6,0,21.27-2.92,28.37-8.38Z"/></g></g></svg>