<?xml version="1.0" encoding="utf-8"?>
<!-- Generator: Adobe Illustrator 24.0.0, SVG Export Plug-In . SVG Version: 6.00 Build 0)  -->
<svg version="1.1" id="Layer_1" xmlns="http://www.w3.org/2000/svg" xmlns:xlink="http://www.w3.org/1999/xlink" x="0px" y="0px"
	 viewBox="0 0 367.6 82.8" style="enable-background:new 0 0 367.6 82.8;" xml:space="preserve">
<style type="text/css">
	.st0{fill:#CBAE75;}
	.st1{fill:#FFFFFF;}
	.st2{fill:url(#SVGID_1_);}
</style>
<g id="Layer_2_1_">
	<g id="Layer_7">
		<path class="st0" d="M100.3,72.8c0.6,0,1.2,0.1,1.7,0.2c0.4,0.1,0.8,0.4,1.2,0.7c0.3,0.3,0.5,0.6,0.7,1c0.3,0.8,0.3,1.8,0,2.6
			c-0.2,0.4-0.4,0.7-0.7,1c-0.3,0.3-0.8,0.5-1.2,0.7c-0.6,0.2-1.1,0.3-1.7,0.2H99v3.5h-1.9v-9.9H100.3z M100.3,77.8
			c0.3,0,0.6,0,0.9-0.1c0.2-0.1,0.4-0.2,0.6-0.4c0.2-0.2,0.3-0.4,0.4-0.6c0.1-0.2,0.1-0.5,0.1-0.8c0-0.2,0-0.5-0.1-0.7
			c-0.1-0.2-0.2-0.4-0.4-0.6c-0.2-0.2-0.4-0.3-0.6-0.3c-0.3-0.1-0.6-0.1-0.9-0.1H99v3.6L100.3,77.8z"/>
		<path class="st0" d="M118.8,82.7h-1.7c-0.3,0-0.5-0.1-0.7-0.4l-2.1-3.2c-0.1-0.1-0.2-0.2-0.3-0.2c-0.1-0.1-0.3-0.1-0.4-0.1H113
			v3.9h-1.9v-9.9h3c0.6,0,1.2,0.1,1.7,0.2c0.4,0.1,0.8,0.3,1.2,0.6c0.3,0.2,0.5,0.6,0.7,0.9c0.2,0.4,0.3,0.7,0.3,1.1
			c0,0.3,0,0.7-0.2,1c-0.1,0.3-0.2,0.6-0.4,0.8c-0.2,0.2-0.4,0.5-0.7,0.6c-0.3,0.2-0.6,0.3-0.9,0.4c0.1,0.1,0.2,0.1,0.3,0.2
			c0.1,0.1,0.2,0.2,0.3,0.3L118.8,82.7z M114.1,77.5c0.3,0,0.6,0,0.9-0.1c0.2-0.1,0.5-0.2,0.6-0.4c0.2-0.2,0.3-0.3,0.4-0.6
			c0.1-0.2,0.1-0.5,0.1-0.7c0-0.4-0.2-0.9-0.5-1.2c-0.4-0.3-1-0.4-1.5-0.4H113v3.3L114.1,77.5z"/>
		<path class="st0" d="M134.7,77.7c0,0.7-0.1,1.4-0.4,2c-0.5,1.2-1.4,2.2-2.6,2.7c-0.7,0.3-1.4,0.4-2.1,0.4c-0.7,0-1.4-0.1-2-0.4
			c-0.6-0.2-1.1-0.6-1.6-1.1c-0.4-0.5-0.8-1-1-1.6c-0.5-1.3-0.5-2.7,0-4c0.2-0.6,0.6-1.1,1-1.6c0.4-0.5,1-0.8,1.5-1.1
			c0.6-0.3,1.3-0.4,2-0.4c0.5,0,1,0.1,1.4,0.2c0.4,0.1,0.8,0.3,1.2,0.5c0.4,0.2,0.7,0.5,1,0.8c0.6,0.6,1,1.4,1.2,2.2
			C134.7,76.8,134.7,77.2,134.7,77.7z M132.9,77.7c0-0.5-0.1-1-0.2-1.5c-0.1-0.4-0.3-0.8-0.6-1.1c-0.3-0.3-0.6-0.5-1-0.7
			c-0.4-0.2-0.9-0.2-1.3-0.2c-0.4,0-0.9,0.1-1.3,0.2c-0.4,0.2-0.7,0.4-1,0.7c-0.3,0.3-0.5,0.7-0.6,1.1c-0.2,0.5-0.2,1-0.2,1.5
			c0,0.5,0.1,1,0.2,1.5c0.1,0.4,0.3,0.8,0.6,1.1c0.3,0.3,0.6,0.5,1,0.7c0.4,0.2,0.9,0.2,1.3,0.2c0.4,0,0.9-0.1,1.3-0.2
			c0.4-0.2,0.7-0.4,1-0.7c0.3-0.3,0.5-0.7,0.6-1.1C132.8,78.7,132.9,78.2,132.9,77.7z"/>
		<path class="st0" d="M145.1,72.8c0.6,0,1.2,0.1,1.7,0.2c0.4,0.1,0.9,0.4,1.2,0.7c0.3,0.3,0.6,0.6,0.7,1c0.3,0.8,0.3,1.8,0,2.6
			c-0.2,0.4-0.4,0.7-0.7,1c-0.4,0.3-0.8,0.5-1.2,0.7c-0.5,0.2-1.1,0.3-1.7,0.2h-1.4v3.5h-1.8v-9.9H145.1z M145.1,77.8
			c0.3,0,0.6,0,0.9-0.1c0.2-0.1,0.4-0.2,0.6-0.4c0.2-0.2,0.3-0.4,0.4-0.6c0.1-0.2,0.1-0.5,0.1-0.8c0-0.2,0-0.5-0.1-0.7
			c-0.1-0.2-0.2-0.4-0.4-0.6c-0.2-0.2-0.4-0.3-0.6-0.3c-0.3-0.1-0.6-0.1-0.9-0.1h-1.4v3.6L145.1,77.8z"/>
		<path class="st0" d="M157.7,74.2V77h3.5v1.4h-3.5v2.8h4.4v1.5h-6.3v-10h6.3v1.5H157.7z"/>
		<path class="st0" d="M177,82.7h-1.7c-0.3,0-0.5-0.1-0.7-0.4l-2.1-3.2c-0.1-0.1-0.2-0.2-0.3-0.2c-0.1-0.1-0.3-0.1-0.4-0.1h-0.8v3.9
			h-1.9v-9.9h3c0.6,0,1.2,0.1,1.8,0.2c0.4,0.1,0.8,0.3,1.2,0.6c0.3,0.2,0.5,0.6,0.7,0.9c0.2,0.4,0.2,0.8,0.2,1.2c0,0.3,0,0.7-0.1,1
			c-0.1,0.3-0.2,0.6-0.4,0.8c-0.2,0.2-0.4,0.5-0.7,0.6c-0.3,0.2-0.6,0.3-0.9,0.4c0.1,0.1,0.2,0.1,0.3,0.2c0.1,0.1,0.2,0.2,0.3,0.3
			L177,82.7z M172.2,77.5c0.3,0,0.6,0,0.9-0.1c0.2-0.1,0.5-0.2,0.6-0.4c0.2-0.2,0.3-0.3,0.4-0.6c0.1-0.2,0.1-0.5,0.1-0.7
			c0-0.4-0.2-0.9-0.5-1.2c-0.4-0.3-1-0.4-1.5-0.4h-1.2v3.3L172.2,77.5z"/>
		<path class="st0" d="M190.2,74.3h-3v8.4h-1.8v-8.4h-3v-1.5h7.8L190.2,74.3z"/>
		<path class="st0" d="M201.3,78.8v3.8h-1.8v-3.8l-3.6-6.1h1.6c0.1,0,0.3,0,0.4,0.1c0.1,0.1,0.2,0.2,0.2,0.3l1.8,3.3
			c0.1,0.2,0.2,0.4,0.3,0.6s0.1,0.3,0.2,0.5c0.1-0.2,0.1-0.3,0.2-0.5l0.3-0.6l1.8-3.3c0.1-0.1,0.1-0.2,0.2-0.3
			c0.1-0.1,0.2-0.1,0.4-0.1h1.6L201.3,78.8z"/>
		<path class="st0" d="M230.4,72.8v9.9h-1.6v-6.4c0-0.3,0-0.5,0-0.8l-3,5.6c-0.1,0.3-0.4,0.4-0.7,0.4h-0.3c-0.3,0-0.5-0.2-0.6-0.4
			l-3-5.7v0.4c0,0.1,0,0.3,0,0.4v6.4h-1.6v-9.9h1.6h0.2c0,0,0.1,0.1,0.1,0.1c0,0,0.1,0.1,0.1,0.2l3,5.5c0.1,0.2,0.1,0.3,0.2,0.5
			s0.1,0.3,0.2,0.5c0.1-0.2,0.1-0.3,0.2-0.5s0.1-0.3,0.2-0.4l2.9-5.5c0-0.1,0.1-0.1,0.1-0.2c0,0,0.1-0.1,0.1-0.1h0.2L230.4,72.8
			L230.4,72.8z"/>
		<path class="st0" d="M246.6,82.7h-1.4c-0.1,0-0.3,0-0.4-0.1c-0.1-0.1-0.2-0.2-0.2-0.3l-0.8-2h-4.1l-0.7,2c0,0.1-0.1,0.2-0.2,0.3
			c-0.1,0.1-0.2,0.1-0.4,0.1h-1.4l3.9-9.9h1.9L246.6,82.7z M243.3,78.9l-1.2-3.3c-0.1-0.2-0.1-0.3-0.2-0.5c-0.1-0.2-0.1-0.4-0.2-0.7
			c-0.1,0.2-0.1,0.4-0.2,0.7s-0.1,0.4-0.2,0.5l-1.2,3.3H243.3z"/>
		<path class="st0" d="M261.5,72.8v9.9h-0.9c-0.1,0-0.3,0-0.4-0.1c-0.1-0.1-0.2-0.1-0.3-0.2l-5.2-6.6c0,0.3,0,0.6,0,0.8v6.1h-1.6
			v-9.9h1.2h0.1c0,0,0.1,0.1,0.1,0.1l0.1,0.2l5.2,6.7c0-0.2,0-0.3,0-0.5s0-0.3,0-0.4v-6L261.5,72.8z"/>
		<path class="st0" d="M277.7,82.7h-1.4c-0.1,0-0.3,0-0.4-0.1c-0.1-0.1-0.2-0.2-0.2-0.3l-0.7-2h-4.1l-0.7,2c0,0.1-0.1,0.2-0.2,0.3
			c-0.1,0.1-0.2,0.1-0.4,0.1H268l3.9-9.9h1.9L277.7,82.7z M274.4,78.9l-1.2-3.3c-0.1-0.2-0.1-0.3-0.2-0.5c-0.1-0.2-0.1-0.4-0.2-0.7
			c-0.1,0.2-0.1,0.4-0.2,0.7c-0.1,0.2-0.1,0.4-0.2,0.5l-1.2,3.3H274.4z"/>
		<path class="st0" d="M292.1,77.7v4c-0.5,0.4-1,0.6-1.6,0.8c-0.6,0.2-1.2,0.3-1.8,0.3c-0.8,0-1.5-0.1-2.2-0.4
			c-0.6-0.2-1.2-0.6-1.7-1.1c-0.5-0.5-0.8-1-1.1-1.6c-0.2-0.6-0.4-1.3-0.4-2c0-0.7,0.1-1.4,0.4-2c0.2-0.6,0.6-1.1,1-1.6
			c0.5-0.4,1-0.8,1.6-1c0.7-0.3,1.4-0.4,2.1-0.4c0.4,0,0.7,0,1.1,0.1c0.3,0.1,0.7,0.2,1,0.3c0.3,0.1,0.6,0.2,0.8,0.4
			c0.2,0.2,0.5,0.3,0.7,0.5l-0.5,0.8c-0.1,0.1-0.2,0.2-0.3,0.2c-0.2,0-0.3,0-0.4-0.1l-0.5-0.3c-0.2-0.1-0.3-0.2-0.5-0.2
			c-0.2-0.1-0.4-0.1-0.6-0.2c-0.3,0-0.5-0.1-0.8-0.1c-0.5,0-0.9,0.1-1.3,0.2c-0.4,0.2-0.7,0.4-1,0.7c-0.3,0.3-0.5,0.7-0.6,1.1
			c-0.2,0.5-0.2,1-0.2,1.4c0,0.5,0.1,1,0.2,1.5c0.1,0.4,0.4,0.8,0.7,1.1c0.3,0.3,0.7,0.6,1.1,0.7c0.4,0.2,0.9,0.2,1.4,0.2
			c0.3,0,0.7,0,1-0.1c0.3-0.1,0.6-0.2,0.8-0.3v-1.8h-1.2c-0.1,0-0.2,0-0.3-0.1c-0.1-0.1-0.1-0.2-0.1-0.2v-1L292.1,77.7z"/>
		<path class="st0" d="M301.2,74.2V77h3.5v1.4h-3.5v2.8h4.4v1.5h-6.3v-10h6.3v1.5H301.2z"/>
		<path class="st0" d="M323.5,72.8v9.9h-1.6v-6.4c0-0.3,0-0.5,0-0.8l-3,5.6c-0.1,0.3-0.4,0.4-0.7,0.4H318c-0.3,0-0.5-0.2-0.6-0.4
			l-3-5.7v0.4c0,0.1,0,0.3,0,0.4v6.4h-1.6v-9.9h1.6h0.2c0,0,0.1,0.1,0.1,0.1c0,0,0.1,0.1,0.1,0.2l3,5.5c0.1,0.2,0.1,0.3,0.2,0.5
			s0.1,0.3,0.2,0.5c0.1-0.2,0.1-0.3,0.2-0.5s0.1-0.3,0.2-0.4l2.9-5.5c0-0.1,0.1-0.1,0.1-0.2c0,0,0.1-0.1,0.1-0.1h0.2L323.5,72.8
			L323.5,72.8z"/>
		<path class="st0" d="M333,74.2V77h3.5v1.4H333v2.8h4.4v1.5h-6.2v-10h6.2v1.5H333z"/>
		<path class="st0" d="M352.9,72.8v9.9H352c-0.1,0-0.2,0-0.4-0.1c-0.1-0.1-0.2-0.1-0.3-0.2l-5.2-6.6c0,0.3,0,0.6,0,0.8v6.1h-1.6
			v-9.9h1.2h0.1c0,0,0.1,0.1,0.1,0.1c0.1,0,0.1,0.1,0.1,0.2l5.2,6.7c0-0.2,0-0.3,0-0.5s0-0.3,0-0.4v-6L352.9,72.8z"/>
		<path class="st0" d="M367.6,74.3h-3v8.4h-1.9v-8.4h-3v-1.5h7.8L367.6,74.3z"/>
		<path class="st1" d="M143.4,27.4c0.1,3.8-0.6,7.5-1.9,11c-1.2,3.2-3,6-5.4,8.5c-2.4,2.4-5.2,4.2-8.4,5.5
			c-3.4,1.3-7.1,1.9-10.8,1.9H97V0.6h20c3.7,0,7.4,0.6,10.8,1.9c3.1,1.2,6,3.1,8.3,5.5c2.4,2.4,4.2,5.3,5.4,8.5
			C142.9,20,143.5,23.7,143.4,27.4z M136,27.4c0-3-0.4-6-1.4-8.8c-0.8-2.4-2.1-4.7-3.8-6.6c-1.7-1.8-3.7-3.2-6-4.1
			c-2.5-1-5.2-1.5-7.8-1.4h-12.8v41.9H117c2.7,0,5.4-0.4,7.9-1.4c2.3-0.9,4.3-2.3,6-4.1c1.7-1.9,3-4.1,3.8-6.6
			C135.6,33.4,136.1,30.4,136,27.4L136,27.4z"/>
		<path class="st1" d="M187,48.3v5.9h-33.1V0.6h33.1v5.9h-25.8v17.8H182V30h-20.9v18.3L187,48.3z"/>
		<path class="st1" d="M227.5,48.1v6.1h-30.4V0.6h7.2v47.5H227.5z"/>
		<path class="st1" d="M291.3,0.6v53.6H285V14.8c0-0.5,0-1.1,0.1-1.7c0-0.6,0.1-1.2,0.1-1.8l-18.4,33.5c-0.4,1-1.5,1.7-2.6,1.7h-1
			c-1.1,0-2.2-0.6-2.6-1.7l-18.8-33.7c0.1,1.2,0.2,2.4,0.2,3.7v39.4h-6.4V0.6h5.4c0.5,0,1,0,1.5,0.2c0.4,0.2,0.8,0.6,1,1l18.5,33
			c0.3,0.6,0.6,1.2,0.9,1.9s0.5,1.3,0.8,2c0.2-0.7,0.5-1.3,0.8-2c0.3-0.6,0.6-1.3,0.9-1.9l18.2-33c0.2-0.4,0.6-0.8,1-1
			c0.5-0.1,1-0.2,1.5-0.2H291.3z"/>
		<path class="st1" d="M312.3,54.2H305V0.6h7.3L312.3,54.2z"/>
		<path class="st1" d="M363.6,43.2c0.4,0,0.8,0.2,1,0.5l2.9,3.1c-2.2,2.5-4.9,4.6-8,6c-3.6,1.5-7.5,2.2-11.4,2.1
			c-3.6,0.1-7.2-0.6-10.5-2c-3.1-1.3-5.8-3.2-8-5.6c-2.3-2.5-4-5.5-5.2-8.7c-1.3-3.6-1.9-7.3-1.8-11.1c0-3.8,0.6-7.6,1.9-11.1
			c1.2-3.2,3-6.2,5.4-8.7c2.3-2.4,5.1-4.4,8.3-5.6c3.4-1.4,7-2,10.7-2c3.4-0.1,6.9,0.6,10.1,1.8c2.9,1.2,5.5,2.9,7.7,5l-2.4,3.3
			c-0.1,0.2-0.3,0.5-0.6,0.6c-0.3,0.2-0.6,0.3-1,0.2c-0.6-0.1-1.2-0.3-1.6-0.7c-0.8-0.6-1.7-1.1-2.5-1.6c-1.2-0.7-2.5-1.2-3.9-1.7
			c-1.9-0.5-3.8-0.8-5.8-0.7c-2.6,0-5.2,0.5-7.6,1.4c-2.3,0.9-4.3,2.4-5.9,4.2c-1.7,1.9-3,4.2-3.9,6.7c-1,2.9-1.4,5.9-1.4,8.9
			c0,3,0.4,6.1,1.4,8.9c0.9,2.5,2.2,4.7,3.9,6.7c1.6,1.8,3.6,3.2,5.9,4.1c2.3,1,4.8,1.4,7.3,1.4c1.4,0,2.9-0.1,4.3-0.3
			c1.2-0.2,2.4-0.5,3.5-0.9c1.1-0.4,2.1-0.9,3-1.5c1-0.6,1.9-1.4,2.8-2.2C362.7,43.4,363.2,43.2,363.6,43.2z"/>
		
			<linearGradient id="SVGID_1_" gradientUnits="userSpaceOnUse" x1="-29.5705" y1="100.8195" x2="74.7995" y2="-3.5405" gradientTransform="matrix(1 0 0 -1 0 84)">
			<stop  offset="0" style="stop-color:#FFDEB6"/>
			<stop  offset="0.5" style="stop-color:#CBAE75"/>
			<stop  offset="1" style="stop-color:#7C6547"/>
		</linearGradient>
		<path class="st2" d="M66.3,9H12.1L0,15.7V7.3l12.1-6.8h26.5C49.9,0.6,59.4,3.4,66.3,9z M75.9,22.2c-0.6-1.7-1.4-3.3-2.3-4.8H12.1
			L0,24.1v8.4l12.1-6.8h65C76.8,24.5,76.4,23.3,75.9,22.2L75.9,22.2z M78.5,34.2H12.1L0,40.9v8.4l12.1-6.8h66.3
			c0.2-1.7,0.3-3.3,0.2-5C78.6,36.3,78.6,35.2,78.5,34.2L78.5,34.2z M12.1,50.9L0,57.6V66l12.1-6.8h60.8c1-1.5,1.8-3.1,2.5-4.8
			c0.5-1.2,0.9-2.4,1.3-3.6L12.1,50.9z M12.1,67.7L0,74.4v8.4L12.1,76h24.8c11.6,0,21.3-2.9,28.4-8.4L12.1,67.7z"/>
	</g>
</g>
</svg>
