<svg xmlns="http://www.w3.org/2000/svg" width="256" height="434" viewBox="0 0 256 434">
    <g fill="none" fill-rule="evenodd">
        <g stroke="#212121" stroke-width=".75">
            <g>
                <path d="M71.5 43.043L94.174 105.5 185.5 8.5" transform="translate(0 -2398) rotate(-90 1391 1453)"/>
                <g>
                    <path d="M141.95.397L243.799 307.944M.652 148.152L205.634 192.643" transform="translate(0 -2398) rotate(-90 1391 1453) translate(43 10)"/>
                </g>
                <path d="M.5 25.5L44.5 156.5M45 157L95 107M163 124L184.353 188M205 72L161 124M394.5 120.5L206.5 71.5M242.5 2.5L270.5 87.5M421 1L335 103M93.5 106.5L161.5 123.5M69.5 225.5L116.5 173.5M135.5 239.5L184.5 187.5M181.5 279.5L248.5 201.5M136.5 238.5L70.157 224.5M205.5 253.5L226.5 317.5M227.5 136.5L415.5 179.5M395 119L416 178M472 31L395 120M135.5 239.5L148.5 279.5M249 201L313 215M356.5 165.5L313.5 215.5M413.5 12.5L435.5 73.5" transform="translate(0 -2398) rotate(-90 1391 1453)"/>
            </g>
        </g>
    </g>
</svg>
