<svg xmlns="http://www.w3.org/2000/svg" viewBox="0 0 253.52 143.94"><defs><style>.cls-1{fill:#bdddf9;}.cls-2{fill:#68264a;}</style></defs><title>1</title><g id="Layer_2" data-name="Layer 2"><g id="Layer_4" data-name="Layer 4"><path class="cls-1" d="M124.94,113.21a1.53,1.53,0,0,0,1.7,1.32,2.29,2.29,0,0,1,.28-.09,1.51,1.51,0,0,0,1-1.61,1.42,1.42,0,0,0-1.65-1.27A1.48,1.48,0,0,0,124.94,113.21Zm-4.59-1.09a1.57,1.57,0,0,0-1.41,1.66,1.55,1.55,0,0,0,1.6,1.37.69.69,0,0,0,.38-.1,1.54,1.54,0,0,0,1-1.56A1.55,1.55,0,0,0,120.35,112.12ZM115.92,114a1.45,1.45,0,0,0-1.56-1.41,1.48,1.48,0,0,0-1.42,1.56,1.56,1.56,0,0,0,1.56,1.46,1.58,1.58,0,0,0,.42-.09A1.55,1.55,0,0,0,115.92,114Zm-6,.29a1.52,1.52,0,0,0-1.51-1.51h0a1.55,1.55,0,0,0-1.46,1.56,1.51,1.51,0,0,0,1.51,1.46.73.73,0,0,0,.47-.1A1.46,1.46,0,0,0,109.92,114.25ZM72.19,75.53a1.56,1.56,0,0,0,1.75.56,1,1,0,0,0,.33-.19l4.06-2.78A1.52,1.52,0,0,0,78.71,71a1.47,1.47,0,0,0-2.08-.38l-4.06,2.79A1.51,1.51,0,0,0,72.19,75.53Zm115.41,8a1.5,1.5,0,0,0,.23-2.12,1.48,1.48,0,0,0-2.07-.24L182,84.12a1.51,1.51,0,0,0-.24,2.13,1.42,1.42,0,0,0,1.65.47,1.12,1.12,0,0,0,.43-.24Zm-36.22,24.09a1.33,1.33,0,0,0-.14-.57,1.5,1.5,0,0,0-2-.8,1.47,1.47,0,0,0-.8,1.93,1.52,1.52,0,0,0,1.89.85.14.14,0,0,0,.09,0A1.54,1.54,0,0,0,151.38,107.64Zm-6.71,3.44a1.53,1.53,0,0,0,1-1.88,1.55,1.55,0,0,0-1.89-1,1.51,1.51,0,0,0-1,1.85,1.49,1.49,0,0,0,1.84,1Zm-4.2-82.92A75.06,75.06,0,0,0,122,31.09a1.48,1.48,0,1,0,.85,2.84,82.36,82.36,0,0,1,17.76-2.79A1,1,0,0,0,141,31a1.48,1.48,0,0,0,1-1.46A1.53,1.53,0,0,0,140.47,28.16Zm6,86.23c-19.93,6.89-65.5,5.38-80.14,4.72-.37-.52-1.08-1.41-1.93-2.6,5,.19,19.64.81,28.19.57a1.36,1.36,0,0,0,.47,0,1.46,1.46,0,0,0,1-1.46,1.45,1.45,0,0,0-1.51-1.46c-10.34.23-29.61-.71-29.79-.71s-.24.09-.38.14c-1.42-2.22-3-4.91-4.68-8.08,2.93-.37,10.44-1.41,17.57-2.73a.27.27,0,0,0,.19,0,1.49,1.49,0,0,0,1-1.7,1.47,1.47,0,0,0-1.75-1.18c-8.26,1.51-17,2.64-18.37,2.78a74.53,74.53,0,0,1-4-10.2.88.88,0,0,0,.28-.18S60.38,86,67.7,80.72a1.52,1.52,0,0,0-1.79-2.45c-6.09,4.43-12.42,9.39-14.45,11-.52-1.94-1-4-1.28-6a0,0,0,0,1,0,0C50.56,82.89,80.83,49.41,113,37A1.52,1.52,0,0,0,112,34.11C83.38,45.21,56.42,72.32,49.66,79.45a55.34,55.34,0,0,1-.37-6.24c3.73-4,33-34.09,62.56-45.23,25.08-9.54,58.32-5.77,74.28-4,1.42.19,2.74.33,3.88.43a45.33,45.33,0,0,1,3.77,4.15c-23.23-1.84-43-1.56-43.2-1.56a1.46,1.46,0,0,0-1.47,1.51A1.5,1.5,0,0,0,150.62,30c.19,0,21.3-.33,45.48,1.74a63.42,63.42,0,0,1,4.58,8,159.8,159.8,0,0,0-18.75,1.66,1.51,1.51,0,0,0-1.23,1.74,1.49,1.49,0,0,0,1.7,1.23,149.54,149.54,0,0,1,19.46-1.65,66.81,66.81,0,0,1,3.21,10.53c-1.8.52-6.23,1.79-13.32,3.54a1.51,1.51,0,0,0,.71,2.93c6.75-1.7,11.1-2.88,13.13-3.5a65.72,65.72,0,0,1,.9,9.07c-1.8,1.42-9.07,7.22-16.25,12.42a1.46,1.46,0,0,0-.33,2.08,1.51,1.51,0,0,0,1.7.56,1,1,0,0,0,.38-.23c5.71-4.11,11.38-8.5,14.45-11-.05,1.37-.05,2.74-.19,4.11-4,3.68-36.6,32.87-59.5,41C146.66,114.34,146.56,114.34,146.47,114.39Zm-13.55-.76a1.46,1.46,0,0,0,.94-1.65,1.43,1.43,0,0,0-1.7-1.27,1.51,1.51,0,0,0-1.23,1.74,1.46,1.46,0,0,0,1.7,1.23C132.73,113.68,132.82,113.63,132.92,113.63Zm5.1-4a1.58,1.58,0,0,0-1.19,1.79,1.51,1.51,0,0,0,1.8,1.14.27.27,0,0,0,.19,0,1.48,1.48,0,0,0,1-1.7A1.54,1.54,0,0,0,138,109.62Zm15.53-25.26A1.51,1.51,0,0,0,151.62,82c-10.16,8.74-26.87,9.35-27.06,9.35A1.59,1.59,0,0,0,123.09,93a1.54,1.54,0,0,0,1.56,1.47A60,60,0,0,0,141,91.25,39,39,0,0,0,153.55,84.36Z"/><path class="cls-2" d="M187.83,81.43a1.5,1.5,0,0,1-.23,2.12l-3.78,2.93a1.12,1.12,0,0,1-.43.24,1.42,1.42,0,0,1-1.65-.47,1.51,1.51,0,0,1,.24-2.13l3.78-2.93A1.48,1.48,0,0,1,187.83,81.43Z"/><path class="cls-2" d="M151.24,107.07a1.33,1.33,0,0,1,.14.57,1.54,1.54,0,0,1-.95,1.37.14.14,0,0,1-.09,0,1.52,1.52,0,0,1-1.89-.85,1.47,1.47,0,0,1,.8-1.93A1.5,1.5,0,0,1,151.24,107.07Z"/><path class="cls-2" d="M145.62,109.2a1.53,1.53,0,0,1-1,1.88h-.09a1.49,1.49,0,0,1-1.84-1,1.51,1.51,0,0,1,1-1.85A1.55,1.55,0,0,1,145.62,109.2Z"/><path class="cls-2" d="M136.83,111.41a1.58,1.58,0,0,1,1.19-1.79,1.54,1.54,0,0,1,1.79,1.18,1.48,1.48,0,0,1-1,1.7.27.27,0,0,1-.19,0A1.51,1.51,0,0,1,136.83,111.41Z"/><path class="cls-2" d="M133.86,112a1.46,1.46,0,0,1-.94,1.65c-.1,0-.19.05-.29.05a1.46,1.46,0,0,1-1.7-1.23,1.51,1.51,0,0,1,1.23-1.74A1.43,1.43,0,0,1,133.86,112Z"/><path class="cls-2" d="M141,91.25a60,60,0,0,1-16.39,3.17A1.54,1.54,0,0,1,123.09,93a1.59,1.59,0,0,1,1.47-1.56c.19,0,16.9-.61,27.06-9.35a1.51,1.51,0,0,1,1.93,2.32A39,39,0,0,1,141,91.25Z"/><path class="cls-2" d="M124.94,113.21a1.48,1.48,0,0,1,1.32-1.65,1.42,1.42,0,0,1,1.65,1.27,1.51,1.51,0,0,1-1,1.61,2.29,2.29,0,0,0-.28.09A1.53,1.53,0,0,1,124.94,113.21Z"/><path class="cls-2" d="M122,31.09a75.06,75.06,0,0,1,18.51-2.93A1.53,1.53,0,0,1,142,29.58,1.48,1.48,0,0,1,141,31a1,1,0,0,1-.42.1,82.36,82.36,0,0,0-17.76,2.79,1.48,1.48,0,1,1-.85-2.84Z"/><path class="cls-2" d="M118.94,113.78a1.52,1.52,0,1,1,3-.29,1.54,1.54,0,0,1-1,1.56.69.69,0,0,1-.38.1A1.55,1.55,0,0,1,118.94,113.78Z"/><path class="cls-2" d="M114.36,112.55a1.45,1.45,0,0,1,1.56,1.41,1.55,1.55,0,0,1-1,1.52,1.58,1.58,0,0,1-.42.09,1.56,1.56,0,0,1-1.56-1.46A1.48,1.48,0,0,1,114.36,112.55Z"/><path class="cls-2" d="M108.41,112.74a1.52,1.52,0,0,1,1.51,1.51,1.46,1.46,0,0,1-1,1.41.73.73,0,0,1-.47.1,1.51,1.51,0,0,1-1.51-1.46,1.55,1.55,0,0,1,1.46-1.56Z"/><path class="cls-2" d="M78.33,73.12,74.27,75.9a1,1,0,0,1-.33.19,1.56,1.56,0,0,1-1.75-.56,1.51,1.51,0,0,1,.38-2.08l4.06-2.79a1.47,1.47,0,0,1,2.08.38A1.52,1.52,0,0,1,78.33,73.12Z"/><path class="cls-2" d="M63.78,120.72c-3.25-4.11-17.23-23-17.47-47a25.13,25.13,0,0,0-26.16-4.4C6.36,74.77-.2,90.92,4.57,107.64,9.05,123.55,22,140.08,38.1,140.88c13.22.71,23.56-9.87,25.59-20C63.69,120.76,63.74,120.76,63.78,120.72Zm129-97.66c11.57,11.57,18.09,31.08,16.48,49.63,12.42,6.47,23,6,31.36-1.32,12.09-10.58,12-31.59,5.71-46.89-6.66-16-21.82-24.65-36-20.4C195.53,8.52,193.07,21.18,192.79,23.06Zm-82,2.08c25.78-9.63,59.45-5.95,75.64-4.15,1.37.14,2.55.28,3.64.37A27.51,27.51,0,0,1,209.46,1.2c15.73-4.67,32.39,4.63,39.67,22.15,6.7,16.24,6.61,38.77-6.52,50.29a26.33,26.33,0,0,1-8.74,5.19c-7.55,2.6-16.19,1.51-25.64-3.3-4.15,3.82-36.69,33.1-60.49,41.6-.09.05-.19.05-.28.09-19.83,6.9-62.57,5.76-81,4.87a29.43,29.43,0,0,1-18.51,20.4,25.75,25.75,0,0,1-10,1.41C20.48,143,6.46,125.39,1.64,108.44-3.51,90.21,3.77,72.55,19.07,66.51c14.16-5.67,25.07,1.6,28.38,4.25C52.36,65.61,81.3,36.24,110.82,25.14Zm-44.49,94c14.64.66,60.21,2.17,80.14-4.72.09,0,.19,0,.28-.09,22.9-8.17,55.49-37.36,59.5-41,.14-1.37.14-2.74.19-4.11-3.07,2.46-8.74,6.85-14.45,11a1,1,0,0,1-.38.23,1.51,1.51,0,0,1-1.7-.56,1.46,1.46,0,0,1,.33-2.08c7.18-5.2,14.45-11,16.25-12.42a65.72,65.72,0,0,0-.9-9.07c-2,.62-6.38,1.8-13.13,3.5a1.51,1.51,0,0,1-.71-2.93c7.09-1.75,11.52-3,13.32-3.54a66.81,66.81,0,0,0-3.21-10.53,149.54,149.54,0,0,0-19.46,1.65,1.49,1.49,0,0,1-1.7-1.23,1.51,1.51,0,0,1,1.23-1.74,159.8,159.8,0,0,1,18.75-1.66,63.42,63.42,0,0,0-4.58-8C171.92,29.68,150.81,30,150.62,30a1.5,1.5,0,0,1-1.51-1.52A1.46,1.46,0,0,1,150.58,27c.19,0,20-.28,43.2,1.56A45.33,45.33,0,0,0,190,24.39c-1.14-.1-2.46-.24-3.88-.43-16-1.75-49.2-5.52-74.28,4C82.25,39.12,53,69.25,49.29,73.21a55.34,55.34,0,0,0,.37,6.24C56.42,72.32,83.38,45.21,112,34.11A1.52,1.52,0,0,1,113,37C80.83,49.41,50.56,82.89,50.23,83.22a0,0,0,0,0,0,0c.33,2,.76,4.06,1.28,6,2-1.61,8.36-6.57,14.45-11a1.52,1.52,0,0,1,1.79,2.45C60.38,86,52.69,92.15,52.64,92.2a.88.88,0,0,1-.28.18,74.53,74.53,0,0,0,4,10.2c1.33-.14,10.11-1.27,18.37-2.78A1.47,1.47,0,0,1,76.44,101a1.49,1.49,0,0,1-1,1.7.27.27,0,0,1-.19,0c-7.13,1.32-14.64,2.36-17.57,2.73,1.66,3.17,3.26,5.86,4.68,8.08.14-.05.23-.14.38-.14s19.45.94,29.79.71a1.45,1.45,0,0,1,1.51,1.46,1.46,1.46,0,0,1-1,1.46,1.36,1.36,0,0,1-.47,0c-8.55.24-23.14-.38-28.19-.57C65.25,117.7,66,118.59,66.33,119.11Z"/></g></g></svg>