<svg xmlns="http://www.w3.org/2000/svg" viewBox="0 0 124.06 140.81"><defs><style>.cls-1{fill:#fff;}.cls-2{fill:#e7dfdd;}.cls-3{fill:#111;}</style></defs><title>10</title><g id="Layer_2" data-name="Layer 2"><g id="Layer_4" data-name="Layer 4"><path class="cls-1" d="M89.73,114.27a1.5,1.5,0,0,0-2.36,1.85l7.41,9.44a1.67,1.67,0,0,0,1.18.57h.1a1.62,1.62,0,0,0,1.22-.76l11-18.7a1.53,1.53,0,0,0-.52-2.08,1.5,1.5,0,0,0-2.08.57l-9.87,16.76Zm9.25,22a22.13,22.13,0,0,1-22.1-22.1V114A22.1,22.1,0,1,1,99,136.23Z"/><path class="cls-2" d="M109,63.37a1.49,1.49,0,1,0-3-.09l-.19,4.34a1.59,1.59,0,0,0,1.47,1.56h0a1.55,1.55,0,0,0,1.52-1.47ZM48.65,84.19a4.1,4.1,0,0,0,4.06,4.07h12.7a4.1,4.1,0,0,0,4.06-4.07V74h10.2a4,4,0,0,0,4.06-4.06V57.14a4.06,4.06,0,0,0-4.06-4.06H69.47V42.83a4.09,4.09,0,0,0-4.06-4.06H52.71a4.09,4.09,0,0,0-4.06,4.06V53.08H38.45a4.06,4.06,0,0,0-4.06,4.06V69.89A4,4,0,0,0,38.45,74h10.2ZM11.34,10.39c.24-.1,23.28-7.32,46.37-7.37H58c22.95,0,46.47,7,46.89,7.13a10.22,10.22,0,0,1,8.27,10l-2.32,72.06A30.76,30.76,0,0,0,108,90.76l.57-16.86a1.48,1.48,0,0,0-1.42-1.56,1.5,1.5,0,0,0-1.56,1.47l-.56,16c-1-.23-1.89-.38-2.88-.52l2-60.72c.09-5.1-3.83-9.92-8.55-10.77C95.39,17.8,76.36,12,57.76,12c-18,.05-35.51,5.48-37.16,6.05a10.66,10.66,0,0,0-8.55,10.67l.14,10a1.6,1.6,0,0,0,1.56,1.51,1.56,1.56,0,0,0,1.46-1.56l-.14-10.06A7.6,7.6,0,0,1,21.21,21a.33.33,0,0,0,.19,0c.19,0,18.27-5.86,36.41-5.91H58c18,0,36.5,5.62,36.88,5.72a7.9,7.9,0,0,1,6.24,7.74l-2,60.54S99,89,99,89a25,25,0,0,0-25,24.08l-10.1,8.08c-2.13,2.08-6.38,3-10.53,0L21.16,95.15a14.54,14.54,0,0,1-4.67-9.49l-.9-34.38a1.49,1.49,0,1,0-3,0l.85,34.42a17.83,17.83,0,0,0,5.8,11.76l32.3,26.11a12.84,12.84,0,0,0,7.37,2.46,10.06,10.06,0,0,0,6.94-2.64l8.27-6.62a22.92,22.92,0,0,0,.66,3.69l-8.93,7.08a1.51,1.51,0,0,0-.23,2.13,1.43,1.43,0,0,0,1.18.56,1.2,1.2,0,0,0,.89-.33l8-6.37a28.64,28.64,0,0,0,1.51,2.92c-3.59,2.84-11.38,8.79-11.43,8.79a11.19,11.19,0,0,1-14,.14L10.92,103.08A18.6,18.6,0,0,1,4.78,91L3,20.31a9.9,9.9,0,0,1,8.17-9.87S11.29,10.39,11.34,10.39Z"/><path class="cls-3" d="M108.81,67.71a1.55,1.55,0,0,1-1.52,1.47h0a1.59,1.59,0,0,1-1.47-1.56l.19-4.34a1.49,1.49,0,1,1,3,.09Z"/><path class="cls-3" d="M97.28,125.37a1.62,1.62,0,0,1-1.22.76H96a1.67,1.67,0,0,1-1.18-.57l-7.41-9.44a1.5,1.5,0,0,1,2.36-1.85l6,7.65,9.87-16.76a1.5,1.5,0,0,1,2.08-.57,1.53,1.53,0,0,1,.52,2.08Z"/><path class="cls-3" d="M48.65,42.83a4.09,4.09,0,0,1,4.06-4.06h12.7a4.09,4.09,0,0,1,4.06,4.06V53.08h10.2a4.06,4.06,0,0,1,4.06,4.06V69.89A4,4,0,0,1,79.67,74H69.47V84.19a4.1,4.1,0,0,1-4.06,4.07H52.71a4.1,4.1,0,0,1-4.06-4.07V74H38.45a4,4,0,0,1-4.06-4.06V57.14a4.06,4.06,0,0,1,4.06-4.06h10.2Zm4.06-1a1,1,0,0,0-1,1V54.59a1.52,1.52,0,0,1-1.51,1.51H38.45a1,1,0,0,0-1.09,1V69.89a1,1,0,0,0,1.09,1H50.16a1.51,1.51,0,0,1,1.51,1.51V84.19a1,1,0,0,0,1,1h12.7a1,1,0,0,0,1-1V72.44A1.51,1.51,0,0,1,68,70.93H79.67a1,1,0,0,0,1.09-1V57.14a1,1,0,0,0-1.09-1H68a1.52,1.52,0,0,1-1.51-1.51V42.83a1,1,0,0,0-1-1Z"/><path class="cls-3" d="M76.88,114.13a22.06,22.06,0,1,0,0-.09v.09ZM57.81,15.06c-18.14,0-36.22,5.86-36.41,5.91a.33.33,0,0,1-.19,0,7.6,7.6,0,0,0-6.14,7.65l.14,10.06a1.56,1.56,0,0,1-1.46,1.56,1.6,1.6,0,0,1-1.56-1.51l-.14-10A10.66,10.66,0,0,1,20.6,18.09c1.65-.57,19.12-6,37.16-6.05,18.6-.09,37.63,5.76,37.87,5.81,4.72.85,8.64,5.67,8.55,10.77l-2,60.72c1,.14,1.93.29,2.88.52l.56-16a1.5,1.5,0,0,1,1.56-1.47,1.48,1.48,0,0,1,1.42,1.56L108,90.76a30.76,30.76,0,0,1,2.88,1.42l2.32-72.06a10.22,10.22,0,0,0-8.27-10C104.51,10,81,3,58,3h-.33c-23.09,0-46.13,7.27-46.37,7.37-.05,0-.14,0-.19,0A9.9,9.9,0,0,0,3,20.31L4.78,91a18.6,18.6,0,0,0,6.14,12.09l40.89,32.35a11.19,11.19,0,0,0,14-.14s7.84-5.95,11.43-8.79a28.64,28.64,0,0,1-1.51-2.92l-8,6.37a1.2,1.2,0,0,1-.89.33,1.43,1.43,0,0,1-1.18-.56,1.51,1.51,0,0,1,.23-2.13l8.93-7.08a22.92,22.92,0,0,1-.66-3.69l-8.27,6.62a10.06,10.06,0,0,1-6.94,2.64,12.84,12.84,0,0,1-7.37-2.46L19.27,97.51a17.83,17.83,0,0,1-5.8-11.76l-.85-34.42a1.49,1.49,0,1,1,3,0l.9,34.38a14.54,14.54,0,0,0,4.67,9.49l32.21,26.07c4.15,2.92,8.4,2,10.53,0L74,113.09A25,25,0,0,1,99,89s.1,0,.15,0l2-60.54a7.9,7.9,0,0,0-6.24-7.74c-.38-.1-18.84-5.72-36.88-5.72ZM10.54,7.46C12.33,6.94,35,.05,57.71,0H58c23.42,0,47.32,7.13,47.6,7.22a13.33,13.33,0,0,1,10.58,13l-2.41,73.33a1.24,1.24,0,0,1-.09.38,25,25,0,1,1-34.81,35.13c-3.73,2.89-11.19,8.6-11.19,8.6a13.72,13.72,0,0,1-8.78,3.16,15,15,0,0,1-9-3L9,105.44A21.37,21.37,0,0,1,1.8,91.09L0,20.4A13,13,0,0,1,10.54,7.46Z"/></g></g></svg>