<svg xmlns="http://www.w3.org/2000/svg" viewBox="0 0 132.54 122.12"><defs><style>.cls-1{fill:#fff;}.cls-2{fill:#e7dfdd;}.cls-3{fill:#68264a;}.cls-4{fill:#111;}</style></defs><title>8</title><g id="Layer_2" data-name="Layer 2"><g id="Layer_4" data-name="Layer 4"><path class="cls-1" d="M87.74,66a.26.26,0,0,1,.24.28l-.66,13.46L87,80,75.8,79.45h0a1.51,1.51,0,0,0-1.56,1.41l-.57,11.29-.23.23L60,91.72a.31.31,0,0,1-.33-.28l.56-11.24a1.28,1.28,0,0,0-.37-1.08,1.56,1.56,0,0,0-1-.52L47.61,78c-.19,0-.29-.09-.29-.24L48,64.34a.3.3,0,0,1,.24-.29l11.24.57h.14a1.45,1.45,0,0,0,1.41-1.42l.57-11.28a.32.32,0,0,1,.33-.24l13.41.66c.1,0,.14,0,.24.28L75,63.91A1.87,1.87,0,0,0,75.42,65a1.52,1.52,0,0,0,1,.47Z"/><path class="cls-2" d="M86.75,4.65a14.91,14.91,0,0,1,14.17,15.53l-.38,7.28c-.47-.05-1-.15-1.56-.24l.24-5.81a1.56,1.56,0,0,0-1.47-1.56,1.52,1.52,0,0,0-1.55,1.47L96,26.8c-.42-.1-.9-.15-1.37-.24l.28-6.66a8.79,8.79,0,0,0-8.4-9.21L51.29,9a8.79,8.79,0,0,0-9.16,8.41L41.8,24.2c-2.55.09-4.63.23-6,.28l.33-7.32A14.83,14.83,0,0,1,51.57,3Z"/><path class="cls-2" d="M58.14,61.55l-9.73-.47h-.19a3.15,3.15,0,0,0-2.13.8A3.34,3.34,0,0,0,45,64.15L44.35,77.6a3.23,3.23,0,0,0,3.07,3.45l9.72.47-.47,9.78a3.33,3.33,0,0,0,3.17,3.45l13.36.66h0a3.25,3.25,0,0,0,2.31-.85,3.18,3.18,0,0,0,1.09-2.27l.47-9.77,9.77.52a3.56,3.56,0,0,0,2.36-.85,3.33,3.33,0,0,0,1.09-2.27L91,66.46a3.08,3.08,0,0,0-.85-2.36A3.16,3.16,0,0,0,87.89,63l-9.78-.47.52-9.77a3.6,3.6,0,0,0-.85-2.36,3.31,3.31,0,0,0-2.27-1.09L62.1,48.66H62a3.36,3.36,0,0,0-3.4,3.11ZM31,34.16a1.52,1.52,0,0,0-.61-3A1.57,1.57,0,0,0,29.24,33a1.5,1.5,0,0,0,1.41,1.18A1,1,0,0,0,31,34.16Zm-16.9,15a1.45,1.45,0,0,0,1.41,1.56,1.5,1.5,0,0,0,1.61-1.42,1.52,1.52,0,0,0-1.42-1.56A1.49,1.49,0,0,0,14.13,49.13Zm3-4.25A1.51,1.51,0,0,0,17.76,42a1.53,1.53,0,0,0-2,.8,1.56,1.56,0,0,0,.75,2A2.82,2.82,0,0,0,17.1,44.88Zm3.21-5.05a1.45,1.45,0,0,0,1.18-.47,1.52,1.52,0,1,0-2.26-2,1.53,1.53,0,0,0,.14,2.12A1.28,1.28,0,0,0,20.31,39.83Zm3.45-4.44a1.41,1.41,0,0,0,1.23.75,2.1,2.1,0,0,0,.8-.14,1.58,1.58,0,0,0,.61-2.07,1.52,1.52,0,0,0-2-.62A1.55,1.55,0,0,0,23.76,35.39ZM92.47,114a1.48,1.48,0,0,0,1.41,1.56h.05c1.56.05,3,.05,4.49,0a1.49,1.49,0,1,0-.1-3c-1.37,0-2.83,0-4.3,0A1.44,1.44,0,0,0,92.47,114Zm24.41,1.84c-6.75,2.88-25.36,4-49.72,2.79-19.88-.9-39.58-2.27-49-6-6.47-2.6-17.1-8.79-14.88-20.88l8.5-46.6C13.56,35.48,22.06,28.78,34,27.64a335.41,335.41,0,0,1,35.08-.51,276.52,276.52,0,0,1,33.06,3.68c9.58,1.79,19.88,8.55,21.25,19.45l5.9,46.52c-.05.09-.14.09-.14.14s-3.92,11.76-22.81,14.92l-2,.28a1.52,1.52,0,0,0-1.33,1.7,1.48,1.48,0,0,0,1.42,1.28c.09.05.19,0,.28,0l2.13-.29c12.7-2.12,19.22-7.83,22.38-12C128.26,108.3,124.1,112.74,116.88,115.85Z"/><path class="cls-3" d="M98.42,115.57c-1.47.05-2.93.05-4.49,0h-.05A1.48,1.48,0,0,1,92.47,114,1.44,1.44,0,0,1,94,112.6c1.47,0,2.93,0,4.3,0a1.49,1.49,0,1,1,.1,3Z"/><path class="cls-4" d="M88,66.32a.26.26,0,0,0-.24-.28l-11.28-.57a1.52,1.52,0,0,1-1-.47A1.87,1.87,0,0,1,75,63.91l.57-11.29c-.1-.23-.14-.28-.24-.28L62,51.68a.32.32,0,0,0-.33.24L61.06,63.2a1.45,1.45,0,0,1-1.41,1.42h-.14l-11.24-.57a.3.3,0,0,0-.24.29l-.71,13.45c0,.15.1.24.29.24l11.19.57a1.56,1.56,0,0,1,1,.52,1.28,1.28,0,0,1,.37,1.08l-.56,11.24a.31.31,0,0,0,.33.28l13.41.66.23-.23.57-11.29a1.51,1.51,0,0,1,1.56-1.41h0L87,80l.28-.23Zm2.17-2.22A3.08,3.08,0,0,1,91,66.46l-.66,13.46a3.33,3.33,0,0,1-1.09,2.27,3.56,3.56,0,0,1-2.36.85l-9.77-.52-.47,9.77a3.18,3.18,0,0,1-1.09,2.27,3.25,3.25,0,0,1-2.31.85h0l-13.36-.66a3.33,3.33,0,0,1-3.17-3.45l.47-9.78-9.72-.47a3.23,3.23,0,0,1-3.07-3.45L45,64.15a3.34,3.34,0,0,1,1.08-2.27,3.15,3.15,0,0,1,2.13-.8h.19l9.73.47.47-9.78A3.36,3.36,0,0,1,62,48.66h.09l13.41.66a3.31,3.31,0,0,1,2.27,1.09,3.6,3.6,0,0,1,.85,2.36l-.52,9.77,9.78.47A3.16,3.16,0,0,1,90.15,64.1Z"/><path class="cls-4" d="M32.21,32.37A1.52,1.52,0,0,1,31,34.16a1,1,0,0,1-.38,0A1.5,1.5,0,0,1,29.24,33a1.57,1.57,0,0,1,1.18-1.79A1.53,1.53,0,0,1,32.21,32.37Z"/><path class="cls-4" d="M25,36.14a1.41,1.41,0,0,1-1.23-.75,1.55,1.55,0,0,1,.61-2.08,1.52,1.52,0,0,1,2,.62A1.58,1.58,0,0,1,25.79,36,2.1,2.1,0,0,1,25,36.14Z"/><path class="cls-4" d="M19.23,37.33a1.52,1.52,0,1,1,2.26,2,1.45,1.45,0,0,1-1.18.47,1.28,1.28,0,0,1-.94-.38A1.53,1.53,0,0,1,19.23,37.33Z"/><path class="cls-4" d="M15.73,47.71a1.52,1.52,0,0,1,1.42,1.56,1.5,1.5,0,0,1-1.61,1.42,1.45,1.45,0,0,1-1.41-1.56A1.49,1.49,0,0,1,15.73,47.71Z"/><path class="cls-4" d="M18.52,44a1.48,1.48,0,0,1-1.42.9,2.82,2.82,0,0,1-.57-.09,1.56,1.56,0,0,1-.75-2,1.53,1.53,0,0,1,2-.8A1.46,1.46,0,0,1,18.52,44Z"/><path class="cls-4" d="M102.15,30.81a276.52,276.52,0,0,0-33.06-3.68A335.41,335.41,0,0,0,34,27.64c-11.95,1.14-20.45,7.84-22.2,17.48l-8.5,46.6C1.09,103.81,11.72,110,18.19,112.6c9.39,3.77,29.09,5.14,49,6,24.36,1.18,43,.09,49.72-2.79,7.22-3.11,11.38-7.55,12.37-13.08-3.16,4.21-9.68,9.92-22.38,12l-2.13.29c-.09,0-.19.05-.28,0a1.48,1.48,0,0,1-1.42-1.28,1.52,1.52,0,0,1,1.33-1.7l2-.28c18.89-3.16,22.76-14.78,22.81-14.92s.09,0,.14-.14l-5.9-46.52C122,39.36,111.73,32.6,102.15,30.81ZM91.57,26.18l.33-6.42a5.85,5.85,0,0,0-5.57-6.09L51.15,12.06a5.73,5.73,0,0,0-6,5.53l-.33,6.47c6.75-.24,15.72-.38,24.41,0C77.45,24.48,85.43,25.38,91.57,26.18ZM86.89,1.67a17.84,17.84,0,0,1,17,18.66l-.37,7.74c10.43,2.22,21.34,9.73,22.85,21.82l6,47.5c1.18,9.3-3.78,16.67-14.31,21.2-7.23,3.12-25.83,4.25-51,3.07-27.53-1.27-42-3.11-49.91-6.28C4.54,110.38-1.55,101.55.34,91.16L8.84,44.6C10.77,34,20.12,26.37,32.73,24.81L33.11,17A17.83,17.83,0,0,1,51.71,0Zm14,18.51A14.91,14.91,0,0,0,86.75,4.65L51.57,3A14.83,14.83,0,0,0,36.08,17.16l-.33,7.32c1.42-.05,3.5-.19,6-.28l.33-6.75A8.79,8.79,0,0,1,51.29,9l35.18,1.65a8.79,8.79,0,0,1,8.4,9.21l-.28,6.66c.47.09,1,.14,1.37.24l.24-5.48a1.52,1.52,0,0,1,1.55-1.47,1.56,1.56,0,0,1,1.47,1.56L99,27.22c.57.09,1.09.19,1.56.24Z"/></g></g></svg>