<svg xmlns="http://www.w3.org/2000/svg" viewBox="0 0 480 496">
  <defs>
    <style>
      .be21c559-c1c3-4998-a46e-a592d4e4a96b {
        fill: #fff;
      }
    </style>
  </defs>
  <title>1</title>
  <g id="ffb2eec9-4f63-4b17-955a-33464409dbb2" data-name="Layer 2">
    <g id="bc35b39b-4268-4207-bfe8-eaf871aa4a78" data-name="Layer 1">
      <g>
        <path class="be21c559-c1c3-4998-a46e-a592d4e4a96b" d="M32,368v64c0,42,104.6,64,208,64s208-22,208-64V368c0-36.2-77.4-51.9-110.8-57l-2.4,16c66.8,10,97.2,28.4,97.2,41,0,20.1-73,48-192,48S48,388.1,48,368c0-13.9,36.1-32.9,105.1-42.4l-2.2-16C115.1,314.6,32,330.2,32,368Zm360,45a134.5,134.5,0,0,0,40-18.8V432c0,8.8-14.1,19.1-40,27.9Zm-72,14.4a440.4,440.4,0,0,0,56-9.9v47.2a425.5,425.5,0,0,1-56,10.7ZM248,432c19,0,37.8-1.1,56-2.8v48c-17.2,1.7-35.9,2.6-56,2.9Zm-72-2.8c18.2,1.7,37,2.6,56,2.8v48c-20.1,0-38.8-1.2-56-2.9Zm-72-11.6a440.4,440.4,0,0,0,56,9.9v48a409.5,409.5,0,0,1-56-10.6ZM48,394.2A134.5,134.5,0,0,0,88,413v46.9c-25.9-8.8-40-19.1-40-27.9Z"/>
        <path class="be21c559-c1c3-4998-a46e-a592d4e4a96b" d="M472,0H8A8,8,0,0,0,0,8V264a8,8,0,0,0,8,8H472a8,8,0,0,0,8-8V8A8,8,0,0,0,472,0Zm-8,256H16V16H464Z"/>
        <path class="be21c559-c1c3-4998-a46e-a592d4e4a96b" d="M120,139.3,156.7,176l-42.4,42.3,11.4,11.4L288,67.3,442.3,221.7l11.4-11.4-160-160a8,8,0,0,0-11.3,0h-.1L168,164.7l-42.3-42.4a8,8,0,0,0-11.3,0h-.1l-88,88,11.4,11.4Z"/>
        <path class="be21c559-c1c3-4998-a46e-a592d4e4a96b" d="M96,96A32,32,0,1,0,64,64,32,32,0,0,0,96,96Zm0-48A16,16,0,1,1,80,64,16,16,0,0,1,96,48Z"/>
        <circle class="be21c559-c1c3-4998-a46e-a592d4e4a96b" cx="240" cy="296" r="8"/>
        <circle class="be21c559-c1c3-4998-a46e-a592d4e4a96b" cx="240" cy="328" r="8"/>
        <circle class="be21c559-c1c3-4998-a46e-a592d4e4a96b" cx="240" cy="360" r="8"/>
        <circle class="be21c559-c1c3-4998-a46e-a592d4e4a96b" cx="272" cy="360" r="8"/>
        <circle class="be21c559-c1c3-4998-a46e-a592d4e4a96b" cx="272" cy="328" r="8"/>
        <circle class="be21c559-c1c3-4998-a46e-a592d4e4a96b" cx="272" cy="296" r="8"/>
        <circle class="be21c559-c1c3-4998-a46e-a592d4e4a96b" cx="304" cy="360" r="8"/>
        <circle class="be21c559-c1c3-4998-a46e-a592d4e4a96b" cx="304" cy="328" r="8"/>
        <circle class="be21c559-c1c3-4998-a46e-a592d4e4a96b" cx="304" cy="296" r="8"/>
        <circle class="be21c559-c1c3-4998-a46e-a592d4e4a96b" cx="336" cy="360" r="8"/>
        <circle class="be21c559-c1c3-4998-a46e-a592d4e4a96b" cx="336" cy="296" r="8"/>
        <circle class="be21c559-c1c3-4998-a46e-a592d4e4a96b" cx="144" cy="360" r="8"/>
        <circle class="be21c559-c1c3-4998-a46e-a592d4e4a96b" cx="144" cy="296" r="8"/>
        <circle class="be21c559-c1c3-4998-a46e-a592d4e4a96b" cx="208" cy="360" r="8"/>
        <circle class="be21c559-c1c3-4998-a46e-a592d4e4a96b" cx="208" cy="328" r="8"/>
        <circle class="be21c559-c1c3-4998-a46e-a592d4e4a96b" cx="208" cy="296" r="8"/>
        <circle class="be21c559-c1c3-4998-a46e-a592d4e4a96b" cx="176" cy="360" r="8"/>
        <circle class="be21c559-c1c3-4998-a46e-a592d4e4a96b" cx="176" cy="328" r="8"/>
        <circle class="be21c559-c1c3-4998-a46e-a592d4e4a96b" cx="176" cy="296" r="8"/>
      </g>
    </g>
  </g>
</svg>
