<svg xmlns="http://www.w3.org/2000/svg" viewBox="0 0 352 479.9">
  <defs>
    <style>
      .a50e7954-82d1-4d91-a973-7c826537330f {
        fill: #fff;
      }
    </style>
  </defs>
  <title>2</title>
  <g id="ace219f4-8414-4f12-8dc8-b23974536573" data-name="Layer 2">
    <g id="a35c185e-8176-424e-87c8-0340df8ad5f2" data-name="Layer 1">
      <g id="b79b37ca-eb8e-4b98-93a4-3bf7eb7afbb0" data-name="outline">
        <path class="a50e7954-82d1-4d91-a973-7c826537330f" d="M300.4,51.5c-68.6-68.7-180.2-68.7-248.9,0s-68.7,180.1,0,248.9c4,3.9,8.2,7.7,12.5,11.3V451.9a28,28,0,0,0,28,28H260a28,28,0,0,0,28-28V311.7h0c4.3-3.6,8.5-7.4,12.4-11.3,68.8-68.8,68.8-180.2,0-248.9Zm-5.8,231.8-5.6-5.7-1-.8V266.4a143.9,143.9,0,0,0-4.7-186.5l11.4-11.3a160.1,160.1,0,0,1,0,214.7ZM176,167.1l-57.1-33,57.1-33,57.1,33Zm-63-17.9,55,31.7v11H113Zm71,31.7,55-31.7v42.7H184ZM251,126,180,85a8.1,8.1,0,0,0-8,0l-71,41a7.8,7.8,0,0,0-4,6.9v59H92a28,28,0,0,0-28,28v18a128,128,0,1,1,224,0v-18a28,28,0,0,0-28-28h-5v-59a7.9,7.9,0,0,0-4-6.9Zm32.3-68.7L272,68.6a144.2,144.2,0,0,0-192,0L68.7,57.3c60.7-55.1,153.9-55.1,214.6,0ZM57.3,68.6,68.7,79.9A143.9,143.9,0,0,0,64,266.4v10.2l-6.7,6.7a160.1,160.1,0,0,1,0-214.7ZM272,451.9a12,12,0,0,1-12,12H92a12,12,0,0,1-12-12v-232a12,12,0,0,1,12-12H260a12,12,0,0,1,12,12Z"/>
        <path class="a50e7954-82d1-4d91-a973-7c826537330f" d="M248,222.3H104a8,8,0,0,0-8,8V345.5a8,8,0,0,0,8,8H248a8,8,0,0,0,8-8V230.3A8,8,0,0,0,248,222.3Zm-84.7,57.6H184a9,9,0,0,0,3.6-.8l4.4-2.2v7a8.1,8.1,0,0,0,3.2,6.4,55.9,55.9,0,0,1,19.5,27.1l6.2,18.5H176v-11l11.6-5.8a8,8,0,0,0-7.1-14.4h-.1l-14.3,7.1H144V299.2ZM240,337.5h-1.7l-8.4-25.1A72,72,0,0,0,208,280.1V263.9a8,8,0,0,0-8-8,7.7,7.7,0,0,0-3.6.9l-14.3,7.1H163.3l-13.6-13.6a8,8,0,0,0-11.4,11.3l10.4,10.3-18.4,18.4a7.9,7.9,0,0,0-2.3,5.6v24a8,8,0,0,0,8,8h24v9.6H112V238.3H240Z"/>
        <path class="a50e7954-82d1-4d91-a973-7c826537330f" d="M248,399.9H104a8,8,0,0,0-8,8v32a8,8,0,0,0,8,8H248a8,8,0,0,0,8-8v-32A8,8,0,0,0,248,399.9Zm-136,16h88v16H112Zm128,16H216v-16h24Z"/>
        <path class="a50e7954-82d1-4d91-a973-7c826537330f" d="M158,383.9a8,8,0,0,0,0-16H136a8,8,0,0,0,0,16Z"/>
        <path class="a50e7954-82d1-4d91-a973-7c826537330f" d="M248,367.9H192a8,8,0,0,0,0,16h56a8,8,0,0,0,0-16Z"/>
        <circle class="a50e7954-82d1-4d91-a973-7c826537330f" cx="168" cy="292.9" r="6"/>
      </g>
    </g>
  </g>
</svg>
