<svg xmlns="http://www.w3.org/2000/svg" viewBox="0 0 512 512">
  <defs>
    <style>
      .fd191199-f31f-4347-ab3c-51b25e632e15 {
        fill: #fff;
      }
    </style>
  </defs>
  <title>3</title>
  <g id="f57911f6-8593-45f6-9126-612d75cba469" data-name="Layer 2">
    <g id="a71757af-9243-4593-a9c9-a0993d5636b9" data-name="Layer 1">
      <g>
        <path class="fd191199-f31f-4347-ab3c-51b25e632e15" d="M485.7,178.3A8.1,8.1,0,0,0,480,176H459.3l-12.5-12.5a16,16,0,0,0-2.8-18.8L367.3,68a16,16,0,0,0-18.7-2.8L336,52.7V32a8.1,8.1,0,0,0-2.3-5.7l-24-24a8.1,8.1,0,0,0-11.4,0l-96,96a8.1,8.1,0,0,0,0,11.4l24,24A8.1,8.1,0,0,0,232,136h20.7l12.5,12.6a15.8,15.8,0,0,0,2.8,18.7L280.7,180l-18.4,18.3a8.1,8.1,0,0,0-2.1,7.3l2,10.4H256a8.1,8.1,0,0,0-5.7,2.3L9,459.7A30.6,30.6,0,1,0,52.3,503L293.7,261.7A8.1,8.1,0,0,0,296,256v-6.2l10.4,2a4.7,4.7,0,0,0,1.6.2,8.3,8.3,0,0,0,5.7-2.3L332,231.3,344.7,244a15.7,15.7,0,0,0,18.7,2.8L376,259.3V280a8.1,8.1,0,0,0,2.3,5.7l24,24a8.2,8.2,0,0,0,11.4,0l96-96a8.1,8.1,0,0,0,0-11.4ZM336.7,76,276,136.7l-8.7-8.7L328,67.3ZM219.3,104,304,19.3l16,16V52.7L252.7,120H235.3ZM280,252.7,41,491.7A15,15,0,0,1,30.6,496,14.7,14.7,0,0,1,16,481.4,15,15,0,0,1,20.3,471l239-239h9.4L280,243.3Zm25.4-17.4-13.5-2.7-12.5-12.5-2.7-13.5L292,191.3,320.7,220ZM279.3,156,356,79.3,432.7,156,356,232.7Zm96,80L436,175.3l8.7,8.7L384,244.7ZM408,292.7l-16-16V259.3L459.3,192h17.4l16,16Z"/>
        <path class="fd191199-f31f-4347-ab3c-51b25e632e15" d="M464,472H248a24.1,24.1,0,0,0-24,24v8a8,8,0,0,0,8,8H480a8,8,0,0,0,8-8v-8A24.1,24.1,0,0,0,464,472ZM240,496a8,8,0,0,1,8-8H464a8,8,0,0,1,8,8Z"/>
        <path class="fd191199-f31f-4347-ab3c-51b25e632e15" d="M366.9,350.8c-2.9-4.8-10.9-4.8-13.8,0l-24,40.1a8,8,0,0,0,0,8.2l24,40a8,8,0,0,0,13.7,0l24.1-40a8,8,0,0,0,0-8.2ZM360,419.5,345.3,395,360,370.5,374.7,395Z"/>
        <path class="fd191199-f31f-4347-ab3c-51b25e632e15" d="M471,415a29.5,29.5,0,0,0-3.4,4.5l-15.2-10.2A8.4,8.4,0,0,0,448,408H429.4a70.4,70.4,0,0,0-3.6-38.5l9.5-9.5h14.2a22.8,22.8,0,0,0,5.5,9,24,24,0,1,0,0-34,22.8,22.8,0,0,0-5.5,9H432a8.1,8.1,0,0,0-5.7,2.3l-8.3,8.4a70.5,70.5,0,0,0-116,0l-8.3-8.4A8.1,8.1,0,0,0,288,344H270.5a22.8,22.8,0,0,0-5.5-9,24,24,0,1,0,0,34,22.8,22.8,0,0,0,5.5-9h14.2l9.5,9.5a70.4,70.4,0,0,0-3.6,38.5H272a8.4,8.4,0,0,0-4.4,1.3l-15.2,10.2A29.5,29.5,0,0,0,249,415a24,24,0,0,0-34,34,24.1,24.1,0,0,0,34,0,23.4,23.4,0,0,0,6.5-12.4L274.4,424h21.3a70.5,70.5,0,0,0,128.6,0h21.3l18.8,12.6A24,24,0,1,0,471,415Zm-4.7-68.7a8.2,8.2,0,0,1,11.4,0,8.1,8.1,0,1,1-11.4,0ZM253.7,357.7a8.1,8.1,0,0,1-11.4-11.4,8.2,8.2,0,0,1,11.4,0,8.1,8.1,0,0,1,0,11.4Zm-16,80a8.1,8.1,0,0,1-11.4-11.4,8.2,8.2,0,0,1,11.4,0,8.1,8.1,0,0,1,0,11.4ZM360,449.6A54.7,54.7,0,1,1,414.6,395,54.7,54.7,0,0,1,360,449.6Zm133.7-11.9a8.1,8.1,0,0,1-11.4-11.4,8.2,8.2,0,0,1,11.4,0A8.1,8.1,0,0,1,493.7,437.7Z"/>
        <path class="fd191199-f31f-4347-ab3c-51b25e632e15" d="M374.3,182.3l-12,12a8.1,8.1,0,0,0,0,11.4,8.2,8.2,0,0,0,11.4,0l12-12a8.1,8.1,0,0,0-11.4-11.4Z"/>
        <path class="fd191199-f31f-4347-ab3c-51b25e632e15" d="M413.7,154.3l-48-48a8.1,8.1,0,0,0-11.4,11.4L396.7,160l-2.4,2.3a8.1,8.1,0,0,0,0,11.4,8.2,8.2,0,0,0,11.4,0l8-8A8.1,8.1,0,0,0,413.7,154.3Z"/>
      </g>
    </g>
  </g>
</svg>
