<svg xmlns="http://www.w3.org/2000/svg" viewBox="0 0 496 495.9">
  <defs>
    <style>
      .aa8ce80c-32cf-493e-98da-e23610e425a2 {
        fill: #fff;
      }
    </style>
  </defs>
  <title>4</title>
  <g id="abd2f965-3611-4c64-9247-f3f09020d43f" data-name="Layer 2">
    <g id="b53a31cf-1182-4458-a6ff-9654fc05a4a9" data-name="Layer 1">
      <g>
        <path class="aa8ce80c-32cf-493e-98da-e23610e425a2" d="M248,63l-22.3-9.9-6.5,14.6L240,76.9V99.7h16V76.9l20.8-9.2-6.5-14.6Z"/>
        <path class="aa8ce80c-32cf-493e-98da-e23610e425a2" d="M248,406.6l-20.6-11.4-7.8,13.9L240,420.5v23.2h16V420.5l20.4-11.4-7.8-13.9Z"/>
        <path class="aa8ce80c-32cf-493e-98da-e23610e425a2" d="M492,200.8l-72-40-25-12.6-7.2,14.3,11.5,5.8L344,198.7l-21.3-10.6-7.2,14.3L336,212.7v62.1l-13.4-6.7-7.2,14.3,10.7,5.3-10.7,5.4,7.2,14.3L344,296.8l54.9,30.9-11.5,5.8,7.2,14.3,13.4-7.1v15h16V332.5l67.9-37.8a8.1,8.1,0,0,0,4.1-7v-80a7.9,7.9,0,0,0-4-6.9ZM480,283l-56,31.1V299.7H408v14.4L352,283V221.3l12.6,7.1,8-14-12.1-6.7L416,176.9l32,17.9,24,12.9-12,6.7,8,14,12-7.1Z"/>
        <path class="aa8ce80c-32cf-493e-98da-e23610e425a2" d="M416,238.6l-20.6-11.4-7.8,14L408,252.5v23.2h16V252.5l20.4-11.3-7.8-14Z"/>
        <path class="aa8ce80c-32cf-493e-98da-e23610e425a2" d="M152,296.8l21.3,10.6,7.2-14.3-10.6-5.4,10.7-5.3-7.2-14.3L160,274.8V212.7l20.6-10.3-7.2-14.3L152,198.7,97,168.1l11.5-5.7-7.2-14.3L76.2,160.6l-72,40A8.1,8.1,0,0,0,0,207.7v80a8.1,8.1,0,0,0,4.1,7L72,332.5v23.2H88v-15l13.4,6.7,7.2-14.3-11.5-5.4Zm-80,2.9v14.4L16,283V221.3l12.6,7.1,8-14-12.1-6.7L80,176.9l32,17.9,24,12.9-12,6.7,8,14,12-7.1V283L88,314.1V299.7Z"/>
        <path class="aa8ce80c-32cf-493e-98da-e23610e425a2" d="M88,252.5l20.3-11.3-7.7-14L80,238.6,59.4,227.2l-7.7,14L72,252.5v23.2H88Z"/>
        <path class="aa8ce80c-32cf-493e-98da-e23610e425a2" d="M88,371.7H72v28a8,8,0,0,0,4.4,7.2l25,12.5,7.2-14.3L88,394.8Z"/>
        <path class="aa8ce80c-32cf-493e-98da-e23610e425a2" d="M348.6,370.4l-7.2-14.3L320,366.7l-55-30.6,11.5-5.7-7.2-14.3L248,326.8l-21.4-10.7-7.2,14.3,11.5,5.7L176,366.7l-21.3-10.6-7.2,14.3L168,380.7v54.1l-13.4-6.7-7.2,14.3,24.9,12.5,72,40a8.1,8.1,0,0,0,8,0l72-40,25-12.5-7.2-14.3L328,434.8V380.7ZM312,443l-56,31.1V459.7H240v14.4L184,443V389.3l12.6,7.1,8-14-12.1-6.7L248,344.9l32,17.9,24,12.9-12,6.7,8,14,12-7.1Z"/>
        <path class="aa8ce80c-32cf-493e-98da-e23610e425a2" d="M408,394.8l-20.6,10.3,7.2,14.3,25-12.5a8,8,0,0,0,4.4-7.2v-28H408Z"/>
        <path class="aa8ce80c-32cf-493e-98da-e23610e425a2" d="M341.4,139.4l7.2-14.3L328,114.8V39.7a8,8,0,0,0-4.2-7h-.6l-72-32a8.4,8.4,0,0,0-6.6,0l-72,32a8.1,8.1,0,0,0-4.6,7v75.1l-20.6,10.3,7.2,14.3L176,128.8l54.9,30.9-11.5,5.8,7.2,14.3,13.4-7.1v15a8,8,0,0,0,16,0v-15l13.4,6.7,7.2-14.3-11.5-5.4L320,128.8ZM312,115l-56,31.1V131.7H240v14.4L184,115V52.1l14.3,6.4,6.5-14.7-9.1-4.1L248,16.5,280.7,31l19.6,8.7-9.1,4.1,6.5,14.7L312,52.1Z"/>
        <path class="aa8ce80c-32cf-493e-98da-e23610e425a2" d="M240,211.7v23.1l-20.6,10.3,7.2,14.3L248,248.7l21.4,10.7,7.2-14.3L256,234.8V211.7Z"/>
      </g>
    </g>
  </g>
</svg>
