<svg xmlns="http://www.w3.org/2000/svg" viewBox="0 0 480 480">
  <defs>
    <style>
      .efbd2d7a-a4ce-41b5-8e8c-b944b59f3fa4 {
        fill: #fff;
      }
    </style>
  </defs>
  <title>5</title>
  <g id="a34a651b-3fe5-4143-98ec-9b05d09cb7f2" data-name="Layer 2">
    <g id="a81c0230-e33c-414c-bdd0-9529f15a3023" data-name="Layer 1">
      <g>
        <path class="efbd2d7a-a4ce-41b5-8e8c-b944b59f3fa4" d="M352,312V424a56,56,0,0,1-56,56H56A56,56,0,0,1,0,424V376a8,8,0,0,1,8-8H40a8,8,0,0,1,0,16H16v40a40,40,0,0,0,80,0V384H72a8,8,0,0,1,0-16H96V136a24,24,0,0,1,24-24h80a8,8,0,0,1,0,16H120a8,8,0,0,0-8,8V424a56,56,0,0,1-17.3,40H296a40,40,0,0,0,40-40V312a8,8,0,0,1,16,0Z"/>
        <path class="efbd2d7a-a4ce-41b5-8e8c-b944b59f3fa4" d="M232,336a32,32,0,0,0,64,0V285.7a8,8,0,0,0-16,0v22.8a31.2,31.2,0,0,0-16-4.5,32,32,0,0,0-32,32Zm48,0a16,16,0,1,1-16-16A16,16,0,0,1,280,336Z"/>
        <path class="efbd2d7a-a4ce-41b5-8e8c-b944b59f3fa4" d="M184,240v84.5a31.2,31.2,0,0,0-16-4.5,32,32,0,1,0,32,32V294.8l70.2-11.7a8,8,0,0,0,6.7-9.1h0a8.1,8.1,0,0,0-9.2-6.5L200,278.6v-32l13.4-2.3A8,8,0,0,0,220,235a8.1,8.1,0,0,0-9.3-6.7L190.6,232A8.1,8.1,0,0,0,184,240ZM168,368a16,16,0,1,1,16-16A16,16,0,0,1,168,368Z"/>
        <path class="efbd2d7a-a4ce-41b5-8e8c-b944b59f3fa4" d="M459.6,53.9,371.2,5a39.2,39.2,0,0,0-38.4,0L244.4,53.9A40.2,40.2,0,0,0,224,88.6V199.5a40,40,0,0,0,20.4,34.7l88.4,48.9a39.2,39.2,0,0,0,38.4,0l88.4-48.9A40,40,0,0,0,480,199.5V88.6A40.2,40.2,0,0,0,459.6,53.9ZM464,199.5a24.2,24.2,0,0,1-12.2,20.7l-88,48.9a23.2,23.2,0,0,1-22.8,0l-88-48.9a24,24,0,0,1-13-20.7V88.6a24.1,24.1,0,0,1,12.2-20.7l88-48.9A23.2,23.2,0,0,1,363,19l88,48.9a24,24,0,0,1,13,20.7Z"/>
        <path class="efbd2d7a-a4ce-41b5-8e8c-b944b59f3fa4" d="M412,105.1l-56-32a7.7,7.7,0,0,0-8,0l-56,32a7.8,7.8,0,0,0-4,6.9v64a8.1,8.1,0,0,0,4,7l56,32a8.1,8.1,0,0,0,8,0l56-32a8.1,8.1,0,0,0,4-7V112A7.8,7.8,0,0,0,412,105.1ZM392,112l-40,22.8L312,112l40-22.8Zm-40,86.8-48-27.4V125.9L348,151a8.1,8.1,0,0,0,8,0l44-25.1v45.5Z"/>
      </g>
    </g>
  </g>
</svg>
