<svg xmlns="http://www.w3.org/2000/svg" viewBox="0 0 496 477.7">
  <defs>
    <style>
      .b547a9b7-4cf4-48ed-98f2-b82290a3df55 {
        fill: #fff;
      }
    </style>
  </defs>
  <title>6</title>
  <g id="b06fba26-eea7-4a35-88b0-0f38f7e696ce" data-name="Layer 2">
    <g id="e93d9c35-ba69-4b9c-b71d-e0585955b23d" data-name="Layer 1">
      <g>
        <path class="b547a9b7-4cf4-48ed-98f2-b82290a3df55" d="M328,424H288a8,8,0,0,0-8,8v40h16V451.3l26.3,26.4,11.4-11.3L307.3,440H328Z"/>
        <path class="b547a9b7-4cf4-48ed-98f2-b82290a3df55" d="M491.9,185.1l-72-40a7.7,7.7,0,0,0-8,0l-45.3,25.1-52.4-29.8,9.6-5.4a8,8,0,0,0,4.2-7V48a7.9,7.9,0,0,0-4.1-6.9l-72-40a7.7,7.7,0,0,0-8,0l-72,40A8.1,8.1,0,0,0,168,48v80a8.1,8.1,0,0,0,4.1,7l9.6,5.4-52.5,29.8L83.9,145.1a7.7,7.7,0,0,0-8,0l-72,40A8.1,8.1,0,0,0,0,192v80a8.1,8.1,0,0,0,4.1,7l72,40a8.1,8.1,0,0,0,8,0l16.8-9.3L168,347.9V464a8,8,0,0,0,8,8h88V456H184V328H312v80h16V347.9l67.3-38.2,16.8,9.3a8.1,8.1,0,0,0,8,0l72-40a8.2,8.2,0,0,0,3.9-7V192a7.9,7.9,0,0,0-4.1-6.9ZM248,17.2,303.5,48,248,78.9,192.5,48Zm64,44.4v61.7l-56,31.1V92.8Zm-128,0,56,31.2v61.6l-56-31.1ZM72,298.4,16,267.3V205.6l56,31.2Zm8-75.5L24.5,192,80,161.2,135.5,192Zm8,75.5V236.8l56-31.2v61.7Zm240,31.1V320a8,8,0,0,0-8-8H176a8,8,0,0,0-8,8v9.5l-51-28.9L155.9,279a8.1,8.1,0,0,0,4.1-7V192a7.9,7.9,0,0,0-4.1-6.9l-10.4-5.8,52.6-29.8,46,25.5a8.1,8.1,0,0,0,8,0l46-25.5,52.5,29.8-10.4,5.8A7.9,7.9,0,0,0,336,192v80a8.1,8.1,0,0,0,4.1,7L379,300.6Zm80-31.1-56-31.1V205.6l56,31.2Zm8-75.5L360.5,192,416,161.2,471.5,192Zm64,44.4-56,31.1V236.8l56-31.2Z"/>
      </g>
    </g>
  </g>
</svg>
