<svg xmlns="http://www.w3.org/2000/svg" viewBox="0 0 127.92 207.08"><defs><style>.cls-1{fill:#fff;}.cls-2{fill:#e7dfdd;}.cls-3{fill:#4f6b88;}.cls-4{fill:#111;}.cls-5{fill:#68264a;}</style></defs><title>5</title><g id="Layer_2" data-name="Layer 2"><g id="Layer_4" data-name="Layer 4"><path class="cls-1" d="M21,81a5.79,5.79,0,1,1,5.8-5.8A5.78,5.78,0,0,1,21,81Z"/><path class="cls-2" d="M5.9,75.15A15.07,15.07,0,1,1,21,90.26,15.08,15.08,0,0,1,5.9,75.15ZM21,66.36a8.79,8.79,0,1,0,8.78,8.79A8.8,8.8,0,0,0,21,66.36Z"/><path class="cls-3" d="M51.47,165.24a8.88,8.88,0,0,1-4,7.37v-5.53a5.38,5.38,0,0,0-10.76,0v5.15a8.56,8.56,0,0,1-3.35-7,9,9,0,1,1,18.08,0Z"/><path class="cls-3" d="M37.82,68.77a17.83,17.83,0,0,0-5.52-7.6,53.43,53.43,0,0,1,15.11-6.38l1.79,9.07A44.54,44.54,0,0,0,37.82,68.77Z"/><path class="cls-3" d="M16.34,92.57a50.18,50.18,0,0,0,19.6,62.52,11.88,11.88,0,0,0-5.25,7.56A59.81,59.81,0,0,1,3,112.45,59.18,59.18,0,0,1,8.31,88,17.63,17.63,0,0,0,16.34,92.57Z"/><path class="cls-2" d="M80.18,109.05l-5.38,1.09c-.1,0-.19-.1-.24-.19l-1.23-6.28,5.48-1.09Z"/><path class="cls-1" d="M81,99.09l-10.43,2.07a1.83,1.83,0,0,1-2.08-1.41l-.9-4.58,13.32-2.65,1,5.2a1.15,1.15,0,0,1-.14.89A1.19,1.19,0,0,1,81,99.09Z"/><path class="cls-1" d="M51.94,28.07l-4-20.31a1.78,1.78,0,0,1,.28-1.37,1.73,1.73,0,0,1,1.14-.75l13-2.55a2.56,2.56,0,0,1,3,2l3.88,19.55L57.89,26.89l-1.22-6.14a1.54,1.54,0,0,0-1.8-1.18,1.58,1.58,0,0,0-1.18,1.79l1.23,6.14Zm-.09-16,.71,3.44A1.46,1.46,0,0,0,54,16.73h.28a1.5,1.5,0,0,0,1.18-1.79l-.66-3.45A1.55,1.55,0,0,0,53,10.31,1.58,1.58,0,0,0,51.85,12.11Z"/><path class="cls-2" d="M84.19,198a1.52,1.52,0,0,0-1.51,1.51A1.49,1.49,0,0,0,84.19,201h7.75a1.51,1.51,0,0,0,1.51-1.46A1.53,1.53,0,0,0,91.94,198Zm40.28,6.09H28.76a.43.43,0,0,1-.47-.43v-2.74l48.26.1a1.51,1.51,0,1,0,0-3l-48.26-.1v-7a.52.52,0,0,1,.47-.52h9.49a1.48,1.48,0,0,0,1.46-1.51V167.08a2.38,2.38,0,0,1,2.41-2.36,2.34,2.34,0,0,1,2.36,2.36v21.77A1.52,1.52,0,0,0,46,190.36h78.48a.48.48,0,0,1,.43.52v12.75A.43.43,0,0,1,124.47,204.06Z"/><path class="cls-2" d="M106.72,162.17a1.49,1.49,0,0,0,1.51-1.51,1.51,1.51,0,0,0-1.51-1.46h-5a1.51,1.51,0,0,0-1.46,1.51,1.48,1.48,0,0,0,1.46,1.51h.05Zm7.13,13.75h-47a11.13,11.13,0,0,1-11.14-11.1l0-10.11a1.16,1.16,0,0,1,.85-.28h67.62c.48,0,.76.24.81.09V159l-10.53.09a1.52,1.52,0,0,0,0,3h0L125,162v2.84A11.11,11.11,0,0,1,113.85,175.92Z"/><path class="cls-2" d="M82.26,89.17,58.41,93.89a.36.36,0,0,1-.23-.28l-12.09-61a.4.4,0,0,1,.09-.38l10.39-2s.1.05.14.05a.59.59,0,0,0,.29-.05c.09,0,.14-.1.23-.14l18.94-3.73a.36.36,0,0,1,.23.28l12,61a.72.72,0,0,1,0,.38l-3.59.71A1.43,1.43,0,0,0,83.3,88,1.29,1.29,0,0,0,82.26,89.17Zm.38-11.85a1.5,1.5,0,0,0-2.93.66,1.51,1.51,0,0,0,1.46,1.18.59.59,0,0,0,.29,0A1.45,1.45,0,0,0,82.64,77.32Zm-.52,4.77a1.43,1.43,0,0,0-1.18,1.74,1.51,1.51,0,0,0,1.46,1.23.56.56,0,0,0,.28,0,1.47,1.47,0,0,0,1.18-1.79A1.43,1.43,0,0,0,82.12,82.09Zm-4.87-16a1.53,1.53,0,0,0,1.51,1.22h.29a1.52,1.52,0,1,0-.62-3A1.53,1.53,0,0,0,77.25,66.13Zm.62-4.73a1.49,1.49,0,1,0-1.8-1.18,1.52,1.52,0,0,0,1.47,1.23A.88.88,0,0,0,77.87,61.4Zm1.74,8.88a1.51,1.51,0,0,0-1.13,1.8A1.48,1.48,0,0,0,80,73.26a.58.58,0,0,0,.28-.05,1.43,1.43,0,0,0,1.18-1.75A1.53,1.53,0,0,0,79.61,70.28Z"/><path class="cls-4" d="M108.23,160.66a1.49,1.49,0,0,1-1.51,1.51l-5,.05h-.05a1.48,1.48,0,0,1-1.46-1.51,1.51,1.51,0,0,1,1.46-1.51h5A1.51,1.51,0,0,1,108.23,160.66Z"/><path class="cls-4" d="M91.94,198a1.53,1.53,0,0,1,1.51,1.52A1.51,1.51,0,0,1,91.94,201H84.19a1.49,1.49,0,0,1-1.51-1.51A1.52,1.52,0,0,1,84.19,198Z"/><path class="cls-5" d="M79.71,78a1.5,1.5,0,1,1,1.75,1.13.59.59,0,0,1-.29,0A1.51,1.51,0,0,1,79.71,78Z"/><path class="cls-5" d="M81.41,71.46a1.43,1.43,0,0,1-1.18,1.75.58.58,0,0,1-.28.05,1.48,1.48,0,0,1-1.47-1.18,1.51,1.51,0,0,1,1.13-1.8A1.53,1.53,0,0,1,81.41,71.46Z"/><path class="cls-5" d="M80.94,83.83a1.49,1.49,0,0,1,2.92-.61A1.47,1.47,0,0,1,82.68,85a.56.56,0,0,1-.28,0A1.51,1.51,0,0,1,80.94,83.83Z"/><path class="cls-5" d="M77.25,66.13a1.53,1.53,0,0,1,1.18-1.75,1.52,1.52,0,1,1,.62,3h-.29A1.53,1.53,0,0,1,77.25,66.13Z"/><path class="cls-5" d="M79.05,59.66a1.5,1.5,0,0,1-1.18,1.74.88.88,0,0,1-.33.05,1.52,1.52,0,0,1-1.47-1.23,1.52,1.52,0,0,1,3-.56Z"/><path class="cls-4" d="M52.56,15.55l-.71-3.44A1.58,1.58,0,0,1,53,10.31a1.55,1.55,0,0,1,1.79,1.18l.66,3.45a1.5,1.5,0,0,1-1.18,1.79H54A1.46,1.46,0,0,1,52.56,15.55Z"/><path class="cls-4" d="M15.21,75.15A5.78,5.78,0,1,0,21,69.38,5.78,5.78,0,0,0,15.21,75.15Zm-3,0A8.79,8.79,0,1,1,21,83.93,8.8,8.8,0,0,1,12.18,75.15Z"/><path class="cls-4" d="M47.41,54.79A53.43,53.43,0,0,0,32.3,61.17a17.83,17.83,0,0,1,5.52,7.6A44.54,44.54,0,0,1,49.2,63.86ZM21,60.08A15.09,15.09,0,1,0,36,75.15,15.08,15.08,0,0,0,21,60.08Zm-8.74,52.37a50.15,50.15,0,0,1,4.11-19.88,17.63,17.63,0,0,1-8-4.53A59.18,59.18,0,0,0,3,112.45a59.81,59.81,0,0,0,27.67,50.2,11.88,11.88,0,0,1,5.25-7.56A50.41,50.41,0,0,1,12.23,112.45Zm112.24,77.91H46a1.52,1.52,0,0,1-1.51-1.51V167.08a2.34,2.34,0,0,0-2.36-2.36,2.38,2.38,0,0,0-2.41,2.36v21.77a1.48,1.48,0,0,1-1.46,1.51H28.76a.52.52,0,0,0-.47.52v7l48.26.1a1.51,1.51,0,1,1,0,3l-48.26-.1v2.74a.43.43,0,0,0,.47.43h95.71a.43.43,0,0,0,.43-.43V190.88A.48.48,0,0,0,124.47,190.36ZM74.8,110.14l5.38-1.09-1.37-6.47-5.48,1.09L74.56,110C74.61,110,74.7,110.14,74.8,110.14Zm-4.25-9L81,99.09a1.19,1.19,0,0,0,.76-.48,1.15,1.15,0,0,0,.14-.89l-1-5.2L67.57,95.17l.9,4.58A1.83,1.83,0,0,0,70.55,101.16ZM55.72,164.82a11.13,11.13,0,0,0,11.14,11.1h47a11.11,11.11,0,0,0,11.1-11V162l-10.49.1h0a1.52,1.52,0,0,1,0-3L125,159v-4.49c0,.15-.33-.09-.81-.09H56.52a1.16,1.16,0,0,0-.85.28ZM47.93,7.76l4,20.31,3-.57-1.23-6.14a1.58,1.58,0,0,1,1.18-1.79,1.54,1.54,0,0,1,1.8,1.18l1.22,6.14,11.34-2.22L65.35,5.12a2.56,2.56,0,0,0-3-2l-13,2.55a1.73,1.73,0,0,0-1.14.75A1.78,1.78,0,0,0,47.93,7.76ZM46.09,32.65l12.09,61a.36.36,0,0,0,.23.28l23.85-4.72a1.29,1.29,0,0,1,1-1.18,1.43,1.43,0,0,1,1.51.71L88.4,88a.72.72,0,0,0,0-.38l-12-61a.36.36,0,0,0-.23-.28L57.23,30.1c-.09,0-.14.14-.23.14a.59.59,0,0,1-.29.05s-.09-.05-.14-.05l-10.39,2A.4.4,0,0,0,46.09,32.65ZM53.6,169.54a11.89,11.89,0,0,1-5.91,6.52s-.14,0-.19,0v11.24h77a3.52,3.52,0,0,1,3.45,3.54v12.75a3.47,3.47,0,0,1-3.45,3.45H28.76a3.44,3.44,0,0,1-3.45-3.45V190.88a3.49,3.49,0,0,1,3.45-3.54h8V175.68a11.43,11.43,0,0,1-6.24-9.49A62.84,62.84,0,0,1,0,112.45a62,62,0,0,1,6.14-27A18,18,0,0,1,29.51,59.33a59.55,59.55,0,0,1,17.33-7.51L43.16,33.26a3.53,3.53,0,0,1,.47-2.6,3,3,0,0,1,2-1.32l3.4-.66L45,8.33a4.81,4.81,0,0,1,.76-3.59,4.57,4.57,0,0,1,3.07-2L61.72.11A5.64,5.64,0,0,1,68.33,4.5L72.2,24.05l3.4-.66a3.26,3.26,0,0,1,3.73,2.69L91.42,87a3.51,3.51,0,0,1-.52,2.6A2.93,2.93,0,0,1,89,90.92l-5.14,1,1,5.19a4.08,4.08,0,0,1-.62,3.12,4.2,4.2,0,0,1-2.5,1.7l1.32,6.66A2.89,2.89,0,0,1,80.8,112l-5.39,1.08a3.44,3.44,0,0,1-2.41-.47,3.12,3.12,0,0,1-1.37-2l-1.27-6.37h-.14a4.83,4.83,0,0,1-4.72-3.88l-.9-4.58L59,96.87a2.73,2.73,0,0,1-.57,0,3.35,3.35,0,0,1-3.21-2.73L49.82,66.79a42.53,42.53,0,0,0-11.1,5,20,20,0,0,1,.33,3.4A18.11,18.11,0,0,1,21,93.23a16.08,16.08,0,0,1-1.61-.14,46.87,46.87,0,0,0-4.11,19.36,47.44,47.44,0,0,0,24,41.22,11.78,11.78,0,0,1,3.16-.47,12.05,12.05,0,0,1,10.35,5.9v-4.58c0-1.74,1.65-3.07,3.77-3.07h67.62c2.13,0,3.78,1.33,3.78,3.07v10.35a14.11,14.11,0,0,1-14.07,14.07h-47A14.12,14.12,0,0,1,53.6,169.54Zm-6.1,3.07a8.88,8.88,0,0,0,4-7.37,9,9,0,1,0-18.08,0,8.56,8.56,0,0,0,3.35,7v-5.15a5.38,5.38,0,0,1,10.76,0Z"/></g></g></svg>