<svg xmlns="http://www.w3.org/2000/svg" viewBox="0 0 116.72 72.13"><defs><style>.cls-1{fill:#b7d9f7;}.cls-2{fill:#d9d9d9;}.cls-3{fill:#68264a;}</style></defs><title>7</title><g id="Layer_2" data-name="Layer 2"><g id="Layer_4" data-name="Layer 4"><path class="cls-1" d="M20.92,52.2a4.32,4.32,0,1,1,4.3-4.34A4.32,4.32,0,0,1,20.92,52.2Z"/><path class="cls-1" d="M45.48,52.2a4.32,4.32,0,1,1,4.3-4.34A4.34,4.34,0,0,1,45.48,52.2Z"/><path class="cls-1" d="M75.13,47.86a4.3,4.3,0,1,1-4.29-4.3A4.32,4.32,0,0,1,75.13,47.86Z"/><path class="cls-1" d="M95.67,52.2a4.32,4.32,0,1,1,4.3-4.34A4.32,4.32,0,0,1,95.67,52.2Z"/><path class="cls-1" d="M95.67,27.17a4.32,4.32,0,1,1,4.3-4.29A4.3,4.3,0,0,1,95.67,27.17Z"/><path class="cls-1" d="M75.13,22.88a4.3,4.3,0,1,1-4.29-4.35A4.3,4.3,0,0,1,75.13,22.88Z"/><path class="cls-1" d="M45.48,27.17a4.32,4.32,0,1,1,4.3-4.29A4.32,4.32,0,0,1,45.48,27.17Z"/><path class="cls-1" d="M20.92,27.17a4.32,4.32,0,1,1,4.3-4.29A4.3,4.3,0,0,1,20.92,27.17Z"/><path class="cls-2" d="M45.48,15.56a7.32,7.32,0,1,0,7.32,7.32A7.29,7.29,0,0,0,45.48,15.56Zm-7.32,32.3a7.32,7.32,0,1,0,7.32-7.32A7.3,7.3,0,0,0,38.16,47.86Zm5.52,7.88a6.3,6.3,0,0,1-3-1.56,1.5,1.5,0,0,0-2.12,0,1.55,1.55,0,0,0,0,2.13A9.41,9.41,0,0,0,43,58.67a.91.91,0,0,0,.33,0,1.48,1.48,0,0,0,1.47-1.18A1.51,1.51,0,0,0,43.68,55.74ZM32.49,5l-2.59.14a1.49,1.49,0,0,0,.09,3h.1L32.59,8a1.49,1.49,0,1,0-.1-3ZM20.92,40.54a7.32,7.32,0,1,0,7.32,7.32A7.32,7.32,0,0,0,20.92,40.54ZM19,30.48a6.23,6.23,0,0,1-3-1.56,1.5,1.5,0,1,0-2,2.22,9.45,9.45,0,0,0,4.43,2.31h.33a1.55,1.55,0,0,0,1.47-1.18A1.58,1.58,0,0,0,19,30.48Zm-5.39-7.6a7.32,7.32,0,1,0,7.32-7.32A7.33,7.33,0,0,0,13.6,22.88Zm91.61,41.79A1.51,1.51,0,0,0,106.72,66h.1a1.46,1.46,0,0,0,1.37-1.61,1.49,1.49,0,0,0-3,.24Zm-4.62-1.23a1.49,1.49,0,0,0,.14,3h0a1.45,1.45,0,0,0,1.42-1.55A1.49,1.49,0,0,0,100.59,63.44Zm-7.42,1.93a1.5,1.5,0,0,0,1.51,1.42h.1a1.51,1.51,0,1,0-1.61-1.42ZM88.36,22.88a7.32,7.32,0,1,0,7.31-7.32A7.35,7.35,0,0,0,88.36,22.88Zm0,25a7.32,7.32,0,1,0,7.31-7.32A7.32,7.32,0,0,0,88.36,47.86Zm.18,8.45A8.78,8.78,0,0,0,93,58.62a.68.68,0,0,0,.33.05,1.5,1.5,0,0,0,.29-3,6.13,6.13,0,0,1-3-1.55,1.49,1.49,0,1,0-2,2.17Zm1.66,9.16a1.54,1.54,0,0,0-1.61-1.42,1.45,1.45,0,0,0-1.41,1.56,1.48,1.48,0,0,0,1.51,1.46h0A1.59,1.59,0,0,0,90.2,65.47ZM69.94,32.27a1.5,1.5,0,0,0-1.13-1.79,6.26,6.26,0,0,1-3-1.56,1.53,1.53,0,0,0-2.12,0,1.49,1.49,0,0,0,.09,2.12,8.8,8.8,0,0,0,4.44,2.32.73.73,0,0,0,.29,0A1.47,1.47,0,0,0,69.94,32.27Zm41.79,34.8c-46,4.3-98.08.62-106.44,0A206.8,206.8,0,0,1,4.63,10.5s.1.05.14.05H5c.1,0,8.83-1.18,19.13-2A1.52,1.52,0,0,0,25.5,7a1.59,1.59,0,0,0-1.65-1.41c-9,.7-16.81,1.7-18.79,1.93.09-.56.14-1.13.23-1.7,42.46-5.85,98-.8,106.72,0,.66,5.62,3.31,30.55.24,56.9a1.48,1.48,0,0,0-1,1.46,1.52,1.52,0,0,0,.76,1.09C111.87,65.85,111.82,66.46,111.73,67.07ZM70.84,30.2a7.32,7.32,0,1,0-7.32-7.32A7.33,7.33,0,0,0,70.84,30.2Zm7.32,17.66a7.32,7.32,0,1,0-7.32,7.32A7.32,7.32,0,0,0,78.16,47.86Z"/><path class="cls-3" d="M106.72,66a1.51,1.51,0,0,1-1.51-1.37,1.49,1.49,0,0,1,3-.24A1.46,1.46,0,0,1,106.82,66Z"/><path class="cls-3" d="M99.22,65a1.45,1.45,0,0,1,1.37-1.6,1.49,1.49,0,0,1,1.6,1.42,1.45,1.45,0,0,1-1.42,1.55h0A1.45,1.45,0,0,1,99.22,65Z"/><path class="cls-3" d="M94.68,66.79a1.5,1.5,0,0,1-1.51-1.42,1.51,1.51,0,1,1,1.61,1.42Z"/><path class="cls-3" d="M95.67,18.53a4.32,4.32,0,1,0,4.3,4.35A4.32,4.32,0,0,0,95.67,18.53Zm-7.31,4.35a7.32,7.32,0,1,1,7.31,7.32A7.31,7.31,0,0,1,88.36,22.88Z"/><path class="cls-3" d="M100,47.86a4.3,4.3,0,1,0-4.3,4.34A4.31,4.31,0,0,0,100,47.86Zm-4.3,7.32A7.32,7.32,0,1,1,103,47.86,7.32,7.32,0,0,1,95.67,55.18Z"/><path class="cls-3" d="M93,58.62a8.78,8.78,0,0,1-4.44-2.31,1.49,1.49,0,1,1,2-2.17,6.13,6.13,0,0,0,3,1.55,1.5,1.5,0,0,1-.29,3A.68.68,0,0,1,93,58.62Z"/><path class="cls-3" d="M88.59,64.05a1.54,1.54,0,0,1,1.61,1.42,1.59,1.59,0,0,1-1.47,1.6h0a1.48,1.48,0,0,1-1.51-1.46A1.45,1.45,0,0,1,88.59,64.05Z"/><path class="cls-3" d="M70.84,27.17a4.32,4.32,0,1,0-4.3-4.29A4.3,4.3,0,0,0,70.84,27.17Zm7.32-4.29a7.32,7.32,0,1,1-7.32-7.32A7.33,7.33,0,0,1,78.16,22.88Z"/><path class="cls-3" d="M70.84,52.2a4.32,4.32,0,1,0-4.3-4.34A4.32,4.32,0,0,0,70.84,52.2Zm0-11.66a7.32,7.32,0,1,1-7.32,7.32A7.32,7.32,0,0,1,70.84,40.54Z"/><path class="cls-3" d="M68.81,30.48a1.5,1.5,0,0,1,1.13,1.79,1.47,1.47,0,0,1-1.46,1.18.73.73,0,0,1-.29,0,8.8,8.8,0,0,1-4.44-2.32A1.49,1.49,0,0,1,63.66,29a1.53,1.53,0,0,1,2.12,0A6.26,6.26,0,0,0,68.81,30.48Z"/><path class="cls-3" d="M38.16,22.88a7.32,7.32,0,1,1,7.32,7.32A7.29,7.29,0,0,1,38.16,22.88Zm7.32-4.35a4.32,4.32,0,1,0,4.3,4.35A4.34,4.34,0,0,0,45.48,18.53Z"/><path class="cls-3" d="M45.48,55.18a7.32,7.32,0,1,1,7.32-7.32A7.3,7.3,0,0,1,45.48,55.18Zm0-11.62a4.32,4.32,0,1,0,4.3,4.3A4.32,4.32,0,0,0,45.48,43.56Z"/><path class="cls-3" d="M40.66,54.18a6.3,6.3,0,0,0,3,1.56,1.51,1.51,0,0,1,1.14,1.8,1.48,1.48,0,0,1-1.47,1.18.91.91,0,0,1-.33,0,9.41,9.41,0,0,1-4.44-2.31,1.55,1.55,0,0,1,0-2.13A1.5,1.5,0,0,1,40.66,54.18Z"/><path class="cls-3" d="M29.9,5.17,32.49,5a1.49,1.49,0,1,1,.1,3l-2.5.14H30a1.49,1.49,0,0,1-.09-3Z"/><path class="cls-3" d="M13.6,47.86a7.32,7.32,0,1,1,7.32,7.32A7.32,7.32,0,0,1,13.6,47.86Zm3,0a4.3,4.3,0,1,0,4.29-4.3A4.32,4.32,0,0,0,16.63,47.86Z"/><path class="cls-3" d="M16.63,22.88a4.3,4.3,0,1,0,4.29-4.35A4.3,4.3,0,0,0,16.63,22.88Zm4.29,7.32a7.32,7.32,0,1,1,7.32-7.32A7.33,7.33,0,0,1,20.92,30.2Z"/><path class="cls-3" d="M16,28.92a6.23,6.23,0,0,0,3,1.56,1.58,1.58,0,0,1,1.18,1.79,1.55,1.55,0,0,1-1.47,1.18h-.33a9.45,9.45,0,0,1-4.43-2.31,1.5,1.5,0,1,1,2-2.22Z"/><path class="cls-3" d="M113.19,70c-16.9,1.65-34.7,2.17-50.9,2.17C30.13,72.13,4.26,70,3.88,70a1.56,1.56,0,0,1-1.37-1.23,208.61,208.61,0,0,1,0-64.51A1.49,1.49,0,0,1,3.78,3C50.25-3.66,112.91,2.9,113.52,3a1.51,1.51,0,0,1,1.33,1.27c0,.33,4.39,32.26-.33,64.46A1.53,1.53,0,0,1,113.19,70ZM5.29,67c8.36.66,60.45,4.34,106.44,0,.09-.61.14-1.22.24-1.79a1.52,1.52,0,0,1-.76-1.09,1.48,1.48,0,0,1,1-1.46c3.07-26.35.42-51.28-.24-56.9C103.28,5,47.75-.07,5.29,5.78c-.09.57-.14,1.14-.23,1.7,2-.23,9.77-1.23,18.79-1.93A1.59,1.59,0,0,1,25.5,7a1.52,1.52,0,0,1-1.41,1.61c-10.3.8-19,2-19.13,2H4.77s-.09-.05-.14-.05A206.8,206.8,0,0,0,5.29,67Z"/></g></g></svg>