<svg xmlns="http://www.w3.org/2000/svg" viewBox="0 0 171.08 152.11"><defs><style>.cls-1{fill:#b7d9f7;}.cls-2{fill:#e7dfdd;}.cls-3{fill:#111;}</style></defs><title>9</title><g id="Layer_2" data-name="Layer 2"><g id="Layer_4" data-name="Layer 4"><path class="cls-1" d="M149,111.17a1.57,1.57,0,0,0-.38-2.13,1.48,1.48,0,0,0-2.08.43,4.64,4.64,0,0,1-4.34,2.22,3.86,3.86,0,0,1-3.21-2.36,1.48,1.48,0,0,0-2-.81,1.53,1.53,0,0,0-.81,2,6.94,6.94,0,0,0,5.72,4.2h.7A7.73,7.73,0,0,0,149,111.17Zm2.79-3.78a9.21,9.21,0,1,1-11.43-8.88,50.16,50.16,0,0,0,1,8.45,1.51,1.51,0,1,0,2.92-.75,43.13,43.13,0,0,1-.94-7.93A9.19,9.19,0,0,1,151.82,107.39Z"/><path class="cls-2" d="M45.57,89.82C22.1,89.82,3,66.31,3,37.36a3,3,0,0,1,3-3,3,3,0,0,1,3,3c0,25.69,16.44,46.56,36.65,46.56S82.12,63.05,82.12,37.36a3,3,0,1,1,5.9,0C88,66.31,69,89.82,45.57,89.82Z"/><path class="cls-3" d="M148.65,109a1.57,1.57,0,0,1,.38,2.13,7.73,7.73,0,0,1-6.38,3.54H142a6.94,6.94,0,0,1-5.72-4.2,1.53,1.53,0,0,1,.81-2,1.48,1.48,0,0,1,2,.81,3.86,3.86,0,0,0,3.21,2.36,4.64,4.64,0,0,0,4.34-2.22A1.48,1.48,0,0,1,148.65,109Z"/><path class="cls-3" d="M144.35,106.21a1.51,1.51,0,1,1-2.92.75,50.16,50.16,0,0,1-1-8.45,9.23,9.23,0,1,0,3-.23A43.13,43.13,0,0,0,144.35,106.21ZM22,9a2.61,2.61,0,0,0,2.59-2c.38-1.23-.51-2.79-2-3.54a3.58,3.58,0,0,0-4,.42C19,6.9,20.31,8.84,22,9ZM68.23,9a2.53,2.53,0,0,0,2.46.66c1.42-.38,2.69-1.75,3.45-3.78,0,0,0,0,0-.09s0-.05,0-.05a4.38,4.38,0,0,0-3-1.27,3.89,3.89,0,0,0-2.08.66,2.74,2.74,0,0,0-1.6,2A2.51,2.51,0,0,0,68.23,9ZM39,92.18a3,3,0,0,1-.05.67c0,1.41-.19,3.07.47,3.87A7,7,0,0,0,44.29,99c.05,0,.05,0,.1,0s0,0,.09,0,.24,0,.38,0a5.73,5.73,0,0,0,4.39-1.93c.66-.9.57-3.07.57-4.54a32.06,32.06,0,0,1-4.25.29A38,38,0,0,1,39,92.18ZM3,37.36c0,29,19.13,52.46,42.6,52.46S88,66.31,88,37.36a3,3,0,1,0-5.9,0c0,25.69-16.39,46.56-36.55,46.56S8.92,63.05,8.92,37.36a3,3,0,0,0-3-3A3,3,0,0,0,3,37.36Zm34.1,61.25c-1.42-1.7-1.28-4.06-1.13-6,0-.38,0-.76,0-1.09C15.44,86.19,0,64,0,37.36a5.86,5.86,0,0,1,4.72-5.71c1-11,4.54-20.73,10.25-28.38,2.83-3.78,6.52-3.78,9-2.51,2.79,1.47,4.3,4.54,3.45,7.18a5.52,5.52,0,0,1-5.67,4c-1-.05-4.11-.71-5.57-5.15A52.9,52.9,0,0,0,7.74,31.74a5.94,5.94,0,0,1,4.16,5.62c0,24,15.11,43.54,33.67,43.54S79.1,61.35,79.1,37.36a6,6,0,0,1,4.2-5.62A54.41,54.41,0,0,0,76.07,8.79a7.63,7.63,0,0,1-4.67,3.83,5.87,5.87,0,0,1-5.2-1.32,5.54,5.54,0,0,1-1.7-4.44,5.53,5.53,0,0,1,3-4.3,7.06,7.06,0,0,1,8.83,1.18c.09,0,.14.09.14.19a57,57,0,0,1,9.82,27.72A5.86,5.86,0,0,1,91,37.36C91,64.94,74.47,87.79,52.79,92v.43c.1,2.12.14,4.72-1.18,6.47a8.35,8.35,0,0,1-5.71,3c.28,8,3.12,46.61,33.43,47.18,10,.18,17.66-2.55,22.81-8.08,11-11.9,8.92-35,7.65-48.78-.14-1.27-.24-2.45-.33-3.59l-.24-2.74c-1.84-20.54-4.86-54.91,19.93-70.59,14.17-9,29.51-4.25,36.78,4.72,6.66,8.31,8.74,22.34-5.47,36.79-18,18.32-17.43,35.65-17.19,38.43a12.09,12.09,0,1,1-3,.19c-.29-3.16-1-21.29,18.08-40.75,12.85-13,11.15-25.45,5.24-32.77-6.61-8.17-20-12.18-32.82-4.06-23.23,14.68-20.3,47.93-18.55,67.76l.23,2.79c.1,1.08.24,2.31.33,3.54,1.33,14.31,3.55,38.2-8.45,51.14-5.52,6-13.65,9-24,9h-1c-33.1-.66-36.12-42-36.4-50.29A9.39,9.39,0,0,1,37.07,98.61Z"/></g></g></svg>