<svg xmlns="http://www.w3.org/2000/svg" viewBox="0 0 495.5 777"><defs><style>.cls-1{fill:#cbae75;}</style></defs><title>logo-2</title><g id="Layer_2" data-name="Layer 2"><g id="Layer_3" data-name="Layer 3"><polygon class="cls-1" points="418.3 587.3 418.3 0 393.6 0 247.8 75 101.9 0 77.3 0 77.3 587.3 0 587.3 0 616.3 106.1 616.3 106.1 40.1 234 104.2 234 305.2 234 305.9 234 748.6 187 748.6 187 777 262.2 777 262.2 305.7 262.2 305.4 262.2 103.9 389.4 40.1 389.4 616.3 495.5 616.3 495.5 587.3 418.3 587.3"/><polygon class="cls-1" points="322.8 405.5 322.8 198.8 369.8 198.8 369.8 170.5 294.6 170.5 294.6 398.2 200.5 398.2 200.5 170.5 125.3 170.5 125.3 198.8 172.3 198.8 172.3 405.5 172.3 406.2 172.3 668.2 125.3 668.2 125.3 696.6 200.5 696.6 200.5 424.3 294.6 424.3 294.6 696.6 369.8 696.6 369.8 668.2 322.8 668.2 322.8 406.2 322.8 405.5"/></g></g></svg>