<svg xmlns="http://www.w3.org/2000/svg" viewBox="0 0 1550.7 582.4"><defs><style>.cls-1{fill:#142448;}.cls-2{fill:#cbae75;}</style></defs><title>logo-4</title><g id="Layer_2" data-name="Layer 2"><g id="Layer_2-2" data-name="Layer 2"><path class="cls-1" d="M74.5,460.4V406.6L47.7,451.1H41L14.4,407.3v53.1H0V379.3H12.4L44.6,433l31.6-53.7H88.6l.2,81.1Z"/><path class="cls-1" d="M163.3,441.6H122.7l-8,18.8H99.2l36.5-81.1h14.8l36.6,81.1H171.4Zm-5-11.8L143,394.3l-15.2,35.5Z"/><path class="cls-1" d="M250.5,460.4,234,436.6l-3.2.2H212.5v23.6h-15V379.3h33.3c7.1,0,13.2,1.1,18.4,3.5a26.8,26.8,0,0,1,12,9.9,27.7,27.7,0,0,1,4.2,15.4,27.4,27.4,0,0,1-4.5,15.8,26,26,0,0,1-12.8,9.8l18.7,26.7Zm-5.4-64.2q-5.1-4.2-15-4.2H212.5v32.4h17.6c6.6,0,11.6-1.5,15-4.3s5.1-6.8,5.1-12S248.5,399,245.1,396.2Z"/><path class="cls-1" d="M297.5,456.2A39.7,39.7,0,0,1,282,441.3a41.1,41.1,0,0,1-5.6-21.5,41.7,41.7,0,0,1,5.6-21.4,40.6,40.6,0,0,1,15.6-14.9,45.6,45.6,0,0,1,22.2-5.4,46.5,46.5,0,0,1,18.2,3.5,37,37,0,0,1,13.9,10.1l-9.7,9.1a28.6,28.6,0,0,0-21.7-9.5,29.7,29.7,0,0,0-14.9,3.7,25.7,25.7,0,0,0-10.3,10.1,29,29,0,0,0-3.8,14.7,29.4,29.4,0,0,0,3.8,14.8,25.7,25.7,0,0,0,10.3,10.1,30.7,30.7,0,0,0,14.9,3.6,28.3,28.3,0,0,0,21.7-9.6l9.7,9.3A37,37,0,0,1,338,458.1a47.4,47.4,0,0,1-18.3,3.5A45.6,45.6,0,0,1,297.5,456.2Z"/><path class="cls-1" d="M396.7,458.5a27.7,27.7,0,0,1-10.7-8.7l8.6-10.3c4.4,6.2,9.8,9.3,16.1,9.3,8.4,0,12.6-5,12.6-14.9v-42H394.4V379.3h44V433c0,9.5-2.4,16.7-7,21.4s-11.4,7.2-20.4,7.2A34,34,0,0,1,396.7,458.5Z"/><path class="cls-1" d="M475,456.2a39.8,39.8,0,0,1-15.7-15,43.5,43.5,0,0,1,0-42.7,39.8,39.8,0,0,1,15.7-15,49,49,0,0,1,44.7,0,40.2,40.2,0,0,1,15.7,14.9,43.9,43.9,0,0,1,0,42.9,40.2,40.2,0,0,1-15.7,14.9,49,49,0,0,1-44.7,0Zm36.9-11.5a25.1,25.1,0,0,0,10.2-10.2,29.3,29.3,0,0,0,3.8-14.7,28.6,28.6,0,0,0-3.8-14.6A25.1,25.1,0,0,0,511.9,395a28.3,28.3,0,0,0-14.6-3.7,28.8,28.8,0,0,0-14.6,3.7,26.3,26.3,0,0,0-10.2,10.2,29.6,29.6,0,0,0-3.7,14.6,30.3,30.3,0,0,0,3.7,14.7,26.3,26.3,0,0,0,10.2,10.2,29.8,29.8,0,0,0,14.6,3.6A29.3,29.3,0,0,0,511.9,444.7Z"/><path class="cls-1" d="M608.5,441.6H567.9l-8,18.8H544.4l36.5-81.1h14.8l36.6,81.1H616.6Zm-5-11.8-15.3-35.5L573,429.8Z"/><path class="cls-1" d="M656.9,456.2a40,40,0,0,1-15.6-14.9,42,42,0,0,1-5.6-21.5A40.4,40.4,0,0,1,657,383.5a45.6,45.6,0,0,1,22.2-5.4,46.9,46.9,0,0,1,18.2,3.5,37.8,37.8,0,0,1,13.9,10.1l-9.8,9.1a28.4,28.4,0,0,0-21.6-9.5,29.8,29.8,0,0,0-15,3.7,26.3,26.3,0,0,0-10.3,10.1,28.9,28.9,0,0,0-3.7,14.7,29.3,29.3,0,0,0,3.7,14.8,26.3,26.3,0,0,0,10.3,10.1,30.8,30.8,0,0,0,15,3.6,28.1,28.1,0,0,0,21.6-9.6l9.8,9.3a37.3,37.3,0,0,1-14,10.1,47,47,0,0,1-18.3,3.5A45.5,45.5,0,0,1,656.9,456.2Z"/><path class="cls-1" d="M797.8,379.3v81.1h-15V425.6h-42v34.8H725.7V379.3h15.1v33.5h42V379.3Z"/><path class="cls-1" d="M819.6,379.3h15.1v81.1H819.6Z"/><path class="cls-1" d="M931.1,460.4V406.6l-26.7,44.5h-6.7l-26.7-43.8v53.1H856.6V379.3H869L901.2,433l31.6-53.7h12.4v81.1Z"/><path class="cls-1" d="M1071.3,379.3v81.1h-15.1V425.6h-41.9v34.8H999.2V379.3h15.1v33.5h41.9V379.3Z"/><path class="cls-1" d="M1101.8,452.1c-6.3-6.3-9.4-15.3-9.4-27V379.3h15v45.2c0,15.9,6.9,23.8,20.7,23.8s20.5-7.9,20.5-23.8V379.3h14.8v45.8q0,17.5-9.3,27c-6.2,6.3-14.9,9.5-26.1,9.5S1108,458.4,1101.8,452.1Z"/><path class="cls-1" d="M1252.6,425.6c2.7,3.4,4,7.7,4,12.8,0,7-2.7,12.4-8.1,16.3s-13.3,5.7-23.7,5.7h-40.3V379.3h38c9.6,0,17,1.9,22.1,5.6s7.8,8.9,7.8,15.5a19.8,19.8,0,0,1-2.8,10.6,18.8,18.8,0,0,1-7.6,7.2A20.9,20.9,0,0,1,1252.6,425.6Zm-53-34.5v22.4h21.3c5.2,0,9.3-1,12.1-2.9a9.3,9.3,0,0,0,4.2-8.3,9.5,9.5,0,0,0-4.2-8.4c-2.8-1.9-6.9-2.8-12.1-2.8Zm41.8,45.8c0-7.8-5.8-11.7-17.5-11.7h-24.3v23.4h24.3C1235.6,448.6,1241.4,444.7,1241.4,436.9Z"/><path class="cls-1" d="M1325.8,460.4l-16.6-23.8-3.1.2h-18.4v23.6h-15V379.3h33.4c7,0,13.1,1.1,18.3,3.5a26.8,26.8,0,0,1,12,9.9,27.7,27.7,0,0,1,4.2,15.4,27.4,27.4,0,0,1-4.5,15.8,25.6,25.6,0,0,1-12.8,9.8l18.7,26.7Zm-5.5-64.2c-3.4-2.8-8.4-4.2-14.9-4.2h-17.7v32.4h17.7c6.5,0,11.5-1.5,14.9-4.3s5.1-6.8,5.1-12S1323.7,399,1320.3,396.2Z"/><path class="cls-1" d="M1357.4,379.3h15.1v81.1h-15.1Z"/><path class="cls-1" d="M1409.7,456.2a39.7,39.7,0,0,1-15.5-14.9,41.1,41.1,0,0,1-5.6-21.5,41.7,41.7,0,0,1,5.6-21.4,40.6,40.6,0,0,1,15.6-14.9,45.6,45.6,0,0,1,22.2-5.4,46.5,46.5,0,0,1,18.2,3.5,37,37,0,0,1,13.9,10.1l-9.7,9.1a28.6,28.6,0,0,0-21.7-9.5,29.4,29.4,0,0,0-14.9,3.7,26.6,26.6,0,0,0-10.4,10.1,30,30,0,0,0-3.7,14.7,30.4,30.4,0,0,0,3.7,14.8,26.6,26.6,0,0,0,10.4,10.1,30.4,30.4,0,0,0,14.9,3.6,28.3,28.3,0,0,0,21.7-9.6l9.7,9.3a37,37,0,0,1-13.9,10.1,47.7,47.7,0,0,1-18.3,3.5A45.6,45.6,0,0,1,1409.7,456.2Z"/><path class="cls-1" d="M1550.7,379.3v81.1h-15.1V425.6h-41.9v34.8h-15.1V379.3h15.1v33.5h41.9V379.3Z"/><path class="cls-2" d="M300.8,581.8l-9.2-13.1-3.3.2H277.4v12.9h-4.3V541.2h15.2c5.2,0,9.3,1.2,12.2,3.7a12.8,12.8,0,0,1,4.4,10.2,13.1,13.1,0,0,1-2.4,8,13.5,13.5,0,0,1-6.9,4.8l9.9,13.9Zm-3.4-19.2a9.1,9.1,0,0,0,3.2-7.5c0-3.3-1-5.8-3.2-7.6s-5.2-2.6-9.2-2.6H277.4v20.3h10.8C292.2,565.2,295.3,564.4,297.4,562.6Z"/><path class="cls-2" d="M349.5,578v3.8H320.8V541.2h27.8v3.7H325.1v14.4h21V563h-21v15Z"/><path class="cls-2" d="M371.9,579.4a19.7,19.7,0,0,1-7.6-7.3,22.2,22.2,0,0,1,0-21.2,20.7,20.7,0,0,1,7.6-7.4,22.2,22.2,0,0,1,10.9-2.6,23.2,23.2,0,0,1,8.4,1.5,17.1,17.1,0,0,1,6.5,4.4l-2.8,2.7a16,16,0,0,0-12-4.8,17.1,17.1,0,0,0-8.7,2.2,16.2,16.2,0,0,0-6.2,6,16.7,16.7,0,0,0-2.2,8.6,16.1,16.1,0,0,0,8.4,14.6,18.1,18.1,0,0,0,8.7,2.2,15.7,15.7,0,0,0,12-4.9l2.8,2.7a18,18,0,0,1-6.6,4.5,22.3,22.3,0,0,1-8.3,1.5A22,22,0,0,1,371.9,579.4Z"/><path class="cls-2" d="M446.5,541.2v40.6h-4.2V563H416.9v18.8h-4.3V541.2h4.3v18.1h25.4V541.2Z"/><path class="cls-2" d="M473.4,544.9H459.1v-3.7h32.8v3.7H477.7v36.9h-4.3Z"/><path class="cls-2" d="M506.4,580.7a16.6,16.6,0,0,1-6.4-3.9l1.7-3.3a15.6,15.6,0,0,0,5.9,3.6,21.2,21.2,0,0,0,7.5,1.4c3.6,0,6.4-.7,8.2-2a6.3,6.3,0,0,0,2.7-5.2,5.1,5.1,0,0,0-1.5-3.9,9.5,9.5,0,0,0-3.6-2.2,51.5,51.5,0,0,0-6-1.8,55.3,55.3,0,0,1-7.3-2.2,11.5,11.5,0,0,1-4.6-3.3,8.4,8.4,0,0,1-2-5.9,10.8,10.8,0,0,1,1.6-5.6,11.3,11.3,0,0,1,5-4,21,21,0,0,1,8.4-1.5,25.9,25.9,0,0,1,6.8.9,18.7,18.7,0,0,1,5.7,2.6l-1.4,3.5a19.2,19.2,0,0,0-5.4-2.6,23.7,23.7,0,0,0-5.7-.8q-5.4,0-8.1,2.1a6.4,6.4,0,0,0-2.6,5.3,5.2,5.2,0,0,0,1.4,3.9,9.9,9.9,0,0,0,3.7,2.2,47,47,0,0,0,6,1.7,73.1,73.1,0,0,1,7.2,2.2,11.2,11.2,0,0,1,4.7,3.3,8.3,8.3,0,0,1,1.9,5.8,9.7,9.7,0,0,1-1.6,5.6,11,11,0,0,1-5.1,4,21,21,0,0,1-8.4,1.5A28.3,28.3,0,0,1,506.4,580.7Z"/><path class="cls-2" d="M570.8,570.9H548.2l-4.9,10.9h-4.4l18.5-40.6h4.2l18.6,40.6h-4.5Zm-1.6-3.5-9.7-21.7-9.7,21.7Z"/><path class="cls-2" d="M626.6,541.2v40.6H623l-26-33v33h-4.3V541.2h3.5l26.1,32.9V541.2Z"/><path class="cls-2" d="M700.8,541.2l-13.7,40.6h-4.5l-11.9-34.6-11.9,34.6h-4.5l-13.6-40.6h4.4l11.7,34.9,12.1-34.9h4l11.9,35.1,11.9-35.1Z"/><path class="cls-2" d="M738.6,570.9H716l-4.8,10.9h-4.5l18.5-40.6h4.3L748,581.8h-4.5Zm-1.5-3.5-9.8-21.7-9.7,21.7Z"/><path class="cls-2" d="M760.5,541.2h4.3V578h22.7v3.8h-27Z"/><path class="cls-2" d="M804.6,544.9H790.3v-3.7h32.8v3.7H808.9v36.9h-4.3Z"/><path class="cls-2" d="M885.7,582.4l-5.6-5.8c-3.4,3.7-7.9,5.5-13.5,5.5a17.6,17.6,0,0,1-7.1-1.3,11.9,11.9,0,0,1-4.8-3.6,8.8,8.8,0,0,1-1.8-5.4,10.3,10.3,0,0,1,2.4-6.6q2.3-2.9,7.8-6a28,28,0,0,1-4-5.2,10,10,0,0,1-1.1-4.5,8,8,0,0,1,2.8-6.2,11.3,11.3,0,0,1,7.5-2.4,10,10,0,0,1,6.9,2.2,7.2,7.2,0,0,1,2.5,5.9,7.9,7.9,0,0,1-2,5.4,26.1,26.1,0,0,1-7,5.3l11.1,11.5a25.4,25.4,0,0,0,2.8-7.9l3.3,1.1a25.8,25.8,0,0,1-3.6,9.3l5.8,6Zm-8-8.3-12.2-12.6c-3.2,1.9-5.5,3.5-6.7,5a7.4,7.4,0,0,0-1.8,4.9,6.2,6.2,0,0,0,2.7,5.3,11.9,11.9,0,0,0,7.1,2A13.9,13.9,0,0,0,877.7,574.1Zm-14.1-28.6a4.8,4.8,0,0,0-1.7,4,6.9,6.9,0,0,0,.9,3.4,21.6,21.6,0,0,0,3.6,4.4,26.3,26.3,0,0,0,6.1-4.3,5.4,5.4,0,0,0,1.7-4,4.7,4.7,0,0,0-1.6-3.7,6.1,6.1,0,0,0-4.3-1.3A6.8,6.8,0,0,0,863.6,545.5Z"/><path class="cls-2" d="M964.4,541.2v40.6h-4.2V549.3l-15.9,27.3h-2l-15.9-27.1v32.3h-4.2V541.2h3.6l17.6,30.1,17.4-30.1Z"/><path class="cls-2" d="M1012,578v3.8H983.4V541.2h27.8v3.7H987.7v14.4h20.9V563H987.7v15Z"/><path class="cls-2" d="M1027.9,541.2h16.5a24.6,24.6,0,0,1,11.4,2.6,18.2,18.2,0,0,1,7.6,7.2,19.2,19.2,0,0,1,2.8,10.5,19.7,19.7,0,0,1-2.8,10.5,18.2,18.2,0,0,1-7.6,7.2,24.6,24.6,0,0,1-11.4,2.6h-16.5Zm16.3,36.8a19.4,19.4,0,0,0,9.3-2.1,14.5,14.5,0,0,0,6.2-5.8,16.4,16.4,0,0,0,2.2-8.6,16.2,16.2,0,0,0-2.2-8.6,14.7,14.7,0,0,0-6.2-5.9,19.4,19.4,0,0,0-9.3-2.1h-12V578Z"/><path class="cls-2" d="M1081.6,541.2h4.3v40.6h-4.3Z"/><path class="cls-2" d="M1130.3,570.9h-22.6l-4.9,10.9h-4.4l18.5-40.6h4.2l18.6,40.6h-4.5Zm-1.6-3.5-9.7-21.7-9.7,21.7Z"/><path class="cls-2" d="M1158.1,544.9h-14.3v-3.7h32.8v3.7h-14.3v36.9h-4.2Z"/><path class="cls-2" d="M1195.5,579.4a18.9,18.9,0,0,1-7.7-7.4,20.5,20.5,0,0,1-2.7-10.5,21.2,21.2,0,0,1,2.7-10.6,19.6,19.6,0,0,1,7.7-7.4,23.1,23.1,0,0,1,10.9-2.6,21.6,21.6,0,0,1,10.8,2.6,20.3,20.3,0,0,1,7.7,7.4,22.2,22.2,0,0,1,0,21.2,19.3,19.3,0,0,1-7.7,7.3,21.6,21.6,0,0,1-10.8,2.7A22,22,0,0,1,1195.5,579.4Zm19.6-3.3a15.3,15.3,0,0,0,6.1-6,18,18,0,0,0,2.2-8.6,17.4,17.4,0,0,0-2.2-8.6,16.2,16.2,0,0,0-6.1-6.1,19.1,19.1,0,0,0-17.4,0,15.8,15.8,0,0,0-6.2,6.1,16.4,16.4,0,0,0-2.2,8.6,16.9,16.9,0,0,0,2.2,8.6,14.9,14.9,0,0,0,6.2,6,18.3,18.3,0,0,0,17.4,0Z"/><path class="cls-2" d="M1270.7,581.8l-9.2-13.1-3.3.2h-10.9v12.9h-4.2V541.2h15.1c5.2,0,9.3,1.2,12.2,3.7a12.8,12.8,0,0,1,4.4,10.2,13.1,13.1,0,0,1-2.4,8,13.5,13.5,0,0,1-6.9,4.8l9.9,13.9Zm-3.4-19.2a9.1,9.1,0,0,0,3.2-7.5c0-3.3-1-5.8-3.2-7.6s-5.2-2.6-9.2-2.6h-10.8v20.3h10.8C1262.1,565.2,1265.2,564.4,1267.3,562.6Z"/><polygon class="cls-2" points="840.6 224.6 840.6 0 831.1 0 775.3 28.7 719.5 0 710.1 0 710.1 224.6 680.6 224.6 680.6 235.8 721.1 235.8 721.1 15.4 770.1 39.8 770.1 116.8 770.1 117 770.1 286.4 752.1 286.4 752.1 297.2 780.8 297.2 780.8 116.9 780.8 116.8 780.8 39.7 829.5 15.4 829.5 235.8 870.1 235.8 870.1 224.6 840.6 224.6"/><polygon class="cls-2" points="804 155.1 804 76.1 822 76.1 822 65.2 793.2 65.2 793.2 152.3 757.3 152.3 757.3 65.2 728.5 65.2 728.5 76.1 746.5 76.1 746.5 155.1 746.5 155.4 746.5 255.6 728.5 255.6 728.5 266.5 757.3 266.5 757.3 162.3 793.2 162.3 793.2 266.5 822 266.5 822 255.6 804 255.6 804 155.4 804 155.1"/></g></g></svg>