<?xml version="1.0"?>
<svg xmlns="http://www.w3.org/2000/svg" xmlns:xlink="http://www.w3.org/1999/xlink" xmlns:svgjs="http://svgjs.com/svgjs" version="1.1" width="512" height="512" x="0" y="0" viewBox="0 0 512 512" style="enable-background:new 0 0 512 512" xml:space="preserve" class=""><g>
<g xmlns="http://www.w3.org/2000/svg">
	<g>
		<path d="M399.523,137.304c10.129-9.874,13.707-24.366,9.335-37.82c-4.372-13.454-15.783-23.074-29.783-25.109l-42.853-6.227    c-5.211-0.758-9.712-4.028-12.043-8.751l-19.164-38.832C298.754,7.881,286.077,0,271.931,0c-14.145,0-26.822,7.881-33.083,20.566    l-19.164,38.832c-2.33,4.722-6.834,7.993-12.043,8.751l-42.853,6.227c-13.998,2.034-25.411,11.656-29.783,25.109    c-4.371,13.454-0.794,27.946,9.336,37.82l31.008,30.226c3.771,3.676,5.49,8.968,4.601,14.158l-7.32,42.68    c-2.392,13.942,3.233,27.769,14.677,36.084c6.467,4.699,14.033,7.085,21.65,7.085c5.863,0,11.757-1.415,17.203-4.278    l38.329-20.151c4.66-2.451,10.225-2.45,14.887,0l38.33,20.151c12.52,6.583,27.409,5.508,38.853-2.808    c11.445-8.315,17.068-22.141,14.677-36.084l-7.32-42.68c-0.89-5.19,0.83-10.483,4.6-14.158L399.523,137.304z M353.926,152.565    c-8.697,8.477-12.663,20.685-10.61,32.655l7.32,42.68c1.052,6.137-1.327,11.985-6.363,15.644    c-5.036,3.66-11.333,4.115-16.846,1.217l-38.33-20.151c-10.748-5.651-23.584-5.651-34.334,0.001l-38.329,20.151    c-5.511,2.898-11.808,2.442-16.846-1.217c-5.037-3.659-7.417-9.509-6.363-15.644l7.32-42.68    c2.053-11.97-1.913-24.178-10.611-32.655l-31.008-30.226c-4.459-4.347-5.972-10.476-4.048-16.398    c1.924-5.921,6.751-9.991,12.912-10.886l42.853-6.227c12.018-1.746,22.403-9.291,27.779-20.182l19.164-38.832    c2.756-5.585,8.119-8.918,14.345-8.918c6.226,0,11.588,3.333,14.343,8.916l19.164,38.832    c5.375,10.891,15.759,18.435,27.777,20.182l42.853,6.227c6.161,0.895,10.988,4.965,12.912,10.887    c1.925,5.921,0.412,12.051-4.047,16.396L353.926,152.565z" fill="#ffffff" data-original="#000000" style="" class=""/>
	</g>
</g>
<g xmlns="http://www.w3.org/2000/svg">
	<g>
		<path d="M228.45,136.519l-27.402-26.712c-4.134-4.029-10.749-3.944-14.776,0.189c-4.028,4.133-3.943,10.748,0.189,14.776    l27.402,26.711c3.046,2.969,4.435,7.243,3.716,11.435l-0.786,4.581c-0.976,5.687,2.844,11.089,8.533,12.064    c0.598,0.102,1.192,0.153,1.778,0.153c4.996,0,9.413-3.594,10.286-8.684l0.786-4.581    C240.058,155.478,236.422,144.289,228.45,136.519z" fill="#ffffff" data-original="#000000" style="" class=""/>
	</g>
</g>
<g xmlns="http://www.w3.org/2000/svg">
	<g>
		<path d="M119.118,273.762C53.436,273.762,0,327.198,0,392.88s53.436,119.118,119.118,119.118s119.118-53.436,119.118-119.118    S184.8,273.762,119.118,273.762z M119.118,491.1c-13.113,0-25.63-2.589-37.078-7.273c-18.58-9.455-32.411-25.545-38.955-45.354    c-6.582-19.922-5.012-41.216,4.421-59.957c7.294-14.495,19.799-25.28,35.207-30.371c15.407-5.091,31.874-3.877,46.37,3.419    c11.097,5.585,19.355,15.157,23.252,26.954c3.897,11.797,2.968,24.404-2.617,35.501c-4.217,8.379-11.445,14.614-20.352,17.557    c-8.908,2.941-18.427,2.241-26.806-1.977c-6.205-3.122-10.822-8.474-13.001-15.07s-1.659-13.645,1.463-19.85    c4.639-9.218,15.911-12.943,25.131-8.303c5.154,2.593,11.436,0.519,14.031-4.636c2.594-5.154,0.519-11.436-4.636-14.031    c-19.511-9.82-43.372-1.936-53.192,17.574c-5.632,11.19-6.57,23.905-2.639,35.801s12.258,21.55,23.448,27.181    c13.365,6.727,28.551,7.847,42.757,3.153s25.736-14.64,32.463-28.004c8.096-16.083,9.443-34.356,3.794-51.453    c-5.649-17.096-17.617-30.97-33.7-39.065c-19.48-9.804-41.613-11.436-62.322-4.594c-20.708,6.842-37.513,21.338-47.318,40.819    c-3.496,6.946-6.132,14.172-7.913,21.547c1.182-53.141,44.774-96.008,98.193-96.008c54.159,0,98.22,44.061,98.22,98.22    S173.277,491.1,119.118,491.1z" fill="#ffffff" data-original="#000000" style="" class=""/>
	</g>
</g>
<g xmlns="http://www.w3.org/2000/svg">
	<g>
		<path d="M135.922,398.996c-5.142-2.589-11.43-0.488-14.037,4.645c-2.613,5.145-0.561,11.434,4.584,14.049    c1.517,0.77,3.133,1.135,4.724,1.135c3.809,0,7.481-2.09,9.325-5.719c0.014-0.026,0.058-0.117,0.071-0.143l-9.342-4.678    l9.35,4.665C143.165,407.799,141.064,401.584,135.922,398.996z" fill="#ffffff" data-original="#000000" style="" class=""/>
	</g>
</g>
<g xmlns="http://www.w3.org/2000/svg">
	<g>
		<path d="M329.074,376.599l-0.039-0.062c-3.041-4.905-9.464-6.386-14.367-3.346c-4.905,3.041-6.398,9.513-3.357,14.417    c1.978,3.191,5.395,4.945,8.891,4.945c1.879,0,3.781-0.507,5.495-1.569C330.602,387.945,332.114,381.505,329.074,376.599z" fill="#ffffff" data-original="#000000" style="" class=""/>
	</g>
</g>
<g xmlns="http://www.w3.org/2000/svg">
	<g>
		<path d="M377.543,454.78l-31.589-50.953c-3.041-4.905-9.482-6.415-14.386-3.375c-4.905,3.041-6.416,9.481-3.375,14.386    l31.589,50.953c1.978,3.19,5.394,4.944,8.89,4.944c1.879,0,3.781-0.507,5.496-1.569    C379.073,466.125,380.584,459.685,377.543,454.78z" fill="#ffffff" data-original="#000000" style="" class=""/>
	</g>
</g>
<g xmlns="http://www.w3.org/2000/svg">
	<g>
		<path d="M511.805,365.003c-1.078-9.939-6.527-18.73-14.949-24.118l-100.173-64.09c-12.89-8.246-30.098-6.378-40.918,4.441    l-74.528,74.528c-10.819,10.82-12.687,28.028-4.441,40.918l64.089,100.173c5.388,8.422,14.178,13.87,24.118,14.949    c1.203,0.131,2.4,0.195,3.592,0.195c8.665,0,16.958-3.406,23.172-9.621l110.612-110.612    C509.448,384.697,512.884,374.942,511.805,365.003z M487.601,376.99L376.988,487.602c-2.569,2.57-6.118,3.819-9.731,3.428    c-3.614-0.392-6.811-2.373-8.77-5.435l-64.089-100.173c-2.999-4.687-2.32-10.944,1.614-14.878l74.528-74.528    c2.29-2.291,5.37-3.478,8.468-3.478c2.221,0,4.453,0.611,6.411,1.863l100.173,64.089c3.063,1.959,5.044,5.156,5.436,8.77    C491.421,370.872,490.172,374.419,487.601,376.99z" fill="#ffffff" data-original="#000000" style="" class=""/>
	</g>
</g>
<g xmlns="http://www.w3.org/2000/svg">
	<g>
		<path d="M221.409,191.814c-5.771,0-10.449,4.678-10.449,10.449v0.137c0,5.771,4.678,10.449,10.449,10.449    s10.449-4.678,10.449-10.449v-0.137C231.858,196.492,227.179,191.814,221.409,191.814z" fill="#ffffff" data-original="#000000" style="" class=""/>
	</g>
</g>
<g xmlns="http://www.w3.org/2000/svg">
</g>
<g xmlns="http://www.w3.org/2000/svg">
</g>
<g xmlns="http://www.w3.org/2000/svg">
</g>
<g xmlns="http://www.w3.org/2000/svg">
</g>
<g xmlns="http://www.w3.org/2000/svg">
</g>
<g xmlns="http://www.w3.org/2000/svg">
</g>
<g xmlns="http://www.w3.org/2000/svg">
</g>
<g xmlns="http://www.w3.org/2000/svg">
</g>
<g xmlns="http://www.w3.org/2000/svg">
</g>
<g xmlns="http://www.w3.org/2000/svg">
</g>
<g xmlns="http://www.w3.org/2000/svg">
</g>
<g xmlns="http://www.w3.org/2000/svg">
</g>
<g xmlns="http://www.w3.org/2000/svg">
</g>
<g xmlns="http://www.w3.org/2000/svg">
</g>
<g xmlns="http://www.w3.org/2000/svg">
</g>
</g></svg>
