<svg xmlns="http://www.w3.org/2000/svg" viewBox="0 0 384 384"><title>cartri</title><g id="fd3cf1d2-a6b0-49c0-9132-f373e01c1ddc" data-name="Layer 2"><g id="b084e268-d269-499b-996e-913d50fab320" data-name="Layer 1"><path d="M0,295.5V0H351.8c-3.2,2.3-6.7,4.3-9.5,7-7.3,6.9-14.2,14.1-21.2,21.2a5.6,5.6,0,0,1-5.6,2c-8.9-1.4-17.9-2.1-26.7-3.9-15.2-3.1-27,1.4-38,12.6-49.4,50.2-99.4,99.9-149.2,149.8L65.3,225.1c-1.3,1.4-2.9,3.3-2.8,4.9a8.4,8.4,0,0,0,3,5.4c2.5,1.8,5,.3,7-1.7l26-26,2.8-2.6L142,245.6a26.2,26.2,0,0,0,3,2.8c2.4,1.8,5,1.8,7.2-.3s2.4-4.9.6-7.4a19.5,19.5,0,0,0-3.1-3.3l-40.1-39.9,49.6-49.4L236,224.3l-49.9,49.8c-.7-.7-1.5-1.8-2.4-2.8-4.2-4.1-8.2-8.5-12.6-12.3a7.7,7.7,0,0,0-6.1-1.3,5.9,5.9,0,0,0-3.3,4.3,8.1,8.1,0,0,0,2.4,5.5c4.7,5.1,9.8,9.8,14.6,14.6l-.5,1.2L91.8,369.8c-4.2,4.2-9.7,4.1-14.1-.2-21.1-21.1-42.3-42.2-63.3-63.4-4.4-4.5-4.3-9.8.1-14.3s6.7-6.8,10-10.1l27.8-27.9c3.4-3.4,3.3-7.5-.2-9.5s-5.6-.6-8,1.8c-11.3,11.4-22.7,22.9-34.2,34.2C5.5,284.8,1.6,289.3,0,295.5Zm173.1-64.4A20.8,20.8,0,1,0,152,210.5C152.1,222.3,161.2,231.1,173.1,231.1Z" fill="#fff"/><path d="M384,32.2V384H88.5c3.9-2.2,8.4-3.6,11.5-6.7q81.3-80.9,162.2-162.2c3.2-3.2,3.6-6.8,1.1-9.2s-5.7-2-8.9,1.1l-8.6,9-24.7-24.5L255,157.6c6.1,10.7,16.6,16.1,28.4,21-3.6,3.5-6.7,6.1-9.4,9a5.2,5.2,0,0,0,.2,7.7c2.3,2.1,4.9,2.1,7.5.2a19.9,19.9,0,0,0,2.1-2l39.8-39.8L349,128.2c7.4-7.5,10.5-16.4,9-27s-2.9-21.8-4.1-32.7a7.4,7.4,0,0,1,1.7-5.2c6.9-7.2,14.2-14.1,21.1-21.3C379.5,39.1,381.6,35.5,384,32.2Z" fill="#fff"/><path d="M384,32.2c-2.4,3.3-4.5,6.9-7.3,9.8-6.9,7.2-14.2,14.1-21.1,21.3a7.4,7.4,0,0,0-1.7,5.2c1.2,10.9,2.6,21.8,4.1,32.7s-1.6,19.5-9,27l-25.4,25.5-39.8,39.8a19.9,19.9,0,0,1-2.1,2c-2.6,1.9-5.2,1.9-7.5-.2a5.2,5.2,0,0,1-.2-7.7c2.7-2.9,5.8-5.5,9.4-9-11.8-4.9-22.3-10.3-28.4-21l-33.9,33.9L245.8,216l8.6-9c3.2-3.1,6.4-3.5,8.9-1.1s2.1,6-1.1,9.2q-81,81.2-162.2,162.2c-3.1,3.1-7.6,4.5-11.5,6.7H81c-4.1-2.5-8.8-4.3-12.2-7.5-19.5-19.1-38.6-38.6-58-57.8C6.2,314.1,1.9,309.4,0,303v-7.5c1.6-6.2,5.5-10.7,9.9-15.1,11.5-11.3,22.9-22.8,34.2-34.2,2.4-2.4,4.9-3.6,8-1.8s3.6,6.1.2,9.5L24.5,281.8c-3.3,3.3-6.7,6.6-10,10.1s-4.5,9.8-.1,14.3c21,21.2,42.2,42.3,63.3,63.4,4.4,4.3,9.9,4.4,14.1.2l86.4-86.5.5-1.2c-4.8-4.8-9.9-9.5-14.6-14.6a8.1,8.1,0,0,1-2.4-5.5,5.9,5.9,0,0,1,3.3-4.3,7.7,7.7,0,0,1,6.1,1.3c4.4,3.8,8.4,8.2,12.6,12.3.9,1,1.7,2.1,2.4,2.8L236,224.3l-76.8-76.2-49.6,49.4,40.1,39.9a19.5,19.5,0,0,1,3.1,3.3c1.8,2.5,1.7,5.2-.6,7.4s-4.8,2.1-7.2.3a26.2,26.2,0,0,1-3-2.8l-40.7-40.5-2.8,2.6-26,26c-2,2-4.5,3.5-7,1.7a8.4,8.4,0,0,1-3-5.4c-.1-1.6,1.5-3.5,2.8-4.9l36.3-36.4c49.8-49.9,99.8-99.6,149.2-149.8,11-11.2,22.8-15.7,38-12.6,8.8,1.8,17.8,2.5,26.7,3.9a5.6,5.6,0,0,0,5.6-2c7-7.1,13.9-14.3,21.2-21.2,2.8-2.7,6.3-4.7,9.5-7h6A82.3,82.3,0,0,1,384,26.3Zm-46.6,91.4c6.2-5.2,10.7-11.1,9.6-19.7-1.5-11.4-2.8-22.8-4.5-34.1a15.6,15.6,0,0,1,4.8-14.2c7.9-7.7,15.5-15.6,23.4-23.3,2.4-2.3,2.3-3.9-.1-6.1-4.3-4.1-8.6-8.3-12.7-12.7-2.3-2.5-3.9-2.6-6.3,0-7.8,8-15.7,15.7-23.6,23.6a13.9,13.9,0,0,1-12.8,4.4c-10.9-1.7-21.8-2.9-32.7-4.7s-16.8,1.7-22.8,10.1a14.8,14.8,0,0,1,3,2.1c4.8,4.8,9.6,9.5,14.2,14.4a5.5,5.5,0,0,1,.1,7.8,5.6,5.6,0,0,1-7.8.1,26.2,26.2,0,0,1-3-2.8L252.5,54.7l-12.3,12c25.6,25.5,51.3,51.1,77,76.5l11.7-11.8c-.5-.4-1.1-1.2-1.8-1.9-13-13-26-25.9-38.9-39-2.9-2.9-3-6.2-.5-8.6s5.4-2.1,8.3.6l2.4,2.3ZM205.6,101.1l-37.3,37.2,23.8,24L226,128.6C215.4,122.5,209.9,112.2,205.6,101.1ZM284,127.6c-6.5,6.5-13.1,13.1-19.6,19.8-.7.7-.7,2.8-.2,3.8a31.3,31.3,0,0,0,12.9,12.1c4.5,2.3,9.1,4.5,13.4,6.5l18.2-17.9ZM232.1,75.7,213.9,93.6c5.8,9.5,8.4,22,20.1,26.6l21.3-21.4C247.6,91,239.5,83,232.1,75.7Zm-31,95.3,11.7,12,35.1-35.1a4,4,0,0,0,.1-3.7c-3.1-3.6-6.6-6.9-9.8-10.2Zm74.6-51.5-11.1-11.2-17.3,17.3,11,11.2Z" fill="#fff"/><path d="M0,303c1.9,6.4,6.2,11.1,10.8,15.7,19.4,19.2,38.5,38.7,58,57.8,3.4,3.2,8.1,5,12.2,7.5H0Z" fill="#fff"/><path d="M384,26.3A82.3,82.3,0,0,0,357.8,0H384Z" fill="#fff"/><path d="M173.1,231.1c-11.9,0-21-8.8-21.1-20.6a20.9,20.9,0,1,1,21.1,20.6Zm-.3-11.3a9.5,9.5,0,1,0,.5-19c-5.7-.1-9.9,3.8-10,9.3A9.3,9.3,0,0,0,172.8,219.8Z" fill="#fff"/><path d="M337.4,123.6l-39-38.8L296,82.5c-2.9-2.7-6-2.9-8.3-.6s-2.4,5.7.5,8.6c12.9,13.1,25.9,26,38.9,39,.7.7,1.3,1.5,1.8,1.9l-11.7,11.8c-25.7-25.4-51.4-51-77-76.5l12.3-12,13.7,13.8a26.2,26.2,0,0,0,3,2.8,5.6,5.6,0,0,0,7.8-.1,5.5,5.5,0,0,0-.1-7.8c-4.6-4.9-9.4-9.6-14.2-14.4a14.8,14.8,0,0,0-3-2.1c6-8.4,13.3-11.6,22.8-10.1s21.8,3,32.7,4.7A13.9,13.9,0,0,0,328,37.1c7.9-7.9,15.8-15.6,23.6-23.6,2.4-2.6,4-2.5,6.3,0,4.1,4.4,8.4,8.6,12.7,12.7,2.4,2.2,2.5,3.8.1,6.1-7.9,7.7-15.5,15.6-23.4,23.3a15.6,15.6,0,0,0-4.8,14.2c1.7,11.3,3,22.7,4.5,34.1C348.1,112.5,343.6,118.4,337.4,123.6Z" fill="#fff"/><path d="M205.6,101.1c4.3,11.1,9.8,21.4,20.4,27.5l-33.9,33.7-23.8-24Z" fill="#fff"/><path d="M284,127.6l24.7,24.3-18.2,17.9c-4.3-2-8.9-4.2-13.4-6.5a31.3,31.3,0,0,1-12.9-12.1c-.5-1-.5-3.1.2-3.8C270.9,140.7,277.5,134.1,284,127.6Z" fill="#fff"/><path d="M232.1,75.7c7.4,7.3,15.5,15.3,23.2,23.1L234,120.2c-11.7-4.6-14.3-17.1-20.1-26.6Z" fill="#fff"/><path d="M201.1,171l37.1-37c3.2,3.3,6.7,6.6,9.8,10.2a4,4,0,0,1-.1,3.7L212.8,183Z" fill="#fff"/><path d="M275.7,119.5l-17.4,17.3-11-11.2,17.3-17.3Z" fill="#fff"/><path d="M172.8,219.8a9.3,9.3,0,0,1-9.5-9.7c.1-5.5,4.3-9.4,10-9.3a9.5,9.5,0,1,1-.5,19Z" fill="#fff"/></g></g></svg>