<svg xmlns="http://www.w3.org/2000/svg" viewBox="0 0 384 384"><title>catri</title><g id="b1f7af56-7262-4a32-a3dd-2e3d457f2c82" data-name="Layer 2"><g id="a5ac34d0-1738-4122-9170-2c187763baca" data-name="Layer 1"><path d="M384,32.2c-2.4,3.3-4.5,6.9-7.3,9.8-6.9,7.2-14.2,14.1-21.1,21.3a7.4,7.4,0,0,0-1.7,5.2c1.2,10.9,2.6,21.8,4.1,32.7s-1.6,19.5-9,27l-25.4,25.5-39.8,39.8a19.9,19.9,0,0,1-2.1,2c-2.6,1.9-5.2,1.9-7.5-.2a5.2,5.2,0,0,1-.2-7.7c2.7-2.9,5.8-5.5,9.4-9-11.8-4.9-22.3-10.3-28.4-21l-33.9,33.9L245.8,216l8.6-9c3.2-3.1,6.4-3.5,8.9-1.1s2.1,6-1.1,9.2q-81,81.2-162.2,162.2c-3.1,3.1-7.6,4.5-11.5,6.7H81c-4.1-2.5-8.8-4.3-12.2-7.5-19.5-19.1-38.6-38.6-58-57.8C6.2,314.1,1.9,309.4,0,303v-7.5c1.6-6.2,5.5-10.7,9.9-15.1,11.5-11.3,22.9-22.8,34.2-34.2,2.4-2.4,4.9-3.6,8-1.8s3.6,6.1.2,9.5L24.5,281.8c-3.3,3.3-6.7,6.6-10,10.1s-4.5,9.8-.1,14.3c21,21.2,42.2,42.3,63.3,63.4,4.4,4.3,9.9,4.4,14.1.2l86.4-86.5.5-1.2c-4.8-4.8-9.9-9.5-14.6-14.6a8.1,8.1,0,0,1-2.4-5.5,5.9,5.9,0,0,1,3.3-4.3,7.7,7.7,0,0,1,6.1,1.3c4.4,3.8,8.4,8.2,12.6,12.3.9,1,1.7,2.1,2.4,2.8L236,224.3l-76.8-76.2-49.6,49.4,40.1,39.9a19.5,19.5,0,0,1,3.1,3.3c1.8,2.5,1.7,5.2-.6,7.4s-4.8,2.1-7.2.3a26.2,26.2,0,0,1-3-2.8l-40.7-40.5-2.8,2.6-26,26c-2,2-4.5,3.5-7,1.7a8.4,8.4,0,0,1-3-5.4c-.1-1.6,1.5-3.5,2.8-4.9l36.3-36.4c49.8-49.9,99.8-99.6,149.2-149.8,11-11.2,22.8-15.7,38-12.6,8.8,1.8,17.8,2.5,26.7,3.9a5.6,5.6,0,0,0,5.6-2c7-7.1,13.9-14.3,21.2-21.2,2.8-2.7,6.3-4.7,9.5-7h6A82.3,82.3,0,0,1,384,26.3Zm-46.6,91.4c6.2-5.2,10.7-11.1,9.6-19.7-1.5-11.4-2.8-22.8-4.5-34.1a15.6,15.6,0,0,1,4.8-14.2c7.9-7.7,15.5-15.6,23.4-23.3,2.4-2.3,2.3-3.9-.1-6.1-4.3-4.1-8.6-8.3-12.7-12.7-2.3-2.5-3.9-2.6-6.3,0-7.8,8-15.7,15.7-23.6,23.6a13.9,13.9,0,0,1-12.8,4.4c-10.9-1.7-21.8-2.9-32.7-4.7s-16.8,1.7-22.8,10.1a14.8,14.8,0,0,1,3,2.1c4.8,4.8,9.6,9.5,14.2,14.4a5.5,5.5,0,0,1,.1,7.8,5.6,5.6,0,0,1-7.8.1,26.2,26.2,0,0,1-3-2.8L252.5,54.7l-12.3,12c25.6,25.5,51.3,51.1,77,76.5l11.7-11.8c-.5-.4-1.1-1.2-1.8-1.9-13-13-26-25.9-38.9-39-2.9-2.9-3-6.2-.5-8.6s5.4-2.1,8.3.6l2.4,2.3ZM205.6,101.1l-37.3,37.2,23.8,24L226,128.6C215.4,122.5,209.9,112.2,205.6,101.1ZM284,127.6c-6.5,6.5-13.1,13.1-19.6,19.8-.7.7-.7,2.8-.2,3.8a31.3,31.3,0,0,0,12.9,12.1c4.5,2.3,9.1,4.5,13.4,6.5l18.2-17.9ZM232.1,75.7,213.9,93.6c5.8,9.5,8.4,22,20.1,26.6l21.3-21.4C247.6,91,239.5,83,232.1,75.7Zm-31,95.3,11.7,12,35.1-35.1a4,4,0,0,0,.1-3.7c-3.1-3.6-6.6-6.9-9.8-10.2Zm74.6-51.5-11.1-11.2-17.3,17.3,11,11.2Z" fill="#fff"/><path d="M173.1,231.1c-11.9,0-21-8.8-21.1-20.6a20.9,20.9,0,1,1,21.1,20.6Zm-.3-11.3a9.5,9.5,0,1,0,.5-19c-5.7-.1-9.9,3.8-10,9.3A9.3,9.3,0,0,0,172.8,219.8Z" fill="#fff"/></g></g></svg>