<?xml version="1.0"?>
<svg xmlns="http://www.w3.org/2000/svg" xmlns:xlink="http://www.w3.org/1999/xlink" xmlns:svgjs="http://svgjs.com/svgjs" version="1.1" width="512" height="512" x="0" y="0" viewBox="0 0 512 512" style="enable-background:new 0 0 512 512" xml:space="preserve" class=""><g>
<g xmlns="http://www.w3.org/2000/svg">
	<path d="M332,512h-20.083c-4.143,0-7.5-3.358-7.5-7.5s3.357-7.5,7.5-7.5H324.5V186.518c0-23.229-3.7-46.19-10.998-68.247   L298.521,73h-85.041l-7.334,22.163c-1.301,3.932-5.543,6.064-9.477,4.764c-3.933-1.301-6.065-5.544-4.764-9.477l9.036-27.306   c1.016-3.07,3.886-5.144,7.12-5.144h95.877c3.234,0,6.104,2.073,7.12,5.144l16.684,50.416   c7.802,23.579,11.758,48.126,11.758,72.959V504.5C339.5,508.642,336.143,512,332,512z" fill="#ffffff" data-original="#000000" style=""/>
	<path d="M280.083,512H180c-4.143,0-7.5-3.358-7.5-7.5V186.518c0-22.145,3.162-44.149,9.398-65.399   c1.166-3.974,5.333-6.252,9.309-5.084c3.974,1.166,6.251,5.333,5.084,9.308c-5.833,19.878-8.791,40.46-8.791,61.175V497h92.583   c4.143,0,7.5,3.358,7.5,7.5S284.226,512,280.083,512z" fill="#ffffff" data-original="#000000" style=""/>
	<path d="M256,277c-29.5,0-53.5-28.038-53.5-62.5s24-62.5,53.5-62.5s53.5,28.038,53.5,62.5c0,12.182-2.992,23.985-8.654,34.134   c-2.019,3.617-6.584,4.913-10.204,2.896c-3.617-2.018-4.913-6.586-2.896-10.204c4.419-7.92,6.754-17.197,6.754-26.827   c0-26.191-17.271-47.5-38.5-47.5s-38.5,21.309-38.5,47.5S234.771,262,256,262c4.259,0,8.441-0.856,12.433-2.546   c3.813-1.613,8.216,0.167,9.83,3.983c1.615,3.814-0.168,8.216-3.982,9.831C268.429,275.744,262.278,277,256,277z" fill="#ffffff" data-original="#000000" style=""/>
	<path d="M286,73h-60c-4.143,0-7.5-3.358-7.5-7.5v-58c0-4.142,3.357-7.5,7.5-7.5h60c4.143,0,7.5,3.358,7.5,7.5v58   C293.5,69.642,290.143,73,286,73z M233.5,58h45V15h-45V58z" fill="#ffffff" data-original="#000000" style=""/>
</g>















</g></svg>
