<svg xmlns="http://www.w3.org/2000/svg" viewBox="0 0 120.38 102.49"><defs><style>.cls-1{fill:#f36d5d;}.cls-2{fill:#68264a;}.cls-3{fill:#fff;}</style></defs><title>3</title><g id="Layer_2" data-name="Layer 2"><g id="Layer_4" data-name="Layer 4"><path class="cls-1" d="M53.75,66.22l8.12-13.69L65,63.48a1.45,1.45,0,0,0,.85,1,1.65,1.65,0,0,0,1.32-.09l7.6-4.2,22.43,3.4a1.49,1.49,0,0,0,1.7-1.28l2.5.47a1.51,1.51,0,0,0,1.28,1.75c.38,0,2.08.28,4.06.57a74.19,74.19,0,0,1-5.38,7.27C91.29,84.4,78,93.89,66.88,97.67c-11,1.75-26.17-12.7-26.31-12.84A1.5,1.5,0,1,0,38.5,87c.47.47,9.53,9.06,19.31,12.46a14.55,14.55,0,0,1-2.5-.09c-11-1.51-33.58-21.91-43.45-46L26.6,55.5a1.5,1.5,0,0,0,1.6-.85l3.45-8,3.63,26.07A1.51,1.51,0,0,0,36.56,74h.09a1.45,1.45,0,0,0,1.56-1l9.87-33.24L51,65.61a1.51,1.51,0,0,0,1.18,1.32A1.57,1.57,0,0,0,53.75,66.22Z"/><path class="cls-1" d="M105.5,19.33a1.5,1.5,0,0,0-.28-2.12,1.45,1.45,0,0,0-2.08.28,1.51,1.51,0,0,0,.28,2.12,1.61,1.61,0,0,0,.67.29A1.46,1.46,0,0,0,105.5,19.33Zm3.07,3.73a1.49,1.49,0,1,0-2.08-.33,1.47,1.47,0,0,0,2.08.33ZM96.91,15a1.53,1.53,0,0,0-1.47-1.56,1.55,1.55,0,0,0-1.55,1.47,1.62,1.62,0,0,0,1.27,1.56h.19A1.53,1.53,0,0,0,96.91,15Zm4.63,1.56a1.52,1.52,0,0,0-2.84-1.08,1.56,1.56,0,0,0,.9,2c.09,0,.19.05.28.05A1.49,1.49,0,0,0,101.54,16.59Zm9.86,8.93a1.46,1.46,0,0,0-1.93-.85,1.48,1.48,0,0,0-.85,1.93,1.6,1.6,0,0,0,1.18.95,1.28,1.28,0,0,0,.8-.1A1.44,1.44,0,0,0,111.4,25.52Zm1.85,14.92a1.54,1.54,0,0,0-1.42-1.61,1.49,1.49,0,0,0-1.56,1.42,1.43,1.43,0,0,0,1.23,1.56s.09,0,.14,0A1.49,1.49,0,0,0,113.25,40.44Zm.09-5A1.48,1.48,0,0,0,111.78,34a1.44,1.44,0,0,0-1.41,1.55A1.42,1.42,0,0,0,111.59,37a.29.29,0,0,0,.29,0A1.46,1.46,0,0,0,113.34,35.43Zm-.66,10a1.52,1.52,0,0,0-1.23-1.75,1.55,1.55,0,0,0-1.75,1.27,1.51,1.51,0,0,0,3,.48Zm-1.84-28.34c10.72,11.9,7.08,29.85-2.32,45.29-2.55-.38-4.91-.76-5.43-.8a1.48,1.48,0,0,0-1.7,1.22l-2.5-.47a1.49,1.49,0,0,0-1.27-1.7L74.71,57.11a1.44,1.44,0,0,0-1,.19l-6.37,3.54-3.5-12.52a1.59,1.59,0,0,0-1.27-1.08,1.55,1.55,0,0,0-1.47.71L53.46,60.84,50.25,32a1.51,1.51,0,0,0-1.37-1.33,1.48,1.48,0,0,0-1.55,1.09l-10,33.71L33.91,41a1.46,1.46,0,0,0-1.32-1.28,1.48,1.48,0,0,0-1.56.85L25.89,52.38,10.68,50.17A53.39,53.39,0,0,1,7.33,26.93c.85-8.5,6.33-18.74,16.57-22.52a24.45,24.45,0,0,1,12-1.09C44.11,4.6,53,9.7,62,18.24a1.57,1.57,0,0,0,1.94.19C64.18,18.2,93.89-1.78,110.84,17.06Zm.75,15.11a1.53,1.53,0,0,0,1.23-1.74,1.46,1.46,0,0,0-1.75-1.18A1.49,1.49,0,0,0,109.85,31a1.6,1.6,0,0,0,1.27,1.23A1.51,1.51,0,0,0,111.59,32.17Z"/><path class="cls-2" d="M113.34,35.43A1.46,1.46,0,0,1,111.88,37a.29.29,0,0,1-.29,0,1.42,1.42,0,0,1-1.22-1.42A1.44,1.44,0,0,1,111.78,34,1.48,1.48,0,0,1,113.34,35.43Z"/><path class="cls-2" d="M111.07,29.25a1.46,1.46,0,0,1,1.75,1.18,1.53,1.53,0,0,1-1.23,1.74,1.51,1.51,0,0,1-.47,0A1.6,1.6,0,0,1,109.85,31,1.49,1.49,0,0,1,111.07,29.25Z"/><path class="cls-2" d="M113.25,40.44a1.49,1.49,0,0,1-1.61,1.41s-.09,0-.14,0a1.43,1.43,0,0,1-1.23-1.56,1.49,1.49,0,0,1,1.56-1.42A1.54,1.54,0,0,1,113.25,40.44Z"/><path class="cls-2" d="M111.45,43.65a1.52,1.52,0,0,1,1.23,1.75,1.51,1.51,0,0,1-3-.48A1.55,1.55,0,0,1,111.45,43.65Z"/><path class="cls-2" d="M109.47,24.67a1.46,1.46,0,0,1,1.93.85,1.44,1.44,0,0,1-.8,1.93,1.28,1.28,0,0,1-.8.1,1.6,1.6,0,0,1-1.18-.95A1.48,1.48,0,0,1,109.47,24.67Z"/><path class="cls-2" d="M108.9,21a1.43,1.43,0,0,1-.33,2.08,1.47,1.47,0,0,1-2.08-.33A1.49,1.49,0,0,1,108.9,21Z"/><path class="cls-2" d="M105.22,17.21a1.5,1.5,0,0,1,.28,2.12,1.46,1.46,0,0,1-1.41.57,1.61,1.61,0,0,1-.67-.29,1.51,1.51,0,0,1-.28-2.12A1.45,1.45,0,0,1,105.22,17.21Z"/><path class="cls-2" d="M100.64,14.66a1.49,1.49,0,0,1-.76,2.88c-.09,0-.19-.05-.28-.05a1.56,1.56,0,0,1-.9-2A1.52,1.52,0,0,1,100.64,14.66Z"/><path class="cls-2" d="M95.44,13.47a1.52,1.52,0,0,1-.09,3h-.19a1.62,1.62,0,0,1-1.27-1.56A1.55,1.55,0,0,1,95.44,13.47Z"/><path class="cls-2" d="M67.25,100.64c-4.53,1.52-8.78,2.18-12.32,1.7a.73.73,0,0,0-.29,0c-12.23-1.89-36.5-23.66-46.32-49.4l-7-1A1.57,1.57,0,0,1,0,50.17a1.56,1.56,0,0,1,1.7-1.28l5.57.8a56,56,0,0,1-2.93-23c1-9.44,7-20.83,18.52-25.07,11.94-4.4,26.25.47,40.32,13.69,5.67-3.5,33.1-18.89,49.91-.19,11.48,12.75,8.13,31.5-1.36,47.69,2.45.38,4.48.66,4.48.66l-.42,3-5.81-.8a83.14,83.14,0,0,1-6.33,8.69c-10.25,12.27-23.94,22-35.6,26.06-.1.1-.19.24-.33.28ZM55.31,99.37a14.55,14.55,0,0,0,2.5.09C48,96.06,39,87.47,38.5,87a1.5,1.5,0,1,1,2.07-2.17c.14.14,15.3,14.59,26.31,12.84C78,93.89,91.29,84.4,101.35,72.36a74.19,74.19,0,0,0,5.38-7.27c-2-.29-3.68-.52-4.06-.57a1.51,1.51,0,0,1-1.28-1.75,1.48,1.48,0,0,1,1.7-1.22c.52,0,2.88.42,5.43.8,9.4-15.44,13-33.39,2.32-45.29-17-18.84-46.66,1.14-46.94,1.37A1.57,1.57,0,0,1,62,18.24C53,9.7,44.11,4.6,35.9,3.32a24.45,24.45,0,0,0-12,1.09C13.66,8.19,8.18,18.43,7.33,26.93a53.39,53.39,0,0,0,3.35,23.24l15.21,2.21L31,40.53a1.48,1.48,0,0,1,1.56-.85A1.46,1.46,0,0,1,33.91,41l3.4,24.5,10-33.71a1.48,1.48,0,0,1,1.55-1.09A1.51,1.51,0,0,1,50.25,32l3.21,28.85L61.11,48a1.55,1.55,0,0,1,1.47-.71,1.59,1.59,0,0,1,1.27,1.08l3.5,12.52,6.37-3.54a1.44,1.44,0,0,1,1-.19L97.62,60.6a1.51,1.51,0,0,1-.43,3l-22.43-3.4-7.6,4.2a1.65,1.65,0,0,1-1.32.09,1.45,1.45,0,0,1-.85-1L61.87,52.53,53.75,66.22a1.57,1.57,0,0,1-1.61.71A1.51,1.51,0,0,1,51,65.61L48.08,39.73,38.21,73a1.45,1.45,0,0,1-1.56,1h-.09a1.51,1.51,0,0,1-1.28-1.27L31.65,46.67l-3.45,8a1.5,1.5,0,0,1-1.6.85L11.86,53.38C21.73,77.46,44.35,97.86,55.31,99.37Z"/><path class="cls-3" d="M24,12.14a1.76,1.76,0,0,1-1.62-1.07,1.78,1.78,0,0,1,.92-2.33,22.46,22.46,0,0,1,3.53-1.16A1.77,1.77,0,1,1,27.71,11a19.15,19.15,0,0,0-3,1A1.9,1.9,0,0,1,24,12.14Z"/><path class="cls-3" d="M13.12,42.79a1.77,1.77,0,0,1-1.73-1.4c-.16-.76-3.91-18.89,6-28.7a1.77,1.77,0,1,1,2.48,2.52c-8.57,8.46-5.09,25.27-5.05,25.44a1.77,1.77,0,0,1-1.36,2.1A1.64,1.64,0,0,1,13.12,42.79Z"/></g></g></svg>