<svg xmlns="http://www.w3.org/2000/svg" viewBox="0 0 114.36 114.36"><defs><style>.cls-1{fill:#fff;}.cls-2{fill:#111;}.cls-3{fill:#e7dfdd;}</style></defs><title>4</title><g id="Layer_2" data-name="Layer 2"><g id="Layer_4" data-name="Layer 4"><path class="cls-1" d="M60.6,64.87a2.61,2.61,0,1,1-3.59.85,2.58,2.58,0,0,1,3.59-.85Z"/><path class="cls-2" d="M107.92,65.49c6.52,4.06,8.4,12.94,4.2,19.74l-5.38,8.64a14.92,14.92,0,0,1-8.88,6.61c-.09,0-.19,0-.28,0a13.54,13.54,0,0,1-10.39-1.66L63.53,84.24,48.89,107.89A13.58,13.58,0,0,1,40.35,114a14.84,14.84,0,0,1-11.2-1.88l-8.64-5.34c-6.84-4.25-9.06-13-5.05-19.55L30.15,63.55,6.49,48.87A13.6,13.6,0,0,1,.3,40a14.86,14.86,0,0,1,2-10.91l5.33-8.64a14.67,14.67,0,0,1,8.88-6.57,13.48,13.48,0,0,1,10.67,1.56L50.83,30.17,65.51,6.46A13.45,13.45,0,0,1,74.34.32,14.7,14.7,0,0,1,85.21,2.26l8.68,5.38a14.76,14.76,0,0,1,6.57,8.83A13.6,13.6,0,0,1,98.9,27.14L84.21,50.85Zm1.6,18.13c3.36-5.38,1.94-12.37-3.21-15.58l-56-34.71L25.57,18a11.29,11.29,0,0,0-15.4,4.06L4.84,30.73a11.47,11.47,0,0,0-1.56,8.65,10.73,10.73,0,0,0,4.77,6.94L33,61.81,88.79,96.32a10.42,10.42,0,0,0,8.32,1.23,12,12,0,0,0,7.08-5.24Zm-13.17-58a10.73,10.73,0,0,0,1.18-8.36,11.61,11.61,0,0,0-5.24-7L83.65,4.81A12,12,0,0,0,75,3.25a10.61,10.61,0,0,0-6.9,4.82L53.38,31.73,81.66,49.24Zm-50,80.74L61,82.63,32.7,65.11,18.06,88.82c-3.21,5.1-1.37,12,4,15.39l8.64,5.34C36.14,112.9,43.13,111.43,46.3,106.33Z"/><path class="cls-3" d="M106.31,68c5.15,3.21,6.57,10.2,3.21,15.58l-5.33,8.69a12,12,0,0,1-7.08,5.24,10.42,10.42,0,0,1-8.32-1.23L33,61.81l1.41-2.32a1.4,1.4,0,0,0,1.14.19,1.55,1.55,0,0,0,.94-.71l12.84-21.2a1.54,1.54,0,0,0-.51-2.08l1.46-2.36Zm2.84,10.34a1.53,1.53,0,0,0-1.37-1.61,1.51,1.51,0,0,0-1.61,1.42,1.53,1.53,0,0,0,1.42,1.61,1.21,1.21,0,0,0,.42,0A1.52,1.52,0,0,0,109.15,78.38Zm-2.55-5a1.55,1.55,0,0,0,.23-2.12,1.5,1.5,0,0,0-2.12-.24,1.46,1.46,0,0,0-.24,2.08,1.59,1.59,0,0,0,1.51.56A2.34,2.34,0,0,0,106.6,73.42Zm0,11.76a1.52,1.52,0,1,0-2.51-1.7,1.62,1.62,0,0,0,.43,2.12,1.48,1.48,0,0,0,1.18.19A1.35,1.35,0,0,0,106.6,85.18Zm-4.73-16.34a1.5,1.5,0,1,0-2,.76,1.5,1.5,0,0,0,2-.76ZM89.6,70.92a1.55,1.55,0,0,0-.71-3,1.55,1.55,0,1,0,.71,3ZM86.1,76.4a1.53,1.53,0,1,0-1.84-1.14A1.55,1.55,0,0,0,86.1,76.4Zm-2-9.21a1.55,1.55,0,1,0-.71-3,1.55,1.55,0,0,0,.71,3ZM82.89,81.73a1.55,1.55,0,1,0-1.84-1.13A1.52,1.52,0,0,0,82.89,81.73Zm-2.22-9.06a1.59,1.59,0,0,0,1.14-1.89,1.56,1.56,0,0,0-3,.71A1.61,1.61,0,0,0,80.67,72.67ZM80,56.89a1.49,1.49,0,1,0-2.55-1.55L64.62,76.54a1.51,1.51,0,0,0,.47,2.08,1.4,1.4,0,0,0,1.13.18,1.44,1.44,0,0,0,1-.7ZM77.41,78a1.59,1.59,0,0,0,1.18-1.89,1.55,1.55,0,0,0-3,.71A1.55,1.55,0,0,0,77.41,78ZM71.75,57.56a5.67,5.67,0,0,0-1.84-7.75A5.63,5.63,0,0,0,64,59.4a5.67,5.67,0,0,0,4.25.66A5.53,5.53,0,0,0,71.75,57.56ZM64,70.07a5.61,5.61,0,1,0-3.49,2.5A5.49,5.49,0,0,0,64,70.07ZM59.94,50.24a5.63,5.63,0,1,0-9.58-5.91,5.63,5.63,0,0,0,9.58,5.91ZM52.2,62.75a5.84,5.84,0,0,0,.66-4.25A5.56,5.56,0,0,0,50.36,55a5.58,5.58,0,0,0-8.41,6,5.56,5.56,0,0,0,2.5,3.49,5.65,5.65,0,0,0,4.25.71A6,6,0,0,0,52.2,62.75Z"/><path class="cls-2" d="M107.78,76.77a1.53,1.53,0,0,1,1.37,1.61A1.52,1.52,0,0,1,108,79.75a1.21,1.21,0,0,1-.42,0,1.53,1.53,0,0,1-1.42-1.61A1.51,1.51,0,0,1,107.78,76.77Z"/><path class="cls-2" d="M106.83,71.3a1.55,1.55,0,0,1-.23,2.12,2.34,2.34,0,0,1-.62.28,1.59,1.59,0,0,1-1.51-.56,1.46,1.46,0,0,1,.24-2.08A1.5,1.5,0,0,1,106.83,71.3Z"/><path class="cls-2" d="M106.22,83.05a1.57,1.57,0,0,1,.38,2.13,1.35,1.35,0,0,1-.9.61,1.48,1.48,0,0,1-1.18-.19,1.62,1.62,0,0,1-.43-2.12A1.58,1.58,0,0,1,106.22,83.05Z"/><path class="cls-2" d="M101.12,66.86a1.5,1.5,0,0,1,.75,2,1.5,1.5,0,0,1-2,.76,1.49,1.49,0,0,1-.75-2A1.5,1.5,0,0,1,101.12,66.86Z"/><path class="cls-3" d="M97.53,17.23a10.73,10.73,0,0,1-1.18,8.36L81.66,49.24,53.38,31.73,68.06,8.07A10.61,10.61,0,0,1,75,3.25a12,12,0,0,1,8.69,1.56l8.64,5.38A11.61,11.61,0,0,1,97.53,17.23ZM82.42,9.11a1.46,1.46,0,0,0-.61-2,1.52,1.52,0,0,0-1.42,2.69,1.56,1.56,0,0,0,1,.09A1.35,1.35,0,0,0,82.42,9.11ZM80.06,33.52a1.61,1.61,0,0,0,1.13-1.89,1.55,1.55,0,0,0-3,.71A1.6,1.6,0,0,0,80.06,33.52ZM76.28,39a1.55,1.55,0,0,0,1.18-1.84,1.55,1.55,0,1,0-3,.71A1.55,1.55,0,0,0,76.28,39Zm-.9-29.7a1.54,1.54,0,0,0,.85-2,1.51,1.51,0,1,0-2.78,1.19,1.51,1.51,0,0,0,1.74.85S75.34,9.25,75.38,9.25Zm-.66,21a1.56,1.56,0,0,0,1.14-1.84,1.53,1.53,0,0,0-3,.71A1.53,1.53,0,0,0,74.72,30.26Zm-3.78,5.48a1.55,1.55,0,1,0-.7-3,1.55,1.55,0,0,0,.7,3ZM71.23,13a1.69,1.69,0,0,0,.28-.9,1.64,1.64,0,0,0-.61-1.23,1.57,1.57,0,0,0-2.13.33,1.53,1.53,0,0,0,.38,2.13,1.59,1.59,0,0,0,1.23.23A1.7,1.7,0,0,0,71.23,13Zm-2,13.78a1.55,1.55,0,0,0-.7-3,1.55,1.55,0,0,0-1.18,1.84A1.58,1.58,0,0,0,69.24,26.81Zm-1.36-8.4a1.53,1.53,0,0,0-.62-2,1.44,1.44,0,0,0-2,.61,1.36,1.36,0,0,0-.19.71,1.46,1.46,0,0,0,.8,1.32,1.59,1.59,0,0,0,1,.14A1.57,1.57,0,0,0,67.88,18.41ZM65.47,32.24a1.53,1.53,0,1,0-1.84-1.13A1.54,1.54,0,0,0,65.47,32.24Z"/><path class="cls-2" d="M90.73,69.08a1.55,1.55,0,0,1-1.13,1.84,1.55,1.55,0,1,1-.71-3A1.55,1.55,0,0,1,90.73,69.08Z"/><path class="cls-2" d="M87.28,74.55A1.53,1.53,0,0,1,86.1,76.4a1.55,1.55,0,0,1-1.84-1.14,1.55,1.55,0,0,1,3-.71Z"/><path class="cls-2" d="M85.3,65.3a1.6,1.6,0,0,1-1.18,1.89,1.55,1.55,0,0,1-.71-3A1.61,1.61,0,0,1,85.3,65.3Z"/><path class="cls-2" d="M84,79.89a1.53,1.53,0,1,1-1.84-1.18A1.52,1.52,0,0,1,84,79.89Z"/><path class="cls-2" d="M81.81,7.08a1.46,1.46,0,0,1,.61,2,1.35,1.35,0,0,1-1,.75,1.56,1.56,0,0,1-1-.09,1.52,1.52,0,0,1,1.42-2.69Z"/><path class="cls-2" d="M81.81,70.78a1.59,1.59,0,0,1-1.14,1.89,1.61,1.61,0,0,1-1.89-1.18,1.56,1.56,0,0,1,3-.71Z"/><path class="cls-2" d="M81.19,31.63a1.55,1.55,0,1,1-3,.71,1.55,1.55,0,0,1,3-.71Z"/><path class="cls-2" d="M79.49,54.82A1.47,1.47,0,0,1,80,56.89L67.17,78.1a1.44,1.44,0,0,1-1,.7,1.4,1.4,0,0,1-1.13-.18,1.51,1.51,0,0,1-.47-2.08l12.84-21.2A1.47,1.47,0,0,1,79.49,54.82Z"/><path class="cls-2" d="M78.59,76.11A1.59,1.59,0,0,1,77.41,78a1.55,1.55,0,0,1-.7-3A1.57,1.57,0,0,1,78.59,76.11Z"/><path class="cls-2" d="M77.46,37.11a1.55,1.55,0,0,1-3,.71,1.55,1.55,0,1,1,3-.71Z"/><path class="cls-2" d="M76.23,7.26a1.54,1.54,0,0,1-.85,2s-.14.05-.19.05a1.5,1.5,0,0,1-.94-2.84A1.53,1.53,0,0,1,76.23,7.26Z"/><path class="cls-2" d="M75.86,28.42a1.56,1.56,0,0,1-1.14,1.84,1.53,1.53,0,0,1-1.84-1.13,1.53,1.53,0,0,1,3-.71Z"/><path class="cls-2" d="M72.13,33.85a1.59,1.59,0,0,1-1.19,1.89,1.55,1.55,0,0,1-.7-3A1.58,1.58,0,0,1,72.13,33.85Z"/><path class="cls-2" d="M69.91,49.81a5.67,5.67,0,0,1,1.84,7.75,5.53,5.53,0,0,1-3.5,2.5A5.67,5.67,0,0,1,64,59.4a5.63,5.63,0,0,1,5.91-9.59ZM69.2,56a2.68,2.68,0,0,0-.85-3.64A2.61,2.61,0,1,0,69.2,56Z"/><path class="cls-2" d="M71.51,12.13a1.69,1.69,0,0,1-.28.9,1.7,1.7,0,0,1-.85.56,1.59,1.59,0,0,1-1.23-.23,1.53,1.53,0,0,1-.38-2.13,1.57,1.57,0,0,1,2.13-.33A1.64,1.64,0,0,1,71.51,12.13Z"/><path class="cls-2" d="M70.38,24.93a1.57,1.57,0,0,1-1.14,1.88,1.58,1.58,0,0,1-1.88-1.18,1.55,1.55,0,0,1,3-.7Z"/><path class="cls-1" d="M68.35,52.36A2.68,2.68,0,0,1,69.2,56a2.63,2.63,0,0,1-3.59.8,2.61,2.61,0,0,1,2.74-4.44Z"/><path class="cls-2" d="M67.26,16.38a1.53,1.53,0,0,1,.62,2,1.57,1.57,0,0,1-1,.75,1.59,1.59,0,0,1-1-.14A1.46,1.46,0,0,1,65,17.7a1.36,1.36,0,0,1,.19-.71A1.44,1.44,0,0,1,67.26,16.38Z"/><path class="cls-2" d="M66.65,30.4a1.52,1.52,0,0,1-1.18,1.84,1.53,1.53,0,1,1-.71-3A1.53,1.53,0,0,1,66.65,30.4Z"/><path class="cls-2" d="M62.21,62.32A5.64,5.64,0,0,1,64,70.07a5.49,5.49,0,0,1-3.49,2.5,5.62,5.62,0,1,1,1.7-10.25Zm-.76,6.14a2.6,2.6,0,0,0-.85-3.59,2.58,2.58,0,0,0-3.59.85,2.61,2.61,0,1,0,4.44,2.74Z"/><path class="cls-3" d="M61,82.63,46.3,106.33c-3.17,5.1-10.16,6.57-15.59,3.22l-8.64-5.34c-5.38-3.35-7.22-10.29-4-15.39L32.7,65.11ZM48.33,83.72a1.6,1.6,0,0,0,1.18-1.89,1.56,1.56,0,0,0-3,.71A1.56,1.56,0,0,0,48.33,83.72Zm.94,14.54a1.51,1.51,0,0,0-.47-2.08,1.53,1.53,0,0,0-2.08.47c-.33.48-.61.95-.9,1.37a1.49,1.49,0,0,0,1.56,2.32,1.7,1.7,0,0,0,.9-.62C48.61,99.3,48.94,98.78,49.27,98.26ZM44.6,89.15a1.56,1.56,0,0,0-.71-3,1.56,1.56,0,0,0,.71,3Zm.18,15.34a1.5,1.5,0,0,0-.18-2.12,1.55,1.55,0,0,0-2.13.19,8,8,0,0,1-5.9,3.3c-4,.14-7.37-3.26-7.42-3.3a1.48,1.48,0,0,0-2.12,0,1.5,1.5,0,0,0-.05,2.12c.19.14,4.35,4.39,9.68,4.2a10.93,10.93,0,0,0,8.12-4.39ZM43,80.46a1.55,1.55,0,0,0,1.13-1.84,1.49,1.49,0,0,0-1.84-1.14,1.52,1.52,0,0,0-1.18,1.84A1.58,1.58,0,0,0,43,80.46Zm-3.78,5.48a1.56,1.56,0,0,0-.71-3,1.48,1.48,0,0,0-1.13,1.84A1.54,1.54,0,0,0,39.26,85.94ZM37.51,77a1.55,1.55,0,1,0-.71-3,1.55,1.55,0,0,0,.71,3Zm-3.73,5.43a1.57,1.57,0,0,0,1.14-1.84,1.48,1.48,0,0,0-1.85-1.13,1.45,1.45,0,0,0-1.13,1.84A1.53,1.53,0,0,0,33.78,82.44Z"/><path class="cls-2" d="M58.1,42.49a5.65,5.65,0,0,1,1.84,7.75,5.63,5.63,0,0,1-9.58-5.91A5.66,5.66,0,0,1,58.1,42.49Zm-.75,6.14A2.62,2.62,0,0,0,56.5,45a2.54,2.54,0,0,0-1.94-.33,2.78,2.78,0,0,0-1.65,1.18,2.38,2.38,0,0,0-.38,1.37,2.51,2.51,0,0,0,1.23,2.22A2.65,2.65,0,0,0,57.35,48.63Z"/><path class="cls-1" d="M56.5,45a2.62,2.62,0,0,1,.85,3.59,2.65,2.65,0,0,1-3.59.85,2.51,2.51,0,0,1-1.23-2.22,2.38,2.38,0,0,1,.38-1.37,2.78,2.78,0,0,1,1.65-1.18A2.54,2.54,0,0,1,56.5,45Z"/><path class="cls-2" d="M52.86,58.5a5.84,5.84,0,0,1-.66,4.25,6,6,0,0,1-3.5,2.5,5.65,5.65,0,0,1-4.25-.71,5.68,5.68,0,0,1-1.84-7.74A5.64,5.64,0,0,1,50.36,55,5.56,5.56,0,0,1,52.86,58.5ZM49.6,61.14a2.62,2.62,0,0,0-.8-3.58,2.7,2.7,0,0,0-2-.34,2.63,2.63,0,0,0-1.65,1.19,2.61,2.61,0,0,0,4.44,2.73Z"/><path class="cls-3" d="M50.31,33.33l-1.46,2.36a1.53,1.53,0,0,0-2.08.52L33.92,57.46a1.47,1.47,0,0,0,.52,2L33,61.81l-25-15.49a10.73,10.73,0,0,1-4.77-6.94,11.47,11.47,0,0,1,1.56-8.65l5.33-8.64A11.29,11.29,0,0,1,25.57,18ZM37,39a1.55,1.55,0,1,0-1.84-1.18A1.56,1.56,0,0,0,37,39Zm-3.44,5.48a1.55,1.55,0,1,0-1.85-1.13A1.54,1.54,0,0,0,33.55,44.52Zm-2-9.25a1.53,1.53,0,0,0,1.14-1.84,1.48,1.48,0,0,0-1.85-1.14,1.46,1.46,0,0,0-1.13,1.84A1.53,1.53,0,0,0,31.56,35.27ZM30.33,49.86a1.55,1.55,0,1,0-1.88-1.18A1.55,1.55,0,0,0,30.33,49.86Zm-2.26-9.12a1.52,1.52,0,0,0,1.18-1.84,1.55,1.55,0,0,0-3,.71A1.52,1.52,0,0,0,28.07,40.74Zm-3.21,5.34a1.53,1.53,0,0,0-.71-3A1.49,1.49,0,0,0,23,45,1.52,1.52,0,0,0,24.86,46.08Zm-11.43-.9a1.53,1.53,0,0,0-.71-2c-.05-.05-3.54-1.75-4.44-4.53a4.63,4.63,0,0,1,.66-3.92,1.52,1.52,0,0,0-.56-2.08,1.43,1.43,0,0,0-2,.57,7.55,7.55,0,0,0-.9,6.37c1.23,4.06,5.76,6.19,6,6.28a1.51,1.51,0,0,0,1,.1A1.61,1.61,0,0,0,13.43,45.18Zm-.8-16.29a1.48,1.48,0,0,0-.48-2.08,1.51,1.51,0,0,0-2.07.48l-1,1.6A1.52,1.52,0,0,0,9.56,31a1.64,1.64,0,0,0,1.13.19,1.56,1.56,0,0,0,1-.66Z"/><path class="cls-1" d="M48.8,57.56a2.62,2.62,0,1,1-3.92,2.83,2.59,2.59,0,0,1,.28-2,2.63,2.63,0,0,1,1.65-1.19A2.7,2.7,0,0,1,48.8,57.56Z"/><path class="cls-2" d="M49.51,81.83a1.6,1.6,0,0,1-1.18,1.89,1.56,1.56,0,0,1-.71-3A1.58,1.58,0,0,1,49.51,81.83Z"/><path class="cls-2" d="M48.85,35.69a1.54,1.54,0,0,1,.51,2.08L36.52,59a1.55,1.55,0,0,1-.94.71,1.4,1.4,0,0,1-1.14-.19,1.47,1.47,0,0,1-.52-2L46.77,36.21A1.53,1.53,0,0,1,48.85,35.69Z"/><path class="cls-2" d="M48.8,96.18a1.51,1.51,0,0,1,.47,2.08c-.33.52-.66,1-1,1.46a1.7,1.7,0,0,1-.9.62A1.49,1.49,0,0,1,45.82,98c.29-.42.57-.89.9-1.37A1.53,1.53,0,0,1,48.8,96.18Z"/><path class="cls-2" d="M45.73,87.3a1.53,1.53,0,1,1-3,.71,1.53,1.53,0,1,1,3-.71Z"/><path class="cls-2" d="M44.6,102.37a1.5,1.5,0,0,1,.18,2.12,10.93,10.93,0,0,1-8.12,4.39c-5.33.19-9.49-4.06-9.68-4.2a1.5,1.5,0,0,1,.05-2.12,1.48,1.48,0,0,1,2.12,0c.05,0,3.45,3.44,7.42,3.3a8,8,0,0,0,5.9-3.3A1.55,1.55,0,0,1,44.6,102.37Z"/><path class="cls-2" d="M44.17,78.62A1.55,1.55,0,0,1,43,80.46a1.58,1.58,0,0,1-1.89-1.14,1.52,1.52,0,0,1,1.18-1.84A1.49,1.49,0,0,1,44.17,78.62Z"/><path class="cls-2" d="M40.39,84.05a1.53,1.53,0,1,1-3,.7,1.48,1.48,0,0,1,1.13-1.84A1.53,1.53,0,0,1,40.39,84.05Z"/><path class="cls-2" d="M38.69,75.12A1.57,1.57,0,0,1,37.51,77a1.55,1.55,0,0,1-.71-3A1.58,1.58,0,0,1,38.69,75.12Z"/><path class="cls-2" d="M38.17,37.16A1.55,1.55,0,1,1,36.33,36,1.56,1.56,0,0,1,38.17,37.16Z"/><path class="cls-2" d="M34.92,80.6a1.57,1.57,0,0,1-1.14,1.84,1.53,1.53,0,0,1-1.84-1.13,1.45,1.45,0,0,1,1.13-1.84A1.48,1.48,0,0,1,34.92,80.6Z"/><path class="cls-2" d="M34.68,42.68a1.52,1.52,0,0,1-1.13,1.84,1.54,1.54,0,0,1-1.85-1.13,1.53,1.53,0,1,1,3-.71Z"/><path class="cls-2" d="M32.7,33.43a1.53,1.53,0,0,1-3,.7,1.46,1.46,0,0,1,1.13-1.84A1.48,1.48,0,0,1,32.7,33.43Z"/><path class="cls-2" d="M31.47,48a1.55,1.55,0,1,1-1.84-1.18A1.55,1.55,0,0,1,31.47,48Z"/><path class="cls-2" d="M29.25,38.9a1.55,1.55,0,1,1-1.89-1.13A1.54,1.54,0,0,1,29.25,38.9Z"/><path class="cls-2" d="M26,44.24a1.46,1.46,0,0,1-1.13,1.84A1.52,1.52,0,0,1,23,45a1.49,1.49,0,0,1,1.13-1.84A1.46,1.46,0,0,1,26,44.24Z"/><path class="cls-2" d="M12.72,43.2a1.53,1.53,0,0,1,.71,2,1.61,1.61,0,0,1-1,.81,1.51,1.51,0,0,1-1-.1c-.19-.09-4.72-2.22-5.95-6.28a7.55,7.55,0,0,1,.9-6.37,1.43,1.43,0,0,1,2-.57,1.52,1.52,0,0,1,.56,2.08,4.63,4.63,0,0,0-.66,3.92C9.18,41.45,12.67,43.15,12.72,43.2Z"/><path class="cls-2" d="M12.15,26.81a1.48,1.48,0,0,1,.48,2.08l-1,1.61a1.56,1.56,0,0,1-1,.66A1.64,1.64,0,0,1,9.56,31a1.52,1.52,0,0,1-.47-2.08l1-1.6A1.51,1.51,0,0,1,12.15,26.81Z"/></g></g></svg>