<svg xmlns="http://www.w3.org/2000/svg" viewBox="0 0 76.51 199.33"><defs><style>.cls-1{fill:#4d9df4;}.cls-2{fill:#68264a;}.cls-3{fill:#cae7ff;}</style></defs><title>6</title><g id="Layer_2" data-name="Layer 2"><g id="Layer_4" data-name="Layer 4"><path class="cls-1" d="M68.91,156.84a3,3,0,0,1-2.41,3.44l-3.44,1c-2.84.81-4.35-1.79-4.49-2l-4.2-9.58,7-2a1.51,1.51,0,0,0,1-1.84,1.53,1.53,0,0,0-1.89-1L53.14,147,51.86,144a16.54,16.54,0,0,0,4.21-.61l6.94-2a16.63,16.63,0,0,0,3.82-1.65l.43,3.12-2.08.61a1.49,1.49,0,0,0-1,1.84,1.53,1.53,0,0,0,1.89,1l1.56-.47Z"/><path class="cls-2" d="M76.47,197.4a1.2,1.2,0,0,1,0,.38,1.57,1.57,0,0,1-1.08,1.51,1.6,1.6,0,0,1-1.89-1.09l-9.4-34.14-.28.1a7,7,0,0,1-8-3.59L48.46,143.8A17.14,17.14,0,0,1,35,131.71L17.35,70l-2.93.85a6.47,6.47,0,0,1-7.94-4.44L5.07,61.5a6.46,6.46,0,0,1,4.44-7.94L22.4,49.88,14,20.27,8.47,21.83A6.66,6.66,0,0,1,4.78,9L35.57.25a6.66,6.66,0,0,1,3.69,12.8l-5.48,1.56,8.45,29.6,12.89-3.68A6.39,6.39,0,0,1,63.06,45l1.41,4.86a6.5,6.5,0,0,1-4.44,8l-2.88.81,17.62,61.71a17.08,17.08,0,0,1-5.15,17.43l2.27,18.65a6,6,0,0,1-4.54,6.75l-.28.1ZM62.21,138.56a14.08,14.08,0,0,0,9.68-17.38L54.22,59.47l-34,9.72,17.61,61.67a14.07,14.07,0,0,0,17.38,9.68Zm4.29,21.72a3,3,0,0,0,2.41-3.44l-1.32-10.91L66,146.4a1.53,1.53,0,0,1-1.89-1,1.49,1.49,0,0,1,1-1.84l2.08-.61-.43-3.12A16.63,16.63,0,0,1,63,141.44l-6.94,2a16.54,16.54,0,0,1-4.21.61L53.14,147l7.41-2.13a1.53,1.53,0,0,1,1.89,1,1.51,1.51,0,0,1-1,1.84l-7,2,4.2,9.58c.14.19,1.65,2.79,4.49,2ZM59.23,54.93a3.42,3.42,0,0,0,2.36-4.06l-26.82,7.7a1.53,1.53,0,1,1-.85-2.93L60.79,48l-.62-2.22a3.45,3.45,0,0,0-4.25-2.36l-45.61,13A3.46,3.46,0,0,0,8,60.69l1.42,4.87a3.41,3.41,0,0,0,4.24,2.36L18,66.69ZM38.41,10.17a3.66,3.66,0,0,0-2-7L5.63,11.91A3.59,3.59,0,0,0,3.08,15.6a1.48,1.48,0,0,1,.9.94,1.31,1.31,0,0,1-.19,1.18A3.75,3.75,0,0,0,7.62,19ZM39.3,45,31,15.69l-14,4L25.28,49l8.45-2.41-.8-2.83a1.24,1.24,0,0,1,0-.43A1.52,1.52,0,0,1,34,41.9a1.48,1.48,0,0,1,1.84,1l.85,2.88Z"/><path class="cls-3" d="M71.89,121.18a14.08,14.08,0,0,1-9.68,17.38l-7,2a14.07,14.07,0,0,1-17.38-9.68L20.23,69.19l34-9.72Zm-3.78,2a1.49,1.49,0,1,0-.8-2.88l-7.47,2.07h0a1.51,1.51,0,1,0,.85,2.89l7.46-2Zm-2-12.33a1.21,1.21,0,0,0,0-.42,1.48,1.48,0,0,0-1.84-1l-7.51,2.08a1.58,1.58,0,0,0-1,1.84,1.51,1.51,0,0,0,1.84,1L65,112.26A1.47,1.47,0,0,0,66.08,110.84ZM63,99.89a1.27,1.27,0,0,0-.05-.43,1.56,1.56,0,0,0-1.84-1l-7.51,2.08a1.6,1.6,0,0,0-1,1.84,1.55,1.55,0,0,0,1.85,1.09l7.5-2.08A1.51,1.51,0,0,0,63,99.89ZM59.84,89a1.6,1.6,0,0,0,0-.43,1.48,1.48,0,0,0-1.84-1l-7.51,2.07a1.52,1.52,0,0,0-1,1.85,1.47,1.47,0,0,0,1.84,1l7.51-2.07A1.46,1.46,0,0,0,59.84,89ZM56.73,78.07a1.21,1.21,0,0,0,0-.42,1.55,1.55,0,0,0-1.84-1.09l-7.51,2.08a1.52,1.52,0,0,0,.8,2.93l7.51-2.08A1.47,1.47,0,0,0,56.73,78.07ZM53.61,67.12a1.24,1.24,0,0,0,0-.43,1.49,1.49,0,0,0-1.84-1l-7.51,2.08a1.46,1.46,0,0,0-1.08,1.42,1.21,1.21,0,0,0,0,.42,1.47,1.47,0,0,0,1.84,1l7.5-2.08A1.41,1.41,0,0,0,53.61,67.12Zm-2.69,72a1.52,1.52,0,0,0-.38-3c-4.39-.09-7.18-4.15-7.22-4.25a1.56,1.56,0,0,0-2.08-.42,1.52,1.52,0,0,0-.43,2.12c.15.19,3.64,5.43,9.64,5.58A1.36,1.36,0,0,0,50.92,139.13Z"/><path class="cls-2" d="M69.15,121.33a1.47,1.47,0,0,1-1,1.84v0l-7.46,2a1.51,1.51,0,1,1-.85-2.89h0l7.47-2.07A1.45,1.45,0,0,1,69.15,121.33Z"/><path class="cls-2" d="M66,110.42a1.21,1.21,0,0,1,0,.42A1.47,1.47,0,0,1,65,112.26l-7.51,2.08a1.51,1.51,0,0,1-1.84-1,1.58,1.58,0,0,1,1-1.84l7.51-2.08A1.48,1.48,0,0,1,66,110.42Z"/><path class="cls-2" d="M62.91,99.46a1.27,1.27,0,0,1,.05.43,1.51,1.51,0,0,1-1.09,1.46l-7.5,2.08a1.55,1.55,0,0,1-1.85-1.09,1.6,1.6,0,0,1,1-1.84l7.51-2.08A1.56,1.56,0,0,1,62.91,99.46Z"/><path class="cls-1" d="M61.59,50.87a3.42,3.42,0,0,1-2.36,4.06L18,66.69l-4.35,1.23a3.41,3.41,0,0,1-4.24-2.36L8,60.69a3.46,3.46,0,0,1,2.36-4.25l45.61-13a3.45,3.45,0,0,1,4.25,2.36L60.79,48,33.92,55.64a1.53,1.53,0,1,0,.85,2.93ZM27,60.79a1.56,1.56,0,0,0,1-1.89,1.46,1.46,0,0,0-1.84-1l-8.13,2.31a1.54,1.54,0,0,0-1,1.89,1.48,1.48,0,0,0,1.85,1Z"/><path class="cls-2" d="M59.8,88.55a1.6,1.6,0,0,1,0,.43,1.46,1.46,0,0,1-1.08,1.42l-7.51,2.07a1.47,1.47,0,0,1-1.84-1,1.52,1.52,0,0,1,1-1.85L58,87.52A1.48,1.48,0,0,1,59.8,88.55Z"/><path class="cls-2" d="M56.68,77.65a1.21,1.21,0,0,1,0,.42,1.47,1.47,0,0,1-1.09,1.42l-7.51,2.08a1.52,1.52,0,0,1-.8-2.93l7.51-2.08A1.55,1.55,0,0,1,56.68,77.65Z"/><path class="cls-2" d="M53.56,66.69a1.24,1.24,0,0,1,0,.43,1.41,1.41,0,0,1-1.09,1.41L45,70.61a1.47,1.47,0,0,1-1.84-1,1.21,1.21,0,0,1,0-.42,1.46,1.46,0,0,1,1.08-1.42l7.51-2.08A1.49,1.49,0,0,1,53.56,66.69Z"/><path class="cls-2" d="M52,137.71a1.53,1.53,0,0,1-1.09,1.42,1.36,1.36,0,0,1-.47.05c-6-.15-9.49-5.39-9.64-5.58a1.52,1.52,0,0,1,.43-2.12,1.56,1.56,0,0,1,2.08.42c0,.1,2.83,4.16,7.22,4.25A1.53,1.53,0,0,1,52,137.71Z"/><path class="cls-1" d="M40.91,5.68a3.69,3.69,0,0,1-2.5,4.49L7.62,19a3.75,3.75,0,0,1-3.83-1.23A1.31,1.31,0,0,0,4,16.54a1.48,1.48,0,0,0-.9-.94,3.59,3.59,0,0,1,2.55-3.69L36.42,3.13A3.67,3.67,0,0,1,40.91,5.68ZM37.65,8.47a1.49,1.49,0,1,0-1.84-1A1.48,1.48,0,0,0,37.65,8.47Zm-5.76,1.65a1.57,1.57,0,0,0,1-1.84,1.52,1.52,0,1,0-1,1.84Zm-5.81,1.65a1.48,1.48,0,0,0,1-1.84,1.51,1.51,0,0,0-1.84-1,1.49,1.49,0,1,0,.8,2.88Zm-5.76,1.66a1.56,1.56,0,0,0,1-1.85,1.53,1.53,0,0,0-1.89-1,1.48,1.48,0,0,0-1,1.84A1.52,1.52,0,0,0,20.32,13.43Zm-5.81,1.65a1.49,1.49,0,1,0-.8-2.88,1.44,1.44,0,0,0-1,1.84A1.49,1.49,0,0,0,14.51,15.08ZM8.75,16.73a1.48,1.48,0,0,0,1-1.84,1.46,1.46,0,0,0-1.84-1,1.49,1.49,0,0,0-1,1.84A1.51,1.51,0,0,0,8.75,16.73Z"/><path class="cls-3" d="M31,15.69,39.3,45l-2.64.8-.85-2.88a1.48,1.48,0,0,0-1.84-1,1.52,1.52,0,0,0-1.09,1.46,1.24,1.24,0,0,0,0,.43l.8,2.83L25.28,49,16.92,19.71Zm3,21.06a1.21,1.21,0,0,0-.05-.42L31.09,26.6a1.55,1.55,0,0,0-1.89-1,1.46,1.46,0,0,0-1,1.84L31,37.18a1.54,1.54,0,0,0,1.89,1A1.49,1.49,0,0,0,33.92,36.75Z"/><path class="cls-2" d="M38.69,6.63a1.49,1.49,0,1,1-1.84-1A1.48,1.48,0,0,1,38.69,6.63Z"/><path class="cls-2" d="M33.87,36.33a1.21,1.21,0,0,1,.05.42,1.49,1.49,0,0,1-1,1.47,1.54,1.54,0,0,1-1.89-1l-2.78-9.73a1.46,1.46,0,0,1,1-1.84,1.55,1.55,0,0,1,1.89,1Z"/><path class="cls-2" d="M32.93,8.28a1.57,1.57,0,0,1-1,1.84,1.5,1.5,0,1,1,1-1.84Z"/><path class="cls-2" d="M28,58.9a1.56,1.56,0,0,1-1,1.89L18.86,63.1a1.48,1.48,0,0,1-1.85-1,1.54,1.54,0,0,1,1-1.89l8.13-2.31A1.46,1.46,0,0,1,28,58.9Z"/><path class="cls-2" d="M27.12,9.93a1.49,1.49,0,1,1-1.84-1A1.51,1.51,0,0,1,27.12,9.93Z"/><path class="cls-2" d="M21.36,11.58a1.56,1.56,0,0,1-1,1.85,1.52,1.52,0,0,1-1.89-1,1.48,1.48,0,0,1,1-1.84A1.53,1.53,0,0,1,21.36,11.58Z"/><path class="cls-2" d="M15.55,13.24a1.49,1.49,0,1,1-2.88.8,1.44,1.44,0,0,1,1-1.84A1.5,1.5,0,0,1,15.55,13.24Z"/><path class="cls-2" d="M9.74,14.89a1.48,1.48,0,0,1-1,1.84,1.51,1.51,0,0,1-1.89-1,1.49,1.49,0,0,1,1-1.84A1.46,1.46,0,0,1,9.74,14.89Z"/></g></g></svg>