<svg xmlns="http://www.w3.org/2000/svg" xmlns:xlink="http://www.w3.org/1999/xlink" width="900" height="600"><path fill="#fff" d="M0 0h900v600H0z"/><path id="a" d="M463.1 506.7a1 1 0 0 1-.3-.2l-.2-.1-1.6-1.7a184 184 0 0 1-4.6-5.6l-6.2-8-.8-1-7.8-2.3-5.6-2.7 3-3.4 10.4 4.5 7.8 1.6 14.3 10.5a141.1 141.1 0 0 0-8 7.6l-.2.4 1-.5.9.7-2 .2zm-53.3-16c-6.8 0-13.5-1.9-20-5.5 0 0 .9-1.7 3-3.2 1.9-1.4 5.4-3 11-3.1h.2c6.7 0 14.9 2.3 24.3 6.8-.3.2-7.7 5-18.5 5zm-29.4-6.5c-1.3 0-2.4-.5-3.2-1.3a6.4 6.4 0 0 1-1.4-2.9c-.5-2-.4-4-.4-4.2.6-.2 1.1-.4 1.6-.4h.1c2.5 0 4.5 2.2 5.4 4.4.4 1.2.5 2.2.2 3-.3.8-1.2 1.4-2.3 1.4zm51.7-6c-17.4-2.5-24.7-8.7-27.9-13.6-3.3-5.1-2.6-9.9-2.6-10 0 0 1-.2 2.7-.2 4.6 0 16.4 2.3 27.8 23.8zm-35.6-3.4c-7.4 0-13-1.3-16.8-3.8-2.1-1.5-3.2-3-3.7-4.1l-.6-2a22.7 22.7 0 0 1 9-1.8c5.7 0 14.4 2 23.6 10.8-4.2.6-8 .9-11.5.9zm-36-1.4c-7.7 0-18.5-2.4-25.2-9v-.1a78.5 78.5 0 0 1 17-2c7.4 0 13 1.3 16.7 4.1 1.3 1 2 2 2.2 2.8.1.8-.3 1.6-1 2.2-1.7 1.2-4.8 2-9 2h-.6zm-25.3-13c-1 0-1.8-.4-2.4-1.2-.5-.6-.9-1.4-1.1-2.5-.5-1.8-.3-3.6-.3-3.7a3 3 0 0 1 1.2-.3c1.1 0 2 .7 2.6 1.2a7 7 0 0 1 1.7 2.6 4 4 0 0 1 .1 2.7 2 2 0 0 1-1.8 1.2zm58.6-1.3c-1.3 0-2.4-.5-3.2-1.4a6.4 6.4 0 0 1-1.4-2.8c-.5-2-.4-4-.4-4.2.6-.3 1-.4 1.6-.4h.1c2.5 0 4.5 2.2 5.3 4.3.5 1.3.6 2.3.3 3.1-.3.8-1.2 1.4-2.3 1.4zm-28.5-1.2c-15.8-.6-24-5-28-8.7-2.3-2-3.6-4-4.3-5.4-.6-1.3-.8-2.3-.9-2.5 0 0 1.5-.5 4-.6h.3c5.3 0 16.1 2.3 28.9 17.2zm17-1.6a38.4 38.4 0 0 1-23.6-11.6c-4-4.4-5.1-8.5-5.2-8.7a18.6 18.6 0 0 1 5-.5c6.4.2 18 3 23.8 20.8zm-65-6c-4.1 0-8.1-.5-12-1.5-6.5-1.7-9.4-4.2-10.6-6-.7-1-1-2-1-2.6v-1s4.4-1.3 10.4-1.4a43.3 43.3 0 0 1 9.3.9c10.6 2 16 10 16 10.1 0 0-5 1.4-12 1.4zm29.4-10.7c-1.2 0-2.4-.5-3.1-1.4a6.5 6.5 0 0 1-1.5-2.9c-.5-2-.3-4-.3-4.1.5-.3 1-.4 1.6-.4 2.6 0 4.6 2.2 5.4 4.3.5 1.2.6 2.2.3 3-.4 1-1.3 1.4-2.4 1.4zm-22-3c-.2-.1-6-1.6-12-5.3-5.6-3.4-12.4-9.5-13.2-18.8 0 0 .6-.2 1.3-.2h.3c1.7 0 5 .5 9.2 3.6 5.2 4 10 10.9 14.3 20.6zm14.4-.6s-4.3-1.7-9.5-6a60.8 60.8 0 0 1-16.7-23.4s1.1-.6 2.9-.7h.7c2.5 0 6.1 1 10.2 5.4a66 66 0 0 1 12.4 24.7zm-37.4-1.1c-4.8 0-6.5-2.6-7-3.7-.8-1.9-.5-3.7-.5-3.7.8-.3 1.6-.4 2.4-.4h.1c3.8 0 6.8 2 8.1 3.9.3.3 1 1.7.4 2.7-.5.8-1.7 1.2-3.5 1.2zM291 421.4a64 64 0 0 1-11.1-1c-4.3-.7-6.8-4.4-8-7.3a25.5 25.5 0 0 1-1.9-6.2c13.3.4 19.6 4.2 22.5 7.4 3 3.3 3.2 6.7 3.2 7l-4.7.1zm13.8-13.8s-1.5-1.9-3-4.2c-1.6-2.5-3-5-3-7.1 0-2-.5-6.3-.8-8.6l-.7-5.8c.3.1 8.3 3.1 8.3 10.6s-.8 15-.8 15.1zm-10.3-.7h-.2c-2.4-.4-6.5-2.2-11.1-4.8-5.1-3-9.2-6-11.6-8.8a19.8 19.8 0 0 1-4-11.8c-.2-3.7.1-6.8.2-7.1.4-.2.8-.2 1.3-.2 1.7 0 3.6.8 6.2 2.6 2 1.3 4.1 3.2 6.5 5.5 4 4 7.1 7.9 7.2 8 .3.5 2.5 4.5 4.3 8.5 1.1 2.6 1.8 4.4 2 5.8.2.8.2 1.3 0 1.8 0 .2-.2.3-.4.4a1 1 0 0 1-.4.1z" fill="#4e5b31"/><use xlink:href="#a" transform="matrix(-1 0 0 1 900 0)"/><path d="M727.1 104l-2.3.9-1 .4-2.8-.2-2.7 1.3-4.7 3.2-.2.2-1.8.4-1.6-.7-1 .5-.3 1.9-.9 1.4-1 .7-3.8.4-3.2 1.7-4.2-1.1-2 .7-4 3.7-2.1 1h-.7l-2.8-.2-1.2.4-1.7 1.7-3.4.2-1 .8-1.6 3.2-1.8 1.8-1 .2-1-.4-.9.2-.3 2-.8 1-2.3.7-1.7 1.5-1.6.8h-2.5l-2.1 1-4 .4-1.5 1.6-.4.3-.8.5-1.2.7-.3.2-1.5-.3-1.8.7-.7-1-1.2.6-1.6.1-2-.9-1.5-.7-1.1.2-.4 2v.2l-1.2 1.5-2.2 1.3-.3.4-2.5 3.2-4.7 5-4 2-4.1 1.3-3 2.4-7.5 3.7-12 6-2.5.8-3.5.5-6.3 2.4-5.5 1.6-.3.1-1.1.4-7.8 2.3-3.7-.4-2.1.8-5.6-.6h-4l-2.4.6-4.6 2.2-7.8 3.8-2.6 2.3-4 2.1-4.8 1.5v-2l-1.6.5-1.2.4-3.8.5h-2.2l-1.3-.3h-.2l-7.8 2.6-8.7.8-4.4 1.4h-3.2l-2 .6-4 .5-1.5-.4h-.3l-11.8.4-5.3-.6-2.6.6-4.3-1.4-6.3-.8-1.4-.4-3.3-1-1.5.9h-1.1l-2.7-.9h-1l-2.2.8-1.2-.3-1.2-1-2.8-.4-1.7-1.4-9.4 1.3-2.5-.8-8.6-2.5h-1.3l-1.7 1.4-2.6.9-2.2.6h-3l-3.5-.9-3.6-1.7-1.3-.3-3 .3h-1l-5.4-2.9-7-4.4-4.8-2.3-1.8-.3-.2.9.9 2.8.3 2.8-.1 2.5v1.6l.4 1.4 1.7 2 .7 1.9.5 5.3v5.3l-.8 8.6-.3 1.3-1 4.4-1 4-3.5 11-1 1.3-2.3 1.6-5.4 3.7-4 2.3-1.3.5-3.2.2h-2l-2.6-1.4-2.4-.7-3.3-2.3-3.6-.7-3.9-2.3-1-1.2-2.2-.2-3-1-1-.3-.8-.2h-3.8L321 228l-1.9-.5-2.5-.1-2.7 1.2-1.4.7-1.7-.7h-1.2l-1.4 2.2-.2.3-1 .5h-2.2l-1 .4-1.3.6-1.2.5-.6.3h-.4l-.6.2-.8.1-1.4-.8-.8-.4-1.2-.3-.7.5-.1 2.3-.7 1.4-2 1.7-2 1.8-1.3 2-3.7 8.4-2.3 3.4-.7.8-2.4 2.6-2.1 1.7-5 3.8-4.6 1.7-4 .9h-2l-3.7-.5-3.3-1-3.6-2.3-4-3.2-5.8-5.8-.9-.5h-.1l-1.9-1.2h-1.3l-.5.9-.3 1.2-.3 1.1-.6 6.4v.4l.4 2.6 4.4 6.2 1.3 3.2.2.4 1 1.5.6 1.2.1.1 1.5 4.5-1 2.5.5 1.7-1.4 1-.2 1.5 4 5 .8 2.2-1 3-1.5 1.7-.4.4.2 1.3 1.8 1.6 3.1 2.8 1.7 4 1.2 1.2 1.5-.3.8.6h1.2l1.2 1.2.8.3 1.2.7 1 1.2.2 4 1.8 4.8v3l1.2 2 .4 1.5-.6 4 1.4 1.4 1.6-.4 1 .2 1.6 1.4 2 3 2-.3 1.1.6 6 5.3 1.3.7 1 .5 1.2 1.2 1.9-1.2h.2l2-.2.9.6 1.7 1.1h2.2l4.9 1.5 2 .5 4.3 2.7 1.9 1 1 1 1.4 1.1 2.9 1.2 2.4.6 1.4.3 1 .4 5.2 2 3 .7 2.6 1 1.9.7h1.4l2-1.7h2l1.5.3 1.6-.2 2.5-1.6.5-.7 1.7-.8 6-.8 1.7.6 4.5-2 3 .9 2.6-1 5.8 1.3 1.5 1.1 1.8 2h2.1l-.8 1.4 2.5 2.6 2.3 3.5.1.4 1.7 4.9 1.2 1.7.9 2.4v1.6l-1.3 1-.2.6-.1.2.3.7.5-.3 1-.6 1.1-.1 2 .2 1.4.1 2.2-1 1.4-.8 2.3 1h2.5l1 .5 3 1.3 1.6.2.6-.4.3-.9-.2-1-1.1-1.3-2.5-3-1-1.4-.9-2.2-.2-2.8-.2-1.9.3-2.5.7-.8.5-2 .2-.5 1.4-1.9 3.7-2.4 4-3.6 3.1-2 3.3-1.5v-.4l.5.2 8.2-2.8h.2l3.7-.7 24.9 1.8 1-.3.8-2.4.4-.4.3-.3 2.7-1.2 1.3-.2 3.6 1 1.4.3 2.4-1.3h1.6l3.4-1.9h2.1l.9-.2 4-3 4-1.1 1-.6.4-.2 4-2.1 2.7-2 2.2-1.2 2.4-.6 6.4-.5 1.3-2 2.7-.5 1.7-1.8 1.9-.8 1.3-2 1.2-1.6 1.6-1 5-.2 6.1.7.8-.5 1.4-4.9 1.4-.9 3.9-5.6v-3.7l.6-2.5-.4-4.4.5-4.4 2.4-5.6 2-2.3 3.5-2.3 1.7-.8 2.5-.4h.3l.7-.2h8.4c.1-.2 3-.1 3-.1h2.9l7 1.2h.6l2.4.9 2.8 2.1 2.9 2.9.6.5 1.9.8.5.3 1.6-.3 2.2-1.1 1.7-1.5 2.3-1.2v-.1l1.4-2 .5-.8 4.5-1.7 5.2-.3.6-.3.3-.2 1.4-1.6h1.3l3.1 1.1 2.2-.4 1.8.7 1.4-.2 2.5-.3 2.8 2 1.6.1 5.6 3.3.3.1h.5l.7-.1 1-.3h.1l.1.1.7 1h.9l1-1.3-.4-.7-.2-.2-2-.4-1.8-3.1 1.7-1.9-2.7-3.3-.4-.5-.2-.3-1-1.4-4.7-7.2-6.2-5-2.1-1.7-.8-.6-3.3-3.4-2.4-3.1-.3-.7-.5-1-1.4-3.1-2.4-2-2-2.1-.1-.1-4.2-5.7-.6-.9-1-.6h-2l-.3-.2h-.1v-.2l1-1 1.2-.2.4-1.1-2-6.1v-.2l-.2-2 1.7-8.8.2-1.1 3-6 1.7-1.5 2-3.9 1.7-2.4 1.6-1.6.3-.2 3-1.8 2.4-.3 2.4-.3 4 1.2h4l.7-.1 1.8-.2 3-1 1.3-.8.7-1.1 1.5-5 .5-1.6.9-1.7 5.3-6.1 4-3.7 9-6.6 4.4-2.7 2.3-1.3 20.1-9 5.2-5.3 2.8-2.7 4.8-3.3 5.6-2.3 4.9-3.8 1-1.3 1.4-4.3 1-.3 1.1-2.2.3-.6 4-2.8.4-.2 15.4-7.7 2.2.3 1.2-1.8 4.5-.8.8-.1 1.1-.6 1-1.6v-4.5l1-1.2.6-2.8.5-.7.5-.6 1.2-1-.2-.5z" fill="#d57800"/></svg>