<svg height="600" width="1200" xmlns="http://www.w3.org/2000/svg"><path d="M0 0h1200v600H0z" fill="#fff"/><path d="M0 200h1200v400H0z" fill="#0000bf"/><path d="M0 400h1200v200H0zM227 115l-5 3 6 91a102 102 0 0 0 72 91 102 102 0 0 0 73-91l6-91-6-3-6 93a96 96 0 0 1-67 86 96 96 0 0 1-67-86l-6-93" fill="#d50000"/><path d="M373 115a180 180 0 0 0-146 0l6 93a96 96 0 0 0 67 86 96 96 0 0 0 67-86" fill="#0000bf"/><g fill="#ffdf00"><path d="M305 143l3-4-6 1-2-5-2 5-5-1 3 4-3 5 5-1 2 5 2-5 6 1M284 116l3-4h-5l-2-5-3 5h-5l3 4-3 4h5l3 5 2-5h5M325 116l3-4h-5l-2-5-2 5h-6l3 4-3 4h6l2 5 2-5h5"/></g><g fill="#fff"><path d="M359 222l-29-39-12 15-18-35-17 35-12-15-30 39a20 20 0 0 0 30 17 20 20 0 0 1 19 0l10 2 10-2a20 20 0 0 1 20 0 20 20 0 0 0 29-17"/><path d="M248 243l5 8a20 20 0 0 0 18-1c3-2 6-3 10-3l9 3a20 20 0 0 0 20 0c3-2 6-3 10-3 3 0 7 1 10 3a20 20 0 0 0 18 1l4-8-3 1a20 20 0 0 1-19 0l-10-2-10 2a20 20 0 0 1-20 0l-9-2-10 2a20 20 0 0 1-20 0l-3-1"/><path d="M342 258a91 91 0 0 1-42 30 91 91 0 0 1-42-30 20 20 0 0 0 13-2c3-2 6-3 10-3l9 3a20 20 0 0 0 20 0c3-2 6-3 10-3 3 0 7 1 10 3s8 3 12 2"/></g></svg>