<?xml version="1.0" encoding="utf-8"?>
<!-- Generator: Adobe Illustrator 24.0.0, SVG Export Plug-In . SVG Version: 6.00 Build 0)  -->
<svg version="1.1" id="Layer_1" xmlns:svgjs="http://svgjs.com/svgjs"
	 xmlns="http://www.w3.org/2000/svg" xmlns:xlink="http://www.w3.org/1999/xlink" x="0px" y="0px" viewBox="0 0 512 512"
	 style="enable-background:new 0 0 512 512;" xml:space="preserve">
<style type="text/css">
	.st0{fill:#FFFFFF;}
	.st1{fill:#E82E31;}
</style>
<path class="st0" d="M280,371.4c0-16.2,9.7-30.8,24.7-37c12.1-5.1,25.2-4,35.9,2.1l0,0c5.2-10.2,11.8-19.7,19.9-28.2l5.2-31.1
	c-5.8,1.5-11.8,2.2-17.8,2.5C326.9,310,292.9,328,256,328c-2.7,0-5.3-0.1-8-0.3V376h32V371.4z"/>
<path class="st0" d="M165.6,248h17.2c-4.4-10-6.8-20.9-6.8-32c0-44.1,35.9-80,80-80c10.1,0,20.2,2,29.6,5.7
	c1.8-4.8,3.9-9.7,6.2-14.7c-11.4-4.6-23.3-7-35.8-7c-52.9,0-96,43.1-96,96h0C160,227,162,237.8,165.6,248z"/>
<path class="st0" d="M200,296H88v112h112V296z M184,352v8v16v8v8h-80v-8v-8v-16v-8v-8v-16v-8v-8h32v8v8v16h48V352z"/>
<path class="st0" d="M32,440h8V272c0-2.8,0.6-5.5,1.5-8H32c-4.4,0-8,3.6-8,8v160C24,436.4,27.6,440,32,440z"/>
<path class="st0" d="M200.9,456H32c-4.4,0-8,3.6-8,8v16c0,4.4,3.6,8,8,8h176.2c-5.1-6.7-8.2-15-8.2-24
	C200,461.3,200.3,458.6,200.9,456z"/>
<path class="st0" d="M248,57.4v-1.2c0-0.1,0-0.2,0-0.2h-16v4.6c0,16.2-9.7,30.8-24.7,37c-15.5,6.5-32.7,3.1-44.2-8.4l-3.3-3.3
	l-34,34l3.3,3.3c11.5,11.5,14.9,28.7,8.6,43.8c-6.4,15.4-20.9,25.1-37.1,25.1H96v56h52.7c-3.1-10.3-4.7-21-4.7-32
	c0-61.8,50.2-112,112-112c4.7,0,9.4,0.3,13.9,0.9C256.5,93.4,248,76.4,248,57.4z"/>
<path class="st0" d="M312,194.2V224h9.4c12.5,0,24.2-4.8,33-13.7l11.3,11.3c-11.8,11.8-27.6,18.3-44.3,18.3h-8.2
	c3.6,13.8,16,24,30.9,24c14.1,0,27.8-4.1,39.5-12l4-2.7l8.9,13.3l-4,2.7c-3,2-6.2,3.9-9.4,5.5l-5.5,32.8c21.4-1.5,42.2-8,60.7-19.1
	l1.8-1.1v-23.3c-15.3-11.4-26.1-27.6-30.8-46.2l-2.4-9.5l14.2-9.5c6.8-4.5,10.9-12.1,10.9-20.3c0-8.1-6.6-14.6-14.6-14.6
	c-3.9,0-7.6,1.5-10.3,4.3L386.3,185l-5.4-37.5c-2.2-15.7-15.9-27.5-31.7-27.5h-35.9c-14.9,26-21.8,54.2-24.3,66.6L312,194.2z
	 M336,136c13.2,0,24,10.8,24,24h-16c0-4.4-3.6-8-8-8c-4.4,0-8,3.6-8,8h-16C312,146.8,322.8,136,336,136z"/>
<path class="st0" d="M248,295.6v16.1c2.7,0.2,5.3,0.4,8,0.4c28.7,0,55.4-12.6,73.5-34.2c-5.3-1.7-10.3-4.3-14.6-7.7
	C299.8,286.4,278.4,296,256,296C253.3,296,250.7,295.8,248,295.6z"/>
<path class="st0" d="M280.3,156.8c-7.7-3.1-15.9-4.8-24.3-4.8c-35.3,0-64,28.7-64,64c0,11.4,3.1,22.3,8.8,32l23.2,0
	c13.2,0,24,10.8,24,24v7.5c2.6,0.3,5.3,0.5,8,0.5c18.3,0,35.8-8,47.9-21.7c-5-7.6-7.9-16.6-7.9-26.3v-26.2l-24.9-8.3l0.9-6.6
	C272.2,189.9,274.3,175.8,280.3,156.8z"/>
<path class="st0" d="M262.3,424c-5.9,0-10.9,3.1-13.4,8.1l-3.9,7.9H240c-13.2,0-24,10.8-24,24s10.8,24,24,24h40v-52.7l-6.8-6.8
	C270.3,425.6,266.4,424,262.3,424z"/>
<path class="st0" d="M446.4,298.3c-22.6,13.6-48.4,21-74.8,21.6c-17.8,18.9-27.6,43.3-27.6,69.4V424h80v-46.1
	c0-12.9,3.1-25.9,8.8-37.5l14.3,7.2c-4.7,9.4-7.2,19.8-7.2,30.3v50.8l13.7,13.7l-11.3,11.3L428.7,440H328v48h112
	c26.5,0,48-21.5,48-48l0-74.3c0-28.6-15.3-54.4-39.9-68.4L446.4,298.3z"/>
<rect x="296" y="440" class="st0" width="16" height="48"/>
<path class="st0" d="M232,272c0-4.4-3.6-8-8-8H64c-4.4,0-8,3.6-8,8v168h152.2c5.8-7.6,14.1-13,23.8-15V272z M216,424H72V280h144V424
	z"/>
<path class="st0" d="M328,389.3c0-13.1,2.2-25.8,6.3-37.8c-6.7-4.7-15.3-5.7-23.1-2.5c-9.4,3.9-15.2,12.6-15.2,22.4V392h-48v19.4
	c4.2-2.2,9-3.4,14-3.4c8.7,0,16.6,3.2,22.5,9.2l6.8,6.8l36.7,0V389.3z"/>
<path class="st1" d="M248,56L248,56c0,0.1,0,0.2,0,0.2v1.2c0,19,8.5,36,21.9,47.5c10.1,1.3,19.8,4,29.2,7.9c0.9-1.7,1.9-3.3,2.9-5
	l2.4-3.9l6.3,0.1h38.6c23.7,0,44.2,17.7,47.5,41.2l0.8,6c5.5-4.6,12.4-7.2,19.7-7.2c16.8,0,30.6,13.7,30.6,30.5
	c0,13.6-6.7,26.2-18,33.8l-4.8,3.2c4.2,15.5,13.9,28.9,27.3,37.8l3.6,2.4v7.2l5.4-6.3c27.5-32.1,42.6-73,42.6-115.3
	C504,74.9,453.1,24,390.6,24v0c-4.7,0-9.4,0.3-14.1,0.9l-22.8,2.8c-7.5,0.9-13.1,1.6-17.4,2.3C327.6,16.3,312.6,8,296,8
	c-20.8,0-38.5,13.4-45.2,32h0.1C249.1,45,248,50.4,248,56z"/>
<rect x="104" y="328" class="st1" width="32" height="16"/>
<rect x="104" y="360" class="st1" width="80" height="16"/>
<path d="M328,160c0-4.4,3.6-8,8-8c4.4,0,8,3.6,8,8h16c0-13.2-10.8-24-24-24s-24,10.8-24,24H328z"/>
<path d="M448.3,267.9l-0.3-0.3V256c-15.4-10.3-26.5-26-31-44l-1-4l9.5-6.4c9-6,14.4-16.2,14.4-27v-0.1c0-12.5-10.1-22.6-22.6-22.6
	c-6,0-11.7,2.4-16,6.6C397,163,392,168,392,168l-3.1-21.7c-2.8-19.7-19.7-34.3-39.6-34.3h-38.7l-1.7,0c-1.5,2.5-3,5.1-4.4,7.7
	c-13.1-1.3-25-6.6-34.5-14.7c-4.6-0.6-9.2-0.9-13.9-0.9c-61.8,0-112,50.2-112,112c0,11,1.6,21.7,4.7,32H96v-56h4.6
	c16.2,0,30.8-9.7,37.1-25.1c6.3-15.1,2.9-32.3-8.6-43.8l-3.3-3.3l34-34l3.3,3.3c11.5,11.5,28.7,14.9,44.2,8.4
	c15-6.2,24.7-20.7,24.7-37V56h16c0-5.6,1-11,2.8-16H216v20.6c0,9.8-5.8,18.5-15.2,22.4c-9.1,3.8-19.4,1.8-26.3-5.1l-14.6-14.6
	l-56.6,56.6l14.6,14.6c6.9,6.9,8.9,17.3,5,26.8c-3.7,9-12.4,14.8-22.2,14.8H80v72H32c-13.2,0-24,10.8-24,24v160
	c0,6.2,2.4,11.7,6.2,16c-3.8,4.3-6.2,9.8-6.2,16v16c0,13.2,10.8,24,24,24h408c35.3,0,64-28.7,64-64v-74.3c0-34.5-18.3-65.6-48-82.4
	V259L448.3,267.9z M313.4,120L313.4,120L313.4,120h35.9c15.8,0,29.4,11.8,31.7,27.5l5.4,37.5l20.7-20.7c2.8-2.8,6.4-4.3,10.3-4.3
	c8,0,14.6,6.5,14.6,14.6c0,8.2-4,15.8-10.9,20.3l-14.2,9.5l2.4,9.5c4.6,18.6,15.5,34.8,30.8,46.2v23.3l-1.8,1.1
	c-18.5,11.1-39.3,17.6-60.7,19.1l5.5-32.8c3.2-1.6,6.4-3.4,9.4-5.5l4-2.7l-8.9-13.3l-4,2.7c-11.7,7.8-25.4,12-39.5,12
	c-14.9,0-27.3-10.2-30.9-24h8.2c16.7,0,32.5-6.5,44.3-18.3l-11.3-11.3c-8.8,8.8-20.5,13.7-33,13.7H312v-29.8l-22.9-7.6
	C291.6,174.2,298.5,146,313.4,120z M296,205.8V232c0,9.7,2.9,18.8,7.9,26.3C291.8,272,274.3,280,256,280c-2.7,0-5.4-0.2-8-0.5V272
	c0-13.2-10.8-24-24-24l-23.2,0c-5.6-9.7-8.8-20.6-8.8-32c0-35.3,28.7-64,64-64c8.3,0,16.6,1.7,24.3,4.8c-6,19-8,33-8.2,34l-0.9,6.6
	L296,205.8z M314.9,270.1c4.4,3.3,9.3,6,14.6,7.7C311.4,299.4,284.7,312,256,312c-2.7,0-5.3-0.1-8-0.4v-16.1c2.7,0.3,5.3,0.4,8,0.4
	C278.4,296,299.8,286.4,314.9,270.1z M248,327.7c2.7,0.2,5.3,0.3,8,0.3c36.9,0,70.9-18,91.9-48.2c6-0.3,12-1,17.8-2.5l-5.2,31.1
	c-8.1,8.5-14.8,18-19.9,28.2l0,0c-10.7-6.2-23.8-7.2-35.9-2.1c-15,6.2-24.7,20.7-24.7,37v4.6h-32V327.7z M256,120
	c12.5,0,24.5,2.4,35.8,7c-2.3,5-4.4,9.9-6.2,14.7c-9.4-3.7-19.4-5.7-29.6-5.7c-44.1,0-80,35.9-80,80c0,11.1,2.4,22,6.8,32h-17.2
	c-3.6-10.2-5.6-21-5.6-32h0C160,163.1,203.1,120,256,120z M24,272c0-4.4,3.6-8,8-8h9.5c-0.9,2.5-1.5,5.2-1.5,8v168h-8
	c-4.4,0-8-3.6-8-8V272z M32,488c-4.4,0-8-3.6-8-8v-16c0-4.4,3.6-8,8-8h168.9c-0.5,2.6-0.9,5.3-0.9,8c0,9,3.1,17.3,8.2,24H32z
	 M208.2,440H56V272c0-4.4,3.6-8,8-8h160c4.4,0,8,3.6,8,8v153C222.3,427,214,432.4,208.2,440z M280,488h-40c-13.2,0-24-10.8-24-24v0
	v0l0,0c0-13.2,10.8-24,24-24h4.9l3.9-7.9c2.5-5,7.5-8.1,13.4-8.1c4.1,0,8,1.6,10.8,4.5l6.8,6.8V488z M284.5,417.2
	c-5.9-5.9-13.8-9.2-22.5-9.2c-5,0-9.8,1.2-14,3.4V392h48v-20.6c0-9.8,5.8-18.5,15.2-22.4c7.8-3.2,16.4-2.2,23.1,2.5
	c-4.1,12-6.3,24.7-6.3,37.8V424l-36.7,0L284.5,417.2z M312,488h-16v-48h16V488z M488,365.7l0,74.3c0,26.5-21.5,48-48,48H328v-48
	h100.7l13.7,13.7l11.3-11.3L440,428.7v-50.8c0-10.5,2.5-21,7.2-30.3l-14.3-7.2c-5.8,11.6-8.8,24.5-8.8,37.5V424h-80v-34.7
	c0-26,9.8-50.5,27.6-69.4c26.3-0.6,52.1-8,74.8-21.6l1.6-1C472.7,311.3,488,337,488,365.7z"/>
<polygon points="216,464 216,464 216,464 "/>
<path d="M248,56c0-5.6,1.1-11,2.8-16h-0.1C249,45,248,50.4,248,56L248,56z"/>
<path d="M452.4,249.3c-13.4-8.9-23.1-22.3-27.3-37.8l4.8-3.2c11.3-7.5,18-20.1,18-33.8c0-16.8-13.8-30.5-30.6-30.5
	c-7.3,0-14.2,2.5-19.7,7.2l-0.8-6c-3.4-23.5-23.8-41.2-47.5-41.2h-38.6l-6.3-0.1l-2.4,3.9c-1,1.7-1.9,3.3-2.9,5
	c-9.4-3.9-19.1-6.6-29.2-7.9c9.5,8.1,21.4,13.5,34.5,14.7c1.4-2.6,2.8-5.1,4.4-7.7l1.7,0h38.7c19.9,0,36.8,14.6,39.6,34.3L392,168
	c0,0,5-5,9.4-9.4c4.2-4.2,10-6.6,16-6.6c12.5,0,22.6,10.1,22.6,22.6v0.1c0,10.8-5.4,21-14.4,27L416,208l1,4c4.5,18,15.6,33.7,31,44
	v11.6l0.3,0.3l7.7-9v-7.2L452.4,249.3z"/>
<path d="M72,424h144V280H72V424z M88,296h112v112H88V296z"/>
<rect x="104" y="384" width="80" height="8"/>
<rect x="104" y="376" width="80" height="8"/>
<rect x="136" y="344" width="48" height="8"/>
<polygon points="136,344 104,344 104,352 104,360 184,360 184,352 136,352 "/>
<rect x="104" y="312" width="32" height="8"/>
<rect x="104" y="320" width="32" height="8"/>
</svg>
