<?xml version="1.0" encoding="utf-8"?>
<!-- Generator: Adobe Illustrator 24.0.0, SVG Export Plug-In . SVG Version: 6.00 Build 0)  -->
<svg version="1.1" id="Layer_1" xmlns:svgjs="http://svgjs.com/svgjs"
	 xmlns="http://www.w3.org/2000/svg" xmlns:xlink="http://www.w3.org/1999/xlink" x="0px" y="0px" viewBox="0 0 512 512"
	 style="enable-background:new 0 0 512 512;" xml:space="preserve">
<style type="text/css">
	.st0{fill:#FFFFFF;stroke:#000000;stroke-miterlimit:10;}
	.st1{fill:#E82E31;}
</style>
<path class="st0" d="M313.7,278.4c-12.3-2.7-23.5-8.9-32.4-17.8l-1.4-1.4l-1.4,1.4c-12.5,12.5-29,19.3-46.6,19.3h-32
	c-4.4,0-8,3.6-8,8h128v-1.8C320,282.4,317.4,279.3,313.7,278.4z"/>
<path class="st0" d="M385.5,448.9l-85.1-16c-5.2,8.7-17.8,23-44.4,23c-26.6,0-39.2-14.3-44.4-23l-85.1,16
	c-20,3.8-36.4,18.1-42.8,37.3l-0.6,1.7h345.8l-0.6-1.7C421.9,467,405.5,452.7,385.5,448.9z"/>
<path class="st0" d="M251.7,399.9c17.9,1.1,35-4.9,48-17.2c9.1-8.5,15.3-19.1,18.2-30.7H194.5C201.8,378.3,224.4,398.1,251.7,399.9z
	"/>
<path class="st0" d="M352,328c0-10.4-6.7-19.2-16-22.5V336c0,5.1-0.5,10.1-1.5,15C344.6,348.1,352,339,352,328z"/>
<path class="st0" d="M176,305.5c-9.3,3.3-16,12.1-16,22.5c0,11.1,7.6,20.4,17.9,23.1c-1.2-5.7-1.9-11.6-1.9-17.6V305.5z"/>
<path class="st0" d="M256,440c22.4,0,30.3-13.7,32-17.5v-13.2c-10,4.4-20.7,6.7-31.9,6.7c-1.8,0-3.6-0.1-5.4-0.2
	c-9.5-0.6-18.4-3-26.7-6.7v13.3C225.8,426.4,233.7,440,256,440z"/>
<path class="st1" d="M320,304H192v29.5c0,6.4,0.9,12.6,2.5,18.5H318c1.3-5.2,2-10.5,2-16V304z"/>
<polygon class="st1" points="408,104 472,104 472,120 488,120 488,104 504,104 504,88 408,88 "/>
<rect x="408" y="24" class="st1" width="96" height="16"/>
<rect x="408" y="56" class="st1" width="96" height="16"/>
<path class="st1" d="M176,288.8V288c0-13.2,10.8-24,24-24h32c13.3,0,25.9-5.2,35.3-14.6l12.7-12.7l12.7,12.7
	c6.7,6.7,15.2,11.4,24.5,13.4c11.1,2.5,18.8,12.1,18.8,23.4v2.6c18.2,3.7,32,19.9,32,39.2v-96.7c0-21.2-13.7-39.8-33.6-46.3
	l-0.9-1.1c-20.3-25.4-50.6-39.9-83.1-39.9C191.7,144,144,191.7,144,250.4V328C144,308.7,157.8,292.5,176,288.8z"/>
<path class="st1" d="M120,248H8v176h112V248z M88,392H40v-16h48V392z M88,360H40v-16h48V360z M88,328H40v-16h48V328z M88,296H40v-16
	h48V296z"/>
<rect x="32" y="8" class="st1" width="32" height="104"/>
<rect x="96" y="32" class="st1" width="32" height="80"/>
<rect x="160" y="64" class="st1" width="32" height="48"/>
<path d="M388.5,433.2L304,417.4V400h0c2.3-1.8,4.6-3.6,6.7-5.6c8-7.5,14.3-16.6,18.6-26.5c21.4-0.7,38.7-18.3,38.7-39.9h-8
	c0-17.7-14.3-32-32-32v56h-10c-3,11.6-9.2,22.2-18.2,30.7c-13,12.2-30.1,18.3-48,17.2c-27.4-1.8-49.9-21.6-57.2-47.9H184v-56
	c-17.7,0-32,14.3-32,32h-8c0,21.8,17.6,39.6,39.4,39.9c5.7,12.7,14.4,23.8,25.2,32.1H208v17.4l-84.5,15.8c-25.7,4.8-46.8,23.2-55,48
	L60.9,504h390.2l-7.6-22.8C435.2,456.4,414.1,438,388.5,433.2z M336,336v-30.5c9.3,3.3,16,12.1,16,22.5c0,11-7.4,20.1-17.5,23
	C335.5,346.1,336,341.1,336,336z M160,328c0-10.4,6.7-19.2,16-22.5v28.1c0,6,0.7,11.9,1.9,17.6C167.6,348.4,160,339.1,160,328z
	 M224,409.1c8.3,3.7,17.2,6.1,26.7,6.7c1.8,0.1,3.6,0.2,5.4,0.2c11.2,0,22-2.3,31.9-6.7v13.2c-1.7,3.8-9.6,17.5-32,17.5
	c-22.3,0-30.2-13.6-32-17.6V409.1z M83.1,488l0.6-1.7c6.4-19.3,22.8-33.6,42.8-37.3l85.1-16c5.2,8.7,17.8,23,44.4,23
	c26.6,0,39.2-14.3,44.4-23l85.1,16c20,3.8,36.4,18.1,42.8,37.3l0.6,1.7H83.1z"/>
<path d="M315.5,270.6c-10.7-2.4-20.6-7.7-28.4-15.6l-7-7l-7,7c-10.9,10.9-25.6,17-41,17h-32c-8.8,0-16,7.2-16,16v8h144v-9.8
	C328,278.7,322.8,272.2,315.5,270.6z M320,288H192c0-4.4,3.6-8,8-8h32c17.6,0,34.2-6.9,46.6-19.3l1.4-1.4l1.4,1.4
	c8.9,8.9,20.1,15,32.4,17.8c3.7,0.8,6.3,4,6.3,7.8V288z"/>
<path d="M184,352h10.5c-1.6-5.9-2.5-12.1-2.5-18.5V304h128v32c0,5.5-0.7,10.8-2,16h10v-56H184V352z"/>
<path d="M184,296v-8c0-8.8,7.2-16,16-16h32c15.4,0,30.1-6.1,41-17l7-7l7,7c7.9,7.9,17.7,13.2,28.4,15.6c7.3,1.6,12.5,8.1,12.5,15.6
	v9.8c17.7,0,32,14.3,32,32h8c0-19.3-13.8-35.5-32-39.2v-2.6c0-11.3-7.7-20.9-18.8-23.4c-9.3-2.1-17.8-6.7-24.5-13.4L280,236.7
	l-12.7,12.7c-9.4,9.4-22,14.6-35.3,14.6h-32c-13.2,0-24,10.8-24,24v0.8c-18.2,3.7-32,19.9-32,39.2h8C152,310.3,166.3,296,184,296z"
	/>
<rect x="40" y="280" width="48" height="16"/>
<rect x="40" y="312" width="48" height="16"/>
<rect x="40" y="344" width="48" height="16"/>
<rect x="40" y="376" width="48" height="16"/>
<polygon points="216,112 192,112 192,120 160,120 160,112 128,112 128,120 96,120 96,112 64,112 64,120 32,120 32,112 8,112 8,128 
	216,128 "/>
<rect x="32" y="112" width="32" height="8"/>
<rect x="96" y="112" width="32" height="8"/>
<rect x="160" y="112" width="32" height="8"/>
<polygon points="290.3,114.3 301.7,125.7 403.3,24 408,24 408,16 504,16 504,8 396.7,8 "/>
<rect x="408" y="16" width="96" height="8"/>
<rect x="408" y="40" width="96" height="16"/>
<rect x="408" y="72" width="96" height="16"/>
<rect x="488" y="104" width="16" height="16"/>
<rect x="408" y="104" width="64" height="16"/>
<rect x="448" y="192" width="16" height="24"/>
<rect x="422.5" y="202.6" transform="matrix(0.7071 -0.7071 0.7071 0.7071 -25.6089 367.282)" width="16" height="24"/>
<rect x="408" y="232" width="24" height="16"/>
<rect x="418.5" y="257.5" transform="matrix(0.7071 -0.7071 0.7071 0.7071 -61.5989 382.1918)" width="24" height="16"/>
<rect x="448" y="264" width="16" height="24"/>
<rect x="473.5" y="253.5" transform="matrix(0.7071 -0.7071 0.7071 0.7071 -46.6906 418.1877)" width="16" height="24"/>
<rect x="480" y="232" width="24" height="16"/>
<rect x="469.4" y="206.5" transform="matrix(0.7071 -0.7071 0.7071 0.7071 -10.6931 403.2744)" width="24" height="16"/>
<rect x="448" y="304" width="16" height="56"/>
<rect x="448" y="376" width="16" height="16"/>
</svg>
