<?xml version="1.0" encoding="utf-8"?>
<!-- Generator: Adobe Illustrator 24.0.0, SVG Export Plug-In . SVG Version: 6.00 Build 0)  -->
<svg version="1.1" id="Layer_1" xmlns:svgjs="http://svgjs.com/svgjs"
	 xmlns="http://www.w3.org/2000/svg" xmlns:xlink="http://www.w3.org/1999/xlink" x="0px" y="0px" viewBox="0 0 512 512"
	 style="enable-background:new 0 0 512 512;" xml:space="preserve">
<style type="text/css">
	.st0{fill:#FFFFFF;stroke:#000000;stroke-miterlimit:10;}
	.st1{fill:#E82E31;}
</style>
<path class="st0" d="M192,144v-32c-8.8,0-16,7.2-16,16C176,136.8,183.2,144,192,144z"/>
<path class="st0" d="M227.2,224.8c-2.2,0.3-4.4,0.8-6.6,1.3l7.5,18.9l14.3-7.2l-13.3-13.3L227.2,224.8z"/>
<polygon class="st0" points="270.8,213.8 266.2,200 245.8,200 241.2,213.8 256,228.7 "/>
<path class="st0" d="M283.8,245l7.5-18.9c-2.2-0.5-4.3-1-6.6-1.3l-1.9-0.3l-13.3,13.3L283.8,245z"/>
<path class="st0" d="M350.1,117.6c16.7,21.1,25.9,47.4,25.9,74.4c0,66.2-53.8,120-120,120s-120-53.8-120-120
	c0-26.9,9.2-53.3,25.9-74.3c1.2-3.4,2.9-6.5,5-9.2L163,92.9c-27.4,25.7-43,61-43,99.1c0,75,61,136,136,136s136-61,136-136
	c0-38.5-15.8-74.2-43.7-99.9c-0.9,5.4-2,10.9-3.2,16.2C347.2,111.1,349,114.3,350.1,117.6z"/>
<path class="st0" d="M222.2,82.8c-8.9,6-14.2,15.9-14.2,26.6V152c0,17.6,14.4,32,32,32h32c17.6,0,32-14.4,32-32v-29.9
	c0-8.4-4.5-16.3-11.7-20.6l-3.9-2.3c-10.8-6.5-18.6-16.7-22.2-28.5l-16.2,0.5c2.2,7.1,6.1,13.7,11.6,19.1l-11.3,11.3
	c-8.4-8.4-14.1-18.7-16.7-29.9L224,72l0,0l4.4,6.7L222.2,82.8z M280,112c4.4,0,8,3.6,8,8s-3.6,8-8,8s-8-3.6-8-8S275.6,112,280,112z
	 M256,152c6.8,0,13-3.8,16-9.9l0.8-1.7l14.3,7.2l-0.8,1.7c-5.8,11.6-17.4,18.7-30.3,18.7h-16v-16H256z M240,120c0,4.4-3.6,8-8,8
	s-8-3.6-8-8s3.6-8,8-8S240,115.6,240,120z"/>
<path class="st0" d="M252.9,280l-7.7,15.4c3.5,0.4,7.1,0.6,10.8,0.6s7.2-0.2,10.8-0.6L259,280H252.9z"/>
<polygon class="st0" points="266.3,254.1 256,248.9 245.7,254.1 252.3,264 259.7,264 "/>
<path class="st0" d="M219.8,267l-14.2-35.5c-12.1,5.9-22.5,15-29.9,26.5v0c13.5,16.5,32.1,28.6,53.2,34.3l9.9-19.7l-7.5-11.3
	L219.8,267z"/>
<path class="st0" d="M306.4,231.5L292.2,267l-11.5-5.7l-7.5,11.3l9.9,19.7c21.2-5.7,39.7-17.9,53.2-34.3
	C328.9,246.5,318.5,237.4,306.4,231.5z"/>
<path class="st0" d="M320,144c8.8,0,16-7.2,16-16c0-8.8-7.2-16-16-16h-1.3c0.9,3.3,1.3,6.7,1.3,10.1V144z"/>
<path class="st0" d="M287,208.9c23.6,3.4,44.8,16.2,59,34.9c8.8-15.3,14-33,14-51.9c0-17-4.3-33.7-12.1-48.6
	C342.4,153.2,332,160,320,160h-0.7c-3.2,19.2-17.8,34.5-36.6,38.8l3.3,10L287,208.9z"/>
<path class="st0" d="M166,243.9c14.2-18.8,35.4-31.6,59-34.9l1-0.1l3.3-10c-18.8-4.3-33.4-19.6-36.6-38.8H192
	c-12,0-22.4-6.8-27.9-16.6C156.3,158.3,152,175,152,192C152,210.9,157.1,228.6,166,243.9z"/>
<circle class="st0" cx="32" cy="96" r="8"/>
<circle class="st0" cx="480" cy="224" r="8"/>
<path class="st0" d="M248,416c0,4.4,3.6,8,8,8c4.4,0,8-3.6,8-8v-40h-16V416z"/>
<path class="st0" d="M248,343.6V360h16v-16.4c-2.7,0.1-5.3,0.4-8,0.4S250.7,343.7,248,343.6z"/>
<path class="st0" d="M280,341.9V416c0,0.9-0.2,1.8-0.3,2.6c19-9,32.3-28.3,32.3-50.6v0c0-11.2-3.6-22-9.8-31.2
	C295,339.1,287.6,340.7,280,341.9z"/>
<circle class="st0" cx="480" cy="288" r="8"/>
<circle class="st0" cx="32" cy="160" r="8"/>
<path class="st0" d="M232,341.9c-7.6-1.2-15-2.9-22.2-5.2c-6.2,9.2-9.8,20-9.8,31.2c0,22.4,13.2,41.7,32.3,50.6
	c-0.1-0.9-0.3-1.7-0.3-2.6V341.9z"/>
<circle class="st0" cx="480" cy="96" r="8"/>
<circle class="st0" cx="32" cy="288" r="8"/>
<circle class="st0" cx="480" cy="160" r="8"/>
<circle class="st0" cx="32" cy="224" r="8"/>
<path class="st1" d="M328,368c0,39.7-32.3,72-72,72c-39.7,0-72-32.3-72-72c0-13.2,3.7-26,10.4-37.2c-17.3-7.7-33-18.6-46.2-31.8
	l2.3,3.5c4.4,6.8,5.2,15.2,2.1,22.7c-2.7,6.6-9.1,10.8-16.2,10.8H120v64h16.4c7.1,0,13.5,4.2,16.2,10.8c2.7,6.6,1.2,14.1-3.8,19.1
	l-11.6,11.6l45.3,45.3l11.6-11.6c5.1-5,12.6-6.5,19.2-3.8c6.6,2.7,10.8,9.1,10.8,16.2V504h64v-16.4c0-7.1,4.2-13.5,10.8-16.2
	c6.6-2.7,14.1-1.2,19.1,3.8l11.6,11.6l45.3-45.3L363.2,430c-5.1-5.1-6.6-12.6-3.8-19.2c2.7-6.5,9-10.8,16.1-10.8H392v-64l-16.5,0
	c-7.1,0-13.4-4.2-16.1-10.8c-3.1-7.5-2.4-16.2,1.8-23.1l0.9-1.5c-12.9,12.5-27.9,22.8-44.6,30.2C324.3,342,328,354.8,328,368z
	 M160,376c-4.4,0-8-3.6-8-8s3.6-8,8-8s8,3.6,8,8S164.4,376,160,376z M193.8,441.5c-1.6,1.6-3.6,2.3-5.7,2.3c-2,0-4.1-0.8-5.7-2.3
	c-3.1-3.1-3.1-8.2,0-11.3c1.6-1.6,3.6-2.3,5.7-2.3c2,0,4.1,0.8,5.7,2.3C196.9,433.3,196.9,438.4,193.8,441.5z M256,472
	c-4.4,0-8-3.6-8-8s3.6-8,8-8s8,3.6,8,8S260.4,472,256,472z M352,360c4.4,0,8,3.6,8,8s-3.6,8-8,8s-8-3.6-8-8S347.6,360,352,360z
	 M329.5,441.5c-1.6,1.6-3.6,2.3-5.7,2.3c-2,0-4.1-0.8-5.7-2.3c-3.1-3.1-3.1-8.2,0-11.3c1.6-1.6,3.6-2.3,5.7-2.3c2,0,4.1,0.8,5.7,2.3
	C332.7,433.3,332.7,438.4,329.5,441.5z"/>
<path class="st1" d="M162,88.7l1,4.2c0,0,0,0,0,0l3.9,15.5c5.8-7.5,14.9-12.4,25.1-12.4h2c3.1-10.7,9.9-20.2,19.4-26.5l6.2-4.1
	L224,72l0,0l9.7-0.3c-1.1-4.6-1.7-9.5-1.7-14.3V56h16v1.4c0,4.8,0.7,9.4,2.1,13.9l16.2-0.5C264.8,66,264,61.1,264,56h16
	c0,12,6.4,23.3,16.7,29.5l3.9,2.3c3.7,2.2,6.8,5,9.6,8.2h9.8c10.2,0,19.3,4.9,25.1,12.4c1.2-5.4,2.3-10.8,3.2-16.2
	c0,0-0.1-0.1-0.1-0.1c1-6.3,1.8-12.6,2.4-18.9c0,0,0.1,0.1,0.1,0.1c0.8-8.7,1.3-17.4,1.3-26.2V32c0-13.2-10.8-24-24-24H225
	c-35.8,0-65,29.2-65,65c0,0.4,0,0.8,0,1.2c0,0,0,0,0.1-0.1C160.2,79.1,160.8,84,162,88.7z"/>
<path d="M136,192c0,66.2,53.8,120,120,120s120-53.8,120-120c0-26.9-9.2-53.3-25.9-74.4c-1.2-3.4-2.9-6.5-5-9.3
	c-0.3,1.3-0.6,2.7-0.9,4l-1.5,6.1H342c-3.7-8.5-12.1-14.5-22-14.5h-13.6l0,0.1c-2.6-3.8-5.9-7-9.9-9.4l-3.9-2.3
	c-8.5-5.1-14.8-13-18-22.1l0,0.3l-8.3,0.2c3.6,11.7,11.5,22,22.2,28.5l3.9,2.3c7.2,4.3,11.7,12.2,11.7,20.6V152
	c0,17.6-14.4,32-32,32h-32c-17.6,0-32-14.4-32-32v-42.6c0-10.7,5.3-20.7,14.2-26.6l6.2-4.1L224,72l-6.2,4.1
	c-9.6,6.4-15.9,16.7-17.4,28V104H192c-9.9,0-18.3,6-22,14.5h-0.6l-2.5-10c-2.1,2.8-3.8,5.9-5,9.2C145.2,138.7,136,165.1,136,192z
	 M228.9,292.3c-21.2-5.7-39.7-17.9-53.2-34.3v0c7.4-11.5,17.8-20.6,29.9-26.5l14.2,35.5l11.5-5.7l7.5,11.3L228.9,292.3z M256,296
	c-3.6,0-7.2-0.2-10.8-0.6l7.7-15.4h6.1l7.7,15.4C263.2,295.8,259.6,296,256,296z M245.7,254.1l10.3-5.2l10.3,5.2l-6.6,9.9h-7.4
	L245.7,254.1z M283.1,292.3l-9.9-19.7l7.5-11.3l11.5,5.7l14.2-35.5c12.1,5.9,22.5,15,29.9,26.5C322.8,274.4,304.2,286.6,283.1,292.3
	z M320,112c8.8,0,16,7.2,16,16c0,8.8-7.2,16-16,16v-21.9c0-3.4-0.5-6.8-1.3-10.1H320z M319.3,160h0.7c12,0,22.4-6.8,27.9-16.6
	C355.7,158.3,360,175,360,192c0,18.9-5.1,36.6-14,51.9c-14.2-18.8-35.4-31.6-59-34.9l-1-0.1l-3.3-10
	C301.5,194.5,316,179.2,319.3,160z M282.8,224.5l1.9,0.3c2.2,0.3,4.4,0.8,6.6,1.3l-7.5,18.9l-14.3-7.2L282.8,224.5z M245.8,200h20.5
	l4.6,13.8L256,228.7l-14.8-14.8L245.8,200z M242.5,237.8l-14.3,7.2l-7.5-18.9c2.2-0.5,4.3-1,6.6-1.3l2-0.3L242.5,237.8z M192,112v32
	c-8.8,0-16-7.2-16-16C176,119.2,183.2,112,192,112z M192,160h0.7c3.2,19.2,17.8,34.5,36.6,38.8l-3.3,10l-1,0.1
	c-23.6,3.4-44.8,16.2-59,34.9c-8.8-15.3-14-33-14-51.9c0-17,4.3-33.7,12.1-48.6C169.6,153.2,180,160,192,160z"/>
<path d="M274.5,70.2c3.2,9.1,9.5,17,18,22.1l3.9,2.3c4,2.4,7.4,5.7,9.9,9.4l0-0.1H320c9.9,0,18.3,6,22,14.5h0.7l1.5-6.1
	c0.3-1.3,0.6-2.7,0.9-4C339.3,100.9,330.2,96,320,96h-9.8c-2.7-3.2-5.9-6-9.6-8.2l-3.9-2.3C286.4,79.3,280,68,280,56h-16
	c0,5.1,0.8,10,2.3,14.8l8.3-0.2L274.5,70.2z"/>
<path d="M170,118.5c3.7-8.5,12.1-14.5,22-14.5h8.4v0.1c1.5-11.3,7.8-21.6,17.4-28L224,72l-4.4-6.7l-6.2,4.1
	c-9.5,6.4-16.3,15.8-19.4,26.5h-2c-10.3,0-19.3,4.9-25.1,12.4l2.5,10H170z"/>
<path d="M240,168h16c12.9,0,24.5-7.2,30.3-18.7l0.8-1.7l-14.3-7.2l-0.8,1.7c-3,6.1-9.2,9.9-16,9.9h-16V168z"/>
<circle cx="232" cy="120" r="8"/>
<circle cx="280" cy="120" r="8"/>
<path d="M261.7,90.3c-5.4-5.4-9.4-12-11.6-19.1l-16.4,0.5c2.6,11.2,8.3,21.6,16.7,29.9L261.7,90.3z"/>
<path d="M248,57.4V56h-16v1.4c0,4.9,0.6,9.7,1.7,14.3l16.4-0.5C248.7,66.8,248,62.1,248,57.4z"/>
<circle cx="160" cy="368" r="8"/>
<path d="M188.1,427.9c-2,0-4.1,0.8-5.7,2.3c-3.1,3.1-3.1,8.2,0,11.3c1.6,1.6,3.6,2.3,5.7,2.3c2,0,4.1-0.8,5.7-2.3
	c3.1-3.1,3.1-8.2,0-11.3C192.2,428.7,190.2,427.9,188.1,427.9z"/>
<circle cx="256" cy="464" r="8"/>
<path d="M318.2,430.2c-3.1,3.1-3.1,8.2,0,11.3c1.6,1.6,3.6,2.3,5.7,2.3c2,0,4.1-0.8,5.7-2.3c3.1-3.1,3.1-8.2,0-11.3
	c-1.6-1.6-3.6-2.3-5.7-2.3C321.8,427.9,319.8,428.7,318.2,430.2z"/>
<circle cx="352" cy="368" r="8"/>
<path d="M480,200c-13.2,0-24,10.8-24,24s10.8,24,24,24s24-10.8,24-24S493.2,200,480,200z M480,232c-4.4,0-8-3.6-8-8s3.6-8,8-8
	c4.4,0,8,3.6,8,8S484.4,232,480,232z"/>
<path d="M480,264c-13.2,0-24,10.8-24,24s10.8,24,24,24s24-10.8,24-24S493.2,264,480,264z M480,296c-4.4,0-8-3.6-8-8c0-4.4,3.6-8,8-8
	c4.4,0,8,3.6,8,8C488,292.4,484.4,296,480,296z"/>
<path d="M480,136c-13.2,0-24,10.8-24,24s10.8,24,24,24s24-10.8,24-24S493.2,136,480,136z M480,168c-4.4,0-8-3.6-8-8s3.6-8,8-8
	c4.4,0,8,3.6,8,8S484.4,168,480,168z"/>
<path d="M480,72c-13.2,0-24,10.8-24,24s10.8,24,24,24s24-10.8,24-24S493.2,72,480,72z M480,104c-4.4,0-8-3.6-8-8s3.6-8,8-8
	c4.4,0,8,3.6,8,8S484.4,104,480,104z"/>
<path d="M424,248h-26.8c2.1-5.2,3.8-10.5,5.3-16H440v-16h-34.1c1.3-7.8,2.1-15.8,2.1-24c0-8.1-0.7-16.1-1.9-24H440v-16h-37.3
	c-1.5-5.4-3.2-10.8-5.3-16H424v-32h16V88h-32v32h-18.1c-9.6-17.8-22.8-33.7-39.2-46.8c-0.6,6.3-1.4,12.7-2.5,18.9
	c27.9,25.7,43.7,61.4,43.7,99.9c0,75-61,136-136,136s-136-61-136-136c0-38,15.6-73.4,43-99.1l-1-4.2c-1.2-4.7-1.8-9.6-1.9-14.5
	c-15.8,12.9-28.6,28.4-37.9,45.8H104V88H72v16h16v32h26.6c-2.1,5.2-3.8,10.6-5.3,16H72v16h33.9c-1.2,7.9-1.9,15.9-1.9,24
	c0,8.2,0.8,16.2,2.1,24H72v16h37.5c1.5,5.5,3.2,10.8,5.3,16H88v32H72v16h32v-32h18.2c7,12.9,15.8,24.7,26.1,35l-8.2-12.7l7.4,0.1
	c15.9,18.3,36.4,32.5,59.6,40.9h-0.5c-9.1,11.1-14.6,25.2-14.6,40.7c0,35.3,28.7,64,64,64s64-28.7,64-64c0-15.5-5.5-29.6-14.6-40.7
	h-0.5c22.5-8.2,42.5-21.7,58.2-39.2l6.8,0l-7.7,12.5c11-10.7,20.3-23,27.7-36.6H408v32h32v-16h-16V248z M200,368
	c0-11.2,3.6-22,9.8-31.2c7.2,2.3,14.6,3.9,22.2,5.2V416c0,0.9,0.2,1.8,0.3,2.6C213.2,409.7,200,390.4,200,368z M264,416
	c0,4.4-3.6,8-8,8c-4.4,0-8-3.6-8-8v-40h16V416z M264,360h-16v-16.4c2.7,0.1,5.3,0.4,8,0.4s5.3-0.3,8-0.4V360z M312,368L312,368
	c0,22.4-13.2,41.7-32.3,50.6c0.1-0.9,0.3-1.7,0.3-2.6v-74.1c7.6-1.2,15-2.9,22.2-5.2C308.4,346,312,356.8,312,368z"/>
<path d="M363.1,288c-15.7,17.5-35.7,31.1-58.2,39.2h0.5c9.1,11.1,14.6,25.2,14.6,40.7c0,35.3-28.7,64-64,64s-64-28.7-64-64
	c0-15.5,5.5-29.6,14.6-40.7h0.5c-23.2-8.4-43.7-22.6-59.6-40.9l-7.4-0.1l8.2,12.7c13.2,13.3,28.8,24.1,46.2,31.8
	c-6.7,11.2-10.4,24-10.4,37.2c0,39.7,32.3,72,72,72c39.7,0,72-32.3,72-72c0-13.2-3.7-26-10.4-37.2c16.6-7.4,31.7-17.7,44.6-30.2
	l7.7-12.5L363.1,288z"/>
<path d="M348.2,92.1C348.2,92.1,348.3,92.1,348.2,92.1c1.1-6.2,1.9-12.5,2.5-18.8c0,0-0.1-0.1-0.1-0.1
	C350,79.5,349.2,85.8,348.2,92.1z"/>
<path d="M163,92.9C163,92.9,163,92.9,163,92.9l-1-4.2c-1.2-4.8-1.8-9.7-1.9-14.6c0,0,0,0-0.1,0.1c0.1,4.9,0.7,9.8,1.9,14.5L163,92.9
	z"/>
<path d="M32,200c-13.2,0-24,10.8-24,24s10.8,24,24,24s24-10.8,24-24S45.2,200,32,200z M32,232c-4.4,0-8-3.6-8-8s3.6-8,8-8s8,3.6,8,8
	S36.4,232,32,232z"/>
<path d="M32,264c-13.2,0-24,10.8-24,24s10.8,24,24,24s24-10.8,24-24S45.2,264,32,264z M32,296c-4.4,0-8-3.6-8-8c0-4.4,3.6-8,8-8
	s8,3.6,8,8C40,292.4,36.4,296,32,296z"/>
<path d="M32,136c-13.2,0-24,10.8-24,24s10.8,24,24,24s24-10.8,24-24S45.2,136,32,136z M32,168c-4.4,0-8-3.6-8-8s3.6-8,8-8s8,3.6,8,8
	S36.4,168,32,168z"/>
<path d="M32,72C18.8,72,8,82.8,8,96s10.8,24,24,24s24-10.8,24-24S45.2,72,32,72z M32,104c-4.4,0-8-3.6-8-8s3.6-8,8-8s8,3.6,8,8
	S36.4,104,32,104z"/>
</svg>
