<?xml version="1.0" encoding="utf-8"?>
<!-- Generator: Adobe Illustrator 24.0.0, SVG Export Plug-In . SVG Version: 6.00 Build 0)  -->
<svg version="1.1" id="Layer_1" xmlns:svgjs="http://svgjs.com/svgjs"
	 xmlns="http://www.w3.org/2000/svg" xmlns:xlink="http://www.w3.org/1999/xlink" x="0px" y="0px" viewBox="0 0 512 512"
	 style="enable-background:new 0 0 512 512;" xml:space="preserve">
<style type="text/css">
	.st0{fill:#FFFFFF;stroke:#000000;stroke-miterlimit:10;}
	.st1{fill:#E82E31;}
</style>
<g>
	<path class="st0" d="M189.9,313.8c18.2,0,33-14.8,33-33h-66.1C156.9,299,171.7,313.8,189.9,313.8z"/>
	<path class="st0" d="M123.9,389.8c0-4.6,0.9-9,2.3-13.2l-69.7,11.6c-4.5,0.7-7.5,5-6.8,9.5c0.7,4.4,4.9,7.5,9.5,6.8l64.7-10.8
		V389.8z"/>
	<path class="st0" d="M82.6,256c0,50.1,40.8,90.8,90.8,90.8h33c50.1,0,90.8-40.8,90.8-90.8v-74.3H82.6V256z M239.5,280.8
		c0,27.3-22.2,49.5-49.5,49.5s-49.5-22.2-49.5-49.5v-16.5h99.1V280.8z M214.7,223c0-18.2,14.8-33,33-33s33,14.8,33,33v8.3h-16.5V223
		c0-9.1-7.4-16.5-16.5-16.5s-16.5,7.4-16.5,16.5v8.3h-16.5V223z M99.1,223c0-18.2,14.8-33,33-33s33,14.8,33,33v8.3h-16.5V223
		c0-9.1-7.4-16.5-16.5-16.5s-16.5,7.4-16.5,16.5v8.3H99.1V223z"/>
	<polygon class="st0" points="16.5,148.6 16.5,165.2 363.4,165.2 363.4,148.6 16.5,148.6 	"/>
	<path class="st0" d="M214.1,430.9l41.9,9.3v-2.5c0-33.7-22.5-62.2-53.3-71.3c3.6,5.6,6.1,12,6.8,19.1L214.1,430.9z"/>
	<rect x="379.9" y="49.5" class="st0" width="82.6" height="16.5"/>
	<path class="st0" d="M90.8,99.1h16.5c4.6,0,8.3-3.7,8.3-8.3V45.5c-12,5.4-23.1,12.6-33,21.1v24.3C82.6,95.4,86.3,99.1,90.8,99.1z"
		/>
	<path class="st0" d="M272.5,99.1H289c4.6,0,8.3-3.7,8.3-8.3V66.5c-9.9-8.5-21-15.6-33-21.1v45.4C264.3,95.4,268,99.1,272.5,99.1z"
		/>
	<path class="st0" d="M349,379.9h47.4v-49.5h16.5V202.7l66.1-57.8V82.6H363.4v49.5c9.1,0,16.5,7.4,16.5,16.5v16.5
		c0,9.1-7.4,16.5-16.5,16.5v140.4C363.4,342.4,358.4,362.1,349,379.9z M462.5,148.6h-66.1v-16.5h66.1V148.6z M379.9,99.1h82.6v16.5
		h-82.6V99.1z"/>
	<path class="st0" d="M272.5,437.7v6.2l3.8,0.8l0.8-1.6c3.9-7.9,11.6-12.9,20.2-13.6v-33.3l-35-0.2
		C268.8,408.5,272.5,422.7,272.5,437.7z"/>
	<path class="st0" d="M148.6,35.3c-5.6,1-11.1,2.4-16.5,4v51.5c0,13.7-11.1,24.8-24.8,24.8H90.8c-13.7,0-24.8-11.1-24.8-24.8v-7.8
		C54.2,97.2,45,113.8,39.3,132.1h109.3V35.3z"/>
	<path class="st0" d="M313.8,83.1v7.8c0,13.7-11.1,24.8-24.8,24.8h-16.5c-13.7,0-24.8-11.1-24.8-24.8V39.3c-5.4-1.7-10.9-3-16.5-4
		v96.9h109.3C334.9,113.8,325.7,97.2,313.8,83.1z"/>
	<path class="st0" d="M181.7,49.5h16.5v82.6h16.5V24.8c0-4.6-3.7-8.3-8.3-8.3h-8.3V33h-16.5V16.5h-8.3c-4.6,0-8.3,3.7-8.3,8.3v107.4
		h16.5V49.5z"/>
	<path class="st0" d="M313.8,445.9h-14.6c-3.1,0-6,1.8-7.4,4.6l-6.6,13.2l-43.9-9.8c-5.8,12-13.2,23.2-21.9,33.3h94.3
		c4.6,0,8.3-3.7,8.3-8.3v-24.8C322.1,449.6,318.4,445.9,313.8,445.9z"/>
	<path class="st0" d="M445.9,346.8h-33v33h33c9.1,0,16.5-7.4,16.5-16.5C462.5,354.2,455,346.8,445.9,346.8z"/>
	<path class="st0" d="M313.8,396.4v33c13.7,0,24.8,11.1,24.8,24.8v8.3h107.4c9.1,0,16.5-7.4,16.5-16.5v-54.1
		c-4.9,2.8-10.5,4.6-16.5,4.6H313.8z"/>
	<path class="st0" d="M429.4,210.2v120.1h16.5c15.3,0,28.2,10.6,31.9,24.8h17.7V156.9h-5.2L429.4,210.2z M479,313.8h-33v-16.5h33
		V313.8z M479,280.8h-33v-16.5h33V280.8z M479,247.7h-33v-16.5h33V247.7z M479,214.7h-33v-16.5h33V214.7z"/>
	<path class="st0" d="M70.4,419.4l8.3,45.5c1.5,8.1,8.6,14,16.8,14c1.6,0,3.2-0.2,4.8-0.7l1.4-0.4l-13.2-61.5L70.4,419.4z"/>
	<path class="st0" d="M123.9,410.5l-19.1,3.2l12.8,59.6l23.8-6.9c-11.2-15.3-17.5-33.8-17.5-53.4V410.5z"/>
	<path class="st0" d="M209.1,446.7L176.8,479h4.8c3.1,0,6,1.8,7.4,4.6l3.7,7.3v0c13.1-11.4,23.8-25.3,31.9-40.7L209.1,446.7z"/>
	<path class="st0" d="M193.1,387.2c-1.4-13.6-12.7-23.8-26.3-23.8c-14.6,0-26.4,11.9-26.4,26.4v23.1c0,21.2,8.8,40.8,24.3,54.9
		l33.2-33.2L193.1,387.2z"/>
	<path class="st1" d="M53.7,372l84.7-14.1c0.1-0.1,0.3-0.2,0.4-0.3C96.6,343.1,66.1,303.1,66.1,256v-74.3H16.5v140.4
		c0,23.1,6.3,45.4,18.4,64.9C38,379.3,45,373.4,53.7,372z"/>
	<path class="st1" d="M313.8,256c0,51.2-36.1,94.1-84.1,104.7c13.8,8.6,25.1,20.8,32.6,35.3l35,0.2v-16.3H349
		c9.4-17.7,14.4-37.4,14.4-57.8V181.7h-49.5V256z"/>
	<path d="M115.6,223c0-9.1,7.4-16.5,16.5-16.5s16.5,7.4,16.5,16.5v8.3h16.5V223c0-18.2-14.8-33-33-33s-33,14.8-33,33v8.3h16.5V223z"
		/>
	<path d="M231.2,223c0-9.1,7.4-16.5,16.5-16.5s16.5,7.4,16.5,16.5v8.3h16.5V223c0-18.2-14.8-33-33-33s-33,14.8-33,33v8.3h16.5V223z"
		/>
	<path d="M140.4,280.8c0,27.3,22.2,49.5,49.5,49.5s49.5-22.2,49.5-49.5v-16.5h-99.1V280.8z M223,280.8c0,18.2-14.8,33-33,33
		s-33-14.8-33-33H223z"/>
	<path d="M495.5,66.1H479V33h-16.5V16.5h-16.5V33h-16.5V0h-16.5v33h-16.5V16.5h-16.5V33h-16.5v33h-16.5v37.4
		c-22.4-45.1-65.6-77.3-116.5-85.1C227.5,7.9,217.9,0,206.5,0h-33c-11.5,0-21,7.9-23.8,18.4c-61.1,9.4-111,54-127.3,113.7h-5.7
		c-9.1,0-16.5,7.4-16.5,16.5v16.5c0,9.1,7.4,16.5,16.5,16.5v-8.3h57.8V256c0,54.7,44.4,99.1,99.1,99.1h33
		c54.7,0,99.1-44.4,99.1-99.1v-82.6h57.8v8.3c9.1,0,16.5-7.4,16.5-16.5v-16.5c0-9.1-7.4-16.5-16.5-16.5V82.6H479v62.3l-66.1,57.8
		v127.6h-16.5v49.5H349c-1.5,2.8-3.1,5.6-4.8,8.3h-38.6v8.1l-8.3,0v33.3c-8.6,0.7-16.3,5.7-20.2,13.6l-0.8,1.6l-3.8-0.8v-6.2
		c0-15-3.7-29.2-10.2-41.7l-9.5,0c-14.3-24.4-40.8-40.9-71.2-40.9h-14.9c-9.3,0-17.8,3.7-24,9.8l-87.7,15.2
		c-7.6,1.3-13,7.5-13.7,14.9l-1.3,0l-2.4-3.6c-1-1.4-1.9-2.9-2.8-4.3c-1.7,4.1-2.3,8.8-1.5,13.5c1.8,10.7,10.1,18.7,20.5,20.3
		l8.6,47.1c2.9,16,16.8,27.6,33.1,27.6c3.2,0,6.4-0.5,9.4-1.3l47.2-13.8l-1,1c-2.4,2.4-3.1,5.9-1.8,9c1.3,3.1,4.3,5.1,7.6,5.1h19.7
		l6,11.9c1.1,2.2,3.1,3.8,5.5,4.3c0.6,0.1,1.3,0.2,1.9,0.2c1.8,0,3.5-0.6,5-1.7c3.1-2.3,6.1-4.8,9-7.3c3.6,0.4,7.2,0.7,10.8,0.7
		h99.1c13.7,0,24.8-11.1,24.8-24.8h107.4c18.2,0,33-14.8,33-33v-74.3h33V140.4h-16.5V66.1z M264.3,45.5c12,5.4,23.1,12.6,33,21.1
		v24.3c0,4.6-3.7,8.3-8.3,8.3h-16.5c-4.6,0-8.3-3.7-8.3-8.3V45.5z M231.2,35.3c5.6,1,11.1,2.4,16.5,4v51.5
		c0,13.7,11.1,24.8,24.8,24.8H289c13.7,0,24.8-11.1,24.8-24.8v-7.8c11.9,14.2,21.1,30.8,26.7,49.1H231.2V35.3z M165.2,24.8
		c0-4.6,3.7-8.3,8.3-8.3h8.3V33h16.5V16.5h8.3c4.6,0,8.3,3.7,8.3,8.3v107.4h-16.5V49.5h-16.5v82.6h-16.5V24.8z M82.6,66.5
		c9.9-8.5,21-15.6,33-21.1v45.4c0,4.6-3.7,8.3-8.3,8.3H90.8c-4.6,0-8.3-3.7-8.3-8.3V66.5z M66.1,83.1v7.8
		c0,13.7,11.1,24.8,24.8,24.8h16.5c13.7,0,24.8-11.1,24.8-24.8V39.3c5.4-1.7,10.9-3,16.5-4v96.9H39.3C45,113.8,54.2,97.2,66.1,83.1z
		 M297.3,256c0,50.1-40.8,90.8-90.8,90.8h-33c-50.1,0-90.8-40.8-90.8-90.8v-74.3h214.7V256z M363.4,165.2H16.5l0-16.5h0h346.8V165.2
		z M462.5,66.1h-82.6V49.5h82.6V66.1z M256,437.7v2.5l-41.9-9.3l-4.5-45.4c-0.7-7.1-3.2-13.5-6.8-19.1
		C233.5,375.5,256,404,256,437.7z M59.2,404.5c-4.6,0.8-8.8-2.4-9.5-6.8c-0.8-4.5,2.3-8.8,6.8-9.5l69.7-11.6
		c-1.4,4.2-2.3,8.5-2.3,13.2v4L59.2,404.5z M100.3,478.3c-1.5,0.5-3.2,0.7-4.8,0.7c-8.3,0-15.3-5.9-16.8-14l-8.3-45.5l18.1-3
		l13.2,61.5L100.3,478.3z M117.5,473.3l-12.8-59.6l19.1-3.2v2.4c0,19.6,6.3,38.1,17.5,53.4L117.5,473.3z M164.7,467.8
		c-15.5-14.1-24.3-33.7-24.3-54.9v-23.1c0-14.6,11.9-26.4,26.4-26.4c13.6,0,24.9,10.2,26.3,23.8l4.7,47.4L164.7,467.8z M192.7,490.9
		L192.7,490.9l-3.7-7.3c-1.4-2.8-4.3-4.6-7.4-4.6h-4.8l32.2-32.2l15.5,3.5C216.6,465.6,205.8,479.5,192.7,490.9z M322.1,479
		c0,4.6-3.7,8.3-8.3,8.3h-94.3c8.7-10.1,16.1-21.3,21.9-33.3l43.9,9.8l6.6-13.2c1.4-2.8,4.2-4.6,7.4-4.6h14.6c4.6,0,8.3,3.7,8.3,8.3
		V479z M462.5,445.9c0,9.1-7.4,16.5-16.5,16.5H338.6v-8.3c0-13.7-11.1-24.8-24.8-24.8v-33h132.1c6,0,11.6-1.8,16.5-4.6V445.9z
		 M445.9,379.9h-33v-33h33c9.1,0,16.5,7.4,16.5,16.5C462.5,372.5,455,379.9,445.9,379.9z M495.5,355.1h-17.7
		c-3.7-14.2-16.5-24.8-31.9-24.8h-16.5V210.2l60.9-53.3h5.2V355.1z"/>
	<path d="M40.1,395l1.3,0c0.6-7.3,6.1-13.6,13.7-14.9l87.7-15.2c6.2-6,14.7-9.8,24-9.8h14.9c30.4,0,56.8,16.5,71.2,40.9l9.5,0
		c-7.5-14.5-18.8-26.7-32.6-35.3c48-10.7,84.1-53.5,84.1-104.7v-74.3h49.5v-8.3h-57.8V256c0,54.7-44.4,99.1-99.1,99.1h-33
		c-54.7,0-99.1-44.4-99.1-99.1v-82.6H16.5v8.3h49.5V256c0,47.1,30.5,87.1,72.7,101.5c-0.1,0.1-0.3,0.2-0.4,0.3L53.7,372
		c-8.8,1.5-15.7,7.4-18.8,15c0.9,1.5,1.8,2.9,2.8,4.3L40.1,395z"/>
	<path d="M297.3,396.2l8.3,0v-8.1h38.6c1.7-2.7,3.3-5.5,4.8-8.3h-51.7V396.2z"/>
	<rect x="445.9" y="198.2" width="33" height="16.5"/>
	<rect x="445.9" y="231.2" width="33" height="16.5"/>
	<rect x="445.9" y="264.3" width="33" height="16.5"/>
	<rect x="445.9" y="297.3" width="33" height="16.5"/>
	<rect x="379.9" y="99.1" width="82.6" height="16.5"/>
	<rect x="396.4" y="132.1" width="66.1" height="16.5"/>
</g>
</svg>
