<?xml version="1.0" encoding="utf-8"?>
<!-- Generator: Adobe Illustrator 24.0.0, SVG Export Plug-In . SVG Version: 6.00 Build 0)  -->
<svg version="1.1" id="Layer_1" xmlns:svgjs="http://svgjs.com/svgjs"
	 xmlns="http://www.w3.org/2000/svg" xmlns:xlink="http://www.w3.org/1999/xlink" x="0px" y="0px" viewBox="0 0 512 512"
	 style="enable-background:new 0 0 512 512;" xml:space="preserve">
<style type="text/css">
	.st0{fill:#FFFFFF;}
	.st1{fill:#E82E31;}
</style>
<g>
	<path class="st0" d="M219,406.7l16.8,14l17.4-46.3c-2.4-1.3-4.6-2.7-6.6-4.4L219,406.7z"/>
	<path class="st0" d="M295.3,201.3c0.4,2.2,0.7,4.4,0.7,6.7v17.8c0,7.2-0.6,14.3-1.7,21.2c10.1-2.8,17.7-12,17.7-23
		C312,213.3,305,204.4,295.3,201.3z"/>
	<path class="st0" d="M328,160v64v0l0,0c0,21.2-16.6,38.4-37.4,39.7c-7.4,25.6-22.2,48.4-42.6,65.5v10.1c0,9.4,5.6,18,14.2,21.9
		l32.9,14.8H488V24H184v18.4c7.8-1.6,15.8-2.4,24-2.4C274.2,40,328,93.8,328,160z M408,360h-48V200h48V360z M472,360h-48V136h48V360
		z M344,112v-8V88V72V56V40h64h16h16h16h16v16v16v16v16v8v8H344V112z M344,360h-48v-80h48V360z"/>
	<rect x="376" y="216" class="st0" width="16" height="128"/>
	<path class="st0" d="M120,201.5c-9.3,3.3-16,12.1-16,22.5c0,11,7.5,20.2,17.7,23c-1.1-6.9-1.7-14-1.7-21.2V201.5z"/>
	<rect x="440" y="152" class="st0" width="16" height="192"/>
	<rect x="312" y="296" class="st0" width="16" height="48"/>
	<path class="st0" d="M211,351.4l-3,1.2l-3-1.2c-7.5-3-14.5-6.6-21.1-10.7c-0.2,5.8-1.6,11.3-4.1,16.3l28.2,37.6l28.2-37.6
		c-2.5-5-3.9-10.6-4.1-16.3C225.4,344.8,218.4,348.4,211,351.4z"/>
	<path class="st0" d="M197,406.7L169.5,370c-2,1.7-4.3,3.1-6.6,4.4l17.4,46.2L197,406.7z"/>
	<path class="st0" d="M170.7,488L144,472l16-24l-32-24l6.1-36.4L77.6,413c-30.1,13.6-50.4,42.4-53.3,75H72v-48h16v48H170.7z"/>
	<path class="st0" d="M288,424l-32,24l16,24l-26.7,16H328v-48h16v48h47.6c-2.9-32.5-23.2-61.4-53.3-75l-56.4-25.4L288,424z"/>
	<path class="st0" d="M208,335.3c43.8-18.9,72-61.5,72-109.5V208c0-13.2-10.8-24-24-24h-56.7c-16.8,0-33.1-4.9-47.1-14.2
		c-1.7-1.2-3.7-1.8-5.8-1.8c-5.8,0-10.4,4.7-10.4,10.4v47.4C136,273.8,164.2,316.4,208,335.3z M248,200c4.4,0,8,3.6,8,8s-3.6,8-8,8
		s-8-3.6-8-8S243.6,200,248,200z M208,288c8.8,0,16-7.2,16-16h16c0,17.6-14.4,32-32,32s-32-14.4-32-32h16
		C192,280.8,199.2,288,208,288z M160,208c0-4.4,3.6-8,8-8s8,3.6,8,8s-3.6,8-8,8S160,212.4,160,208z"/>
	<polygon class="st0" points="208,418.4 186.2,436.6 205.5,488 210.5,488 229.8,436.6 	"/>
	<polygon class="st1" points="256,448 288,424 281.9,387.6 267.7,381.2 227.6,488 245.3,488 272,472 	"/>
	<polygon class="st1" points="160,448 144,472 170.7,488 188.4,488 148.3,381.2 134.1,387.6 128,424 	"/>
	<polygon class="st1" points="328,224 328,224 328,224 	"/>
	<path class="st1" d="M120,184.8v-6.4c0-14.6,11.8-26.4,26.4-26.4c5.2,0,10.3,1.5,14.7,4.4c11.4,7.6,24.6,11.6,38.2,11.6H256
		c13,0,24.5,6.3,31.8,16h0.2c22.1,0,40,17.9,40,40v-64c0-66.2-53.8-120-120-120c-8.2,0-16.2,0.8-24,2.4v0c-5.5,1.1-10.8,2.7-16,4.6
		v-0.1c-46.6,16.5-80,61-80,113.1v64C88,204.7,101.8,188.5,120,184.8z"/>
	<polygon class="st1" points="88,224 88,224 88,224 	"/>
	<polygon class="st1" points="472,56 456,56 456,40 440,40 440,56 424,56 424,40 408,40 408,56 344,56 344,72 472,72 	"/>
	<rect x="344" y="88" class="st1" width="128" height="16"/>
	<path d="M208,304c17.6,0,32-14.4,32-32h-16c0,8.8-7.2,16-16,16c-8.8,0-16-7.2-16-16h-16C176,289.6,190.4,304,208,304z"/>
	<path d="M504,8H168v38.9V47c5.2-1.8,10.5-3.5,16-4.6v0V24h304v352H295.1l-32.9-14.8c-8.6-3.9-14.2-12.5-14.2-21.9v-10.1
		c20.4-17.1,35.2-39.8,42.6-65.5c20.8-1.4,37.4-18.6,37.4-39.7v0c0-22.1-17.9-40-40-40h-0.2c-7.3-9.7-18.8-16-31.8-16h-56.7
		c-13.6,0-26.8-4-38.2-11.6c-4.4-2.9-9.4-4.4-14.7-4.4c-14.6,0-26.4,11.8-26.4,26.4v6.4c-18.2,3.7-32,19.9-32,39.2v0
		c0,21.2,16.6,38.4,37.4,39.7c7.4,25.6,22.2,48.4,42.6,65.5v10.1c0,9.4-5.6,18-14.2,21.9l-82.8,37.2C32.8,415.7,8,454,8,496v8h400
		v-8c0-42-24.8-80.3-63.1-97.6l-14.3-6.4H504L504,8z M253.1,374.4l-17.4,46.3l-16.8-14l27.5-36.7
		C248.5,371.7,250.7,373.2,253.1,374.4z M208,394.7L179.8,357c2.5-5,3.9-10.6,4.1-16.3c6.6,4.1,13.7,7.8,21.1,10.7l3,1.2l3-1.2
		c7.5-3,14.5-6.6,21.1-10.7c0.2,5.8,1.6,11.3,4.1,16.3L208,394.7z M294.3,247c1.1-6.9,1.7-14,1.7-21.2V208c0-2.3-0.3-4.5-0.7-6.7
		c9.6,3.1,16.7,12.1,16.7,22.7C312,235,304.5,244.2,294.3,247z M104,224c0-10.4,6.7-19.2,16-22.5v24.4c0,7.2,0.6,14.3,1.7,21.2
		C111.5,244.2,104,235,104,224z M136,225.8v-47.4c0-5.7,4.7-10.4,10.4-10.4c2.1,0,4.1,0.6,5.8,1.8c14,9.3,30.3,14.2,47.1,14.2H256
		c13.2,0,24,10.8,24,24v17.8c0,48-28.2,90.6-72,109.5C164.2,316.4,136,273.8,136,225.8z M169.5,370l27.5,36.7l-16.8,14l-17.4-46.2
		C165.3,373.2,167.5,371.7,169.5,370z M72,440v48H24.4c2.9-32.5,23.2-61.4,53.3-75l56.4-25.4l14.3-6.4L188.4,488h-17.8H88v-48H72z
		 M205.5,488l-19.3-51.4l21.8-18.1l21.8,18.1L210.5,488H205.5z M338.4,413c30.1,13.6,50.4,42.4,53.3,75H344v-48h-16v48h-82.7h-17.8
		l40.1-106.8l14.3,6.4L338.4,413z"/>
	<circle cx="168" cy="208" r="8"/>
	<circle cx="248" cy="208" r="8"/>
	<path d="M424,360h48V136h-48V360z M440,152h16v192h-16V152z"/>
	<path d="M360,360h48V200h-48V360z M376,216h16v128h-16V216z"/>
	<path d="M296,360h48v-80h-48V360z M312,296h16v48h-16V296z"/>
	<rect x="456" y="40" width="16" height="16"/>
	<rect x="424" y="40" width="16" height="16"/>
	<rect x="344" y="40" width="64" height="16"/>
	<rect x="344" y="72" width="128" height="16"/>
	<polygon points="472,112 472,104 344,104 344,112 344,120 472,120 	"/>
</g>
</svg>
