<svg xmlns="http://www.w3.org/2000/svg" viewBox="0 0 220.5 215.4"><defs><style>.cls-1{fill:none}.cls-2{fill:#262525}.cls-3{fill:#3a3a3a}.cls-4{fill:#fe3030}.cls-5{fill:#ff6464}.cls-6{clip-path:url(#clip-path)}.cls-7{fill:#fcfcfc}.cls-8{fill:#ddd}.cls-9{fill:#f48991}.cls-10{fill:#f66d1d}.cls-11{fill:#ff8c52}</style><clipPath id="clip-path" transform="translate(5 77.7)"><path d="M153.4 81c-4.3 42.2-40.7 60.3-82.9 56S-3.9 107.8.4 65.5 40-3.8 82.3.4s75.4 38.3 71.1 80.6z" class="cls-1"/></clipPath></defs><title>about-el-bn-2</title><g id="Layer_2" data-name="Layer 2"><g id="OBJECTS"><path d="M159.5 50.5l51.9-52.3a14.2 14.2 0 0 0 2.7-16.1c-9-19.2-35.4-61-93.9-59.8a14.4 14.4 0 0 0-12.2 7.3L72.9-7.1a14.3 14.3 0 0 0 4.8 18.9l64.1 40.6a14.2 14.2 0 0 0 17.7-1.9z" class="cls-2" transform="translate(5 77.7)"/><path d="M207.1 2.5c-19.5-18.1-33.7-42-35.5-67.8 23.9 13.6 36.8 35.1 42.5 47.4a14.2 14.2 0 0 1-2.7 16.1z" class="cls-3" transform="translate(5 77.7)"/><path d="M72.9-7.1L108-70.4a13.5 13.5 0 0 1 4.6-4.9c5.9 43.6 39.6 73.9 79.8 92.6l-32.9 33.2a14.2 14.2 0 0 1-17.7 1.9L77.7 11.8a14.3 14.3 0 0 1-4.8-18.9z" transform="translate(5 77.7)"/><path d="M187 22.7l-27.5 27.8a14.2 14.2 0 0 1-17.7 1.9L77.7 11.8a14.3 14.3 0 0 1-4.8-18.9l16.6-30C129-32.2 166-11.9 187 22.7z" class="cls-4" transform="translate(5 77.7)"/><path d="M115.5 35.7L88.4 18.6c1.7-8.4 2.9-17 5.6-25.3 2.6-10.3 9.5-18.7 18.1-25.8a138.6 138.6 0 0 1 43.4 21c-7.9 18.6-23.2 33.5-40 47.2z" class="cls-5" transform="translate(5 77.7)"/><ellipse cx="98.9" cy="29.4" rx="37.8" ry="115.1" transform="rotate(-62.9 164.976 64.167)"/><g class="cls-6"><path d="M153.4 81c-4.3 42.2-40.7 60.3-82.9 56S-3.9 107.8.4 65.5 40-3.8 82.3.4s75.4 38.3 71.1 80.6z" class="cls-7" transform="translate(5 77.7)"/><path d="M98 116.5c29.5-5.5 46.2-28.2 55-54.7a76.7 76.7 0 0 1 .4 19.2c-4.3 42.2-40.7 60.3-82.9 56C31.8 133.1 1.7 111.9.1 76c20.8 30.8 55.2 49.9 97.9 40.5z" class="cls-8" transform="translate(5 77.7)"/></g><circle cx="105.8" cy="158.8" r="14.3" class="cls-9"/><circle cx="27.5" cy="129.8" r="14" class="cls-9"/><circle cx="98.1" cy="136.1" r="5.6"/><circle cx="46.1" cy="111.1" r="5.6"/><path d="M46 81.1a13.5 13.5 0 0 0 9.4 10.5 20.5 20.5 0 0 0 14-1.1 12.8 12.8 0 0 0 6.8-6.9 12.6 12.6 0 0 0 .9-5c-.2-2.3-3.8-2.3-3.6 0V80c-.1.5 0-.3-.1.2l-.3 1.3a9.4 9.4 0 0 1-4.1 5.2 17.1 17.1 0 0 1-11.5 1.8 10.4 10.4 0 0 1-6.5-4.4 8 8 0 0 1-.8-1.6c-.2-.4.1.3 0 0s-.2-.3-.2-.5a1.4 1.4 0 0 1-.2-.6 5 5 0 0 1-.3-1.3 1.9 1.9 0 0 0-2.2-1.2 1.8 1.8 0 0 0-1.3 2.2z" transform="translate(5 77.7)"/><path d="M64 71.2c7.5-6.3 5.3-18.5-3.8-22.3-13.6-5.8-39.3-16.3-41.8-13.5s17.1 24.2 27.2 34.8a13.3 13.3 0 0 0 17.6 1.7z" class="cls-10" transform="translate(5 77.7)"/><path d="M21.8 35.1c7.9 1.1 27.3 9 38.4 13.8a13.5 13.5 0 0 1 8.2 13.8 63.2 63.2 0 0 1-46.6-27.6z" class="cls-11" transform="translate(5 77.7)"/><path d="M46.2 60.5c.2-.1 0 .1 0 0l.3-.2a3 3 0 0 0 .8-.8 11.5 11.5 0 0 0 1.9-2.6 12.4 12.4 0 0 0 .5-10c-.4-1.1 1.3-1.6 1.7-.5a14.3 14.3 0 0 1-.6 11.3 12 12 0 0 1-3.7 4.4c-.9.6-1.8-.9-.9-1.6zM34.6 54.1l.3-.2.7-.7a12.4 12.4 0 0 0 1.7-2.3 11.4 11.4 0 0 0 .4-8.9c-.3-.9 1.2-1.3 1.5-.4a12.6 12.6 0 0 1-.5 9.9 10.4 10.4 0 0 1-3.3 3.9c-.8.6-1.6-.7-.8-1.3z" class="cls-10" transform="translate(5 77.7)"/><ellipse cx="83.2" cy="195.9" class="cls-8" rx="16.2" ry="11.7"/><path d="M93.1 107.1c0 2.3 2.5 4.1 5.6 4.1s5.6-1.8 5.6-4.1-2.5-4-5.6-4-5.6 1.8-5.6 4zM137.4 64.2c1.8 1.3 4.7.4 6.6-2.1s1.9-5.6.1-6.9-4.8-.4-6.6 2.1-1.9 5.6-.1 6.9zM137.2 51.8c1 .7 2.6.2 3.6-1.2s1-3 .1-3.7-2.6-.2-3.6 1.1-1 3-.1 3.8z" class="cls-8" transform="translate(5 77.7)"/><circle cx="177.3" cy="-41.3" r="9.9" class="cls-3" transform="rotate(-45 273.607 -8.432)"/><path d="M166.2-56.3a3.4 3.4 0 0 1-3.4 3.4 3.4 3.4 0 0 1-3.4-3.4 3.4 3.4 0 0 1 3.4-3.4 3.4 3.4 0 0 1 3.4 3.4zM158.5-46.3a1.8 1.8 0 0 1-1.8 1.8 1.8 1.8 0 0 1-1.7-1.8 1.8 1.8 0 0 1 1.7-1.8 1.8 1.8 0 0 1 1.8 1.8z" class="cls-3" transform="translate(5 77.7)"/></g></g></svg>