<svg xmlns="http://www.w3.org/2000/svg" xmlns:xlink="http://www.w3.org/1999/xlink" viewBox="0 0 739.1 182.6"><defs><style>.cls-1,.cls-21,.cls-22,.cls-23,.cls-32,.cls-35,.cls-38,.cls-9{fill:none}.cls-2{isolation:isolate}.cls-3{clip-path:url(#clip-path)}.cls-4{fill:#fe3030}.cls-5{fill:#ff5f5f}.cls-6{fill:#fcfcfc}.cls-7{fill:#fca251}.cls-8{fill:#ffc285}.cls-23,.cls-9{stroke:#fca251}.cls-21,.cls-22,.cls-23,.cls-32,.cls-35,.cls-38,.cls-9{stroke-miterlimit:10}.cls-9{stroke-width:.54px}.cls-10{fill:#512a0c}.cls-11{fill:#6d3d15}.cls-12{fill:#935b28}.cls-13{fill:#ac753f}.cls-14{fill:#d89c66}.cls-15{fill:#f7b57f}.cls-16{fill:#ffc60a}.cls-17{fill:#48912d}.cls-18{clip-path:url(#clip-path-2)}.cls-19{fill:#69b751}.cls-20{fill:#80dd5e}.cls-21,.cls-22{stroke:#fcfcfc}.cls-21{stroke-width:9px}.cls-22{stroke-width:2px}.cls-23{stroke-width:.45px}.cls-24{fill:#00844b}.cls-25{fill:#016d3c}.cls-26{fill:#a50000}.cls-27{fill:#76130e}.cls-28{opacity:.5}.cls-29{clip-path:url(#clip-path-3)}.cls-30{fill:#459c3e}.cls-31{fill:#2a7a21}.cls-32,.cls-35,.cls-38{stroke:#2a7a21}.cls-32{stroke-width:.4px}.cls-33,.cls-36,.cls-39,.cls-41{opacity:.78;mix-blend-mode:overlay}.cls-33{fill:url(#Degradado_sin_nombre_14)}.cls-34{clip-path:url(#clip-path-4)}.cls-35{stroke-width:.58px}.cls-36{fill:url(#Degradado_sin_nombre_14-2)}.cls-37{clip-path:url(#clip-path-5)}.cls-38{stroke-width:.37px}.cls-39{fill:url(#Degradado_sin_nombre_14-3)}.cls-40{clip-path:url(#clip-path-6)}.cls-41{fill:url(#Degradado_sin_nombre_14-4)}</style><clipPath id="clip-path" transform="translate(348 2.1)"><circle cx="340.9" cy="97.6" r="36.6" class="cls-1" transform="rotate(-45 340.886 97.5)"/></clipPath><clipPath id="clip-path-2" transform="translate(348 2.1)"><circle cx="120.3" cy="70" r="30.4" class="cls-1" transform="rotate(-22.1 120.035 69.956)"/></clipPath><clipPath id="clip-path-3" transform="translate(348 2.1)"><path d="M54.9 31.4c12.2.4 13.6-12.6 13.6-12.6 7 3.7 12.9-.6 14-1.5a.1.1 0 0 0 .1-.1 12.7 12.7 0 0 0 5.4 13s-10.7 7.6-4.5 18c0 0-11.5.5-13.6 11.7l-14 2.4L51.2 49c8.8-7.3 3.7-17.6 3.7-17.6z" class="cls-1"/></clipPath><linearGradient id="Degradado_sin_nombre_14" x1="375.89" x2="382.89" y1="-1326.93" y2="-1365.4" gradientTransform="matrix(-.6 -.8 -.8 .6 -792.48 1159.55)" gradientUnits="userSpaceOnUse"><stop offset="0"/><stop offset="1" stop-opacity="0"/></linearGradient><clipPath id="clip-path-4" transform="translate(348 2.1)"><path d="M2.8 44.9C13.9 31 0 18 0 18 10.4 13 10.5 2.3 10.4.3V.1a.3.3 0 0 1 .1.2c1.4 1.4 9 8.9 19.9 5 0 0-.5 19 17.2 20.9 0 0-9.5 13.8 1.7 26.2l-9.4 18.3h-.1l-19.7-6.2C19.3 47.9 2.8 44.9 2.8 44.9z" class="cls-1"/></clipPath><linearGradient id="Degradado_sin_nombre_14-2" x1="-798.1" x2="-787.89" y1="84.19" y2="28.07" gradientTransform="matrix(-1 0 0 1 -764.06 0)" xlink:href="#Degradado_sin_nombre_14"/><clipPath id="clip-path-5" transform="translate(348 2.1)"><path d="M254.9 148.2c8-7.9 17.1-.1 17.1-.1 2.5-6.9 9.2-7.7 10.4-7.8h.1c-1.1-.8-6.3-5.1-4.6-12.2 0 0-11.9 1.6-14.4-9.4 0 0-8 6.9-16.6.7l-10.9 7.2 5.3 12c10.5-.6 13.6 9.6 13.6 9.6z" class="cls-1"/></clipPath><linearGradient id="Degradado_sin_nombre_14-3" x1="793.16" x2="799.63" y1="1802.38" y2="1766.78" gradientTransform="rotate(83.7 1443.4 651.022)" xlink:href="#Degradado_sin_nombre_14"/><clipPath id="clip-path-6" transform="translate(348 2.1)"><path d="M209.2 152.7c-10.1-5-16.4 5.3-16.4 5.3-4.4-5.8-11-4.4-12.3-4.1a12 12 0 0 0 .5-13s11.8-2.2 10.7-13.4c0 0 9.8 4.1 16-4.5l12.6 3.4-1.2 13c-10.2 2.7-9.9 13.3-9.9 13.3z" class="cls-1"/></clipPath><linearGradient id="Degradado_sin_nombre_14-4" x1="680" x2="686.47" y1="-401.66" y2="-437.26" gradientTransform="scale(1 -1) rotate(-78 622.773 12.929)" xlink:href="#Degradado_sin_nombre_14"/></defs><title>about-el-bn-3</title><g class="cls-2"><g id="Layer_2" data-name="Layer 2"><g id="OBJECTS"><g class="cls-3"><circle cx="340.9" cy="97.6" r="36.6" class="cls-4" transform="rotate(-45 517.42 -321.523)"/><circle cx="328.8" cy="88.7" r="15.3" class="cls-5" transform="rotate(-24.2 508.25 -721.929)"/><path d="M341 92.8l4.7 2.9h.8l5-2.2a.9.9 0 0 1 1.2 1l-1.3 5.3a.8.8 0 0 0 .2.8l3.7 4a.9.9 0 0 1-.6 1.5l-5.5.4a.8.8 0 0 0-.6.4l-2.8 4.8a.9.9 0 0 1-1.5-.1l-2.1-5.1a1 1 0 0 0-.6-.5l-5.3-1.1c-.7-.2-1-1.1-.4-1.5l4.1-3.6a.9.9 0 0 0 .3-.7l-.6-5.4a.9.9 0 0 1 1.3-.9zM344.3 68.8l1.4.8h.2l1.5-.6c.1-.1.3 0 .3.2l-.4 1.6c0 .1 0 .1.1.2l1 1.2a.2.2 0 0 1-.1.4h-1.8l-.8 1.4a.2.2 0 0 1-.4 0l-.6-1.5h-.2l-1.5-.4a.3.3 0 0 1-.2-.4l1.2-1a.3.3 0 0 0 .1-.2V69c-.2-.2.1-.3.2-.2zM354.4 120.2l1.4.8h.2l1.5-.6c.2-.1.4 0 .3.2l-.4 1.6v.2l1.1 1.2a.3.3 0 0 1-.2.4h-1.8l-.8 1.4a.2.2 0 0 1-.4 0l-.6-1.5h-.2l-1.5-.4a.2.2 0 0 1-.1-.4l1.2-1v-1.8c-.1-.1.2-.2.3-.1zM319.6 113l.5 1.5c.1.1.1.2.2.2l1.5.4a.2.2 0 0 1 .1.4l-1.2 1c-.1 0-.1.1-.1.2v1.6c.1.2-.2.3-.3.2l-1.3-.9h-.3l-1.4.5c-.2.1-.4-.1-.4-.3l.5-1.5c0-.1 0-.2-.1-.2l-.9-1.3a.2.2 0 0 1 .1-.4h1.6c.1 0 .2 0 .2-.1l.9-1.3c.1-.2.4-.2.4 0zM358 65.3l4.7 2.9c.3.1.5.2.8 0l5-2.2a.9.9 0 0 1 1.2 1l-1.3 5.3a.8.8 0 0 0 .2.8l3.7 4a.9.9 0 0 1-.6 1.5l-5.4.4a.8.8 0 0 0-.7.4l-2.7 4.8a.9.9 0 0 1-1.6-.1l-2.1-5.1a1 1 0 0 0-.6-.5l-5.3-1.1a.9.9 0 0 1-.4-1.5l4.1-3.6a.6.6 0 0 0 .3-.7l-.6-5.4a.9.9 0 0 1 1.3-.9zM370.1 99.5l4.7 2.8a.8.8 0 0 0 .8.1l4.9-2.2a.8.8 0 0 1 1.2.9l-1.2 5.4a.7.7 0 0 0 .2.7l3.6 4.1a.8.8 0 0 1-.6 1.4l-5.4.5a.8.8 0 0 0-.7.4l-2.7 4.7a.8.8 0 0 1-1.5-.1l-2.1-5a.7.7 0 0 0-.6-.5l-5.4-1.2a.9.9 0 0 1-.4-1.5l4.2-3.5a1.1 1.1 0 0 0 .3-.7l-.6-5.5a.8.8 0 0 1 1.3-.8zM309.3 85.3l3.3 4.4a1 1 0 0 0 .7.4l5.5-.3a.9.9 0 0 1 .7 1.4l-3.1 4.5a.6.6 0 0 0-.1.7l1.8 5.2a.8.8 0 0 1-1 1.1l-5.2-1.6a.8.8 0 0 0-.8.1l-4.3 3.4a.9.9 0 0 1-1.4-.7v-5.4a.8.8 0 0 0-.3-.7l-4.6-3.1a.8.8 0 0 1 .2-1.5l5.2-1.8a.5.5 0 0 0 .5-.5l1.5-5.3a.9.9 0 0 1 1.4-.3zM331.2 118.8l3.2 4.4a1.1 1.1 0 0 0 .7.3l5.5-.2a.8.8 0 0 1 .7 1.3l-3.1 4.5a.8.8 0 0 0-.1.8l1.9 5.1a.9.9 0 0 1-1.1 1.1l-5.2-1.6a.8.8 0 0 0-.8.2l-4.3 3.3a.8.8 0 0 1-1.4-.6v-5.5a1 1 0 0 0-.4-.7l-4.6-3a.9.9 0 0 1 .2-1.5l5.2-1.8a.9.9 0 0 0 .6-.6l1.4-5.2a.9.9 0 0 1 1.6-.3z" class="cls-6" transform="translate(348 2.1)"/></g><path d="M322.5 70.1c.3.9 4.6.3 9.5-1.5s8.7-3.9 8.4-4.8-4.6-.3-9.6 1.4-8.7 3.9-8.3 4.9z" class="cls-7" transform="translate(348 2.1)"/><path d="M334.7 52.6l5.7 11.2-17.9 6.3-2.5-12.3z" class="cls-7" transform="translate(348 2.1)"/><path d="M320 57.8c.3.7 3.8.2 7.8-1.2s7.1-3.2 6.9-4-3.8-.2-7.9 1.2-7.1 3.2-6.8 4z" class="cls-8" transform="translate(348 2.1)"/><path d="M325 55.8c.1.3 1.2.3 2.4-.2s2.1-1 2-1.3-1.2-.3-2.4.1-2.1 1.1-2 1.4z" class="cls-7" transform="translate(348 2.1)"/><path d="M327.1 55.3s-13.6-13.2-6.6-14.9 7.3 14.6 7.3 14.6" class="cls-9" transform="translate(348 2.1)"/><path d="M338.8 141.6s-11.2 8.9-20.3-.4 3.2-21.3 3.2-21.3z" class="cls-10" transform="translate(348 2.1)"/><path d="M346.7 117.2s-19.2-13.9-26.2-7.2 4.6 16.4 4.6 16.4-3.3 5.9.6 10.3 9.8 1.4 9.8 1.4 1.5 8.4 9.2 9.6 15.7-16.3 2-30.5z" class="cls-11" transform="translate(348 2.1)"/><path d="M362.7 105.1s-24.9-18-33.9-9.4 6 21.3 6 21.3-4.4 7.7.7 13.3 12.7 1.9 12.7 1.9 2 10.8 12 12.4 20.3-21.1 2.5-39.5z" class="cls-12" transform="translate(348 2.1)"/><path d="M372.3 94.5s-17.2-18.9-30.2-11.1 1.9 18.9 1.9 18.9-9.6 4.7-4.1 12.7 12.7 4.4 12.7 4.4-3.1 8.5 2.4 12.7 10.9-4.4 10.9-4.4-3.2 6.7 1.8 9.5 31.5-13.7 4.6-42.7z" class="cls-13" transform="translate(348 2.1)"/><path d="M364 123.9c-8.3-11.2-10.4-25.9-2.9-38.5a54.8 54.8 0 0 1 11.2 9.1c17.5 18.9 12.3 32.5 5.2 38.9a31.9 31.9 0 0 1-13.5-9.5z" class="cls-14" transform="translate(348 2.1)"/><path d="M374.9 102.2c-1 1-3.8-.3-6.3-2.9s-3.8-5.4-2.7-6.4 3.8.3 6.3 2.9 3.7 5.4 2.7 6.4z" class="cls-11" transform="translate(348 2.1)"/><path d="M372.9 99.6s24.3-13 16.8-21.1-3.7 10.2-21 16.5z" class="cls-11" transform="translate(348 2.1)"/><path d="M376 124.1c-2.9.5-5.7-2.3-6.4-6.1s1.1-7.5 3.9-8 5.6 2.3 6.3 6.2-1 7.4-3.8 7.9zM365.4 113.7c-1.3.3-2.7-.9-3-2.7s.6-3.3 1.9-3.5 2.7 1 3 2.7-.5 3.3-1.9 3.5z" class="cls-15" transform="translate(348 2.1)"/><path d="M356.6 105.3c-2.6.5-5.1-1.8-5.7-5s1.1-6.1 3.6-6.6 5.1 1.8 5.6 5-1 6.2-3.5 6.6zM361 93.2a1.6 1.6 0 0 1-1.6-1.5 1.5 1.5 0 0 1 1-1.9c.8-.2 1.5.5 1.7 1.4a1.7 1.7 0 0 1-1.1 2zM362 96.8c-.4.1-.7-.2-.8-.6a.9.9 0 0 1 .5-.9c.3 0 .6.2.7.7s-.1.8-.4.8z" class="cls-13" transform="translate(348 2.1)"/><path d="M149 112.7l-2.6 5.3a2.5 2.5 0 0 1-1.9 1.4l-5.9.9a2.5 2.5 0 0 0-1.4 4.3l4.2 4.2a2.7 2.7 0 0 1 .8 2.3l-1 5.8a2.5 2.5 0 0 0 3.7 2.7l5.2-2.8a3.3 3.3 0 0 1 2.4 0l5.3 2.8a2.5 2.5 0 0 0 3.7-2.7l-1-5.8a2.7 2.7 0 0 1 .7-2.3l4.3-4.2a2.5 2.5 0 0 0-1.4-4.3l-5.9-.9a2.3 2.3 0 0 1-1.9-1.4l-2.7-5.3a2.6 2.6 0 0 0-4.6 0z" class="cls-6" transform="translate(348 2.1)"/><path d="M152.3 27.8l-1.3 2.6c-.2.3-.4.5-.7.5l-2.9.4a.9.9 0 0 0-.5 1.5l2.1 2.1a.9.9 0 0 1 .3.7l-.5 2.9a.8.8 0 0 0 1.2.9l2.6-1.3a.6.6 0 0 1 .8 0l2.7 1.3a.8.8 0 0 0 1.2-.9l-.5-2.9a.9.9 0 0 1 .3-.7l2.1-2.1a.9.9 0 0 0-.5-1.5l-2.9-.4a.8.8 0 0 1-.7-.5l-1.3-2.6a.8.8 0 0 0-1.5 0z" class="cls-16" transform="translate(348 2.1)"/><path d="M203.8 179.4c-8.1-46.4-42.3-86.4-85.7-104a127.5 127.5 0 0 0-34.3-8.9c-13.8-1.6-28.5-1.2-41.6 4.2S19.7 85.5 16.8 98.4c-2.4 11.2 1.7 24.8 12.2 30.4s23.4 2.6 28.7-7.2c6.7-12.3-1.9-26.6-12.2-33.5a72.5 72.5 0 0 0-19-8.6 130.1 130.1 0 0 0-23.2-5.3 93.8 93.8 0 0 0-44.5 5c-14.4 5.3-27.7 13.3-40.9 21s-25.9 15.5-39 23c-26 14.9-53.2 28.5-82.5 35.6-26.9 6.6-56 7.6-82.4-1.7-22.1-7.8-42.3-22.3-54.6-42.5a81.2 81.2 0 0 1-7.3-15.5c-.7-1.8 2.2-2.6 2.9-.8 8.7 24.5 29.1 42.9 52.6 53.1 27.7 12 59 11.5 88 4.5 31.1-7.6 59.6-22.4 87.1-38.4 14-8.1 27.7-16.5 41.7-24.5s27.1-15.3 42.1-19.5 31.1-3.8 46.4-.7c13.7 2.8 28.8 7.1 39.4 16.8 8.7 8 13.9 21.5 8.4 32.7-4.6 9.4-15.8 13.3-25.6 11.7-11.4-1.9-19.3-11.7-21.3-22.7s2.3-24 10.9-32.6c19.6-19.5 51.5-18.3 76.4-12.1 46.7 11.8 86.5 48.8 101.3 94.6a116.4 116.4 0 0 1 4.3 17.4c.3 1.9-2.5 2.7-2.9.8z" class="cls-17" transform="translate(348 2.1)"/><g class="cls-18"><circle cx="120.3" cy="70" r="30.4" class="cls-19" transform="rotate(-22.1 299.412 -819.994)"/><circle cx="474.1" cy="63.8" r="17.6" class="cls-20"/><path d="M158.4 68.5s-27.2-8.5-75.6 0" class="cls-21" transform="translate(348 2.1)"/><path d="M158.4 56.8s-27.2-8.5-75.6 0M158.4 80.4s-27.2-8.5-75.6 0" class="cls-22" transform="translate(348 2.1)"/></g><path d="M127.2 43.4c0 .8-3.6 1.5-7.9 1.5s-7.9-.7-7.9-1.5 3.5-1.5 7.9-1.5 7.9.7 7.9 1.5z" class="cls-7" transform="translate(348 2.1)"/><path d="M112.8 33l-1.4 10.4h15.8L125.7 33z" class="cls-7" transform="translate(348 2.1)"/><path d="M125.7 33c0 .7-2.8 1.3-6.4 1.3s-6.5-.6-6.5-1.3 2.9-1.2 6.5-1.2 6.4.6 6.4 1.2z" class="cls-8" transform="translate(348 2.1)"/><ellipse cx="467.4" cy="35" class="cls-7" rx="1.9" ry=".5"/><path d="M119.5 33s7-14 1.1-13.5-1.7 13.5-1.7 13.5" class="cls-23" transform="translate(348 2.1)"/><path d="M-22.2 98.5S-9.1 74-13.6 70.4s-10 7.2-10 7.2.5-20.9-5.3-19.2-4.3 21.5-4.3 21.5-6.2-10.4-10.2-7.7 9.3 26.7 9.3 26.7z" class="cls-24" transform="translate(348 2.1)"/><path d="M-43.4 72.2c4-2.7 10.2 7.7 10.2 7.7s-1.5-19.8 4.3-21.5a1.4 1.4 0 0 1 .9 0v40.3l-6.1.2s-13.4-24-9.3-26.7z" class="cls-25" transform="translate(348 2.1)"/><path d="M-19.9 126.7s9 26.4 14.7 25.5S-3.6 140-3.6 140s14.8 14.7 17.5 9.3-12.7-17.8-12.7-17.8 11.9 2.6 12.7-2.2S-12 117.8-12 117.8z" class="cls-24" transform="translate(348 2.1)"/><path d="M13.9 129.3c-.8 4.8-12.7 2.2-12.7 2.2s15.5 12.4 12.7 17.8a1.8 1.8 0 0 1-.5.7L-16 122.4l4-4.6s26.6 6.7 25.9 11.5z" class="cls-25" transform="translate(348 2.1)"/><path d="M-65.9 102.9c15.1-7.2 24.2-2.9 29.3 2.7-6.2-14.2 7.9-27.3 7.9-27.3 11.8 11.2 11.4 21 8.3 27.8 12.5-11.2 29.7.3 29.7.3-8.3 14.1-17.9 15.9-25.2 14.4 12.8 9.7 6 28.3 6 28.3-14.9-4.4-19.3-12.6-20-19.8-3.8 16.4-24.6 16.8-24.6 16.8-1.2-16.1 5.5-23.1 12.3-26.2-16.2 1.7-23.7-17-23.7-17z" class="cls-26" transform="translate(348 2.1)"/><path d="M-65.6 127c7.7-14.9 17.6-16.9 25-15.6-13.5-7.5-10.2-26.5-10.2-26.5 16.3 1.8 21.8 9.9 23.4 17.2 3.3-16.5 23.9-17.6 23.9-17.6 1.9 16.1-4.6 23.4-11.3 26.6 16 .1 21.8 19 21.8 19-14.5 5.5-23 1.5-27.9-3.8 6.9 15.5-9.5 28.2-9.5 28.2-10.7-12-9.6-21.7-6-28.2-11.9 11.1-29.2.7-29.2.7z" class="cls-4" transform="translate(348 2.1)"/><circle cx="320.5" cy="116.7" r="7.8" class="cls-27"/><g class="cls-28"><path d="M-29.6 109.8l-14.3-17.1-2-2.4c-.3-.3-.8.2-.5.6l14.3 17 2 2.4c.3.4.8-.2.5-.5z" class="cls-27" transform="translate(348 2.1)"/><path d="M-39 94.9a18.3 18.3 0 0 1 1.8 3c.8 1.6 1.7 3.6 1.3 5.4l.4-.3a7.5 7.5 0 0 1-2.6-.4 15.1 15.1 0 0 1-6.2-4.3c-.3-.4-.8.1-.5.5a16.2 16.2 0 0 0 6.4 4.5 9.3 9.3 0 0 0 2.9.5c.2 0 .3-.1.4-.3a10.2 10.2 0 0 0-1.3-5.7 29 29 0 0 0-2-3.3c-.2-.3-.9 0-.6.4zM-32.8 114.1l-20.9 7.5-3 1c-.4.2-.2.9.2.8l20.9-7.5 3-1.1c.5-.1.3-.9-.2-.7z" class="cls-27" transform="translate(348 2.1)"/><path d="M-50 117.8l3.4-.7c1.8-.2 3.9-.3 5.5.7v-.5a5.5 5.5 0 0 1-1.4 2.3 13.4 13.4 0 0 1-6.1 4.3c-.4.1-.2.9.2.7 3.1-1.2 6.3-3.3 7.7-6.4l.3-.7a.4.4 0 0 0-.2-.4c-1.7-1-3.9-.9-5.8-.7a16.1 16.1 0 0 0-3.7.7.4.4 0 0 0 .2.7zM-30 118.6l-.9 22.1v3.2c-.1.5.7.5.7 0l.9-22.1v-3.2a.4.4 0 1 0-.7 0z" class="cls-27" transform="translate(348 2.1)"/><path d="M-33.1 135.8c.2-1 .4-2.2.7-3.3s1.2-3.8 2.6-4.9h-.4a5.6 5.6 0 0 1 1.6 2.1 14.3 14.3 0 0 1 1.7 7.3.4.4 0 1 0 .7 0 14.4 14.4 0 0 0-1.7-7.6 6.9 6.9 0 0 0-1.8-2.4h-.4c-1.6 1.2-2.4 3.3-3 5.1a24.1 24.1 0 0 0-.7 3.7c-.1.5.7.5.7 0zM-24.5 117.4l21 7.3 2.9 1c.5.2.7-.5.2-.7l-20.9-7.3-3-1c-.5-.2-.6.5-.2.7z" class="cls-27" transform="translate(348 2.1)"/><path d="M-8.8 125.3a14.3 14.3 0 0 1-3-1.6c-1.6-.9-3.4-2.2-4-4l-.2.5a8.7 8.7 0 0 1 2.5-1 15.9 15.9 0 0 1 7.5.5c.4.2.6-.5.2-.7a14.8 14.8 0 0 0-7.8-.5 9.4 9.4 0 0 0-2.8 1c-.1.1-.2.3-.1.4.6 1.9 2.4 3.2 4 4.3a21.1 21.1 0 0 0 3.3 1.8c.4.2.8-.5.4-.7zM-24 111.8l13.3-17.7 1.9-2.6c.3-.4-.3-.7-.6-.3l-13.4 17.7-1.9 2.5c-.3.4.4.8.7.4z" class="cls-27" transform="translate(348 2.1)"/><path d="M-11.7 99.3a14.2 14.2 0 0 1-2.5 2.4c-1.3 1.2-3.1 2.5-5 2.5l.4.3a6.1 6.1 0 0 1-.1-2.7 13.9 13.9 0 0 1 2.8-6.9.4.4 0 0 0-.7-.4 16.1 16.1 0 0 0-2.9 7.2 7.5 7.5 0 0 0 .2 3 .3.3 0 0 0 .3.3 9.2 9.2 0 0 0 5.3-2.6 16.6 16.6 0 0 0 2.7-2.6c.3-.3-.2-.9-.5-.5z" class="cls-27" transform="translate(348 2.1)"/></g><circle cx="320.4" cy="108.9" r="1.5" class="cls-16"/><path d="M-34 110a1.4 1.4 0 0 0 2.1 0 1.4 1.4 0 0 0 0-2.1 1.4 1.4 0 0 0-2.1 0 1.7 1.7 0 0 0 0 2.1zM-35.1 115.8a1.5 1.5 0 0 0 1.4-1.5 1.5 1.5 0 0 0-1.4-1.5 1.5 1.5 0 0 0-1.5 1.5 1.5 1.5 0 0 0 1.5 1.5z" class="cls-16" transform="translate(348 2.1)"/><circle cx="315.1" cy="121.7" r="1.5" class="cls-16"/><path d="M-26.2 121.8a1.4 1.4 0 0 0-1.5-1.4 1.4 1.4 0 0 0-1.4 1.4 1.4 1.4 0 0 0 1.4 1.5 1.4 1.4 0 0 0 1.5-1.5z" class="cls-16" transform="translate(348 2.1)"/><circle cx="325.7" cy="121.8" r="1.5" class="cls-16"/><circle cx="327.9" cy="116.5" r="1.5" class="cls-16"/><circle cx="325.7" cy="111.1" r="1.5" class="cls-16"/><path d="M-107.9 75.1c-1.9-12.8 3.3-18.5 8.5-21-11.8 1.4-18.3-11.9-18.3-11.9 10.9-6.2 18-3.7 22.3.1-5.4-11.8 7-21.8 7-21.8 8.5 9.2 7.7 16.7 4.9 21.7 10-7.2 22.2 2 22.2 2-6.5 10-13.6 11.4-19.1 10.3 11.3 6.5 6.9 21.9 6.9 21.9-12.2-2.7-15.8-9.3-16.5-14.9-2.5 12.3-17.9 13.6-17.9 13.6z" class="cls-26" transform="translate(348 2.1)"/><path d="M-90 80.3c-9.3-9.1-8.5-16.8-5.9-22-8.6 8.3-21.8 1.6-21.8 1.6 4.9-11.6 12.1-13.8 17.9-13.4-11.5-6.1-7.7-21.5-7.7-21.5 12.4 2.2 16.2 8.6 17.1 14.3 3.7-11.8 18.9-11.8 18.9-11.8.8 11.9-4 17.3-9 19.7 12.9-1.6 18.6 13.3 18.6 13.3-11.3 5.2-18.1 2.2-22.1-1.9 5.4 11.3-6 21.7-6 21.7z" class="cls-4" transform="translate(348 2.1)"/><path d="M-88.9 43.7a6 6 0 0 1 4 7.5 6 6 0 0 1-7.5 4 6 6 0 0 1-4-7.5 6 6 0 0 1 7.5-4z" class="cls-27" transform="translate(348 2.1)"/><g class="cls-28"><path d="M-94.7 49.9l-15.8 6.7-2.2.9c-.3.2 0 .7.3.5l15.8-6.7 2.2-.9c.3-.2 0-.7-.3-.5z" class="cls-27" transform="translate(348 2.1)"/><path d="M-107.7 53.5l2.5-.7c1.4-.2 3.1-.4 4.3.2v-.3a4.8 4.8 0 0 1-.9 1.9 11.3 11.3 0 0 1-4.6 3.5c-.3.2 0 .7.3.5a10.7 10.7 0 0 0 4.7-3.7 5.6 5.6 0 0 0 1.1-2c0-.2 0-.3-.2-.4s-3-.5-4.5-.3l-2.8.7c-.3.1-.2.7.2.6zM-92.2 53.2l.8 17.1v2.4a.3.3 0 0 0 .6 0l-.8-17v-2.5c-.1-.4-.6-.4-.6 0z" class="cls-27" transform="translate(348 2.1)"/><path d="M-93.4 66.7l.3-2.6a8 8 0 0 1 1.7-4h-.2l.3.3a4 4 0 0 1 1 1.2 10.4 10.4 0 0 1 1.7 5.4c.1.4.6.4.6 0a10.4 10.4 0 0 0-3-7l-.4-.3a.3.3 0 0 0-.4 0c-1.1 1-1.5 2.7-1.8 4.1a14.3 14.3 0 0 0-.3 2.9c0 .4.5.4.5 0zM-88.3 52.2l16.2 5.6 2.3.8c.3.2.5-.4.1-.5l-16.1-5.7-2.3-.8c-.4-.1-.5.5-.2.6z" class="cls-27" transform="translate(348 2.1)"/><path d="M-76.2 58.3a16.7 16.7 0 0 1-2.3-1.2c-1.2-.8-2.6-1.7-3.1-3.1v.3a4.9 4.9 0 0 1 1.9-.7 11.5 11.5 0 0 1 5.7.4.3.3 0 1 0 .1-.5 11.9 11.9 0 0 0-5.9-.5 7.2 7.2 0 0 0-2.2.8c-.1.1-.2.2-.1.3a6.6 6.6 0 0 0 3.1 3.3 20.1 20.1 0 0 0 2.5 1.4c.4.2.7-.3.3-.5zM-87.9 47.8L-77.8 34l1.4-1.9c.2-.3-.3-.6-.5-.3L-87 45.6l-1.4 1.9c-.2.3.3.6.5.3z" class="cls-27" transform="translate(348 2.1)"/><path d="M-78.6 38.1a15.3 15.3 0 0 1-1.8 1.8c-1.1.9-2.4 2-3.9 2.1l.3.2a5 5 0 0 1-.1-2.1 10.9 10.9 0 0 1 2.1-5.4c.2-.3-.3-.6-.5-.3a11.8 11.8 0 0 0-2.2 5.6 4.4 4.4 0 0 0 .2 2.3.2.2 0 0 0 .2.2 6.4 6.4 0 0 0 4.1-2 18.9 18.9 0 0 0 2-2 .3.3 0 1 0-.4-.4zM-91.9 46.3L-102 32.4l-1.4-1.9c-.2-.3-.7 0-.5.3l10.1 13.8 1.4 2c.2.3.7 0 .5-.3z" class="cls-27" transform="translate(348 2.1)"/><path d="M-98.4 34.4a10.1 10.1 0 0 1 1.2 2.3c.6 1.3 1.2 2.9.8 4.3l.3-.3a5.4 5.4 0 0 1-2.1-.5 11 11 0 0 1-4.4-3.6.3.3 0 1 0-.4.4 12.1 12.1 0 0 0 4.6 3.8 5.9 5.9 0 0 0 2.3.5.2.2 0 0 0 .2-.2 7.1 7.1 0 0 0-.7-4.5 11.9 11.9 0 0 0-1.3-2.5c-.2-.4-.7-.1-.5.3z" class="cls-27" transform="translate(348 2.1)"/></g><path d="M-96.8 48.8a1.2 1.2 0 0 0 1.5-.7 1.2 1.2 0 0 0-.8-1.5 1.1 1.1 0 0 0-1.4.8 1.1 1.1 0 0 0 .7 1.4zM-95.5 53.2a1.2 1.2 0 0 0 .5-1.6 1.2 1.2 0 0 0-1.6-.5 1.2 1.2 0 0 0-.4 1.6 1.2 1.2 0 0 0 1.5.5zM-91.5 55.3a1.1 1.1 0 0 0-.8-1.4 1.1 1.1 0 0 0-1.4.7 1.2 1.2 0 0 0 .8 1.5 1.1 1.1 0 0 0 1.4-.8zM-87.2 54a1.1 1.1 0 0 0-1.5-.4 1.1 1.1 0 0 0-.5 1.5 1.2 1.2 0 0 0 1.6.5 1.2 1.2 0 0 0 .4-1.6zM-85 50.1a1 1 0 0 0-1.4.7 1.2 1.2 0 0 0 .7 1.5 1.2 1.2 0 0 0 1.4-.8 1 1 0 0 0-.7-1.4zM-86.3 45.7a1.2 1.2 0 0 0-.5 1.6 1.3 1.3 0 0 0 1.6.5 1.3 1.3 0 0 0 .5-1.6 1.2 1.2 0 0 0-1.6-.5zM-90.3 43.6a1.1 1.1 0 0 0 .8 1.4 1.1 1.1 0 0 0 1.4-.8 1.1 1.1 0 0 0-.7-1.4 1.2 1.2 0 0 0-1.5.8zM-94.6 44.9a1.2 1.2 0 0 0 1.6.4 1.1 1.1 0 0 0 .4-1.5 1.1 1.1 0 0 0-1.5-.5 1.2 1.2 0 0 0-.5 1.6z" class="cls-16" transform="translate(348 2.1)"/><g class="cls-29"><path d="M82.7 17.2s-6.4 5.7-14.2 1.6c0 0-1.4 13-13.6 12.6 0 0 5.1 10.3-3.7 17.6l4.7 13.4z" class="cls-30" transform="translate(348 2.1)"/><path d="M82.6 17.1s-1.9 8.4 5.4 13.2c0 0-10.7 7.6-4.5 18 0 0-11.5.5-13.6 11.7l-14.1 2.4z" class="cls-19" transform="translate(348 2.1)"/><path d="M82.5 16l-9.2 15.7-14.6 25.1-3.4 5.7c-.4.7.7 1.3 1.1.6l9.2-15.7 14.6-25.1 3.4-5.7c.4-.6-.7-1.3-1.1-.6z" class="cls-31" transform="translate(348 2.1)"/><path d="M85.7 27s-7.4 6.2-13.6 8.3c0 0-2.1-9.4-.2-17.9" class="cls-32" transform="translate(348 2.1)"/><path d="M84.7 41.6S70 43.9 67.8 42.8s-5.4-17.3-5.4-17.3M73.8 54.7s-14 5.8-16.2 4.7-4.3-18.5-4.3-18.5" class="cls-32" transform="translate(348 2.1)"/><path d="M83.4 48.2S71.3 47 61.7 52.8c0 0-2.6-18.8-7.8-22.7" class="cls-32" transform="translate(348 2.1)"/><path d="M68.5 18.8c7 3.7 12.9-.6 14-1.5v-.2a12.7 12.7 0 0 0 5.4 13s-10.7 7.6-4.5 18c0 0-11.5.5-13.6 11.7l-14 2.4L51.2 49c8.8-7.3 3.7-17.6 3.7-17.6 12.2.4 13.6-12.6 13.6-12.6z" class="cls-33" transform="translate(348 2.1)"/></g><g class="cls-34"><path d="M10.4 0S11.5 12.4 0 18c0 0 13.9 13 2.8 26.9 0 0 16.5 3 17.3 19.6l19.8 6.3z" class="cls-30" transform="translate(348 2.1)"/><path d="M10.3 0s8.1 9.6 20.1 5.3c0 0-.5 19 17.2 20.9 0 0-9.5 13.8 1.7 26.2l-9.5 18.4z" class="cls-19" transform="translate(348 2.1)"/><path d="M9-.8l10.3 24.5 16.5 38.9 3.8 9c.4 1 1.9.2 1.5-.9L30.8 46.3 14.3 7.4l-3.8-9c-.4-1.1-2-.2-1.5.8z" class="cls-31" transform="translate(348 2.1)"/><path d="M24.5 5s.8 14.1-2.2 23.2c0 0-12.8-5.8-21.1-15.4" class="cls-35" transform="translate(348 2.1)"/><path d="M40.7 18.9s-10 19.2-13.3 20.8S2.5 31 2.5 31M46.6 43.1s-5.4 21.4-8.7 23S12.5 55 12.5 55" class="cls-35" transform="translate(348 2.1)"/><path d="M47.3 26.3s-12 13.1-13.5 29.3c0 0-24.2-13.3-33.4-10.7" class="cls-35" transform="translate(348 2.1)"/><path d="M0 18C10.4 13 10.5 2.3 10.4.3V0h.1v.3c1.4 1.4 9 8.9 19.9 5 0 0-.5 19 17.2 20.9 0 0-9.5 13.8 1.7 26.2l-9.4 18.3h-.1l-19.7-6.2C19.3 47.9 2.8 44.9 2.8 44.9 13.9 31 0 18 0 18z" class="cls-36" transform="translate(348 2.1)"/></g><circle cx="405.7" cy="70.3" r="10.7" class="cls-26"/><circle cx="403.8" cy="67.7" r="6.1" class="cls-4"/><circle cx="384.8" cy="71.2" r="10.7" class="cls-26"/><path d="M40.9 66.5a6.1 6.1 0 0 1-6.1 6.1 6.1 6.1 0 0 1 0-12.2 6.1 6.1 0 0 1 6.1 6.1z" class="cls-4" transform="translate(348 2.1)"/><circle cx="47.4" cy="87.3" r="10.7" class="cls-26" transform="rotate(-22.7 226.554 -778.818)"/><path d="M51.6 84.7a6.1 6.1 0 1 1-6.1-6.1 6 6 0 0 1 6.1 6.1z" class="cls-4" transform="translate(348 2.1)"/><g class="cls-37"><path d="M282.7 140.3s-8 .2-10.7 7.8c0 0-9.1-7.8-17.1.1 0 0-3.1-10.2-13.6-9.5l-5.4-12.1z" class="cls-30" transform="translate(348 2.1)"/><path d="M282.6 140.4s-6.6-4.4-4.7-12.3c0 0-11.9 1.6-14.4-9.4 0 0-8 6.9-16.6.7l-11 7.3z" class="cls-19" transform="translate(348 2.1)"/><path d="M283.6 140.1l-16.1-4.8-25.8-7.7-5.9-1.7a.5.5 0 1 0-.3 1l16.2 4.8 25.7 7.7 5.9 1.8a.6.6 0 0 0 .3-1.1z" class="cls-31" transform="translate(348 2.1)"/><path d="M278.5 131.8s-8.9.4-14.5 2.9c0 0 4.6 7.7 11.2 12.3" class="cls-38" transform="translate(348 2.1)"/><path d="M268.6 122.5s-11.4 7.7-12.2 9.9 7.2 15.1 7.2 15.1M253 120.5s-13.2 4.9-14 7.1 8.8 15.2 8.8 15.2" class="cls-38" transform="translate(348 2.1)"/><path d="M263.5 118.9s-7.4 8.4-17.6 10.6c0 0 10.1 14.3 9.1 20.2" class="cls-38" transform="translate(348 2.1)"/><path d="M272 148.1c2.5-6.9 9.2-7.7 10.4-7.8h.1c-1.1-.8-6.3-5.1-4.6-12.2 0 0-11.9 1.6-14.4-9.4 0 0-8 6.9-16.6.7l-10.9 7.2 5.3 12c10.5-.7 13.6 9.5 13.6 9.5 8-7.8 17.1 0 17.1 0z" class="cls-39" transform="translate(348 2.1)"/></g><g class="cls-40"><path d="M180.3 154s7.6-2.4 12.5 4c0 0 6.3-10.3 16.4-5.3 0 0-.3-10.6 9.9-13.3l1.2-13.1z" class="cls-30" transform="translate(348 2.1)"/><path d="M180.3 154s4.9-6.3.7-13.2c0 0 11.8-2.2 10.7-13.4 0 0 9.8 4.1 16-4.5l12.7 3.4z" class="cls-19" transform="translate(348 2.1)"/><path d="M179.9 155l13.8-9.6 22-15.4 5.1-3.5c.6-.4 0-1.4-.6-1l-13.8 9.6-22 15.4-5 3.5c-.6.4 0 1.4.5 1z" class="cls-31" transform="translate(348 2.1)"/><path d="M181.6 144.5s8.6-2.3 14.7-1.7c0 0-2 8.7-6.8 15.1" class="cls-38" transform="translate(348 2.1)"/><path d="M188.1 132.7s13.2 3.6 14.6 5.5-2.1 16.6-2.1 16.6M202.3 125.8s14 .5 15.4 2.3-3.5 17.3-3.5 17.3" class="cls-38" transform="translate(348 2.1)"/><path d="M191.7 127.6s9.7 5.7 20.1 4.5c0 0-5.2 16.8-2.3 22.1" class="cls-38" transform="translate(348 2.1)"/><path d="M192.8 158c-4.4-5.8-11-4.4-12.3-4.1h-.2l.2-.2a12 12 0 0 0 .5-13s11.8-2.2 10.7-13.4c0 0 9.8 4.1 16-4.5l12.6 3.4-1.2 13c-10.2 2.7-9.9 13.3-9.9 13.3-10.1-4.8-16.4 5.5-16.4 5.5z" class="cls-41" transform="translate(348 2.1)"/></g><circle cx="217.2" cy="118.6" r="10.7" class="cls-26" transform="rotate(-7.7 407.726 -2465.356)"/><circle cx="218.6" cy="115.8" r="6.1" class="cls-4" transform="rotate(-53.7 394.575 -226.966)"/><circle cx="238" cy="116.2" r="10.7" class="cls-26" transform="rotate(-58.6 413.998 -192.84)"/><path d="M233.5 114.3a6.1 6.1 0 1 0 12-1.9 6.1 6.1 0 1 0-12 1.9z" class="cls-4" transform="translate(348 2.1)"/><circle cx="578.4" cy="137.9" r="10.7" class="cls-26"/><circle cx="231.8" cy="133" r="6.1" class="cls-4" transform="rotate(-53.7 407.708 -209.77)"/></g></g></g></svg>