<svg xmlns="http://www.w3.org/2000/svg" xmlns:xlink="http://www.w3.org/1999/xlink" viewBox="0 0 343.8 293.3"><defs><style>.cls-1,.cls-21,.cls-30{fill:none}.cls-2{isolation:isolate}.cls-3{fill:#512a0c}.cls-4{fill:#6d3d15}.cls-5{fill:#935b28}.cls-6{fill:#ac753f}.cls-7{fill:#d89c66}.cls-8{fill:#f7b57f}.cls-9{fill:#48912d}.cls-10{fill:#00844b}.cls-11{fill:#016d3c}.cls-12{fill:#a50000}.cls-13{fill:#fe3030}.cls-14{fill:#76130e}.cls-15{opacity:.5}.cls-16{fill:#ffc60a}.cls-17{clip-path:url(#clip-path)}.cls-18{fill:#459c3e}.cls-19{fill:#69b751}.cls-20{fill:#2a7a21}.cls-21{stroke:#2a7a21;stroke-width:.37px}.cls-21,.cls-30{stroke-miterlimit:10}.cls-22,.cls-24{opacity:.78;mix-blend-mode:overlay}.cls-22{fill:url(#Degradado_sin_nombre_14)}.cls-23{clip-path:url(#clip-path-2)}.cls-24{fill:url(#Degradado_sin_nombre_14-2)}.cls-25{clip-path:url(#clip-path-3)}.cls-26{fill:#ff5f5f}.cls-27{fill:#fcfcfc}.cls-28{fill:#fca251}.cls-29{fill:#ffc285}.cls-30{stroke:#fca251;stroke-width:.46px}</style><clipPath id="clip-path" transform="translate(27.7 120.5)"><path d="M205.8 30.5c-4.1-10.5-15.7-7.1-15.7-7.1.6-7.3-5.2-10.7-6.3-11.3 1.2-.3 7.7-2.1 9.1-9.3 0 0 10.2 6.4 16.9-2.7 0 0 4.6 9.6 14.9 7.4l7.1 11-9.7 8.8c-9.4-4.9-16.3 3.2-16.3 3.2z" class="cls-1"/></clipPath><linearGradient id="Degradado_sin_nombre_14" x1="-632.67" x2="-626.19" y1="2931.43" y2="2895.83" gradientTransform="matrix(-.5 .86 .86 .5 -2614.42 -902.43)" gradientUnits="userSpaceOnUse"><stop offset="0"/><stop offset="1" stop-opacity="0"/></linearGradient><clipPath id="clip-path-2" transform="translate(27.7 120.5)"><path d="M245.7 53.1c11.3-.5 12.8 11.5 12.8 11.5 6.4-3.5 11.9.4 13 1.2-.2-1.3-1.2-8 4.8-12.1 0 0-9.9-6.9-4.3-16.6 0 0-10.7-.3-12.8-10.7l-12.9-2h-.1l-4.1 12.4c8.2 6.7 3.6 16.3 3.6 16.3z" class="cls-1"/></clipPath><linearGradient id="Degradado_sin_nombre_14-2" x1="-821.52" x2="-815.05" y1="-794.25" y2="-829.85" gradientTransform="rotate(126.2 -499.869 -115.097)" xlink:href="#Degradado_sin_nombre_14"/><clipPath id="clip-path-3" transform="translate(27.7 120.5)"><circle cx="31.3" cy="45" r="31.3" class="cls-1" transform="rotate(-12.8 31.06 45.01)"/></clipPath></defs><title>about-el-bn-1_1</title><g class="cls-2"><g id="Layer_2" data-name="Layer 2"><g id="OBJECTS"><path d="M133.6 149.3s7.4 13.4-4.1 21.2-21.8-7.2-21.8-7.2z" class="cls-3" transform="translate(27.7 120.5)"/><path d="M109.5 136.6s-18 17.6-12.3 26.1 18-1.8 18-1.8 5.6 4.6 10.9 1.3 3.3-10 3.3-10 9-.1 11.7-7.9-14.2-19.4-31.6-7.7z" class="cls-4" transform="translate(27.7 120.5)"/><path d="M99.8 117.6s-23.5 22.8-16.1 33.8 23.4-2.3 23.4-2.3 7.3 5.9 14.1 1.6 4.3-13 4.3-13 11.8-.1 15.2-10.2-18.4-25.2-40.9-9.9z" class="cls-5" transform="translate(27.7 120.5)"/><path d="M90.4 105.6s-22.9 14.5-17.2 29.7 20.2 1.4 20.2 1.4 3.1 10.9 12.6 6.7 6.9-12.6 6.9-12.6 8.4 4.8 13.8-.2-2.7-12.2-2.7-12.2 6.5 4.6 10.4-.1-8.6-35.5-44-12.7z" class="cls-6" transform="translate(27.7 120.5)"/><path d="M119.7 119.7c-13.2 6.6-29.1 6.1-40.9-4a60.9 60.9 0 0 1 11.6-10.1c23-14.9 36.3-7 41.7 1.6a33.8 33.8 0 0 1-12.4 12.5z" class="cls-7" transform="translate(27.7 120.5)"/><path d="M98.9 104.2c.9 1.3-1 4-4.1 6.2s-6.4 2.9-7.3 1.7 1.1-4 4.2-6.2 6.4-2.9 7.2-1.7z" class="cls-4" transform="translate(27.7 120.5)"/><path d="M95.8 105.8s-9.2-27.7-19-21.4 10 5.8 13.5 25z" class="cls-4" transform="translate(27.7 120.5)"/><ellipse cx="142.2" cy="227.7" class="cls-8" rx="7.6" ry="5.5"/><path d="M109.3 116.3c0 1.5-1.5 2.7-3.4 2.7s-3.3-1.2-3.3-2.7 1.5-2.6 3.3-2.6 3.4 1.2 3.4 2.6z" class="cls-8" transform="translate(27.7 120.5)"/><ellipse cx="120.3" cy="244.6" class="cls-6" rx="6.3" ry="5"/><path d="M86.9 117.2a1.9 1.9 0 0 1-3.6 0 1.8 1.8 0 0 1 3.6 0z" class="cls-6" transform="translate(27.7 120.5)"/><ellipse cx="117.8" cy="237.3" class="cls-6" rx=".8" ry=".6"/><path d="M315 138a169.7 169.7 0 0 1-65.1.5 166.2 166.2 0 0 1-60.9-24.3c-17.9-11.8-33.8-28-40-49-3-9.9-4-21.4-.9-31.4 1.3-4.1 3.5-8.2 7-10.8s9.3-3.5 14.3-2.7c8.2 1.2 17.3 5.9 21 13.7 4.4 9.5-1.6 19.4-8.5 25.9-16.9 15.8-41.5 15.8-63.1 13.2s-44.1-7.9-64.5-17S17.1 35.3 2.9 19.4s-23.5-33-28-52.6c-5.3-23.1-1.8-46.7 5-69 1.7-5.8 3.7-11.6 5.7-17.3.7-1.8 3.6-1 2.9.8-7.8 21.9-14.5 44.9-13.1 68.3C-23.5-31-16.4-12.5-5.7 3.5a136 136 0 0 0 42.6 40.1C55 54.6 75.3 61.9 96 66.3a249 249 0 0 0 32.3 4.8c11.2.8 22.7.6 33.4-2.9s17.9-8.5 23.4-16.5c2.8-4.1 4.8-9.1 3.5-14.1a18.1 18.1 0 0 0-7.3-9.5c-6.7-4.7-18.9-8.3-25.6-1.7s-7 17.9-6.1 26.5c2 21.2 15.3 39.1 31.6 52s35.7 22.1 55.7 27.6a168.4 168.4 0 0 0 62 5q7.8-.9 15.3-2.4c1.9-.4 2.7 2.5.8 2.9z" class="cls-9" transform="translate(27.7 120.5)"/><path d="M212.3 92.7S192.7 73.1 188 76.3s3.9 11.7 3.9 11.7-19.8-6.6-19.8-.6 19.3 10.4 19.3 10.4-11.9 2.9-10.4 7.6 28.2-1.2 28.2-1.2z" class="cls-10" transform="translate(27.7 120.5)"/><path d="M181 105.4c-1.5-4.7 10.4-7.6 10.4-7.6s-19.4-4.3-19.3-10.4a2.2 2.2 0 0 1 .1-.8l38.6 11.8-1.6 5.8s-26.8 5.8-28.2 1.2z" class="cls-11" transform="translate(27.7 120.5)"/><path d="M216.9 88.5s-12.2-25.1-7.6-28.4 9.8 7.6 9.8 7.6.2-21 5.9-19 3.5 21.6 3.5 21.6 6.6-10.2 10.6-7.3-10.4 26.3-10.4 26.3z" class="cls-10" transform="translate(27.7 120.5)"/><path d="M239.1 63c-4-2.9-10.6 7.3-10.6 7.3s2.2-19.7-3.5-21.6a1.2 1.2 0 0 0-.8-.1l-1.5 40.3 6 .4S243 65.8 239.1 63z" class="cls-11" transform="translate(27.7 120.5)"/><path d="M203.8 135.9c-2.5-16.6 4.3-24 11.1-27.3-15.4 1.8-23.8-15.5-23.8-15.5 14.2-8.1 23.4-4.8 29 .1-7.1-15.2 9-28.2 9-28.2 11 11.9 9.9 21.7 6.4 28.2 13-9.3 28.8 2.6 28.8 2.6-8.5 12.9-17.7 14.7-24.8 13.3 14.6 8.4 8.9 28.4 8.9 28.4-15.8-3.5-20.5-12-21.4-19.3-3.2 15.9-23.2 17.7-23.2 17.7z" class="cls-12" transform="translate(27.7 120.5)"/><path d="M227 142.5c-12-11.7-11.1-21.7-7.7-28.4-11.1 10.7-28.3 2-28.3 2 6.5-15 15.8-17.9 23.2-17.4-14.8-7.9-9.8-28-9.8-28 16 2.9 21 11.3 22.1 18.7C231.3 74.1 251 74 251 74c1.1 15.5-5.2 22.5-11.7 25.6 16.8-2 24.2 17.3 24.2 17.3-14.6 6.8-23.5 2.8-28.7-2.5 7.1 14.7-7.8 28.1-7.8 28.1z" class="cls-13" transform="translate(27.7 120.5)"/><path d="M228.4 95.1a7.8 7.8 0 0 1 5.2 9.7 7.8 7.8 0 0 1-14.9-4.5 7.8 7.8 0 0 1 9.7-5.2z" class="cls-14" transform="translate(27.7 120.5)"/><g class="cls-15"><path d="M220.9 103.1l-20.4 8.7-2.9 1.2c-.5.2-.1.9.4.7l20.4-8.7 2.9-1.2c.4-.2.1-.9-.4-.7z" class="cls-14" transform="translate(27.7 120.5)"/><path d="M204 107.8a20.2 20.2 0 0 1 3.3-.9c1.8-.3 4-.6 5.6.3v-.4a6.3 6.3 0 0 1-1.3 2.4 14.5 14.5 0 0 1-5.8 4.6c-.5.2-.1.8.3.6a14.4 14.4 0 0 0 6.1-4.8 6.6 6.6 0 0 0 1.4-2.6c0-.2 0-.4-.2-.4-1.7-1-3.9-.8-5.8-.5a22.2 22.2 0 0 0-3.7.9c-.4.2-.2.9.2.8zM224.1 107.4l1.1 22.2.2 3.2c0 .4.7.4.7 0l-1-22.2-.2-3.2c0-.4-.8-.5-.8 0z" class="cls-14" transform="translate(27.7 120.5)"/><path d="M222.7 124.9a19.5 19.5 0 0 1 .3-3.4c.4-1.8.9-3.9 2.3-5.1h-.4l.4.4a6.4 6.4 0 0 1 1.3 1.5 14.9 14.9 0 0 1 2.3 7c0 .5.8.5.7 0-.2-3.3-1.3-6.9-3.9-9.2l-.5-.4c-.2-.1-.3-.1-.5.1s-2 3.4-2.4 5.3a23.3 23.3 0 0 0-.4 3.7c0 .5.7.5.8 0zM229.3 106.1l20.9 7.3 3 1.1a.4.4 0 0 0 .2-.8l-21-7.3-2.9-1c-.5-.2-.7.5-.2.7z" class="cls-14" transform="translate(27.7 120.5)"/><path d="M245 114a18.2 18.2 0 0 1-3.1-1.6c-1.5-.9-3.3-2.2-3.9-4l-.2.5a7.7 7.7 0 0 1 2.5-1 14.7 14.7 0 0 1 7.5.6c.4.1.6-.6.2-.8a15.9 15.9 0 0 0-7.8-.5 9.4 9.4 0 0 0-2.8 1l-.2.4c.7 1.9 2.5 3.3 4.1 4.3a17.4 17.4 0 0 0 3.3 1.8c.4.2.8-.5.4-.7zM229.7 100.4l13.1-17.9 1.9-2.5c.3-.4-.4-.8-.7-.4l-13.1 17.9-1.8 2.6c-.3.3.3.7.6.3z" class="cls-14" transform="translate(27.7 120.5)"/><path d="M241.9 87.8l-2.4 2.4c-1.4 1.2-3.1 2.5-5 2.6l.3.3a8.2 8.2 0 0 1-.1-2.7 15.1 15.1 0 0 1 2.7-7c.2-.4-.4-.7-.7-.3a15.6 15.6 0 0 0-2.8 7.2 7.5 7.5 0 0 0 .2 3c.1.1.2.3.4.3 2-.1 3.8-1.4 5.2-2.7a16.6 16.6 0 0 0 2.7-2.6c.3-.4-.2-.9-.5-.5zM224.5 98.4l-13-17.9-1.9-2.6c-.3-.4-.9 0-.6.4l13 18 1.9 2.5c.3.4.9 0 .6-.4z" class="cls-14" transform="translate(27.7 120.5)"/><path d="M216.2 82.9a17.7 17.7 0 0 1 1.5 3.1c.7 1.7 1.5 3.7 1 5.5l.4-.3a8.8 8.8 0 0 1-2.7-.6 15.5 15.5 0 0 1-5.8-4.7c-.3-.4-.8.1-.5.5a14.6 14.6 0 0 0 6.1 4.9 9.5 9.5 0 0 0 2.9.7.3.3 0 0 0 .3-.3c.5-1.9-.2-4-.9-5.8a20.6 20.6 0 0 0-1.7-3.3c-.3-.4-.9-.1-.6.3z" class="cls-14" transform="translate(27.7 120.5)"/></g><path d="M218.3 101.7a1.4 1.4 0 0 0 1.8-1 1.5 1.5 0 0 0-1-1.8 1.5 1.5 0 0 0-.8 2.8zM219.9 107.4a1.6 1.6 0 0 0 .6-2.1 1.5 1.5 0 1 0-2.6 1.4 1.5 1.5 0 0 0 2 .7zM225.1 110.2a1.5 1.5 0 0 0-1-1.9 1.6 1.6 0 0 0-1.9 1 1.4 1.4 0 0 0 1 1.8 1.5 1.5 0 0 0 1.9-.9zM230.7 108.5a1.5 1.5 0 1 0-2.6 1.4 1.5 1.5 0 0 0 2 .6 1.5 1.5 0 0 0 .6-2zM233.5 103.3a1.5 1.5 0 1 0 1 1.9 1.6 1.6 0 0 0-1-1.9zM231.8 97.7a1.5 1.5 0 0 0-.6 2 1.4 1.4 0 0 0 2 .6 1.4 1.4 0 0 0 .6-2 1.4 1.4 0 0 0-2-.6zM226.7 94.9a1.5 1.5 0 0 0 1 1.9 1.4 1.4 0 0 0 1.8-1 1.5 1.5 0 0 0-1-1.9 1.4 1.4 0 0 0-1.8 1zM221.1 96.6a1.4 1.4 0 0 0 2 .6 1.5 1.5 0 1 0-1.4-2.6 1.4 1.4 0 0 0-.6 2z" class="cls-16" transform="translate(27.7 120.5)"/><path d="M95.4 57.3c-1.9-12.8 3.3-18.5 8.5-21-11.8 1.4-18.3-11.9-18.3-11.9 10.9-6.2 18-3.7 22.3.1-5.4-11.8 7-21.8 7-21.8 8.5 9.2 7.6 16.7 4.9 21.7 10-7.2 22.2 2 22.2 2-6.5 10-13.6 11.4-19.1 10.3 11.3 6.5 6.9 21.8 6.9 21.8-12.2-2.6-15.8-9.2-16.5-14.8-2.5 12.3-17.9 13.6-17.9 13.6z" class="cls-12" transform="translate(27.7 120.5)"/><path d="M113.3 62.5c-9.3-9.1-8.6-16.8-5.9-22-8.6 8.3-21.8 1.6-21.8 1.6 4.9-11.6 12.1-13.8 17.8-13.4C92 22.6 95.8 7.1 95.8 7.1c12.4 2.3 16.2 8.7 17.1 14.4 3.7-11.8 18.9-11.8 18.9-11.8.8 11.9-4 17.3-9 19.7 12.9-1.6 18.6 13.3 18.6 13.3-11.3 5.2-18.1 2.2-22.1-1.9 5.4 11.3-6 21.7-6 21.7z" class="cls-13" transform="translate(27.7 120.5)"/><path d="M114.4 25.9a6.1 6.1 0 0 1 4 7.5 6 6 0 1 1-4-7.5z" class="cls-14" transform="translate(27.7 120.5)"/><g class="cls-15"><path d="M108.6 32.1l-15.8 6.7-2.2.9c-.3.2 0 .7.3.5l15.8-6.7 2.2-.9c.3-.2 0-.7-.3-.5z" class="cls-14" transform="translate(27.7 120.5)"/><path d="M95.6 35.7l2.5-.7c1.4-.2 3.1-.4 4.3.2v-.3a4.8 4.8 0 0 1-.9 1.9 11.3 11.3 0 0 1-4.6 3.5c-.3.2 0 .7.3.5a10.7 10.7 0 0 0 4.7-3.7 5.6 5.6 0 0 0 1.1-2 .5.5 0 0 0-.2-.4c-1.3-.7-3-.5-4.5-.3l-2.8.7c-.3.1-.2.7.2.6zM111.1 35.4l.8 17.1v2.4a.3.3 0 0 0 .6 0l-.8-17v-2.5c-.1-.4-.6-.4-.6 0z" class="cls-14" transform="translate(27.7 120.5)"/><path d="M109.9 48.9l.3-2.6a8 8 0 0 1 1.7-4h-.2l.3.3a5.2 5.2 0 0 1 1 1.1 11.1 11.1 0 0 1 1.7 5.5c.1.4.6.4.6 0a10.4 10.4 0 0 0-3-7.1l-.4-.3a.3.3 0 0 0-.4 0 7 7 0 0 0-1.8 4.1 14.3 14.3 0 0 0-.3 2.9c-.1.4.5.4.5 0zM115 34.4l16.2 5.6 2.3.8a.3.3 0 1 0 .1-.5l-16.1-5.7-2.3-.8c-.4-.1-.5.5-.2.6z" class="cls-14" transform="translate(27.7 120.5)"/><path d="M127.1 40.5a16.7 16.7 0 0 1-2.3-1.2c-1.2-.8-2.6-1.7-3.1-3.1v.3a4.9 4.9 0 0 1 1.9-.7 11.5 11.5 0 0 1 5.8.4.3.3 0 1 0 .1-.5 11.9 11.9 0 0 0-5.9-.5 7.2 7.2 0 0 0-2.2.8c-.1.1-.2.2-.1.3a6.6 6.6 0 0 0 3.1 3.3 20.1 20.1 0 0 0 2.5 1.4c.4.1.6-.3.3-.5zM115.4 30l10.1-13.8 1.4-1.9c.2-.3-.3-.6-.5-.3l-10.1 13.8-1.4 1.9c-.2.3.3.6.5.3z" class="cls-14" transform="translate(27.7 120.5)"/><path d="M124.7 20.3l-1.8 1.8c-1.1.9-2.4 2-3.9 2l.3.3a5 5 0 0 1-.1-2.1 10.9 10.9 0 0 1 2.1-5.4c.2-.3-.3-.6-.5-.3a11.8 11.8 0 0 0-2.2 5.6 4.4 4.4 0 0 0 .2 2.3.2.2 0 0 0 .2.2c1.6 0 2.9-1 4.1-2a18.9 18.9 0 0 0 2-2 .3.3 0 1 0-.4-.4zM111.4 28.5l-10.1-13.9-1.4-1.9c-.2-.3-.7 0-.5.3l10.1 13.8 1.4 2c.2.3.7 0 .5-.3z" class="cls-14" transform="translate(27.7 120.5)"/><path d="M104.9 16.5a13.4 13.4 0 0 1 1.2 2.4 7.1 7.1 0 0 1 .8 4.2l.3-.2a5.4 5.4 0 0 1-2.1-.5 11 11 0 0 1-4.4-3.6.3.3 0 1 0-.4.4 12.1 12.1 0 0 0 4.6 3.8 5.9 5.9 0 0 0 2.3.5l.2-.2a7.1 7.1 0 0 0-.7-4.5 11.9 11.9 0 0 0-1.3-2.5c-.2-.4-.7-.1-.5.2z" class="cls-14" transform="translate(27.7 120.5)"/></g><path d="M106.5 31a1.2 1.2 0 0 0 1.5-.7 1.2 1.2 0 0 0-.8-1.5 1.1 1.1 0 0 0-1.4.8 1.1 1.1 0 0 0 .7 1.4zM107.8 35.4a1.2 1.2 0 0 0-1.1-2.1 1.2 1.2 0 0 0-.4 1.6 1.2 1.2 0 0 0 1.5.5zM111.8 37.5a1.1 1.1 0 0 0-.8-1.4 1.1 1.1 0 0 0-1.4.7 1.2 1.2 0 0 0 .8 1.5 1.1 1.1 0 0 0 1.4-.8zM116.1 36.2a1.1 1.1 0 0 0-1.5-.4 1.1 1.1 0 0 0-.5 1.5 1.1 1.1 0 0 0 1.5.5 1.2 1.2 0 0 0 .5-1.6zM118.3 32.3a1.2 1.2 0 0 0-1.5.7 1.3 1.3 0 0 0 .8 1.5 1.2 1.2 0 0 0 1.4-.8 1 1 0 0 0-.7-1.4zM117 27.9a1.2 1.2 0 0 0-.5 1.6 1.4 1.4 0 0 0 1.6.5 1.2 1.2 0 0 0 .4-1.6 1.1 1.1 0 0 0-1.5-.5zM113 25.8a1.1 1.1 0 0 0 2.2.6 1.1 1.1 0 0 0-.7-1.4 1.2 1.2 0 0 0-1.5.8zM108.7 27.1a1.1 1.1 0 0 0 1.5.4 1.1 1.1 0 0 0-1-2 1.2 1.2 0 0 0-.5 1.6z" class="cls-16" transform="translate(27.7 120.5)"/><g class="cls-17"><path d="M183.6 12s7.2 3.3 6.5 11.4c0 0 11.6-3.4 15.7 7.1 0 0 6.9-8.1 16.3-3.2l9.7-8.9z" class="cls-18" transform="translate(27.7 120.5)"/><path d="M183.6 12.1s7.8-1.4 9.3-9.4c0 0 10.2 6.4 16.9-2.7 0 0 4.6 9.6 14.9 7.4l7.1 11.1z" class="cls-19" transform="translate(27.7 120.5)"/><path d="M182.7 12.5l16.7 2.2 26.6 3.4 6.2.8c.7 0 .7-1.1 0-1.2l-16.7-2.1-26.7-3.4-6.1-.8c-.7-.1-.7 1 0 1.1z" class="cls-20" transform="translate(27.7 120.5)"/><path d="M190.8 5.9s8 4 12.1 8.6c0 0-7.3 5.1-15.2 6.6" class="cls-21" transform="translate(27.7 120.5)"/><path d="M203.6 1.4s7.4 11.7 7.2 14-12.7 10.8-12.7 10.8M218.7 5.9s10.1 9.8 9.9 12.1-14.2 10.4-14.2 10.4" class="cls-21" transform="translate(27.7 120.5)"/><path d="M209.8.1s3.3 10.8 11.7 16.8c0 0-15 9-16.5 14.9" class="cls-21" transform="translate(27.7 120.5)"/><path d="M190.1 23.4c.6-7.3-5.2-10.7-6.3-11.3 1.2-.3 7.7-2.1 9.1-9.3 0 0 10.2 6.4 16.9-2.7 0 0 4.6 9.6 14.9 7.4l7.1 11-9.7 8.8c-9.4-4.9-16.3 3.2-16.3 3.2-4.1-10.5-15.7-7.1-15.7-7.1z" class="cls-22" transform="translate(27.7 120.5)"/></g><g class="cls-23"><path d="M271.6 65.9s-6-5.2-13.1-1.3c0 0-1.5-12-12.8-11.5 0 0 4.6-9.6-3.6-16.2l4.1-12.5z" class="cls-18" transform="translate(27.7 120.5)"/><path d="M271.6 66s-2-7.7 4.7-12.3c0 0-9.9-6.9-4.3-16.6 0 0-10.7-.3-12.8-10.7l-13-2z" class="cls-19" transform="translate(27.7 120.5)"/><path d="M272.5 66.4L263.7 52l-13.8-22.9-3.2-5.3c-.4-.6-1.4-.1-1 .5l8.7 14.4 13.9 23 3.2 5.3c.4.6 1.3 0 1-.6z" class="cls-20" transform="translate(27.7 120.5)"/><path d="M274.3 56.8s-6.9-5.7-12.7-7.5c0 0-1.8 8.8 0 16.6" class="cls-21" transform="translate(27.7 120.5)"/><path d="M273.2 43.3s-13.6-2-15.7-.9-4.8 16-4.8 16M262.9 31.3s-13-5.2-15-4.1-3.8 17.2-3.8 17.2" class="cls-21" transform="translate(27.7 120.5)"/><path d="M271.8 37.2s-11.1 1.3-20.1-4c0 0-2.1 17.4-6.9 21.1" class="cls-21" transform="translate(27.7 120.5)"/><path d="M258.5 64.6c6.4-3.5 11.9.4 13 1.2v.2h-.1c-.2-1.3-1.2-8 4.8-12.1 0 0-9.9-6.9-4.3-16.6 0 0-10.7-.3-12.8-10.7l-12.9-2h-.1L242 37c8.2 6.6 3.6 16.2 3.6 16.2 11.4-.6 12.9 11.4 12.9 11.4z" class="cls-24" transform="translate(27.7 120.5)"/></g><circle cx="252.2" cy="18.7" r="10.7" class="cls-12" transform="rotate(-11.9 844.609 -54.065)"/><path d="M257.2 18.8a6.1 6.1 0 0 1-10.3-6.7 6.1 6.1 0 0 1 10.3 6.7z" class="cls-13" transform="translate(27.7 120.5)"/><path d="M243.1 13.8a10.7 10.7 0 1 1-3.2-14.7 10.6 10.6 0 0 1 3.2 14.7z" class="cls-12" transform="translate(27.7 120.5)"/><path d="M239.1 8.1a6.1 6.1 0 0 1-8.5 1.8 6.1 6.1 0 0 1-1.8-8.4 6.2 6.2 0 0 1 8.5-1.8 6.1 6.1 0 0 1 1.8 8.4z" class="cls-13" transform="translate(27.7 120.5)"/><circle cx="233.2" cy="29.1" r="10.7" class="cls-12" transform="rotate(-33.6 446.772 43.452)"/><path d="M238.1 29.2a6.1 6.1 0 0 1-8.4 1.8 6.2 6.2 0 0 1-1.8-8.5 6.1 6.1 0 0 1 8.4-1.8 6.2 6.2 0 0 1 1.8 8.5z" class="cls-13" transform="translate(27.7 120.5)"/><g class="cls-25"><circle cx="31.3" cy="45" r="31.3" class="cls-13" transform="rotate(-12.8 582.052 -18.216)"/><circle cx="43.8" cy="40.9" r="13.6" class="cls-26" transform="rotate(-28.1 298.303 45.778)"/><circle cx="89.7" cy="172.7" r="4.2" class="cls-27"/><circle cx="74.6" cy="157.3" r="4.2" class="cls-27"/><circle cx="47.2" cy="140.4" r="4.2" class="cls-27"/><circle cx="52.9" cy="167.6" r="4.2" class="cls-27"/><circle cx="31.8" cy="153.7" r="4.2" class="cls-27"/><circle cx="69.5" cy="191.9" r="4.2" class="cls-27"/><circle cx="42.5" cy="187.2" r="4.2" class="cls-27"/><circle cx="29.6" cy="172.7" r="4.2" class="cls-27"/></g><path d="M52.1 25.9c-.5.7-3.9-.7-7.7-3.2s-6.4-4.9-5.9-5.6 3.8.6 7.6 3.1 6.5 4.9 6 5.7z" class="cls-28" transform="translate(27.7 120.5)"/><path d="M45.5 8.9l-7 8.2 13.6 8.8 4.5-9.8z" class="cls-28" transform="translate(27.7 120.5)"/><path d="M56.6 16.1c-.4.6-3.2-.5-6.2-2.5s-5.3-4.1-4.9-4.7 3.1.6 6.2 2.6 5.3 4 4.9 4.6z" class="cls-29" transform="translate(27.7 120.5)"/><path d="M52.8 13.5c-.1.3-1 0-1.9-.6s-1.6-1.3-1.4-1.6 1 .1 2 .7 1.5 1.2 1.3 1.5z" class="cls-28" transform="translate(27.7 120.5)"/><path d="M51.2 12.6s13.9-8.2 8.5-11-9 10.7-9 10.7" class="cls-30" transform="translate(27.7 120.5)"/></g></g></g></svg>