<svg xmlns="http://www.w3.org/2000/svg" viewBox="0 0 87.5 80.6"><defs><style>.cls-1{fill:#f2af06}.cls-2{fill:#ffbc00}.cls-3{fill:#ea3e3b}.cls-4{fill:#f45348}.cls-5{fill:#e1142b}.cls-6,.cls-8{opacity:.68}.cls-7,.cls-8{fill:#feecdb}</style></defs><title>el-2</title><g id="Layer_2" data-name="Layer 2"><g id="OBJECTS"><path d="M991.5 335.7a6.9 6.9 0 1 1-6.4-7.3 6.9 6.9 0 0 1 6.4 7.3z" class="cls-1" transform="translate(-943.2 -261.5)"/><path d="M988.5 336.9a5.4 5.4 0 0 1-5.7 5.1 5.4 5.4 0 1 1 .7-10.8 5.3 5.3 0 0 1 5 5.7zM988.6 272.6a5.6 5.6 0 0 1-5.2-5.9 5.5 5.5 0 0 1 5.9-5.2 5.7 5.7 0 0 1 5.2 5.9 5.7 5.7 0 0 1-5.9 5.2z" class="cls-2" transform="translate(-943.2 -261.5)"/><path d="M1017.7 333.3l-64.4-4a4.6 4.6 0 0 1-4.3-5 4.5 4.5 0 0 1 4.9-4.3l64.4 4.1a4.6 4.6 0 0 1 4.4 4.9 4.6 4.6 0 0 1-5 4.3z" class="cls-2" transform="translate(-943.2 -261.5)"/><path d="M1017.1 324l-63.2-4a49.4 49.4 0 0 0 7-11.9 53.5 53.5 0 0 0 4.1-15c1.7-16 9-27 23.9-26.1s20.8 12.8 20.5 28.9a54.2 54.2 0 0 0 2.5 16.6 51.8 51.8 0 0 0 5.2 11.5z" class="cls-2" transform="translate(-943.2 -261.5)"/><path d="M1017.1 324l-63.2-4a49.4 49.4 0 0 0 7-11.9c11.1 6 30.1 12.6 51 4.4a51.8 51.8 0 0 0 5.2 11.5z" class="cls-1" transform="translate(-943.2 -261.5)"/><path d="M952.1 314.9c.6-4.5 3.6-8.4 7.3-11.2s7.8-4.5 12-6.4 8.4-3.7 11.9-6.6 6.2-7.1 6.4-11.7c.1-2.3-.3-4.9 1.3-6.5l-2.1-.9c-.6 5.1-3.7 9.3-7.9 12.2-7.6 5.4-18.3 4.2-26.5 8.7a21.5 21.5 0 0 0-9.2 9.9 48.9 48.9 0 0 0-2.1 6.8 55.1 55.1 0 0 1 7.6-4 78 78 0 0 1 1.3 9.7z" class="cls-3" transform="translate(-943.2 -261.5)"/><path d="M989.4 271.9h-.2c-26.2 5-33.3-2.1-33.3-2.1-1.6-1.6-2.1-2.8-1.9-3.5a8.6 8.6 0 0 0-.7 1c-6.1 9 2 21 12.7 18.9s23.1-9.5 23.1-9.5z" class="cls-4" transform="translate(-943.2 -261.5)"/><path d="M989.9 274.2l-12.7.4c-.6 0-1.4.1-1.6.7a1.1 1.1 0 0 0 .8 1.3 4.7 4.7 0 0 0 1.7-.2h.9a.8.8 0 0 1 .8.5 1 1 0 0 1-.6 1l-1.1.2a1.1 1.1 0 0 0-.9.7.9.9 0 0 0 .9 1.1 2.9 2.9 0 0 0 1.6-.4c3.3-1.7 6.1-2.6 9.5-4l.7-.4a.7.7 0 0 0 0-.9z" class="cls-3" transform="translate(-943.2 -261.5)"/><path d="M955.9 269.7s7.1 7.1 33.3 2.1h.2s-33.7-10.3-35.4-5.6c-.2.7.3 1.9 1.9 3.5z" class="cls-5" transform="translate(-943.2 -261.5)"/><path d="M1021.1 319.2c-.1-4.5-2.6-8.8-5.8-12s-7.3-5.5-11.2-7.8-7.9-4.8-11-8.1-5.2-7.8-4.9-12.4c.2-2.2.9-4.8-.4-6.6l2.1-.6c0 5.1 2.6 9.7 6.3 13.1 7 6.3 17.7 6.5 25.3 12a20.5 20.5 0 0 1 7.8 10.9 41.1 41.1 0 0 1 1.3 7 55.1 55.1 0 0 0-7-4.9 76.6 76.6 0 0 0-2.5 9.4z" class="cls-3" transform="translate(-943.2 -261.5)"/><path d="M989.4 271.9h.3c25.3 8.3 33.3 2.1 33.3 2.1 1.8-1.4 2.4-2.4 2.3-3.2a4.7 4.7 0 0 1 .5 1c5 9.8-4.5 20.6-14.9 17.2s-21.8-12.3-21.8-12.3z" class="cls-4" transform="translate(-943.2 -261.5)"/><path d="M1023 273.9s-8 6.2-33.3-2.1h-.3s34.8-6 35.9-1.1c.1.8-.5 1.8-2.3 3.2z" class="cls-5" transform="translate(-943.2 -261.5)"/><path d="M1003.1 283.4a41.9 41.9 0 0 1-12.4-6.9c0-.6-.4-1.4-.4-2.1l10.4 2.3c.4.1.8.1 1 .4a.8.8 0 0 1 .3 1l-6.8-1.2c-.1.1-.1.4-.2.5l6.6 2.2.6.3c.2.2.3.4.2.6s-.7.3-1.1.1l-4-1.6h-.5a3.5 3.5 0 0 0 2.2 1.5l3.7 1.4 1 .5c.2.3.4.6.2 1s-.5.1-.8 0z" class="cls-3" transform="translate(-943.2 -261.5)"/><path d="M991.8 271.4h-2.3l-2.4-.2c-2.6 3.9-.4 6.9-.4 6.9l2.3.2h2.4s2.5-2.7.4-6.9z" class="cls-4" transform="translate(-943.2 -261.5)"/><g class="cls-6"><path d="M1010.2 315.7a4.7 4.7 0 0 0-.9-1.2v-.2l-.3-.3a3.1 3.1 0 0 1-.5-1l-.3-.4v-.2a1.9 1.9 0 0 1-.3-1c-.1-.2-.1-.4-.2-.6v-1.9a2 2 0 0 0-.2-1.5 1.9 1.9 0 0 0-1.2-.9 2 2 0 0 0-2.4 1.4 11.8 11.8 0 0 0 .4 5.6c.6 1.9 1.6 4 3.4 5a2 2 0 0 0 2.3-.3 2 2 0 0 0 .2-2.5z" class="cls-7" transform="translate(-943.2 -261.5)"/><path d="M64.5 49.2z" class="cls-7"/></g><path d="M1019.7 328.2a3.6 3.6 0 0 0-.4-1.1 1.8 1.8 0 0 0-.5-.7l-.6-.5h-.6a.4.4 0 0 0-.5 0 1.5 1.5 0 0 0-.9.6 1.4 1.4 0 0 0-.3.9 1.6 1.6 0 0 0 .5 1.1.1.1 0 0 0 .1.1v.2h-.1a1.9 1.9 0 0 0-.2.7v1.2l.5.5.3.2h.4a2.2 2.2 0 0 0 1.1-.2 2.4 2.4 0 0 0 .8-.9l.3-.7a4.3 4.3 0 0 0 .1-1.4z" class="cls-8" transform="translate(-943.2 -261.5)"/></g></g></svg>