<svg xmlns="http://www.w3.org/2000/svg" viewBox="0 0 73.6 67.8"><defs><style>.cls-1{fill:#3e8c84}.cls-2{fill:#feeddc}</style></defs><title>el-3</title><g id="Layer_2" data-name="Layer 2"><g id="OBJECTS"><path d="M1428.4 414.8c.1 2 1.1 3.2 2.8 3.3s2.5-1 2.7-3 .3-2.8.4-4.3.7-2.7 3.1-2.2 1.6.7 1.4 1.9a9.5 9.5 0 0 0 .7 5.5 2 2 0 0 0 3.7.1 3.6 3.6 0 0 0 .4-1.1c.7-4.6 1.6-9.1 1.3-13.7l.6-6.1a7.3 7.3 0 0 0-.7-3.6 2.5 2.5 0 0 0-2.9-1.6 2.3 2.3 0 0 0-2 2l-.3 1.6c-.1 3.1-.4 6.1-.4 9.1 0 1.3-.2 2-1.7 1.8a5 5 0 0 0-1.7.2c-1 .3-1-.3-.9-.9a39.8 39.8 0 0 0-.2-6.9c-.2-1.7-.1-3.5-1-5s-2.9-2-4.1-.4a3.8 3.8 0 0 0-.5 1.5 31.1 31.1 0 0 0-.1 6.1c-.2 5.3-.9 10.5-.6 15.7zM1440.4 428.3c-.3 2.7-.4 5.4-.5 8s-.1 3.4-3.5 3.6c-.7 0-.9 0-.8-.7a29.9 29.9 0 0 0-.1-5.2 20.5 20.5 0 0 0-1-6.5 2.6 2.6 0 0 0-2.5-1.9c-1 0-2 1.4-2.3 2.6s0 3.6 0 5.4c-.2 5.5-.8 10.9-.7 16.4.1 1.9 1 3.1 2.6 3.3s2.7-.6 2.8-2.4.4-3.1.6-4.7-.1-2.6 3.2-2.4c1.1.1 1.4.6 1.3 1.7a10.2 10.2 0 0 0 .6 5.7 2.1 2.1 0 0 0 1.6 1.3c1.4.1 2.2-.5 2.5-2.1.8-4.6 1.7-9.1 1.5-14.5.1-1.2.3-3.1.4-5a7.1 7.1 0 0 0-.6-3.8 2.5 2.5 0 0 0-2.2-1.9c-1.8-.1-2.8.9-2.9 3.1zM1466 426.3c0 1.9 1 3.1 2.6 3.2s2.6-.7 2.8-2.4.3-2.9.5-4.3c.4-3.6 0-3.1 3.6-2.6.9.1 1 .5.9 1.3a11.5 11.5 0 0 0 .4 5.2c.5 1.1.9 2.1 2.3 2s1.8-1 2-2.2a56.9 56.9 0 0 0 1.4-13.7l.6-5.8a8.5 8.5 0 0 0-.6-3.6 2.4 2.4 0 0 0-2.7-1.9 2.2 2.2 0 0 0-2.3 2c-.6 3.1-.4 6.1-.7 9.1-.1 1.1.2 2.4-.3 3.1s-2 .2-3.1.4-1 0-.9-.8.1-3.1 0-4.7a28.3 28.3 0 0 0-.9-6.5 3 3 0 0 0-2.6-2.3c-1 .1-2.1 1.4-2.4 2.7s.1 5-.1 7.6c-.3 4.7-.6 9.5-.5 14.2zM1453.7 427.2a2.4 2.4 0 0 0-1.8 1.3 11.9 11.9 0 0 0-2.1 5.5 15.5 15.5 0 0 1-.5 2.3 30.2 30.2 0 0 0-.7 15.5 4.6 4.6 0 0 0 3.6 3.8 5.2 5.2 0 0 0 5.5-1.8 12.7 12.7 0 0 0 2.3-4.1 34.8 34.8 0 0 0 1.9-10.2 31.1 31.1 0 0 0-.1-6.8c-.4-5.2-3.4-6.5-8.1-5.5zm3.4 12a56 56 0 0 1-1.9 8.1c-.3.7-.6 1.3-1.4 1.2s-.5-.9-.6-1.4a20.1 20.1 0 0 1 0-4.9 55.1 55.1 0 0 1 .8-7.1c.1-.5 0-1.2.7-1.3a1.3 1.3 0 0 1 1.5.9 7.1 7.1 0 0 1 .9 4.5zM1455.6 419.8a8.3 8.3 0 0 0 3.4-4.4 32.8 32.8 0 0 0 2.2-11.2 31.9 31.9 0 0 0-.1-6.9c-.4-5.1-3.5-6.2-8-5.4a2.9 2.9 0 0 0-1.8 1.3 13.2 13.2 0 0 0-2.2 5 22 22 0 0 1-.7 3.7 28.6 28.6 0 0 0-.4 14.8 5 5 0 0 0 7.6 3.1zm-2.2-20.1c0-.4.1-1.1.7-1.2a1.3 1.3 0 0 1 1.3.8c.7 1.4 1.4 2.8 1.1 4.4s-.9 5.7-2 8.4c-.3.7-.7 1.3-1.4 1.2s-.5-.9-.6-1.5 0-3 0-5.3.6-4.3.9-6.8zM1493.1 431.3a9.6 9.6 0 0 0 3.8-5.3 29.5 29.5 0 0 0 1.9-10 30.4 30.4 0 0 0-.5-9.1 3.8 3.8 0 0 0-2.6-3.3c-3.4-.9-6.3-1.1-8.1 3.2-.7 1.8-.7 3.6-1.2 5.3a28.3 28.3 0 0 0-.7 16.3 4.9 4.9 0 0 0 7.4 2.9zm-2.1-20.2c.1-.4 0-1 .6-1.1a1.3 1.3 0 0 1 1.4.7c.6 1.2 1.3 2.3 1.1 3.7a37.2 37.2 0 0 1-2.1 9.2 2 2 0 0 1-.4.8c-.3.2-.6.5-1.1.3a.9.9 0 0 1-.4-.9 32.5 32.5 0 0 1 0-5.4c-.1-2.3.6-4.8.9-7.3z" class="cls-1" transform="translate(-1428.3 -388)"/><path d="M1431.4 412.8c.1 2 1.1 3.2 2.8 3.3s2.5-1 2.7-3 .3-2.8.4-4.3.7-2.7 3.1-2.2 1.6.7 1.4 1.9a9.5 9.5 0 0 0 .7 5.5 2 2 0 0 0 3.7.1 3.6 3.6 0 0 0 .4-1.1c.7-4.6 1.6-9.1 1.3-13.7l.6-6.1a7.3 7.3 0 0 0-.7-3.6 2.5 2.5 0 0 0-2.9-1.6 2.3 2.3 0 0 0-2 2l-.3 1.6c-.1 3.1-.4 6.1-.4 9.1 0 1.3-.2 2-1.7 1.8a5 5 0 0 0-1.7.2c-1 .3-1-.3-.9-.9a39.8 39.8 0 0 0-.2-6.9c-.2-1.7-.1-3.5-1-5s-2.9-2-4.1-.4a3.8 3.8 0 0 0-.5 1.5 31.1 31.1 0 0 0-.1 6.1c-.2 5.3-.9 10.5-.6 15.7zM1443.4 426.3c-.3 2.7-.4 5.4-.5 8s-.1 3.4-3.5 3.6c-.7 0-.9 0-.8-.7a29.9 29.9 0 0 0-.1-5.2 20.5 20.5 0 0 0-1-6.5 2.6 2.6 0 0 0-2.5-1.9c-1 0-2 1.4-2.3 2.6s0 3.6 0 5.4c-.2 5.5-.8 10.9-.7 16.4.1 1.9 1 3.1 2.6 3.3s2.7-.6 2.8-2.4.4-3.1.6-4.7-.1-2.6 3.2-2.4c1.1.1 1.4.6 1.3 1.7a10.2 10.2 0 0 0 .6 5.7 2.1 2.1 0 0 0 1.6 1.3c1.4.1 2.2-.5 2.5-2.1.8-4.6 1.7-9.1 1.5-14.5.1-1.2.3-3.1.4-5a7.1 7.1 0 0 0-.6-3.8 2.5 2.5 0 0 0-2.2-1.9c-1.8-.1-2.8.9-2.9 3.1zM1469 424.3c0 1.9 1 3.1 2.6 3.2s2.6-.7 2.8-2.4.3-2.9.5-4.3c.4-3.6 0-3.1 3.6-2.6.9.1 1 .5.9 1.3a11.5 11.5 0 0 0 .4 5.2c.5 1.1.9 2.1 2.3 2s1.8-1 2-2.2a56.9 56.9 0 0 0 1.4-13.7l.6-5.8a8.5 8.5 0 0 0-.6-3.6 2.4 2.4 0 0 0-2.7-1.9 2.2 2.2 0 0 0-2.3 2c-.6 3.1-.4 6.1-.7 9.1-.1 1.1.2 2.4-.3 3.1s-2 .2-3.1.4-1 0-.9-.8.1-3.1 0-4.7a28.3 28.3 0 0 0-.9-6.5 3 3 0 0 0-2.6-2.3c-1 .1-2.1 1.4-2.4 2.7s.1 5-.1 7.6c-.3 4.7-.6 9.5-.5 14.2zM1456.7 425.2a2.4 2.4 0 0 0-1.8 1.3 11.9 11.9 0 0 0-2.1 5.5 15.5 15.5 0 0 1-.5 2.3 30.2 30.2 0 0 0-.7 15.5 4.6 4.6 0 0 0 3.6 3.8 5.2 5.2 0 0 0 5.5-1.8 12.7 12.7 0 0 0 2.3-4.1 34.8 34.8 0 0 0 1.9-10.2 31.1 31.1 0 0 0-.1-6.8c-.4-5.2-3.4-6.5-8.1-5.5zm3.4 12a56 56 0 0 1-1.9 8.1c-.3.7-.6 1.3-1.4 1.2s-.5-.9-.6-1.4a20.1 20.1 0 0 1 0-4.9 55.1 55.1 0 0 1 .8-7.1c.1-.5 0-1.2.7-1.3a1.3 1.3 0 0 1 1.5.9 7.1 7.1 0 0 1 .9 4.5zM1458.6 417.8a8.3 8.3 0 0 0 3.4-4.4 32.8 32.8 0 0 0 2.2-11.2 31.9 31.9 0 0 0-.1-6.9c-.4-5.1-3.5-6.2-8-5.4a2.9 2.9 0 0 0-1.8 1.3 13.2 13.2 0 0 0-2.2 5 22 22 0 0 1-.7 3.7 28.6 28.6 0 0 0-.4 14.8 5 5 0 0 0 7.6 3.1zm-2.2-20.1c0-.4.1-1.1.7-1.2a1.3 1.3 0 0 1 1.3.8c.7 1.4 1.4 2.8 1.1 4.4s-.9 5.7-2 8.4c-.3.7-.7 1.3-1.4 1.2s-.5-.9-.6-1.5 0-3 0-5.3.6-4.3.9-6.8zM1496.1 429.3a9.6 9.6 0 0 0 3.8-5.3 29.5 29.5 0 0 0 1.9-10 30.4 30.4 0 0 0-.5-9.1 3.8 3.8 0 0 0-2.6-3.3c-3.4-.9-6.3-1.1-8.1 3.2-.7 1.8-.7 3.6-1.2 5.3a28.3 28.3 0 0 0-.7 16.3 4.9 4.9 0 0 0 7.4 2.9zm-2.1-20.2c.1-.4 0-1 .6-1.1a1.3 1.3 0 0 1 1.4.7c.6 1.2 1.3 2.3 1.1 3.7a37.2 37.2 0 0 1-2.1 9.2 2 2 0 0 1-.4.8c-.3.2-.6.5-1.1.3a.9.9 0 0 1-.4-.9 32.5 32.5 0 0 1 0-5.4c-.1-2.3.6-4.8.9-7.3z" class="cls-2" transform="translate(-1428.3 -388)"/></g></g></svg>