<svg xmlns="http://www.w3.org/2000/svg" viewBox="0 0 60.3 58.9"><defs><style>.cls-1{fill:#ffbc00}.cls-2{fill:#f45348}.cls-3{fill:#fdfdfc}.cls-4{fill:#fff}.cls-5{fill:#e1142b}</style></defs><title>el-1</title><g id="Layer_2" data-name="Layer 2"><g id="OBJECTS"><path d="M961.2 158.2l-1.6 1-.8-1.5a5.8 5.8 0 0 0-2.2-2.2 1.8 1.8 0 0 0-2.4.8 2.4 2.4 0 0 0-.1 2.7 5.2 5.2 0 0 0 2.3 2.1l-1.9 1.2 2.3 5.6 3.4-3.9 5-1.3zm-3.9 2.4a4.7 4.7 0 0 1-2.4-2.2 1.4 1.4 0 0 1 .7-2.1c1-.2 1.7 1 2.2 1.6l.9 1.6v.2z" class="cls-1" transform="translate(-943.2 -155.3)"/><path d="M1000.7 191.7h.2l-.7 1.1a37.3 37.3 0 0 1-2.3 3.7L996 200a43.6 43.6 0 0 0-3.8 9.6c-.3 1.2-.4 2.3-.6 3.5s-1.4 1.1-3 .6a19.8 19.8 0 0 0-3.5-.8 50.6 50.6 0 0 0-12.3-.6 38.8 38.8 0 0 1-5.7.5h-.4c-8.6-.2-16.3-3.8-20.4-10.5a22.1 22.1 0 0 1-2.8-14.9c1.4-8.7 7.3-17.5 16.7-23.3 15-9.2 33-7 40.3 4.8 4.1 6.7 3.9 15.1.2 22.8z" class="cls-2" transform="translate(-943.2 -155.3)"/><path d="M993.2 164.9a17.9 17.9 0 0 0-8.2-3.9c-2.1-.3-2.6 2.9-.6 3.2a14.9 14.9 0 0 1 6.7 3.2 12.7 12.7 0 0 1 2.5 2.7 29 29 0 0 1 1.9 3.4c.8 1.3 3.2.5 2.9-1a14.3 14.3 0 0 0-5.2-7.6zM996.8 179c-1.4 1.4.9 3.4 2.3 2s-1-3.4-2.3-2z" class="cls-3" transform="translate(-943.2 -155.3)"/><path d="M989.3 175.1l-13.5 6.1 1.2-10.4c0-.4-.4-.5-.5-.1l-3.7 9.8-9.2-11.5c-.4-.5-.8-.2-.5.3l6.1 13.5-10.4-1.2c-.4 0-.5.3-.1.5l9.8 3.6-11.6 9.3c-.4.3-.1.7.3.5l13.5-6.1-1.1 10.4c-.1.4.3.5.4.1l3.7-9.8 9.3 11.5c.3.5.7.2.5-.3l-6.2-13.5 10.4 1.2c.4 0 .5-.3.1-.5l-9.8-3.6 11.6-9.3c.4-.3.2-.7-.3-.5z" class="cls-4" transform="translate(-943.2 -155.3)"/><path d="M996 199.9a43.6 43.6 0 0 0-3.8 9.6c-.3 1.2-.4 2.3-.6 3.5s-1.4 1.1-3 .6a19.8 19.8 0 0 0-3.5-.8 50.6 50.6 0 0 0-12.3-.6 38.8 38.8 0 0 1-5.7.5h-.4c-8.6-.2-16.3-3.8-20.4-10.5a22.1 22.1 0 0 1-2.8-14.9c5.4 18.2 22.5 29.8 52.5 12.6z" class="cls-5" transform="translate(-943.2 -155.3)"/></g></g></svg>