<svg xmlns="http://www.w3.org/2000/svg" xmlns:xlink="http://www.w3.org/1999/xlink" viewBox="0 0 750 498.5"><defs><style>.cls-1,.cls-24,.cls-25{fill:none;}.cls-2{clip-path:url(#clip-path);}.cls-3{fill:#3e8c84;}.cls-4{fill:#efad0a;}.cls-5{fill:#ffbc00;}.cls-6{fill:#fff;}.cls-7{fill:#f8564f;}.cls-8{fill:#85b495;}.cls-9{fill:#43142b;opacity:0.16;}.cls-10{fill:#e1142b;}.cls-11{fill:#d17818;}.cls-12{fill:#e8e8e8;}.cls-13{fill:#f99898;}.cls-14{fill:#f47f7f;}.cls-15{fill:#ffc8c2;}.cls-16{fill:#ce5715;}.cls-17{fill:#e95f0a;}.cls-18{fill:#252c3f;}.cls-19{fill:#d1530d;}.cls-20{fill:#efac06;}.cls-21{fill:#a35b13;}.cls-22{fill:#cc8a4a;}.cls-23{fill:#f45348;}.cls-24,.cls-25{stroke:#fff;stroke-miterlimit:10;}.cls-24{stroke-width:2.82px;}.cls-25{stroke-width:1.88px;}.cls-26{fill:#000515;}.cls-27{fill:#f7b7b2;}.cls-28{fill:#f2f2f2;}.cls-29{fill:#fdfdfc;}.cls-30{fill:#f2af06;}.cls-31{fill:#ea3e3b;}.cls-32,.cls-34{opacity:0.68;}.cls-33,.cls-34{fill:#feecdb;}.cls-35{fill:#feeddc;}.cls-36{fill:#2d6861;}</style><clipPath id="clip-path"><rect class="cls-1" y="-0.7" width="750" height="500"/></clipPath></defs><g id="OBJECTS"><g class="cls-2"><polygon class="cls-3" points="622.6 427.9 617.8 503.6 578.6 501.2 559.5 500 511.5 496.9 516.2 421.2 565.7 424.4 578.2 425.1 622.6 427.9"/><path class="cls-4" d="M601.5,406a29.1,29.1,0,0,0-30.7,17,29.1,29.1,0,0,0-9.6-11.8,29.6,29.6,0,0,0-21-5.2c-2.1,4.3-3.3,8.9-2,13.5,12-.5,21.3,1.9,31.1,7.7-.2.7-.3,1.5-.5,2.2l2-1.3,2,1.3a17.4,17.4,0,0,0-.5-2.2,52.9,52.9,0,0,1,31.1-7.7C604.8,414.9,603.6,410.3,601.5,406Z"/><path class="cls-5" d="M579.8,500.9l-21.1-1.3,6.9-83.6,13.8.9A811.6,811.6,0,0,1,579.8,500.9Z"/><circle class="cls-5" cx="496.8" cy="472.8" r="43.4" transform="translate(-156.4 681.8) rotate(-61.3)"/><path class="cls-6" d="M523.7,453.9c-4.4-1.2-5.8,5.6-1.5,6.8S528,455,523.7,453.9Z"/><path class="cls-6" d="M504.1,479.4c-4.3-1.2-5.7,5.6-1.4,6.8S508.4,480.6,504.1,479.4Z"/><path class="cls-6" d="M495.9,459.7c-4.3-1.2-5.7,5.7-1.4,6.8S500.2,460.9,495.9,459.7Z"/><path class="cls-6" d="M484.2,441c-4.3-1.2-5.7,5.6-1.4,6.8S488.5,442.2,484.2,441Z"/><path class="cls-6" d="M467.6,459.1c-4.4-1.2-5.8,5.7-1.4,6.9S471.9,460.3,467.6,459.1Z"/><path class="cls-6" d="M465.2,485.1c-4.3-1.2-5.7,5.6-1.4,6.8S469.5,486.3,465.2,485.1Z"/><path class="cls-6" d="M482.9,492.9c-4.3-1.2-5.7,5.6-1.4,6.8S487.2,494.1,482.9,492.9Z"/><path class="cls-6" d="M529.7,473.9c-4.3-1.2-5.7,5.6-1.4,6.8S534,475.1,529.7,473.9Z"/><path class="cls-6" d="M522.4,491.7c-4.3-1.2-5.7,5.6-1.4,6.8S526.7,492.9,522.4,491.7Z"/><path class="cls-6" d="M510.2,441.4c-4.3-1.2-5.7,5.7-1.4,6.8S514.5,442.6,510.2,441.4Z"/><path class="cls-7" d="M532.1,421.3a16.6,16.6,0,0,0-11.4.5,18.7,18.7,0,0,0-7.9,5.7,26.8,26.8,0,0,0-3.4-8c-2-3.3-5.1-6.9-8.7-8.4s-8.8.1-9.1,4.9,3.4,8,6.3,10.5a25.4,25.4,0,0,0,10.1,5.4c-8.7,5.9-14.6,15.2-19.3,24.4-5.9,11.5-11.5,23.7-13.2,36.6a52.9,52.9,0,0,0,.9,20.2c.6,2.4,4.1,1.2,3.5-1.2-2.8-11.5-.7-23.5,3.4-34.5,2.2-5.9,4.9-11.7,7.6-17.4a99.9,99.9,0,0,1,9.1-15.5,45.1,45.1,0,0,1,8.4-8.5A129.7,129.7,0,0,0,485,481c-1.8,6-3.4,12.1-3.6,18.4s1.2,12.2,4.8,17.1c1.2,1.6,3.8-.1,2.6-1.7-6.7-9.3-3.9-21.6-1-31.8a139,139,0,0,1,13.8-32.2,130.3,130.3,0,0,1,11.3-16.2,1.1,1.1,0,0,0,.2-1.2,40.3,40.3,0,0,0,12.8,2.4c4.1.1,8.5-1.2,10.3-5.2S536,422.7,532.1,421.3Zm-29.7,4.1a19,19,0,0,1-6.7-7.1c-.5-1.1-.9-2.9.2-3.8s2.5-.6,3.6-.1c2.8,1.3,5.1,4.1,6.7,6.6a25.5,25.5,0,0,1,3.5,7.7A21.9,21.9,0,0,1,502.4,425.4Zm31,3.4c-1.1,3.1-4.7,3.8-7.7,3.7a48.3,48.3,0,0,1-11.3-2.3c3.3-4.3,9.2-7.2,14.6-6.3C531.5,424.2,534.5,425.8,533.4,428.8Z"/><path class="cls-8" d="M509.8,430.9a13.3,13.3,0,0,0-17.1.6,14.1,14.1,0,0,0,9.4,3.2C505.5,434.6,507.3,433.2,509.8,430.9Z"/><path class="cls-8" d="M509.8,430.9a12.8,12.8,0,0,1,8.5,3.3,13.5,13.5,0,0,1,4.3,8.1,14.4,14.4,0,0,1-9.3-3.6C510.8,436.5,510.3,434.2,509.8,430.9Z"/><path class="cls-3" d="M509.8,430.9a13,13,0,0,1-4.2,16.6,14.2,14.2,0,0,1-1.2-9.9C505.2,434.4,507.1,432.8,509.8,430.9Z"/><path class="cls-8" d="M145,415.4a193.7,193.7,0,0,1-78.4-11.1,3.4,3.4,0,0,0-3.6,5.5c13.8,14.5,26.5,29.8,39.3,45.2a3.4,3.4,0,0,1-2.7,5.6A239,239,0,0,1,0,434.1V-.7H.6C9.8,66.9,52,129.3,111.3,163.2a3.4,3.4,0,0,1-1.5,6.4A117.5,117.5,0,0,1,50.1,157a3.4,3.4,0,0,0-4.5,4.8c19.6,33.5,49.3,61.4,84.6,77.4a3.4,3.4,0,0,1-1.4,6.4,159.9,159.9,0,0,1-75.5-17.8,3.4,3.4,0,0,0-4.9,3.8c3.2,13.4,10.9,25,19.5,36.3a535.5,535.5,0,0,0,49.6,56.7,3.4,3.4,0,0,1-2.8,5.8A158.8,158.8,0,0,1,42.6,302a3.4,3.4,0,0,0-5,4.2c10.5,22.5,26.2,42,45.1,58.3s41.7,31.1,63.9,44.7A3.4,3.4,0,0,1,145,415.4Z"/><path class="cls-3" d="M93.3,391.9c-31.1-1.1-63.1-8.2-91.5-21.4a3.4,3.4,0,0,1-1.8-3V73.4c7.1,14.7,22.3,52,33.1,64.3a3.2,3.2,0,0,1-2.9,5.3,85.4,85.4,0,0,1-12-2.5,3.2,3.2,0,0,0-3.8,4.4c10.2,23.5,24.8,46.5,42.8,64.8a3.2,3.2,0,0,1-3.1,5.4c-8.2-2.1-16.6-4.6-24.1-8.4a3.2,3.2,0,0,0-4.4,4.1c14,35.6,34.9,68.5,62.7,94.7a3.2,3.2,0,0,1-2.7,5.5c-17-2.5-34.8-7.5-49.7-15.6a3.2,3.2,0,0,0-4.6,3.7c9.4,35.1,32.6,68.2,63.8,86.8A3.2,3.2,0,0,1,93.3,391.9Z"/><path class="cls-7" d="M39.9,324.9h0A37.1,37.1,0,0,1,42.8,313a16.8,16.8,0,0,1,4.6-6.3c.6,4.1,1.3,8.1,3.1,11.8a20.9,20.9,0,0,0,8.4,9h0c-.4,3.2-.7,6.4-1.1,9.6-6.4-.8-11-4.7-15.5-8.9C41.3,327.2,40.9,325.8,39.9,324.9Z"/><path class="cls-6" d="M50.5,318.5c-1.8-3.7-2.5-7.7-3.1-11.8a4.1,4.1,0,0,1,.7-1.1c4-4.2,8.7-7,14.5-7.6a39,39,0,0,0-2,13.6,29.6,29.6,0,0,0,1.5,8.3c-1.6,2.3-2.1,5.1-3.2,7.6h0A20.9,20.9,0,0,1,50.5,318.5Z"/><path class="cls-6" d="M39.6,343.2l-1.3-.8c.5-5.8.7-11.7,1.6-17.5h0c1,.9,1.4,2.3,2.4,3.3,4.5,4.2,9.1,8.1,15.5,8.9-.4,2.2-.7,4.3-.9,6.5a13,13,0,0,1-.6,4.4C49.9,349.4,44.5,346.9,39.6,343.2Z"/><path class="cls-7" d="M50.8,410.9c-3.1-1.1-6.1-2.5-9.1-3.8s-5.1-4-7.3-6.4h0c0-3.4-.3-6.9.4-10.3h0l4.1,2.4a17.3,17.3,0,0,0,14.3,2.1h0c-.2,5.7-.7,11.4-1.4,17.1C51.8,411.4,51.4,411.1,50.8,410.9Z"/><path class="cls-7" d="M62.6,298c5-1.1,10-.8,15-.2-.9,1.5-1.8,3-2.6,4.5a28.4,28.4,0,0,0-3.4,12.8,4.1,4.1,0,0,1-.3.8h0a4,4,0,0,0-1.9-.1,12.2,12.2,0,0,0-7.3,4.1,29.6,29.6,0,0,1-1.5-8.3A39,39,0,0,1,62.6,298Z"/><path class="cls-7" d="M36.3,378.9c-.3-.2-.5-.5-.9-.3h0c-.3-4,.7-7.9.8-12l.2-.2h0l7.2,4c3.5,1.9,7.3.9,11,.9h0a24.9,24.9,0,0,1,.1,6.1c-.3,2.6-.2,5.3-.9,7.8-4.3-.2-8.2-1.7-12.1-3.2A22.3,22.3,0,0,1,36.3,378.9Z"/><path class="cls-7" d="M44,358.8l-6.6-4.4a69.3,69.3,0,0,1,.9-12h0l1.3.8c4.9,3.7,10.3,6.2,16.7,4.8a2.1,2.1,0,0,1,.2,1.7c-.8,3.6-.6,7.3-.8,10.9A15,15,0,0,1,44,358.8Z"/><path class="cls-6" d="M96.7,314.7a48.1,48.1,0,0,1,3.3,11.2,22.4,22.4,0,0,0-11.6,9.6,76.8,76.8,0,0,0-4.1,7.4,39.5,39.5,0,0,0-1.8-15.3C85.3,321.1,89.6,316.4,96.7,314.7Z"/><polygon class="cls-6" points="84.3 342.9 84.3 342.9 84.3 342.9 84.3 342.9"/><path class="cls-6" d="M38.9,392.8l-4.1-2.4h0a116.6,116.6,0,0,1,.6-11.8h0c.4-.2.6.1.9.3a22.3,22.3,0,0,0,5.4,3.1c3.9,1.5,7.8,3,12.1,3.2.3,3.3-.3,6.4-.6,9.7h0A17.3,17.3,0,0,1,38.9,392.8Z"/><path class="cls-7" d="M100,325.9c.9,1.6.6,3.3.7,5,0,3.8.3,7.6-.9,11.4-.6,2-1.4,3.6-4,3.4-.9,0-1.8.4-2.8.4-3.3,0-6.4-.5-8.7-3.2h0a76.8,76.8,0,0,1,4.1-7.4A22.4,22.4,0,0,1,100,325.9Z"/><path class="cls-6" d="M75,302.3c.8-1.5,1.7-3,2.6-4.5a16.6,16.6,0,0,1,3.7.9c3.3,1.3,5.9,3.6,8.6,5.9h0c-.9,1.1-2.3,1.6-3.4,2.4-3.4,2.7-4.9,6.4-6.4,10.2a11.3,11.3,0,0,1-1.3,3.2h0a14.9,14.9,0,0,0-7.5-4.5h0a4.1,4.1,0,0,0,.3-.8A28.4,28.4,0,0,1,75,302.3Z"/><path class="cls-6" d="M43.6,370.4l-7.2-4h0c.3-4,.7-8,1-12l6.6,4.4a15,15,0,0,0,11.7,1.8c-.4,3.6-.7,7.1-1.1,10.7h0C50.9,371.3,47.1,372.3,43.6,370.4Z"/><path class="cls-6" d="M45.8,419.7c-4.4-.7-8-2.7-11.5-5.2,0-4.6.1-9.2.1-13.8h0c2.2,2.4,4.2,5,7.3,6.4s6,2.7,9.1,3.8c.6.2,1,.5,1,1.1-.3,2.6-.1,5.1-.6,7.6C49.4,419.2,47.6,419.9,45.8,419.7Z"/><path class="cls-7" d="M80.1,317.2c1.5-3.8,3-7.5,6.4-10.2,1.1-.8,2.5-1.3,3.4-2.4h0a1.5,1.5,0,0,1,.6.5c2.6,2.9,5.3,5.7,6.2,9.6h0c-7.1,1.7-11.4,6.4-14.2,12.9h0c-.7-2.7-2.3-4.9-3.7-7.2h0A11.3,11.3,0,0,0,80.1,317.2Z"/><path class="cls-7" d="M34.2,418.9a32,32,0,0,0,.1-4.4c3.5,2.5,7.1,4.5,11.5,5.2,1.8.2,3.6-.5,5.4-.1s-.5,2.3-1.8,2.8c-4.4,1.4-8.8.9-13.1-.3A2.5,2.5,0,0,1,34.2,418.9Z"/><path class="cls-9" d="M43.7,423.2a16.1,16.1,0,0,0,5.7-.8c1.3-.5,2.2-1.3,1.8-2.8s.3-5,.6-7.5c.7-5.8,1.2-11.5,1.4-17.2.3-3.3.9-6.4.6-9.7s.6-5.2.9-7.8a28.1,28.1,0,0,0,.1-2.9,16.7,16.7,0,0,0-.2-3.2c.3-3.6.7-7.1,1.1-10.7s0-7.3.8-10.9a2.1,2.1,0,0,0-.2-1.7,13,13,0,0,0,.6-4.4c.2-2.2.5-4.3.9-6.5s.7-6.4,1.1-9.6,1.6-5.3,3.2-7.6a11.7,11.7,0,0,1,7.3-4.1h.9l1,.2a14.9,14.9,0,0,1,7.5,4.5s-3.2-15.2-18.2-8.8C47.7,317.2,44.4,400.5,43.7,423.2Z"/><polygon class="cls-5" points="52.5 506.1 -0.9 506.1 -11 410 62.6 410 52.5 506.1"/><rect class="cls-7" x="-15.6" y="401.1" width="82.7" height="18.47"/><rect class="cls-10" x="19.7" y="401.1" width="11.3" height="104.99"/><path class="cls-10" d="M29.1,405.8A63,63,0,0,0,.6,386.7c-2.1,3.1-4.3,5.3-6.4,8.3C6.2,398.7,17.8,400.2,29.1,405.8Z"/><path class="cls-10" d="M23,405.8a61.9,61.9,0,0,1,28.5-19.1c2.1,3.1,4.2,5.3,6.3,8.3C45.8,398.7,34.3,400.2,23,405.8Z"/><path class="cls-6" d="M116.4,378.2l-.6.8a33,33,0,0,0-2.6,3.9c-.2-1-.2-2.1-.5-3.1s-.1-.5-.3-.5-.2.4-.2.5a20,20,0,0,1-.2,3.4c-.7-2.1-1.4-3.9-3.1-5.3a1.4,1.4,0,0,0-.1,1.1,39,39,0,0,0,1.3,5.7c.2.8.4,1.7,1.3,2.1s.2.2.2.3a40.5,40.5,0,0,1-.9,4.8c-.6-2.1-1.4-4.1-2.1-6.1a19.9,19.9,0,0,0-1.7-3.6c-.1-.2-.3-.5-.6-.4s-.3.3-.3.6a5.5,5.5,0,0,0,.1,1.8,40.1,40.1,0,0,0,3.4,10.1,1.5,1.5,0,0,1,.1,1.6l-1.1,3c-.1.1-.2.1-.2.2-.9-4.4-1.4-8.8-3.1-12.9a1.5,1.5,0,0,0-.7,1.1,11.4,11.4,0,0,0-.1,4.5,51.4,51.4,0,0,0,1.8,10.4,3,3,0,0,1-.2,2.6,8.1,8.1,0,0,1-1.1,2,14.2,14.2,0,0,0-.6-3.1c-1-3.6-2.2-7.2-3.5-10.8-.1-.1-.1-.3-.3-.3s-.2.2-.3.4a9.7,9.7,0,0,0-.1,3.8,54.8,54.8,0,0,0,2.1,8.9,11.7,11.7,0,0,0,1.1,2.8c.4.5.4.8.1,1.2a2.5,2.5,0,0,1-.4.7,14.1,14.1,0,0,1-2.1,3.1,13.8,13.8,0,0,0-.5-3.7c-1-3.5-2-6.9-3.3-10.3-.1-.3-.1-.9-.5-.9s-.1.7-.1,1c0,4.8,1.2,9.5,2.3,14.2.3,1.3.6,2.4-.5,3.6a24.7,24.7,0,0,0-2.4,2.9v-1.6a63.9,63.9,0,0,0-.9-7.5,41.5,41.5,0,0,0-1.5-7c0-.2-.1-.6-.3-.6s-.3.4-.3.7a25.7,25.7,0,0,0-.1,6.8,78.1,78.1,0,0,0,1.4,9.7c.1.5.5,1.1.1,1.6s-1.9,2.3-3,3.5a20,20,0,0,0-.3-2.8c-.7-5-1.6-10.1-1.8-15.1,0-.3,0-.6-.3-.7s-.3.4-.4.6a16,16,0,0,0-1.1,8.1,94.3,94.3,0,0,0,1.7,11.7c.1.2.2.5,0,.7a18.5,18.5,0,0,1-2.8,2.8,3.8,3.8,0,0,1-.1-1q-.2-3.4-.6-6.9c-.5-3.7-.9-7.5-1.1-11.3,0-.1.1-.4-.1-.5s-.4.3-.4.4a11.9,11.9,0,0,0-1,4.9c0,2.1.1,4.2.3,6.2a71.6,71.6,0,0,0,1.2,9.3c.1.3.2.5,0,.7a36.1,36.1,0,0,1-3,2.5,22.5,22.5,0,0,1,0-2.6c.2-4-.1-8-.1-11.9a8.6,8.6,0,0,0-.3-2.8c0-.2,0-.4-.2-.5s-.3.2-.4.3l-.3.7a8.9,8.9,0,0,0-.7,2.8,93.5,93.5,0,0,0,0,14,2.3,2.3,0,0,1-1.1,2.6l-.3.2c-.4-5.3-1.4-10.5-1.3-15.9-.4.2-.4.4-.5.5a26.2,26.2,0,0,0-.2,7.9l.6,8.2c0,.4-.9,1.3-1.3,1.2s-.2-.2-.2-.4a9.7,9.7,0,0,1-.1-1.7c-.1-2.1-.5-4.1-.7-6.2s-.3-3.1-.5-4.6,0-1.2-.4-1.2-.6.8-.6,1.2a23.3,23.3,0,0,0,0,5.9c.2,2.5.5,5.1.7,7.6.1.4,0,.6-.4.8l-1.2.5a38.8,38.8,0,0,0-3.6,1.5c-.4.2-.7.3-.6.8a.9.9,0,0,0,.9.7h1.5a14.3,14.3,0,0,0,5-1.8c.3-.1.6-.3,1-.1a14.7,14.7,0,0,0,5.9,1.1,16.5,16.5,0,0,0,8.9-2.6,8,8,0,0,0,2.3-2.2c.1-.2.2-.4.1-.5s-.3-.1-.5,0a9.8,9.8,0,0,1-1.8.8,19.9,19.9,0,0,1-6.7,2,25.2,25.2,0,0,1-5.5-.1c-.2,0-.4,0-.5-.2s.2-.2.3-.3l2.9-2.3a.7.7,0,0,1,.8-.2,20.6,20.6,0,0,0,8.9-.5,32.8,32.8,0,0,0,7.9-3.5,9.2,9.2,0,0,0,2.5-1.9c.1-.1.3-.3.1-.5s-.4-.1-.5,0a15.4,15.4,0,0,1-1.9.8c-1.6.8-3.3,1.4-5,2.1a41.5,41.5,0,0,1-7.7,2,15.8,15.8,0,0,1-3.1.1c.1-.4.5-.5.8-.7s1-1.3,2-1.2.3-.3.3-.5.2-.6.6-.6a23.8,23.8,0,0,0,11.8-4.6,5.5,5.5,0,0,0,2-2.5c.1-.3.1-.6-.4-.4a17.8,17.8,0,0,0-2.9,1.2,41.4,41.4,0,0,1-4.3,2,14.9,14.9,0,0,1-3.7,1.4l3.2-3.8c.2-.2.3-.3.5-.2a5.9,5.9,0,0,0,2.7-.3,43.2,43.2,0,0,0,9.2-3.7,13.4,13.4,0,0,0,5.2-4.8c.1-.2.5-.5.3-.7s-.6-.1-.8,0a18.3,18.3,0,0,0-3.2,1.4c-2.7,1.6-5.6,2.9-8.4,4.2L96,424.6c-.2.1-.3.2-.4,0s0-.2,0-.3a20.9,20.9,0,0,0,2.3-2.9,1,1,0,0,1,.7-.4,7.5,7.5,0,0,0,3.9-.9c1.4-.8,2.8-1.6,4.1-2.5a31.1,31.1,0,0,0,6.5-5.5,8.9,8.9,0,0,0,1.4-2.5l-.2-.2-14.5,9.9v-.2l.6-1c1.1-1.4,2.2-2.9,3.2-4.4a4,4,0,0,1,2.5-1.9,14.2,14.2,0,0,0,6.5-2.9c1.2-1.1,2.3-2.3,3.4-3.5a22.4,22.4,0,0,0,3.5-5.7c.1-.2.2-.3,0-.4s-.3,0-.4.1a13.3,13.3,0,0,0-1.9,1.4c-2.7,2.2-4.7,5-7.6,6.9a16.8,16.8,0,0,1-3.3,1.6,3.2,3.2,0,0,1,.3-.9c.8-1.6,1.6-3.2,2.3-4.9a.8.8,0,0,1,.8-.7,4.9,4.9,0,0,0,1.7-.6,16.3,16.3,0,0,0,4.9-3.7,28.3,28.3,0,0,0,3.7-4,13,13,0,0,0,1-2.5c0-.2.1-.5-.2-.6s-.3.1-.5.2l-1.4,1.1-6.8,5.7a4.6,4.6,0,0,1-1.6,1.1c.2-1.3.9-2.4,1.1-3.7s.5-1.8,1.6-2a1,1,0,0,0,.5-.4,15.7,15.7,0,0,0,3.1-3.2,38.2,38.2,0,0,0,3.1-4.7c.1-.2.3-.5.1-.8s-.5.1-.7.2-2.7,2-3.9,3.2a36.9,36.9,0,0,0-2.7,2.8c.1-.9.1-1.6.2-2.3s-.1-.6.2-.9a7,7,0,0,0,1.9-2.6c.8-1.4,1.5-3,2.2-4.5a3.1,3.1,0,0,0,.4-2.1,1.4,1.4,0,0,0-.5-.8C116.7,377.6,116.6,378,116.4,378.2Z"/><path class="cls-8" d="M52.7,445s-12.4.2-22.7-21c6.2,22.8-3.2,30.8-3.2,30.8,11.4,4.3,9.8,25.8,9.8,25.8,7.8-.6,17.8,8,17.8,8s1.7-13,8-17.7C62.4,470.9,47,455.8,52.7,445Z"/><path class="cls-3" d="M43.8,458.1c-1-2.6-2.1-5.3-3.1-8-.3-.9-1.7-.3-1.4.7,3.5,9.4,7,18.7,10.6,28.1l3,8c.4,1,1.8.3,1.5-.7C50.8,476.9,47.4,467.5,43.8,458.1Z"/><path class="cls-8" d="M105.7,504.4s3.6-11.8,26.9-15c-23.5-1.1-28.2-12.6-28.2-12.6-7.7,9.6-27.6,1.3-27.6,1.3-1.9,7.7-13.2,14.4-13.2,14.4s11.9,5.7,14.5,13.2C78.1,505.7,97.1,495.7,105.7,504.4Z"/><path class="cls-3" d="M95.9,491.9l8.6-.4c1,0,.8-1.5-.2-1.5l-30,1.3-8.6.4c-1,.1-.8,1.7.2,1.6C75.9,492.9,85.9,492.5,95.9,491.9Z"/><path class="cls-8" d="M96.8,450.3s-8.8-8.7-.8-30.9c-11.9,20.4-24.2,19.2-24.2,19.2,4.8,11.2-11.7,25-11.7,25,5.9,5.2,6.6,18.4,6.6,18.4s10.6-7.9,18.4-6.7C85.1,475.3,85,453.8,96.8,450.3Z"/><path class="cls-3" d="M81.2,453.1l3.6-7.8c.4-.9-1-1.4-1.4-.5-4.3,9-8.6,18.1-12.8,27.2L67,479.7c-.5,1,1,1.5,1.4.6C72.7,471.2,77,462.2,81.2,453.1Z"/><path class="cls-10" d="M85.8,476.2A15.7,15.7,0,0,1,85,484a14.7,14.7,0,0,1-10.8,8.9,14.3,14.3,0,0,1-16.7-11.6,14.1,14.1,0,0,1,3.7-12.5,13.9,13.9,0,0,1,7.9-4.2A14.4,14.4,0,0,1,85.8,476.2Z"/><path class="cls-7" d="M85.8,476.2A15.7,15.7,0,0,1,85,484a13.9,13.9,0,0,1-7.9,4.2,14.3,14.3,0,0,1-16.7-11.5,14,14,0,0,1,.8-7.9,13.9,13.9,0,0,1,7.9-4.2A14.4,14.4,0,0,1,85.8,476.2Z"/><path class="cls-10" d="M79.3,474.6l-.7-.8-1.4-1.4-.4-.4a10.6,10.6,0,0,0,1.5-1.5c.5-.5-.1-1.1-.6-.7a10.7,10.7,0,0,0-1.6,1.4l-1.8-1.8c-.5-.6-1.3.2-.8.8l1.8,1.9-1.8,1.7c-.4.4.2,1.1.7.7l1.7-1.7.4.4,1.4,1.5.7.8a1.8,1.8,0,0,0,.9.6c.4.2.7-.2.6-.6A1.8,1.8,0,0,0,79.3,474.6Z"/><path class="cls-10" d="M60.8,479.5a13.8,13.8,0,0,1,2.3,7.5,14.2,14.2,0,0,1-6.4,12.4,14.4,14.4,0,0,1-19.9-4.1,14.1,14.1,0,0,1-1.5-13,13.9,13.9,0,0,1,5.6-6.9A14.3,14.3,0,0,1,60.8,479.5Z"/><path class="cls-7" d="M60.8,479.5a13.8,13.8,0,0,1,2.3,7.5,14.9,14.9,0,0,1-5.5,7,14.4,14.4,0,0,1-22.3-11.7,13.9,13.9,0,0,1,5.6-6.9A14.3,14.3,0,0,1,60.8,479.5Z"/><path class="cls-10" d="M54.3,480.6l-1-.5-1.9-.8-.5-.2a15.4,15.4,0,0,0,.8-1.9c.2-.7-.6-1-.9-.4a15.4,15.4,0,0,0-.8,1.9l-2.4-1c-.7-.3-1.1.8-.4,1.1l2.3,1-.9,2.3c-.3.6.6.9.9.4l.9-2.3.5.3,1.9.8,1,.4a1.7,1.7,0,0,0,1,.3c.4,0,.6-.5.4-.9A2,2,0,0,0,54.3,480.6Z"/><path class="cls-10" d="M84.8,493a14.7,14.7,0,0,1-4.1,20,14.5,14.5,0,0,1-20-4.2,14.1,14.1,0,0,1-1.4-12.9A14.3,14.3,0,0,1,84.8,493Z"/><path class="cls-7" d="M84.8,493a14.3,14.3,0,0,1,2.3,7.6,14.3,14.3,0,0,1-25.4,2.8,13.9,13.9,0,0,1-2.4-7.5A14.3,14.3,0,0,1,84.8,493Z"/><path class="cls-10" d="M78.2,494.1l-.9-.4-1.9-.8-.5-.2a11.9,11.9,0,0,0,.8-2c.2-.6-.6-.9-.9-.3a10.8,10.8,0,0,0-.8,1.9l-2.4-1a.6.6,0,0,0-.5,1l2.4,1.1-.9,2.2a.5.5,0,1,0,.9.4l.9-2.2.5.2,1.9.9,1,.4a2.9,2.9,0,0,0,1,.3.6.6,0,0,0,.4-.9A3.3,3.3,0,0,0,78.2,494.1Z"/><path class="cls-11" d="M297.2,360.3a1.8,1.8,0,0,0-2.1-1.2,10.5,10.5,0,0,0-2.4.6l-2.3.6-3.3,1c2.3-3.9,4.5-7.9,6.4-12,.9-2,1.7-4,2.5-6s2-4.4,2.1-6.5a2,2,0,0,0-3.6-1.3c-1.1,1.7-1.5,3.8-2.2,5.6s-1.3,3.5-2.1,5.3l-2.3,5c-.2-.7-.3-1.3-.5-1.9l-.8-2.8a16.6,16.6,0,0,0-1-2.9,1.8,1.8,0,0,0-1.8-.8,1.6,1.6,0,0,0-1.3,1.5,4.7,4.7,0,0,0,.2,1.6l.4,1.3c.2.9.5,1.8.7,2.7s1.1,3.7,1.6,5.5c0,.1.1.3.1.4a.8.8,0,0,0-.2.5,125.2,125.2,0,0,1-12.8,18.6,98,98,0,0,1-8.7,9.5c-1.6,1.5.6,4,2.2,2.5A115.9,115.9,0,0,0,284.7,365a1.8,1.8,0,0,0,1.7.5l4.8-1.4,2.4-.7a14.3,14.3,0,0,0,2.7-.9A1.8,1.8,0,0,0,297.2,360.3Z"/><path class="cls-12" d="M285.3,428.9a71.5,71.5,0,0,1-.4,10.3,19.7,19.7,0,0,1-.3,2.4,77.6,77.6,0,1,1-117-76.7,76.7,76.7,0,0,1,50.3-10.4l2.5.3a88.2,88.2,0,0,1,8.9,2,77.8,77.8,0,0,1,56,72.1Z"/><path class="cls-6" d="M285.3,428.9a56.2,56.2,0,0,1-109.7-23.3,57.3,57.3,0,0,1,4.1-15,56.4,56.4,0,0,1,49.6-33.8,77.8,77.8,0,0,1,56,72.1Z"/><path class="cls-12" d="M256.1,370.7a18.3,18.3,0,0,1-.7,4.6c-2,6.5-8,11.5-14.4,15.2a64.2,64.2,0,0,1-41.5,7.6c-7.2-1.2-14.2-3.6-19.8-7.5a26.8,26.8,0,0,1-8.8-10.1,32.3,32.3,0,0,1-3.3-15.6,76.7,76.7,0,0,1,50.3-10.4l2.5.3a88.2,88.2,0,0,1,8.9,2A77.8,77.8,0,0,1,256.1,370.7Z"/><path class="cls-11" d="M160.6,386.7a86.5,86.5,0,0,1-18.5-24.8l.2-.3,2.9-6a34.6,34.6,0,0,0,2.8-6.2,1.7,1.7,0,0,0-3-1.5,50,50,0,0,0-3.1,6.1l-1.8,3.7a74.7,74.7,0,0,1-3.8-10.3c-.7-2.1-1.2-4.3-1.7-6.5a48.8,48.8,0,0,0-1.6-6.6c-.7-1.8-3.4-1-3.5.7a20.8,20.8,0,0,0,.7,6.1,52.9,52.9,0,0,0,1.3,5.4l-5-1.1-3.2-.7c-1.4-.3-2.9-.8-4.2-.1a1.7,1.7,0,0,0-.5,2.6,5.1,5.1,0,0,0,3.3,1.5l3.4.8,6.6,1.4h.9c.9,2.6,1.9,5.2,3,7.7a93.7,93.7,0,0,0,12.4,20.9,98.3,98.3,0,0,0,9.3,10,2.1,2.1,0,0,0,2.9.2A2.2,2.2,0,0,0,160.6,386.7Z"/><path class="cls-13" d="M194.5,375.8a17.1,17.1,0,0,1-2.9,5.5,21.2,21.2,0,0,1-3.3,3.4,32.6,32.6,0,0,1-11.4,5.9c-7.6,2.4-15.8,3-23.3,5.7-12.8,4.6-23.7,14.8-27.6,27.9.1,0,.1.1,0,.2-.6,2.6-1.2,5.3-2,7.9-.2.6-1.2.4-1.1-.2.6-2.5,1.3-4.9,2-7.3l-1.6-.4c-.4,1.9-.8,3.8-1.3,5.6s-1.2.4-1-.2.8-3.9,1.3-5.8l-2.2-.8c-.1.7-.3,1.5-.4,2.2s-.6,2.7-1,4-1,.3-1-.3.6-2.6.9-3.9.3-1.6.5-2.5a14,14,0,0,1-1.7-.9c-.3,1.4-.6,2.7-1,4.1s-1.2.3-1.1-.3.7-3,1.1-4.4l-1.7-1.3-.3,1.2c-.3,1.2-.5,2.5-.9,3.6s-1.1.3-1-.2a35.9,35.9,0,0,1,.8-3.5c.1-.7.3-1.3.4-1.9l-2-1.9a12.9,12.9,0,0,1-.4,1.9c-.2,1.1-.4,2.3-.7,3.4s-1.2.3-1.1-.3.5-2.2.7-3.3l.6-2.7h0v-.4c0-.1.1-.1.1-.2v-.2a44.1,44.1,0,0,1,26.9-29.1c6.2-2.2,12.9-3,19-5.5s9.2-5.3,11.5-9.8a15.1,15.1,0,0,0,1.3-4.1c5.1.2,10.7.7,15.6,2.5A19.8,19.8,0,0,1,194.5,375.8Z"/><path class="cls-14" d="M191.6,381.3a21.2,21.2,0,0,1-3.3,3.4c-3.2.4-7.5-1.9-9.7-3-4-2.1-8.2-5.2-9.9-9.6a2,2,0,0,1-.3-1.1,15.1,15.1,0,0,0,1.3-4.1c5.1.2,10.7.7,15.6,2.5a26.3,26.3,0,0,1,5.6,8.4A8.4,8.4,0,0,1,191.6,381.3Z"/><path class="cls-15" d="M255.9,367.8a28.1,28.1,0,0,1,.1,2.9,11.6,11.6,0,0,1-6.1,9.9,68,68,0,0,1-50.4,6.3,68.9,68.9,0,0,1-30.6-17.8A30.3,30.3,0,0,1,182,342.9c19.2,10.4,43.7,10.4,65,6.2C252.2,353.6,255.4,360.7,255.9,367.8Z"/><path class="cls-13" d="M255.9,367.8c-3.8,3.7-8.9,5.9-13.9,7.4-10.4,3.3-21.4,4.4-32.3,4.5-3.6,0-7.8.3-9.6,3.3a6,6,0,0,0-.6,3.9,68.9,68.9,0,0,1-30.6-17.8A30.3,30.3,0,0,1,182,342.9c19.2,10.4,43.7,10.4,65,6.2C252.2,353.6,255.4,360.7,255.9,367.8Z"/><path class="cls-12" d="M268.8,331.5A50.9,50.9,0,1,1,225,274.3l1.7.3A50.9,50.9,0,0,1,269,329.9,7.8,7.8,0,0,1,268.8,331.5Z"/><path class="cls-6" d="M269.3,327.4A45.4,45.4,0,0,1,179.6,314a14.2,14.2,0,0,1,.4-2,44.9,44.9,0,0,1,49.1-37.1,49.1,49.1,0,0,1,26.1,13.2A48.1,48.1,0,0,1,269.3,327.4Z"/><path class="cls-16" d="M277.3,339.4c-4.7-2.2-13.4-1-18.6.2s-10.5,2.6-15.5,1.2c-1.8-.5-3.5-1.4-5.3-1.8s-5.5-.9-7.1-.1a5.6,5.6,0,0,1-6.9-1.9c-1-1.4-1.1-3.7-.7-5.7a8.8,8.8,0,0,1,.9-2.6c1.7-3.2,6.1-3.9,9.5-3s6.6,2.9,10,4c5.7,1.7,11.9.4,17.8,1.2a26,26,0,0,1,13.9,6.5Z"/><path class="cls-17" d="M275.3,337.4c-4.8-1.7-12.5-.6-17.2.6s-10.3,2.5-15.2,1.1c-1.8-.5-3.4-1.3-5.2-1.8s-5.3-.8-6.9,0a5.4,5.4,0,0,1-6.7-1.8,6.6,6.6,0,0,1-.9-4.2,8.8,8.8,0,0,1,.9-2.6c1.7-3.2,6.1-3.9,9.5-3s6.6,2.9,10,4c5.7,1.7,11.9.4,17.8,1.2A26,26,0,0,1,275.3,337.4Z"/><path class="cls-18" d="M207.7,317.9a2.7,2.7,0,0,1-3.1,2.3,2.6,2.6,0,0,1-2.3-3,2.8,2.8,0,0,1,3.1-2.4A2.7,2.7,0,0,1,207.7,317.9Z"/><path class="cls-18" d="M249.8,318a2.7,2.7,0,1,1-2.3-3.1A2.7,2.7,0,0,1,249.8,318Z"/><path class="cls-18" d="M232.2,399.9a2.8,2.8,0,0,1-3.1,2.4,2.7,2.7,0,0,1-2.3-3.1,2.6,2.6,0,0,1,3-2.3A2.7,2.7,0,0,1,232.2,399.9Z"/><path class="cls-18" d="M232.8,425a2.7,2.7,0,0,1-3.1,2.3,2.6,2.6,0,0,1-2.3-3,2.7,2.7,0,0,1,3-2.4A2.8,2.8,0,0,1,232.8,425Z"/><path class="cls-18" d="M228.5,457a2.6,2.6,0,0,1-3,2.3,2.8,2.8,0,0,1-2.4-3.1,2.7,2.7,0,1,1,5.4.8Z"/><path class="cls-18" d="M221.2,482.5a2.7,2.7,0,1,1-2.3-3.1A2.7,2.7,0,0,1,221.2,482.5Z"/><path class="cls-18" d="M233.1,347.1c-.6.7-1,1.5-1.6,2.2a11.2,11.2,0,0,1-2,1.8,9.5,9.5,0,0,1-4.9,1.6,9.1,9.1,0,0,1-8.4-6c-.5-1.4-2.7-.3-2.1,1.1a11.3,11.3,0,0,0,10.6,7.2,10.7,10.7,0,0,0,6.2-2c1.7-1.3,3.6-3.2,3.8-5.4S233.6,346.5,233.1,347.1Z"/><circle class="cls-17" cx="173.5" cy="270.1" r="11.8"/><path class="cls-19" d="M165.3,267.7c-.1-.2-.4-.3-.6-.4l-.6.2c-.2.2-.4.4-.4.6v.7a.4.4,0,0,1-.1.3c0,.2.1.3.1.5a.4.4,0,0,0,.1.3c0,.1.1.2.2.3h.7l.3-.2h.2a.6.6,0,0,0,.1-.4c0-.1.1-.2.1-.3v-1A1.1,1.1,0,0,0,165.3,267.7Z"/><path class="cls-19" d="M168.3,274.5a.6.6,0,0,0-.1-.4c0-.1-.1-.2-.1-.4s-.1-.2-.2-.2l-.3-.2h-.9l-.3.4v.2c-.1.2,0,.3,0,.5l.2.3h0c0,.1.1.2.1.3s.1.1.1.2H168l.2-.2a4120842734926.9,4120842734926.9,0,0,0,.2-.6C168.4,274.6,168.3,274.6,168.3,274.5Z"/><path class="cls-19" d="M171.5,270.2l-.6-.9-.3-.2H170l-.4.2v.2a.5.5,0,0,0-.2.4v.2c0,.2.1.3.2.5l.6.8.3.2.3.2h.7c.1-.2.3-.4.3-.6v-.3A.8.8,0,0,0,171.5,270.2Z"/><path class="cls-19" d="M176.4,266.2c0-.1-.2-.2-.2-.3l-.3-.3-.6-.6-.3-.2h-.7a.5.5,0,0,0-.4.2.6.6,0,0,0-.3.6v.3a.4.4,0,0,0,.2.4l.6.6c.1.1.2.2.2.3l.5.5.3.2h.7l.3-.2c0-.1.1-.1.1-.2s.1-.2.1-.4A.7.7,0,0,0,176.4,266.2Z"/><path class="cls-19" d="M169.8,263.4l-.4-.5-.3-.2h-.3c-.1-.1-.2,0-.3,0h-.3l-.2.2c0,.1-.1.2-.1.4v.2a.5.5,0,0,0,.2.4,2.1,2.1,0,0,0,.4.6l.2.2h.9l.2-.2c.1-.1.1-.2.2-.4v-.2C169.9,263.7,169.9,263.5,169.8,263.4Z"/><path class="cls-19" d="M175.2,261.3l-1-.4-1-.3a.8.8,0,0,0-.7,0,1.2,1.2,0,0,0-.5.5.9.9,0,0,0,0,.7c.1.2.3.5.5.5l1,.3,1.3.4.6-.2a.5.5,0,0,0,.3-.5A.7.7,0,0,0,175.2,261.3Z"/><path class="cls-19" d="M173.4,276.5l-1.1-.5-.8-.4a1.1,1.1,0,0,0-.8,0,1.2,1.2,0,0,0-.5.5.9.9,0,0,0,0,.7c.1.3.3.4.6.6l.8.4h.4l.5.2h.7a.8.8,0,0,0,.4-.4.7.7,0,0,0,.1-.6A.9.9,0,0,0,173.4,276.5Z"/><path class="cls-19" d="M178,273.1l-.2-.3-.3-.3c0-.1-.1-.1-.2-.1l-.4-.3h-.6a.5.5,0,0,0-.4.2.2.2,0,0,0-.2.2l-.2.2v.7l.3.4.4.2c.1.1.2.1.2.2h1.2l.2-.2v-.8Z"/><path class="cls-19" d="M181.7,269.4c-.2-.8-.5-1.5-.7-2.3a1.2,1.2,0,0,0-.5-.5,1.1,1.1,0,0,0-.8,0,1.2,1.2,0,0,0-.5.5v.3a4.3,4.3,0,0,1,.1.5,20.2,20.2,0,0,1,.7,2.3,1.2,1.2,0,0,0,.5.5,1.1,1.1,0,0,0,.8,0,1.2,1.2,0,0,0,.5-.5v-.3A1.1,1.1,0,0,0,181.7,269.4Z"/><path class="cls-5" d="M173.1,277.4c2.7-4.4,7.1-7.6,11.8-9.7,8.9-3.9,19-4.4,28.6-2.6s18.6,5.6,27.2,10.1a9,9,0,0,1,3.8,2.9,6,6,0,0,1,0,5.8,15.4,15.4,0,0,1-3.7,4.7c-8.6,8.1-18.6,14.6-29.8,18.2a60,60,0,0,1-34.6,1.3c-2.4-.6-5.8-1.8-6.8-4.3s.3-4.1.4-6.2C170.4,290.5,169.2,283.9,173.1,277.4Z"/><path class="cls-12" d="M255.2,288.1A85.2,85.2,0,0,1,180,312a69.3,69.3,0,0,1-7.9-1.7c-1.6-.5-1.6-2.2-1.4-3.9a5.4,5.4,0,0,1,2.4-4.1,78.5,78.5,0,0,0,9.7,0,94.6,94.6,0,0,0,58-23.9A49.3,49.3,0,0,1,255.2,288.1Z"/><path class="cls-17" d="M251.9,280.9c1.7,1.9,2.7,3.7,1.8,4.6A85.5,85.5,0,0,1,169,309.4c-1.6-.4-1.7-2.2-1.5-3.8a5.4,5.4,0,0,1,2.4-4.2C195,303,221,293.3,239.3,276,242,273.4,248.4,277.2,251.9,280.9Z"/><path class="cls-19" d="M174.4,306.1a25.1,25.1,0,0,1-.4-2.7,1,1,0,0,0-1.1-.8.9.9,0,0,0-.8,1.1l.3,2.7a24.8,24.8,0,0,0,.3,2.7,1,1,0,0,0,1.1.8,1,1,0,0,0,.9-1.1Z"/><path class="cls-19" d="M187.7,310.1l-.7-1.5-.5-1.4a8.6,8.6,0,0,1,0-3.2.8.8,0,0,0-.8-1,.9.9,0,0,0-1,.8,8.1,8.1,0,0,0,0,3.8,12.1,12.1,0,0,0,.5,1.8,5.4,5.4,0,0,0,1.1,1.8.9.9,0,0,0,1.1,0A.9.9,0,0,0,187.7,310.1Z"/><path class="cls-19" d="M199,308.1l-.6-1.8-1.1-3.4a1,1,0,0,0-1.3-.5,1,1,0,0,0-.5,1.2l1.1,3.5.5,1.7a8.5,8.5,0,0,0,.6,1.7,1,1,0,0,0,1.8-.5A10.5,10.5,0,0,0,199,308.1Z"/><path class="cls-19" d="M212.2,306.7c-1.1-3-2.3-5.9-3.5-8.9-.4-1.1-2.1-.4-1.7.8,1.1,2.9,2.2,6,3.4,8.9a1,1,0,0,0,1.8-.8Z"/><path class="cls-19" d="M226,302.2c-.4-.8-1-1.5-1.5-2.3l-1.4-2.1-2.9-4.3a.9.9,0,0,0-1.4,1.2l2.7,4.2,1.4,2.1,1.4,2.2C225,304,226.5,303.2,226,302.2Z"/><path class="cls-19" d="M237.8,294.3a10.7,10.7,0,0,0-1.4-1.6l-1.5-1.6L232,288a1,1,0,0,0-1.4-.1,1.1,1.1,0,0,0-.2,1.4l3,3.2,1.4,1.5a9.1,9.1,0,0,0,1.7,1.7.9.9,0,0,0,1.2-.1A.9.9,0,0,0,237.8,294.3Z"/><path class="cls-19" d="M244.8,288.3c-1.1-1.2-2.4-2.3-3.7-3.5l-3.7-3.3a1.1,1.1,0,0,0-1.4.2,1.2,1.2,0,0,0,.2,1.4l3.6,3.3c1.2,1.1,2.4,2.3,3.7,3.3a.9.9,0,0,0,1.3-.1A.9.9,0,0,0,244.8,288.3Z"/><path class="cls-19" d="M251.9,284.9l-2.1-1.8-2.2-1.7-4.3-3.4a1.1,1.1,0,0,0-1.4.2.9.9,0,0,0,.2,1.3l4.3,3.4,2,1.7a18.4,18.4,0,0,0,2.2,1.7,1,1,0,0,0,1.3-1.4Z"/><path class="cls-20" d="M184.7,272.6a1.8,1.8,0,0,0-.7-.5l-.5-.3h-1.4a1.2,1.2,0,0,0-.7.5,1,1,0,0,0-.2.7c.1.3.2.6.4.7a.8.8,0,0,0,.8.2h.4c.1.1.2.1.2.2s.1,0,.1.1l.2.2h0c.1.3.3.5.5.5h.6l.6-.4a.9.9,0,0,0,.1-.7A2.1,2.1,0,0,0,184.7,272.6Z"/><path class="cls-20" d="M191.5,278.4l-.2-.2-.2-.3-.5-.4-.8-1-.7-.4-.9.2a1.1,1.1,0,0,0-.3.7,1,1,0,0,0,.2.9l.9.9a5.7,5.7,0,0,0,1.1,1.1l.7.2.6-.3a.9.9,0,0,0,.3-.6A1.2,1.2,0,0,0,191.5,278.4Z"/><path class="cls-20" d="M182.1,279.8l-.3-.5-.7-1.1-.2-.3-.3-.2h-.8a1.2,1.2,0,0,0-.5.5,1.1,1.1,0,0,0,0,.8l.6,1.1.3.6.3.4a.8.8,0,0,0,.4.4l.4.2.6-.2a.9.9,0,0,0,.5-.9Z"/><path class="cls-20" d="M186.1,286.5a2.7,2.7,0,0,0-.7-.8,1.2,1.2,0,0,0-.7-.5h-.5l-.4.2a1,1,0,0,0-.4.7,1.3,1.3,0,0,0,.2.9l.8.8.3.4.4.4.3.2h.9l.3-.3c.1,0,.2-.1.2-.3a.7.7,0,0,0,.1-.5A2,2,0,0,0,186.1,286.5Z"/><path class="cls-20" d="M178.8,283.2c-.2-.5-.6-1-1.2-.9a1.1,1.1,0,0,0-.9,1.2c.4,1.4.7,2.8,1,4.1a1.6,1.6,0,0,0,.4.7.8.8,0,0,0,.8.2,1.1,1.1,0,0,0,.9-1.2C179.4,285.9,179.1,284.6,178.8,283.2Z"/><path class="cls-20" d="M176.5,292.5a1,1,0,0,0-.4-.7l-.7-.2c-.2.1-.5.2-.6.4a.7.7,0,0,0-.2.7c.2.8.3,1.6.5,2.4s.2.5.4.6a1,1,0,0,0,.7.2.8.8,0,0,0,.6-.4.6.6,0,0,0,.2-.7Z"/><path class="cls-20" d="M183.1,295.9l-.4-1a1,1,0,0,0-.6-.5h-.8a1,1,0,0,0-.5.6,1.1,1.1,0,0,0,0,.8l.4,1a.8.8,0,0,1,.2.4,4.3,4.3,0,0,0,.4.7l.2.2h.3a.8.8,0,0,0,.7,0l.4-.3a1.9,1.9,0,0,0,.2-.7A5,5,0,0,0,183.1,295.9Z"/><path class="cls-20" d="M196.4,287.7l-.7-.8-.6-.5-1.2-1.2-.8-.2-.6.4a.9.9,0,0,0-.3.5,1.1,1.1,0,0,0,.2.8l1.2,1.2.6.5a2.7,2.7,0,0,0,.8.7.7.7,0,0,0,.7.2.7.7,0,0,0,.6-.3A.9.9,0,0,0,196.4,287.7Z"/><path class="cls-20" d="M192.4,296.2a15.9,15.9,0,0,0-1.3-2.2c-.1-.2-.5-.3-.7-.4l-.8.2a1.1,1.1,0,0,0-.3.7v.3a.8.8,0,0,0,.2.5l1.2,1.9a.8.8,0,0,0,.7.4h.6c.2-.2.4-.3.4-.5S192.6,296.4,192.4,296.2Z"/><path class="cls-20" d="M201.9,280.5a.5.5,0,0,0-.3-.5l-2.1-1.8a.8.8,0,0,0-.8-.2,1.3,1.3,0,0,0-.7.4,1.9,1.9,0,0,0-.2.7v.3l.3.4,2.2,1.9a1,1,0,0,0,.7.2.8.8,0,0,0,.7-.4.8.8,0,0,0,.2-.8C202,280.6,202,280.5,201.9,280.5Z"/><path class="cls-20" d="M193.7,270.5a6.1,6.1,0,0,0-1.4-.7l-1.2-.4h-.8a1.2,1.2,0,0,0-.5.5,1,1,0,0,0,.5,1.3l1.3.5,1.4.5a1,1,0,0,0,1-.6A1.1,1.1,0,0,0,193.7,270.5Z"/><path class="cls-20" d="M204.5,270.5l-.9-.5-.7-.3-1.6-.7a1.2,1.2,0,0,0-1.4.6,1.1,1.1,0,0,0,.6,1.4l1.5.7.8.3.7.3h.8l.5-.5A1,1,0,0,0,204.5,270.5Z"/><path class="cls-20" d="M211,278.4l-4.5-2.5a1.4,1.4,0,0,0-.9.1l-.5.5a1.1,1.1,0,0,0,.6,1.4c1.4.8,2.8,1.6,4.3,2.3a1,1,0,0,0,1.3-.5C211.5,279.3,211.5,278.6,211,278.4Z"/><path class="cls-20" d="M205,290.2a2.6,2.6,0,0,0-.5-.9l-.5-.6-1-1.2a1.3,1.3,0,0,0-.7-.4.8.8,0,0,0-.8.2,1.2,1.2,0,0,0-.2,1.5l1,1.2.5.6.3.3c.1.2.3.3.4.4a.7.7,0,0,0,.6.2c.2,0,.5,0,.6-.2s.3-.2.3-.4A.9.9,0,0,0,205,290.2Z"/><path class="cls-20" d="M214.6,287.7a3.8,3.8,0,0,0-1.4-1.1l-1.4-1-.8-.2-.7.4a3.1,3.1,0,0,0-.2.8,2,2,0,0,0,.4.8l1.4.9.7.5a2.6,2.6,0,0,0,.9.5,1.1,1.1,0,0,0,1.2-.4A1.1,1.1,0,0,0,214.6,287.7Z"/><path class="cls-20" d="M219.3,278.6c-1.1-.9-2.3-1.6-3.4-2.4a1.1,1.1,0,0,0-1.5.2,1.1,1.1,0,0,0,.2,1.6c1.1.7,2.2,1.6,3.4,2.3a1.2,1.2,0,0,0,.8.2.8.8,0,0,0,.7-.4A1.1,1.1,0,0,0,219.3,278.6Z"/><path class="cls-20" d="M215.7,271a.9.9,0,0,0-.6-.6l-1.7-.8-1.7-.8a1,1,0,0,0-1.3.6,1,1,0,0,0,.6,1.3l1.7.8,1.7.8a1,1,0,0,0,1.3-.6A.9.9,0,0,0,215.7,271Z"/><path class="cls-20" d="M228.6,276.3a1,1,0,0,0-.6-.5l-2.8-1.4a1.1,1.1,0,0,0-1.4.7,1.1,1.1,0,0,0,.6,1.4l2.8,1.2a1,1,0,0,0,1.4-.5A1.4,1.4,0,0,0,228.6,276.3Z"/><path class="cls-20" d="M226,270.1l-3.1-1a2.7,2.7,0,0,0-.9,0,1.5,1.5,0,0,0-.5.6,1.4,1.4,0,0,0,0,.9,1,1,0,0,0,.6.5l3.1.9a1.1,1.1,0,0,0,.8,0,.9.9,0,0,0,.6-.6A.9.9,0,0,0,226,270.1Z"/><path class="cls-20" d="M224.8,284l-.3-.4-.8-.6-.8-.6-.7-.2-.4.2q-.2,0-.3.3a.7.7,0,0,0-.2.7,1,1,0,0,0,.4.7l.8.6.7.6.4.2h.8l.3-.3a1.9,1.9,0,0,0,.2-.8Z"/><path class="cls-20" d="M236.1,275.6l-1.5-.9-1.4-.7c-.2-.2-.6-.1-.9,0a1.2,1.2,0,0,0-.5.5,1.5,1.5,0,0,0-.1.7,1.3,1.3,0,0,0,.4.7l1.4.7a11.9,11.9,0,0,0,1.5.9,1.1,1.1,0,0,0,1.4-.5A1.2,1.2,0,0,0,236.1,275.6Z"/><path class="cls-20" d="M201.8,266H199a.8.8,0,0,0-.7.2,1,1,0,0,0-.4.7,1,1,0,0,0,.2.7,1,1,0,0,0,.7.4h3a1,1,0,0,0,.8-1A.9.9,0,0,0,201.8,266Z"/><path class="cls-16" d="M236,327.9a.6.6,0,0,0-.7-.2,3.6,3.6,0,0,0-2.2,3.8.5.5,0,0,0,.5.4c.2,0,.5-.2.5-.4a3.1,3.1,0,0,1,.1-1h0a983433096703.7,983433096703.7,0,0,0,.2-.4h0l.3-.4.2-.2h.1l.4-.3h0a.1.1,0,0,1,.1-.1h.2A.5.5,0,0,0,236,327.9Z"/><path class="cls-16" d="M242.6,330.3a.6.6,0,0,0-.7.3l-.7,1.2-.6,1.3a.4.4,0,0,0,.8.4l.8-1.3.6-1.2C243,330.8,242.8,330.4,242.6,330.3Z"/><path class="cls-16" d="M244.7,330.8a.5.5,0,0,0-.7.3l-.6,1.7a.4.4,0,0,0,.3.6.5.5,0,0,0,.6-.2,12.2,12.2,0,0,0,.7-1.7A.5.5,0,0,0,244.7,330.8Z"/><path class="cls-16" d="M252.5,333.7Z"/><path class="cls-16" d="M252.5,333.4h.4a.6.6,0,0,0,.3-.7.8.8,0,0,0-.8-.3,2,2,0,0,0-.2,3.3h.4l.3-.2a.5.5,0,0,0-.1-.8h-.3c.1.1,0,0,0-.1h0Z"/><path class="cls-16" d="M252.6,334.1Z"/><polygon class="cls-16" points="252.8 333 252.8 333 252.8 333 252.8 333"/><path class="cls-6" d="M224.2,443.4l-51.6,102a3.6,3.6,0,0,1-3.3,1.9,4.5,4.5,0,0,1-1.6-.3L93.8,509.6a3.6,3.6,0,0,1-1.6-4.9l51.6-102,.4-.6a3.7,3.7,0,0,1,4.5-1l73.9,37.4A3.6,3.6,0,0,1,224.2,443.4Z"/><polygon class="cls-7" points="223.1 445.5 220.6 450.4 215.6 435 220.5 437.4 223.1 445.5"/><polygon class="cls-7" points="217.5 456.6 215 461.5 204.5 429.4 209.4 431.8 217.5 456.6"/><polygon class="cls-7" points="211.9 467.7 209.4 472.6 193.4 423.8 198.3 426.2 211.9 467.7"/><polygon class="cls-7" points="206.3 478.8 203.8 483.7 182.3 418.1 187.2 420.6 206.3 478.8"/><polygon class="cls-7" points="200.7 489.8 198.2 494.7 171.3 412.5 176.2 415 200.7 489.8"/><polygon class="cls-7" points="195.1 500.9 192.6 505.8 160.2 406.9 165.1 409.4 195.1 500.9"/><polygon class="cls-7" points="189.5 512 187 516.9 149.1 401.3 154 403.8 189.5 512"/><path class="cls-7" d="M183.9,523.1l-2.5,4.9L141.7,406.9l2.1-4.2.4-.6Z"/><polygon class="cls-7" points="178.3 534.1 175.8 539 136.1 418 138.6 413.1 178.3 534.1"/><path class="cls-7" d="M172.7,545.2v.2a3.6,3.6,0,0,1-3.3,1.9L130.5,429.1l2.5-5Z"/><polygon class="cls-7" points="163.3 544.7 158.4 542.2 124.9 440.1 127.4 435.2 163.3 544.7"/><polygon class="cls-7" points="152.2 539.1 147.3 536.6 119.3 451.2 121.8 446.3 152.2 539.1"/><polygon class="cls-7" points="141.1 533.5 136.2 531 113.7 462.3 116.2 457.4 141.1 533.5"/><polygon class="cls-7" points="130.1 527.9 125.1 525.4 108.1 473.4 110.6 468.5 130.1 527.9"/><polygon class="cls-7" points="119 522.3 114.1 519.8 102.5 484.4 105 479.5 119 522.3"/><polygon class="cls-7" points="107.9 516.7 103 514.2 96.9 495.5 99.4 490.6 107.9 516.7"/><path class="cls-3" d="M199.7,494.9,178,485l-16.6-9.4a40.8,40.8,0,0,0,16.8-6.4c1.5-1,2.9-2.4,2.9-4.3a3.5,3.5,0,0,0-2.6-3.6c-1.9-.5-3.9.2-5.7.8a28.7,28.7,0,0,0-5.7,2.4,32.4,32.4,0,0,0-4.7,2.8c2.1-4.4,4.2-8.7,6.4-13.1s4.6-7.2,7-10.8c4.9-7.6,9.9-15.1,14.9-22.6.5-.6-.5-1.4-1-.7-5.3,7.8-10.6,15.8-15.9,23.7l.5-.9c4-8.2,8-16.4,12.1-24.6.4-.7-.8-1.2-1.2-.5s-.1.2-.1.3a.9.9,0,0,0-1,.4c-7.3,14.2-14.5,28.6-21.8,42.9a4.1,4.1,0,0,1-.5.9l-4.9,7.9a54.5,54.5,0,0,0-1.2-8.1c4.1-7.3,8.3-14.5,12.6-21.7s9.5-15.2,14.5-22.7c.5-.8-.6-1.6-1.1-.9q-13.2,19.9-25.1,40.6l-1.4,2.5c-.6-1.9-1.2-3.8-1.9-5.6a14.8,14.8,0,0,0-2.9-5.2,4.3,4.3,0,0,0-4.4-1.4,4.7,4.7,0,0,0-3.1,3.2c-1.3,3.7,1.3,7.6,3.1,10.6a80,80,0,0,0,4.5,6.8l-.5.9-13.9-7.9-17.4-9.8c-.7-.4-1.2.8-.5,1.2,10.3,6,20.7,11.9,31.1,17.8l-.6,1.1-15.5-7-18.7-8.5c-.7-.4-1.2.8-.5,1.1l34,15.7-1.2,2.2-14.2-7.7L115,458.1c-.7-.4-1.1.7-.5,1.1l31.6,17.2c-4.1,7.8-8.1,15.6-11.9,23.4s-7.8,16.3-11.4,24.5a.8.8,0,0,0,1.4.6c0-.1.1-.2.1-.3s.9.8,1.2.2q12.1-20.5,24.6-41l2.4-3.9.3.2-12.1,24c-4.1,8.1-8.3,16.1-12.2,24.2-.4,1,1,1.5,1.5.6,3.8-7,7.3-14.3,10.9-21.5l8.4-16.4c-2.3,4.7-4.5,9.5-6.8,14.2-3.9,8.3-7.7,16.5-11.5,24.8a.8.8,0,1,0,1.4.7c6.9-14.7,13.7-29.4,20.7-44,.5-1.1,1-2.2,1.6-3.3-.7,9,1.4,18.4,6.5,25.8.5.6,1.6,0,1.2-.7a45.5,45.5,0,0,1-5.8-15.5,41.2,41.2,0,0,1-.3-11.1h0A45.9,45.9,0,0,0,167,504.4a33.9,33.9,0,0,0,6.3,5.7.7.7,0,0,0,.9-1.1,80.7,80.7,0,0,1-6.7-6.4,40,40,0,0,1-5.2-7.7,40.9,40.9,0,0,1-4.4-12.1l18.3,9.9,17.5,9.5c.9.5,1.5-.9.6-1.4l-36.8-19.9-.3-2.8c.1-.3.3-.5.4-.8l18.7,8.5,2.6,1.5,17.4,9.9c.8.5,1.5-1,.6-1.5l-4-2.2,6.2,2.8C199.9,496.7,200.5,495.3,199.7,494.9Zm-48.4-28.1a36.2,36.2,0,0,1-2.2-3.2,50.9,50.9,0,0,1-3-5,16.3,16.3,0,0,1-2-4.9,4.2,4.2,0,0,1,1.5-4.1c1.5-1.2,3.1-.3,4.1,1a17.2,17.2,0,0,1,2.4,4.9,47.2,47.2,0,0,1,1.8,5.3,3,3,0,0,0,.2,1ZM137.9,501c-4.3,7.2-8.6,14.4-12.7,21.7,6.1-13.8,12.7-27.5,19.7-40.9l2.5-4.6,3.8,2C146.7,486.4,142.3,493.7,137.9,501ZM152,477.9l-3.9-2.1,1.3-2.3,4.2,1.9C153.1,476.3,152.5,477.1,152,477.9Zm2.4-3.7-4.4-2,.6-.9,4,2.2a.1.1,0,0,0,.1.1Zm-2.1-6c.7-1.4,1.5-2.8,2.3-4.2a57.1,57.1,0,0,1,.9,8.2C154.4,470.9,153.3,469.6,152.3,468.2Zm1,10.4,1.5-2.3-1.3,2.4Zm5.8-4.3H159c.7-1.5,1.5-3,2.2-4.4a39.3,39.3,0,0,1,4.2-2.9,35.7,35.7,0,0,1,9.9-4.1c1.5-.4,4.2-.5,4.4,1.7s-1.8,3.1-3.2,4a43.8,43.8,0,0,1-9.7,4.2A49.9,49.9,0,0,1,159.1,474.3Zm-.8,1.7h.5l2.8,1.6Z"/><path class="cls-8" d="M750,4.6V439.4a238.7,238.7,0,0,1-91,24,3.5,3.5,0,0,1-2.8-5.6c12.6-15.6,25.1-31.1,38.6-45.8a3.4,3.4,0,0,0-3.7-5.5A193.5,193.5,0,0,1,612.9,419a3.4,3.4,0,0,1-1.7-6.3c22-13.9,43.8-28.3,63.2-45.7s33.9-36.4,44.1-59a3.4,3.4,0,0,0-5.1-4.1,158.8,158.8,0,0,1-71.6,29.5,3.4,3.4,0,0,1-2.9-5.7,534.3,534.3,0,0,0,48.7-57.5c8.5-11.5,15.9-23.1,18.9-36.7a3.4,3.4,0,0,0-4.9-3.7,160.7,160.7,0,0,1-75.3,19.1,3.4,3.4,0,0,1-1.4-6.4c35-16.6,64.2-44.9,83.3-78.8,1.7-2.9-1.6-6.2-4.6-4.7a116.9,116.9,0,0,1-59.4,13.6,3.4,3.4,0,0,1-1.6-6.4C700,132.1,740.8,70.9,750,4.6Z"/><path class="cls-3" d="M750,418.3a182.5,182.5,0,0,1-35.3,10.9,3.3,3.3,0,0,1-3.5-4.9c11-18,17.1-38,21.1-58.8a3.2,3.2,0,0,0-5.2-3.2,87.1,87.1,0,0,1-30.3,15.1,3.3,3.3,0,0,1-3.7-4.7c8.8-16.7,18.3-33.1,26.2-50.3,2.2-4.8,23.8-45.2,11.1-45.2-3.4,0-10.4,6.5-13.4,8.3-8.1,5.1-16.5,9.8-26,11.7a3.3,3.3,0,0,1-3.2-5.2,254.3,254.3,0,0,0,39.4-72.1,3.3,3.3,0,0,0-4.1-4.2,100.7,100.7,0,0,1-33.6,4.6,3.3,3.3,0,0,1-1.4-6.2c23.2-12.7,49.6-81.3,43.8-78.1-10.6,5.9-19.2,6.2-30.4,5.8a1.2,1.2,0,0,1-.7-2.1c24.8-18.3,39.6-48.8,49.2-78.6Z"/><path class="cls-21" d="M701.5,480.6l-14-17.3a39.2,39.2,0,0,1-7.6-18.2l-3.6-25.2a5.7,5.7,0,0,1,3.1-5.9c1.1,11.7,4.4,38.6,11.7,45.2l11.3,13.2a16.7,16.7,0,0,1,1.5,20A13.3,13.3,0,0,0,701.5,480.6Z"/><path class="cls-21" d="M588.8,405.4a12.2,12.2,0,0,0-9,7.1c2-10.1,14.7-11.1,14.7-11.1l24-3.9a34,34,0,0,0,5.6,2.1Z"/><path class="cls-21" d="M691.2,388.6l-35.3,5.8a39.4,39.4,0,0,0,4.5-3.6l31.7-5.6a11.9,11.9,0,0,1,10.5,3.1,9.4,9.4,0,0,1,2.7,3.8,11.2,11.2,0,0,1-.8,10.4,11.6,11.6,0,0,0,.1-4.9A11.7,11.7,0,0,0,691.2,388.6Z"/><path class="cls-21" d="M671.4,357.6a37.4,37.4,0,0,0-42.9-30.8,42.7,42.7,0,0,0-5.4,1.3,33.2,33.2,0,0,1,9.1-2.7,36.6,36.6,0,0,1,29.4,64.1A37.1,37.1,0,0,0,671.4,357.6Z"/><path class="cls-22" d="M589,407l39.4-6.4a.8.8,0,0,0,.7-.8v-.2a.7.7,0,0,0-.7-.6,35.9,35.9,0,1,1,23.2-3.9,1,1,0,0,0-.4.9h0a1,1,0,0,0,.9.6l39.4-6.5a10,10,0,0,1,11.5,7.7,9.9,9.9,0,0,1-8.1,11.6l-14.1,2.4a7.3,7.3,0,0,0-6.1,8.3l3.6,25.1a40.2,40.2,0,0,0,8,19l13.9,17.4a11.5,11.5,0,0,1-17.7,14.6l-28.8-33.9a3.4,3.4,0,0,0-3.1-1.2,3.3,3.3,0,0,0-2.6,2.1l-17.4,44a9.4,9.4,0,0,1-5.8,5.6,8.9,8.9,0,0,1-7.9-1.6c-5.4-3.9-7.8-12-5.6-18.2l6.5-17.5a41.1,41.1,0,0,0,1.4-20.6l-4.6-25a7.4,7.4,0,0,0-8.4-5.9L592,426.5a10,10,0,0,1-7.5-1.8,10.3,10.3,0,0,1-3.9-6.7A10.1,10.1,0,0,1,589,407Z"/><path class="cls-21" d="M579,418.2a11.6,11.6,0,0,0,4.5,7.8,12,12,0,0,0,8.8,2.1l14.1-2.3a5.8,5.8,0,0,1,6.6,4.5l4.6,25a38.1,38.1,0,0,1-1.4,19.8l-6.4,17.5c-2.5,6.8.2,15.8,6.1,20a11,11,0,0,0,8.2,2.1l1.2-.2a10.8,10.8,0,0,0,6.8-6.6l17.4-44a1.6,1.6,0,0,1,1.3-1.1,2,2,0,0,1,1.7.6l28.8,34a13,13,0,0,0,18.4,1.5,12.7,12.7,0,0,0,4.2-6.5,13.3,13.3,0,0,0-2.4-11.8l-14-17.3a39.2,39.2,0,0,1-7.6-18.2l-3.6-25.2a5.7,5.7,0,0,1,3.1-5.9,4.9,4.9,0,0,1,1.6-.5l14.2-2.4a11.4,11.4,0,0,0,7.6-4.8,10.8,10.8,0,0,0,1.7-3.8,11.6,11.6,0,0,0,.1-4.9,11.7,11.7,0,0,0-13.4-9l-35.3,5.8a39.4,39.4,0,0,0,4.5-3.6l1.2-1.3a37.4,37.4,0,0,0-33.1-62.7,42.7,42.7,0,0,0-5.4,1.3,37.4,37.4,0,0,0-4.6,69.4,34,34,0,0,0,5.6,2.1l-35.3,5.8a11.7,11.7,0,0,0-9.8,12.8Zm13,8.3a10,10,0,0,1-7.5-1.8,10.3,10.3,0,0,1-3.9-6.7,10.1,10.1,0,0,1,8.4-11l39.4-6.4a.8.8,0,0,0,.7-.8v-.2a.7.7,0,0,0-.7-.6,35.9,35.9,0,1,1,23.2-3.9,1,1,0,0,0-.4.9h0a1,1,0,0,0,.9.6l39.4-6.5a10,10,0,0,1,11.5,7.7,9.9,9.9,0,0,1-8.1,11.6l-14.1,2.4a7.3,7.3,0,0,0-6.1,8.3l3.6,25.1a40.2,40.2,0,0,0,8,19l13.9,17.4a11.5,11.5,0,0,1-17.7,14.6l-28.8-33.9a3.4,3.4,0,0,0-3.1-1.2,3.3,3.3,0,0,0-2.6,2.1l-17.4,44a9.4,9.4,0,0,1-5.8,5.6,8.9,8.9,0,0,1-7.9-1.6c-5.4-3.9-7.8-12-5.6-18.2l6.5-17.5a41.1,41.1,0,0,0,1.4-20.6l-4.6-25a7.4,7.4,0,0,0-8.4-5.9Z"/><path class="cls-18" d="M649.4,357.5c4.2-.7,4.6,5.9.5,6.6S645.3,358.2,649.4,357.5Z"/><path class="cls-18" d="M618.1,362.7c4.2-.7,4.6,5.8.5,6.5S614,363.3,618.1,362.7Z"/><path class="cls-23" d="M623.8,377.9c0-2.8,2.6-4,4.9-3.9a32.6,32.6,0,0,1,5.3.9h0a4.8,4.8,0,0,0,3.7-.6h0c1.6-.8,3-2,4.7-2.6s5.1-.4,5.9,2.2a3.9,3.9,0,0,1,0,2.6c-.7,2.1-2.5,3.5-4.4,4.6h-.1a19.5,19.5,0,0,1-13.4,2.2h-.1c-2.1-.4-4.3-1.1-5.6-2.9A3.8,3.8,0,0,1,623.8,377.9Z"/><path class="cls-24" d="M623.8,377.9c0-2.8,2.6-4,4.9-3.9a32.6,32.6,0,0,1,5.3.9h0a4.8,4.8,0,0,0,3.7-.6h0c1.6-.8,3-2,4.7-2.6s5.1-.4,5.9,2.2a3.9,3.9,0,0,1,0,2.6c-.7,2.1-2.5,3.5-4.4,4.6h-.1a19.5,19.5,0,0,1-13.4,2.2h-.1c-2.1-.4-4.3-1.1-5.6-2.9A3.8,3.8,0,0,1,623.8,377.9Z"/><path class="cls-25" d="M650,457.7a6.9,6.9,0,0,1,3.7.6,13.4,13.4,0,0,1,5.6,4.1l26.6,32.9s6.6,5,11.3.1.5-10.7.5-10.7L681.9,464c-5.4-5.8-6.1-13.9-6.1-13.9L671.4,422c-.7-2.8-.6-8.7,1.5-10.9s5.3-3.4,8.3-4.1a33.4,33.4,0,0,1,7.7-1.2c3.7-.3,8.6-1.5,9-5.3a4.7,4.7,0,0,0-2.6-4.6c-2.8-1.7-5.9-1.2-8.9-.7l-24.9,3.9c-3.4.5-7.3,2-10.5.6a4.4,4.4,0,0,1-2.1-6.2c1.1-2.3,3.2-3.6,5.1-5.2a31.4,31.4,0,0,0-8.8-54.2s-4.1-3.2-15.8-1.7h-.9c-11.6,2.4-14.5,6.8-14.5,6.8a31.5,31.5,0,0,0,9,54.1c2.3.9,4.8,1.5,6.6,3.3a4.5,4.5,0,0,1-.1,6.6c-2.6,2.3-6.8,2.1-10.1,2.7l-24.8,4.3c-3,.5-6.2,1.1-8.3,3.5a5,5,0,0,0-.9,5.2c1.5,3.5,6.6,3,10.2,2.1a48.3,48.3,0,0,1,7.6-1.3c3.1-.2,6.4-.2,9.2,1.2s4.7,7,4.9,9.9l4.9,28s1.9,7.9-1.3,15.1l-8.4,24.7s-2.1,6.9,3.9,10,10.7-3.7,10.7-3.7l14.7-39.7a13.3,13.3,0,0,1,3.9-5.7,8,8,0,0,1,3.4-1.8Z"/><path class="cls-6" d="M635.3,408.1a3.4,3.4,0,0,0-1.3,3.7,3.6,3.6,0,0,0,3.1,2.4,2.2,2.2,0,0,0,1.8-1.4,2,2,0,0,0,.8,1.5,3.3,3.3,0,0,0,3.7.1,3.6,3.6,0,0,0,1.5-3.6,2.6,2.6,0,0,0,1.9-.7,2.4,2.4,0,0,0,.6-2,3.1,3.1,0,0,0-1.1-1.8,11.9,11.9,0,0,0-2.5-1.3,2.1,2.1,0,0,0-.7-2.7,2.2,2.2,0,0,0-2.8.4,2,2,0,0,0-.4,1.5,3.2,3.2,0,0,0-5.4,1.5A2.1,2.1,0,0,0,635.3,408.1Z"/><path class="cls-6" d="M638.4,427.5a3.3,3.3,0,0,0,1.9,6,1.9,1.9,0,0,0,1.8-1.3,1.9,1.9,0,0,0,.8,1.5,3.5,3.5,0,0,0,3.7,0,3.8,3.8,0,0,0,1.5-3.6,2.3,2.3,0,0,0,1.9-.7,2.4,2.4,0,0,0,.6-2,3.1,3.1,0,0,0-1.2-1.8,13.6,13.6,0,0,0-2.4-1.3,2.1,2.1,0,0,0-.7-2.7,2.2,2.2,0,0,0-2.8.5,2.4,2.4,0,0,0-.5,1.4,3.1,3.1,0,0,0-3.1-.8,3.2,3.2,0,0,0-2.2,2.3A2.3,2.3,0,0,0,638.4,427.5Z"/><path class="cls-6" d="M641.6,446.8a3.5,3.5,0,0,0-1.2,3.7,3.6,3.6,0,0,0,3,2.4,2.5,2.5,0,0,0,1.9-1.4,1.7,1.7,0,0,0,.7,1.5,3.5,3.5,0,0,0,3.8.1,4,4,0,0,0,1.5-3.7,2.3,2.3,0,0,0,1.9-.7,2.2,2.2,0,0,0,.6-1.9,3,3,0,0,0-1.2-1.9,13.4,13.4,0,0,0-2.4-1.2,2.3,2.3,0,0,0-.7-2.8,2.3,2.3,0,0,0-2.8.5,1.9,1.9,0,0,0-.5,1.4,3.4,3.4,0,0,0-3.1-.7,3.2,3.2,0,0,0-2.2,2.2A2.3,2.3,0,0,0,641.6,446.8Z"/><path class="cls-7" d="M375,499.3v-153s-89.5-22.8-87,153Z"/><path class="cls-7" d="M375,499.3v-153s89.5-22.8,87,153Z"/><rect class="cls-26" x="370.5" y="409.6" width="8.9" height="89.69" transform="translate(750 908.9) rotate(180)"/><circle class="cls-5" cx="375" cy="481.7" r="2.2"/><circle class="cls-5" cx="374.8" cy="493.4" r="2.2"/><path class="cls-10" d="M419.3,355.9c25.4,8.3,47.5,27.5,57.7,52.3,5.7,13.9,7.7,29.8,3.7,44.3s-14.3,27.7-28.4,33.3c-17.5,6.9-38.8,1-51.5-12.9,2.1-1.3,4.2-3.7,4.3-6.2,10.9,6.2,26,4.6,35.7-3.3S455.6,442.5,455,430s-6.6-24.5-15.2-33.6-19.8-15.6-31.5-20C408.9,368.1,413,361.4,419.3,355.9Z"/><path class="cls-6" d="M407.3,468a8.2,8.2,0,0,1-2.2,7.7,9.4,9.4,0,0,1-7.7,2.4,8.7,8.7,0,0,1-6.6-4.3,7.5,7.5,0,0,1,.1-7.8C394.7,460.4,405.5,461,407.3,468Z"/><path class="cls-15" d="M370.5,470.7c-1.9-.8-10-8.1-4-8.9,1-.1,2.8,1.6,3.6,2.1,2.9,2,6,4.6,9.6,5.2l2.1.4a2.2,2.2,0,0,1,1.3,1.5C383.4,474.1,372,471.4,370.5,470.7Z"/><path class="cls-15" d="M373.2,469.8c-1.9-.8-9.9-8.1-4-8.9,1-.2,2.8,1.6,3.6,2.1,2.9,2,6,4.6,9.6,5.2l2.1.4a2.2,2.2,0,0,1,1.3,1.5C386.2,473.2,374.8,470.5,373.2,469.8Z"/><path class="cls-15" d="M382.5,470.8c-3.4-1.7-6.9-3.5-9.5-6.2-.8-.9-2.7-3.9-.4-4.4a3.2,3.2,0,0,1,2.3.6c3.9,2.3,9.6,7.4,14.2,3.4s-1.2-7.7,1.8-11.2a4.8,4.8,0,0,1,5.4-1.2c-.4,4.2-2.6,12.2,2.2,14.8,1.3,0,2.4,1.8,2.3,3.2a4.2,4.2,0,0,1-2.4,3.1,13,13,0,0,1-4,.9C390.3,474.3,386.2,472.7,382.5,470.8Z"/><path class="cls-10" d="M330.7,355.9c-25.4,8.3-47.5,27.5-57.7,52.3-5.7,13.9-7.7,29.8-3.7,44.3s14.3,27.7,28.4,33.3c17.5,6.9,38.8,1,51.5-12.9-2.1-1.3-4.2-3.7-4.3-6.2-10.9,6.2-26,4.6-35.7-3.3S294.4,442.5,295,430s6.6-24.5,15.2-33.6,19.8-15.6,31.5-20C341.1,368.1,337,361.4,330.7,355.9Z"/><path class="cls-15" d="M424.2,329.2c0,19.2-22,34.8-49.2,34.8s-49.2-15.6-49.2-34.8a27.1,27.1,0,0,1,2.7-11.6c6.8-13.5,25-23.3,46.5-23.3s38,8.8,45.4,21.4A25.7,25.7,0,0,1,424.2,329.2Z"/><path class="cls-18" d="M406.3,326.6h0Z"/><path class="cls-18" d="M408.2,326.5a5,5,0,0,0-1.3-2.6,3.8,3.8,0,0,0-2.8-1.1,4.5,4.5,0,0,0-2.9,1.2,4.3,4.3,0,0,0-1.4,3.2,1,1,0,0,0,1,.8.8.8,0,0,0,.8-.9v-.2a.4.4,0,0,0,.1-.3v-.2h0c.1-.1.1-.1.1-.2a.3.3,0,0,0,.1-.2h.1l.3-.5h.4l.4-.3h1.6l.5.2h.2l.2.2h.1l.3.4v.2h0l.2.5h0v.6h0a.4.4,0,0,1-.1.3h0a1.9,1.9,0,0,0-.2.8.9.9,0,0,0,.4.9c.2.1.7.2.9,0a1.3,1.3,0,0,0,.6-.7l.3-.8A3.8,3.8,0,0,0,408.2,326.5Z"/><path class="cls-18" d="M345,326.6h0Z"/><path class="cls-18" d="M343.1,328l.3.8a1.8,1.8,0,0,0,.5.7,1.2,1.2,0,0,0,1,0,.9.9,0,0,0,.4-.9,1.9,1.9,0,0,0-.2-.8H345v-.3h0v-.6h0l.2-.5h0v-.2l.3-.4h.1v-.2h.3l.5-.2h.8c0,.1.3.1.1.1h.7l.4.3h.3l.4.5h0c.1.1.1.2.2.2v.2h0a.3.3,0,0,1,.1.2v.5a1,1,0,0,0,.9.9.9.9,0,0,0,.9-.8,3.9,3.9,0,0,0-1.3-3.2,4.5,4.5,0,0,0-2.9-1.2,3.7,3.7,0,0,0-2.8,1.1,5,5,0,0,0-1.3,2.6A3.8,3.8,0,0,0,343.1,328Z"/><path class="cls-27" d="M420.4,315.7c-42.1-17.9-81-3-91.9,1.9,6.8-13.5,25-23.3,46.5-23.3S413,303.1,420.4,315.7Z"/><path class="cls-6" d="M342.4,315.3a5.7,5.7,0,0,0-2.6,1.3c-1.8,2-.3,4.8,2.4,3.4a8.8,8.8,0,0,1,4.7-1.6c1.5,0,4.3,2.3,5.3-.2S346.6,314.2,342.4,315.3Z"/><path class="cls-6" d="M408.7,315.3a5.7,5.7,0,0,1,2.6,1.3c1.8,2,.2,4.8-2.4,3.4a8.9,8.9,0,0,0-4.8-1.6c-1.4,0-4.3,2.3-5.2-.2S404.5,314.2,408.7,315.3Z"/><path class="cls-6" d="M444.4,368.3c-.2-4.6-2.3-8.7-4.3-12.8a146.9,146.9,0,0,1-6.4-14c-1.6-4.3-3.6-8.8-4.5-13.4s-.8-5.8-2.3-8.8A26.4,26.4,0,0,0,420,311c-1.9-1.5-4.3-2.2-6.4-3.1a.2.2,0,0,0-.2.4c7.8,7.4,13.2,21.5,7.1,31.1a18.8,18.8,0,0,1-8,6.7,35.8,35.8,0,0,1-14.6,4.3h-7.3a59.9,59.9,0,0,1-7.4-1,22.4,22.4,0,0,1-6.3-2.2,5.1,5.1,0,0,0-1.6-.9h-.2a7,7,0,0,0-1.7.9,21.8,21.8,0,0,1-6.2,2.2,59.9,59.9,0,0,1-7.4,1h-7.3c-5.2-.2-10.1-2-14.7-4.3a19.2,19.2,0,0,1-7.6-6.2,11.4,11.4,0,0,1-1.5-2.9,30,30,0,0,1-1.5-3.2,19,19,0,0,1,2.5-16.2,24.9,24.9,0,0,1,5.9-6.2,29,29,0,0,1,3.6-2.5c.9-.5,2.4-.8,2.6-1.9a21.9,21.9,0,0,0-12.4,3.6c-4.5,3.1-5.2,6.9-6.4,11.9a176.1,176.1,0,0,1-6.3,19,146.9,146.9,0,0,1-6.4,14c-2,4.1-4.1,8.2-4.4,12.8s-.1,11.4,4.4,14.4a16.4,16.4,0,0,0,8.3,2.5,7,7,0,0,0,2.5-.1.3.3,0,0,1,.3.3,5.9,5.9,0,0,1-.5,2.3,37.8,37.8,0,0,0-2,8.7,20.7,20.7,0,0,0,5.9,16.1,44.2,44.2,0,0,0,7.3,5.6,24.8,24.8,0,0,0,5.8,2.5c2.2.7,5.4,1.3,7.6.3s3.2-2.9,4.4-4.6c.1-.2.4-.1.5.1a14.1,14.1,0,0,1,.1,2.9c0,3.4-.4,7.1.3,10.5a20.8,20.8,0,0,0,3.7,7.8,12.2,12.2,0,0,0,6.3,3.6c4.5,1.4,9.7,2.9,13.9-.1l.5-.4.5.4c4.2,3,9.4,1.5,13.9.1a12.2,12.2,0,0,0,6.3-3.6,20.8,20.8,0,0,0,3.7-7.8c.7-3.4.3-7.1.3-10.5a14.1,14.1,0,0,1,.1-2.9c.1-.2.4-.3.5-.1,1.2,1.7,2.6,3.8,4.4,4.6s5.4.4,7.6-.3a24.8,24.8,0,0,0,5.8-2.5,48.8,48.8,0,0,0,7.3-5.6,20.7,20.7,0,0,0,5.9-16.1,37.8,37.8,0,0,0-2-8.7,5.9,5.9,0,0,1-.5-2.3.3.3,0,0,1,.3-.3,7,7,0,0,0,2.5.1,15.8,15.8,0,0,0,8.2-2.5C444.6,379.7,444.7,373.2,444.4,368.3Z"/><path class="cls-13" d="M377.2,344.8c-.6-.1-1.2.1-1.8-.3a2.2,2.2,0,0,1-.9-1.7,18.2,18.2,0,0,1,.3-5.2c.4-3.8.8-7.5,1.3-11.3.1-1.6-2.3-2.1-2.5-.5-.5,4.8-1.1,9.6-1.6,14.3-.3,2-.3,4.1,1.1,5.7s3.4,2.4,4.8.9A1.2,1.2,0,0,0,377.2,344.8Z"/><path class="cls-13" d="M358.4,338.2c0,2.7-5.7,4.9-12.8,4.9s-12.8-2.2-12.8-4.9,5.7-4.9,12.8-4.9S358.4,335.5,358.4,338.2Z"/><path class="cls-13" d="M391.6,338.2c0,2.7,5.7,4.9,12.8,4.9s12.8-2.2,12.8-4.9-5.7-4.9-12.8-4.9S391.6,335.5,391.6,338.2Z"/><polygon class="cls-5" points="391.1 464.5 358.9 464.5 352.8 406.4 397.2 406.4 391.1 464.5"/><rect class="cls-8" x="350" y="401.1" width="49.9" height="11.15"/><rect class="cls-7" x="371.3" y="401.1" width="6.8" height="63.37"/><path class="cls-7" d="M374.8,403.9a37.5,37.5,0,0,0-17.2-11.5c-1.2,1.8-2.5,3.1-3.8,5C361.1,399.6,368,400.5,374.8,403.9Z"/><path class="cls-7" d="M371.2,403.9a37.5,37.5,0,0,1,17.2-11.5c1.2,1.8,2.5,3.1,3.8,5C384.9,399.6,378,400.5,371.2,403.9Z"/><path class="cls-6" d="M342.7,468a8.2,8.2,0,0,0,2.2,7.7,9.4,9.4,0,0,0,7.7,2.4,8.7,8.7,0,0,0,6.6-4.3,7.5,7.5,0,0,0-.1-7.8C355.3,460.4,344.5,461,342.7,468Z"/><path class="cls-15" d="M379.5,470.7c1.9-.8,10-8.1,4-8.9-1-.1-2.8,1.6-3.6,2.1-2.9,2-6,4.6-9.6,5.2l-2.1.4a2.2,2.2,0,0,0-1.3,1.5C366.6,474.1,378,471.4,379.5,470.7Z"/><path class="cls-15" d="M376.8,469.8c1.9-.8,9.9-8.1,4-8.9-1-.2-2.8,1.6-3.6,2.1-2.9,2-6,4.6-9.6,5.2l-2.1.4a2.2,2.2,0,0,0-1.3,1.5C363.8,473.2,375.2,470.5,376.8,469.8Z"/><path class="cls-15" d="M367.5,470.8c3.4-1.7,6.9-3.5,9.5-6.2.8-.9,2.7-3.9.4-4.4a3.2,3.2,0,0,0-2.3.6c-3.9,2.3-9.6,7.4-14.2,3.4s1.2-7.7-1.8-11.2a4.8,4.8,0,0,0-5.4-1.2c.4,4.2,2.6,12.2-2.2,14.8-1.3,0-2.4,1.8-2.3,3.2a4.2,4.2,0,0,0,2.4,3.1,13,13,0,0,0,4,.9C359.7,474.3,363.8,472.7,367.5,470.8Z"/><path class="cls-7" d="M417.2,302.3s-41.5-6.9-58.9-5.1l-9.9,1.3q-8.1,1.2-15.9,3c-6.6,1.6-6,1.2-7.4-5-2.1-9.2-7.2-20.1-15.5-25.3-4.2-2.6-16.2-7.8-18.7-.4a24,24,0,0,1,3.1-6.2c3.8-5.5,9.5-9.2,15.7-12.1,32.5-15.4,82.5-9.5,100.1,25.1C413.1,284.1,415.5,295.3,417.2,302.3Z"/><path class="cls-10" d="M358.2,297.2l-9.8,1.3q-8.1,1.2-15.9,3c-6.6,1.6-6,1.2-7.4-5-2.1-9.2-7.2-20.1-15.5-25.3-4.2-2.6-16.2-7.8-18.7-.4.5-6.5,5.2-3.2,6.5-5.1,9.2-.5,15.2-.7,24.1,1.9a59.8,59.8,0,0,1,12.6,5.2c4.1,2.3,8.3,3.1,13,4.1s.4,5.2,4.1,7.4c1.7,1,3.7,1.1,5.6,1.4s4,.7,5.4,2,1.7,4,.2,5.2a8.6,8.6,0,0,1-2.8,1.1C358.1,294.5,357.4,295.7,358.2,297.2Z"/><path class="cls-6" d="M325.5,314.6s45.6-24.8,95.5-3.1a52.3,52.3,0,0,0,.9-6.9,12,12,0,0,0-7.6-12.1c-14.2-5.4-46.6-13.9-85.6,1.7a10.8,10.8,0,0,0-6.7,9.9C322,307.6,322.7,311.7,325.5,314.6Z"/><circle class="cls-6" cx="287.9" cy="270.8" r="10.7"/><path class="cls-10" d="M374.3,275.6c.1,1.8,2.3.5,3.3.5a48.7,48.7,0,0,1,15.5,3.2c.9.3,2.1.4,2.4-.5s-.6-1.2-1.2-1.5l-4.1-2.4c2.2-4.1-10.7-2.4-12.6-1.9s-3.2.7-3.3,2.1Z"/><path class="cls-28" d="M342.6,360.8a.9.9,0,0,0-1.1.8c-.6,1.9-1.2,3.9-1.7,5.9a.9.9,0,0,0,.7,1.1,1,1,0,0,0,1.1-.7c.6-2,1.2-4,1.7-6C343.5,361.4,343,360.9,342.6,360.8Z"/><path class="cls-28" d="M335.7,352.3a1.1,1.1,0,0,0-1.5.6,25.9,25.9,0,0,0-1.4,2.9,1.1,1.1,0,1,0,2,1l1.4-3A1.3,1.3,0,0,0,335.7,352.3Z"/><path class="cls-28" d="M324,358.7a1,1,0,0,0-1.3.5c-.5,1-1,1.9-1.4,2.9a1.1,1.1,0,0,0,.5,1.4,1,1,0,0,0,1.3-.5c.5-1,1-2,1.4-3A1,1,0,0,0,324,358.7Z"/><path class="cls-28" d="M331,373.1a1.2,1.2,0,0,0-.5-.5.9.9,0,0,0-1.2.4l-.6,1.6a13.4,13.4,0,0,0-.7,1.8,1,1,0,0,0,.6,1,1,1,0,0,0,1.1-.4,11.1,11.1,0,0,0,.7-1.6l.6-1.6A.8.8,0,0,0,331,373.1Z"/><path class="cls-28" d="M333.3,386.6a1,1,0,0,0-.5-.6.9.9,0,0,0-.7,0,1.5,1.5,0,0,0-.6.5l-.8,2.6c-.1.3-.2.5-.1.7a1,1,0,0,0,.5.6,1.1,1.1,0,0,0,.8,0,.8.8,0,0,0,.5-.5l.9-2.6A.8.8,0,0,0,333.3,386.6Z"/><path class="cls-28" d="M359.3,357.3a1,1,0,0,0-1,.8c-.3,1-.5,2-.7,2.9s.2,1.1.7,1.1a.9.9,0,0,0,1.1-.7c.2-1,.5-2,.7-3A1,1,0,0,0,359.3,357.3Z"/><path class="cls-28" d="M353.1,381.3a1,1,0,0,0-1.3-.3c-.2.2-.4.4-.4.6a11,11,0,0,0-.2,1.8v.4l.2.3a.7.7,0,0,0,.6.4.9.9,0,0,0,.7-.1,1,1,0,0,0,.4-.7c.1-.5.1-1.1.2-1.7A.8.8,0,0,0,353.1,381.3Z"/><path class="cls-28" d="M376.2,359.6l-.7-.2a.6.6,0,0,0-.6.3,1.1,1.1,0,0,0-.3.7v2.3a.8.8,0,0,0,.4.6.5.5,0,0,0,.6.2.9.9,0,0,0,.7-.3,1.4,1.4,0,0,0,.2-.7v-2.3C376.5,360,376.3,359.8,376.2,359.6Z"/><path class="cls-28" d="M379.1,377.4a.9.9,0,0,0-1-.9,1.1,1.1,0,0,0-.9,1c.1,1.4.1,2.7.3,4.1a.9.9,0,0,0,.9.8,1,1,0,0,0,.9-1C379.3,380.1,379.2,378.7,379.1,377.4Z"/><path class="cls-28" d="M390.9,357.8c-.1-.5-.6-1-1.1-.9a1.1,1.1,0,0,0-.9,1.1c.1.9.2,1.8.4,2.8a.9.9,0,0,0,.3.6.7.7,0,0,0,.7.2,1,1,0,0,0,.9-1Z"/><path class="cls-28" d="M402.8,383.7l-.4-2.3a.9.9,0,0,0-.3-.7.8.8,0,0,0-.8-.2.7.7,0,0,0-.6.3,1.1,1.1,0,0,0-.3.8l.4,2.2a.9.9,0,0,0,.3.7.8.8,0,0,0,.8.2.7.7,0,0,0,.6-.3A1.1,1.1,0,0,0,402.8,383.7Z"/><path class="cls-28" d="M411.3,361.7l-.9-2.8a1,1,0,0,0-1.3-.6,1.1,1.1,0,0,0-.6,1.3l.9,2.8a1,1,0,0,0,1.3.6A1,1,0,0,0,411.3,361.7Z"/><path class="cls-28" d="M416.4,395.1a.7.7,0,0,0-.4-.5.9.9,0,0,0-.7,0,.8.8,0,0,0-.5.5,1.5,1.5,0,0,0-.1.7l.9,3.8c.1.4.7.6,1.1.6a.9.9,0,0,0,.6-1C417.1,397.9,416.7,396.5,416.4,395.1Z"/><path class="cls-28" d="M407.8,406.6a1,1,0,1,0-1.9.1,21.1,21.1,0,0,0,.2,2.6.9.9,0,0,0,.3.7l.7.2a.7.7,0,0,0,.6-.3,1.1,1.1,0,0,0,.3-.7A21.1,21.1,0,0,0,407.8,406.6Z"/><path class="cls-28" d="M340.3,401a1.1,1.1,0,0,0-1.1.8c-.2,1.3-.5,2.6-.7,4a.8.8,0,0,0,.7,1,.9.9,0,0,0,1.1-.7c.2-1.3.4-2.7.7-4A1,1,0,0,0,340.3,401Z"/><path class="cls-28" d="M371.3,392.1a.9.9,0,0,0-1.1-.9.8.8,0,0,0-.8,1c0,1,.1,1.9.1,2.8s.6,1,1.1.9a1.1,1.1,0,0,0,.9-1.1Z"/><path class="cls-28" d="M418.9,356.2a2.4,2.4,0,0,0-.2-.8,6.4,6.4,0,0,1-.2-.7l-.6-1.4a1,1,0,0,0-1.3-.6,1,1,0,0,0-.6,1.3,12.1,12.1,0,0,1,.5,1.4l.3.7.3.7a1.2,1.2,0,0,0,.5.5,1.1,1.1,0,0,0,.8.1,1.2,1.2,0,0,0,.5-.5A.8.8,0,0,0,418.9,356.2Z"/><path class="cls-28" d="M429,377c-.4-1.3-1-2.5-1.5-3.7a.9.9,0,0,0-1.2-.6,1,1,0,0,0-.6,1.3c.5,1.2,1,2.4,1.6,3.6a.8.8,0,0,0,.5.5h.7A.9.9,0,0,0,429,377Z"/><path class="cls-28" d="M433,359.8l-2.1-4.4-.5-.6a1.1,1.1,0,0,0-1.5,1.3c.8,1.6,1.5,3.1,2.3,4.6a1,1,0,0,0,1.3.3A1,1,0,0,0,433,359.8Z"/><path class="cls-28" d="M433,347.1a20,20,0,0,0-1-2.1.8.8,0,0,0-.5-.5.9.9,0,0,0-.7-.1,1.2,1.2,0,0,0-.5.5.9.9,0,0,0,0,.7c.4.8.7,1.6,1.1,2.3s.4.4.6.4h.6A.8.8,0,0,0,433,347.1Z"/><path class="cls-28" d="M428.4,332.7l-1.2-2.1a.9.9,0,0,0-.6-.3.9.9,0,0,0-.7.1l-.4.6a2.5,2.5,0,0,0,.2.7l1.2,2.1a1.1,1.1,0,0,0,.6.3.9.9,0,0,0,.7-.1c.1-.2.3-.4.3-.6A.9.9,0,0,0,428.4,332.7Z"/><path class="cls-28" d="M406.4,371.5l-1.1-3.3a.9.9,0,0,0-1.2-.6,1,1,0,0,0-.6,1.3c.3,1.1.7,2.2,1,3.3a1,1,0,0,0,1.3.6A1.1,1.1,0,0,0,406.4,371.5Z"/><path class="cls-7" d="M371.9,359.8c0,2.5,1,5.5,3.2,5.7a3.8,3.8,0,0,0,3.5-2.6,12.2,12.2,0,0,0,.6-4.7C379.4,348.1,371.9,351.5,371.9,359.8Z"/><path class="cls-8" d="M588.5,447.4s-11.8,3.5-27.4-14.2c12,20.3,5.1,30.4,5.1,30.4,12.1,1.2,16.2,22.4,16.2,22.4,7.4-2.7,19.3,3.1,19.3,3.1s-1.8-13.1,3-19.3C604.7,469.8,585.9,459.4,588.5,447.4Z"/><path class="cls-3" d="M583.4,462.4l-5-6.9c-.6-.8-1.8.2-1.2,1,5.8,8.1,11.7,16.3,17.6,24.3l5.1,6.9c.6.9,1.8-.1,1.2-1C595.2,478.6,589.4,470.5,583.4,462.4Z"/><path class="cls-8" d="M655.3,490.7s.4-12.3,22.1-21.6c-23,5.1-30.6-4.6-30.6-4.6-4.9,11.2-26.3,8.5-26.3,8.5.3,7.9-8.8,17.4-8.8,17.4s12.9,2.3,17.4,8.8C629.1,499.2,644.8,484.5,655.3,490.7Z"/><path class="cls-3" d="M642.7,481.3l8.1-2.7c.9-.3.3-1.7-.6-1.4-9.5,3-19.1,6-28.6,9.2l-8.1,2.6a.8.8,0,0,0,.6,1.5Z"/><path class="cls-8" d="M632.5,440.9s-10.8-6.1-8.9-29.6c-6.2,22.8-18.3,24.9-18.3,24.9,7.6,9.5-4.7,27.2-4.7,27.2,7.1,3.5,11.2,16,11.2,16s8.1-10.4,16-11.3C627.8,468.1,622.1,447.3,632.5,440.9Z"/><path class="cls-3" d="M618.2,447.7c.5-2.8.9-5.6,1.4-8.5.2-.9-1.3-1.1-1.5-.1-1.8,9.9-3.5,19.7-5.2,29.6-.5,2.8-.9,5.6-1.4,8.4-.2,1,1.4,1.2,1.6.2Z"/><path class="cls-10" d="M628.7,468.7a14.4,14.4,0,0,1-6.8,19.2A14.4,14.4,0,0,1,603,468.1a13.8,13.8,0,0,1,6.5-6.1A14.4,14.4,0,0,1,628.7,468.7Z"/><path class="cls-7" d="M628.7,468.7a14.2,14.2,0,0,1,1.3,7.8,14.5,14.5,0,0,1-6.5,6.2,14.3,14.3,0,0,1-19.1-6.8,15.3,15.3,0,0,1-1.4-7.8,13.8,13.8,0,0,1,6.5-6.1A14.4,14.4,0,0,1,628.7,468.7Z"/><path class="cls-10" d="M622.1,468.9l-1-.5-1.7-1.1-.4-.2,1-1.9a.5.5,0,0,0-.8-.5,17.4,17.4,0,0,0-1.1,1.8l-2.2-1.3a.6.6,0,1,0-.6,1l2.2,1.4-1.3,2c-.3.6.6,1.1.9.6l1.2-2.1.5.3,1.7,1.1.9.5a1.8,1.8,0,0,0,1,.4.5.5,0,0,0,.5-.8A2.7,2.7,0,0,0,622.1,468.9Z"/><path class="cls-10" d="M605.4,478.5a14.1,14.1,0,0,1,4.3,6.6,14.4,14.4,0,1,1-28.1,2.9,14.8,14.8,0,0,1,3.6-8.2A14.3,14.3,0,0,1,605.4,478.5Z"/><path class="cls-7" d="M605.4,478.5a14.1,14.1,0,0,1,4.3,6.6,13.5,13.5,0,0,1-3.5,8.2,14.4,14.4,0,0,1-24.6-5.3,14.8,14.8,0,0,1,3.6-8.2A14.3,14.3,0,0,1,605.4,478.5Z"/><path class="cls-10" d="M599.4,481.3l-1-.2-2-.2h-.5a14.9,14.9,0,0,0,.2-2.1.5.5,0,0,0-1-.2l-.3,2.1-2.5-.3a.6.6,0,1,0-.2,1.1l2.6.4-.3,2.4a.5.5,0,0,0,1,.2l.3-2.4h.5l2,.3h1.1a1.4,1.4,0,0,0,1.1,0,.6.6,0,0,0,.1-.9A2,2,0,0,0,599.4,481.3Z"/><path class="cls-10" d="M632.2,485.3a13.4,13.4,0,0,1,4.2,6.6,14.2,14.2,0,0,1-2.9,13.6,14.3,14.3,0,0,1-25.1-10.7,13.5,13.5,0,0,1,3.5-8.2A14.3,14.3,0,0,1,632.2,485.3Z"/><path class="cls-7" d="M632.2,485.3a13.4,13.4,0,0,1,4.2,6.6,14,14,0,0,1-3.5,8.2,14.4,14.4,0,0,1-20.3,1.3,13.8,13.8,0,0,1-4.2-6.6,13.5,13.5,0,0,1,3.5-8.2A14.3,14.3,0,0,1,632.2,485.3Z"/><path class="cls-10" d="M626.2,488h-1.1l-2-.3h-.5a14.9,14.9,0,0,0,.2-2.1c.1-.6-.8-.7-.9-.1a15.5,15.5,0,0,0-.4,2.1L619,487c-.7-.1-.9,1.1-.1,1.2l2.5.4-.3,2.4a.5.5,0,0,0,1,.1l.3-2.4h.6l2,.3,1,.2h1.1a.5.5,0,0,0,.1-.9A2.1,2.1,0,0,0,626.2,488Z"/><path class="cls-8" d="M222.6,458.3s-9.6,9.5-33.7.6c22.1,13.2,20.7,26.7,20.7,26.7,12.3-5.2,27.2,13,27.2,13,5.7-6.4,20.1-7.1,20.1-7.1s-8.5-11.6-7.1-20.1C249.8,471.4,226.3,471.2,222.6,458.3Z"/><path class="cls-3" d="M225.5,475.4l-8.4-4c-1-.5-1.6,1.1-.7,1.5L246,487.2l8.5,4c1,.5,1.6-1.1.6-1.6Z"/><path class="cls-8" d="M309.3,465.2s-6-12,9.9-32.2c-19.4,16.9-31.7,11.4-31.7,11.4,1.1,13.3-20.8,21.9-20.8,21.9,4.3,7.4.5,21.3.5,21.3s13.6-4.5,21.3-.5C288.5,487.1,296,464.8,309.3,465.2Z"/><path class="cls-3" d="M292.2,462.7c2.2-2.2,4.3-4.5,6.4-6.8.8-.8-.5-1.8-1.2-1-7.6,7.8-15.2,15.7-22.7,23.7-2.2,2.2-4.3,4.5-6.5,6.8-.7.8.6,1.9,1.4,1.1C277.1,478.6,284.7,470.7,292.2,462.7Z"/><path class="cls-8" d="M261.4,429.2s-13.4-.2-23.9-23.8c5.9,25.1-4.7,33.4-4.7,33.4,12.4,5.3,9.7,28.6,9.7,28.6,8.6-.3,19.1,9.5,19.1,9.5s2.4-14.2,9.5-19.1C271.1,457.8,254.8,440.8,261.4,429.2Z"/><path class="cls-3" d="M251.3,443.2c-1.1-3-2.1-5.9-3.1-8.9-.3-1-1.8-.3-1.5.7,3.4,10.4,6.9,20.8,10.4,31.1l3,8.9c.4,1,2,.3,1.6-.7C258.2,463.9,254.8,453.5,251.3,443.2Z"/><path class="cls-10" d="M272.3,457.9a16.6,16.6,0,0,1,5.3,6.8,15.8,15.8,0,0,1-1.9,15.2,15.7,15.7,0,0,1-28.4-9.2,16.1,16.1,0,0,1,3-9.3A15.8,15.8,0,0,1,272.3,457.9Z"/><path class="cls-7" d="M272.3,457.9a16.6,16.6,0,0,1,5.3,6.8,15.7,15.7,0,0,1-25,12.8,16.6,16.6,0,0,1-5.3-6.8,16.1,16.1,0,0,1,3-9.3A15.8,15.8,0,0,1,272.3,457.9Z"/><path class="cls-10" d="M266,461.6h-3.9a17.6,17.6,0,0,0,0-2.3.5.5,0,1,0-1-.1,19.5,19.5,0,0,0-.2,2.3h-2.8c-.8,0-.8,1.2,0,1.3h2.8c0,.9-.1,1.8-.1,2.7s1,.7,1.1,0,.1-1.7.1-2.6h4a2,2,0,0,0,1.1-.2.6.6,0,0,0,.1-1A2.5,2.5,0,0,0,266,461.6Z"/><path class="cls-10" d="M255,479.4a15.8,15.8,0,0,1,7.6,4.2A15.7,15.7,0,0,1,248,510a15.7,15.7,0,0,1-11.8-18.8A15.8,15.8,0,0,1,255,479.4Z"/><path class="cls-7" d="M255,479.4a15.8,15.8,0,0,1,7.6,4.2,15.7,15.7,0,0,1-25.5,17.3,15.2,15.2,0,0,1-.9-9.7A15.8,15.8,0,0,1,255,479.4Z"/><path class="cls-10" d="M250.7,485.2l-1.1.4-2,.8-.6.2a20.4,20.4,0,0,0-.9-2.2c-.3-.6-1.1-.2-1,.4a14.3,14.3,0,0,0,.8,2.2l-2.6,1c-.8.3-.3,1.4.5,1.2l2.6-1,1,2.5c.2.6,1.2.3,1-.4l-.9-2.5.5-.2,2.1-.7,1.1-.4c.4-.2.8-.3,1-.6a.5.5,0,0,0-.3-.9A2.5,2.5,0,0,0,250.7,485.2Z"/><path class="cls-10" d="M284.2,472a15.8,15.8,0,0,1,7.6,4.2,15.7,15.7,0,0,1-14.6,26.4,15.7,15.7,0,0,1-11.8-18.8A15.8,15.8,0,0,1,284.2,472Z"/><path class="cls-7" d="M284.2,472a15.8,15.8,0,0,1,7.6,4.2,15.7,15.7,0,0,1-25.5,17.3,15.2,15.2,0,0,1-.9-9.7A15.8,15.8,0,0,1,284.2,472Z"/><path class="cls-10" d="M279.9,477.8l-1.1.4-2.1.8-.5.2a20.4,20.4,0,0,0-.9-2.2c-.3-.6-1.1-.2-1,.4a14.3,14.3,0,0,0,.8,2.2l-2.6,1c-.8.3-.3,1.4.4,1.2l2.7-1a26,26,0,0,0,1,2.5c.2.6,1.2.3,1-.4l-.9-2.5.5-.2,2.1-.7,1.1-.4c.4-.2.8-.3,1-.6a.5.5,0,0,0-.3-.9A2.5,2.5,0,0,0,279.9,477.8Z"/><path class="cls-5" d="M712.1,142.6l-2.3-.6a7.6,7.6,0,0,0,.6-2,6.7,6.7,0,0,0,.2-3.7,2.3,2.3,0,0,0-2.8-1.5,3.2,3.2,0,0,0-2.5,2.3,7,7,0,0,0,.1,3.8l-2.7-.7-2.9,6.7,6.3-.3,5.3,3.3Zm-5.5-1.4h0c-.3-1.3-.7-2.7-.1-4s1.5-1.8,2.5-1.1.6,2.4.4,3.3a17.2,17.2,0,0,1-.7,2.1v.2Z"/><path class="cls-23" d="M716.1,205.6h.3l-1.5.3a46.4,46.4,0,0,1-5.1,1.1l-4.8,1.3a59.1,59.1,0,0,0-11.6,4.8l-3.6,2.4c-2.1,1.5-2.1-.3-3-2.1s-1.4-2.5-2.2-3.7a72.2,72.2,0,0,0-10-11.3,39.8,39.8,0,0,1-5.3-4.6l-.4-.4h.1c-7.2-7.7-10.5-17.4-8.1-26.8a26.2,26.2,0,0,1,10.7-15c8.7-6.2,21.5-8.5,34.5-5.2,20.7,5.3,34.1,23,30,39.4C733.7,195.4,726.1,202.3,716.1,205.6Z"/><path class="cls-29" d="M733.4,176.3a21.8,21.8,0,0,0-3.7-10.5c-1.4-2.1-4.7.1-3.2,2.2a17.4,17.4,0,0,1,2.6,13.1c-.3,1.5-.9,3-1.3,4.5s2.2,3.2,3.3,1.6A17.9,17.9,0,0,0,733.4,176.3Z"/><path class="cls-29" d="M724,191.4c-2.4,0-2.2,3.7.2,3.7S726.3,191.4,724,191.4Z"/><path class="cls-6" d="M721.1,181.5l-16.8-6.6,10-7.8c.4-.3.2-.7-.3-.5l-11.6,5.1,2.2-17.9c.1-.7-.4-.8-.7-.2l-6.6,16.8-7.8-10.1c-.3-.4-.7-.1-.5.3l5.1,11.7L676.2,170c-.7,0-.8.5-.2.8l16.8,6.6-10,7.8c-.4.3-.2.7.3.5l11.6-5.1-2.2,17.9c-.1.6.4.8.7.2l6.6-16.9,7.8,10.1c.3.4.7.2.5-.3L703,179.9l17.9,2.3C721.5,182.3,721.7,181.7,721.1,181.5Z"/><path class="cls-10" d="M705,208.4a59.1,59.1,0,0,0-11.6,4.8l-3.6,2.4c-2.1,1.5-2.1-.3-3-2.1s-1.4-2.5-2.2-3.7a72.2,72.2,0,0,0-10-11.3,39.8,39.8,0,0,1-5.3-4.6l-.4-.4h.1c-7.2-7.7-10.5-17.4-8.1-26.8a26.2,26.2,0,0,1,10.7-15C660.2,171.9,664.5,196.7,705,208.4Z"/><path class="cls-5" d="M31.9,78.3l-1.7,1a10.9,10.9,0,0,0-.8-1.5,5.6,5.6,0,0,0-2.1-2.2,2,2,0,0,0-2.5.8,2.4,2.4,0,0,0,0,2.7A5.8,5.8,0,0,0,27,81.3l-1.9,1.1L27.5,88l3.3-3.8,5-1.3Zm-4,2.4h0a5.1,5.1,0,0,1-2.4-2.2c-.3-.7-.2-1.9.8-2.1s1.7,1,2.1,1.7a6,6,0,0,1,.9,1.5.3.3,0,0,0,.1.2Z"/><path class="cls-23" d="M71.3,111.9l.2-.2-.6,1.1c-.7,1.3-1.5,2.5-2.3,3.7l-2,3.5a56.4,56.4,0,0,0-3.8,9.6l-.6,3.5c-.4,2.1-1.4,1.1-3,.6a18.7,18.7,0,0,0-3.4-.8,57.3,57.3,0,0,0-12.4-.6,36.6,36.6,0,0,1-5.7.5h-.4c-8.5-.2-16.2-3.8-20.3-10.5a21.5,21.5,0,0,1-2.8-14.9c1.4-8.7,7.3-17.5,16.6-23.2,15-9.3,33.1-7.1,40.3,4.7C75.3,95.7,75.1,104.1,71.3,111.9Z"/><path class="cls-29" d="M63.9,85a17.1,17.1,0,0,0-8.3-3.8,1.6,1.6,0,0,0-.5,3.1,15.4,15.4,0,0,1,6.7,3.2,21.6,21.6,0,0,1,2.5,2.7c.7,1.1,1.3,2.3,1.9,3.4s3.1.5,2.8-1A14.7,14.7,0,0,0,63.9,85Z"/><path class="cls-29" d="M67.4,99.2c-1.3,1.4,1,3.3,2.3,1.9S68.8,97.8,67.4,99.2Z"/><path class="cls-6" d="M60,95.2l-13.5,6.2L47.6,91c.1-.5-.3-.5-.4-.1l-3.7,9.7L34.2,89.1c-.3-.4-.7-.2-.5.3l6.2,13.5-10.4-1.2c-.4,0-.5.3-.1.5l9.8,3.6-11.6,9.3c-.4.4-.2.8.3.5l13.5-6.1-1.2,10.4c0,.4.4.5.5.1l3.7-9.8,9.2,11.6c.4.4.8.1.5-.4L48,108l10.4,1.1c.4,0,.5-.3.1-.5L48.7,105l11.6-9.3C60.7,95.4,60.4,95,60,95.2Z"/><path class="cls-10" d="M66.6,120a56.4,56.4,0,0,0-3.8,9.6l-.6,3.5c-.4,2.1-1.4,1.1-3,.6a18.7,18.7,0,0,0-3.4-.8,57.3,57.3,0,0,0-12.4-.6,36.6,36.6,0,0,1-5.7.5h-.4c-8.5-.2-16.2-3.8-20.3-10.5a21.5,21.5,0,0,1-2.8-14.9C19.6,125.6,36.6,137.3,66.6,120Z"/><path class="cls-30" d="M62.1,255.8a6.8,6.8,0,1,1-6.4-7.3A6.8,6.8,0,0,1,62.1,255.8Z"/><path class="cls-5" d="M59.2,257a5.4,5.4,0,1,1-10.8-.6,5.4,5.4,0,0,1,10.8.6Z"/><path class="cls-5" d="M59.3,192.7h0a5.6,5.6,0,0,1-5.2-5.9h0a5.6,5.6,0,0,1,5.8-5.2h0a5.6,5.6,0,0,1,5.2,5.9h0A5.6,5.6,0,0,1,59.3,192.7Z"/><path class="cls-5" d="M88.4,253.4l-64.4-4a4.7,4.7,0,0,1-4.4-4.9h0a4.7,4.7,0,0,1,4.9-4.4L89,244.2a4.5,4.5,0,0,1,4.3,4.9h0A4.5,4.5,0,0,1,88.4,253.4Z"/><path class="cls-5" d="M87.7,244.1l-63.2-4a48,48,0,0,0,7.1-11.8,51.9,51.9,0,0,0,4-15.1c1.8-16,9.1-27,24-26.1S80.4,199.9,80.1,216a51.3,51.3,0,0,0,2.5,16.6A49.3,49.3,0,0,0,87.7,244.1Z"/><path class="cls-30" d="M87.7,244.1l-63.2-4a48,48,0,0,0,7.1-11.8c11.1,5.9,30,12.5,51,4.3A49.3,49.3,0,0,0,87.7,244.1Z"/><path class="cls-31" d="M22.7,235c.7-4.5,3.7-8.4,7.3-11.2s7.9-4.5,12.1-6.4,8.4-3.7,11.9-6.6,6.2-7.1,6.4-11.7c.1-2.2-.3-4.8,1.2-6.5l-2-.9c-.6,5.1-3.7,9.3-7.9,12.2-7.7,5.4-18.3,4.2-26.6,8.7a21.8,21.8,0,0,0-9.1,9.9,41.5,41.5,0,0,0-2.2,6.8,45.5,45.5,0,0,1,7.6-3.9A60,60,0,0,1,22.7,235Z"/><path class="cls-23" d="M60.1,192h-.2c-26.3,5-33.4-2.1-33.4-2.1-1.6-1.6-2.1-2.8-1.8-3.5a6.1,6.1,0,0,0-.7,1c-6.2,9,1.9,21,12.7,18.9s23.1-9.5,23.1-9.5Z"/><path class="cls-31" d="M60.6,194.3l-12.8.4c-.6,0-1.3.2-1.5.7a1,1,0,0,0,.8,1.3,3.5,3.5,0,0,0,1.7-.2h.9a.9.9,0,0,1,.8.5,1,1,0,0,1-.6,1l-1.1.2a1.1,1.1,0,0,0-.9.7.9.9,0,0,0,.9,1.1,3.2,3.2,0,0,0,1.6-.4,100.1,100.1,0,0,1,9.5-4l.7-.4C60.8,195,60.7,194.6,60.6,194.3Z"/><path class="cls-10" d="M26.5,189.8s7.1,7.1,33.4,2.1h.2s-33.7-10.3-35.4-5.6C24.4,187,24.9,188.2,26.5,189.8Z"/><path class="cls-31" d="M91.7,239.3c-.1-4.5-2.5-8.8-5.8-12s-7.2-5.5-11.1-7.8-7.9-4.7-11-8.1-5.3-7.8-4.9-12.3c.2-2.3.9-4.9-.4-6.7l2.1-.6a17.7,17.7,0,0,0,6.3,13.1c6.9,6.3,17.7,6.5,25.3,12a21.6,21.6,0,0,1,7.8,10.9,41.1,41.1,0,0,1,1.3,7,59.5,59.5,0,0,0-7.1-4.9A81.6,81.6,0,0,0,91.7,239.3Z"/><path class="cls-23" d="M60.1,192h.2c25.4,8.2,33.3,2,33.3,2,1.8-1.4,2.5-2.4,2.3-3.2l.6,1c5,9.8-4.6,20.6-15,17.2s-21.7-12.3-21.7-12.3Z"/><path class="cls-10" d="M93.6,194s-7.9,6.2-33.3-2h-.2s34.7-6,35.8-1.1C96.1,191.6,95.4,192.6,93.6,194Z"/><path class="cls-31" d="M73.7,203.5a41.9,41.9,0,0,1-12.4-6.9c.1-.6-.3-1.4-.3-2.1l10.4,2.3,1,.4a1,1,0,0,1,.3,1L65.8,197a1.1,1.1,0,0,1-.2.5l6.7,2.2.6.3a.7.7,0,0,1,.1.6c-.2.4-.7.3-1,.1l-4.1-1.6h-.5a3.8,3.8,0,0,0,2.3,1.5l3.7,1.4.9.5a1,1,0,0,1,.3,1C74.4,203.9,74.1,203.6,73.7,203.5Z"/><path class="cls-23" d="M62.5,191.5H60.1l-2.3-.2c-2.7,3.9-.5,6.9-.5,6.9l2.4.2h2.4S64.6,195.7,62.5,191.5Z"/><g class="cls-32"><path class="cls-33" d="M80.9,235.8l-.9-1.2-.2-.2-.2-.3-.6-.9-.2-.5v-.2l-.3-1c0-.2-.1-.4-.1-.6h0c0-.4-.1-.8-.1-1.1a.7.7,0,0,1,.1-.5v-.3h0a2,2,0,0,0-.2-1.5,2.2,2.2,0,0,0-1.2-.9,2,2,0,0,0-2.4,1.4,11.8,11.8,0,0,0,.3,5.6c.6,1.9,1.7,4,3.4,5a2.1,2.1,0,0,0,2.4-.3A2,2,0,0,0,80.9,235.8Z"/><polygon class="cls-33" points="78.3 230.8 78.3 230.8 78.3 230.8 78.3 230.8"/></g><path class="cls-34" d="M90.4,248.3a3.7,3.7,0,0,0-.5-1.1l-.4-.7-.6-.5H87.7a1.6,1.6,0,0,0-.8.6,1,1,0,0,0-.3.9,1.5,1.5,0,0,0,.4,1.1h.1v.2h0l-.3.7v.8l.2.4a1,1,0,0,0,.4.5l.4.2h.4a1.8,1.8,0,0,0,1-.2,2,2,0,0,0,.9-.9,1.9,1.9,0,0,0,.2-.7A4.3,4.3,0,0,0,90.4,248.3Z"/><path class="cls-30" d="M699.6,330a6.3,6.3,0,0,1-12.3-2.4,6.3,6.3,0,1,1,12.3,2.4Z"/><path class="cls-5" d="M696.7,330.8a4.9,4.9,0,0,1-5.8,3.9,5.1,5.1,0,0,1-3.9-5.9,5,5,0,0,1,5.9-3.8A4.9,4.9,0,0,1,696.7,330.8Z"/><path class="cls-5" d="M704.7,272.6h0a5.2,5.2,0,0,1-4-6h0a5,5,0,0,1,6-3.9h0a4.9,4.9,0,0,1,3.9,5.9h0A5.1,5.1,0,0,1,704.7,272.6Z"/><path class="cls-5" d="M723.6,331.1l-57.8-11.6a4.2,4.2,0,0,1-3.3-5h0a4.2,4.2,0,0,1,5-3.3l57.8,11.6a4.4,4.4,0,0,1,3.3,5h0A4.2,4.2,0,0,1,723.6,331.1Z"/><path class="cls-5" d="M724.1,322.6l-56.6-11.4a44.8,44.8,0,0,0,7.8-9.8,47.8,47.8,0,0,0,5.5-13.1c3.6-14.3,11.5-23.4,24.9-20.7s17.2,14.1,15,28.7a47.7,47.7,0,0,0,.2,15.2A45.2,45.2,0,0,0,724.1,322.6Z"/><path class="cls-30" d="M724.1,322.6l-56.6-11.4a44.8,44.8,0,0,0,7.8-9.8c9.3,6.7,25.6,15,45.6,10.1A45.2,45.2,0,0,0,724.1,322.6Z"/><path class="cls-31" d="M666.5,306.4c1.1-4,4.3-7.2,7.9-9.2a49.9,49.9,0,0,1,11.7-4.3c4-1.2,8.1-2.4,11.6-4.6s6.5-5.6,7.2-9.7c.4-2.1.4-4.5,2-5.8l-1.8-1a16.1,16.1,0,0,1-8.6,10c-7.6,4-17.1,1.6-25.1,4.7a18.6,18.6,0,0,0-9.5,7.8,38.8,38.8,0,0,0-2.8,5.8,50,50,0,0,1,7.4-2.6A66.1,66.1,0,0,1,666.5,306.4Z"/><path class="cls-23" d="M705.5,272h-.2c-24.3,1.3-29.8-6.1-29.8-6.1-1.3-1.6-1.6-2.7-1.3-3.3a2.7,2.7,0,0,0-.7.8c-6.7,7.4-.9,19.2,9.1,18.7s22.1-5.8,22.1-5.8Z"/><path class="cls-31" d="M705.7,274.3,694.1,273c-.6,0-1.2,0-1.5.5a1,1,0,0,0,.6,1.2,2.6,2.6,0,0,0,1.5,0l.9.2c.3.1.6.3.6.6s-.3.6-.6.7h-1.1a1.2,1.2,0,0,0-.9.5c-.2.4.2,1,.7,1.1a2,2,0,0,0,1.5-.2c3.2-1.1,5.9-1.6,9.1-2.4.2-.1.5-.1.7-.3A.6.6,0,0,0,705.7,274.3Z"/><path class="cls-10" d="M675.5,265.9s5.5,7.4,29.8,6.1h.3s-29.3-13.5-31.4-9.4C673.9,263.2,674.2,264.3,675.5,265.9Z"/><path class="cls-31" d="M728.4,318.8c.4-4.2-1.3-8.3-3.8-11.6a48.9,48.9,0,0,0-9.2-8.4c-3.2-2.6-6.5-5.3-8.9-8.7s-3.8-7.7-2.9-11.8c.4-2,1.4-4.2.4-6.1l2-.3a16.6,16.6,0,0,0,4.1,12.7c5.5,6.5,15.2,8,21.4,13.9a19.6,19.6,0,0,1,5.7,10.8,28.4,28.4,0,0,1,.3,6.5,46.9,46.9,0,0,0-5.7-5.2A48.9,48.9,0,0,0,728.4,318.8Z"/><path class="cls-23" d="M705.5,272h.2c22,10.6,29.9,5.9,29.9,5.9,1.8-1,2.6-1.9,2.5-2.6l.4,1c3.3,9.4-6.7,18.1-15.7,13.7s-18.1-13.8-18.1-13.8Z"/><path class="cls-10" d="M735.6,278s-7.9,4.7-29.9-5.9a.1.1,0,0,0-.1-.1s32.1-1.2,32.5,3.4C738.2,276.1,737.4,277,735.6,278Z"/><path class="cls-31" d="M716.5,284.2a39.9,39.9,0,0,1-10.4-7.8c.1-.5-.2-1.4-.1-1.9l9.1,3.3a1.3,1.3,0,0,1,.9.5.6.6,0,0,1,.1.9l-6-1.9c-.1.1-.1.4-.2.4l5.7,2.8a1,1,0,0,1,.5.4.6.6,0,0,1,.1.6c-.2.3-.7.1-1-.1l-3.4-1.9h-.5a3.7,3.7,0,0,0,1.8,1.7l3.2,1.7.8.5a.8.8,0,0,1,.1.9C717.1,284.6,716.7,284.3,716.5,284.2Z"/><path class="cls-23" d="M707.8,271.9l-2.2-.4-2.1-.4a5.6,5.6,0,0,0-1.2,6.2l2.1.4,2.1.4S709.1,276,707.8,271.9Z"/><g class="cls-32"><path class="cls-33" d="M719,314.3a12.7,12.7,0,0,0-.7-1.2c-.1-.1-.1-.1-.1-.2a.8.8,0,0,1-.2-.4,3.6,3.6,0,0,1-.4-.9.6.6,0,0,1-.1-.4c-.1-.1-.1-.1-.1-.2a3.4,3.4,0,0,1-.1-1,.9.9,0,0,1-.1-.5h0c0-.4.1-.7.1-1s.1-.3.1-.5v-.2h0a3.3,3.3,0,0,0,0-1.4,1.8,1.8,0,0,0-1-.9,1.7,1.7,0,0,0-2.3.9,9.2,9.2,0,0,0-.4,5.2,8.4,8.4,0,0,0,2.4,4.9,1.8,1.8,0,0,0,2.2-.1A1.7,1.7,0,0,0,719,314.3Z"/><polygon class="cls-33" points="717.2 309.4 717.2 309.4 717.2 309.4 717.2 309.4"/></g><path class="cls-34" d="M726,326.7a4.3,4.3,0,0,0-.2-1.1l-.4-.6a1.2,1.2,0,0,0-.5-.5l-.5-.2h-.5a2,2,0,0,0-.8.4,1.2,1.2,0,0,0-.4.8,1.1,1.1,0,0,0,.3,1.1h0v.2h0a1,1,0,0,0-.4.5v1.2a.8.8,0,0,0,.4.4l.3.3h.3a1.7,1.7,0,0,0,1,0,2.7,2.7,0,0,0,.8-.7,1.6,1.6,0,0,0,.4-.7A3.2,3.2,0,0,0,726,326.7Z"/><path class="cls-7" d="M588.8,324.3c-7.2-40.9-61.5-61.1-92.4-31-12.4,12.2-17.4,30.2-17.9,47.6-.2,10.5,1.2,21.6,6.9,30.4a31.2,31.2,0,0,0,4.6,5.6,9.1,9.1,0,0,1-2.1,1.8,10.3,10.3,0,0,1-10.2,0c2.8,4.2,8.8,7.4,13.9,7.7a16.7,16.7,0,0,0,8.5-1.8,61.3,61.3,0,0,0,11.2,4.6c19.3,5.7,41.4,1.7,57-11.1S592.3,344.1,588.8,324.3Z"/><path class="cls-3" d="M499.1,335c0,1.9,1,3.2,2.8,3.2s2.5-1,2.6-2.9.3-2.9.4-4.4.7-2.7,3.1-2.2,1.7.7,1.4,1.9a10.4,10.4,0,0,0,.7,5.5,2.1,2.1,0,0,0,1.8,1.3,2,2,0,0,0,2-1.1,5.3,5.3,0,0,0,.3-1.2c.8-4.5,1.7-9.1,1.4-13.7.2-2.1.4-4.1.5-6.1a8.5,8.5,0,0,0-.6-3.6,2.6,2.6,0,0,0-2.9-1.6,2.6,2.6,0,0,0-2.1,2,10,10,0,0,0-.2,1.6c-.2,3.1-.4,6.1-.4,9.2-.1,1.2-.2,1.9-1.7,1.7a5.8,5.8,0,0,0-1.8.2c-.9.3-.9-.3-.9-.9a26.6,26.6,0,0,0-.2-6.9c-.1-1.7-.1-3.5-1-5s-2.8-2-4-.4a3.2,3.2,0,0,0-.6,1.5c-.4,2.1,0,4.1-.1,6.1C499.5,324.5,498.8,329.7,499.1,335Z"/><path class="cls-3" d="M511,348.4c-.2,2.7-.3,5.4-.5,8s-.1,3.4-3.4,3.6c-.7.1-1,0-.9-.7a22.6,22.6,0,0,0,0-5.2,20.5,20.5,0,0,0-1-6.5,2.8,2.8,0,0,0-2.6-1.9c-.9,0-1.9,1.4-2.2,2.6s0,3.6-.1,5.4c-.2,5.5-.7,11-.6,16.4,0,1.9,1,3.1,2.6,3.3a2.3,2.3,0,0,0,2.8-2.4c.1-1.6.4-3.1.6-4.7.3-3.1-.2-2.6,3.2-2.3,1,0,1.4.5,1.2,1.6a10.2,10.2,0,0,0,.7,5.7,1.8,1.8,0,0,0,1.6,1.3c1.3.1,2.2-.5,2.5-2.1.7-4.6,1.7-9.1,1.5-14.5.1-1.2.2-3.1.4-5a8.2,8.2,0,0,0-.6-3.8,2.6,2.6,0,0,0-2.3-1.9C512.2,345.2,511.2,346.2,511,348.4Z"/><path class="cls-3" d="M536.6,346.4c.1,1.9,1.1,3.1,2.6,3.3a2.4,2.4,0,0,0,2.8-2.5c.2-1.4.4-2.9.5-4.3.5-3.6.1-3.1,3.7-2.6.9.2.9.5.9,1.3a11.5,11.5,0,0,0,.4,5.2c.4,1.2.9,2.1,2.3,2s1.8-1,2-2.1a58.3,58.3,0,0,0,1.4-13.8c.2-1.9.3-3.9.5-5.8a8.7,8.7,0,0,0-.5-3.6,2.5,2.5,0,0,0-2.8-1.9,2.2,2.2,0,0,0-2.2,2.1c-.6,3-.4,6-.7,9-.1,1.1.2,2.4-.3,3.1s-2.1.3-3.1.4-1,0-1-.8a36.5,36.5,0,0,0,.1-4.7,35.1,35.1,0,0,0-.9-6.5,3.1,3.1,0,0,0-2.7-2.3,3.3,3.3,0,0,0-2.3,2.7c-.4,2.5.1,5-.1,7.6A134.9,134.9,0,0,0,536.6,346.4Z"/><path class="cls-3" d="M524.4,347.3a2.6,2.6,0,0,0-1.9,1.3,13.1,13.1,0,0,0-2.1,5.5,5.9,5.9,0,0,1-.5,2.3,30.2,30.2,0,0,0-.7,15.5,4.8,4.8,0,0,0,3.7,3.8,5.3,5.3,0,0,0,5.5-1.8,12.7,12.7,0,0,0,2.3-4.1,38.3,38.3,0,0,0,1.8-10.2,25.8,25.8,0,0,0,0-6.8C532,347.7,529.1,346.3,524.4,347.3Zm3.4,12a45.6,45.6,0,0,1-2,8.1c-.2.7-.6,1.3-1.4,1.2s-.5-.9-.6-1.4a40,40,0,0,1,0-4.9,57.4,57.4,0,0,1,.9-7.1c.1-.5,0-1.2.7-1.3a1.4,1.4,0,0,1,1.5,1A8.1,8.1,0,0,1,527.8,359.3Z"/><path class="cls-3" d="M526.2,339.9a7.8,7.8,0,0,0,3.4-4.4,30.2,30.2,0,0,0,2.2-11.2,26.6,26.6,0,0,0,0-6.9c-.4-5.1-3.6-6.2-8-5.4a2.9,2.9,0,0,0-1.9,1.3,11.5,11.5,0,0,0-2.1,5.1,27.4,27.4,0,0,1-.8,3.7,29.3,29.3,0,0,0-.4,14.7A5,5,0,0,0,526.2,339.9ZM524,319.8c.1-.4.1-1.1.7-1.1a1.3,1.3,0,0,1,1.4.7,6.8,6.8,0,0,1,1,4.4,41.1,41.1,0,0,1-2,8.4c-.3.7-.6,1.3-1.4,1.2s-.5-.9-.5-1.5,0-3,0-5.3S523.7,322.3,524,319.8Z"/><path class="cls-3" d="M563.8,351.4a9,9,0,0,0,3.8-5.3,32,32,0,0,0,1.8-10,27.5,27.5,0,0,0-.4-9.1,3.8,3.8,0,0,0-2.7-3.3c-3.4-.9-6.2-1.1-8,3.3-.7,1.7-.7,3.5-1.3,5.2a29.2,29.2,0,0,0-.7,16.3A4.9,4.9,0,0,0,563.8,351.4Zm-2.1-20.1c0-.4,0-1,.6-1.2a1.2,1.2,0,0,1,1.3.7,6.3,6.3,0,0,1,1.2,3.7,37.2,37.2,0,0,1-2.1,9.2,1.4,1.4,0,0,1-.5.8.8.8,0,0,1-1,.3c-.4-.2-.4-.5-.5-.9a33,33,0,0,1,.1-5.4C560.6,336.2,561.3,333.7,561.7,331.3Z"/><path class="cls-35" d="M502.1,333c0,1.9,1,3.2,2.8,3.2s2.5-1,2.6-2.9.3-2.9.4-4.4.7-2.7,3.1-2.2,1.7.7,1.4,1.9a10.4,10.4,0,0,0,.7,5.5,2.1,2.1,0,0,0,1.8,1.3,2,2,0,0,0,2-1.1,5.3,5.3,0,0,0,.3-1.2c.8-4.5,1.7-9.1,1.4-13.7.2-2.1.4-4.1.5-6.1a8.5,8.5,0,0,0-.6-3.6,2.6,2.6,0,0,0-2.9-1.6,2.6,2.6,0,0,0-2.1,2,10,10,0,0,0-.2,1.6c-.2,3.1-.4,6.1-.4,9.2-.1,1.2-.2,1.9-1.7,1.7a5.8,5.8,0,0,0-1.8.2c-.9.3-.9-.3-.9-.9a26.6,26.6,0,0,0-.2-6.9c-.1-1.7-.1-3.5-1-5s-2.8-2-4-.4a3.2,3.2,0,0,0-.6,1.5c-.4,2.1,0,4.1-.1,6.1C502.5,322.5,501.8,327.7,502.1,333Z"/><path class="cls-35" d="M514,346.4c-.2,2.7-.3,5.4-.5,8s-.1,3.4-3.4,3.6c-.7.1-1,0-.9-.7a22.6,22.6,0,0,0,0-5.2,20.5,20.5,0,0,0-1-6.5,2.8,2.8,0,0,0-2.6-1.9c-.9,0-1.9,1.4-2.2,2.6s0,3.6-.1,5.4c-.2,5.5-.7,11-.6,16.4,0,1.9,1,3.1,2.6,3.3a2.3,2.3,0,0,0,2.8-2.4c.1-1.6.4-3.1.6-4.7.3-3.1-.2-2.6,3.2-2.3,1,0,1.4.5,1.2,1.6a10.2,10.2,0,0,0,.7,5.7,1.8,1.8,0,0,0,1.6,1.3c1.3.1,2.2-.5,2.5-2.1.7-4.6,1.7-9.1,1.5-14.5.1-1.2.2-3.1.4-5a8.2,8.2,0,0,0-.6-3.8,2.6,2.6,0,0,0-2.3-1.9C515.2,343.2,514.2,344.2,514,346.4Z"/><path class="cls-35" d="M539.6,344.4c.1,1.9,1.1,3.1,2.6,3.3a2.4,2.4,0,0,0,2.8-2.5c.2-1.4.4-2.9.5-4.3.5-3.6.1-3.1,3.7-2.6.9.2.9.5.9,1.3a11.5,11.5,0,0,0,.4,5.2c.4,1.2.9,2.1,2.3,2s1.8-1,2-2.1a58.3,58.3,0,0,0,1.4-13.8c.2-1.9.3-3.9.5-5.8a8.7,8.7,0,0,0-.5-3.6,2.5,2.5,0,0,0-2.8-1.9,2.2,2.2,0,0,0-2.2,2.1c-.6,3-.4,6-.7,9-.1,1.1.2,2.4-.3,3.1s-2.1.3-3.1.4-1,0-1-.8a36.5,36.5,0,0,0,.1-4.7,35.1,35.1,0,0,0-.9-6.5,3.1,3.1,0,0,0-2.7-2.3,3.3,3.3,0,0,0-2.3,2.7c-.4,2.5.1,5-.1,7.6A134.9,134.9,0,0,0,539.6,344.4Z"/><path class="cls-35" d="M527.4,345.3a2.6,2.6,0,0,0-1.9,1.3,13.1,13.1,0,0,0-2.1,5.5,5.9,5.9,0,0,1-.5,2.3,30.2,30.2,0,0,0-.7,15.5,4.8,4.8,0,0,0,3.7,3.8,5.3,5.3,0,0,0,5.5-1.8,12.7,12.7,0,0,0,2.3-4.1,38.3,38.3,0,0,0,1.8-10.2,25.8,25.8,0,0,0,0-6.8C535,345.7,532.1,344.3,527.4,345.3Zm3.4,12a45.6,45.6,0,0,1-2,8.1c-.2.7-.6,1.3-1.4,1.2s-.5-.9-.6-1.4a40,40,0,0,1,0-4.9,57.4,57.4,0,0,1,.9-7.1c.1-.5,0-1.2.7-1.3a1.4,1.4,0,0,1,1.5,1A8.1,8.1,0,0,1,530.8,357.3Z"/><path class="cls-35" d="M529.2,337.9a7.8,7.8,0,0,0,3.4-4.4,30.2,30.2,0,0,0,2.2-11.2,26.6,26.6,0,0,0,0-6.9c-.4-5.1-3.6-6.2-8-5.4a2.9,2.9,0,0,0-1.9,1.3,11.5,11.5,0,0,0-2.1,5.1,27.4,27.4,0,0,1-.8,3.7,29.3,29.3,0,0,0-.4,14.7A5,5,0,0,0,529.2,337.9ZM527,317.8c.1-.4.1-1.1.7-1.1a1.3,1.3,0,0,1,1.4.7,6.8,6.8,0,0,1,1,4.4,41.1,41.1,0,0,1-2,8.4c-.3.7-.6,1.3-1.4,1.2s-.5-.9-.5-1.5,0-3,0-5.3S526.7,320.3,527,317.8Z"/><path class="cls-35" d="M566.8,349.4a9,9,0,0,0,3.8-5.3,32,32,0,0,0,1.8-10,27.5,27.5,0,0,0-.4-9.1,3.8,3.8,0,0,0-2.7-3.3c-3.4-.9-6.2-1.1-8,3.3-.7,1.7-.7,3.5-1.3,5.2a29.2,29.2,0,0,0-.7,16.3A4.9,4.9,0,0,0,566.8,349.4Zm-2.1-20.1c0-.4,0-1,.6-1.2a1.2,1.2,0,0,1,1.3.7,6.3,6.3,0,0,1,1.2,3.7,37.2,37.2,0,0,1-2.1,9.2,1.4,1.4,0,0,1-.5.8.8.8,0,0,1-1,.3c-.4-.2-.4-.5-.5-.9a33,33,0,0,1,.1-5.4C563.6,334.2,564.3,331.7,564.7,329.3Z"/><path class="cls-3" d="M709.6,446s-13.5,3.8-31-16.5c13.5,23.2,5.5,34.7,5.5,34.7,13.8,1.5,18.2,25.6,18.2,25.6,8.5-3,22,3.6,22,3.6s-1.9-14.8,3.6-21.9C727.9,471.5,706.5,459.5,709.6,446Z"/><path class="cls-36" d="M703.7,463l-5.7-7.9c-.6-.9-2,.2-1.3,1.1,6.6,9.3,13.1,18.6,19.8,27.8l5.7,7.9c.7,1,2.1-.2,1.4-1.1C717,481.5,710.4,472.2,703.7,463Z"/><path class="cls-3" d="M674.2,483.8s-6.3,12.5-33.1,11.7c26.2,5.7,29.3,19.4,29.3,19.4,10.5-9.2,31.2,3.9,31.2,3.9,3.6-8.3,17.5-13.7,17.5-13.7s-12.2-8.6-13.7-17.5C705.4,487.6,682.1,495.2,674.2,483.8Z"/><path class="cls-36" d="M682.8,499.6l-9.7-1.1c-1.1-.2-1.2,1.6-.1,1.7l33.9,4.3,9.7,1.1c1.2.2,1.3-1.6.1-1.8Z"/><path class="cls-3" d="M767,449.3s-11.2-8.5-5.6-34.7C751,439.3,737,439.9,737,439.9c7.2,11.9-9.4,30-9.4,30,7.5,4.9,10.3,19.7,10.3,19.7s10.7-10.5,19.7-10.3C757.6,479.3,754.3,455,767,449.3Z"/><path class="cls-36" d="M749.8,454.8c1-3.1,1.9-6.2,2.9-9.3.3-1.1-1.4-1.5-1.7-.4-3.5,10.8-6.9,21.7-10.3,32.6-.9,3.1-1.9,6.2-2.9,9.3-.3,1.1,1.4,1.5,1.8.4C743,476.5,746.5,465.7,749.8,454.8Z"/><path class="cls-10" d="M728.9,466.1a13.6,13.6,0,0,1,6,5.1,14.3,14.3,0,0,1,1.3,13.9,14.4,14.4,0,1,1-7.3-19Z"/><path class="cls-7" d="M728.9,466.1a13.6,13.6,0,0,1,6,5.1,13.8,13.8,0,0,1-.9,8.9,14.4,14.4,0,0,1-18.9,7.3,15.3,15.3,0,0,1-6.1-5.1,14.4,14.4,0,0,1,19.9-16.2Z"/><path class="cls-10" d="M724,470.6h-1.1l-1.9.4h-.6a11.2,11.2,0,0,0-.4-2.1.5.5,0,1,0-.9.1,15.2,15.2,0,0,0,.3,2.1l-2.5.5a.6.6,0,1,0,.2,1.1l2.5-.4c.1.8.3,1.6.4,2.4a.5.5,0,0,0,1-.2c-.1-.8-.3-1.6-.4-2.3h.6l2-.3,1-.2a2.9,2.9,0,0,0,1-.3.5.5,0,0,0-.1-.9A1.4,1.4,0,0,0,724,470.6Z"/><path class="cls-10" d="M717.6,488.6a14.7,14.7,0,0,1,7.5,2.3,14.4,14.4,0,0,1-7.9,26.5,14.7,14.7,0,0,1-11.6-6.1,13.8,13.8,0,0,1-2.6-8.5A14.4,14.4,0,0,1,717.6,488.6Z"/><path class="cls-7" d="M717.6,488.6a9,9,0,0,1,10.2,10.8,14.4,14.4,0,0,1-14.6,14.2,14.2,14.2,0,0,1-7.6-2.3,13.8,13.8,0,0,1-2.6-8.5A14.4,14.4,0,0,1,717.6,488.6Z"/><path class="cls-10" d="M714.8,494.6l-.9.6-1.7,1.1-.4.3-1.2-1.8c-.4-.5-1.1,0-.8.6a17.4,17.4,0,0,0,1.1,1.8l-2.2,1.3c-.6.4,0,1.4.6,1l2.2-1.3c.5.6.9,1.3,1.4,2s1.2,0,.8-.6l-1.3-2,.5-.3,1.7-1,.9-.6a2.7,2.7,0,0,0,.8-.7.5.5,0,0,0-.5-.8C715.4,494.2,715.1,494.5,714.8,494.6Z"/><path class="cls-10" d="M742.3,476.4a14.4,14.4,0,1,1-.4,28.8,14.7,14.7,0,0,1-11.6-6.1,14.5,14.5,0,0,1-2.6-8.5A14.3,14.3,0,0,1,742.3,476.4Z"/><path class="cls-7" d="M742.3,476.4a14.4,14.4,0,0,1,7.5,2.3,13.9,13.9,0,0,1,2.7,8.5,14.4,14.4,0,0,1-14.6,14.2,15.1,15.1,0,0,1-7.6-2.3,14.5,14.5,0,0,1-2.6-8.5A14.3,14.3,0,0,1,742.3,476.4Z"/><path class="cls-10" d="M739.5,482.4l-.9.6-1.7,1.1-.4.3-1.2-1.8a.5.5,0,0,0-.8.5,7.8,7.8,0,0,0,1.1,1.8,16.4,16.4,0,0,1-2.2,1.4c-.6.4,0,1.4.7,1l2.2-1.4a23.9,23.9,0,0,0,1.3,2.1c.3.5,1.2,0,.8-.6l-1.3-2,.5-.3,1.7-1,.9-.6a2.7,2.7,0,0,0,.8-.7.5.5,0,0,0-.5-.8A2.1,2.1,0,0,0,739.5,482.4Z"/><path class="cls-6" d="M589.6,461.1l-1,.2a39.6,39.6,0,0,0-4.6,1.3,15.3,15.3,0,0,0,1.7-2.7c.1-.2.3-.4.1-.5s-.3.1-.4.2A18.1,18.1,0,0,1,583,462a9.8,9.8,0,0,0,1.1-6,1.2,1.2,0,0,0-.7.7,26.1,26.1,0,0,0-2.8,5.2,2.8,2.8,0,0,0-.4,2.5c.1.1,0,.2-.1.3a27.9,27.9,0,0,1-3.8,3c.9-2,1.6-4,2.4-6a16.6,16.6,0,0,0,1.1-3.8.6.6,0,0,0-.1-.7c-.3-.2-.5.1-.7.2a8.8,8.8,0,0,0-1.2,1.5,43.9,43.9,0,0,0-4,9.8,1.8,1.8,0,0,1-1,1.4l-2.8,1.4h-.3c2.2-3.8,4.8-7.4,6.2-11.7-.6-.1-.9.2-1.3.4a10.5,10.5,0,0,0-3,3.3,55.6,55.6,0,0,0-5.5,9,2.9,2.9,0,0,1-1.8,1.8,7.2,7.2,0,0,1-2.2.8,9.6,9.6,0,0,0,1.6-2.7c1.6-3.4,3.1-6.9,4.4-10.4.1-.2.2-.3,0-.4s-.3,0-.4,0a9.9,9.9,0,0,0-2.6,2.8,49.2,49.2,0,0,0-4.3,8.2,9.4,9.4,0,0,0-1,2.8.9.9,0,0,1-.7,1l-.7.2a32.9,32.9,0,0,1-3.7,1,19.5,19.5,0,0,0,2.1-3.2c1.5-3.3,3-6.5,4.2-9.9.2-.3.6-.7.2-1s-.5.4-.7.6a64.7,64.7,0,0,0-7.6,12.3c-.6,1.2-1.1,2.2-2.7,2.3a29.6,29.6,0,0,0-3.7.7l1-1.3a68.2,68.2,0,0,0,4.3-6.2,62.1,62.1,0,0,0,3.5-6.2c.1-.2.3-.5,0-.7s-.4.2-.6.3a31,31,0,0,0-4.5,5.1,60.2,60.2,0,0,0-5.3,8.2c-.3.5-.4,1.2-1.1,1.3l-4.4.7,1.6-2.3a120.8,120.8,0,0,1,8.5-12.6c.2-.2.4-.5.2-.7s-.4.1-.6.2a15.9,15.9,0,0,0-6.2,5.3,88.9,88.9,0,0,0-6.4,10c-.1.2-.2.5-.5.5a25.6,25.6,0,0,1-3.9.3,2.6,2.6,0,0,1,.5-.9,52.3,52.3,0,0,0,4.1-5.5c2.1-3.2,4.3-6.3,6.6-9.2.1-.2.4-.3.3-.5s-.5-.1-.6,0a12.3,12.3,0,0,0-4,3.1,45.7,45.7,0,0,0-3.8,4.9A70.5,70.5,0,0,0,530,481c-.1.2-.2.4-.5.4s-2.6.1-3.9,0a17.7,17.7,0,0,1,1.7-2c2.8-2.9,5.2-6,7.8-9a12.5,12.5,0,0,0,1.6-2.4c.1-.1.3-.2.1-.4h-.5l-.7.3a8.7,8.7,0,0,0-2.2,1.7,76.8,76.8,0,0,0-9.3,10.5c-.7.9-1.3,1.6-2.5,1.3h-.3c3.2-4.2,5.8-8.8,9.4-12.8-.4-.1-.6,0-.7.1a24.8,24.8,0,0,0-5.4,5.8c-1.7,2.1-3.3,4.3-4.9,6.5a1.7,1.7,0,0,1-1.8.1c-.2-.2,0-.3.1-.5l1.1-1.3c1.3-1.7,2.3-3.5,3.5-5.2l2.7-3.7c.2-.4.8-.9.4-1.2s-.8.2-1.2.5a26.1,26.1,0,0,0-3.8,4.4c-1.6,2.1-3,4.2-4.5,6.2a.6.6,0,0,1-.8.4l-1.3-.4a27.2,27.2,0,0,0-3.7-1.3c-.4-.1-.7-.2-1,.2a1.1,1.1,0,0,0,.3,1.2l1.2.9a12.2,12.2,0,0,0,4.9,1.9,1.2,1.2,0,0,1,.8.6,16.4,16.4,0,0,0,12.2,8.6,7,7,0,0,0,3.2-.2.5.5,0,0,0,.4-.3c0-.2-.3-.2-.4-.2a15.2,15.2,0,0,0-2-.6,26,26,0,0,1-6.3-3,23.7,23.7,0,0,1-4.1-3.7c-.1-.1-.3-.2-.2-.4s.3-.1.5-.1l3.6.2a.8.8,0,0,1,.7.4,19.8,19.8,0,0,0,7.1,5.4,34,34,0,0,0,8.2,2.6,8.1,8.1,0,0,0,3.1.2c.2,0,.5,0,.5-.2s-.3-.4-.5-.4-1.2-.5-1.9-.6-3.4-1.2-5.1-1.8a31.6,31.6,0,0,1-7.1-3.6,10.8,10.8,0,0,1-2.4-1.8c.3-.3.7-.1,1-.1s1.6-.3,2.3.4.5,0,.6-.2.6-.2.8,0a24.9,24.9,0,0,0,12,4.3,5.6,5.6,0,0,0,3.1-.6c.3-.1.4-.3,0-.5a10.6,10.6,0,0,0-3-1,35,35,0,0,1-4.6-1.4,11.2,11.2,0,0,1-3.7-1.4l5-.7a.6.6,0,0,1,.5.2,5.7,5.7,0,0,0,2.2,1.5,38.9,38.9,0,0,0,9.4,3.3,13.9,13.9,0,0,0,7-.2c.3-.1.7-.1.7-.4s-.4-.4-.6-.5a19.1,19.1,0,0,0-3.4-1,93.6,93.6,0,0,1-9.1-2.4l-2.6-.7c-.2-.1-.3-.1-.3-.3l.2-.2a20.9,20.9,0,0,0,3.6-.7c.3,0,.6-.1.9.2a6.2,6.2,0,0,0,3.5,1.8,35.5,35.5,0,0,0,4.7.9,27,27,0,0,0,8.5.1,8.8,8.8,0,0,0,2.7-1v-.2l-17.4-2.1V481l1.1-.4c1.8-.4,3.6-.7,5.3-1.2a3.4,3.4,0,0,1,3.1.3,15.3,15.3,0,0,0,6.9,2,38.8,38.8,0,0,0,4.8-.4,23.8,23.8,0,0,0,6.4-2c.2-.1.3-.1.3-.3s-.2-.2-.4-.2a19.4,19.4,0,0,0-2.4-.2c-3.4-.1-6.8.7-10.2.2a20,20,0,0,1-3.5-.9,1.8,1.8,0,0,1,.7-.5,44.6,44.6,0,0,0,5-2.2.9.9,0,0,1,1.1,0l1.7.7a17.8,17.8,0,0,0,6.1.5,49.9,49.9,0,0,0,5.4-.7,7.7,7.7,0,0,0,2.4-1.2.5.5,0,0,0,.3-.6c-.1-.3-.4-.1-.5-.1l-1.8-.2H573a15,15,0,0,1-2-.2c1.1-.9,2.3-1.3,3.3-2.1s1.6-1.1,2.6-.5h.6a13.2,13.2,0,0,0,4.4-.4,33.2,33.2,0,0,0,5.4-1.5c.3-.1.6-.2.6-.5s-.4-.3-.6-.4-3.4-.2-5-.1l-3.9.3,1.7-1.6c.2-.1.3-.5.7-.5a10.8,10.8,0,0,0,3.1-.7,37.6,37.6,0,0,0,4.6-2,2.8,2.8,0,0,0,1.7-1.3.8.8,0,0,0,.1-.9C590.2,460.9,589.9,461.1,589.6,461.1Z"/></g></g></svg>