<svg xmlns="http://www.w3.org/2000/svg" viewBox="0 0 750 432"><defs><style>.cls-1,.cls-24,.cls-25{fill:none}.cls-2{clip-path:url(#clip-path)}.cls-3{fill:#3e8c84}.cls-4{fill:#efad0a}.cls-5{fill:#ffbc00}.cls-6{fill:#f8564f}.cls-7{fill:#85b495}.cls-8{fill:#fff}.cls-9{fill:#43142b;opacity:.16}.cls-10{fill:#e1142b}.cls-11{fill:#d17818}.cls-12{fill:#e8e8e8}.cls-13{fill:#f99898}.cls-14{fill:#f47f7f}.cls-15{fill:#ffc8c2}.cls-16{fill:#ce5715}.cls-17{fill:#e95f0a}.cls-18{fill:#252c3f}.cls-19{fill:#d1530d}.cls-20{fill:#efac06}.cls-21{fill:#a35b13}.cls-22{fill:#cc8a4a}.cls-23{fill:#f45348}.cls-24,.cls-25{stroke:#fff;stroke-miterlimit:10}.cls-24{stroke-width:2.82px}.cls-25{stroke-width:1.88px}.cls-26{fill:#000515}.cls-27{fill:#f7b7b2}.cls-28{fill:#f2f2f2}.cls-29{fill:#fdfdfc}.cls-30{fill:#f2af06}.cls-31{fill:#ea3e3b}.cls-32,.cls-34{opacity:.68}.cls-33,.cls-34{fill:#feecdb}.cls-35{fill:#feeddc}.cls-36{fill:#515e7a}</style><clipPath id="clip-path"><path d="M0 0h750v500H0z" class="cls-1"/></clipPath></defs><g id="OBJECTS" class="cls-2"><path d="M622.6 428.7l-4.8 75.7-39.2-2.5-19.1-1.2-48-3 4.7-75.7 49.5 3.1 12.5.8 44.4 2.8z" class="cls-3"/><path d="M601.5 406.8a29.3 29.3 0 0 0-21.1 5.1 29.9 29.9 0 0 0-9.6 11.8 28.9 28.9 0 0 0-30.6-16.9c-2.1 4.2-3.3 8.8-2 13.4 12-.5 21.3 1.9 31.1 7.7-.2.8-.3 1.5-.5 2.2a13.7 13.7 0 0 0 2-1.3l2 1.3a22.5 22.5 0 0 0-.5-2.2 52.9 52.9 0 0 1 31.1-7.7c1.4-4.6.2-9.2-1.9-13.4z" class="cls-4"/><path d="M579.8 501.6l-21.1-1.3 6.9-83.5 13.8.8a811.6 811.6 0 0 1 .4 84z" class="cls-5"/><circle cx="496.8" cy="473.6" r="43.4" class="cls-5" transform="rotate(-61.3 497.072 473.657)"/><path d="M532.1 422a16.6 16.6 0 0 0-11.4.5 19.6 19.6 0 0 0-7.9 5.7 26.8 26.8 0 0 0-3.4-8c-2-3.2-5.1-6.9-8.7-8.4s-8.8.2-9.1 5 3.4 8 6.3 10.5a28.2 28.2 0 0 0 10.1 5.4c-8.7 5.8-14.6 15.1-19.3 24.3-5.9 11.5-11.5 23.7-13.2 36.6a53.3 53.3 0 0 0 .9 20.3c.6 2.3 4.1 1.1 3.5-1.2-2.8-11.6-.7-23.6 3.4-34.6 2.2-5.9 4.9-11.6 7.6-17.3a100.9 100.9 0 0 1 9.1-15.6 45.1 45.1 0 0 1 8.4-8.5 133.1 133.1 0 0 0-17.1 27.9 135.2 135.2 0 0 0-6.3 17.1c-1.8 6-3.4 12.2-3.6 18.4s1.2 12.2 4.8 17.1c1.2 1.6 3.8-.1 2.6-1.7-6.7-9.3-3.9-21.6-1-31.8a140.2 140.2 0 0 1 13.8-32.1 131.4 131.4 0 0 1 11.3-16.3 1.1 1.1 0 0 0 .2-1.2 40.3 40.3 0 0 0 12.8 2.4c4.1.2 8.5-1.2 10.3-5.2s-.2-7.8-4.1-9.3zm-29.7 4.2a20.7 20.7 0 0 1-6.7-7.1c-.5-1.2-.9-2.9.2-3.9a3.3 3.3 0 0 1 3.6 0c2.8 1.3 5.1 4 6.7 6.6a23.9 23.9 0 0 1 3.5 7.6 21.7 21.7 0 0 1-7.3-3.2zm31 3.3c-1.1 3.2-4.7 3.8-7.7 3.7a48.3 48.3 0 0 1-11.3-2.3c3.3-4.3 9.2-7.1 14.6-6.3 2.5.4 5.5 1.9 4.4 4.9z" class="cls-6"/><path d="M509.8 431.6a13.5 13.5 0 0 0-8.7-2.8 13.2 13.2 0 0 0-8.4 3.5 14.6 14.6 0 0 0 9.4 3.1c3.4-.1 5.2-1.5 7.7-3.8zM509.8 431.6a13.8 13.8 0 0 1 8.5 3.3 13.5 13.5 0 0 1 4.3 8.1 14.3 14.3 0 0 1-9.3-3.5c-2.5-2.2-3-4.6-3.5-7.9z" class="cls-7"/><path d="M509.8 431.6a13 13 0 0 1-4.2 16.6 14.2 14.2 0 0 1-1.2-9.9c.8-3.2 2.7-4.8 5.4-6.7z" class="cls-3"/><path d="M145 416.2A195.5 195.5 0 0 1 66.6 405a3.4 3.4 0 0 0-3.6 5.5c13.8 14.5 26.5 29.8 39.3 45.2a3.4 3.4 0 0 1-2.7 5.6A239 239 0 0 1 0 434.8V0h.6C9.8 67.7 52 130.1 111.3 164a3.4 3.4 0 0 1-1.5 6.3 117.4 117.4 0 0 1-59.7-12.5 3.4 3.4 0 0 0-4.5 4.7c19.6 33.6 49.3 61.4 84.6 77.4a3.4 3.4 0 0 1-1.4 6.5 161.2 161.2 0 0 1-75.5-17.9 3.4 3.4 0 0 0-4.9 3.8c3.2 13.5 10.9 25 19.5 36.4a544.5 544.5 0 0 0 49.6 56.6 3.4 3.4 0 0 1-2.8 5.8 158.8 158.8 0 0 1-72.1-28.4 3.4 3.4 0 0 0-5 4.3c10.5 22.4 26.2 41.9 45.1 58.3s41.7 31 63.9 44.6a3.4 3.4 0 0 1-1.6 6.3z" class="cls-7"/><path d="M93.3 392.6c-31.1-1.1-63.1-8.2-91.5-21.4a3.2 3.2 0 0 1-1.8-2.9V74.1c7.1 14.7 22.3 52.1 33.1 64.4a3.3 3.3 0 0 1-2.9 5.3 102.4 102.4 0 0 1-12-2.5 3.2 3.2 0 0 0-3.8 4.3c10.2 23.6 24.8 46.6 42.8 64.9a3.2 3.2 0 0 1-3.1 5.3 118.3 118.3 0 0 1-24.1-8.3 3.1 3.1 0 0 0-4.4 4c14 35.6 34.9 68.5 62.7 94.7a3.2 3.2 0 0 1-2.7 5.5c-17-2.5-34.8-7.4-49.7-15.6a3.2 3.2 0 0 0-4.6 3.7c9.4 35.2 32.6 68.2 63.8 86.8a3.2 3.2 0 0 1-1.8 6z" class="cls-3"/><path d="M39.9 325.6a37.7 37.7 0 0 1 2.9-11.9 17.3 17.3 0 0 1 4.6-6.2 41.2 41.2 0 0 0 3.1 11.8 20.6 20.6 0 0 0 8.4 8.9c-.4 3.2-.7 6.4-1.1 9.6-6.4-.8-11-4.7-15.5-8.9-1-.9-1.4-2.3-2.4-3.3z" class="cls-6"/><path d="M50.5 319.3a41.2 41.2 0 0 1-3.1-11.8 4.7 4.7 0 0 1 .7-1.2c4-4.2 8.7-7 14.5-7.6a39.6 39.6 0 0 0-2 13.7 28.9 28.9 0 0 0 1.5 8.2c-1.6 2.3-2.1 5.1-3.2 7.6a20.6 20.6 0 0 1-8.4-8.9zM39.6 344l-1.3-.8c.5-5.9.7-11.8 1.6-17.6 1 1 1.4 2.4 2.4 3.3 4.5 4.2 9.1 8.1 15.5 8.9-.4 2.2-.7 4.4-.9 6.5a14 14 0 0 1-.6 4.5c-6.4 1.4-11.8-1.1-16.7-4.8z" class="cls-8"/><path d="M50.8 411.6c-3.1-1.1-6.1-2.5-9.1-3.8s-5.1-4-7.3-6.4c0-3.4-.3-6.8.4-10.2l4.1 2.4a17.6 17.6 0 0 0 14.3 2c-.2 5.7-.7 11.5-1.4 17.2 0-.7-.4-.9-1-1.2zM62.6 298.7a47.2 47.2 0 0 1 15-.2c-.9 1.5-1.8 3-2.6 4.5a28.4 28.4 0 0 0-3.4 12.8c0 .3-.2.5-.3.8a4 4 0 0 0-1.9-.1 12.8 12.8 0 0 0-7.3 4.1 28.9 28.9 0 0 1-1.5-8.2 39.6 39.6 0 0 1 2-13.7zM36.3 379.6c-.3-.2-.5-.5-.9-.3-.3-4 .7-7.9.8-11.9l.2-.3c2.4 1.4 4.7 2.8 7.2 4s7.3.9 11 .9a24.9 24.9 0 0 1 .1 6.1c-.3 2.6-.2 5.3-.9 7.8-4.3-.1-8.2-1.6-12.1-3.2a22.3 22.3 0 0 1-5.4-3.1zM44 359.5l-6.6-4.4a67.4 67.4 0 0 1 .9-11.9l1.3.8c4.9 3.7 10.3 6.2 16.7 4.8a2 2 0 0 1 .2 1.7c-.8 3.5-.6 7.2-.8 10.8-4.1.9-8.1.6-11.7-1.8z" class="cls-6"/><path d="M96.7 315.4a49.6 49.6 0 0 1 3.3 11.2 22.8 22.8 0 0 0-11.6 9.6 76.8 76.8 0 0 0-4.1 7.4 39.7 39.7 0 0 0-1.8-15.3c2.8-6.5 7.1-11.2 14.2-12.9zM84.3 343.6zM38.9 393.6l-4.1-2.4a115.1 115.1 0 0 1 .6-11.8c.4-.2.6.1.9.3a22.3 22.3 0 0 0 5.4 3.1c3.9 1.6 7.8 3.1 12.1 3.2.3 3.3-.3 6.5-.6 9.7a17.6 17.6 0 0 1-14.3-2.1z" class="cls-8"/><path d="M100 326.6c.9 1.6.6 3.3.7 5 0 3.8.3 7.7-.9 11.4-.6 2-1.4 3.6-4 3.5-.9-.1-1.8.3-2.8.3-3.3.1-6.4-.5-8.7-3.2a76.8 76.8 0 0 1 4.1-7.4 22.8 22.8 0 0 1 11.6-9.6z" class="cls-6"/><path d="M75 303c.8-1.5 1.7-3 2.6-4.5a12.7 12.7 0 0 1 3.7 1c3.3 1.2 5.9 3.5 8.6 5.8-.9 1.1-2.3 1.6-3.4 2.5-3.4 2.6-4.9 6.3-6.4 10.2a12.7 12.7 0 0 1-1.3 3.2 15.1 15.1 0 0 0-7.5-4.6c.1-.3.3-.5.3-.8A28.4 28.4 0 0 1 75 303zM43.6 371.1c-2.5-1.2-4.8-2.6-7.2-4 .3-4 .7-8 1-12l6.6 4.4c3.6 2.4 7.6 2.7 11.7 1.8-.4 3.6-.7 7.1-1.1 10.7-3.7 0-7.5 1-11-.9zM45.8 420.4c-4.4-.6-8-2.7-11.5-5.1 0-4.6.1-9.3.1-13.9 2.2 2.4 4.2 5 7.3 6.4s6 2.7 9.1 3.8c.6.3 1 .5 1 1.2-.3 2.5-.1 5-.6 7.5-1.8-.4-3.6.3-5.4.1z" class="cls-8"/><path d="M80.1 318c1.5-3.9 3-7.6 6.4-10.2 1.1-.9 2.5-1.4 3.4-2.5.2.2.5.3.6.5 2.6 2.9 5.3 5.7 6.2 9.6-7.1 1.7-11.4 6.4-14.2 12.9-.7-2.7-2.3-4.9-3.7-7.1a12.7 12.7 0 0 0 1.3-3.2zM34.2 419.7a32.7 32.7 0 0 0 .1-4.4c3.5 2.4 7.1 4.5 11.5 5.1 1.8.2 3.6-.5 5.4-.1s-.5 2.4-1.8 2.8c-4.4 1.4-8.8.9-13.1-.3-1.7-.4-2.4-1.3-2.1-3.1z" class="cls-6"/><path d="M43.7 424a18.8 18.8 0 0 0 5.7-.9c1.3-.4 2.2-1.2 1.8-2.8s.3-5 .6-7.5c.7-5.7 1.2-11.5 1.4-17.2.3-3.2.9-6.4.6-9.7s.6-5.2.9-7.8a27.1 27.1 0 0 0 .1-2.9 17.2 17.2 0 0 0-.2-3.2c.3-3.6.7-7.1 1.1-10.7s0-7.3.8-10.8a2 2 0 0 0-.2-1.7 14 14 0 0 0 .6-4.5c.2-2.1.5-4.3.9-6.5s.7-6.4 1.1-9.6 1.6-5.3 3.2-7.6a12.8 12.8 0 0 1 7.3-4.1h.9l1 .2a15.6 15.6 0 0 1 7.5 4.5s-3.2-15.2-18.2-8.7c-12.9 5.4-16.2 88.7-16.9 111.5z" class="cls-9"/><path d="M52.5 506.9H-.9L-11 410.7h73.6l-10.1 96.2z" class="cls-5"/><path d="M-15.6 401.9h82.7v18.47h-82.7z" class="cls-6"/><path d="M19.7 401.9H31v104.99H19.7z" class="cls-10"/><path d="M29.1 406.5a62.8 62.8 0 0 0-28.5-19c-2.1 3-4.3 5.2-6.4 8.2 12 3.7 23.6 5.3 34.9 10.8z" class="cls-10"/><path d="M23 406.5a61.7 61.7 0 0 1 28.5-19c2.1 3 4.2 5.2 6.3 8.2-12 3.7-23.5 5.3-34.8 10.8z" class="cls-10"/><path d="M116.4 378.9l-.6.8a33 33 0 0 0-2.6 3.9c-.2-1-.2-2.1-.5-3.1s-.1-.5-.3-.4-.2.3-.2.5a19.4 19.4 0 0 1-.2 3.3c-.7-2.1-1.4-3.9-3.1-5.2a1.2 1.2 0 0 0-.1 1 36.3 36.3 0 0 0 1.3 5.7c.2.8.4 1.7 1.3 2.1s.2.2.2.3a40.5 40.5 0 0 1-.9 4.8c-.6-2.1-1.4-4.1-2.1-6.1a29.2 29.2 0 0 0-1.7-3.6.7.7 0 0 0-.6-.4c-.3 0-.3.4-.3.6a6.2 6.2 0 0 0 .1 1.9 40.7 40.7 0 0 0 3.4 10 1.6 1.6 0 0 1 .1 1.6l-1.1 3c-.1.1-.2.1-.2.2-.9-4.3-1.4-8.7-3.1-12.9a2 2 0 0 0-.7 1.1 11.8 11.8 0 0 0-.1 4.6 52.7 52.7 0 0 0 1.8 10.4 2.8 2.8 0 0 1-.2 2.5 8.1 8.1 0 0 1-1.1 2 12.2 12.2 0 0 0-.6-3c-1-3.7-2.2-7.3-3.5-10.8-.1-.2-.1-.3-.3-.3s-.2.2-.3.3a9.7 9.7 0 0 0-.1 3.8 54.8 54.8 0 0 0 2.1 8.9 11.7 11.7 0 0 0 1.1 2.8.9.9 0 0 1 .1 1.3l-.4.6a14.1 14.1 0 0 1-2.1 3.1 15 15 0 0 0-.5-3.7c-1-3.5-2-6.9-3.3-10.3-.1-.3-.1-.9-.5-.8s-.1.6-.1.9c0 4.9 1.2 9.5 2.3 14.2.3 1.3.6 2.5-.5 3.6a24.7 24.7 0 0 0-2.4 2.9v-1.6a63.9 63.9 0 0 0-.9-7.5 43.7 43.7 0 0 0-1.5-7c0-.2-.1-.5-.3-.5s-.3.3-.3.6a26.6 26.6 0 0 0-.1 6.9 79.3 79.3 0 0 0 1.4 9.6c.1.5.5 1.2.1 1.7l-3 3.4a24 24 0 0 0-.3-2.8 151.7 151.7 0 0 1-1.8-15.1c0-.2 0-.6-.3-.6s-.3.3-.4.5a16 16 0 0 0-1.1 8.1 93.1 93.1 0 0 0 1.7 11.8c.1.2.2.4 0 .6a18.5 18.5 0 0 1-2.8 2.8 3.4 3.4 0 0 1-.1-1q-.2-3.4-.6-6.9c-.5-3.7-.9-7.5-1.1-11.2 0-.2.1-.5-.1-.6s-.4.3-.4.5a11.6 11.6 0 0 0-1 4.9c0 2 .1 4.1.3 6.2a70.1 70.1 0 0 0 1.2 9.2c.1.3.2.5 0 .7a37.3 37.3 0 0 1-3 2.6 24.3 24.3 0 0 1 0-2.7c.2-4-.1-7.9-.1-11.9a8.9 8.9 0 0 0-.3-2.8c0-.2 0-.4-.2-.4s-.3.1-.4.3l-.3.6a8.9 8.9 0 0 0-.7 2.8 93.5 93.5 0 0 0 0 14c.1 1.1 0 2.1-1.1 2.6l-.3.2c-.4-5.3-1.4-10.5-1.3-15.9a.9.9 0 0 0-.5.6 26.1 26.1 0 0 0-.2 7.9l.6 8.1c0 .5-.9 1.3-1.3 1.2s-.2-.2-.2-.4a9.1 9.1 0 0 1-.1-1.7c-.1-2.1-.5-4.1-.7-6.2s-.3-3-.5-4.6 0-1.2-.4-1.1-.6.7-.6 1.2a22.5 22.5 0 0 0 0 5.8c.2 2.5.5 5.1.7 7.6.1.4 0 .6-.4.8l-1.2.5a38.8 38.8 0 0 0-3.6 1.5c-.4.2-.7.3-.6.8a.9.9 0 0 0 .9.7h1.5a16.4 16.4 0 0 0 5-1.7c.3-.2.6-.4 1-.2a13.2 13.2 0 0 0 5.9 1.1 16.5 16.5 0 0 0 8.9-2.6 6.9 6.9 0 0 0 2.3-2.2c.1-.2.2-.4.1-.5s-.3 0-.5.1l-1.8.8a22.3 22.3 0 0 1-6.7 1.9 25.2 25.2 0 0 1-5.5-.1c-.2 0-.4 0-.5-.2s.2-.2.3-.3l2.9-2.3c.2-.2.4-.2.8-.2a20.6 20.6 0 0 0 8.9-.5 32.5 32.5 0 0 0 7.9-3.4 7.9 7.9 0 0 0 2.5-2c.1-.1.3-.2.1-.5s-.4-.1-.5 0a16.3 16.3 0 0 1-1.9.9l-5 2a34.9 34.9 0 0 1-7.7 2 15.6 15.6 0 0 1-3.1.2c.1-.5.5-.6.8-.8s1-1.3 2-1.1.3-.4.3-.6.2-.6.6-.6a23.8 23.8 0 0 0 11.8-4.6 5.8 5.8 0 0 0 2-2.4c.1-.4.1-.6-.4-.5s-2 .7-2.9 1.2-2.9 1.4-4.3 2.1a14.7 14.7 0 0 1-3.7 1.3l3.2-3.8a.6.6 0 0 1 .5-.2 4.8 4.8 0 0 0 2.7-.3 38.5 38.5 0 0 0 9.2-3.7 12.7 12.7 0 0 0 5.2-4.8c.1-.2.5-.4.3-.7s-.6-.1-.8 0a18.7 18.7 0 0 0-3.2 1.5c-2.7 1.6-5.6 2.8-8.4 4.2l-2.5 1c-.2.1-.3.2-.4 0s0-.2 0-.3a20.9 20.9 0 0 0 2.3-2.9 1 1 0 0 1 .7-.4 7.5 7.5 0 0 0 3.9-.9c1.4-.8 2.8-1.6 4.1-2.5a31.1 31.1 0 0 0 6.5-5.5 7.7 7.7 0 0 0 1.4-2.5l-.2-.2-14.5 9.9h-.1l.6-1c1.1-1.5 2.2-2.9 3.2-4.5a3.5 3.5 0 0 1 2.5-1.8 15.5 15.5 0 0 0 6.5-3 36.4 36.4 0 0 0 3.4-3.4 23 23 0 0 0 3.5-5.8c.1-.1.2-.3 0-.4s-.3 0-.4.1a13.3 13.3 0 0 0-1.9 1.4c-2.7 2.2-4.7 5-7.6 6.9a16.8 16.8 0 0 1-3.3 1.6c.1-.3.1-.6.3-.8s1.6-3.3 2.3-5a.8.8 0 0 1 .8-.7 4.9 4.9 0 0 0 1.7-.6 17.8 17.8 0 0 0 4.9-3.6 36 36 0 0 0 3.7-4.1 10.9 10.9 0 0 0 1-2.5c0-.2.1-.5-.2-.6s-.3.1-.5.2l-1.4 1.1-6.8 5.7a6.7 6.7 0 0 1-1.6 1.2c.2-1.4.9-2.5 1.1-3.7s.5-1.9 1.6-2.1a.9.9 0 0 0 .5-.3 16.2 16.2 0 0 0 3.1-3.3 38.2 38.2 0 0 0 3.1-4.7c.1-.2.3-.5.1-.7s-.5 0-.7.1-2.7 2-3.9 3.2l-2.7 2.8c.1-.9.1-1.6.2-2.3s-.1-.6.2-.8a7.9 7.9 0 0 0 1.9-2.6c.8-1.5 1.5-3 2.2-4.5a3.4 3.4 0 0 0 .4-2.2c-.1-.3-.2-.6-.5-.7s-.4.1-.6.3z" class="cls-8"/><path d="M52.7 445.7s-12.4.2-22.7-20.9c6.2 22.7-3.2 30.7-3.2 30.7 11.4 4.4 9.8 25.8 9.8 25.8 7.8-.6 17.8 8.1 17.8 8.1s1.7-13.1 8-17.8c0 0-15.4-15-9.7-25.9zM96.8 451s-8.8-8.7-.8-30.8c-11.9 20.3-24.2 19.1-24.2 19.1 4.8 11.3-11.7 25-11.7 25 5.9 5.3 6.6 18.4 6.6 18.4s10.6-7.9 18.4-6.7c0 0-.1-21.5 11.7-25z" class="cls-7"/><path d="M297.2 361a1.8 1.8 0 0 0-2.1-1.2 10.5 10.5 0 0 0-2.4.6l-2.3.7-3.3.9c2.3-3.9 4.5-7.9 6.4-12 .9-2 1.7-4 2.5-6s2-4.3 2.1-6.5a2 2 0 0 0-3.6-1.2c-1.1 1.6-1.5 3.7-2.2 5.5s-1.3 3.5-2.1 5.3-1.5 3.3-2.3 5c-.2-.6-.3-1.3-.5-1.9l-.8-2.7a14.2 14.2 0 0 0-1-2.9 1.7 1.7 0 0 0-1.8-.9 1.8 1.8 0 0 0-1.3 1.5 4.4 4.4 0 0 0 .2 1.6l.4 1.4c.2.9.5 1.8.7 2.7s1.1 3.6 1.6 5.4v.4c-.1.2-.2.3-.2.5a126.2 126.2 0 0 1-12.8 18.7 110 110 0 0 1-8.7 9.4c-1.6 1.5.6 4 2.2 2.6a116.5 116.5 0 0 0 18.7-22.2 1.6 1.6 0 0 0 1.7.5l4.8-1.4 2.4-.6a14.8 14.8 0 0 0 2.7-1 1.8 1.8 0 0 0 1-2.2z" class="cls-11"/><path d="M285.3 429.6a71.5 71.5 0 0 1-.4 10.3 21.3 21.3 0 0 1-.3 2.5 77.6 77.6 0 1 1-66.7-87.2l2.5.4a67.4 67.4 0 0 1 8.9 2 75.9 75.9 0 0 1 26.8 13.8 77.7 77.7 0 0 1 29.2 58.2z" class="cls-12"/><path d="M285.3 429.6a56.2 56.2 0 0 1-109.7-23.2 57 57 0 0 1 4.1-15.1 56.3 56.3 0 0 1 49.6-33.7 75.9 75.9 0 0 1 26.8 13.8 77.7 77.7 0 0 1 29.2 58.2z" class="cls-8"/><path d="M256.1 371.4a17.7 17.7 0 0 1-.7 4.6c-2 6.5-8 11.5-14.4 15.2-12.2 6.9-27.3 10.1-41.5 7.6-7.2-1.2-14.2-3.6-19.8-7.5a26.1 26.1 0 0 1-8.8-10.1 31.9 31.9 0 0 1-3.3-15.5 77.4 77.4 0 0 1 50.3-10.5l2.5.4a67.4 67.4 0 0 1 8.9 2 75.9 75.9 0 0 1 26.8 13.8z" class="cls-12"/><path d="M160.6 387.4a86.5 86.5 0 0 1-18.5-24.8c0-.1.1-.2.2-.3l2.9-6a34.6 34.6 0 0 0 2.8-6.2 1.7 1.7 0 0 0-3-1.4 42.5 42.5 0 0 0-3.1 6l-1.8 3.8a81.2 81.2 0 0 1-3.8-10.4c-.7-2.1-1.2-4.3-1.7-6.4a46.8 46.8 0 0 0-1.6-6.7c-.7-1.8-3.4-1-3.5.7a21.9 21.9 0 0 0 .7 6.2 45.6 45.6 0 0 0 1.3 5.3l-5-1.1-3.2-.7c-1.4-.3-2.9-.8-4.2-.1a1.8 1.8 0 0 0-.5 2.7c.8 1 2.1 1.2 3.3 1.5l3.4.7 6.6 1.4h.9c.9 2.6 1.9 5.2 3 7.7a93.7 93.7 0 0 0 12.4 20.9 98.3 98.3 0 0 0 9.3 10 2.1 2.1 0 0 0 2.9.2 2.2 2.2 0 0 0 .2-3z" class="cls-11"/><path d="M194.5 376.5a16.1 16.1 0 0 1-2.9 5.5 21.2 21.2 0 0 1-3.3 3.4 34.6 34.6 0 0 1-11.4 6c-7.6 2.3-15.8 2.9-23.3 5.6-12.8 4.6-23.7 14.8-27.6 27.9.1.1.1.1 0 .2-.6 2.7-1.2 5.3-2 8-.2.5-1.2.3-1.1-.3.6-2.5 1.3-4.9 2-7.3l-1.6-.4c-.4 1.9-.8 3.8-1.3 5.7s-1.2.3-1-.3.8-3.8 1.3-5.7l-2.2-.9c-.1.8-.3 1.5-.4 2.2s-.6 2.7-1 4-1 .3-1-.3.6-2.6.9-3.9a20.5 20.5 0 0 1 .5-2.4l-1.7-1c-.3 1.4-.6 2.8-1 4.1s-1.2.3-1.1-.3.7-2.9 1.1-4.4l-1.7-1.3-.3 1.3a35.8 35.8 0 0 1-.9 3.5.5.5 0 0 1-1-.2 35.9 35.9 0 0 1 .8-3.5c.1-.6.3-1.3.4-1.9l-2-1.9a10.6 10.6 0 0 1-.4 1.9 34 34 0 0 1-.7 3.4c-.2.6-1.2.4-1.1-.2s.5-2.3.7-3.4l.6-2.6c0-.1.1-.2.1-.4v-.4a44 44 0 0 1 26.9-29c6.2-2.3 12.9-3.1 19-5.6s9.2-5.3 11.5-9.8a13.1 13.1 0 0 0 1.3-4.1 55.3 55.3 0 0 1 15.6 2.5 21.3 21.3 0 0 1 9.3 6.3z" class="cls-13"/><path d="M191.6 382a21.2 21.2 0 0 1-3.3 3.4c-3.2.4-7.5-1.9-9.7-3-4-2.1-8.2-5.2-9.9-9.5a2.7 2.7 0 0 1-.3-1.2 13.1 13.1 0 0 0 1.3-4.1 55.3 55.3 0 0 1 15.6 2.5 26.3 26.3 0 0 1 5.6 8.4 8.4 8.4 0 0 1 .7 3.5z" class="cls-14"/><path d="M255.9 368.6a26.2 26.2 0 0 1 .1 2.8 11.4 11.4 0 0 1-6.1 9.9 68 68 0 0 1-50.4 6.3 68 68 0 0 1-30.6-17.8 30.1 30.1 0 0 1 13.1-26.1c19.2 10.3 43.7 10.4 65 6.1 5.2 4.5 8.4 11.6 8.9 18.8z" class="cls-15"/><path d="M255.9 368.6c-3.8 3.6-8.9 5.8-13.9 7.4-10.4 3.2-21.4 4.3-32.3 4.4-3.6 0-7.8.3-9.6 3.4a5.6 5.6 0 0 0-.6 3.8 68 68 0 0 1-30.6-17.8 30.1 30.1 0 0 1 13.1-26.1c19.2 10.3 43.7 10.4 65 6.1 5.2 4.5 8.4 11.6 8.9 18.8z" class="cls-13"/><path d="M268.8 332.3A50.9 50.9 0 1 1 225 275l1.7.3a50.9 50.9 0 0 1 42.3 55.3 9.9 9.9 0 0 1-.2 1.7z" class="cls-12"/><path d="M269.3 328.2a45.4 45.4 0 0 1-89.7-13.5 17.7 17.7 0 0 1 .4-2 44.2 44.2 0 0 1 2.8-9.6 45.4 45.4 0 0 1 46.3-27.5 49.6 49.6 0 0 1 11.7 3.5 48.3 48.3 0 0 1 28.5 49.1z" class="cls-8"/><path d="M277.3 340.1c-4.7-2.2-13.4-1-18.6.2s-10.5 2.7-15.5 1.2c-1.8-.5-3.5-1.4-5.3-1.8s-5.5-.8-7.1 0a5.7 5.7 0 0 1-6.9-1.9 8.1 8.1 0 0 1-.7-5.8 8.8 8.8 0 0 1 .9-2.6c1.7-3.1 6.1-3.8 9.5-2.9s6.6 2.9 10 3.9c5.7 1.7 11.9.5 17.8 1.2a26.8 26.8 0 0 1 13.9 6.5c.7.7 1.4 1.3 2 2z" class="cls-16"/><path d="M275.3 338.1c-4.8-1.6-12.5-.5-17.2.6s-10.3 2.5-15.2 1.1c-1.8-.5-3.4-1.3-5.2-1.7s-5.3-.9-6.9-.1a5.4 5.4 0 0 1-6.7-1.8 6.4 6.4 0 0 1-.9-4.2 8.8 8.8 0 0 1 .9-2.6c1.7-3.1 6.1-3.8 9.5-2.9s6.6 2.9 10 3.9c5.7 1.7 11.9.5 17.8 1.2a26.8 26.8 0 0 1 13.9 6.5z" class="cls-17"/><path d="M207.7 318.6a2.8 2.8 0 0 1-3.1 2.4 2.7 2.7 0 0 1-2.3-3.1 2.8 2.8 0 0 1 3.1-2.4 2.7 2.7 0 0 1 2.3 3.1zM249.8 318.7a2.7 2.7 0 0 1-3.1 2.3 2.6 2.6 0 0 1-2.3-3 2.8 2.8 0 0 1 3.1-2.4 2.7 2.7 0 0 1 2.3 3.1zM232.2 400.7a2.7 2.7 0 0 1-5.4-.8 2.6 2.6 0 0 1 3-2.3 2.8 2.8 0 0 1 2.4 3.1zM232.8 425.7a2.8 2.8 0 0 1-3.1 2.4 2.8 2.8 0 0 1 .7-5.5 2.8 2.8 0 0 1 2.4 3.1zM233.1 347.8c-.6.7-1 1.5-1.6 2.2a11.2 11.2 0 0 1-2 1.8 8.7 8.7 0 0 1-4.9 1.6 9.1 9.1 0 0 1-8.4-5.9c-.5-1.5-2.7-.4-2.1 1a11.4 11.4 0 0 0 10.6 7.3 11.5 11.5 0 0 0 6.2-2.1c1.7-1.2 3.6-3.2 3.8-5.3a.9.9 0 0 0-1.6-.6z" class="cls-18"/><circle cx="173.5" cy="270.8" r="11.8" class="cls-17"/><path d="M165.3 268.4a.7.7 0 0 0-.6-.3.6.6 0 0 0-.6.1c-.2.2-.4.4-.4.6v.7a.4.4 0 0 1-.1.3 4.3 4.3 0 0 0 .1.5c0 .2 0 .3.1.4l.2.2h1l.2-.2c.1-.1.1-.2.1-.4s.1-.2.1-.3v-1a1.4 1.4 0 0 0-.1-.6zM168.3 275.2a.8.8 0 0 0-.1-.4c0-.1-.1-.2-.1-.3l-.2-.3-.3-.2h-.9l-.3.4v.2c-.1.2 0 .4 0 .5l.2.4c0 .1.1.1.1.2s.1.1.1.2h.2l.3.2h.9a.4.4 0 0 0 .1-.3.8.8 0 0 0 .1-.4.3.3 0 0 1-.1-.2zM171.5 270.9l-.6-.8-.3-.3h-1v.2a.8.8 0 0 0-.2.4v.3a.8.8 0 0 0 .2.4l.6.9.3.2h1c.1-.2.3-.4.3-.6v-.2c-.1-.2-.2-.3-.3-.5zM176.4 267c0-.2-.2-.2-.2-.4l-.3-.3-.6-.6-.3-.2h-.7a.5.5 0 0 0-.4.2.7.7 0 0 0-.3.6v.3a.6.6 0 0 0 .2.5l.6.6.2.3.5.4.3.2h.7l.3-.2a.3.3 0 0 0 .1-.2.4.4 0 0 0 .1-.3.6.6 0 0 0-.2-.9zM169.8 264.1a1 1 0 0 1-.4-.5l-.3-.2h-.6l-.3.2h-.2c0 .1-.1.3-.1.4v.3l.2.4.4.5c0 .1.1.1.2.2h.7l.2-.2h.2c.1-.2.1-.3.2-.4v-.3c-.1-.1-.1-.3-.2-.4zM175.2 262l-1-.4-1-.3c-.3 0-.5-.1-.7 0a1.2 1.2 0 0 0-.5.5 1.1 1.1 0 0 0 0 .8.7.7 0 0 0 .5.4l1 .4 1.3.3c.2 0 .5 0 .6-.2a.5.5 0 0 0 .3-.5c.2-.4-.1-.8-.5-1zM173.4 277.2l-1.1-.5-.8-.4a1.1 1.1 0 0 0-.8 0 1.2 1.2 0 0 0-.5.5 1.1 1.1 0 0 0 0 .8 1 1 0 0 0 .6.5l.8.4.4.2.5.2h.7c.2-.1.3-.3.4-.4a.7.7 0 0 0 .1-.6.9.9 0 0 0-.3-.7zM178 273.8l-.2-.3-.3-.3h-.2l-.4-.3h-1a.2.2 0 0 0-.2.2l-.2.2v.7l.3.4.4.3h1.4l.2-.2v-.8zM181.7 270.2c-.2-.8-.5-1.6-.7-2.4a1.2 1.2 0 0 0-.5-.5 1.1 1.1 0 0 0-.8 0 1 1 0 0 0-.5.6v.2c0 .2.1.3.1.5s.5 1.6.7 2.3a1 1 0 0 0 .5.6h.8a.8.8 0 0 0 .5-.5v-.2a.7.7 0 0 0-.1-.6z" class="cls-19"/><path d="M173.1 278.1c2.7-4.4 7.1-7.6 11.8-9.7 8.9-3.9 19-4.4 28.6-2.6s18.6 5.6 27.2 10.1a9.3 9.3 0 0 1 3.8 3 6 6 0 0 1 0 5.8 15 15 0 0 1-3.7 4.6 80.7 80.7 0 0 1-29.8 18.3 61.8 61.8 0 0 1-34.6 1.3c-2.4-.7-5.8-1.8-6.8-4.4s.3-4.1.4-6.1c.4-7.2-.8-13.8 3.1-20.3z" class="cls-5"/><path d="M255.2 288.9a85.5 85.5 0 0 1-75.2 23.8 69.3 69.3 0 0 1-7.9-1.7c-1.6-.4-1.6-2.2-1.4-3.8a5.4 5.4 0 0 1 2.4-4.2c3.2.2 6.5.2 9.7.1a95.3 95.3 0 0 0 58-24 47.7 47.7 0 0 1 14.4 9.8z" class="cls-12"/><path d="M251.9 281.6c1.7 1.9 2.7 3.8 1.8 4.7a85.2 85.2 0 0 1-84.7 23.8c-1.6-.4-1.7-2.2-1.5-3.8a5.6 5.6 0 0 1 2.4-4.2c25.1 1.7 51.1-8.1 69.4-25.4 2.7-2.5 9.1 1.3 12.6 4.9z" class="cls-17"/><path d="M174.4 306.8a25.1 25.1 0 0 1-.4-2.7 1 1 0 0 0-1.1-.8.9.9 0 0 0-.8 1.1l.3 2.7a22.3 22.3 0 0 0 .3 2.7c.1.5.6 1 1.1.9a1.1 1.1 0 0 0 .9-1.1zM187.7 310.8l-.7-1.5-.5-1.4a8.6 8.6 0 0 1 0-3.2.9.9 0 0 0-1.8-.2 8.1 8.1 0 0 0 0 3.8 12.1 12.1 0 0 0 .5 1.8 5.4 5.4 0 0 0 1.1 1.8.9.9 0 0 0 1.1 0 .9.9 0 0 0 .3-1.1zM199 308.8l-.6-1.7-1.1-3.5a1 1 0 0 0-1.3-.5 1.1 1.1 0 0 0-.5 1.3c.4 1.1.7 2.3 1.1 3.4l.5 1.7a8.5 8.5 0 0 0 .6 1.7.9.9 0 0 0 1.8-.5 18 18 0 0 0-.5-1.9zM212.2 307.5c-1.1-3-2.3-6-3.5-9-.4-1.1-2.1-.3-1.7.8 1.1 3 2.2 6 3.4 8.9a.9.9 0 0 0 1.3.5.9.9 0 0 0 .5-1.2zM226 302.9c-.4-.8-1-1.5-1.5-2.3l-1.4-2.1-2.9-4.2a.9.9 0 0 0-1.3-.2.9.9 0 0 0-.1 1.3l2.7 4.3 1.4 2a16.4 16.4 0 0 0 1.4 2.2c.7.8 2.2 0 1.7-1zM237.8 295a10.7 10.7 0 0 0-1.4-1.6l-1.5-1.5-2.9-3.1a1.1 1.1 0 0 0-1.4-.2 1.1 1.1 0 0 0-.2 1.4l3 3.2 1.4 1.6a8.7 8.7 0 0 0 1.7 1.6.9.9 0 0 0 1.2-.1.9.9 0 0 0 .1-1.3zM244.8 289a40.3 40.3 0 0 0-3.7-3.4l-3.7-3.3a1 1 0 0 0-1.4.2 1.1 1.1 0 0 0 .2 1.3l3.6 3.4c1.2 1.1 2.4 2.2 3.7 3.2s.9.3 1.3-.1a.9.9 0 0 0 0-1.3zM251.9 285.7a18.1 18.1 0 0 0-2.1-1.8l-2.2-1.8-4.3-3.4a1.1 1.1 0 0 0-1.4.2 1.1 1.1 0 0 0 .2 1.4l4.3 3.4 2 1.6a19.2 19.2 0 0 0 2.2 1.8 1.2 1.2 0 0 0 1.3-.1.9.9 0 0 0 0-1.3z" class="cls-19"/><path d="M184.7 273.4a1.3 1.3 0 0 0-.7-.6l-.5-.3h-1.4a1 1 0 0 0-.7.4 1.1 1.1 0 0 0-.2.8 2.5 2.5 0 0 0 .4.7l.8.2c0-.1 0-.1.1-.1a.1.1 0 0 0 .1.1c.1 0 .2 0 .2.1h.2a.1.1 0 0 1 .1.1c.1.1.2.2.2.3a1.2 1.2 0 0 0 .5.5h.6l.6-.4a.8.8 0 0 0 .1-.7 1.8 1.8 0 0 0-.4-1.1zM191.5 279.2l-.2-.3-.2-.2-.5-.5-.8-1-.7-.4a1.6 1.6 0 0 0-.9.3 1.2 1.2 0 0 0-.1 1.5l.9.9a5.7 5.7 0 0 0 1.1 1.1.7.7 0 0 0 .7.2.6.6 0 0 0 .6-.3.9.9 0 0 0 .3-.6.8.8 0 0 0-.2-.7zM182.1 280.6l-.3-.6-.7-1.1-.2-.3-.3-.2h-.8a1 1 0 0 0-.5.6 1.1 1.1 0 0 0 0 .8l.6 1.1.3.5.3.4a.8.8 0 0 0 .4.4l.4.2h.6a1.2 1.2 0 0 0 .5-1zM186.1 287.2l-.7-.8a1 1 0 0 0-.7-.4h-.5l-.4.2a1.2 1.2 0 0 0-.4.8 1.1 1.1 0 0 0 .2.8l.8.8.3.4.4.4.3.2h.9l.3-.2.2-.3a1.3 1.3 0 0 0 .1-.6 2 2 0 0 0-.8-1.3zM178.8 283.9c-.2-.5-.6-1-1.2-.9a1.1 1.1 0 0 0-.9 1.2c.4 1.4.7 2.8 1 4.2s.2.5.4.6a.8.8 0 0 0 .8.2c.5-.1 1-.6.9-1.1s-.7-2.8-1-4.2zM176.5 293.2a1 1 0 0 0-.4-.7.8.8 0 0 0-.7-.1.7.7 0 0 0-.6.3.8.8 0 0 0-.2.8c.2.7.3 1.5.5 2.3a.9.9 0 0 0 .4.6.7.7 0 0 0 .7.2 1.1 1.1 0 0 0 .8-1.1zM183.1 296.7l-.4-1a.9.9 0 0 0-.6-.6 1.1 1.1 0 0 0-.8 0 1 1 0 0 0-.5.6 1.1 1.1 0 0 0 0 .8l.4 1a.8.8 0 0 1 .2.5l.4.6.2.2.3.2h.7l.4-.3a1.9 1.9 0 0 0 .2-.7 4.3 4.3 0 0 0-.5-1.3zM196.4 288.4l-.7-.7-.6-.6-1.2-1.1a.8.8 0 0 0-.8-.2.9.9 0 0 0-.6.3 1.1 1.1 0 0 0-.3.6 1.2 1.2 0 0 0 .2.8l1.2 1.1.6.6.8.7a.9.9 0 0 0 .7.1.7.7 0 0 0 .6-.3.9.9 0 0 0 .1-1.3zM192.4 296.9l-1.3-2.2c-.1-.2-.5-.3-.7-.3a.8.8 0 0 0-.8.2.8.8 0 0 0-.3.7v.2a.8.8 0 0 0 .2.5l1.2 2a.8.8 0 0 0 .7.3.9.9 0 0 0 1-.6c.1-.2.2-.6 0-.8zM201.9 281.2c0-.2-.1-.3-.3-.4l-2.1-1.9a.8.8 0 0 0-.8-.2 1.3 1.3 0 0 0-.7.4 1.9 1.9 0 0 0-.2.8v.2l.3.5 2.2 1.8a.7.7 0 0 0 .7.2.8.8 0 0 0 .7-.4.7.7 0 0 0 .2-.7.4.4 0 0 0 0-.3zM193.7 271.2a5.9 5.9 0 0 0-1.4-.6l-1.2-.5a1.1 1.1 0 0 0-.8 0 1.2 1.2 0 0 0-.5.5 1 1 0 0 0 .5 1.3l1.3.5a3.4 3.4 0 0 0 1.4.5 1 1 0 0 0 1-.6 1.1 1.1 0 0 0-.3-1.1zM204.5 271.3l-.9-.6-.7-.3-1.6-.6a1 1 0 0 0-1.4.6 1.2 1.2 0 0 0 .6 1.4l1.5.6.8.4.7.2a1.1 1.1 0 0 0 .8 0 1 1 0 0 0 .5-.4c.2-.4.2-1.1-.3-1.3zM211 279.1l-4.5-2.4a1 1 0 0 0-.9 0 1 1 0 0 0-.5.6 1 1 0 0 0 .6 1.3c1.4.8 2.8 1.6 4.3 2.3a1 1 0 0 0 1.3-.4 1.1 1.1 0 0 0-.3-1.4zM205 290.9a4.1 4.1 0 0 0-.5-.9l-.5-.6-1-1.2a1.3 1.3 0 0 0-.7-.4l-.8.2a1.2 1.2 0 0 0-.2 1.5l1 1.2.5.7.3.3.4.4.6.2.6-.2c.2-.2.3-.3.3-.4a1.1 1.1 0 0 0 0-.8zM214.6 288.4a5.3 5.3 0 0 0-1.4-1.1l-1.4-.9a1.1 1.1 0 0 0-.8-.3 1.5 1.5 0 0 0-.7.5 1.9 1.9 0 0 0-.2.8 2.5 2.5 0 0 0 .4.7l1.4.9.7.5a2.6 2.6 0 0 0 .9.5 1 1 0 0 0 1.2-.3 1.2 1.2 0 0 0-.1-1.3zM219.3 279.3l-3.4-2.4a1.1 1.1 0 0 0-1.5.3 1 1 0 0 0 .2 1.5 40.5 40.5 0 0 0 3.4 2.3.8.8 0 0 0 .8.2.8.8 0 0 0 .7-.4 1.1 1.1 0 0 0-.2-1.5zM215.7 271.7c-.1-.3-.3-.4-.6-.6l-1.7-.7-1.7-.8a.9.9 0 0 0-1.3.5 1.1 1.1 0 0 0 .6 1.4l1.7.8 1.7.7a.9.9 0 0 0 1.3-.5 1.1 1.1 0 0 0 0-.8zM228.6 277.1a.9.9 0 0 0-.6-.6l-2.8-1.3a1 1 0 0 0-1.4.6 1.1 1.1 0 0 0 .6 1.4l2.8 1.3a1.2 1.2 0 0 0 1.4-.6 1.1 1.1 0 0 0 0-.8zM226 270.8l-3.1-.9h-.9a1 1 0 0 0-.5.6 1.1 1.1 0 0 0 0 .8c.1.2.3.5.6.5l3.1 1c.3 0 .6.1.8-.1a1 1 0 0 0 .6-.5 1.1 1.1 0 0 0-.6-1.4zM224.8 284.8l-.3-.4a2.1 2.1 0 0 0-.8-.6l-.8-.6a.7.7 0 0 0-.7-.2h-.4l-.3.3a.8.8 0 0 0-.2.8.8.8 0 0 0 .4.6l.8.6.7.6.4.2c.1 0 .3.1.4 0h.4l.3-.3a1.9 1.9 0 0 0 .2-.8zM236.1 276.3l-1.5-.9-1.4-.7h-.9l-.5.5a1.5 1.5 0 0 0-.1.7 1 1 0 0 0 .4.7l1.4.8 1.5.8a1.1 1.1 0 0 0 1.4-.5 1.3 1.3 0 0 0-.3-1.4zM201.8 266.7H199a.9.9 0 0 0-.7.3.8.8 0 0 0-.4.6.8.8 0 0 0 .2.7 1 1 0 0 0 .7.4h3a.9.9 0 0 0 .8-1 1 1 0 0 0-.8-1z" class="cls-20"/><path d="M236 328.7a.5.5 0 0 0-.7-.3 3.6 3.6 0 0 0-2.2 3.8.5.5 0 0 0 .5.4c.2 0 .5-.2.5-.4a3.4 3.4 0 0 1 .1-1c0-.1 0-.2.1-.2a.4.4 0 0 1 .1-.3l.3-.4.2-.2h.1l.4-.3a.1.1 0 0 0 .1-.1h.2a.4.4 0 0 0 .3-1zM242.6 331.1a.5.5 0 0 0-.7.3l-.7 1.2-.6 1.2a.5.5 0 0 0 .2.6c.2.1.5.1.6-.1l.8-1.3.6-1.3c.2-.2 0-.5-.2-.6zM244.7 331.6a.6.6 0 0 0-.7.2l-.6 1.7a.5.5 0 0 0 .3.7.4.4 0 0 0 .6-.3 12.2 12.2 0 0 0 .7-1.7.4.4 0 0 0-.3-.6zM252.5 334.1h.4c.2-.2.4-.5.3-.7a.7.7 0 0 0-.8-.3 1.8 1.8 0 0 0-1 1.5 1.8 1.8 0 0 0 .8 1.7h.4l.3-.2a.5.5 0 0 0-.1-.8h-.3v-.2z" class="cls-16"/><path d="M252.6 334.8c.1.1 0 .1 0 0zM252.8 333.7z" class="cls-16"/><path d="M224.2 444.1l-51.6 102a3.6 3.6 0 0 1-3.3 2 4.7 4.7 0 0 1-1.6-.4l-73.9-37.4a3.6 3.6 0 0 1-1.6-4.9l51.6-101.9a4.3 4.3 0 0 1 .4-.7 3.7 3.7 0 0 1 4.5-.9l73.9 37.3a3.7 3.7 0 0 1 1.6 4.9z" class="cls-8"/><path d="M217.5 457.3l-2.5 4.9-10.5-32.1 4.9 2.5 8.1 24.7zM211.9 468.4l-2.5 4.9-16-48.8 4.9 2.5 13.6 41.4zM206.3 479.5l-2.5 4.9-21.5-65.5 4.9 2.5 19.1 58.1zM200.7 490.6l-2.5 4.9-26.9-82.2 4.9 2.5 24.5 74.8zM195.1 501.6l-2.5 5-32.4-98.9 4.9 2.4 30 91.5zM189.5 512.7l-2.5 4.9-37.9-115.5 4.9 2.4 35.5 108.2zM183.9 523.8l-2.5 4.9-39.7-121.1 2.1-4.1a4.3 4.3 0 0 1 .4-.7zM178.3 534.9l-2.5 4.9-39.7-121.1 2.5-4.9 39.7 121.1zM172.7 545.9v.2a3.6 3.6 0 0 1-3.3 2l-38.9-118.3 2.5-4.9z" class="cls-6"/><path d="M199.7 495.6l-21.7-9.9-16.6-9.4a39.5 39.5 0 0 0 16.8-6.4c1.5-1 2.9-2.4 2.9-4.3a3.4 3.4 0 0 0-2.6-3.5c-1.9-.6-3.9.1-5.7.7a48.7 48.7 0 0 0-5.7 2.4 44.8 44.8 0 0 0-4.7 2.8c2.1-4.4 4.2-8.7 6.4-13.1s4.6-7.2 7-10.8c4.9-7.5 9.9-15.1 14.9-22.5.5-.7-.5-1.5-1-.8l-15.9 23.8a9.3 9.3 0 0 1 .5-1c4-8.2 8-16.4 12.1-24.5.4-.8-.8-1.3-1.2-.5a.3.3 0 0 0-.1.2.9.9 0 0 0-1 .4l-21.8 42.9-.5 1-4.9 7.8a56.6 56.6 0 0 0-1.2-8.1q6.2-10.9 12.6-21.6c4.7-7.7 9.5-15.3 14.5-22.8.5-.8-.6-1.6-1.1-.9-8.8 13.3-17.2 26.8-25.1 40.7a20.1 20.1 0 0 0-1.4 2.5c-.6-1.9-1.2-3.8-1.9-5.7a15.7 15.7 0 0 0-2.9-5.2 4.3 4.3 0 0 0-4.4-1.4 4.9 4.9 0 0 0-3.1 3.2c-1.3 3.7 1.3 7.6 3.1 10.7a78.3 78.3 0 0 0 4.5 6.7l-.5.9-13.9-7.9-17.4-9.7c-.7-.4-1.2.8-.5 1.2l31.1 17.7-.6 1.1-15.5-7-18.7-8.5c-.7-.3-1.2.8-.5 1.1l34 15.7-1.2 2.2-14.2-7.6-17.6-9.4c-.7-.4-1.1.8-.5 1.1l31.6 17.3c-4.1 7.7-8.1 15.5-11.9 23.3s-7.8 16.3-11.4 24.5a.8.8 0 0 0 1.4.6.3.3 0 0 1 .1-.2c.2.4.9.7 1.2.2q12.1-20.7 24.6-41.1l2.4-3.9.3.2-12.1 24.1c-4.1 8-8.3 16-12.2 24.2-.4.9 1 1.5 1.5.6 3.8-7.1 7.3-14.4 10.9-21.5l8.4-16.5c-2.3 4.7-4.5 9.5-6.8 14.2-3.9 8.3-7.7 16.6-11.5 24.9-.5.9 1 1.5 1.4.6 6.9-14.7 13.7-29.3 20.7-43.9a35.4 35.4 0 0 1 1.6-3.4c-.7 9 1.4 18.4 6.5 25.8.5.7 1.6 0 1.2-.7a45 45 0 0 1-5.8-15.4 41.3 41.3 0 0 1-.3-11.1 46.2 46.2 0 0 0 10.7 22.5 37.8 37.8 0 0 0 6.3 5.7.8.8 0 0 0 .9-1.2 80.7 80.7 0 0 1-6.7-6.4 42.7 42.7 0 0 1-5.2-7.6 41.5 41.5 0 0 1-4.4-12.2l18.3 10 17.5 9.4c.9.5 1.5-.9.6-1.3l-36.8-20-.3-2.7.4-.9 18.7 8.6 2.6 1.5 17.4 9.8c.8.5 1.5-1 .6-1.5l-4-2.2 6.2 2.8c.8.4 1.4-1 .6-1.4zm-48.4-28l-2.2-3.2c-1.1-1.7-2.1-3.3-3-5a18.1 18.1 0 0 1-2-5 4.3 4.3 0 0 1 1.5-4.1c1.5-1.2 3.1-.3 4.1 1a20.2 20.2 0 0 1 2.4 4.9q1.1 2.7 1.8 5.4a4.4 4.4 0 0 0 .2 1c-1 1.6-1.9 3.3-2.8 5zm-13.4 34.1c-4.3 7.2-8.6 14.4-12.7 21.7q9.2-20.7 19.7-40.8l2.5-4.7 3.8 2.1c-4.5 7.2-8.9 14.4-13.3 21.7zm14.1-23l-3.9-2.1c.4-.8.8-1.6 1.3-2.4l4.2 2c-.5.8-1.1 1.6-1.6 2.5zm2.4-3.8L150 473l.6-1 4 2.3h.1zm-2.1-6c.7-1.4 1.5-2.8 2.3-4.1a55.6 55.6 0 0 1 .9 8.2c-1.1-1.4-2.2-2.7-3.2-4.1zm1 10.5l1.5-2.4c-.4.8-.9 1.6-1.3 2.5zm5.8-4.4h-.1c.7-1.5 1.5-2.9 2.2-4.4s2.8-2 4.2-2.9a39.1 39.1 0 0 1 9.9-4.1c1.5-.4 4.2-.5 4.4 1.7s-1.8 3.1-3.2 4a43.8 43.8 0 0 1-9.7 4.2 40.3 40.3 0 0 1-7.7 1.5zm-.8 1.7h.5l2.8 1.5z" class="cls-3"/><path d="M750 5.4v434.8a240.4 240.4 0 0 1-91 23.9 3.4 3.4 0 0 1-2.8-5.5c12.6-15.6 25.1-31.2 38.6-45.9a3.4 3.4 0 0 0-3.7-5.5 193.5 193.5 0 0 1-78.2 12.5 3.4 3.4 0 0 1-1.7-6.3c22-13.9 43.8-28.3 63.2-45.6s33.9-36.5 44.1-59a3.4 3.4 0 0 0-5.1-4.2 158.8 158.8 0 0 1-71.6 29.5 3.4 3.4 0 0 1-2.9-5.7 543.1 543.1 0 0 0 48.7-57.4c8.5-11.5 15.9-23.2 18.9-36.7a3.4 3.4 0 0 0-4.9-3.7 160.7 160.7 0 0 1-75.3 19.1 3.4 3.4 0 0 1-1.4-6.5c35-16.6 64.2-44.9 83.3-78.8a3.4 3.4 0 0 0-4.6-4.6 117.9 117.9 0 0 1-59.4 13.5 3.4 3.4 0 0 1-1.6-6.3C700 132.8 740.8 71.6 750 5.4z" class="cls-7"/><path d="M750 419a190 190 0 0 1-35.3 11 3.3 3.3 0 0 1-3.5-4.9c11-18 17.1-38.1 21.1-58.9a3.3 3.3 0 0 0-5.2-3.2 83.8 83.8 0 0 1-30.3 15.1 3.3 3.3 0 0 1-3.7-4.7c8.8-16.7 18.3-33.1 26.2-50.3 2.2-4.8 23.8-45.2 11.1-45.2-3.4 0-10.4 6.5-13.4 8.4-8.1 5-16.5 9.7-26 11.6a3.3 3.3 0 0 1-3.2-5.2 255.1 255.1 0 0 0 39.4-72 3.3 3.3 0 0 0-4.1-4.2 100.7 100.7 0 0 1-33.6 4.5 3.2 3.2 0 0 1-1.4-6.1c23.2-12.8 49.6-81.4 43.8-78.1-10.6 5.8-19.2 6.1-30.4 5.7a1.2 1.2 0 0 1-.7-2.1c24.8-18.3 39.6-48.8 49.2-78.5z" class="cls-3"/><path d="M701.5 481.4l-14-17.3a39.6 39.6 0 0 1-7.6-18.3l-3.6-25.1a5.8 5.8 0 0 1 3.1-6c1.1 11.7 4.4 38.6 11.7 45.2l11.3 13.2a16.7 16.7 0 0 1 1.5 20 13.2 13.2 0 0 0-2.4-11.7zM588.8 406.2a11.8 11.8 0 0 0-9 7c2-10.1 14.7-11 14.7-11l24-4a26.9 26.9 0 0 0 5.6 2.1zM691.2 389.3l-35.3 5.8a39.4 39.4 0 0 0 4.5-3.6l31.7-5.6a11.9 11.9 0 0 1 10.5 3.1 10.5 10.5 0 0 1 2.7 3.9c1.2 2.7 1.5 6.2-.8 10.3a11.5 11.5 0 0 0 .1-4.9 11.7 11.7 0 0 0-13.4-9zM671.4 358.4a37.4 37.4 0 0 0-42.9-30.9 42.6 42.6 0 0 0-5.4 1.4 33.3 33.3 0 0 1 9.1-2.8 36.6 36.6 0 0 1 29.4 64.1 36.9 36.9 0 0 0 9.8-31.8z" class="cls-21"/><path d="M589 407.8l39.4-6.5a.8.8 0 0 0 .7-.8c-.1-.4-.3-.7-.7-.7a35.7 35.7 0 1 1 23.2-3.8c-.3.1-.4.5-.4.8.2.4.5.7.9.6l39.4-6.5a10 10 0 0 1 11.5 7.7 9.5 9.5 0 0 1-1.6 7.5 9.6 9.6 0 0 1-6.5 4.2l-14.1 2.3a7.4 7.4 0 0 0-6.1 8.3l3.6 25.1a41 41 0 0 0 8 19.1l13.9 17.3a11.6 11.6 0 0 1-1.5 16 11.4 11.4 0 0 1-16.2-1.4l-28.8-33.9a3.3 3.3 0 0 0-3.1-1.1 3.1 3.1 0 0 0-2.6 2.1L630.6 508a8.7 8.7 0 0 1-13.7 4c-5.4-3.8-7.8-12-5.6-18.1l6.5-17.5a41.3 41.3 0 0 0 1.4-20.6l-4.6-25a7.3 7.3 0 0 0-8.4-5.9l-14.2 2.3a10 10 0 0 1-7.5-1.8 10.3 10.3 0 0 1-3.9-6.7 10 10 0 0 1 8.4-10.9z" class="cls-22"/><path d="M579 419a11.4 11.4 0 0 0 4.5 7.7 11.6 11.6 0 0 0 8.8 2.1l14.1-2.3a5.7 5.7 0 0 1 6.6 4.6l4.6 25a37.7 37.7 0 0 1-1.4 19.7l-6.4 17.5c-2.5 6.8.2 15.8 6.1 20a11.1 11.1 0 0 0 8.2 2.2l1.2-.3a10.8 10.8 0 0 0 6.8-6.6l17.4-43.9a1.6 1.6 0 0 1 1.3-1.1 1.8 1.8 0 0 1 1.7.6l28.8 33.9a13.1 13.1 0 0 0 18.4 1.6 13.4 13.4 0 0 0 4.2-6.6 13.2 13.2 0 0 0-2.4-11.7l-14-17.3a39.6 39.6 0 0 1-7.6-18.3l-3.6-25.1a5.8 5.8 0 0 1 3.1-6l1.6-.5 14.2-2.3a11.3 11.3 0 0 0 9.3-8.7 11.5 11.5 0 0 0 .1-4.9 11.7 11.7 0 0 0-13.4-9l-35.3 5.8a39.4 39.4 0 0 0 4.5-3.6l1.2-1.3a36.9 36.9 0 0 0 9.8-31.8 37.4 37.4 0 0 0-42.9-30.9 42.6 42.6 0 0 0-5.4 1.4 37.3 37.3 0 0 0-4.6 69.3 26.9 26.9 0 0 0 5.6 2.1l-35.3 5.9a11.8 11.8 0 0 0-9 7 12.6 12.6 0 0 0-.8 5.8zm13 8.2a10 10 0 0 1-7.5-1.8 10.3 10.3 0 0 1-3.9-6.7 10 10 0 0 1 8.4-10.9l39.4-6.5a.8.8 0 0 0 .7-.8c-.1-.4-.3-.7-.7-.7a35.7 35.7 0 1 1 23.2-3.8c-.3.1-.4.5-.4.8.2.4.5.7.9.6l39.4-6.5a10 10 0 0 1 11.5 7.7 9.5 9.5 0 0 1-1.6 7.5 9.6 9.6 0 0 1-6.5 4.2l-14.1 2.3a7.4 7.4 0 0 0-6.1 8.3l3.6 25.1a41 41 0 0 0 8 19.1l13.9 17.3a11.6 11.6 0 0 1-1.5 16 11.4 11.4 0 0 1-16.2-1.4l-28.8-33.9a3.3 3.3 0 0 0-3.1-1.1 3.1 3.1 0 0 0-2.6 2.1L630.6 508a8.7 8.7 0 0 1-13.7 4c-5.4-3.8-7.8-12-5.6-18.1l6.5-17.5a41.3 41.3 0 0 0 1.4-20.6l-4.6-25a7.3 7.3 0 0 0-8.4-5.9z" class="cls-21"/><path d="M649.4 358.2c4.2-.6 4.6 5.9.5 6.6s-4.6-5.9-.5-6.6zM618.1 363.4c4.2-.7 4.6 5.8.5 6.5s-4.6-5.8-.5-6.5z" class="cls-18"/><path d="M623.8 378.6c0-2.7 2.6-3.9 4.9-3.9a24.7 24.7 0 0 1 5.3 1 5.9 5.9 0 0 0 3.7-.6c1.6-.9 3-2.1 4.7-2.7s5.1-.4 5.9 2.2a3.9 3.9 0 0 1 0 2.6c-.7 2.2-2.5 3.5-4.4 4.6h-.1a20.7 20.7 0 0 1-13.4 2.2h-.1c-2.1-.5-4.3-1.2-5.6-3a3.8 3.8 0 0 1-.9-2.4z" class="cls-23"/><path d="M623.8 378.6c0-2.7 2.6-3.9 4.9-3.9a24.7 24.7 0 0 1 5.3 1 5.9 5.9 0 0 0 3.7-.6c1.6-.9 3-2.1 4.7-2.7s5.1-.4 5.9 2.2a3.9 3.9 0 0 1 0 2.6c-.7 2.2-2.5 3.5-4.4 4.6h-.1a20.7 20.7 0 0 1-13.4 2.2h-.1c-2.1-.5-4.3-1.2-5.6-3a3.8 3.8 0 0 1-.9-2.4z" class="cls-24"/><path d="M650 458.4a6.9 6.9 0 0 1 3.7.6 13.4 13.4 0 0 1 5.6 4.1l26.6 33s6.6 4.9 11.3 0 .5-10.7.5-10.7l-15.8-20.7c-5.4-5.8-6.1-13.9-6.1-13.9l-4.4-28.1c-.7-2.8-.6-8.7 1.5-10.9s5.3-3.3 8.3-4.1a39.8 39.8 0 0 1 7.7-1.2c3.7-.3 8.6-1.4 9-5.3a4.8 4.8 0 0 0-2.6-4.6c-2.8-1.6-5.9-1.2-8.9-.7l-24.9 3.9c-3.4.5-7.3 2-10.5.7a4.6 4.6 0 0 1-2.1-6.3c1.1-2.2 3.2-3.6 5.1-5.2a31.4 31.4 0 0 0-8.8-54.1s-4.1-3.3-15.8-1.8l-.9.2c-11.6 2.3-14.5 6.7-14.5 6.7a31.5 31.5 0 0 0 9 54.1c2.3.9 4.8 1.5 6.6 3.3a4.5 4.5 0 0 1-.1 6.6c-2.6 2.3-6.8 2.2-10.1 2.7l-24.8 4.3c-3 .5-6.2 1.1-8.3 3.5a5 5 0 0 0-.9 5.2c1.5 3.6 6.6 3.1 10.2 2.1a48.3 48.3 0 0 1 7.6-1.3c3.1-.2 6.4-.2 9.2 1.3s4.7 6.9 4.9 9.8l4.9 28.1s1.9 7.9-1.3 15.1l-8.4 24.6s-2.1 6.9 3.9 10 10.7-3.6 10.7-3.6l14.7-39.8a13.3 13.3 0 0 1 3.9-5.7 7.8 7.8 0 0 1 3.4-1.7z" class="cls-25"/><path d="M635.3 408.9a3.2 3.2 0 0 0-1.3 3.6 3.6 3.6 0 0 0 3.1 2.4 2 2 0 0 0 1.8-1.4 2.3 2.3 0 0 0 .8 1.6 3.5 3.5 0 0 0 3.7 0 3.6 3.6 0 0 0 1.5-3.6 2.3 2.3 0 0 0 1.9-.7 2.4 2.4 0 0 0 .6-2 3.4 3.4 0 0 0-1.1-1.8 11.9 11.9 0 0 0-2.5-1.3 2.1 2.1 0 0 0-3.5-2.2 1.7 1.7 0 0 0-.4 1.4 3.2 3.2 0 0 0-5.4 1.5 2.2 2.2 0 0 0 .8 2.5zM638.4 428.2a3.4 3.4 0 0 0-1.2 3.7 3.3 3.3 0 0 0 3.1 2.3 1.9 1.9 0 0 0 1.8-1.3c.1.6.2 1.2.8 1.5a3.5 3.5 0 0 0 3.7.1 4.1 4.1 0 0 0 1.5-3.7 2.3 2.3 0 0 0 1.9-.7 2.2 2.2 0 0 0 .6-1.9 3 3 0 0 0-1.2-1.9 13.4 13.4 0 0 0-2.4-1.2 2.2 2.2 0 0 0-.7-2.8 2.3 2.3 0 0 0-2.8.5 2.4 2.4 0 0 0-.5 1.4 3.1 3.1 0 0 0-3.1-.7 3.2 3.2 0 0 0-2.2 2.2 2.3 2.3 0 0 0 .7 2.5z" class="cls-8"/><path d="M375 500V347s-89.5-22.8-87 153zM375 500V347s89.5-22.8 87 153z" class="cls-6"/><path d="M370.5 410.3h8.9v89.69h-8.9z" class="cls-26" transform="rotate(180 375 455.15)"/><path d="M419.3 356.6c25.4 8.4 47.5 27.6 57.7 52.3 5.7 14 7.7 29.8 3.7 44.4s-14.3 27.6-28.4 33.2c-17.5 7-38.8 1.1-51.5-12.8 2.1-1.3 4.2-3.8 4.3-6.3 10.9 6.2 26 4.6 35.7-3.3s14.8-20.8 14.2-33.4-6.6-24.4-15.2-33.6-19.8-15.6-31.5-20c.6-8.3 4.7-15 11-20.5zM330.7 356.6c-25.4 8.4-47.5 27.6-57.7 52.3-5.7 14-7.7 29.8-3.7 44.4s14.3 27.6 28.4 33.2c17.5 7 38.8 1.1 51.5-12.8-2.1-1.3-4.2-3.8-4.3-6.3-10.9 6.2-26 4.6-35.7-3.3s-14.8-20.8-14.2-33.4 6.6-24.4 15.2-33.6 19.8-15.6 31.5-20c-.6-8.3-4.7-15-11-20.5z" class="cls-10"/><path d="M424.2 329.9c0 19.2-22 34.8-49.2 34.8s-49.2-15.6-49.2-34.8a26.6 26.6 0 0 1 2.7-11.5c6.8-13.6 25-23.3 46.5-23.3s38 8.8 45.4 21.3a26 26 0 0 1 3.8 13.5z" class="cls-15"/><path d="M406.3 327.3zM408.2 327.3a4.9 4.9 0 0 0-1.3-2.7 4.3 4.3 0 0 0-2.8-1.1 4.4 4.4 0 0 0-4.3 4.4.9.9 0 0 0 1 .8.8.8 0 0 0 .8-.9v-.2c.1-.1.1-.1.1-.2v-.3a.1.1 0 0 0 .1-.1c0-.1.1-.2.1-.3h.1l.3-.4c.1-.1.2-.1.2-.2h.2l.4-.3h1.6l.5.3a.2.2 0 0 1 .2.2h.2c0 .1 0 .1.1.1l.3.4a.3.3 0 0 0 .1.2c.1.2.1.4.2.5v.7a.4.4 0 0 1-.1.3 2.4 2.4 0 0 0-.2.8.9.9 0 0 0 .4.9.8.8 0 0 0 .9 0 1.3 1.3 0 0 0 .6-.7l.3-.8a3.3 3.3 0 0 0 0-1.4zM345 327.3zM343.1 328.7l.3.8a1.8 1.8 0 0 0 .5.7.9.9 0 0 0 1 0 .9.9 0 0 0 .4-.9 2.4 2.4 0 0 0-.2-.8h-.1v-1c.1-.1.1-.3.2-.5a.3.3 0 0 0 .1-.2l.3-.4h.2l.3-.2.5-.3h1.6l.4.3h.2c0 .1.1.1.1.2a.8.8 0 0 1 .4.4l.2.3a.4.4 0 0 1 .1.3v.4a.9.9 0 0 0 .9.9.8.8 0 0 0 .9-.8 4 4 0 0 0-1.3-3.2 4.5 4.5 0 0 0-2.9-1.2 4.1 4.1 0 0 0-2.8 1.1 4.9 4.9 0 0 0-1.3 2.7 3.3 3.3 0 0 0 0 1.4z" class="cls-18"/><path d="M420.4 316.4c-42.1-17.9-81-3-91.9 2 6.8-13.6 25-23.3 46.5-23.3s38 8.8 45.4 21.3z" class="cls-27"/><path d="M342.4 316a5.7 5.7 0 0 0-2.6 1.3c-1.8 2-.3 4.8 2.4 3.4a9.8 9.8 0 0 1 4.7-1.6c1.5 0 4.3 2.3 5.3-.2s-5.6-4-9.8-2.9zM408.7 316a5.7 5.7 0 0 1 2.6 1.3c1.8 2 .2 4.8-2.4 3.4a9.8 9.8 0 0 0-4.8-1.6c-1.4 0-4.3 2.3-5.2-.2s5.6-4 9.8-2.9z" class="cls-8"/><path d="M444.4 369c-.2-4.6-2.3-8.7-4.3-12.8a146.9 146.9 0 0 1-6.4-14c-1.6-4.3-3.6-8.8-4.5-13.3s-.8-5.9-2.3-8.9a26.4 26.4 0 0 0-6.9-8.3c-1.9-1.5-4.3-2.1-6.4-3.1-.2-.1-.5.3-.2.5 7.8 7.4 13.2 21.5 7.1 31a18.3 18.3 0 0 1-8 6.8 35.6 35.6 0 0 1-14.6 4.2h-7.3a45.4 45.4 0 0 1-7.4-1 22.4 22.4 0 0 1-6.3-2.2 8.3 8.3 0 0 0-1.6-.9c-.1-.1-.1-.1-.2 0a14 14 0 0 0-1.7.9 21.8 21.8 0 0 1-6.2 2.2 45.4 45.4 0 0 1-7.4 1h-7.3a36.1 36.1 0 0 1-14.7-4.2 19.4 19.4 0 0 1-7.6-6.3 11.4 11.4 0 0 1-1.5-2.9 18.7 18.7 0 0 1-1.5-3.2 19 19 0 0 1 2.5-16.2 24.9 24.9 0 0 1 5.9-6.2c1.1-.9 2.4-1.7 3.6-2.5s2.4-.8 2.6-1.9a22.7 22.7 0 0 0-12.4 3.6c-4.5 3.1-5.2 6.9-6.4 12a182 182 0 0 1-6.3 18.9 146.9 146.9 0 0 1-6.4 14c-2 4.1-4.1 8.2-4.4 12.8s-.1 11.4 4.4 14.4a16.4 16.4 0 0 0 8.3 2.5 7 7 0 0 0 2.5 0c.2-.1.3 0 .3.2a6.4 6.4 0 0 1-.5 2.4 35.9 35.9 0 0 0-2 8.6 20.5 20.5 0 0 0 5.9 16.1 44.2 44.2 0 0 0 7.3 5.6 25.1 25.1 0 0 0 5.8 2.6c2.2.6 5.4 1.2 7.6.3s3.2-2.9 4.4-4.6.4-.2.5.1a12.9 12.9 0 0 1 .1 2.8c0 3.5-.4 7.1.3 10.5a20.8 20.8 0 0 0 3.7 7.8 12.2 12.2 0 0 0 6.3 3.6c4.5 1.4 9.7 2.9 13.9 0l.5-.4.5.4c4.2 2.9 9.4 1.4 13.9 0a12.2 12.2 0 0 0 6.3-3.6 20.8 20.8 0 0 0 3.7-7.8c.7-3.4.3-7 .3-10.5a12.9 12.9 0 0 1 .1-2.8c.1-.3.4-.3.5-.1s2.6 3.7 4.4 4.6 5.4.3 7.6-.3a25.1 25.1 0 0 0 5.8-2.6 48.8 48.8 0 0 0 7.3-5.6 20.5 20.5 0 0 0 5.9-16.1 35.9 35.9 0 0 0-2-8.6 6.4 6.4 0 0 1-.5-2.4c0-.2.1-.3.3-.2a7 7 0 0 0 2.5 0 15.8 15.8 0 0 0 8.2-2.5c4.6-3 4.7-9.5 4.4-14.4z" class="cls-8"/><path d="M377.2 345.5c-.6-.1-1.2.1-1.8-.3a2.2 2.2 0 0 1-.9-1.7 17.5 17.5 0 0 1 .3-5.1c.4-3.8.8-7.6 1.3-11.4.1-1.6-2.3-2.1-2.5-.5-.5 4.8-1.1 9.6-1.6 14.4-.3 1.9-.3 4.1 1.1 5.6s3.4 2.4 4.8.9a1.2 1.2 0 0 0-.7-1.9zM358.4 339c0 2.7-5.7 4.9-12.8 4.9s-12.8-2.2-12.8-4.9 5.7-4.9 12.8-4.9 12.8 2.2 12.8 4.9zM391.6 339c0 2.7 5.7 4.9 12.8 4.9s12.8-2.2 12.8-4.9-5.7-4.9-12.8-4.9-12.8 2.2-12.8 4.9z" class="cls-13"/><path d="M391.1 465.2h-32.2l-6.1-58.1h44.4l-6.1 58.1z" class="cls-5"/><path d="M350 401.8h49.9v11.15H350z" class="cls-7"/><path d="M371.3 401.8h6.8v63.37h-6.8z" class="cls-6"/><path d="M374.8 404.6a37.5 37.5 0 0 0-17.2-11.5c-1.2 1.8-2.5 3.2-3.8 5 7.3 2.2 14.2 3.2 21 6.5z" class="cls-6"/><path d="M371.2 404.6a37.5 37.5 0 0 1 17.2-11.5c1.2 1.8 2.5 3.2 3.8 5-7.3 2.2-14.2 3.2-21 6.5zM417.2 303s-41.5-6.9-58.9-5.1l-9.9 1.3c-5.4.8-10.7 1.8-15.9 3.1s-6 1.1-7.4-5.1c-2.1-9.1-7.2-20.1-15.5-25.2-4.2-2.6-16.2-7.9-18.7-.5a25.7 25.7 0 0 1 3.1-6.2c3.8-5.5 9.5-9.1 15.7-12.1 32.5-15.3 82.5-9.5 100.1 25.2 3.3 6.4 5.7 17.7 7.4 24.6z" class="cls-6"/><path d="M358.2 297.9c-3.2.6-6.6.8-9.8 1.3-5.4.8-10.7 1.8-15.9 3.1s-6 1.1-7.4-5.1c-2.1-9.1-7.2-20.1-15.5-25.2-4.2-2.6-16.2-7.9-18.7-.5.5-6.5 5.2-3.2 6.5-5 9.2-.6 15.2-.8 24.1 1.8a65.6 65.6 0 0 1 12.6 5.2c4.1 2.3 8.3 3.1 13 4.2s.4 5.1 4.1 7.3a13.6 13.6 0 0 0 5.6 1.4c1.9.3 4 .7 5.4 2.1s1.7 3.9.2 5.1a8.6 8.6 0 0 1-2.8 1.1c-1.5.6-2.2 1.7-1.4 3.2z" class="cls-10"/><path d="M325.5 315.3s45.6-24.8 95.5-3.1a49.1 49.1 0 0 0 .9-6.9 11.8 11.8 0 0 0-7.6-12c-14.2-5.5-46.6-14-85.6 1.7a10.7 10.7 0 0 0-6.7 9.9c0 3.5.7 7.5 3.5 10.4z" class="cls-8"/><circle cx="287.9" cy="271.6" r="10.7" class="cls-8"/><path d="M374.3 276.3c.1 1.9 2.3.5 3.3.5a51.6 51.6 0 0 1 15.5 3.2c.9.3 2.1.4 2.4-.4s-.6-1.2-1.2-1.6-2.8-1.5-4.1-2.4c2.2-4.1-10.7-2.4-12.6-1.8s-3.2.7-3.3 2z" class="cls-10"/><path d="M342.6 361.5a1 1 0 0 0-1.1.8c-.6 2-1.2 4-1.7 5.9a.8.8 0 0 0 .7 1.1 1 1 0 0 0 1.1-.7c.6-2 1.2-4 1.7-6 .2-.4-.3-1-.7-1.1zM335.7 353.1a1 1 0 0 0-1.5.5c-.5 1-1 2-1.4 3a1.1 1.1 0 0 0 .5 1.4 1.2 1.2 0 0 0 1.5-.5l1.4-3a1.1 1.1 0 0 0-.5-1.4zM324 359.4a1 1 0 0 0-1.3.5c-.5 1-1 2-1.4 3a1 1 0 1 0 1.8.8 25.9 25.9 0 0 0 1.4-2.9 1.1 1.1 0 0 0-.5-1.4zM331 373.8a1.2 1.2 0 0 0-.5-.5.9.9 0 0 0-1.2.5l-.6 1.6a9.6 9.6 0 0 0-.7 1.8c-.1.4.3.8.6.9a.8.8 0 0 0 1.1-.4 7.7 7.7 0 0 0 .7-1.6l.6-1.5a1.1 1.1 0 0 0 0-.8zM333.3 387.3c-.1-.2-.3-.5-.5-.5a.9.9 0 0 0-.7-.1 1.5 1.5 0 0 0-.6.5c-.3.9-.5 1.8-.8 2.6a1.1 1.1 0 0 0-.1.8 1.2 1.2 0 0 0 .5.5h.8a1 1 0 0 0 .5-.4l.9-2.7a.9.9 0 0 0 0-.7zM359.3 358.1a.8.8 0 0 0-1 .7c-.3 1-.5 2-.7 3a.8.8 0 0 0 .7 1 .9.9 0 0 0 1.1-.7c.2-1 .5-2 .7-3a.9.9 0 0 0-.8-1zM353.1 382a1 1 0 0 0-1.3-.3 1 1 0 0 0-.4.7 9.9 9.9 0 0 0-.2 1.7v.4a.8.8 0 0 0 .2.4.9.9 0 0 0 .6.4 1 1 0 0 0 .7-.2c.2-.2.4-.4.4-.6s.1-1.2.2-1.8a1 1 0 0 0-.2-.7zM376.2 360.3l-.7-.2a.9.9 0 0 0-.6.4.9.9 0 0 0-.3.6v2.3a.8.8 0 0 0 .4.6.7.7 0 0 0 .6.3l.7-.4a1.4 1.4 0 0 0 .2-.7V361a2.1 2.1 0 0 0-.3-.7zM379.1 378.1a1 1 0 0 0-1-.9 1.1 1.1 0 0 0-.9 1.1c.1 1.3.1 2.7.3 4a.8.8 0 0 0 .9.8 1 1 0 0 0 .9-1c0-1.3-.1-2.7-.2-4zM390.9 358.5a1 1 0 0 0-2 .2 27 27 0 0 0 .4 2.8.7.7 0 0 0 .3.6.9.9 0 0 0 1.6-.8zM402.8 384.4l-.4-2.3a1.1 1.1 0 0 0-.3-.7l-.8-.2a.6.6 0 0 0-.6.4.9.9 0 0 0-.3.7l.4 2.3a.7.7 0 0 0 .3.6 1.1 1.1 0 0 0 .8.3c.2-.1.5-.2.6-.4a1.1 1.1 0 0 0 .3-.7zM411.3 362.5l-.9-2.8a.9.9 0 0 0-1.3-.6 1 1 0 0 0-.6 1.3l.9 2.8a1 1 0 0 0 1.3.6 1.1 1.1 0 0 0 .6-1.3zM416.4 395.9c0-.2-.2-.5-.4-.5a.9.9 0 0 0-.7-.1 1.2 1.2 0 0 0-.5.5 1.5 1.5 0 0 0-.1.7l.9 3.8a.9.9 0 0 0 1.1.6c.3-.1.7-.5.6-.9s-.6-2.8-.9-4.1zM407.8 407.3a.9.9 0 0 0-1-.9.9.9 0 0 0-.9 1.1 24.6 24.6 0 0 0 .2 2.6.7.7 0 0 0 .3.6.7.7 0 0 0 .7.2.7.7 0 0 0 .6-.3.9.9 0 0 0 .3-.7 22.8 22.8 0 0 0-.2-2.6zM340.3 401.8a.9.9 0 0 0-1.1.7c-.2 1.3-.5 2.7-.7 4a.9.9 0 0 0 .7 1.1 1.1 1.1 0 0 0 1.1-.8c.2-1.3.4-2.6.7-4a.8.8 0 0 0-.7-1zM371.3 392.8a1 1 0 0 0-1.1-.9.9.9 0 0 0-.8 1c0 1 .1 1.9.1 2.8a1 1 0 0 0 2-.1zM418.9 356.9a2.4 2.4 0 0 0-.2-.8c-.1-.2-.1-.4-.2-.6l-.6-1.4a.9.9 0 0 0-1.3-.6 1 1 0 0 0-.6 1.3 5.8 5.8 0 0 1 .5 1.4l.3.6.3.7a1 1 0 0 0 .5.6h.8a1.2 1.2 0 0 0 .5-.5.9.9 0 0 0 0-.7zM429 377.7c-.4-1.3-1-2.5-1.5-3.7a.9.9 0 0 0-1.2-.6 1 1 0 0 0-.6 1.3 39.2 39.2 0 0 0 1.6 3.6 1 1 0 0 0 .5.6.9.9 0 0 0 .7 0 .9.9 0 0 0 .5-1.2zM433 360.5l-2.1-4.3a1 1 0 0 0-.5-.6 1.2 1.2 0 0 0-.8-.1 1.2 1.2 0 0 0-.7 1.4c.8 1.5 1.5 3.1 2.3 4.6s.4.3.6.4h.7a1.1 1.1 0 0 0 .5-1.4zM433 347.8a20 20 0 0 0-1-2.1.8.8 0 0 0-.5-.5h-.7a.7.7 0 0 0-.5.4 1.1 1.1 0 0 0 0 .8l1.1 2.2c.2.2.4.4.6.4h.6a.8.8 0 0 0 .4-1.2zM428.4 333.5l-1.2-2.1c-.2-.2-.4-.4-.6-.4a.9.9 0 0 0-.7.1l-.4.6a1.4 1.4 0 0 0 .2.7l1.2 2.1c.1.2.4.3.6.4l.7-.2a.9.9 0 0 0 .3-.6.7.7 0 0 0-.1-.6zM406.4 372.2c-.4-1.1-.7-2.2-1.1-3.3a.9.9 0 0 0-1.2-.5.9.9 0 0 0-.6 1.2c.3 1.1.7 2.2 1 3.3a1 1 0 0 0 1.3.6 1.1 1.1 0 0 0 .6-1.3z" class="cls-28"/><path d="M371.9 360.6c0 2.4 1 5.4 3.2 5.6s2.9-1.1 3.5-2.5a12.9 12.9 0 0 0 .6-4.8c.2-10.1-7.3-6.7-7.3 1.7z" class="cls-6"/><path d="M632.5 441.6s-10.8-6.1-8.9-29.6c-6.2 22.8-18.3 24.9-18.3 24.9 7.6 9.6-4.7 27.2-4.7 27.2 7.1 3.5 11.2 16 11.2 16s8.1-10.4 16-11.3c0 0-5.7-20.7 4.7-27.2zM261.4 429.9s-13.4-.2-23.9-23.7c5.9 25-4.7 33.4-4.7 33.4 12.4 5.2 9.7 28.6 9.7 28.6 8.6-.4 19.1 9.4 19.1 9.4s2.4-14.1 9.5-19.1c0 0-16.3-17-9.7-28.6z" class="cls-7"/><path d="M712.1 143.3l-2.3-.6a12.2 12.2 0 0 0 .8-5.7 2.6 2.6 0 0 0-2.8-1.5 3.2 3.2 0 0 0-2.5 2.3 7 7 0 0 0 .1 3.8l-2.7-.7-2.9 6.8 6.3-.3 5.3 3.2zm-5.5-1.4c-.3-1.3-.7-2.7-.1-4a1.8 1.8 0 0 1 2.5-1.1c1 .6.6 2.4.4 3.3a17.2 17.2 0 0 1-.7 2.1c0 .1 0 .2-.1.2z" class="cls-5"/><path d="M716.1 206.3h.3l-1.5.3a47 47 0 0 1-5.1 1.2 42.7 42.7 0 0 0-4.8 1.3 53.5 53.5 0 0 0-11.6 4.8c-1.3.7-2.4 1.6-3.6 2.4s-2.1-.3-3-2.2-1.4-2.5-2.2-3.7a82.5 82.5 0 0 0-10-11.3 33.7 33.7 0 0 1-5.3-4.6l-.4-.3h.1c-7.2-7.6-10.5-17.4-8.1-26.8a26.5 26.5 0 0 1 10.7-15c8.7-6.2 21.5-8.4 34.5-5.1 20.7 5.3 34.1 22.9 30 39.3-2.4 9.5-10 16.4-20 19.7z" class="cls-23"/><path d="M733.4 177a21.4 21.4 0 0 0-3.7-10.4c-1.4-2.1-4.7.1-3.2 2.2a17.2 17.2 0 0 1 2.6 13c-.3 1.6-.9 3-1.3 4.6s2.2 3.1 3.3 1.5a17.9 17.9 0 0 0 2.3-10.9zM724 192.1c-2.4 0-2.2 3.7.2 3.7s2.1-3.7-.2-3.7z" class="cls-29"/><path d="M721.1 182.2l-16.8-6.6 10-7.8c.4-.3.2-.7-.3-.5l-11.6 5.1 2.2-17.9c.1-.6-.4-.8-.7-.2l-6.6 16.9-7.8-10.1c-.3-.4-.7-.2-.5.3l5.1 11.7-17.9-2.3c-.7-.1-.8.4-.2.7l16.8 6.6-10 7.8c-.4.3-.2.7.3.5l11.6-5.1-2.2 17.9c-.1.7.4.8.7.2l6.6-16.8 7.8 10c.3.4.7.2.5-.2l-5.1-11.7 17.9 2.2c.6.1.8-.4.2-.7z" class="cls-8"/><path d="M705 209.2a53.5 53.5 0 0 0-11.6 4.8c-1.3.7-2.4 1.6-3.6 2.4s-2.1-.3-3-2.2-1.4-2.5-2.2-3.7a82.5 82.5 0 0 0-10-11.3 33.7 33.7 0 0 1-5.3-4.6l-.4-.3h.1c-7.2-7.6-10.5-17.4-8.1-26.8a26.5 26.5 0 0 1 10.7-15c-11.4 20.2-7.1 45 33.4 56.7z" class="cls-10"/><path d="M31.9 79l-1.7 1a10.9 10.9 0 0 0-.8-1.5 5.6 5.6 0 0 0-2.1-2.2 2.1 2.1 0 0 0-2.5.8 2.6 2.6 0 0 0 0 2.8A6.3 6.3 0 0 0 27 82l-1.9 1.2 2.4 5.5 3.3-3.8 5-1.3zm-4 2.4a5.4 5.4 0 0 1-2.4-2.1c-.3-.8-.2-2 .8-2.2s1.7 1.1 2.1 1.7a5.1 5.1 0 0 1 .9 1.6h.1z" class="cls-5"/><path d="M71.3 112.6h.2l-.6 1c-.7 1.3-1.5 2.5-2.3 3.7l-2 3.6a50.5 50.5 0 0 0-3.8 9.6l-.6 3.5c-.4 2-1.4 1-3 .5l-3.4-.8a57.3 57.3 0 0 0-12.4-.6 27.5 27.5 0 0 1-5.7.5h-.4c-8.5-.1-16.2-3.7-20.3-10.5a21.2 21.2 0 0 1-2.8-14.8c1.4-8.7 7.3-17.6 16.6-23.3 15-9.2 33.1-7.1 40.3 4.8 4.2 6.6 4 15.1.2 22.8z" class="cls-23"/><path d="M63.9 85.7a17.1 17.1 0 0 0-8.3-3.8c-2-.4-2.6 2.8-.5 3.2a14.2 14.2 0 0 1 6.7 3.1 17.2 17.2 0 0 1 2.5 2.8 35.4 35.4 0 0 1 1.9 3.3c.7 1.4 3.1.5 2.8-1a14.7 14.7 0 0 0-5.1-7.6zM67.4 99.9c-1.3 1.4 1 3.3 2.3 1.9s-.9-3.3-2.3-1.9z" class="cls-29"/><path d="M60 95.9l-13.5 6.2 1.1-10.4c.1-.4-.3-.5-.4-.1l-3.7 9.8-9.3-11.6c-.3-.4-.7-.2-.5.3l6.2 13.5-10.4-1.1c-.4-.1-.5.3-.1.4l9.8 3.7-11.6 9.2c-.4.4-.2.8.3.6l13.5-6.2-1.2 10.4c0 .4.4.5.5.1l3.7-9.8 9.2 11.6c.4.4.8.2.5-.3L48 108.7l10.4 1.1c.4.1.5-.3.1-.4l-9.8-3.7 11.6-9.3c.4-.3.1-.7-.3-.5z" class="cls-8"/><path d="M66.6 120.8a50.5 50.5 0 0 0-3.8 9.6l-.6 3.5c-.4 2-1.4 1-3 .5l-3.4-.8a57.3 57.3 0 0 0-12.4-.6 27.5 27.5 0 0 1-5.7.5h-.4c-8.5-.1-16.2-3.7-20.3-10.5a21.2 21.2 0 0 1-2.8-14.8c5.4 18.2 22.4 29.8 52.4 12.6z" class="cls-10"/><path d="M62.1 256.5a6.8 6.8 0 0 1-13.6-.8 6.8 6.8 0 1 1 13.6.8z" class="cls-30"/><path d="M59.2 257.8a5.4 5.4 0 1 1-5.1-5.8 5.5 5.5 0 0 1 5.1 5.8zM59.3 193.4a5.5 5.5 0 0 1-5.2-5.9 5.5 5.5 0 0 1 5.8-5.1 5.5 5.5 0 0 1 5.2 5.8 5.5 5.5 0 0 1-5.8 5.2z" class="cls-5"/><path d="M88.4 254.2L24 250.1a4.7 4.7 0 0 1-4.4-4.9 4.7 4.7 0 0 1 4.9-4.4l64.5 4.1a4.7 4.7 0 0 1 4.3 4.9 4.6 4.6 0 0 1-4.9 4.4zM87.7 244.8l-63.2-4a48 48 0 0 0 7.1-11.8 52.1 52.1 0 0 0 4-15c1.8-16.1 9.1-27.1 24-26.1s20.8 12.7 20.5 28.9a50.7 50.7 0 0 0 2.5 16.5 49.3 49.3 0 0 0 5.1 11.5z" class="cls-5"/><path d="M87.7 244.8l-63.2-4a48 48 0 0 0 7.1-11.8c11.1 6 30 12.5 51 4.3a49.3 49.3 0 0 0 5.1 11.5z" class="cls-30"/><path d="M22.7 235.7c.7-4.5 3.7-8.4 7.3-11.1s7.9-4.6 12.1-6.4a48 48 0 0 0 11.9-6.7c3.4-2.9 6.2-7.1 6.4-11.6.1-2.3-.3-4.9 1.2-6.6l-2-.9c-.6 5.1-3.7 9.3-7.9 12.3-7.7 5.3-18.3 4.2-26.6 8.7a21.6 21.6 0 0 0-9.1 9.8 41.5 41.5 0 0 0-2.2 6.8 54.5 54.5 0 0 1 7.6-3.9 63.2 63.2 0 0 1 1.3 9.6z" class="cls-31"/><path d="M60.1 192.7h-.2c-26.3 5-33.4-2.2-33.4-2.2-1.6-1.6-2.1-2.7-1.8-3.5l-.7 1c-6.2 9.1 1.9 21 12.7 18.9s23.1-9.5 23.1-9.5z" class="cls-23"/><path d="M60.6 195.1l-12.8.4c-.6 0-1.3.1-1.5.7a.9.9 0 0 0 .8 1.2 2.6 2.6 0 0 0 1.7-.2c.3-.1.6.1.9.1a.9.9 0 0 1 .8.5c.1.3-.2.7-.6.9l-1.1.2a1.1 1.1 0 0 0-.9.7c-.2.5.3 1.1.9 1.2a3.3 3.3 0 0 0 1.6-.5 100.1 100.1 0 0 1 9.5-4l.7-.4c.2-.2.1-.6 0-.8z" class="cls-31"/><path d="M26.5 190.5s7.1 7.2 33.4 2.2h.2s-33.7-10.4-35.4-5.7c-.3.8.2 1.9 1.8 3.5z" class="cls-10"/><path d="M91.7 240.1c-.1-4.6-2.5-8.8-5.8-12s-7.2-5.5-11.1-7.9-7.9-4.7-11-8.1-5.3-7.8-4.9-12.3c.2-2.3.9-4.8-.4-6.7l2.1-.6a17.7 17.7 0 0 0 6.3 13.1c6.9 6.3 17.7 6.5 25.3 12a22.5 22.5 0 0 1 7.8 10.9 41.1 41.1 0 0 1 1.3 7 49.1 49.1 0 0 0-7.1-4.8 72.1 72.1 0 0 0-2.5 9.4z" class="cls-31"/><path d="M60.1 192.7h.2c25.4 8.2 33.3 2 33.3 2 1.8-1.4 2.5-2.4 2.3-3.2l.6 1.1c5 9.7-4.6 20.6-15 17.2s-21.7-12.4-21.7-12.4z" class="cls-23"/><path d="M93.6 194.7s-7.9 6.2-33.3-2h-.2s34.7-6 35.8-1.1c.2.7-.5 1.7-2.3 3.1z" class="cls-10"/><path d="M73.7 204.2a39.8 39.8 0 0 1-12.4-6.9c.1-.6-.3-1.4-.3-2l10.4 2.2 1 .4a1 1 0 0 1 .3 1l-6.9-1.1-.2.4 6.7 2.2.6.3a.9.9 0 0 1 .1.7c-.2.3-.7.2-1 .1l-4.1-1.6h-.5a3.5 3.5 0 0 0 2.3 1.6l3.7 1.4a1.6 1.6 0 0 1 .9.5.8.8 0 0 1 .3.9c-.2.3-.5.1-.9-.1z" class="cls-31"/><path d="M62.5 192.2h-2.4l-2.3-.2c-2.7 4-.5 7-.5 7h2.4l2.4.2s2.5-2.7.4-7z" class="cls-23"/><g class="cls-32"><path d="M80.9 236.5l-.9-1.1c-.1-.1-.1-.2-.2-.2l-.2-.4-.6-.9-.2-.5a.3.3 0 0 1-.1-.2l-.3-1c0-.2-.1-.4-.1-.6 0-.4-.1-.7-.1-1.1a.9.9 0 0 1 .1-.5v-.2a1.7 1.7 0 0 0-.2-1.4 1.8 1.8 0 0 0-1.2-.9 1.9 1.9 0 0 0-2.4 1.3 12.2 12.2 0 0 0 .3 5.7c.6 1.8 1.7 3.9 3.4 4.9a2 2 0 0 0 2.7-2.7zM78.3 231.5z" class="cls-33"/></g><path d="M90.4 249a5.4 5.4 0 0 0-.5-1.1l-.4-.6-.6-.5-.6-.2h-.6a1.6 1.6 0 0 0-.8.6c-.2.3-.4.6-.3.9a1.5 1.5 0 0 0 .4 1.1h.1v.2l-.3.6v.8l.2.5c.1.1.2.3.4.4l.4.2h.4a1.2 1.2 0 0 0 1-.2 1.7 1.7 0 0 0 1.1-1.6 4.2 4.2 0 0 0 .1-1.1z" class="cls-34"/><path d="M699.6 330.7a6.3 6.3 0 0 1-7.4 4.9 6.1 6.1 0 0 1-4.9-7.3 6.3 6.3 0 0 1 7.4-4.9 6.4 6.4 0 0 1 4.9 7.3z" class="cls-30"/><path d="M696.7 331.5a4.9 4.9 0 0 1-5.8 3.9 5 5 0 1 1 2-9.7 4.9 4.9 0 0 1 3.8 5.8zM704.7 273.3a5.1 5.1 0 0 1-4-5.9 5.1 5.1 0 0 1 6-4 5 5 0 0 1 3.9 5.9 5 5 0 0 1-5.9 4z" class="cls-5"/><path d="M723.6 331.8l-57.8-11.5a4.2 4.2 0 0 1-3.3-5 4.3 4.3 0 0 1 5-3.4l57.8 11.6a4.4 4.4 0 0 1 3.3 5 4.2 4.2 0 0 1-5 3.3z" class="cls-5"/><path d="M724.1 323.3l-56.6-11.4a44.8 44.8 0 0 0 7.8-9.8 46.5 46.5 0 0 0 5.5-13.1c3.6-14.3 11.5-23.3 24.9-20.6s17.2 14 15 28.6a48.4 48.4 0 0 0 .2 15.3 45.3 45.3 0 0 0 3.2 11z" class="cls-5"/><path d="M724.1 323.3l-56.6-11.4a44.8 44.8 0 0 0 7.8-9.8c9.3 6.8 25.6 15 45.6 10.2a45.3 45.3 0 0 0 3.2 11z" class="cls-30"/><path d="M666.5 307.1c1.1-4 4.3-7.2 7.9-9.2a49.9 49.9 0 0 1 11.7-4.3c4-1.1 8.1-2.3 11.6-4.6s6.5-5.6 7.2-9.7c.4-2.1.4-4.5 2-5.8l-1.8-1c-1.2 4.5-4.5 7.9-8.6 10.1-7.6 3.9-17.1 1.5-25.1 4.6a19.7 19.7 0 0 0-9.5 7.8 38.8 38.8 0 0 0-2.8 5.8 64.9 64.9 0 0 1 7.4-2.6 66.1 66.1 0 0 1 0 8.9z" class="cls-31"/><path d="M705.5 272.8h-.2c-24.3 1.3-29.8-6-29.8-6-1.3-1.7-1.6-2.8-1.3-3.4l-.7.8c-6.7 7.4-.9 19.2 9.1 18.7s22.1-5.8 22.1-5.8z" class="cls-23"/><path d="M705.7 275l-11.6-1.2c-.6-.1-1.2-.1-1.5.4a1 1 0 0 0 .6 1.3 3.8 3.8 0 0 0 1.5 0c.3-.1.6.1.9.1s.6.3.6.6-.3.6-.6.7h-1.1a1.6 1.6 0 0 0-.9.5 1 1 0 0 0 .7 1.2 3.9 3.9 0 0 0 1.5-.2c3.2-1.2 5.9-1.6 9.1-2.5a1.1 1.1 0 0 0 .7-.3c.2 0 .2-.4.1-.6z" class="cls-31"/><path d="M675.5 266.7s5.5 7.3 29.8 6h.3s-29.3-13.4-31.4-9.4c-.3.6 0 1.7 1.3 3.4z" class="cls-10"/><path d="M728.4 319.5c.4-4.1-1.3-8.3-3.8-11.6s-5.9-5.8-9.2-8.4-6.5-5.3-8.9-8.7-3.8-7.7-2.9-11.8c.4-2 1.4-4.2.4-6.1l2-.2a16.4 16.4 0 0 0 4.1 12.6c5.5 6.5 15.2 8 21.4 13.9a19.9 19.9 0 0 1 5.7 10.9 28.1 28.1 0 0 1 .3 6.5 47.7 47.7 0 0 0-5.7-5.3 52.6 52.6 0 0 0-3.4 8.2z" class="cls-31"/><path d="M705.5 272.8h.2c22 10.6 29.9 5.9 29.9 5.9 1.8-1 2.6-1.9 2.5-2.6a10.4 10.4 0 0 0 .4 1c3.3 9.5-6.7 18.1-15.7 13.7S704.7 277 704.7 277z" class="cls-23"/><path d="M735.6 278.7s-7.9 4.7-29.9-5.9h-.1s32.1-1.1 32.5 3.4c.1.6-.7 1.5-2.5 2.5z" class="cls-10"/><path d="M716.5 284.9a37.8 37.8 0 0 1-10.4-7.8c.1-.5-.2-1.3-.1-1.9l9.1 3.3a1.9 1.9 0 0 1 .9.5c.3.3.4.7.1.9l-6-1.8c-.1 0-.1.3-.2.3l5.7 2.9.5.3a.7.7 0 0 1 .1.6c-.2.3-.7.1-1 0l-3.4-2h-.5a3.7 3.7 0 0 0 1.8 1.7l3.2 1.7a2.4 2.4 0 0 1 .8.6.6.6 0 0 1 .1.8c-.1.3-.5 0-.7-.1z" class="cls-31"/><path d="M707.8 272.7l-2.2-.5-2.1-.4a5.6 5.6 0 0 0-1.2 6.2l2.1.4 2.1.5a5.8 5.8 0 0 0 1.3-6.2z" class="cls-23"/><g class="cls-32"><path d="M719 315l-.7-1.2v-.2a.5.5 0 0 1-.2-.4 1.9 1.9 0 0 1-.4-.9c-.1-.1-.1-.2-.1-.4s-.1-.1-.1-.2a3.1 3.1 0 0 1-.1-1 .7.7 0 0 1-.1-.5c0-.3.1-.7.1-1s.1-.3.1-.5a.3.3 0 0 1 .1-.2 3.3 3.3 0 0 0 0-1.4 1.8 1.8 0 0 0-1-.9 1.7 1.7 0 0 0-2.3 1 8.9 8.9 0 0 0-.4 5.1c.3 1.7 1 3.8 2.4 4.9a1.8 1.8 0 0 0 2.2 0 1.9 1.9 0 0 0 .5-2.2zM717.2 310.1z" class="cls-33"/></g><path d="M726 327.4a3.6 3.6 0 0 0-.2-1 4.3 4.3 0 0 0-.4-.7l-.5-.5-.5-.2h-.5a1.4 1.4 0 0 0-.8.5 1 1 0 0 0-.4.7 1.1 1.1 0 0 0 .3 1.1v.2a2.1 2.1 0 0 0-.4.6v1.1l.4.5.3.2h.3a1.7 1.7 0 0 0 1 0 2.7 2.7 0 0 0 .8-.7 2.1 2.1 0 0 0 .4-.6 3.9 3.9 0 0 0 .2-1.2z" class="cls-34"/><path d="M588.8 325c-7.2-40.9-61.5-61-92.4-30.9-12.4 12.1-17.4 30.1-17.9 47.5-.2 10.6 1.2 21.6 6.9 30.5a40.2 40.2 0 0 0 4.6 5.6 12 12 0 0 1-2.1 1.7 9.8 9.8 0 0 1-10.2 0c2.8 4.2 8.8 7.4 13.9 7.7a16.7 16.7 0 0 0 8.5-1.8 55 55 0 0 0 11.2 4.6c19.3 5.7 41.4 1.7 57-11s24-34 20.5-53.9z" class="cls-6"/><path d="M499.1 335.7c0 1.9 1 3.2 2.8 3.2s2.5-1 2.6-2.9.3-2.9.4-4.3.7-2.8 3.1-2.3 1.7.7 1.4 2a9.9 9.9 0 0 0 .7 5.4 2.1 2.1 0 0 0 1.8 1.3 2 2 0 0 0 2-1.1 5.3 5.3 0 0 0 .3-1.2c.8-4.5 1.7-9 1.4-13.7.2-2 .4-4.1.5-6.1a9.1 9.1 0 0 0-.6-3.6 2.8 2.8 0 0 0-2.9-1.6 2.5 2.5 0 0 0-2.1 2.1 7.8 7.8 0 0 0-.2 1.6c-.2 3-.4 6-.4 9.1-.1 1.3-.2 1.9-1.7 1.8a3.7 3.7 0 0 0-1.8.1c-.9.3-.9-.2-.9-.9a26.6 26.6 0 0 0-.2-6.9 10.9 10.9 0 0 0-1-5c-1.1-1.8-2.8-2-4-.3a2.5 2.5 0 0 0-.6 1.5c-.4 2 0 4-.1 6-.1 5.3-.8 10.5-.5 15.8zM511 349.2c-.2 2.6-.3 5.3-.5 8s-.1 3.3-3.4 3.5c-.7.1-1 0-.9-.7a22.6 22.6 0 0 0 0-5.2 19.9 19.9 0 0 0-1-6.4 2.8 2.8 0 0 0-2.6-2c-.9.1-1.9 1.4-2.2 2.6s0 3.6-.1 5.4c-.2 5.5-.7 11-.6 16.5 0 1.9 1 3.1 2.6 3.2a2.3 2.3 0 0 0 2.8-2.4c.1-1.5.4-3.1.6-4.7s-.2-2.6 3.2-2.3c1 .1 1.4.5 1.2 1.6a10.1 10.1 0 0 0 .7 5.7 1.8 1.8 0 0 0 1.6 1.3c1.3.2 2.2-.4 2.5-2.1.7-4.5 1.7-9.1 1.5-14.5.1-1.1.2-3 .4-4.9a8.6 8.6 0 0 0-.6-3.9 2.5 2.5 0 0 0-2.3-1.8c-1.7-.2-2.7.8-2.9 3.1zM536.6 347.2c.1 1.8 1.1 3.1 2.6 3.2a2.4 2.4 0 0 0 2.8-2.5c.2-1.4.4-2.8.5-4.3.5-3.6.1-3.1 3.7-2.6.9.2.9.6.9 1.3s-.3 3.5.4 5.2.9 2.1 2.3 2.1 1.8-1.1 2-2.2a58.3 58.3 0 0 0 1.4-13.8c.2-1.9.3-3.8.5-5.8a9 9 0 0 0-.5-3.6 2.5 2.5 0 0 0-2.8-1.9 2.3 2.3 0 0 0-2.2 2.1c-.6 3-.4 6-.7 9.1-.1 1 .2 2.4-.3 3s-2.1.3-3.1.5-1-.1-1-.8a38.5 38.5 0 0 0 .1-4.8 35.1 35.1 0 0 0-.9-6.5 3 3 0 0 0-2.7-2.2c-1 0-2.1 1.4-2.3 2.6s.1 5.1-.1 7.6a136.8 136.8 0 0 0-.6 14.3zM524.4 348a2.6 2.6 0 0 0-1.9 1.3 13.7 13.7 0 0 0-2.1 5.5 6.9 6.9 0 0 1-.5 2.4 30.2 30.2 0 0 0-.7 15.5 4.7 4.7 0 0 0 3.7 3.7 5.1 5.1 0 0 0 5.5-1.8 12.7 12.7 0 0 0 2.3-4.1 36.9 36.9 0 0 0 1.8-10.2 25.8 25.8 0 0 0 0-6.8c-.5-5.1-3.4-6.5-8.1-5.5zm3.4 12a43.6 43.6 0 0 1-2 8.1c-.2.7-.6 1.4-1.4 1.2s-.5-.9-.6-1.4a40 40 0 0 1 0-4.9 57.4 57.4 0 0 1 .9-7.1c.1-.5 0-1.2.7-1.3a1.5 1.5 0 0 1 1.5 1 8.3 8.3 0 0 1 .9 4.4zM526.2 340.6a7.8 7.8 0 0 0 3.4-4.4 29.7 29.7 0 0 0 2.2-11.1 27.3 27.3 0 0 0 0-7c-.4-5.1-3.6-6.2-8-5.4a2.9 2.9 0 0 0-1.9 1.3 12 12 0 0 0-2.1 5.1 22.1 22.1 0 0 1-.8 3.7 29.3 29.3 0 0 0-.4 14.7 5 5 0 0 0 7.6 3.1zm-2.2-20c.1-.5.1-1.1.7-1.2a1.3 1.3 0 0 1 1.4.8 6.4 6.4 0 0 1 1 4.3 39.6 39.6 0 0 1-2 8.4c-.3.7-.6 1.3-1.4 1.2s-.5-.9-.5-1.4v-5.3c0-2.2.5-4.3.8-6.8zM563.8 352.1a9 9 0 0 0 3.8-5.3 32 32 0 0 0 1.8-10 27.6 27.6 0 0 0-.4-9.1 3.9 3.9 0 0 0-2.7-3.3c-3.4-.9-6.2-1.1-8 3.3-.7 1.7-.7 3.5-1.3 5.2a29.2 29.2 0 0 0-.7 16.3 4.9 4.9 0 0 0 7.5 2.9zm-2.1-20.1c0-.4 0-1 .6-1.1s1 .2 1.3.7a6 6 0 0 1 1.2 3.6 36.2 36.2 0 0 1-2.1 9.2 1.4 1.4 0 0 1-.5.8.8.8 0 0 1-1 .3c-.4-.2-.4-.5-.5-.9a33 33 0 0 1 .1-5.4c-.2-2.3.5-4.7.9-7.2z" class="cls-3"/><path d="M502.1 333.7c0 1.9 1 3.2 2.8 3.2s2.5-1 2.6-2.9.3-2.9.4-4.3.7-2.8 3.1-2.3 1.7.7 1.4 2a9.9 9.9 0 0 0 .7 5.4 2.1 2.1 0 0 0 1.8 1.3 2 2 0 0 0 2-1.1 5.3 5.3 0 0 0 .3-1.2c.8-4.5 1.7-9 1.4-13.7.2-2 .4-4.1.5-6.1a9.1 9.1 0 0 0-.6-3.6 2.8 2.8 0 0 0-2.9-1.6 2.5 2.5 0 0 0-2.1 2.1 7.8 7.8 0 0 0-.2 1.6c-.2 3-.4 6-.4 9.1-.1 1.3-.2 1.9-1.7 1.8a3.7 3.7 0 0 0-1.8.1c-.9.3-.9-.2-.9-.9a26.6 26.6 0 0 0-.2-6.9 10.9 10.9 0 0 0-1-5c-1.1-1.8-2.8-2-4-.3a2.5 2.5 0 0 0-.6 1.5c-.4 2 0 4-.1 6-.1 5.3-.8 10.5-.5 15.8zM514 347.2c-.2 2.6-.3 5.3-.5 8s-.1 3.3-3.4 3.5c-.7.1-1 0-.9-.7a22.6 22.6 0 0 0 0-5.2 19.9 19.9 0 0 0-1-6.4 2.8 2.8 0 0 0-2.6-2c-.9.1-1.9 1.4-2.2 2.6s0 3.6-.1 5.4c-.2 5.5-.7 11-.6 16.5 0 1.9 1 3.1 2.6 3.2a2.3 2.3 0 0 0 2.8-2.4c.1-1.5.4-3.1.6-4.7s-.2-2.6 3.2-2.3c1 .1 1.4.5 1.2 1.6a10.1 10.1 0 0 0 .7 5.7 1.8 1.8 0 0 0 1.6 1.3c1.3.2 2.2-.4 2.5-2.1.7-4.5 1.7-9.1 1.5-14.5.1-1.1.2-3 .4-4.9a8.6 8.6 0 0 0-.6-3.9 2.5 2.5 0 0 0-2.3-1.8c-1.7-.2-2.7.8-2.9 3.1zM539.6 345.2c.1 1.8 1.1 3.1 2.6 3.2a2.4 2.4 0 0 0 2.8-2.5c.2-1.4.4-2.8.5-4.3.5-3.6.1-3.1 3.7-2.6.9.2.9.6.9 1.3s-.3 3.5.4 5.2.9 2.1 2.3 2.1 1.8-1.1 2-2.2a58.3 58.3 0 0 0 1.4-13.8c.2-1.9.3-3.8.5-5.8a9 9 0 0 0-.5-3.6 2.5 2.5 0 0 0-2.8-1.9 2.3 2.3 0 0 0-2.2 2.1c-.6 3-.4 6-.7 9.1-.1 1 .2 2.4-.3 3s-2.1.3-3.1.5-1-.1-1-.8a38.5 38.5 0 0 0 .1-4.8 35.1 35.1 0 0 0-.9-6.5 3 3 0 0 0-2.7-2.2c-1 0-2.1 1.4-2.3 2.6s.1 5.1-.1 7.6a136.8 136.8 0 0 0-.6 14.3zM527.4 346a2.6 2.6 0 0 0-1.9 1.3 13.7 13.7 0 0 0-2.1 5.5 6.9 6.9 0 0 1-.5 2.4 30.2 30.2 0 0 0-.7 15.5 4.7 4.7 0 0 0 3.7 3.7 5.1 5.1 0 0 0 5.5-1.8 12.7 12.7 0 0 0 2.3-4.1 36.9 36.9 0 0 0 1.8-10.2 25.8 25.8 0 0 0 0-6.8c-.5-5.1-3.4-6.5-8.1-5.5zm3.4 12a43.6 43.6 0 0 1-2 8.1c-.2.7-.6 1.4-1.4 1.2s-.5-.9-.6-1.4a40 40 0 0 1 0-4.9 57.4 57.4 0 0 1 .9-7.1c.1-.5 0-1.2.7-1.3a1.5 1.5 0 0 1 1.5 1 8.3 8.3 0 0 1 .9 4.4zM529.2 338.6a7.8 7.8 0 0 0 3.4-4.4 29.7 29.7 0 0 0 2.2-11.1 27.3 27.3 0 0 0 0-7c-.4-5.1-3.6-6.2-8-5.4a2.9 2.9 0 0 0-1.9 1.3 12 12 0 0 0-2.1 5.1 22.1 22.1 0 0 1-.8 3.7 29.3 29.3 0 0 0-.4 14.7 5 5 0 0 0 7.6 3.1zm-2.2-20c.1-.5.1-1.1.7-1.2a1.3 1.3 0 0 1 1.4.8 6.4 6.4 0 0 1 1 4.3 39.6 39.6 0 0 1-2 8.4c-.3.7-.6 1.3-1.4 1.2s-.5-.9-.5-1.4v-5.3c0-2.2.5-4.3.8-6.8zM566.8 350.1a9 9 0 0 0 3.8-5.3 32 32 0 0 0 1.8-10 27.6 27.6 0 0 0-.4-9.1 3.9 3.9 0 0 0-2.7-3.3c-3.4-.9-6.2-1.1-8 3.3-.7 1.7-.7 3.5-1.3 5.2a29.2 29.2 0 0 0-.7 16.3 4.9 4.9 0 0 0 7.5 2.9zm-2.1-20.1c0-.4 0-1 .6-1.1s1 .2 1.3.7a6 6 0 0 1 1.2 3.6 36.2 36.2 0 0 1-2.1 9.2 1.4 1.4 0 0 1-.5.8.8.8 0 0 1-1 .3c-.4-.2-.4-.5-.5-.9a33 33 0 0 1 .1-5.4c-.2-2.3.5-4.7.9-7.2z" class="cls-35"/><path d="M709.6 446.7s-13.5 3.8-31-16.4c13.5 23.1 5.5 34.7 5.5 34.7 13.8 1.4 18.2 25.5 18.2 25.5 8.5-2.9 22 3.7 22 3.7s-1.9-14.9 3.6-21.9c0 0-21.4-12-18.3-25.6zM767 450s-11.2-8.5-5.6-34.7C751 440 737 440.6 737 440.6c7.2 11.9-9.4 30-9.4 30 7.5 5 10.3 19.7 10.3 19.7s10.7-10.5 19.7-10.3c0 0-3.3-24.3 9.4-30z" class="cls-3"/><path d="M138.8 133.8c-1.7.3-3.2.3-4.6-.9s-2.7.4-3 1.2a1.4 1.4 0 0 0 0 .9c.4 1.1 2.6 1.9 3.4 1a3.6 3.6 0 0 1 2.8-.7 6.2 6.2 0 0 1 3 .3 14.2 14.2 0 0 1-1.1 1.8c-.2.5-.5.9 0 1.3s.8.1 1.2-.2a5.5 5.5 0 0 0 2-2c.6-1.1 1.4-1.1 2.4-.9a1.5 1.5 0 0 1-.4.9c-.1.4-.3.7 0 1a.9.9 0 0 0 1.1-.2l1-1.2c.2-.2.3-.5.6-.5a8.9 8.9 0 0 1 3.3-.2c-.6.6-1 1.1-1.8 1.1s-1 .1-.7.5.1.6-.1.9a2.5 2.5 0 0 1-2.3.8c-.5 0-1.1 0-1.1.7s.6.4 1 .5h.1c-.7 1-.7 1-2.5 1.2s-1.3-.1-1.3.6.8.4 1.3.5v.2c-.6.9-1.2 1.7-2.5 1.5l-1 .3c-.6.2-.6.7-.1 1s.5.1.6.4-1.3 2-2.9 1.7-1.5 1.1-1.3 2.2a1.8 1.8 0 0 0 1.9 1.4c1.1-.1 1.9-.8 1.7-1.8a1.3 1.3 0 0 1 .7-1.6l1.1-.9c.2.4.1 1.1.8 1s.5-.6.6-1a.9.9 0 0 0 .1-.7c-.2-1.3.9-1.6 1.7-2.4a2.8 2.8 0 0 1 .1.8c0 .3.1.7.5.7s.4-.4.5-.7a1.4 1.4 0 0 0 .1-1.1c-.2-1 .5-1.5 1.3-2v.4c.1.3 0 .7.5.7s.5-.4.6-.7a5.3 5.3 0 0 0 .1-1.3c0-.4 1.1-1.9 1.3-1.7s.8-.3.9-.7a2.6 2.6 0 0 1 1.1-1.5v2.2a2.5 2.5 0 0 1-1.3 2.1 3 3 0 0 0-.8.8c-.1.3-.2.5 0 .8a.6.6 0 0 0 .7.1l.8-.4c.1 0 .3-.1.4.1s0 1.6-.4 1.8a9.2 9.2 0 0 0-2.6 2.6c-.2.3-.5.7-.2 1.1a.8.8 0 0 0 1.2 0 21.2 21.2 0 0 0 2-1.2c.4 1.3.1 2.5.3 3.7a2.6 2.6 0 0 1-.6 1.9 2.5 2.5 0 0 0 .9 3.7h.9a2.7 2.7 0 0 0 .8-3.6 3.1 3.1 0 0 1-.7-2.6 21.1 21.1 0 0 0 .2-2.6q0-.7.6-.3a4.5 4.5 0 0 0 1.7 1.1.8.8 0 0 0 1-.1c.3-.3.1-.6-.1-.9a5.6 5.6 0 0 0-2-2.3 1.9 1.9 0 0 1-1-2.4l1.1.4a.6.6 0 0 0 .8-.2.6.6 0 0 0-.1-.8l-.7-.6c-.4-.4-1.1-.7-1.2-1.2a14.5 14.5 0 0 1-.1-3c.7.5 1.2.9 1.1 1.7s.1.9.5.5.5 0 .8.2.8 1.3.8 2.2.1 1.1.7 1.1.4-.6.6-.9v-.2a2.1 2.1 0 0 1 1.2 2.3v.9c0 .3.1.6.5.6s.4-.2.5-.5a2.9 2.9 0 0 1 .2-.9c1 .8 1.8 1.5 1.7 2.8s0 1.1.6 1.2.6-.5.8-.9h.2a3.5 3.5 0 0 0 1.1 1 1.3 1.3 0 0 1 .6 1.5c0 .4-.1.8.3 1.2a2.1 2.1 0 0 0 2.4.4 2 2 0 0 0 .8-2.2 1.6 1.6 0 0 0-2-1.2c-.3.1-.5.2-.8 0l-1.5-1.8c.9-.3 1.2-.5 1.1-.8s-.7-.5-1.1-.7h-.2c-1.4.3-1.8-.8-2.6-1.6h.8c.3-.1.7-.2.7-.6s-.4-.3-.6-.4a2.6 2.6 0 0 0-1.2-.1c-1.2.3-1.5-.6-2.3-1.3h.7c.4 0 .8-.1.8-.5a.6.6 0 0 0-.7-.5h-1.3c-.9.1-1.2-.8-1.9-1.2s0-.2.1-.3.2-.6-.4-.7-1.2-.3-1.7-1.1c1.8-.2 3.5-.1 4.5 1.7h.1c.3.3.7.6 1.1.3s.2-.7.1-1l-.3-.6c-.1-.2 0-.4.2-.4s1.4-.2 1.9.6a5.8 5.8 0 0 0 2.4 2.5c.3.2.6.4 1 .1s.3-.7.1-1.1l-.9-1.5c-.3-.4-.3-.5.2-.6a15.1 15.1 0 0 1 3-.2 2.7 2.7 0 0 1 2.1.6 2.4 2.4 0 0 0 3.6-.8.9.9 0 0 0 0-1 2.5 2.5 0 0 0-3.8-.7c-.3.3-.5.6-1 .6l-4.5-.3c.4-.8 1.1-1.3 1.3-2.1s.3-.8-.1-1.1-.7-.1-1.1.1a8.6 8.6 0 0 0-2.4 2.6 1.4 1.4 0 0 1-1.8.3c-.4-.1.1-.6.2-.9s.1-.7-.2-.9-.7-.1-1 .2l-1.2 1.4c-.1.2-.2.5-.5.5h-2.9c.4-.6.8-1.1 1.5-1.1s.6-.1.4-.7.1-.3.2-.5a3.5 3.5 0 0 1 2.7-1.1c.4 0 .9 0 .9-.5s-.4-.5-.8-.6h-.3a2.1 2.1 0 0 1 2.3-1.2h.9a.6.6 0 0 0 .6-.5c0-.3-.3-.4-.5-.4a1.1 1.1 0 0 1-.8-.3c.6-1 1.2-1.8 2.5-1.6s.6-.1.9-.2a.5.5 0 0 0 .5-.5.7.7 0 0 0-.4-.6c-.2-.1-.5 0-.5-.4a3.4 3.4 0 0 1 2.2-1.7 1.4 1.4 0 0 0 1.4-.3 1.9 1.9 0 0 0 .4-2.2 1.6 1.6 0 0 0-2.1-.9c-1.1.3-1.4.7-1.3 1.9s.2.6-.1.8a7.9 7.9 0 0 1-1.8 1.4c-.2-.4-.2-1.1-.8-1s-.5.8-.6 1.2a.4.4 0 0 0-.1.3c.2 1.2-.6 1.9-1.5 2.5l-.3-.5c-.1-.3 0-.9-.5-.8s-.5.6-.5 1v.5c.2 1.1-.4 1.7-1.3 2.3a1.1 1.1 0 0 0-.1-.6c-.1-.2-.1-.6-.5-.6s-.5.4-.6.7a6.1 6.1 0 0 0-.1 1.4c0 .9-.8 1.2-1.2 1.7s-.2 0-.3 0-.6-.3-.6.3a1.9 1.9 0 0 1-1 1.7v-2.2a1.2 1.2 0 0 1 .7-1.4 4.3 4.3 0 0 0 1-.9c.3-.3.7-.7.4-1.2a.9.9 0 0 0-1.1 0l-.5.2c-.1 0-.2.1-.3-.1a1.8 1.8 0 0 1 .6-1.9 9.5 9.5 0 0 0 2.4-2.5c.2-.3.4-.5.1-.9a.8.8 0 0 0-.9-.2 3.3 3.3 0 0 0-1.3.7c-.4.2-.6.6-1.1.6a30.3 30.3 0 0 0-.2-3.1 2.9 2.9 0 0 1 .7-2.6 2.4 2.4 0 0 0-.9-3.5.9.9 0 0 0-1 0 2.5 2.5 0 0 0-.8 3.4 3.8 3.8 0 0 1 .7 2.5 9.3 9.3 0 0 1-.4 3.3l-1.8-1.2c-.4-.2-.9-.4-1.3.1s0 .8.3 1.1a6.9 6.9 0 0 0 2.4 2.4c.9.4.7 1.2.5 1.8s-.7-.1-1.1-.2c-.4-.1-.7-.1-.9.2s-.1.6.2.8l1.4 1.2a1.8 1.8 0 0 1 .5.7 15.1 15.1 0 0 1 .1 3c-.6-.5-1.2-.9-1.1-1.8s-.1-1-.6-.5-.5.1-.7-.1a2.4 2.4 0 0 1-.9-2.1c0-.5 0-1.3-.6-1.4s-.4.8-.7 1.3a2.3 2.3 0 0 1-1.2-2.6c0-.4 0-1.3-.5-1.3s-.6.8-.7 1.3h-.1c-.8-.7-1.8-1.2-1.6-2.6s-.1-.6-.2-.9a.6.6 0 0 0-.5-.6.6.6 0 0 0-.6.5c-.1.2 0 .5-.3.6l-1.2-1.1a1 1 0 0 1-.5-1.3 1.6 1.6 0 0 0-.9-1.7 1.8 1.8 0 0 0-2.2.3 1.8 1.8 0 0 0-.3 2.2c.3.9 1 .9 1.8.8s.6-.1.9.3a5.2 5.2 0 0 0 1 1.1c.4.4.3.5-.2.7a.7.7 0 0 0-.5.7c.1.4.4.4.7.5h.6c1.4-.3 2 .7 2.7 1.6h-.3c-.4.3-1.3 0-1.2.7s1 .4 1.5.5h.3c1-.2 1.6.4 2.1 1.2s-1.2.1-1.2.7.8.5 1.2.6h.4c1.1-.3 1.4.7 2.1 1.2s.1.2 0 .4.1.6.4.6 1.2.4 1.6 1.1h-2.6a.8.8 0 0 1-.8-.4 4.4 4.4 0 0 0-1.4-1.6.6.6 0 0 0-.8-.1.6.6 0 0 0-.1.8 4.2 4.2 0 0 0 .4 1c-1 .2-1.9.3-2.5-.9a3.9 3.9 0 0 0-1.5-1.6c-.5-.3-1-1-1.6-.5s0 1.2.3 1.8 1 .9.7 1.3-1-.1-1.5 0zm-5.4 1.4a.5.5 0 0 1-.6-.6.7.7 0 0 1 .6-.7 1 1 0 0 1 .7.7.7.7 0 0 1-.7.6zm4.9 14.2c-.1.1-.1.3-.5.3s-.5-.2-.5-.6.3-.4.5-.4.5.2.5.7zm28.1-.1a.6.6 0 0 1 .6-.6c.3 0 .5.1.5.4s-.3.6-.6.6-.5-.1-.5-.4zm4.9-15.4c.4 0 .6.4.7.7a.7.7 0 0 1-.6.7 1 1 0 0 1-.8-.6 1 1 0 0 1 .7-.8zm-4.6-14.4c.4.1.7.3.7.7s-.1.4-.4.4a.9.9 0 0 1-.6-.6.5.5 0 0 1 .3-.5zm-14.4-4.5c.4 0 .6.3.8.6s-.4.7-.7.7a.8.8 0 0 1-.7-.7.6.6 0 0 1 .6-.6zm0 37.8a1 1 0 0 1 .7.7c.1.5-.3.6-.6.7a.6.6 0 0 1-.7-.6c0-.3.3-.6.6-.8zm-14.7-32.2c-.2 0-.4-.1-.3-.4a.6.6 0 0 1 .7-.7c.3 0 .2.3.3.4a.6.6 0 0 1-.7.7z" class="cls-8"/><path d="M426.6 249.4a4.2 4.2 0 0 1-3.6-.7c-.5-.5-2.1.3-2.3.9a.9.9 0 0 0 0 .7c.3.9 2 1.5 2.7.8a3 3 0 0 1 2.2-.6 6.1 6.1 0 0 1 2.3.3l-.8 1.4c-.2.3-.4.7-.1 1s.7.1 1-.1a8.1 8.1 0 0 0 1.6-1.6 1.3 1.3 0 0 1 1.8-.7c.1.3-.1.5-.2.7s-.3.5 0 .7.5.2.8-.1l.8-.9c.2-.2.2-.4.5-.5a10.3 10.3 0 0 1 2.5-.1 1.8 1.8 0 0 1-1.4.9c-.2-.1-.7.1-.5.3s0 .5-.1.8a2 2 0 0 1-1.8.6c-.4 0-.8 0-.8.5s.4.4.7.4h.1c-.6.8-.6.8-1.9 1s-1.1-.1-1.1.4.7.4 1 .5h.1c-.5.7-1 1.3-2 1.2l-.8.2c-.4.2-.4.5 0 .8s.4.1.5.3-1.1 1.6-2.3 1.4-1.2.8-1 1.7a1.5 1.5 0 0 0 1.5 1.1 1.3 1.3 0 0 0 1.3-1.4 1 1 0 0 1 .5-1.3l.9-.7c.2.3.1.9.7.8s.4-.5.4-.8a1.1 1.1 0 0 0 .1-.5c-.1-1.1.7-1.3 1.3-1.9a1.5 1.5 0 0 1 .1.6c0 .2.1.5.4.5s.3-.3.4-.5a2.8 2.8 0 0 0 .1-.9c-.2-.8.4-1.1 1-1.6v.3c0 .3 0 .6.4.6s.4-.3.4-.5a3.4 3.4 0 0 0 .1-1c0-.4.9-1.5 1.1-1.4s.6-.3.6-.5a3.4 3.4 0 0 1 .9-1.2v1.7a2.1 2.1 0 0 1-1 1.7 1.2 1.2 0 0 0-.6.6.7.7 0 0 0-.1.6.5.5 0 0 0 .6.1l.6-.3h.4c.2.3-.1 1.3-.3 1.5a6.7 6.7 0 0 0-2.1 2c-.2.3-.4.5-.1.8s.6.3.9.1l1.5-1a9.9 9.9 0 0 1 .3 2.9 2 2 0 0 1-.5 1.5 2 2 0 0 0 .7 2.9h.7a2 2 0 0 0 .6-2.8 2.4 2.4 0 0 1-.5-2 14.9 14.9 0 0 0 .2-2.1c-.1-.4.1-.4.4-.2a11 11 0 0 0 1.4.9.8.8 0 0 0 .8-.1c.2-.3.1-.5-.1-.8a4.4 4.4 0 0 0-1.6-1.7c-.9-.5-.9-1.1-.7-1.9l.8.3c.2.1.5.1.6-.1a.5.5 0 0 0-.1-.7l-.5-.5c-.3-.3-.9-.5-1-.9a19.1 19.1 0 0 1 0-2.4c.5.4.9.8.8 1.4s.1.6.4.4.5-.1.7.1.6 1.1.6 1.8 0 .8.5.8.4-.5.5-.7h.1c.7.4 1.1.9.9 1.7v.8c.1.2.1.4.4.4s.3-.1.4-.4a2.5 2.5 0 0 1 .2-.7 2.5 2.5 0 0 1 1.3 2.3c0 .3 0 .8.5.9s.5-.4.6-.7h.1l.9.8a1 1 0 0 1 .5 1.2 1.5 1.5 0 0 0 .2.9 1.7 1.7 0 0 0 1.9.3 1.4 1.4 0 0 0 .6-1.7c-.3-.8-.7-1.1-1.5-.9s-.4.1-.6-.1l-1.2-1.4c.7-.2.9-.4.9-.6s-.6-.4-.9-.5h-.4c-1 .2-1.4-.7-2-1.3h.6c.3-.1.6-.1.6-.4s-.3-.3-.5-.3a1.8 1.8 0 0 0-1-.2c-.9.3-1.1-.4-1.7-1h.5c.3 0 .6-.1.6-.4s-.3-.4-.5-.5h-1c-.7.1-1-.6-1.5-1s0-.1.1-.2.1-.5-.3-.6-1-.1-1.4-.8c1.4-.1 2.7-.1 3.6 1.3h.1c.2.3.5.5.8.3s.2-.6 0-.9a.8.8 0 0 0-.2-.4c0-.2 0-.3.2-.3s1.1-.2 1.5.5a5.5 5.5 0 0 0 1.8 1.9c.3.2.6.4.9.1s.2-.6.1-.8l-.8-1.2c-.2-.3-.2-.4.2-.5a19.4 19.4 0 0 1 2.4-.2 2.4 2.4 0 0 1 1.6.5 1.9 1.9 0 0 0 2.8-.6.6.6 0 0 0 0-.8 1.9 1.9 0 0 0-3-.5c-.2.1-.4.4-.7.4l-3.6-.2c.3-.7.9-1.1 1.1-1.7a.8.8 0 0 0-.2-.9c-.3-.2-.5 0-.8.2a6.1 6.1 0 0 0-1.9 2c-.4.6-1 .4-1.4.2s.1-.4.1-.7.2-.5-.1-.7-.6 0-.8.2l-.9 1.1c-.2.1-.2.3-.5.3H439c.3-.4.6-.8 1.2-.8s.5-.1.3-.6.1-.2.2-.3a2.2 2.2 0 0 1 2.1-.9c.3 0 .7 0 .7-.4s-.4-.4-.7-.5h-.2a1.7 1.7 0 0 1 1.8-.9h.7c.3 0 .5-.1.5-.4s-.2-.3-.4-.3l-.6-.2c.4-.8.9-1.4 1.9-1.3a1.1 1.1 0 0 0 .8-.1.8.8 0 0 0 .4-.4.7.7 0 0 0-.4-.5c-.1-.1-.4 0-.3-.3s1.2-1.3 1.6-1.3.8.1 1.2-.3a1.5 1.5 0 0 0 .3-1.7 1.4 1.4 0 0 0-1.7-.7c-.8.2-1 .5-1 1.4s.1.5-.1.7a5.3 5.3 0 0 1-1.4 1.1c-.1-.3-.2-.8-.6-.8s-.4.6-.5.9v.3c.1 1-.5 1.5-1.3 2l-.2-.5c-.1-.2 0-.7-.4-.6s-.4.5-.4.8v.4c.2.9-.3 1.4-1 1.8s0-.3-.1-.4-.1-.6-.4-.5-.4.3-.4.5a4.1 4.1 0 0 0-.1 1.1c0 .7-.6 1-1 1.4s-.1 0-.2-.1-.5-.2-.5.3a1.4 1.4 0 0 1-.8 1.3v-.2a7.6 7.6 0 0 0-.1-1.5c0-.5.1-.9.6-1.1l.8-.7c.3-.3.6-.6.3-.9s-.6-.2-.9 0h-.3c-.1.1-.2.1-.3-.1a1.5 1.5 0 0 1 .5-1.5 6.9 6.9 0 0 0 1.9-1.9c.1-.2.3-.4.1-.7a.6.6 0 0 0-.8-.2 2.1 2.1 0 0 0-1 .6c-.2.1-.4.4-.8.4s-.1-1.6-.2-2.4a2.4 2.4 0 0 1 .5-2 1.8 1.8 0 0 0-.6-2.8.6.6 0 0 0-.8 0 2 2 0 0 0-.7 2.7 2.8 2.8 0 0 1 .6 2 7.2 7.2 0 0 1-.3 2.5l-1.4-.9a.8.8 0 0 0-1 0c-.3.4 0 .7.2 1a4.7 4.7 0 0 0 1.9 1.8 1 1 0 0 1 .3 1.4c-.1.5-.5-.1-.8-.1-.3-.1-.6-.1-.7.1a.5.5 0 0 0 .1.7l1.1.9c.2.2.4.3.4.6a8.7 8.7 0 0 1 .1 2.3c-.5-.4-.9-.7-.9-1.4s0-.8-.4-.4-.4.1-.6-.1a1.6 1.6 0 0 1-.7-1.6c0-.4 0-1-.4-1.1s-.4.6-.6 1a1.9 1.9 0 0 1-1-2c.1-.4.1-1-.4-1.1s-.4.6-.4 1l-.2.2c-.6-.6-1.4-1-1.2-2.1s-.1-.5-.1-.7-.2-.5-.5-.5a.4.4 0 0 0-.4.4c-.1.2-.1.4-.3.5l-.9-.9a.7.7 0 0 1-.4-1 1.1 1.1 0 0 0-.7-1.3 1.4 1.4 0 0 0-2 1.9c.3.7.8.7 1.4.7s.5-.2.7.1a3.6 3.6 0 0 0 .8.9c.3.3.3.5-.1.6s-.5.2-.4.5.3.4.6.5h.4c1.1-.2 1.6.6 2.1 1.3h-.1c-.3.2-1 0-.9.5s.7.3 1.1.4h.2c.8-.2 1.3.3 1.7.9s-1 .1-.9.6.6.4.9.4h.3c.8-.2 1.1.5 1.7.9s.1.2-.1.3.1.5.4.5.9.3 1.3.8h-2.1a.5.5 0 0 1-.6-.4 6.9 6.9 0 0 0-1.1-1.3.6.6 0 0 0-.7 0c-.2.1-.2.3-.1.6l.3.8c-.8.2-1.5.2-1.9-.7a2.8 2.8 0 0 0-1.2-1.2c-.4-.3-.8-.9-1.3-.4s.1.9.3 1.3.8.8.6 1.1-.8.2-1.3.3zm-4.2 1.1a.5.5 0 0 1-.5-.5c0-.3.2-.6.5-.5a.5.5 0 1 1 0 1zm3.8 11.1c0 .1 0 .3-.3.2s-.4-.1-.4-.4.2-.3.4-.3.4.1.3.5zm22.1 0c.1-.3.2-.6.5-.5s.4 0 .4.2-.2.5-.5.5-.4-.1-.4-.2zm3.9-12.1c.3-.1.5.2.5.5s-.2.4-.4.5a.6.6 0 0 1-.6-.5c-.1-.3.3-.5.5-.5zm-3.6-11.4a.9.9 0 0 1 .6.6c0 .2-.2.3-.4.3a.8.8 0 0 1-.5-.5c0-.2.1-.3.3-.4zm-11.3-3.5a.6.6 0 0 1 .6.5c-.1.2-.3.5-.6.5a.6.6 0 0 1-.5-.6.5.5 0 0 1 .5-.4zm0 29.7a.6.6 0 0 1 .5.6c.1.3-.2.4-.4.5s-.6-.2-.6-.5.3-.5.5-.6zM425.7 239a.3.3 0 0 1-.3-.3c.1-.3.2-.6.6-.6s.2.2.2.4a.5.5 0 0 1-.5.5z" class="cls-36"/><path d="M124.9 290.4a3.9 3.9 0 0 1-3.1-.6c-.4-.4-1.8.2-2 .8v.6a1.9 1.9 0 0 0 2.4.7c.5-.6 1.2-.5 1.8-.5a5 5 0 0 1 2.1.2 8.3 8.3 0 0 0-.8 1.2c-.2.3-.3.6 0 .9s.5 0 .8-.1a4.7 4.7 0 0 0 1.4-1.4 1.1 1.1 0 0 1 1.5-.6c.1.2-.1.4-.2.6s-.2.5 0 .6a.5.5 0 0 0 .7-.1 2.7 2.7 0 0 0 .7-.8c.2-.1.2-.3.4-.3a5.4 5.4 0 0 1 2.2-.1c-.4.3-.7.7-1.2.7s-.6.1-.4.3 0 .4-.1.6a1.7 1.7 0 0 1-1.6.6c-.3 0-.7 0-.7.4s.4.3.7.4h.1c-.5.7-.5.7-1.7.8s-.9 0-.9.4.5.4.8.4h.1c-.4.6-.8 1.2-1.7 1.1s-.4 0-.7.1-.4.5 0 .7.3.1.4.3-.9 1.4-2 1.2-.9.7-.8 1.4a1.3 1.3 0 0 0 1.3 1c.7-.1 1.2-.6 1.1-1.2a1 1 0 0 1 .4-1.1l.8-.6c.2.3.1.7.6.7s.3-.5.4-.8.1-.3 0-.4.6-1.1 1.2-1.6v.5c.1.2.1.5.4.5s.2-.3.3-.5a1.7 1.7 0 0 0 .1-.7c-.2-.7.3-1 .8-1.4s.1.2.1.3 0 .5.3.5.3-.3.4-.5v-.9c.1-.3.8-1.3 1-1.1s.5-.3.5-.5a1.9 1.9 0 0 1 .8-1v1.5c0 .7-.4 1-.9 1.4a1.2 1.2 0 0 0-.5.5.7.7 0 0 0-.1.6.6.6 0 0 0 .6 0l.5-.2c.1 0 .2-.1.3 0a2.1 2.1 0 0 1-.3 1.3 5.8 5.8 0 0 0-1.8 1.7c-.1.2-.3.5-.1.7s.5.2.8.1l1.3-.9a11 11 0 0 1 .2 2.5 1.3 1.3 0 0 1-.4 1.3 1.8 1.8 0 0 0 .6 2.5.6.6 0 0 0 .6 0 1.8 1.8 0 0 0 .6-2.5 2.1 2.1 0 0 1-.5-1.7 4.7 4.7 0 0 0 .1-1.7c0-.4.2-.4.5-.2a4.1 4.1 0 0 0 1.1.7.6.6 0 0 0 .7-.1c.2-.2.1-.4-.1-.6a3.4 3.4 0 0 0-1.4-1.5c-.7-.4-.7-.9-.6-1.6l.7.2a.5.5 0 0 0 .6-.1.7.7 0 0 0-.1-.6l-.4-.3c-.3-.3-.8-.5-.9-.8a14.7 14.7 0 0 1 0-2.1c.4.4.7.7.7 1.2s.1.6.3.3.4 0 .6.1a1.7 1.7 0 0 1 .5 1.5c.1.3.1.8.5.8s.3-.4.4-.7h.1a1.6 1.6 0 0 1 .8 1.6c-.1.2 0 .4 0 .6s.1.4.3.4a.3.3 0 0 0 .3-.3c.1-.2.1-.4.2-.6s1.2.9 1.1 1.8 0 .8.4.8.4-.3.6-.6h.1a4.6 4.6 0 0 0 .7.7.9.9 0 0 1 .5.9.8.8 0 0 0 .1.8 1.4 1.4 0 0 0 1.6.3 1.3 1.3 0 0 0 .6-1.5 1.2 1.2 0 0 0-1.3-.8c-.2.1-.4.2-.6 0l-1-1.2c.6-.2.8-.3.8-.5s-.5-.4-.8-.5-.2-.1-.3 0-1.2-.6-1.7-1.2h.5c.2-.1.5-.1.5-.4s-.3-.2-.4-.3h-.8c-.8.3-1-.4-1.5-.8h.4c.3 0 .5-.1.5-.3s-.3-.4-.5-.4h-.8c-.6 0-.8-.6-1.3-.9a.3.3 0 0 1 .1-.2c.2-.3.1-.4-.3-.4s-.8-.2-1.1-.8c1.2-.1 2.3 0 3 1.2h.1c.2.2.4.4.7.2s.2-.5 0-.7-.1-.3-.1-.4-.1-.3.1-.3a1.4 1.4 0 0 1 1.3.4 3.7 3.7 0 0 0 1.6 1.7c.2.1.4.3.7.1s.2-.5.1-.8a8.6 8.6 0 0 1-.7-1c-.2-.2-.1-.3.2-.4a13.4 13.4 0 0 1 2-.1 1.6 1.6 0 0 1 1.4.4 1.7 1.7 0 0 0 2.4-.5c.2-.3.2-.5 0-.7a1.6 1.6 0 0 0-2.5-.5 1 1 0 0 1-.7.4l-3-.2c.2-.5.7-.9.9-1.4s.1-.6-.1-.8-.5 0-.7.1a5.8 5.8 0 0 0-1.7 1.8c-.3.5-.8.3-1.2.2s.1-.4.1-.6a.6.6 0 0 0-.1-.7c-.2-.2-.5 0-.7.2l-.8 1c-.1.1-.1.3-.3.3h-2c.3-.4.5-.8 1-.8s.5 0 .3-.4.1-.2.2-.3a1.8 1.8 0 0 1 1.8-.8c.3 0 .6 0 .6-.4s-.3-.3-.6-.4h-.1a1.3 1.3 0 0 1 1.5-.9c.2.1.4 0 .6 0s.4-.1.4-.3-.2-.3-.4-.3l-.5-.2c.4-.7.8-1.2 1.7-1.1h.6c.2 0 .3-.1.4-.3s-.1-.3-.3-.4-.4-.1-.3-.3 1-1.2 1.4-1.2a1 1 0 0 0 1-.2 1.2 1.2 0 0 0 .2-1.5 1.2 1.2 0 0 0-1.4-.6c-.7.2-.9.5-.9 1.3s.2.4 0 .6a9.4 9.4 0 0 1-1.2.9c-.2-.3-.2-.7-.6-.7s-.3.5-.4.8v.2c.1.9-.4 1.3-1.1 1.7s-.1-.2-.1-.3-.1-.6-.4-.6-.3.4-.3.7v.4c.1.7-.3 1.1-.9 1.5s0-.3-.1-.4-.1-.4-.3-.4a.4.4 0 0 0-.4.4 3.4 3.4 0 0 0-.1 1c0 .6-.5.8-.8 1.2s-.1 0-.2-.1-.4-.2-.4.2a1.4 1.4 0 0 1-.7 1.2c0-.1 0-.1-.1-.2a5.7 5.7 0 0 0 0-1.3.9.9 0 0 1 .5-.9l.7-.7c.2-.2.5-.4.3-.7s-.5-.2-.8 0h-.3c-.1 0-.2 0-.2-.1a1.2 1.2 0 0 1 .4-1.3 4.9 4.9 0 0 0 1.6-1.6c.1-.2.3-.4.1-.7s-.4-.1-.6-.1a2.6 2.6 0 0 0-.9.5c-.2.1-.4.4-.7.4s-.1-1.4-.2-2.1a1.8 1.8 0 0 1 .5-1.7 1.6 1.6 0 0 0-.6-2.4h-.7a1.6 1.6 0 0 0-.5 2.3 2.1 2.1 0 0 1 .4 1.7 5.7 5.7 0 0 1-.2 2.2l-1.2-.8c-.3-.2-.6-.3-.9 0s0 .6.2.8a4.1 4.1 0 0 0 1.6 1.6c.6.3.5.8.3 1.2s-.4-.1-.7-.1c-.2-.1-.5-.1-.6.1s0 .4.1.6l.9.8c.2.1.4.2.4.4a14.8 14.8 0 0 1 .1 2.1c-.5-.4-.8-.7-.8-1.3s0-.6-.3-.3-.4.1-.5-.1a1.5 1.5 0 0 1-.7-1.4c.1-.3.1-.8-.3-.9s-.3.5-.5.8a1.4 1.4 0 0 1-.8-1.7c0-.3 0-.8-.4-.9s-.3.6-.4.9a.1.1 0 0 0-.1.1c-.5-.5-1.2-.9-1.1-1.8a.7.7 0 0 0-.1-.6.4.4 0 0 0-.4-.4c-.2 0-.3.2-.4.4a.4.4 0 0 1-.2.4 3 3 0 0 0-.8-.8.6.6 0 0 1-.3-.9.9.9 0 0 0-.6-1.1 1.4 1.4 0 0 0-1.5.2 1.2 1.2 0 0 0-.2 1.5c.2.6.7.6 1.2.6s.5-.2.6.1l.7.8c.2.2.2.3-.1.4s-.4.2-.3.5.2.3.4.4h.4c.9-.2 1.3.5 1.8 1.1h-.1c-.2.2-.9 0-.8.4s.6.3 1 .3.1.1.2 0 1 .3 1.4.9-.8 0-.8.4.5.4.8.4h.3c.7-.2.9.4 1.4.7a.2.2 0 0 1 0 .3c-.4.5 0 .4.3.4s.8.3 1.1.8h-1.8a.5.5 0 0 1-.5-.3 5.2 5.2 0 0 0-1-1.1.4.4 0 0 0-.5-.1c-.2.2-.2.3-.1.6l.3.7c-.7.1-1.3.1-1.7-.6a2.7 2.7 0 0 0-1-1.1c-.4-.2-.7-.7-1.1-.3s0 .8.2 1.1.7.7.5 1-.7.1-1.1.2zm-3.6.9c-.2.1-.4-.2-.4-.4s.1-.5.4-.4a.4.4 0 1 1 0 .8zm3.3 9.5c0 .2 0 .3-.3.3s-.4-.2-.4-.4.2-.3.4-.3.3.2.3.4zm19 0a.4.4 0 0 1 .4-.4c.1 0 .3 0 .3.3s-.2.4-.4.4-.4-.1-.3-.3zm3.3-10.3c.2-.1.4.2.4.4s-.2.4-.4.5-.5-.2-.5-.4a.5.5 0 0 1 .5-.5zm-3.1-9.8c.2.1.4.2.4.5s-.1.3-.2.3-.4-.2-.4-.4 0-.3.2-.4zm-9.7-3a.7.7 0 0 1 .5.4c-.1.2-.3.5-.5.5s-.4-.3-.4-.5a.4.4 0 0 1 .4-.4zm0 25.5c.2.1.4.2.4.5s-.1.4-.4.4a.4.4 0 0 1-.4-.4.7.7 0 0 1 .4-.5zm-10-21.7c-.1 0-.2-.1-.2-.3s.2-.5.5-.5.2.2.2.3-.2.5-.5.5z" class="cls-8"/><path d="M568.2 241.3a3.5 3.5 0 0 1-3.1-.6c-.4-.4-1.8.3-2.1.8v.6a1.9 1.9 0 0 0 2.4.7 2.1 2.1 0 0 1 1.8-.5 5 5 0 0 1 2.1.2l-.8 1.2c-.1.3-.3.6 0 .9s.6 0 .8-.1a3.8 3.8 0 0 0 1.4-1.4c.4-.7.9-.7 1.6-.6s-.2.4-.2.6-.3.5 0 .7.5.1.6-.1l.8-.8c.1-.2.2-.4.4-.4a5.3 5.3 0 0 1 2.2-.1 1.7 1.7 0 0 1-1.3.7c-.2 0-.6.1-.4.3s0 .5-.1.6-.9.6-1.5.6-.7 0-.7.4.4.3.6.4h.1c-.5.7-.5.7-1.7.9s-.9-.1-.9.4.6.3.9.3a1.5 1.5 0 0 1-1.6 1.1l-.7.2c-.4.1-.4.4-.1.7s.3 0 .4.2-.9 1.4-1.9 1.2-1 .7-.9 1.4a1.3 1.3 0 0 0 1.3 1c.8-.1 1.2-.6 1.1-1.2a.9.9 0 0 1 .5-1.1l.7-.6c.2.3.1.7.6.7s.3-.5.4-.7.1-.3.1-.5.6-1.1 1.1-1.6 0 .4.1.5 0 .5.3.5.3-.3.3-.4a1.2 1.2 0 0 0 .1-.8c-.1-.7.4-1 .9-1.4v.3c0 .2 0 .5.3.5s.4-.3.4-.5a2.5 2.5 0 0 0 .1-.8c0-.4.7-1.3.9-1.2s.5-.2.6-.5a1.7 1.7 0 0 1 .7-1v1.5c0 .7-.4 1-.9 1.4l-.5.5c-.1.2-.2.4 0 .6h.5l.5-.3h.3a1.5 1.5 0 0 1-.3 1.3 4.6 4.6 0 0 0-1.7 1.7c-.2.2-.4.5-.2.7a.6.6 0 0 0 .8.1l1.3-.9a11.3 11.3 0 0 1 .3 2.5 2 2 0 0 1-.4 1.3 1.6 1.6 0 0 0 .6 2.5h.6a1.7 1.7 0 0 0 .5-2.4 2.2 2.2 0 0 1-.4-1.7c0-.6.1-1.2.1-1.8s.1-.4.4-.2a2.9 2.9 0 0 0 1.2.7c.2.1.4.2.6 0a.6.6 0 0 0 0-.7 4.1 4.1 0 0 0-1.4-1.5c-.8-.4-.8-.9-.6-1.6l.7.2c.2.1.4.1.5-.1s0-.4-.1-.5l-.4-.4c-.3-.3-.8-.5-.9-.8a14.7 14.7 0 0 1 0-2.1c.5.4.8.7.7 1.2s.1.6.3.3.4 0 .6.1a1.9 1.9 0 0 1 .6 1.6c0 .2 0 .7.4.7s.3-.4.4-.7h.1a1.3 1.3 0 0 1 .8 1.5v.6c0 .2.1.4.3.4a.3.3 0 0 0 .3-.3 1.4 1.4 0 0 0 .2-.6c.7.5 1.3.9 1.1 1.9s0 .7.5.8.4-.4.5-.6h.1l.8.7c.4.2.5.5.4 1a.6.6 0 0 0 .1.7 1.4 1.4 0 0 0 1.7.3 1.1 1.1 0 0 0 .5-1.4c-.2-.7-.6-1-1.3-.8s-.4.1-.5-.1l-1.1-1.2c.6-.1.8-.3.8-.5s-.5-.4-.8-.5h-.3c-.9.1-1.2-.6-1.7-1.1h.6c.1-.1.4-.1.4-.4s-.2-.2-.4-.3-.6-.1-.8 0-1-.5-1.5-.9h.5c.2-.1.4-.1.4-.4s-.2-.3-.4-.4h-.8c-.7 0-.9-.6-1.3-.8a.1.1 0 0 1 0-.2c.2-.4.2-.5-.2-.5s-.8-.2-1.2-.8c1.2-.1 2.3 0 3 1.2h.1c.2.2.5.4.7.2s.2-.5.1-.7-.2-.3-.2-.4 0-.2.1-.2 1-.2 1.3.4a4.9 4.9 0 0 0 1.6 1.6.5.5 0 0 0 .7.1c.3-.2.2-.5.1-.7l-.7-1.1c-.1-.2-.1-.3.2-.4a14.1 14.1 0 0 1 2-.1 1.7 1.7 0 0 1 1.4.4 1.8 1.8 0 0 0 2.5-.5.9.9 0 0 0 0-.7 1.7 1.7 0 0 0-2.6-.5c-.2.2-.3.4-.6.4h-3.1c.2-.6.7-1 .9-1.5a.8.8 0 0 0-.1-.8c-.3-.2-.5 0-.7.1a7.3 7.3 0 0 0-1.7 1.8c-.3.5-.8.3-1.2.2s.1-.4.1-.6.2-.5 0-.7a.6.6 0 0 0-.7.2 3.9 3.9 0 0 0-.8 1c-.1.1-.2.3-.4.3h-1.9a1.2 1.2 0 0 1 1-.8c.4 0 .4 0 .3-.4s0-.2.1-.3a1.8 1.8 0 0 1 1.8-.8c.3 0 .6 0 .6-.3s-.3-.4-.5-.5h-.2a1.2 1.2 0 0 1 1.5-.8h.6c.2 0 .4-.1.4-.3a.3.3 0 0 0-.3-.3l-.6-.2c.5-.6.9-1.2 1.7-1.1a.9.9 0 0 0 .7-.1.3.3 0 0 0 .3-.3c0-.2-.1-.3-.3-.4s-.3-.1-.3-.3a2.2 2.2 0 0 1 1.4-1.1 1.6 1.6 0 0 0 1-.2 1.6 1.6 0 0 0 .3-1.6 1.5 1.5 0 0 0-1.5-.6c-.7.3-.9.5-.8 1.3s.1.4-.1.6a5.4 5.4 0 0 1-1.2.9c-.1-.3-.1-.7-.6-.6s-.3.4-.4.7v.2c.1.9-.4 1.3-1.1 1.7v-.3c-.1-.2 0-.6-.4-.6s-.3.4-.3.7v.4c.1.7-.3 1.1-.9 1.5v-.4c-.1-.1-.1-.4-.4-.4s-.3.2-.4.5a2.8 2.8 0 0 0-.1.9c.1.6-.5.8-.8 1.2s-.1 0-.2-.1-.4-.2-.4.2a1.2 1.2 0 0 1-.7 1.2V239a.7.7 0 0 1 .4-.9l.8-.6c.2-.2.4-.5.2-.8s-.5-.1-.8 0h-.2c-.1 0-.2.1-.3-.1a1.4 1.4 0 0 1 .4-1.2 6.5 6.5 0 0 0 1.6-1.7c.2-.2.3-.4.1-.6s-.4-.2-.6-.2a2.6 2.6 0 0 0-.9.5 1 1 0 0 1-.7.4 12.7 12.7 0 0 0-.1-2 1.9 1.9 0 0 1 .4-1.8 1.6 1.6 0 0 0-.6-2.4h-.7a1.6 1.6 0 0 0-.6 2.3 2.8 2.8 0 0 1 .5 1.7 5.6 5.6 0 0 1-.3 2.2l-1.2-.8a1 1 0 0 0-.9 0c-.2.3 0 .6.2.8a4.9 4.9 0 0 0 1.6 1.6c.6.3.5.8.4 1.2s-.5 0-.7-.1h-.1a.5.5 0 0 0-.6.1.7.7 0 0 0 .1.6l1 .8a.6.6 0 0 1 .3.5 12.7 12.7 0 0 1 .1 2 1.4 1.4 0 0 1-.7-1.3c0-.1-.1-.6-.4-.3s-.4.1-.5 0a1.7 1.7 0 0 1-.6-1.5c0-.3 0-.8-.4-.9s-.3.6-.5.9a1.5 1.5 0 0 1-.8-1.7c0-.4 0-.9-.4-.9s-.3.5-.4.8h-.1c-.5-.5-1.2-.8-1-1.8a2.1 2.1 0 0 0-.2-.6c0-.2-.1-.3-.3-.4a.4.4 0 0 0-.4.4l-.2.4-.8-.7a.8.8 0 0 1-.4-1 1 1 0 0 0-.6-1.1 1.2 1.2 0 0 0-1.7 1.7c.2.6.7.6 1.2.6s.5-.2.7.1l.6.8c.3.2.2.3-.1.4s-.4.2-.3.5.3.3.5.4h.3c1-.2 1.4.5 1.9 1.1h-.2c-.2.2-.8 0-.8.4s.7.3 1 .4h.2c.7-.2 1.1.3 1.4.8s-.8 0-.7.5.5.3.8.3h.2c.7-.2 1 .5 1.4.8s.1.1 0 .2.1.4.3.4.8.3 1.1.8h-1.8a.5.5 0 0 1-.5-.3 3.5 3.5 0 0 0-1-1.1.4.4 0 0 0-.5-.1.5.5 0 0 0-.1.6l.3.7c-.7.1-1.3.2-1.7-.6a2.7 2.7 0 0 0-1-1.1c-.3-.2-.7-.7-1.1-.3s0 .8.2 1.1.7.7.5 1-.7.3-1 .4zm-3.6 1a.5.5 0 0 1-.5-.5c0-.2.2-.5.4-.4s.4.2.5.4-.2.4-.4.5zm3.2 9.5c0 .1 0 .2-.3.2s-.3-.2-.3-.4.2-.3.3-.3.3.2.3.5zm19-.1a.4.4 0 0 1 .4-.4.3.3 0 0 1 .3.3.4.4 0 0 1-.4.4c-.3 0-.3-.1-.3-.3zm3.3-10.3a.4.4 0 0 1 .4.4.5.5 0 0 1-.3.5.9.9 0 0 1-.6-.4.5.5 0 0 1 .5-.5zm-3.1-9.7c.3 0 .4.2.5.4a.3.3 0 0 1-.3.3.4.4 0 0 1-.4-.4c0-.2 0-.3.2-.3zm-9.7-3.1c.3 0 .4.2.5.4s-.2.5-.5.5a.5.5 0 0 1-.4-.5.4.4 0 0 1 .4-.4zm0 25.5a.8.8 0 0 1 .5.5.4.4 0 0 1-.4.4.4.4 0 0 1-.5-.4.7.7 0 0 1 .4-.5zm-9.9-21.7c-.2 0-.3-.1-.2-.3a.4.4 0 0 1 .4-.4c.2-.1.2.1.2.3a.4.4 0 0 1-.4.4z" class="cls-36"/><path d="M586.1 148.2a3.8 3.8 0 0 1-3.1-.6c-.4-.4-1.8.2-2 .8a.5.5 0 0 0 0 .5 1.6 1.6 0 0 0 2.3.7 2.6 2.6 0 0 1 1.9-.4 4.7 4.7 0 0 1 2 .2l-.8 1.2c-.1.3-.3.6 0 .9s.6 0 .8-.2a3.5 3.5 0 0 0 1.4-1.3c.4-.8.9-.8 1.6-.6a1.4 1.4 0 0 1-.2.6c-.1.2-.3.4 0 .6a.5.5 0 0 0 .7-.1l.7-.8.4-.4a8.1 8.1 0 0 1 2.2 0c-.4.3-.7.7-1.3.7s-.6 0-.4.3 0 .4-.1.6-.9.6-1.5.6-.7 0-.7.4.4.3.6.3a.1.1 0 0 1 .1.1c-.5.7-.5.7-1.7.8s-.9 0-.9.4.6.3.9.4a1.6 1.6 0 0 1-1.6 1.1.8.8 0 0 0-.7.1c-.4.2-.4.5-.1.7l.4.2c-.5.7-.8 1.4-1.9 1.2s-1 .8-.9 1.5a1.1 1.1 0 0 0 1.3.9c.8 0 1.3-.5 1.1-1.1a1.1 1.1 0 0 1 .5-1.2l.7-.5c.2.2.1.7.6.6s.4-.4.4-.7.1-.3.1-.4.6-1.1 1.1-1.6a1.1 1.1 0 0 1 .1.5c0 .2 0 .4.3.5s.3-.3.3-.5a.6.6 0 0 0 .1-.7c-.1-.8.4-1 .9-1.4v.2c0 .3 0 .5.3.6s.4-.3.4-.5a2.8 2.8 0 0 0 .1-.9c0-.3.8-1.3.9-1.2s.5-.2.6-.4a1.7 1.7 0 0 1 .7-1v1.4a2 2 0 0 1-.8 1.5l-.6.5a.4.4 0 0 0 0 .5c.1.2.3.2.5.1l.5-.2a.2.2 0 0 1 .3 0c.2.2 0 1.1-.3 1.3a4.6 4.6 0 0 0-1.7 1.7c-.2.2-.4.4-.2.7s.6.2.9 0l1.3-.8a11 11 0 0 1 .2 2.5 2 2 0 0 1-.4 1.3 1.7 1.7 0 0 0 .6 2.5h.6a1.8 1.8 0 0 0 .5-2.5 2.1 2.1 0 0 1-.4-1.7c0-.6.1-1.1.1-1.7s.1-.5.4-.2l1.2.7a.5.5 0 0 0 .6-.1c.2-.2.1-.4 0-.6a4.1 4.1 0 0 0-1.4-1.5c-.8-.4-.8-1-.6-1.7l.7.3c.2.1.4.1.5-.1s.1-.4-.1-.6-.3-.2-.4-.4-.8-.4-.8-.8a6.6 6.6 0 0 1-.1-2c.5.3.8.6.7 1.2s.1.5.3.3.4 0 .6.1a1.7 1.7 0 0 1 .6 1.5c0 .3 0 .7.4.8s.3-.4.4-.7a.1.1 0 0 0 .1-.1 1.4 1.4 0 0 1 .8 1.5v.7c0 .2.1.4.3.4s.3-.2.4-.4.1-.3.1-.6 1.3 1 1.2 1.9-.1.8.4.8.4-.3.5-.6h.1c.3.2.5.5.8.6a.9.9 0 0 1 .4 1 1.1 1.1 0 0 0 .2.8 1.4 1.4 0 0 0 1.6.3 1.2 1.2 0 0 0 .5-1.5 1.1 1.1 0 0 0-1.3-.8c-.2.1-.4.2-.5 0l-1-1.2c.5-.2.7-.3.7-.5s-.5-.4-.7-.5h-.4c-.9.2-1.2-.5-1.7-1.1h.6c.2-.1.4-.1.4-.4s-.2-.2-.4-.3a1.1 1.1 0 0 0-.8-.1c-.8.2-1-.4-1.5-.9h.5c.2 0 .5-.1.5-.4a.5.5 0 0 0-.5-.3h-.8c-.7 0-.9-.6-1.3-.9s0-.1 0-.2.2-.4-.2-.4-.8-.2-1.2-.8c1.2-.1 2.4 0 3.1 1.1.2.2.5.4.8.2s.1-.4 0-.7-.1-.2-.2-.4 0-.2.1-.2 1-.2 1.3.4a5.2 5.2 0 0 0 1.6 1.7c.2.1.5.3.7.1s.2-.5.1-.8l-.6-1c-.2-.3-.2-.3.1-.4a6.9 6.9 0 0 1 2-.1 1.4 1.4 0 0 1 1.4.4 1.7 1.7 0 0 0 2.5-.6.6.6 0 0 0 0-.6 1.7 1.7 0 0 0-2.6-.5c-.2.2-.3.4-.6.4l-3.1-.2c.3-.6.7-.9.9-1.4s.2-.6-.1-.8-.5 0-.7.1a6.9 6.9 0 0 0-1.7 1.7c-.3.5-.8.4-1.2.3s.1-.4.2-.6.1-.5-.1-.7-.5 0-.7.2l-.8.9c-.1.2-.2.3-.4.3h-1.9c.3-.3.5-.7 1-.7s.4 0 .3-.5 0-.2.1-.3a2 2 0 0 1 1.8-.7c.3 0 .6 0 .6-.4s-.3-.3-.5-.4h-.2a1.6 1.6 0 0 1 1.5-.8c.2.1.4 0 .6 0s.4-.1.4-.3-.1-.3-.3-.3l-.5-.2c.4-.7.8-1.2 1.7-1.1h.6c.1-.1.3-.2.3-.4a.5.5 0 0 0-.3-.4c-.1 0-.3 0-.3-.2a2.3 2.3 0 0 1 1.5-1.3c.3 0 .6.1.9-.2a1.4 1.4 0 0 0 .3-1.5 1.2 1.2 0 0 0-1.5-.6c-.7.2-.9.5-.8 1.3s.1.4-.1.6l-1.2.9c-.1-.3-.1-.7-.6-.7s-.3.5-.4.8v.2c.2.9-.4 1.3-1 1.7l-.2-.4c-.1-.2 0-.6-.4-.5s-.3.4-.3.7v.4a1.6 1.6 0 0 1-.8 1.5.8.8 0 0 1-.1-.4c-.1-.2-.1-.5-.4-.4s-.3.2-.4.4a1.7 1.7 0 0 0 0 1c0 .6-.6.8-.9 1.2h-.2c-.3-.2-.4-.2-.4.2a1.1 1.1 0 0 1-.6 1.2v-1.5a1 1 0 0 1 .4-1 2.1 2.1 0 0 0 .8-.6c.2-.2.4-.4.2-.7s-.5-.2-.7-.1l-.3.2h-.3a1.5 1.5 0 0 1 .4-1.3 6.5 6.5 0 0 0 1.7-1.6.6.6 0 0 0 0-.7c-.1-.2-.4-.2-.6-.1s-.6.3-.9.5-.4.4-.7.3a14.1 14.1 0 0 0-.1-2 1.8 1.8 0 0 1 .4-1.7 1.7 1.7 0 0 0-.5-2.5.6.6 0 0 0-.7.1 1.6 1.6 0 0 0-.6 2.3 2.5 2.5 0 0 1 .5 1.7c-.1.7.1 1.4-.3 2.1l-1.2-.7c-.3-.2-.6-.3-.8 0s-.1.6.1.8a4.9 4.9 0 0 0 1.6 1.6c.6.3.5.8.4 1.2s-.5-.1-.7-.1h-.1a.5.5 0 0 0-.6.1.4.4 0 0 0 .2.5l.9.9c.1.1.3.2.3.4a4.9 4.9 0 0 1 .1 2.1c-.4-.4-.8-.7-.7-1.3s-.1-.6-.4-.3-.3.1-.5-.1a1.5 1.5 0 0 1-.6-1.4c0-.3 0-.9-.4-.9s-.3.5-.5.8a1.5 1.5 0 0 1-.8-1.7c0-.3 0-.9-.4-.9s-.3.5-.4.9h-.1c-.5-.5-1.2-.9-1-1.8s-.1-.4-.1-.6-.2-.4-.4-.4-.3.2-.4.4 0 .3-.2.3l-.8-.7c-.4-.2-.5-.4-.4-.9a.9.9 0 0 0-.6-1.1 1.2 1.2 0 0 0-1.5.2 1.4 1.4 0 0 0-.2 1.5c.3.6.7.6 1.2.5s.5-.1.7.2l.6.7c.3.3.2.4-.1.5s-.4.2-.3.5.3.3.5.3h.3c1-.2 1.4.5 1.9 1.1h-.2c-.2.2-.8 0-.7.4s.6.3.9.3h.2c.7-.1 1.1.3 1.4.9s-.8 0-.7.4.5.3.8.4h.2c.7-.2 1 .4 1.4.7a.2.2 0 0 1 0 .3c-.4.4.1.4.3.4s.8.3 1.1.8H592a.5.5 0 0 1-.5-.3 3.3 3.3 0 0 0-.9-1.1.5.5 0 0 0-.6-.1c-.2.2-.2.3-.1.6l.3.7c-.7.1-1.3.1-1.6-.6a3.8 3.8 0 0 0-1.1-1.1c-.3-.3-.7-.7-1.1-.4s.1.8.2 1.2.7.7.5.9-.7.3-1 .4zm-3.6.9a.5.5 0 0 1-.5-.4.5.5 0 0 1 .5-.5c.2.1.4.2.4.5a.4.4 0 0 1-.4.4zm3.2 9.5c0 .1 0 .3-.2.3s-.4-.2-.4-.4.2-.3.3-.3.4.2.3.4zm19 0a.4.4 0 0 1 .4-.4c.2 0 .3 0 .3.2a.5.5 0 0 1-.4.5.3.3 0 0 1-.3-.3zm3.3-10.4c.2 0 .4.3.4.5s-.1.4-.3.5-.5-.2-.6-.5.3-.4.5-.5zm-3.1-9.7c.3.1.5.2.5.5s-.1.3-.3.2a.4.4 0 0 1-.4-.4c0-.1.1-.2.2-.3zm-9.7-3c.3 0 .4.2.5.4s-.2.5-.4.5a.5.5 0 0 1-.5-.5.4.4 0 0 1 .4-.4zm0 25.5a.7.7 0 0 1 .5.4.5.5 0 0 1-.9.1.7.7 0 0 1 .4-.5zm-9.9-21.8c-.1 0-.3 0-.2-.2s.1-.5.4-.5.2.2.2.3a.4.4 0 0 1-.4.4zM615.3 270c-7 0-6.3 10.9.7 10.9s6.3-10.9-.7-10.9zM601.9 363.6c-2.6 0-2.2 4 .3 4s2.2-4-.3-4zM672.1 126.6c-2.5 0-2.2 4 .4 4s2.2-4-.4-4zM135.3 75.3c-2.6 0-2.2 3.9.3 3.9s2.2-3.9-.3-3.9zM179.3 208.4c-2.5 0-2.2 4 .4 4s2.2-4-.4-4zM111.2 197.9c-2.6 0-2.2 4 .3 4s2.2-4-.3-4zM92.2 274.5c-3.8 0-3.3 6 .5 6s3.3-6-.5-6zM261 231.6c-3.8 0-3.3 5.9.5 5.9s3.3-5.9-.5-5.9zM457.1 316.5c-3.9 0-3.3 5.9.5 5.9s3.3-5.9-.5-5.9zM515.8 239.9c-3.8 0-3.3 6 .5 6s3.3-6-.5-6zM535.7 128.3c-4.5 0-3.9 7 .6 7s3.9-7-.6-7zM689 237.9c-4.5 0-3.9 6.9.6 6.9s3.8-6.9-.6-6.9zM29.3 277.7c-3.9 0-3.3 5.9.5 5.9s3.3-5.9-.5-5.9z" class="cls-8"/><path d="M692.4 90.1l1.2 2.5a.5.5 0 0 0 .5.3l2.7.4a.6.6 0 0 1 .3 1l-2 2a.4.4 0 0 0-.1.5l.4 2.7a.5.5 0 0 1-.8.6l-2.5-1.3h-.5l-2.5 1.3a.5.5 0 0 1-.8-.6l.4-2.7a.4.4 0 0 0-.1-.5l-2-2a.6.6 0 0 1 .3-1l2.8-.4c.2 0 .3-.1.4-.3l1.2-2.5a.7.7 0 0 1 1.1 0z" class="cls-5"/></g></svg>