<svg xmlns="http://www.w3.org/2000/svg" viewBox="0 0 750 498.5"><defs><style>.cls-1,.cls-24,.cls-25{fill:none}.cls-2{clip-path:url(#clip-path)}.cls-3{fill:#3e8c84}.cls-4{fill:#efad0a}.cls-5{fill:#ffbc00}.cls-6{fill:#fff}.cls-7{fill:#f8564f}.cls-8{fill:#85b495}.cls-9{fill:#43142b;opacity:.16}.cls-10{fill:#e1142b}.cls-11{fill:#d17818}.cls-12{fill:#e8e8e8}.cls-13{fill:#f99898}.cls-14{fill:#f47f7f}.cls-15{fill:#ffc8c2}.cls-16{fill:#ce5715}.cls-17{fill:#e95f0a}.cls-18{fill:#252c3f}.cls-19{fill:#d1530d}.cls-20{fill:#efac06}.cls-21{fill:#a35b13}.cls-22{fill:#cc8a4a}.cls-23{fill:#f45348}.cls-24,.cls-25{stroke:#fff;stroke-miterlimit:10}.cls-24{stroke-width:2.82px}.cls-25{stroke-width:1.88px}.cls-26{fill:#000515}.cls-27{fill:#f7b7b2}.cls-28{fill:#f2f2f2}.cls-29{fill:#fdfdfc}.cls-30{fill:#f2af06}.cls-31{fill:#ea3e3b}.cls-32,.cls-34{opacity:.68}.cls-33,.cls-34{fill:#feecdb}.cls-35{fill:#feeddc}.cls-36{fill:#2d6861}</style><clipPath id="clip-path"><path d="M0-.7h750v500H0z" class="cls-1"/></clipPath></defs><g id="OBJECTS" class="cls-2"><path d="M622.6 427.9l-4.8 75.7-39.2-2.4-19.1-1.2-48-3.1 4.7-75.7 49.5 3.2 12.5.7 44.4 2.8z" class="cls-3"/><path d="M601.5 406a29.1 29.1 0 0 0-30.7 17 29.1 29.1 0 0 0-9.6-11.8 29.6 29.6 0 0 0-21-5.2c-2.1 4.3-3.3 8.9-2 13.5 12-.5 21.3 1.9 31.1 7.7-.2.7-.3 1.5-.5 2.2l2-1.3 2 1.3a17.4 17.4 0 0 0-.5-2.2 52.9 52.9 0 0 1 31.1-7.7c1.4-4.6.2-9.2-1.9-13.5z" class="cls-4"/><path d="M579.8 500.9l-21.1-1.3 6.9-83.6 13.8.9a811.6 811.6 0 0 1 .4 84z" class="cls-5"/><circle cx="496.8" cy="472.8" r="43.4" class="cls-5" transform="rotate(-61.3 497.084 472.866)"/><path d="M523.7 453.9c-4.4-1.2-5.8 5.6-1.5 6.8s5.8-5.7 1.5-6.8zM504.1 479.4c-4.3-1.2-5.7 5.6-1.4 6.8s5.7-5.6 1.4-6.8zM495.9 459.7c-4.3-1.2-5.7 5.7-1.4 6.8s5.7-5.6 1.4-6.8zM484.2 441c-4.3-1.2-5.7 5.6-1.4 6.8s5.7-5.6 1.4-6.8zM467.6 459.1c-4.4-1.2-5.8 5.7-1.4 6.9s5.7-5.7 1.4-6.9zM465.2 485.1c-4.3-1.2-5.7 5.6-1.4 6.8s5.7-5.6 1.4-6.8zM482.9 492.9c-4.3-1.2-5.7 5.6-1.4 6.8s5.7-5.6 1.4-6.8zM529.7 473.9c-4.3-1.2-5.7 5.6-1.4 6.8s5.7-5.6 1.4-6.8zM522.4 491.7c-4.3-1.2-5.7 5.6-1.4 6.8s5.7-5.6 1.4-6.8zM510.2 441.4c-4.3-1.2-5.7 5.7-1.4 6.8s5.7-5.6 1.4-6.8z" class="cls-6"/><path d="M532.1 421.3a16.6 16.6 0 0 0-11.4.5 18.7 18.7 0 0 0-7.9 5.7 26.8 26.8 0 0 0-3.4-8c-2-3.3-5.1-6.9-8.7-8.4s-8.8.1-9.1 4.9 3.4 8 6.3 10.5a25.4 25.4 0 0 0 10.1 5.4c-8.7 5.9-14.6 15.2-19.3 24.4-5.9 11.5-11.5 23.7-13.2 36.6a52.9 52.9 0 0 0 .9 20.2c.6 2.4 4.1 1.2 3.5-1.2-2.8-11.5-.7-23.5 3.4-34.5 2.2-5.9 4.9-11.7 7.6-17.4a99.9 99.9 0 0 1 9.1-15.5 45.1 45.1 0 0 1 8.4-8.5 129.7 129.7 0 0 0-23.4 45c-1.8 6-3.4 12.1-3.6 18.4s1.2 12.2 4.8 17.1c1.2 1.6 3.8-.1 2.6-1.7-6.7-9.3-3.9-21.6-1-31.8a139 139 0 0 1 13.8-32.2 130.3 130.3 0 0 1 11.3-16.2 1.1 1.1 0 0 0 .2-1.2 40.3 40.3 0 0 0 12.8 2.4c4.1.1 8.5-1.2 10.3-5.2s-.2-7.9-4.1-9.3zm-29.7 4.1a19 19 0 0 1-6.7-7.1c-.5-1.1-.9-2.9.2-3.8s2.5-.6 3.6-.1c2.8 1.3 5.1 4.1 6.7 6.6a25.5 25.5 0 0 1 3.5 7.7 21.9 21.9 0 0 1-7.3-3.3zm31 3.4c-1.1 3.1-4.7 3.8-7.7 3.7a48.3 48.3 0 0 1-11.3-2.3c3.3-4.3 9.2-7.2 14.6-6.3 2.5.3 5.5 1.9 4.4 4.9z" class="cls-7"/><path d="M509.8 430.9a13.3 13.3 0 0 0-17.1.6 14.1 14.1 0 0 0 9.4 3.2c3.4-.1 5.2-1.5 7.7-3.8z" class="cls-8"/><path d="M509.8 430.9a12.8 12.8 0 0 1 8.5 3.3 13.5 13.5 0 0 1 4.3 8.1 14.4 14.4 0 0 1-9.3-3.6c-2.5-2.2-3-4.5-3.5-7.8z" class="cls-8"/><path d="M509.8 430.9a13 13 0 0 1-4.2 16.6 14.2 14.2 0 0 1-1.2-9.9c.8-3.2 2.7-4.8 5.4-6.7z" class="cls-3"/><path d="M145 415.4a193.7 193.7 0 0 1-78.4-11.1 3.4 3.4 0 0 0-3.6 5.5c13.8 14.5 26.5 29.8 39.3 45.2a3.4 3.4 0 0 1-2.7 5.6A239 239 0 0 1 0 434.1V-.7h.6c9.2 67.6 51.4 130 110.7 163.9a3.4 3.4 0 0 1-1.5 6.4A117.5 117.5 0 0 1 50.1 157a3.4 3.4 0 0 0-4.5 4.8c19.6 33.5 49.3 61.4 84.6 77.4a3.4 3.4 0 0 1-1.4 6.4 159.9 159.9 0 0 1-75.5-17.8 3.4 3.4 0 0 0-4.9 3.8c3.2 13.4 10.9 25 19.5 36.3a535.5 535.5 0 0 0 49.6 56.7 3.4 3.4 0 0 1-2.8 5.8A158.8 158.8 0 0 1 42.6 302a3.4 3.4 0 0 0-5 4.2c10.5 22.5 26.2 42 45.1 58.3s41.7 31.1 63.9 44.7a3.4 3.4 0 0 1-1.6 6.2z" class="cls-8"/><path d="M93.3 391.9c-31.1-1.1-63.1-8.2-91.5-21.4a3.4 3.4 0 0 1-1.8-3V73.4c7.1 14.7 22.3 52 33.1 64.3a3.2 3.2 0 0 1-2.9 5.3 85.4 85.4 0 0 1-12-2.5 3.2 3.2 0 0 0-3.8 4.4c10.2 23.5 24.8 46.5 42.8 64.8a3.2 3.2 0 0 1-3.1 5.4c-8.2-2.1-16.6-4.6-24.1-8.4a3.2 3.2 0 0 0-4.4 4.1c14 35.6 34.9 68.5 62.7 94.7a3.2 3.2 0 0 1-2.7 5.5c-17-2.5-34.8-7.5-49.7-15.6a3.2 3.2 0 0 0-4.6 3.7c9.4 35.1 32.6 68.2 63.8 86.8a3.2 3.2 0 0 1-1.8 6z" class="cls-3"/><path d="M39.9 324.9a37.1 37.1 0 0 1 2.9-11.9 16.8 16.8 0 0 1 4.6-6.3c.6 4.1 1.3 8.1 3.1 11.8a20.9 20.9 0 0 0 8.4 9c-.4 3.2-.7 6.4-1.1 9.6-6.4-.8-11-4.7-15.5-8.9-1-1-1.4-2.4-2.4-3.3z" class="cls-7"/><path d="M50.5 318.5c-1.8-3.7-2.5-7.7-3.1-11.8a4.1 4.1 0 0 1 .7-1.1c4-4.2 8.7-7 14.5-7.6a39 39 0 0 0-2 13.6 29.6 29.6 0 0 0 1.5 8.3c-1.6 2.3-2.1 5.1-3.2 7.6a20.9 20.9 0 0 1-8.4-9zM39.6 343.2l-1.3-.8c.5-5.8.7-11.7 1.6-17.5 1 .9 1.4 2.3 2.4 3.3 4.5 4.2 9.1 8.1 15.5 8.9-.4 2.2-.7 4.3-.9 6.5a13 13 0 0 1-.6 4.4c-6.4 1.4-11.8-1.1-16.7-4.8z" class="cls-6"/><path d="M50.8 410.9c-3.1-1.1-6.1-2.5-9.1-3.8s-5.1-4-7.3-6.4c0-3.4-.3-6.9.4-10.3l4.1 2.4a17.3 17.3 0 0 0 14.3 2.1c-.2 5.7-.7 11.4-1.4 17.1 0-.6-.4-.9-1-1.1zM62.6 298c5-1.1 10-.8 15-.2-.9 1.5-1.8 3-2.6 4.5a28.4 28.4 0 0 0-3.4 12.8 4.1 4.1 0 0 1-.3.8 4 4 0 0 0-1.9-.1 12.2 12.2 0 0 0-7.3 4.1 29.6 29.6 0 0 1-1.5-8.3 39 39 0 0 1 2-13.6zM36.3 378.9c-.3-.2-.5-.5-.9-.3-.3-4 .7-7.9.8-12l.2-.2 7.2 4c3.5 1.9 7.3.9 11 .9a24.9 24.9 0 0 1 .1 6.1c-.3 2.6-.2 5.3-.9 7.8-4.3-.2-8.2-1.7-12.1-3.2a22.3 22.3 0 0 1-5.4-3.1zM44 358.8l-6.6-4.4a69.3 69.3 0 0 1 .9-12l1.3.8c4.9 3.7 10.3 6.2 16.7 4.8a2.1 2.1 0 0 1 .2 1.7c-.8 3.6-.6 7.3-.8 10.9a15 15 0 0 1-11.7-1.8z" class="cls-7"/><path d="M96.7 314.7a48.1 48.1 0 0 1 3.3 11.2 22.4 22.4 0 0 0-11.6 9.6 76.8 76.8 0 0 0-4.1 7.4 39.5 39.5 0 0 0-1.8-15.3c2.8-6.5 7.1-11.2 14.2-12.9zM84.3 342.9zM38.9 392.8l-4.1-2.4a116.6 116.6 0 0 1 .6-11.8c.4-.2.6.1.9.3a22.3 22.3 0 0 0 5.4 3.1c3.9 1.5 7.8 3 12.1 3.2.3 3.3-.3 6.4-.6 9.7a17.3 17.3 0 0 1-14.3-2.1z" class="cls-6"/><path d="M100 325.9c.9 1.6.6 3.3.7 5 0 3.8.3 7.6-.9 11.4-.6 2-1.4 3.6-4 3.4-.9 0-1.8.4-2.8.4-3.3 0-6.4-.5-8.7-3.2a76.8 76.8 0 0 1 4.1-7.4 22.4 22.4 0 0 1 11.6-9.6z" class="cls-7"/><path d="M75 302.3c.8-1.5 1.7-3 2.6-4.5a16.6 16.6 0 0 1 3.7.9c3.3 1.3 5.9 3.6 8.6 5.9-.9 1.1-2.3 1.6-3.4 2.4-3.4 2.7-4.9 6.4-6.4 10.2a11.3 11.3 0 0 1-1.3 3.2 14.9 14.9 0 0 0-7.5-4.5 4.1 4.1 0 0 0 .3-.8 28.4 28.4 0 0 1 3.4-12.8zM43.6 370.4l-7.2-4c.3-4 .7-8 1-12l6.6 4.4a15 15 0 0 0 11.7 1.8c-.4 3.6-.7 7.1-1.1 10.7-3.7 0-7.5 1-11-.9zM45.8 419.7c-4.4-.7-8-2.7-11.5-5.2 0-4.6.1-9.2.1-13.8 2.2 2.4 4.2 5 7.3 6.4s6 2.7 9.1 3.8c.6.2 1 .5 1 1.1-.3 2.6-.1 5.1-.6 7.6-1.8-.4-3.6.3-5.4.1z" class="cls-6"/><path d="M80.1 317.2c1.5-3.8 3-7.5 6.4-10.2 1.1-.8 2.5-1.3 3.4-2.4a1.5 1.5 0 0 1 .6.5c2.6 2.9 5.3 5.7 6.2 9.6-7.1 1.7-11.4 6.4-14.2 12.9-.7-2.7-2.3-4.9-3.7-7.2a11.3 11.3 0 0 0 1.3-3.2zM34.2 418.9a32 32 0 0 0 .1-4.4c3.5 2.5 7.1 4.5 11.5 5.2 1.8.2 3.6-.5 5.4-.1s-.5 2.3-1.8 2.8c-4.4 1.4-8.8.9-13.1-.3a2.5 2.5 0 0 1-2.1-3.2z" class="cls-7"/><path d="M43.7 423.2a16.1 16.1 0 0 0 5.7-.8c1.3-.5 2.2-1.3 1.8-2.8s.3-5 .6-7.5c.7-5.8 1.2-11.5 1.4-17.2.3-3.3.9-6.4.6-9.7s.6-5.2.9-7.8a28.1 28.1 0 0 0 .1-2.9 16.7 16.7 0 0 0-.2-3.2c.3-3.6.7-7.1 1.1-10.7s0-7.3.8-10.9a2.1 2.1 0 0 0-.2-1.7 13 13 0 0 0 .6-4.4c.2-2.2.5-4.3.9-6.5s.7-6.4 1.1-9.6 1.6-5.3 3.2-7.6a11.7 11.7 0 0 1 7.3-4.1h.9l1 .2a14.9 14.9 0 0 1 7.5 4.5s-3.2-15.2-18.2-8.8c-12.9 5.5-16.2 88.8-16.9 111.5z" class="cls-9"/><path d="M52.5 506.1H-.9L-11 410h73.6l-10.1 96.1z" class="cls-5"/><path d="M-15.6 401.1h82.7v18.47h-82.7z" class="cls-7"/><path d="M19.7 401.1H31v104.99H19.7z" class="cls-10"/><path d="M29.1 405.8A63 63 0 0 0 .6 386.7c-2.1 3.1-4.3 5.3-6.4 8.3 12 3.7 23.6 5.2 34.9 10.8z" class="cls-10"/><path d="M23 405.8a61.9 61.9 0 0 1 28.5-19.1c2.1 3.1 4.2 5.3 6.3 8.3-12 3.7-23.5 5.2-34.8 10.8z" class="cls-10"/><path d="M116.4 378.2l-.6.8a33 33 0 0 0-2.6 3.9c-.2-1-.2-2.1-.5-3.1s-.1-.5-.3-.5-.2.4-.2.5a20 20 0 0 1-.2 3.4c-.7-2.1-1.4-3.9-3.1-5.3a1.4 1.4 0 0 0-.1 1.1 39 39 0 0 0 1.3 5.7c.2.8.4 1.7 1.3 2.1s.2.2.2.3a40.5 40.5 0 0 1-.9 4.8c-.6-2.1-1.4-4.1-2.1-6.1a19.9 19.9 0 0 0-1.7-3.6c-.1-.2-.3-.5-.6-.4s-.3.3-.3.6a5.5 5.5 0 0 0 .1 1.8 40.1 40.1 0 0 0 3.4 10.1 1.5 1.5 0 0 1 .1 1.6l-1.1 3c-.1.1-.2.1-.2.2-.9-4.4-1.4-8.8-3.1-12.9a1.5 1.5 0 0 0-.7 1.1 11.4 11.4 0 0 0-.1 4.5 51.4 51.4 0 0 0 1.8 10.4 3 3 0 0 1-.2 2.6 8.1 8.1 0 0 1-1.1 2 14.2 14.2 0 0 0-.6-3.1c-1-3.6-2.2-7.2-3.5-10.8-.1-.1-.1-.3-.3-.3s-.2.2-.3.4a9.7 9.7 0 0 0-.1 3.8 54.8 54.8 0 0 0 2.1 8.9 11.7 11.7 0 0 0 1.1 2.8c.4.5.4.8.1 1.2a2.5 2.5 0 0 1-.4.7 14.1 14.1 0 0 1-2.1 3.1 13.8 13.8 0 0 0-.5-3.7c-1-3.5-2-6.9-3.3-10.3-.1-.3-.1-.9-.5-.9s-.1.7-.1 1c0 4.8 1.2 9.5 2.3 14.2.3 1.3.6 2.4-.5 3.6a24.7 24.7 0 0 0-2.4 2.9v-1.6a63.9 63.9 0 0 0-.9-7.5 41.5 41.5 0 0 0-1.5-7c0-.2-.1-.6-.3-.6s-.3.4-.3.7a25.7 25.7 0 0 0-.1 6.8 78.1 78.1 0 0 0 1.4 9.7c.1.5.5 1.1.1 1.6s-1.9 2.3-3 3.5a20 20 0 0 0-.3-2.8c-.7-5-1.6-10.1-1.8-15.1 0-.3 0-.6-.3-.7s-.3.4-.4.6a16 16 0 0 0-1.1 8.1 94.3 94.3 0 0 0 1.7 11.7c.1.2.2.5 0 .7a18.5 18.5 0 0 1-2.8 2.8 3.8 3.8 0 0 1-.1-1q-.2-3.4-.6-6.9c-.5-3.7-.9-7.5-1.1-11.3 0-.1.1-.4-.1-.5s-.4.3-.4.4a11.9 11.9 0 0 0-1 4.9c0 2.1.1 4.2.3 6.2a71.6 71.6 0 0 0 1.2 9.3c.1.3.2.5 0 .7a36.1 36.1 0 0 1-3 2.5 22.5 22.5 0 0 1 0-2.6c.2-4-.1-8-.1-11.9a8.6 8.6 0 0 0-.3-2.8c0-.2 0-.4-.2-.5s-.3.2-.4.3l-.3.7a8.9 8.9 0 0 0-.7 2.8 93.5 93.5 0 0 0 0 14 2.3 2.3 0 0 1-1.1 2.6l-.3.2c-.4-5.3-1.4-10.5-1.3-15.9-.4.2-.4.4-.5.5a26.2 26.2 0 0 0-.2 7.9l.6 8.2c0 .4-.9 1.3-1.3 1.2s-.2-.2-.2-.4a9.7 9.7 0 0 1-.1-1.7c-.1-2.1-.5-4.1-.7-6.2s-.3-3.1-.5-4.6 0-1.2-.4-1.2-.6.8-.6 1.2a23.3 23.3 0 0 0 0 5.9c.2 2.5.5 5.1.7 7.6.1.4 0 .6-.4.8l-1.2.5a38.8 38.8 0 0 0-3.6 1.5c-.4.2-.7.3-.6.8a.9.9 0 0 0 .9.7h1.5a14.3 14.3 0 0 0 5-1.8c.3-.1.6-.3 1-.1a14.7 14.7 0 0 0 5.9 1.1 16.5 16.5 0 0 0 8.9-2.6 8 8 0 0 0 2.3-2.2c.1-.2.2-.4.1-.5s-.3-.1-.5 0a9.8 9.8 0 0 1-1.8.8 19.9 19.9 0 0 1-6.7 2 25.2 25.2 0 0 1-5.5-.1c-.2 0-.4 0-.5-.2s.2-.2.3-.3l2.9-2.3a.7.7 0 0 1 .8-.2 20.6 20.6 0 0 0 8.9-.5 32.8 32.8 0 0 0 7.9-3.5 9.2 9.2 0 0 0 2.5-1.9c.1-.1.3-.3.1-.5s-.4-.1-.5 0a15.4 15.4 0 0 1-1.9.8c-1.6.8-3.3 1.4-5 2.1a41.5 41.5 0 0 1-7.7 2 15.8 15.8 0 0 1-3.1.1c.1-.4.5-.5.8-.7s1-1.3 2-1.2.3-.3.3-.5.2-.6.6-.6a23.8 23.8 0 0 0 11.8-4.6 5.5 5.5 0 0 0 2-2.5c.1-.3.1-.6-.4-.4a17.8 17.8 0 0 0-2.9 1.2 41.4 41.4 0 0 1-4.3 2 14.9 14.9 0 0 1-3.7 1.4l3.2-3.8c.2-.2.3-.3.5-.2a5.9 5.9 0 0 0 2.7-.3 43.2 43.2 0 0 0 9.2-3.7 13.4 13.4 0 0 0 5.2-4.8c.1-.2.5-.5.3-.7s-.6-.1-.8 0a18.3 18.3 0 0 0-3.2 1.4c-2.7 1.6-5.6 2.9-8.4 4.2l-2.5 1.1c-.2.1-.3.2-.4 0s0-.2 0-.3a20.9 20.9 0 0 0 2.3-2.9 1 1 0 0 1 .7-.4 7.5 7.5 0 0 0 3.9-.9c1.4-.8 2.8-1.6 4.1-2.5a31.1 31.1 0 0 0 6.5-5.5 8.9 8.9 0 0 0 1.4-2.5l-.2-.2-14.5 9.9v-.2l.6-1c1.1-1.4 2.2-2.9 3.2-4.4a4 4 0 0 1 2.5-1.9 14.2 14.2 0 0 0 6.5-2.9c1.2-1.1 2.3-2.3 3.4-3.5a22.4 22.4 0 0 0 3.5-5.7c.1-.2.2-.3 0-.4s-.3 0-.4.1a13.3 13.3 0 0 0-1.9 1.4c-2.7 2.2-4.7 5-7.6 6.9a16.8 16.8 0 0 1-3.3 1.6 3.2 3.2 0 0 1 .3-.9c.8-1.6 1.6-3.2 2.3-4.9a.8.8 0 0 1 .8-.7 4.9 4.9 0 0 0 1.7-.6 16.3 16.3 0 0 0 4.9-3.7 28.3 28.3 0 0 0 3.7-4 13 13 0 0 0 1-2.5c0-.2.1-.5-.2-.6s-.3.1-.5.2l-1.4 1.1-6.8 5.7a4.6 4.6 0 0 1-1.6 1.1c.2-1.3.9-2.4 1.1-3.7s.5-1.8 1.6-2a1 1 0 0 0 .5-.4 15.7 15.7 0 0 0 3.1-3.2 38.2 38.2 0 0 0 3.1-4.7c.1-.2.3-.5.1-.8s-.5.1-.7.2-2.7 2-3.9 3.2a36.9 36.9 0 0 0-2.7 2.8c.1-.9.1-1.6.2-2.3s-.1-.6.2-.9a7 7 0 0 0 1.9-2.6c.8-1.4 1.5-3 2.2-4.5a3.1 3.1 0 0 0 .4-2.1 1.4 1.4 0 0 0-.5-.8c-.4-.1-.5.3-.7.5z" class="cls-6"/><path d="M52.7 445s-12.4.2-22.7-21c6.2 22.8-3.2 30.8-3.2 30.8 11.4 4.3 9.8 25.8 9.8 25.8 7.8-.6 17.8 8 17.8 8s1.7-13 8-17.7c0 0-15.4-15.1-9.7-25.9z" class="cls-8"/><path d="M43.8 458.1c-1-2.6-2.1-5.3-3.1-8-.3-.9-1.7-.3-1.4.7 3.5 9.4 7 18.7 10.6 28.1l3 8c.4 1 1.8.3 1.5-.7-3.6-9.3-7-18.7-10.6-28.1z" class="cls-3"/><path d="M105.7 504.4s3.6-11.8 26.9-15c-23.5-1.1-28.2-12.6-28.2-12.6-7.7 9.6-27.6 1.3-27.6 1.3-1.9 7.7-13.2 14.4-13.2 14.4s11.9 5.7 14.5 13.2c0 0 19-10 27.6-1.3z" class="cls-8"/><path d="M95.9 491.9l8.6-.4c1 0 .8-1.5-.2-1.5l-30 1.3-8.6.4c-1 .1-.8 1.7.2 1.6 10-.4 20-.8 30-1.4z" class="cls-3"/><path d="M96.8 450.3s-8.8-8.7-.8-30.9c-11.9 20.4-24.2 19.2-24.2 19.2 4.8 11.2-11.7 25-11.7 25 5.9 5.2 6.6 18.4 6.6 18.4s10.6-7.9 18.4-6.7c0 0-.1-21.5 11.7-25z" class="cls-8"/><path d="M81.2 453.1l3.6-7.8c.4-.9-1-1.4-1.4-.5-4.3 9-8.6 18.1-12.8 27.2l-3.6 7.7c-.5 1 1 1.5 1.4.6 4.3-9.1 8.6-18.1 12.8-27.2z" class="cls-3"/><path d="M85.8 476.2a15.7 15.7 0 0 1-.8 7.8 14.7 14.7 0 0 1-10.8 8.9 14.3 14.3 0 0 1-16.7-11.6 14.1 14.1 0 0 1 3.7-12.5 13.9 13.9 0 0 1 7.9-4.2 14.4 14.4 0 0 1 16.7 11.6z" class="cls-10"/><path d="M85.8 476.2a15.7 15.7 0 0 1-.8 7.8 13.9 13.9 0 0 1-7.9 4.2 14.3 14.3 0 0 1-16.7-11.5 14 14 0 0 1 .8-7.9 13.9 13.9 0 0 1 7.9-4.2 14.4 14.4 0 0 1 16.7 11.6z" class="cls-7"/><path d="M79.3 474.6l-.7-.8-1.4-1.4-.4-.4a10.6 10.6 0 0 0 1.5-1.5c.5-.5-.1-1.1-.6-.7a10.7 10.7 0 0 0-1.6 1.4l-1.8-1.8c-.5-.6-1.3.2-.8.8l1.8 1.9-1.8 1.7c-.4.4.2 1.1.7.7l1.7-1.7.4.4 1.4 1.5.7.8a1.8 1.8 0 0 0 .9.6c.4.2.7-.2.6-.6a1.8 1.8 0 0 0-.6-.9zM60.8 479.5a13.8 13.8 0 0 1 2.3 7.5 14.2 14.2 0 0 1-6.4 12.4 14.4 14.4 0 0 1-19.9-4.1 14.1 14.1 0 0 1-1.5-13 13.9 13.9 0 0 1 5.6-6.9 14.3 14.3 0 0 1 19.9 4.1z" class="cls-10"/><path d="M60.8 479.5a13.8 13.8 0 0 1 2.3 7.5 14.9 14.9 0 0 1-5.5 7 14.4 14.4 0 0 1-22.3-11.7 13.9 13.9 0 0 1 5.6-6.9 14.3 14.3 0 0 1 19.9 4.1z" class="cls-7"/><path d="M54.3 480.6l-1-.5-1.9-.8-.5-.2a15.4 15.4 0 0 0 .8-1.9c.2-.7-.6-1-.9-.4a15.4 15.4 0 0 0-.8 1.9l-2.4-1c-.7-.3-1.1.8-.4 1.1l2.3 1-.9 2.3c-.3.6.6.9.9.4l.9-2.3.5.3 1.9.8 1 .4a1.7 1.7 0 0 0 1 .3c.4 0 .6-.5.4-.9a2 2 0 0 0-.9-.5zM84.8 493a14.7 14.7 0 0 1-4.1 20 14.5 14.5 0 0 1-20-4.2 14.1 14.1 0 0 1-1.4-12.9 14.3 14.3 0 0 1 25.5-2.9z" class="cls-10"/><path d="M84.8 493a14.3 14.3 0 0 1 2.3 7.6 14.3 14.3 0 0 1-25.4 2.8 13.9 13.9 0 0 1-2.4-7.5 14.3 14.3 0 0 1 25.5-2.9z" class="cls-7"/><path d="M78.2 494.1l-.9-.4-1.9-.8-.5-.2a11.9 11.9 0 0 0 .8-2c.2-.6-.6-.9-.9-.3a10.8 10.8 0 0 0-.8 1.9l-2.4-1a.6.6 0 0 0-.5 1l2.4 1.1-.9 2.2a.5.5 0 1 0 .9.4l.9-2.2.5.2 1.9.9 1 .4a2.9 2.9 0 0 0 1 .3.6.6 0 0 0 .4-.9 3.3 3.3 0 0 0-1-.6z" class="cls-10"/><path d="M297.2 360.3a1.8 1.8 0 0 0-2.1-1.2 10.5 10.5 0 0 0-2.4.6l-2.3.6-3.3 1c2.3-3.9 4.5-7.9 6.4-12 .9-2 1.7-4 2.5-6s2-4.4 2.1-6.5a2 2 0 0 0-3.6-1.3c-1.1 1.7-1.5 3.8-2.2 5.6s-1.3 3.5-2.1 5.3l-2.3 5c-.2-.7-.3-1.3-.5-1.9l-.8-2.8a16.6 16.6 0 0 0-1-2.9 1.8 1.8 0 0 0-1.8-.8 1.6 1.6 0 0 0-1.3 1.5 4.7 4.7 0 0 0 .2 1.6l.4 1.3c.2.9.5 1.8.7 2.7s1.1 3.7 1.6 5.5c0 .1.1.3.1.4a.8.8 0 0 0-.2.5 125.2 125.2 0 0 1-12.8 18.6 98 98 0 0 1-8.7 9.5c-1.6 1.5.6 4 2.2 2.5a115.9 115.9 0 0 0 18.7-22.1 1.8 1.8 0 0 0 1.7.5l4.8-1.4 2.4-.7a14.3 14.3 0 0 0 2.7-.9 1.8 1.8 0 0 0 .9-2.2z" class="cls-11"/><path d="M285.3 428.9a71.5 71.5 0 0 1-.4 10.3 19.7 19.7 0 0 1-.3 2.4 77.6 77.6 0 1 1-117-76.7 76.7 76.7 0 0 1 50.3-10.4l2.5.3a88.2 88.2 0 0 1 8.9 2 77.8 77.8 0 0 1 56 72.1z" class="cls-12"/><path d="M285.3 428.9a56.2 56.2 0 0 1-109.7-23.3 57.3 57.3 0 0 1 4.1-15 56.4 56.4 0 0 1 49.6-33.8 77.8 77.8 0 0 1 56 72.1z" class="cls-6"/><path d="M256.1 370.7a18.3 18.3 0 0 1-.7 4.6c-2 6.5-8 11.5-14.4 15.2a64.2 64.2 0 0 1-41.5 7.6c-7.2-1.2-14.2-3.6-19.8-7.5a26.8 26.8 0 0 1-8.8-10.1 32.3 32.3 0 0 1-3.3-15.6 76.7 76.7 0 0 1 50.3-10.4l2.5.3a88.2 88.2 0 0 1 8.9 2 77.8 77.8 0 0 1 26.8 13.9z" class="cls-12"/><path d="M160.6 386.7a86.5 86.5 0 0 1-18.5-24.8l.2-.3 2.9-6a34.6 34.6 0 0 0 2.8-6.2 1.7 1.7 0 0 0-3-1.5 50 50 0 0 0-3.1 6.1l-1.8 3.7a74.7 74.7 0 0 1-3.8-10.3c-.7-2.1-1.2-4.3-1.7-6.5a48.8 48.8 0 0 0-1.6-6.6c-.7-1.8-3.4-1-3.5.7a20.8 20.8 0 0 0 .7 6.1 52.9 52.9 0 0 0 1.3 5.4l-5-1.1-3.2-.7c-1.4-.3-2.9-.8-4.2-.1a1.7 1.7 0 0 0-.5 2.6 5.1 5.1 0 0 0 3.3 1.5l3.4.8 6.6 1.4h.9c.9 2.6 1.9 5.2 3 7.7a93.7 93.7 0 0 0 12.4 20.9 98.3 98.3 0 0 0 9.3 10 2.1 2.1 0 0 0 2.9.2 2.2 2.2 0 0 0 .2-3z" class="cls-11"/><path d="M194.5 375.8a17.1 17.1 0 0 1-2.9 5.5 21.2 21.2 0 0 1-3.3 3.4 32.6 32.6 0 0 1-11.4 5.9c-7.6 2.4-15.8 3-23.3 5.7-12.8 4.6-23.7 14.8-27.6 27.9.1 0 .1.1 0 .2-.6 2.6-1.2 5.3-2 7.9-.2.6-1.2.4-1.1-.2.6-2.5 1.3-4.9 2-7.3l-1.6-.4c-.4 1.9-.8 3.8-1.3 5.6s-1.2.4-1-.2.8-3.9 1.3-5.8l-2.2-.8c-.1.7-.3 1.5-.4 2.2s-.6 2.7-1 4-1 .3-1-.3.6-2.6.9-3.9.3-1.6.5-2.5a14 14 0 0 1-1.7-.9c-.3 1.4-.6 2.7-1 4.1s-1.2.3-1.1-.3.7-3 1.1-4.4l-1.7-1.3-.3 1.2c-.3 1.2-.5 2.5-.9 3.6s-1.1.3-1-.2a35.9 35.9 0 0 1 .8-3.5c.1-.7.3-1.3.4-1.9l-2-1.9a12.9 12.9 0 0 1-.4 1.9c-.2 1.1-.4 2.3-.7 3.4s-1.2.3-1.1-.3.5-2.2.7-3.3l.6-2.7v-.4c0-.1.1-.1.1-.2v-.2a44.1 44.1 0 0 1 26.9-29.1c6.2-2.2 12.9-3 19-5.5s9.2-5.3 11.5-9.8a15.1 15.1 0 0 0 1.3-4.1c5.1.2 10.7.7 15.6 2.5a19.8 19.8 0 0 1 9.3 6.4z" class="cls-13"/><path d="M191.6 381.3a21.2 21.2 0 0 1-3.3 3.4c-3.2.4-7.5-1.9-9.7-3-4-2.1-8.2-5.2-9.9-9.6a2 2 0 0 1-.3-1.1 15.1 15.1 0 0 0 1.3-4.1c5.1.2 10.7.7 15.6 2.5a26.3 26.3 0 0 1 5.6 8.4 8.4 8.4 0 0 1 .7 3.5z" class="cls-14"/><path d="M255.9 367.8a28.1 28.1 0 0 1 .1 2.9 11.6 11.6 0 0 1-6.1 9.9 68 68 0 0 1-50.4 6.3 68.9 68.9 0 0 1-30.6-17.8 30.3 30.3 0 0 1 13.1-26.2c19.2 10.4 43.7 10.4 65 6.2 5.2 4.5 8.4 11.6 8.9 18.7z" class="cls-15"/><path d="M255.9 367.8c-3.8 3.7-8.9 5.9-13.9 7.4-10.4 3.3-21.4 4.4-32.3 4.5-3.6 0-7.8.3-9.6 3.3a6 6 0 0 0-.6 3.9 68.9 68.9 0 0 1-30.6-17.8 30.3 30.3 0 0 1 13.1-26.2c19.2 10.4 43.7 10.4 65 6.2 5.2 4.5 8.4 11.6 8.9 18.7z" class="cls-13"/><path d="M268.8 331.5a50.9 50.9 0 1 1-43.8-57.2l1.7.3a50.9 50.9 0 0 1 42.3 55.3 7.8 7.8 0 0 1-.2 1.6z" class="cls-12"/><path d="M269.3 327.4a45.4 45.4 0 0 1-89.7-13.4 14.2 14.2 0 0 1 .4-2 44.9 44.9 0 0 1 49.1-37.1 49.1 49.1 0 0 1 26.1 13.2 48.1 48.1 0 0 1 14.1 39.3z" class="cls-6"/><path d="M277.3 339.4c-4.7-2.2-13.4-1-18.6.2s-10.5 2.6-15.5 1.2c-1.8-.5-3.5-1.4-5.3-1.8s-5.5-.9-7.1-.1a5.6 5.6 0 0 1-6.9-1.9c-1-1.4-1.1-3.7-.7-5.7a8.8 8.8 0 0 1 .9-2.6c1.7-3.2 6.1-3.9 9.5-3s6.6 2.9 10 4c5.7 1.7 11.9.4 17.8 1.2a26 26 0 0 1 13.9 6.5z" class="cls-16"/><path d="M275.3 337.4c-4.8-1.7-12.5-.6-17.2.6s-10.3 2.5-15.2 1.1c-1.8-.5-3.4-1.3-5.2-1.8s-5.3-.8-6.9 0a5.4 5.4 0 0 1-6.7-1.8 6.6 6.6 0 0 1-.9-4.2 8.8 8.8 0 0 1 .9-2.6c1.7-3.2 6.1-3.9 9.5-3s6.6 2.9 10 4c5.7 1.7 11.9.4 17.8 1.2a26 26 0 0 1 13.9 6.5z" class="cls-17"/><path d="M207.7 317.9a2.7 2.7 0 0 1-3.1 2.3 2.6 2.6 0 0 1-2.3-3 2.8 2.8 0 0 1 3.1-2.4 2.7 2.7 0 0 1 2.3 3.1zM249.8 318a2.7 2.7 0 1 1-2.3-3.1 2.7 2.7 0 0 1 2.3 3.1zM232.2 399.9a2.8 2.8 0 0 1-3.1 2.4 2.7 2.7 0 0 1-2.3-3.1 2.6 2.6 0 0 1 3-2.3 2.7 2.7 0 0 1 2.4 3zM232.8 425a2.7 2.7 0 0 1-3.1 2.3 2.6 2.6 0 0 1-2.3-3 2.7 2.7 0 0 1 3-2.4 2.8 2.8 0 0 1 2.4 3.1zM228.5 457a2.6 2.6 0 0 1-3 2.3 2.8 2.8 0 0 1-2.4-3.1 2.7 2.7 0 1 1 5.4.8zM221.2 482.5a2.7 2.7 0 1 1-2.3-3.1 2.7 2.7 0 0 1 2.3 3.1zM233.1 347.1c-.6.7-1 1.5-1.6 2.2a11.2 11.2 0 0 1-2 1.8 9.5 9.5 0 0 1-4.9 1.6 9.1 9.1 0 0 1-8.4-6c-.5-1.4-2.7-.3-2.1 1.1a11.3 11.3 0 0 0 10.6 7.2 10.7 10.7 0 0 0 6.2-2c1.7-1.3 3.6-3.2 3.8-5.4s-1.1-1.1-1.6-.5z" class="cls-18"/><circle cx="173.5" cy="270.1" r="11.8" class="cls-17"/><path d="M165.3 267.7c-.1-.2-.4-.3-.6-.4l-.6.2c-.2.2-.4.4-.4.6v.7a.4.4 0 0 1-.1.3c0 .2.1.3.1.5a.4.4 0 0 0 .1.3c0 .1.1.2.2.3h.7l.3-.2h.2a.6.6 0 0 0 .1-.4c0-.1.1-.2.1-.3v-1a1.1 1.1 0 0 0-.1-.6zM168.3 274.5a.6.6 0 0 0-.1-.4c0-.1-.1-.2-.1-.4s-.1-.2-.2-.2l-.3-.2h-.9l-.3.4v.2c-.1.2 0 .3 0 .5l.2.3c0 .1.1.2.1.3s.1.1.1.2h1.2l.2-.2a4120842734926.9 4120842734926.9 0 0 0 .2-.6c0 .2-.1.2-.1.1zM171.5 270.2l-.6-.9-.3-.2h-.6l-.4.2v.2a.5.5 0 0 0-.2.4v.2c0 .2.1.3.2.5l.6.8.3.2.3.2h.7c.1-.2.3-.4.3-.6v-.3a.8.8 0 0 0-.3-.7zM176.4 266.2c0-.1-.2-.2-.2-.3l-.3-.3-.6-.6-.3-.2h-.7a.5.5 0 0 0-.4.2.6.6 0 0 0-.3.6v.3a.4.4 0 0 0 .2.4l.6.6c.1.1.2.2.2.3l.5.5.3.2h.7l.3-.2c0-.1.1-.1.1-.2s.1-.2.1-.4a.7.7 0 0 0-.2-.9zM169.8 263.4l-.4-.5-.3-.2h-.3c-.1-.1-.2 0-.3 0h-.3l-.2.2c0 .1-.1.2-.1.4v.2a.5.5 0 0 0 .2.4 2.1 2.1 0 0 0 .4.6l.2.2h.9l.2-.2c.1-.1.1-.2.2-.4v-.2c-.1-.2-.1-.4-.2-.5zM175.2 261.3l-1-.4-1-.3a.8.8 0 0 0-.7 0 1.2 1.2 0 0 0-.5.5.9.9 0 0 0 0 .7c.1.2.3.5.5.5l1 .3 1.3.4.6-.2a.5.5 0 0 0 .3-.5.7.7 0 0 0-.5-1zM173.4 276.5l-1.1-.5-.8-.4a1.1 1.1 0 0 0-.8 0 1.2 1.2 0 0 0-.5.5.9.9 0 0 0 0 .7c.1.3.3.4.6.6l.8.4h.4l.5.2h.7a.8.8 0 0 0 .4-.4.7.7 0 0 0 .1-.6.9.9 0 0 0-.3-.5zM178 273.1l-.2-.3-.3-.3c0-.1-.1-.1-.2-.1l-.4-.3h-.6a.5.5 0 0 0-.4.2.2.2 0 0 0-.2.2l-.2.2v.7l.3.4.4.2c.1.1.2.1.2.2h1.2l.2-.2v-.8zM181.7 269.4c-.2-.8-.5-1.5-.7-2.3a1.2 1.2 0 0 0-.5-.5 1.1 1.1 0 0 0-.8 0 1.2 1.2 0 0 0-.5.5v.3a4.3 4.3 0 0 1 .1.5 20.2 20.2 0 0 1 .7 2.3 1.2 1.2 0 0 0 .5.5 1.1 1.1 0 0 0 .8 0 1.2 1.2 0 0 0 .5-.5v-.3a1.1 1.1 0 0 0-.1-.5z" class="cls-19"/><path d="M173.1 277.4c2.7-4.4 7.1-7.6 11.8-9.7 8.9-3.9 19-4.4 28.6-2.6s18.6 5.6 27.2 10.1a9 9 0 0 1 3.8 2.9 6 6 0 0 1 0 5.8 15.4 15.4 0 0 1-3.7 4.7c-8.6 8.1-18.6 14.6-29.8 18.2a60 60 0 0 1-34.6 1.3c-2.4-.6-5.8-1.8-6.8-4.3s.3-4.1.4-6.2c.4-7.1-.8-13.7 3.1-20.2z" class="cls-5"/><path d="M255.2 288.1A85.2 85.2 0 0 1 180 312a69.3 69.3 0 0 1-7.9-1.7c-1.6-.5-1.6-2.2-1.4-3.9a5.4 5.4 0 0 1 2.4-4.1 78.5 78.5 0 0 0 9.7 0 94.6 94.6 0 0 0 58-23.9 49.3 49.3 0 0 1 14.4 9.7z" class="cls-12"/><path d="M251.9 280.9c1.7 1.9 2.7 3.7 1.8 4.6a85.5 85.5 0 0 1-84.7 23.9c-1.6-.4-1.7-2.2-1.5-3.8a5.4 5.4 0 0 1 2.4-4.2c25.1 1.6 51.1-8.1 69.4-25.4 2.7-2.6 9.1 1.2 12.6 4.9z" class="cls-17"/><path d="M174.4 306.1a25.1 25.1 0 0 1-.4-2.7 1 1 0 0 0-1.1-.8.9.9 0 0 0-.8 1.1l.3 2.7a24.8 24.8 0 0 0 .3 2.7 1 1 0 0 0 1.1.8 1 1 0 0 0 .9-1.1zM187.7 310.1l-.7-1.5-.5-1.4a8.6 8.6 0 0 1 0-3.2.8.8 0 0 0-.8-1 .9.9 0 0 0-1 .8 8.1 8.1 0 0 0 0 3.8 12.1 12.1 0 0 0 .5 1.8 5.4 5.4 0 0 0 1.1 1.8.9.9 0 0 0 1.1 0 .9.9 0 0 0 .3-1.1zM199 308.1l-.6-1.8-1.1-3.4a1 1 0 0 0-1.3-.5 1 1 0 0 0-.5 1.2l1.1 3.5.5 1.7a8.5 8.5 0 0 0 .6 1.7 1 1 0 0 0 1.8-.5 10.5 10.5 0 0 0-.5-1.9zM212.2 306.7c-1.1-3-2.3-5.9-3.5-8.9-.4-1.1-2.1-.4-1.7.8 1.1 2.9 2.2 6 3.4 8.9a1 1 0 0 0 1.8-.8zM226 302.2c-.4-.8-1-1.5-1.5-2.3l-1.4-2.1-2.9-4.3a.9.9 0 0 0-1.4 1.2l2.7 4.2 1.4 2.1 1.4 2.2c.7.8 2.2 0 1.7-1zM237.8 294.3a10.7 10.7 0 0 0-1.4-1.6l-1.5-1.6-2.9-3.1a1 1 0 0 0-1.4-.1 1.1 1.1 0 0 0-.2 1.4l3 3.2 1.4 1.5a9.1 9.1 0 0 0 1.7 1.7.9.9 0 0 0 1.2-.1.9.9 0 0 0 .1-1.3zM244.8 288.3c-1.1-1.2-2.4-2.3-3.7-3.5l-3.7-3.3a1.1 1.1 0 0 0-1.4.2 1.2 1.2 0 0 0 .2 1.4l3.6 3.3c1.2 1.1 2.4 2.3 3.7 3.3a.9.9 0 0 0 1.3-.1.9.9 0 0 0 0-1.3zM251.9 284.9l-2.1-1.8-2.2-1.7-4.3-3.4a1.1 1.1 0 0 0-1.4.2.9.9 0 0 0 .2 1.3l4.3 3.4 2 1.7a18.4 18.4 0 0 0 2.2 1.7 1 1 0 0 0 1.3-1.4z" class="cls-19"/><path d="M184.7 272.6a1.8 1.8 0 0 0-.7-.5l-.5-.3h-1.4a1.2 1.2 0 0 0-.7.5 1 1 0 0 0-.2.7c.1.3.2.6.4.7a.8.8 0 0 0 .8.2h.4c.1.1.2.1.2.2s.1 0 .1.1l.2.2c.1.3.3.5.5.5h.6l.6-.4a.9.9 0 0 0 .1-.7 2.1 2.1 0 0 0-.4-1.2zM191.5 278.4l-.2-.2-.2-.3-.5-.4-.8-1-.7-.4-.9.2a1.1 1.1 0 0 0-.3.7 1 1 0 0 0 .2.9l.9.9a5.7 5.7 0 0 0 1.1 1.1l.7.2.6-.3a.9.9 0 0 0 .3-.6 1.2 1.2 0 0 0-.2-.8zM182.1 279.8l-.3-.5-.7-1.1-.2-.3-.3-.2h-.8a1.2 1.2 0 0 0-.5.5 1.1 1.1 0 0 0 0 .8l.6 1.1.3.6.3.4a.8.8 0 0 0 .4.4l.4.2.6-.2a.9.9 0 0 0 .5-.9zM186.1 286.5a2.7 2.7 0 0 0-.7-.8 1.2 1.2 0 0 0-.7-.5h-.5l-.4.2a1 1 0 0 0-.4.7 1.3 1.3 0 0 0 .2.9l.8.8.3.4.4.4.3.2h.9l.3-.3c.1 0 .2-.1.2-.3a.7.7 0 0 0 .1-.5 2 2 0 0 0-.8-1.2zM178.8 283.2c-.2-.5-.6-1-1.2-.9a1.1 1.1 0 0 0-.9 1.2c.4 1.4.7 2.8 1 4.1a1.6 1.6 0 0 0 .4.7.8.8 0 0 0 .8.2 1.1 1.1 0 0 0 .9-1.2c-.4-1.4-.7-2.7-1-4.1zM176.5 292.5a1 1 0 0 0-.4-.7l-.7-.2c-.2.1-.5.2-.6.4a.7.7 0 0 0-.2.7c.2.8.3 1.6.5 2.4s.2.5.4.6a1 1 0 0 0 .7.2.8.8 0 0 0 .6-.4.6.6 0 0 0 .2-.7zM183.1 295.9l-.4-1a1 1 0 0 0-.6-.5h-.8a1 1 0 0 0-.5.6 1.1 1.1 0 0 0 0 .8l.4 1a.8.8 0 0 1 .2.4 4.3 4.3 0 0 0 .4.7l.2.2h.3a.8.8 0 0 0 .7 0l.4-.3a1.9 1.9 0 0 0 .2-.7 5 5 0 0 0-.5-1.2zM196.4 287.7l-.7-.8-.6-.5-1.2-1.2-.8-.2-.6.4a.9.9 0 0 0-.3.5 1.1 1.1 0 0 0 .2.8l1.2 1.2.6.5a2.7 2.7 0 0 0 .8.7.7.7 0 0 0 .7.2.7.7 0 0 0 .6-.3.9.9 0 0 0 .1-1.3zM192.4 296.2a15.9 15.9 0 0 0-1.3-2.2c-.1-.2-.5-.3-.7-.4l-.8.2a1.1 1.1 0 0 0-.3.7v.3a.8.8 0 0 0 .2.5l1.2 1.9a.8.8 0 0 0 .7.4h.6c.2-.2.4-.3.4-.5s.2-.7 0-.9zM201.9 280.5a.5.5 0 0 0-.3-.5l-2.1-1.8a.8.8 0 0 0-.8-.2 1.3 1.3 0 0 0-.7.4 1.9 1.9 0 0 0-.2.7v.3l.3.4 2.2 1.9a1 1 0 0 0 .7.2.8.8 0 0 0 .7-.4.8.8 0 0 0 .2-.8c.1-.1.1-.2 0-.2zM193.7 270.5a6.1 6.1 0 0 0-1.4-.7l-1.2-.4h-.8a1.2 1.2 0 0 0-.5.5 1 1 0 0 0 .5 1.3l1.3.5 1.4.5a1 1 0 0 0 1-.6 1.1 1.1 0 0 0-.3-1.1zM204.5 270.5l-.9-.5-.7-.3-1.6-.7a1.2 1.2 0 0 0-1.4.6 1.1 1.1 0 0 0 .6 1.4l1.5.7.8.3.7.3h.8l.5-.5a1 1 0 0 0-.3-1.3zM211 278.4l-4.5-2.5a1.4 1.4 0 0 0-.9.1l-.5.5a1.1 1.1 0 0 0 .6 1.4c1.4.8 2.8 1.6 4.3 2.3a1 1 0 0 0 1.3-.5c.2-.4.2-1.1-.3-1.3zM205 290.2a2.6 2.6 0 0 0-.5-.9l-.5-.6-1-1.2a1.3 1.3 0 0 0-.7-.4.8.8 0 0 0-.8.2 1.2 1.2 0 0 0-.2 1.5l1 1.2.5.6.3.3c.1.2.3.3.4.4a.7.7 0 0 0 .6.2c.2 0 .5 0 .6-.2s.3-.2.3-.4a.9.9 0 0 0 0-.7zM214.6 287.7a3.8 3.8 0 0 0-1.4-1.1l-1.4-1-.8-.2-.7.4a3.1 3.1 0 0 0-.2.8 2 2 0 0 0 .4.8l1.4.9.7.5a2.6 2.6 0 0 0 .9.5 1.1 1.1 0 0 0 1.2-.4 1.1 1.1 0 0 0-.1-1.2zM219.3 278.6c-1.1-.9-2.3-1.6-3.4-2.4a1.1 1.1 0 0 0-1.5.2 1.1 1.1 0 0 0 .2 1.6c1.1.7 2.2 1.6 3.4 2.3a1.2 1.2 0 0 0 .8.2.8.8 0 0 0 .7-.4 1.1 1.1 0 0 0-.2-1.5zM215.7 271a.9.9 0 0 0-.6-.6l-1.7-.8-1.7-.8a1 1 0 0 0-1.3.6 1 1 0 0 0 .6 1.3l1.7.8 1.7.8a1 1 0 0 0 1.3-.6.9.9 0 0 0 0-.7zM228.6 276.3a1 1 0 0 0-.6-.5l-2.8-1.4a1.1 1.1 0 0 0-1.4.7 1.1 1.1 0 0 0 .6 1.4l2.8 1.2a1 1 0 0 0 1.4-.5 1.4 1.4 0 0 0 0-.9zM226 270.1l-3.1-1a2.7 2.7 0 0 0-.9 0 1.5 1.5 0 0 0-.5.6 1.4 1.4 0 0 0 0 .9 1 1 0 0 0 .6.5l3.1.9a1.1 1.1 0 0 0 .8 0 .9.9 0 0 0 .6-.6.9.9 0 0 0-.6-1.3zM224.8 284l-.3-.4-.8-.6-.8-.6-.7-.2-.4.2q-.2 0-.3.3a.7.7 0 0 0-.2.7 1 1 0 0 0 .4.7l.8.6.7.6.4.2h.8l.3-.3a1.9 1.9 0 0 0 .2-.8zM236.1 275.6l-1.5-.9-1.4-.7c-.2-.2-.6-.1-.9 0a1.2 1.2 0 0 0-.5.5 1.5 1.5 0 0 0-.1.7 1.3 1.3 0 0 0 .4.7l1.4.7a11.9 11.9 0 0 0 1.5.9 1.1 1.1 0 0 0 1.4-.5 1.2 1.2 0 0 0-.3-1.4zM201.8 266H199a.8.8 0 0 0-.7.2 1 1 0 0 0-.4.7 1 1 0 0 0 .2.7 1 1 0 0 0 .7.4h3a1 1 0 0 0 .8-1 .9.9 0 0 0-.8-1z" class="cls-20"/><path d="M236 327.9a.6.6 0 0 0-.7-.2 3.6 3.6 0 0 0-2.2 3.8.5.5 0 0 0 .5.4c.2 0 .5-.2.5-.4a3.1 3.1 0 0 1 .1-1 983433096703.7 983433096703.7 0 0 0 .2-.4l.3-.4.2-.2h.1l.4-.3a.1.1 0 0 1 .1-.1h.2a.5.5 0 0 0 .3-1.2zM242.6 330.3a.6.6 0 0 0-.7.3l-.7 1.2-.6 1.3a.4.4 0 0 0 .8.4l.8-1.3.6-1.2c.2-.2 0-.6-.2-.7zM244.7 330.8a.5.5 0 0 0-.7.3l-.6 1.7a.4.4 0 0 0 .3.6.5.5 0 0 0 .6-.2 12.2 12.2 0 0 0 .7-1.7.5.5 0 0 0-.3-.7zM252.5 333.4h.4a.6.6 0 0 0 .3-.7.8.8 0 0 0-.8-.3 2 2 0 0 0-.2 3.3h.4l.3-.2a.5.5 0 0 0-.1-.8h-.3c.1.1 0 0 0-.1zM252.8 333z" class="cls-16"/><path d="M224.2 443.4l-51.6 102a3.6 3.6 0 0 1-3.3 1.9 4.5 4.5 0 0 1-1.6-.3l-73.9-37.4a3.6 3.6 0 0 1-1.6-4.9l51.6-102 .4-.6a3.7 3.7 0 0 1 4.5-1l73.9 37.4a3.6 3.6 0 0 1 1.6 4.9z" class="cls-6"/><path d="M223.1 445.5l-2.5 4.9-5-15.4 4.9 2.4 2.6 8.1zM217.5 456.6l-2.5 4.9-10.5-32.1 4.9 2.4 8.1 24.8zM211.9 467.7l-2.5 4.9-16-48.8 4.9 2.4 13.6 41.5zM206.3 478.8l-2.5 4.9-21.5-65.6 4.9 2.5 19.1 58.2zM200.7 489.8l-2.5 4.9-26.9-82.2 4.9 2.5 24.5 74.8zM195.1 500.9l-2.5 4.9-32.4-98.9 4.9 2.5 30 91.5zM189.5 512l-2.5 4.9-37.9-115.6 4.9 2.5L189.5 512zM183.9 523.1l-2.5 4.9-39.7-121.1 2.1-4.2.4-.6zM178.3 534.1l-2.5 4.9-39.7-121 2.5-4.9 39.7 121zM172.7 545.2v.2a3.6 3.6 0 0 1-3.3 1.9l-38.9-118.2 2.5-5zM163.3 544.7l-4.9-2.5-33.5-102.1 2.5-4.9 35.9 109.5zM152.2 539.1l-4.9-2.5-28-85.4 2.5-4.9 30.4 92.8zM141.1 533.5l-4.9-2.5-22.5-68.7 2.5-4.9 24.9 76.1zM130.1 527.9l-5-2.5-17-52 2.5-4.9 19.5 59.4zM119 522.3l-4.9-2.5-11.6-35.4 2.5-4.9 14 42.8zM107.9 516.7l-4.9-2.5-6.1-18.7 2.5-4.9 8.5 26.1z" class="cls-7"/><path d="M199.7 494.9L178 485l-16.6-9.4a40.8 40.8 0 0 0 16.8-6.4c1.5-1 2.9-2.4 2.9-4.3a3.5 3.5 0 0 0-2.6-3.6c-1.9-.5-3.9.2-5.7.8a28.7 28.7 0 0 0-5.7 2.4 32.4 32.4 0 0 0-4.7 2.8c2.1-4.4 4.2-8.7 6.4-13.1s4.6-7.2 7-10.8c4.9-7.6 9.9-15.1 14.9-22.6.5-.6-.5-1.4-1-.7-5.3 7.8-10.6 15.8-15.9 23.7l.5-.9c4-8.2 8-16.4 12.1-24.6.4-.7-.8-1.2-1.2-.5s-.1.2-.1.3a.9.9 0 0 0-1 .4c-7.3 14.2-14.5 28.6-21.8 42.9a4.1 4.1 0 0 1-.5.9l-4.9 7.9a54.5 54.5 0 0 0-1.2-8.1c4.1-7.3 8.3-14.5 12.6-21.7s9.5-15.2 14.5-22.7c.5-.8-.6-1.6-1.1-.9q-13.2 19.9-25.1 40.6l-1.4 2.5c-.6-1.9-1.2-3.8-1.9-5.6a14.8 14.8 0 0 0-2.9-5.2 4.3 4.3 0 0 0-4.4-1.4 4.7 4.7 0 0 0-3.1 3.2c-1.3 3.7 1.3 7.6 3.1 10.6a80 80 0 0 0 4.5 6.8l-.5.9-13.9-7.9-17.4-9.8c-.7-.4-1.2.8-.5 1.2 10.3 6 20.7 11.9 31.1 17.8l-.6 1.1-15.5-7-18.7-8.5c-.7-.4-1.2.8-.5 1.1l34 15.7-1.2 2.2-14.2-7.7-17.6-9.3c-.7-.4-1.1.7-.5 1.1l31.6 17.2c-4.1 7.8-8.1 15.6-11.9 23.4s-7.8 16.3-11.4 24.5a.8.8 0 0 0 1.4.6c0-.1.1-.2.1-.3s.9.8 1.2.2q12.1-20.5 24.6-41l2.4-3.9.3.2-12.1 24c-4.1 8.1-8.3 16.1-12.2 24.2-.4 1 1 1.5 1.5.6 3.8-7 7.3-14.3 10.9-21.5l8.4-16.4c-2.3 4.7-4.5 9.5-6.8 14.2-3.9 8.3-7.7 16.5-11.5 24.8a.8.8 0 1 0 1.4.7c6.9-14.7 13.7-29.4 20.7-44 .5-1.1 1-2.2 1.6-3.3-.7 9 1.4 18.4 6.5 25.8.5.6 1.6 0 1.2-.7a45.5 45.5 0 0 1-5.8-15.5 41.2 41.2 0 0 1-.3-11.1 45.9 45.9 0 0 0 10.7 22.5 33.9 33.9 0 0 0 6.3 5.7.7.7 0 0 0 .9-1.1 80.7 80.7 0 0 1-6.7-6.4 40 40 0 0 1-5.2-7.7 40.9 40.9 0 0 1-4.4-12.1l18.3 9.9 17.5 9.5c.9.5 1.5-.9.6-1.4l-36.8-19.9-.3-2.8c.1-.3.3-.5.4-.8l18.7 8.5 2.6 1.5 17.4 9.9c.8.5 1.5-1 .6-1.5l-4-2.2 6.2 2.8c.8.4 1.4-1 .6-1.4zm-48.4-28.1a36.2 36.2 0 0 1-2.2-3.2 50.9 50.9 0 0 1-3-5 16.3 16.3 0 0 1-2-4.9 4.2 4.2 0 0 1 1.5-4.1c1.5-1.2 3.1-.3 4.1 1a17.2 17.2 0 0 1 2.4 4.9 47.2 47.2 0 0 1 1.8 5.3 3 3 0 0 0 .2 1zM137.9 501c-4.3 7.2-8.6 14.4-12.7 21.7 6.1-13.8 12.7-27.5 19.7-40.9l2.5-4.6 3.8 2c-4.5 7.2-8.9 14.5-13.3 21.8zm14.1-23.1l-3.9-2.1 1.3-2.3 4.2 1.9c-.5.9-1.1 1.7-1.6 2.5zm2.4-3.7l-4.4-2 .6-.9 4 2.2a.1.1 0 0 0 .1.1zm-2.1-6c.7-1.4 1.5-2.8 2.3-4.2a57.1 57.1 0 0 1 .9 8.2c-1.1-1.3-2.2-2.6-3.2-4zm1 10.4l1.5-2.3-1.3 2.4zm5.8-4.3h-.1c.7-1.5 1.5-3 2.2-4.4a39.3 39.3 0 0 1 4.2-2.9 35.7 35.7 0 0 1 9.9-4.1c1.5-.4 4.2-.5 4.4 1.7s-1.8 3.1-3.2 4a43.8 43.8 0 0 1-9.7 4.2 49.9 49.9 0 0 1-7.7 1.5zm-.8 1.7h.5l2.8 1.6z" class="cls-3"/><path d="M750 4.6v434.8a238.7 238.7 0 0 1-91 24 3.5 3.5 0 0 1-2.8-5.6c12.6-15.6 25.1-31.1 38.6-45.8a3.4 3.4 0 0 0-3.7-5.5 193.5 193.5 0 0 1-78.2 12.5 3.4 3.4 0 0 1-1.7-6.3c22-13.9 43.8-28.3 63.2-45.7s33.9-36.4 44.1-59a3.4 3.4 0 0 0-5.1-4.1 158.8 158.8 0 0 1-71.6 29.5 3.4 3.4 0 0 1-2.9-5.7 534.3 534.3 0 0 0 48.7-57.5c8.5-11.5 15.9-23.1 18.9-36.7a3.4 3.4 0 0 0-4.9-3.7 160.7 160.7 0 0 1-75.3 19.1 3.4 3.4 0 0 1-1.4-6.4c35-16.6 64.2-44.9 83.3-78.8 1.7-2.9-1.6-6.2-4.6-4.7a116.9 116.9 0 0 1-59.4 13.6 3.4 3.4 0 0 1-1.6-6.4C700 132.1 740.8 70.9 750 4.6z" class="cls-8"/><path d="M750 418.3a182.5 182.5 0 0 1-35.3 10.9 3.3 3.3 0 0 1-3.5-4.9c11-18 17.1-38 21.1-58.8a3.2 3.2 0 0 0-5.2-3.2 87.1 87.1 0 0 1-30.3 15.1 3.3 3.3 0 0 1-3.7-4.7c8.8-16.7 18.3-33.1 26.2-50.3 2.2-4.8 23.8-45.2 11.1-45.2-3.4 0-10.4 6.5-13.4 8.3-8.1 5.1-16.5 9.8-26 11.7a3.3 3.3 0 0 1-3.2-5.2 254.3 254.3 0 0 0 39.4-72.1 3.3 3.3 0 0 0-4.1-4.2 100.7 100.7 0 0 1-33.6 4.6 3.3 3.3 0 0 1-1.4-6.2c23.2-12.7 49.6-81.3 43.8-78.1-10.6 5.9-19.2 6.2-30.4 5.8a1.2 1.2 0 0 1-.7-2.1c24.8-18.3 39.6-48.8 49.2-78.6z" class="cls-3"/><path d="M701.5 480.6l-14-17.3a39.2 39.2 0 0 1-7.6-18.2l-3.6-25.2a5.7 5.7 0 0 1 3.1-5.9c1.1 11.7 4.4 38.6 11.7 45.2l11.3 13.2a16.7 16.7 0 0 1 1.5 20 13.3 13.3 0 0 0-2.4-11.8zM588.8 405.4a12.2 12.2 0 0 0-9 7.1c2-10.1 14.7-11.1 14.7-11.1l24-3.9a34 34 0 0 0 5.6 2.1zM691.2 388.6l-35.3 5.8a39.4 39.4 0 0 0 4.5-3.6l31.7-5.6a11.9 11.9 0 0 1 10.5 3.1 9.4 9.4 0 0 1 2.7 3.8 11.2 11.2 0 0 1-.8 10.4 11.6 11.6 0 0 0 .1-4.9 11.7 11.7 0 0 0-13.4-9zM671.4 357.6a37.4 37.4 0 0 0-42.9-30.8 42.7 42.7 0 0 0-5.4 1.3 33.2 33.2 0 0 1 9.1-2.7 36.6 36.6 0 0 1 29.4 64.1 37.1 37.1 0 0 0 9.8-31.9z" class="cls-21"/><path d="M589 407l39.4-6.4a.8.8 0 0 0 .7-.8v-.2a.7.7 0 0 0-.7-.6 35.9 35.9 0 1 1 23.2-3.9 1 1 0 0 0-.4.9 1 1 0 0 0 .9.6l39.4-6.5a10 10 0 0 1 11.5 7.7 9.9 9.9 0 0 1-8.1 11.6l-14.1 2.4a7.3 7.3 0 0 0-6.1 8.3l3.6 25.1a40.2 40.2 0 0 0 8 19l13.9 17.4a11.5 11.5 0 0 1-17.7 14.6l-28.8-33.9a3.4 3.4 0 0 0-3.1-1.2 3.3 3.3 0 0 0-2.6 2.1l-17.4 44a9.4 9.4 0 0 1-5.8 5.6 8.9 8.9 0 0 1-7.9-1.6c-5.4-3.9-7.8-12-5.6-18.2l6.5-17.5a41.1 41.1 0 0 0 1.4-20.6l-4.6-25a7.4 7.4 0 0 0-8.4-5.9l-14.2 2.5a10 10 0 0 1-7.5-1.8 10.3 10.3 0 0 1-3.9-6.7 10.1 10.1 0 0 1 8.4-11z" class="cls-22"/><path d="M579 418.2a11.6 11.6 0 0 0 4.5 7.8 12 12 0 0 0 8.8 2.1l14.1-2.3a5.8 5.8 0 0 1 6.6 4.5l4.6 25a38.1 38.1 0 0 1-1.4 19.8l-6.4 17.5c-2.5 6.8.2 15.8 6.1 20a11 11 0 0 0 8.2 2.1l1.2-.2a10.8 10.8 0 0 0 6.8-6.6l17.4-44a1.6 1.6 0 0 1 1.3-1.1 2 2 0 0 1 1.7.6l28.8 34a13 13 0 0 0 18.4 1.5 12.7 12.7 0 0 0 4.2-6.5 13.3 13.3 0 0 0-2.4-11.8l-14-17.3a39.2 39.2 0 0 1-7.6-18.2l-3.6-25.2a5.7 5.7 0 0 1 3.1-5.9 4.9 4.9 0 0 1 1.6-.5l14.2-2.4a11.4 11.4 0 0 0 7.6-4.8 10.8 10.8 0 0 0 1.7-3.8 11.6 11.6 0 0 0 .1-4.9 11.7 11.7 0 0 0-13.4-9l-35.3 5.8a39.4 39.4 0 0 0 4.5-3.6l1.2-1.3a37.4 37.4 0 0 0-33.1-62.7 42.7 42.7 0 0 0-5.4 1.3 37.4 37.4 0 0 0-4.6 69.4 34 34 0 0 0 5.6 2.1l-35.3 5.8a11.7 11.7 0 0 0-9.8 12.8zm13 8.3a10 10 0 0 1-7.5-1.8 10.3 10.3 0 0 1-3.9-6.7 10.1 10.1 0 0 1 8.4-11l39.4-6.4a.8.8 0 0 0 .7-.8v-.2a.7.7 0 0 0-.7-.6 35.9 35.9 0 1 1 23.2-3.9 1 1 0 0 0-.4.9 1 1 0 0 0 .9.6l39.4-6.5a10 10 0 0 1 11.5 7.7 9.9 9.9 0 0 1-8.1 11.6l-14.1 2.4a7.3 7.3 0 0 0-6.1 8.3l3.6 25.1a40.2 40.2 0 0 0 8 19l13.9 17.4a11.5 11.5 0 0 1-17.7 14.6l-28.8-33.9a3.4 3.4 0 0 0-3.1-1.2 3.3 3.3 0 0 0-2.6 2.1l-17.4 44a9.4 9.4 0 0 1-5.8 5.6 8.9 8.9 0 0 1-7.9-1.6c-5.4-3.9-7.8-12-5.6-18.2l6.5-17.5a41.1 41.1 0 0 0 1.4-20.6l-4.6-25a7.4 7.4 0 0 0-8.4-5.9z" class="cls-21"/><path d="M649.4 357.5c4.2-.7 4.6 5.9.5 6.6s-4.6-5.9-.5-6.6zM618.1 362.7c4.2-.7 4.6 5.8.5 6.5s-4.6-5.9-.5-6.5z" class="cls-18"/><path d="M623.8 377.9c0-2.8 2.6-4 4.9-3.9a32.6 32.6 0 0 1 5.3.9 4.8 4.8 0 0 0 3.7-.6c1.6-.8 3-2 4.7-2.6s5.1-.4 5.9 2.2a3.9 3.9 0 0 1 0 2.6c-.7 2.1-2.5 3.5-4.4 4.6h-.1a19.5 19.5 0 0 1-13.4 2.2h-.1c-2.1-.4-4.3-1.1-5.6-2.9a3.8 3.8 0 0 1-.9-2.5z" class="cls-23"/><path d="M623.8 377.9c0-2.8 2.6-4 4.9-3.9a32.6 32.6 0 0 1 5.3.9 4.8 4.8 0 0 0 3.7-.6c1.6-.8 3-2 4.7-2.6s5.1-.4 5.9 2.2a3.9 3.9 0 0 1 0 2.6c-.7 2.1-2.5 3.5-4.4 4.6h-.1a19.5 19.5 0 0 1-13.4 2.2h-.1c-2.1-.4-4.3-1.1-5.6-2.9a3.8 3.8 0 0 1-.9-2.5z" class="cls-24"/><path d="M650 457.7a6.9 6.9 0 0 1 3.7.6 13.4 13.4 0 0 1 5.6 4.1l26.6 32.9s6.6 5 11.3.1.5-10.7.5-10.7L681.9 464c-5.4-5.8-6.1-13.9-6.1-13.9l-4.4-28.1c-.7-2.8-.6-8.7 1.5-10.9s5.3-3.4 8.3-4.1a33.4 33.4 0 0 1 7.7-1.2c3.7-.3 8.6-1.5 9-5.3a4.7 4.7 0 0 0-2.6-4.6c-2.8-1.7-5.9-1.2-8.9-.7l-24.9 3.9c-3.4.5-7.3 2-10.5.6a4.4 4.4 0 0 1-2.1-6.2c1.1-2.3 3.2-3.6 5.1-5.2a31.4 31.4 0 0 0-8.8-54.2s-4.1-3.2-15.8-1.7h-.9c-11.6 2.4-14.5 6.8-14.5 6.8a31.5 31.5 0 0 0 9 54.1c2.3.9 4.8 1.5 6.6 3.3a4.5 4.5 0 0 1-.1 6.6c-2.6 2.3-6.8 2.1-10.1 2.7l-24.8 4.3c-3 .5-6.2 1.1-8.3 3.5a5 5 0 0 0-.9 5.2c1.5 3.5 6.6 3 10.2 2.1a48.3 48.3 0 0 1 7.6-1.3c3.1-.2 6.4-.2 9.2 1.2s4.7 7 4.9 9.9l4.9 28s1.9 7.9-1.3 15.1l-8.4 24.7s-2.1 6.9 3.9 10 10.7-3.7 10.7-3.7l14.7-39.7a13.3 13.3 0 0 1 3.9-5.7 8 8 0 0 1 3.4-1.8z" class="cls-25"/><path d="M635.3 408.1a3.4 3.4 0 0 0-1.3 3.7 3.6 3.6 0 0 0 3.1 2.4 2.2 2.2 0 0 0 1.8-1.4 2 2 0 0 0 .8 1.5 3.3 3.3 0 0 0 3.7.1 3.6 3.6 0 0 0 1.5-3.6 2.6 2.6 0 0 0 1.9-.7 2.4 2.4 0 0 0 .6-2 3.1 3.1 0 0 0-1.1-1.8 11.9 11.9 0 0 0-2.5-1.3 2.1 2.1 0 0 0-.7-2.7 2.2 2.2 0 0 0-2.8.4 2 2 0 0 0-.4 1.5 3.2 3.2 0 0 0-5.4 1.5 2.1 2.1 0 0 0 .8 2.4zM638.4 427.5a3.3 3.3 0 0 0 1.9 6 1.9 1.9 0 0 0 1.8-1.3 1.9 1.9 0 0 0 .8 1.5 3.5 3.5 0 0 0 3.7 0 3.8 3.8 0 0 0 1.5-3.6 2.3 2.3 0 0 0 1.9-.7 2.4 2.4 0 0 0 .6-2 3.1 3.1 0 0 0-1.2-1.8 13.6 13.6 0 0 0-2.4-1.3 2.1 2.1 0 0 0-.7-2.7 2.2 2.2 0 0 0-2.8.5 2.4 2.4 0 0 0-.5 1.4 3.1 3.1 0 0 0-3.1-.8 3.2 3.2 0 0 0-2.2 2.3 2.3 2.3 0 0 0 .7 2.5zM641.6 446.8a3.5 3.5 0 0 0-1.2 3.7 3.6 3.6 0 0 0 3 2.4 2.5 2.5 0 0 0 1.9-1.4 1.7 1.7 0 0 0 .7 1.5 3.5 3.5 0 0 0 3.8.1 4 4 0 0 0 1.5-3.7 2.3 2.3 0 0 0 1.9-.7 2.2 2.2 0 0 0 .6-1.9 3 3 0 0 0-1.2-1.9 13.4 13.4 0 0 0-2.4-1.2 2.3 2.3 0 0 0-.7-2.8 2.3 2.3 0 0 0-2.8.5 1.9 1.9 0 0 0-.5 1.4 3.4 3.4 0 0 0-3.1-.7 3.2 3.2 0 0 0-2.2 2.2 2.3 2.3 0 0 0 .7 2.5z" class="cls-6"/><path d="M375 499.3v-153s-89.5-22.8-87 153zM375 499.3v-153s89.5-22.8 87 153z" class="cls-7"/><path d="M370.5 409.6h8.9v89.69h-8.9z" class="cls-26" transform="rotate(180 375 454.45)"/><circle cx="375" cy="481.7" r="2.2" class="cls-5"/><circle cx="374.8" cy="493.4" r="2.2" class="cls-5"/><path d="M419.3 355.9c25.4 8.3 47.5 27.5 57.7 52.3 5.7 13.9 7.7 29.8 3.7 44.3s-14.3 27.7-28.4 33.3c-17.5 6.9-38.8 1-51.5-12.9 2.1-1.3 4.2-3.7 4.3-6.2 10.9 6.2 26 4.6 35.7-3.3s14.8-20.9 14.2-33.4-6.6-24.5-15.2-33.6-19.8-15.6-31.5-20c.6-8.3 4.7-15 11-20.5z" class="cls-10"/><path d="M407.3 468a8.2 8.2 0 0 1-2.2 7.7 9.4 9.4 0 0 1-7.7 2.4 8.7 8.7 0 0 1-6.6-4.3 7.5 7.5 0 0 1 .1-7.8c3.8-5.6 14.6-5 16.4 2z" class="cls-6"/><path d="M370.5 470.7c-1.9-.8-10-8.1-4-8.9 1-.1 2.8 1.6 3.6 2.1 2.9 2 6 4.6 9.6 5.2l2.1.4a2.2 2.2 0 0 1 1.3 1.5c.3 3.1-11.1.4-12.6-.3z" class="cls-15"/><path d="M373.2 469.8c-1.9-.8-9.9-8.1-4-8.9 1-.2 2.8 1.6 3.6 2.1 2.9 2 6 4.6 9.6 5.2l2.1.4a2.2 2.2 0 0 1 1.3 1.5c.4 3.1-11 .4-12.6-.3z" class="cls-15"/><path d="M382.5 470.8c-3.4-1.7-6.9-3.5-9.5-6.2-.8-.9-2.7-3.9-.4-4.4a3.2 3.2 0 0 1 2.3.6c3.9 2.3 9.6 7.4 14.2 3.4s-1.2-7.7 1.8-11.2a4.8 4.8 0 0 1 5.4-1.2c-.4 4.2-2.6 12.2 2.2 14.8 1.3 0 2.4 1.8 2.3 3.2a4.2 4.2 0 0 1-2.4 3.1 13 13 0 0 1-4 .9c-4.1.5-8.2-1.1-11.9-3z" class="cls-15"/><path d="M330.7 355.9c-25.4 8.3-47.5 27.5-57.7 52.3-5.7 13.9-7.7 29.8-3.7 44.3s14.3 27.7 28.4 33.3c17.5 6.9 38.8 1 51.5-12.9-2.1-1.3-4.2-3.7-4.3-6.2-10.9 6.2-26 4.6-35.7-3.3S294.4 442.5 295 430s6.6-24.5 15.2-33.6 19.8-15.6 31.5-20c-.6-8.3-4.7-15-11-20.5z" class="cls-10"/><path d="M424.2 329.2c0 19.2-22 34.8-49.2 34.8s-49.2-15.6-49.2-34.8a27.1 27.1 0 0 1 2.7-11.6c6.8-13.5 25-23.3 46.5-23.3s38 8.8 45.4 21.4a25.7 25.7 0 0 1 3.8 13.5z" class="cls-15"/><path d="M406.3 326.6zM408.2 326.5a5 5 0 0 0-1.3-2.6 3.8 3.8 0 0 0-2.8-1.1 4.5 4.5 0 0 0-2.9 1.2 4.3 4.3 0 0 0-1.4 3.2 1 1 0 0 0 1 .8.8.8 0 0 0 .8-.9v-.2a.4.4 0 0 0 .1-.3v-.2c.1-.1.1-.1.1-.2a.3.3 0 0 0 .1-.2h.1l.3-.5h.4l.4-.3h1.6l.5.2h.2l.2.2h.1l.3.4v.2l.2.5v.6a.4.4 0 0 1-.1.3 1.9 1.9 0 0 0-.2.8.9.9 0 0 0 .4.9c.2.1.7.2.9 0a1.3 1.3 0 0 0 .6-.7l.3-.8a3.8 3.8 0 0 0 .1-1.3zM345 326.6zM343.1 328l.3.8a1.8 1.8 0 0 0 .5.7 1.2 1.2 0 0 0 1 0 .9.9 0 0 0 .4-.9 1.9 1.9 0 0 0-.2-.8h-.1V326.9l.2-.5v-.2l.3-.4h.1v-.2h.3l.5-.2h.8c0 .1.3.1.1.1h.7l.4.3h.3l.4.5c.1.1.1.2.2.2v.2a.3.3 0 0 1 .1.2v.5a1 1 0 0 0 .9.9.9.9 0 0 0 .9-.8 3.9 3.9 0 0 0-1.3-3.2 4.5 4.5 0 0 0-2.9-1.2 3.7 3.7 0 0 0-2.8 1.1 5 5 0 0 0-1.3 2.6 3.8 3.8 0 0 0 .2 1.2z" class="cls-18"/><path d="M420.4 315.7c-42.1-17.9-81-3-91.9 1.9 6.8-13.5 25-23.3 46.5-23.3s38 8.8 45.4 21.4z" class="cls-27"/><path d="M342.4 315.3a5.7 5.7 0 0 0-2.6 1.3c-1.8 2-.3 4.8 2.4 3.4a8.8 8.8 0 0 1 4.7-1.6c1.5 0 4.3 2.3 5.3-.2s-5.6-4-9.8-2.9zM408.7 315.3a5.7 5.7 0 0 1 2.6 1.3c1.8 2 .2 4.8-2.4 3.4a8.9 8.9 0 0 0-4.8-1.6c-1.4 0-4.3 2.3-5.2-.2s5.6-4 9.8-2.9z" class="cls-6"/><path d="M444.4 368.3c-.2-4.6-2.3-8.7-4.3-12.8a146.9 146.9 0 0 1-6.4-14c-1.6-4.3-3.6-8.8-4.5-13.4s-.8-5.8-2.3-8.8a26.4 26.4 0 0 0-6.9-8.3c-1.9-1.5-4.3-2.2-6.4-3.1a.2.2 0 0 0-.2.4c7.8 7.4 13.2 21.5 7.1 31.1a18.8 18.8 0 0 1-8 6.7 35.8 35.8 0 0 1-14.6 4.3h-7.3a59.9 59.9 0 0 1-7.4-1 22.4 22.4 0 0 1-6.3-2.2 5.1 5.1 0 0 0-1.6-.9h-.2a7 7 0 0 0-1.7.9 21.8 21.8 0 0 1-6.2 2.2 59.9 59.9 0 0 1-7.4 1h-7.3c-5.2-.2-10.1-2-14.7-4.3a19.2 19.2 0 0 1-7.6-6.2 11.4 11.4 0 0 1-1.5-2.9 30 30 0 0 1-1.5-3.2 19 19 0 0 1 2.5-16.2 24.9 24.9 0 0 1 5.9-6.2 29 29 0 0 1 3.6-2.5c.9-.5 2.4-.8 2.6-1.9a21.9 21.9 0 0 0-12.4 3.6c-4.5 3.1-5.2 6.9-6.4 11.9a176.1 176.1 0 0 1-6.3 19 146.9 146.9 0 0 1-6.4 14c-2 4.1-4.1 8.2-4.4 12.8s-.1 11.4 4.4 14.4a16.4 16.4 0 0 0 8.3 2.5 7 7 0 0 0 2.5-.1.3.3 0 0 1 .3.3 5.9 5.9 0 0 1-.5 2.3 37.8 37.8 0 0 0-2 8.7 20.7 20.7 0 0 0 5.9 16.1 44.2 44.2 0 0 0 7.3 5.6 24.8 24.8 0 0 0 5.8 2.5c2.2.7 5.4 1.3 7.6.3s3.2-2.9 4.4-4.6c.1-.2.4-.1.5.1a14.1 14.1 0 0 1 .1 2.9c0 3.4-.4 7.1.3 10.5a20.8 20.8 0 0 0 3.7 7.8 12.2 12.2 0 0 0 6.3 3.6c4.5 1.4 9.7 2.9 13.9-.1l.5-.4.5.4c4.2 3 9.4 1.5 13.9.1a12.2 12.2 0 0 0 6.3-3.6 20.8 20.8 0 0 0 3.7-7.8c.7-3.4.3-7.1.3-10.5a14.1 14.1 0 0 1 .1-2.9c.1-.2.4-.3.5-.1 1.2 1.7 2.6 3.8 4.4 4.6s5.4.4 7.6-.3a24.8 24.8 0 0 0 5.8-2.5 48.8 48.8 0 0 0 7.3-5.6 20.7 20.7 0 0 0 5.9-16.1 37.8 37.8 0 0 0-2-8.7 5.9 5.9 0 0 1-.5-2.3.3.3 0 0 1 .3-.3 7 7 0 0 0 2.5.1 15.8 15.8 0 0 0 8.2-2.5c4.6-3 4.7-9.5 4.4-14.4z" class="cls-6"/><path d="M377.2 344.8c-.6-.1-1.2.1-1.8-.3a2.2 2.2 0 0 1-.9-1.7 18.2 18.2 0 0 1 .3-5.2c.4-3.8.8-7.5 1.3-11.3.1-1.6-2.3-2.1-2.5-.5-.5 4.8-1.1 9.6-1.6 14.3-.3 2-.3 4.1 1.1 5.7s3.4 2.4 4.8.9a1.2 1.2 0 0 0-.7-1.9zM358.4 338.2c0 2.7-5.7 4.9-12.8 4.9s-12.8-2.2-12.8-4.9 5.7-4.9 12.8-4.9 12.8 2.2 12.8 4.9zM391.6 338.2c0 2.7 5.7 4.9 12.8 4.9s12.8-2.2 12.8-4.9-5.7-4.9-12.8-4.9-12.8 2.2-12.8 4.9z" class="cls-13"/><path d="M391.1 464.5h-32.2l-6.1-58.1h44.4l-6.1 58.1z" class="cls-5"/><path d="M350 401.1h49.9v11.15H350z" class="cls-8"/><path d="M371.3 401.1h6.8v63.37h-6.8z" class="cls-7"/><path d="M374.8 403.9a37.5 37.5 0 0 0-17.2-11.5c-1.2 1.8-2.5 3.1-3.8 5 7.3 2.2 14.2 3.1 21 6.5z" class="cls-7"/><path d="M371.2 403.9a37.5 37.5 0 0 1 17.2-11.5c1.2 1.8 2.5 3.1 3.8 5-7.3 2.2-14.2 3.1-21 6.5z" class="cls-7"/><path d="M342.7 468a8.2 8.2 0 0 0 2.2 7.7 9.4 9.4 0 0 0 7.7 2.4 8.7 8.7 0 0 0 6.6-4.3 7.5 7.5 0 0 0-.1-7.8c-3.8-5.6-14.6-5-16.4 2z" class="cls-6"/><path d="M379.5 470.7c1.9-.8 10-8.1 4-8.9-1-.1-2.8 1.6-3.6 2.1-2.9 2-6 4.6-9.6 5.2l-2.1.4a2.2 2.2 0 0 0-1.3 1.5c-.3 3.1 11.1.4 12.6-.3z" class="cls-15"/><path d="M376.8 469.8c1.9-.8 9.9-8.1 4-8.9-1-.2-2.8 1.6-3.6 2.1-2.9 2-6 4.6-9.6 5.2l-2.1.4a2.2 2.2 0 0 0-1.3 1.5c-.4 3.1 11 .4 12.6-.3z" class="cls-15"/><path d="M367.5 470.8c3.4-1.7 6.9-3.5 9.5-6.2.8-.9 2.7-3.9.4-4.4a3.2 3.2 0 0 0-2.3.6c-3.9 2.3-9.6 7.4-14.2 3.4s1.2-7.7-1.8-11.2a4.8 4.8 0 0 0-5.4-1.2c.4 4.2 2.6 12.2-2.2 14.8-1.3 0-2.4 1.8-2.3 3.2a4.2 4.2 0 0 0 2.4 3.1 13 13 0 0 0 4 .9c4.1.5 8.2-1.1 11.9-3z" class="cls-15"/><path d="M417.2 302.3s-41.5-6.9-58.9-5.1l-9.9 1.3q-8.1 1.2-15.9 3c-6.6 1.6-6 1.2-7.4-5-2.1-9.2-7.2-20.1-15.5-25.3-4.2-2.6-16.2-7.8-18.7-.4a24 24 0 0 1 3.1-6.2c3.8-5.5 9.5-9.2 15.7-12.1 32.5-15.4 82.5-9.5 100.1 25.1 3.3 6.5 5.7 17.7 7.4 24.7z" class="cls-7"/><path d="M358.2 297.2l-9.8 1.3q-8.1 1.2-15.9 3c-6.6 1.6-6 1.2-7.4-5-2.1-9.2-7.2-20.1-15.5-25.3-4.2-2.6-16.2-7.8-18.7-.4.5-6.5 5.2-3.2 6.5-5.1 9.2-.5 15.2-.7 24.1 1.9a59.8 59.8 0 0 1 12.6 5.2c4.1 2.3 8.3 3.1 13 4.1s.4 5.2 4.1 7.4c1.7 1 3.7 1.1 5.6 1.4s4 .7 5.4 2 1.7 4 .2 5.2a8.6 8.6 0 0 1-2.8 1.1c-1.5.5-2.2 1.7-1.4 3.2z" class="cls-10"/><path d="M325.5 314.6s45.6-24.8 95.5-3.1a52.3 52.3 0 0 0 .9-6.9 12 12 0 0 0-7.6-12.1c-14.2-5.4-46.6-13.9-85.6 1.7a10.8 10.8 0 0 0-6.7 9.9c0 3.5.7 7.6 3.5 10.5z" class="cls-6"/><circle cx="287.9" cy="270.8" r="10.7" class="cls-6"/><path d="M374.3 275.6c.1 1.8 2.3.5 3.3.5a48.7 48.7 0 0 1 15.5 3.2c.9.3 2.1.4 2.4-.5s-.6-1.2-1.2-1.5l-4.1-2.4c2.2-4.1-10.7-2.4-12.6-1.9s-3.2.7-3.3 2.1z" class="cls-10"/><path d="M342.6 360.8a.9.9 0 0 0-1.1.8c-.6 1.9-1.2 3.9-1.7 5.9a.9.9 0 0 0 .7 1.1 1 1 0 0 0 1.1-.7c.6-2 1.2-4 1.7-6 .2-.5-.3-1-.7-1.1zM335.7 352.3a1.1 1.1 0 0 0-1.5.6 25.9 25.9 0 0 0-1.4 2.9 1.1 1.1 0 1 0 2 1l1.4-3a1.3 1.3 0 0 0-.5-1.5zM324 358.7a1 1 0 0 0-1.3.5c-.5 1-1 1.9-1.4 2.9a1.1 1.1 0 0 0 .5 1.4 1 1 0 0 0 1.3-.5c.5-1 1-2 1.4-3a1 1 0 0 0-.5-1.3zM331 373.1a1.2 1.2 0 0 0-.5-.5.9.9 0 0 0-1.2.4l-.6 1.6a13.4 13.4 0 0 0-.7 1.8 1 1 0 0 0 .6 1 1 1 0 0 0 1.1-.4 11.1 11.1 0 0 0 .7-1.6l.6-1.6a.8.8 0 0 0 0-.7zM333.3 386.6a1 1 0 0 0-.5-.6.9.9 0 0 0-.7 0 1.5 1.5 0 0 0-.6.5l-.8 2.6c-.1.3-.2.5-.1.7a1 1 0 0 0 .5.6 1.1 1.1 0 0 0 .8 0 .8.8 0 0 0 .5-.5l.9-2.6a.8.8 0 0 0 0-.7zM359.3 357.3a1 1 0 0 0-1 .8c-.3 1-.5 2-.7 2.9s.2 1.1.7 1.1a.9.9 0 0 0 1.1-.7c.2-1 .5-2 .7-3a1 1 0 0 0-.8-1.1zM353.1 381.3a1 1 0 0 0-1.3-.3c-.2.2-.4.4-.4.6a11 11 0 0 0-.2 1.8v.4l.2.3a.7.7 0 0 0 .6.4.9.9 0 0 0 .7-.1 1 1 0 0 0 .4-.7c.1-.5.1-1.1.2-1.7a.8.8 0 0 0-.2-.7zM376.2 359.6l-.7-.2a.6.6 0 0 0-.6.3 1.1 1.1 0 0 0-.3.7v2.3a.8.8 0 0 0 .4.6.5.5 0 0 0 .6.2.9.9 0 0 0 .7-.3 1.4 1.4 0 0 0 .2-.7v-2.3c0-.2-.2-.4-.3-.6zM379.1 377.4a.9.9 0 0 0-1-.9 1.1 1.1 0 0 0-.9 1c.1 1.4.1 2.7.3 4.1a.9.9 0 0 0 .9.8 1 1 0 0 0 .9-1c0-1.3-.1-2.7-.2-4zM390.9 357.8c-.1-.5-.6-1-1.1-.9a1.1 1.1 0 0 0-.9 1.1c.1.9.2 1.8.4 2.8a.9.9 0 0 0 .3.6.7.7 0 0 0 .7.2 1 1 0 0 0 .9-1zM402.8 383.7l-.4-2.3a.9.9 0 0 0-.3-.7.8.8 0 0 0-.8-.2.7.7 0 0 0-.6.3 1.1 1.1 0 0 0-.3.8l.4 2.2a.9.9 0 0 0 .3.7.8.8 0 0 0 .8.2.7.7 0 0 0 .6-.3 1.1 1.1 0 0 0 .3-.7zM411.3 361.7l-.9-2.8a1 1 0 0 0-1.3-.6 1.1 1.1 0 0 0-.6 1.3l.9 2.8a1 1 0 0 0 1.3.6 1 1 0 0 0 .6-1.3zM416.4 395.1a.7.7 0 0 0-.4-.5.9.9 0 0 0-.7 0 .8.8 0 0 0-.5.5 1.5 1.5 0 0 0-.1.7l.9 3.8c.1.4.7.6 1.1.6a.9.9 0 0 0 .6-1c-.2-1.3-.6-2.7-.9-4.1zM407.8 406.6a1 1 0 1 0-1.9.1 21.1 21.1 0 0 0 .2 2.6.9.9 0 0 0 .3.7l.7.2a.7.7 0 0 0 .6-.3 1.1 1.1 0 0 0 .3-.7 21.1 21.1 0 0 0-.2-2.6zM340.3 401a1.1 1.1 0 0 0-1.1.8c-.2 1.3-.5 2.6-.7 4a.8.8 0 0 0 .7 1 .9.9 0 0 0 1.1-.7c.2-1.3.4-2.7.7-4a1 1 0 0 0-.7-1.1zM371.3 392.1a.9.9 0 0 0-1.1-.9.8.8 0 0 0-.8 1c0 1 .1 1.9.1 2.8s.6 1 1.1.9a1.1 1.1 0 0 0 .9-1.1zM418.9 356.2a2.4 2.4 0 0 0-.2-.8 6.4 6.4 0 0 1-.2-.7l-.6-1.4a1 1 0 0 0-1.3-.6 1 1 0 0 0-.6 1.3 12.1 12.1 0 0 1 .5 1.4l.3.7.3.7a1.2 1.2 0 0 0 .5.5 1.1 1.1 0 0 0 .8.1 1.2 1.2 0 0 0 .5-.5.8.8 0 0 0 0-.7zM429 377c-.4-1.3-1-2.5-1.5-3.7a.9.9 0 0 0-1.2-.6 1 1 0 0 0-.6 1.3c.5 1.2 1 2.4 1.6 3.6a.8.8 0 0 0 .5.5h.7a.9.9 0 0 0 .5-1.1zM433 359.8l-2.1-4.4-.5-.6a1.1 1.1 0 0 0-1.5 1.3c.8 1.6 1.5 3.1 2.3 4.6a1 1 0 0 0 1.3.3 1 1 0 0 0 .5-1.2zM433 347.1a20 20 0 0 0-1-2.1.8.8 0 0 0-.5-.5.9.9 0 0 0-.7-.1 1.2 1.2 0 0 0-.5.5.9.9 0 0 0 0 .7c.4.8.7 1.6 1.1 2.3s.4.4.6.4h.6a.8.8 0 0 0 .4-1.2zM428.4 332.7l-1.2-2.1a.9.9 0 0 0-.6-.3.9.9 0 0 0-.7.1l-.4.6a2.5 2.5 0 0 0 .2.7l1.2 2.1a1.1 1.1 0 0 0 .6.3.9.9 0 0 0 .7-.1c.1-.2.3-.4.3-.6a.9.9 0 0 0-.1-.7zM406.4 371.5l-1.1-3.3a.9.9 0 0 0-1.2-.6 1 1 0 0 0-.6 1.3c.3 1.1.7 2.2 1 3.3a1 1 0 0 0 1.3.6 1.1 1.1 0 0 0 .6-1.3z" class="cls-28"/><path d="M371.9 359.8c0 2.5 1 5.5 3.2 5.7a3.8 3.8 0 0 0 3.5-2.6 12.2 12.2 0 0 0 .6-4.7c.2-10.1-7.3-6.7-7.3 1.6z" class="cls-7"/><path d="M588.5 447.4s-11.8 3.5-27.4-14.2c12 20.3 5.1 30.4 5.1 30.4 12.1 1.2 16.2 22.4 16.2 22.4 7.4-2.7 19.3 3.1 19.3 3.1s-1.8-13.1 3-19.3c0 0-18.8-10.4-16.2-22.4z" class="cls-8"/><path d="M583.4 462.4l-5-6.9c-.6-.8-1.8.2-1.2 1 5.8 8.1 11.7 16.3 17.6 24.3l5.1 6.9c.6.9 1.8-.1 1.2-1-5.9-8.1-11.7-16.2-17.7-24.3z" class="cls-3"/><path d="M655.3 490.7s.4-12.3 22.1-21.6c-23 5.1-30.6-4.6-30.6-4.6-4.9 11.2-26.3 8.5-26.3 8.5.3 7.9-8.8 17.4-8.8 17.4s12.9 2.3 17.4 8.8c0 0 15.7-14.7 26.2-8.5z" class="cls-8"/><path d="M642.7 481.3l8.1-2.7c.9-.3.3-1.7-.6-1.4-9.5 3-19.1 6-28.6 9.2l-8.1 2.6a.8.8 0 0 0 .6 1.5z" class="cls-3"/><path d="M632.5 440.9s-10.8-6.1-8.9-29.6c-6.2 22.8-18.3 24.9-18.3 24.9 7.6 9.5-4.7 27.2-4.7 27.2 7.1 3.5 11.2 16 11.2 16s8.1-10.4 16-11.3c0 0-5.7-20.8 4.7-27.2z" class="cls-8"/><path d="M618.2 447.7c.5-2.8.9-5.6 1.4-8.5.2-.9-1.3-1.1-1.5-.1-1.8 9.9-3.5 19.7-5.2 29.6-.5 2.8-.9 5.6-1.4 8.4-.2 1 1.4 1.2 1.6.2z" class="cls-3"/><path d="M628.7 468.7a14.4 14.4 0 0 1-6.8 19.2 14.4 14.4 0 0 1-18.9-19.8 13.8 13.8 0 0 1 6.5-6.1 14.4 14.4 0 0 1 19.2 6.7z" class="cls-10"/><path d="M628.7 468.7a14.2 14.2 0 0 1 1.3 7.8 14.5 14.5 0 0 1-6.5 6.2 14.3 14.3 0 0 1-19.1-6.8 15.3 15.3 0 0 1-1.4-7.8 13.8 13.8 0 0 1 6.5-6.1 14.4 14.4 0 0 1 19.2 6.7z" class="cls-7"/><path d="M622.1 468.9l-1-.5-1.7-1.1-.4-.2 1-1.9a.5.5 0 0 0-.8-.5 17.4 17.4 0 0 0-1.1 1.8l-2.2-1.3a.6.6 0 1 0-.6 1l2.2 1.4-1.3 2c-.3.6.6 1.1.9.6l1.2-2.1.5.3 1.7 1.1.9.5a1.8 1.8 0 0 0 1 .4.5.5 0 0 0 .5-.8 2.7 2.7 0 0 0-.8-.7zM605.4 478.5a14.1 14.1 0 0 1 4.3 6.6 14.4 14.4 0 1 1-28.1 2.9 14.8 14.8 0 0 1 3.6-8.2 14.3 14.3 0 0 1 20.2-1.3z" class="cls-10"/><path d="M605.4 478.5a14.1 14.1 0 0 1 4.3 6.6 13.5 13.5 0 0 1-3.5 8.2 14.4 14.4 0 0 1-24.6-5.3 14.8 14.8 0 0 1 3.6-8.2 14.3 14.3 0 0 1 20.2-1.3z" class="cls-7"/><path d="M599.4 481.3l-1-.2-2-.2h-.5a14.9 14.9 0 0 0 .2-2.1.5.5 0 0 0-1-.2l-.3 2.1-2.5-.3a.6.6 0 1 0-.2 1.1l2.6.4-.3 2.4a.5.5 0 0 0 1 .2l.3-2.4h.5l2 .3h1.1a1.4 1.4 0 0 0 1.1 0 .6.6 0 0 0 .1-.9 2 2 0 0 0-1.1-.2zM632.2 485.3a13.4 13.4 0 0 1 4.2 6.6 14.2 14.2 0 0 1-2.9 13.6 14.3 14.3 0 0 1-25.1-10.7 13.5 13.5 0 0 1 3.5-8.2 14.3 14.3 0 0 1 20.3-1.3z" class="cls-10"/><path d="M632.2 485.3a13.4 13.4 0 0 1 4.2 6.6 14 14 0 0 1-3.5 8.2 14.4 14.4 0 0 1-20.3 1.3 13.8 13.8 0 0 1-4.2-6.6 13.5 13.5 0 0 1 3.5-8.2 14.3 14.3 0 0 1 20.3-1.3z" class="cls-7"/><path d="M626.2 488h-1.1l-2-.3h-.5a14.9 14.9 0 0 0 .2-2.1c.1-.6-.8-.7-.9-.1a15.5 15.5 0 0 0-.4 2.1l-2.5-.6c-.7-.1-.9 1.1-.1 1.2l2.5.4-.3 2.4a.5.5 0 0 0 1 .1l.3-2.4h.6l2 .3 1 .2h1.1a.5.5 0 0 0 .1-.9 2.1 2.1 0 0 0-1-.3z" class="cls-10"/><path d="M222.6 458.3s-9.6 9.5-33.7.6c22.1 13.2 20.7 26.7 20.7 26.7 12.3-5.2 27.2 13 27.2 13 5.7-6.4 20.1-7.1 20.1-7.1s-8.5-11.6-7.1-20.1c0 0-23.5-.2-27.2-13.1z" class="cls-8"/><path d="M225.5 475.4l-8.4-4c-1-.5-1.6 1.1-.7 1.5l29.6 14.3 8.5 4c1 .5 1.6-1.1.6-1.6z" class="cls-3"/><path d="M309.3 465.2s-6-12 9.9-32.2c-19.4 16.9-31.7 11.4-31.7 11.4 1.1 13.3-20.8 21.9-20.8 21.9 4.3 7.4.5 21.3.5 21.3s13.6-4.5 21.3-.5c0 0 7.5-22.3 20.8-21.9z" class="cls-8"/><path d="M292.2 462.7c2.2-2.2 4.3-4.5 6.4-6.8.8-.8-.5-1.8-1.2-1-7.6 7.8-15.2 15.7-22.7 23.7-2.2 2.2-4.3 4.5-6.5 6.8-.7.8.6 1.9 1.4 1.1 7.5-7.9 15.1-15.8 22.6-23.8z" class="cls-3"/><path d="M261.4 429.2s-13.4-.2-23.9-23.8c5.9 25.1-4.7 33.4-4.7 33.4 12.4 5.3 9.7 28.6 9.7 28.6 8.6-.3 19.1 9.5 19.1 9.5s2.4-14.2 9.5-19.1c0 0-16.3-17-9.7-28.6z" class="cls-8"/><path d="M251.3 443.2c-1.1-3-2.1-5.9-3.1-8.9-.3-1-1.8-.3-1.5.7 3.4 10.4 6.9 20.8 10.4 31.1l3 8.9c.4 1 2 .3 1.6-.7-3.5-10.4-6.9-20.8-10.4-31.1z" class="cls-3"/><path d="M272.3 457.9a16.6 16.6 0 0 1 5.3 6.8 15.8 15.8 0 0 1-1.9 15.2 15.7 15.7 0 0 1-28.4-9.2 16.1 16.1 0 0 1 3-9.3 15.8 15.8 0 0 1 22-3.5z" class="cls-10"/><path d="M272.3 457.9a16.6 16.6 0 0 1 5.3 6.8 15.7 15.7 0 0 1-25 12.8 16.6 16.6 0 0 1-5.3-6.8 16.1 16.1 0 0 1 3-9.3 15.8 15.8 0 0 1 22-3.5z" class="cls-7"/><path d="M266 461.6h-3.9a17.6 17.6 0 0 0 0-2.3.5.5 0 1 0-1-.1 19.5 19.5 0 0 0-.2 2.3h-2.8c-.8 0-.8 1.2 0 1.3h2.8c0 .9-.1 1.8-.1 2.7s1 .7 1.1 0 .1-1.7.1-2.6h4a2 2 0 0 0 1.1-.2.6.6 0 0 0 .1-1 2.5 2.5 0 0 0-1.2-.1zM255 479.4a15.8 15.8 0 0 1 7.6 4.2A15.7 15.7 0 0 1 248 510a15.7 15.7 0 0 1-11.8-18.8 15.8 15.8 0 0 1 18.8-11.8z" class="cls-10"/><path d="M255 479.4a15.8 15.8 0 0 1 7.6 4.2 15.7 15.7 0 0 1-25.5 17.3 15.2 15.2 0 0 1-.9-9.7 15.8 15.8 0 0 1 18.8-11.8z" class="cls-7"/><path d="M250.7 485.2l-1.1.4-2 .8-.6.2a20.4 20.4 0 0 0-.9-2.2c-.3-.6-1.1-.2-1 .4a14.3 14.3 0 0 0 .8 2.2l-2.6 1c-.8.3-.3 1.4.5 1.2l2.6-1 1 2.5c.2.6 1.2.3 1-.4l-.9-2.5.5-.2 2.1-.7 1.1-.4c.4-.2.8-.3 1-.6a.5.5 0 0 0-.3-.9 2.5 2.5 0 0 0-1.2.2zM284.2 472a15.8 15.8 0 0 1 7.6 4.2 15.7 15.7 0 0 1-14.6 26.4 15.7 15.7 0 0 1-11.8-18.8 15.8 15.8 0 0 1 18.8-11.8z" class="cls-10"/><path d="M284.2 472a15.8 15.8 0 0 1 7.6 4.2 15.7 15.7 0 0 1-25.5 17.3 15.2 15.2 0 0 1-.9-9.7 15.8 15.8 0 0 1 18.8-11.8z" class="cls-7"/><path d="M279.9 477.8l-1.1.4-2.1.8-.5.2a20.4 20.4 0 0 0-.9-2.2c-.3-.6-1.1-.2-1 .4a14.3 14.3 0 0 0 .8 2.2l-2.6 1c-.8.3-.3 1.4.4 1.2l2.7-1a26 26 0 0 0 1 2.5c.2.6 1.2.3 1-.4l-.9-2.5.5-.2 2.1-.7 1.1-.4c.4-.2.8-.3 1-.6a.5.5 0 0 0-.3-.9 2.5 2.5 0 0 0-1.2.2z" class="cls-10"/><path d="M712.1 142.6l-2.3-.6a7.6 7.6 0 0 0 .6-2 6.7 6.7 0 0 0 .2-3.7 2.3 2.3 0 0 0-2.8-1.5 3.2 3.2 0 0 0-2.5 2.3 7 7 0 0 0 .1 3.8l-2.7-.7-2.9 6.7 6.3-.3 5.3 3.3zm-5.5-1.4c-.3-1.3-.7-2.7-.1-4s1.5-1.8 2.5-1.1.6 2.4.4 3.3a17.2 17.2 0 0 1-.7 2.1v.2z" class="cls-5"/><path d="M716.1 205.6h.3l-1.5.3a46.4 46.4 0 0 1-5.1 1.1l-4.8 1.3a59.1 59.1 0 0 0-11.6 4.8l-3.6 2.4c-2.1 1.5-2.1-.3-3-2.1s-1.4-2.5-2.2-3.7a72.2 72.2 0 0 0-10-11.3 39.8 39.8 0 0 1-5.3-4.6l-.4-.4h.1c-7.2-7.7-10.5-17.4-8.1-26.8a26.2 26.2 0 0 1 10.7-15c8.7-6.2 21.5-8.5 34.5-5.2 20.7 5.3 34.1 23 30 39.4-2.4 9.6-10 16.5-20 19.8z" class="cls-23"/><path d="M733.4 176.3a21.8 21.8 0 0 0-3.7-10.5c-1.4-2.1-4.7.1-3.2 2.2a17.4 17.4 0 0 1 2.6 13.1c-.3 1.5-.9 3-1.3 4.5s2.2 3.2 3.3 1.6a17.9 17.9 0 0 0 2.3-10.9zM724 191.4c-2.4 0-2.2 3.7.2 3.7s2.1-3.7-.2-3.7z" class="cls-29"/><path d="M721.1 181.5l-16.8-6.6 10-7.8c.4-.3.2-.7-.3-.5l-11.6 5.1 2.2-17.9c.1-.7-.4-.8-.7-.2l-6.6 16.8-7.8-10.1c-.3-.4-.7-.1-.5.3l5.1 11.7-17.9-2.3c-.7 0-.8.5-.2.8l16.8 6.6-10 7.8c-.4.3-.2.7.3.5l11.6-5.1-2.2 17.9c-.1.6.4.8.7.2l6.6-16.9 7.8 10.1c.3.4.7.2.5-.3l-5.1-11.7 17.9 2.3c.6.1.8-.5.2-.7z" class="cls-6"/><path d="M705 208.4a59.1 59.1 0 0 0-11.6 4.8l-3.6 2.4c-2.1 1.5-2.1-.3-3-2.1s-1.4-2.5-2.2-3.7a72.2 72.2 0 0 0-10-11.3 39.8 39.8 0 0 1-5.3-4.6l-.4-.4h.1c-7.2-7.7-10.5-17.4-8.1-26.8a26.2 26.2 0 0 1 10.7-15c-11.4 20.2-7.1 45 33.4 56.7z" class="cls-10"/><path d="M31.9 78.3l-1.7 1a10.9 10.9 0 0 0-.8-1.5 5.6 5.6 0 0 0-2.1-2.2 2 2 0 0 0-2.5.8 2.4 2.4 0 0 0 0 2.7 5.8 5.8 0 0 0 2.2 2.2l-1.9 1.1 2.4 5.6 3.3-3.8 5-1.3zm-4 2.4a5.1 5.1 0 0 1-2.4-2.2c-.3-.7-.2-1.9.8-2.1s1.7 1 2.1 1.7a6 6 0 0 1 .9 1.5.3.3 0 0 0 .1.2z" class="cls-5"/><path d="M71.3 111.9l.2-.2-.6 1.1c-.7 1.3-1.5 2.5-2.3 3.7l-2 3.5a56.4 56.4 0 0 0-3.8 9.6l-.6 3.5c-.4 2.1-1.4 1.1-3 .6a18.7 18.7 0 0 0-3.4-.8 57.3 57.3 0 0 0-12.4-.6 36.6 36.6 0 0 1-5.7.5h-.4c-8.5-.2-16.2-3.8-20.3-10.5a21.5 21.5 0 0 1-2.8-14.9c1.4-8.7 7.3-17.5 16.6-23.2 15-9.3 33.1-7.1 40.3 4.7 4.2 6.8 4 15.2.2 23z" class="cls-23"/><path d="M63.9 85a17.1 17.1 0 0 0-8.3-3.8 1.6 1.6 0 0 0-.5 3.1 15.4 15.4 0 0 1 6.7 3.2 21.6 21.6 0 0 1 2.5 2.7c.7 1.1 1.3 2.3 1.9 3.4s3.1.5 2.8-1a14.7 14.7 0 0 0-5.1-7.6zM67.4 99.2c-1.3 1.4 1 3.3 2.3 1.9s-.9-3.3-2.3-1.9z" class="cls-29"/><path d="M60 95.2l-13.5 6.2L47.6 91c.1-.5-.3-.5-.4-.1l-3.7 9.7-9.3-11.5c-.3-.4-.7-.2-.5.3l6.2 13.5-10.4-1.2c-.4 0-.5.3-.1.5l9.8 3.6-11.6 9.3c-.4.4-.2.8.3.5l13.5-6.1-1.2 10.4c0 .4.4.5.5.1l3.7-9.8 9.2 11.6c.4.4.8.1.5-.4L48 108l10.4 1.1c.4 0 .5-.3.1-.5l-9.8-3.6 11.6-9.3c.4-.3.1-.7-.3-.5z" class="cls-6"/><path d="M66.6 120a56.4 56.4 0 0 0-3.8 9.6l-.6 3.5c-.4 2.1-1.4 1.1-3 .6a18.7 18.7 0 0 0-3.4-.8 57.3 57.3 0 0 0-12.4-.6 36.6 36.6 0 0 1-5.7.5h-.4c-8.5-.2-16.2-3.8-20.3-10.5a21.5 21.5 0 0 1-2.8-14.9c5.4 18.2 22.4 29.9 52.4 12.6z" class="cls-10"/><path d="M62.1 255.8a6.8 6.8 0 1 1-6.4-7.3 6.8 6.8 0 0 1 6.4 7.3z" class="cls-30"/><path d="M59.2 257a5.4 5.4 0 1 1-10.8-.6 5.4 5.4 0 0 1 10.8.6zM59.3 192.7a5.6 5.6 0 0 1-5.2-5.9 5.6 5.6 0 0 1 5.8-5.2 5.6 5.6 0 0 1 5.2 5.9 5.6 5.6 0 0 1-5.8 5.2z" class="cls-5"/><path d="M88.4 253.4l-64.4-4a4.7 4.7 0 0 1-4.4-4.9 4.7 4.7 0 0 1 4.9-4.4l64.5 4.1a4.5 4.5 0 0 1 4.3 4.9 4.5 4.5 0 0 1-4.9 4.3z" class="cls-5"/><path d="M87.7 244.1l-63.2-4a48 48 0 0 0 7.1-11.8 51.9 51.9 0 0 0 4-15.1c1.8-16 9.1-27 24-26.1s20.8 12.8 20.5 28.9a51.3 51.3 0 0 0 2.5 16.6 49.3 49.3 0 0 0 5.1 11.5z" class="cls-5"/><path d="M87.7 244.1l-63.2-4a48 48 0 0 0 7.1-11.8c11.1 5.9 30 12.5 51 4.3a49.3 49.3 0 0 0 5.1 11.5z" class="cls-30"/><path d="M22.7 235c.7-4.5 3.7-8.4 7.3-11.2s7.9-4.5 12.1-6.4 8.4-3.7 11.9-6.6 6.2-7.1 6.4-11.7c.1-2.2-.3-4.8 1.2-6.5l-2-.9c-.6 5.1-3.7 9.3-7.9 12.2-7.7 5.4-18.3 4.2-26.6 8.7a21.8 21.8 0 0 0-9.1 9.9 41.5 41.5 0 0 0-2.2 6.8 45.5 45.5 0 0 1 7.6-3.9 60 60 0 0 1 1.3 9.6z" class="cls-31"/><path d="M60.1 192h-.2c-26.3 5-33.4-2.1-33.4-2.1-1.6-1.6-2.1-2.8-1.8-3.5a6.1 6.1 0 0 0-.7 1c-6.2 9 1.9 21 12.7 18.9s23.1-9.5 23.1-9.5z" class="cls-23"/><path d="M60.6 194.3l-12.8.4c-.6 0-1.3.2-1.5.7a1 1 0 0 0 .8 1.3 3.5 3.5 0 0 0 1.7-.2h.9a.9.9 0 0 1 .8.5 1 1 0 0 1-.6 1l-1.1.2a1.1 1.1 0 0 0-.9.7.9.9 0 0 0 .9 1.1 3.2 3.2 0 0 0 1.6-.4 100.1 100.1 0 0 1 9.5-4l.7-.4c.2-.2.1-.6 0-.9z" class="cls-31"/><path d="M26.5 189.8s7.1 7.1 33.4 2.1h.2s-33.7-10.3-35.4-5.6c-.3.7.2 1.9 1.8 3.5z" class="cls-10"/><path d="M91.7 239.3c-.1-4.5-2.5-8.8-5.8-12s-7.2-5.5-11.1-7.8-7.9-4.7-11-8.1-5.3-7.8-4.9-12.3c.2-2.3.9-4.9-.4-6.7l2.1-.6a17.7 17.7 0 0 0 6.3 13.1c6.9 6.3 17.7 6.5 25.3 12a21.6 21.6 0 0 1 7.8 10.9 41.1 41.1 0 0 1 1.3 7 59.5 59.5 0 0 0-7.1-4.9 81.6 81.6 0 0 0-2.5 9.4z" class="cls-31"/><path d="M60.1 192h.2c25.4 8.2 33.3 2 33.3 2 1.8-1.4 2.5-2.4 2.3-3.2l.6 1c5 9.8-4.6 20.6-15 17.2s-21.7-12.3-21.7-12.3z" class="cls-23"/><path d="M93.6 194s-7.9 6.2-33.3-2h-.2s34.7-6 35.8-1.1c.2.7-.5 1.7-2.3 3.1z" class="cls-10"/><path d="M73.7 203.5a41.9 41.9 0 0 1-12.4-6.9c.1-.6-.3-1.4-.3-2.1l10.4 2.3 1 .4a1 1 0 0 1 .3 1l-6.9-1.2a1.1 1.1 0 0 1-.2.5l6.7 2.2.6.3a.7.7 0 0 1 .1.6c-.2.4-.7.3-1 .1l-4.1-1.6h-.5a3.8 3.8 0 0 0 2.3 1.5l3.7 1.4.9.5a1 1 0 0 1 .3 1c-.2.4-.5.1-.9 0z" class="cls-31"/><path d="M62.5 191.5h-2.4l-2.3-.2c-2.7 3.9-.5 6.9-.5 6.9l2.4.2h2.4s2.5-2.7.4-6.9z" class="cls-23"/><g class="cls-32"><path d="M80.9 235.8l-.9-1.2-.2-.2-.2-.3-.6-.9-.2-.5v-.2l-.3-1c0-.2-.1-.4-.1-.6 0-.4-.1-.8-.1-1.1a.7.7 0 0 1 .1-.5v-.3a2 2 0 0 0-.2-1.5 2.2 2.2 0 0 0-1.2-.9 2 2 0 0 0-2.4 1.4 11.8 11.8 0 0 0 .3 5.6c.6 1.9 1.7 4 3.4 5a2.1 2.1 0 0 0 2.4-.3 2 2 0 0 0 .2-2.5zM78.3 230.8z" class="cls-33"/></g><path d="M90.4 248.3a3.7 3.7 0 0 0-.5-1.1l-.4-.7-.6-.5h-1.2a1.6 1.6 0 0 0-.8.6 1 1 0 0 0-.3.9 1.5 1.5 0 0 0 .4 1.1h.1v.2l-.3.7v.8l.2.4a1 1 0 0 0 .4.5l.4.2h.4a1.8 1.8 0 0 0 1-.2 2 2 0 0 0 .9-.9 1.9 1.9 0 0 0 .2-.7 4.3 4.3 0 0 0 .1-1.3z" class="cls-34"/><path d="M699.6 330a6.3 6.3 0 0 1-12.3-2.4 6.3 6.3 0 1 1 12.3 2.4z" class="cls-30"/><path d="M696.7 330.8a4.9 4.9 0 0 1-5.8 3.9 5.1 5.1 0 0 1-3.9-5.9 5 5 0 0 1 5.9-3.8 4.9 4.9 0 0 1 3.8 5.8zM704.7 272.6a5.2 5.2 0 0 1-4-6 5 5 0 0 1 6-3.9 4.9 4.9 0 0 1 3.9 5.9 5.1 5.1 0 0 1-5.9 4zM723.6 331.1l-57.8-11.6a4.2 4.2 0 0 1-3.3-5 4.2 4.2 0 0 1 5-3.3l57.8 11.6a4.4 4.4 0 0 1 3.3 5 4.2 4.2 0 0 1-5 3.3z" class="cls-5"/><path d="M724.1 322.6l-56.6-11.4a44.8 44.8 0 0 0 7.8-9.8 47.8 47.8 0 0 0 5.5-13.1c3.6-14.3 11.5-23.4 24.9-20.7s17.2 14.1 15 28.7a47.7 47.7 0 0 0 .2 15.2 45.2 45.2 0 0 0 3.2 11.1z" class="cls-5"/><path d="M724.1 322.6l-56.6-11.4a44.8 44.8 0 0 0 7.8-9.8c9.3 6.7 25.6 15 45.6 10.1a45.2 45.2 0 0 0 3.2 11.1z" class="cls-30"/><path d="M666.5 306.4c1.1-4 4.3-7.2 7.9-9.2a49.9 49.9 0 0 1 11.7-4.3c4-1.2 8.1-2.4 11.6-4.6s6.5-5.6 7.2-9.7c.4-2.1.4-4.5 2-5.8l-1.8-1a16.1 16.1 0 0 1-8.6 10c-7.6 4-17.1 1.6-25.1 4.7a18.6 18.6 0 0 0-9.5 7.8 38.8 38.8 0 0 0-2.8 5.8 50 50 0 0 1 7.4-2.6 66.1 66.1 0 0 1 0 8.9z" class="cls-31"/><path d="M705.5 272h-.2c-24.3 1.3-29.8-6.1-29.8-6.1-1.3-1.6-1.6-2.7-1.3-3.3a2.7 2.7 0 0 0-.7.8c-6.7 7.4-.9 19.2 9.1 18.7s22.1-5.8 22.1-5.8z" class="cls-23"/><path d="M705.7 274.3l-11.6-1.3c-.6 0-1.2 0-1.5.5a1 1 0 0 0 .6 1.2 2.6 2.6 0 0 0 1.5 0l.9.2c.3.1.6.3.6.6s-.3.6-.6.7h-1.1a1.2 1.2 0 0 0-.9.5c-.2.4.2 1 .7 1.1a2 2 0 0 0 1.5-.2c3.2-1.1 5.9-1.6 9.1-2.4.2-.1.5-.1.7-.3a.6.6 0 0 0 .1-.6z" class="cls-31"/><path d="M675.5 265.9s5.5 7.4 29.8 6.1h.3s-29.3-13.5-31.4-9.4c-.3.6 0 1.7 1.3 3.3z" class="cls-10"/><path d="M728.4 318.8c.4-4.2-1.3-8.3-3.8-11.6a48.9 48.9 0 0 0-9.2-8.4c-3.2-2.6-6.5-5.3-8.9-8.7s-3.8-7.7-2.9-11.8c.4-2 1.4-4.2.4-6.1l2-.3a16.6 16.6 0 0 0 4.1 12.7c5.5 6.5 15.2 8 21.4 13.9a19.6 19.6 0 0 1 5.7 10.8 28.4 28.4 0 0 1 .3 6.5 46.9 46.9 0 0 0-5.7-5.2 48.9 48.9 0 0 0-3.4 8.2z" class="cls-31"/><path d="M705.5 272h.2c22 10.6 29.9 5.9 29.9 5.9 1.8-1 2.6-1.9 2.5-2.6l.4 1c3.3 9.4-6.7 18.1-15.7 13.7s-18.1-13.8-18.1-13.8z" class="cls-23"/><path d="M735.6 278s-7.9 4.7-29.9-5.9a.1.1 0 0 0-.1-.1s32.1-1.2 32.5 3.4c.1.7-.7 1.6-2.5 2.6z" class="cls-10"/><path d="M716.5 284.2a39.9 39.9 0 0 1-10.4-7.8c.1-.5-.2-1.4-.1-1.9l9.1 3.3a1.3 1.3 0 0 1 .9.5.6.6 0 0 1 .1.9l-6-1.9c-.1.1-.1.4-.2.4l5.7 2.8a1 1 0 0 1 .5.4.6.6 0 0 1 .1.6c-.2.3-.7.1-1-.1l-3.4-1.9h-.5a3.7 3.7 0 0 0 1.8 1.7l3.2 1.7.8.5a.8.8 0 0 1 .1.9c-.1.3-.5 0-.7-.1z" class="cls-31"/><path d="M707.8 271.9l-2.2-.4-2.1-.4a5.6 5.6 0 0 0-1.2 6.2l2.1.4 2.1.4s2.6-2.1 1.3-6.2z" class="cls-23"/><g class="cls-32"><path d="M719 314.3a12.7 12.7 0 0 0-.7-1.2c-.1-.1-.1-.1-.1-.2a.8.8 0 0 1-.2-.4 3.6 3.6 0 0 1-.4-.9.6.6 0 0 1-.1-.4c-.1-.1-.1-.1-.1-.2a3.4 3.4 0 0 1-.1-1 .9.9 0 0 1-.1-.5c0-.4.1-.7.1-1s.1-.3.1-.5v-.2a3.3 3.3 0 0 0 0-1.4 1.8 1.8 0 0 0-1-.9 1.7 1.7 0 0 0-2.3.9 9.2 9.2 0 0 0-.4 5.2 8.4 8.4 0 0 0 2.4 4.9 1.8 1.8 0 0 0 2.2-.1 1.7 1.7 0 0 0 .7-2.1zM717.2 309.4z" class="cls-33"/></g><path d="M726 326.7a4.3 4.3 0 0 0-.2-1.1l-.4-.6a1.2 1.2 0 0 0-.5-.5l-.5-.2h-.5a2 2 0 0 0-.8.4 1.2 1.2 0 0 0-.4.8 1.1 1.1 0 0 0 .3 1.1v.2a1 1 0 0 0-.4.5v1.2a.8.8 0 0 0 .4.4l.3.3h.3a1.7 1.7 0 0 0 1 0 2.7 2.7 0 0 0 .8-.7 1.6 1.6 0 0 0 .4-.7 3.2 3.2 0 0 0 .2-1.1z" class="cls-34"/><path d="M588.8 324.3c-7.2-40.9-61.5-61.1-92.4-31-12.4 12.2-17.4 30.2-17.9 47.6-.2 10.5 1.2 21.6 6.9 30.4a31.2 31.2 0 0 0 4.6 5.6 9.1 9.1 0 0 1-2.1 1.8 10.3 10.3 0 0 1-10.2 0c2.8 4.2 8.8 7.4 13.9 7.7a16.7 16.7 0 0 0 8.5-1.8 61.3 61.3 0 0 0 11.2 4.6c19.3 5.7 41.4 1.7 57-11.1s24-34 20.5-53.8z" class="cls-7"/><path d="M499.1 335c0 1.9 1 3.2 2.8 3.2s2.5-1 2.6-2.9.3-2.9.4-4.4.7-2.7 3.1-2.2 1.7.7 1.4 1.9a10.4 10.4 0 0 0 .7 5.5 2.1 2.1 0 0 0 1.8 1.3 2 2 0 0 0 2-1.1 5.3 5.3 0 0 0 .3-1.2c.8-4.5 1.7-9.1 1.4-13.7.2-2.1.4-4.1.5-6.1a8.5 8.5 0 0 0-.6-3.6 2.6 2.6 0 0 0-2.9-1.6 2.6 2.6 0 0 0-2.1 2 10 10 0 0 0-.2 1.6c-.2 3.1-.4 6.1-.4 9.2-.1 1.2-.2 1.9-1.7 1.7a5.8 5.8 0 0 0-1.8.2c-.9.3-.9-.3-.9-.9a26.6 26.6 0 0 0-.2-6.9c-.1-1.7-.1-3.5-1-5s-2.8-2-4-.4a3.2 3.2 0 0 0-.6 1.5c-.4 2.1 0 4.1-.1 6.1-.1 5.3-.8 10.5-.5 15.8zM511 348.4c-.2 2.7-.3 5.4-.5 8s-.1 3.4-3.4 3.6c-.7.1-1 0-.9-.7a22.6 22.6 0 0 0 0-5.2 20.5 20.5 0 0 0-1-6.5 2.8 2.8 0 0 0-2.6-1.9c-.9 0-1.9 1.4-2.2 2.6s0 3.6-.1 5.4c-.2 5.5-.7 11-.6 16.4 0 1.9 1 3.1 2.6 3.3a2.3 2.3 0 0 0 2.8-2.4c.1-1.6.4-3.1.6-4.7.3-3.1-.2-2.6 3.2-2.3 1 0 1.4.5 1.2 1.6a10.2 10.2 0 0 0 .7 5.7 1.8 1.8 0 0 0 1.6 1.3c1.3.1 2.2-.5 2.5-2.1.7-4.6 1.7-9.1 1.5-14.5.1-1.2.2-3.1.4-5a8.2 8.2 0 0 0-.6-3.8 2.6 2.6 0 0 0-2.3-1.9c-1.7-.1-2.7.9-2.9 3.1zM536.6 346.4c.1 1.9 1.1 3.1 2.6 3.3a2.4 2.4 0 0 0 2.8-2.5c.2-1.4.4-2.9.5-4.3.5-3.6.1-3.1 3.7-2.6.9.2.9.5.9 1.3a11.5 11.5 0 0 0 .4 5.2c.4 1.2.9 2.1 2.3 2s1.8-1 2-2.1a58.3 58.3 0 0 0 1.4-13.8c.2-1.9.3-3.9.5-5.8a8.7 8.7 0 0 0-.5-3.6 2.5 2.5 0 0 0-2.8-1.9 2.2 2.2 0 0 0-2.2 2.1c-.6 3-.4 6-.7 9-.1 1.1.2 2.4-.3 3.1s-2.1.3-3.1.4-1 0-1-.8a36.5 36.5 0 0 0 .1-4.7 35.1 35.1 0 0 0-.9-6.5 3.1 3.1 0 0 0-2.7-2.3 3.3 3.3 0 0 0-2.3 2.7c-.4 2.5.1 5-.1 7.6a134.9 134.9 0 0 0-.6 14.2zM524.4 347.3a2.6 2.6 0 0 0-1.9 1.3 13.1 13.1 0 0 0-2.1 5.5 5.9 5.9 0 0 1-.5 2.3 30.2 30.2 0 0 0-.7 15.5 4.8 4.8 0 0 0 3.7 3.8 5.3 5.3 0 0 0 5.5-1.8 12.7 12.7 0 0 0 2.3-4.1 38.3 38.3 0 0 0 1.8-10.2 25.8 25.8 0 0 0 0-6.8c-.5-5.1-3.4-6.5-8.1-5.5zm3.4 12a45.6 45.6 0 0 1-2 8.1c-.2.7-.6 1.3-1.4 1.2s-.5-.9-.6-1.4a40 40 0 0 1 0-4.9 57.4 57.4 0 0 1 .9-7.1c.1-.5 0-1.2.7-1.3a1.4 1.4 0 0 1 1.5 1 8.1 8.1 0 0 1 .9 4.4zM526.2 339.9a7.8 7.8 0 0 0 3.4-4.4 30.2 30.2 0 0 0 2.2-11.2 26.6 26.6 0 0 0 0-6.9c-.4-5.1-3.6-6.2-8-5.4a2.9 2.9 0 0 0-1.9 1.3 11.5 11.5 0 0 0-2.1 5.1 27.4 27.4 0 0 1-.8 3.7 29.3 29.3 0 0 0-.4 14.7 5 5 0 0 0 7.6 3.1zm-2.2-20.1c.1-.4.1-1.1.7-1.1a1.3 1.3 0 0 1 1.4.7 6.8 6.8 0 0 1 1 4.4 41.1 41.1 0 0 1-2 8.4c-.3.7-.6 1.3-1.4 1.2s-.5-.9-.5-1.5v-5.3c0-2.3.5-4.3.8-6.8zM563.8 351.4a9 9 0 0 0 3.8-5.3 32 32 0 0 0 1.8-10 27.5 27.5 0 0 0-.4-9.1 3.8 3.8 0 0 0-2.7-3.3c-3.4-.9-6.2-1.1-8 3.3-.7 1.7-.7 3.5-1.3 5.2a29.2 29.2 0 0 0-.7 16.3 4.9 4.9 0 0 0 7.5 2.9zm-2.1-20.1c0-.4 0-1 .6-1.2a1.2 1.2 0 0 1 1.3.7 6.3 6.3 0 0 1 1.2 3.7 37.2 37.2 0 0 1-2.1 9.2 1.4 1.4 0 0 1-.5.8.8.8 0 0 1-1 .3c-.4-.2-.4-.5-.5-.9a33 33 0 0 1 .1-5.4c-.2-2.3.5-4.8.9-7.2z" class="cls-3"/><path d="M502.1 333c0 1.9 1 3.2 2.8 3.2s2.5-1 2.6-2.9.3-2.9.4-4.4.7-2.7 3.1-2.2 1.7.7 1.4 1.9a10.4 10.4 0 0 0 .7 5.5 2.1 2.1 0 0 0 1.8 1.3 2 2 0 0 0 2-1.1 5.3 5.3 0 0 0 .3-1.2c.8-4.5 1.7-9.1 1.4-13.7.2-2.1.4-4.1.5-6.1a8.5 8.5 0 0 0-.6-3.6 2.6 2.6 0 0 0-2.9-1.6 2.6 2.6 0 0 0-2.1 2 10 10 0 0 0-.2 1.6c-.2 3.1-.4 6.1-.4 9.2-.1 1.2-.2 1.9-1.7 1.7a5.8 5.8 0 0 0-1.8.2c-.9.3-.9-.3-.9-.9a26.6 26.6 0 0 0-.2-6.9c-.1-1.7-.1-3.5-1-5s-2.8-2-4-.4a3.2 3.2 0 0 0-.6 1.5c-.4 2.1 0 4.1-.1 6.1-.1 5.3-.8 10.5-.5 15.8zM514 346.4c-.2 2.7-.3 5.4-.5 8s-.1 3.4-3.4 3.6c-.7.1-1 0-.9-.7a22.6 22.6 0 0 0 0-5.2 20.5 20.5 0 0 0-1-6.5 2.8 2.8 0 0 0-2.6-1.9c-.9 0-1.9 1.4-2.2 2.6s0 3.6-.1 5.4c-.2 5.5-.7 11-.6 16.4 0 1.9 1 3.1 2.6 3.3a2.3 2.3 0 0 0 2.8-2.4c.1-1.6.4-3.1.6-4.7.3-3.1-.2-2.6 3.2-2.3 1 0 1.4.5 1.2 1.6a10.2 10.2 0 0 0 .7 5.7 1.8 1.8 0 0 0 1.6 1.3c1.3.1 2.2-.5 2.5-2.1.7-4.6 1.7-9.1 1.5-14.5.1-1.2.2-3.1.4-5a8.2 8.2 0 0 0-.6-3.8 2.6 2.6 0 0 0-2.3-1.9c-1.7-.1-2.7.9-2.9 3.1zM539.6 344.4c.1 1.9 1.1 3.1 2.6 3.3a2.4 2.4 0 0 0 2.8-2.5c.2-1.4.4-2.9.5-4.3.5-3.6.1-3.1 3.7-2.6.9.2.9.5.9 1.3a11.5 11.5 0 0 0 .4 5.2c.4 1.2.9 2.1 2.3 2s1.8-1 2-2.1a58.3 58.3 0 0 0 1.4-13.8c.2-1.9.3-3.9.5-5.8a8.7 8.7 0 0 0-.5-3.6 2.5 2.5 0 0 0-2.8-1.9 2.2 2.2 0 0 0-2.2 2.1c-.6 3-.4 6-.7 9-.1 1.1.2 2.4-.3 3.1s-2.1.3-3.1.4-1 0-1-.8a36.5 36.5 0 0 0 .1-4.7 35.1 35.1 0 0 0-.9-6.5 3.1 3.1 0 0 0-2.7-2.3 3.3 3.3 0 0 0-2.3 2.7c-.4 2.5.1 5-.1 7.6a134.9 134.9 0 0 0-.6 14.2zM527.4 345.3a2.6 2.6 0 0 0-1.9 1.3 13.1 13.1 0 0 0-2.1 5.5 5.9 5.9 0 0 1-.5 2.3 30.2 30.2 0 0 0-.7 15.5 4.8 4.8 0 0 0 3.7 3.8 5.3 5.3 0 0 0 5.5-1.8 12.7 12.7 0 0 0 2.3-4.1 38.3 38.3 0 0 0 1.8-10.2 25.8 25.8 0 0 0 0-6.8c-.5-5.1-3.4-6.5-8.1-5.5zm3.4 12a45.6 45.6 0 0 1-2 8.1c-.2.7-.6 1.3-1.4 1.2s-.5-.9-.6-1.4a40 40 0 0 1 0-4.9 57.4 57.4 0 0 1 .9-7.1c.1-.5 0-1.2.7-1.3a1.4 1.4 0 0 1 1.5 1 8.1 8.1 0 0 1 .9 4.4zM529.2 337.9a7.8 7.8 0 0 0 3.4-4.4 30.2 30.2 0 0 0 2.2-11.2 26.6 26.6 0 0 0 0-6.9c-.4-5.1-3.6-6.2-8-5.4a2.9 2.9 0 0 0-1.9 1.3 11.5 11.5 0 0 0-2.1 5.1 27.4 27.4 0 0 1-.8 3.7 29.3 29.3 0 0 0-.4 14.7 5 5 0 0 0 7.6 3.1zm-2.2-20.1c.1-.4.1-1.1.7-1.1a1.3 1.3 0 0 1 1.4.7 6.8 6.8 0 0 1 1 4.4 41.1 41.1 0 0 1-2 8.4c-.3.7-.6 1.3-1.4 1.2s-.5-.9-.5-1.5v-5.3c0-2.3.5-4.3.8-6.8zM566.8 349.4a9 9 0 0 0 3.8-5.3 32 32 0 0 0 1.8-10 27.5 27.5 0 0 0-.4-9.1 3.8 3.8 0 0 0-2.7-3.3c-3.4-.9-6.2-1.1-8 3.3-.7 1.7-.7 3.5-1.3 5.2a29.2 29.2 0 0 0-.7 16.3 4.9 4.9 0 0 0 7.5 2.9zm-2.1-20.1c0-.4 0-1 .6-1.2a1.2 1.2 0 0 1 1.3.7 6.3 6.3 0 0 1 1.2 3.7 37.2 37.2 0 0 1-2.1 9.2 1.4 1.4 0 0 1-.5.8.8.8 0 0 1-1 .3c-.4-.2-.4-.5-.5-.9a33 33 0 0 1 .1-5.4c-.2-2.3.5-4.8.9-7.2z" class="cls-35"/><path d="M709.6 446s-13.5 3.8-31-16.5c13.5 23.2 5.5 34.7 5.5 34.7 13.8 1.5 18.2 25.6 18.2 25.6 8.5-3 22 3.6 22 3.6s-1.9-14.8 3.6-21.9c0 0-21.4-12-18.3-25.5z" class="cls-3"/><path d="M703.7 463l-5.7-7.9c-.6-.9-2 .2-1.3 1.1 6.6 9.3 13.1 18.6 19.8 27.8l5.7 7.9c.7 1 2.1-.2 1.4-1.1-6.6-9.3-13.2-18.6-19.9-27.8z" class="cls-36"/><path d="M674.2 483.8s-6.3 12.5-33.1 11.7c26.2 5.7 29.3 19.4 29.3 19.4 10.5-9.2 31.2 3.9 31.2 3.9 3.6-8.3 17.5-13.7 17.5-13.7s-12.2-8.6-13.7-17.5c0 0-23.3 7.6-31.2-3.8z" class="cls-3"/><path d="M682.8 499.6l-9.7-1.1c-1.1-.2-1.2 1.6-.1 1.7l33.9 4.3 9.7 1.1c1.2.2 1.3-1.6.1-1.8z" class="cls-36"/><path d="M767 449.3s-11.2-8.5-5.6-34.7C751 439.3 737 439.9 737 439.9c7.2 11.9-9.4 30-9.4 30 7.5 4.9 10.3 19.7 10.3 19.7s10.7-10.5 19.7-10.3c0 0-3.3-24.3 9.4-30z" class="cls-3"/><path d="M749.8 454.8c1-3.1 1.9-6.2 2.9-9.3.3-1.1-1.4-1.5-1.7-.4-3.5 10.8-6.9 21.7-10.3 32.6-.9 3.1-1.9 6.2-2.9 9.3-.3 1.1 1.4 1.5 1.8.4 3.4-10.9 6.9-21.7 10.2-32.6z" class="cls-36"/><path d="M728.9 466.1a13.6 13.6 0 0 1 6 5.1 14.3 14.3 0 0 1 1.3 13.9 14.4 14.4 0 1 1-7.3-19z" class="cls-10"/><path d="M728.9 466.1a13.6 13.6 0 0 1 6 5.1 13.8 13.8 0 0 1-.9 8.9 14.4 14.4 0 0 1-18.9 7.3 15.3 15.3 0 0 1-6.1-5.1 14.4 14.4 0 0 1 19.9-16.2z" class="cls-7"/><path d="M724 470.6h-1.1l-1.9.4h-.6a11.2 11.2 0 0 0-.4-2.1.5.5 0 1 0-.9.1 15.2 15.2 0 0 0 .3 2.1l-2.5.5a.6.6 0 1 0 .2 1.1l2.5-.4c.1.8.3 1.6.4 2.4a.5.5 0 0 0 1-.2c-.1-.8-.3-1.6-.4-2.3h.6l2-.3 1-.2a2.9 2.9 0 0 0 1-.3.5.5 0 0 0-.1-.9 1.4 1.4 0 0 0-1.1.1zM717.6 488.6a14.7 14.7 0 0 1 7.5 2.3 14.4 14.4 0 0 1-7.9 26.5 14.7 14.7 0 0 1-11.6-6.1 13.8 13.8 0 0 1-2.6-8.5 14.4 14.4 0 0 1 14.6-14.2z" class="cls-10"/><path d="M717.6 488.6a9 9 0 0 1 10.2 10.8 14.4 14.4 0 0 1-14.6 14.2 14.2 14.2 0 0 1-7.6-2.3 13.8 13.8 0 0 1-2.6-8.5 14.4 14.4 0 0 1 14.6-14.2z" class="cls-7"/><path d="M714.8 494.6l-.9.6-1.7 1.1-.4.3-1.2-1.8c-.4-.5-1.1 0-.8.6a17.4 17.4 0 0 0 1.1 1.8l-2.2 1.3c-.6.4 0 1.4.6 1l2.2-1.3c.5.6.9 1.3 1.4 2s1.2 0 .8-.6l-1.3-2 .5-.3 1.7-1 .9-.6a2.7 2.7 0 0 0 .8-.7.5.5 0 0 0-.5-.8c-.4 0-.7.3-1 .4zM742.3 476.4a14.4 14.4 0 1 1-.4 28.8 14.7 14.7 0 0 1-11.6-6.1 14.5 14.5 0 0 1-2.6-8.5 14.3 14.3 0 0 1 14.6-14.2z" class="cls-10"/><path d="M742.3 476.4a14.4 14.4 0 0 1 7.5 2.3 13.9 13.9 0 0 1 2.7 8.5 14.4 14.4 0 0 1-14.6 14.2 15.1 15.1 0 0 1-7.6-2.3 14.5 14.5 0 0 1-2.6-8.5 14.3 14.3 0 0 1 14.6-14.2z" class="cls-7"/><path d="M739.5 482.4l-.9.6-1.7 1.1-.4.3-1.2-1.8a.5.5 0 0 0-.8.5 7.8 7.8 0 0 0 1.1 1.8 16.4 16.4 0 0 1-2.2 1.4c-.6.4 0 1.4.7 1l2.2-1.4a23.9 23.9 0 0 0 1.3 2.1c.3.5 1.2 0 .8-.6l-1.3-2 .5-.3 1.7-1 .9-.6a2.7 2.7 0 0 0 .8-.7.5.5 0 0 0-.5-.8 2.1 2.1 0 0 0-1 .4z" class="cls-10"/><path d="M589.6 461.1l-1 .2a39.6 39.6 0 0 0-4.6 1.3 15.3 15.3 0 0 0 1.7-2.7c.1-.2.3-.4.1-.5s-.3.1-.4.2a18.1 18.1 0 0 1-2.4 2.4 9.8 9.8 0 0 0 1.1-6 1.2 1.2 0 0 0-.7.7 26.1 26.1 0 0 0-2.8 5.2 2.8 2.8 0 0 0-.4 2.5c.1.1 0 .2-.1.3a27.9 27.9 0 0 1-3.8 3c.9-2 1.6-4 2.4-6a16.6 16.6 0 0 0 1.1-3.8.6.6 0 0 0-.1-.7c-.3-.2-.5.1-.7.2a8.8 8.8 0 0 0-1.2 1.5 43.9 43.9 0 0 0-4 9.8 1.8 1.8 0 0 1-1 1.4l-2.8 1.4h-.3c2.2-3.8 4.8-7.4 6.2-11.7-.6-.1-.9.2-1.3.4a10.5 10.5 0 0 0-3 3.3 55.6 55.6 0 0 0-5.5 9 2.9 2.9 0 0 1-1.8 1.8 7.2 7.2 0 0 1-2.2.8 9.6 9.6 0 0 0 1.6-2.7c1.6-3.4 3.1-6.9 4.4-10.4.1-.2.2-.3 0-.4s-.3 0-.4 0a9.9 9.9 0 0 0-2.6 2.8 49.2 49.2 0 0 0-4.3 8.2 9.4 9.4 0 0 0-1 2.8.9.9 0 0 1-.7 1l-.7.2a32.9 32.9 0 0 1-3.7 1 19.5 19.5 0 0 0 2.1-3.2c1.5-3.3 3-6.5 4.2-9.9.2-.3.6-.7.2-1s-.5.4-.7.6a64.7 64.7 0 0 0-7.6 12.3c-.6 1.2-1.1 2.2-2.7 2.3a29.6 29.6 0 0 0-3.7.7l1-1.3a68.2 68.2 0 0 0 4.3-6.2 62.1 62.1 0 0 0 3.5-6.2c.1-.2.3-.5 0-.7s-.4.2-.6.3a31 31 0 0 0-4.5 5.1 60.2 60.2 0 0 0-5.3 8.2c-.3.5-.4 1.2-1.1 1.3l-4.4.7 1.6-2.3a120.8 120.8 0 0 1 8.5-12.6c.2-.2.4-.5.2-.7s-.4.1-.6.2a15.9 15.9 0 0 0-6.2 5.3 88.9 88.9 0 0 0-6.4 10c-.1.2-.2.5-.5.5a25.6 25.6 0 0 1-3.9.3 2.6 2.6 0 0 1 .5-.9 52.3 52.3 0 0 0 4.1-5.5c2.1-3.2 4.3-6.3 6.6-9.2.1-.2.4-.3.3-.5s-.5-.1-.6 0a12.3 12.3 0 0 0-4 3.1 45.7 45.7 0 0 0-3.8 4.9 70.5 70.5 0 0 0-5.2 7.8c-.1.2-.2.4-.5.4s-2.6.1-3.9 0a17.7 17.7 0 0 1 1.7-2c2.8-2.9 5.2-6 7.8-9a12.5 12.5 0 0 0 1.6-2.4c.1-.1.3-.2.1-.4h-.5l-.7.3a8.7 8.7 0 0 0-2.2 1.7 76.8 76.8 0 0 0-9.3 10.5c-.7.9-1.3 1.6-2.5 1.3h-.3c3.2-4.2 5.8-8.8 9.4-12.8-.4-.1-.6 0-.7.1a24.8 24.8 0 0 0-5.4 5.8c-1.7 2.1-3.3 4.3-4.9 6.5a1.7 1.7 0 0 1-1.8.1c-.2-.2 0-.3.1-.5l1.1-1.3c1.3-1.7 2.3-3.5 3.5-5.2l2.7-3.7c.2-.4.8-.9.4-1.2s-.8.2-1.2.5a26.1 26.1 0 0 0-3.8 4.4c-1.6 2.1-3 4.2-4.5 6.2a.6.6 0 0 1-.8.4l-1.3-.4a27.2 27.2 0 0 0-3.7-1.3c-.4-.1-.7-.2-1 .2a1.1 1.1 0 0 0 .3 1.2l1.2.9a12.2 12.2 0 0 0 4.9 1.9 1.2 1.2 0 0 1 .8.6 16.4 16.4 0 0 0 12.2 8.6 7 7 0 0 0 3.2-.2.5.5 0 0 0 .4-.3c0-.2-.3-.2-.4-.2a15.2 15.2 0 0 0-2-.6 26 26 0 0 1-6.3-3 23.7 23.7 0 0 1-4.1-3.7c-.1-.1-.3-.2-.2-.4s.3-.1.5-.1l3.6.2a.8.8 0 0 1 .7.4 19.8 19.8 0 0 0 7.1 5.4 34 34 0 0 0 8.2 2.6 8.1 8.1 0 0 0 3.1.2c.2 0 .5 0 .5-.2s-.3-.4-.5-.4-1.2-.5-1.9-.6-3.4-1.2-5.1-1.8a31.6 31.6 0 0 1-7.1-3.6 10.8 10.8 0 0 1-2.4-1.8c.3-.3.7-.1 1-.1s1.6-.3 2.3.4.5 0 .6-.2.6-.2.8 0a24.9 24.9 0 0 0 12 4.3 5.6 5.6 0 0 0 3.1-.6c.3-.1.4-.3 0-.5a10.6 10.6 0 0 0-3-1 35 35 0 0 1-4.6-1.4 11.2 11.2 0 0 1-3.7-1.4l5-.7a.6.6 0 0 1 .5.2 5.7 5.7 0 0 0 2.2 1.5 38.9 38.9 0 0 0 9.4 3.3 13.9 13.9 0 0 0 7-.2c.3-.1.7-.1.7-.4s-.4-.4-.6-.5a19.1 19.1 0 0 0-3.4-1 93.6 93.6 0 0 1-9.1-2.4l-2.6-.7c-.2-.1-.3-.1-.3-.3l.2-.2a20.9 20.9 0 0 0 3.6-.7c.3 0 .6-.1.9.2a6.2 6.2 0 0 0 3.5 1.8 35.5 35.5 0 0 0 4.7.9 27 27 0 0 0 8.5.1 8.8 8.8 0 0 0 2.7-1v-.2l-17.4-2.1v-.4l1.1-.4c1.8-.4 3.6-.7 5.3-1.2a3.4 3.4 0 0 1 3.1.3 15.3 15.3 0 0 0 6.9 2 38.8 38.8 0 0 0 4.8-.4 23.8 23.8 0 0 0 6.4-2c.2-.1.3-.1.3-.3s-.2-.2-.4-.2a19.4 19.4 0 0 0-2.4-.2c-3.4-.1-6.8.7-10.2.2a20 20 0 0 1-3.5-.9 1.8 1.8 0 0 1 .7-.5 44.6 44.6 0 0 0 5-2.2.9.9 0 0 1 1.1 0l1.7.7a17.8 17.8 0 0 0 6.1.5 49.9 49.9 0 0 0 5.4-.7 7.7 7.7 0 0 0 2.4-1.2.5.5 0 0 0 .3-.6c-.1-.3-.4-.1-.5-.1l-1.8-.2H573a15 15 0 0 1-2-.2c1.1-.9 2.3-1.3 3.3-2.1s1.6-1.1 2.6-.5h.6a13.2 13.2 0 0 0 4.4-.4 33.2 33.2 0 0 0 5.4-1.5c.3-.1.6-.2.6-.5s-.4-.3-.6-.4-3.4-.2-5-.1l-3.9.3 1.7-1.6c.2-.1.3-.5.7-.5a10.8 10.8 0 0 0 3.1-.7 37.6 37.6 0 0 0 4.6-2 2.8 2.8 0 0 0 1.7-1.3.8.8 0 0 0 .1-.9c-.1-.3-.4-.1-.7-.1z" class="cls-6"/></g></svg>