<svg xmlns="http://www.w3.org/2000/svg" viewBox="0 0 28.7 28.5"><defs><style>.cls-1{fill:#515e7a}</style></defs><title>el-2</title><g id="Layer_2" data-name="Layer 2"><path id="OBJECTS" d="M1129.6-41.4a3.8 3.8 0 0 1-3.1-.6c-.4-.4-1.8.2-2 .8a.5.5 0 0 0 0 .5 1.7 1.7 0 0 0 2.3.8 2.2 2.2 0 0 1 1.9-.5 4.4 4.4 0 0 1 2 .2 7.5 7.5 0 0 0-.7 1.2c-.2.3-.4.6-.1.9s.6 0 .8-.1a3.2 3.2 0 0 0 1.4-1.4 1.2 1.2 0 0 1 1.6-.6 1.4 1.4 0 0 1-.2.6c-.1.2-.3.5 0 .6a.5.5 0 0 0 .7-.1l.7-.8c.1-.1.2-.3.4-.4a8.1 8.1 0 0 1 2.2 0c-.4.3-.7.7-1.2.7s-.7.1-.5.3.1.4-.1.6a2.6 2.6 0 0 1-1.5.6c-.6 0-.7 0-.7.4s.4.3.6.3h.1c-.5.7-.5.7-1.7.8s-.8 0-.8.4.5.3.8.4h.1c-.4.6-.9 1.2-1.7 1.1a.9.9 0 0 0-.7.1c-.4.2-.4.5-.1.7l.5.2c-.6.7-.9 1.5-2 1.2s-1 .8-.9 1.5a1.1 1.1 0 0 0 1.3.9c.8 0 1.3-.5 1.1-1.1a1 1 0 0 1 .5-1.1l.7-.6c.2.3.2.7.6.6s.4-.4.4-.7a.6.6 0 0 0 .1-.4c-.1-.9.6-1.1 1.1-1.6a.9.9 0 0 1 .1.5c0 .2.1.5.3.5s.3-.3.4-.5a.9.9 0 0 0 0-.7c-.1-.7.4-1 .9-1.4v.3c.1.2 0 .5.3.5s.4-.3.4-.5a2.8 2.8 0 0 0 .1-.9c0-.3.8-1.3.9-1.1s.5-.3.6-.5a1.6 1.6 0 0 1 .8-1 7.6 7.6 0 0 0-.1 1.5 1.8 1.8 0 0 1-.8 1.4l-.6.5a.5.5 0 0 0 0 .5c.1.2.3.2.5.1l.5-.2c.1 0 .2-.1.3 0a2.1 2.1 0 0 1-.2 1.3 5.8 5.8 0 0 0-1.8 1.7c-.2.2-.4.4-.1.7s.5.2.8 0l1.3-.8a10.6 10.6 0 0 1 .2 2.5 2 2 0 0 1-.4 1.3 1.7 1.7 0 0 0 .4 2.4h.8a1.8 1.8 0 0 0 .5-2.5 2.1 2.1 0 0 1-.4-1.7 9.7 9.7 0 0 0 .1-1.7c0-.4.1-.4.4-.2l1.2.7a.5.5 0 0 0 .6-.1c.2-.2.1-.4 0-.6a4 4 0 0 0-1.4-1.5 1.3 1.3 0 0 1-.6-1.7l.7.3c.2.1.4.1.5-.1a.5.5 0 0 0-.1-.6l-.4-.3c-.3-.3-.8-.5-.8-.8a7.4 7.4 0 0 1-.1-2.1c.5.4.8.6.8 1.2s0 .5.3.3.4 0 .5.1a1.7 1.7 0 0 1 .6 1.5c0 .3 0 .7.4.8s.3-.4.4-.7.1 0 .1-.1 1 .8.8 1.5v.7c.1.2.1.4.4.4s.2-.2.3-.4l.2-.6c.6.6 1.2 1 1.1 1.9s-.1.8.4.8.4-.3.5-.6h.1c.3.2.5.5.8.6a1 1 0 0 1 .4 1 1.1 1.1 0 0 0 .2.8 1.4 1.4 0 0 0 1.6.3 1.2 1.2 0 0 0 .5-1.5 1.1 1.1 0 0 0-1.3-.8c-.2.1-.4.2-.5 0l-1-1.2c.6-.2.8-.3.7-.5a1.3 1.3 0 0 0-.7-.5c-.3-.1-.2-.1-.3 0a4.1 4.1 0 0 1-1.8-1.2h.6c.2-.1.4-.1.4-.4s-.2-.2-.4-.3h-.8c-.8.3-1-.4-1.5-.8h.5c.2 0 .5-.1.5-.4s-.3-.3-.5-.3-.6-.1-.8 0-.9-.6-1.3-.9 0-.1 0-.2.2-.4-.2-.4a1.2 1.2 0 0 1-1.1-.8 2.7 2.7 0 0 1 3 1.2h.1c.2.2.4.5.7.2s.1-.4 0-.6-.1-.3-.2-.4a.2.2 0 0 1 .1-.3c.1 0 1-.1 1.3.4a4.4 4.4 0 0 0 1.6 1.7c.2.1.5.3.7.1a.8.8 0 0 0 .1-.8l-.6-1c-.2-.2-.2-.3.1-.4a7.4 7.4 0 0 1 2.1-.1 1.2 1.2 0 0 1 1.3.4 1.7 1.7 0 0 0 2.4-.4c0-.1.1-.1.1-.2a.6.6 0 0 0 0-.6 1.8 1.8 0 0 0-2.3-.7l-.3.2c-.2.2-.3.4-.6.4l-3.1-.2c.3-.6.7-.9.9-1.4s.2-.6-.1-.8-.5 0-.7.1a6.5 6.5 0 0 0-1.6 1.7 1 1 0 0 1-1.2.3c-.3-.1 0-.4.1-.6a.6.6 0 0 0-.1-.7c-.2-.2-.5 0-.7.2a3.9 3.9 0 0 0-.8 1c-.1.1-.2.3-.4.3h-1.9c.3-.4.5-.8 1-.8s.4 0 .3-.4.1-.3.1-.4a2.1 2.1 0 0 1 1.8-.7c.3 0 .7 0 .7-.4s-.4-.3-.6-.4h-.2c.4-.6.8-1 1.5-.9h.6c.2 0 .4-.1.4-.3a.3.3 0 0 0-.3-.3l-.5-.2c.4-.7.8-1.2 1.7-1.1h.6q.3-.1.3-.3c0-.2-.1-.4-.2-.4s-.4-.1-.4-.3a2.6 2.6 0 0 1 1.5-1.2c.3 0 .6.1.9-.2a1.4 1.4 0 0 0 .3-1.5 1.3 1.3 0 0 0-1.5-.6c-.7.2-.8.5-.8 1.3s.1.4-.1.6a4.7 4.7 0 0 1-1.2.9c-.1-.3-.1-.7-.5-.7s-.4.5-.4.8-.1.1-.1.2a3.5 3.5 0 0 1-1 1.7l-.2-.3c-.1-.3 0-.7-.4-.6s-.3.4-.3.7v.4a1.4 1.4 0 0 1-.8 1.5.6.6 0 0 1-.1-.4c-.1-.2-.1-.5-.4-.4s-.3.2-.4.4v1c0 .6-.6.8-.9 1.2s-.1 0-.2-.1-.3-.2-.3.2a1.4 1.4 0 0 1-.7 1.2V-44a1.2 1.2 0 0 1 .5-1 1.3 1.3 0 0 0 .7-.6c.2-.2.5-.4.2-.7a.5.5 0 0 0-.7-.1l-.3.2h-.3a1.6 1.6 0 0 1 .4-1.3 6.5 6.5 0 0 0 1.7-1.6c.1-.2.3-.4.1-.7s-.5-.1-.7-.1l-.9.5c-.2.1-.4.4-.7.4a14.8 14.8 0 0 0-.1-2.1 1.8 1.8 0 0 1 .4-1.7 1.6 1.6 0 0 0-.3-2.2.2.2 0 0 0-.2-.2.5.5 0 0 0-.7 0 1.7 1.7 0 0 0-.6 2.3 2.6 2.6 0 0 1 .5 1.7 8.2 8.2 0 0 1-.2 2.2l-1.3-.8a.5.5 0 0 0-.7-.1h-.1c-.3.3 0 .6.1.8a4.4 4.4 0 0 0 1.7 1.6c.5.3.4.8.3 1.2s-.5-.1-.7-.1h-.1a.5.5 0 0 0-.6.1.4.4 0 0 0 .2.5l.9.9c.1.1.3.2.3.4a5 5 0 0 1 .1 2.1c-.4-.4-.8-.7-.7-1.3s-.1-.6-.4-.3-.3.1-.5-.1a1.5 1.5 0 0 1-.6-1.4c0-.3 0-.9-.4-.9s-.3.5-.4.8a1.4 1.4 0 0 1-.9-1.7c.1-.3 0-.8-.3-.9s-.4.5-.4.9h-.2c-.5-.5-1.2-.9-1-1.8s-.1-.4-.1-.6a.4.4 0 0 0-.4-.4c-.2 0-.3.2-.4.4a.5.5 0 0 1-.2.4l-.8-.8a.8.8 0 0 1-.4-.9 1 1 0 0 0-.5-1.1 1.2 1.2 0 0 0-1.7 0 1.2 1.2 0 0 0 0 1.7c.2.6.7.6 1.2.5s.4-.1.6.2l.6.8c.3.2.3.3 0 .4s-.4.2-.4.5a.5.5 0 0 0 .5.3h.3c1-.2 1.4.5 1.9 1.1s-.1 0-.1.1-.9 0-.8.4.6.3.9.3h.2c.7-.1 1.1.3 1.4.9s-.7 0-.7.4.5.3.8.4h.2c.8-.2 1 .4 1.5.7s0 .2 0 .3 0 .4.2.4a1.8 1.8 0 0 1 1.1.8h-1.8c-.2 0-.3-.1-.5-.3a3.1 3.1 0 0 0-.9-1.1c-.2-.2-.4-.2-.5-.1a.6.6 0 0 0-.2.6l.3.7c-.7.1-1.3.1-1.6-.6a5.7 5.7 0 0 0-1.1-1.1c-.3-.2-.7-.7-1.1-.3s.1.7.3 1.1.6.7.5 1-.8.5-1.2.6zm-3.6.9c-.2.1-.4-.1-.5-.3.1-.2.2-.5.5-.5a1.2 1.2 0 0 1 .5.5.7.7 0 0 1-.5.4zm3.3 9.5c-.1.1-.1.3-.3.3a.4.4 0 0 1-.4-.4c0-.2.2-.3.4-.3s.3.2.3.4zm18.9 0a.4.4 0 0 1 .4-.4c.2 0 .3 0 .3.2s-.2.5-.4.5a.3.3 0 0 1-.3-.3zm3.3-10.3c.3-.1.4.2.5.4s-.2.4-.4.5-.5-.2-.5-.5a.4.4 0 0 1 .4-.4zm-3.1-9.8c.3.1.5.2.5.5a.3.3 0 0 1-.3.3c-.2-.1-.4-.2-.4-.4a.5.5 0 0 1 .2-.4zm-9.7-3c.3 0 .4.2.5.4s-.2.5-.4.5a.5.5 0 0 1-.5-.5.4.4 0 0 1 .4-.4zm0 25.5a.5.5 0 0 1 .5.5c.1.3-.2.4-.4.4s-.5-.2-.5-.4a.7.7 0 0 1 .4-.5zm-9.9-21.7c-.1 0-.2-.1-.2-.3a.5.5 0 0 1 .5-.5c.2 0 .1.2.2.3a.5.5 0 0 1-.5.5z" class="cls-1" transform="translate(-1124.4 55.1)"/></g></svg>