<svg xmlns="http://www.w3.org/2000/svg" viewBox="0 0 16.2 16.4"><defs><style>.cls-1{fill:#ffbc00}</style></defs><title>el-3</title><g id="Layer_2" data-name="Layer 2"><path id="OBJECTS" d="M988.3-55.6l3.3 2.7a1.1 1.1 0 0 0 .8.2l4-1.2a.9.9 0 0 1 1.1.6.6.6 0 0 1 0 .6l-1.6 3.9a.8.8 0 0 0 .1.8l2.3 3.5a.8.8 0 0 1-.2 1.2.7.7 0 0 1-.6.2l-4.2-.3a.8.8 0 0 0-.7.4l-2.6 3.3a1 1 0 0 1-1.4-.1c-.1-.1-.2-.2-.2-.3l-1-4.1a.9.9 0 0 0-.6-.6l-3.9-1.4a1 1 0 0 1-.6-1.1 1 1 0 0 1 .4-.5l3.6-2.2a1.2 1.2 0 0 0 .4-.8l.2-4.2a1 1 0 0 1 .7-.9.9.9 0 0 1 .7.3z" class="cls-1" transform="translate(-982.3 55.9)"/></g></svg>