<svg xmlns="http://www.w3.org/2000/svg" viewBox="0 0 42.5 41.9"><defs><style>.cls-1{fill:#fff}</style></defs><title>ele-1</title><g id="Layer_2" data-name="Layer 2"><path id="OBJECTS" d="M1068.2 46.8c-1.7.3-3.2.4-4.6-.9s-2.7.4-3 1.2a1.4 1.4 0 0 0 0 .9c.4 1.1 2.6 1.9 3.4 1a3.5 3.5 0 0 1 2.8-.7 7.7 7.7 0 0 1 3 .3 17.4 17.4 0 0 1-1.1 1.8c-.2.5-.5.9 0 1.3s.8.1 1.2-.2a4.8 4.8 0 0 0 2-2c.6-1.1 1.4-1.1 2.4-.9a1.5 1.5 0 0 1-.4.9c-.1.4-.3.7 0 1a.8.8 0 0 0 1.1-.2l1-1.2c.2-.2.3-.5.6-.5a9.2 9.2 0 0 1 3.3-.2c-.6.6-1 1.1-1.8 1.1s-1 .1-.7.5.1.6-.1.9a2.5 2.5 0 0 1-2.3.8c-.5 0-1.1 0-1.1.7s.6.4 1 .5h.1c-.7 1-.7 1-2.5 1.2s-1.3-.1-1.3.6.8.4 1.3.5v.2c-.6.9-1.2 1.7-2.5 1.5l-1 .3c-.6.2-.6.7-.1 1.1s.5 0 .6.3a2.8 2.8 0 0 1-2.9 1.7c-1.6-.3-1.5 1.2-1.3 2.2a1.8 1.8 0 0 0 1.9 1.4c1.1-.1 1.9-.8 1.7-1.8a1.4 1.4 0 0 1 .7-1.6l1.1-.8c.2.4.1 1 .8.9s.5-.6.6-1a.9.9 0 0 0 .1-.7c-.2-1.3.9-1.6 1.7-2.4a2.2 2.2 0 0 1 .1.8c0 .3.1.7.5.7s.4-.4.5-.7a1.4 1.4 0 0 0 .1-1.1c-.2-1 .5-1.5 1.3-2v.4c.1.3 0 .7.5.8s.5-.4.6-.8a5.7 5.7 0 0 0 .1-1.3c0-.4 1.1-1.9 1.3-1.7s.8-.3.9-.7a2.8 2.8 0 0 1 1.1-1.5v2.2a2.3 2.3 0 0 1-1.3 2.1l-.8.8c-.1.3-.2.5 0 .8a.5.5 0 0 0 .7.1l.8-.3c.1-.1.3-.2.4 0s0 1.6-.4 1.8a10.7 10.7 0 0 0-2.6 2.6c-.2.3-.5.7-.2 1.1a.8.8 0 0 0 1.1.1h.1l2-1.2c.4 1.3.1 2.5.3 3.7a2.6 2.6 0 0 1-.6 1.9 2.5 2.5 0 0 0 .6 3.5l.3.2h.9a2.7 2.7 0 0 0 .8-3.6 2.9 2.9 0 0 1-.7-2.5 24.5 24.5 0 0 0 .2-2.7q0-.7.6-.3a4.5 4.5 0 0 0 1.7 1.1.8.8 0 0 0 1-.1c.3-.3.1-.6-.1-.9a5.5 5.5 0 0 0-2-2.3 1.9 1.9 0 0 1-1-2.4l1.1.4a.5.5 0 0 0 .8-.2.6.6 0 0 0-.1-.8l-.7-.6c-.4-.4-1.1-.7-1.2-1.2a15.1 15.1 0 0 1-.1-3c.7.5 1.2.9 1.1 1.7s.1.9.5.5.5 0 .8.2a3.8 3.8 0 0 1 .8 2.2c0 .8.1 1.1.7 1.1s.4-.6.6-.9v-.2a2 2 0 0 1 1.2 2.3v.9c0 .3.1.6.5.6s.4-.2.5-.5a2.9 2.9 0 0 1 .2-.9c1 .8 1.8 1.5 1.7 2.8s0 1.1.6 1.2.6-.5.8-.9h.2a5.2 5.2 0 0 0 1.1 1 1.3 1.3 0 0 1 .6 1.5c0 .4-.1.8.3 1.2a2.1 2.1 0 0 0 2.4.4 2.1 2.1 0 0 0 .8-2.2 1.5 1.5 0 0 0-1.9-1.2h-.1c-.3.1-.5.2-.8 0l-1.5-1.8c.9-.3 1.2-.5 1.1-.8s-.7-.5-1.1-.7h-.2c-1.4.3-1.8-.8-2.6-1.6h.8c.3-.1.7-.2.7-.6s-.4-.3-.6-.4a2.5 2.5 0 0 0-1.2-.1c-1.2.3-1.5-.6-2.3-1.3h.7c.4 0 .8-.1.8-.5a.6.6 0 0 0-.7-.5h-1.3c-.9.1-1.2-.8-1.9-1.2s0-.2.1-.3.2-.6-.4-.7a2.2 2.2 0 0 1-1.7-1.1c1.8-.2 3.5-.1 4.5 1.7h.1c.3.3.7.6 1.1.3s.2-.7.1-1l-.3-.6c-.1-.2 0-.4.2-.4s1.4-.2 1.9.6a5.8 5.8 0 0 0 2.4 2.5c.3.2.6.4 1 .1s.3-.7.1-1.1l-.9-1.5c-.3-.4-.3-.5.2-.6a15.1 15.1 0 0 1 3-.2 2.6 2.6 0 0 1 2.1.6 2.5 2.5 0 0 0 3.4-.4c.1-.1.1-.3.2-.4a.9.9 0 0 0 0-1 2.6 2.6 0 0 0-3.4-1l-.4.3c-.3.3-.5.6-1 .6l-4.5-.2c.4-.9 1.1-1.4 1.3-2.2s.3-.8-.1-1.1-.7-.1-1.1.1a8.5 8.5 0 0 0-2.4 2.6 1.4 1.4 0 0 1-1.8.3c-.4-.1.1-.6.2-.9a.8.8 0 0 0-.2-.9.8.8 0 0 0-1 .2l-1.2 1.4c-.1.2-.2.5-.5.5h-2.9c.4-.6.8-1.1 1.5-1.1s.6-.1.4-.7.1-.3.2-.4a3.6 3.6 0 0 1 2.7-1.2c.4 0 .9 0 .9-.5s-.4-.5-.8-.6h-.3c.6-.8 1.2-1.4 2.3-1.2h.9c.3 0 .6-.1.6-.5s-.3-.4-.5-.4a1.1 1.1 0 0 1-.8-.3c.6-.9 1.2-1.8 2.5-1.6s.6-.1.9-.2a.5.5 0 0 0 .5-.5.7.7 0 0 0-.4-.6c-.2-.1-.5 0-.5-.4a3.4 3.4 0 0 1 2.2-1.7 1.4 1.4 0 0 0 1.4-.3 1.9 1.9 0 0 0 .4-2.2 1.7 1.7 0 0 0-2.1-.9c-1.1.3-1.4.7-1.3 1.9s.2.6-.1.8a6.2 6.2 0 0 1-1.8 1.4c-.2-.4-.2-1.1-.8-1s-.5.8-.6 1.2a.4.4 0 0 0-.1.3c.2 1.3-.6 1.9-1.5 2.5l-.3-.5c-.1-.3 0-.9-.5-.8s-.5.6-.5 1v.5c.2 1.1-.4 1.7-1.3 2.3a1.3 1.3 0 0 0-.1-.6c-.1-.2-.1-.6-.5-.6s-.5.4-.6.7a6.6 6.6 0 0 0-.1 1.4c0 .9-.8 1.2-1.2 1.8s-.2-.1-.3-.1-.6-.3-.6.3a1.9 1.9 0 0 1-1 1.7v-2.3a1.3 1.3 0 0 1 .7-1.4 2.8 2.8 0 0 0 1-.9c.3-.3.7-.7.4-1.2a.8.8 0 0 0-1.1 0l-.5.2c-.1.1-.2.1-.3-.1a1.8 1.8 0 0 1 .6-1.9 9.5 9.5 0 0 0 2.4-2.5.7.7 0 0 0 .2-.8h-.1a.8.8 0 0 0-.9-.2 3.3 3.3 0 0 0-1.3.7c-.4.2-.6.6-1.1.6s-.1-2.1-.2-3.1a3.1 3.1 0 0 1 .7-2.6 2.4 2.4 0 0 0-.6-3.3l-.3-.2a.9.9 0 0 0-1 0 2.5 2.5 0 0 0-.8 3.4 3.7 3.7 0 0 1 .7 2.5 9.3 9.3 0 0 1-.4 3.3L1079 35c-.4-.2-.9-.4-1.3.1s0 .8.3 1.1a6.9 6.9 0 0 0 2.4 2.4c.9.4.7 1.2.5 1.8s-.7-.1-1.1-.2c-.4-.1-.7-.1-.9.2a.5.5 0 0 0 .2.8l1.3.8a1 1 0 0 1 .5.6 15.1 15.1 0 0 1 .1 3c-.6-.5-1.2-.9-1.1-1.8s-.1-1-.6-.5-.5.1-.7-.1a2.4 2.4 0 0 1-.9-2.1c0-.5 0-1.3-.6-1.4s-.4.8-.7 1.3a2.2 2.2 0 0 1-1.2-2.6c0-.4 0-1.3-.5-1.3s-.6.8-.7 1.3h-.1c-.8-.7-1.8-1.2-1.6-2.6s-.1-.6-.2-.9a.6.6 0 1 0-1.1-.1c-.1.2 0 .5-.3.6l-1.2-1.1a1 1 0 0 1-.5-1.3 1.7 1.7 0 0 0-.9-1.7 1.8 1.8 0 0 0-2.5 2.5c.3.9 1 .9 1.8.9s.6-.2.9.2a5.2 5.2 0 0 0 1 1.1c.4.4.3.5-.2.7a.8.8 0 0 0-.5.7c.1.4.4.4.7.5a.7.7 0 0 0 .6.1c1.4-.3 2 .7 2.7 1.6h-.2c-.4.3-1.3 0-1.2.7s1 .4 1.5.5h.3c1-.2 1.6.4 2.1 1.2s-1.2.1-1.2.7.8.5 1.2.6h.4c1.1-.3 1.4.7 2.1 1.2s.1.2 0 .4a.5.5 0 0 0 .4.6 2.4 2.4 0 0 1 1.6 1.1h-2.6a.9.9 0 0 1-.8-.4 4.3 4.3 0 0 0-1.4-1.6.6.6 0 1 0-.9.7 4.2 4.2 0 0 0 .4 1c-1 .2-1.9.3-2.5-.9a3.9 3.9 0 0 0-1.5-1.6c-.5-.3-1-1-1.6-.5s0 1.2.3 1.8 1 .9.7 1.3-1 .3-1.5.4zm-5.4 1.4c-.3.1-.5-.1-.6-.4v-.2a.7.7 0 0 1 .6-.7 1.2 1.2 0 0 1 .7.7.7.7 0 0 1-.7.6zm4.9 14.2c-.1.1-.1.4-.5.3s-.5-.2-.5-.6.3-.4.5-.4.5.2.5.7zm28.1-.1a.6.6 0 0 1 .6-.6c.3 0 .5.1.5.4a.6.6 0 0 1-.6.6c-.3 0-.5-.1-.5-.4zm4.9-15.4c.4 0 .6.4.7.7a.7.7 0 0 1-.6.7.9.9 0 0 1-.8-.6 1 1 0 0 1 .7-.8zm-4.6-14.4c.4.1.7.3.7.7s-.1.4-.4.4-.5-.3-.6-.6a.5.5 0 0 1 .3-.5zm-14.4-4.5c.4 0 .6.3.8.6s-.4.7-.7.7a.8.8 0 0 1-.7-.7.6.6 0 0 1 .6-.6zm0 37.8a1.2 1.2 0 0 1 .7.7c.1.3-.2.6-.5.7h-.1c-.3.1-.6-.2-.7-.5 0-.4.3-.7.6-.9zM1067 33.6c-.2 0-.4-.1-.3-.4s.2-.6.5-.7h.2c.3 0 .2.3.3.4s-.2.6-.5.7z" class="cls-1" transform="translate(-1060.5 -26.8)"/></g></svg>