<svg xmlns="http://www.w3.org/2000/svg" viewBox="0 0 194.6 76.7"><defs><style>.cls-1{isolation:isolate}.cls-2{fill:#fff}.cls-3{fill:#c9dee8}.cls-4{fill:#d31728}.cls-5{fill:#f9b4a3}.cls-6{fill:#9e0917}.cls-7{mix-blend-mode:multiply}.cls-8{fill:#c9d5e1}.cls-9{font-size:7.87px;fill:#f7f8fc;font-family:212BabyGirl,&quot;212 Baby Girl&quot;}.cls-10{letter-spacing:-.02em}.cls-11{letter-spacing:-.05em}.cls-12{letter-spacing:0}</style></defs><title>logo-w-1</title><g class="cls-1"><g id="Layer_2" data-name="Layer 2"><g id="Layer_1-2" data-name="Layer 1"><path d="M27.9 59.3c-5.4 0-7.7-6-7.8-14.8a33.7 33.7 0 0 1-8.5.3 101.7 101.7 0 0 0-1 11.1l-6.5-1.2a77.2 77.2 0 0 1 1-11.3 16.5 16.5 0 0 1-3.7-2C-.7 40.1-1.1 36 5 36a4.1 4.1 0 0 0 1.3 1.9c1-3.4 2.4-6.5 4.5-8.6 9.8-10 18.4-6 18.4-6s-4.9 29.3-.1 29.3c1.5 0 1.9-5.8 1.9-5.8h3.3s.2 12.5-6.4 12.5zm-7.7-18.2a93.5 93.5 0 0 1 1.5-12c-5.1 2-7.7 6.3-9.2 11.4a33.3 33.3 0 0 0 7.7.6z" class="cls-2"/><path d="M40.3 59.3c-11.4 0-9.2-12.5-9.2-12.5h3.5c-.4 4.6 3.3 6.7 5.6 5.4s-1-4.6-6.1-9-1.8-10.4 4.2-10.4 7.8 6.3 7.8 6.3l-5 1.4c0-3.9-4.2-1.8-1.5.7l6.3 5.2c5.5 4.7 2.1 12.9-5.6 12.9z" class="cls-2"/><path d="M70.8 46.8c0 1.2-.5 9.1-9.2 9.1a9.1 9.1 0 0 1-7.6-3.8q.2 4 .3 7.2h-6.8c.7-9.7.5-27 0-36.2l6.8-.7c-.2 3.9-.4 10-.4 16.3 1.4-1.9 3.3-3.5 5.4-3.5 4.5 0 6.3 6-2 11.8a10.3 10.3 0 0 0 5.6 2.2c3.8 0 4.6-2.4 4.6-2.4zm-16.7-3.9h.1c3.8-1.6 6.5-3.6 5.2-4.8s-3.6 1.9-5.3 4.8zM90.6 59.3c-13.7 0-12.7-15-12.7-15h5c-.3 7.5 5.6 8.6 7.9 7.6 6-2.4-.2-9.8-6.7-16.3S81.2 22.4 89 22.4a7.6 7.6 0 0 1 7.3 4.3l5.1-.6-.4 6.1-10.8-.5c0-5.4-5.9-2.5-2.1 1l10.4 8.6c7.6 6.5 2.8 18-7.9 18z" class="cls-2"/><path d="M122.7 59.3c-3.5 0-5.5-3.2-6.5-7.5-1.9 2.6-4.7 4.3-7.5 4.1-4.8-.4-8.2-5.8-7.4-12.2s5.2-11.2 10-10.9a7.3 7.3 0 0 1 4.6 2.3 12 12 0 0 1 .4-2.3l6.6.8s-2.8 18.9 1 18.9c1.6 0 1.9-5.7 1.9-5.7h3.4s.2 12.5-6.5 12.5zm-10.5-19.6c-2.1-.2-3.9 1.8-4.2 4.5s1 4.9 3 5.1 3.9-1.9 4.2-4.6-1-4.9-3-5z" class="cls-2"/><path d="M147.4 46.8h3.4s-1.2 9.1-7.2 9.1c-9.3 0-3.5-17.2-6.9-17.2s-5 10.8-5.1 11.4.2 3.7.3 5.8H125c.8-9.7.5-13.3 0-22.5l6.9-.6c-.1 2.4-.3 4.5-.3 6.6 1.4-3.5 3.6-6.6 6.8-6.6 9.4 0 3.3 16.4 7.1 16.4 1.6 0 1.9-2.4 1.9-2.4z" class="cls-2"/><path d="M157.8 46.8h3.3s-1.1 9.1-7.5 9.1-7.5-16-6.4-26.4h-2v-3.4l2.4-.2c.2-1.3.4-2.5.6-3.3l6.7.8-.3 2 7.4-.8 1.4 5.5-9.3-.4c-.7 7.7-1.3 19.5 1.7 19.5s2-2.4 2-2.4z" class="cls-2"/><path d="M179 59.3c-3.5 0-5.5-3.2-6.5-7.5-1.9 2.6-4.7 4.3-7.5 4.1-4.9-.4-8.2-5.8-7.4-12.2s5.2-11.2 10-10.9a7.5 7.5 0 0 1 4.6 2.3 12 12 0 0 1 .4-2.3l6.6.8s-2.8 18.9 1 18.9c1.6 0 1.9-5.7 1.9-5.7h3.4s.2 12.5-6.5 12.5zm-10.6-19.6c-2-.2-3.9 1.8-4.2 4.5s1.1 4.9 3.1 5.1 3.9-1.9 4.2-4.6-1.1-4.9-3.1-5zM187 49l-1.7-26.4h9.3L193.4 49zm6.6 6.4a4.1 4.1 0 0 1-4.1 3.6 3.5 3.5 0 0 1-3.2-4.1 4 4 0 0 1 4.1-3.6 3.5 3.5 0 0 1 3.2 4.1z" class="cls-2"/><path d="M136.8 13.6l.6-.3c0-.2-.6-.4-.5-.5s-.3-.4-.3-.5.7-.2.7-.3l.5-.3c0-.1-.2-.3-.1-.5a.6.6 0 0 1 .1-.4c0-.1-.2-.4-.1-.6s.4 0 .5-.2-.1-.4 0-.5.1-.4.2-.5.5.1.6.1h.5c.1-.1.2-.3.3-.3s.1-.4.3-.5.4.3.5.2.4.1.5.1 0-1 .2-1.1l.5.3c.2 0 .3-.2.4-.2h.5l.4.2c.2 0 .4-.4.5-.4s.1 1 .3 1.1.5-.7.6-.7.1.7.2.7.6-.5.7-.5 0 .7.1.8.5-.2.6-.2l.3.4c.1.1-.2.6 0 .7s.4-.1.5 0 0 .4.1.5.8-.2.9-.1 0 .4 0 .5v.5c0 .1.7.1.7.2s-.8.6-.8.8.9 0 .9.2-.6.4-.6.5l.2.4c0 .2.2.3.2.4s-.4.3-.4.5.3.3.2.4.6.4.5.5-.2.3-.3.4-.6.1-.7.3-.2.2-.2.3.3.5.3.6l-.3.4-.4.2c-.1.2 0 .4-.1.5l-.3.4c-.1.1-.7-.4-.8-.3s.2.8.1.9h-.5c-.1.1 0 .7-.1.7s-.6-.5-.7-.5-.1.7-.3.7a.5.5 0 0 1-.4.2h-.5c-.1.1-.3-.7-.5-.7h-.4l-.4.3h-.4c-.2 0-.4.3-.5.3s-.3-.3-.4-.4l-.3-.3h-.5l-.4-.2h-.4c-.2 0-.6.3-.7.2l-.3-.4c-.1-.1.4-.8.3-.9s-.1-.3-.2-.4-.7.2-.8.1.3-.6.2-.7h-.6c-.1-.2.3-.5.2-.6l-.8-.2c0-.1.3-.4.2-.5a.9.9 0 0 0-.1-.5.6.6 0 0 0-.1-.4 4.3 4.3 0 0 0 .1-.9z" class="cls-3"/><path d="M140.1 12.8v-.5a1.7 1.7 0 0 1 .2-.5c0-.1.7-.1.7-.2s-.4-.5-.4-.7h.8c.1-.1.1-.3.2-.4s-.1-.6 0-.7.7.5.8.5 0-.7.1-.8.5.6.6.5.2-.7.3-.7h1.4c.1 0 .1.5.2.5s.1.3.3.4.5-.4.6-.3-.2.7-.1.8.7-.3.8-.2-.1.4-.1.6l.3.3c0 .1.7.1.7.2v.5a4.3 4.3 0 0 1-.1.5c0 .1-.7.2-.7.4s.9.5.9.6-.9 0-.9.2.3.4.2.6h-.6l-.4.2c-.1.1 0 .3-.2.4s.2.8.1.9l-.5.2c-.1.1-.5-.6-.6-.6s-.3-.2-.5-.2-.2.8-.3.8-.3-.4-.4-.4-.2-.3-.4-.4l-.5.4-.4-.2-.4-.2c-.1-.1.1-.5 0-.6l-.3-.3-.3-.3-.2-.1c0-.2-.1-.3-.1-.4v-.4z" class="cls-2"/><path d="M110.7 15.9s9.4-17.2 16-15.8a27.8 27.8 0 0 1 16.2 10.6c1.4 2 .5 2.1-.2 2.3s-7.4-1.5-9 .7c0 0 2 5.4.8 8.4z" class="cls-4"/><path d="M129.7.9l-3-.8c-6.6-1.4-16 15.8-16 15.8l4.3-1.2S120.7-2.5 129.7.9" class="cls-5"/><path d="M111.3 14.7a24.4 24.4 0 0 1 17.6 0 7.3 7.3 0 0 0 1.7.7c3.1-.7-4.7-10.7-2.3-11.7s4.3 6.6 14.4 9.3c0 0-.6.5-3.5 0s-5.5.4-5.4.8a9.1 9.1 0 0 1 .5 8.8s-18.6-7.4-24.1-6.5z" class="cls-6"/><path d="M105.7 15.8c.1 0 .4.6.6.5l.5.3c.2 0 .2-.6.3-.6h1c.1 0 .2-.3.3-.3s.4.5.6.4.2-.6.3-.6.2-.4.4-.5.4.5.5.5.4.3.5.3.2-.5.4-.5l.4-.2.4-.2h.5c.1 0 .3.7.5.7l.4-.2c.2 0 .2-.9.4-1s.3.5.5.5h.4c.2 0 .3-.4.4-.4s.4.7.5.7.3-.7.4-.7h.5c.1 0 .3.8.5.8l.4-.4.4.3c.2 0 .4-.3.5-.3s.3-.3.5-.3.2.6.4.6.2.5.4.5.3-.4.5-.4.2.4.4.4h.4c.2 0 .4-.8.6-.8s.2.6.3.6.3.4.4.5.4-.3.5-.3h.5c.1 0 .3-.3.5-.2s.2.5.3.5l.4.2h.5c.1.1.4-.5.6-.5l.3.5a.5.5 0 0 1 .4.2c.2 0 .2.4.3.5s.6-.8.7-.7-.1 1.2.1 1.2.4-.3.5-.2l.4.2h.5c.1 0 .1.4.3.4l.3.3c.1.1.7-.7.8-.7s0 .8.1.9.5-.4.6-.3 0 .8.1.8.4-.1.5 0 .5-.3.6-.2l.4.3c.1.1-.1.7 0 .8h.5l.3.4c.2.1.6-.3.7-.2l.4.3c.1 0 .1.2.3.3s0 .5.1.5h.5c.1.1.5-.1.6 0l.3.3c.1.1-.1.6 0 .7h1c.2.1-.1.6 0 .6s.4.1.5.2l.4.2c.2.1.2.3.3.4s-.4.6-.3.7l.2.4.3.3c0 .2.8.2.8.3s-.9.4-.9.6.5.3.5.4 0 .4-.1.5l-.3.5c-.1.1.1.4 0 .5s-.7-.2-.8 0h-.6c0 .1.5.7.4.8l-.3.4-.4.3c-.1.1-.6-.2-.8-.1s0 .3-.1.4l-.3.3c-.1.1 0 .6-.2.7s-.4-.3-.6-.3l-.4.2c-.1 0-.3-.2-.4-.1s-.1 1-.2 1h-.5c-.1 0-.4-.8-.5-.8s-.3.7-.4.7l-.5.2-.5-.2c-.2 0-.1-.8-.2-.8s-.1-.4-.2-.5-.8.8-.9.7.1-.7 0-.7l-.3-.3h-.5c-.1-.1-.1-.4-.2-.5s-.4.1-.5 0 .2-.8.1-.9h-.5c-.1-.1-.5.2-.6.1l-.3-.4c-.1-.1 0-.5-.2-.5h-.5c-.1-.1-.5.5-.7.4s-.1-.4-.2-.5l-.6.2-.3-.3c-.1-.1-.4.1-.5.1s-.1-.5-.3-.5l-.3-.4-.6.5c-.1-.1 0-1.1-.1-1.2h-.4c-.2-.1-.5.7-.7.7h-.4c-.1-.1-.2-.3-.4-.3l-.4.2h-.5c-.1 0-.2-.2-.4-.2l-.4.2c-.2-.1-.3-.5-.4-.5s-.2-.6-.4-.7-.3 1-.5 1h-.4c-.2 0-.3-.7-.4-.7s-.3.3-.5.3h-.9c-.1 0-.2.3-.4.3s-.2.2-.4.2h-.4c-.2 0-.4-.8-.5-.8s-.3.4-.4.4l-.5.2c-.1 0-.2.5-.4.5l-.4-.2c-.2.1-.4-.8-.5-.8s-.2 1-.4 1-.3-.3-.5-.3-.2.3-.4.3-.3-.6-.4-.6-.3-.3-.5-.3-.3 1-.4 1l-.4-.3-.5.2-.5.2h-.4c-.2 0-.3-.2-.4-.2s-.2-.7-.3-.8h-.5l-.3-.6h-.5a.6.6 0 0 1-.1-.4c-.1-.2-.5-.1-.6-.2l-.3-.4a.6.6 0 0 1-.1-.4c-.1-.1.1-.4.1-.5s.4-.5.4-.6a.5.5 0 0 1-.2-.4l-1-.2c0-.2.4-.4.4-.5s-.5-.3-.5-.4a4.3 4.3 0 0 1 .1-.5V20c0-.1.3-.2.3-.4s-.2-.3-.2-.5a.5.5 0 0 0 .2-.4c.1-.1-.1-.3 0-.5s.3-.2.3-.3a.8.8 0 0 0 .2-.4c.1-.1 0-.4.1-.5l.3-.4c.1 0 .6.4.7.3s0-1.1.1-1.1z" class="cls-3"/><path d="M105.6 20.3a.6.6 0 0 1-.1-.4c-.1-.1.7-.3.7-.4s-.7-.3-.7-.5.1-.3.1-.4.1-.3.2-.5.5 0 .6-.1-.2-.7-.1-.8.5.3.6.2l.5.4c.1 0 .1-.9.2-.9l.4-.2h.4c.1-.1.4.3.5.3s.3.3.5.3h.4c.1-.1.1-.7.3-.7s.3.6.4.6h.4c.2 0 .2-.8.4-.8l.4.2c.1 0 .2-.3.4-.3h.4c.1 0 .3.9.5.8s.2-.7.3-.7.3.5.5.5.2-.2.4-.2l.4.2h.4c.1 0 .2.3.4.3s.2-.5.4-.5l.4-.2h.4c.1 0 .3-.3.4-.2s.2.9.3.9h.4c.1 0 .4-.6.5-.6s.2.6.4.6.3-.6.5-.5.2.3.3.3.4-.4.5-.4.2.5.3.5.2.6.3.6.5-.7.6-.7.2.4.3.4.3-.2.5-.1.1.6.2.7.5-.8.6-.8.2.3.4.3 0 .9.1.9.5-.7.7-.7h.4c.1 0 0 .9.1.9h.4c.1.1.5-.5.6-.5s.1.6.2.7l.5-.2c.1.1.2.4.3.4l.3.2c.2.1.6-.5.7-.4s.1.3.3.3.1.4.2.5h.9c.2 0 .3.2.4.2s.3-.1.5 0l.4.2c.1.1-.1.7 0 .8s.6-.3.7-.3-.2.7-.2.8.2.5-.1.5-.2-.3-.4-.4-.1-.6-.2-.7l-.5.2c-.1-.1-.1-.4-.3-.4h-.4l-.5.3-.4-.2-.3-.3c-.2 0-.4.4-.6.4l-.3-.2-.4-.2c-.1-.1-.2-.5-.3-.5s-.5.6-.6.6 0-1-.1-1-.5.5-.6.5h-.4c-.2 0-.2-.5-.3-.5s-.2-.3-.4-.4l-.4.2c-.2 0-.4.5-.5.4s-.2-.5-.3-.6a.5.5 0 0 1-.4-.2c-.1 0-.4.5-.5.5s-.2-.3-.4-.3-.2-.6-.3-.6-.3.4-.5.4h-.8l-.4-.2c-.1 0-.3.4-.5.4l-.3-.3c-.2-.1-.3.1-.5.1s-.2-.7-.3-.7-.3.5-.5.5-.2-.6-.3-.6-.3.6-.5.6-.2-.8-.4-.8l-.4.3-.4.3h-1.2c-.2 0-.3-.4-.5-.3l-.3.2c-.2.1-.3-.1-.5-.1s-.2.3-.3.3-.4-.5-.5-.5-.2.8-.3.9-.4-.8-.6-.8l-.3.2c-.2.1-.2.6-.3.6s-.4-.2-.5-.1-.1.4-.2.4h-.5c-.1 0-.1.3-.2.3l-.4.2c-.1.1-.6-.2-.6-.2l-.4.4c0 .1.6.5.6.7s-.1.1 0 .3-.4.3-.3.4a.6.6 0 0 0 .1.4c.1.1.5 0 .5.1s-.2.1-.2.2.1.2-.1 0l-.3-.2h-.5c-.1 0 .2-.6.1-.7l-.3-.2c-.1-.1-.8.4-.9.3s.6-.8.5-.9-.9.1-.9 0z" class="cls-2"/><g class="cls-7"><path d="M115.4 23.5c0 .2.3.3.5.3s.3-.7.5-.7.2.7.4.7l.4.2c.2 0 .3-.3.5-.3s.2.3.4.3l.4.2c.1 0 .3-.3.5-.3s.2.4.4.4h.4c.1 0 .4-.7.5-.6s.3.5.4.5h.4c.2 0 .4-.5.6-.5l.4.4c.1 0 .2.4.3.5s.3-.1.5 0h.4c.1.1.4-.2.5-.2s.1.7.3.7.4-.4.5-.3.2.5.3.5h.5c.1.1.4-.4.5-.3l.4.2.4.2h.5l.4.2c.1.1 0 .8.1.8l.4.2c.2 0 .5-.4.6-.4s.1.6.2.7.7-.7.8-.7 0 .7.1.8.5-.1.6-.1l.4.2h.5c.1.1-.3 1-.1 1.1h.5c.1 0 .5-.8.7-.7s.2.2.3.3.3.6.4.6l.5.2c.1 0 .3-.7.4-.7l.5.4c.2-.1 0-.9.2-1s.7.8.8.7 0-.6.1-.7 0-.4.2-.5.4.1.5 0l.4-.3.4-.2c.1-.1.1-.4.2-.5v-.4c0 .2.4.5.2.7s-.6-.3-.8-.2-.3-.1-.5-.1l-.3.2c-.2.1-.2.8-.4.9s-.3-.8-.5-.8-.2.2-.4.2h-.9l-.4-.2c-.2 0-.5.7-.7.6s-.2-.3-.3-.4h-.4c-.2-.1-.2-.4-.4-.4s-.2-.3-.4-.3-.3.3-.5.2h-.4l-.4-.3c-.1-.1-.2-.5-.3-.6s-.2-.3-.3-.3-.4.1-.5 0-.4.4-.6.3-.1-.6-.2-.6-.4.2-.5.1-.4.1-.5 0l-.5.2c-.1-.1-.2-.4-.3-.4s-.4.3-.6.3l-.4-.3c-.1 0-.2-.3-.3-.3s-.4.3-.5.3-.2-.9-.3-.9h-.5c-.1 0-.4.6-.5.6s-.3-.2-.4-.2h-.5c-.1-.1-.2-.7-.3-.7s-.5 1-.6 1h-.4c-.2 0-.3-.5-.4-.5s-.3-.2-.4-.2l-.5-.2-.4.2c-.2 0-.3.3-.5.3l-.4.2c-.2 0-.3-.7-.5-.7l-.4.2c-.2 0-.3.6-.4.6s-.3-.3-.5-.3-.3-.7-.5-.7-.4.6-.5.6z" class="cls-8"/></g><text class="cls-9" transform="translate(63.6 74.1)"><tspan class="cls-10">P</tspan><tspan x="3.6" y="0">owered by S</tspan><tspan x="44.7" y="0" class="cls-11">t</tspan><tspan x="47.2" y="0" class="cls-12">oryFile</tspan></text></g></g></g></svg>