<svg xmlns="http://www.w3.org/2000/svg" viewBox="0 0 1253.32 215.29"><defs><style>.cls-1{fill:#fff;}.cls-2{fill:#e76650;}</style></defs><title>logo-w</title><g id="Layer_2" data-name="Layer 2"><g id="Layer_5" data-name="Layer 5"><path class="cls-1" d="M104.54,53a57,57,0,0,1,22.2,22.31q8,14.37,8,33.46t-8,33.47a57,57,0,0,1-22.2,22.31,63.08,63.08,0,0,1-31.4,7.94q-23.68,0-37.26-14.95v57.73H0V46.92H34.27V61.18Q47.6,45.09,73.14,45.08A63.08,63.08,0,0,1,104.54,53Zm-15,80.73q8.85-9.31,8.85-25t-8.85-25q-8.86-9.32-22.66-9.32T44.28,83.84q-8.87,9.31-8.86,25t8.86,25q8.85,9.31,22.65,9.32T89.59,133.75Z"/><path class="cls-2" d="M194,162.62a80.24,80.24,0,0,1-31.51-29.79q-11.38-19-11.39-42.67T162.5,47.5A80.24,80.24,0,0,1,194,17.71Q214.14,6.9,239.21,6.9t45.08,10.81A81.33,81.33,0,0,1,315.8,47.5q11.51,19,11.5,42.66t-11.5,42.67a81.33,81.33,0,0,1-31.51,29.79q-20,10.81-45.08,10.81T194,162.62Zm71-27.49A47,47,0,0,0,283,116.85a53.78,53.78,0,0,0,6.55-26.69A53.77,53.77,0,0,0,283,63.48,47,47,0,0,0,265,45.2a53.86,53.86,0,0,0-51.52,0,47,47,0,0,0-18.06,18.28,53.77,53.77,0,0,0-6.55,26.68,53.78,53.78,0,0,0,6.55,26.69,47,47,0,0,0,18.06,18.28,53.86,53.86,0,0,0,51.52,0Z"/><path class="cls-1" d="M404.47,49.68a64.57,64.57,0,0,1,25.19-4.6V78.2c-4-.3-6.67-.46-8.05-.46q-15.42,0-24.16,8.63t-8.74,25.88v58.42H352.83V46.92H387.1V63.25A39.94,39.94,0,0,1,404.47,49.68Z"/><path class="cls-1" d="M535.23,164.69a36.78,36.78,0,0,1-13,5.86,65.8,65.8,0,0,1-16.21,2q-22.08,0-34.16-11.27t-12.07-33.12V77.28H440.7V49.68h19.09V19.55h35.88V49.68h30.82v27.6H495.67v50.38q0,7.82,4,12.07T511.08,144a23.05,23.05,0,0,0,14.49-4.6Z"/><path class="cls-1" d="M575.37,164.34a60.7,60.7,0,0,1-24.27-22.65q-8.75-14.49-8.74-32.9T551.1,75.9a60.7,60.7,0,0,1,24.27-22.65q15.52-8.16,35.07-8.17t35,8.17A60.9,60.9,0,0,1,669.56,75.9a62.5,62.5,0,0,1,8.74,32.89,62.51,62.51,0,0,1-8.74,32.9,60.9,60.9,0,0,1-24.15,22.65q-15.42,8.17-35,8.17T575.37,164.34Zm57.73-30.59q8.85-9.31,8.86-25t-8.86-25q-8.86-9.32-22.66-9.32t-22.77,9.32q-9,9.31-9,25t9,25q9,9.31,22.77,9.32T633.1,133.75Z"/><path class="cls-1" d="M755.35,122.14l-17.25,17v31.51H702.22V0H738.1V96.6l52.44-49.68h42.78L781.8,99.36l56.13,71.31H794.45Z"/><path class="cls-1" d="M945.8,58.77q15.41,13.68,15.41,41.28v70.62H927.63V155.26q-10.12,17.25-37.73,17.25-14.25,0-24.72-4.83a36.89,36.89,0,0,1-16-13.34A34.7,34.7,0,0,1,843.67,135q0-17.25,13-27.14T896.81,98h28.52q0-11.73-7.13-18T896.81,73.6a62.45,62.45,0,0,0-19.44,3.11,51.54,51.54,0,0,0-16.22,8.39L848.27,60a77.93,77.93,0,0,1,24.27-11,109,109,0,0,1,29.1-3.91Q930.38,45.08,945.8,58.77ZM915.21,144.1a23.29,23.29,0,0,0,10.12-12.53V118.92H900.72q-22.1,0-22.09,14.49A12.9,12.9,0,0,0,884,144.33q5.4,4,14.84,4A31.24,31.24,0,0,0,915.21,144.1Z"/><path class="cls-1" d="M993.64,0h35.88V170.67H993.64Z"/><path class="cls-1" d="M1062.87,0h35.88V170.67h-35.88Z"/><path class="cls-1" d="M1252.63,118.92H1159a29.18,29.18,0,0,0,12,18.17q9.43,6.67,23.46,6.67a47.45,47.45,0,0,0,17.14-2.88,41.5,41.5,0,0,0,13.92-9.08l19.09,20.7q-17.49,20-51.07,20-20.92,0-37-8.17a59.86,59.86,0,0,1-24.84-22.65q-8.75-14.49-8.74-32.9A63.24,63.24,0,0,1,1131.53,76a60.33,60.33,0,0,1,23.69-22.77,73.33,73.33,0,0,1,66.59-.35,57.14,57.14,0,0,1,23.11,22.43q8.4,14.61,8.4,33.92C1253.32,109.71,1253.09,112.94,1252.63,118.92Zm-84-39.8Q1160.39,86,1158.55,98h61q-1.85-11.73-10.12-18.74t-20.25-7Q1176.95,72.22,1168.67,79.12Z"/></g></g></svg>