<svg xmlns="http://www.w3.org/2000/svg" viewBox="0 0 125.82 193.92"><defs><style>.cls-1{fill:#4d9df4;}.cls-2{fill:#14bcb1;}.cls-3{fill:#b7d9f7;}.cls-4{fill:#d5e7f1;}.cls-5{fill:#68264a;}</style></defs><title>3</title><g id="Layer_2" data-name="Layer 2"><g id="Layer_4" data-name="Layer 4"><path class="cls-1" d="M30.86,102.93a110.52,110.52,0,0,1,66.68,1c-.52.94-1.09,1.84-1.65,2.69-2.41-1.09-10.16-4.06-24.23-5.19a1.46,1.46,0,0,0-1.6,1.36,1.51,1.51,0,0,0,1.37,1.61c12.6,1.09,20,3.64,22.71,4.72-7.75,10.44-18.23,18-29.37,18C51.59,127.06,38.89,116.38,30.86,102.93ZM64.34,101c-1.23,0-2.5,0-3.78-.09h0A1.57,1.57,0,0,0,59,102.41a1.51,1.51,0,0,0,1.51,1.51c1.27,0,2.55,0,3.73,0l0,.05a1.55,1.55,0,0,0,1.51-1.46A1.5,1.5,0,0,0,64.34,101Z"/><path class="cls-2" d="M62.45,138.34l-6.65-9.68a30.3,30.3,0,0,0,9,1.42,24.76,24.76,0,0,0,4.11-.33Z"/><path class="cls-3" d="M44.42,122.76a37.1,37.1,0,0,0,6.37,3.87.16.16,0,0,0,.05.14l6.89,10.06L40.87,128Z"/><path class="cls-3" d="M83.23,123.8l3.26,5.57-19.64,8.12,6.46-8.69s0,0,0-.09A35.85,35.85,0,0,0,83.23,123.8Z"/><path class="cls-4" d="M100.51,156.81H97.87a1.51,1.51,0,0,0-1.46,1.51,1.48,1.48,0,0,0,1.46,1.51h2.64a1.49,1.49,0,0,0,1.51-1.51A1.51,1.51,0,0,0,100.51,156.81Zm-8.12,0h-5.9v-3.26h17.85l2.27,19.4a2.35,2.35,0,0,1-.52,1.61,2,2,0,0,1-1.52.66l-14.73.1a3.13,3.13,0,0,1-2.36-.95,3.16,3.16,0,0,1-1-2.36V159.83h5.9a1.49,1.49,0,0,0,1.47-1.51A1.51,1.51,0,0,0,92.39,156.81Z"/><path class="cls-3" d="M15.66,147.79a1.46,1.46,0,0,0-1.94.8,47,47,0,0,0-1.89,5.67,1.55,1.55,0,0,0,1.09,1.84c.14,0,.24,0,.38,0A1.55,1.55,0,0,0,14.76,155a40.16,40.16,0,0,1,1.75-5.24A1.53,1.53,0,0,0,15.66,147.79ZM3.05,190.9c-.14-9.3.8-60.68,35.42-73.19A36.65,36.65,0,0,0,42,120.92l-4.58,6.8a1.54,1.54,0,0,0-.19,1.22,1.39,1.39,0,0,0,.75.95l22.91,12V190.9H9.28a167.69,167.69,0,0,1,3.21-29.18,1.5,1.5,0,1,0-2.92-.66A170.38,170.38,0,0,0,6.26,190.9Z"/><path class="cls-3" d="M89.84,178.34l14.78-.1a5,5,0,0,0,5-5.62l-2.41-20.73a1.45,1.45,0,0,0-1.46-1.32H85A1.48,1.48,0,0,0,83.47,152v20a6.17,6.17,0,0,0,1.89,4.49,6.28,6.28,0,0,0,4.43,1.84Zm32.82,12.56H63.92v-49l25.31-10.48a1.34,1.34,0,0,0,.85-.9,1.44,1.44,0,0,0-.14-1.23l-4.25-7.27a47,47,0,0,0,3.77-3.26C92.72,119.55,125.3,129.46,122.66,190.9Z"/><path class="cls-1" d="M22.69,29.17a1.53,1.53,0,0,0,.76.19,1.57,1.57,0,0,0,1.32-.76,1.53,1.53,0,0,0,.19-.76,1.57,1.57,0,0,0-.76-1.32,1.47,1.47,0,0,0-.75-.19,1.57,1.57,0,0,0-1.32.76A1.54,1.54,0,0,0,22.69,29.17ZM25.86,24a1.5,1.5,0,0,0,.94.33A1.39,1.39,0,0,0,28,23.83a1.45,1.45,0,0,0,.33-1,1.49,1.49,0,0,0-.52-1.13,1.51,1.51,0,0,0-2.12.23A1.49,1.49,0,0,0,25.86,24Zm4.29-6.56a1.5,1.5,0,0,0-.23,2.12,1.43,1.43,0,0,0,1.18.57,1.46,1.46,0,0,0,.94-.33,1.51,1.51,0,0,0,.57-1.18,1.24,1.24,0,0,0-.33-.9,1.56,1.56,0,0,0-1.23-.61A1.42,1.42,0,0,0,30.15,17.46ZM16.51,52.26A1.49,1.49,0,0,0,18,51v-.19a1.49,1.49,0,0,0-1.32-1.51h-.19A1.49,1.49,0,0,0,15,50.61a1.46,1.46,0,0,0,1.33,1.65Zm-.47,6a1.51,1.51,0,1,0-1.52-1.56A1.53,1.53,0,0,0,16,58.3Zm1.74-15H17.5a1.5,1.5,0,0,0-.33,3c.14,0,.24,0,.33,0A1.51,1.51,0,0,0,19,45.13v-.29A1.57,1.57,0,0,0,17.78,43.33Zm1.14-2.83a1.45,1.45,0,0,0,1.41-1.09,1.21,1.21,0,0,0,.05-.42,1.51,1.51,0,0,0-1.09-1.46,1.21,1.21,0,0,0-.42-.05,1.46,1.46,0,0,0-1.42,1.08,1.5,1.5,0,0,0,1,1.85A1.57,1.57,0,0,0,18.92,40.5ZM16.18,78.89c-7.13-19.83-5.72-39,4.06-54.11C28.6,11.79,42.1,3.67,56.46,3.05c1.18,0,2.26,0,3.35,0C86,3,90.88,17.08,91.07,17.74a1.54,1.54,0,0,0,1.27,1s6,.75,12.71,8.17c13.22,15.25,8.4,41,6,50.43-.38-1-.8-2.36-1.37-4.2-.33-1.09-.71-2.36-1.08-3.83a1.49,1.49,0,0,0-1.75-1.08c-4,.89-8.69-6.57-10.06-9.21a1.45,1.45,0,0,0-1.94-.71,1.51,1.51,0,0,0-.75,2,5.69,5.69,0,0,1-.52,5c-1.51,2.36-5.81,5.24-17.52,5.57-24,.66-47.88-10.44-48.12-10.53A1.47,1.47,0,0,0,26,61L19,73.7Zm3.26-46.18a1.5,1.5,0,0,0,.85,1.93,1.15,1.15,0,0,0,.56.15,1.52,1.52,0,0,0,1.37-.95,1.25,1.25,0,0,0,.14-.61,1.51,1.51,0,0,0-.94-1.37,2.35,2.35,0,0,0-.52-.1A1.55,1.55,0,0,0,19.44,32.71Z"/><path class="cls-5" d="M109.63,73.18a2.72,2.72,0,0,1,.09.56,50.85,50.85,0,0,1-.52,7,51.69,51.69,0,0,1-2.45-7.13,1.45,1.45,0,0,1,1.46-1.37A1.56,1.56,0,0,1,109.63,73.18Z"/><path class="cls-5" d="M101.13,103.54a1.53,1.53,0,0,0-.9-1.94,10.62,10.62,0,0,0-1.13-.37c4.77-8.74,7.6-18.56,7.6-27.49a.17.17,0,0,1,0-.14,51.69,51.69,0,0,0,2.45,7.13A66.91,66.91,0,0,1,100.94,104h0A1.8,1.8,0,0,0,101.13,103.54Z"/><path class="cls-5" d="M96.41,158.32a1.51,1.51,0,0,1,1.46-1.51h2.64a1.51,1.51,0,0,1,1.51,1.51,1.49,1.49,0,0,1-1.51,1.51H97.87A1.48,1.48,0,0,1,96.41,158.32Z"/><path class="cls-5" d="M99.24,104.48l-1.7-.56a24.51,24.51,0,0,0,1.56-2.69,10.62,10.62,0,0,1,1.13.37,1.53,1.53,0,0,1,.9,1.94,1.8,1.8,0,0,1-.24.42,1.43,1.43,0,0,1-1.18.57A1.51,1.51,0,0,1,99.24,104.48Z"/><path class="cls-5" d="M96.69,107a1.49,1.49,0,0,1,.66,2,1.52,1.52,0,0,1-1.37.8,1.31,1.31,0,0,1-.66-.19l-1.18-.52c.57-.8,1.18-1.65,1.75-2.5A4.2,4.2,0,0,1,96.69,107Z"/><path class="cls-5" d="M86.49,159.83v-3h5.9a1.51,1.51,0,0,1,1.47,1.51,1.49,1.49,0,0,1-1.47,1.51Z"/><path class="cls-5" d="M88,116.9a1.58,1.58,0,0,1,1.79-1.18,19.79,19.79,0,0,1,2.08.62c-.75.85-1.6,1.65-2.41,2.45a.71.71,0,0,0-.28-.09A1.56,1.56,0,0,1,88,116.9Z"/><path class="cls-5" d="M83.84,158.32a1.52,1.52,0,0,1,1.52-1.51h1.13v3H85.36A1.5,1.5,0,0,1,83.84,158.32Z"/><path class="cls-5" d="M83.23,120.78a1.46,1.46,0,0,1,2,.52l.43.75c-.81.61-1.61,1.23-2.46,1.75l-.57-1A1.44,1.44,0,0,1,83.23,120.78Z"/><path class="cls-5" d="M85.36,176.5A6.17,6.17,0,0,1,83.47,172V152A1.48,1.48,0,0,1,85,150.57h20.73a1.45,1.45,0,0,1,1.46,1.32l2.41,20.73a5,5,0,0,1-5,5.62l-14.78.1h0A6.28,6.28,0,0,1,85.36,176.5Zm0-19.69a1.52,1.52,0,0,0-1.52,1.51,1.5,1.5,0,0,0,1.52,1.51h1.13V172a3.16,3.16,0,0,0,1,2.36,3.13,3.13,0,0,0,2.36.95l14.73-.1a2,2,0,0,0,1.52-.66,2.35,2.35,0,0,0,.52-1.61l-2.27-19.4H86.49v3.26Z"/><path class="cls-5" d="M73,126.68a1.45,1.45,0,0,1,.38,2,25.9,25.9,0,0,1-4.48,1l2-2.74A1.49,1.49,0,0,1,73,126.68Z"/><path class="cls-5" d="M71.66,101.42c14.07,1.13,21.82,4.1,24.23,5.19-.57.85-1.18,1.7-1.75,2.5C91.45,108,84,105.48,71.43,104.39a1.51,1.51,0,0,1-1.37-1.61A1.46,1.46,0,0,1,71.66,101.42Z"/><path class="cls-5" d="M66.85,137.49l-3.17,4.25s0-.05,0-.09a1.48,1.48,0,0,0-.62-2l-.61-.33Z"/><path class="cls-5" d="M63.92,190.9v.52a1.52,1.52,0,0,1-1.51,1.51,1.55,1.55,0,0,1-1.51-1.51v-.52Z"/><path class="cls-5" d="M63.92,141.93v49h-3V141.84l.8.42a1.33,1.33,0,0,0,.71.19,1.59,1.59,0,0,0,.66-.14,1.37,1.37,0,0,0,.56-.47Z"/><path class="cls-5" d="M89.23,131.45,63.92,141.93l-.29-.09a.15.15,0,0,1,0-.1l3.17-4.25,19.64-8.12-3.26-5.57c.85-.52,1.65-1.14,2.46-1.75l4.25,7.27a1.44,1.44,0,0,1,.14,1.23A1.34,1.34,0,0,1,89.23,131.45Z"/><path class="cls-5" d="M63.11,139.62a1.48,1.48,0,0,1,.62,2s0,.09,0,.09a.15.15,0,0,0,0,.1,1.37,1.37,0,0,1-.56.47,1.78,1.78,0,0,1-.66.14,1.24,1.24,0,0,1-.71-.19,1.15,1.15,0,0,1-.52-.47l-.28-.43v-.42a1.48,1.48,0,0,1,.94-1.37l.66-.28Z"/><path class="cls-5" d="M62.41,142.45a1.78,1.78,0,0,0,.66-.14A1.59,1.59,0,0,1,62.41,142.45Z"/><path class="cls-5" d="M62.41,142.45a1.33,1.33,0,0,1-.71-.19A1.24,1.24,0,0,0,62.41,142.45Z"/><path class="cls-5" d="M61.7,142.26l-.8-.42v-.48l.28.43A1.15,1.15,0,0,0,61.7,142.26Z"/><path class="cls-5" d="M57.73,136.83l4.77,2.46-.66.28a1.48,1.48,0,0,0-.94,1.37v.42Z"/><path class="cls-5" d="M60.56,100.9c1.28,0,2.55,0,3.78.09a1.5,1.5,0,0,1,1.47,1.56A1.55,1.55,0,0,1,64.3,104l0-.05c-1.18,0-2.46,0-3.73,0A1.51,1.51,0,0,1,59,102.41a1.57,1.57,0,0,1,1.51-1.51Z"/><path class="cls-5" d="M53.29,125l2.51,3.63a28.74,28.74,0,0,1-5-2,1.43,1.43,0,0,1,.43-2A1.49,1.49,0,0,1,53.29,125Z"/><path class="cls-5" d="M62.5,139.29l-4.77-2.46-6.89-10.06a.16.16,0,0,1-.05-.14,28.74,28.74,0,0,0,5,2l6.65,9.68,6.43-8.59a25.9,25.9,0,0,0,4.48-1s0,0,0,.09l-6.46,8.69Z"/><path class="cls-5" d="M44.42,122.76A23.2,23.2,0,0,1,42,120.92l.28-.38a1.51,1.51,0,0,1,2.5,1.7Z"/><path class="cls-5" d="M40.87,128l16.86,8.83,3.17,4.53v.48L38,129.89a1.39,1.39,0,0,1-.75-.95,1.54,1.54,0,0,1,.19-1.22l4.58-6.8a23.2,23.2,0,0,0,2.41,1.84Z"/><path class="cls-5" d="M39.6,115.72a1.49,1.49,0,0,1-.9,1.89c-.09,0-.14,0-.23.1a21.16,21.16,0,0,1-2.27-2.36c.47-.19.94-.38,1.46-.57A1.51,1.51,0,0,1,39.6,115.72Z"/><path class="cls-5" d="M30.86,102.93c-.56-.9-1-1.8-1.56-2.7a114.46,114.46,0,0,1,69.8,1,24.51,24.51,0,0,1-1.56,2.69A110.52,110.52,0,0,0,30.86,102.93Z"/><path class="cls-5" d="M29.92,19.58a1.5,1.5,0,0,1,.23-2.12,1.42,1.42,0,0,1,.9-.33,1.56,1.56,0,0,1,1.23.61,1.24,1.24,0,0,1,.33.9A1.51,1.51,0,0,1,32,19.82a1.46,1.46,0,0,1-.94.33A1.43,1.43,0,0,1,29.92,19.58Z"/><path class="cls-5" d="M29,103.54c.57-.19,1.18-.38,1.84-.61,8,13.45,20.73,24.13,33.91,24.13,11.14,0,21.62-7.51,29.37-18l1.18.52a1.31,1.31,0,0,0,.66.19,1.52,1.52,0,0,0,1.37-.8,1.49,1.49,0,0,0-.66-2,4.2,4.2,0,0,0-.8-.38c.56-.85,1.13-1.75,1.65-2.69l1.7.56a1.51,1.51,0,0,0,.47,0,1.43,1.43,0,0,0,1.18-.57h0a65.71,65.71,0,0,1-9.07,12.38,19.79,19.79,0,0,0-2.08-.62A1.58,1.58,0,0,0,88,116.9a1.56,1.56,0,0,0,1.18,1.8.71.71,0,0,1,.28.09,47,47,0,0,1-3.77,3.26l-.43-.75a1.46,1.46,0,0,0-2-.52,1.44,1.44,0,0,0-.57,2l.57,1a35.85,35.85,0,0,1-9.87,4.91,1.45,1.45,0,0,0-.38-2,1.49,1.49,0,0,0-2.07.33l-2,2.74a24.76,24.76,0,0,1-4.11.33,30.3,30.3,0,0,1-9-1.42L53.29,125a1.49,1.49,0,0,0-2.07-.38,1.43,1.43,0,0,0-.43,2,37.1,37.1,0,0,1-6.37-3.87l.37-.52a1.51,1.51,0,0,0-2.5-1.7l-.28.38a36.65,36.65,0,0,1-3.54-3.21c.09,0,.14,0,.23-.1a1.49,1.49,0,0,0,.9-1.89,1.51,1.51,0,0,0-1.94-.94c-.52.19-1,.38-1.46.57a65.13,65.13,0,0,1-9.11-12.75h0A1.54,1.54,0,0,0,29,103.54Z"/><path class="cls-5" d="M29.3,100.23c.52.9,1,1.8,1.56,2.7-.66.23-1.27.42-1.84.61a1.54,1.54,0,0,1-1.89-.94,1.51,1.51,0,0,1,.95-1.94Z"/><path class="cls-5" d="M28.31,22.84a1.45,1.45,0,0,1-.33,1,1.39,1.39,0,0,1-1.18.52,1.46,1.46,0,0,1-1.13-2.41,1.51,1.51,0,0,1,2.12-.23A1.49,1.49,0,0,1,28.31,22.84Z"/><path class="cls-5" d="M24.2,26.52A1.57,1.57,0,0,1,25,27.84a1.53,1.53,0,0,1-.19.76,1.57,1.57,0,0,1-1.32.76,1.5,1.5,0,0,1-1.32-2.27,1.57,1.57,0,0,1,1.32-.76A1.47,1.47,0,0,1,24.2,26.52Z"/><path class="cls-5" d="M28.08,100.66a1.51,1.51,0,0,0-.95,1.94h0a62.5,62.5,0,0,1-7.65-23.33l2.69-4.87c0,8.32,2.69,17.48,7.17,25.83Z"/><path class="cls-5" d="M20.29,34.64a1.5,1.5,0,0,1-.85-1.93,1.55,1.55,0,0,1,1.46-.95,2.35,2.35,0,0,1,.52.1,1.51,1.51,0,0,1,.94,1.37,1.25,1.25,0,0,1-.14.61,1.52,1.52,0,0,1-1.37.95A1.15,1.15,0,0,1,20.29,34.64Z"/><path class="cls-5" d="M20.62,72.94a1.5,1.5,0,0,0-1.37.9L19,73.7,26,61a1.47,1.47,0,0,1,2-.61c.24.09,24.09,11.19,48.12,10.53,11.71-.33,16-3.21,17.52-5.57a5.69,5.69,0,0,0,.52-5,1.51,1.51,0,0,1,.75-2,1.45,1.45,0,0,1,1.94.71c1.37,2.64,6.09,10.1,10.06,9.21a1.49,1.49,0,0,1,1.75,1.08c.37,1.47.75,2.74,1.08,3.83h-.09a1.56,1.56,0,0,0-1.42-1,1.45,1.45,0,0,0-1.46,1.37c-.24-.66-.43-1.41-.66-2.22-3.64-.09-6.85-3.35-9-6.28a7.37,7.37,0,0,1-.9,1.8c-2.74,4.39-9.49,6.75-20,7C54.33,74.55,33.37,66.05,28,63.69L22.13,74.36A1.47,1.47,0,0,0,20.62,72.94Z"/><path class="cls-5" d="M19.44,79.27a42.39,42.39,0,0,1-.29-4.87,2.28,2.28,0,0,1,.1-.56,1.5,1.5,0,0,1,1.37-.9,1.47,1.47,0,0,1,1.51,1.42v0Z"/><path class="cls-5" d="M18.87,37.48a1.21,1.21,0,0,1,.42.05A1.51,1.51,0,0,1,20.38,39a1.21,1.21,0,0,1-.05.42,1.45,1.45,0,0,1-1.41,1.09,1.57,1.57,0,0,1-.43-.09,1.5,1.5,0,0,1-1-1.85A1.46,1.46,0,0,1,18.87,37.48Z"/><path class="cls-5" d="M19,44.84v.29a1.51,1.51,0,0,1-1.46,1.23c-.09,0-.19,0-.33,0a1.5,1.5,0,0,1,.33-3h.28A1.57,1.57,0,0,1,19,44.84Z"/><path class="cls-5" d="M18,50.79V51a1.49,1.49,0,0,1-1.51,1.28h-.14A1.46,1.46,0,0,1,15,50.61a1.49,1.49,0,0,1,1.47-1.33h.19A1.49,1.49,0,0,1,18,50.79Z"/><path class="cls-5" d="M17.55,56.84A1.51,1.51,0,0,1,16,58.3h0a1.51,1.51,0,1,1,1.56-1.46Z"/><path class="cls-5" d="M15.66,147.79a1.53,1.53,0,0,1,.85,2A40.16,40.16,0,0,0,14.76,155a1.55,1.55,0,0,1-1.46,1.13c-.14,0-.24,0-.38,0a1.55,1.55,0,0,1-1.09-1.84,47,47,0,0,1,1.89-5.67A1.46,1.46,0,0,1,15.66,147.79Z"/><path class="cls-5" d="M19.15,74.4a42.39,42.39,0,0,0,.29,4.87l-2.18,3.92a1.44,1.44,0,0,1-1.32.75h-.09A1.41,1.41,0,0,1,14.57,83c-8.78-21.82-7.7-43.07,3.12-59.88C26.57,9.33,41,.74,56.32.08,84.22-1.15,92,12.31,93.57,16c2.17.51,7.65,2.36,13.74,9,17.43,20.17,6.14,55.44,5.67,57a1.5,1.5,0,0,1-1.79,1c-.38-.09-1-.23-2-2.17a50.85,50.85,0,0,0,.52-7,2.72,2.72,0,0,0-.09-.56h.09c.57,1.84,1,3.21,1.37,4.2,2.36-9.4,7.18-35.18-6-50.43-6.76-7.42-12.66-8.17-12.71-8.17a1.54,1.54,0,0,1-1.27-1C90.88,17.08,86,3,59.81,3c-1.09,0-2.17,0-3.35,0C42.1,3.67,28.6,11.79,20.24,24.78,10.46,39.93,9.05,59.06,16.18,78.89L19,73.7l.24.14A2.28,2.28,0,0,0,19.15,74.4Z"/><path class="cls-5" d="M6.26,190.9a170.38,170.38,0,0,1,3.31-29.84,1.5,1.5,0,1,1,2.92.66A167.69,167.69,0,0,0,9.28,190.9Z"/><path class="cls-5" d="M9.28,190.9v.19a1.51,1.51,0,0,1-3,0v-.19Z"/><path class="cls-5" d="M36.2,115.35a21.16,21.16,0,0,0,2.27,2.36C3.85,130.22,2.91,181.6,3.05,190.9H6.26v.19a1.51,1.51,0,0,0,3,0v-.19H60.9v.52a1.55,1.55,0,0,0,1.51,1.51,1.52,1.52,0,0,0,1.51-1.51v-.52h58.74c2.64-61.44-29.94-71.35-33.2-72.11.81-.8,1.66-1.6,2.41-2.45,8,2.83,36.79,17.14,33.72,76.16a1.5,1.5,0,0,1-1.51,1.42H1.59A1.51,1.51,0,0,1,.07,192.5C-.07,190-2.48,130.55,36.2,115.35Z"/></g></g></svg>