<svg id="Capa_1" enable-background="new 0 0 512 512" height="512" viewBox="0 0 512 512" width="512" xmlns="http://www.w3.org/2000/svg"><g><path d="m15 180.999h-15v225.001h211v-15h-196z"/><path d="m226 391h15.001v15h-15.001z"/><path d="m437 353.5h-45v22.5h-22.5v45h22.5v22.5h45v-22.5h22.5v-45h-22.5zm7.5 37.5v15h-22.5v22.5h-15v-22.5h-22.5v-15h22.5v-22.5h15v22.5z"/><path d="m467 316.373v-247.873c0-12.406-10.093-22.5-22.499-22.5h-22.5v-30h-45v30h-29.999v-30h-45v30h-137.003v-30h-45v30h-29.999v-30h-45v30h-22.5c-12.406 0-22.5 10.094-22.5 22.5v97.499h15v-30h437v172.505c-11.55-4.831-24.218-7.504-37.5-7.504-51.239 0-93.372 39.729-97.214 90h-61.285v15h61.285c3.842 50.271 45.976 90 97.214 90 53.762 0 97.5-43.738 97.5-97.5 0-34.447-17.956-64.778-45-82.127zm-74.999-285.373h15v45h-15zm-74.999 0h15v45h-15zm-182.003 0h15v45h-15zm-74.999 0h15v45h-15zm-45 90v-52.5c0-4.135 3.364-7.5 7.5-7.5h22.5v30h45v-30h29.999v30h45v-30h137.003v30h45v-30h29.999v30h45v-30h22.5c4.135 0 7.499 3.364 7.499 7.5v52.5zm399.5 360c-45.49 0-82.5-37.009-82.5-82.5s37.01-82.5 82.5-82.5 82.5 37.009 82.5 82.5-37.01 82.5-82.5 82.5z"/><path d="m128.501 293.498h60v-60h-60zm15-45h30v30h-30z"/><path d="m113.502 158.499h-60v60h60zm-15 45h-30v-30h30z"/><path d="m53.502 368.497h60v-60h-60zm15-45h30v30h-30z"/><path d="m53.502 293.498h60v-60h-60zm15-45h30v30h-30z"/><path d="m128.501 368.497h60v-60h-60zm15-45h30v30h-30z"/><path d="m338.5 158.499h-60v60h60zm-15 45h-30v-30h30z"/><path d="m353.499 158.499v60h60v-60zm45 45h-30v-30h30z"/><path d="m278.5 293.498h60v-60h-60zm15-45h30v30h-30z"/><path d="m188.501 158.499h-60v60h60zm-15 45h-30v-30h30z"/><path d="m203.501 368.497h60v-60h-60zm15-45h30v30h-30z"/><path d="m203.501 293.498h60v-60h-60zm15-45h30v30h-30z"/><path d="m263.501 158.499h-60v60h60zm-15 45h-30v-30h30z"/><path d="m211 76h15v15h-15z"/><path d="m241.001 76h15v15h-15z"/></g></svg>