<?xml version="1.0" encoding="utf-8"?>
<!-- Generator: Adobe Illustrator 24.0.0, SVG Export Plug-In . SVG Version: 6.00 Build 0)  -->
<svg version="1.1" xmlns="http://www.w3.org/2000/svg" xmlns:xlink="http://www.w3.org/1999/xlink" x="0px" y="0px"
	 viewBox="0 0 97.1 94.6" style="enable-background:new 0 0 97.1 94.6;" xml:space="preserve">
<style type="text/css">
	.st0{opacity:0.1;}
	.st1{clip-path:url(#SVGID_2_);}
	.st2{fill:#B2C5CC;}
	.st3{fill:#ADC0C7;}
	.st4{fill:#A9BBC2;}
	.st5{fill:#A4B6BD;}
	.st6{fill:#A0B1B8;}
	.st7{fill:#9BACB3;}
	.st8{fill:#97A7AD;}
	.st9{fill:#93A2A8;}
	.st10{fill:#8E9DA3;}
	.st11{fill:#8A999E;}
	.st12{fill:#859499;}
	.st13{fill:#818F94;}
	.st14{fill:#7C8A8F;}
	.st15{fill:#78858A;}
	.st16{fill:#738085;}
	.st17{fill:#8AAFBF;}
	.st18{clip-path:url(#SVGID_4_);}
	.st19{clip-path:url(#SVGID_6_);}
	.st20{fill:#DEF6FF;}
	.st21{fill:#ABBEC5;}
	.st22{fill:#778488;}
	.st23{clip-path:url(#SVGID_8_);}
	.st24{fill:#87ABBB;}
	.st25{fill:#84A7B7;}
	.st26{fill:#80A3B2;}
	.st27{fill:#7D9EAD;}
	.st28{fill:#7A9AA8;}
	.st29{fill:#7696A4;}
	.st30{fill:#73929F;}
	.st31{fill:#708D9A;}
	.st32{fill:#6C8996;}
	.st33{fill:#698591;}
	.st34{clip-path:url(#SVGID_10_);}
	.st35{fill:#586F7A;}
	.st36{fill:#5B747E;}
	.st37{fill:#5F7883;}
	.st38{fill:#627C88;}
	.st39{fill:#65808C;}
	.st40{fill:#D70010;}
	.st41{fill:#BFD4DB;}
	.st42{fill:#B2DDEA;}
	.st43{clip-path:url(#SVGID_12_);}
	.st44{clip-path:url(#SVGID_14_);}
	.st45{clip-path:url(#SVGID_16_);}
	.st46{clip-path:url(#SVGID_18_);}
	.st47{clip-path:url(#SVGID_20_);}
	.st48{clip-path:url(#SVGID_22_);}
	.st49{clip-path:url(#SVGID_24_);}
	.st50{clip-path:url(#SVGID_26_);}
	.st51{clip-path:url(#SVGID_28_);}
	.st52{clip-path:url(#SVGID_30_);}
	.st53{clip-path:url(#SVGID_32_);}
	.st54{clip-path:url(#SVGID_34_);}
	.st55{fill:#5FB7DD;}
	.st56{fill:#7A0110;}
	.st57{fill:#FF2741;}
	.st58{fill:#2B0D04;}
	.st59{fill:#EFB185;}
	.st60{fill:#5FB9E6;}
	.st61{fill:#77D2FF;}
	.st62{fill:#E8A476;}
	.st63{fill:#DB9669;}
	.st64{fill:#F1B287;}
	.st65{fill:#EFF3FC;}
	.st66{display:none;}
	.st67{display:inline;}
	.st68{fill:#101010;}
</style>
<g id="Layer_1">
	<title>10</title>
	<g id="Layer_2_1_">
		<g id="Layer_1-2">
			<g class="st0">
				<polygon points="0,76 27.1,91.7 89.5,55.6 61.8,39.3 				"/>
			</g>
			<g>
				<g>
					<defs>
						<path id="SVGID_1_" d="M54.1,61.3c6.1-3.6,11.1-12.2,11.1-19.2l1.7,1c0,7.1-4.9,15.6-11.1,19.2L54.1,61.3z"/>
					</defs>
					<clipPath id="SVGID_2_">
						<use xlink:href="#SVGID_1_"  style="overflow:visible;"/>
					</clipPath>
					<g class="st1">
						<g>
							<path class="st2" d="M55.8,62.3l-1.7-1c1.4-0.8,2.6-1.8,3.7-2.9l1.7,1C58.4,60.5,57.2,61.5,55.8,62.3z"/>
							<path class="st3" d="M59.5,59.4l-1.7-1l1.2-1.3l1.8,1C60.4,58.6,60,59,59.5,59.4z"/>
							<path class="st4" d="M60.8,58.1l-1.8-1l0.9-1.1l1.8,1L60.8,58.1z"/>
							<path class="st5" d="M61.7,57l-1.8-1l0.8-1l1.7,1C62.2,56.3,62,56.7,61.7,57z"/>
							<path class="st6" d="M62.4,56l-1.7-1l0.6-0.9l1.7,1L62.4,56z"/>
							<path class="st7" d="M63,55.1l-1.7-1l0.6-1l1.7,1L63,55.1z"/>
							<path class="st8" d="M63.6,54.1l-1.7-1l0.5-0.9l1.7,1C64,53.5,63.8,53.8,63.6,54.1z"/>
							<path class="st9" d="M64.1,53.2l-1.7-1c0.2-0.3,0.4-0.7,0.5-1l1.7,1C64.5,52.6,64.3,52.9,64.1,53.2z"/>
							<path class="st10" d="M64.6,52.2l-1.7-1l0.4-0.9l1.8,1L64.6,52.2z"/>
							<path class="st11" d="M65.1,51.3l-1.8-1c0.2-0.3,0.3-0.7,0.4-1l1.8,1C65.3,50.6,65.2,50.9,65.1,51.3z"/>
							<path class="st12" d="M65.5,50.3l-1.8-1c0.2-0.3,0.3-0.7,0.4-1.1l1.7,1C65.8,49.2,65.5,50.3,65.5,50.3z"/>
							<path class="st13" d="M65.8,49.2l-1.7-1c0.1-0.4,0.3-0.7,0.4-1.1l1.7,1C66.1,48.5,66,48.9,65.8,49.2z"/>
							<path class="st14" d="M66.2,48.1l-1.7-1l0.3-1.3l1.7,1L66.2,48.1z"/>
							<path class="st15" d="M66.5,46.8l-1.7-1c0.1-0.5,0.2-1,0.2-1.5l1.8,1L66.5,46.8z"/>
							<path class="st16" d="M66.8,45.3l-1.8-1c0.1-0.7,0.2-1.5,0.2-2.2c0-3.5-1.3-6-3.3-7.1l1.8,1c2,1.1,3.2,3.6,3.2,7.1
								C66.9,43.8,66.9,44.6,66.8,45.3z"/>
						</g>
					</g>
				</g>
			</g>
			<polygon class="st17" points="52.1,56.6 50.4,55.6 59.4,45.4 61.1,46.4 			"/>
			<g>
				<g>
					<defs>
						<path id="SVGID_3_" d="M46.2,62.1c2,1.1,4.8,1,7.9-0.8l1.7,1c-3.1,1.8-5.9,1.9-7.9,0.8L46.2,62.1z"/>
					</defs>
					<clipPath id="SVGID_4_">
						<use xlink:href="#SVGID_3_"  style="overflow:visible;"/>
					</clipPath>
					<g class="st18">
						<g>
							<path class="st11" d="M47.9,63.1l-1.7-1h0.1L47.9,63.1L47.9,63.1z"/>
							<path class="st10" d="M48,63.1l-1.7-1l0.5,0.3l1.7,1L48,63.1z"/>
							<path class="st9" d="M48.5,63.4l-1.7-1l0.6,0.2l1.7,1L48.5,63.4z"/>
							<path class="st8" d="M49.1,63.6l-1.7-1H48l1.8,1H49.1z"/>
							<path class="st7" d="M49.8,63.7l-1.8-1h0.7l1.7,1H49.8z"/>
							<path class="st6" d="M50.4,63.8l-1.7-1h0.7l1.8,1H50.4z"/>
							<path class="st5" d="M51.2,63.8l-1.8-1h0.9l1.7,1H51.2z"/>
							<path class="st4" d="M52,63.7l-1.7-1l0.9-0.2l1.8,1L52,63.7z"/>
							<path class="st3" d="M53,63.5l-1.8-1l1.4-0.4l1.7,1C54.3,63.1,53,63.5,53,63.5z"/>
							<path class="st2" d="M54.3,63.1l-1.7-1l1.5-0.8l1.7,1L54.3,63.1z"/>
						</g>
					</g>
				</g>
			</g>
			<g>
				<g>
					<defs>
						<path id="SVGID_5_" d="M65.2,42.1c0-3.5-1.3-6-3.3-7.1l1.8,1c2,1.1,3.2,3.6,3.2,7.1L65.2,42.1z"/>
					</defs>
					<clipPath id="SVGID_6_">
						<use xlink:href="#SVGID_5_"  style="overflow:visible;"/>
					</clipPath>
					<g class="st19">
						<g>
							<path class="st16" d="M66.8,45.3l-1.8-1c0.1-0.7,0.2-1.5,0.2-2.2c0-3.5-1.3-6-3.3-7.1l1.8,1c2,1.1,3.2,3.6,3.2,7.1
								C66.9,43.8,66.9,44.6,66.8,45.3z"/>
						</g>
					</g>
				</g>
			</g>
			<polygon class="st20" points="52.1,46.6 61.1,46.4 52.1,56.6 			"/>
			<polygon class="st21" points="52.1,46.6 50.4,45.6 59.4,45.4 61.1,46.4 			"/>
			<polygon class="st22" points="52.1,56.6 50.4,55.6 50.4,45.6 52.1,46.6 			"/>
			<g>
				<g>
					<defs>
						<path id="SVGID_7_" d="M61.9,35l1.8,1c-2.1-1.2-4.9-1-7.9,0.7l-1.8-1C57.1,33.9,59.9,33.8,61.9,35z"/>
					</defs>
					<clipPath id="SVGID_8_">
						<use xlink:href="#SVGID_7_"  style="overflow:visible;"/>
					</clipPath>
					<g class="st23">
						<g>
							<path class="st24" d="M55.8,36.7l-1.8-1l1.6-0.7l1.7,1L55.8,36.7z"/>
							<path class="st25" d="M57.3,36l-1.7-1l1.3-0.5l1.7,1L57.3,36z"/>
							<path class="st26" d="M58.6,35.5l-1.7-1l1-0.2l1.7,1L58.6,35.5z"/>
							<path class="st27" d="M59.6,35.3l-1.7-1h0.8l1.7,1H59.6z"/>
							<path class="st28" d="M60.4,35.2l-1.7-1h0.7l1.8,1H60.4z"/>
							<path class="st29" d="M61.2,35.2l-1.8-1h0.7l1.7,1H61.2z"/>
							<path class="st30" d="M61.8,35.3l-1.7-1h0.6l1.8,1H61.8z"/>
							<path class="st31" d="M62.5,35.4l-1.8-1l0.6,0.2l1.8,1.1L62.5,35.4z"/>
							<path class="st32" d="M63.1,35.7l-1.8-1.1l0.6,0.3l1.7,1L63.1,35.7z"/>
							<path class="st33" d="M63.6,35.9l-1.7-1l0,0L63.6,35.9C63.6,35.9,63.6,35.9,63.6,35.9L63.6,35.9z"/>
						</g>
					</g>
				</g>
			</g>
			<g>
				<g>
					<defs>
						<path id="SVGID_9_" d="M47.9,63.1l-1.7-1c-2-1.2-3.2-3.7-3.2-7.2c-0.1-7,4.9-15.6,11-19.2l1.8,1c-6.2,3.6-11.1,12.2-11.1,19.2
							C44.7,59.4,45.9,61.9,47.9,63.1z"/>
					</defs>
					<clipPath id="SVGID_10_">
						<use xlink:href="#SVGID_9_"  style="overflow:visible;"/>
					</clipPath>
					<g class="st34">
						<g>
							<path class="st35" d="M47.9,63.1l-1.7-1c-2-1.2-3.2-3.7-3.2-7.2c-0.1-0.7,0-1.4,0.1-2.1l1.7,1c-0.1,0.7-0.1,1.4-0.1,2.1
								C44.7,59.4,45.9,61.9,47.9,63.1z"/>
							<path class="st36" d="M44.8,53.8l-1.7-1c0-0.5,0.1-1.1,0.3-1.6l1.7,1L44.8,53.8z"/>
							<path class="st37" d="M45.1,52.2l-1.7-1c0.1-0.4,0.2-0.9,0.3-1.3l1.7,1L45.1,52.2z"/>
							<path class="st38" d="M45.4,50.9l-1.7-1l0.3-1.1l1.7,1L45.4,50.9z"/>
							<path class="st39" d="M45.7,49.8l-1.7-1l0.4-1l1.7,1C46,49.1,45.9,49.5,45.7,49.8z"/>
							<path class="st33" d="M46.1,48.8l-1.7-1c0.1-0.3,0.2-0.7,0.4-1l1.7,1L46.1,48.8z"/>
							<path class="st32" d="M46.5,47.8l-1.7-1c0.1-0.3,0.2-0.7,0.4-1l1.8,1C46.8,47.1,46.6,47.5,46.5,47.8z"/>
							<path class="st31" d="M47,46.8l-1.8-1c0.2-0.3,0.4-0.6,0.5-1l1.7,1C47.3,46.1,47.2,46.5,47,46.8z"/>
							<path class="st30" d="M47.4,45.8l-1.7-1c0.2-0.3,0.4-0.6,0.5-0.9l1.8,1L47.4,45.8z"/>
							<path class="st29" d="M48,44.9l-1.8-1l0.6-0.9l1.7,1L48,44.9z"/>
							<path class="st28" d="M48.5,44l-1.7-1c0.2-0.4,0.4-0.7,0.7-1l1.7,1L48.5,44z"/>
							<path class="st27" d="M49.2,43l-1.7-1c0.2-0.4,0.4-0.7,0.7-1l1.7,1L49.2,43z"/>
							<path class="st26" d="M49.9,42l-1.7-1l0.9-1.1l1.7,1L49.9,42z"/>
							<path class="st25" d="M50.8,40.9l-1.7-1l1.2-1.3l1.7,1L50.8,40.9z"/>
							<path class="st24" d="M52,39.6l-1.7-1c1.1-1.1,2.4-2.1,3.7-2.9l1.8,1C54.4,37.5,53.2,38.5,52,39.6z"/>
						</g>
					</g>
				</g>
			</g>
			<path class="st40" d="M55.8,36.7c6.1-3.5,11.1-0.7,11.1,6.4S62,58.7,55.8,62.3c-6.2,3.6-11.1,0.7-11.1-6.4S49.6,40.3,55.8,36.7z
				 M52.1,56.6l9-10.2l-9,0.2V56.6z"/>
			<polygon class="st41" points="24,46.2 22.3,45.2 88,7.3 89.8,8.3 			"/>
			<path class="st20" d="M24,46.2L89.8,8.3v44.9c-0.1,1.2-0.7,2.3-1.7,2.9l-62.4,36c-0.9,0.5-1.6,0.1-1.6-0.9L24,46.2z M55.8,62.3
				c6.2-3.6,11.1-12.1,11.1-19.2s-5-9.9-11.1-6.4S44.7,48.9,44.7,55.9S49.7,65.8,55.8,62.3z"/>
			<path class="st42" d="M24.2,91.2l-0.2-45l-1.7-1v45c0,0.4,0.2,0.8,0.5,1l1.8,1C24.3,92,24.1,91.6,24.2,91.2z"/>
			<g>
				<g>
					<defs>
						<path id="SVGID_11_" d="M36.7,33.2c0.1-0.4-0.1-0.8-0.5-1l1.8,1c0.3,0.3,0.4,0.6,0.4,1l0,0l-1.1-0.7L36.7,33.2l1.7,1
							c-0.1,1-0.6,2-1.5,2.6l-1.7-1C36.1,35.2,36.6,34.2,36.7,33.2z"/>
					</defs>
					<clipPath id="SVGID_12_">
						<use xlink:href="#SVGID_11_"  style="overflow:visible;"/>
					</clipPath>
					<g class="st43">
						<g>
							<path class="st24" d="M36.9,36.8l-1.7-1l0.5-0.4l1.7,1L36.9,36.8z"/>
							<path class="st25" d="M37.4,36.4l-1.7-1c0-0.1,0.1-0.1,0.1-0.2l1.8,1C37.5,36.3,37.4,36.3,37.4,36.4z"/>
							<path class="st26" d="M37.6,36.2l-1.8-1c0.1,0,0.1,0,0.1-0.1L37.6,36.2C37.6,36.1,37.6,36.1,37.6,36.2z"/>
							<path class="st27" d="M37.7,36.1l-1.8-1C36,35,36,35,36,34.9l1.8,1C37.7,36,37.7,36,37.7,36.1z"/>
							<path class="st28" d="M37.8,35.9l-1.8-1c0.1,0,0.1,0,0.1-0.1L37.8,35.9C37.8,35.8,37.8,35.8,37.8,35.9z"/>
							<path class="st29" d="M37.9,35.8l-1.8-1h0.1L37.9,35.8z"/>
							<path class="st30" d="M37.9,35.7l-1.7-1c0-0.1,0.1-0.1,0.1-0.2l1.7,1C38,35.6,38,35.6,37.9,35.7z"/>
							<path class="st31" d="M38,35.5l-1.7-1h0.1L38,35.5C38.1,35.6,38.1,35.6,38,35.5L38,35.5z"/>
							<path class="st32" d="M38.1,35.4l-1.7-1l0,0L38.1,35.4z"/>
							<path class="st33" d="M38.1,35.3l-1.7-1c0-0.1,0.1-0.1,0.1-0.2l1.7,1C38.2,35.2,38.2,35.2,38.1,35.3z"/>
							<path class="st39" d="M38.2,35.1l-1.7-1l0,0L38.2,35.1z"/>
							<path class="st38" d="M38.2,35l-1.7-1c0-0.1,0.1-0.1,0.1-0.2l1.7,1C38.3,34.9,38.3,35,38.2,35z"/>
							<path class="st37" d="M38.3,34.8l-1.7-1l0,0L38.3,34.8z"/>
							<path class="st36" d="M38.3,34.7l-1.7-1v-0.2l1.8,1C38.4,34.6,38.4,34.6,38.3,34.7z"/>
							<path class="st35" d="M38.4,34.5l-1.8-1c0.1-0.1,0.1-0.2,0.1-0.3c0.1-0.4-0.1-0.8-0.5-1l1.8,1c0.3,0.3,0.4,0.6,0.4,1V34.5z"
								/>
						</g>
					</g>
				</g>
			</g>
			<g>
				<g>
					<defs>
						<path id="SVGID_13_" d="M36.2,32.2h0.3l1.5,0.9c-0.3-0.2-0.8-0.2-1.1,0.1l-1.8-1C35.6,32,36,32,36.2,32.2z"/>
					</defs>
					<clipPath id="SVGID_14_">
						<use xlink:href="#SVGID_13_"  style="overflow:visible;"/>
					</clipPath>
					<g class="st44">
						<g>
							<path class="st2" d="M36.9,33.3l-1.8-1h0.3l1.7,1H36.9z"/>
							<path class="st3" d="M37.1,33.2l-1.7-1h0.1l1.8,1H37.1z"/>
							<path class="st4" d="M37.3,33.1l-1.8-1h0.2l1.7,1H37.3z"/>
							<path class="st5" d="M37.4,33.1l-1.7-1h0.1L37.4,33.1L37.4,33.1z"/>
							<path class="st6" d="M37.5,33.1l-1.7-1h0.1L37.5,33.1L37.5,33.1z"/>
							<path class="st7" d="M37.6,33.1l-1.7-1H36l1.7,1H37.6z"/>
							<path class="st8" d="M37.7,33.1l-1.7-1h0.1L37.7,33.1L37.7,33.1z"/>
							<path class="st9" d="M37.8,33.1l-1.7-1l0,0L37.8,33.1L37.8,33.1z"/>
							<path class="st10" d="M37.9,33.1l-1.8-1c0.1,0,0.1,0,0.1,0.1L37.9,33.1L37.9,33.1z"/>
							<polygon class="st11" points="37.9,33.2 36.2,32.2 36.2,32.2 38,33.2 37.9,33.2 							"/>
						</g>
					</g>
				</g>
			</g>
			<g>
				<g>
					<defs>
						<path id="SVGID_15_" d="M35.8,36.9l-1.7-1c-0.3-0.2-0.5-0.6-0.5-1c0.1-1.1,0.6-2,1.5-2.6l1.8,1c-0.9,0.6-1.5,1.5-1.5,2.6
							C35.3,36.3,35.5,36.7,35.8,36.9z"/>
					</defs>
					<clipPath id="SVGID_16_">
						<use xlink:href="#SVGID_15_"  style="overflow:visible;"/>
					</clipPath>
					<g class="st45">
						<g>
							<path class="st16" d="M35.8,36.9l-1.7-1c-0.3-0.2-0.5-0.6-0.5-1v-0.3l1.8,1v0.3C35.3,36.3,35.5,36.7,35.8,36.9z"/>
							<path class="st15" d="M35.4,35.6l-1.8-1c0.1-0.1,0.1-0.1,0.1-0.2l1.7,1V35.6z"/>
							<path class="st14" d="M35.4,35.4l-1.7-1v-0.2l1.8,1C35.4,35.3,35.4,35.3,35.4,35.4z"/>
							<path class="st13" d="M35.5,35.2l-1.8-1h0.1L35.5,35.2z"/>
							<path class="st12" d="M35.5,35.1l-1.7-1v-0.2l1.7,1V35.1z"/>
							<path class="st11" d="M35.5,34.9l-1.7-1h0.1L35.5,34.9C35.6,35,35.6,35,35.5,34.9L35.5,34.9z"/>
							<path class="st10" d="M35.6,34.8l-1.7-1l0,0L35.6,34.8L35.6,34.8z"/>
							<path class="st9" d="M35.7,34.7l-1.8-1c0.1-0.1,0.1-0.1,0.1-0.2l1.7,1V34.7z"/>
							<path class="st8" d="M35.7,34.5l-1.7-1c0.1,0,0.1,0,0.1-0.1L35.7,34.5C35.8,34.5,35.8,34.5,35.7,34.5z"/>
							<path class="st7" d="M35.8,34.4l-1.7-1c0-0.1,0-0.1,0.1-0.1L35.8,34.4L35.8,34.4z"/>
							<path class="st6" d="M35.9,34.3l-1.7-1v-0.2L35.9,34.3L35.9,34.3z"/>
							<path class="st5" d="M36,34.2l-1.8-1.1c0.1,0,0.1,0,0.1-0.1l1.8,1C36,34.1,36,34.1,36,34.2z"/>
							<path class="st4" d="M36.1,34l-1.8-1h0.2l1.7,1H36.1z"/>
							<path class="st3" d="M36.2,33.9l-1.7-1c0-0.1,0-0.1,0.1-0.2l1.8,1C36.3,33.7,36.2,33.8,36.2,33.9
								C36.2,33.9,36.2,33.9,36.2,33.9z"/>
							<path class="st2" d="M36.4,33.7l-1.8-1l0.5-0.4l1.8,1C36.7,33.4,36.5,33.5,36.4,33.7z"/>
						</g>
					</g>
				</g>
			</g>
			<g>
				<g>
					<defs>
						<polygon id="SVGID_17_" points="32.8,35.6 34.3,36.5 34.3,36.5 						"/>
					</defs>
					<clipPath id="SVGID_18_">
						<use xlink:href="#SVGID_17_"  style="overflow:visible;"/>
					</clipPath>
					<g class="st46">
						<g>
							<path class="st35" d="M34.3,36.8l-1.7-1v-0.3c0-0.4-0.1-0.7-0.4-1l1.7,1c0.3,0.2,0.5,0.6,0.4,1V36.8z"/>
						</g>
					</g>
				</g>
			</g>
			<g>
				<g>
					<defs>
						<path id="SVGID_19_" d="M32.6,35.5c0-0.4-0.1-0.7-0.4-1l1.7,1c0.3,0.2,0.5,0.6,0.4,1l0,0L32.6,35.5l1.7,1c0,1.1-0.6,2-1.5,2.6
							l-1.7-1C32,37.5,32.5,36.6,32.6,35.5z"/>
					</defs>
					<clipPath id="SVGID_20_">
						<use xlink:href="#SVGID_19_"  style="overflow:visible;"/>
					</clipPath>
					<g class="st47">
						<g>
							<path class="st24" d="M32.8,39.1l-1.7-1l0.5-0.4l1.7,1C33.2,38.9,33,39,32.8,39.1z"/>
							<path class="st25" d="M33.3,38.7l-1.7-1h0.2l1.7,1H33.3z"/>
							<path class="st26" d="M33.5,38.6l-1.7-1c0-0.1,0.1-0.1,0.1-0.2l1.7,1C33.6,38.5,33.5,38.5,33.5,38.6z"/>
							<path class="st27" d="M33.6,38.4l-1.7-1H32l1.7,1C33.7,38.5,33.7,38.5,33.6,38.4L33.6,38.4z"/>
							<path class="st28" d="M33.7,38.3l-1.7-1c0-0.1,0.1-0.1,0.1-0.2l1.7,1C33.8,38.2,33.8,38.2,33.7,38.3z"/>
							<path class="st29" d="M33.8,38.1l-1.7-1c0-0.1,0-0.1,0.1-0.1L33.8,38.1C33.9,38.1,33.9,38.1,33.8,38.1z"/>
							<path class="st30" d="M33.9,38l-1.7-1l0,0L33.9,38C33.9,38,33.9,38,33.9,38L33.9,38z"/>
							<path class="st31" d="M34,37.9l-1.8-1v-0.2l1.8,1.1V37.9z"/>
							<path class="st32" d="M34,37.8l-1.7-1.1h0.1L34,37.8c0.1,0,0,0,0,0.1V37.8z"/>
							<path class="st33" d="M34.1,37.6l-1.7-1l0,0L34.1,37.6z"/>
							<path class="st39" d="M34.1,37.5l-1.7-1c0-0.1,0.1-0.1,0.1-0.2l1.7,1C34.2,37.4,34.2,37.4,34.1,37.5z"/>
							<path class="st38" d="M34.2,37.3l-1.7-1l0,0L34.2,37.3z"/>
							<path class="st37" d="M34.2,37.2l-1.7-1c0-0.1,0-0.1,0.1-0.2l1.7,1C34.3,37.1,34.3,37.1,34.2,37.2z"/>
							<path class="st36" d="M34.3,37l-1.7-1v-0.2l1.7,1V37z"/>
							<path class="st35" d="M34.3,36.8l-1.7-1v-0.3c0-0.4-0.1-0.7-0.4-1l1.7,1c0.3,0.2,0.5,0.6,0.4,1V36.8z"/>
						</g>
					</g>
				</g>
			</g>
			<g>
				<g>
					<defs>
						<path id="SVGID_21_" d="M30,38.2c0.3,0.2,0.8,0.2,1.1-0.1l1.5,0.9h0.2c-0.3,0.3-0.8,0.3-1.1,0.1L30,38.2z"/>
					</defs>
					<clipPath id="SVGID_22_">
						<use xlink:href="#SVGID_21_"  style="overflow:visible;"/>
					</clipPath>
					<g class="st48">
						<g>
							<polygon class="st33" points="31.7,39.2 30,38.2 30,38.2 31.7,39.2 31.7,39.2 							"/>
							<path class="st32" d="M31.7,39.2l-1.7-1h0.1l1.7,1H31.7z"/>
							<path class="st31" d="M31.8,39.3l-1.7-1h0.1l1.7,1H31.8z"/>
							<path class="st30" d="M31.9,39.3l-1.7-1h0.1l1.7,1H31.9z"/>
							<path class="st29" d="M32,39.3l-1.7-1h0.1L32,39.3L32,39.3z"/>
							<path class="st28" d="M32.1,39.3l-1.7-1h0.1L32.1,39.3L32.1,39.3z"/>
							<path class="st27" d="M32.2,39.3l-1.7-1h0.1L32.2,39.3L32.2,39.3z"/>
							<path class="st26" d="M32.3,39.3l-1.7-1h0.1L32.3,39.3L32.3,39.3z"/>
							<path class="st25" d="M32.4,39.3l-1.7-1h0.2l1.7,1H32.4z"/>
							<path class="st24" d="M32.6,39.2l-1.7-1h0.2l1.7,1C32.8,39.3,32.7,39.3,32.6,39.2L32.6,39.2z"/>
						</g>
					</g>
				</g>
			</g>
			<g>
				<g>
					<defs>
						<path id="SVGID_23_" d="M32.2,34.5l1.7,1c-0.4-0.1-0.8-0.1-1.1,0.1l-1.7-1C31.4,34.4,31.8,34.4,32.2,34.5z"/>
					</defs>
					<clipPath id="SVGID_24_">
						<use xlink:href="#SVGID_23_"  style="overflow:visible;"/>
					</clipPath>
					<g class="st49">
						<g>
							<path class="st2" d="M32.8,35.6l-1.7-1h0.2l1.7,1C33,35.7,32.9,35.7,32.8,35.6L32.8,35.6z"/>
							<path class="st3" d="M33,35.5l-1.7-1h0.2l1.7,1H33z"/>
							<path class="st4" d="M33.2,35.5l-1.7-1h0.1L33.2,35.5C33.3,35.6,33.3,35.6,33.2,35.5L33.2,35.5z"/>
							<path class="st5" d="M33.3,35.4l-1.7-1h0.1l1.8,1H33.3z"/>
							<path class="st6" d="M33.5,35.4l-1.8-1h0.1l1.8,1H33.5z"/>
							<path class="st7" d="M33.6,35.4l-1.8-1h0.1L33.6,35.4z"/>
							<path class="st8" d="M33.6,35.4l-1.7-1c0.1,0,0.1,0,0.1,0.1L33.6,35.4C33.7,35.4,33.7,35.4,33.6,35.4z"/>
							<path class="st9" d="M33.7,35.5l-1.7-1h0.1L33.7,35.5L33.7,35.5z"/>
							<path class="st10" d="M33.8,35.5l-1.7-1h0.1L33.8,35.5L33.8,35.5z"/>
							<polygon class="st11" points="33.9,35.5 32.2,34.5 32.2,34.5 33.9,35.5 33.9,35.5 							"/>
						</g>
					</g>
				</g>
			</g>
			<g>
				<g>
					<defs>
						<path id="SVGID_25_" d="M31.7,39.2l-1.7-1c-0.3-0.1-0.4-0.5-0.4-0.9c0-1.1,0.6-2.1,1.5-2.7l1.7,1c-0.9,0.6-1.4,1.6-1.5,2.7
							C31.3,38.6,31.4,39,31.7,39.2z"/>
					</defs>
					<clipPath id="SVGID_26_">
						<use xlink:href="#SVGID_25_"  style="overflow:visible;"/>
					</clipPath>
					<g class="st50">
						<g>
							<path class="st16" d="M31.7,39.2l-1.7-1c-0.3-0.1-0.4-0.5-0.4-0.9V37l1.7,1v0.3C31.3,38.6,31.4,39,31.7,39.2z"/>
							<path class="st15" d="M31.3,38l-1.7-1v-0.3l1.8,1.1C31.3,37.8,31.3,37.9,31.3,38z"/>
							<path class="st14" d="M31.4,37.8l-1.8-1.1c0-0.1,0-0.1,0.1-0.1l1.7,1C31.4,37.6,31.4,37.8,31.4,37.8z"/>
							<path class="st13" d="M31.4,37.6l-1.7-1v-0.2l1.7,1V37.6z"/>
							<path class="st12" d="M31.4,37.4l-1.7-1c0-0.1,0-0.1,0.1-0.1l1.7,1C31.5,37.4,31.5,37.4,31.4,37.4z"/>
							<path class="st11" d="M31.5,37.3l-1.7-1v-0.2l1.7,1V37.3z"/>
							<path class="st10" d="M31.5,37.1l-1.7-1c0.1,0,0.1,0,0.1-0.1l1.7,1C31.6,37.1,31.6,37.1,31.5,37.1z"/>
							<path class="st9" d="M31.6,37l-1.7-1l0,0L31.6,37L31.6,37z"/>
							<path class="st8" d="M31.7,36.9l-1.8-1H30L31.7,36.9z"/>
							<path class="st7" d="M31.7,36.8l-1.7-1c0-0.1,0.1-0.1,0.1-0.2l1.7,1C31.8,36.7,31.8,36.7,31.7,36.8z"/>
							<path class="st6" d="M31.8,36.6l-1.7-1h0.1l1.7,1C31.9,36.7,31.9,36.7,31.8,36.6L31.8,36.6z"/>
							<path class="st5" d="M31.9,36.5l-1.7-1c0-0.1,0-0.1,0.1-0.1l1.7,1L31.9,36.5z"/>
							<path class="st4" d="M32,36.4l-1.7-1c0-0.1,0.1-0.1,0.1-0.2l1.7,1L32,36.4L32,36.4z"/>
							<path class="st3" d="M32.1,36.2l-1.7-1l0.2-0.2l1.7,1L32.1,36.2z"/>
							<path class="st2" d="M32.3,36l-1.7-1l0.5-0.4l1.7,1L32.3,36z"/>
						</g>
					</g>
				</g>
			</g>
			<g>
				<g>
					<defs>
						<polygon id="SVGID_27_" points="28.8,38 30.3,38.8 30.3,38.8 						"/>
					</defs>
					<clipPath id="SVGID_28_">
						<use xlink:href="#SVGID_27_"  style="overflow:visible;"/>
					</clipPath>
					<g class="st51">
						<g>
							<path class="st35" d="M30.3,39.1l-1.8-1c0-0.1,0.1-0.2,0.1-0.3c0-0.4-0.2-0.7-0.5-0.9l1.7,1c0.3,0.2,0.5,0.5,0.5,0.9
								C30.3,38.8,30.3,39.1,30.3,39.1z"/>
						</g>
					</g>
				</g>
			</g>
			<g>
				<g>
					<defs>
						<path id="SVGID_29_" d="M28.6,37.8c0-0.4-0.2-0.7-0.5-0.9l1.7,1c0.3,0.2,0.5,0.5,0.5,0.9l0,0C29.7,38.5,29.1,38.2,28.6,37.8
							c0.5,0.4,1.1,0.7,1.7,1c-0.1,1.1-0.6,2.1-1.5,2.7l-1.8-1C27.9,39.9,28.5,38.9,28.6,37.8z"/>
					</defs>
					<clipPath id="SVGID_30_">
						<use xlink:href="#SVGID_29_"  style="overflow:visible;"/>
					</clipPath>
					<g class="st52">
						<g>
							<path class="st24" d="M28.8,41.5l-1.8-1l0.5-0.4l1.8,1L28.8,41.5z"/>
							<path class="st25" d="M29.3,41.1l-1.8-1c0.1-0.1,0.2-0.1,0.2-0.2l1.7,1C29.4,41,29.3,41,29.3,41.1z"/>
							<path class="st26" d="M29.4,40.9l-1.7-1c0.1,0,0.1,0,0.1-0.1l1.8,1L29.4,40.9z"/>
							<path class="st27" d="M29.6,40.8l-1.8-1c0.1-0.1,0.1-0.1,0.1-0.2l1.8,1v0.2H29.6z"/>
							<path class="st28" d="M29.7,40.6l-1.8-1c0.1,0,0.1,0,0.1-0.1l1.8,1C29.7,40.5,29.7,40.5,29.7,40.6z"/>
							<path class="st29" d="M29.8,40.5l-1.8-1h0.1C28.1,39.5,29.8,40.5,29.8,40.5z"/>
							<path class="st30" d="M29.8,40.4l-1.7-1c0-0.1,0.1-0.1,0.1-0.2l1.7,1v0.2H29.8z"/>
							<path class="st31" d="M29.9,40.2l-1.7-1l0,0L29.9,40.2C29.9,40.2,29.9,40.2,29.9,40.2L29.9,40.2z"/>
							<path class="st32" d="M30,40.1l-1.8-1h0.1L30,40.1L30,40.1z"/>
							<path class="st33" d="M30,40l-1.7-1c0-0.1,0-0.1,0.1-0.2l1.7,1C30.1,39.9,30,39.9,30,40z"/>
							<path class="st39" d="M30.1,39.8l-1.7-1l0,0L30.1,39.8z"/>
							<path class="st38" d="M30.1,39.7l-1.7-1c0-0.1,0-0.1,0.1-0.2l1.7,1C30.2,39.6,30.2,39.6,30.1,39.7z"/>
							<path class="st37" d="M30.2,39.5l-1.7-1v-0.2l1.7,1.1V39.5z"/>
							<path class="st36" d="M30.2,39.4l-1.7-1.1v-0.2l1.8,1C30.3,39.2,30.2,39.3,30.2,39.4z"/>
							<path class="st35" d="M30.3,39.1l-1.8-1c0-0.1,0.1-0.2,0.1-0.3c0-0.4-0.2-0.7-0.5-0.9l1.7,1c0.3,0.2,0.5,0.5,0.5,0.9
								C30.3,38.8,30.3,39.1,30.3,39.1z"/>
						</g>
					</g>
				</g>
			</g>
			<g>
				<g>
					<defs>
						<path id="SVGID_31_" d="M28.1,36.9l1.7,1c-0.2-0.2-0.6-0.2-1,0.1L27,37C27.3,36.7,27.8,36.7,28.1,36.9z"/>
					</defs>
					<clipPath id="SVGID_32_">
						<use xlink:href="#SVGID_31_"  style="overflow:visible;"/>
					</clipPath>
					<g class="st53">
						<g>
							<path class="st2" d="M28.8,38L27,37h0.2l1.8,1C28.9,38,28.8,38,28.8,38L28.8,38z"/>
							<path class="st3" d="M29,37.9l-1.8-1h0.2l1.7,1C29,37.9,29,37.9,29,37.9L29,37.9z"/>
							<path class="st4" d="M29.1,37.8l-1.7-1h0.2l1.7,1H29.1z"/>
							<path class="st5" d="M29.3,37.8l-1.7-1h0.1l1.7,1H29.3z"/>
							<path class="st6" d="M29.4,37.8l-1.7-1h0.1l1.7,1H29.4z"/>
							<path class="st7" d="M29.5,37.8l-1.7-1h0.1l1.7,1H29.5z"/>
							<path class="st8" d="M29.6,37.8l-1.7-1l0,0L29.6,37.8L29.6,37.8z"/>
							<path class="st9" d="M29.7,37.8l-1.8-1H28L29.7,37.8L29.7,37.8z"/>
							<path class="st10" d="M29.8,37.8l-1.8-1c0.1,0,0.1,0,0.1,0.1L29.8,37.8L29.8,37.8z"/>
							<polygon class="st11" points="29.8,37.9 28.1,36.9 28.1,36.9 29.8,37.9 29.8,37.9 							"/>
						</g>
					</g>
				</g>
			</g>
			<g>
				<g>
					<defs>
						<path id="SVGID_33_" d="M27.7,41.6l-1.7-1c-0.3-0.2-0.5-0.6-0.5-1c0.1-1.1,0.6-2,1.5-2.6l1.8,1c-0.9,0.5-1.5,1.5-1.6,2.6
							C27.2,41,27.4,41.4,27.7,41.6z"/>
					</defs>
					<clipPath id="SVGID_34_">
						<use xlink:href="#SVGID_33_"  style="overflow:visible;"/>
					</clipPath>
					<g class="st54">
						<g>
							<path class="st16" d="M27.7,41.6l-1.7-1c-0.3-0.2-0.5-0.6-0.5-1v-0.3l1.8,1c-0.1,0.1-0.1,0.2-0.1,0.3
								C27.2,41,27.4,41.4,27.7,41.6z"/>
							<path class="st15" d="M27.3,40.3l-1.8-1v-0.2l1.7,1L27.3,40.3L27.3,40.3z"/>
							<path class="st14" d="M27.3,40.1l-1.7-1v-0.2l1.7,1V40.1z"/>
							<path class="st13" d="M27.3,39.9l-1.7-1c0-0.1,0-0.1,0.1-0.1l1.7,1L27.3,39.9z"/>
							<path class="st12" d="M27.4,39.8l-1.7-1v-0.2l1.7,1V39.8z"/>
							<path class="st11" d="M27.4,39.6l-1.7-1c0-0.1,0-0.1,0.1-0.1l1.7,1L27.4,39.6z"/>
							<path class="st10" d="M27.5,39.5l-1.7-1l0,0L27.5,39.5z"/>
							<path class="st9" d="M27.5,39.4l-1.7-1c0-0.1,0.1-0.1,0.1-0.2l1.7,1v0.2H27.5z"/>
							<path class="st8" d="M27.6,39.2l-1.7-1c0-0.1,0-0.1,0.1-0.1l1.7,1L27.6,39.2z"/>
							<path class="st7" d="M27.7,39.1l-1.7-1l0,0L27.7,39.1C27.7,39.1,27.7,39.1,27.7,39.1L27.7,39.1z"/>
							<path class="st6" d="M27.8,39L26,38c0.1-0.1,0.1-0.1,0.1-0.2l1.7,1C27.8,38.8,27.8,39,27.8,39z"/>
							<path class="st5" d="M27.8,38.8l-1.7-1h0.1l1.8,1H27.8z"/>
							<path class="st4" d="M28,38.7l-1.8-1c0.1-0.1,0.1-0.1,0.1-0.2l1.8,1.1C28,38.6,28,38.6,28,38.7z"/>
							<path class="st3" d="M28.1,38.6l-1.8-1.1h0.2l1.7,1c-0.1,0.1-0.1,0.1-0.1,0.2L28.1,38.6z"/>
							<path class="st2" d="M28.2,38.4l-1.7-1L27,37l1.8,1C28.8,38,28.2,38.4,28.2,38.4z"/>
						</g>
					</g>
				</g>
			</g>
			<path class="st40" d="M88.1,1.2c0.9-0.5,1.6-0.1,1.6,1v6.1L24,46.2v-6.1c0.1-1.2,0.7-2.2,1.7-2.9L88.1,1.2z M32.8,39.1
				c0.9-0.6,1.5-1.5,1.5-2.6c0-1-0.6-1.3-1.5-0.9c-0.9,0.6-1.4,1.6-1.5,2.7C31.3,39.2,32,39.6,32.8,39.1z M28.8,41.5
				c0.9-0.6,1.4-1.6,1.5-2.7c0-0.9-0.7-1.3-1.5-0.8c-0.9,0.5-1.5,1.5-1.6,2.6C27.2,41.6,27.9,42,28.8,41.5z M36.9,36.8
				c0.9-0.6,1.4-1.6,1.5-2.6c0-1-0.7-1.4-1.5-0.9c-0.9,0.6-1.5,1.5-1.5,2.6C35.4,36.9,36,37.3,36.9,36.8z"/>
			<path class="st55" d="M36.9,33.3c0.8-0.5,1.5-0.1,1.5,0.9c-0.1,1-0.6,2-1.5,2.6c-0.9,0.5-1.5,0.1-1.5-0.9
				C35.4,34.8,36,33.9,36.9,33.3z"/>
			<path class="st55" d="M32.8,35.6c0.9-0.4,1.5-0.1,1.5,0.9c0,1.1-0.6,2-1.5,2.6c-0.8,0.5-1.5,0.1-1.5-0.8
				C31.4,37.2,31.9,36.2,32.8,35.6z"/>
			<path class="st55" d="M28.8,38c0.8-0.5,1.5-0.1,1.5,0.8c-0.1,1.1-0.6,2.1-1.5,2.7c-0.9,0.5-1.6,0.1-1.6-0.9
				C27.3,39.5,27.9,38.5,28.8,38z"/>
			<polygon class="st56" points="24,46.2 22.3,45.2 22.3,39.1 24,40.1 			"/>
			<path class="st57" d="M88.4,1.1h0.8l-1.7-1h-1.2L24,36.2l-0.4,0.3h-0.1c-0.1,0-0.1,0-0.1,0.1h-0.1c-0.1,0-0.1,0-0.1,0.1h-0.1
				c0,0.1,0,0.1-0.1,0.1h-0.1c-0.1,0.1-0.1,0.1-0.1,0.2h-0.1c0,0.1,0,0.1-0.1,0.2h-0.1v0.2h-0.1v0.2c-0.1,0-0.1,0-0.1,0.1l0,0V38
				l1.7,1c0-0.1,0-0.3,0.1-0.4l0,0v-0.4h0.1c0-0.1,0-0.3,0.1-0.4l0,0c0.1-0.1,0.1-0.3,0.2-0.4l0,0c0.1-0.1,0.2-0.3,0.2-0.4h0.1
				c0-0.1,0.1-0.2,0.2-0.3h0.1l0.2-0.2h0.1l0.3-0.3l62.4-36L88.4,1.1z"/>
			<path class="st58" d="M87.8,26.2c5.1-1.2,5.8,8.8,2,11.8c-0.7,0.5-2.8,0-2.9-0.7c-0.7-3.1,3.8-6.3,1.5-9.2L88,27.6
				C87.6,27.1,86.6,26.6,87.8,26.2z"/>
			<path class="st59" d="M68.1,45.4c0,0-2.3,1.1-3.5,0.9s-2.8-1.1-2.1-1.5s2.4-0.2,2.5-0.7s-1-0.4-0.5-0.7s1.6-0.3,3.5,0.7
				C68.4,44.4,68.4,45,68.1,45.4z"/>
			<path class="st40" d="M79.9,33.7c0,0,1.8-0.6,1.8,1.5c-0.4,2.4-1.2,4.7-2.4,6.8c0,0-2.1,3.9-3.2,4.1s-8.7,0-8.7,0
				c0.2-0.8,0.2-1.7,0-2.5c0,0,6.7-0.7,7.2-1.2S78.4,34.1,79.9,33.7z"/>
			<path class="st56" d="M76.1,46.1c-2.9,0.2-5.8,0.2-8.7,0c0.1-0.2,0.1-0.4,0.1-0.6c0,0,7.4-0.9,7.9-1.4s3.8-8.2,5.3-8.6
				c0.3-0.1,0.7-0.2,1-0.1c-0.4,2.3-1.2,4.6-2.4,6.6C79.3,42,77.2,45.9,76.1,46.1z"/>
			<g class="st0">
				<path d="M93.7,83.1c4.5,2.6,4.5,6.9,0,9.5s-11.8,2.6-16.3,0s-4.6-6.9-0.1-9.5S89.1,80.5,93.7,83.1z"/>
			</g>
			<path class="st40" d="M80.3,81.8c-0.1,0.8-0.3,1.6-0.8,2.2c-0.6,0.7-3.6,2.5-3.4,3.3s2.3,0.9,3.7-0.4s1.7-1.5,2.2-1.6
				s1.4-0.8,0.8-2.1C81.9,82.9,81,82.5,80.3,81.8z"/>
			<path class="st60" d="M79.6,49c0,0-2.4,11.8-1.1,18.4c0,0,0.6,5.2,0.9,6.6s0.3,9.2,0.3,9.2s2.1,1,3.2-0.1s1.5-8-0.1-13
				c0,0,1.8-9.8,1.9-13c0-2,0.1-3.9,0.4-5.9L79.6,49z"/>
			<path class="st61" d="M78.5,67.4c0,0,0.6,5.2,0.9,6.6s0.3,9.2,0.3,9.2l0.8,0.3c0.2-2.3,0.5-6.4,0.6-7.3s-1.3-8.4-1.4-11
				s2.8-12.6,2.8-12.6l-0.8-2.8L79.6,49C79.6,49,77.2,60.8,78.5,67.4z"/>
			<path class="st40" d="M87,84.7c-0.1,0.8-0.4,1.6-0.8,2.3c-0.6,0.7-3.5,2.6-3.3,3.4s2.3,0.8,3.6-0.5s1.7-1.6,2.2-1.7
				c0.7-0.2,1.2-1,1-1.7c0-0.1-0.1-0.3-0.2-0.4C88.6,85.8,87.7,85.4,87,84.7z"/>
			<path class="st61" d="M89.5,52.9c0,0,2.3,3.3,1.2,10.2l-0.5,8.1c0,0,1.5,2.6,0.4,10.6l-1,4.8c0,0-1.4,0.9-2.8-1
				c0,0,0.1-11.8-0.5-13.6c-1.3-4-2.3-8.1-2.9-12.2c-0.3-1.9-3.3-5.2-3.2-6.8L89.5,52.9z"/>
			<path class="st60" d="M89.6,86.6l1-4.8c1.1-8-0.4-10.6-0.4-10.6l0.5-8.1c1.1-6.9-1.2-10.2-1.2-10.2h-0.3l-2.5,1.6
				c0,0,2.5,13,2.3,16.2s0.7,7.2,0.6,9.2c-0.2,2.3-0.6,4.6-1.1,6.9C88.9,86.9,89.3,86.8,89.6,86.6z"/>
			<path class="st40" d="M91,38.5c0,0-2-3.9-10.5-4.8c0,0-1.4-0.6-1.2,3.8c-0.2,0.8-0.6,1.6-1.1,2.2c-0.5,0.6-1.6,2.8,0.9,5.4
				c0,0,1,3.9-0.2,6.4s4.5,4.5,9.3,4c1-0.1,1.8-1,1.7-2.1c0-0.2-0.1-0.4-0.1-0.5c-0.5-2.1-2-5.4-1-9.2S91.7,40.4,91,38.5z"/>
			<path class="st56" d="M91,38.4c0.7,1.9-1.3,1.4-2.2,5.2s0.5,7.2,1,9.3s-0.7,2.5-1.3,2.5c-0.8,0.1-1.7,0.2-2.5,0.1
				c1.7-3.6-0.7-10.3-0.8-14c0-2.3,1.3-4.4,3.4-5.3C89.6,36.7,90.4,37.5,91,38.4z"/>
			<path class="st59" d="M78.8,49c0,0-2.5,0.6-3.5,0.1s-2.5-1.7-1.8-1.9s2.5,0.3,2.7-0.1s-0.9-0.6-0.4-0.8s1.6,0,3.3,1.4
				C79.3,48.1,79.2,48.7,78.8,49z"/>
			<path class="st56" d="M90.6,37.9c0,0-1.8-0.7-2.9,2l-2.9,7.4l-0.4,0.6L78.3,47c0.5,0.8,0.2,1.9-0.6,2.4c0,0,7.5,3.4,9.7,1.2
				C87.4,50.6,93.6,38.8,90.6,37.9z"/>
			<path class="st40" d="M78.3,47l6.1,0.9l0.4-0.6l2.9-7.4c0.9-2.3,2.3-2.1,2.7-2c-0.2,3.6-3.9,10.7-3.9,10.7
				c-1.6,1.6-5.7,0.5-8-0.4C78.5,47.8,78.4,47.4,78.3,47z"/>
			<path class="st62" d="M81.1,31.8c0.8,1.1,1,2.5,0.6,3.8c-0.3,0.5-0.9,2.6,2.4,1.9c0,0,3.5-1.4,2.6-2.5s-1.2-1.8,0-5.2L81.1,31.8z
				"/>
			<path class="st63" d="M86.7,35c0.1,0.1,0.1,0.2,0.1,0.4c-1.9,0.1-3.8-0.6-5.1-2l4.3-3.2l0,0l0.5,0.4C85.5,33.4,86.1,34.3,86.7,35
				z"/>
			<path class="st64" d="M82.2,25.7c0,0-0.9,0.2-1.2,2.8c0,0.3-0.5,0.7-0.7,1.4s-0.5,3.5,1.1,4c2.3,0.3,4.5-1,5.5-3.1
				C88.1,28,85.9,24.1,82.2,25.7z"/>
			<path class="st64" d="M85.4,31.2c0,0,0.5-1.4,1.3-0.9s0.5,0.5,0.1,1.2c-0.4,0.7-1.2,1.2-2,1.2L85.4,31.2z"/>
			<path class="st65" d="M87.8,26.2c0.6-0.1,1.1-0.1,1.7,0c0.4,1,0.2,2.2-0.5,3.1c-0.1-0.5-0.3-0.9-0.6-1.2L88,27.6
				C87.6,27.1,86.6,26.6,87.8,26.2z"/>
			<path class="st58" d="M82.4,24.5c1.2-1,2.7-0.8,4.2-0.3c1.3,0.5,2.3,1.6,2.5,3c0,1.7-0.5,3.9-2.6,4.9c-2.1,1,0.6-1.4-0.4-1.5
				s-0.5-0.6-0.7-0.7s-1.4-0.6-2.8-1S82.4,28,82.3,28s-0.2,0.7-0.4,0.6c-0.4-0.1-0.8-0.3-1.2-0.6C80.4,26.8,81.5,25.3,82.4,24.5z"/>
			<path class="st64" d="M85.8,30c-0.5,0.5-0.6,1-0.4,1.3s0.9,0.2,1.3-0.3s0.7-0.9,0.4-1.2S86.3,29.6,85.8,30z"/>
		</g>
	</g>
</g>
<g id="Layer_2" class="st66">
	<g id="Layer_2_2_" class="st67">
		<rect x="-99" y="18.6" class="st40" width="66.7" height="34.6"/>
		<rect x="-99" y="-24.7" class="st56" width="66.7" height="34.6"/>
		<rect x="-99" y="58.9" class="st68" width="66.7" height="34.6"/>
	</g>
</g>
</svg>
