<?xml version="1.0" encoding="utf-8"?>
<!-- Generator: Adobe Illustrator 24.0.0, SVG Export Plug-In . SVG Version: 6.00 Build 0)  -->
<svg version="1.1" xmlns="http://www.w3.org/2000/svg" xmlns:xlink="http://www.w3.org/1999/xlink" x="0px" y="0px"
	 viewBox="0 0 97.4 90.2" style="enable-background:new 0 0 97.4 90.2;" xml:space="preserve">
<style type="text/css">
	.st0{opacity:0.1;}
	.st1{fill:#BFD4DB;}
	.st2{fill:#DEF6FF;}
	.st3{fill:#A9D6EA;}
	.st4{fill:url(#SVGID_1_);}
	.st5{fill:#35C2DA;}
	.st6{fill:url(#SVGID_2_);}
	.st7{clip-path:url(#SVGID_4_);}
	.st8{fill:#B2C5CC;}
	.st9{fill:#ADC0C7;}
	.st10{fill:#A9BBC2;}
	.st11{fill:#A4B6BD;}
	.st12{fill:#A0B1B8;}
	.st13{fill:#9BACB3;}
	.st14{fill:#97A7AD;}
	.st15{fill:#93A2A8;}
	.st16{fill:#8E9DA3;}
	.st17{fill:#8A999E;}
	.st18{fill:#859499;}
	.st19{fill:#818F94;}
	.st20{fill:#7C8A8F;}
	.st21{fill:#78858A;}
	.st22{fill:#738085;}
	.st23{clip-path:url(#SVGID_6_);}
	.st24{fill:#32B5CA;}
	.st25{fill:#30B0C5;}
	.st26{fill:#2FACC0;}
	.st27{fill:#2EA7BB;}
	.st28{fill:#2DA3B6;}
	.st29{fill:#2B9EB1;}
	.st30{fill:#2A9AAC;}
	.st31{fill:#2995A7;}
	.st32{fill:#2891A2;}
	.st33{fill:#268C9D;}
	.st34{clip-path:url(#SVGID_8_);}
	.st35{clip-path:url(#SVGID_10_);}
	.st36{fill:#207684;}
	.st37{fill:#217A89;}
	.st38{fill:#237F8E;}
	.st39{fill:#248393;}
	.st40{fill:#258898;}
	.st41{fill:#30AFC4;}
	.st42{fill:#ABBEC5;}
	.st43{fill:#BFD4DC;}
	.st44{fill:#36A0B7;}
	.st45{fill:#3190A4;}
	.st46{fill:#3FBAD4;}
	.st47{fill:#F8F9FD;}
	.st48{clip-path:url(#SVGID_12_);}
	.st49{fill:#852858;}
	.st50{fill:#8A295C;}
	.st51{fill:#8F2B5F;}
	.st52{fill:#942C63;}
	.st53{fill:#992E66;}
	.st54{fill:#9E2F69;}
	.st55{fill:#A3316D;}
	.st56{clip-path:url(#SVGID_14_);}
	.st57{fill:#818184;}
	.st58{fill:#868689;}
	.st59{fill:#8B8B8E;}
	.st60{clip-path:url(#SVGID_16_);}
	.st61{fill:#B8377A;}
	.st62{fill:#DC4193;}
	.st63{clip-path:url(#SVGID_18_);}
	.st64{fill:#A83270;}
	.st65{fill:#AD3474;}
	.st66{fill:#B33577;}
	.st67{fill:#BD387E;}
	.st68{fill:#C23A81;}
	.st69{fill:#C73B85;}
	.st70{fill:#CC3D88;}
	.st71{fill:#D13E8B;}
	.st72{fill:#D6408F;}
	.st73{fill:#DB4192;}
	.st74{fill:#E04396;}
	.st75{fill:#E64499;}
	.st76{fill:#EB469C;}
	.st77{fill:#F047A0;}
	.st78{fill:#F549A3;}
	.st79{clip-path:url(#SVGID_20_);}
	.st80{fill:#F9FAFD;}
	.st81{fill:#FAFAFD;}
	.st82{fill:#FAFBFE;}
	.st83{fill:#F3F4F8;}
	.st84{fill:#EEEFF3;}
	.st85{fill:#E9EAEE;}
	.st86{fill:#E4E5E9;}
	.st87{fill:#DFE0E4;}
	.st88{fill:#DADBDF;}
	.st89{fill:#D5D6DA;}
	.st90{fill:#D0D1D5;}
	.st91{fill:#CBCCCF;}
	.st92{fill:#C6C7CA;}
	.st93{fill:#C1C2C5;}
	.st94{clip-path:url(#SVGID_22_);}
	.st95{fill:#909093;}
	.st96{fill:#959598;}
	.st97{fill:#9A9A9D;}
	.st98{fill:#9F9FA2;}
	.st99{fill:#A4A4A7;}
	.st100{fill:#A9A9AC;}
	.st101{fill:#AEAEB1;}
	.st102{fill:#B3B3B6;}
	.st103{fill:#B8B8BB;}
	.st104{fill:#BCBDC0;}
	.st105{clip-path:url(#SVGID_24_);}
	.st106{fill:#E53399;}
	.st107{fill:#FF4CAA;}
	.st108{clip-path:url(#SVGID_26_);}
	.st109{clip-path:url(#SVGID_28_);}
	.st110{clip-path:url(#SVGID_30_);}
	.st111{clip-path:url(#SVGID_32_);}
	.st112{clip-path:url(#SVGID_34_);}
	.st113{clip-path:url(#SVGID_36_);}
	.st114{clip-path:url(#SVGID_38_);}
	.st115{fill:#E1BB00;}
	.st116{fill:#FFDF02;}
	.st117{clip-path:url(#SVGID_40_);}
	.st118{clip-path:url(#SVGID_42_);}
	.st119{clip-path:url(#SVGID_44_);}
	.st120{clip-path:url(#SVGID_46_);}
	.st121{clip-path:url(#SVGID_48_);}
	.st122{clip-path:url(#SVGID_50_);}
	.st123{clip-path:url(#SVGID_52_);}
	.st124{clip-path:url(#SVGID_54_);}
	.st125{clip-path:url(#SVGID_56_);}
	.st126{clip-path:url(#SVGID_58_);}
	.st127{clip-path:url(#SVGID_60_);}
	.st128{clip-path:url(#SVGID_62_);}
	.st129{clip-path:url(#SVGID_64_);}
	.st130{clip-path:url(#SVGID_66_);}
	.st131{fill:#EFB185;}
	.st132{fill:#E6A376;}
	.st133{fill:#7A0110;}
	.st134{fill:#F4001E;}
	.st135{fill:url(#SVGID_67_);}
	.st136{fill:url(#SVGID_68_);}
	.st137{fill:#101010;}
	.st138{fill:#2D2D2D;}
	.st139{fill:#DD9569;}
	.st140{fill:#131C24;}
	.st141{fill:#1D2833;}
	.st142{fill:#DEF0F9;}
	.st143{fill:#F1B287;}
	.st144{display:none;}
	.st145{display:inline;}
	.st146{fill:#D70010;}
</style>
<g id="Layer_1">
	<title>11</title>
	<g id="Layer_2_1_">
		<g id="Layer_1-2">
			<g class="st0">
				<polygon points="70.6,71.9 37.1,90.2 0,68.7 33.9,51.2 				"/>
			</g>
			<polygon class="st1" points="34.7,82.4 31.2,80.4 64.7,61.1 68.2,63.1 			"/>
			<path class="st2" d="M34.8,86.6v-4.2l-3.5-2v4.2c-0.1,0.7,0.2,1.4,0.8,1.8l3.6,2C35.1,88,34.7,87.3,34.8,86.6z"/>
			<path class="st3" d="M34.8,86.6v-4.2l33.4-19.3v4.2c-0.1,1.9-1.1,3.7-2.7,4.8l-28,16.1C36,89.1,34.8,88.4,34.8,86.6z"/>
			
				<linearGradient id="SVGID_1_" gradientUnits="userSpaceOnUse" x1="34.6877" y1="64.1831" x2="31.0077" y2="13.6531" gradientTransform="matrix(1 0 0 -1 0 92)">
				<stop  offset="0" style="stop-color:#D70010"/>
				<stop  offset="1" style="stop-color:#7A0110"/>
			</linearGradient>
			<polygon class="st4" points="34.7,82.4 31.2,80.4 31,23.7 34.6,25.8 			"/>
			<polygon class="st5" points="34.6,25.8 31,23.7 64.5,4.4 68,6.5 			"/>
			
				<linearGradient id="SVGID_2_" gradientUnits="userSpaceOnUse" x1="64.0895" y1="79.2762" x2="37.6595" y2="13.1962" gradientTransform="matrix(1 0 0 -1 0 92)">
				<stop  offset="0" style="stop-color:#D70010"/>
				<stop  offset="1" style="stop-color:#7A0110"/>
			</linearGradient>
			<polygon class="st6" points="68,6.5 68.2,63.1 34.7,82.4 34.6,25.8 			"/>
			<g>
				<g>
					<defs>
						<path id="SVGID_3_" d="M55.3,7.1c0-0.2-0.1-0.3-0.2-0.4l3.6,2.1c0.1,0,0.2,0.2,0.2,0.4h-0.4l-0.9-0.5L56.5,8l-1.2-0.7l3.6,2.1
							l0,0c-0.1,0.5-0.3,0.9-0.7,1.2l-3.5-2.3C55.1,8,55.3,7.6,55.3,7.1z"/>
					</defs>
					<clipPath id="SVGID_4_">
						<use xlink:href="#SVGID_3_"  style="overflow:visible;"/>
					</clipPath>
					<g class="st7">
						<g>
							<path class="st8" d="M58.2,10.4l-3.5-2.1l0.2-0.2l3.5,2.1C58.4,10.2,58.2,10.4,58.2,10.4z"/>
							<path class="st9" d="M58.4,10.2l-3.5-2.1H55L58.4,10.2L58.4,10.2z"/>
							<path class="st10" d="M58.5,10.1l-3.5-2l0,0L58.5,10.1z"/>
							<path class="st11" d="M58.5,10L55,8l0,0L58.5,10L58.5,10z"/>
							<path class="st12" d="M58.6,10L55,7.9h0.1l3.5,2V10z"/>
							<path class="st13" d="M58.6,9.9l-3.5-2l0,0l3.6,2.1L58.6,9.9z"/>
							<path class="st14" d="M58.7,9.9l-3.6-2.1h0.1L58.7,9.9L58.7,9.9z"/>
							<path class="st15" d="M58.7,9.8l-3.5-2l0,0L58.7,9.8L58.7,9.8z"/>
							<path class="st16" d="M58.7,9.8l-3.5-2.1l0,0C55.2,7.7,58.7,9.8,58.7,9.8z"/>
							<path class="st17" d="M58.7,9.7l-3.5-2.1l0,0L58.7,9.7L58.7,9.7z"/>
							<path class="st18" d="M58.8,9.6l-3.6-2h0.1l3.5,2.1V9.6z"/>
							<path class="st19" d="M58.8,9.6l-3.5-2.1l0,0l3.5,2V9.6z"/>
							<path class="st20" d="M58.8,9.5l-3.5-2l0,0L58.8,9.5z"/>
							<path class="st21" d="M58.8,9.4l-3.5-2l0,0L58.8,9.4z"/>
							<path class="st22" d="M58.8,9.3l-3.5-2V7.1c0-0.2-0.1-0.3-0.2-0.4l3.6,2.1c0.1,0,0.2,0.2,0.2,0.4C58.9,9.3,58.9,9.3,58.8,9.3
								z"/>
						</g>
					</g>
				</g>
			</g>
			<g>
				<g>
					<defs>
						<path id="SVGID_5_" d="M55.1,6.7h0.2l3.4,2c-0.2-0.1-0.3-0.1-0.5,0l-3.5-2H55.1z"/>
					</defs>
					<clipPath id="SVGID_6_">
						<use xlink:href="#SVGID_5_"  style="overflow:visible;"/>
					</clipPath>
					<g class="st23">
						<g>
							<path class="st24" d="M58.2,8.8l-3.5-2l0,0L58.2,8.8L58.2,8.8z"/>
							<path class="st25" d="M58.3,8.8l-3.6-2.1h0.1L58.3,8.8L58.3,8.8z"/>
							<path class="st26" d="M58.4,8.8l-3.6-2.1h0.1l3.5,2L58.4,8.8z"/>
							<path class="st27" d="M58.4,8.7l-3.5-2l0,0L58.4,8.7L58.4,8.7z"/>
							<path class="st28" d="M58.5,8.7l-3.6-2H55L58.5,8.7z"/>
							<path class="st29" d="M58.5,8.7l-3.5-2l0,0L58.5,8.7L58.5,8.7z"/>
							<path class="st30" d="M58.6,8.7l-3.6-2h0.1L58.6,8.7z"/>
							<path class="st31" d="M58.6,8.7l-3.5-2l0,0L58.6,8.7L58.6,8.7z"/>
							<path class="st32" d="M58.6,8.8l-3.5-2.1l0,0L58.6,8.8L58.6,8.8z"/>
							<polygon class="st33" points="58.7,8.8 55.1,6.7 55.1,6.7 58.7,8.8 58.7,8.8 							"/>
						</g>
					</g>
				</g>
			</g>
			<polygon class="st1" points="43.8,18.7 40.2,16.6 54.7,8.3 58.2,10.4 			"/>
			<g>
				<g>
					<defs>
						<path id="SVGID_7_" d="M39.8,16.7h0.4l3.6,2.1c-0.1,0.1-0.4,0.1-0.5,0L39.8,16.7z"/>
					</defs>
					<clipPath id="SVGID_8_">
						<use xlink:href="#SVGID_7_"  style="overflow:visible;"/>
					</clipPath>
					<g class="st34">
						<g>
							<polygon class="st17" points="43.3,18.7 39.8,16.7 39.8,16.7 43.3,18.7 43.3,18.7 							"/>
							<path class="st16" d="M43.3,18.7l-3.5-2l0,0l3.5,2.1V18.7z"/>
							<path class="st15" d="M43.3,18.8l-3.5-2.1l0,0L43.3,18.8L43.3,18.8z"/>
							<path class="st14" d="M43.4,18.8l-3.6-2.1h0.1L43.4,18.8z"/>
							<path class="st13" d="M43.4,18.8l-3.5-2.1l0,0L43.4,18.8z"/>
							<path class="st12" d="M43.4,18.8l-3.5-2.1H40L43.4,18.8L43.4,18.8z"/>
							<path class="st11" d="M43.5,18.8L40,16.7l0,0C40,16.7,43.5,18.8,43.5,18.8z"/>
							<path class="st10" d="M43.5,18.8L40,16.7h0.1L43.5,18.8L43.5,18.8z"/>
							<path class="st9" d="M43.6,18.8l-3.5-2.1l0,0l3.6,2C43.6,18.7,43.6,18.7,43.6,18.8z"/>
							<path class="st8" d="M43.7,18.7l-3.6-2h0.1l3.6,2.1L43.7,18.7z"/>
						</g>
					</g>
				</g>
			</g>
			<polygon class="st5" points="43.8,17.1 40.2,15.1 54.7,6.8 58.2,8.8 			"/>
			<g>
				<g>
					<defs>
						<path id="SVGID_9_" d="M43.3,18.7l-3.5-2c-0.2-0.1-0.2-0.2-0.2-0.5c0-0.4,0.2-0.8,0.6-1.1l3.6,2.1c-0.4,0.2-0.7,0.6-0.7,1.1
							C43.1,18.5,43.2,18.7,43.3,18.7z"/>
					</defs>
					<clipPath id="SVGID_10_">
						<use xlink:href="#SVGID_9_"  style="overflow:visible;"/>
					</clipPath>
					<g class="st35">
						<g>
							<path class="st36" d="M43.3,18.7l-3.5-2c-0.2-0.1-0.2-0.2-0.2-0.5l0,0l3.5,2.1l0,0C43.1,18.5,43.2,18.7,43.3,18.7z"/>
							<path class="st37" d="M43.1,18.2l-3.5-2.1l0,0L43.1,18.2z"/>
							<path class="st38" d="M43.1,18.1L39.6,16l0,0l3.5,2V18.1z"/>
							<path class="st39" d="M43.1,18l-3.5-2.1l0,0l3.6,2C43.2,18,43.2,18,43.1,18z"/>
							<path class="st40" d="M43.2,17.9l-3.6-2l0,0l3.6,2.1V17.9z"/>
							<path class="st33" d="M43.2,17.9l-3.6-2.1h0.1l3.5,2V17.9z"/>
							<path class="st32" d="M43.2,17.8l-3.5-2l0,0l3.5,2.1V17.8z"/>
							<path class="st31" d="M43.2,17.8l-3.5-2.1l0,0L43.2,17.8L43.2,17.8z"/>
							<path class="st30" d="M43.3,17.7l-3.6-2.1h0.1l3.5,2V17.7z"/>
							<path class="st29" d="M43.3,17.6l-3.5-2l0,0l3.5,2.1V17.6z"/>
							<path class="st28" d="M43.3,17.6l-3.5-2.1l0,0l3.6,2L43.3,17.6z"/>
							<path class="st27" d="M43.4,17.5l-3.6-2h0.1l3.5,2.1V17.5z"/>
							<path class="st26" d="M43.4,17.5l-3.5-2.1l0,0L43.4,17.5c0,0,0,0,0,0.1V17.5z"/>
							<path class="st25" d="M43.5,17.4l-3.6-2.1H40l3.5,2V17.4z"/>
							<path class="st24" d="M43.5,17.3l-3.5-2l0.2-0.2l3.6,2.1L43.5,17.3z"/>
						</g>
					</g>
				</g>
			</g>
			<path class="st41" d="M58.2,8.8c0.4-0.2,0.7,0,0.7,0.4c-0.1,0.5-0.3,0.9-0.7,1.2l-14.4,8.3c-0.4,0.2-0.7,0-0.7-0.4
				c0-0.5,0.3-0.9,0.7-1.1L58.2,8.8z"/>
			<path class="st3" d="M65.3,2.4C66.8,1.6,68,2.3,68,4v2.5L34.6,25.8v-2.5c0.1-1.9,1.1-3.6,2.7-4.7L65.3,2.4z M58.2,10.4
				c0.4-0.3,0.6-0.7,0.7-1.2c0-0.4-0.3-0.6-0.7-0.4l-14.4,8.4c-0.4,0.2-0.7,0.6-0.7,1.1c0,0.4,0.3,0.6,0.7,0.4
				C43.8,18.7,58.2,10.4,58.2,10.4z"/>
			<path class="st2" d="M65.7,2.2c0.1,0,0.2,0,0.2-0.1h1.3l-3.5-1.9h-1.6l-0.4,0.2L33.8,16.5l-0.5,0.3l0,0l-0.4,0.3h-0.1l-0.2,0.2
				h-0.2c0,0.1,0,0.1-0.1,0.1h-0.2c-0.1,0-0.1,0-0.1,0.1l0,0l0,0c-0.1,0.1-0.1,0.1-0.1,0.2h-0.1v0.2h-0.1c0,0.1-0.1,0.1-0.1,0.2l0,0
				c0,0.1-0.1,0.2-0.1,0.3l0,0c0,0.1,0,0.1-0.1,0.1v0.2l0,0c0,0.1-0.1,0.1-0.1,0.2l0,0v0.2c0,0.1,0,0.1-0.1,0.1l0,0l0,0v0.3l0,0
				c-0.1,0.1-0.1,0.3-0.1,0.5v2.4l3.6,2.1v-3l0,0v-0.2l0,0v-0.2c0-0.1,0.1-0.1,0.1-0.2l0,0c0-0.1,0.1-0.1,0.1-0.2l0,0
				c0.1-0.1,0.1-0.2,0.1-0.3h0.1V21l0,0c0.1-0.1,0.1-0.1,0.1-0.2h0.1c0-0.1,0.1-0.2,0.2-0.3l0,0v-0.2h0.1v-0.2c0.1,0,0.1,0,0.1-0.1
				l0.2-0.2h0.2l0.4-0.4h0.1l0.4-0.3L65,2.9h0.4L65.7,2.2z"/>
			<g class="st0">
				<path d="M69.1,51.4L69.1,51.4L68.5,51h-0.7l-14.5,8.5h-0.4c0,0.1,0,0.1-0.1,0.1h-0.1c0,0.1,0,0.1-0.1,0.1h-0.1
					c0,0.1,0,0.1-0.1,0.1h-0.1v3.3l0,0v4l0.6,0.4l3.2-4.9L68.4,57c0.6-0.4,1-1,1-1.7V52C69.4,51.8,69.3,51.5,69.1,51.4z M69,51.3
					L69,51.3z M53.9,59.9c-0.1,0-0.2,0-0.2,0.1l0,0C53.7,59.9,53.8,59.9,53.9,59.9z M53.3,60.4l0.2-0.2l0,0L53.3,60.4L53.3,60.4z
					 M53.1,60.6L53.1,60.6C53.1,60.6,53.1,60.6,53.1,60.6L53.1,60.6z"/>
				<path d="M56.3,55.7v-4.3l0,0v-3.6c0-0.3-0.1-0.5-0.3-0.7l0,0l-0.6-0.3h-0.8l-15.4,9h-0.1c-0.1,0-0.1,0-0.1,0.1h-0.5
					c0,0.1,0,0.1-0.1,0.1l0,0c0,0.1,0,0.1-0.1,0.1h-0.2v3.5l0,0c0,0.1,0,0.1,0.1,0.1h0.2l0.7,0.3H39c0.3,0.1,0.6,0.1,0.8-0.1
					l13.1-7.5L56.3,55.7z M39.6,56.3L39.6,56.3c-0.1,0-0.2,0.1-0.2,0.2l0,0l0,0C39.4,56.4,39.5,56.3,39.6,56.3L39.6,56.3z
					 M38.9,57.2c0-0.1,0.1-0.1,0.1-0.2C38.9,57.1,38.9,57.2,38.9,57.2L38.9,57.2z M38.8,57.4L38.8,57.4z M38.8,61.8L38.8,61.8z"/>
				<path d="M60.5,51.7c1.3-0.9,2.2-2.4,2.3-4c0-0.6-0.2-1.2-0.7-1.5l0,0l-0.6-0.3c0-0.1-0.1-0.1-0.2-0.1h-1.1c0,0.1,0,0.1-0.1,0.1
					H60c0,0.1,0,0.1-0.1,0.1h-0.1c0,0.1,0,0.1-0.1,0.1H59c-0.1,0-0.1,0-0.1,0.1s-0.1,0-0.1,0.1s-0.1,0-0.1,0.1h-0.1l-0.2,0.2
					c0,0.1-0.1,0.2-0.1,0.3h-0.1v0.2c-0.1,0-0.1,0-0.1,0.1s0,0.1-0.1,0.1v0.2l0,0c-0.1,0-0.1,0-0.1,0.1l0,0c0,0.1,0,0.1-0.1,0.1l0,0
					c-0.1,0-0.1,0-0.1,0.1h-0.1V48l0,0c0,0.1,0.1,0.1,0.1,0.2l0,0c0,0.1,0,0.1,0.1,0.1l0,0v0.2h0.1c0,0.1,0.1,0.1,0.1,0.2h0.1
					c0,0.1,0.1,0.1,0.1,0.2l0.7,0.3l0,0c-0.5,0.7-0.3,1.7,0.4,2.2C59.6,51.7,60.1,51.8,60.5,51.7z M61.7,46.1L61.7,46.1z M61.5,46.1
					L61.5,46.1z M61,46.2c0-0.1,0.1-0.1,0.2-0.1l0,0C61.1,46.1,61,46.1,61,46.2z M60.5,46.4h0.2l-0.2,0.2L60,46.9l0,0L60.5,46.4z
					 M60,46.7L60,46.7l-0.2,0.2L60,46.7z M59.6,47.1L59.6,47.1l-0.2,0.2L59.6,47.1z M58.9,48.1L58.9,48.1l-0.3,0.5l0,0L58.9,48.1z
					 M58.2,49.8L58.2,49.8c0.1-0.2,0.1-0.4,0.2-0.6l0,0c0-0.1,0-0.2,0.1-0.3c-0.2,0.4-0.3,0.9-0.3,1.4V49.8z M58.2,50.6L58.2,50.6z
					 M58.3,50.9v0.2l0,0V50.9z M58.3,51.1c0,0.1,0.1,0.1,0.1,0.2l0,0c-0.1,0-0.1,0-0.1-0.1C58.2,51.2,58.2,51.1,58.3,51.1
					C58.3,51.1,58.3,51.1,58.3,51.1z M58.4,51.3C58.4,51.4,58.4,51.4,58.4,51.3L58.4,51.3C58.4,51.4,58.4,51.4,58.4,51.3z"/>
				<path d="M49.2,64.3L49.2,64.3l-0.6-0.4h-1c-0.1,0-0.1,0-0.1,0.1h-0.2c-0.1,0-0.1,0-0.1,0.1h-0.9c-0.1,0-0.1,0-0.1,0.1h-0.6
					c0,0.1-0.1,0.1-0.1,0.2l-0.2,0.3l0,0c0,0.1-0.1,0.1-0.1,0.2h-0.1c0,0.1-0.1,0.1-0.1,0.2h-0.1c-0.1,0-0.1,0-0.1,0.1l0,0v0.2l0,0
					c0,0.1,0,0.1-0.1,0.2h0.1v0.2h0.1c0,0.1,0.1,0.1,0.1,0.2l0,0c0.1,0,0.1,0.1,0.2,0.2l0,0l0.2,0.2l0.6,0.3l0,0
					c0.4,0.3,1,0.2,1.7-0.1c1.3-0.9,2.1-2.4,2.2-4C49.3,63,49.1,63.6,49.2,64.3z M48.8,64.2L48.8,64.2z M48.5,64.2
					C48.5,64.2,48.5,64.1,48.5,64.2L48.5,64.2C48.5,64.1,48.5,64.2,48.5,64.2z M48.4,64.2L48.4,64.2z M48,64.2L48,64.2z M47.5,64.5
					l0.3-0.2l0,0L47.5,64.5l-0.4,0.3l0,0L47.5,64.5z M46.6,65.2L46.6,65.2l-0.2,0.3L46.6,65.2z M45.5,67.1c0,0.1-0.1,0.1-0.1,0.2
					l0,0C45.4,67.2,45.5,67.2,45.5,67.1z M45.4,69.2v0.2l0,0V69.2z M45.7,69.8L45.7,69.8z"/>
				<path d="M53.3,35.8h-0.4c0,0.1,0,0.1-0.1,0.1h-0.1c0,0.1,0,0.1-0.1,0.1h-0.3v3.3l0,0v4l0.6,0.4l3.2-4.9l12.3-7.1
					c0.6-0.4,1-1,1-1.7v-1.7c0-0.2-0.1-0.5-0.3-0.6l0,0l-0.6-0.4h-0.7L53.3,35.8z M53.1,36.9L53.1,36.9
					C53.1,36.9,53.1,36.9,53.1,36.9L53.1,36.9z M69,27.6L69,27.6z M53.9,36.2L53.9,36.2z M53.5,36.5L53.5,36.5z"/>
				<path d="M38.1,37.4L38.1,37.4C38.1,37.5,38.1,37.5,38.1,37.4l0.2,0.1c0.1,0,0.1,0,0.1,0.1l0.7,0.3H39c0.3,0.1,0.6,0.1,0.8-0.1
					l13.1-7.5l3.4,1.7v-4.3l0,0v-3.6c0-0.3-0.1-0.5-0.3-0.7l0,0l-0.6-0.3c0-0.1,0-0.1-0.1-0.1h-0.7l-15.4,9h-0.1
					C39,32,39,32,39,32.1h-0.6c0,0.1,0,0.1-0.1,0.1h-0.2v3.5L38.1,37.4z M38.8,38.1L38.8,38.1z M39.6,32.6L39.6,32.6
					c-0.1,0-0.2,0.1-0.2,0.2l0,0l0,0C39.4,32.7,39.5,32.6,39.6,32.6L39.6,32.6z M38.9,33.5c0-0.1,0.1-0.1,0.1-0.2
					C38.9,33.4,38.9,33.5,38.9,33.5L38.9,33.5z M38.8,33.7L38.8,33.7z"/>
				<path d="M57.6,26.5L57.6,26.5c0,0.1,0.1,0.1,0.1,0.2h0.1v0.2h0.1c0,0.1,0.1,0.1,0.1,0.2h0.1c0,0.1,0.1,0.1,0.1,0.2l0.7,0.3h-0.1
					c0.5,0.3,1.2,0.2,1.7-0.1c1.4-0.9,2.2-2.4,2.3-4c0-0.6-0.2-1.1-0.7-1.5l0,0l-0.6-0.3h-1c0,0.1,0,0.1-0.1,0.1H60
					c0,0.1,0,0.1-0.1,0.1h-0.3c-0.1,0-0.1,0-0.1,0.1h-0.6c-0.1,0-0.1,0-0.1,0.1h-0.2l-0.2,0.2c0,0.1-0.1,0.2-0.1,0.3h-0.1v0.2
					c-0.1,0-0.1,0-0.1,0.1H58v0.2h-0.2c-0.1,0-0.1,0-0.1,0.1h-0.1V26l0,0L57.6,26.5z M58.3,27.2v0.2l0,0V27.2z M58.3,27.4
					c0,0.1,0.1,0.1,0.1,0.2l0,0C58.3,27.5,58.3,27.5,58.3,27.4z M58.4,27.6L58.4,27.6z M61.5,22.4L61.5,22.4z M61.3,22.4L61.3,22.4z
					 M61,22.4L61,22.4z M60.5,22.7L60.5,22.7L60,23l0,0L60.5,22.7z M58.9,24.4L58.9,24.4l-0.3,0.5l0,0L58.9,24.4z M58.2,26.1
					L58.2,26.1c0.1-0.2,0.1-0.4,0.2-0.6l0,0c0-0.1,0-0.2,0.1-0.3c-0.2,0.4-0.3,0.9-0.3,1.4V26.1z"/>
				<path d="M47.6,46.1c1.3-0.9,2.1-2.4,2.2-4c0.1-0.6-0.1-1.1-0.6-1.5l0,0l-0.6-0.4h-1c-0.1,0-0.1,0-0.1,0.1h-0.4
					c-0.1,0-0.1,0-0.1,0.1h-0.3c0,0.1,0,0.1-0.1,0.1h-0.2c0,0-107792-107791.4-0.3,0.3h-0.4c0,0.1,0,0.1-0.1,0.1
					c0,0.1-0.1,0.1-0.1,0.2l-0.2,0.3l0,0c0,0.1-0.1,0.1-0.1,0.2c0,0.1,0,0.1-0.1,0.1l0,0c0,0.1-0.1,0.1-0.1,0.2h-0.1
					c-0.1,0-0.1,0-0.1,0.1l0,0c0,0.1,0,0.1-0.1,0.2l0,0c0,0.1,0,0.1-0.1,0.2h0.1v0.2h0.1c0,0.1,0.1,0.1,0.1,0.2l0,0
					c0.1,0,0.1,0.1,0.2,0.2l0,0l0.2,0.2l0.6,0.3l0,0C46.3,46.5,46.9,46.4,47.6,46.1z M48.5,40.5L48.5,40.5z M48.4,40.5L48.4,40.5z
					 M48.1,40.5L48.1,40.5z M47.5,40.8l-0.4,0.3l0,0L47.5,40.8z M46.6,41.5L46.6,41.5c0,0.1-0.1,0.1-0.2,0.2
					C46.5,41.7,46.6,41.6,46.6,41.5L46.6,41.5z M45.5,43.4c0,0.1-0.1,0.1-0.1,0.2l0,0C45.4,43.5,45.5,43.5,45.5,43.4z M45.4,45.5
					v0.2l0,0V45.5z"/>
			</g>
			<polygon class="st42" points="69.4,53.2 68.8,52.8 68.8,53.3 69.4,53.6 			"/>
			<polygon class="st42" points="69.4,51.9 68.8,51.5 68.8,52 69.4,52.4 			"/>
			<polygon class="st42" points="69.4,50.5 68.8,50.2 68.8,50.7 69.4,51 			"/>
			<polygon class="st43" points="69.4,53.6 68.8,53.3 54,61.9 54.6,62.2 			"/>
			<polygon class="st44" points="69.4,53.2 68.8,52.8 54,61.4 54.6,61.7 			"/>
			<polygon class="st45" points="54.6,61.7 54,61.4 54,61.9 54.6,62.2 			"/>
			<polygon class="st43" points="69.4,52.4 68.8,52 54,60.6 54.6,60.9 			"/>
			<polygon class="st44" points="69.4,51.9 68.8,51.5 54,60.1 54.6,60.4 			"/>
			<polygon class="st45" points="54.6,60.4 54,60.1 54,60.6 54.6,60.9 			"/>
			<polygon class="st43" points="69.4,51 68.8,50.7 54,59.2 54.6,59.6 			"/>
			<polygon class="st45" points="54.6,59.1 54,58.7 54,59.2 54.6,59.6 			"/>
			<polygon class="st46" points="54.6,59.1 54.6,59.6 69.4,51 69.4,50.5 			"/>
			<polygon class="st44" points="69.4,50.5 68.8,50.2 54,58.7 54.6,59.1 			"/>
			<path class="st47" d="M69.3,49.4c0.5-0.3,1-0.1,1,0.5v3.3c0,0.7-0.4,1.4-1,1.7L57,62l-3.2,4.9v-4l0,0v-3.4c0-0.7,0.4-1.3,0.9-1.7
				L69.3,49.4z M54.6,59.6L69.4,51v-0.5l-14.8,8.6V59.6z M54.6,62.2l14.8-8.6v-0.4l-14.8,8.5C54.6,61.7,54.6,62.2,54.6,62.2z
				 M54.6,60.9l14.8-8.5v-0.5l-14.8,8.5C54.6,60.4,54.6,60.9,54.6,60.9z"/>
			<polygon class="st46" points="54.6,61.7 54.6,62.2 69.4,53.6 69.4,53.2 			"/>
			<polygon class="st46" points="54.6,60.4 54.6,60.9 69.4,52.4 69.4,51.9 			"/>
			<path class="st3" d="M53.2,59.1h0.3V58h0.3c0.1,0,0.1,0,0.1-0.1h0.3L68.7,49h0.6c0.1,0,0.1,0,0.1,0.1l0.6,0.3h-0.7l-14.6,8.4
				h-0.2c0,0.1-0.1,0.1-0.1,0.2l0,0l-0.2,0.2L54,58.4l0,0c0,0.1,0,0.2-0.1,0.3l0,0c0,0.1,0,0.1-0.1,0.2l0,0v3.8l0,0v4l-0.6-0.3v-3.9
				l0,0C53.2,62.5,53.2,59.1,53.2,59.1z"/>
			<polygon class="st42" points="56.3,49.1 55.7,48.7 55.7,49.3 56.3,49.6 			"/>
			<polygon class="st42" points="56.3,47.7 55.7,47.4 55.7,47.9 56.3,48.3 			"/>
			<polygon class="st42" points="56.3,46.3 55.7,45.9 55.7,46.5 56.3,46.8 			"/>
			<polygon class="st43" points="56.3,49.6 55.7,49.3 39.9,58.4 40.6,58.7 			"/>
			<polygon class="st44" points="56.3,49.1 55.7,48.7 39.9,57.9 40.6,58.2 			"/>
			<polygon class="st46" points="40.6,58.2 40.6,58.7 56.3,49.6 56.3,49.1 			"/>
			<polygon class="st45" points="40.6,58.2 39.9,57.9 39.9,58.4 40.6,58.7 			"/>
			<polygon class="st43" points="56.3,48.3 55.7,47.9 39.9,57 40.6,57.4 			"/>
			<polygon class="st44" points="56.3,47.7 55.7,47.4 39.9,56.5 40.6,56.8 			"/>
			<polygon class="st45" points="40.6,56.8 39.9,56.5 39.9,57 40.6,57.4 			"/>
			<polygon class="st43" points="56.3,46.8 55.7,46.5 39.9,55.6 40.6,55.9 			"/>
			<polygon class="st44" points="56.3,46.3 55.7,45.9 39.9,55 40.6,55.4 			"/>
			<polygon class="st45" points="40.6,55.4 39.9,55 39.9,55.6 40.6,55.9 			"/>
			<path class="st47" d="M56.2,45.1c0.2-0.2,0.6-0.2,0.8,0c0.2,0.2,0.2,0.4,0.2,0.6v3.5l0,0v4.3l-3.4-1.2L40.7,60
				c-0.6,0.3-1.1,0-1.1-0.6v-3.5c0-0.7,0.5-1.4,1.1-1.8L56.2,45.1z M40.6,57.4l15.7-9.1v-0.6l-15.7,9.1
				C40.6,56.8,40.6,57.4,40.6,57.4z M40.6,58.7l15.7-9.1v-0.5l-15.7,9.1V58.7z M40.6,55.9l15.7-9.1v-0.5l-15.7,9.1V55.9z"/>
			<polygon class="st46" points="40.6,56.8 40.6,57.4 56.3,48.3 56.3,47.7 			"/>
			<polygon class="st46" points="40.6,55.4 40.6,55.9 56.3,46.8 56.3,46.3 			"/>
			<path class="st3" d="M39,55.5L39,55.5C39,55.4,39,55.4,39,55.5l0.3-0.1c0-0.1,0.1-0.1,0.1-0.2h0.3c0-0.1,0-0.1,0.1-0.1H40
				l15.5-8.9h0.7c0,0.1,0,0.1,0.1,0.1l0.6,0.3h-0.7l-15.5,9h-0.2c-0.1,0.1-0.2,0.1-0.2,0.2l0,0l-0.4,0.4l0,0
				c-0.1,0.1-0.1,0.1-0.1,0.2l0,0c0,0.1-0.1,0.2-0.1,0.3l0,0c0,0.2-0.1,0.3-0.1,0.5v3.5c0,0.1,0,0.1,0.1,0.2l0,0v0.2h0.2l-0.6-0.3
				H39V55.5z"/>
			<g>
				<g>
					<defs>
						<path id="SVGID_11_" d="M61.6,46c0.2,0.2,0.4,0.6,0.5,0.9l0.6,0.3c-0.1-0.3-0.2-0.6-0.5-0.8L61.6,46z"/>
					</defs>
					<clipPath id="SVGID_12_">
						<use xlink:href="#SVGID_11_"  style="overflow:visible;"/>
					</clipPath>
					<g class="st48">
						<g>
							<path class="st49" d="M62.2,46.4L61.6,46l0.3,0.3l0.6,0.4C62.4,46.5,62.3,46.5,62.2,46.4z"/>
							<path class="st50" d="M62.5,46.7l-0.6-0.4l0,0L62.5,46.7z"/>
							<path class="st51" d="M62.5,46.8l-0.6-0.4c0,0.1,0,0.1,0.1,0.1L62.5,46.8C62.6,46.8,62.6,46.8,62.5,46.8z"/>
							<path class="st52" d="M62.6,46.9L62,46.5l0,0L62.6,46.9z"/>
							<path class="st53" d="M62.6,47L62,46.6l0,0L62.6,47z"/>
							<path class="st54" d="M62.6,47.1L62,46.7h0.1L62.6,47.1C62.7,47,62.7,47,62.6,47.1L62.6,47.1z"/>
							<path class="st55" d="M62.7,47.2l-0.6-0.4l0,0l0.6,0.3V47.2z"/>
						</g>
					</g>
				</g>
			</g>
			<g>
				<g>
					<defs>
						<polygon id="SVGID_13_" points="62.2,46.4 61.6,46 61.4,46 62,46.3 						"/>
					</defs>
					<clipPath id="SVGID_14_">
						<use xlink:href="#SVGID_13_"  style="overflow:visible;"/>
					</clipPath>
					<g class="st56">
						<g>
							<path class="st57" d="M62.2,46.4L61.6,46h-0.1l0.6,0.3C62.1,46.4,62.1,46.4,62.2,46.4z"/>
							<path class="st58" d="M62.1,46.3L61.5,46h-0.1L62.1,46.3L62.1,46.3z"/>
							<path class="st59" d="M62,46.3L61.4,46l0,0L62,46.3z"/>
						</g>
					</g>
				</g>
			</g>
			<g>
				<g>
					<defs>
						<polygon id="SVGID_15_" points="61.5,45.5 61.8,45.7 62.1,45.7 						"/>
					</defs>
					<clipPath id="SVGID_16_">
						<use xlink:href="#SVGID_15_"  style="overflow:visible;"/>
					</clipPath>
					<g class="st60">
						<g>
							<path class="st61" d="M62.1,45.8l-0.6-0.3l0,0l0.6,0.4l0,0V45.8z"/>
						</g>
					</g>
				</g>
			</g>
			<polygon class="st62" points="62.7,47.2 62.1,46.9 59.5,48.4 60.1,48.7 			"/>
			<g>
				<g>
					<defs>
						<path id="SVGID_17_" d="M61.4,46l0.6,0.3c0-0.1,0.1-0.3,0.1-0.4h-0.3l-0.3-0.2l0.6,0.4c0-0.2-0.1-0.4-0.2-0.5l-0.6-0.4
							c0.1,0.1,0.2,0.3,0.2,0.5C61.5,45.8,61.4,45.9,61.4,46z"/>
					</defs>
					<clipPath id="SVGID_18_">
						<use xlink:href="#SVGID_17_"  style="overflow:visible;"/>
					</clipPath>
					<g class="st63">
						<g>
							<path class="st49" d="M61.9,45.4L61.3,45c0,0.1,0,0.1,0.1,0.2L61.9,45.4L61.9,45.4z"/>
							<path class="st50" d="M62,45.5l-0.6-0.3l0,0l0.6,0.4V45.5z"/>
							<path class="st51" d="M62,45.6l-0.6-0.4l0,0l0.6,0.3V45.6z"/>
							<path class="st52" d="M62,45.6l-0.6-0.3l0,0l0.7,0.3H62z"/>
							<path class="st53" d="M62.1,45.6l-0.7-0.3l0,0l0.7,0.4V45.6z"/>
							<path class="st54" d="M62.1,45.7l-0.7-0.4h0.1l0.6,0.3L62.1,45.7z"/>
							<path class="st55" d="M62.1,45.7l-0.6-0.3l0,0L62.1,45.7z"/>
							<path class="st64" d="M62.1,45.7l-0.6-0.3l0,0l0.6,0.4V45.7z"/>
							<path class="st65" d="M62.1,45.8l-0.6-0.4l0,0l0.6,0.3V45.8z"/>
							<path class="st66" d="M62.1,45.8l-0.6-0.3l0,0L62.1,45.8z"/>
							<path class="st61" d="M62.1,45.8l-0.6-0.3l0,0l0.6,0.4l0,0V45.8z"/>
							<path class="st67" d="M62.1,45.9l-0.6-0.4l0,0l0.6,0.3V45.9z"/>
							<path class="st68" d="M62.1,45.9l-0.6-0.3l0,0L62.1,45.9z"/>
							<path class="st69" d="M62.1,45.9l-0.6-0.3l0,0l0.6,0.4V45.9z"/>
							<path class="st70" d="M62.1,46l-0.6-0.4h-0.1l0.7,0.3L62.1,46z"/>
							<path class="st71" d="M62.1,46l-0.7-0.3l0,0L62.1,46z"/>
							<path class="st72" d="M62.1,46l-0.7-0.3l0,0l0.7,0.4V46z"/>
							<path class="st73" d="M62.1,46.1l-0.7-0.4l0,0L62,46L62.1,46.1z"/>
							<path class="st74" d="M62,46.1l-0.6-0.3l0,0l0.6,0.4V46.1z"/>
							<path class="st75" d="M62,46.2l-0.6-0.4l0,0L62,46.2z"/>
							<path class="st76" d="M62,46.2l-0.6-0.4l0,0l0.6,0.3V46.2z"/>
							<path class="st77" d="M62,46.2l-0.6-0.3l0,0l0.6,0.4V46.2z"/>
							<path class="st78" d="M62,46.3l-0.6-0.4l0,0l0.6,0.3V46.3z"/>
						</g>
					</g>
				</g>
			</g>
			<g>
				<g>
					<defs>
						<path id="SVGID_19_" d="M60.8,47l-0.6-0.4c-0.4,0.5-0.6,1.1-0.7,1.8l0.6,0.3C60.2,48.1,60.4,47.5,60.8,47z"/>
					</defs>
					<clipPath id="SVGID_20_">
						<use xlink:href="#SVGID_19_"  style="overflow:visible;"/>
					</clipPath>
					<g class="st79">
						<g>
							<path class="st80" d="M60.8,47l-0.6-0.4c0,0.1,0,0.1-0.1,0.1C60.1,46.7,60.8,47,60.8,47z"/>
							<path class="st81" d="M60.8,47l-0.7-0.3l0,0l0.6,0.3H60.8z"/>
							<path class="st82" d="M60.7,47.1l-0.6-0.3C60,46.8,60,46.9,60,47l0.6,0.3C60.7,47.2,60.7,47.2,60.7,47.1z"/>
							<path class="st81" d="M60.6,47.3L60,47c-0.1,0-0.1,0-0.1,0.1L60.6,47.3C60.6,47.4,60.6,47.4,60.6,47.3z"/>
							<path class="st80" d="M60.5,47.4l-0.6-0.3h-0.1C59.8,47.1,60.5,47.4,60.5,47.4z"/>
							<path class="st80" d="M60.5,47.5l-0.7-0.3l0,0l0.6,0.4L60.5,47.5z"/>
							<path class="st80" d="M60.4,47.6l-0.6-0.4l0,0L60.4,47.6z"/>
							<path class="st47" d="M60.4,47.7l-0.6-0.4c0,0.1,0,0.1-0.1,0.1L60.4,47.7L60.4,47.7z"/>
							<path class="st83" d="M60.4,47.8l-0.7-0.4l0,0l0.6,0.3L60.4,47.8z"/>
							<path class="st84" d="M60.3,47.8l-0.6-0.3l0,0L60.3,47.8z"/>
							<path class="st85" d="M60.3,47.9l-0.6-0.3h-0.1l0.7,0.4L60.3,47.9z"/>
							<path class="st86" d="M60.3,48l-0.7-0.4l0,0l0.6,0.4H60.3z"/>
							<path class="st87" d="M60.2,48.1l-0.6-0.4l0,0L60.2,48.1z"/>
							<path class="st88" d="M60.2,48.2l-0.6-0.4l0,0L60.2,48.2z"/>
							<path class="st89" d="M60.2,48.3l-0.6-0.4c0,0.1,0,0.1-0.1,0.1L60.2,48.3L60.2,48.3z"/>
							<path class="st90" d="M60.2,48.4L59.5,48l0,0l0.6,0.4H60.2z"/>
							<path class="st91" d="M60.1,48.5l-0.6-0.4l0,0L60.1,48.5z"/>
							<path class="st92" d="M60.1,48.6l-0.6-0.4l0,0L60.1,48.6z"/>
							<path class="st93" d="M60.1,48.7l-0.6-0.4l0,0l0.6,0.3V48.7z"/>
						</g>
					</g>
				</g>
			</g>
			<g>
				<g>
					<defs>
						<path id="SVGID_21_" d="M61.9,45.4L61.3,45h-0.5l0.6,0.4C61.6,45.3,61.7,45.3,61.9,45.4z"/>
					</defs>
					<clipPath id="SVGID_22_">
						<use xlink:href="#SVGID_21_"  style="overflow:visible;"/>
					</clipPath>
					<g class="st94">
						<g>
							<path class="st57" d="M61.9,45.4L61.3,45h-0.1L61.9,45.4L61.9,45.4z"/>
							<path class="st58" d="M61.8,45.4L61.2,45l0,0L61.8,45.4z"/>
							<path class="st59" d="M61.8,45.4L61.2,45h-0.1L61.8,45.4L61.8,45.4z"/>
							<path class="st95" d="M61.7,45.4L61.1,45l0,0L61.7,45.4z"/>
							<path class="st96" d="M61.7,45.4L61.1,45H61L61.7,45.4z"/>
							<path class="st97" d="M61.7,45.4L61,45l0,0l0.6,0.4H61.7z"/>
							<path class="st98" d="M61.6,45.4L61,45l0,0L61.6,45.4z"/>
							<path class="st99" d="M61.6,45.4L61,45l0,0L61.6,45.4z"/>
							<path class="st100" d="M61.6,45.4L61,45h-0.1L61.6,45.4L61.6,45.4z"/>
							<path class="st101" d="M61.5,45.4L60.9,45l0,0L61.5,45.4z"/>
							<path class="st102" d="M61.5,45.4L60.9,45l0,0L61.5,45.4z"/>
							<path class="st103" d="M61.5,45.4L60.9,45h-0.1l0.7,0.3L61.5,45.4z"/>
							<path class="st104" d="M61.5,45.4l-0.7-0.3l0,0l0.6,0.3H61.5z"/>
							<path class="st93" d="M61.4,45.4l-0.6-0.3l0,0L61.4,45.4z"/>
							<path class="st92" d="M61.4,45.4l-0.6-0.3l0,0l0.6,0.4V45.4z"/>
						</g>
					</g>
				</g>
			</g>
			<g>
				<g>
					<defs>
						<path id="SVGID_23_" d="M61.4,45.5l-0.6-0.4c-0.4,0.3-0.7,0.7-0.7,1.2c0,0.1,0,0.3,0.1,0.3l0.6,0.4c-0.1-0.1-0.1-0.2-0.1-0.3
							C60.7,46.2,61,45.7,61.4,45.5z"/>
					</defs>
					<clipPath id="SVGID_24_">
						<use xlink:href="#SVGID_23_"  style="overflow:visible;"/>
					</clipPath>
					<g class="st105">
						<g>
							<polygon class="st92" points="61.4,45.5 60.8,45.1 60.8,45.1 61.4,45.5 61.4,45.5 							"/>
							<path class="st91" d="M61.4,45.5l-0.6-0.4h-0.1L61.4,45.5L61.4,45.5z"/>
							<path class="st90" d="M61.3,45.5l-0.6-0.4l0,0L61.3,45.5z"/>
							<path class="st89" d="M61.3,45.5l-0.6-0.4l0,0l0.6,0.3V45.5z"/>
							<path class="st88" d="M61.3,45.5l-0.6-0.3h-0.1C60.6,45.2,61.3,45.5,61.3,45.5z"/>
							<path class="st87" d="M61.3,45.5l-0.7-0.3l0,0l0.6,0.4C61.2,45.5,61.2,45.5,61.3,45.5z"/>
							<path class="st86" d="M61.2,45.6l-0.6-0.4l0,0L61.2,45.6z"/>
							<path class="st85" d="M61.2,45.6l-0.6-0.4h-0.1l0.7,0.3L61.2,45.6z"/>
							<path class="st84" d="M61.2,45.6l-0.7-0.3l0,0l0.6,0.3H61.2z"/>
							<path class="st83" d="M61.1,45.6l-0.6-0.3l0,0l0.6,0.4V45.6z"/>
							<path class="st47" d="M61.1,45.7l-0.6-0.4l0,0l0.6,0.3V45.7z"/>
							<path class="st80" d="M61.1,45.7l-0.6-0.3h-0.1L61.1,45.7L61.1,45.7z"/>
							<path class="st80" d="M61,45.7l-0.6-0.3l0,0l0.6,0.4V45.7z"/>
							<path class="st80" d="M61,45.8l-0.6-0.4l0,0l0.6,0.3V45.8z"/>
							<path class="st81" d="M61,45.8l-0.6-0.3h-0.1l0.6,0.4C61,45.9,61,45.9,61,45.8z"/>
							<path class="st82" d="M60.9,45.9l-0.6-0.4l0,0L60.9,45.9z"/>
							<path class="st81" d="M60.9,46l-0.6-0.4h-0.1l0.7,0.3L60.9,46z"/>
							<path class="st80" d="M60.9,46l-0.7-0.3l0,0l0.6,0.4C60.8,46,60.8,46,60.9,46z"/>
							<path class="st80" d="M60.8,46.1l-0.6-0.4l0,0L60.8,46.1z"/>
							<path class="st80" d="M60.8,46.1l-0.6-0.4l0,0l0.6,0.3V46.1z"/>
							<path class="st47" d="M60.8,46.1l-0.6-0.3l0,0l0.6,0.4V46.1z"/>
							<path class="st83" d="M60.8,46.2l-0.6-0.4l0,0L60.8,46.2z"/>
							<path class="st84" d="M60.8,46.2l-0.6-0.4l0,0l0.6,0.3V46.2z"/>
							<path class="st85" d="M60.8,46.2l-0.6-0.3h-0.1l0.7,0.4L60.8,46.2z"/>
							<path class="st86" d="M60.8,46.3l-0.7-0.4l0,0l0.6,0.4H60.8z"/>
							<path class="st87" d="M60.7,46.3l-0.6-0.4l0,0l0.6,0.3V46.3z"/>
							<path class="st88" d="M60.7,46.3L60.1,46l0,0l0.6,0.4V46.3z"/>
							<path class="st89" d="M60.7,46.4L60.1,46l0,0l0.6,0.3V46.4z"/>
							<path class="st90" d="M60.7,46.4l-0.6-0.3l0,0L60.7,46.4z"/>
							<path class="st91" d="M60.7,46.4l-0.6-0.3l0,0l0.6,0.4V46.4z"/>
							<path class="st92" d="M60.7,46.5l-0.6-0.4l0,0l0.6,0.3V46.5z"/>
							<path class="st93" d="M60.7,46.5l-0.6-0.3l0,0l0.6,0.4V46.5z"/>
							<path class="st104" d="M60.7,46.6l-0.6-0.4l0,0L60.7,46.6z"/>
							<path class="st103" d="M60.7,46.6l-0.6-0.4l0,0l0.6,0.3V46.6z"/>
							<path class="st102" d="M60.7,46.6l-0.6-0.3l0,0l0.6,0.4l0,0V46.6z"/>
							<path class="st101" d="M60.7,46.7l-0.6-0.4l0,0L60.7,46.7z"/>
							<path class="st100" d="M60.7,46.7l-0.6-0.4l0,0l0.6,0.3V46.7z"/>
							<path class="st99" d="M60.7,46.7l-0.6-0.3l0,0L60.7,46.7z"/>
							<path class="st98" d="M60.7,46.7l-0.6-0.3l0,0l0.6,0.4V46.7z"/>
							<path class="st97" d="M60.7,46.8l-0.6-0.4l0,0l0.6,0.3V46.8z"/>
							<path class="st96" d="M60.7,46.8l-0.6-0.3l0,0L60.7,46.8z"/>
							<path class="st95" d="M60.7,46.8l-0.6-0.3l0,0l0.6,0.4V46.8z"/>
							<path class="st59" d="M60.7,46.9l-0.6-0.4l0,0l0.6,0.3V46.9z"/>
							<path class="st58" d="M60.7,46.9l-0.6-0.3h0.1l0.6,0.4C60.8,46.9,60.8,46.9,60.7,46.9z"/>
							<path class="st57" d="M60.8,47l-0.6-0.4l0,0L60.8,47z"/>
						</g>
					</g>
				</g>
			</g>
			<path class="st47" d="M61.4,45.5c-0.4,0.2-0.7,0.7-0.7,1.2c0,0.1,0,0.2,0.1,0.3c-0.4,0.5-0.6,1.1-0.7,1.7l2.6-1.5
				c0-0.4-0.3-0.8-0.7-0.9c0-0.1,0.1-0.3,0.1-0.4S61.8,45.2,61.4,45.5z"/>
			<path class="st106" d="M58.5,47.8L58.5,47.8v-0.2c0.1,0,0.1,0,0.1-0.1h0.1v-0.2h0.2c-0.4,0-0.6-0.3-0.6-0.7S58.6,46,59,46v-0.2
				h0.2c0-0.1,0.1-0.2,0.1-0.3l0.2-0.2c0-0.1,0-0.1,0.1-0.1c0,0,45293.8,45293.4,0.2-0.2h0.1c0.1,0,0.1,0,0.1-0.1
				c0.1,0,0.1,0,0.1-0.1c0.1,0,0.1,0,0.1-0.1h0.1c0.1,0,0.1,0,0.1-0.1h0.1c0.1,0,0.1,0,0.1-0.1h0.1c0-0.1,0-0.1,0.1-0.1l0,0
				c0.1,0,0.1,0,0.1-0.1h0.6c0-0.1,0-0.1,0.1-0.1h0.8l0.6,0.3h-0.2c0-0.1,0-0.1-0.1-0.1h-1.3l-0.5,0.3l0,0l-0.4,0.4l0,0
				c-0.3,0.3-0.5,0.6-0.7,1h-0.1c-0.1,0.2-0.1,0.4-0.2,0.6l0,0c-0.1,0.2-0.2,0.3-0.2,0.5l0,0c-0.1,0.2-0.1,0.4-0.2,0.6l0,0v0.8l0,0
				v0.3l0,0c0,0.1,0.1,0.1,0.1,0.2l0,0c0,0.1,0,0.1,0.1,0.2l0,0v0.2c0.1,0.1,0.1,0.1,0.1,0.2h0.1c0,0.1,0.1,0.1,0.2,0.1L59,49.5
				c0-0.1-0.1-0.1-0.2-0.2l0,0l-0.2-0.2l0,0v-0.2h-0.1c-0.1,0-0.1,0-0.1-0.1l0,0L58.5,47.8z"/>
			<path class="st107" d="M63.7,45.6c-0.1,1.6-0.9,3.1-2.3,4c-1.3,0.7-2.3,0.1-2.3-1.3c0.1-1.6,0.9-3.1,2.3-4
				C62.6,43.6,63.7,44.1,63.7,45.6z M62.7,47.2c0-0.4-0.3-0.8-0.7-0.9c0-0.1,0.1-0.3,0.1-0.4s-0.3-0.7-0.7-0.4
				c-0.4,0.2-0.7,0.7-0.7,1.2c0,0.1,0,0.2,0.1,0.3c-0.4,0.5-0.6,1.1-0.7,1.7C60.1,48.7,62.7,47.2,62.7,47.2z"/>
			<g>
				<g>
					<defs>
						<path id="SVGID_25_" d="M48.7,64.1c0.2,0.2,0.4,0.6,0.4,0.9l0.6,0.3c0-0.3-0.1-0.6-0.4-0.8L48.7,64.1z"/>
					</defs>
					<clipPath id="SVGID_26_">
						<use xlink:href="#SVGID_25_"  style="overflow:visible;"/>
					</clipPath>
					<g class="st108">
						<g>
							<path class="st49" d="M49.3,64.5l-0.6-0.4l0.2,0.3l0.6,0.3C49.5,64.6,49.4,64.5,49.3,64.5z"/>
							<path class="st50" d="M49.5,64.7l-0.6-0.3H49L49.5,64.7C49.6,64.7,49.6,64.7,49.5,64.7L49.5,64.7z"/>
							<path class="st51" d="M49.6,64.9L49,64.5l0,0L49.6,64.9z"/>
							<path class="st52" d="M49.6,65L49,64.6h0.1L49.6,65L49.6,65z"/>
							<path class="st53" d="M49.7,65.1l-0.6-0.4l0,0L49.7,65.1z"/>
							<path class="st54" d="M49.7,65.2l-0.6-0.4l0,0L49.7,65.2z"/>
							<path class="st55" d="M49.7,65.3l-0.6-0.4l0,0L49.7,65.3L49.7,65.3z"/>
						</g>
					</g>
				</g>
			</g>
			<g>
				<g>
					<defs>
						<polygon id="SVGID_27_" points="49.3,64.5 48.7,64.1 48.4,64.1 49,64.5 						"/>
					</defs>
					<clipPath id="SVGID_28_">
						<use xlink:href="#SVGID_27_"  style="overflow:visible;"/>
					</clipPath>
					<g class="st109">
						<g>
							<path class="st57" d="M49.3,64.5l-0.6-0.4h-0.2L49.3,64.5L49.3,64.5z"/>
							<path class="st58" d="M49.2,64.4l-0.7-0.3l0,0l0.6,0.4L49.2,64.4z"/>
							<path class="st59" d="M49.1,64.4L48.5,64h-0.1L49.1,64.4L49.1,64.4z"/>
						</g>
					</g>
				</g>
			</g>
			<g>
				<g>
					<defs>
						<path id="SVGID_29_" d="M48.5,63.6l0.4,0.2l0,0c0.1,0,0.1,0,0.1,0.1h0.1L48.5,63.6z"/>
					</defs>
					<clipPath id="SVGID_30_">
						<use xlink:href="#SVGID_29_"  style="overflow:visible;"/>
					</clipPath>
					<g class="st110">
						<g>
							<path class="st61" d="M49.1,63.9l-0.6-0.3l0,0L49.1,63.9L49.1,63.9z"/>
						</g>
					</g>
				</g>
			</g>
			<polygon class="st62" points="49.7,65.3 49.1,65 46.5,66.5 47.2,66.8 			"/>
			<g>
				<g>
					<defs>
						<path id="SVGID_31_" d="M48.4,64l0.6,0.4c0.1-0.2,0.1-0.3,0.1-0.5h-0.2l-0.4-0.2l0.6,0.3c0-0.2,0-0.3-0.2-0.4l-0.6-0.4
							c0.1,0.1,0.2,0.3,0.2,0.5C48.5,63.8,48.5,63.9,48.4,64z"/>
					</defs>
					<clipPath id="SVGID_32_">
						<use xlink:href="#SVGID_31_"  style="overflow:visible;"/>
					</clipPath>
					<g class="st111">
						<g>
							<path class="st49" d="M48.9,63.5l-0.6-0.4v0.2l0.7,0.3L48.9,63.5z"/>
							<path class="st50" d="M49.1,63.6l-0.7-0.3h0.1l0.6,0.4L49.1,63.6z"/>
							<path class="st51" d="M49.1,63.7l-0.6-0.4l0,0L49.1,63.7z"/>
							<path class="st52" d="M49.1,63.7l-0.6-0.4l0,0l0.6,0.3V63.7z"/>
							<path class="st53" d="M49.1,63.7l-0.6-0.3l0,0l0.6,0.4V63.7z"/>
							<path class="st54" d="M49.1,63.8l-0.6-0.4l0,0L49.1,63.8z"/>
							<path class="st55" d="M49.1,63.8l-0.6-0.4l0,0l0.6,0.3V63.8z"/>
							<path class="st64" d="M49.1,63.8l-0.6-0.3l0,0l0.6,0.4V63.8z"/>
							<path class="st65" d="M49.1,63.9l-0.6-0.4l0,0L49.1,63.9z"/>
							<path class="st66" d="M49.1,63.9l-0.6-0.4l0,0l0.6,0.3V63.9z"/>
							<path class="st61" d="M49.1,63.9l-0.6-0.3l0,0L49.1,63.9L49.1,63.9z"/>
							<path class="st67" d="M49.1,64l-0.6-0.4l0,0L49.1,64z"/>
							<path class="st68" d="M49.1,64l-0.6-0.4l0,0l0.6,0.3V64z"/>
							<path class="st69" d="M49.1,64l-0.6-0.3l0,0L49.1,64L49.1,64z"/>
							<path class="st70" d="M49.1,64.1l-0.6-0.4l0,0L49.1,64.1z"/>
							<path class="st71" d="M49.1,64.1l-0.6-0.4l0,0l0.6,0.3V64.1z"/>
							<path class="st72" d="M49.1,64.1l-0.6-0.3l0,0L49.1,64.1L49.1,64.1z"/>
							<path class="st73" d="M49.1,64.2l-0.6-0.4l0,0L49.1,64.2L49.1,64.2z"/>
							<path class="st74" d="M49.1,64.2l-0.6-0.3l0,0L49.1,64.2z"/>
							<path class="st75" d="M49.1,64.2l-0.6-0.3l0,0L49.1,64.2L49.1,64.2z"/>
							<path class="st76" d="M49.1,64.3l-0.6-0.4c0,0.1,0,0.1-0.1,0.1C48.4,64,49.1,64.3,49.1,64.3z"/>
							<path class="st77" d="M49.1,64.3L48.4,64l0,0L49.1,64.3L49.1,64.3z"/>
							<path class="st78" d="M49.1,64.4L48.4,64l0,0l0.6,0.4H49.1z"/>
						</g>
					</g>
				</g>
			</g>
			<g>
				<g>
					<defs>
						<path id="SVGID_33_" d="M47.8,65.1l-0.6-0.4c-0.4,0.5-0.6,1.2-0.7,1.8l0.7,0.3C47.2,66.2,47.5,65.6,47.8,65.1z"/>
					</defs>
					<clipPath id="SVGID_34_">
						<use xlink:href="#SVGID_33_"  style="overflow:visible;"/>
					</clipPath>
					<g class="st112">
						<g>
							<path class="st80" d="M47.8,65.1l-0.6-0.4l0,0L47.8,65.1L47.8,65.1z"/>
							<path class="st81" d="M47.8,65.1l-0.6-0.3h-0.1L47.8,65.1C47.8,65.1,47.8,65.1,47.8,65.1L47.8,65.1z"/>
							<path class="st82" d="M47.7,65.2l-0.6-0.3v0.2l0.6,0.3V65.2z"/>
							<path class="st81" d="M47.6,65.4L47,65.1h-0.1C46.9,65.1,47.6,65.4,47.6,65.4z"/>
							<path class="st80" d="M47.6,65.5l-0.7-0.3l0,0l0.6,0.3H47.6z"/>
							<path class="st80" d="M47.5,65.6l-0.6-0.3l0,0L47.5,65.6L47.5,65.6z"/>
							<path class="st80" d="M47.5,65.7l-0.6-0.4c0,0.1,0,0.1-0.1,0.1L47.5,65.7L47.5,65.7z"/>
							<path class="st47" d="M47.4,65.8l-0.6-0.4l0,0L47.4,65.8L47.4,65.8z"/>
							<path class="st83" d="M47.4,65.8l-0.6-0.3l0,0L47.4,65.8z"/>
							<path class="st84" d="M47.4,65.9l-0.6-0.3c-0.1,0-0.1,0-0.1,0.1L47.4,65.9L47.4,65.9z"/>
							<path class="st85" d="M47.4,66l-0.7-0.3l0,0l0.6,0.4L47.4,66z"/>
							<path class="st86" d="M47.3,66.1l-0.6-0.4l0,0L47.3,66.1z"/>
							<path class="st87" d="M47.3,66.2l-0.6-0.4c0,0.1,0,0.1-0.1,0.1L47.3,66.2L47.3,66.2z"/>
							<path class="st88" d="M47.3,66.3l-0.7-0.4l0,0l0.6,0.4H47.3z"/>
							<path class="st89" d="M47.2,66.4L46.6,66l0,0L47.2,66.4z"/>
							<path class="st90" d="M47.2,66.5l-0.6-0.4l0,0L47.2,66.5z"/>
							<path class="st91" d="M47.2,66.6l-0.6-0.4l0,0L47.2,66.6z"/>
							<path class="st92" d="M47.2,66.7l-0.6-0.4c0,0.1,0,0.1-0.1,0.1L47.2,66.7L47.2,66.7z"/>
							<path class="st93" d="M47.2,66.8l-0.7-0.4l0,0L47.2,66.8L47.2,66.8z"/>
						</g>
					</g>
				</g>
			</g>
			<g>
				<g>
					<defs>
						<path id="SVGID_35_" d="M48.9,63.5l-0.6-0.4h-0.5l0.6,0.3C48.6,63.3,48.8,63.4,48.9,63.5z"/>
					</defs>
					<clipPath id="SVGID_36_">
						<use xlink:href="#SVGID_35_"  style="overflow:visible;"/>
					</clipPath>
					<g class="st113">
						<g>
							<path class="st57" d="M48.9,63.5l-0.6-0.4l0,0L48.9,63.5z"/>
							<path class="st58" d="M48.9,63.5l-0.6-0.4h-0.1L48.9,63.5L48.9,63.5z"/>
							<path class="st59" d="M48.8,63.5l-0.6-0.4l0,0L48.8,63.5z"/>
							<path class="st95" d="M48.8,63.5l-0.6-0.4h-0.1l0.7,0.3L48.8,63.5z"/>
							<path class="st96" d="M48.8,63.4l-0.7-0.3l0,0l0.6,0.4C48.7,63.4,48.7,63.4,48.8,63.4z"/>
							<path class="st97" d="M48.7,63.5l-0.6-0.4l0,0L48.7,63.5z"/>
							<path class="st98" d="M48.7,63.5l-0.6-0.4H48L48.7,63.5z"/>
							<path class="st99" d="M48.7,63.5L48,63.1l0,0l0.6,0.4H48.7z"/>
							<path class="st100" d="M48.6,63.5L48,63.1l0,0L48.6,63.5z"/>
							<path class="st101" d="M48.6,63.5L48,63.1l0,0L48.6,63.5z"/>
							<path class="st102" d="M48.6,63.5L48,63.1h-0.1L48.6,63.5L48.6,63.5z"/>
							<path class="st103" d="M48.5,63.5l-0.6-0.4l0,0L48.5,63.5z"/>
							<path class="st104" d="M48.5,63.5l-0.6-0.4l0,0l0.6,0.3V63.5z"/>
							<path class="st93" d="M48.5,63.5l-0.6-0.3h-0.1C47.8,63.2,48.5,63.5,48.5,63.5z"/>
							<path class="st92" d="M48.5,63.5l-0.7-0.3l0,0l0.6,0.3H48.5z"/>
						</g>
					</g>
				</g>
			</g>
			<g>
				<g>
					<defs>
						<path id="SVGID_37_" d="M48.4,63.5l-0.6-0.3c-0.4,0.2-0.7,0.7-0.7,1.2c0,0.1,0.1,0.2,0.1,0.3l0.6,0.4c0-0.1-0.1-0.2-0.1-0.4
							C47.8,64.2,48,63.8,48.4,63.5z"/>
					</defs>
					<clipPath id="SVGID_38_">
						<use xlink:href="#SVGID_37_"  style="overflow:visible;"/>
					</clipPath>
					<g class="st114">
						<g>
							<polygon class="st92" points="48.4,63.5 47.8,63.2 47.8,63.2 48.4,63.5 48.4,63.5 							"/>
							<path class="st91" d="M48.4,63.5l-0.6-0.3l0,0l0.6,0.4V63.5z"/>
							<path class="st90" d="M48.4,63.6l-0.6-0.4l0,0L48.4,63.6z"/>
							<path class="st89" d="M48.4,63.6l-0.6-0.4h-0.1l0.6,0.3L48.4,63.6z"/>
							<path class="st88" d="M48.3,63.6l-0.6-0.3l0,0L48.3,63.6z"/>
							<path class="st87" d="M48.3,63.6l-0.6-0.3l0,0l0.6,0.4V63.6z"/>
							<path class="st86" d="M48.3,63.7l-0.6-0.4h-0.1L48.3,63.7L48.3,63.7z"/>
							<path class="st85" d="M48.2,63.7l-0.6-0.4l0,0l0.6,0.3V63.7z"/>
							<path class="st84" d="M48.2,63.7l-0.6-0.3l0,0L48.2,63.7z"/>
							<path class="st83" d="M48.2,63.7l-0.6-0.3h-0.1l0.7,0.4L48.2,63.7z"/>
							<path class="st47" d="M48.2,63.8l-0.7-0.4l0,0l0.6,0.4H48.2z"/>
							<path class="st80" d="M48.1,63.8l-0.6-0.4l0,0l0.6,0.3V63.8z"/>
							<path class="st80" d="M48.1,63.8l-0.6-0.3l0,0l0.6,0.4V63.8z"/>
							<path class="st80" d="M48.1,63.9l-0.6-0.4h-0.1L48.1,63.9L48.1,63.9z"/>
							<path class="st81" d="M48,63.9l-0.6-0.4l0,0L48,63.9z"/>
							<path class="st82" d="M48,64l-0.6-0.4c0,0.1,0,0.1-0.1,0.1C47.3,63.7,48,64,48,64z"/>
							<path class="st81" d="M48,64l-0.7-0.3l0,0l0.6,0.3H48z"/>
							<path class="st80" d="M47.9,64.1l-0.6-0.3l0,0L47.9,64.1L47.9,64.1z"/>
							<path class="st80" d="M47.9,64.2l-0.6-0.4l0,0L47.9,64.2z"/>
							<path class="st80" d="M47.9,64.2l-0.6-0.4l0,0L47.9,64.2L47.9,64.2z"/>
							<path class="st47" d="M47.9,64.2l-0.6-0.3h-0.1L47.9,64.2L47.9,64.2z"/>
							<path class="st83" d="M47.9,64.3l-0.7-0.4l0,0l0.6,0.4H47.9z"/>
							<path class="st84" d="M47.8,64.3l-0.6-0.4l0,0L47.8,64.3L47.8,64.3z"/>
							<path class="st85" d="M47.8,64.3L47.2,64l0,0L47.8,64.3L47.8,64.3z"/>
							<path class="st86" d="M47.8,64.4L47.2,64l0,0L47.8,64.4z"/>
							<path class="st87" d="M47.8,64.4L47.2,64l0,0L47.8,64.4L47.8,64.4z"/>
							<path class="st88" d="M47.8,64.4l-0.6-0.3l0,0L47.8,64.4L47.8,64.4z"/>
							<path class="st89" d="M47.8,64.5l-0.6-0.4l0,0L47.8,64.5z"/>
							<path class="st90" d="M47.8,64.5l-0.6-0.4l0,0L47.8,64.5L47.8,64.5z"/>
							<path class="st91" d="M47.8,64.5l-0.6-0.3h-0.1L47.8,64.5L47.8,64.5z"/>
							<path class="st92" d="M47.8,64.6l-0.7-0.4l0,0L47.8,64.6L47.8,64.6z"/>
							<path class="st93" d="M47.8,64.6l-0.7-0.3l0,0l0.6,0.3H47.8z"/>
							<path class="st104" d="M47.7,64.6l-0.6-0.3l0,0L47.7,64.6L47.7,64.6z"/>
							<path class="st103" d="M47.7,64.7l-0.6-0.4l0,0L47.7,64.7L47.7,64.7z"/>
							<path class="st102" d="M47.7,64.7l-0.6-0.3l0,0L47.7,64.7z"/>
							<path class="st101" d="M47.7,64.7l-0.6-0.3l0,0L47.7,64.7L47.7,64.7z"/>
							<path class="st100" d="M47.7,64.8l-0.6-0.4l0,0L47.7,64.8L47.7,64.8z"/>
							<path class="st99" d="M47.7,64.8l-0.6-0.3l0,0l0.7,0.3H47.7z"/>
							<path class="st98" d="M47.8,64.8l-0.7-0.3l0,0L47.8,64.8L47.8,64.8z"/>
							<path class="st97" d="M47.8,64.9l-0.7-0.4l0,0L47.8,64.9z"/>
							<path class="st96" d="M47.8,64.9l-0.7-0.4h0.1L47.8,64.9L47.8,64.9z"/>
							<path class="st95" d="M47.8,64.9l-0.6-0.3l0,0L47.8,64.9L47.8,64.9z"/>
							<path class="st59" d="M47.8,65l-0.6-0.4l0,0L47.8,65L47.8,65z"/>
							<path class="st58" d="M47.8,65l-0.6-0.3l0,0L47.8,65L47.8,65z"/>
							<path class="st57" d="M47.8,65.1l-0.6-0.4l0,0L47.8,65.1z"/>
						</g>
					</g>
				</g>
			</g>
			<path class="st47" d="M48.4,63.5c-0.4,0.3-0.6,0.7-0.7,1.2c0,0.2,0.1,0.3,0.1,0.4c-0.3,0.5-0.6,1.1-0.6,1.7l2.5-1.5
				c0-0.4-0.3-0.8-0.7-0.9c0.1-0.2,0.1-0.3,0.1-0.5C49.1,63.5,48.8,63.3,48.4,63.5z"/>
			<path class="st115" d="M45.5,65.9L45.5,65.9C45.5,65.8,45.5,65.8,45.5,65.9l0.1-0.3h0.1c0.1,0,0.1,0,0.1-0.1H46V64
				c0.1,0,0.1,0,0.1-0.1h0.1l0.2-0.3v-0.2c0.1,0,0.1,0,0.1-0.1c0.1,0,0.1,0,0.1-0.1h0.1c0-0.1,0-0.1,0.1-0.1H47c0-0.1,0-0.1,0.1-0.1
				c0-0.1,0-0.1,0.1-0.1h0.1c0.1,0,0.1,0,0.1-0.1h0.2c0-0.1,0-0.1,0.1-0.1s0.1,0,0.1-0.1h0.4c0-0.1,0-0.1,0.1-0.1h1.2l0.6,0.3h-1.7
				L48,63.1l0,0l-0.5,0.4l0,0c-0.3,0.3-0.5,0.7-0.7,1l0,0l-0.3,0.6l0,0c-0.1,0.1-0.1,0.3-0.2,0.5l0,0c0,0.2-0.1,0.4-0.1,0.6l0,0
				c0,0.2-0.1,0.4-0.1,0.6V67l0,0v0.3l0,0v0.2h0.1v0.2l0,0c0.1,0,0.1,0.1,0.1,0.2h0.4l-0.6-0.3l-0.2-0.2l0,0
				c-0.1-0.1-0.2-0.1-0.2-0.2l0,0V67h-0.1v-0.2l0,0L45.5,65.9z"/>
			<path class="st116" d="M50.7,63.7c-0.1,1.6-0.9,3.1-2.3,4c-0.6,0.5-1.5,0.5-2-0.1c-0.3-0.3-0.4-0.7-0.3-1.2c0.1-1.6,1-3.1,2.3-4
				C49.7,61.7,50.7,62.2,50.7,63.7z M49.7,65.3c0-0.4-0.3-0.8-0.7-0.9c0.1-0.2,0.1-0.3,0.1-0.5c0-0.4-0.3-0.6-0.7-0.4
				c-0.4,0.3-0.6,0.7-0.7,1.2c0,0.2,0.1,0.3,0.1,0.4c-0.3,0.5-0.6,1.1-0.6,1.7C47.2,66.8,49.7,65.3,49.7,65.3z"/>
			<polygon class="st42" points="69.4,29.5 68.8,29.1 68.8,29.6 69.4,29.9 			"/>
			<polygon class="st42" points="69.4,28.2 68.8,27.8 68.8,28.3 69.4,28.7 			"/>
			<polygon class="st42" points="69.4,26.8 68.8,26.5 68.8,27 69.4,27.3 			"/>
			<polygon class="st43" points="69.4,29.9 68.8,29.6 54,38.2 54.6,38.5 			"/>
			<polygon class="st44" points="69.4,29.5 68.8,29.1 54,37.7 54.6,38 			"/>
			<polygon class="st45" points="54.6,38 54,37.7 54,38.2 54.6,38.5 			"/>
			<polygon class="st43" points="69.4,28.7 68.8,28.3 54,36.9 54.6,37.2 			"/>
			<polygon class="st44" points="69.4,28.2 68.8,27.8 54,36.4 54.6,36.7 			"/>
			<polygon class="st45" points="54.6,36.7 54,36.4 54,36.9 54.6,37.2 			"/>
			<polygon class="st43" points="69.4,27.3 68.8,27 54,35.5 54.6,35.9 			"/>
			<polygon class="st45" points="54.6,35.4 54,35 54,35.5 54.6,35.9 			"/>
			<polygon class="st46" points="54.6,35.4 54.6,35.9 69.4,27.3 69.4,26.8 			"/>
			<polygon class="st44" points="69.4,26.8 68.8,26.5 54,35 54.6,35.4 			"/>
			<path class="st47" d="M69.3,25.7c0.5-0.3,1-0.1,1,0.5v3.3c0,0.7-0.4,1.4-1,1.7L57,38.3l-3.2,4.9v-4l0,0v-3.4
				c0-0.7,0.4-1.3,0.9-1.7L69.3,25.7z M54.6,35.9l14.8-8.6v-0.5l-14.8,8.6V35.9z M54.6,38.5l14.8-8.6v-0.4L54.6,38V38.5z M54.6,37.2
				l14.8-8.5v-0.5l-14.8,8.5V37.2z"/>
			<polygon class="st46" points="54.6,38 54.6,38.5 69.4,29.9 69.4,29.5 			"/>
			<polygon class="st46" points="54.6,36.7 54.6,37.2 69.4,28.7 69.4,28.2 			"/>
			<path class="st3" d="M53.2,35.4h0.2c0-0.1,0-0.1,0.1-0.1l0,0v-0.2h0.3c0.1,0,0.1,0,0.1-0.1h0.3l14.5-8.4h0.6c0.1,0,0.1,0,0.1,0.1
				L70,27h-0.7l-14.6,7.1h-0.2c0,0.1-0.1,0.1-0.1,0.2l0,0c-0.1,0.1-0.2,0.1-0.2,0.2L54,34.7l0,0c0,0.1,0,0.2-0.1,0.3l0,0
				c0,0.1,0,0.1-0.1,0.2l0,0V39l0,0v4l-0.6-0.3v-3.9l0,0C53.2,38.8,53.2,35.4,53.2,35.4z"/>
			<polygon class="st42" points="56.3,25.4 55.7,25 55.7,25.6 56.3,25.9 			"/>
			<polygon class="st42" points="56.3,24 55.7,23.7 55.7,24.2 56.3,24.6 			"/>
			<polygon class="st42" points="56.3,22.6 55.7,22.2 55.7,22.8 56.3,23.1 			"/>
			<polygon class="st43" points="56.3,25.9 55.7,25.6 39.9,34.7 40.6,35 			"/>
			<polygon class="st44" points="56.3,25.4 55.7,25 39.9,34.2 40.6,34.5 			"/>
			<polygon class="st46" points="40.6,34.5 40.6,35 56.3,25.9 56.3,25.4 			"/>
			<polygon class="st45" points="40.6,34.5 39.9,34.2 39.9,34.7 40.6,35 			"/>
			<polygon class="st43" points="56.3,24.6 55.7,24.2 39.9,33.3 40.6,33.7 			"/>
			<polygon class="st44" points="56.3,24 55.7,23.7 39.9,32.8 40.6,33.1 			"/>
			<polygon class="st45" points="40.6,33.1 39.9,32.8 39.9,33.3 40.6,33.7 			"/>
			<polygon class="st43" points="56.3,23.1 55.7,22.8 39.9,31.9 40.6,32.2 			"/>
			<polygon class="st44" points="56.3,22.6 55.7,22.2 39.9,31.3 40.6,31.7 			"/>
			<polygon class="st45" points="40.6,31.7 39.9,31.3 39.9,31.9 40.6,32.2 			"/>
			<path class="st47" d="M56.2,21.4c0.2-0.2,0.6-0.2,0.8,0c0.2,0.2,0.2,0.4,0.2,0.6v3.5l0,0v4.3l-3.4-1.2l-13.1,7.7
				c-0.6,0.3-1.1,0-1.1-0.6v-3.5c0-0.7,0.5-1.4,1.1-1.8L56.2,21.4z M40.6,33.7l15.7-9.1V24l-15.7,9.1C40.6,33.1,40.6,33.7,40.6,33.7
				z M40.6,35l15.7-9.1v-0.5l-15.7,9.1V35z M40.6,32.2l15.7-9.1v-0.5l-15.7,9.1V32.2z"/>
			<polygon class="st46" points="40.6,33.1 40.6,33.7 56.3,24.6 56.3,24 			"/>
			<polygon class="st46" points="40.6,31.7 40.6,32.2 56.3,23.1 56.3,22.6 			"/>
			<path class="st3" d="M39,31.8L39,31.8c0-0.1,0-0.1,0.1-0.1h0.2c0-0.1,0.1-0.1,0.1-0.2h0.3c0-0.1,0-0.1,0.1-0.1H40l15.5-8.9h0.7
				c0,0.1,0,0.1,0.1,0.1l0.6,0.3h-0.7l-15.5,9h-0.2l-0.2,0.2l0,0l-0.4,0.4l0,0v0.2l0,0c0,0.1-0.1,0.2-0.1,0.3l0,0
				c0,0.2-0.1,0.3-0.1,0.5v3.7l0,0v0.2h0.2l-0.6-0.3H39V31.8z"/>
			<g>
				<g>
					<defs>
						<path id="SVGID_39_" d="M61.6,22.3c0.2,0.2,0.4,0.6,0.5,0.9l0.6,0.3c-0.1-0.3-0.2-0.6-0.5-0.8L61.6,22.3z"/>
					</defs>
					<clipPath id="SVGID_40_">
						<use xlink:href="#SVGID_39_"  style="overflow:visible;"/>
					</clipPath>
					<g class="st117">
						<g>
							<path class="st49" d="M62.2,22.7l-0.6-0.4l0.3,0.3l0.6,0.4L62.2,22.7z"/>
							<path class="st50" d="M62.5,23l-0.6-0.4l0,0L62.5,23z"/>
							<path class="st51" d="M62.5,23.1l-0.6-0.4c0,0.1,0,0.1,0.1,0.1l0.6,0.4L62.5,23.1z"/>
							<path class="st52" d="M62.6,23.2L62,22.8l0,0L62.6,23.2z"/>
							<path class="st53" d="M62.6,23.3L62,22.9l0,0L62.6,23.3z"/>
							<path class="st54" d="M62.6,23.4L62,23c0,0.1,0,0.1,0.1,0.1l0.6,0.4C62.7,23.4,62.7,23.4,62.6,23.4z"/>
							<path class="st55" d="M62.7,23.5l-0.6-0.4l0,0l0.6,0.3V23.5z"/>
						</g>
					</g>
				</g>
			</g>
			<g>
				<g>
					<defs>
						<polygon id="SVGID_41_" points="62.2,22.7 61.6,22.3 61.4,22.3 62,22.6 						"/>
					</defs>
					<clipPath id="SVGID_42_">
						<use xlink:href="#SVGID_41_"  style="overflow:visible;"/>
					</clipPath>
					<g class="st118">
						<g>
							<path class="st57" d="M62.2,22.7l-0.6-0.4h-0.1l0.6,0.3L62.2,22.7z"/>
							<path class="st58" d="M62.1,22.6l-0.6-0.3h-0.1L62.1,22.6L62.1,22.6z"/>
							<path class="st59" d="M62,22.6l-0.6-0.3l0,0L62,22.6z"/>
						</g>
					</g>
				</g>
			</g>
			<g>
				<g>
					<defs>
						<polygon id="SVGID_43_" points="61.5,21.8 61.8,22 62.1,22 						"/>
					</defs>
					<clipPath id="SVGID_44_">
						<use xlink:href="#SVGID_43_"  style="overflow:visible;"/>
					</clipPath>
					<g class="st119">
						<g>
							<path class="st61" d="M62.1,22.1l-0.6-0.3l0,0l0.6,0.4l0,0V22.1z"/>
						</g>
					</g>
				</g>
			</g>
			<polygon class="st62" points="62.7,23.5 62.1,23.2 59.5,24.7 60.1,25 			"/>
			<g>
				<g>
					<defs>
						<path id="SVGID_45_" d="M61.4,22.3l0.6,0.3c0-0.1,0.1-0.3,0.1-0.4h-0.3L61.5,22l0.6,0.4c0-0.2-0.1-0.4-0.2-0.5l-0.6-0.4
							c0.1,0.1,0.2,0.3,0.2,0.5C61.5,22.1,61.4,22.2,61.4,22.3z"/>
					</defs>
					<clipPath id="SVGID_46_">
						<use xlink:href="#SVGID_45_"  style="overflow:visible;"/>
					</clipPath>
					<g class="st120">
						<g>
							<path class="st49" d="M61.9,21.7l-0.6-0.4v0.2l0.6,0.3V21.7z"/>
							<path class="st50" d="M62,21.8l-0.6-0.3l0,0l0.6,0.4V21.8z"/>
							<path class="st51" d="M62,21.9l-0.6-0.4l0,0l0.6,0.3V21.9z"/>
							<path class="st52" d="M62,21.9l-0.6-0.3l0,0l0.7,0.3H62z"/>
							<path class="st53" d="M62.1,21.9l-0.7-0.3l0,0l0.7,0.4V21.9z"/>
							<path class="st54" d="M62.1,22l-0.7-0.4h0.1l0.6,0.3L62.1,22z"/>
							<path class="st55" d="M62.1,22l-0.6-0.3l0,0L62.1,22z"/>
							<path class="st64" d="M62.1,22l-0.6-0.3l0,0l0.6,0.4V22z"/>
							<path class="st65" d="M62.1,22.1l-0.6-0.4l0,0l0.6,0.3V22.1z"/>
							<path class="st66" d="M62.1,22.1l-0.6-0.3l0,0L62.1,22.1z"/>
							<path class="st61" d="M62.1,22.1l-0.6-0.3l0,0l0.6,0.4l0,0V22.1z"/>
							<path class="st67" d="M62.1,22.2l-0.6-0.4l0,0l0.6,0.3V22.2z"/>
							<path class="st68" d="M62.1,22.2l-0.6-0.3l0,0L62.1,22.2z"/>
							<path class="st69" d="M62.1,22.2l-0.6-0.3l0,0l0.6,0.4V22.2z"/>
							<path class="st70" d="M62.1,22.3l-0.6-0.4h-0.1l0.7,0.3L62.1,22.3z"/>
							<path class="st71" d="M62.1,22.3L61.4,22l0,0L62.1,22.3z"/>
							<path class="st72" d="M62.1,22.3L61.4,22l0,0l0.7,0.4V22.3z"/>
							<path class="st73" d="M62.1,22.4L61.4,22l0,0l0.6,0.3L62.1,22.4z"/>
							<path class="st74" d="M62,22.4l-0.6-0.3l0,0l0.6,0.4V22.4z"/>
							<path class="st75" d="M62,22.5l-0.6-0.4l0,0L62,22.5z"/>
							<path class="st76" d="M62,22.5l-0.6-0.4l0,0l0.6,0.3V22.5z"/>
							<path class="st77" d="M62,22.5l-0.6-0.3l0,0l0.6,0.4V22.5z"/>
							<path class="st78" d="M62,22.6l-0.6-0.4l0,0l0.6,0.3V22.6z"/>
						</g>
					</g>
				</g>
			</g>
			<g>
				<g>
					<defs>
						<path id="SVGID_47_" d="M60.8,23.3l-0.6-0.4c-0.4,0.5-0.6,1.1-0.7,1.8l0.6,0.3C60.2,24.4,60.4,23.8,60.8,23.3z"/>
					</defs>
					<clipPath id="SVGID_48_">
						<use xlink:href="#SVGID_47_"  style="overflow:visible;"/>
					</clipPath>
					<g class="st121">
						<g>
							<path class="st80" d="M60.8,23.3l-0.6-0.4c0,0.1,0,0.1-0.1,0.1C60.1,23,60.8,23.3,60.8,23.3z"/>
							<path class="st81" d="M60.8,23.3L60.1,23l0,0l0.6,0.3H60.8z"/>
							<path class="st82" d="M60.7,23.4l-0.6-0.3c-0.1,0-0.1,0.1-0.1,0.2l0.6,0.3C60.7,23.5,60.7,23.5,60.7,23.4z"/>
							<path class="st81" d="M60.6,23.6L60,23.3h-0.1L60.6,23.6L60.6,23.6z"/>
							<path class="st80" d="M60.5,23.7l-0.6-0.3h-0.1C59.8,23.4,60.5,23.7,60.5,23.7z"/>
							<path class="st80" d="M60.5,23.8l-0.7-0.3l0,0l0.6,0.4L60.5,23.8z"/>
							<path class="st80" d="M60.4,23.9l-0.6-0.4l0,0L60.4,23.9z"/>
							<path class="st47" d="M60.4,24l-0.6-0.4h-0.1C59.7,23.6,60.4,24,60.4,24z"/>
							<path class="st83" d="M60.4,24.1l-0.7-0.4l0,0l0.6,0.3L60.4,24.1z"/>
							<path class="st84" d="M60.3,24.1l-0.6-0.3l0,0L60.3,24.1z"/>
							<path class="st85" d="M60.3,24.2l-0.6-0.3h-0.1l0.7,0.4L60.3,24.2z"/>
							<path class="st86" d="M60.3,24.3l-0.7-0.4l0,0l0.6,0.4H60.3z"/>
							<path class="st87" d="M60.2,24.4L59.6,24l0,0L60.2,24.4z"/>
							<path class="st88" d="M60.2,24.5l-0.6-0.4l0,0L60.2,24.5z"/>
							<path class="st89" d="M60.2,24.6l-0.6-0.4c0,0.1,0,0.1-0.1,0.1l0.7,0.4L60.2,24.6z"/>
							<path class="st90" d="M60.2,24.7l-0.7-0.4l0,0l0.6,0.4H60.2z"/>
							<path class="st91" d="M60.1,24.8l-0.6-0.4l0,0L60.1,24.8z"/>
							<path class="st92" d="M60.1,24.9l-0.6-0.4l0,0L60.1,24.9z"/>
							<path class="st93" d="M60.1,25l-0.6-0.4l0,0l0.6,0.3V25z"/>
						</g>
					</g>
				</g>
			</g>
			<g>
				<g>
					<defs>
						<path id="SVGID_49_" d="M61.9,21.7l-0.6-0.4h-0.5l0.6,0.4C61.6,21.6,61.7,21.6,61.9,21.7z"/>
					</defs>
					<clipPath id="SVGID_50_">
						<use xlink:href="#SVGID_49_"  style="overflow:visible;"/>
					</clipPath>
					<g class="st122">
						<g>
							<path class="st57" d="M61.9,21.7l-0.6-0.4h-0.1L61.9,21.7L61.9,21.7z"/>
							<path class="st58" d="M61.8,21.7l-0.6-0.4l0,0L61.8,21.7z"/>
							<path class="st59" d="M61.8,21.7l-0.6-0.4h-0.1L61.8,21.7L61.8,21.7z"/>
							<path class="st95" d="M61.7,21.7l-0.6-0.4l0,0L61.7,21.7z"/>
							<path class="st96" d="M61.7,21.7l-0.6-0.4H61L61.7,21.7z"/>
							<path class="st97" d="M61.7,21.7L61,21.3l0,0l0.6,0.4H61.7z"/>
							<path class="st98" d="M61.6,21.7L61,21.3l0,0L61.6,21.7z"/>
							<path class="st99" d="M61.6,21.7L61,21.3l0,0L61.6,21.7z"/>
							<path class="st100" d="M61.6,21.7L61,21.3h-0.1L61.6,21.7L61.6,21.7z"/>
							<path class="st101" d="M61.5,21.7l-0.6-0.4l0,0L61.5,21.7z"/>
							<path class="st102" d="M61.5,21.7l-0.6-0.4l0,0L61.5,21.7z"/>
							<path class="st103" d="M61.5,21.7l-0.6-0.4h-0.1l0.7,0.3L61.5,21.7z"/>
							<path class="st104" d="M61.5,21.7l-0.7-0.3l0,0l0.6,0.3H61.5z"/>
							<path class="st93" d="M61.4,21.7l-0.6-0.3l0,0L61.4,21.7z"/>
							<path class="st92" d="M61.4,21.7l-0.6-0.3l0,0l0.6,0.4V21.7z"/>
						</g>
					</g>
				</g>
			</g>
			<g>
				<g>
					<defs>
						<path id="SVGID_51_" d="M61.4,21.8l-0.6-0.4c-0.4,0.3-0.7,0.7-0.7,1.2c0,0.1,0,0.3,0.1,0.3l0.6,0.4c-0.1-0.1-0.1-0.2-0.1-0.3
							C60.7,22.5,61,22,61.4,21.8z"/>
					</defs>
					<clipPath id="SVGID_52_">
						<use xlink:href="#SVGID_51_"  style="overflow:visible;"/>
					</clipPath>
					<g class="st123">
						<g>
							<polygon class="st92" points="61.4,21.8 60.8,21.4 60.8,21.4 61.4,21.8 61.4,21.8 							"/>
							<path class="st91" d="M61.4,21.8l-0.6-0.4h-0.1L61.4,21.8L61.4,21.8z"/>
							<path class="st90" d="M61.3,21.8l-0.6-0.4l0,0L61.3,21.8z"/>
							<path class="st89" d="M61.3,21.8l-0.6-0.4l0,0l0.6,0.3V21.8z"/>
							<path class="st88" d="M61.3,21.8l-0.6-0.3h-0.1C60.6,21.5,61.3,21.8,61.3,21.8z"/>
							<path class="st87" d="M61.3,21.8l-0.7-0.3l0,0l0.6,0.4L61.3,21.8z"/>
							<path class="st86" d="M61.2,21.9l-0.6-0.4l0,0L61.2,21.9z"/>
							<path class="st85" d="M61.2,21.9l-0.6-0.4h-0.1l0.7,0.3L61.2,21.9z"/>
							<path class="st84" d="M61.2,21.9l-0.7-0.3l0,0l0.6,0.3H61.2z"/>
							<path class="st83" d="M61.1,21.9l-0.6-0.3l0,0l0.6,0.4V21.9z"/>
							<path class="st47" d="M61.1,22l-0.6-0.4l0,0l0.6,0.3V22z"/>
							<path class="st80" d="M61.1,22l-0.6-0.3h-0.1L61.1,22L61.1,22z"/>
							<path class="st80" d="M61,22l-0.6-0.3l0,0l0.6,0.4V22z"/>
							<path class="st80" d="M61,22.1l-0.6-0.4l0,0L61,22V22.1z"/>
							<path class="st81" d="M61,22.1l-0.6-0.3h-0.1l0.6,0.4L61,22.1z"/>
							<path class="st82" d="M60.9,22.2l-0.6-0.4l0,0L60.9,22.2z"/>
							<path class="st81" d="M60.9,22.3l-0.6-0.4h-0.1l0.7,0.3L60.9,22.3z"/>
							<path class="st80" d="M60.9,22.3L60.2,22l0,0l0.6,0.4L60.9,22.3z"/>
							<path class="st80" d="M60.8,22.4L60.2,22l0,0L60.8,22.4z"/>
							<path class="st80" d="M60.8,22.4L60.2,22l0,0l0.6,0.3V22.4z"/>
							<path class="st47" d="M60.8,22.4l-0.6-0.3l0,0l0.6,0.4V22.4z"/>
							<path class="st83" d="M60.8,22.5l-0.6-0.4l0,0L60.8,22.5z"/>
							<path class="st84" d="M60.8,22.5l-0.6-0.4l0,0l0.6,0.3V22.5z"/>
							<path class="st85" d="M60.8,22.5l-0.6-0.3h-0.1l0.7,0.4L60.8,22.5z"/>
							<path class="st86" d="M60.8,22.6l-0.7-0.4l0,0l0.6,0.4H60.8z"/>
							<path class="st87" d="M60.7,22.6l-0.6-0.4l0,0l0.6,0.3V22.6z"/>
							<path class="st88" d="M60.7,22.6l-0.6-0.3l0,0l0.6,0.4V22.6z"/>
							<path class="st89" d="M60.7,22.7l-0.6-0.4l0,0l0.6,0.3V22.7z"/>
							<path class="st90" d="M60.7,22.7l-0.6-0.3l0,0L60.7,22.7z"/>
							<path class="st91" d="M60.7,22.7l-0.6-0.3l0,0l0.6,0.4V22.7z"/>
							<path class="st92" d="M60.7,22.8l-0.6-0.4l0,0l0.6,0.3V22.8z"/>
							<path class="st93" d="M60.7,22.8l-0.6-0.3l0,0l0.6,0.4V22.8z"/>
							<path class="st104" d="M60.7,22.9l-0.6-0.4l0,0L60.7,22.9z"/>
							<path class="st103" d="M60.7,22.9l-0.6-0.4l0,0l0.6,0.3V22.9z"/>
							<path class="st102" d="M60.7,22.9l-0.6-0.3l0,0l0.6,0.4l0,0V22.9z"/>
							<path class="st101" d="M60.7,23l-0.6-0.4l0,0L60.7,23z"/>
							<path class="st100" d="M60.7,23l-0.6-0.4l0,0l0.6,0.3V23z"/>
							<path class="st99" d="M60.7,23l-0.6-0.3l0,0L60.7,23z"/>
							<path class="st98" d="M60.7,23l-0.6-0.3l0,0l0.6,0.4V23z"/>
							<path class="st97" d="M60.7,23.1l-0.6-0.4l0,0l0.6,0.3V23.1z"/>
							<path class="st96" d="M60.7,23.1l-0.6-0.3l0,0L60.7,23.1z"/>
							<path class="st95" d="M60.7,23.1l-0.6-0.3l0,0l0.6,0.4V23.1z"/>
							<path class="st59" d="M60.7,23.2l-0.6-0.4l0,0l0.6,0.3V23.2z"/>
							<path class="st58" d="M60.7,23.2l-0.6-0.3h0.1l0.6,0.4C60.8,23.2,60.8,23.2,60.7,23.2z"/>
							<path class="st57" d="M60.8,23.3l-0.6-0.4l0,0L60.8,23.3z"/>
						</g>
					</g>
				</g>
			</g>
			<path class="st47" d="M61.4,21.8C61,22,60.7,22.5,60.7,23c0,0.1,0,0.2,0.1,0.3c-0.4,0.5-0.6,1.1-0.7,1.7l2.6-1.5
				c0-0.4-0.3-0.8-0.7-0.9c0-0.1,0.1-0.3,0.1-0.4S61.8,21.5,61.4,21.8z"/>
			<path class="st106" d="M58.5,24.1L58.5,24.1v-0.2c0.1,0,0.1,0,0.1-0.1h0.1v-0.2h0.1c0-0.1,0-0.1,0.1-0.1H59v-0.2
				c0.1,0,0.1,0,0.1-0.1h0.1v-0.3c0.1,0,0.1-0.1,0.2-0.2h0.1c0-0.1,0-0.1,0.1-0.1H60c0.1,0,0.1,0,0.1-0.1h0.2c0.1,0,0.1,0,0.1-0.1
				h1.1c0-0.1,0-0.1,0.1-0.1h0.8l0.6,0.3h-1.6l-0.5,0.3l0,0l-0.4,0.4l0,0c-0.3,0.3-0.5,0.6-0.7,1h-0.1c-0.1,0.2-0.1,0.4-0.2,0.6l0,0
				c-0.1,0.2-0.2,0.3-0.2,0.5l0,0c-0.1,0.2-0.1,0.4-0.2,0.6l0,0v0.8l0,0v0.3l0,0c0,0.1,0.1,0.1,0.1,0.2l0,0v0.2l0,0
				c0,0.1,0,0.1,0.1,0.2v0.2h0.1c0,0.1,0.1,0.1,0.2,0.1l-0.7-0.3l-0.2-0.2l0,0l-0.2-0.2l0,0v-0.2h-0.2L58.5,24.1z"/>
			<path class="st107" d="M63.7,21.9c-0.1,1.6-0.9,3.1-2.3,4c-1.3,0.7-2.3,0.1-2.3-1.3c0.1-1.6,0.9-3.1,2.3-4c0.6-0.5,1.5-0.5,2,0.1
				C63.7,21.1,63.8,21.5,63.7,21.9z M62.7,23.5c0-0.4-0.3-0.8-0.7-0.9c0-0.1,0.1-0.3,0.1-0.4s-0.3-0.7-0.7-0.4
				C61,22,60.7,22.5,60.7,23c0,0.1,0,0.2,0.1,0.3c-0.4,0.5-0.6,1.1-0.7,1.7C60.1,25,62.7,23.5,62.7,23.5z"/>
			<g>
				<g>
					<defs>
						<path id="SVGID_53_" d="M48.7,40.4c0.2,0.2,0.4,0.6,0.4,0.9l0.6,0.3c0-0.3-0.1-0.6-0.4-0.8L48.7,40.4z"/>
					</defs>
					<clipPath id="SVGID_54_">
						<use xlink:href="#SVGID_53_"  style="overflow:visible;"/>
					</clipPath>
					<g class="st124">
						<g>
							<path class="st49" d="M49.3,40.8l-0.6-0.4l0.2,0.3l0.6,0.3C49.5,40.9,49.4,40.8,49.3,40.8C49.3,40.8,49.3,40.8,49.3,40.8z"/>
							<path class="st50" d="M49.5,41l-0.6-0.3H49l0.6,0.4C49.6,41,49.6,41,49.5,41L49.5,41z"/>
							<path class="st51" d="M49.6,41.2L49,40.8l0,0L49.6,41.2z"/>
							<path class="st52" d="M49.6,41.3L49,40.9h0.1L49.6,41.3C49.7,41.2,49.7,41.2,49.6,41.3L49.6,41.3z"/>
							<path class="st53" d="M49.7,41.4L49.1,41l0,0L49.7,41.4z"/>
							<path class="st54" d="M49.7,41.5l-0.6-0.4l0,0L49.7,41.5z"/>
							<path class="st55" d="M49.7,41.6l-0.6-0.4l0,0l0.6,0.3V41.6z"/>
						</g>
					</g>
				</g>
			</g>
			<g>
				<g>
					<defs>
						<polygon id="SVGID_55_" points="49.3,40.8 48.7,40.4 48.4,40.4 49,40.8 						"/>
					</defs>
					<clipPath id="SVGID_56_">
						<use xlink:href="#SVGID_55_"  style="overflow:visible;"/>
					</clipPath>
					<g class="st125">
						<g>
							<path class="st57" d="M49.3,40.8l-0.6-0.4h-0.2l0.7,0.3L49.3,40.8z"/>
							<path class="st58" d="M49.2,40.7l-0.7-0.3l0,0l0.6,0.4L49.2,40.7z"/>
							<path class="st59" d="M49.1,40.7l-0.6-0.4h-0.1L49.1,40.7L49.1,40.7z"/>
						</g>
					</g>
				</g>
			</g>
			<g>
				<g>
					<defs>
						<path id="SVGID_57_" d="M48.5,39.9l0.4,0.2l0,0c0.1,0,0.1,0,0.1,0.1h0.1L48.5,39.9z"/>
					</defs>
					<clipPath id="SVGID_58_">
						<use xlink:href="#SVGID_57_"  style="overflow:visible;"/>
					</clipPath>
					<g class="st126">
						<g>
							<path class="st61" d="M49.1,40.2l-0.6-0.3l0,0l0.6,0.4V40.2z"/>
						</g>
					</g>
				</g>
			</g>
			<polygon class="st62" points="49.7,41.6 49.1,41.3 46.5,42.8 47.2,43.1 			"/>
			<g>
				<g>
					<defs>
						<path id="SVGID_59_" d="M48.4,40.3l0.6,0.4c0.1-0.2,0.1-0.3,0.1-0.5h-0.2L48.5,40l0.6,0.3c0-0.2,0-0.3-0.2-0.4l-0.6-0.4
							c0.1,0.1,0.2,0.3,0.2,0.5C48.5,40.1,48.5,40.2,48.4,40.3z"/>
					</defs>
					<clipPath id="SVGID_60_">
						<use xlink:href="#SVGID_59_"  style="overflow:visible;"/>
					</clipPath>
					<g class="st127">
						<g>
							<path class="st49" d="M48.9,39.8l-0.6-0.4c0.1,0.1,0.1,0.1,0.1,0.2l0.7,0.3L48.9,39.8z"/>
							<path class="st50" d="M49.1,39.9l-0.7-0.3h0.1l0.6,0.4L49.1,39.9z"/>
							<path class="st51" d="M49.1,40l-0.6-0.4l0,0L49.1,40z"/>
							<path class="st52" d="M49.1,40l-0.6-0.4l0,0l0.6,0.3V40z"/>
							<path class="st53" d="M49.1,40l-0.6-0.3l0,0l0.6,0.4V40z"/>
							<path class="st54" d="M49.1,40.1l-0.6-0.4l0,0L49.1,40.1z"/>
							<path class="st55" d="M49.1,40.1l-0.6-0.4l0,0l0.6,0.3V40.1z"/>
							<path class="st64" d="M49.1,40.1l-0.6-0.3l0,0l0.6,0.4V40.1z"/>
							<path class="st65" d="M49.1,40.2l-0.6-0.4l0,0L49.1,40.2z"/>
							<path class="st66" d="M49.1,40.2l-0.6-0.4l0,0l0.6,0.3V40.2z"/>
							<path class="st61" d="M49.1,40.2l-0.6-0.3l0,0l0.6,0.4V40.2z"/>
							<path class="st67" d="M49.1,40.3l-0.6-0.4l0,0L49.1,40.3z"/>
							<path class="st68" d="M49.1,40.3l-0.6-0.4l0,0l0.6,0.3V40.3z"/>
							<path class="st69" d="M49.1,40.3L48.5,40l0,0l0.6,0.4V40.3z"/>
							<path class="st70" d="M49.1,40.4L48.5,40l0,0L49.1,40.4z"/>
							<path class="st71" d="M49.1,40.4L48.5,40l0,0l0.6,0.3V40.4z"/>
							<path class="st72" d="M49.1,40.4l-0.6-0.3l0,0l0.6,0.4V40.4z"/>
							<path class="st73" d="M49.1,40.5l-0.6-0.4l0,0l0.6,0.3V40.5z"/>
							<path class="st74" d="M49.1,40.5l-0.6-0.3l0,0L49.1,40.5z"/>
							<path class="st75" d="M49.1,40.5l-0.6-0.3l0,0l0.6,0.4V40.5z"/>
							<path class="st76" d="M49.1,40.6l-0.6-0.4h-0.1l0.7,0.3L49.1,40.6z"/>
							<path class="st77" d="M49.1,40.6l-0.7-0.3l0,0l0.7,0.4V40.6z"/>
							<path class="st78" d="M49.1,40.7l-0.7-0.4l0,0l0.6,0.4H49.1z"/>
						</g>
					</g>
				</g>
			</g>
			<g>
				<g>
					<defs>
						<path id="SVGID_61_" d="M47.8,41.4L47.2,41c-0.4,0.5-0.6,1.2-0.7,1.8l0.7,0.3C47.2,42.5,47.5,41.9,47.8,41.4z"/>
					</defs>
					<clipPath id="SVGID_62_">
						<use xlink:href="#SVGID_61_"  style="overflow:visible;"/>
					</clipPath>
					<g class="st128">
						<g>
							<path class="st80" d="M47.8,41.4L47.2,41l0,0l0.6,0.3V41.4z"/>
							<path class="st81" d="M47.8,41.4l-0.6-0.3h-0.1L47.8,41.4C47.8,41.4,47.8,41.4,47.8,41.4L47.8,41.4z"/>
							<path class="st82" d="M47.7,41.5l-0.6-0.3v0.2l0.6,0.3C47.8,41.6,47.8,41.6,47.7,41.5L47.7,41.5z"/>
							<path class="st81" d="M47.6,41.7L47,41.4h-0.1C46.9,41.4,47.6,41.7,47.6,41.7z"/>
							<path class="st80" d="M47.6,41.8l-0.7-0.3l0,0l0.6,0.3H47.6z"/>
							<path class="st80" d="M47.5,41.9l-0.6-0.3l0,0l0.6,0.4V41.9z"/>
							<path class="st80" d="M47.5,42l-0.6-0.4c0,0.1,0,0.1-0.1,0.1L47.5,42L47.5,42z"/>
							<path class="st47" d="M47.4,42.1l-0.6-0.4l0,0l0.6,0.3V42.1z"/>
							<path class="st83" d="M47.4,42.1l-0.6-0.3l0,0L47.4,42.1z"/>
							<path class="st84" d="M47.4,42.2l-0.6-0.3c-0.1,0-0.1,0-0.1,0.1L47.4,42.2L47.4,42.2z"/>
							<path class="st85" d="M47.4,42.3L46.7,42l0,0l0.6,0.4C47.3,42.3,47.3,42.3,47.4,42.3z"/>
							<path class="st86" d="M47.3,42.4L46.7,42l0,0L47.3,42.4z"/>
							<path class="st87" d="M47.3,42.5l-0.6-0.4c0,0.1,0,0.1-0.1,0.1L47.3,42.5L47.3,42.5z"/>
							<path class="st88" d="M47.3,42.6l-0.7-0.4l0,0l0.6,0.4H47.3z"/>
							<path class="st89" d="M47.2,42.7l-0.6-0.4l0,0L47.2,42.7z"/>
							<path class="st90" d="M47.2,42.8l-0.6-0.4l0,0L47.2,42.8z"/>
							<path class="st91" d="M47.2,42.9l-0.6-0.4l0,0L47.2,42.9z"/>
							<path class="st92" d="M47.2,43l-0.6-0.4c0,0.1,0,0.1-0.1,0.1L47.2,43L47.2,43z"/>
							<path class="st93" d="M47.2,43.1l-0.7-0.4l0,0l0.7,0.3V43.1z"/>
						</g>
					</g>
				</g>
			</g>
			<g>
				<g>
					<defs>
						<polygon id="SVGID_63_" points="48.9,39.8 48.3,39.4 47.8,39.4 48.4,39.7 						"/>
					</defs>
					<clipPath id="SVGID_64_">
						<use xlink:href="#SVGID_63_"  style="overflow:visible;"/>
					</clipPath>
					<g class="st129">
						<g>
							<path class="st57" d="M48.9,39.8l-0.6-0.4l0,0L48.9,39.8z"/>
							<path class="st58" d="M48.9,39.8l-0.6-0.4h-0.1L48.9,39.8L48.9,39.8z"/>
							<path class="st59" d="M48.8,39.8l-0.6-0.4l0,0L48.8,39.8z"/>
							<path class="st95" d="M48.8,39.8l-0.6-0.4h-0.1l0.7,0.3L48.8,39.8z"/>
							<path class="st96" d="M48.8,39.7l-0.7-0.3l0,0l0.6,0.4L48.8,39.7z"/>
							<path class="st97" d="M48.7,39.8l-0.6-0.4l0,0L48.7,39.8z"/>
							<path class="st98" d="M48.7,39.8l-0.6-0.4H48L48.7,39.8z"/>
							<path class="st99" d="M48.7,39.8L48,39.4l0,0l0.6,0.4H48.7z"/>
							<path class="st100" d="M48.6,39.8L48,39.4l0,0L48.6,39.8z"/>
							<path class="st101" d="M48.6,39.8L48,39.4l0,0L48.6,39.8z"/>
							<path class="st102" d="M48.6,39.8L48,39.4h-0.1L48.6,39.8L48.6,39.8z"/>
							<path class="st103" d="M48.5,39.8l-0.6-0.4l0,0L48.5,39.8z"/>
							<path class="st104" d="M48.5,39.8l-0.6-0.4l0,0l0.6,0.3V39.8z"/>
							<path class="st93" d="M48.5,39.8l-0.6-0.3h-0.1C47.8,39.5,48.5,39.8,48.5,39.8z"/>
							<path class="st92" d="M48.5,39.8l-0.7-0.3l0,0l0.6,0.3H48.5z"/>
						</g>
					</g>
				</g>
			</g>
			<g>
				<g>
					<defs>
						<path id="SVGID_65_" d="M48.4,39.8l-0.6-0.3c-0.4,0.2-0.7,0.7-0.7,1.2c0,0.1,0.1,0.2,0.1,0.3l0.6,0.4c0-0.1-0.1-0.2-0.1-0.4
							C47.8,40.5,48,40.1,48.4,39.8z"/>
					</defs>
					<clipPath id="SVGID_66_">
						<use xlink:href="#SVGID_65_"  style="overflow:visible;"/>
					</clipPath>
					<g class="st130">
						<g>
							<polygon class="st92" points="48.4,39.8 47.8,39.5 47.8,39.5 48.4,39.8 48.4,39.8 							"/>
							<path class="st91" d="M48.4,39.8l-0.6-0.3l0,0l0.6,0.4V39.8z"/>
							<path class="st90" d="M48.4,39.9l-0.6-0.4l0,0L48.4,39.9z"/>
							<path class="st89" d="M48.4,39.9l-0.6-0.4c-0.1,0-0.1,0-0.1,0.1L48.4,39.9L48.4,39.9z"/>
							<path class="st88" d="M48.3,39.9l-0.6-0.3l0,0L48.3,39.9z"/>
							<path class="st87" d="M48.3,39.9l-0.6-0.3l0,0l0.6,0.4V39.9z"/>
							<path class="st86" d="M48.3,40l-0.6-0.4h-0.1L48.3,40L48.3,40z"/>
							<path class="st85" d="M48.2,40l-0.6-0.4l0,0l0.6,0.3V40z"/>
							<path class="st84" d="M48.2,40l-0.6-0.3l0,0L48.2,40z"/>
							<path class="st83" d="M48.2,40l-0.6-0.3h-0.1l0.7,0.4L48.2,40z"/>
							<path class="st47" d="M48.2,40.1l-0.7-0.4l0,0l0.6,0.4H48.2z"/>
							<path class="st80" d="M48.1,40.1l-0.6-0.4l0,0l0.6,0.3V40.1z"/>
							<path class="st80" d="M48.1,40.1l-0.6-0.3l0,0l0.6,0.4V40.1z"/>
							<path class="st80" d="M48.1,40.2l-0.6-0.4h-0.1L48.1,40.2L48.1,40.2z"/>
							<path class="st81" d="M48,40.2l-0.6-0.4l0,0L48,40.2z"/>
							<path class="st82" d="M48,40.3l-0.6-0.4c0,0.1,0,0.1-0.1,0.1C47.3,40,48,40.3,48,40.3z"/>
							<path class="st81" d="M48,40.3L47.3,40l0,0l0.6,0.3H48z"/>
							<path class="st80" d="M47.9,40.4l-0.6-0.3l0,0l0.6,0.4V40.4z"/>
							<path class="st80" d="M47.9,40.5l-0.6-0.4l0,0L47.9,40.5z"/>
							<path class="st80" d="M47.9,40.5l-0.6-0.4l0,0l0.6,0.3V40.5z"/>
							<path class="st47" d="M47.9,40.5l-0.6-0.3h-0.1l0.7,0.4L47.9,40.5z"/>
							<path class="st83" d="M47.9,40.6l-0.7-0.4l0,0l0.6,0.4H47.9z"/>
							<path class="st84" d="M47.8,40.6l-0.6-0.4l0,0l0.6,0.3V40.6z"/>
							<path class="st85" d="M47.8,40.6l-0.6-0.3l0,0l0.6,0.4V40.6z"/>
							<path class="st86" d="M47.8,40.7l-0.6-0.4l0,0L47.8,40.7z"/>
							<path class="st87" d="M47.8,40.7l-0.6-0.4l0,0l0.6,0.3V40.7z"/>
							<path class="st88" d="M47.8,40.7l-0.6-0.3l0,0l0.6,0.4V40.7z"/>
							<path class="st89" d="M47.8,40.8l-0.6-0.4l0,0L47.8,40.8z"/>
							<path class="st90" d="M47.8,40.8l-0.6-0.4l0,0l0.6,0.3V40.8z"/>
							<path class="st91" d="M47.8,40.8l-0.6-0.3h-0.1l0.7,0.4L47.8,40.8z"/>
							<path class="st92" d="M47.8,40.9l-0.7-0.4l0,0l0.7,0.3V40.9z"/>
							<path class="st93" d="M47.8,40.9l-0.7-0.3l0,0l0.6,0.3H47.8z"/>
							<path class="st104" d="M47.7,40.9l-0.6-0.3l0,0l0.6,0.4V40.9z"/>
							<path class="st103" d="M47.7,41l-0.6-0.4l0,0l0.6,0.3V41z"/>
							<path class="st102" d="M47.7,41l-0.6-0.3l0,0L47.7,41z"/>
							<path class="st101" d="M47.7,41l-0.6-0.3l0,0l0.6,0.4V41z"/>
							<path class="st100" d="M47.7,41.1l-0.6-0.4l0,0l0.6,0.3V41.1z"/>
							<path class="st99" d="M47.7,41.1l-0.6-0.3l0,0l0.7,0.3H47.7z"/>
							<path class="st98" d="M47.8,41.1l-0.7-0.3l0,0l0.7,0.4V41.1z"/>
							<path class="st97" d="M47.8,41.2l-0.7-0.4l0,0L47.8,41.2z"/>
							<path class="st96" d="M47.8,41.2l-0.7-0.4h0.1l0.6,0.3L47.8,41.2z"/>
							<path class="st95" d="M47.8,41.2l-0.6-0.3l0,0l0.6,0.4V41.2z"/>
							<path class="st59" d="M47.8,41.3l-0.6-0.4l0,0l0.6,0.3V41.3z"/>
							<path class="st58" d="M47.8,41.3L47.2,41l0,0l0.6,0.4V41.3z"/>
							<path class="st57" d="M47.8,41.4L47.2,41l0,0L47.8,41.4z"/>
						</g>
					</g>
				</g>
			</g>
			<path class="st47" d="M48.4,39.8c-0.4,0.3-0.6,0.7-0.7,1.2c0,0.2,0.1,0.3,0.1,0.4c-0.3,0.5-0.6,1.1-0.6,1.7l2.5-1.5
				c0-0.4-0.3-0.8-0.7-0.9c0.1-0.2,0.1-0.3,0.1-0.5C49.1,39.8,48.8,39.6,48.4,39.8z"/>
			<path class="st115" d="M45.5,42.2L45.5,42.2C45.5,42.1,45.5,42.1,45.5,42.2l0.1-0.3l0,0c0.1,0,0.1,0,0.1-0.1l0,0
				c0.1,0,0.1,0,0.1-0.1h0.1c0-0.1,0-0.1,0.1-0.1v-0.2h0.2l0.2-0.3c0.1-0.1,0.1-0.1,0.1-0.2c0.1,0,0.1,0,0.1-0.1
				c0.1,0,0.1,0,0.1-0.1h0.1c0-0.1,0-0.1,0.1-0.1H47c0-0.1,0-0.1,0.1-0.1c0-0.1,0-0.1,0.1-0.1h0.2c0.1,0,0.1,0,0.1-0.1h0.1
				c0-0.1,0-0.1,0.1-0.1s0.1,0,0.1-0.1h0.4c0-0.1,0-0.1,0.1-0.1h1.2l0.6,0.3h-1.7L48,39l0,0l-0.5,0.4l0,0c-0.3,0.3-0.5,0.7-0.7,1
				l0,0L46.5,41l0,0c-0.1,0.1-0.1,0.3-0.2,0.5l0,0c0,0.2-0.1,0.4-0.1,0.6l0,0c0,0.2-0.1,0.4-0.1,0.6v0.2l0,0v0.3l0,0v0.2h0.1v0.2
				l0,0c0.1,0,0.1,0.1,0.1,0.2s0.1,0.1,0.2,0.2h0.2l-0.6-0.3l-0.2-0.2l0,0c-0.1-0.1-0.2-0.1-0.2-0.2l0,0c0-0.1-0.1-0.1-0.1-0.2l0,0
				c-0.1,0-0.1,0-0.1-0.1l0,0v-0.2l0,0L45.5,42.2z"/>
			<path class="st116" d="M50.7,40c-0.1,1.6-0.9,3.1-2.3,4c-0.6,0.5-1.5,0.5-2-0.1c-0.3-0.3-0.4-0.7-0.3-1.2c0.1-1.6,1-3.1,2.3-4
				C49.7,38,50.7,38.5,50.7,40z M49.7,41.6c0-0.4-0.3-0.8-0.7-0.9c0.1-0.2,0.1-0.3,0.1-0.5c0-0.4-0.3-0.6-0.7-0.4
				c-0.4,0.3-0.6,0.7-0.7,1.2c0,0.2,0.1,0.3,0.1,0.4c-0.3,0.5-0.6,1.1-0.6,1.7C47.2,43.1,49.7,41.6,49.7,41.6z"/>
			<path class="st131" d="M74.9,13.5c-0.1-0.9-0.3-1.9-0.5-2.8c-0.3-0.4-1.3-2.3-3-2.6S71,8.9,71.9,10c0.4,0.5,0.7,1.1,0.6,1.8
				c-0.1,0.9,0,1.8,0.3,2.6C73,14.9,74.9,13.5,74.9,13.5z"/>
			<path class="st132" d="M72.8,14.3c-0.1-0.8-0.4-1.7-0.8-2.4c-0.5-0.7,0.2-1.4-0.1-1.9S70.7,8.3,71,8.1s1.6,0.5,2.2,2.5
				c0.2,1.2,0.3,2.4,0.2,3.6C73,14.4,72.8,14.5,72.8,14.3z"/>
			<path class="st131" d="M73.5,14.2c0,0-1.7-2.2-2.1-2.9S71.1,10,71.2,10s1.5,2.1,2.1,1.5S73.3,13.8,73.5,14.2z"/>
			<path class="st133" d="M89.6,24.1c0,0-0.2,3-3.9,1.9s-10.5-3.7-11.3-5.5s-1.7-6.7-1.7-6.7s1.8,0.6,2.4-0.9l3,6
				C78.1,18.9,89.8,22,89.6,24.1z"/>
			<path class="st134" d="M89.6,24.1c0.2-2.1-11.5-5.2-11.5-5.2l-3-6c-0.1,0.5-0.5,0.9-1,1c0.3,1.9,0.8,3.7,1.5,5.5
				c0.9,1.8,7.6,4.6,11.3,5.6c0.8,0.3,1.7,0.3,2.5,0C89.5,24.7,89.6,24.4,89.6,24.1z"/>
			<g class="st0">
				<path d="M93,72c5.8,3.4,5.9,8.8,0.1,12.2s-15.2,3.4-21.1,0s-5.8-8.8,0-12.2S87.2,68.6,93,72z"/>
			</g>
			<linearGradient id="SVGID_67_" gradientUnits="userSpaceOnUse" x1="82.4579" y1="75.156" x2="88.0064" y2="75.156">
				<stop  offset="0" style="stop-color:#D70010"/>
				<stop  offset="1" style="stop-color:#7A0110"/>
			</linearGradient>
			<path class="st135" d="M83.6,72.3c0,0-1.4,0.2-1.1,1s2,2,2.2,2.6s1.5,2.3,1.9,2.1s1.5,0.1,1.4-2S85.4,72.2,83.6,72.3z"/>
			<linearGradient id="SVGID_68_" gradientUnits="userSpaceOnUse" x1="70.9" y1="81.1241" x2="81.0428" y2="81.1241">
				<stop  offset="0" style="stop-color:#D70010"/>
				<stop  offset="1" style="stop-color:#7A0110"/>
			</linearGradient>
			<path class="st136" d="M80.9,79.9c0,0,0.7,2-1,2.5s-1.2-0.6-4.9,0.3s-4.1-0.9-4.1-1.4s2.6-1.2,3.4-1.4l2.3-0.6H81L80.9,79.9z"/>
			<path class="st137" d="M87.9,44.9v13.4c0,1.3,1.5,12,0.6,16.7c0,0-2.6,2.7-5,0c0,0-0.7-13.4-1.4-16.4s-0.4-12.3-0.4-12.3
				L87.9,44.9z"/>
			<path class="st137" d="M83.3,46.6c0,0-0.6,7.8-1.3,15.5c0,0-0.4,15.3-0.7,17.5c0,0-5,1.3-5.5-1.1c0,0,0.2-13.5,0-16.3
				S75.4,51.5,76.5,47S83.3,46.6,83.3,46.6z"/>
			<path class="st138" d="M81.3,79.6c0.3-2.2,0.7-17.5,0.7-17.5c0.4-5.2,0.9-10.4,1.1-13.3L80,49.5c-1.5,4.7-2.1,9.6-1.8,14.5
				c0.2,6.7,0.3,13.3,0.4,16C79.5,80,80.4,79.8,81.3,79.6z"/>
			<path class="st138" d="M88.5,75c0.9-4.7-0.6-15.4-0.6-16.7V44.9L85.2,47c0,0-0.8,8.6,0,13.5s0.3,13.2,0.7,15.7
				C86.9,76.1,87.8,75.7,88.5,75z"/>
			<path class="st134" d="M88.6,22.9c0,0,2.6,1.3,1.1,5.6s-2.5,7.2-2.4,8.8c0.2,2.8,0.6,5.5,1.1,8.2c0,0,0.4,3.5-7.8,5.7
				c0,0-6.7,0.6-5.6-3.8c0.9-4.3,1.4-8.8,1.4-13.2c-0.2-1.7-1.2-5.1,3-7.4S85.9,22.8,88.6,22.9z"/>
			<path class="st133" d="M76.4,34.2c0,4.4-0.5,8.9-1.4,13.2c-0.8,3.1,2.2,3.7,4.1,3.8c0.7-2-0.4-5.5,1-9.8s1.5-8.9,0.6-11.7
				c-0.3-1.2-1.3-2-2.5-2.1C75.4,29.8,76.2,32.6,76.4,34.2z"/>
			<path class="st131" d="M85.6,20.8c-0.2,1.3,0,2.5,0.5,3.7c0.7,1.3-4.6,2.4-4.8,1.2c0.6-1.4,0.5-3-0.2-4.3
				C80.4,20.1,85.6,20.8,85.6,20.8z"/>
			<path class="st139" d="M86.1,24.6c-0.5-1-0.7-2.2-0.6-3.3l-3.9,1.9l0,0c0.2,0.1,2.8,0.7,3.4,2.6C85.8,25.5,86.3,25,86.1,24.6z"/>
			<path class="st131" d="M80,14.8c-0.5,1.2-0.8,2.5-0.7,3.8c0.1,1,0.1,2.1,0,3.1c0.1,0.4,0.1,1,0.4,1.3s1.9,0.8,3.5,0.2
				s4.1-3.5,3.2-5.9S83,12.8,80,14.8z"/>
			<path class="st132" d="M86.3,19.9c-0.8-1.7-1.7-3.4-2.7-5L82.2,14c-0.8,0-1.6,0.3-2.2,0.8c-0.2,0.4-0.4,0.8-0.4,1.3
				c0.4,0.5,1.4,1.1,1.5,1.6c0.3,1.1,0.3,2.3-0.1,3.4c-0.3,0.7,0.9,1.7,0.7,2.3l0,0l1.5-0.3C84.6,22.5,85.8,21.3,86.3,19.9z"/>
			<path class="st140" d="M79.7,14.2c-0.7,0.3-0.6,1.5,1.1,2.4c1.7,0.9,1,2.1,0.9,2.5c-0.1,0.6-0.2,1.3-0.2,1.9
				c0.2,0.3,1.1-0.8,1.5-0.7s0.6,1.1-0.3,2.1s1.5,1.4,2.7,0.6s0.8-0.7,1.6-2.4s1.3-5.1-1.5-6.6S81.3,13.2,79.7,14.2z"/>
			<path class="st141" d="M85.4,23c0.6-0.5,0.8-0.7,1.6-2.4s1.6-5.1-1.2-6.6s-3.9-1.1-5.5-0.2c-0.1,0.1-1,0.4-0.9,0.8
				s3.3,0.7,3.9,1.7s1.6,0.9,1.6,2.4s0.3,3.6-2.3,4.4C83.5,23.6,84.6,23.6,85.4,23z"/>
			<path class="st142" d="M81.6,25l-1.7,1.5c0,0,5.4,1.6,7-1.1c0.2-0.8-0.3-1.6-1-1.9C85.9,23.5,85.7,25.7,81.6,25z"/>
			<path class="st143" d="M64.6,38c-0.8-0.1-1.6-0.3-2.4-0.6c-0.3-0.4-1-0.1-0.5,0.4c0.3,0.3,0.7,0.5,1.1,0.6c0,0-2.4,0.2-2.6-0.5
				s-0.3,1.8,0.8,2.3s2.2,1.2,4.6-0.5C65.5,39,65.2,38.4,64.6,38z"/>
			<path class="st133" d="M79.1,27.5c0,0,2.6,1.1,0.6,4.2s-5.8,8.2-7.7,8.5s-7.3,0.3-7.3,0.3c0.5-0.9,0.4-1.9-0.2-2.7l6.7-1.5
				C71.2,36.3,77.3,26.7,79.1,27.5z"/>
			<path class="st134" d="M79.1,27.5c-1.8-0.8-7.9,8.8-7.9,8.8l-6.7,1.5c0.2,0.2,0.4,0.5,0.5,0.8c2.5-0.3,4.9-0.7,7.3-1.3
				c1.1-0.5,6.3-7.6,7.5-9.3L79.1,27.5z"/>
		</g>
	</g>
</g>
<g id="Layer_2" class="st144">
	<g id="Layer_2_2_" class="st145">
		<rect x="-84.7" y="29.6" class="st146" width="66.7" height="34.6"/>
		<rect x="-84.7" y="-13.7" class="st133" width="66.7" height="34.6"/>
		<rect x="-84.7" y="69.9" class="st137" width="66.7" height="34.6"/>
	</g>
</g>
</svg>
