<?xml version="1.0" encoding="utf-8"?>
<!-- Generator: Adobe Illustrator 24.0.0, SVG Export Plug-In . SVG Version: 6.00 Build 0)  -->
<svg version="1.1" xmlns="http://www.w3.org/2000/svg" xmlns:xlink="http://www.w3.org/1999/xlink" x="0px" y="0px"
	 viewBox="0 0 106.4 97.8" style="enable-background:new 0 0 106.4 97.8;" xml:space="preserve">
<style type="text/css">
	.st0{opacity:0.1;enable-background:new    ;}
	.st1{fill:#778489;}
	.st2{fill:#ABBEC5;}
	.st3{clip-path:url(#SVGID_2_);}
	.st4{fill:#738085;}
	.st5{fill:#78858A;}
	.st6{fill:#7C8A8F;}
	.st7{fill:#818F94;}
	.st8{fill:#859499;}
	.st9{fill:#8A999E;}
	.st10{fill:#8E9DA3;}
	.st11{fill:#93A2A8;}
	.st12{fill:#97A7AD;}
	.st13{fill:#9BACB3;}
	.st14{fill:#A0B1B8;}
	.st15{clip-path:url(#SVGID_4_);}
	.st16{fill:#376A80;}
	.st17{fill:#396E85;}
	.st18{fill:#3B7189;}
	.st19{fill:#3D758D;}
	.st20{fill:#3F7992;}
	.st21{fill:#417C96;}
	.st22{fill:#43809B;}
	.st23{fill:#44849F;}
	.st24{fill:#35667C;}
	.st25{fill:#336377;}
	.st26{fill:#315F73;}
	.st27{fill:#336277;}
	.st28{fill:#529EBE;}
	.st29{fill:#498DAB;}
	.st30{fill:url(#SVGID_5_);}
	.st31{fill:#A9D6EA;}
	.st32{fill:#DEF6FF;}
	.st33{opacity:0.8;}
	.st34{fill:#D70010;}
	.st35{fill:url(#SVGID_6_);}
	.st36{fill:#EFB185;}
	.st37{fill:#314656;}
	.st38{fill:#2B3C4B;}
	.st39{fill:#231202;}
	.st40{fill:#BF0222;}
	.st41{fill:#23211F;}
	.st42{fill:#E8A476;}
	.st43{fill:#DB9669;}
	.st44{fill:#F1B287;}
	.st45{fill:#312E2C;}
	.st46{display:none;opacity:0.31;}
	.st47{display:inline;}
	.st48{display:none;}
	.st49{fill:#7A0110;}
	.st50{fill:#101010;}
</style>
<g id="Layer_1">
	<title>13</title>
	<g id="Layer_2_1_">
		<g id="Layer_1-2">
			<path class="st0" d="M100.8,63l-41-23.6c-1.2-0.6-2.7-0.6-3.9,0l-55.1,32c-1.1,0.6-1.1,1.6,0,2.3l41,23.6c1.2,0.6,2.7,0.6,3.9,0
				l55.1-32C101.9,64.7,101.9,63.7,100.8,63z"/>
			<polygon class="st1" points="100.9,60.2 100.9,63 61.9,40.5 61.9,37.7 			"/>
			<polygon class="st2" points="61.9,37.7 61.9,40.5 15.1,67.7 15.1,64.9 			"/>
			<g>
				<g>
					<defs>
						<path id="SVGID_1_" d="M27.3,79.6c-0.5,0.2-0.8,0.7-0.8,1.2V78c0-0.5,0.3-1,0.8-1.2l0,0c1.3-0.6,2.8-0.6,4.1,0
							c0,0.9-0.1,1.9-0.1,2.8c0-0.9,0.1-1.9,0.1-2.8c0.5,0.2,0.8,0.7,0.8,1.2v2.8c-0.1-0.5-0.4-1-0.9-1.2C30,79,28.6,79,27.3,79.6z"
							/>
					</defs>
					<clipPath id="SVGID_2_">
						<use xlink:href="#SVGID_1_"  style="overflow:visible;"/>
					</clipPath>
					<g class="st3">
						<g>
							<path class="st4" d="M32.2,78v2.8c-0.1-0.5-0.4-1-0.9-1.2l-0.4-0.2v-2.8l0.5,0.2C31.9,77,32.2,77.5,32.2,78z"/>
							<path class="st5" d="M30.9,76.6v2.8h-0.3v-2.9L30.9,76.6z"/>
							<path class="st6" d="M30.6,76.5v2.8h-0.3v-2.9L30.6,76.5z"/>
							<path class="st7" d="M30.3,76.4v2.8H30v-2.8H30.3z"/>
							<path class="st8" d="M30,76.4v2.8h-0.3v-2.9L30,76.4z"/>
							<path class="st9" d="M29.7,76.3v2.9h-0.3v-2.9H29.7z"/>
							<path class="st10" d="M29.5,76.3v2.8h-0.2v-2.8H29.5z"/>
							<path class="st11" d="M29.2,76.3v2.8h-0.4v-2.8H29.2z"/>
							<path class="st12" d="M28.8,76.3v2.9h-0.3v-2.8L28.8,76.3z"/>
							<path class="st13" d="M28.5,76.4v2.8h-0.6v-2.7L28.5,76.4z"/>
							<path class="st14" d="M27.9,76.5v2.8l-0.6,0.3l0,0v-2.8l0,0L27.9,76.5z"/>
							<path class="st13" d="M27.3,76.8v2.8l-0.4,0.3v-2.8C26.9,77.1,27.3,76.8,27.3,76.8z"/>
							<path class="st12" d="M26.9,77.1v2.8l-0.2,0.2v-2.8C26.7,77.3,26.9,77.1,26.9,77.1z"/>
							<path class="st11" d="M26.7,77.3v2.8c0,0.1,0,0.1-0.1,0.2v-2.9C26.7,77.4,26.7,77.4,26.7,77.3z"/>
							<path class="st10" d="M26.6,77.4v2.9c0,0.1,0,0.1-0.1,0.1v-3H26.6z"/>
							<path class="st9" d="M26.6,77.6L26.6,77.6z"/>
							<path class="st8" d="M26.5,77.8L26.5,77.8L26.5,77.8z"/>
							<path class="st7" d="M26.5,77.9v2.9l0,0V77.9L26.5,77.9z"/>
						</g>
					</g>
				</g>
			</g>
			<g>
				<g>
					<defs>
						<path id="SVGID_3_" d="M32.2,78v2.8c-0.1,0.5-0.4,0.9-0.8,1.2c-1.3,0.6-2.8,0.6-4.1,0c-0.4-0.3-0.7-0.7-0.8-1.2V78
							c0.1,0.5,0.4,0.9,0.8,1.1c1.3,0.7,2.8,0.7,4.1,0C31.8,78.9,32.1,78.5,32.2,78z"/>
					</defs>
					<clipPath id="SVGID_4_">
						<use xlink:href="#SVGID_3_"  style="overflow:visible;"/>
					</clipPath>
					<g class="st15">
						<g>
							<path class="st16" d="M32.2,78v2.8l0,0V78z"/>
							<path class="st17" d="M32.2,78L32.2,78z"/>
							<path class="st18" d="M32.2,78.2V81h-0.1v-2.7L32.2,78.2z"/>
							<path class="st19" d="M32.1,78.3v2.8c0,0.1,0,0.2-0.1,0.2v-3H32.1z"/>
							<path class="st20" d="M32.1,78.5v2.8c0,0.1,0,0.1-0.1,0.2v-2.8L32.1,78.5L32.1,78.5z"/>
							<path class="st21" d="M31.9,78.7v2.8c-0.1,0.1-0.1,0.1-0.1,0.2v-2.8C31.8,78.8,31.8,78.8,31.9,78.7z"/>
							<path class="st22" d="M31.8,78.9v2.8l-0.4,0.2v-2.8L31.8,78.9z"/>
							<path class="st23" d="M31.4,79.1v2.8l0,0l-0.7,0.2v-2.7L31.4,79.1z"/>
							<path class="st22" d="M30.7,79.4v2.8l-0.5,0.2v-2.9L30.7,79.4z"/>
							<path class="st21" d="M30.2,79.5v2.9h-0.4v-2.8L30.2,79.5z"/>
							<path class="st20" d="M29.8,79.6v2.8h-0.3v-2.8H29.8z"/>
							<path class="st19" d="M29.5,79.6v2.8h-0.3v-2.8H29.5z"/>
							<path class="st18" d="M29.2,79.6v2.8h-0.3v-2.8H29.2z"/>
							<path class="st17" d="M28.9,79.6v2.8h-0.2v-2.8H28.9z"/>
							<path class="st16" d="M28.7,79.6v2.8h-0.3v-2.9L28.7,79.6z"/>
							<path class="st24" d="M28.4,79.5v2.8h-0.3v-2.8H28.4z"/>
							<path class="st25" d="M28.1,79.5v2.8h-0.4v-3L28.1,79.5z"/>
							<path class="st26" d="M27.7,79.3v2.9L27.3,82c-0.4-0.3-0.7-0.7-0.8-1.2V78c0.1,0.5,0.4,0.9,0.8,1.1
								C27.3,79.1,27.7,79.3,27.7,79.3z"/>
						</g>
					</g>
				</g>
			</g>
			<polygon class="st27" points="54.1,87.4 54.1,90.2 15.1,67.7 15.1,64.9 			"/>
			<path class="st28" d="M31.4,76.8c0.6,0.2,1,0.9,0.8,1.5c-0.1,0.4-0.4,0.7-0.8,0.8c-1.3,0.7-2.8,0.7-4.1,0c-0.6-0.2-1-0.9-0.8-1.5
				c0.1-0.4,0.4-0.7,0.8-0.8C28.6,76.2,30.1,76.2,31.4,76.8z"/>
			<polygon class="st29" points="100.9,60.2 100.9,63 54.1,90.2 54.1,87.4 			"/>
			
				<linearGradient id="SVGID_5_" gradientUnits="userSpaceOnUse" x1="15.1" y1="37.45" x2="100.9" y2="37.45" gradientTransform="matrix(1 0 0 -1 0 100)">
				<stop  offset="0" style="stop-color:#7A0110"/>
				<stop  offset="1" style="stop-color:#D70010"/>
			</linearGradient>
			<polygon class="st30" points="100.9,60.2 54.1,87.4 15.1,64.9 61.9,37.7 			"/>
			<path class="st31" d="M106.3,60.3L106.3,60.3c0,0.1-0.1,0.1-0.1,0.2h-0.1l-0.2,0.2c0,0.1-0.1,0.1-0.2,0.2c-0.1,0-0.1,0-0.1,0.1
				L50.5,93v3l55-32h0.2l0.2-0.2l0,0c0.1,0,0.1-0.1,0.2-0.2h0.1c0-0.1,0.1-0.1,0.1-0.2l0,0V60.3L106.3,60.3
				C106.4,60.2,106.3,60.2,106.3,60.3z"/>
			<path class="st32" d="M105.5,58.9c0.6,0.2,1,0.8,0.9,1.5c-0.1,0.4-0.4,0.7-0.8,0.8l-55.1,32c-1.3,0.6-2.7,0.6-4,0L5.6,69.5
				c-1.1-0.6-1.1-1.6,0-2.2l55-32c1.2-0.7,2.8-0.7,4,0L105.5,58.9z M54.1,87.4l46.8-27.2l-39-22.5L15.1,64.9L54.1,87.4z M27.3,79.1
				c1.3,0.7,2.8,0.7,4.1,0c0.6-0.2,1-0.9,0.8-1.5c-0.1-0.4-0.4-0.7-0.8-0.8c-1.3-0.6-2.8-0.6-4.1,0c-0.6,0.2-1,0.9-0.8,1.5
				C26.6,78.7,26.9,79,27.3,79.1z"/>
			<path class="st31" d="M50.5,93.2l-0.6,0.2H47l-0.5-0.2L5.6,69.5c-0.5-0.2-0.8-0.6-0.8-1.1c0,0.9,0,1.9-0.1,2.8
				c0,0.4,0.3,0.8,0.9,1.2L46.5,96l0.4,0.2h0.4c0.1,0,0.1,0,0.1,0.1h2.5l0.6-0.3V93.2z"/>
			<g class="st33">
				<path class="st34" d="M66.3,57.7c6,3.4,6,8.7,0.1,12s-15.6,3.3-21.6,0s-6-8.7,0-12S60.4,54.4,66.3,57.7z"/>
			</g>
			<g>
				<g>
					
						<linearGradient id="SVGID_6_" gradientUnits="userSpaceOnUse" x1="52.5841" y1="80.9791" x2="51.9141" y2="54.3881" gradientTransform="matrix(1 0 0 -1 0 100)">
						<stop  offset="0" style="stop-color:#01DFF9"/>
						<stop  offset="0.99" style="stop-color:#00E7FF"/>
					</linearGradient>
					<rect x="51.3" y="19" class="st35" width="1.9" height="26.6"/>
				</g>
			</g>
			<path class="st36" d="M37.6,22c0,0-2.4,1.2-3.6,0.9s-2.8-1.1-2.2-1.5s2.6-0.3,2.7-0.8s-1.1-0.3-0.6-0.6s1.7-0.4,3.6,0.7
				C37.9,21,37.9,21.6,37.6,22z"/>
			<path class="st34" d="M49.8,10c0,0,1.8-0.7,1.8,1.5c-0.4,2.5-1.2,4.9-2.5,7c0,0-2.1,4.1-3.2,4.3s-9,0-9,0c0.2-0.9,0.2-1.7,0-2.6
				c0,0,6.9-0.8,7.4-1.3S48.3,10.4,49.8,10z"/>
			<path d="M50.2,59.4c-0.1,0.8-0.4,1.6-0.8,2.3c-0.7,0.8-3.7,2.6-3.5,3.4s2.4,1,3.7-0.4c0.6-0.7,1.4-1.3,2.3-1.7
				c0.8-0.2,1.2-0.9,1.1-1.7c0-0.2-0.1-0.3-0.2-0.4C51.8,60.7,50.9,60.1,50.2,59.4z"/>
			<path class="st37" d="M49.5,25.7c0,0-2.5,12.2-1.2,19c0,0,0.7,5.3,1,6.8s0.2,9.4,0.2,9.4s2.3,1,3.4,0s1.4-8.3-0.1-13.5
				c0,0,1.8-10,1.9-13.3c0-2,0.1-4.1,0.4-6.1L49.5,25.7z"/>
			<path class="st38" d="M48.3,44.7c0,0,0.7,5.3,1,6.8s0.2,9.4,0.2,9.4l0.9,0.3c0.2-2.4,0.5-6.5,0.6-7.5s-1.3-8.6-1.4-11.3
				s2.8-12.9,2.8-12.9l-0.8-2.9l-2.1-0.9C49.5,25.7,47,37.9,48.3,44.7z"/>
			
				<rect x="53.8" y="8" transform="matrix(8.193845e-02 -0.9966 0.9966 8.193845e-02 41.8498 64.4763)" class="st39" width="4.3" height="3.1"/>
			<path d="M57,62.5c-0.1,0.8-0.3,1.6-0.7,2.3c-0.7,0.8-3.7,2.7-3.4,3.5s2.4,0.9,3.7-0.5s1.7-1.6,2.3-1.8s1.3-0.8,0.7-2.1
				C58.6,63.6,57.7,63.2,57,62.5z"/>
			<path class="st38" d="M59.6,29.7c0,0,2.4,3.4,1.3,10.5l-0.6,8.4c0,0,1.6,2.7,0.5,10.9l-1.1,4.9c0,0-1.4,1-2.9-1.1
				c0,0,0.1-12.1-0.4-13.9c-1.3-4.1-2.4-8.3-3.1-12.6c-0.2-2-3.3-5.3-3.2-7L59.6,29.7z"/>
			<path class="st37" d="M59.7,64.4l1.1-4.9c1.1-8.2-0.5-10.9-0.5-10.9l0.6-8.4c1.1-7.1-1.3-10.5-1.3-10.5h-0.3l-2.6,1.7
				c0,0,2.6,13.3,2.4,16.7s0.8,7.3,0.7,9.4s-0.7,4.8-1.1,7.1C59,64.7,59.4,64.6,59.7,64.4z"/>
			<path class="st34" d="M61.2,14.9c0,0-2.1-4-10.8-5c0,0-1.4-0.6-1.3,3.9c-0.1,0.9-0.5,1.7-1.1,2.4c-0.5,0.6-1.7,2.8,1,5.5
				c0,0,1,4-0.2,6.6s4.6,4.6,9.5,4.1c1.1-0.1,1.9-1.1,1.8-2.2c0-0.2-0.1-0.4-0.1-0.5c-0.5-2.1-2.1-5.6-1.1-9.4S61.9,16.9,61.2,14.9z
				"/>
			<path class="st40" d="M61.2,14.8c0.7,2-1.3,1.5-2.3,5.4s0.6,7.4,1.1,9.5s-0.8,2.6-1.4,2.6l-2.5,0.2c1.7-3.8-0.8-10.7-0.9-14.5
				c0-2.4,1.4-4.5,3.5-5.5C59.7,13.1,60.6,13.8,61.2,14.8z"/>
			<path class="st40" d="M48.8,28.3c1.2-2.6,0.2-6.6,0.2-6.6c-2.7-2.7-1.5-4.9-1-5.5c0.6-0.7,1-1.5,1.1-2.4c-0.2-1.1,0-2.2,0.4-3.2
				c0.5,0.5,1.5,0.3,1.2,2.4s0.2,3,2.1,3s0.8,3.1,0.7,4c-0.8,5.8,2.4,8.6,1.3,12.3C51.1,31.8,47.9,30.1,48.8,28.3z"/>
			<path class="st41" d="M52.4,2.3c0.7,3,1,6.1,1,9.2c0,0.6-0.4,0.1-1.5-0.3s-4-4.2-1-9c1.5-2.2,4.5-2.8,6.7-1.3
				c0.2,0.1,0.4,0.3,0.5,0.4L52.4,2.3z"/>
			<path class="st42" d="M51,8.1c0.8,1.1,1,2.5,0.6,3.8c-0.3,0.5-0.9,2.7,2.5,2c0,0,3.6-1.5,2.6-2.6S55.5,9.5,56.8,6L51,8.1z"/>
			<path class="st43" d="M56.7,11.3l0.2,0.4c-2,0.2-3.9-0.5-5.3-2L56,6.3l0,0l0.5,0.4C55.6,9.7,56.1,10.6,56.7,11.3z"/>
			<path class="st44" d="M52.1,1.8c0,0-0.9,0.2-1.2,2.9c0,0.2-0.5,0.6-0.7,1.3s-0.6,3.7,1.1,4.1c2.4,0.4,4.7-0.9,5.6-3.1
				C58.2,4.1,56,0.1,52.1,1.8z"/>
			<path class="st45" d="M52.2,2.8c0,0,4.3,0.2,3.9,7.9l-0.5,3.9c5.8-3.2,4.4-9.7,4.4-9.7S59.5,0,55.3,0.4
				C55.3,0.4,52.6,1.2,52.2,2.8z"/>
			<path class="st41" d="M52.2,2.8c0,0-1.3-0.3-2.2,2.1c0,0,0.8-6.9,7.2-4.3C57.2,0.6,53.2,0.5,52.2,2.8z"/>
			<path class="st44" d="M55.4,7.4c0,0,0.6-1.4,1.4-0.9s0.5,0.5,0,1.2s-1.3,1.4-2,1.2L55.4,7.4z"/>
			<path class="st36" d="M72.4,25.4c0,0,2.3,1.1,3.5,0.9s2.9-1.1,2.2-1.5s-2.5-0.3-2.6-0.8s1-0.4,0.5-0.7S74.4,23,72.4,24
				C72,24.4,72,25,72.4,25.4z"/>
			<path class="st34" d="M60.2,13.4c-0.6-0.3-1.4-0.1-1.8,0.5c-0.1,0.3-0.2,0.6-0.1,0.9c0.4,2.5,1.3,4.8,2.5,7c0,0,2.2,4.1,3.3,4.3
				s9,0,9,0c-0.3-0.8-0.3-1.7,0-2.5c0,0-7-0.8-7.5-1.3S61.7,13.8,60.2,13.4z"/>
			<g class="st46">
				<g class="st47">
					<path class="st34" d="M70.7,62.8V7.1l-30.3,13v42.7c-0.5,2.4,1,5,4.4,6.9c6,3.3,15.7,3.3,21.6,0C69.8,67.8,71.2,65.3,70.7,62.8
						z"/>
				</g>
			</g>
		</g>
	</g>
</g>
<g id="Layer_2" class="st48">
	<g id="Layer_2_2_" class="st47">
		<rect x="-88.8" y="29.8" class="st34" width="66.7" height="34.6"/>
		<rect x="-88.8" y="-13.5" class="st49" width="66.7" height="34.6"/>
		<rect x="-88.8" y="70.1" class="st50" width="66.7" height="34.6"/>
	</g>
</g>
</svg>
