<?xml version="1.0" encoding="utf-8"?>
<!-- Generator: Adobe Illustrator 24.0.0, SVG Export Plug-In . SVG Version: 6.00 Build 0)  -->
<svg version="1.1" xmlns="http://www.w3.org/2000/svg" xmlns:xlink="http://www.w3.org/1999/xlink" x="0px" y="0px"
	 viewBox="0 0 99.9 86.9" style="enable-background:new 0 0 99.9 86.9;" xml:space="preserve">
<style type="text/css">
	.st0{opacity:0.1;}
	.st1{fill:#7A0110;}
	.st2{fill:#FF3E5F;}
	.st3{fill:#CCCCCC;}
	.st4{fill:#F4F4F4;}
	.st5{fill:#1E1E1E;}
	.st6{fill:#D70010;}
	.st7{opacity:0.1;enable-background:new    ;}
	.st8{fill:#323A3B;}
	.st9{fill:#232829;}
	.st10{fill:#1D1F1F;}
	.st11{fill:#141515;}
	.st12{fill:#A9D6EA;}
	.st13{fill:#303637;}
	.st14{fill:#454E4F;}
	.st15{fill:#DEF6FF;}
	.st16{fill:#EFB185;}
	.st17{fill:#E6A376;}
	.st18{fill:#111114;}
	.st19{fill:#0A0A0A;}
	.st20{fill:#101010;}
	.st21{fill:#444444;}
	.st22{fill:#DD9569;}
	.st23{fill:#341C09;}
	.st24{fill:#AAC6C3;}
	.st25{fill:#C2E7F2;}
	.st26{fill:#A9D5E0;}
	.st27{fill:#5A5C5D;}
	.st28{fill:#6D6F70;}
	.st29{display:none;}
	.st30{display:inline;}
</style>
<g id="Layer_1">
	<title>14</title>
	<g id="Layer_2_1_">
		<g id="Layer_1-2">
			<g class="st0">
				<path d="M16.8,30.6c3.9,2.2,3.9,5.9,0.1,8.1c-4.4,2.2-9.6,2.2-14,0c-3.9-2.3-3.9-5.9,0-8.1C7.3,28.4,12.4,28.4,16.8,30.6z"/>
			</g>
			<path class="st1" d="M17.7,15.8c3,1.8,3,4.6,0,6.3c-3.4,1.7-7.4,1.7-10.8,0c-3-1.7-3-4.5,0-6.3C10.3,14.1,14.3,14.1,17.7,15.8z"
				/>
			<path class="st2" d="M17.7,15.8c-3.4-1.7-7.4-1.7-10.8,0c-3,1.8-3,4.6,0,6.3c3.4,1.7,7.4,1.7,10.8,0
				C20.7,20.4,20.7,17.6,17.7,15.8z M16.7,21.5c-2.8,1.4-6,1.4-8.8,0c-2.5-1.4-2.5-3.7,0-5.1c2.8-1.4,6-1.4,8.8,0
				C19.1,17.8,19.2,20.1,16.7,21.5z"/>
			<path class="st3" d="M7.9,7.8H6.5c-0.2,0-0.3-0.1-0.3-0.3v0l2.9,22.7l0.3,0.3h0.3c0,0.1,0,0.1,0.1,0.1h0h0.8c0.1,0,0.1,0,0.1-0.1
				l0,0h0.1L7.9,7.7V7.8z"/>
			<path class="st4" d="M7.6,7.4C7.9,7.6,8,7.9,7.7,8.1C7.3,8.3,6.9,8.4,6.5,8.2C6.2,8.1,6.1,7.8,6.4,7.6C6.7,7.3,7.2,7.3,7.6,7.4z"
				/>
			<path class="st3" d="M12.6,6.8h-1.3L11,6.9l2.9,22.2c0,0.2,0.1,0.3,0.3,0.3h1.3c0.1,0,0.1,0,0.1-0.1l0,0l0,0l-3-22.2V6.8z"/>
			<path class="st4" d="M12.4,6.4c0.3,0.1,0.3,0.4,0,0.7c-0.3,0.2-0.7,0.3-1.1,0.1c-0.4-0.1-0.4-0.4-0.1-0.7
				C11.6,6.3,12,6.2,12.4,6.4z"/>
			<path class="st3" d="M20.6,9.1h-0.1c-0.1,0-0.1,0-0.1,0.1v0h-1L19.1,9C19,8.9,19,8.8,19,8.6l-6.8,21.3c-0.1,0.1,0,0.3,0.1,0.4
				h0.3c0.1,0,0.1,0,0.1,0.1l0,0h1L20.6,9V9.1z"/>
			<path class="st4" d="M20.5,8.6c0.2,0.1,0.2,0.4,0,0.6c-0.1,0.1-0.1,0.1-0.2,0.1c-0.4,0.1-0.9-0.1-1.2-0.4
				c-0.2-0.2-0.1-0.5,0.2-0.6C19.7,8.2,20.2,8.4,20.5,8.6z"/>
			<path class="st5" d="M13.3,9.2h-1.5l-0.2-0.4L8.3,31.1l0.2,0.3c0,0.1,0,0.1,0.1,0.1h0c0.1,0,0.1,0,0.1,0.1l0,0h1
				c0.1,0,0.1,0,0.1-0.1l0,0H10L13.3,9.2L13.3,9.2z"/>
			<path class="st4" d="M13.1,8.8C13.4,9,13.3,9.3,13,9.4c-0.4,0.2-0.8,0.1-1.2-0.1c-0.3-0.3-0.2-0.6,0.1-0.7
				C12.3,8.4,12.8,8.5,13.1,8.8z"/>
			<path class="st5" d="M15.6,7h-1.4l-0.3-0.3l-0.2,22.4c0,0.1,0.1,0.3,0.2,0.3h0.2c0.1,0,0.1,0,0.1,0.1l0,0h1.1L15.6,7L15.6,7z"/>
			<path class="st4" d="M15.4,6.6c0.2,0,0.3,0.1,0.3,0.3c0,0.2-0.1,0.3-0.3,0.3c-0.4,0.2-0.8,0.2-1.2,0C14,7.1,13.9,6.8,14,6.7
				c0-0.1,0.1-0.1,0.2-0.2C14.6,6.4,15,6.4,15.4,6.6z"/>
			<path class="st6" d="M19.9,19.2v0.3h-0.1v0.3c-0.1,0-0.1,0.1-0.1,0.2s-0.1,0.1-0.1,0.2s-0.1,0.1-0.1,0.2l-0.2,0.2l-0.2,0.3H19
				l-0.3,0.4c-0.1,0-0.1,0.1-0.2,0.2h-0.2L18,21.7l-0.3,0.2L17,22.3h-0.2l-0.6,0.3h-0.3l-0.3,0.2H8.9l-0.8-0.3H7.5l-0.6-0.3
				c-1.3-0.6-2.1-1.8-2.2-3.2v15c0.2,1.3,1,2.5,2.2,3l0.5,0.3h0.2L8,37.5l0,0l0.8,0.3h0.8c0,0.1,0,0.1,0.1,0.1h3.9l0.9-0.2h1.6
				l0.6-0.2h0.2l0.8-0.4h0.1c0-0.1,0-0.1,0.1-0.1l0.3-0.2c0.1-0.1,0.2-0.1,0.2-0.2l0.3-0.2l0,0L19,36h0.2c0.1-0.1,0.2-0.2,0.2-0.3
				h0.1c0.1,0,0.1-0.1,0.1-0.2c0.1,0,0.1,0,0.1-0.1l0,0c0.1-0.1,0.1-0.1,0.1-0.2V35l0,0c0-0.1,0-0.2,0.1-0.2V34l0,0
				C19.9,34,19.9,19.2,19.9,19.2z"/>
			<path class="st2" d="M6.9,22.1c3.4,1.7,7.4,1.7,10.8,0c2-1.2,2.7-2.9,1.9-4.4h-1.5c0.9,1.3,0.4,2.8-1.4,3.8c-2.8,1.4-6,1.4-8.8,0
				c-1.8-1-2.3-2.5-1.5-3.8H5C4.2,19.2,4.9,20.9,6.9,22.1z"/>
			<polygon class="st7" points="40.5,31.7 99.9,66.1 64.1,86.9 4.6,52.6 			"/>
			<g>
				<polygon class="st8" points="38.5,31.9 38.5,34.5 30.2,39.3 30.2,36.7 				"/>
				<polygon class="st9" points="48.6,37.8 48.6,40.4 38.5,34.5 38.5,31.9 				"/>
				<polygon class="st10" points="48.6,37.8 48.6,40.4 40.3,45.2 40.4,42.6 				"/>
				<polygon class="st11" points="40.4,42.6 40.3,45.2 30.2,39.3 30.2,36.7 				"/>
				<polygon class="st8" points="13,46.7 13,49.3 10.3,50.9 10.3,48.3 				"/>
				<polygon class="st9" points="23.2,52.6 23.1,55.1 13,49.3 13,46.7 				"/>
				<polygon class="st12" points="23.2,52.6 20.4,54.1 10.3,48.3 13,46.7 				"/>
				<polygon class="st11" points="20.4,54.1 20.4,56.7 10.3,50.9 10.3,48.3 				"/>
				<polygon class="st10" points="23.2,52.6 23.1,55.1 20.4,56.7 20.4,54.1 				"/>
				<polygon class="st8" points="51,39.1 51,41.7 22.2,58.5 22.2,55.9 				"/>
				<polygon class="st9" points="89.1,61.2 89.1,63.8 51,41.7 51,39.1 				"/>
				<polygon class="st13" points="60.3,77.9 60.3,80.5 22.2,58.5 22.2,55.9 				"/>
				<polygon class="st14" points="89.1,61.2 89.1,63.8 60.3,80.5 60.3,77.9 				"/>
				<polygon class="st1" points="89.1,61.2 60.3,77.9 22.2,55.9 51,39.1 				"/>
				<path class="st15" d="M38.5,29.7l55.3,31.9L60.4,80.9L5.2,49L38.5,29.7z M60.3,77.9l28.8-16.7L51,39.1L22.2,55.9L60.3,77.9z
					 M40.4,42.6l8.2-4.8l-10.1-5.9l-8.3,4.8C30.2,36.7,40.4,42.6,40.4,42.6z M20.4,54.1l2.8-1.5L13,46.7l-2.7,1.6L20.4,54.1z"/>
				<polygon class="st12" points="48.6,37.8 40.4,42.6 30.2,36.7 38.5,31.9 				"/>
				<polygon class="st12" points="93.8,61.6 93.8,64.2 60.4,83.5 60.4,80.9 				"/>
				<polygon class="st12" points="60.4,80.9 60.4,83.5 5.2,51.6 5.2,49 				"/>
			</g>
			<path class="st7" d="M50.1,53.6c-6.1,3.5-6.2,9.2-0.1,12.7c6.1,3.5,15.9,3.5,22,0s6.1-9.2,0.1-12.7S56.1,50.1,50.1,53.6z"/>
			<path class="st16" d="M46.6,28.8c-0.5,0.7-1,1.4-1.4,2.2c-0.1,0.4-0.7,2.4,0.3,3.7s0.8-0.3,0.9-1.6c0-0.7,0.3-1.3,0.8-1.7
				c0.6-0.5,1-1.1,1.4-1.8C48.8,29.1,46.6,28.8,46.6,28.8z"/>
			<path class="st17" d="M48.5,29.7c-0.4,0.6-0.7,1.3-1,2c-0.1,0.9-1,0.8-1.1,1.4s-0.3,1.8-0.6,1.8S45,33.6,46,31.8
				c0.6-0.9,1.3-1.7,2.1-2.5C48.5,29.5,48.6,29.5,48.5,29.7z"/>
			<path class="st16" d="M48,29.3c0,0-0.3,2.4-0.5,3.2c-0.2,0.8-0.6,1.1-0.7,1s0.4-2.4-0.4-2.3S47.9,29.6,48,29.3z"/>
			<path class="st1" d="M53.7,9.5c0,0-2.5-0.6-3.4,4.3s-1,6.8-1.7,8.5s-2.5,7.1-2.5,7.1c0.9,0.1,1.7,0.6,2.1,1.3c0,0,4-6.8,4.8-9.8
				S56.3,10.8,53.7,9.5z"/>
			<path class="st6" d="M48.6,22.3c0.7-1.7,0.7-3.6,1.7-8.5c0.5-2.6,1.5-3.7,2.2-4.1c2.4,1.5-0.1,8.5-0.8,11.4c-1.1,3.1-2.5,6-4,8.9
				c-0.5-0.4-1-0.6-1.6-0.6C46.1,29.4,47.9,24,48.6,22.3z"/>
			<path class="st18" d="M60.5,54.5c0,0,0.7,1.5,0,1.9s-0.7,0.8-1.8,0.7s-0.9,0.3-1.2,0.7s-4.1,2-4.8,1.2s1.3-1.7,2-2.2
				c1-0.8,1.8-1.7,2.4-2.8C57.1,53.5,60.5,54.5,60.5,54.5z"/>
			<path class="st19" d="M60.5,56.4c-0.6,0.4-0.7,0.8-1.8,0.7s-0.9,0.3-1.2,0.7s-4.1,2-4.8,1.2c-0.2-0.3-0.1-0.6,0.1-0.8l1.1,0.2
				c1.1,0.1,2.5-1.1,3-1.6s1.2-0.3,2.2-0.4s0.8-1.6,0.8-1.6l0.7-0.2C60.7,54.9,61.1,56,60.5,56.4z"/>
			<path class="st18" d="M67.1,59.4c0.2,1,0,1.9-0.4,2.8c-0.7,1-2.2,2.6-2.9,2.6s-0.7-0.4-0.7-0.4c-0.2-1-0.1-2,0.2-2.9
				c0.3-0.7,0.4-1.4,0.5-2.1H67.1z"/>
			<path class="st19" d="M66.7,62.2c-0.7,1-1.6,1.9-2.6,2.5c1-1.2-0.5-1,0.6-1.6s0.6-1.5,1.3-1.7s0.1-1.8,0.1-1.8l0.4-0.2h0.6
				C67.3,60.4,67.1,61.3,66.7,62.2z"/>
			<path class="st20" d="M59.1,30.1c0,0-3.1-0.4-4.1-2.7c-0.2,3.7-0.1,7.3,0.3,11c0.6,5.9,1.2,16.3,1.2,16.3c1.2,1.1,2.9,1.1,4.1,0
				c0.3-3.6,0.3-7.1,0-10.7c0.2-3.3,0.1-6.6-0.3-9.9C59.6,30.8,59.1,30.1,59.1,30.1z"/>
			<path class="st21" d="M56.5,54.7c0,0-0.6-10.4-1.2-16.3c-0.4-3.9-0.5-7.8-0.4-11.7c0.8,1.5,2.1,2.7,3.7,3.3
				c-0.1,2.2-0.3,8.9-0.3,11.1s0.4,10.7,0.6,14.4C58,55.6,57.1,55.3,56.5,54.7z"/>
			<path class="st20" d="M66.4,29.7c0,0,0.3,3.5,0.4,8.8c0,2.7,0.2,5.5,0.6,8.2c0.3,4.1,0.4,8.3,0.3,12.4c0,0-1.7,2.6-4.3,0
				c0,0-0.5-9.2-1-11.3s-3-12.2-4-15.9c-0.4-1.6-0.5-2.2-0.5-2.2S62.3,32.9,66.4,29.7z"/>
			<path class="st21" d="M63.4,59.1c0,0-0.5-9.2-1-11.3s-3-12.2-4-15.9c-0.3-1-0.8-2-1.5-2.8c0,0,3,2.1,5.5,2.1
				c0.1,0.7,1.2,8.2,1.5,11.5c0.3,3.3,2.4,14.7,1.8,17.6C64.8,60.2,64,59.8,63.4,59.1z"/>
			<path class="st6" d="M59.5,8.8c1.8,0.6,3.5,1.2,5.2,2c0.2,0.4,1.5,1.1,0.4,5.5c0,0-1.7,4.8,0.1,9.2c0.5,1.3,1.2,2.5,1.9,3.7
				c0,0-1.6,3.4-7.8,2.1c-1.7-0.4-3.2-1.4-4.3-2.8c-0.1-2.8-0.6-5.6-1.4-8.3c-1.4-4.4-2.7-10.1-0.2-11.3C53.4,8.9,53.9,8,59.5,8.8z"
				/>
			<path class="st16" d="M58.2,5c0,0-0.5,2.6,1.1,3.5s0.2,3-2.3,3.8c0,0-1.2,0.1-1.2-0.3c-0.1-0.8-0.6-1.5-1.3-1.9
				C53.8,9.6,58.2,5,58.2,5z"/>
			<path class="st22" d="M59.3,8.5c0.1,0.1,0.2,0.2,0.2,0.3c-1-0.3-2-0.3-3,0l1.3-3.4L58,5.2l0.2,0.2C58.1,6.2,58.1,7.8,59.3,8.5z"
				/>
			<path class="st16" d="M58.3,3.6c0,0,0.5,3-0.9,4.9s-2.9,3.3-4.1,1.4s-3.2-5.2-2.1-6.5s1.5-3.3,3.9-3.3
				C55.1,0.1,57.9,0.2,58.3,3.6z"/>
			<path class="st17" d="M58.3,3.6c0.4,1.7,0,3.5-0.9,5L56.1,10c0.5-0.6,0.8-1.4,1-2.2c0.4-1.1-1.2-0.1-0.8-2.6
				c0.1-0.8-1.4,0.8-1.9,0.9c-2.6,1-2.9-0.6-3.2-1.2c-0.1-0.3-0.1-0.5-0.1-0.8V3.5c0.1,0,0.1,0,0.1-0.1c0.1-0.5,0.3-0.9,0.5-1.3
				L56,0.6l1.6,1C58,2.2,58.2,2.9,58.3,3.6z"/>
			<path class="st23" d="M58.2,6.7C58.9,5,58.7,3,57.7,1.5c-0.8-1.2-2.3-1.8-3.7-1.4c-1.9,0.4-3.2,2.1-3.2,4c0,0.9,0.6,2.4,3.2,0.5
				c0.5-0.4,1.2-0.7,1.9-0.6c0.5,0.3,0.8,0.8,0.8,1.4c0.1,0.6,0.5,0.5,0.5,0.4S57.3,4,58,4.4S58.2,6.6,58.2,6.7z"/>
			<path class="st1" d="M58.2,6.7c0-0.1,0.5-2-0.2-2.3s-0.7,1.2-0.8,1.4S56.8,6,56.7,5.4c0-0.6-0.3-1.1-0.8-1.4
				c-0.5-0.2-1.4,0.3-1.9,0.6s1.2-1,1.3-1.9c-0.1-0.9,0.3-1.8,1-2.4c0.6,0.2,1.1,0.7,1.4,1.2C58.7,3,58.9,5,58.2,6.7z"/>
			<path class="st6" d="M54.1,4.6c0.9-0.7,1.5-1.8,1.6-2.9c0-0.5,0.3-1,0.7-1.3c-1.1-0.6-2.5-0.5-3.6,0.1c-0.9,0.6-1.6,1.4-2,2.3
				C50,4.4,51.1,6.9,54.1,4.6z"/>
			<path class="st1" d="M64.7,10.8c0.2,0.4,1.5,1.1,0.4,5.5c0,0-1.7,4.8,0.1,9.2c0.5,1.3,1.2,2.5,1.9,3.7c-0.8,1.2-2.1,2.1-3.5,2.3
				c-1.4-3.8-2.2-10.8-2.9-15.6c-0.4-2.2,0.2-4.4,1.7-6.1L64.7,10.8z"/>
			<path class="st6" d="M61.6,11.7c0.2-1.4,2-2.9,3.6-0.3s4.5,11.1,3.4,12.4s-1.2,1-1.9,0.6c-1.2-1.2-2.1-2.7-2.6-4.3
				C63.4,18,61.5,13,61.6,11.7z"/>
			<polygon class="st24" points="34.7,56.6 44.8,49.4 42.6,50.6 			"/>
			<polygon class="st15" points="34.7,56.6 42.6,50.6 37.5,45.8 			"/>
			<polygon class="st25" points="67.1,15.6 42.6,50.6 44.8,49.4 69.2,14.3 			"/>
			<polygon class="st15" points="63.4,13.8 39,48.9 42.6,50.6 67.1,15.6 			"/>
			<polygon class="st25" points="61.9,10.7 37.5,45.8 39,48.9 63.4,13.8 			"/>
			<polygon class="st26" points="63.4,13.8 67.1,15.6 69.2,14.3 67.8,11.2 64.1,9.4 61.9,10.7 			"/>
			<polygon class="st15" points="64.9,13.1 66.5,13.9 67.5,13.3 66.8,12 65.2,11.2 64.2,11.7 			"/>
			<polygon class="st25" points="34.7,56.6 39,48.9 37.5,45.8 			"/>
			<polygon class="st27" points="35.6,55 34.7,56.6 35.3,54.4 			"/>
			<polygon class="st28" points="35.6,55 36.4,55.4 34.7,56.6 			"/>
			<path class="st17" d="M59.2,25.8c0,0-1.9,0.2-2.3-0.1s-0.9,0.2-0.4,0.5l1.2,0.3c0,0-2.1,0.7-2.4,0.1s0.2,1.7,1.3,1.9
				s2.2,0.5,3.8-1.7C60.2,26.3,59.7,25.9,59.2,25.8z"/>
			<path class="st6" d="M68.7,23.4c0,0-2.7,3.6-9.1,4.4c0.1-0.7-0.2-1.5-0.7-2C58.9,25.8,69.4,17,68.7,23.4z"/>
		</g>
	</g>
</g>
<g id="Layer_2" class="st29">
	<g id="Layer_2_2_" class="st30">
		<rect x="-84.4" y="14.6" class="st6" width="66.7" height="34.6"/>
		<rect x="-84.4" y="-28.7" class="st1" width="66.7" height="34.6"/>
		<rect x="-84.4" y="54.9" class="st20" width="66.7" height="34.6"/>
	</g>
</g>
</svg>
