<?xml version="1.0" encoding="utf-8"?>
<!-- Generator: Adobe Illustrator 24.0.0, SVG Export Plug-In . SVG Version: 6.00 Build 0)  -->
<svg version="1.1" xmlns="http://www.w3.org/2000/svg" xmlns:xlink="http://www.w3.org/1999/xlink" x="0px" y="0px"
	 viewBox="0 0 113.6 120.4" style="enable-background:new 0 0 113.6 120.4;" xml:space="preserve">
<style type="text/css">
	.st0{opacity:0.1;enable-background:new    ;}
	.st1{opacity:0.1;}
	.st2{fill:url(#SVGID_1_);}
	.st3{fill:#FF4D73;}
	.st4{fill:#4D9B12;}
	.st5{fill:#73C139;}
	.st6{fill:#95C4DE;}
	.st7{fill:#A9D6EA;}
	.st8{fill:#DEF6FF;}
	.st9{opacity:0.5;fill:#DEF6FF;enable-background:new    ;}
	.st10{fill:#C0C5D1;}
	.st11{fill:url(#SVGID_2_);}
	.st12{fill:#FFFFFF;}
	.st13{fill:#EFEFEF;}
	.st14{fill:#E0E0E0;}
	.st15{opacity:0.8;}
	.st16{fill:#D70010;}
	.st17{fill:#7A0110;}
	.st18{fill:#EFB185;}
	.st19{fill:#111114;}
	.st20{fill:#101010;}
	.st21{fill:#444444;}
	.st22{fill:#DD9569;}
	.st23{fill:#E6A376;}
	.st24{fill:#221101;}
	.st25{fill:#341C09;}
	.st26{fill:#0A1014;}
	.st27{fill:#131C24;}
	.st28{fill:#1D1D21;}
	.st29{fill:#161619;}
	.st30{fill:#1D2833;}
	.st31{fill:#FEFFFF;}
	.st32{fill:#F2B78F;}
	.st33{fill:#B4B9BC;}
	.st34{fill:#7D8183;}
	.st35{fill:#E3E5E5;}
	.st36{fill:#BDBBBB;}
	.st37{fill:#D2D0D0;}
	.st38{fill:#D5DFE6;}
	.st39{fill:#E9F0F4;}
	.st40{display:none;}
	.st41{display:inline;}
</style>
<g id="Layer_1">
	<title>15</title>
	<g id="Layer_2_1_">
		<g id="Layer_1-2">
			<polygon class="st0" points="49.7,91 81.3,109.3 62.3,120.4 30.6,102.1 			"/>
			<g class="st1">
				<path d="M106.5,63c3.5,2,3.6,5.3,0.1,7.3c-4,2.1-8.7,2.1-12.7,0c-3.5-2-3.6-5.3-0.1-7.3C97.8,60.9,102.5,60.9,106.5,63z"/>
			</g>
			
				<linearGradient id="SVGID_1_" gradientUnits="userSpaceOnUse" x1="101.914" y1="63.9998" x2="102.094" y2="45.3498" gradientTransform="matrix(1 0 0 -1 0 122)">
				<stop  offset="0" style="stop-color:#FF556A"/>
				<stop  offset="0.13" style="stop-color:#D70010"/>
				<stop  offset="0.44" style="stop-color:#D70010"/>
				<stop  offset="0.74" style="stop-color:#AF0015"/>
				<stop  offset="1" style="stop-color:#7A0110"/>
			</linearGradient>
			<path class="st2" d="M110.9,56.4l-18,0.3l2.2,11.1l0,0c0.3,1,1,1.9,2,2.4c3,1.6,6.6,1.6,9.6,0c1-0.4,1.7-1.3,2-2.4l0,0
				L110.9,56.4z"/>
			<path class="st3" d="M108.2,52.7c3.6,2,3.6,5.3,0.1,7.4c-4,2-8.7,2-12.7,0c-3.5-2.1-3.5-5.4,0-7.4
				C99.6,50.7,104.2,50.7,108.2,52.7z"/>
			<path class="st4" d="M106.3,53.7c2.6,1.5,2.6,3.9,0,5.4c-2.9,1.5-6.4,1.5-9.3,0c-2.5-1.5-2.5-3.9,0-5.4
				C99.9,52.2,103.4,52.2,106.3,53.7z"/>
			<path class="st5" d="M95.4,54.7c0,0-7.2-9.1-0.1-25.3c0,0,6.1,7.8,2.6,27.7C96.8,56.6,95.9,55.8,95.4,54.7z"/>
			<path class="st4" d="M95.3,29.5c0.2,6.2,0.5,17.1,1.4,26.8c0.4,0.3,0.8,0.6,1.2,0.8C101.2,38.5,96.1,30.5,95.3,29.5z"/>
			<path class="st5" d="M98.9,53.6c0,0-5.7-10,3.6-25.1c0,0,5,8.6-1.5,27.9C100,55.7,99.3,54.7,98.9,53.6z"/>
			<path class="st4" d="M102.5,28.5c-0.7,6.2-2.5,17-3.1,26.7c0.3,0.4,0.7,0.8,1.1,1C107.5,39.4,103.1,29.6,102.5,28.5z"/>
			<path class="st5" d="M99.3,57.5c0,0-8.6-3-10.8-16.8c0,0,7.4,2.6,13.5,17.4C101.1,58.2,100.1,58,99.3,57.5z"/>
			<path class="st4" d="M88.7,40.7c2.7,4.1,7.5,11.3,12.1,17.4c0.4,0.1,0.8,0.1,1.2,0C96.4,44.3,89.6,41.1,88.7,40.7z"/>
			<path class="st5" d="M103.1,56.2c0,0-4.6-5.3-0.9-15.3c0,0,4,4.5,2.5,16.7C104,57.3,103.5,56.8,103.1,56.2z"/>
			<path class="st4" d="M102.3,41c0.3,3.8,0.8,10.3,1.6,16.1c0.2,0.2,0.5,0.4,0.8,0.5C106.1,46.3,102.8,41.6,102.3,41z"/>
			<path class="st5" d="M105.1,52.8c0,0-4.4-7.9,3.2-19.7c0,0,3.8,6.9-1.5,21.9C106,54.5,105.4,53.7,105.1,52.8z"/>
			<path class="st4" d="M108.4,33.2c-0.7,4.9-1.9,13.4-2.5,21.1c0.3,0.3,0.6,0.5,0.9,0.7C111.7,41,108.8,34.1,108.4,33.2z"/>
			<path class="st5" d="M106.2,54.3c0,0-1-6.7,7.3-13c0,0,0.9,5.8-6.7,15C106.4,55.7,106.2,55,106.2,54.3z"/>
			<path class="st4" d="M113.5,41.4c-1.7,3.2-4.7,8.9-7.1,14.1c0.1,0.3,0.2,0.5,0.4,0.8C113.9,47.7,113.6,42.1,113.5,41.4z"/>
			<g class="st1">
				<polygon points="0,89 26.6,104.5 88.1,69 60.9,52.9 				"/>
			</g>
			<g>
				<polygon class="st6" points="24.6,86.5 24.6,89.4 39,97.8 39,94.8 				"/>
				<polygon class="st7" points="39,94.8 39,97.8 73,78.2 73,75.2 				"/>
				<polygon class="st8" points="24.6,86.5 39,94.8 73,75.2 58.6,66.9 				"/>
				<polygon class="st9" points="24.6,86.5 73,75.2 73,75.2 58.6,66.9 				"/>
			</g>
			<g>
				<polygon class="st6" points="37.9,89.3 35.3,87.9 35.3,61.3 37.8,62.8 				"/>
				<polygon class="st10" points="37.8,62.8 35.3,61.3 58.4,48 60.9,49.5 				"/>
				<polygon class="st7" points="60.9,49.5 61,76 37.9,89.3 37.8,62.8 				"/>
			</g>
			<polygon class="st6" points="14.6,92.4 12.2,91.7 1.6,39.6 4.1,40.3 			"/>
			<polygon class="st7" points="4.1,40.3 1.6,39.6 70.3,0 72.7,0.7 			"/>
			<polygon class="st8" points="72.7,0.7 83.3,52.7 14.6,92.4 4.1,40.3 			"/>
			
				<linearGradient id="SVGID_2_" gradientUnits="userSpaceOnUse" x1="59.6505" y1="112.5398" x2="28.6805" y2="41.3598" gradientTransform="matrix(1 0 0 -1 0 122)">
				<stop  offset="0" style="stop-color:#1A6BB2"/>
				<stop  offset="1" style="stop-color:#1B4B92"/>
			</linearGradient>
			<polygon class="st11" points="70.9,4.8 80.3,51.7 16.7,88.5 6.9,41 			"/>
			<g>
				<polygon class="st12" points="62.8,15.4 63.3,17.2 53.2,23 52.8,21.2 				"/>
				<path class="st13" d="M44.1,44.1l23.2-13.5l5.1,22.5L49.1,66.5L44.1,44.1z M68.7,44.1L66.4,34L46.6,45.4l2.3,10.1L68.7,44.1z"/>
				<polygon class="st13" points="65.6,22.8 65.9,24.5 42.7,37.9 42.3,36.2 				"/>
				<polygon class="st14" points="35.5,43.1 35.8,44.5 21.9,52.5 21.6,51.1 				"/>
				<polygon class="st14" points="34.8,39.9 35.1,41.3 21.2,49.4 20.9,48 				"/>
				<path class="st13" d="M18.8,46.2L36.5,36l7.8,34.4L26.6,80.6L18.8,46.2z M41.5,69.6l-2.3-10l-13.9,8.1l2.3,10L41.5,69.6z
					 M37.4,51.5l-0.3-1.4l-13.9,8l0.3,1.4L37.4,51.5z M35.1,41.3l-0.3-1.4L20.9,48l0.3,1.4C21.2,49.4,35.1,41.3,35.1,41.3z
					 M36.7,48.3l-0.3-1.4l-13.9,8l0.3,1.5C22.8,56.4,36.7,48.3,36.7,48.3z M35.8,44.5l-0.3-1.4l-13.9,8l0.3,1.4L35.8,44.5z"/>
				<polygon class="st13" points="66.4,26.6 66.8,28.3 43.5,41.7 43.2,40.1 				"/>
				<polygon class="st12" points="43.1,26.8 43.5,28.6 18.1,43.2 17.7,41.4 				"/>
				<g class="st15">
					<path class="st16" d="M65.4,11.4l-50,28.9l9.7,43.2l50.1-28.9L65.4,11.4z M66.8,28.3l-8.5,4.9l-14.8,8.5l-0.3-1.6l0,0
						l23.2-13.5C66.4,26.6,66.8,28.3,66.8,28.3z M65.6,22.8l0.3,1.7L42.7,37.9l-0.4-1.7C42.3,36.2,65.6,22.8,65.6,22.8z M65.2,21.3
						L42,34.8l-0.4-1.7l23.2-13.5C64.8,19.6,65.2,21.3,65.2,21.3z M16.8,40.9l46.8-27l0.8,3.8l-46.7,27
						C17.7,44.7,16.8,40.9,16.8,40.9z M26.6,80.6l-7.8-34.4L36.5,36l7.8,34.4C44.3,70.4,26.6,80.6,26.6,80.6z M44.1,44.1l23.2-13.5
						l5.1,22.5L49.1,66.5L44.1,44.1z"/>
				</g>
				<polygon class="st14" points="68.7,44.1 66.4,34 46.6,45.4 48.9,55.5 				"/>
				<polygon class="st13" points="64.8,19.6 65.2,21.3 42,34.8 41.6,33.1 				"/>
				<polygon class="st14" points="39.2,59.6 41.5,69.6 27.6,77.7 25.3,67.7 				"/>
				<path class="st17" d="M16.8,40.9l46.8-27l0.8,3.8l-46.7,27L16.8,40.9z M43.5,28.6l-0.4-1.8L17.7,41.4l0.4,1.8L43.5,28.6z
					 M63.3,17.2l-0.5-1.8l-10,5.8l0.4,1.8C53.2,23,63.3,17.2,63.3,17.2z"/>
			</g>
			<polygon class="st14" points="36.4,46.9 36.7,48.3 22.8,56.4 22.5,54.9 			"/>
			<polygon class="st14" points="37.1,50.1 37.4,51.5 23.5,59.5 23.2,58.1 			"/>
			<polygon class="st16" points="23.7,31.4 26.4,44.9 18.8,49.3 15.3,48.2 13,47.4 11.2,38.6 			"/>
			<polygon class="st17" points="13,47.4 17.4,45.5 18.8,49.3 			"/>
			<polygon class="st8" points="22,35.1 22.2,36 14.4,40.6 14.2,39.7 			"/>
			<polygon class="st8" points="22.6,37.6 22.8,38.4 15,43 14.8,42.1 			"/>
			<polygon class="st8" points="23.4,39.9 23.6,40.8 15.8,45.4 15.6,44.5 			"/>
			<g class="st1">
				<path d="M86.6,84.6c5,2.9,5.1,7.6,0,10.5s-13.1,2.9-18.2,0s-5-7.6,0-10.5S81.5,81.7,86.6,84.6z"/>
			</g>
			<path class="st16" d="M78.6,37.6c0,0-0.2-2.4-3.5-2.2c-2.2,0.2-4.4,0.4-6.6,0.8l-5.4-5.3c0,0-1.5,0.3-1.7,1.2s3.7,6.5,6.5,7.5
				C67.9,39.6,79.8,42.7,78.6,37.6z"/>
			<path class="st18" d="M62.8,30.9c-0.1-0.8-0.4-1.5-0.8-2.2c-0.3-0.4-0.7-0.8-1.1-1c-0.2,0,0.2,0.7,0.4,1s0,0.9-1.3-0.2
				s-1.2-0.7-1.2-0.6s0.9,3,2.6,4C61.7,31.4,62.2,31.1,62.8,30.9z"/>
			<path class="st17" d="M67.9,39.6c-2.8-1-6.5-7.5-6.5-7.5c0-0.3,0.2-0.5,0.4-0.6c0.9,1.2,3.6,4.8,5.3,6.6s11.5,0.5,11.6,0.4
				C78.2,42.3,67.9,39.6,67.9,39.6z"/>
			<path class="st19" d="M77.2,82.7c0,0-1.3,0.3-0.9,1s2,1.8,2.3,2.3s1.6,2,2,1.8s1.5,0,1.2-2S79,82.5,77.2,82.7z"/>
			<path class="st19" d="M79,86.9c0,0,1,1.7-0.5,2.4S77.3,89,74,90.6s-4-0.2-4-0.6s2.2-1.6,2.9-1.9l2-1l4.1-0.8V86.9z"/>
			<path class="st20" d="M79,56.5c0,0,1.1,11.4,1.2,12.6s2.4,11.3,1.9,15.8c0,0-2.2,2.7-4.6,0.4c0,0-1.9-12.6-2.7-15.4
				s-1.5-11.5-1.5-11.5L79,56.5z"/>
			<path class="st20" d="M75.1,55.5c0,0,0.9,7.3,1.7,14.6c0,0,2.4,14.3,2.5,16.4c0,0-4.4,2.1-5.3,0c0,0-2.3-12.6-2.9-15.1
				s-2.9-10.7-2.7-15.1S75.1,55.5,75.1,55.5z"/>
			<path class="st21" d="M79.3,86.5c-0.1-2.1-2.5-16.4-2.5-16.4c-0.6-4.9-1.3-10.6-1.6-13.3l-3,1.2c-0.3,4.9,0.2,9.8,1.3,14.6
				c1.5,6.2,2.8,12.3,3.3,14.7C77.7,87.1,78.5,86.9,79.3,86.5z"/>
			<path class="st21" d="M82.1,84.9c0.5-4.5-1.8-14.5-1.9-15.8s-0.7-10.9-0.8-11.9l-2.7,1.5c0,0-0.1,8.2,1.1,12.8s1.4,12.4,1.9,14.7
				C80.6,86.1,81.5,85.6,82.1,84.9z"/>
			<path class="st16" d="M77.6,35.4c0,0,2.6,1,1.7,5.2s-1.6,7-1.3,8.5c0.4,2.7,0.9,5.4,1.7,8.1c0,0,0.3,1.7-6.1,3.3
				c0,0-5.8,1.3-5.2-2.9s-0.7-8.7-1.1-10.3s-1.6-4.7,2.1-7.3S75.1,35.6,77.6,35.4z"/>
			<path class="st18" d="M74.6,33.7c0,1.2,0.3,2.4,0.8,3.5c0.8,1.1-4.1,2.8-4.3,1.6c0.4-1.4,0.1-2.8-0.7-4
				C69.6,33.7,74.6,33.7,74.6,33.7z"/>
			<path class="st22" d="M75.4,37.2c-0.5-0.9-0.8-1.9-0.8-3l-3.5,2.2l0,0c0.2,0.1,2.7,0.4,3.4,2.1C75.2,38.1,75.7,37.6,75.4,37.2z"
				/>
			<path class="st18" d="M68.7,28.7c-0.3,1.2-0.4,2.5-0.3,3.7c0.4,1.7,0.2,2.1,0.4,2.9s0.1,0.8,0.5,1.1s1.8,0.6,3.3-0.2
				s3.4-3.7,2.4-5.9S71.3,26.5,68.7,28.7z"/>
			<path class="st23" d="M75.2,32.8c-0.9-1.5-2-3-3.1-4.4l-1.4-0.7c-0.8,0.1-1.5,0.5-2,1c-0.1,0.4-0.3,0.9-0.3,1.3
				c0.5,0.4,1.5,0.9,1.7,1.3c0.4,1,0.4,2.1,0.2,3.2c-0.3,0.7,1.1,1.5,0.9,2.1l0,0c0.5-0.1,1-0.3,1.4-0.5
				C73.9,35.4,74.8,34.2,75.2,32.8z"/>
			<path class="st24" d="M68,28c0,1.1,0.7,2,1.7,2.3c1,0.3,1.1,1.9,1.1,2.2s-0.2,1.7,0,1.8s0.9-0.8,1.2-0.7s0.7,0.9,0,1.9
				s1.6,1.2,2.6,0.3c0.6-0.6,1.1-1.4,1.3-2.3c0.9-2.4,0.6-5-2.1-6.2S69.7,28.4,68,28z"/>
			<path class="st25" d="M74.6,35.8c0.6-0.6,1.1-1.4,1.3-2.3c0.9-2.4,0.6-5-2.1-6.2S69.7,28.4,68,28c0,0.2,0,0.4,0.1,0.6
				c0.8,0.1,3.2,0.3,3.8,1.2s1.7,0.6,1.8,2.1s0.7,3.3-1.7,4.4C72.9,36.6,73.9,36.4,74.6,35.8z"/>
			<path class="st17" d="M71.3,38.2l-1.5,1.5c0,0,5.3,0.9,6.5-1.8c0.1-0.7-0.4-1.4-1.1-1.6C75.2,36.3,75.2,38.3,71.3,38.2z"/>
			<path class="st17" d="M68,57.4c0.4-3.4,0.1-6.8-0.7-10.1c-0.3-1.6-1.6-4.6,2-7.2c2.2,0.8,3.4,3.1,2.8,5.3
				c-0.9,3.8-0.5,11.8-0.4,15.3C70.1,60.7,67.7,60,68,57.4z"/>
			<path class="st18" d="M59.4,32.9c0,0,0.1-1.3-0.3-1.7c-0.5-0.8-1-1.6-1.6-2.4c-0.3-0.2-0.2,0.5-0.1,0.9s0.1,1.4-0.1,1.3
				s-0.9,0.4-0.7,1c0.2,0.6,1.1,1.7,1.2,1.9C58.4,33.6,58.9,33.3,59.4,32.9z"/>
			<path class="st16" d="M71.1,42.9c0,0,0.4-2-2.5-2.8c-1.9-0.5-3.9-0.8-5.9-1L59.4,33c0,0-1.3-0.1-1.8,0.7s1.6,6.6,3.7,8.2
				C61.3,41.9,70.8,47.6,71.1,42.9z"/>
			<path class="st26" d="M72.1,105.4c0,0-1.8,1.5-1.4,3.1c0,0,0.6,0.7,1.1-0.5S73,105.4,72.1,105.4z"/>
			<path class="st19" d="M70.7,108.7c0,0,2.7,1,3.2,0.1c0.3-0.7,0.8-1.4,1.3-2c0.4-0.3,2.7-4.2,1.9-4.8s-1.8,0.5-2.2,0.7l-3.8,3
				L70.7,108.7z"/>
			<path class="st27" d="M47.6,91.6c0,0,9.8,5.6,12,7.5s11.9,6.4,11.9,6.4c-0.4,1-0.6,2-0.8,3.1c0,0-9.3-0.1-15.1-5.5
				c0,0-19.5-4-17.9-14.1C37.7,89,44.2,90.1,47.6,91.6z"/>
			<path class="st28" d="M75.2,106.8c0.3-0.3,2.2-3.4,2-4.5c-0.5-0.1-1,0.2-1.1,0.7c-0.6,1.4-1.3,2.7-2.1,4
				c-0.3,0.3-1.5,1.5-1.3,2.1c0.4,0.1,0.9,0,1.2-0.3C74.2,108.1,74.7,107.4,75.2,106.8z"/>
			<path class="st29" d="M66.4,113.6c0,0,3.2,0.5,3.5-0.4c0.3-0.6,0.6-1.2,1-1.8c0.3-0.3,2-3.8,1.3-4.3s-1.6,0.6-1.9,0.8
				s-3.1,2.9-3.1,2.9L66.4,113.6z"/>
			<path class="st28" d="M70.9,111.4c0.3-0.3,1.6-3.1,1.4-4c-0.4,0-0.8,0.3-0.9,0.7c-0.4,1-1.4,3.3-1.6,3.6s-1.1,1.4-0.9,2
				s0.9-0.2,1-0.5C70.2,112.6,70.5,112,70.9,111.4z"/>
			<path class="st17" d="M43.4,73.5c-1.1,0.2-1.9,1.2-1.8,2.3c0.1,2.1,2,11.2,4.3,13s2.1-2.5,2.1-2.5S46.7,73,43.4,73.5z"/>
			<path class="st30" d="M46,90.7c0,0-1.6,4.8-2.5,5.8s9.8,5.6,12,7.5s12.2,6.3,12.2,6.3c-0.6,1-0.9,2.1-1.1,3.3
				c0,0-9.2-0.2-15.1-5.5c0,0-19.5-4.1-17.9-14.2C38,95.3,42.8,94.1,46,90.7z"/>
			<path class="st16" d="M38.1,74.2c0,0-5.3,2.9-5.4,3.3s-0.7,0.7,1,4.8c1,2.6,1.2,5.4,0.5,8.1c-0.4,1.1-0.6,2.2-0.6,3.4
				c0,0,2.1,4.4,7.9,2.3c1.2-0.4,4.5-3.6,5.1-4.9s-1.9-2.3-1.1-6.7s1.1-10.3-1.4-11.1C44.1,73.4,43.4,72.7,38.1,74.2z"/>
			<path class="st31" d="M39.8,72.7c0,0,3.4,1.8,1.8,4.4l1.7,0.9c0.8-2-0.2-4.3-2.2-5C40.7,72.8,40.2,72.7,39.8,72.7z"/>
			<path class="st18" d="M37.6,70.9c0,0,1.4,2.2,0.3,3.7s0.8,2.7,3.4,2.6c0,0,1.1-0.3,1-0.7c-0.2-0.8,0-1.6,0.5-2.2
				C43.2,73.6,37.6,70.9,37.6,70.9z"/>
			<path class="st22" d="M37.9,74.6l-0.2,0.3c0.8-0.6,1.8-1,2.8-1l-2.4-2.7h-0.2v0.2C38.1,72,38.7,73.5,37.9,74.6z"/>
			<path class="st32" d="M42.3,76.5c-0.2-0.8,0-1.6,0.5-2.2c0.1-0.2-0.2-0.5-0.8-0.9l-0.4,0.4c-0.7,1-1,2.2-0.8,3.4h0.5
				C41.6,77.1,42.4,77,42.3,76.5z"/>
			<path class="st18" d="M37,69.7c0,0,0.7,2.9,2.6,4.2s3.8,1.9,4.2-0.2s1.1-5.9-0.3-6.7s-2.6-2.5-4.8-1.7C37.2,66.2,36.4,68,37,69.7
				z"/>
			<path class="st23" d="M37,69.7c0.3,1.7,1.2,3.2,2.6,4.2c0.5,0.4,1.1,0.7,1.7,0.9c-0.6-0.5-1.2-1.1-1.7-1.7
				c-0.7-0.8,1-0.5-0.2-2.6s1.6,0.2,2.1,0.2c2.7-0.1,2.5-1.7,2.5-2.3c0-0.3-0.1-0.6-0.2-0.8l-0.2-0.5h-0.1l-0.9-1h-4.5
				c-0.1,0-0.6,0.8-1.2,1.5C36.8,68.3,36.8,69,37,69.7z"/>
			<path class="st25" d="M38.2,72.5c-1.3-1.3-1.8-3.1-1.4-4.9c0.3-1.4,1.5-2.5,3-2.6c1.9-0.4,3.8,0.6,4.5,2.4
				c0.3,0.8,0.1,2.5-2.9,1.7c-0.5-0.1-1.6-0.3-2,0.1c-0.4,0.4-0.5,1.1-0.3,1.6c0.2,0.6-0.3,0.6-0.3,0.5s-0.7-1.6-1.2-1
				S38.2,72.4,38.2,72.5z"/>
			<path class="st24" d="M38.2,72.5c0-0.1-1.1-1.7-0.6-2.2s1.1,0.9,1.2,1s0.5,0.1,0.3-0.5c-0.2-0.5-0.1-1.2,0.3-1.6
				c0.3-0.3,1.4-0.2,2-0.1s-1.5-0.5-1.9-1.3c-0.3-0.8-1-1.5-1.8-1.8c-0.4,0.4-0.7,1-0.9,1.6C36.4,69.4,36.9,71.2,38.2,72.5z"/>
			<path class="st31" d="M38.2,73.9c0.4,1.6,1.7,2.9,3.4,3.2l-0.8,2C40.8,79.1,35.6,76.5,38.2,73.9z"/>
			<path class="st25" d="M44.3,67.4c0,0,0.5,2.8-3.1,1.8c-1.1-0.3-1.9-1.1-2.4-2.1c-0.2-0.4-0.6-1-1.2-1s0.9-1.4,3.4-1.2
				c1,0.2,1.9,0.7,2.6,1.4C43.9,66.5,43.4,67.6,44.3,67.4z"/>
			<path class="st18" d="M56,87.9c1.4,0.3,2.9,0.2,4.3-0.2c1.7-0.7,1.3-0.8,1.1-1.1s-2.5-0.4-3-0.5s0.4-0.4,0.6-0.7s0.5-0.7,0.4-0.8
				c-0.4,0-0.8,0.1-1.1,0.4c-0.7,0.5-1.5,0.9-2.3,1.2V87.9z"/>
			<path class="st17" d="M56.3,85.9c-0.1,0.4-0.1,0.8-0.1,1.2c0,0.5,0.2,0.9,0.4,1.3c0,0-8.3,1.6-10.4,0.6c0,0-2.1-3.2,1-4
				L56.3,85.9z"/>
			<g>
				<polygon class="st33" points="40.5,96.5 40.5,97 46.6,101.3 46.7,100.9 				"/>
				<polygon class="st34" points="46.7,100.9 46.6,101.3 58.1,96 58.2,95.6 				"/>
				<polygon class="st35" points="40.5,96.5 46.7,100.9 58.2,95.6 52,91.2 				"/>
			</g>
			<g>
				<polygon class="st36" points="48.5,93.6 48,93.2 46.1,100.9 46.6,101.3 				"/>
				<polygon class="st37" points="60.5,88.1 60.1,87.6 48,93.2 48.5,93.6 				"/>
				<polygon class="st38" points="48.5,93.6 46.6,101.3 58.6,95.8 60.5,88.1 				"/>
				<polygon class="st39" points="48.5,93.6 48.5,93.6 58.6,95.8 60.5,88.1 				"/>
			</g>
			<path class="st18" d="M44,95.3c0,0,2.8,2.4,5.6,1.8c0,0,0-0.7-1.3-1s-1.7-1.2-1.6-1.3s0.9-0.2,1.3-0.3s1-0.6,0-0.6
				c-1.3-0.2-2.6-0.3-3.9-0.3C44.1,93.6,43.1,94.7,44,95.3z"/>
			<path class="st16" d="M34.5,77c-1.1-0.2-2.1,0.4-2.4,1.5c0,0,0,0.1,0,0.1c-0.6,2.1-1.4,11.3,0.2,13.7c1.6,2.4,11.9,3.6,11.9,3.6
				c-0.5-0.9-0.3-2,0.3-2.8l-8.9-3.8C35.6,89.3,37.7,77.5,34.5,77z"/>
			<path class="st17" d="M35.6,89.3l8.9,3.8c-0.2,0.3-0.4,0.6-0.5,0.9c-2-0.6-9.5-1.7-9.3-3.3c0.9-8.4,1-12.7,1-12.7l0.3,1
				C36.8,82.5,35.6,89.3,35.6,89.3z"/>
		</g>
	</g>
</g>
<g id="Layer_2" class="st40">
	<g id="Layer_2_2_" class="st41">
		<rect x="-83.8" y="40.4" class="st16" width="66.7" height="34.6"/>
		<rect x="-83.8" y="-2.9" class="st17" width="66.7" height="34.6"/>
		<rect x="-83.8" y="80.7" class="st20" width="66.7" height="34.6"/>
	</g>
</g>
</svg>
