<?xml version="1.0" encoding="utf-8"?>
<!-- Generator: Adobe Illustrator 24.0.0, SVG Export Plug-In . SVG Version: 6.00 Build 0)  -->
<svg version="1.1" xmlns="http://www.w3.org/2000/svg" xmlns:xlink="http://www.w3.org/1999/xlink" x="0px" y="0px"
	 viewBox="0 0 111.1 106.8" style="enable-background:new 0 0 111.1 106.8;" xml:space="preserve">
<style type="text/css">
	.st0{opacity:0.1;}
	.st1{fill:#D3D3D3;}
	.st2{fill:#FFFFFF;}
	.st3{opacity:0.7;}
	.st4{fill:#D70010;}
	.st5{fill:#7A0110;}
	.st6{fill:#F1B287;}
	.st7{fill:#EFB185;}
	.st8{fill:#E6A376;}
	.st9{fill:#111114;}
	.st10{fill:#24323D;}
	.st11{fill:#2B3C4B;}
	.st12{fill:#314656;}
	.st13{fill:#2A3944;}
	.st14{fill:#F70321;}
	.st15{fill:#DD9569;}
	.st16{fill:#221101;}
	.st17{fill:#341C09;}
	.st18{fill:#DEF0F9;}
	.st19{display:none;}
	.st20{display:inline;}
	.st21{fill:#101010;}
</style>
<g id="Layer_1">
	<title>16</title>
	<g id="Layer_2_1_">
		<g id="Layer_1-2">
			<g class="st0">
				<polygon points="0,90.4 24.8,104.9 82.2,71.7 56.8,56.8 				"/>
			</g>
			<g class="st0">
				<polygon points="34,50.9 53,61.9 96.8,36.6 77.4,25.2 				"/>
			</g>
			<polygon class="st1" points="66.3,31.6 66.3,32.8 53.4,40.3 53.4,39.1 			"/>
			<polygon class="st1" points="93.3,19.3 93.4,27.8 75,38.4 75,29.9 			"/>
			<path class="st2" d="M73.1,28.9l21.6-12.5v18.9L73.2,47.7L73.1,28.9z M93.4,27.8v-8.5L75,29.9v8.5C75,38.4,93.4,27.8,93.4,27.8z"
				/>
			<polygon class="st1" points="94.7,13 94.7,14.4 73.1,26.9 73.1,25.5 			"/>
			<polygon class="st1" points="66.3,42.3 66.3,50.8 53.4,58.2 53.4,49.8 			"/>
			<path class="st2" d="M51.9,31.8l16.5-9.5v29L52,60.8L51.9,31.8z M66.3,50.8v-8.5l-12.9,7.5v8.4C53.4,58.2,66.3,50.8,66.3,50.8z
				 M66.3,26.9v-1.2l-12.9,7.5v1.2C53.4,34.4,66.3,26.9,66.3,26.9z M66.3,32.8v-1.2l-12.9,7.5v1.2L66.3,32.8z M66.3,35.5v-1.2
				l-12.9,7.4v1.2L66.3,35.5z M66.3,29.6v-1.2l-12.9,7.4V37L66.3,29.6z"/>
			<g class="st3">
				<path class="st4" d="M50.2,26.8L96.7,0v36.5L50.3,63.3L50.2,26.8z M68.5,51.3v-29l-16.6,9.5v29L68.5,51.3L68.5,51.3z M94.8,35.3
					V16.4L73.1,28.9v18.8L94.8,35.3z M94.7,5.5V2.3l-43.4,25v3.2L94.7,5.5z M94.7,8.5V7.1L73.1,19.6V21L94.7,8.5z M94.7,11.2V9.8
					L73.1,22.2v1.5L94.7,11.2z M94.7,14.4V13L73.1,25.5v1.4L94.7,14.4z"/>
			</g>
			<polygon class="st1" points="94.7,9.8 94.7,11.2 73.1,23.7 73.1,22.2 			"/>
			<polygon class="st2" points="51.9,29.3 75.5,15.7 75.5,14.1 51.9,27.7 			"/>
			<path class="st5" d="M94.7,5.5V2.3l-43.4,25v3.2L94.7,5.5z M93.8,3.6v1.5l-9.4,5.4V8.9L93.8,3.6L93.8,3.6z M75.5,14.1v1.6
				L51.9,29.3v-1.6L75.5,14.1z"/>
			<polygon class="st2" points="93.8,3.6 93.9,5.1 84.5,10.5 84.5,8.9 			"/>
			<polygon class="st1" points="94.7,7.1 94.7,8.5 73.1,21 73.1,19.6 			"/>
			<polygon class="st1" points="66.3,34.3 66.3,35.5 53.4,42.9 53.4,41.7 			"/>
			<polygon class="st1" points="66.3,28.4 66.3,29.6 53.4,37 53.4,35.8 			"/>
			<polygon class="st1" points="66.3,25.7 66.3,26.9 53.4,34.4 53.4,33.2 			"/>
			<polygon class="st1" points="44.4,66.4 44.4,67.9 27.9,77.4 27.9,75.9 			"/>
			<polygon class="st1" points="78.8,50.7 78.9,61.5 55.5,75 55.5,64.2 			"/>
			<path class="st2" d="M53.1,62.9L80.6,47v24L53.1,86.9V62.9z M78.9,61.5V50.7L55.5,64.2V75C55.5,75,78.9,61.5,78.9,61.5z"/>
			<polygon class="st1" points="80.6,42.7 80.6,44.5 53.1,60.4 53.1,58.6 			"/>
			<polygon class="st1" points="44.4,80 44.4,90.8 28,100.3 28,89.5 			"/>
			<path class="st2" d="M26.1,66.6l21-12.1v36.9l-21,12.2L26.1,66.6z M44.4,90.8V80L28,89.5v10.8L44.4,90.8z M44.3,60.4v-1.5
				l-16.4,9.5v1.5C27.9,69.9,44.3,60.4,44.3,60.4z M44.4,67.9v-1.5l-16.5,9.5v1.5L44.4,67.9z M44.4,71.3v-1.5l-16.5,9.5v1.5
				L44.4,71.3z M44.4,63.8v-1.5l-16.5,9.5v1.5L44.4,63.8z"/>
			<g class="st3">
				<path class="st4" d="M23.9,60.3l59.2-34.1l0.2,46.4l-59.2,34.2L23.9,60.3z M47.2,91.4V54.5l-21,12.1v37L47.2,91.4z M80.7,71V47
					L53.1,62.9v24L80.7,71z M80.6,33.1V29L25.3,60.9V65L80.6,33.1z M80.6,37v-1.8L53,51v1.9L80.6,37z M80.6,40.4v-1.8L53.1,54.5v1.8
					L80.6,40.4z M80.6,44.5v-1.8L53.1,58.6v1.8L80.6,44.5z"/>
			</g>
			<polygon class="st1" points="80.6,38.6 80.6,40.4 53.1,56.3 53.1,54.5 			"/>
			<polygon class="st2" points="26.1,63.4 56.1,46.1 56.1,44.2 26.1,61.5 			"/>
			<path class="st5" d="M80.6,33.1V29L25.3,60.9V65L80.6,33.1z M79.5,30.7v1.9l-11.9,6.9v-2C67.6,37.5,79.5,30.7,79.5,30.7z
				 M56.1,44.2v1.9l-30,17.3v-1.9L56.1,44.2z"/>
			<polygon class="st2" points="79.5,30.7 79.5,32.6 67.6,39.5 67.6,37.5 			"/>
			<polygon class="st1" points="80.6,35.2 80.6,37 53.1,52.9 53,51 			"/>
			<polygon class="st1" points="44.4,69.8 44.4,71.3 27.9,80.8 27.9,79.3 			"/>
			<polygon class="st1" points="44.4,62.3 44.4,63.8 27.9,73.3 27.9,71.8 			"/>
			<polygon class="st1" points="44.3,58.9 44.3,60.4 27.9,69.9 27.9,68.4 			"/>
			<path class="st6" d="M78.9,43.8c0,0-1.8-0.7-1.9-1.2s-0.9-0.3-0.6,0.2c0.2,0.4,0.5,0.7,0.8,0.9c0,0-2.2-0.6-2.2-1.3
				s-0.7,1.6,0.1,2.3s1.5,1.7,4.1,0.9C79.4,45,79.3,44.3,78.9,43.8z"/>
			<path class="st7" d="M87.2,31.8c-0.4-0.8-0.9-1.5-1.4-2.2c-0.4-0.3-2-1.6-3.5-1.2s-0.1,0.9,1.1,1.5c0.6,0.2,1,0.7,1.2,1.3
				c0.3,0.7,0.6,1.5,1.1,2.1C86.1,33.7,87.2,31.8,87.2,31.8z"/>
			<path class="st8" d="M85.7,33.2c-0.4-0.4-0.9-1.4-1.5-1.7s-0.3-1.3-0.8-1.6s-1.6-1-1.5-1.3s1.5-0.2,2.8,1.4
				c0.6,0.9,1.1,1.9,1.5,2.9C85.9,33.2,85.8,33.4,85.7,33.2z"/>
			<path class="st7" d="M86.2,32.9l-2.7-1.7c-0.6-0.5-0.8-1.1-0.7-1.1s2.1,1.3,2.3,0.5S86,32.6,86.2,32.9z"/>
			<path class="st5" d="M103.6,35.5c0,0,0.9,2.6-2.6,3.1s-10.3,0.5-11.7-0.7c-1.4-1.5-2.8-3.2-3.9-5c0,0,1.8-0.2,1.8-1.7l4.7,4.1
				C91.9,35.3,103,33.7,103.6,35.5z"/>
			<path class="st4" d="M103.6,35.5c-0.6-1.8-11.7-0.2-11.7-0.2l-4.7-4.1c0,0.5-0.2,0.9-0.6,1.2c1,1.5,2.1,2.9,3.3,4.2
				c1.4,1.2,8.2,1.1,11.7,0.6c0.8,0,1.5-0.3,2.1-0.8C103.8,36.1,103.7,35.8,103.6,35.5z"/>
			<g class="st0">
				<path d="M107.1,80.2c5.4,3.1,5.4,8.2,0,11.3s-14.1,3.1-19.5,0s-5.4-8.2,0-11.3S101.7,77.1,107.1,80.2z"/>
			</g>
			<path class="st9" d="M98.3,80.4c0,0-1.3,0.2-1,1s1.8,1.9,2,2.4s1.4,2.1,1.8,2s1.5,0,1.3-1.9S100,80.4,98.3,80.4z"/>
			<path class="st9" d="M95.8,87.5c0,0,0.7,1.9-0.9,2.3s-1.1-0.5-4.6,0.3s-3.8-0.9-3.7-1.3s2.4-1.1,3.1-1.3l2.2-0.5h4L95.8,87.5z"/>
			<path class="st10" d="M102.3,55v12.5c0,1.2,1.4,11.1,0.6,15.5c0,0-2.5,2.4-4.6,0c0,0-0.7-12.4-1.3-15.2s-0.4-11.4-0.4-11.4
				L102.3,55z"/>
			<path class="st11" d="M98,56.6c0,0-0.5,7.2-1.1,14.4c0,0-0.4,14.2-0.7,16.3c0,0-4.6,1.1-5-1.1c0,0,0.1-12.5,0-15.1
				s-0.4-9.9,0.6-14.1S98,56.6,98,56.6z"/>
			<path class="st12" d="M96.2,87.3c0.3-2.1,0.7-16.3,0.7-16.3c0.4-4.8,0.8-9.7,1-12.3L95,59.4c-1.4,4.3-2,8.9-1.7,13.4
				c0.2,6.2,0.3,12.3,0.4,14.8C94.5,87.6,95.4,87.5,96.2,87.3z"/>
			<path class="st13" d="M102.9,83c0.8-4.4-0.6-14.3-0.6-15.5V55.1L99.8,57c0,0-0.7,8,0,12.5s0.3,12.3,0.6,14.6
				C101.3,84,102.2,83.6,102.9,83z"/>
			<path class="st4" d="M103,34.7c0,0,2.3,1.2,1,5.2s-2.3,6.6-2.2,8.1c0.2,2.5,0.5,5.1,0.9,7.6c0,0,0.4,3.3-7.1,5.3
				c0,0-6.2,0.6-5.2-3.5c0.9-4,1.3-8.2,1.2-12.3c-0.1-1.6-1.1-4.7,2.9-6.8S100.5,34.6,103,34.7z"/>
			<path class="st5" d="M91.6,45.1c0.1,4.1-0.3,8.3-1.2,12.3c-0.7,2.8,2,3.4,3.8,3.5c0.6-1.8-0.4-5.1,0.9-9.1s1.4-8.2,0.6-10.8
				c-0.3-1.1-1.3-1.9-2.4-2C90.7,41.1,91.5,43.7,91.6,45.1z"/>
			<path class="st14" d="M102.7,55.6c-0.4-2.5-0.7-5.1-0.9-7.6c-0.1-1.5,0.9-4.1,2.2-8.1s-0.2-4.8-1-5.2c-0.4,2-7.3,2.8-7.1,4.1
				s2,2.9,2.1,5.5c0.1,2.9-0.1,5.7-0.7,8.5c-0.3,2.5-0.3,5,0.2,7.5C103.1,58.3,102.7,55.6,102.7,55.6z"/>
			<path class="st7" d="M100.2,32.7c-0.2,1.2,0,2.3,0.5,3.4c0.6,1.2-4.3,2.3-4.5,1.2c0.6-1.3,0.5-2.8-0.2-4
				C95.4,32.1,100.2,32.7,100.2,32.7z"/>
			<path class="st15" d="M100.6,36.2c-0.4-1-0.5-2-0.5-3L96.5,35l0,0c0.2,0,2.6,0.6,3.1,2.4C100.4,37.1,100.9,36.7,100.6,36.2z"/>
			<path class="st7" d="M95,27.2c-0.5,1.1-0.7,2.3-0.6,3.5c0.1,1.8-0.1,2.1,0,2.9c-0.1,0.4,0.1,0.9,0.4,1.2c0.5,0.5,1.6,0.7,3.2,0.1
				s3.7-3.2,3-5.5S97.7,25.3,95,27.2z"/>
			<path class="st8" d="M100.9,31.9c-0.8-1.6-1.6-3.1-2.6-4.6c-0.4-0.4-0.8-0.7-1.3-0.9c-0.7,0.1-1.4,0.3-2,0.8l-0.4,1.2
				c0.4,0.5,1.3,1,1.5,1.4c0.2,1.1,0.2,2.2-0.2,3.2c-0.3,0.6,0.9,1.6,0.6,2.2l0,0l1.5-0.4C99.3,34.3,100.4,33.2,100.9,31.9z"/>
			<path class="st16" d="M94.4,26.4c-0.1,1,0.5,2,1.4,2.4c0.9,0.5,0.9,2,0.8,2.3c-0.1,0.6-0.2,1.2-0.2,1.8c0.2,0.3,1-0.7,1.3-0.6
				s0.6,1-0.2,1.9s1.4,1.3,2.5,0.6c0.7-0.6,1.2-1.3,1.5-2.2c1.1-2.2,1.2-4.8-1.4-6.2S96,27,94.4,26.4z"/>
			<path class="st17" d="M100,34.8c0.7-0.6,1.2-1.3,1.5-2.2c1.1-2.2,1.2-4.8-1.4-6.2s-4.1,0.6-5.7,0V27c0.9,0.2,3.1,0.6,3.7,1.6
				s1.5,0.8,1.4,2.2c-0.1,1.4,0.3,3.3-2.1,4.1C98.2,35.3,99.2,35.3,100,34.8z"/>
			<path class="st18" d="M96.5,36.7L94.9,38c0,0,5,1.5,6.5-1c0.2-0.7-0.2-1.5-0.9-1.7C100.5,35.3,100.3,37.3,96.5,36.7z"/>
			<path class="st5" d="M94.7,39.1c0,0,2,1.7-0.7,3.8s-7.6,5.5-9.3,5.1c-2.2-0.5-4.4-1.2-6.5-1.9c0.7-0.6,1-1.6,0.6-2.5l6.4,0.8
				C85.2,44.4,93.4,37.8,94.7,39.1z"/>
			<path class="st4" d="M94.7,39.1c-1.3-1.3-9.5,5.3-9.5,5.3l-6.4-0.8c0.1,0.3,0.2,0.6,0.2,0.9c2.2,0.5,4.5,0.9,6.8,1.1
				c1.1-0.2,7.8-4.8,9.4-5.9C95.1,39.5,94.9,39.3,94.7,39.1z"/>
		</g>
	</g>
</g>
<g id="Layer_2" class="st19">
	<g id="Layer_2_2_" class="st20">
		<rect x="-94.8" y="34.1" class="st4" width="66.7" height="34.6"/>
		<rect x="-94.8" y="-9.1" class="st5" width="66.7" height="34.6"/>
		<rect x="-94.8" y="74.4" class="st21" width="66.7" height="34.6"/>
	</g>
</g>
</svg>
