<?xml version="1.0" encoding="utf-8"?>
<!-- Generator: Adobe Illustrator 24.0.0, SVG Export Plug-In . SVG Version: 6.00 Build 0)  -->
<svg version="1.1" xmlns="http://www.w3.org/2000/svg" xmlns:xlink="http://www.w3.org/1999/xlink" x="0px" y="0px"
	 viewBox="0 0 67.4 92.7" style="enable-background:new 0 0 67.4 92.7;" xml:space="preserve">
<style type="text/css">
	.st0{fill:#ABBEC5;}
	.st1{fill:#BFD4DC;}
	.st2{fill:#36A0B7;}
	.st3{fill:#3190A4;}
	.st4{fill:#FFFFFF;}
	.st5{fill:#D70010;}
	.st6{fill:#7A0110;}
	.st7{clip-path:url(#SVGID_2_);}
	.st8{fill:#852858;}
	.st9{fill:#8A295C;}
	.st10{fill:#8F2B5F;}
	.st11{fill:#942C63;}
	.st12{fill:#992E66;}
	.st13{fill:#9E2F69;}
	.st14{fill:#A3316D;}
	.st15{clip-path:url(#SVGID_4_);}
	.st16{fill:#818184;}
	.st17{fill:#868689;}
	.st18{fill:#8B8B8E;}
	.st19{clip-path:url(#SVGID_6_);}
	.st20{fill:#B8377A;}
	.st21{fill:#DC4193;}
	.st22{clip-path:url(#SVGID_8_);}
	.st23{fill:#A83270;}
	.st24{fill:#AD3474;}
	.st25{fill:#B33577;}
	.st26{fill:#BD387E;}
	.st27{fill:#C23A81;}
	.st28{fill:#C73B85;}
	.st29{fill:#CC3D88;}
	.st30{fill:#D13E8B;}
	.st31{fill:#D6408F;}
	.st32{fill:#DB4192;}
	.st33{fill:#E04396;}
	.st34{fill:#E64499;}
	.st35{fill:#EB469C;}
	.st36{fill:#F047A0;}
	.st37{fill:#F549A3;}
	.st38{clip-path:url(#SVGID_10_);}
	.st39{fill:#F9FAFD;}
	.st40{fill:#FAFAFD;}
	.st41{fill:#FAFBFE;}
	.st42{fill:#F8F9FD;}
	.st43{fill:#F3F4F8;}
	.st44{fill:#EEEFF3;}
	.st45{fill:#E9EAEE;}
	.st46{fill:#E4E5E9;}
	.st47{fill:#DFE0E4;}
	.st48{fill:#DADBDF;}
	.st49{fill:#D5D6DA;}
	.st50{fill:#D0D1D5;}
	.st51{fill:#CBCCCF;}
	.st52{fill:#C6C7CA;}
	.st53{fill:#C1C2C5;}
	.st54{clip-path:url(#SVGID_12_);}
	.st55{fill:#909093;}
	.st56{fill:#959598;}
	.st57{fill:#9A9A9D;}
	.st58{fill:#9F9FA2;}
	.st59{fill:#A4A4A7;}
	.st60{fill:#A9A9AC;}
	.st61{fill:#AEAEB1;}
	.st62{fill:#B3B3B6;}
	.st63{fill:#B8B8BB;}
	.st64{fill:#BCBDC0;}
	.st65{clip-path:url(#SVGID_14_);}
	.st66{fill:#E53399;}
	.st67{fill:#FF4CAA;}
	.st68{clip-path:url(#SVGID_16_);}
	.st69{clip-path:url(#SVGID_18_);}
	.st70{clip-path:url(#SVGID_20_);}
	.st71{clip-path:url(#SVGID_22_);}
	.st72{clip-path:url(#SVGID_24_);}
	.st73{clip-path:url(#SVGID_26_);}
	.st74{clip-path:url(#SVGID_28_);}
	.st75{fill:#E1BB00;}
	.st76{fill:#FFDF02;}
	.st77{clip-path:url(#SVGID_30_);}
	.st78{clip-path:url(#SVGID_32_);}
	.st79{clip-path:url(#SVGID_34_);}
	.st80{clip-path:url(#SVGID_36_);}
	.st81{clip-path:url(#SVGID_38_);}
	.st82{clip-path:url(#SVGID_40_);}
	.st83{clip-path:url(#SVGID_42_);}
	.st84{clip-path:url(#SVGID_44_);}
	.st85{clip-path:url(#SVGID_46_);}
	.st86{clip-path:url(#SVGID_48_);}
	.st87{clip-path:url(#SVGID_50_);}
	.st88{clip-path:url(#SVGID_52_);}
	.st89{clip-path:url(#SVGID_54_);}
	.st90{clip-path:url(#SVGID_56_);}
	.st91{opacity:0.1;}
	.st92{fill:url(#SVGID_57_);}
	.st93{fill:#FF6C7E;}
	.st94{opacity:0.8;}
	.st95{display:none;}
	.st96{display:inline;}
	.st97{fill:url(#SVGID_58_);}
	.st98{fill:url(#SVGID_59_);}
	.st99{fill:#111114;}
	.st100{fill:#101010;}
	.st101{fill:#565656;}
	.st102{fill:#EFB185;}
	.st103{fill:#DD9569;}
	.st104{fill:#E6A376;}
	.st105{fill:#221101;}
	.st106{fill:#341C09;}
	.st107{display:none;opacity:0.31;}
</style>
<g id="Layer_1">
	<title>17</title>
	<g id="Layer_2_1_">
		<g id="Layer_1-2">
			<polygon class="st0" points="27.1,44 27.9,43.5 27.9,44.2 27.1,44.7 			"/>
			<polygon class="st0" points="27.1,42.3 27.9,41.8 27.9,42.5 27.1,43 			"/>
			<polygon class="st0" points="27.1,40.5 27.9,40.1 27.9,40.7 27.1,41.2 			"/>
			<polygon class="st1" points="27.1,44.7 27.9,44.2 47.5,55.5 46.7,56 			"/>
			<polygon class="st2" points="27.1,44 27.9,43.5 47.5,54.9 46.7,55.3 			"/>
			<polygon class="st3" points="46.7,55.3 47.5,54.9 47.5,55.5 46.7,56 			"/>
			<polygon class="st1" points="27.1,43 27.9,42.5 47.5,53.8 46.7,54.3 			"/>
			<polygon class="st2" points="27.1,42.3 27.9,41.8 47.5,53.2 46.7,53.6 			"/>
			<polygon class="st3" points="46.7,53.6 47.5,53.2 47.5,53.8 46.7,54.3 			"/>
			<polygon class="st1" points="27.1,41.2 27.9,40.7 47.5,52 46.7,52.5 			"/>
			<polygon class="st3" points="46.7,51.8 47.5,51.4 47.5,52 46.7,52.5 			"/>
			<polygon class="st4" points="46.7,51.8 46.7,52.5 27.1,41.2 27.1,40.5 			"/>
			<polygon class="st2" points="27.1,40.5 27.9,40.1 47.5,51.4 46.7,51.8 			"/>
			<path class="st5" d="M46.5,50.1c0.8,0.5,1.3,1.4,1.3,2.3v9.8l-4.3-6.5l-16.3-9.3c-0.7-0.5-1.2-1.4-1.3-2.3v-4.3
				c0-0.9,0.5-1.2,1.3-0.8L46.5,50.1z M46.7,52.5v-0.7L27.1,40.5v0.7L46.7,52.5z M46.7,56v-0.7L27.1,44v0.7L46.7,56z M46.7,54.3
				v-0.7L27.1,42.3V43L46.7,54.3z"/>
			<polygon class="st4" points="46.7,55.3 46.7,56 27.1,44.7 27.1,44 			"/>
			<polygon class="st4" points="46.7,53.6 46.7,54.3 27.1,43 27.1,42.3 			"/>
			<path class="st6" d="M48.6,51.9L48.6,51.9c-0.2,0-0.2,0-0.2-0.1h-0.2c0-0.1,0-0.1-0.1-0.1h-0.2c0-0.1,0-0.1-0.1-0.1l0,0
				c0-0.1,0-0.1-0.1-0.1h-0.4L28,38.6h-0.9L26.3,39c0.1,0,0.2,0,0.2-0.1h0.8l19.2,11.2l0.3,0.2l0,0l0.2,0.2h0.1
				c0,0.1,0.1,0.2,0.2,0.3s0.1,0.2,0.2,0.3l0,0c0,0.1,0.1,0.2,0.1,0.3l0,0c0.1,0.1,0.1,0.2,0.1,0.3l0,0c0.1,0.2,0.1,0.4,0.1,0.6v9.8
				l0.8-0.5v-5.2l0,0C48.6,56.4,48.6,51.9,48.6,51.9z"/>
			<polygon class="st0" points="44.4,38.6 45.3,38.2 45.2,38.9 44.4,39.3 			"/>
			<polygon class="st0" points="44.4,36.8 45.3,36.3 45.3,37 44.4,37.5 			"/>
			<polygon class="st0" points="44.4,34.9 45.3,34.4 45.3,35.1 44.4,35.6 			"/>
			<polygon class="st1" points="44.4,39.3 45.2,38.9 66.1,50.9 65.3,51.4 			"/>
			<polygon class="st2" points="44.4,38.6 45.3,38.2 66.1,50.2 65.3,50.7 			"/>
			<polygon class="st4" points="65.3,50.7 65.3,51.4 44.4,39.3 44.4,38.6 			"/>
			<polygon class="st3" points="65.3,50.7 66.1,50.2 66.1,50.9 65.3,51.4 			"/>
			<polygon class="st1" points="44.4,37.5 45.3,37 66.1,49.1 65.3,49.6 			"/>
			<polygon class="st2" points="44.4,36.8 45.3,36.3 66.2,48.4 65.3,48.9 			"/>
			<polygon class="st3" points="65.3,48.9 66.2,48.4 66.1,49.1 65.3,49.6 			"/>
			<polygon class="st1" points="44.4,35.6 45.3,35.1 66.2,47.2 65.3,47.7 			"/>
			<polygon class="st2" points="44.4,34.9 45.3,34.4 66.2,46.5 65.3,47 			"/>
			<polygon class="st3" points="65.3,47 66.2,46.5 66.2,47.2 65.3,47.7 			"/>
			<path class="st5" d="M65.2,45.2c0.8,0.6,1.3,1.4,1.4,2.4v4.6c0,0.9-0.6,1.3-1.4,0.8L47.8,43l-4.5,1.6V39c0-0.1,0-0.1-0.1-0.2
				v-4.6c0-0.9,0.6-1.3,1.4-0.8L65.2,45.2z M65.3,49.6v-0.7L44.4,36.8v0.7C44.4,37.5,65.3,49.6,65.3,49.6z M65.3,51.4v-0.7
				L44.4,38.6v0.7C44.4,39.3,65.3,51.4,65.3,51.4z M65.3,47.7V47L44.4,34.9v0.7C44.4,35.6,65.3,47.7,65.3,47.7z"/>
			<polygon class="st4" points="65.3,48.9 65.3,49.6 44.4,37.5 44.4,36.8 			"/>
			<polygon class="st4" points="65.3,47 65.3,47.7 44.4,35.6 44.4,34.9 			"/>
			<path class="st6" d="M67.4,47.1H67c-0.1,0-0.1,0-0.1-0.1c-0.1-0.1-0.1-0.1-0.1-0.2h-0.6c0-0.1,0-0.1-0.1-0.1H66L45.5,32.9h-1
				l-0.8,0.4h0.7l0.3,0.2l20.5,11.7c0.1,0.1,0.2,0.1,0.2,0.2h0.1c0,0.1,0.1,0.2,0.2,0.2l0,0c0.2,0.2,0.3,0.4,0.4,0.6h0.1
				c0,0.1,0.1,0.2,0.1,0.3l0,0c0.1,0.1,0.1,0.2,0.1,0.3l0,0c0.1,0.2,0.2,0.5,0.2,0.7v4.9l0,0c0,0.1,0,0.2-0.1,0.3l0,0
				c0,0.1,0,0.1-0.1,0.1h-0.2l0.9-0.5c0.1,0,0.1,0,0.1-0.1h0.1c0-0.1,0-0.1,0.1-0.1h0.1L67.4,47.1L67.4,47.1z"/>
			<g>
				<g>
					<defs>
						<path id="SVGID_1_" d="M37.5,34.6c-0.4,0.2-0.6,0.6-0.6,1.1L36,36.2c0-0.5,0.3-0.9,0.7-1.2L37.5,34.6z"/>
					</defs>
					<clipPath id="SVGID_2_">
						<use xlink:href="#SVGID_1_"  style="overflow:visible;"/>
					</clipPath>
					<g class="st7">
						<g>
							<path class="st8" d="M36.7,35l0.8-0.4l-0.4,0.3l-0.8,0.5C36.4,35.2,36.5,35.1,36.7,35z"/>
							<path class="st9" d="M36.3,35.4l0.8-0.5c0,0.1,0,0.1-0.1,0.2l-0.8,0.5C36.2,35.5,36.2,35.5,36.3,35.4z"/>
							<path class="st10" d="M36.2,35.6l0.8-0.5l0,0L36.2,35.6z"/>
							<path class="st11" d="M36.2,35.7l0.8-0.5c0,0.1-0.1,0.1-0.1,0.2l-0.8,0.4L36.2,35.7z"/>
							<path class="st12" d="M36.1,35.8l0.8-0.4l0,0L36.1,35.8v-0.1V35.8z"/>
							<path class="st13" d="M36.1,36l0.8-0.5l0,0L36.1,36z"/>
							<path class="st14" d="M36.1,36.1l0.8-0.5l0,0L36,36.1C36,36,36,36,36.1,36.1L36.1,36.1z"/>
						</g>
					</g>
				</g>
			</g>
			<g>
				<g>
					<defs>
						<polygon id="SVGID_3_" points="36.7,35 37.5,34.6 37.8,34.6 37,35 						"/>
					</defs>
					<clipPath id="SVGID_4_">
						<use xlink:href="#SVGID_3_"  style="overflow:visible;"/>
					</clipPath>
					<g class="st15">
						<g>
							<path class="st16" d="M36.7,35l0.8-0.4c0-0.1,0-0.1,0.1-0.1L36.7,35L36.7,35z"/>
							<path class="st17" d="M36.8,35l0.8-0.5h0.1L36.8,35C36.9,35,36.9,35,36.8,35z"/>
							<path class="st18" d="M36.9,34.9l0.8-0.4h0.1L36.9,34.9L36.9,34.9z"/>
						</g>
					</g>
				</g>
			</g>
			<g>
				<g>
					<defs>
						<polygon id="SVGID_5_" points="37.6,33.9 37.2,34.1 36.8,34.1 						"/>
					</defs>
					<clipPath id="SVGID_6_">
						<use xlink:href="#SVGID_5_"  style="overflow:visible;"/>
					</clipPath>
					<g class="st19">
						<g>
							<path class="st20" d="M36.8,34.3l0.8-0.4l0,0L36.8,34.3L36.8,34.3z"/>
						</g>
					</g>
				</g>
			</g>
			<polygon class="st21" points="36,36.2 36.9,35.7 40.3,37.7 39.4,38.1 			"/>
			<g>
				<g>
					<defs>
						<path id="SVGID_7_" d="M37.8,34.5L37,34.9c-0.1-0.2-0.2-0.4-0.2-0.6h0.4l0.4-0.2l-0.8,0.4c0-0.2,0.1-0.5,0.3-0.6l0.8-0.4
							c-0.2,0.1-0.3,0.4-0.3,0.6C37.6,34.2,37.7,34.4,37.8,34.5z"/>
					</defs>
					<clipPath id="SVGID_8_">
						<use xlink:href="#SVGID_7_"  style="overflow:visible;"/>
					</clipPath>
					<g class="st22">
						<g>
							<path class="st8" d="M37.1,33.7l0.8-0.4h-0.1l-0.9,0.5l0.2-0.2V33.7z"/>
							<path class="st9" d="M36.9,33.9l0.9-0.5c-0.1,0-0.1,0-0.1,0.1L36.9,33.9L36.9,33.9z"/>
							<path class="st10" d="M36.9,34l0.8-0.5l0,0L36.9,34z"/>
							<path class="st11" d="M36.9,34l0.8-0.5l0,0L36.9,34z"/>
							<path class="st12" d="M36.9,34.1l0.8-0.5l0,0L36.9,34.1z"/>
							<path class="st13" d="M36.9,34.1l0.8-0.5l0,0l-0.9,0.5C36.8,34,36.8,34,36.9,34.1L36.9,34.1z"/>
							<path class="st14" d="M36.8,34.2l0.9-0.5l0,0L36.8,34.2z"/>
							<path class="st23" d="M36.8,34.2l0.9-0.5h-0.1L36.8,34.2L36.8,34.2z"/>
							<path class="st24" d="M36.8,34.2l0.8-0.4l0,0L36.8,34.2L36.8,34.2z"/>
							<path class="st25" d="M36.8,34.3l0.8-0.5l0,0L36.8,34.3L36.8,34.3z"/>
							<path class="st20" d="M36.8,34.3l0.8-0.4l0,0L36.8,34.3L36.8,34.3z"/>
							<path class="st26" d="M36.8,34.4l0.8-0.5l0,0L36.8,34.4z"/>
							<path class="st27" d="M36.8,34.4l0.8-0.5c0,0.1,0,0.1,0.1,0.1L36.8,34.4L36.8,34.4z"/>
							<path class="st28" d="M36.8,34.5l0.9-0.5l0,0L36.8,34.5z"/>
							<path class="st29" d="M36.8,34.5l0.9-0.5l0,0L36.8,34.5L36.8,34.5z"/>
							<path class="st30" d="M36.8,34.5l0.9-0.4l0,0l-0.8,0.5L36.8,34.5z"/>
							<path class="st31" d="M36.9,34.6l0.8-0.5l0,0L36.9,34.6L36.9,34.6z"/>
							<path class="st32" d="M36.9,34.6l0.8-0.4l0,0L36.9,34.6L36.9,34.6z"/>
							<path class="st33" d="M36.9,34.7l0.8-0.5l0,0L36.9,34.7L36.9,34.7z"/>
							<path class="st34" d="M36.9,34.7l0.8-0.4l0,0L36.9,34.7L36.9,34.7z"/>
							<path class="st35" d="M36.9,34.8l0.8-0.5l0,0L36.9,34.8L36.9,34.8z"/>
							<path class="st36" d="M36.9,34.8l0.8-0.4h0.1L36.9,34.8L36.9,34.8z"/>
							<path class="st37" d="M36.9,34.9l0.9-0.5l0,0L37,34.8L36.9,34.9z"/>
						</g>
					</g>
				</g>
			</g>
			<g>
				<g>
					<defs>
						<path id="SVGID_9_" d="M38.5,35.9l0.9-0.5c0.5,0.7,0.8,1.5,0.9,2.3l-0.9,0.4C39.4,37.3,39,36.5,38.5,35.9z"/>
					</defs>
					<clipPath id="SVGID_10_">
						<use xlink:href="#SVGID_9_"  style="overflow:visible;"/>
					</clipPath>
					<g class="st38">
						<g>
							<path class="st39" d="M38.5,35.9l0.9-0.5l0,0l-0.8,0.5H38.5z"/>
							<path class="st40" d="M38.6,35.9l0.8-0.5c0,0.1,0.1,0.1,0.1,0.2L38.7,36C38.6,36,38.6,36,38.6,35.9z"/>
							<path class="st41" d="M38.7,36l0.8-0.4v0.2l-0.8,0.5C38.7,36.2,38.6,36.1,38.7,36L38.7,36z"/>
							<path class="st40" d="M38.8,36.3l0.8-0.5c0.1,0.1,0.1,0.1,0.1,0.2l-0.8,0.4C38.9,36.3,38.9,36.3,38.8,36.3z"/>
							<path class="st39" d="M38.9,36.4l0.8-0.4c0.1,0,0.1,0,0.1,0.1L39,36.6C39,36.5,38.9,36.5,38.9,36.4z"/>
							<path class="st39" d="M39,36.6l0.8-0.5l0,0L39,36.6z"/>
							<path class="st39" d="M39,36.7l0.8-0.5h0.1L39,36.7L39,36.7z"/>
							<path class="st42" d="M39.1,36.8l0.8-0.5l0,0L39.1,36.8z"/>
							<path class="st43" d="M39.1,36.9l0.8-0.5H40l-0.8,0.5H39.1z"/>
							<path class="st44" d="M39.2,37l0.8-0.5l0,0L39.2,37z"/>
							<path class="st45" d="M39.2,37.1l0.8-0.5l0,0L39.2,37.1z"/>
							<path class="st46" d="M39.2,37.2l0.8-0.5h0.1L39.2,37.2L39.2,37.2z"/>
							<path class="st47" d="M39.3,37.3l0.8-0.5V37l-0.8,0.4V37.3z"/>
							<path class="st48" d="M39.3,37.4l0.8-0.4h0.1L39.3,37.4l0-0.1L39.3,37.4z"/>
							<path class="st49" d="M39.3,37.6l0.9-0.5l0,0l-0.8,0.5C39.4,37.5,39.4,37.5,39.3,37.6L39.3,37.6z"/>
							<path class="st50" d="M39.4,37.7l0.8-0.5v0.2l-0.8,0.4V37.7z"/>
							<path class="st51" d="M39.4,37.8l0.8-0.4l0,0L39.4,37.8v-0.1V37.8z"/>
							<path class="st52" d="M39.4,38l0.8-0.5h0.1C40.3,37.5,39.4,38,39.4,38z"/>
							<path class="st53" d="M39.4,38.1l0.9-0.5l0,0L39.4,38.1L39.4,38.1z"/>
						</g>
					</g>
				</g>
			</g>
			<g>
				<g>
					<defs>
						<path id="SVGID_11_" d="M37.1,33.7l0.8-0.4h0.7l-0.8,0.5C37.5,33.7,37.3,33.6,37.1,33.7z"/>
					</defs>
					<clipPath id="SVGID_12_">
						<use xlink:href="#SVGID_11_"  style="overflow:visible;"/>
					</clipPath>
					<g class="st54">
						<g>
							<path class="st16" d="M37.1,33.7l0.8-0.4H38l-0.8,0.5L37.1,33.7z"/>
							<path class="st17" d="M37.2,33.7l0.8-0.5h0.1C38.1,33.2,37.2,33.7,37.2,33.7z"/>
							<path class="st18" d="M37.2,33.7l0.9-0.5l0,0l-0.8,0.5H37.2z"/>
							<path class="st55" d="M37.3,33.7l0.8-0.5h0.1C38.2,33.2,37.3,33.7,37.3,33.7z"/>
							<path class="st56" d="M37.3,33.7l0.9-0.5l0,0l-0.8,0.5H37.3z"/>
							<path class="st57" d="M37.4,33.7l0.8-0.5l0,0L37.4,33.7z"/>
							<path class="st58" d="M37.4,33.7l0.8-0.5h0.1L37.4,33.7L37.4,33.7z"/>
							<path class="st59" d="M37.5,33.7l0.8-0.5l0,0L37.5,33.7z"/>
							<path class="st60" d="M37.5,33.7l0.8-0.5h0.1C38.4,33.2,37.5,33.7,37.5,33.7z"/>
							<path class="st61" d="M37.5,33.7l0.9-0.5l0,0l-0.8,0.5H37.5z"/>
							<path class="st62" d="M37.6,33.7l0.8-0.5l0,0L37.6,33.7L37.6,33.7z"/>
							<path class="st63" d="M37.6,33.7l0.8-0.4h0.1L37.6,33.7L37.6,33.7z"/>
							<path class="st64" d="M37.6,33.8l0.9-0.5l0,0l-0.8,0.5H37.6z"/>
							<path class="st53" d="M37.7,33.8l0.8-0.5l0,0L37.7,33.8z"/>
							<path class="st52" d="M37.7,33.8l0.8-0.5h0.1L37.7,33.8L37.7,33.8z"/>
						</g>
					</g>
				</g>
			</g>
			<g>
				<g>
					<defs>
						<path id="SVGID_13_" d="M37.8,33.8l0.8-0.5c0.5,0.4,0.9,1,0.9,1.6c0,0.2-0.1,0.3-0.1,0.5l-0.9,0.5c0.1-0.2,0.2-0.3,0.2-0.5
							C38.7,34.8,38.3,34.2,37.8,33.8z"/>
					</defs>
					<clipPath id="SVGID_14_">
						<use xlink:href="#SVGID_13_"  style="overflow:visible;"/>
					</clipPath>
					<g class="st65">
						<g>
							<polygon class="st52" points="37.8,33.8 38.6,33.3 38.6,33.3 37.8,33.8 37.8,33.8 							"/>
							<path class="st51" d="M37.8,33.8l0.8-0.5l0,0L37.8,33.8L37.8,33.8z"/>
							<path class="st50" d="M37.8,33.8l0.8-0.4h0.1L37.8,33.8L37.8,33.8z"/>
							<path class="st49" d="M37.8,33.9l0.9-0.5l0,0l-0.8,0.5H37.8z"/>
							<path class="st48" d="M37.9,33.9l0.8-0.5l0,0L37.9,33.9z"/>
							<path class="st47" d="M37.9,33.9l0.8-0.5h0.1L37.9,33.9L37.9,33.9z"/>
							<path class="st46" d="M38,34l0.8-0.5l0,0L38,34z"/>
							<path class="st45" d="M38,34l0.8-0.5h0.1L38,34z"/>
							<path class="st44" d="M38,34l0.9-0.4l0,0l-0.8,0.5L38,34z"/>
							<path class="st43" d="M38.1,34.1l0.8-0.5l0,0L38.1,34.1z"/>
							<path class="st42" d="M38.1,34.1l0.8-0.5H39L38.2,34L38.1,34.1z"/>
							<path class="st39" d="M38.2,34.1l0.8-0.4l0,0L38.2,34.1L38.2,34.1z"/>
							<path class="st39" d="M38.2,34.2l0.8-0.5l0,0L38.2,34.2L38.2,34.2z"/>
							<path class="st39" d="M38.2,34.2l0.8-0.4h0.1L38.2,34.2L38.2,34.2z"/>
							<path class="st40" d="M38.3,34.3l0.8-0.5l0,0L38.3,34.3z"/>
							<path class="st41" d="M38.3,34.4l0.8-0.5c0.1,0,0.1,0,0.1,0.1L38.3,34.4C38.4,34.4,38.4,34.4,38.3,34.4z"/>
							<path class="st40" d="M38.4,34.5l0.8-0.5c0,0.1,0,0.1,0.1,0.1L38.4,34.5L38.4,34.5z"/>
							<path class="st39" d="M38.4,34.6l0.9-0.5l0,0l-0.8,0.5H38.4z"/>
							<path class="st39" d="M38.5,34.6l0.8-0.5l0,0L38.5,34.6z"/>
							<path class="st39" d="M38.5,34.7l0.8-0.5l0,0L38.5,34.7z"/>
							<path class="st42" d="M38.5,34.7l0.8-0.5l0,0L38.5,34.7L38.5,34.7z"/>
							<path class="st43" d="M38.5,34.7l0.8-0.4h0.1L38.5,34.7L38.5,34.7z"/>
							<path class="st44" d="M38.5,34.8l0.9-0.5l0,0l-0.8,0.4L38.5,34.8z"/>
							<path class="st45" d="M38.6,34.8l0.8-0.4l0,0L38.6,34.8L38.6,34.8z"/>
							<path class="st46" d="M38.6,34.9l0.8-0.5l0,0L38.6,34.9L38.6,34.9z"/>
							<path class="st47" d="M38.6,34.9l0.8-0.4l0,0L38.6,34.9L38.6,34.9z"/>
							<path class="st48" d="M38.6,35l0.8-0.5l0,0L38.6,35L38.6,35z"/>
							<path class="st49" d="M38.6,35l0.8-0.4l0,0L38.6,35L38.6,35z"/>
							<path class="st50" d="M38.6,35.1l0.8-0.5h0.1C39.5,34.6,38.6,35.1,38.6,35.1z"/>
							<path class="st51" d="M38.6,35.1l0.9-0.5l0,0l-0.8,0.5C38.6,35.1,38.6,35.1,38.6,35.1L38.6,35.1z"/>
							<path class="st52" d="M38.7,35.2l0.8-0.5l0,0L38.7,35.2z"/>
							<path class="st53" d="M38.7,35.2l0.8-0.5l0,0L38.7,35.2z"/>
							<path class="st64" d="M38.7,35.3l0.8-0.5l0,0L38.7,35.3z"/>
							<path class="st63" d="M38.7,35.3l0.8-0.5l0,0L38.7,35.3z"/>
							<path class="st62" d="M38.7,35.4l0.8-0.5l0,0L38.7,35.4z"/>
							<path class="st61" d="M38.7,35.4l0.8-0.5l0,0L38.7,35.4L38.7,35.4z"/>
							<path class="st60" d="M38.7,35.4l0.8-0.4l0,0L38.7,35.4L38.7,35.4z"/>
							<path class="st59" d="M38.7,35.5l0.8-0.5l0,0L38.7,35.5z"/>
							<path class="st58" d="M38.7,35.5l0.8-0.5l0,0L38.7,35.5z"/>
							<path class="st57" d="M38.7,35.6l0.8-0.5l0,0l-0.9,0.5H38.7z"/>
							<path class="st56" d="M38.6,35.6l0.9-0.5l0,0L38.6,35.6z"/>
							<path class="st55" d="M38.6,35.7l0.9-0.5h-0.1C39.4,35.2,38.6,35.7,38.6,35.7z"/>
							<path class="st18" d="M38.6,35.7l0.8-0.5l0,0L38.6,35.7z"/>
							<path class="st17" d="M38.6,35.8l0.8-0.5l0,0L38.6,35.8z"/>
							<path class="st16" d="M38.6,35.8l0.8-0.5l0,0l-0.9,0.5C38.5,35.7,38.5,35.7,38.6,35.8L38.6,35.8z"/>
						</g>
					</g>
				</g>
			</g>
			<path class="st42" d="M37.8,33.8c0.5,0.4,0.9,1,0.9,1.6c0,0.2-0.1,0.3-0.2,0.5c0.5,0.6,0.9,1.4,0.9,2.2L36,36.2
				c0-0.6,0.4-1.1,1-1.3c-0.1-0.2-0.2-0.4-0.2-0.6C36.8,33.7,37.2,33.5,37.8,33.8z"/>
			<path class="st66" d="M41.6,36.9L41.6,36.9v-0.2l0,0v-0.2h-0.1V36l0,0v-0.2l0,0c-0.1,0-0.1,0-0.1-0.1v-0.2c-0.1,0-0.1,0-0.1-0.1
				c0-0.1,0-0.1-0.1-0.2l0,0c0-0.1-0.1-0.1-0.1-0.2c0-0.1,0-0.1-0.1-0.1c0-0.1,0-0.2-0.1-0.2v-0.2l0,0l-0.2-0.3
				c-0.1-0.1-0.2-0.2-0.2-0.3l-0.2-0.2c0-0.1,0-0.1-0.1-0.1c0-0.1-0.1-0.1-0.1-0.2h-0.2l-0.2-0.2h-0.4c0-0.1,0-0.1-0.1-0.1h-0.4
				c-0.1,0-0.1,0-0.1-0.1h-2.3l-0.8,0.5h1.9l0.3,0.2l0.6,0.4l0,0c0.2,0.2,0.4,0.3,0.5,0.5l0,0c0.4,0.4,0.7,0.8,1,1.3l0,0
				c0.2,0.2,0.3,0.4,0.4,0.7l0,0l0.3,0.7l0,0c0,0.3,0.1,0.5,0.1,0.8l0,0c0.1,0.2,0.1,0.5,0.1,0.7v0.4l0,0c0,0.1,0,0.2-0.1,0.3l0,0
				v0.3h-0.1V40l0,0c-0.1,0-0.1,0.1-0.2,0.2c0,0.1-0.1,0.2-0.2,0.2l0,0l0,0l-0.3,0.2l0.8-0.5l0.3-0.2l0,0c0.1-0.1,0.2-0.2,0.2-0.3
				l0,0l0.2-0.2l0,0v-0.2c0.1,0,0.1,0,0.1-0.1l0,0v-0.2h0.1v-0.2l0,0v-0.2l0,0V36.9z"/>
			<path class="st67" d="M37.8,32.3c1.8,1.2,2.9,3.1,3,5.2c0,2-1.4,2.8-3.1,1.8c-1.8-1.2-2.9-3.2-3-5.3
				C34.7,32.1,36.1,31.3,37.8,32.3z M36,36.2l3.4,1.9c0-0.8-0.4-1.6-0.9-2.2c0.1-0.2,0.2-0.3,0.2-0.5c0-0.6-0.4-1.2-0.9-1.6
				c-0.6-0.3-1-0.1-1,0.5c0,0.2,0.1,0.4,0.2,0.6C36.4,35.1,36,35.6,36,36.2z"/>
			<g>
				<g>
					<defs>
						<path id="SVGID_15_" d="M54.6,58.5c-0.4,0.3-0.6,0.7-0.6,1.2l-0.8,0.4c0.1-0.4,0.3-0.8,0.6-1.1L54.6,58.5z"/>
					</defs>
					<clipPath id="SVGID_16_">
						<use xlink:href="#SVGID_15_"  style="overflow:visible;"/>
					</clipPath>
					<g class="st68">
						<g>
							<path class="st8" d="M53.8,59l0.8-0.5l-0.3,0.4l-0.9,0.5L53.8,59z"/>
							<path class="st9" d="M53.4,59.4l0.9-0.5c-0.1,0-0.1,0-0.1,0.1L53.4,59.4L53.4,59.4z"/>
							<path class="st10" d="M53.4,59.5l0.8-0.5c-0.1,0.1-0.1,0.1-0.1,0.2l-0.8,0.5C53.3,59.6,53.3,59.6,53.4,59.5z"/>
							<path class="st11" d="M53.3,59.7l0.8-0.5l0,0L53.3,59.7z"/>
							<path class="st12" d="M53.3,59.8l0.8-0.5c0,0.1,0,0.1-0.1,0.1L53.3,59.8C53.2,59.8,53.2,59.8,53.3,59.8z"/>
							<path class="st13" d="M53.2,59.9l0.8-0.5v0.2L53.2,60V59.9z"/>
							<path class="st14" d="M53.2,60l0.8-0.4l0,0L53.2,60z"/>
						</g>
					</g>
				</g>
			</g>
			<g>
				<g>
					<defs>
						<polygon id="SVGID_17_" points="53.8,59 54.6,58.5 54.9,58.5 54.1,59 						"/>
					</defs>
					<clipPath id="SVGID_18_">
						<use xlink:href="#SVGID_17_"  style="overflow:visible;"/>
					</clipPath>
					<g class="st69">
						<g>
							<path class="st16" d="M53.8,59l0.8-0.5h0.2L53.8,59C53.9,59,53.9,59,53.8,59z"/>
							<path class="st17" d="M53.9,58.9l0.9-0.4c0-0.1,0-0.1,0.1-0.1l-0.8,0.5H53.9z"/>
							<path class="st18" d="M54.1,58.9l0.8-0.5l0,0L54.1,58.9z"/>
						</g>
					</g>
				</g>
			</g>
			<g>
				<g>
					<defs>
						<polygon id="SVGID_19_" points="54.8,57.8 54.3,58.1 54,58.1 						"/>
					</defs>
					<clipPath id="SVGID_20_">
						<use xlink:href="#SVGID_19_"  style="overflow:visible;"/>
					</clipPath>
					<g class="st70">
						<g>
							<path class="st20" d="M54,58.3l0.8-0.5l0,0L54,58.3L54,58.3z"/>
						</g>
					</g>
				</g>
			</g>
			<polygon class="st21" points="53.2,60.1 54,59.7 57.4,61.6 56.6,62.1 			"/>
			<g>
				<g>
					<defs>
						<path id="SVGID_21_" d="M54.9,58.4l-0.8,0.5C54,58.7,54,58.5,54,58.3h0.3l0.5-0.3L54,58.5c0-0.2,0.1-0.4,0.2-0.6l0.9-0.5
							c-0.2,0.1-0.3,0.4-0.3,0.6C54.8,58.1,54.8,58.3,54.9,58.4z"/>
					</defs>
					<clipPath id="SVGID_22_">
						<use xlink:href="#SVGID_21_"  style="overflow:visible;"/>
					</clipPath>
					<g class="st71">
						<g>
							<path class="st8" d="M54.2,57.7l0.9-0.5c-0.1,0.1-0.2,0.1-0.2,0.2l-0.8,0.5C54.1,57.8,54.1,57.8,54.2,57.7z"/>
							<path class="st9" d="M54.1,57.9l0.8-0.5l0,0L54,57.9H54.1z"/>
							<path class="st10" d="M54,57.9l0.9-0.5c0,0.1,0,0.1-0.1,0.1L54,57.9L54,57.9z"/>
							<path class="st11" d="M54,58l0.8-0.5l0,0L54,58z"/>
							<path class="st12" d="M54,58l0.8-0.5l0,0L54,58z"/>
							<path class="st13" d="M54,58.1l0.8-0.5l0,0L54,58.1z"/>
							<path class="st14" d="M54,58.1l0.8-0.5l0,0L54,58.1z"/>
							<path class="st23" d="M54,58.2l0.8-0.5l0,0L54,58.2z"/>
							<path class="st24" d="M54,58.2l0.8-0.5l0,0L54,58.2L54,58.2z"/>
							<path class="st25" d="M54,58.2l0.8-0.4l0,0L54,58.2L54,58.2z"/>
							<path class="st20" d="M54,58.3l0.8-0.5l0,0L54,58.3L54,58.3z"/>
							<path class="st26" d="M54,58.3l0.8-0.4l0,0L54,58.3L54,58.3z"/>
							<path class="st27" d="M54,58.4l0.8-0.5l0,0L54,58.4z"/>
							<path class="st28" d="M54,58.4l0.8-0.5l0,0L54,58.4z"/>
							<path class="st29" d="M54,58.5l0.8-0.5l0,0L54,58.5z"/>
							<path class="st30" d="M54,58.5l0.8-0.5l0,0L54,58.5L54,58.5z"/>
							<path class="st31" d="M54,58.5l0.8-0.4l0,0L54,58.5L54,58.5z"/>
							<path class="st32" d="M54,58.6l0.8-0.5l0,0L54,58.6L54,58.6z"/>
							<path class="st33" d="M54,58.6l0.8-0.4l0,0L54,58.6L54,58.6z"/>
							<path class="st34" d="M54,58.7l0.8-0.5h0.1L54,58.7L54,58.7z"/>
							<path class="st35" d="M54,58.7l0.9-0.4l0,0l-0.8,0.5L54,58.7z"/>
							<path class="st36" d="M54.1,58.8l0.8-0.5l0,0L54.1,58.8L54.1,58.8z"/>
							<path class="st37" d="M54.1,58.8l0.8-0.4l0,0L54.1,58.8L54.1,58.8z"/>
						</g>
					</g>
				</g>
			</g>
			<g>
				<g>
					<defs>
						<path id="SVGID_23_" d="M55.7,59.8l0.8-0.5c0.5,0.7,0.8,1.5,0.9,2.3l-0.8,0.5C56.5,61.3,56.2,60.5,55.7,59.8z"/>
					</defs>
					<clipPath id="SVGID_24_">
						<use xlink:href="#SVGID_23_"  style="overflow:visible;"/>
					</clipPath>
					<g class="st72">
						<g>
							<path class="st39" d="M55.7,59.8l0.8-0.5l0,0L55.7,59.8z"/>
							<path class="st40" d="M55.7,59.9l0.8-0.5c0.1,0,0.1,0,0.1,0.1L55.7,59.9C55.8,59.9,55.8,59.9,55.7,59.9z"/>
							<path class="st41" d="M55.8,60l0.8-0.5l0.2,0.3L56,60.2L55.8,60z"/>
							<path class="st40" d="M56,60.2l0.8-0.4c0,0.1,0,0.1,0.1,0.1l-0.8,0.5L56,60.2L56,60.2z"/>
							<path class="st39" d="M56.1,60.4l0.8-0.5l0,0L56.1,60.4z"/>
							<path class="st39" d="M56.1,60.5l0.8-0.5c0,0.1,0,0.1,0.1,0.1L56.1,60.5C56.1,60.6,56.1,60.6,56.1,60.5z"/>
							<path class="st39" d="M56.2,60.6l0.8-0.5l0,0L56.2,60.6z"/>
							<path class="st42" d="M56.2,60.7l0.8-0.5h0.1C57.1,60.2,56.2,60.7,56.2,60.7z"/>
							<path class="st43" d="M56.2,60.8l0.9-0.5l0,0l-0.8,0.5C56.3,60.7,56.3,60.7,56.2,60.8L56.2,60.8z"/>
							<path class="st44" d="M56.3,60.9l0.8-0.5v0.2L56.3,61V60.9z"/>
							<path class="st45" d="M56.3,61l0.8-0.4c0.1,0,0.1,0,0.1,0.1L56.3,61C56.3,61.1,56.3,61.1,56.3,61z"/>
							<path class="st46" d="M56.4,61.1l0.8-0.4l0,0L56.4,61.1V61V61.1z"/>
							<path class="st47" d="M56.4,61.3l0.8-0.5h0.1C57.3,60.8,56.4,61.3,56.4,61.3z"/>
							<path class="st48" d="M56.4,61.4l0.9-0.5l0,0l-0.8,0.5C56.5,61.3,56.5,61.3,56.4,61.4L56.4,61.4z"/>
							<path class="st49" d="M56.5,61.5l0.8-0.5v0.2l-0.8,0.5V61.5z"/>
							<path class="st50" d="M56.5,61.7l0.8-0.5h0.1C57.4,61.2,56.5,61.7,56.5,61.7z"/>
							<path class="st51" d="M56.5,61.8l0.9-0.5l0,0l-0.8,0.5H56.5z"/>
							<path class="st52" d="M56.6,61.9l0.8-0.5v0.2L56.6,62V61.9z"/>
							<path class="st53" d="M56.6,62l0.8-0.4l0,0L56.6,62L56.6,62z"/>
						</g>
					</g>
				</g>
			</g>
			<g>
				<g>
					<defs>
						<path id="SVGID_25_" d="M54.2,57.7l0.9-0.5c0.1-0.1,0.3-0.1,0.6,0.1l-0.8,0.5C54.7,57.6,54.4,57.6,54.2,57.7z"/>
					</defs>
					<clipPath id="SVGID_26_">
						<use xlink:href="#SVGID_25_"  style="overflow:visible;"/>
					</clipPath>
					<g class="st73">
						<g>
							<path class="st16" d="M54.2,57.7l0.9-0.5l0,0l-0.8,0.5H54.2z"/>
							<path class="st17" d="M54.3,57.7l0.8-0.5h0.1L54.3,57.7L54.3,57.7z"/>
							<path class="st18" d="M54.4,57.6l0.8-0.4l0,0L54.4,57.6z"/>
							<path class="st55" d="M54.4,57.6l0.8-0.4h0.1L54.4,57.6L54.4,57.6z"/>
							<path class="st56" d="M54.5,57.6l0.8-0.4l0,0L54.5,57.6z"/>
							<path class="st57" d="M54.5,57.6l0.8-0.4h0.1L54.5,57.6L54.5,57.6z"/>
							<path class="st58" d="M54.6,57.6l0.8-0.4l0,0L54.6,57.6z"/>
							<path class="st59" d="M54.6,57.6l0.8-0.4h0.1L54.6,57.6L54.6,57.6z"/>
							<path class="st60" d="M54.6,57.7l0.9-0.5l0,0l-0.8,0.5H54.6z"/>
							<path class="st61" d="M54.7,57.7l0.8-0.5l0,0L54.7,57.7z"/>
							<path class="st62" d="M54.7,57.7l0.8-0.5h0.1L54.7,57.7L54.7,57.7z"/>
							<path class="st63" d="M54.8,57.7l0.8-0.5l0,0L54.8,57.7z"/>
							<path class="st64" d="M54.8,57.7l0.8-0.5l0,0L54.8,57.7L54.8,57.7z"/>
							<path class="st53" d="M54.8,57.7l0.8-0.4h0.1L54.8,57.7L54.8,57.7z"/>
							<path class="st52" d="M54.9,57.7l0.8-0.4l0,0L54.9,57.7L54.9,57.7z"/>
						</g>
					</g>
				</g>
			</g>
			<g>
				<g>
					<defs>
						<path id="SVGID_27_" d="M54.9,57.8l0.8-0.5c0.5,0.4,0.9,1,0.9,1.6c0,0.2,0,0.3-0.1,0.4l-0.8,0.5c0.1-0.1,0.1-0.3,0.1-0.5
							C55.7,58.7,55.4,58.1,54.9,57.8z"/>
					</defs>
					<clipPath id="SVGID_28_">
						<use xlink:href="#SVGID_27_"  style="overflow:visible;"/>
					</clipPath>
					<g class="st74">
						<g>
							<polygon class="st52" points="54.9,57.8 55.7,57.3 55.7,57.3 54.9,57.8 54.9,57.8 							"/>
							<path class="st51" d="M54.9,57.8l0.8-0.5h0.1C55.8,57.3,54.9,57.8,54.9,57.8z"/>
							<path class="st50" d="M54.9,57.8l0.9-0.5l0,0L55,57.8H54.9z"/>
							<path class="st49" d="M55,57.8l0.8-0.5l0,0L55,57.8L55,57.8z"/>
							<path class="st48" d="M55,57.8l0.8-0.4h0.1L55,57.8C55,57.9,55,57.9,55,57.8z"/>
							<path class="st47" d="M55.1,57.9l0.8-0.5l0,0L55.1,57.9z"/>
							<path class="st46" d="M55.1,57.9l0.8-0.5c0,0.1,0,0.1,0.1,0.1C56,57.5,55.1,57.9,55.1,57.9z"/>
							<path class="st45" d="M55.1,57.9l0.9-0.4l0,0L55.2,58L55.1,57.9z"/>
							<path class="st44" d="M55.2,58l0.8-0.5l0,0L55.2,58z"/>
							<path class="st43" d="M55.2,58l0.8-0.5c0,0.1,0,0.1,0.1,0.1L55.2,58L55.2,58z"/>
							<path class="st42" d="M55.3,58.1l0.8-0.5l0,0L55.3,58.1z"/>
							<path class="st39" d="M55.3,58.1l0.8-0.5l0,0L55.3,58.1L55.3,58.1z"/>
							<path class="st39" d="M55.3,58.1l0.8-0.4h0.1L55.3,58.1L55.3,58.1z"/>
							<path class="st39" d="M55.4,58.2l0.8-0.5l0,0L55.4,58.2L55.4,58.2z"/>
							<path class="st40" d="M55.4,58.2l0.8-0.4h0.1L55.4,58.2L55.4,58.2z"/>
							<path class="st41" d="M55.5,58.3l0.8-0.5V58l-0.8,0.4V58.3z"/>
							<path class="st40" d="M55.5,58.4l0.8-0.4h0.1L55.5,58.4C55.5,58.5,55.5,58.5,55.5,58.4z"/>
							<path class="st39" d="M55.6,58.5l0.8-0.5l0,0L55.6,58.5z"/>
							<path class="st39" d="M55.6,58.6l0.8-0.5l0,0L55.6,58.6z"/>
							<path class="st39" d="M55.6,58.6l0.8-0.5h0.1C56.5,58.1,55.6,58.6,55.6,58.6z"/>
							<path class="st42" d="M55.6,58.7l0.9-0.5l0,0l-0.8,0.5H55.6z"/>
							<path class="st43" d="M55.7,58.7l0.8-0.5l0,0L55.7,58.7L55.7,58.7z"/>
							<path class="st44" d="M55.7,58.7l0.8-0.4l0,0L55.7,58.7L55.7,58.7z"/>
							<path class="st45" d="M55.7,58.8l0.8-0.5l0,0L55.7,58.8L55.7,58.8z"/>
							<path class="st46" d="M55.7,58.8l0.8-0.4l0,0L55.7,58.8L55.7,58.8z"/>
							<path class="st47" d="M55.7,58.9l0.8-0.5c0.1,0,0.1,0,0.1,0.1C56.6,58.5,55.7,58.9,55.7,58.9z"/>
							<path class="st48" d="M55.7,58.9l0.9-0.4l0,0L55.8,59C55.8,58.9,55.8,58.9,55.7,58.9z"/>
							<path class="st49" d="M55.8,59l0.8-0.5l0,0L55.8,59L55.8,59z"/>
							<path class="st50" d="M55.8,59l0.8-0.4l0,0L55.8,59L55.8,59z"/>
							<path class="st51" d="M55.8,59.1l0.8-0.5l0,0L55.8,59.1z"/>
							<path class="st52" d="M55.8,59.1l0.8-0.5l0,0L55.8,59.1z"/>
							<path class="st53" d="M55.8,59.2l0.8-0.5l0,0L55.8,59.2z"/>
							<path class="st64" d="M55.8,59.2l0.8-0.5l0,0L55.8,59.2z"/>
							<path class="st63" d="M55.8,59.3l0.8-0.5l0,0L55.8,59.3z"/>
							<path class="st62" d="M55.8,59.3l0.8-0.5l0,0L55.8,59.3z"/>
							<path class="st61" d="M55.8,59.4l0.8-0.5l0,0L55.8,59.4z"/>
							<path class="st60" d="M55.8,59.4l0.8-0.5l0,0L55.8,59.4L55.8,59.4z"/>
							<path class="st59" d="M55.8,59.4l0.8-0.4l0,0L55.8,59.4L55.8,59.4z"/>
							<path class="st58" d="M55.8,59.5l0.8-0.5l0,0L55.8,59.5z"/>
							<path class="st57" d="M55.8,59.5l0.8-0.5l0,0L55.8,59.5z"/>
							<path class="st56" d="M55.8,59.6l0.8-0.5l0,0L55.8,59.6z"/>
							<path class="st55" d="M55.8,59.6l0.8-0.5l0,0L55.8,59.6z"/>
							<path class="st18" d="M55.8,59.7l0.8-0.5h-0.1L55.8,59.7L55.8,59.7z"/>
							<path class="st17" d="M55.7,59.7l0.8-0.5l0,0L55.7,59.7z"/>
							<path class="st16" d="M55.7,59.8l0.8-0.5l0,0L55.7,59.8z"/>
						</g>
					</g>
				</g>
			</g>
			<path class="st42" d="M54.9,57.8c0.5,0.3,0.8,0.9,0.9,1.5c0,0.2,0,0.4-0.1,0.5c0.5,0.7,0.8,1.5,0.9,2.3l-3.4-2
				c0.1-0.7,0.4-1.1,0.9-1.2C54,58.7,54,58.5,54,58.3C54,57.7,54.4,57.5,54.9,57.8z"/>
			<path class="st75" d="M58.7,60.9v-0.2l0,0v-0.2l0,0v-0.2h-0.1v-0.4c-0.1,0-0.1,0-0.1-0.1l0,0v-0.2h-0.1c0-0.1,0-0.1-0.1-0.2l0,0
				c0-0.1,0-0.1-0.1-0.1l0,0c-0.1-0.1-0.1-0.1-0.1-0.2S58,59,58,58.9s-0.1-0.1-0.1-0.2h-0.1c0-0.2-0.1-0.3-0.2-0.4L57.4,58h-0.1
				c-0.1-0.1-0.1-0.1-0.1-0.2H57c0-0.1,0-0.1-0.1-0.2h-0.4c0-0.1-0.1-0.1-0.1-0.2h-0.3c-0.1,0-0.1,0-0.1-0.1c-0.1,0-0.1,0-0.1-0.1
				h-0.3c-0.1,0-0.1,0-0.1-0.1h-0.9c0-0.1,0-0.1-0.1-0.1h-1l-0.8,0.5h0.4c0.1,0,0.1,0,0.1-0.1h1.1l0.3,0.2h0.3l0.6,0.4l0,0l0.6,0.5
				l0,0c0.4,0.4,0.7,0.8,0.9,1.3h0.1l0.3,0.7l0,0l0.3,0.8l0,0c0.1,0.2,0.1,0.5,0.2,0.7l0,0v1.1l0,0v0.2l0,0
				c-0.1,0.1-0.1,0.1-0.1,0.2l0,0c-0.1,0.1-0.1,0.1-0.1,0.2l0,0v0.2c-0.1,0.1-0.2,0.2-0.2,0.3h-0.1l-0.3,0.2L58,64
				c0.1-0.1,0.1-0.2,0.2-0.2h0.1c0-0.1,0.1-0.1,0.2-0.2l0,0c0-0.1,0.1-0.2,0.1-0.3h0.2V61l0,0L58.7,60.9z"/>
			<path class="st76" d="M54.9,56.2c1.8,1.2,2.9,3.2,3,5.3c0,1.9-1.3,2.7-3,1.7c-1.8-1.1-3-3.1-3.1-5.2C51.8,56,53.2,55.3,54.9,56.2
				z M53.2,60.1l3.4,2c-0.1-0.8-0.4-1.6-0.9-2.3c0.1-0.1,0.1-0.3,0.1-0.5c-0.1-0.6-0.4-1.2-0.9-1.5c-0.5-0.3-0.9-0.1-0.9,0.5
				c0,0.2,0,0.4,0.1,0.6C53.6,59,53.3,59.4,53.2,60.1z"/>
			<polygon class="st0" points="27.1,12.6 27.9,12.2 27.9,12.8 27.1,13.3 			"/>
			<polygon class="st0" points="27.1,10.9 27.9,10.5 27.9,11.1 27.1,11.6 			"/>
			<polygon class="st0" points="27.1,9.1 27.9,8.7 27.9,9.3 27.1,9.8 			"/>
			<polygon class="st1" points="27.1,13.3 27.9,12.8 47.5,24.2 46.7,24.6 			"/>
			<polygon class="st2" points="27.1,12.6 27.9,12.2 47.5,23.5 46.7,24 			"/>
			<polygon class="st3" points="46.7,24 47.5,23.5 47.5,24.2 46.7,24.6 			"/>
			<polygon class="st1" points="27.1,11.6 27.9,11.1 47.5,22.5 46.7,22.9 			"/>
			<polygon class="st2" points="27.1,10.9 27.9,10.5 47.5,21.8 46.7,22.2 			"/>
			<polygon class="st3" points="46.7,22.2 47.5,21.8 47.5,22.5 46.7,22.9 			"/>
			<polygon class="st1" points="27.1,9.8 27.9,9.3 47.5,20.7 46.7,21.1 			"/>
			<polygon class="st3" points="46.7,20.5 47.5,20 47.5,20.7 46.7,21.1 			"/>
			<polygon class="st4" points="46.7,20.5 46.7,21.1 27.1,9.8 27.1,9.1 			"/>
			<polygon class="st2" points="27.1,9.1 27.9,8.7 47.5,20 46.7,20.5 			"/>
			<path class="st5" d="M46.5,18.8c0.8,0.4,1.3,1.3,1.3,2.2v4.4l0,0v5.3l-4.3-6.4L27.2,15c-0.8-0.5-1.2-1.4-1.3-2.3V8.4
				c0-0.9,0.5-1.2,1.3-0.8L46.5,18.8z M46.7,21.1v-0.6L27.1,9.1v0.7C27.1,9.8,46.7,21.1,46.7,21.1z M46.7,24.6V24L27.1,12.6v0.7
				C27.1,13.3,46.7,24.6,46.7,24.6z M46.7,22.9v-0.7L27.1,10.9v0.7C27.1,11.6,46.7,22.9,46.7,22.9z"/>
			<polygon class="st4" points="46.7,24 46.7,24.6 27.1,13.3 27.1,12.6 			"/>
			<polygon class="st4" points="46.7,22.2 46.7,22.9 27.1,11.6 27.1,10.9 			"/>
			<path class="st6" d="M48.6,20.5h-0.4c0-0.1,0-0.1-0.1-0.2l0,0c-0.1,0-0.1,0-0.1-0.1h-0.1c0-0.1,0-0.1-0.1-0.1h-0.1
				c0-0.1,0-0.1-0.1-0.1h-0.3L28,7.2h-0.9l-0.8,0.4h1l19.2,11.2h0.3l0.2,0.3h0.1c0,0.1,0.1,0.1,0.2,0.2s0.1,0.2,0.2,0.3l0,0
				c0,0.1,0.1,0.2,0.1,0.3l0,0c0.1,0.1,0.1,0.3,0.1,0.4l0,0c0.1,0.2,0.1,0.4,0.1,0.6v4.4l0,0v5.3l0.8-0.4V25l0,0v-4.4L48.6,20.5z"/>
			<polygon class="st0" points="44.4,7.3 45.3,6.8 45.2,7.5 44.4,8 			"/>
			<polygon class="st0" points="44.4,5.5 45.3,5 45.3,5.7 44.4,6.2 			"/>
			<polygon class="st0" points="44.4,3.5 45.3,3.1 45.3,3.8 44.4,4.2 			"/>
			<polygon class="st1" points="44.4,8 45.2,7.5 66.1,19.5 65.3,20 			"/>
			<polygon class="st2" points="44.4,7.3 45.3,6.8 66.1,18.8 65.3,19.3 			"/>
			<polygon class="st4" points="65.3,19.3 65.3,20 44.4,8 44.4,7.3 			"/>
			<polygon class="st3" points="65.3,19.3 66.1,18.8 66.1,19.5 65.3,20 			"/>
			<polygon class="st1" points="44.4,6.2 45.3,5.7 66.1,17.7 65.3,18.2 			"/>
			<polygon class="st2" points="44.4,5.5 45.3,5 66.2,17 65.3,17.5 			"/>
			<polygon class="st3" points="65.3,17.5 66.2,17 66.1,17.7 65.3,18.2 			"/>
			<polygon class="st1" points="44.4,4.2 45.3,3.8 66.2,15.8 65.3,16.3 			"/>
			<polygon class="st2" points="44.4,3.5 45.3,3.1 66.2,15.1 65.3,15.6 			"/>
			<polygon class="st3" points="65.3,15.6 66.2,15.1 66.2,15.8 65.3,16.3 			"/>
			<path class="st5" d="M65.2,13.8c0.8,0.6,1.3,1.4,1.4,2.4v4.6c0,0.9-0.6,1.3-1.4,0.8l-17.4-9.9l-4.5,1.5V2.8
				c0-0.9,0.6-1.3,1.4-0.8L65.2,13.8z M65.3,18.2v-0.7l-20.9-12v0.7C44.4,6.2,65.3,18.2,65.3,18.2z M65.3,20v-0.7l-20.9-12V8
				C44.4,8,65.3,20,65.3,20z M65.3,16.3v-0.7L44.4,3.5v0.7C44.4,4.2,65.3,16.3,65.3,16.3z"/>
			<polygon class="st4" points="65.3,17.5 65.3,18.2 44.4,6.2 44.4,5.5 			"/>
			<polygon class="st4" points="65.3,15.6 65.3,16.3 44.4,4.2 44.4,3.5 			"/>
			<path class="st6" d="M67.4,15.7H67c-0.1-0.1-0.1-0.1-0.1-0.2H66l-20.5-14h-1l-0.8,0.4h1l20.5,11.9l0.2,0.2h0.1l0.2,0.3l0,0
				c0.2,0.1,0.4,0.4,0.4,0.6h0.1v0.3l0,0c0.1,0.1,0.1,0.2,0.1,0.3l0,0c0.1,0.2,0.2,0.5,0.2,0.7v4.9l0,0c0,0.1,0,0.1-0.1,0.2l0,0
				c0,0.1,0,0.1-0.1,0.2h-0.2l0.9-0.4c0-0.1,0.1-0.1,0.1-0.2h0.3C67.4,20.9,67.4,15.7,67.4,15.7z"/>
			<g>
				<g>
					<defs>
						<path id="SVGID_29_" d="M37.5,3.2c-0.4,0.3-0.6,0.7-0.6,1.1L36,4.8c0-0.5,0.3-0.9,0.7-1.1L37.5,3.2z"/>
					</defs>
					<clipPath id="SVGID_30_">
						<use xlink:href="#SVGID_29_"  style="overflow:visible;"/>
					</clipPath>
					<g class="st77">
						<g>
							<path class="st8" d="M36.7,3.7l0.8-0.5l-0.4,0.3L36.3,4C36.4,3.9,36.5,3.7,36.7,3.7z"/>
							<path class="st9" d="M36.3,4l0.8-0.5c0,0.1,0,0.1-0.1,0.2l-0.8,0.5C36.2,4.1,36.3,4.1,36.3,4z"/>
							<path class="st10" d="M36.2,4.2L37,3.7l0,0L36.2,4.2z"/>
							<path class="st11" d="M36.2,4.3L37,3.8c0,0.1-0.1,0.1-0.1,0.2L36.2,4.3L36.2,4.3z"/>
							<path class="st12" d="M36.1,4.4L36.9,4l0,0L36.1,4.4L36.1,4.4z"/>
							<path class="st13" d="M36.1,4.6l0.8-0.5l0,0L36.1,4.6z"/>
							<path class="st14" d="M36.1,4.7l0.8-0.5l0,0L36,4.7H36.1z"/>
						</g>
					</g>
				</g>
			</g>
			<g>
				<g>
					<defs>
						<path id="SVGID_31_" d="M36.7,3.7l0.8-0.5h0.3L37,3.7C36.9,3.6,36.7,3.6,36.7,3.7z"/>
					</defs>
					<clipPath id="SVGID_32_">
						<use xlink:href="#SVGID_31_"  style="overflow:visible;"/>
					</clipPath>
					<g class="st78">
						<g>
							<path class="st16" d="M36.7,3.7l0.8-0.5h0.1L36.7,3.7C36.7,3.7,36.7,3.7,36.7,3.7L36.7,3.7z"/>
							<path class="st17" d="M36.8,3.6l0.8-0.5h0.1L36.8,3.6L36.8,3.6z"/>
							<path class="st18" d="M36.9,3.6l0.8-0.5h0.1L36.9,3.6L36.9,3.6z"/>
						</g>
					</g>
				</g>
			</g>
			<g>
				<g>
					<defs>
						<path id="SVGID_33_" d="M37.6,2.5l-0.4,0.2H37c0,0.1-0.1,0.1-0.2,0.2l0,0L37.6,2.5z"/>
					</defs>
					<clipPath id="SVGID_34_">
						<use xlink:href="#SVGID_33_"  style="overflow:visible;"/>
					</clipPath>
					<g class="st79">
						<g>
							<path class="st20" d="M36.8,2.9l0.8-0.4l0,0L36.8,2.9L36.8,2.9L36.8,2.9z"/>
						</g>
					</g>
				</g>
			</g>
			<polygon class="st21" points="36,4.8 36.9,4.3 40.3,6.3 39.4,6.8 			"/>
			<g>
				<g>
					<defs>
						<path id="SVGID_35_" d="M37.8,3.1L37,3.6c-0.1-0.2-0.2-0.4-0.2-0.6H37c0-0.1,0.1-0.1,0.2-0.2l0.4-0.2l-0.8,0.5
							c0-0.2,0.1-0.5,0.3-0.6L37.9,2c-0.2,0.1-0.3,0.4-0.3,0.6C37.6,2.8,37.7,2.9,37.8,3.1z"/>
					</defs>
					<clipPath id="SVGID_36_">
						<use xlink:href="#SVGID_35_"  style="overflow:visible;"/>
					</clipPath>
					<g class="st80">
						<g>
							<path class="st8" d="M37.1,2.4l0.8-0.5h-0.1l-0.9,0.5H37.1z"/>
							<path class="st9" d="M36.9,2.5L37.8,2h-0.1C37.7,2,36.9,2.5,36.9,2.5z"/>
							<path class="st10" d="M36.9,2.6l0.8-0.5l0,0L36.9,2.6L36.9,2.6z"/>
							<path class="st11" d="M36.9,2.6l0.8-0.4l0,0L36.9,2.6L36.9,2.6z"/>
							<path class="st12" d="M36.9,2.7l0.8-0.5l0,0L36.9,2.7L36.9,2.7z"/>
							<path class="st13" d="M36.9,2.7l0.8-0.4l0,0l-0.9,0.5L36.9,2.7z"/>
							<path class="st14" d="M36.8,2.8l0.9-0.5l0,0L36.8,2.8z"/>
							<path class="st23" d="M36.8,2.8l0.9-0.5c0,0.1,0,0.1-0.1,0.1L36.8,2.8L36.8,2.8z"/>
							<path class="st24" d="M36.8,2.9l0.8-0.5l0,0L36.8,2.9z"/>
							<path class="st25" d="M36.8,2.9l0.8-0.5l0,0L36.8,2.9L36.8,2.9z"/>
							<path class="st20" d="M36.8,2.9l0.8-0.4l0,0L36.8,2.9L36.8,2.9L36.8,2.9z"/>
							<path class="st26" d="M36.8,3l0.8-0.5l0,0L36.8,3L36.8,3z"/>
							<path class="st27" d="M36.8,3l0.8-0.4h0.1L36.8,3L36.8,3z"/>
							<path class="st28" d="M36.8,3.1l0.9-0.5l0,0L36.8,3.1z"/>
							<path class="st29" d="M36.8,3.1l0.9-0.5l0,0L36.8,3.1z"/>
							<path class="st30" d="M36.8,3.2l0.9-0.5l0,0l-0.8,0.5H36.8z"/>
							<path class="st31" d="M36.9,3.2l0.8-0.5l0,0L36.9,3.2z"/>
							<path class="st32" d="M36.9,3.3l0.8-0.5l0,0L36.9,3.3z"/>
							<path class="st33" d="M36.9,3.3l0.8-0.5l0,0L36.9,3.3z"/>
							<path class="st34" d="M36.9,3.4l0.8-0.5l0,0L36.9,3.4z"/>
							<path class="st35" d="M36.9,3.4l0.8-0.5l0,0L36.9,3.4z"/>
							<path class="st36" d="M36.9,3.5L37.7,3h0.1C37.8,3,36.9,3.5,36.9,3.5z"/>
							<path class="st37" d="M36.9,3.5L37.8,3l0,0L37,3.5C37,3.4,37,3.4,36.9,3.5L36.9,3.5z"/>
						</g>
					</g>
				</g>
			</g>
			<g>
				<g>
					<defs>
						<path id="SVGID_37_" d="M38.5,4.5L39.4,4c0.5,0.7,0.8,1.5,0.9,2.3l-0.9,0.5C39.4,6,39.1,5.1,38.5,4.5z"/>
					</defs>
					<clipPath id="SVGID_38_">
						<use xlink:href="#SVGID_37_"  style="overflow:visible;"/>
					</clipPath>
					<g class="st81">
						<g>
							<path class="st39" d="M38.5,4.5L39.4,4l0,0l-0.8,0.5H38.5z"/>
							<path class="st40" d="M38.6,4.5L39.4,4c0,0.1,0.1,0.1,0.1,0.2l-0.8,0.5L38.6,4.5L38.6,4.5z"/>
							<path class="st41" d="M38.7,4.7l0.8-0.5c0,0.1,0.1,0.1,0.1,0.2l-0.8,0.5C38.8,4.8,38.8,4.8,38.7,4.7z"/>
							<path class="st40" d="M38.8,4.9l0.8-0.5v0.2l-0.8,0.5C38.8,5,38.8,4.9,38.8,4.9L38.8,4.9z"/>
							<path class="st39" d="M38.9,5.1l0.8-0.5h0.1L38.9,5.1C39,5,39,5,38.9,5.1L38.9,5.1z"/>
							<path class="st39" d="M39,5.2l0.8-0.5l0,0L39,5.2z"/>
							<path class="st39" d="M39,5.3l0.8-0.5c0.1,0,0.1,0,0.1,0.1L39,5.3L39,5.3z"/>
							<path class="st42" d="M39.1,5.4l0.8-0.5l0,0L39.1,5.4z"/>
							<path class="st43" d="M39.1,5.5L39.9,5H40l-0.8,0.5H39.1z"/>
							<path class="st44" d="M39.2,5.6L40,5.1l0,0L39.2,5.6z"/>
							<path class="st45" d="M39.2,5.7L40,5.2l0,0L39.2,5.7z"/>
							<path class="st46" d="M39.2,5.8L40,5.3v0.2L39.2,5.8L39.2,5.8z"/>
							<path class="st47" d="M39.3,5.9l0.8-0.4l0,0L39.3,5.9L39.3,5.9z"/>
							<path class="st48" d="M39.3,6.1l0.8-0.5c0,0.1,0,0.1,0.1,0.1L39.3,6.1L39.3,6.1z"/>
							<path class="st49" d="M39.3,6.2l0.9-0.5l0,0l-0.8,0.5H39.3z"/>
							<path class="st50" d="M39.4,6.3l0.8-0.5V6L39.4,6.3L39.4,6.3z"/>
							<path class="st51" d="M39.4,6.4L40.2,6l0,0L39.4,6.4L39.4,6.4z"/>
							<path class="st52" d="M39.4,6.6l0.8-0.5h0.1C40.3,6.1,39.4,6.6,39.4,6.6z"/>
							<path class="st53" d="M39.4,6.7l0.9-0.5l0,0L39.4,6.7z"/>
						</g>
					</g>
				</g>
			</g>
			<g>
				<g>
					<defs>
						<path id="SVGID_39_" d="M37.1,2.4l0.8-0.5c0.2-0.1,0.5-0.1,0.7,0.1l-0.8,0.4C37.6,2.3,37.3,2.3,37.1,2.4z"/>
					</defs>
					<clipPath id="SVGID_40_">
						<use xlink:href="#SVGID_39_"  style="overflow:visible;"/>
					</clipPath>
					<g class="st82">
						<g>
							<path class="st16" d="M37.1,2.4l0.8-0.5H38l-0.8,0.4C37.1,2.3,37.1,2.3,37.1,2.4z"/>
							<path class="st17" d="M37.2,2.3L38,1.9h0.1l-0.9,0.5L37.2,2.3z"/>
							<path class="st18" d="M37.2,2.3l0.9-0.5l0,0l-0.8,0.5H37.2z"/>
							<path class="st55" d="M37.3,2.3l0.8-0.5h0.1C38.2,1.8,37.3,2.3,37.3,2.3z"/>
							<path class="st56" d="M37.3,2.3l0.9-0.5l0,0l-0.8,0.5H37.3z"/>
							<path class="st57" d="M37.4,2.3l0.8-0.5l0,0L37.4,2.3z"/>
							<path class="st58" d="M37.4,2.3l0.8-0.5h0.1L37.4,2.3L37.4,2.3z"/>
							<path class="st59" d="M37.5,2.3l0.8-0.5l0,0L37.5,2.3z"/>
							<path class="st60" d="M37.5,2.3l0.8-0.5h0.1L37.5,2.3L37.5,2.3z"/>
							<path class="st61" d="M37.5,2.3l0.9-0.4l0,0l-0.8,0.4H37.5z"/>
							<path class="st62" d="M37.6,2.3l0.8-0.4l0,0l-0.8,0.5V2.3z"/>
							<path class="st63" d="M37.6,2.4l0.8-0.5h0.1C38.5,1.9,37.6,2.4,37.6,2.4z"/>
							<path class="st64" d="M37.6,2.4l0.9-0.5l0,0l-0.8,0.5H37.6z"/>
							<path class="st53" d="M37.7,2.4l0.8-0.5l0,0L37.7,2.4z"/>
							<path class="st52" d="M37.7,2.4l0.8-0.5c0.1,0,0.1,0,0.1,0.1L37.7,2.4L37.7,2.4z"/>
						</g>
					</g>
				</g>
			</g>
			<g>
				<g>
					<defs>
						<path id="SVGID_41_" d="M37.8,2.4L38.6,2c0.5,0.3,0.9,0.9,0.9,1.5c0,0.2-0.1,0.3-0.1,0.5l-0.9,0.5c0.1-0.1,0.2-0.3,0.2-0.5
							C38.7,3.4,38.3,2.8,37.8,2.4z"/>
					</defs>
					<clipPath id="SVGID_42_">
						<use xlink:href="#SVGID_41_"  style="overflow:visible;"/>
					</clipPath>
					<g class="st83">
						<g>
							<polygon class="st52" points="37.8,2.4 38.6,2 38.6,2 37.8,2.4 37.8,2.4 							"/>
							<path class="st51" d="M37.8,2.4L38.6,2l0,0L37.8,2.4L37.8,2.4z"/>
							<path class="st50" d="M37.8,2.5L38.6,2h0.1C38.7,2,37.8,2.5,37.8,2.5z"/>
							<path class="st49" d="M37.8,2.5L38.7,2l0,0l-0.8,0.5H37.8z"/>
							<path class="st48" d="M37.9,2.5L38.7,2l0,0L37.9,2.5L37.9,2.5z"/>
							<path class="st47" d="M37.9,2.5l0.8-0.4h0.1L37.9,2.5C37.9,2.6,37.9,2.6,37.9,2.5z"/>
							<path class="st46" d="M38,2.6l0.8-0.5l0,0L38,2.6z"/>
							<path class="st45" d="M38,2.6l0.8-0.5c0,0.1,0,0.1,0.1,0.1C38.9,2.2,38,2.6,38,2.6z"/>
							<path class="st44" d="M38,2.6l0.9-0.4l0,0l-0.8,0.5L38,2.6z"/>
							<path class="st43" d="M38.1,2.7l0.8-0.5l0,0L38.1,2.7L38.1,2.7z"/>
							<path class="st42" d="M38.1,2.7l0.8-0.4H39l-0.8,0.5L38.1,2.7z"/>
							<path class="st39" d="M38.2,2.8L39,2.3l0,0L38.2,2.8z"/>
							<path class="st39" d="M38.2,2.8L39,2.3l0,0L38.2,2.8z"/>
							<path class="st39" d="M38.2,2.9L39,2.4h0.1L38.2,2.9L38.2,2.9z"/>
							<path class="st40" d="M38.3,2.9l0.8-0.5l0,0L38.3,2.9z"/>
							<path class="st41" d="M38.3,3l0.8-0.5c0.1,0,0.1,0,0.1,0.1L38.3,3L38.3,3z"/>
							<path class="st40" d="M38.4,3.1l0.8-0.5c0,0.1,0,0.1,0.1,0.1L38.4,3.1L38.4,3.1z"/>
							<path class="st39" d="M38.4,3.2l0.9-0.5l0,0l-0.8,0.4L38.4,3.2z"/>
							<path class="st39" d="M38.5,3.2l0.8-0.4l0,0L38.5,3.2L38.5,3.2z"/>
							<path class="st39" d="M38.5,3.3l0.8-0.5l0,0L38.5,3.3z"/>
							<path class="st42" d="M38.5,3.3l0.8-0.5l0,0L38.5,3.3z"/>
							<path class="st43" d="M38.5,3.4l0.8-0.5h0.1C39.4,2.9,38.5,3.4,38.5,3.4z"/>
							<path class="st44" d="M38.5,3.4l0.9-0.5l0,0l-0.8,0.5C38.6,3.3,38.6,3.3,38.5,3.4L38.5,3.4z"/>
							<path class="st45" d="M38.6,3.5L39.4,3l0,0L38.6,3.5z"/>
							<path class="st46" d="M38.6,3.5L39.4,3l0,0L38.6,3.5L38.6,3.5z"/>
							<path class="st47" d="M38.6,3.5l0.8-0.4l0,0L38.6,3.5L38.6,3.5z"/>
							<path class="st48" d="M38.6,3.6l0.8-0.5l0,0L38.6,3.6L38.6,3.6z"/>
							<path class="st49" d="M38.6,3.6l0.8-0.4l0,0L38.6,3.6L38.6,3.6z"/>
							<path class="st50" d="M38.6,3.7l0.8-0.5h0.1L38.6,3.7L38.6,3.7z"/>
							<path class="st51" d="M38.6,3.7l0.9-0.4l0,0l-0.8,0.5L38.6,3.7z"/>
							<path class="st52" d="M38.7,3.8l0.8-0.5l0,0L38.7,3.8L38.7,3.8z"/>
							<path class="st53" d="M38.7,3.8l0.8-0.4l0,0L38.7,3.8L38.7,3.8z"/>
							<path class="st64" d="M38.7,3.9l0.8-0.5l0,0L38.7,3.9L38.7,3.9z"/>
							<path class="st63" d="M38.7,3.9l0.8-0.4l0,0L38.7,3.9L38.7,3.9z"/>
							<path class="st62" d="M38.7,4l0.8-0.5l0,0L38.7,4z"/>
							<path class="st61" d="M38.7,4l0.8-0.5l0,0L38.7,4z"/>
							<path class="st60" d="M38.7,4.1l0.8-0.5l0,0L38.7,4.1z"/>
							<path class="st59" d="M38.7,4.1l0.8-0.5l0,0L38.7,4.1L38.7,4.1z"/>
							<path class="st58" d="M38.7,4.1l0.8-0.4l0,0L38.7,4.1L38.7,4.1z"/>
							<path class="st57" d="M38.7,4.2l0.8-0.5l0,0l-0.9,0.4L38.7,4.2z"/>
							<path class="st56" d="M38.6,4.2l0.9-0.4l0,0L38.6,4.2L38.6,4.2z"/>
							<path class="st55" d="M38.6,4.3l0.9-0.5h-0.1C39.4,3.8,38.6,4.3,38.6,4.3z"/>
							<path class="st18" d="M38.6,4.3l0.8-0.5l0,0L38.6,4.3z"/>
							<path class="st17" d="M38.6,4.4l0.8-0.5l0,0L38.6,4.4L38.6,4.4z"/>
							<path class="st16" d="M38.6,4.4L39.4,4l0,0l-0.9,0.5L38.6,4.4z"/>
						</g>
					</g>
				</g>
			</g>
			<path class="st42" d="M37.8,2.4c0.5,0.4,0.9,1,0.9,1.6c0,0.2-0.1,0.4-0.2,0.5c0.6,0.6,0.9,1.5,0.9,2.3l-3.4-2
				c0.1-0.7,0.5-1.2,1-1.2c-0.1-0.2-0.2-0.4-0.2-0.6C36.8,2.4,37.2,2.1,37.8,2.4z"/>
			<path class="st66" d="M41.6,5.5L41.6,5.5V5.2l0,0V4.9c-0.1,0-0.1,0-0.1-0.1V4.6l0,0c-0.1-0.1-0.1-0.1-0.1-0.2h-0.1V3.8h-0.1
				c0-0.1,0-0.1-0.1-0.2l0,0c0-0.1-0.1-0.1-0.1-0.2c0-0.1,0-0.1-0.1-0.1c0-0.1,0-0.1-0.1-0.2s0-0.1-0.1-0.2l0,0
				c-0.1-0.1-0.2-0.2-0.2-0.3s-0.2-0.2-0.2-0.3l-0.2-0.2C40.1,2,40.1,2,40,2c0-0.1-0.1-0.1-0.1-0.2c-0.1,0-0.1,0-0.1-0.1h-0.3
				c0-0.1-0.1-0.1-0.1-0.2h-3L35.6,2h1.9l0.3,0.2l0.6,0.4l0,0l0.5,0.5l0,0c0.4,0.4,0.7,0.8,1,1.2l0,0c0.2,0.2,0.3,0.4,0.4,0.7l0,0
				l0.3,0.7l0,0c0,0.2,0.1,0.5,0.1,0.7l0,0c0.1,0.3,0.1,0.5,0.1,0.8v0.3l0,0c0,0.1,0,0.2-0.1,0.3l0,0v0.3h-0.1v0.2l0,0l-0.2,0.2
				c0,0.1-0.1,0.2-0.2,0.3l0,0L39.9,9l0.8-0.5L41,8.3l0,0c0.1-0.1,0.2-0.2,0.2-0.3l0,0l0.2-0.2l0,0V6.7h0.1V6.4h0.1V6.1l0,0V5.8l0,0
				L41.6,5.5z"/>
			<path class="st67" d="M37.8,0.9c1.8,1.2,2.9,3.2,3,5.3c0,1.9-1.4,2.7-3.1,1.7c-1.8-1.2-2.9-3.2-3-5.3C34.7,0.7,36.1-0.1,37.8,0.9
				z M36,4.8l3.4,2c0-0.8-0.3-1.7-0.9-2.3c0.1-0.1,0.2-0.3,0.2-0.5c0-0.6-0.4-1.2-0.9-1.6c-0.6-0.3-1,0-1,0.6c0,0.2,0.1,0.4,0.2,0.6
				C36.5,3.6,36.1,4.1,36,4.8z"/>
			<g>
				<g>
					<defs>
						<path id="SVGID_43_" d="M54.6,27.1c-0.4,0.3-0.6,0.7-0.6,1.2l-0.8,0.4c0.1-0.4,0.3-0.8,0.6-1.1L54.6,27.1z"/>
					</defs>
					<clipPath id="SVGID_44_">
						<use xlink:href="#SVGID_43_"  style="overflow:visible;"/>
					</clipPath>
					<g class="st84">
						<g>
							<path class="st8" d="M53.8,27.6l0.8-0.5l-0.3,0.4L53.4,28L53.8,27.6z"/>
							<path class="st9" d="M53.4,28l0.9-0.5c-0.1,0-0.1,0.1-0.1,0.2l-0.8,0.4L53.4,28z"/>
							<path class="st10" d="M53.4,28.1l0.8-0.4c-0.1,0-0.1,0-0.1,0.1l-0.8,0.5C53.3,28.2,53.3,28.2,53.4,28.1z"/>
							<path class="st11" d="M53.3,28.3l0.8-0.5l0,0L53.3,28.3z"/>
							<path class="st12" d="M53.3,28.4l0.8-0.5c0,0.1-0.1,0.1-0.1,0.2l-0.8,0.4C53.2,28.4,53.2,28.4,53.3,28.4z"/>
							<path class="st13" d="M53.2,28.5l0.8-0.4l0,0l-0.8,0.5v-0.2V28.5z"/>
							<path class="st14" d="M53.2,28.7l0.8-0.5l0,0l-0.8,0.4V28.7z"/>
						</g>
					</g>
				</g>
			</g>
			<g>
				<g>
					<defs>
						<polygon id="SVGID_45_" points="53.8,27.6 54.6,27.1 54.9,27.1 54.1,27.6 						"/>
					</defs>
					<clipPath id="SVGID_46_">
						<use xlink:href="#SVGID_45_"  style="overflow:visible;"/>
					</clipPath>
					<g class="st85">
						<g>
							<path class="st16" d="M53.8,27.6l0.8-0.5h0.2L53.8,27.6L53.8,27.6z"/>
							<path class="st17" d="M53.9,27.6l0.9-0.5h0.1l-0.8,0.5H53.9z"/>
							<path class="st18" d="M54.1,27.5l0.8-0.5l0,0L54.1,27.5z"/>
						</g>
					</g>
				</g>
			</g>
			<g>
				<g>
					<defs>
						<polygon id="SVGID_47_" points="54.8,26.4 54.3,26.7 54,26.7 						"/>
					</defs>
					<clipPath id="SVGID_48_">
						<use xlink:href="#SVGID_47_"  style="overflow:visible;"/>
					</clipPath>
					<g class="st86">
						<g>
							<path class="st20" d="M54,26.9l0.8-0.5l0,0L54,26.8V26.9z"/>
						</g>
					</g>
				</g>
			</g>
			<polygon class="st21" points="53.2,28.8 54,28.3 57.4,30.2 56.6,30.7 			"/>
			<g>
				<g>
					<defs>
						<path id="SVGID_49_" d="M54.9,27l-0.8,0.5C54,27.3,54,27.1,54,26.9h0.3l0.5-0.3L54,27.1c0-0.2,0.1-0.4,0.2-0.6l0.9-0.5
							c-0.2,0.1-0.3,0.4-0.3,0.6C54.8,26.7,54.8,26.9,54.9,27z"/>
					</defs>
					<clipPath id="SVGID_50_">
						<use xlink:href="#SVGID_49_"  style="overflow:visible;"/>
					</clipPath>
					<g class="st87">
						<g>
							<path class="st8" d="M54.2,26.3l0.9-0.5c-0.1,0.1-0.2,0.1-0.2,0.2l-0.8,0.5C54.1,26.4,54.2,26.4,54.2,26.3z"/>
							<path class="st9" d="M54.1,26.5l0.8-0.5l0,0L54,26.4L54.1,26.5z"/>
							<path class="st10" d="M54,26.5l0.9-0.4h-0.1L54,26.6L54,26.5z"/>
							<path class="st11" d="M54,26.6l0.8-0.5l0,0L54,26.5V26.6z"/>
							<path class="st12" d="M54,26.6l0.8-0.4l0,0L54,26.7V26.6z"/>
							<path class="st13" d="M54,26.7l0.8-0.5l0,0L54,26.6V26.7z"/>
							<path class="st14" d="M54,26.7l0.8-0.4l0,0L54,26.8V26.7z"/>
							<path class="st23" d="M54,26.8l0.8-0.5l0,0L54,26.8z"/>
							<path class="st24" d="M54,26.8l0.8-0.5l0,0L54,26.8z"/>
							<path class="st25" d="M54,26.9l0.8-0.5l0,0L54,26.9z"/>
							<path class="st20" d="M54,26.9l0.8-0.5l0,0L54,26.8V26.9z"/>
							<path class="st26" d="M54,26.9l0.8-0.4l0,0L54,27V26.9z"/>
							<path class="st27" d="M54,27l0.8-0.5l0,0L54,27z"/>
							<path class="st28" d="M54,27l0.8-0.4l0,0L54,27.1V27z"/>
							<path class="st29" d="M54,27.1l0.8-0.5l0,0L54,27.1z"/>
							<path class="st30" d="M54,27.1l0.8-0.5l0,0L54,27.1z"/>
							<path class="st31" d="M54,27.2l0.8-0.5l0,0L54,27.2z"/>
							<path class="st32" d="M54,27.2l0.8-0.5l0,0L54,27.2z"/>
							<path class="st33" d="M54,27.3l0.8-0.5l0,0L54,27.3z"/>
							<path class="st34" d="M54,27.3l0.8-0.5h0.1C54.9,26.8,54,27.3,54,27.3z"/>
							<path class="st35" d="M54,27.4l0.9-0.5l0,0l-0.8,0.5H54z"/>
							<path class="st36" d="M54.1,27.4l0.8-0.5l0,0L54.1,27.4z"/>
							<path class="st37" d="M54.1,27.5l0.8-0.5l0,0L54.1,27.5z"/>
						</g>
					</g>
				</g>
			</g>
			<g>
				<g>
					<defs>
						<path id="SVGID_51_" d="M55.7,28.4l0.8-0.4c0.5,0.6,0.8,1.4,0.9,2.2l-0.8,0.5C56.5,29.9,56.2,29.1,55.7,28.4z"/>
					</defs>
					<clipPath id="SVGID_52_">
						<use xlink:href="#SVGID_51_"  style="overflow:visible;"/>
					</clipPath>
					<g class="st88">
						<g>
							<path class="st39" d="M55.7,28.4l0.8-0.4l0,0l-0.8,0.5V28.4z"/>
							<path class="st40" d="M55.7,28.5l0.8-0.5c0.1,0,0.1,0,0.1,0.1l-0.8,0.5L55.7,28.5z"/>
							<path class="st41" d="M55.8,28.6l0.8-0.5l0.2,0.3L56,28.9L55.8,28.6z"/>
							<path class="st40" d="M56,28.9l0.8-0.5c0,0.1,0,0.1,0.1,0.1L56.1,29C56,29,56,29,56,28.9z"/>
							<path class="st39" d="M56.1,29l0.8-0.5v0.2l-0.8,0.4V29z"/>
							<path class="st39" d="M56.1,29.1l0.8-0.4c0.1,0,0.1,0,0.1,0.1l-0.8,0.4L56.1,29.1z"/>
							<path class="st39" d="M56.2,29.2l0.8-0.4l0,0L56.2,29.2z"/>
							<path class="st42" d="M56.2,29.3l0.8-0.4h0.1C57.1,28.9,56.2,29.3,56.2,29.3z"/>
							<path class="st43" d="M56.2,29.4l0.9-0.4l0,0l-0.8,0.4H56.2z"/>
							<path class="st44" d="M56.3,29.5l0.8-0.4l0,0L56.3,29.5z"/>
							<path class="st45" d="M56.3,29.6l0.8-0.4h0.1l-0.8,0.5c0-0.1-0.1-0.1-0.1-0.2V29.6z"/>
							<path class="st46" d="M56.4,29.8l0.8-0.5l0,0L56.4,29.8z"/>
							<path class="st47" d="M56.4,29.9l0.8-0.5c0,0.1,0,0.1,0.1,0.1L56.4,30L56.4,29.9z"/>
							<path class="st48" d="M56.4,30l0.9-0.5v0.2l-0.8,0.4L56.4,30z"/>
							<path class="st49" d="M56.5,30.1l0.8-0.4l0,0l-0.8,0.5V30V30.1z"/>
							<path class="st50" d="M56.5,30.3l0.8-0.5h0.1C57.4,29.8,56.5,30.3,56.5,30.3z"/>
							<path class="st51" d="M56.5,30.4l0.9-0.5v0.2l-0.8,0.4L56.5,30.4z"/>
							<path class="st52" d="M56.6,30.5l0.8-0.4l0,0l-0.8,0.5v-0.2V30.5z"/>
							<path class="st53" d="M56.6,30.7l0.8-0.5l0,0L56.6,30.7z"/>
						</g>
					</g>
				</g>
			</g>
			<g>
				<g>
					<defs>
						<path id="SVGID_53_" d="M54.2,26.3l0.9-0.5c0.1-0.1,0.3,0,0.6,0.1l-0.8,0.5C54.7,26.2,54.4,26.2,54.2,26.3z"/>
					</defs>
					<clipPath id="SVGID_54_">
						<use xlink:href="#SVGID_53_"  style="overflow:visible;"/>
					</clipPath>
					<g class="st89">
						<g>
							<path class="st16" d="M54.2,26.3l0.9-0.5l0,0l-0.8,0.5H54.2z"/>
							<path class="st17" d="M54.3,26.3l0.8-0.5h0.1L54.3,26.3L54.3,26.3z"/>
							<path class="st18" d="M54.4,26.3l0.8-0.5l0,0L54.4,26.3z"/>
							<path class="st55" d="M54.4,26.3l0.8-0.5h0.1L54.4,26.3L54.4,26.3z"/>
							<path class="st56" d="M54.5,26.3l0.8-0.5l0,0L54.5,26.3z"/>
							<path class="st57" d="M54.5,26.3l0.8-0.5h0.1L54.5,26.3L54.5,26.3z"/>
							<path class="st58" d="M54.6,26.3l0.8-0.5l0,0L54.6,26.3z"/>
							<path class="st59" d="M54.6,26.3l0.8-0.5h0.1C55.5,25.8,54.6,26.3,54.6,26.3z"/>
							<path class="st60" d="M54.6,26.3l0.9-0.5l0,0l-0.8,0.5H54.6z"/>
							<path class="st61" d="M54.7,26.3l0.8-0.5l0,0L54.7,26.3z"/>
							<path class="st62" d="M54.7,26.3l0.8-0.5h0.1L54.7,26.3L54.7,26.3z"/>
							<path class="st63" d="M54.8,26.3l0.8-0.5l0,0l-0.8,0.4V26.3z"/>
							<path class="st64" d="M54.8,26.3l0.8-0.4l0,0L54.8,26.3z"/>
							<path class="st53" d="M54.8,26.3l0.8-0.4h0.1l-0.8,0.5L54.8,26.3z"/>
							<path class="st52" d="M54.9,26.4l0.8-0.5l0,0L54.9,26.4z"/>
						</g>
					</g>
				</g>
			</g>
			<g>
				<g>
					<defs>
						<path id="SVGID_55_" d="M54.9,26.4l0.8-0.5c0.5,0.4,0.9,1,0.9,1.6c0,0.2,0,0.3-0.1,0.5l-0.8,0.4c0.1-0.1,0.1-0.2,0.1-0.4
							C55.8,27.4,55.4,26.8,54.9,26.4z"/>
					</defs>
					<clipPath id="SVGID_56_">
						<use xlink:href="#SVGID_55_"  style="overflow:visible;"/>
					</clipPath>
					<g class="st90">
						<g>
							<polygon class="st52" points="54.9,26.4 55.7,25.9 55.7,25.9 54.9,26.4 54.9,26.4 							"/>
							<path class="st51" d="M54.9,26.4l0.8-0.5h0.1C55.8,25.9,54.9,26.4,54.9,26.4z"/>
							<path class="st50" d="M54.9,26.4l0.9-0.5l0,0L55,26.3L54.9,26.4z"/>
							<path class="st49" d="M55,26.4l0.8-0.4l0,0L55,26.5V26.4z"/>
							<path class="st48" d="M55,26.5l0.8-0.5h0.1L55,26.5L55,26.5z"/>
							<path class="st47" d="M55.1,26.5l0.8-0.5l0,0l-0.8,0.4V26.5z"/>
							<path class="st46" d="M55.1,26.5l0.8-0.4H56l-0.9,0.5V26.5z"/>
							<path class="st45" d="M55.1,26.6l0.9-0.5l0,0l-0.8,0.5H55.1z"/>
							<path class="st44" d="M55.2,26.6l0.8-0.5l0,0l-0.8,0.4V26.6z"/>
							<path class="st43" d="M55.2,26.6l0.8-0.4h0.1l-0.8,0.5L55.2,26.6z"/>
							<path class="st42" d="M55.3,26.7l0.8-0.5l0,0L55.3,26.7z"/>
							<path class="st39" d="M55.3,26.7l0.8-0.5l0,0L55.3,26.7z"/>
							<path class="st39" d="M55.3,26.8l0.8-0.5h0.1L55.3,26.8L55.3,26.8z"/>
							<path class="st39" d="M55.4,26.8l0.8-0.5l0,0L55.4,26.8z"/>
							<path class="st40" d="M55.4,26.9l0.8-0.5c0.1,0,0.1,0,0.1,0.1L55.4,26.9L55.4,26.9z"/>
							<path class="st41" d="M55.5,26.9l0.8-0.4l0,0L55.5,26.9z"/>
							<path class="st40" d="M55.5,27l0.8-0.4h0.1L55.5,27c0,0,0,0,0-0.1V27z"/>
							<path class="st39" d="M55.6,27.1l0.8-0.4l0,0l-0.8,0.5V27.1z"/>
							<path class="st39" d="M55.6,27.2l0.8-0.5l0,0l-0.8,0.4V27.2z"/>
							<path class="st39" d="M55.6,27.2l0.8-0.4h0.1l-0.9,0.5L55.6,27.2z"/>
							<path class="st42" d="M55.6,27.3l0.9-0.5l0,0l-0.8,0.5H55.6z"/>
							<path class="st43" d="M55.7,27.3l0.8-0.5l0,0L55.7,27.3z"/>
							<path class="st44" d="M55.7,27.4l0.8-0.5l0,0L55.7,27.4z"/>
							<path class="st45" d="M55.7,27.4l0.8-0.5l0,0L55.7,27.4z"/>
							<path class="st46" d="M55.7,27.5l0.8-0.5l0,0L55.7,27.5z"/>
							<path class="st47" d="M55.7,27.5l0.8-0.5c0.1,0,0.1,0,0.1,0.1l-0.9,0.5L55.7,27.5z"/>
							<path class="st48" d="M55.7,27.6l0.9-0.5l0,0l-0.8,0.5H55.7z"/>
							<path class="st49" d="M55.8,27.6l0.8-0.5l0,0l-0.8,0.4V27.6z"/>
							<path class="st50" d="M55.8,27.6l0.8-0.4l0,0l-0.8,0.5V27.6z"/>
							<path class="st51" d="M55.8,27.7l0.8-0.5l0,0l-0.8,0.4V27.7z"/>
							<path class="st52" d="M55.8,27.7l0.8-0.4l0,0l-0.8,0.5V27.7z"/>
							<path class="st53" d="M55.8,27.8l0.8-0.5l0,0l-0.8,0.4V27.8z"/>
							<path class="st64" d="M55.8,27.8l0.8-0.4l0,0l-0.8,0.5V27.8z"/>
							<path class="st63" d="M55.8,27.9l0.8-0.5l0,0l-0.8,0.4V27.9z"/>
							<path class="st62" d="M55.8,27.9l0.8-0.4l0,0L55.8,28l0,0V27.9z"/>
							<path class="st61" d="M55.8,28l0.8-0.5l0,0L55.8,28z"/>
							<path class="st60" d="M55.8,28l0.8-0.5l0,0L55.8,28z"/>
							<path class="st59" d="M55.8,28.1l0.8-0.5l0,0L55.8,28.1z"/>
							<path class="st58" d="M55.8,28.1l0.8-0.5l0,0L55.8,28V28.1z"/>
							<path class="st57" d="M55.8,28.1l0.8-0.4l0,0l-0.8,0.5V28.1z"/>
							<path class="st56" d="M55.8,28.2l0.8-0.5l0,0l-0.8,0.4V28.2z"/>
							<path class="st55" d="M55.8,28.2l0.8-0.4l0,0l-0.8,0.5V28.2z"/>
							<path class="st18" d="M55.8,28.3l0.8-0.5h-0.1l-0.8,0.4L55.8,28.3z"/>
							<path class="st17" d="M55.7,28.3l0.8-0.4l0,0l-0.8,0.5V28.3z"/>
							<path class="st16" d="M55.7,28.4l0.8-0.5l0,0l-0.8,0.4V28.4z"/>
						</g>
					</g>
				</g>
			</g>
			<path class="st42" d="M54.9,26.4c0.5,0.4,0.9,1,0.9,1.6c0,0.2,0,0.3-0.1,0.4c0.5,0.7,0.8,1.5,0.9,2.3l-3.4-2
				c0.1-0.7,0.4-1.1,0.9-1.2C54,27.3,54,27.1,54,26.9C54,26.3,54.4,26.1,54.9,26.4z"/>
			<path class="st75" d="M58.7,29.5L58.7,29.5v-0.2l0,0v-0.4h-0.1v-0.2l0,0v-0.2l0,0v-0.2h-0.1c0-0.1,0-0.1-0.1-0.2l0,0
				c0-0.1,0-0.1-0.1-0.1l0,0c-0.1-0.1-0.1-0.1-0.1-0.2c-0.1,0-0.1,0-0.1-0.1C58,27.6,58,27.6,58,27.5h-0.1c0-0.1-0.1-0.3-0.2-0.4
				c-0.1-0.1-0.1-0.2-0.2-0.2c0-0.1,0-0.1-0.1-0.2v-0.2H57c0-0.1,0-0.1-0.1-0.1l0,0c-0.1,0-0.1,0-0.1-0.1h-0.3c0-0.1,0-0.1-0.1-0.1
				h-0.1L56.1,26H56c0-0.1,0-0.1-0.1-0.1h-0.4c0-0.1,0-0.1-0.1-0.1H55c0-0.1,0-0.1-0.1-0.1h-1.4l-0.8,0.4h2.2l0.6,0.5l0,0l0.6,0.5
				l0,0c0.4,0.4,0.7,0.8,0.9,1.3h0.1l0.3,0.7l0,0l0.3,0.7l0,0c0.1,0.3,0.1,0.5,0.2,0.8l0,0v1l0,0v0.3l0,0c-0.1,0.1-0.1,0.1-0.1,0.2
				l0,0c0,0.1-0.1,0.1-0.1,0.2l0,0c0,0.1-0.1,0.2-0.1,0.3s-0.2,0.1-0.2,0.2h-0.1L57,33l0.9-0.5l0.2-0.2h0.1l0.2-0.2l0,0
				c0-0.1,0-0.1,0.1-0.2h0.2v-0.2l0,0L58.7,29.5z"/>
			<path class="st76" d="M54.9,24.8c1.8,1.2,2.9,3.2,3,5.3c0,1.9-1.3,2.7-3,1.8c-1.8-1.2-3-3.1-3.1-5.3
				C51.8,24.7,53.2,23.9,54.9,24.8z M53.2,28.7l3.4,2c-0.1-0.8-0.4-1.6-0.9-2.3c0.1-0.1,0.1-0.2,0.1-0.4c0-0.6-0.4-1.2-0.9-1.6
				c-0.5-0.3-0.9-0.1-0.9,0.5c0,0.2,0,0.4,0.1,0.6C53.6,27.6,53.3,28,53.2,28.7z"/>
			<g class="st91">
				<path d="M39.5,69.8c9.1,5.2,9.1,13.7,0.1,19s-23.7,5.2-32.8,0s-9.1-13.8-0.1-19S30.4,64.5,39.5,69.8z"/>
			</g>
			<g class="st91">
				<path d="M39.5,69.8c9.1,5.2,9.1,13.7,0.1,19s-23.7,5.2-32.8,0s-9.1-13.8-0.1-19S30.4,64.5,39.5,69.8z"/>
			</g>
			
				<linearGradient id="SVGID_57_" gradientUnits="userSpaceOnUse" x1="2.8874" y1="16.5" x2="45.8126" y2="16.5" gradientTransform="matrix(1 0 0 -1 0 94)">
				<stop  offset="0" style="stop-color:#D70010"/>
				<stop  offset="0.9854" style="stop-color:#7A0110"/>
			</linearGradient>
			<path class="st92" d="M39.5,68.7c8.4,4.9,8.4,12.8,0.1,17.6s-22,4.9-30.4,0S0.8,73.6,9.1,68.7S31.1,63.9,39.5,68.7z"/>
			<path class="st93" d="M39.5,63.2c8.4,4.9,8.4,12.8,0.1,17.6s-22,4.9-30.4,0S0.8,68.1,9.1,63.2S31.1,58.4,39.5,63.2z"/>
			<g class="st94">
				<path class="st4" d="M36,65.2c6.4,3.6,6.5,9.4,0.1,13s-16.9,3.5-23.3,0s-6.5-9.4-0.1-13S29.5,61.7,36,65.2z"/>
			</g>
			<g class="st95">
				<g class="st96">
					
						<linearGradient id="SVGID_58_" gradientUnits="userSpaceOnUse" x1="14.0424" y1="61.6199" x2="12.9824" y2="19.3799" gradientTransform="matrix(1 0 0 -1 0 94)">
						<stop  offset="1.000000e-02" style="stop-color:#00E7FF"/>
						<stop  offset="1" style="stop-color:#01DFF9"/>
					</linearGradient>
					<polygon class="st97" points="15,67.8 12.5,67.8 12.1,36.2 14.4,35.8 					"/>
				</g>
			</g>
			<g>
				<g>
					
						<linearGradient id="SVGID_59_" gradientUnits="userSpaceOnUse" x1="21.065" y1="70.6161" x2="20.335" y2="41.9039" gradientTransform="matrix(1 0 0 -1 0 94)">
						<stop  offset="0" style="stop-color:#01DFF9"/>
						<stop  offset="0.99" style="stop-color:#00E7FF"/>
					</linearGradient>
					<rect x="19.7" y="23.4" class="st98" width="2" height="28.7"/>
				</g>
			</g>
			<path class="st99" d="M20.5,67c0,0,1.4,0.2,1,1s-1.9,2-2.1,2.5s-1.5,2.3-1.9,2.1s-1.5,0.1-1.4-1.9S18.7,66.9,20.5,67z"/>
			<path class="st99" d="M23.1,74.5c0,0-0.6,2,1,2.4s1.2-0.6,4.8,0.3s4.1-0.9,4-1.3s-2.5-1.2-3.3-1.4l-2.3-0.6H23L23.1,74.5z"/>
			<path class="st100" d="M16.3,40.1c0,0-0.1,11.8-0.1,13.1s-1.5,11.9-0.6,16.5c0,0,2.6,2.6,4.9,0c0,0,0.7-13.2,1.4-16.2
				s0.4-12,0.4-12L16.3,40.1z"/>
			<path class="st100" d="M20.8,41.7L22,57c0,0,0.4,15,0.7,17.2c0,0,4.9,1.2,5.4-1.1c0,0-0.2-13.2,0-16s0.4-10.5-0.7-15
				S20.8,41.7,20.8,41.7z"/>
			<path class="st101" d="M22.7,74.2C22.4,72,22,57,22,57c-0.4-5.1-0.8-10.3-1-13.1l3,0.8c1.4,4.6,2.1,9.3,1.8,14.1
				c-0.3,6.6-0.4,13.1-0.4,15.7C24.5,74.5,23.6,74.4,22.7,74.2z"/>
			<path class="st101" d="M15.6,69.7c-0.9-4.6,0.6-15.1,0.6-16.5s0.1-12,0.1-13.1l2.6,2c0,0,0.8,8.5,0,13.3s-0.3,13-0.7,15.4
				C17.2,70.7,16.3,70.3,15.6,69.7z"/>
			<path class="st102" d="M14.9,20.6c1.5,0,2.5,4.7,3.9,8.5l7-3.1c0.5-0.5,0.9-1,1.2-1.6c0.3-0.6,0.6-0.7,0.8-0.7s-0.1,0.5-0.1,0.8
				s-0.5,0.8-0.1,0.8s2.1-1.1,2.5-0.8s0.6,0.1-0.5,1.3c-0.8,0.8-1.8,1.3-2.8,1.7c-2.4,2.1-5.1,3.9-8.1,5.1l0,0
				c-0.4,0.1-0.7,0.1-1.1,0c-2.3-1.9-3.6-5.7-4-9.2S14.9,20.6,14.9,20.6z"/>
			<path class="st6" d="M15.5,20.4c-0.8-0.3-2.2-0.1-2.2,2.2s0,3.2,0.8,5.1s3.2,0.5,4-1.1S17,20.8,15.5,20.4z"/>
			<path class="st93" d="M15,20c0,0-2.2,1.1-0.9,4.9s2.3,6.3,2.3,7.7c-0.1,2.4-0.4,4.8-0.8,7.2c0,0-0.3,3.2,6.9,4.9
				c0,0,6,0.5,4.9-3.4c-0.9-3.8-1.3-7.8-1.4-11.7c0.1-1.5,1-4.5-2.8-6.4S17.4,19.8,15,20z"/>
			<path class="st6" d="M26,29.6c0.1,3.9,0.5,7.9,1.4,11.7c0.8,2.7-1.9,3.3-3.6,3.4c-0.5-1.7,0.3-4.8-1-8.6s-1.5-7.8-0.7-10.3
				s1.5-1.7,2.2-2C26.8,25.8,26.1,28.3,26,29.6z"/>
			<path class="st5" d="M15.6,39.8c0.4-2.4,0.7-4.8,0.8-7.2c0-1.4-1-3.9-2.3-7.7s0.1-4.6,0.9-4.9c0.4,1.8,6.9,2.5,6.8,3.7
				S20,26.5,19.9,29c-0.1,2.7,0.2,5.4,0.8,8c0.4,2.4,0.4,4.8,0,7.2C15.4,42.4,15.6,39.8,15.6,39.8z"/>
			<path class="st102" d="M17.6,18c0.2,1.1,0,2.3-0.4,3.3c-0.6,1.1,4.2,2.1,4.3,1c-0.6-1.2-0.5-2.7,0.1-3.9
				C22.2,17.3,17.6,18,17.6,18z"/>
			<path class="st103" d="M17.3,21.3c0.4-0.9,0.5-1.9,0.4-2.9l3.5,1.7l0,0c-0.2,0-2.5,0.6-3,2.3C17.5,22.1,17,21.8,17.3,21.3z"/>
			<path class="st102" d="M22.5,12.6c0.4,1.1,0.6,2.2,0.6,3.4c-0.1,1.7,0.2,2,0.1,2.7c0,0.4-0.2,0.8-0.4,1.1c-0.5,0.6-1.6,0.8-3,0.3
				s-3.7-3-3-5.2S19.8,10.9,22.5,12.6z"/>
			<path class="st104" d="M16.9,17.2c0.7-1.5,1.5-3,2.4-4.4c0.3-0.4,0.7-0.7,1.2-0.9c0.7,0.1,1.4,0.3,2,0.7l0.4,1.2
				c-0.4,0.4-1.3,1-1.4,1.4c-0.2,1-0.2,2,0.2,3c0.3,0.6-0.8,1.5-0.6,2.1l0,0l-1.3-0.2C18.5,19.6,17.4,18.5,16.9,17.2z"/>
			<path class="st105" d="M22.6,12.2c0.2,0.8-0.2,1.6-0.9,2c-0.6,0.6-0.9,1.4-0.7,2.2c0.1,0.6,0.2,1.1,0.2,1.7
				c-0.2,0.3-0.9-0.6-1.3-0.6s-0.5,1,0.3,1.9s-1.3,1.3-2.4,0.5c-0.6-0.5-1.2-1.2-1.5-2c-1-2.1-1.1-4.5,1.3-5.9
				C19.2,11,21.1,11.1,22.6,12.2z"/>
			<path class="st106" d="M17.8,19.9c-0.7-0.5-1.3-1.1-1.7-1.9c-1.1-2.1-1.3-5.5,1.5-6.5c1.7-0.7,3.6-0.4,5,0.7v0.6
				c-0.8,0.1-2.5,0.3-3,1.2s-1.5,0.8-1.4,2.2S18,19.3,20.3,20C19.5,20.4,18.5,20.4,17.8,19.9z"/>
			<path class="st5" d="M21.2,21.7l1.5,1.2c0,0-4.7,1.5-6.2-0.8c-0.2-0.7,0.2-1.4,0.9-1.7C17.4,20.4,17.6,22.3,21.2,21.7z"/>
			<path class="st102" d="M24,24.1c1.4,0,2.4,4.7,3.9,8.5l7-3.1c0.4-0.5,0.8-1,1.1-1.6c0.3-0.6,0.7-0.7,0.8-0.7s0,0.5-0.1,0.8
				s-0.5,0.8-0.1,0.7s2.1-1,2.6-0.7s0.5,0-0.6,1.3c-0.8,0.8-1.7,1.4-2.8,1.7c-2.4,2.1-5.1,3.9-8,5.1l0,0c-0.4,0.1-0.7,0.1-1.1,0
				c-2.4-1.9-3.6-5.7-4.1-9.3S24,24.1,24,24.1z"/>
			<path class="st5" d="M24.5,23.8c-0.7-0.2-2.2,0-2.2,2.3c-0.1,1.7,0.2,3.5,0.9,5.1c0.4,0.9,3.2,0.5,3.9-1.1S26.1,24.3,24.5,23.8z"
				/>
			<g class="st107">
				<g class="st96">
					<path class="st5" d="M40.8,70.7V28.3L7.9,36.2v34.5c-0.5,2.6,1.1,5.4,4.8,7.5c6.4,3.5,16.9,3.5,23.3,0
						C39.7,76.1,41.3,73.4,40.8,70.7z"/>
				</g>
			</g>
		</g>
	</g>
</g>
<g id="Layer_2" class="st95">
	<g id="Layer_2_2_" class="st96">
		<rect x="-86.8" y="29.5" class="st5" width="66.7" height="34.6"/>
		<rect x="-86.8" y="-13.8" class="st6" width="66.7" height="34.6"/>
		<rect x="-86.8" y="69.8" class="st100" width="66.7" height="34.6"/>
	</g>
</g>
</svg>
