<?xml version="1.0" encoding="utf-8"?>
<!-- Generator: Adobe Illustrator 24.0.0, SVG Export Plug-In . SVG Version: 6.00 Build 0)  -->
<svg version="1.1" id="Layer_1" xmlns="http://www.w3.org/2000/svg" xmlns:xlink="http://www.w3.org/1999/xlink" x="0px" y="0px"
	 viewBox="0 0 343.1 270" style="enable-background:new 0 0 343.1 270;" xml:space="preserve">
<style type="text/css">
	.st0{fill:#E5E5E5;}
	.st1{fill:#FFFFFF;}
	.st2{fill:#D1EEEB;}
	.st3{fill:#F0FFFC;}
	.st4{fill:#C9FBF2;}
	.st5{fill:#3F6D64;}
	.st6{fill:#004345;}
	.st7{fill:#101010;}
	.st8{fill:#9BC4BE;}
	.st9{opacity:0.46;fill:url(#SVGID_1_);enable-background:new    ;}
	.st10{opacity:0.18;fill:#FFFFFF;enable-background:new    ;}
	.st11{fill:#51020F;}
	.st12{fill:#7A0110;}
	.st13{opacity:0.78;fill:url(#SVGID_2_);enable-background:new    ;}
	.st14{fill:url(#SVGID_3_);}
	.st15{opacity:0.51;fill:#004949;enable-background:new    ;}
	.st16{fill:#003960;}
	.st17{fill:#FF3C00;}
	.st18{opacity:0.26;fill:url(#SVGID_4_);enable-background:new    ;}
	.st19{fill:#BA2700;}
	.st20{opacity:0.41;fill:url(#SVGID_5_);enable-background:new    ;}
	.st21{fill:url(#SVGID_6_);}
	.st22{fill:url(#SVGID_7_);}
	.st23{fill:#FFD400;}
	.st24{fill:url(#SVGID_8_);}
	.st25{fill:url(#SVGID_9_);}
	.st26{fill:#000538;}
	.st27{fill:#FF9B73;}
	.st28{fill:#FFB68E;}
	.st29{fill:#D70010;}
	.st30{fill:#60656D;}
	.st31{fill:#9BA0A8;}
	.st32{fill:url(#SVGID_10_);}
	.st33{fill:#DCF7F4;}
	.st34{fill:#8BD1C3;}
	.st35{fill:#FF9843;}
	.st36{fill:url(#SVGID_11_);}
	.st37{opacity:0.37;}
	.st38{fill:#004E15;}
	.st39{fill:#2F375F;}
	.st40{opacity:0.84;fill:url(#SVGID_12_);enable-background:new    ;}
	.st41{fill:#F4F4F4;}
	.st42{opacity:0.39;}
	.st43{fill:url(#SVGID_13_);}
	.st44{fill:url(#SVGID_14_);}
	.st45{fill:#004949;}
	.st46{fill:#5B5B5B;}
	.st47{fill:#878787;}
	.st48{fill:#00898D;}
	.st49{fill:#18C9C9;}
	.st50{fill:#4F7F77;}
	.st51{fill:url(#SVGID_15_);}
	.st52{fill:url(#SVGID_16_);}
	.st53{fill:url(#SVGID_17_);}
	.st54{fill:url(#SVGID_18_);}
	.st55{fill:#2B2B2B;}
	.st56{fill:#B20218;}
	.st57{fill:url(#SVGID_19_);}
	.st58{fill:#3F3F3F;}
	.st59{fill:url(#SVGID_20_);}
	.st60{fill:url(#SVGID_21_);}
	.st61{fill:url(#SVGID_22_);}
	.st62{opacity:0.26;fill:#004345;enable-background:new    ;}
	.st63{fill:#DBDBDB;}
	.st64{fill:#191919;}
	.st65{fill:#172755;}
	.st66{fill:#161663;}
	.st67{fill:url(#SVGID_23_);}
	.st68{fill:url(#SVGID_24_);}
	.st69{fill:#000423;}
	.st70{fill:url(#SVGID_25_);}
	.st71{fill:#E29A76;}
	.st72{fill:url(#SVGID_26_);}
	.st73{fill:#4B6D6C;}
	.st74{fill:#799393;}
	.st75{fill:url(#SVGID_27_);}
	.st76{fill:#15346B;}
	.st77{opacity:0.52;}
	.st78{display:none;}
	.st79{display:inline;fill:#D70010;}
	.st80{display:inline;fill:#7A0110;}
	.st81{display:inline;fill:#101010;}
</style>
<g id="Layer_1_1_">
	<title>2</title>
	<g id="Layer_2_1_">
		<g id="_ÎÓÈ_1">
			<ellipse class="st0" cx="254.5" cy="264.4" rx="27.5" ry="5.6"/>
			<ellipse class="st0" cx="181" cy="264.4" rx="27.5" ry="5.6"/>
			<ellipse class="st0" cx="45.7" cy="236.4" rx="29" ry="5.6"/>
			<path class="st0" d="M281.2,66h19.7c7.4,0,11.4-2.2,13.7-5.8s3.5-7.3,0.9-9.8c-5.7-5.5-11.8,1.1-11.8,1.1s1.3-14.2-9.4-14.1
				S283.1,58,283.1,58s-7.7-7.6-9.8-1.8c-0.5,1.7-0.1,3.6,1.1,4.9C276.7,64.3,280.5,66,281.2,66z"/>
			<path class="st0" d="M312.1,173.5c0,0,8.9-14.3,6.6-44.1s-6.2-42.8-11.9-52.7c-6.9-12-6.9-27.9-6.9-27.9s-1.3,9.5,0.2,16.8
				s5.8,17.2,5.8,17.2s-8.9-3.7-13.6-15.9c-3.4-8.9-4.2-9.6-4.2-9.6s2.2,12.2,6.4,18.3s12.8,10.3,14.9,19.2
				c4.5,20,4.2,40.8-0.9,60.6c-1.9,6.6-4.2,13.1-6.8,19.4C301.7,174.8,306.6,178.2,312.1,173.5z"/>
			<path class="st1" d="M280.3,64.7h-0.1c-0.3-0.2-6.4-4.3-5.6-8c0.1-0.5,0.5-0.8,0.9-1c1.2-0.6,3.3,0.6,5.4,1.7s2.9,1.6,3.4,1.3
				l0,0v-0.3c1.1-12,4.2-16.6,6.7-18.3c1.6-1.2,3.7-1.6,5.7-1c6.4,1.7,5.2,9.7,4.6,13.5c-0.1,0.4-0.1,0.8-0.2,1.1
				c2.8-2.9,7.4-4.7,10.5-3.8c1.6,0.3,2.9,1.7,3,3.4c1,5.6-6.8,8.5-7.1,8.6L280.3,64.7z M276.2,56.2h-0.4c-0.2,0.1-0.3,0.3-0.4,0.5
				c-0.7,2.9,4.3,6.5,5.1,7l26.8-2.9c0,0,7.4-2.7,6.5-7.7c-0.1-1.3-1.1-2.4-2.4-2.7c-2.9-0.8-7.5,1-9.9,3.9
				c-0.2,0.2-0.5,0.6-0.9,0.4s-0.4-0.8-0.1-2.5c0.5-3.6,1.7-11.1-4-12.6c-1.7-0.5-3.6-0.2-5.1,0.8c-2.3,1.7-5.2,6.1-6.2,17.8v0.3
				c0,0.3-0.2,0.6-0.5,0.8c-0.7,0.4-2-0.3-4.1-1.4S277.2,56.2,276.2,56.2L276.2,56.2z"/>
			<path class="st0" d="M330.1,211.7c0-7.3-60.2-16.3-149-16.3S21,205.6,21,212.9s72,13.2,160.9,13.2S330.1,219,330.1,211.7z"/>
			<path class="st0" d="M70.4,199.7c-33.3-0.2-63.3-28.8-57.6-62.8c0.7-4.3,1.6-8.8,3.8-12.7c15.7-28,39.1-10.9,35.9-27.4
				c-7.9-40.5,21.4-56.2,48.3-47.9C136.2,59.8,149,3,177.5,15.4c12.8,5.6,5,16.5,10.6,28c11.3,23,2.7,29.9,10.3,40.1
				c9.9,13.1,39.5-20.6,74-1.3c26.8,15,2.8,41,6.3,51.9c5.7,17.8,25.1,9.9,33.4,17.8c5.7,5.5,8.2,9.4,7.7,18.7s-4.7,15.6-5.3,15.6
				L158,183L70.4,199.7z"/>
			<polygon class="st1" points="260.8,157.9 175.7,157.9 177.1,161.8 268,161.5 			"/>
			<polygon class="st2" points="268.5,171.7 268.5,170.3 268.2,171.7 			"/>
			<polygon class="st2" points="259.4,212.8 268.5,211.2 268.5,205.8 248.2,204.9 268.5,204 268,203.9 257.1,201.1 268,201.1 
				266.2,193.7 268.5,189.3 268.5,173.1 268,173.8 253.8,173.8 267.9,171.8 266.7,168.7 268.5,166.6 268.5,164 248.2,164 
				268.5,162.1 268.5,161.5 164.2,161.5 164.2,215.1 268.5,215.1 268.5,212.8 			"/>
			<polygon class="st3" points="238.2,176.4 268,176.4 253.1,181 			"/>
			<polygon class="st3" points="211.2,203.9 250.4,203.9 230.3,207 			"/>
			<polygon class="st3" points="227.5,192.7 266.7,192.7 254.6,195.7 			"/>
			<polygon class="st3" points="240.4,168.7 266.7,168.7 259.4,170.5 			"/>
			<polygon class="st3" points="242.1,211.4 268.4,211.4 261.1,213.2 			"/>
			<polygon class="st2" points="200.5,160.3 201.1,149.4 192.9,147.1 193,137.3 209.7,137.3 203.9,135 203.9,130.3 249.6,130.3 
				249.6,137.6 243.9,137.8 243.9,147.1 254.5,147.5 254.5,160.3 			"/>
			<rect x="204.5" y="127.4" class="st2" width="52.6" height="2.6"/>
			<rect x="199.9" y="120.8" class="st2" width="52.6" height="7"/>
			<rect x="202.4" y="113.8" class="st2" width="52.6" height="7"/>
			<rect x="199.9" y="110.3" class="st2" width="52.6" height="7"/>
			<polygon class="st2" points="252.5,106 195.7,106.1 196.2,115.7 252.5,115.7 			"/>
			<rect x="195.6" y="132.3" class="st2" width="56.3" height="11.1"/>
			<rect x="198" y="129.6" class="st2" width="52.6" height="2.6"/>
			<rect x="202.7" y="145.8" class="st2" width="49.9" height="2.6"/>
			<polygon class="st1" points="249.7,120.7 230.4,120.7 244.7,123.7 			"/>
			<polygon class="st1" points="262.5,103.4 202.4,103.3 195.2,106.3 252.6,106.8 			"/>
			<polygon class="st1" points="252.5,154.4 242.4,154.4 250.5,157.1 			"/>
			<polygon class="st1" points="249,108.9 229.7,108.9 232.6,110.3 			"/>
			<polygon class="st4" points="253.7,123.1 247.4,124.9 253.9,124.9 			"/>
			<polygon class="st1" points="252.5,137.5 243.9,137.8 251.9,136 			"/>
			<polygon class="st5" points="229.5,94.3 233.2,94.3 233.2,19.3 229.5,22.9 			"/>
			<rect x="253.4" y="219.2" class="st5" width="40.4" height="1.5"/>
			<polygon class="st1" points="290.1,216.5 248.8,216.5 253.4,219.2 293.8,219.2 			"/>
			<polygon class="st6" points="248.8,216.5 248.8,218.2 253.4,220.7 253.4,219.2 			"/>
			<path class="st7" d="M258.2,218.5c-0.2,0-0.4-0.3-0.5-0.8c-0.1-0.4,0-0.9,0.3-1.2l29.6-19.1l-29.5-22.5c-0.3-0.3-0.4-0.6-0.4-1
				c0-0.3,0.1-0.7,0.4-0.9l29.6-19l-28.3-23.9c-0.3-0.4-0.4-0.9-0.2-1.3c0.1-0.5,0.3-0.8,0.6-0.6l29.6,24.9c0.2,0.3,0.3,0.6,0.3,1
				s-0.1,0.7-0.4,1L259.8,174l29.6,22.5c0.2,0.3,0.3,0.6,0.3,1c0,0.3-0.1,0.7-0.4,0.9l-31,20L258.2,218.5z"/>
			<path class="st7" d="M289.4,218.5h-0.1l-31-20c-0.3-0.2-0.4-0.6-0.4-0.9c0-0.4,0.1-0.7,0.3-1l29.6-22.6l-29.5-18.9
				c-0.3-0.3-0.4-0.6-0.4-1s0.1-0.7,0.3-1l29.6-24.9c0.2-0.2,0.5,0.1,0.6,0.6c0.1,0.4,0,0.9-0.2,1.3L259.9,154l29.6,19
				c0.3,0.2,0.4,0.6,0.4,0.9c0,0.4-0.1,0.7-0.4,1l-29.6,22.5l29.7,19.1c0.3,0.3,0.4,0.8,0.3,1.2
				C289.8,218.2,289.6,218.5,289.4,218.5z"/>
			<polygon class="st1" points="38.8,154.6 143.8,154.6 142.4,158.5 51.5,157.4 			"/>
			<polygon class="st2" points="155.4,211.7 51,211.7 51.5,157.4 155.4,158.1 			"/>
			<polygon class="st8" points="51.5,211.7 45.5,210 45.1,156.4 51.5,157.4 			"/>
			<polygon class="st3" points="81.3,173.1 51.5,173.1 66.4,177.7 			"/>
			<polygon class="st8" points="51.5,200.6 62.4,197.8 51.5,197.8 53.3,190.3 50.8,185.6 			"/>
			<polygon class="st8" points="51.5,170.5 65.7,170.5 50.1,168.2 			"/>
			<polygon class="st8" points="49,160.7 71.3,160.7 50.1,158.7 			"/>
			<polygon class="st8" points="49,202.6 71.3,201.6 50.1,200.6 			"/>
			<polygon class="st8" points="47.9,209.5 60.1,209.5 49,207.5 			"/>
			<polygon class="st8" points="51.4,168.9 52.8,165.4 50.1,162.2 			"/>
			<polygon class="st8" points="38.8,208.2 38.8,203.5 45.5,205.4 38.8,202.8 38.8,196.7 42.5,197 38.8,195.7 38.8,184.9 
				40.1,182.4 38.7,179.9 38.7,176.4 44.8,176.1 38.6,174.1 38.6,168.2 39.6,166.1 38.8,164.1 38.8,159.7 44.5,161.7 38.8,158.1 
				38.8,154.6 49,156.9 47.9,210.6 			"/>
			<polygon class="st3" points="108.3,200.6 69.1,200.6 89.2,203.7 			"/>
			<polygon class="st3" points="92,189.3 52.8,189.3 64.9,192.4 			"/>
			<polygon class="st3" points="125.2,178 86,178 98,181 			"/>
			<polygon class="st3" points="79.1,165.4 52.8,165.4 60.1,167.2 			"/>
			<polygon class="st3" points="77.4,208.1 51.1,208.1 58.5,209.9 			"/>
			<polygon class="st1" points="51.5,191.1 39.8,187.8 42.9,191.2 			"/>
			<polygon class="st8" points="65,157 56.6,154.7 56.6,151.1 58.4,150.5 56.7,148.6 56.7,134.5 59.3,134.5 57.1,132.7 57.1,122.9 
				56,122 57.1,120.7 58.2,120.3 58.2,110.5 59.5,109.2 58,107.7 57,100.1 69.5,103.6 80.1,140.1 75.1,156.4 			"/>
			<polygon class="st2" points="119,157 118.4,146 126.6,143.8 126.5,134 109.8,134 115.6,131.7 115.6,127 69.9,127 69.9,134.3 
				75.6,134.5 75.6,143.8 65,144.2 65,157 			"/>
			<rect x="62.3" y="124.1" class="st2" width="52.6" height="2.6"/>
			<rect x="67" y="117.5" class="st2" width="52.6" height="7"/>
			<rect x="64.4" y="110.5" class="st2" width="52.6" height="7"/>
			<rect x="67" y="107" class="st2" width="52.6" height="7"/>
			<polygon class="st2" points="67,102.7 123.8,102.8 123.3,112.4 67,112.4 			"/>
			<rect x="67.6" y="128.9" class="st2" width="56.3" height="11.1"/>
			<rect x="68.9" y="126.3" class="st2" width="52.6" height="2.6"/>
			<rect x="66.9" y="142.5" class="st2" width="49.9" height="2.6"/>
			<polygon class="st1" points="69.8,117.4 89.1,117.4 74.8,120.4 			"/>
			<polygon class="st1" points="57,100.1 117.1,100 124.3,103 66.9,103.4 			"/>
			<polygon class="st1" points="67,151.1 77.1,151.1 69,153.8 			"/>
			<polygon class="st1" points="70.5,105.5 89.8,105.5 86.9,107 			"/>
			<polygon class="st4" points="65.8,119.8 72.1,121.6 65.6,121.6 			"/>
			<polygon class="st1" points="67,134.2 75.6,134.5 67.6,132.7 			"/>
			<g>
				
					<linearGradient id="SVGID_1_" gradientUnits="userSpaceOnUse" x1="42.3057" y1="1709.7418" x2="207.7957" y2="1825.5619" gradientTransform="matrix(1 0 0 1 0 -1616)">
					<stop  offset="0.12" style="stop-color:#005E7D"/>
					<stop  offset="0.67" style="stop-color:#005E7D"/>
				</linearGradient>
				<path class="st9" d="M218.6,217.5c-10.5,8.1-67,9.2-85.5-1.5s-29.3-52.9-29.5-54s-3.8-1.1-4.4-1.9c-4.3-5.5-11.4-25.6-13.3-47.2
					C83.8,88.7,94.8,75,94.8,75s116.3,69.9,135.5,103C233.8,184,230.3,208.6,218.6,217.5z"/>
			</g>
			<path class="st0" d="M321.5,188.2c1.1-0.1,2.2-0.5,3.1-1.2c3.8-3,14.8-12.3,12-15.2s-12,11.7-11.7,6.9s18.7-25.3,16.1-30.1
				s-10.9,14.7-12,15.2s3.8-12.9,0.6-15.2s-2.8,19.2-4.2,19.6s0-11.5-2.9-11.6s1.8,13.3,1,15.7s-3.2,2.2-5.9-0.2s-4.5,5.3,0.8,9.6
				c3,2.5-0.4,4.2-2.4,0.9s-4.8-6.5-5.4-3.7s5,6.4,7.4,8.3c1,0.7,2.1,1,3.3,1H321.5z"/>
			<path class="st0" d="M256.2,62.8c-1.5,1.9-4.2,3.2-6.3,1.1s0.6-7.4,4.2-7.3c3.6,0.1,6.3,2.8,5,6.2c-1.3,3.4-4.2,2.6-6.3,1
				c-0.3-0.1-0.5,0.1-0.6,0.4c0,0.1,0,0.3,0.1,0.4c1.8,1.3,4.8,2.1,6.6,0.2c1.9-2,1.9-5.1,0-7.1c-2.5-2.5-6.5-2.7-9.2-0.3
				c-2.1,1.8-2.3,5-0.4,7.1c0.2,0.3,0.5,0.5,0.8,0.7c2.4,1.6,5.2,0.1,6.8-1.9C257.3,62.8,256.6,62.3,256.2,62.8L256.2,62.8z"/>
			<path class="st0" d="M253.1,52.3c0.1-1,0.2-2.1,0.5-3.1c0.2-0.6-0.7-0.9-0.8-0.3c-0.3,1.1-0.5,2.2-0.6,3.3
				C252.1,52.8,253,52.9,253.1,52.3L253.1,52.3z"/>
			<path class="st0" d="M260.4,54.3c1-0.8,2-1.7,2.9-2.7c0.4-0.4-0.3-0.9-0.7-0.5l-2.7,2.5C259.4,54,260,54.7,260.4,54.3L260.4,54.3
				z"/>
			<path class="st0" d="M265.1,59.6c1.2-0.2,2.5-0.3,3.7-0.2c0.6,0.1,0.7-0.8,0.1-0.9c-1.3-0.1-2.7,0-4,0.3
				C264.4,58.9,264.5,59.8,265.1,59.6L265.1,59.6z"/>
			<path class="st0" d="M261.7,68.4c1,0.9,1.8,1.9,2.5,3c0.3,0.5,1.1,0.1,0.8-0.4c-0.8-1.2-1.8-2.4-2.8-3.4
				C261.8,67.2,261.3,68,261.7,68.4z"/>
			<path class="st0" d="M245.5,55.6c1,0.1,1.9,0.4,2.7,0.9c0.5,0.2,1-0.5,0.5-0.8c-1-0.5-2.1-0.9-3.2-1
				C244.9,54.6,244.9,55.5,245.5,55.6z"/>
			<path class="st10" d="M141.6,84.5c0,0,19.5-3.5,37.9,23.6s14.4,52.1,13.8,53s-14.1-39.1-43.9-59.2c-11.8-7.9-27.1-2-27.1-2.2
				C121.7,97.5,130.7,84.8,141.6,84.5z"/>
			<path class="st11" d="M221.5,68.8c26.9,49.2,31.6,100.4,0.7,124c-1.2,0.9-7.9,6-13.2,8.6c-38.8,19-83.5-2.4-111.4-53.5
				S74.9,37.8,109.1,16c1.6-1.1,13.4-8.6,15.1-9.4C158.2-10.2,195,20.2,221.5,68.8z"/>
			
				<ellipse transform="matrix(0.9063 -0.4226 0.4226 0.9063 -26.3763 82.0167)" class="st12" cx="171.8" cy="100.5" rx="73.2" ry="105.5"/>
			<g>
				
					<linearGradient id="SVGID_2_" gradientUnits="userSpaceOnUse" x1="-122.0071" y1="1784.6427" x2="-156.7771" y2="1909.5428" gradientTransform="matrix(1.06 -9.000000e-02 9.000000e-02 1.04 161.87 -1878.5699)">
					<stop  offset="6.000000e-02" style="stop-color:#FFFFFF"/>
					<stop  offset="0.43" style="stop-color:#FFFFFF"/>
					<stop  offset="1" style="stop-color:#FFFFFF"/>
				</linearGradient>
				<path class="st13" d="M232.1,58.3C205.1,9.9,155.3-13.1,122,7.7c-8.5,5.4-15.4,12.9-20.1,21.8c12.9,24.7,40.2,62.5,90,82.3
					c18.8,7.4,42.6,9.2,59.3,8.1C250.8,100.2,243.3,78.5,232.1,58.3z"/>
			</g>
			
				<ellipse transform="matrix(0.907 -0.421 0.421 0.907 -24.9182 82.7228)" class="st11" cx="174.9" cy="97.8" rx="65.1" ry="93.5"/>
			
				<linearGradient id="SVGID_3_" gradientUnits="userSpaceOnUse" x1="-1097.2717" y1="3114.147" x2="-946.9818" y2="3072.137" gradientTransform="matrix(0.8616 -0.5075 0.5075 0.8616 -508.2218 -3093.3635)">
				<stop  offset="9.000000e-02" style="stop-color:#D70010"/>
				<stop  offset="0.87" style="stop-color:#7A0110"/>
			</linearGradient>
			<path class="st14" d="M132.3,15.2c32.6-15.1,76.7,10.6,98.4,57.4s12.9,97.1-19.7,112.2c-32.6,15.1-76.7-10.6-98.4-57.4
				S99.7,30.4,132.3,15.2z"/>
			<path class="st15" d="M181.8,115.4l-3.2,0.4c0,0-3-4.7-7.8-6.4s-3.5-4.4-3.5-4.4l-35.8,3.7l-20.7-4.3v-1.8l22.9-2.7l39.1,2.1
				l8.3,9.5L181.8,115.4z"/>
			<path class="st16" d="M162.7,11c-12.8-2.5-25.4-0.7-36.1,6.2c-25.6,16.3-30.9,56.7-22.4,86.2l71.2-2.2L162.7,11z"/>
			<path class="st17" d="M119.1,23.4l52.3,81.7l6.6-7.5l-15.1-85.8C162.9,11.8,133.7,7,119.1,23.4z"/>
			<g>
				
					<linearGradient id="SVGID_4_" gradientUnits="userSpaceOnUse" x1="299.4413" y1="1425.2577" x2="256.0513" y2="1512.038" gradientTransform="matrix(0.9979 6.453231e-02 -6.453231e-02 0.9979 0.5015 -1424.1417)">
					<stop  offset="6.000000e-02" style="stop-color:#FFFFFF"/>
					<stop  offset="0.43" style="stop-color:#FFFFFF"/>
					<stop  offset="1" style="stop-color:#FFFFFF"/>
				</linearGradient>
				<path class="st18" d="M138.8,18.6c0,0,13-6.6,33.7,0.8c23.7,8.4,37.2,27.2,46.9,45.8s11.6,28,11.6,28s-24.2,19.2-49.6,7
					C166.9,93.2,138.8,18.6,138.8,18.6z"/>
			</g>
			<polygon class="st19" points="167.5,70.9 170.5,101.2 174,100.3 177.1,93.5 			"/>
			<g>
				
					<linearGradient id="SVGID_5_" gradientUnits="userSpaceOnUse" x1="-966.749" y1="3103.2488" x2="-1118.6189" y2="3004.8088" gradientTransform="matrix(0.86 -0.51 0.51 0.86 -513.34 -3101.22)">
					<stop  offset="9.000000e-02" style="stop-color:#D70010"/>
					<stop  offset="0.87" style="stop-color:#7A0110"/>
				</linearGradient>
				<path class="st20" d="M131.9,21.8c30.4-19.5,76.4,9.8,98.2,56.5c6.6,14.1,9,23.1,11.4,30.1c-2.2-15.4-7.2-30.3-14.7-43.9
					C202.1,19.3,157-3.1,126.9,17c-24.3,16.2-31.7,51.9-22.9,85.7C99.6,71.5,111.1,35.1,131.9,21.8z"/>
			</g>
			
				<linearGradient id="SVGID_6_" gradientUnits="userSpaceOnUse" x1="444.5255" y1="2716.5952" x2="432.5353" y2="2719.2654" gradientTransform="matrix(0.85 -0.11 0.1 0.74 -471.66 -1886.61)">
				<stop  offset="0.11" style="stop-color:#FFD234"/>
				<stop  offset="0.19" style="stop-color:#FFD234"/>
				<stop  offset="0.99" style="stop-color:#FFB000"/>
			</linearGradient>
			<polygon class="st21" points="170.7,56 167.5,70.9 174.7,96.3 176.3,96.1 177.9,95.9 177.9,69.7 			"/>
			
				<linearGradient id="SVGID_7_" gradientUnits="userSpaceOnUse" x1="-5283.4937" y1="2929.0652" x2="-5271.7134" y2="2929.0652" gradientTransform="matrix(-5.000000e-02 -0.74 1.11 -7.000000e-02 -3373.3601 -3598.6902)">
				<stop  offset="0.19" style="stop-color:#FFD234"/>
				<stop  offset="0.99" style="stop-color:#FFB000"/>
			</linearGradient>
			<polygon class="st22" points="110.7,102.6 133,105.3 173,102.8 172.9,101.5 172.8,100.2 132.5,96.7 			"/>
			<path class="st19" d="M181.6,97.4c-2-3.7-5.7-3.8-8.9-1.7s-4.9,5.6-2.9,9.3c0.1,0.3,0.3,0.6,0.5,0.8l0,0c0.4,0.7,0.9,1.3,1.6,1.7
				l0.7,0.4c1.1,0.7,4,2.2,5.1,3c1.5,1.2,2.7,2.7,3.7,4.3l-0.8-4.9l2.7-1.6c0,0-0.5-0.3-0.7-2.9s0.4-5.4-0.6-7.5l0,0L181.6,97.4z"/>
			<path class="st23" d="M182.7,96.7c-2-3.7-5.6-3.8-8.9-1.7s-4.9,5.5-2.9,9.2l0.5,0.9l0,0c0.4,0.6,1,1.2,1.6,1.6l0.7,0.5
				c1.1,0.7,2.3,1.3,3.4,2.1s2.1,2,2.1,2l2.6-1.7l2.6-1.7c0,0-0.5-0.2-0.7-2.8s0.4-5.4-0.6-7.5l0,0C183,97.3,182.9,97,182.7,96.7z"
				/>
			
				<linearGradient id="SVGID_8_" gradientUnits="userSpaceOnUse" x1="-1048.0919" y1="3113.1965" x2="-1036.412" y2="3121.3867" gradientTransform="matrix(0.86 -0.51 0.51 0.86 -513.34 -3101.22)">
				<stop  offset="0.17" style="stop-color:#E0F3F4"/>
				<stop  offset="0.79" style="stop-color:#4D98A0"/>
			</linearGradient>
			<path class="st24" d="M184.1,107.4c-0.6,0.9-1.4,1.6-2.3,2.2c-0.9,0.6-1.9,1-2.9,1.1c0,0-0.5,1.3-0.1,1.4s0.4,0,0.4,0
				s1.5,3,2.6,3.3s2.5-0.7,2.8-0.9c0.8-0.5,1.5-1.2,1.9-2.1c0.3-1.2-1.4-4-1.4-4s0.1,0,0.2-0.4S184.1,107.4,184.1,107.4z"/>
			<path d="M180,110.7l-2.9-4.4l-0.4,0.3c-0.5,0.1-1-0.1-1.3-0.4c-1.2-1.1-1.9-2.5-1.5-3.1s0.4-0.5,1.1-0.1c0.8,0.7,1.6,1.6,2.2,2.5
				c0.1-0.3,0.3-0.5,0.3-0.8l-0.6-0.7c-0.4-0.6-0.9-1.7-0.5-2.1s0.2-0.1,0.3-0.1s1,1,1.2,1.5c0.2,0.3,0.3,0.7,0.2,1.1l0.5,0.2h0.4
				l0.3,0.4c-0.2,0.2-0.4,0.2-0.7,0.2L178,105c-0.1,0.4-0.3,0.7-0.5,1c1.3,1.9,2.7,4.1,2.9,4.5L180,110.7z M174.4,103.3
				c-0.1,0-0.1,0-0.1,0.1l0,0c-0.1,0.2,0.2,1.3,1.5,2.5c0.2,0.2,0.4,0.2,0.7,0.2l0.3-0.2c-0.5-0.9-1.2-1.7-2-2.4L174.4,103.3z
				 M176.8,102.4c0.1,0.5,0.2,0.9,0.5,1.3l0.3,0.3c0-0.1-0.1-0.3-0.1-0.4L176.8,102.4z"/>
			<path d="M182.9,108.8c-0.1-0.2-1.3-2.6-2.2-4.9h-1c0,0.2-0.1,0.5-0.2,0.7c-0.1,0.2-0.3,0.4-0.5,0.5l-0.2-0.5
				c0.1,0,0.2-0.2,0.2-0.3c0.1-0.2,0.2-0.4,0.2-0.6c-0.4-0.1-0.7-0.3-0.8-0.7c-0.3-0.4-0.9-1.4-0.7-1.9s0.1-0.2,0.3-0.2
				s1.1,0.8,1.4,1.5l0.3,0.9h0.8c-0.5-1-0.8-2.2-1-3.3c0-0.8,0.4-1,0.6-1s1.6,1.3,1.9,3c0.1,0.5-0.1,1.1-0.5,1.4l-0.3,0.2
				c0.6,1.7,1.4,3.3,2.2,4.9L182.9,108.8z M180.2,99.6c-0.1,0-0.2,0.1-0.2,0.5c0.2,1.1,0.5,2.1,1,3.1h0.2c0.2-0.2,0.3-0.6,0.2-0.9
				C181.2,100.5,180.4,99.7,180.2,99.6L180.2,99.6z M178.2,101.5c0.2,0.4,0.4,0.8,0.6,1.2l0.3,0.4c0-0.2-0.1-0.4-0.2-0.5
				C178.7,102.2,178.5,101.8,178.2,101.5z"/>
			<g>
				
					<linearGradient id="SVGID_9_" gradientUnits="userSpaceOnUse" x1="-4363.0938" y1="5117.0527" x2="-4355.9541" y2="5130.7329" gradientTransform="matrix(-0.6 0.58 0.46 0.48 -4795.6899 164.73)">
					<stop  offset="6.000000e-02" style="stop-color:#FFFFFF"/>
					<stop  offset="1" style="stop-color:#FFFFFF"/>
				</linearGradient>
				<path class="st25" d="M183.3,100.4c0,0-0.5-6.6-5.8-6.2c-2.3,0.2-4.4,1.6-5.5,3.7c1.6-0.7,3.3-1.1,5.1-1.1
					C181.8,96.9,182.7,99.6,183.3,100.4z"/>
			</g>
			<path d="M179.4,112.3c-0.1,0-0.3,0-0.3-0.2l0.2-0.3c1-0.2,2-0.7,2.9-1.3c1-0.6,2-1.3,2.7-2.2c0.1-0.2,0.2-0.2,0.3-0.1
				s0.2,0.2,0.1,0.4c-0.8,0.9-1.8,1.7-2.8,2.4C181.5,111.6,180.5,112,179.4,112.3L179.4,112.3z"/>
			<path d="M180.8,113.2c-0.2,0-0.3,0-0.3-0.2s0-0.2,0.2-0.3c0.9-0.2,1.8-0.6,2.5-1.2c0.6-0.4,1.2-1,1.6-1.6c0.1-0.1,0.2-0.1,0.3,0
				l0,0c0.2,0.1,0.2,0.2,0.1,0.3c-0.4,0.7-1,1.3-1.7,1.7C182.7,112.5,181.8,112.9,180.8,113.2L180.8,113.2z"/>
			<path d="M181.1,113.8c-0.1,0.1-0.3,0-0.3-0.2l0.2-0.3c0.9-0.2,1.8-0.6,2.5-1.2c0.6-0.5,1.1-1,1.6-1.5c0-0.1,0-0.2,0.1-0.2
				s0.2,0,0.2,0.1c0.1,0.1,0.1,0.2,0,0.3l0,0c-0.4,0.7-1,1.3-1.7,1.7C183,113.1,182.1,113.5,181.1,113.8z"/>
			<path d="M181.4,114.5l-0.3-0.2c0-0.2,0.1-0.3,0.2-0.4c0.9-0.2,1.8-0.6,2.6-1.2c1.1-0.9,1.5-1.5,1.6-1.5s0.2-0.2,0.3-0.1
				s0.2,0.2,0.1,0.4c-0.5,0.6-1.1,1.1-1.7,1.6c-0.8,0.6-1.7,1.1-2.7,1.3L181.4,114.5z"/>
			<path class="st0" d="M27,66.7c3.7-2.6,8.8-0.3,9.8,4.1s4.2,18,5.4,20.9s-15.9,0.2-18.9-12.9C21.9,72.7,24,68.7,27,66.7z"/>
			<path class="st0" d="M30,95.1c0,0-12.1,3.1-19-1.4s1.4-15.6,6-13.7S31.4,93,30,95.1z"/>
			<path class="st0" d="M32.3,101.7c0,0-8,6.4-9.2,2.3s2.6-6.3,5.2-6.3c2.2-0.1,3.9,1.6,4,3.8C32.3,101.6,32.3,101.6,32.3,101.7z"/>
			<path class="st0" d="M47.1,81.5c-0.4,1.4-1.8,2.3-3.3,1.9c-1.1-0.3-1.9-1.2-2-2.3c-0.4-5.7-0.3-12.4,1.8-13.3
				c3.9-1.6,4.2,10.4,3.6,13.6L47.1,81.5z"/>
			<path class="st0" d="M50,111.1c0,0-1-1.8-9.7-9.1S18.9,89.9,18.9,89.9L18,88.3c0,0,13.7,5.6,20,9.4c2.8,1.8,5.6,3.4,8.6,4.8
				L28.4,74.8c0,0,14.3,17.6,19,23.6s6.7,11.3,6.7,11.3L50,111.1z"/>
			<path class="st1" d="M41.8,92.6h-0.4c-3.6-3.2-6.5-7.2-8.4-11.7c-1.8-4.3-2.4-9.1-1.8-13.7c0-0.2,0.1-0.3,0.3-0.3l0,0
				c0.2,0.1,0.3,0.2,0.3,0.4c-0.5,4.5,0.1,9.1,1.8,13.4c1.8,4.4,4.6,8.2,8.2,11.3C42,92.1,42,92.3,41.8,92.6L41.8,92.6z"/>
			<path class="st1" d="M40,91.4l-0.4-0.5c0,0-3.7-3.9-7.4-5.2c-1.7-0.6-3.5-0.6-5.2,0l-0.4-0.2c0-0.2,0-0.4,0.2-0.5
				c1.9-0.6,3.8-0.6,5.7,0c2.7,1.2,5.2,2.9,7.2,5.1l0.9-2.8c0-0.1,0.2-0.2,0.4-0.2s0.3,0.3,0.2,0.4L40,91.4z"/>
			<path class="st1" d="M34.2,82.8c0,0.1-0.1,0.2-0.2,0.2s-0.2-0.1-0.2-0.2c0,0-3.1-3.8-5.4-3.8c-1.4,0-2.7,0.3-4,0.9
				C24.2,80,24,80,24,79.8s-0.1-0.4,0.1-0.5c1.4-0.6,2.8-0.9,4.3-0.9c2.6-0.1,5.8,3.8,5.9,4S34.4,82.7,34.2,82.8z"/>
			<path class="st1" d="M32.2,77.4L32.2,77.4c-0.2,0-0.4,0-0.5-0.2c-0.6-1.5-1.7-2.8-3-3.7c-1.8-1.1-4.5,0-4.6,0s-0.3,0-0.4-0.2
				s0-0.4,0.2-0.4c1.7-0.7,3.5-0.7,5.2,0c1.5,1,2.6,2.4,3.2,4C32.4,77.2,32.4,77.3,32.2,77.4z"/>
			<path class="st1" d="M31.6,72.2L31.6,72.2c-0.2,0.1-0.4,0-0.5-0.1c-0.7-1.1-1.5-2-2.5-2.8c-0.8-0.5-1.8-0.8-2.7-0.6
				c-0.2,0-0.4-0.1-0.4-0.3c0-0.2,0.1-0.3,0.3-0.4c1.1-0.1,2.3,0.1,3.2,0.8c1,0.8,1.9,1.8,2.6,2.9C31.7,71.8,31.7,72.1,31.6,72.2z"
				/>
			<path class="st1" d="M35.2,84.1c-0.1,0-0.3,0.1-0.4,0s-0.2-0.3-0.1-0.4l2.3-5.4c0-0.2,0.2-0.2,0.4-0.2s0.2,0.3,0.2,0.5l-2.3,5.3
				L35.2,84.1z"/>
			<path class="st1" d="M32.3,75.8h-0.4c-0.1,0-0.2,0-0.2-0.2c0-0.1,0-0.2,0.1-0.2l0,0l3.7-4.4h0.4c0.1,0,0.2,0,0.2,0.2
				s0,0.2-0.2,0.2L32.3,75.8L32.3,75.8z"/>
			<path class="st1" d="M19,88.6h-0.1l-8.4,2.6c-0.2,0-0.4-0.1-0.4-0.2s0-0.4,0.2-0.4l8.4-2.6c0.2,0,0.4,0.1,0.4,0.2
				S19.1,88.5,19,88.6z"/>
			<path class="st1" d="M23,91.4L23,91.4l-5.4,3.2c-0.1,0.1-0.3,0-0.4-0.1s-0.1-0.4,0.1-0.5l5.4-3.2c0.1-0.1,0.3,0,0.4,0.1
				S23.2,91.3,23,91.4z"/>
			<path class="st1" d="M23.5,95.5h-0.4c-0.1-0.1-0.1-0.3,0-0.4l2.7-3.2c0.1-0.1,0.3-0.1,0.4,0c0.2,0.1,0.2,0.3,0.1,0.5l-2.7,3.1
				H23.5z"/>
			<path class="st1" d="M27.2,95.1c-0.1,0-0.3,0.1-0.4,0c-0.2-0.1-0.2-0.2-0.2-0.4c0,0,0-0.1,0.1-0.1l1.2-1.6
				c0.1-0.2,0.3-0.2,0.5-0.1c0.1,0.1,0.1,0.4,0,0.5L27.2,95.1L27.2,95.1z"/>
			<path class="st1" d="M30.2,94.4h-0.4c0,0-4.1-2.4-7.2-3.8s-7.7-4.2-7.8-4.2c-0.1-0.2,0-0.4,0.1-0.5c0.1,0,0.2-0.1,0.3-0.1
				c2.5,1.5,5,2.9,7.6,4.2c2.5,1.2,4.9,2.5,7.3,3.9C30.3,94,30.4,94.2,30.2,94.4L30.2,94.4z"/>
			<rect x="246.1" y="128.2" class="st5" width="53.4" height="1.5"/>
			<polygon class="st1" points="298.2,125.5 244.8,125.5 246.1,128.2 299.4,128.2 			"/>
			<polygon class="st26" points="244.8,125.5 244.8,127.2 246.1,129.6 246.1,128.2 			"/>
			<path class="st27" d="M47.4,181.7l7.8,3.6c0.8,0.3,5.1-5.9,5.1-5.9l-1.8,0.3c-0.4,0.4-2.6,3.4-3.4,3.3s-6.7-5.2-6.7-5.2
				L47.4,181.7z"/>
			<path class="st28" d="M43.9,172.2c0,0,3.1,2.4,3.2,3.3s-1.7,1.5-1.4,1.9c0.6,0.5,1.3,0.9,2,1.3c-0.8,0.4-1.5,1-2.1,1.7
				c-0.2,0.2-0.3,0.4-0.4,0.7c0,0-4.6-6.3-3.1-8S43.9,172.2,43.9,172.2z"/>
			<path class="st28" d="M51.4,199.9l5.8,16.5l7,18.7l-1.2,0.2c0,0-5.8-9.8-8.1-15.1s-13.2-15.7-13-18.2S50.4,194.3,51.4,199.9z"/>
			<path class="st28" d="M32.7,232.5c0,0,11.2-13.7,11.3-14s7.8-21.1,7.8-21.1l-9.9,2.6c0,0-0.8,13.9-0.8,15.9s-10.7,16.2-10.7,16.2
				L32.7,232.5z"/>
			<polygon class="st28" points="28.9,235 30.6,235.1 32.7,232.5 30.4,232.1 			"/>
			<path class="st7" d="M45.5,179.1c0,0-3.6,3.8-4.7,15.5c-0.2,3-0.6,20.7-0.6,20.7l18.2-0.4c-2.1-2.9-5.9-15.9-7.8-25.3
				c-0.2-1.1,1.4-2.3,0.9-3.1c-3.2-5.1-1.5-7.1-2-7.8S47.6,177,45.5,179.1z"/>
			<path class="st29" d="M53.7,202.4c0,0-3.7-9.8-5.1-13.1c-0.8-2.2-1.4-4.4-1.9-6.7l3.9,2.4c0,0,1.5,1.4,1.2,1.9
				c-0.4,0.8-0.7,1.6-0.9,2.4C50.9,189.9,53.7,202.4,53.7,202.4z"/>
			<path class="st26" d="M68.3,236.8h-5.7V235c1-0.3,2.2-0.3,3.2,0C67.1,235.6,68.2,235.8,68.3,236.8z"/>
			<path class="st26" d="M34.5,236.8h-5.6V235c1-0.3,2.2-0.3,3.2,0C33.4,235.6,34.4,235.8,34.5,236.8z"/>
			<polygon class="st30" points="71,176.8 67.1,184.7 65.7,185 69.7,176.1 			"/>
			<polygon class="st31" points="58.4,182.6 65.7,185 69.7,176.1 60,175.4 			"/>
			<polygon class="st30" points="65.7,175.9 66.7,170.6 66.2,170.6 64.4,175.8 			"/>
			<path class="st30" d="M63.4,178.6c-0.4,1,0.1,2.2,1.1,2.7c1.1,0.3,2.2-0.3,2.6-1.4c0.5-1,0-2.2-1-2.7H66
				C64.9,176.9,63.7,177.5,63.4,178.6z"/>
			<path class="st30" d="M62.6,177.1c-0.1,0.2,0,0.4,0.2,0.4s0.4,0,0.4-0.2c0.1-0.2,0-0.4-0.1-0.5C62.9,176.8,62.7,176.9,62.6,177.1
				z"/>
			<path class="st30" d="M61.5,176.9c0,0.2,0,0.4,0.2,0.4c0.2,0.1,0.4,0,0.5-0.2c0-0.2-0.1-0.4-0.2-0.5
				C61.8,176.6,61.6,176.7,61.5,176.9z"/>
			<path class="st30" d="M60.5,176.8c-0.1,0.2,0,0.4,0.2,0.4s0.4,0,0.4-0.2c0.1-0.2,0-0.4-0.2-0.5C60.7,176.5,60.6,176.6,60.5,176.8
				z"/>
			<ellipse class="st17" cx="66.5" cy="170.2" rx="1" ry="1"/>
			<polygon class="st30" points="63.1,178.1 62.7,178.9 60.5,178.5 60.7,177.8 			"/>
			<polygon class="st30" points="66,182.4 65.9,182.9 63.8,182.4 63.9,182 			"/>
			<polygon class="st30" points="62.7,179 62.4,179.8 60.2,179.3 60.4,178.7 			"/>
			<polygon class="st30" points="62.3,180 62,180.8 59.8,180.3 60,179.5 			"/>
			<polygon class="st30" points="61.9,181.1 61.6,181.9 59.5,181.5 59.7,180.7 			"/>
			<polygon class="st30" points="63.7,181.9 63.5,182.3 62.1,181.9 62.3,181.5 			"/>
			<polygon class="st17" points="67.3,178.5 66.8,179.5 66.6,179.5 67,178.4 			"/>
			<polygon class="st17" points="66.9,177.6 66.4,178.7 66.2,178.6 66.6,177.6 			"/>
			<polygon class="st17" points="66.3,177 65.9,178.1 65.7,178 66.1,177 			"/>
			<polygon class="st17" points="65.6,176.9 65.1,178 64.9,177.9 65.3,176.9 			"/>
			<polygon class="st17" points="64.8,177 64.3,178.1 64.1,178 64.5,177 			"/>
			<polygon class="st17" points="64.8,180.4 64.3,181.5 64.1,181.4 64.5,180.4 			"/>
			<path class="st17" d="M66.5,180.5l-0.3-1l-0.5,0.4l-0.3-0.6l-0.5,0.2v-1.2l-0.7,0.9l-0.2-0.8c-0.2,0.4-0.4,0.8-0.5,1.2
				L66.5,180.5z"/>
			<path class="st28" d="M47.1,183.3l10.8,4c1.1,0.3,8.2-3.5,8.2-3.5c0.7,0,1.3-0.1,1.9-0.4c0.8-0.5-0.1-1.8-0.1-1.8s-0.5,1.3-1.2,1
				s-0.1-1.3-0.4-1.4s-1,1.5-1,1.5l-1.3,0.6c-2,0.8-4.1,1.4-6.2,1.6c-2.1-0.3-9.5-5.5-9.5-5.5L47.1,183.3z"/>
			<path class="st26" d="M53.7,181.6l-2.1,3.8c0,0-7.4-1.5-7.4-3.5s2.3-4.2,4.2-3.9S53.7,181.6,53.7,181.6z"/>
			<path class="st27" d="M58.5,179.7c-0.1-0.1,0.8-1.8,1-1.7s-0.3,1.3-0.3,1.5s0.1,0.8-0.1,1l-0.6,0.3L58.5,179.7z"/>
			
				<linearGradient id="SVGID_10_" gradientUnits="userSpaceOnUse" x1="47.4553" y1="-717.6378" x2="39.4167" y2="-717.3174" gradientTransform="matrix(1 0 0 -1 0 -536)">
				<stop  offset="9.000000e-02" style="stop-color:#D70010"/>
				<stop  offset="0.87" style="stop-color:#7A0110"/>
			</linearGradient>
			<path class="st32" d="M43.5,170.6c1,0.4,1.8,1.3,2.2,2.3c-0.1,0-1.7-0.9-1.7-0.6c-0.1,0.2-0.4,0.3-0.6,0.4
				c-1.3,0.2-0.9,1.5-0.6,2s0.5,0.9,0.3,0.9s-0.7,0-0.6,0.2s0.8,0.7,0.9,0.9c7.6,16.7,1.4,13.4,1.4,13.4c-0.2,2-4.1,2.4-4.3,2.2
				s1.2-5.9-0.7-16.7C39.3,172.9,40.6,169.8,43.5,170.6z"/>
			<path class="st17" d="M69.8,169.9c-0.3,0-0.5-0.2-0.5-0.5c-0.2-1.2-1.2-2-2.4-1.9c-1.2-0.1-2.2,0.7-2.3,1.9l0,0
				c0,0.3-0.2,0.5-0.5,0.5c-0.3,0-0.5-0.2-0.5-0.5c0.1-1.7,1.6-3,3.3-2.9l0,0c1.7-0.1,3.2,1.2,3.4,2.9
				C70.3,169.7,70.1,169.9,69.8,169.9z"/>
			<path class="st17" d="M71.4,168.7c-0.3,0-0.6-0.2-0.6-0.5c0-1.8-1.7-3.2-3.9-3.2s-3.9,1.4-3.9,3.2c0,0.3-0.2,0.5-0.5,0.5
				s-0.5-0.2-0.5-0.5c0-2.3,2.2-4.2,4.9-4.2s5,1.9,5,4.2C71.9,168.5,71.7,168.7,71.4,168.7z"/>
			<path class="st17" d="M72.6,166.5c-0.3,0-0.5-0.2-0.5-0.5c0-2.3-2.3-4.2-5.2-4.2s-5.1,1.9-5.1,4.2c0,0.3-0.2,0.5-0.5,0.5
				s-0.5-0.2-0.5-0.5c0-2.9,2.8-5.2,6.1-5.2c3.3,0,6.2,2.3,6.2,5.2C73.1,166.3,72.9,166.5,72.6,166.5z"/>
			<ellipse class="st0" cx="134" cy="250.3" rx="53.6" ry="12.4"/>
			<rect x="138.6" y="222.8" class="st6" width="1.9" height="21.4"/>
			<rect x="123.1" y="222.8" class="st6" width="1.9" height="21.4"/>
			<rect x="118.7" y="225" class="st6" width="1.9" height="21.4"/>
			<rect x="142.3" y="225" class="st6" width="1.9" height="21.4"/>
			<path class="st33" d="M92.9,245.4c-0.9-11.1-2.3-10.8-4.3-14.6s-2.7-9.9-2.7-9.9c-0.2,2.1-0.2,4.1,0.1,6.2
				c0.6,2.2,1.3,4.3,2.2,6.4c0,0-3.8-3-5.2-6.2c-0.9-1.9-1.9-3.7-3.1-5.4c0,0,2.5,6.7,4.1,9s5.3,4.5,5.6,7.8s0,4.9-1.4,7.3
				c-0.1,0.2-0.1,0.6,0.8,0.8c0.8,0.2,1.6,0,2.3-0.5L92.9,245.4z"/>
			<path class="st33" d="M85.3,225.4c0.8,1.1,1.5,0.5,2-0.8c1.1-3.2,3.2-9.5,3.2-11.3s-2.8,0.8-5,0.5s-5-1.1-4.7,1.3
				S83.3,222.6,85.3,225.4z"/>
			<path class="st33" d="M87.7,230.1c0,0,4.1-8.9,5.6-9.9s5.6,0.2,5.7,1.2s-4.6,6.6-8.2,8.2C89.8,230.1,88.8,230.3,87.7,230.1z"/>
			<path class="st33" d="M90.3,237.4c0,0,2-5.8,3.4-6.3s5.2,1.1,5.6,1.9S90.4,238.8,90.3,237.4z"/>
			<path class="st33" d="M82.1,224.5c0.3,0.4,0.2,1-0.2,1.2s-1,0.2-1.2-0.2c-1.8-1.3-4.4-3.3-4.4-4.1s2.2-3.4,3.5-2.7
				S81.7,222.3,82.1,224.5z"/>
			<path class="st33" d="M91.3,240.1c0,0-5.7-5.1-7.7-4.3s-2.2,2.6-1.5,3S91,241,91.3,240.1z"/>
			<path class="st34" d="M91.2,220.9c0,0,0.9-4.1,1.9-4.3s2.4,0,2.4,0.7S92,221.1,91.2,220.9z"/>
			<path class="st1" d="M87.9,229.9h-0.2c0-0.1,0-0.3,0.1-0.3c1.8-1.2,3.4-2.5,4.9-4c1.4-1.3,2.4-2.8,3-4.6c0-0.1,0.1-0.2,0.2-0.2
				l0.2,0.3c0,0.1-0.6,2-3.1,4.7C91.5,227.4,89.8,228.7,87.9,229.9L87.9,229.9z"/>
			<path class="st1" d="M86.2,225.5l-0.2-0.2c-0.2-2-0.7-4.1-1.4-6c-0.5-1.5-1.3-2.9-2.3-4.2c0-0.1,0-0.3,0.1-0.3s0.2-0.1,0.2,0
				c1.1,1.3,1.9,2.7,2.4,4.3c0.4,1,0.7,2.1,0.9,3.2c0-1.5,0.1-3,0.5-4.5c0.5-2.1,1.7-3.9,3.4-5.1h0.3c0,0.1,0,0.2-0.1,0.3
				c-1.6,1.2-2.7,2.9-3.2,4.8c-0.5,2.4-0.6,4.9-0.4,7.4l-0.2,0.2L86.2,225.5z"/>
			<path class="st1" d="M81.1,226.2L81.1,226.2c-0.1-0.1-0.2-0.1-0.2-0.3c0.1-1.1-0.1-2.3-0.6-3.3c-0.7-1-1.4-1.8-2.3-2.6
				c-0.1-0.1-0.1-0.2,0-0.3l0,0h0.3c0.9,0.8,1.6,1.7,2.3,2.7c0.6,1.1,0.8,2.4,0.7,3.6L81.1,226.2z"/>
			<path class="st1" d="M91.8,236.4h-0.2v-0.3l4.1-4.3H96c0.1,0.1,0.1,0.2,0,0.3l0,0L91.8,236.4L91.8,236.4z"/>
			<path class="st1" d="M91.2,240.9H91c-0.9-1.3-2.1-2.2-3.6-2.8c-1.4-0.5-2.9-0.6-4.3-0.4c-0.1,0.1-0.2,0-0.2-0.1s0-0.2,0.2-0.2
				c1.5-0.3,3.1-0.2,4.5,0.4c1.5,0.6,2.8,1.6,3.7,2.9C91.4,240.8,91.4,241,91.2,240.9L91.2,240.9z"/>
			<path class="st1" d="M94.8,223.3L94.8,223.3l-1.6-2.4c-0.1-0.1-0.1-0.2,0-0.3l0,0h0.3L95,223c0.1,0,0,0.2-0.1,0.2
				C94.9,223.3,94.9,223.3,94.8,223.3L94.8,223.3z"/>
			<path class="st1" d="M93.2,225.3L93.2,225.3l-1.9-2.4c-0.1-0.1-0.1-0.3,0-0.3h0.3l1.8,2.4c0,0.1,0,0.2-0.1,0.3H93.2z"/>
			<path class="st1" d="M91.8,226.8L91.8,226.8l-1.8-1.5c-0.1,0-0.1-0.2,0-0.2h0.3l1.6,1.5C92,226.6,92,226.8,91.8,226.8
				C91.9,226.8,91.8,226.8,91.8,226.8z"/>
			<path class="st1" d="M90.2,228.2H90l-1-0.9c-0.1-0.1-0.1-0.2,0-0.3l0,0h0.2l1.1,0.9C90.4,228,90.4,228.1,90.2,228.2
				C90.3,228.2,90.3,228.2,90.2,228.2L90.2,228.2z"/>
			<path class="st1" d="M86.4,218.9h-0.2c0-0.1,0-0.2,0.1-0.3l3.2-1c0.1-0.1,0.2,0,0.2,0.1s0,0.2-0.1,0.2l-3.1,1.1L86.4,218.9z"/>
			<path class="st1" d="M86.8,217.2L86.8,217.2l-0.2-0.2c0.1-0.1,0.1-0.2,3-1.4c0.1-0.1,0.2,0,0.2,0.1s0,0.2-0.1,0.2
				c-0.9,0.4-1.8,0.8-2.7,1.3L86.8,217.2z"/>
			<path class="st1" d="M88,215.1h-0.2c0-0.1,0-0.2,0.1-0.2l2.2-0.9l0.3,0.2c0,0.1,0,0.2-0.1,0.2l-2.2,0.8L88,215.1z"/>
			<path class="st1" d="M86.2,220.9H86c0-0.1,0-0.3,0.1-0.3l2.6-0.6c0.1-0.1,0.2,0,0.3,0.1l0,0l-0.2,0.3l-2.6,0.6L86.2,220.9z"/>
			<path class="st1" d="M86.2,223.3c-0.1,0-0.2-0.1-0.2-0.2c0-0.1,0-0.2,0.1-0.2l1.7-0.5h0.3l-0.2,0.3l-1.7,0.4L86.2,223.3z"/>
			<rect x="98.4" y="208.5" class="st29" width="1.2" height="40.6"/>
			<polygon class="st12" points="98.5,208.5 97.2,208.5 97.2,248.7 98.5,249.2 			"/>
			<rect x="106.7" y="213.2" class="st29" width="1.2" height="40.6"/>
			<polygon class="st12" points="106.8,213.2 105.6,213.2 105.6,253.3 106.8,253.9 			"/>
			<rect x="155.1" y="208.5" class="st29" width="1.2" height="40.6"/>
			<polygon class="st12" points="155.2,208.5 153.9,208.5 153.9,248.7 155.2,249.2 			"/>
			<rect x="163.4" y="213.2" class="st29" width="1.2" height="40.6"/>
			<polygon class="st12" points="163.5,213.2 162.3,213.2 162.3,253.3 163.5,253.9 			"/>
			<rect x="101.1" y="213.3" class="st29" width="67.5" height="23.2"/>
			<polygon class="st12" points="168.1,213.8 102.2,234.6 99.8,213.8 			"/>
			<rect x="95.4" y="209.1" class="st11" width="8" height="27.4"/>
			<rect x="92" y="212.4" class="st17" width="84.3" height="1.4"/>
			<polygon class="st35" points="176.3,212.4 92,212.4 88.5,207.8 172.8,207.8 			"/>
			<polygon class="st17" points="88.5,207.8 88.5,209.8 92,213.8 92,212.4 			"/>
			
				<linearGradient id="SVGID_11_" gradientUnits="userSpaceOnUse" x1="104.7209" y1="1816.4352" x2="89.7109" y2="1825.4852" gradientTransform="matrix(1 0 0 1 0 -1616)">
				<stop  offset="9.000000e-02" style="stop-color:#D70010"/>
				<stop  offset="0.87" style="stop-color:#7A0110"/>
			</linearGradient>
			<rect x="91.8" y="196.5" class="st36" width="17.5" height="12.9"/>
			<rect x="91.6" y="196.5" class="st11" width="0.8" height="12.9"/>
			<rect x="93.3" y="210.3" class="st11" width="21.8" height="0.8"/>
			<polygon class="st0" points="115.1,210.3 114.1,209.5 92.4,209.5 93.3,210.3 			"/>
			<polygon class="st11" points="93.3,211.2 91.6,209.5 92.4,209.5 93.3,210.3 			"/>
			<path class="st1" d="M117.5,220.6c0,0-4.5,2.2-8.7-2.8c-2.4-2.9-2.5-7.3-2.5-7.3l7.6,0.2c0,0,0.6,2.4,1.9,3.2
				c0.9,0.5,1.8,0.6,2.8,0.4L117.5,220.6z"/>
			<g class="st37">
				<path class="st38" d="M108.4,212.3l4.7-0.4L108.4,212.3z"/>
				
					<rect x="108.4" y="211.9" transform="matrix(0.9952 -9.759081e-02 9.759081e-02 0.9952 -20.1698 11.8203)" class="st39" width="4.7" height="0.4"/>
			</g>
			<g class="st37">
				<path class="st38" d="M108.9,214.4l4.5-1.6L108.9,214.4z"/>
				<polygon class="st39" points="113.4,213 108.9,214.5 108.8,214.2 113.3,212.6 				"/>
			</g>
			<g class="st37">
				<path class="st38" d="M110,216.4l3.8-2.6L110,216.4z"/>
				<polygon class="st39" points="110.1,216.6 109.9,216.3 113.7,213.6 113.9,213.9 				"/>
			</g>
			<g class="st37">
				<path class="st38" d="M111.4,217.8l3-3.3L111.4,217.8z"/>
				
					<rect x="110.8" y="215.8" transform="matrix(0.6756 -0.7373 0.7373 0.6756 -122.5924 153.4077)" class="st39" width="4.4" height="0.4"/>
			</g>
			<g class="st37">
				<path class="st38" d="M113.4,218.7l1.7-3.6L113.4,218.7z"/>
				<polygon class="st39" points="113.5,218.8 113.2,218.7 114.9,215 115.3,215.2 				"/>
			</g>
			<g class="st37">
				<path class="st38" d="M115.3,219.1l0.9-3.3L115.3,219.1z"/>
				
					<rect x="114.4" y="216.9" transform="matrix(0.2496 -0.9684 0.9684 0.2496 -123.0377 275.3609)" class="st39" width="3.5" height="0.4"/>
			</g>
			<g>
				
					<linearGradient id="SVGID_12_" gradientUnits="userSpaceOnUse" x1="105.0391" y1="1809.5145" x2="98.9691" y2="1821.6644" gradientTransform="matrix(1 0 0 1 0 -1616)">
					<stop  offset="6.000000e-02" style="stop-color:#FFFFFF"/>
					<stop  offset="0.43" style="stop-color:#FFFFFF"/>
					<stop  offset="1" style="stop-color:#FFFFFF"/>
				</linearGradient>
				<path class="st40" d="M92.9,197.5c1.6,2.3,3.6,4.3,5.9,6c3.2,2.2,9.5,3.8,9.5,3.8l-0.7-9.7L92.9,197.5z"/>
			</g>
			<path class="st33" d="M96.4,235.7c0,0,4.7-1.1,7.6-3.8s3.3-5.1,3.3-5.1l8.8,5c0,0-0.1,1.7-2.8,5.2c-1.8,2.7-4.5,4.6-7.6,5.5
				l-0.7,0.2L96.4,235.7z"/>
			<path class="st38" d="M106.5,240.3l-6-4.5L106.5,240.3z"/>
			
				<rect x="103.3" y="234.1" transform="matrix(0.5962 -0.8028 0.8028 0.5962 -149.2265 179.1229)" class="st1" width="0.4" height="7.6"/>
			<path class="st38" d="M108.5,239.1l-6-4.4L108.5,239.1z"/>
			<polygon class="st1" points="108.4,239.3 102.4,234.9 102.7,234.6 108.7,239 			"/>
			<path class="st38" d="M110.3,237.6l-5.8-4.1L110.3,237.6z"/>
			
				<rect x="107.2" y="231.9" transform="matrix(0.5721 -0.8202 0.8202 0.5721 -147.15 188.8267)" class="st1" width="0.4" height="7.1"/>
			<path class="st38" d="M112,235.8l-5.5-3.7L112,235.8z"/>
			
				<rect x="109.3" y="230.9" transform="matrix(0.5593 -0.829 0.829 0.5593 -145.8655 194.0055)" class="st1" width="0.4" height="6.6"/>
			<path class="st38" d="M113.6,233.6l-5.7-3.2L113.6,233.6z"/>
			
				<rect x="110.6" y="228.7" transform="matrix(0.4909 -0.8712 0.8712 0.4909 -145.7534 214.6374)" class="st1" width="0.4" height="6.6"/>
			<path class="st41" d="M129.1,107.2h-0.3c-1-0.3-1.8-1-2.2-1.9c-0.1-0.3,0-0.5,0.2-0.7c0.2-0.1,0.5,0,0.7,0.2c0,0,0,0,0,0.1
				c0,0,0.6,1.2,1.5,1.3c0.5,0,1-0.3,1.3-0.7c1-1.1,1.5-3.8,0.8-6c-0.3-1-1.1-1.9-2.1-2.2c-0.6,0-1.2,0.3-1.5,0.8
				c-0.1,0.2-0.4,0.3-0.7,0.2l0,0c-0.2-0.2-0.3-0.5-0.1-0.7c0.5-0.9,1.5-1.4,2.5-1.3c1.4,0.4,2.5,1.5,2.8,2.9c0.8,2.3,0.5,4.9-0.9,7
				C130.6,106.8,129.9,107.1,129.1,107.2z"/>
			<path class="st41" d="M22.2,133.1c-0.2,0-0.5-0.2-0.5-0.4c-0.1-0.2,0-0.4,0.1-0.5c0,0,0.1,0,0.2-0.1c4.3-1.3,104.2-31,106.2-31.2
				c0.3-0.1,0.5,0.1,0.6,0.4l0,0c0,0.3-0.2,0.6-0.5,0.6c-1.7,0.2-70.1,20.5-106,31.2H22.2z"/>
			<path class="st41" d="M125.5,107.2h-0.3c-1.4-0.2-2.5-1.2-2.8-2.5c-0.1-0.2,0-0.4,0.1-0.5c0,0,0.1,0,0.2-0.1
				c0.2-0.1,0.5,0.1,0.6,0.3c0.3,1,1.1,1.7,2.1,1.8c0.7,0,1.3-0.4,1.7-1c1-1.1,1.4-2.7,1-4.1c-0.5-1.9-1.3-3-2.2-3.2
				s-2.4,1.2-2.8,1.7c-0.2,0.2-0.5,0.3-0.7,0.1c-0.2-0.2-0.2-0.5-0.1-0.7c0.1-0.1,1.8-2.4,3.8-2c2,0.4,2.3,1.5,3,3.8
				c0.4,1.8,0,3.7-1.2,5.1C127.3,106.6,126.4,107.1,125.5,107.2z"/>
			<polygon class="st7" points="17.4,124.2 16.2,131.2 18,131 18.8,123.7 			"/>
			<polygon class="st7" points="20.1,130.9 28,122.8 28.8,123.7 22.7,130.3 			"/>
			<path class="st7" d="M26.5,122.9l0.2-0.2c0.6-0.7,1.6-0.8,2.3-0.2l0.7,0.6c0.7,0.6,0.8,1.6,0.2,2.3l-0.2,0.2
				c-0.6,0.7-1.6,0.8-2.3,0.2l-0.7-0.6C26,124.6,25.9,123.6,26.5,122.9z"/>
			<path class="st7" d="M17.1,122.6l0.2-0.2c0.7-0.6,1.7-0.5,2.3,0.1l0.6,0.7c0.6,0.7,0.5,1.7-0.1,2.3l-0.2,0.2
				c-0.7,0.6-1.7,0.5-2.3-0.1l-0.6-0.7C16.4,124.2,16.5,123.2,17.1,122.6z"/>
			<path class="st29" d="M15.9,120.9c0.7-1.3,1.5-2.5,2.3-3.7l0.5,0.2c0,0-0.6,3-0.9,3.1l-1.5,0.4H15.9z"/>
			<path class="st29" d="M15.6,121.5l-2.3,3.8h0.4l2.6-2.5l0.2-0.2l-0.6-0.8l0.2-0.8L15.6,121.5z"/>
			
				<rect x="16.6" y="120.6" transform="matrix(0.7501 -0.6613 0.6613 0.7501 -76.3183 41.6108)" class="st26" width="0.6" height="2.4"/>
			<path class="st26" d="M16.8,120.3c0.1,0.1-0.1,0.6-0.6,1s-0.9,0.5-1,0.4s0.1-0.6,0.6-0.9S16.7,120.2,16.8,120.3z"/>
			<path class="st29" d="M25.4,121.1c0,0,1.6-4,1.7-4h0.5c0,0-0.1,3.1-0.4,3.2l-1.4,0.7L25.4,121.1z"/>
			<path class="st29" d="M25.2,121.7c0,0.2-1.6,4.1-1.6,4.1h0.3l2.2-2.8l0.2-0.3l-0.7-0.7v-0.8L25.2,121.7z"/>
			<polygon class="st26" points="27,123 25.4,121.4 25.7,120.9 27.4,122.5 			"/>
			<path class="st26" d="M26.2,120.3c0.2,0.2,0,0.6-0.4,1.1s-0.8,0.7-0.9,0.6s0-0.6,0.4-1.1S26.1,120.2,26.2,120.3z"/>
			<path class="st12" d="M20.4,131.6l-4.7,0.8c-1.3,0.3-2.6,0-3.7-0.7c-0.1,0.8,0,1.5,0.4,2.2l0.3,0.3c1.2,0.8,2.6,1.1,4,0.9
				l4.7-0.9c1.1-0.2,5.8-3.2,5.8-3.2l0.8-1.7c-0.3-0.6-0.8-1-1.3-1.4h-0.3l-0.5,1C25.9,128.9,21.5,131.4,20.4,131.6z"/>
			<path class="st29" d="M15.2,127.8c-0.5,0.2-1,0.6-1.4,1c-0.9,0.7-1.6,1.7-1.8,2.9c1.1,0.7,2.4,1,3.7,0.7l4.7-0.8
				c1.1-0.2,5.5-2.8,5.5-2.8l0.5-1c-2-0.5-4.1-0.8-6.2-1C18.5,126.6,16.7,126.9,15.2,127.8z"/>
			<path class="st7" d="M19.7,133.6l-0.8,5.1l1.8-0.2l1-4.8c0.1-0.4-0.2-0.8-0.7-0.9c-0.1,0-0.1,0-0.2,0h-0.5
				C19.9,132.9,19.6,133.2,19.7,133.6L19.7,133.6z"/>
			<path class="st7" d="M9.2,136l4.3-2.4c0.3-0.2,0.7-0.2,1,0h0.2c0.2,0.2,0.3,0.6,0.1,0.8c0,0,0,0-0.1,0.1l-4.8,2.7L9.2,136z"/>
			<path class="st7" d="M8,136.5l0.2-0.2c0.7-0.6,1.7-0.5,2.3,0.1l0.6,0.7c0.6,0.7,0.5,1.7-0.1,2.3l-0.2,0.2
				c-0.7,0.6-1.7,0.5-2.3-0.1l-0.6-0.7C7.2,138.1,7.3,137,8,136.5z"/>
			<path class="st7" d="M18.5,137.2l0.2-0.2c0.7-0.6,1.7-0.5,2.3,0.1l0.6,0.7c0.6,0.7,0.5,1.7-0.1,2.3l-0.2,0.2
				c-0.7,0.6-1.7,0.5-2.3-0.1l-0.6-0.7C17.8,138.8,17.8,137.8,18.5,137.2z"/>
			<path class="st29" d="M7.5,134.8l4-1.8v0.4l-2.7,2.2l-0.3,0.2l-0.7-0.7H7L7.5,134.8z"/>
			<path class="st29" d="M6.8,135c-1.3,0.5-2.6,1.1-3.9,1.8v0.5c0,0,3-0.2,3.2-0.5l0.6-1.4L6.8,135z"/>
			
				<rect x="7.5" y="134.7" transform="matrix(0.7501 -0.6613 0.6613 0.7501 -87.9179 39.1166)" class="st26" width="0.6" height="2.4"/>
			<path class="st26" d="M6.1,135.8c0.1,0.1,0.6-0.1,1-0.4s0.7-0.9,0.6-1s-0.6,0.1-1,0.5S6,135.7,6.1,135.8z"/>
			<path class="st29" d="M17.4,135.9c-1.3,0.5-2.6,1.1-3.9,1.8c0,0.2,0.1,0.3,0.1,0.5c0,0,3-0.2,3.2-0.5l0.6-1.4L17.4,135.9z"/>
			<path class="st29" d="M18.1,135.7l4-1.8v0.3l-2.7,2.3l-0.3,0.2l-0.7-0.7h-0.8L18.1,135.7z"/>
			
				<rect x="18.1" y="135.6" transform="matrix(0.7501 -0.6613 0.6613 0.7501 -85.8746 46.3635)" class="st26" width="0.6" height="2.4"/>
			<path class="st26" d="M16.7,136.7c0.1,0.1,0.6-0.1,1-0.5s0.7-0.8,0.6-0.9s-0.6,0.1-1,0.4S16.6,136.6,16.7,136.7z"/>
			<path class="st7" d="M27.5,128.7c-0.4-0.5-0.9-0.7-1.2-0.5s0,0.8,0.3,1.2s0.9,0.6,1.1,0.4S27.8,129.1,27.5,128.7z"/>
			<path class="st30" d="M14.6,129.9c-0.2,0.2-0.5,0.2-0.6,0l-2.9-3.2l0.4-0.2l3.1,2.8C14.8,129.5,14.8,129.8,14.6,129.9L14.6,129.9
				z"/>
			<path class="st29" d="M11.7,126c0.3,0.3,0.1,0.8-0.3,1c-0.3,0.2-0.8,0.1-1-0.2c0,0,0,0,0-0.1c-0.2-0.3-0.1-0.8,0.2-1
				c0,0,0,0,0.1,0c0.2-0.2,0.6-0.2,0.8,0C11.6,125.8,11.7,125.9,11.7,126z"/>
			<path class="st23" d="M10.4,122.5c-0.2,0.2-0.5,0.2-0.7,0c-0.8-0.8-2.2-0.8-3,0.1l0,0c-0.9,0.7-1.1,2-0.5,3
				c0.2,0.2,0.2,0.5,0,0.7c-0.2,0.1-0.5,0.1-0.7-0.1c-1-1.3-0.8-3.2,0.5-4.2l0.1-0.1c1.2-1.2,3.1-1.3,4.4-0.1l0,0
				c0.2,0.1,0.2,0.4,0.1,0.6C10.5,122.4,10.5,122.5,10.4,122.5z"/>
			<path class="st23" d="M10.8,120.5c-0.2,0.2-0.5,0.2-0.7,0c-1.2-1.3-3.4-1.2-5,0.2s-2,3.6-0.9,4.9c0.2,0.2,0.2,0.6,0,0.8
				c-0.2,0.1-0.5,0.1-0.7-0.1c-1.5-1.7-1.1-4.6,0.9-6.3s4.9-1.9,6.4-0.2S11,120.4,10.8,120.5z"/>
			<path class="st23" d="M10.2,118.1c-0.2,0.2-0.5,0.2-0.7,0c-1.5-1.8-4.4-1.7-6.5,0.2s-2.6,4.8-1.1,6.5c0.2,0.2,0.1,0.5-0.1,0.7
				s-0.5,0.2-0.7,0c-1.9-2.2-1.3-5.7,1.2-8s6.1-2.2,8-0.1C10.5,117.6,10.4,117.9,10.2,118.1L10.2,118.1z"/>
			<g class="st42">
				<g>
					
						<linearGradient id="SVGID_13_" gradientUnits="userSpaceOnUse" x1="157.04" y1="1711.45" x2="169.86" y2="1711.45" gradientTransform="matrix(1 0 0 1 0 -1616)">
						<stop  offset="0.12" style="stop-color:#005E7D"/>
						<stop  offset="0.27" style="stop-color:#005E7D"/>
						<stop  offset="0.65" style="stop-color:#001726"/>
					</linearGradient>
					<path class="st43" d="M164.9,94.5c0-0.7-0.5-1.2-1.2-1.2s-1.2,0.5-1.2,1.2l0,0c0,0.2,0,0.5,0.1,0.7H157v0.5h0.1v1.7l12.8,0.2
						v-2.3h-5.2C164.8,95.1,164.9,94.8,164.9,94.5z"/>
				</g>
				<g>
					
						<linearGradient id="SVGID_14_" gradientUnits="userSpaceOnUse" x1="188.2945" y1="1659.1735" x2="182.7445" y2="1705.4235" gradientTransform="matrix(1 0 0 1 0 -1616)">
						<stop  offset="0.12" style="stop-color:#005E7D"/>
						<stop  offset="0.27" style="stop-color:#005E7D"/>
						<stop  offset="0.65" style="stop-color:#001726"/>
					</linearGradient>
					<path class="st44" d="M208.2,24.2h-0.5c-0.1,0.1-0.1,0.4,0,0.5c0,0,2.2,3.2,1.1,9.5c-0.5,2.4-1.6,4.7-3.1,6.6l1.6-13.3
						c0-0.2,1.2-2.6,1.1-2.6c-0.6,0.6-1.2,1.3-1.6,2.1l-7.3,60.2l-2.7-6.8h1.8c0.2,0,0.3-0.1,0.3-0.3l0,0c0-0.2-0.1-0.4-0.3-0.4
						h-2.3c0-1.4-0.6-2.4-1.4-2.4c-0.4,0-0.7,0.2-0.9,0.5c-0.2-0.3-0.6-0.5-1-0.5h-0.4c-0.3,0-0.6,0.1-0.8,0.3h-0.2
						c-1.3,0.2-2.4,0.9-3.1,2c-0.6-0.7-2.2-2.4-4.2-2.4h-0.2c-1.7,0.2-3.2,1-4.3,2.3c-1.1-1.4-2.7-2.2-4.4-2.3
						c-1.9,0-3.7,1.6-4.4,2.2c-0.7-0.9-1.6-1.5-2.7-1.7c-1-0.1-1.9,0.1-2.8,0.5c-0.2-0.4-0.6-0.7-1-0.7s-0.7,0.2-0.9,0.5
						c-0.2-0.3-0.5-0.5-0.9-0.5h-0.3c-0.8,0-1.5,1.1-1.5,2.4s0.7,2.3,1.5,2.3h0.8l-0.2,7c-0.1-0.2-0.3-0.2-0.5-0.2h-0.4
						c-0.9,0-1.5,1-1.5,2.4s0.6,2.3,1.5,2.3h0.4c0.4,0,0.7-0.2,0.9-0.6h0.3c0,0.1,0,0.2,0.1,0.2s0.2,0,0.2-0.1l0,0
						c0.2,0.2,0.4,0.3,0.7,0.3c0.7,0,1.3-1.1,1.3-2.4s-0.6-2.4-1.3-2.4h-0.2l0.2-6.4c0.6-0.4,1.1-1.1,1.1-1.8h25.3
						c0.2,0.9,0.7,1.5,1.4,1.5h0.1v0.2c1.2,3.7,2.5,7.9,3.5,11.2c-0.8,1.2-1.1,2.7-1,4.1c0.2,2.9,2.2,5.1,4.3,4.8
						c0.4,0,0.7-0.1,1-0.3h1c2.1-0.3,3.6-2.8,3.4-5.7c-0.1-1.7-0.9-3.2-2.2-4.3c0.4-1.1,0.7-2.3,0.7-3.5c-0.2-2.6-0.9-5.2-2.1-7.5
						c1.7-2.4,2.8-5.1,3.4-7.9c0.8-4.2-0.9-9.7-1.2-10.9c2.5-3.2,4-7.1,4.3-11.2c0.4-3.4-1.3-8.6-1.7-9.7c1.7-2,2.8-4.4,3.2-7
						C210.5,27.6,208.3,24.4,208.2,24.2z M200.6,91.4l-1,0.4l0.2-2.1L200.6,91.4z M199,91.7h-0.4c-0.7,0.1-1.3,0.4-1.8,0.9
						c-1.1-3.4-2.4-7.5-3.4-10.8h0.9l0.6,0.2c0.4,0,0.8-0.2,1-0.6L199,89V91.7z M184.1,77.8c1.4,0.1,2.8,0.8,3.7,1.9h-7.3
						C181.4,78.7,182.7,78,184.1,77.8z M175.4,77.9h0.1c1.4,0.1,2.7,0.7,3.6,1.8h-7.5C172.6,78.7,174,78.1,175.4,77.9L175.4,77.9z
						 M168.2,78.4c0.9,0.2,1.6,0.7,2.3,1.3h-4.6c0-0.3,0-0.6-0.1-0.9C166.6,78.5,167.4,78.3,168.2,78.4L168.2,78.4z M163.9,89.2
						h-0.3l0.2-7.3l0,0l0.4,0.2L164,89C163.9,89.1,163.9,89.1,163.9,89.2L163.9,89.2z M189.2,79.7c0.5-0.7,1.2-1.2,2.1-1.4
						c-0.2,0.4-0.3,0.8-0.3,1.3c0,0.1,0,0.1,0.1,0.1l0,0H189.2z M202.8,88.5c-0.1,1.1-0.3,2.2-0.6,3.2l-0.7-0.2l-1.5-3.2l0.8-6.9
						C202,83.6,202.7,86,202.8,88.5L202.8,88.5z M204.1,72.9c-0.6,2.7-1.7,5.3-3.2,7.6L203,63C203.6,64.7,204.8,69.4,204.1,72.9
						L204.1,72.9z M207.2,51c-0.4,3.8-1.7,7.4-4,10.5l2.4-19.9C206,42.9,207.6,47.8,207.2,51z"/>
				</g>
			</g>
			<path class="st27" d="M294.8,92.2c0,0-6.9,2.8-10.4,2c-2.4-0.7-4.6-1.9-6.5-3.5c-0.6-0.7-1-1.5-1.4-2.3c0,0-0.1,1.5-1.2,0.6
				s-1.2-1.4-1.3-1c0.3,1.3,1.2,2.4,2.3,3.1c1.5,0.9,3.2,4.7,6.6,5.8s10.4,0.4,10.4,0.4L294.8,92.2z"/>
			<path class="st29" d="M281.7,96.3l1.1-2.7c1,0.2,2,0.4,3,0.5c1.4,0,5.2-0.6,5.2-0.6s0,1.4-0.1,2.4s-1.1,1.7-1.1,1.7
				S282.8,98,281.7,96.3z"/>
			<path class="st27" d="M268.5,80.5c-0.4-0.4-1.1-0.5-1.6-0.3c-2.1,1.1-7.1,1.4-8,1.4s-7-1.3-7-1.3s-0.7-1.5-1-1.3s0.3,1.2,0.3,1.2
				s-1.7-0.8-1.9-0.5c0.1,0.8,0.8,1.5,1.6,1.6c1.2,0,6.3,2.5,9,2.4s8.8,0.1,9.2-1.8C269.1,81.4,268.9,80.8,268.5,80.5z"/>
			<path class="st45" d="M210.1,21.1c0,4.2,2.8,7.5,6.2,7.5s6.3-3.3,6.3-7.5s-2.8-7.5-6.3-7.5S210.1,17,210.1,21.1z"/>
			<path class="st46" d="M216.3,15.3h0.5c-2.5,0.3-4.4,2.8-4.4,5.8s1.9,5.6,4.4,5.9h-0.5c-2.7,0-4.8-2.6-4.8-5.9
				S213.6,15.3,216.3,15.3z"/>
			<path class="st47" d="M212.4,21.1c0-3,1.9-5.5,4.4-5.8s4.4,2.8,4.4,5.8s-1.9,5.6-4.4,5.9S212.4,24.2,212.4,21.1z"/>
			<path class="st46" d="M216.3,18.5h0.2c-1.2,0.3-2,1.4-1.9,2.6c-0.1,1.2,0.7,2.4,1.9,2.7h-0.2c-1.3-0.2-2.3-1.4-2.2-2.7
				C214,19.8,215,18.7,216.3,18.5z"/>
			<path class="st5" d="M214.6,21.1c-0.2-1.1,0.4-2.1,1.5-2.4c1.1-0.2,2.1,0.4,2.4,1.5c0.1,0.3,0.1,0.6,0,0.9
				c0.4,1.1-0.1,2.3-1.2,2.7s-2.3-0.1-2.7-1.2C214.4,22.2,214.4,21.6,214.6,21.1z"/>
			<path class="st45" d="M199.5,94.4c0.3,3,2.6,5.2,5.1,5s4.3-2.9,4-5.9s-2.6-5.2-5.1-5S199.2,91.4,199.5,94.4z"/>
			<path class="st46" d="M203.6,89.7h0.4c-1.9,0.6-3.1,2.5-2.8,4.5c0.2,2.2,1.8,3.9,3.6,3.9h-0.3c-2,0.1-3.7-1.6-4-3.9
				S201.7,89.9,203.6,89.7z"/>
			<path class="st47" d="M201.2,94.2c-0.3-2,0.9-3.9,2.8-4.5c2,0.2,3.5,1.9,3.6,3.9c0.3,2-0.9,3.9-2.8,4.5
				C203,98.1,201.4,96.4,201.2,94.2z"/>
			<path class="st46" d="M203.9,92h0.1c-0.9,0.3-1.4,1.2-1.2,2.1c0,0.9,0.7,1.6,1.6,1.7h-0.2c-0.8,0.1-1.6-0.7-1.7-1.7
				C202.3,93.1,202.9,92.2,203.9,92z"/>
			<path class="st46" d="M202.8,94.1c-0.2-0.9,0.3-1.8,1.2-2.1c0.9,0.1,1.6,0.9,1.6,1.8c0.2,0.9-0.3,1.8-1.2,2
				C203.5,95.7,202.8,95,202.8,94.1z"/>
			<path class="st45" d="M159.8,88c0,1.3,0.7,2.4,1.6,2.4s1.5-1.1,1.5-2.4s-0.7-2.5-1.5-2.5S159.8,86.6,159.8,88z"/>
			<path class="st48" d="M161,86.2h-0.3c-0.1,0.1-0.1,0.4,0,0.5c0.4,0.5,0.6,1.1,0.5,1.7c-0.1,0.4-0.2,0.8-0.5,1.1
				c-0.1,0.2,0.1,0.4,0.3,0.5c0.1,0,0.2,0,0.2,0c0.4-0.4,0.6-1,0.7-1.6c0-0.5,0-1.7-0.7-2.2H161z"/>
			<path class="st48" d="M160.4,86.2h-0.3c-0.1,0.2-0.1,0.4,0.1,0.5s0.4,1.1,0.4,1.7c0,0.4-0.1,0.8-0.4,1.1c-0.2,0.1-0.2,0.3,0,0.5
				c0.1,0.1,0.4,0.1,0.5,0c0.4-0.4,0.6-1,0.6-1.6c0-0.5,0-1.7-0.7-2.2H160.4z"/>
			<path class="st48" d="M159.8,86.2h-0.3c-0.1,0.2,0,0.4,0.1,0.5c0.4,0.5,0.6,1.1,0.4,1.7c0,0.4-0.1,0.8-0.4,1.1
				c-0.1,0.1-0.1,0.4,0,0.5c0.2,0.1,0.3,0.1,0.5,0c0.4-0.4,0.6-1,0.7-1.6c0-0.5,0-1.7-0.8-2.2H159.8z"/>
			<path class="st45" d="M159.4,76.6c0,1.4,0.7,2.5,1.7,2.5s1.7-1.1,1.7-2.5s-0.8-2.4-1.7-2.4S159.4,75.3,159.4,76.6z"/>
			<path class="st49" d="M196.2,76.5h-35c-0.2,0-0.3,0.1-0.3,0.3l0,0c0,0.2,0.1,0.4,0.3,0.4h35c0.2,0,0.3-0.2,0.3-0.4
				S196.4,76.5,196.2,76.5L196.2,76.5z"/>
			<path class="st49" d="M184.4,73.8h-0.3c-1.9,0.2-3.7,1.1-5,2.5c-1.3-1.5-3.2-2.4-5.2-2.4c-2.2,0-4.4,1.6-5.2,2.2
				c-0.9-0.9-2-1.5-3.2-1.7c-1.6-0.1-3.3,0.3-4.7,1.1c-0.2,0.1-0.2,0.3-0.2,0.5s0.4,0.2,0.5,0.1s2.6-1.3,4.3-1
				c1.2,0.3,2.2,0.9,3.1,1.7c0.1,0.2,0.3,0.2,0.5,0.1c1.3-1.3,3.1-2.1,4.9-2.3h0.1c1.9,0.1,3.6,1,4.8,2.4c0,0.1,0.1,0.2,0.2,0.2h0.3
				c1.3-1.4,3-2.4,4.9-2.6c2.7-0.1,4.9,2.6,4.9,2.6h0.3l0.3-0.2c0.7-1.2,1.9-1.9,3.3-2.1c1.7-0.1,3.4,0.6,4.6,1.9
				c0.2,0.2,0.4,0.2,0.5,0.1s0.2-0.3,0.1-0.5c-1.4-1.5-3.3-2.3-5.3-2.2c-1.4,0.2-2.8,0.9-3.6,2.1C188.1,74.8,186.3,73.9,184.4,73.8z
				"/>
			<path class="st48" d="M161,74.8l-0.3,0.2c-0.1,0.1-0.1,0.4,0,0.5c0.4,0.2,0.5,1,0.5,1.6c-0.1,0.4-0.2,0.8-0.5,1.1
				c-0.1,0.1-0.1,0.4,0,0.5c0.2,0.2,0.4,0.2,0.5,0c0.4-0.4,0.6-0.9,0.7-1.5c0-0.5,0-1.8-0.7-2.3L161,74.8z"/>
			<path class="st48" d="M160.4,74.8l-0.3,0.2c-0.1,0.1-0.1,0.3,0,0.4l0.1,0.1c0.4,0.2,0.4,1,0.4,1.6c0,0.4-0.1,0.8-0.4,1.1
				c-0.2,0.2-0.2,0.4,0,0.5s0.3,0.2,0.5,0c0.4-0.4,0.6-0.9,0.6-1.5c0.1-0.8-0.2-1.7-0.7-2.3L160.4,74.8z"/>
			<path class="st49" d="M160.2,76.3c-0.2,0-0.4,0.1-0.4,0.3l-0.3,12.1c0,0.2,0.2,0.3,0.4,0.3s0.4-0.1,0.4-0.3l0.2-12.1
				C160.5,76.4,160.4,76.3,160.2,76.3L160.2,76.3L160.2,76.3z"/>
			<path class="st49" d="M158.1,76.3c-0.2,0-0.4,0.1-0.4,0.3l-0.2,12.1c0,0.2,0.1,0.3,0.3,0.3l0,0c0.2,0,0.4-0.1,0.4-0.3l0.3-12.1
				C158.5,76.4,158.3,76.3,158.1,76.3L158.1,76.3z"/>
			<path class="st45" d="M157.2,88.3c0,1.4,0.7,2.5,1.6,2.5s1.5-1.1,1.5-2.5s-0.7-2.4-1.5-2.4S157.2,87,157.2,88.3z"/>
			<path class="st17" d="M156.4,88.3c0,1.4,0.8,2.5,1.8,2.5s1.8-1.1,1.8-2.5s-0.8-2.4-1.8-2.4S156.4,87,156.4,88.3z"/>
			<path class="st50" d="M157.5,88.3c0,0.6,0.3,1.1,0.7,1.1s0.8-0.5,0.8-1.1c0-0.5-0.3-0.9-0.8-1C157.8,87.3,157.5,87.8,157.5,88.3z
				"/>
			<path class="st48" d="M159.8,74.8l-0.3,0.2c-0.1,0.1,0,0.4,0.1,0.5s0.5,1,0.4,1.6c0,0.4-0.1,0.8-0.4,1.1c-0.1,0.1-0.1,0.4,0,0.5
				s0.3,0.2,0.4,0.1l0.1-0.1c0.4-0.4,0.6-0.9,0.7-1.5c0-0.5,0-1.8-0.8-2.3S159.9,74.8,159.8,74.8z"/>
			<path class="st45" d="M157.2,76.6c0,1.4,0.8,2.5,1.8,2.5s1.7-1.1,1.7-2.5s-0.8-2.4-1.7-2.4S157.2,75.3,157.2,76.6z"/>
			<path class="st48" d="M156.9,76.6c0,1.4,0.7,2.5,1.7,2.5s1.7-1.1,1.7-2.5s-0.8-2.4-1.7-2.4S156.9,75.3,156.9,76.6z"/>
			<path class="st45" d="M195.2,76.3c0,1.3,0.7,2.4,1.7,2.4s1.6-1.1,1.6-2.4s-0.7-2.5-1.6-2.5S195.2,74.9,195.2,76.3z"/>
			<path class="st48" d="M196.6,74.5h-0.2c-0.1,0.1-0.2,0.3-0.1,0.4l0.1,0.1c0.4,0.5,0.6,1.1,0.4,1.7c0,0.4-0.1,0.8-0.4,1.1
				c-0.1,0.2-0.1,0.3,0,0.5h0.5c0.4-0.4,0.6-0.9,0.7-1.5c0-0.6,0-1.8-0.7-2.3L196.6,74.5z"/>
			<path class="st48" d="M196.1,74.5h-0.3c-0.1,0.2-0.1,0.4,0.1,0.5c0.3,0.5,0.4,1.1,0.4,1.7c-0.1,0.7-0.4,1.1-0.5,1.1
				c-0.1,0.2-0.1,0.3,0,0.5h0.5c0.4-0.4,0.7-0.9,0.7-1.5s0-1.8-0.7-2.3L196.1,74.5z"/>
			<path class="st17" d="M194.6,78.3h-0.1c-0.2,0.1-0.4,0.4-0.3,0.6c2.9,8.1,6.5,17.9,6.7,18.2s0.4,0.2,0.6,0.1
				c0.2-0.2,0.2-0.4,0.1-0.6c-0.3-0.6-4.1-11.1-6.6-18C195,78.4,194.8,78.3,194.6,78.3z"/>
			<path class="st17" d="M196.6,74.5h-0.2c-0.2,0.2-0.3,0.4-0.2,0.6l8.6,16.3c0.1,0.2,0.4,0.3,0.6,0.2c0.2-0.2,0.3-0.4,0.2-0.6
				L197,74.7C197,74.6,196.8,74.5,196.6,74.5z"/>
			<path class="st48" d="M195.5,74.5h-0.3c-0.1,0.2-0.1,0.4,0.1,0.5c0.4,0.5,0.6,1.1,0.4,1.7c0,0.4-0.1,0.8-0.4,1.1
				c-0.1,0.1-0.2,0.3-0.1,0.4l0.1,0.1h0.5c0.4-0.4,0.6-0.9,0.6-1.5c0.2-0.8-0.1-1.7-0.7-2.3L195.5,74.5z"/>
			<path class="st45" d="M192.8,76.3c0,1.3,0.8,2.4,1.8,2.4s1.8-1.1,1.8-2.4s-0.8-2.5-1.8-2.5S192.8,74.9,192.8,76.3z"/>
			<path class="st48" d="M192.3,76.3c0,1.3,0.8,2.4,1.8,2.4s1.8-1.1,1.8-2.4s-0.8-2.5-1.8-2.5S192.3,74.9,192.3,76.3z"/>
			
				<rect x="159" y="88.4" transform="matrix(1.570621e-02 -0.9999 0.9999 1.570621e-02 61.6817 254.55)" class="st48" width="2.2" height="15.1"/>
			
				<rect x="159.4" y="88.3" transform="matrix(1.999600e-02 -0.9998 0.9998 1.999600e-02 60.6194 253.6185)" class="st49" width="0.6" height="15.1"/>
			<path class="st49" d="M161.5,95.6L161,95c0.2-0.2,0.3-0.4,0.3-0.7c0-0.6-0.4-1-1-1.1c-0.6,0-1.1,0.5-1.1,1.1l0,0
				c0,0.3,0.1,0.5,0.3,0.7l-0.6,0.5c-0.3-0.3-0.5-0.7-0.5-1.2c0.1-1,0.9-1.8,1.9-1.8s1.8,0.8,1.8,1.8l0,0
				C162.1,94.8,161.9,95.3,161.5,95.6z"/>
			<path class="st17" d="M160.4,94c-0.2,0-0.3-0.2-0.3-0.4v-3.8c0-0.2,0.1-0.4,0.3-0.4s0.4,0.2,0.4,0.4v3.8
				C160.8,93.8,160.6,94,160.4,94z"/>
			<path class="st17" d="M201.8,89.8c-0.2,0-0.3-0.2-0.3-0.4l9.3-67.2c0-0.2,0.2-0.3,0.4-0.3s0.3,0.2,0.3,0.4l-9.2,67.2
				c-0.1,0.2-0.2,0.3-0.4,0.3H201.8z"/>
			<path class="st17" d="M203.3,94.3h-0.1c-0.2-0.1-0.2-0.2-0.2-0.4c0,0,0-0.1,0.1-0.1c0-0.1,3-4.9,3-8.3s-2.4-7.5-2.4-7.5
				c-0.1-0.2-0.1-0.3,0-0.5c1.9-2.4,3.2-5.1,4-8c1-4.5-1.5-10.9-1.5-11c-0.1-0.1-0.1-0.3,0-0.4c2.9-3.1,4.7-7,5.2-11.2
				c0.4-3.7-2.1-9.9-2.1-10c0-0.1,0-0.3,0.1-0.4c1.9-1.9,3.2-4.3,3.7-6.9c1.4-6.5-1.2-9.8-1.2-9.8c-0.1-0.2-0.1-0.3,0-0.5
				c0.2-0.1,0.4-0.1,0.5,0.1s2.9,3.5,1.4,10.3c-0.6,2.7-1.9,5.2-3.7,7.2c0.4,1.2,2.4,6.5,2,10c-0.5,4.3-2.3,8.3-5.2,11.5
				c0.5,1.2,2.5,7,1.5,11.2c-0.8,3-2.1,5.8-4,8.2c0.5,0.9,2.4,4.5,2.4,7.7s-3,8.4-3.1,8.6S203.5,94.3,203.3,94.3z"/>
			<path class="st5" d="M213.6,20.6h26.9c0.2,0,0.4,0.8,0.2,1.4l0,0c0,0.2-0.1,0.3-0.2,0.3h-26.9V20.6z"/>
			<path class="st48" d="M227.2,24.6L227.2,24.6l-9.6-0.5c-0.2,0-0.5-0.2-0.5-0.4c0.1-0.3,0.3-0.5,0.5-0.5l9.6,0.5
				c0.3,0,0.5,0.2,0.5,0.5C227.6,24.4,227.4,24.6,227.2,24.6z"/>
			<path class="st48" d="M227.1,18.5h-10c-0.2,0-0.5-0.2-0.5-0.4c0-0.3,0.2-0.5,0.5-0.5h10c0.2,0,0.4,0.3,0.4,0.5
				C227.5,18.3,227.3,18.5,227.1,18.5z"/>
			<ellipse class="st17" cx="211.5" cy="21.1" rx="6.3" ry="7.5"/>
			<path class="st45" d="M211.5,15.3h0.4c-2.4,0.3-4.3,2.8-4.3,5.8s1.9,5.6,4.3,5.9h-0.4c-2.7,0-4.9-2.6-4.9-5.9
				S208.8,15.3,211.5,15.3z"/>
			<path class="st47" d="M207.6,21.1c0-3,1.9-5.5,4.3-5.8s4.4,2.8,4.4,5.8s-1.9,5.6-4.4,5.9S207.6,24.2,207.6,21.1z"/>
			<path class="st46" d="M211.5,18.5h0.2c-1.2,0.3-2,1.4-2,2.6c-0.1,1.3,0.8,2.4,2,2.7h-0.2c-1.3,0-2.2-1.2-2.2-2.7
				C209.2,19.8,210.2,18.6,211.5,18.5L211.5,18.5z"/>
			<path class="st46" d="M209.7,21.1c-0.4-1.1,0.3-2.3,1.4-2.6c1.1-0.4,2.3,0.3,2.6,1.4c0.1,0.4,0.1,0.9,0,1.3
				c0.4,1.1-0.3,2.3-1.4,2.6c-1.1,0.4-2.3-0.3-2.6-1.4C209.6,22,209.6,21.5,209.7,21.1z"/>
			<path class="st17" d="M197.2,94.7c0.3,3,2.5,5.2,5,4.9s4.3-2.8,4-5.8s-2.5-5.2-5-5S196.9,91.7,197.2,94.7z"/>
			<path class="st45" d="M201.3,90h0.3c-1.9,0.7-3,2.5-2.7,4.5c0.2,2.2,1.8,3.9,3.6,3.9h-0.4c-1.9,0.2-3.7-1.5-3.9-3.8
				S199.4,90.2,201.3,90z"/>
			<path class="st47" d="M198.9,94.5c-0.3-2,0.8-3.8,2.7-4.5c1.8,0,3.4,1.7,3.6,3.9c0.3,2-0.8,3.8-2.7,4.5
				C200.7,98.4,199.1,96.7,198.9,94.5z"/>
			<path class="st46" d="M201.5,92.3h0.2c-0.9,0.3-1.4,1.2-1.3,2.1c0,0.9,0.7,1.6,1.6,1.7h-0.1c-1,0-1.7-0.7-1.8-1.7
				C199.9,93.4,200.5,92.5,201.5,92.3z"/>
			<path class="st46" d="M200.4,94.4c-0.1-0.9,0.4-1.8,1.3-2.1c0.9,0.1,1.6,0.9,1.6,1.8c0.3,0.8-0.1,1.6-0.9,1.9s-1.6-0.1-1.9-0.9
				C200.4,94.9,200.4,94.6,200.4,94.4L200.4,94.4z"/>
			<path class="st45" d="M228.6,20.6c0,2.5,1.6,4.6,3.7,4.6s3.8-2.1,3.8-4.6s-1.7-4.5-3.8-4.5S228.6,18.1,228.6,20.6z"/>
			<path class="st46" d="M232.3,17.1h0.3c-1.6,0.3-2.7,1.8-2.6,3.5c0,1.9,1.1,3.4,2.6,3.5h-0.3c-1.6,0-2.9-1.6-2.9-3.6
				S230.7,17.1,232.3,17.1z"/>
			<path class="st47" d="M230,20.6c-0.1-1.7,1-3.2,2.6-3.5c1.6,0.3,2.8,1.8,2.7,3.5c0.1,1.7-1,3.2-2.7,3.5
				C231.1,24,230,22.5,230,20.6z"/>
			<path class="st46" d="M232.3,19h0.2c-0.7,0.1-1.3,0.8-1.2,1.5c-0.1,0.8,0.5,1.5,1.2,1.6h-0.2c-0.8-0.1-1.4-0.8-1.3-1.6
				C231,19.7,231.6,19.1,232.3,19z"/>
			<path class="st5" d="M231.3,20.6c-0.1-0.7,0.5-1.4,1.2-1.5c0.7,0.1,1.3,0.8,1.2,1.5c0,0.7-0.5,1.4-1.2,1.6
				C231.8,22.1,231.2,21.4,231.3,20.6z"/>
			<path class="st17" d="M225.6,20.6c0,2.5,1.7,4.6,3.8,4.6s3.8-2.1,3.8-4.6s-1.7-4.5-3.8-4.5S225.6,18.1,225.6,20.6z"/>
			<path class="st45" d="M229.4,17.1h0.3c-1.6,0.3-2.8,1.8-2.7,3.5c-0.1,1.7,1,3.2,2.7,3.5h-0.3c-1.6,0-2.9-1.6-2.9-3.6
				S227.8,17.1,229.4,17.1z"/>
			<path class="st47" d="M227,20.6c-0.1-1.7,1.1-3.2,2.7-3.5c1.6,0.3,2.7,1.8,2.6,3.5c0,1.9-1.1,3.4-2.6,3.5
				C228,23.8,226.9,22.3,227,20.6z"/>
			<path class="st46" d="M229.4,19c0.1,0,0.1,0,0.1,0.1l0,0c-0.7,0.1-1.3,0.8-1.2,1.5c0,0.7,0.5,1.4,1.2,1.6h-0.1
				c-0.8-0.1-1.4-0.8-1.3-1.6C228,19.8,228.6,19.1,229.4,19z"/>
			<path class="st46" d="M228.3,20.6c-0.1-0.7,0.5-1.4,1.2-1.5c0.7,0.1,1.3,0.8,1.2,1.5c0.1,0.8-0.5,1.5-1.2,1.6
				C228.8,22,228.3,21.3,228.3,20.6z"/>
			<path class="st17" d="M303.3,234h-0.1c-3.1-0.7-6.2-1.7-9.1-3h-7.6c-1.9,0-3.4-1-3.4-2.3s0.5-2.9,6.8-3.4c1.5-1-0.9-19.8-3-36.4
				c-4.4-34.3-7.2-58.9-2.1-61.4c2.9-1.4,5.1-4.3,6.2-8.1c1.7-6,0.5-13.2-3.3-19.2c-7.6-12.3-19.8-15.5-30.6-18.3s-17.8-6.3-25-17.5
				s-13-32.5-15-39.7c-0.2-0.8-0.4-1.6-0.7-2.4c-0.1-0.2-0.1-0.3-0.1-0.5c0.1-0.3,0.4-0.4,0.7-0.3c0.3,0.2,0.3,0.2,1.1,3
				c1.9,7.1,8,28.8,14.8,39.4s13.5,14.2,24.5,17c11,2.8,23.3,6.1,31.2,18.8c3.9,6.3,5.1,13.7,3.3,19.9c-1.1,4.1-3.5,7.3-6.7,8.8
				c-4.8,2.4-0.5,35.9,2.7,60.4c2.8,21.7,4.4,35.1,2.7,37.2c-0.1,0.2-0.4,0.3-0.6,0.3c-4.8,0.4-6,1.7-5.9,2.4s1,1.3,2.4,1.3h6.2
				c-0.3-0.2-0.4-0.6-0.4-0.9c-0.1-0.7,0.5-1.4,1.7-1.8c3.9-1.5,15.5-1.5,17,0.5c0.3,0.4,0.4,0.9,0.2,1.4c-0.8,1.6-6.3,1.9-14.7,1.9
				c2.3,0.8,4.6,1.5,6.9,2c0.3,0,0.5,0.3,0.4,0.6l0,0C303.7,233.9,303.5,234,303.3,234z M294.3,230c6.6,0,15.3,0,16-1.4
				c0-0.1,0-0.2-0.1-0.3c-0.9-1.2-11.5-1.8-15.8-0.2c-0.7,0.3-1.2,0.6-1.1,0.9S293.6,229.6,294.3,230z"/>
			<path class="st28" d="M252.6,126.1c0,0-1.2,0.1-0.7-0.3c1.1-0.6,1.6-1.9,1.3-3.1l1.3-0.2v1.8l-1.1,1.5
				C253.4,125.8,253.7,126.3,252.6,126.1z"/>
			
				<linearGradient id="SVGID_15_" gradientUnits="userSpaceOnUse" x1="-6323.1001" y1="1741.3" x2="-6322.2197" y2="1741.3" gradientTransform="matrix(-1 0 0 1 -6068.3501 -1616)">
				<stop  offset="9.000000e-02" style="stop-color:#D70010"/>
				<stop  offset="0.87" style="stop-color:#7A0110"/>
			</linearGradient>
			<polygon class="st51" points="253.9,126.5 253.9,125 254.8,124.1 254.4,126.5 			"/>
			
				<linearGradient id="SVGID_16_" gradientUnits="userSpaceOnUse" x1="-6323.21" y1="1741.1969" x2="-6319.3101" y2="1741.1969" gradientTransform="matrix(-1 0 0 1 -6068.3501 -1616)">
				<stop  offset="9.000000e-02" style="stop-color:#D70010"/>
				<stop  offset="0.87" style="stop-color:#7A0110"/>
			</linearGradient>
			<path class="st52" d="M254.4,123.7c0,0,0.2-0.2,0.4,0.3s-0.1,1.1-0.1,1.1c-0.4,0.1-0.8,0.3-1,0.7c-0.1,0.3-0.3,0.6-0.5,0.8
				c-0.2,0.3-2.2,0-2.2,0s-0.1-0.2,0.2-0.4l0.7-0.4c0.3,0.2,0.7,0.3,1,0.1C253.4,125.2,253.9,124.5,254.4,123.7z"/>
			<path class="st28" d="M257.5,126.1c0,0-1.2,0.1-0.7-0.3c1.1-0.6,1.6-1.9,1.3-3.1l1.3-0.2v1.8l-1.1,1.5
				C258.3,125.8,258.6,126.3,257.5,126.1z"/>
			
				<linearGradient id="SVGID_17_" gradientUnits="userSpaceOnUse" x1="-6328.04" y1="1741.3" x2="-6327.1602" y2="1741.3" gradientTransform="matrix(-1 0 0 1 -6068.3501 -1616)">
				<stop  offset="9.000000e-02" style="stop-color:#D70010"/>
				<stop  offset="0.87" style="stop-color:#7A0110"/>
			</linearGradient>
			<polygon class="st53" points="258.8,126.5 258.9,125 259.7,124.1 259.4,126.5 			"/>
			
				<linearGradient id="SVGID_18_" gradientUnits="userSpaceOnUse" x1="-6328.1602" y1="1741.1969" x2="-6324.25" y2="1741.1969" gradientTransform="matrix(-1 0 0 1 -6068.3501 -1616)">
				<stop  offset="9.000000e-02" style="stop-color:#D70010"/>
				<stop  offset="0.87" style="stop-color:#7A0110"/>
			</linearGradient>
			<path class="st54" d="M259.4,123.7c0,0,0.1-0.2,0.3,0.3s-0.1,1.1-0.1,1.1c-0.4,0.1-0.7,0.4-0.9,0.7l-0.5,0.8
				c-0.3,0.3-2.3,0-2.3,0s-0.1-0.2,0.3-0.4l0.6-0.4c0,0,0.6,0.4,1,0.1C258.4,125.2,258.9,124.5,259.4,123.7z"/>
			<path class="st7" d="M252.6,122.7c0,0-0.4-14-0.7-15s13.3-11.8,13.3-11.8h2.7l2.3,0.8c0.9,1.8-1.3,2.7-2.1,3.8l-12.3,9l-1.3,13
				L252.6,122.7z"/>
			<path class="st55" d="M257.7,122.7c0,0-1.8-13.2-2.1-14.3s11-11.6,11-11.6s4.9-1.7,6.1,0.5c2.9,4.6-13.4,12-13.4,12v13.2
				L257.7,122.7z"/>
			<path class="st7" d="M268.2,96.8c0.9,1,1,2.5,0.3,3.6c-0.7,1.3-10.1,7.9-11.3,8.6s-1.5,0-1.5,0l2,13.7l1.7-0.2
				c0,0,0.3-11.6,0.4-12.5s9.3-6,12-8.4c1.1-1,1.7-2.5,1.7-4l-7.2-1.4L268.2,96.8z"/>
			<path class="st29" d="M268.5,78.9c-1.1,0-1.5,0.5-2.1,1.4c-0.7,1-1.6,1.9-2.6,2.6c-0.6,0.6-0.9,11.3,1.8,13.4s7.9,1.3,7.9,1.3
				s-3.5-4.4-3.3-7.9s1.5-8.6,0.9-9.5C270.7,79.2,269.6,78.7,268.5,78.9z"/>
			<path class="st56" d="M263.9,92.5c1.8-1.4,3.2-3.4,3.9-5.6c0.5-1.4,0.7-2.8,0.7-4.3l1.5-1.3l1.3,1.9c0,0-1.2,5.3-0.9,7.3
				s3.4,7.1,3.4,7.1h-3.4c-1.8,0.1-3.6-0.3-5.2-1.2C264.1,95.4,263.9,92.5,263.9,92.5z"/>
			<path class="st28" d="M267.6,71.7c-0.7,1.2-1.1,2.5-1,3.9c0.1,0.6,1.6,0.8,1.6,0.8l-1,3c0,0,1-0.9,1.8-0.4s1.1,0.1,1.1,0
				s1.8-5.6,0.7-6.5S267.6,71.7,267.6,71.7z"/>
			
				<linearGradient id="SVGID_19_" gradientUnits="userSpaceOnUse" x1="266.6" y1="-612.8333" x2="275.2045" y2="-612.8333" gradientTransform="matrix(1 0 0 -1 0 -536)">
				<stop  offset="9.000000e-02" style="stop-color:#D70010"/>
				<stop  offset="0.87" style="stop-color:#7A0110"/>
			</linearGradient>
			<path class="st57" d="M268,72.5c-0.8-0.1-1.4-0.9-1.4-1.7c0.1-0.4,0.3-0.7,0.5-1c1-1.3,2.2,0.7,2.2,1.1s1.3-1.9,3.6,0.6
				s-0.5,5.2,0.3,6.9s1.9,1.1,2,2.5s-1.5,1.3-1.5,1.3s0.5,1.2-0.2,1.5s-2.2-0.5-2.2-0.5s0.6,1.1-0.5,1.1s-3.6-3.3-2.6-5.9
				s1.9-3.7,2-4.5s-0.4-0.3-0.6-0.3S269.7,72.8,268,72.5z"/>
			<path class="st28" d="M268.9,79.7c-0.5-0.2-1.1-0.2-1.5,0.2c-1.5,1-5.4,4-5.8,4l-7.1-3.7c0,0-0.8-1.4-1.1-1.2s0.4,1.1,0.4,1.1
				s-1.8-0.6-1.9-0.3c0.1,0.9,0.8,1.6,1.7,1.5l0,0c1.2,0,6.3,5.3,9,5s6-2.4,7.1-5C269.8,80.6,269.5,80,268.9,79.7z"/>
			<path class="st7" d="M283.8,101.5l-13.5,8.3l-5.7,12.8l2.7,0.8c0,0,5.5-4.8,6.7-10.2c0.5-2.2,15-4.1,16.7-10
				C291.3,100.9,286.2,98.6,283.8,101.5z"/>
			<path class="st58" d="M283.2,124.1c0,0-7.8-8.9-8.7-11.1s14.3-10.6,14.3-10.6s5.1,0.2,5.1,2.6c-0.1,4.5-13.1,6.6-13.1,8.5
				s4.6,10.3,4.6,10.3L283.2,124.1z"/>
			<polygon class="st28" points="286.8,126.5 285.2,126.6 283.2,124.1 285.4,123.8 			"/>
			<polygon class="st28" points="263.8,124.8 265.3,125 267,123.2 265,122.6 			"/>
			
				<linearGradient id="SVGID_20_" gradientUnits="userSpaceOnUse" x1="259.8" y1="933.7375" x2="265.3" y2="933.7375" gradientTransform="matrix(1 0 0 1 0 -808)">
				<stop  offset="9.000000e-02" style="stop-color:#D70010"/>
				<stop  offset="0.87" style="stop-color:#7A0110"/>
			</linearGradient>
			<path class="st59" d="M259.8,126.7h5.5V125c-1-0.3-2.1-0.3-3.1,0C261,125.5,259.9,125.7,259.8,126.7z"/>
			
				<linearGradient id="SVGID_21_" gradientUnits="userSpaceOnUse" x1="281.4" y1="935.2375" x2="286.8" y2="935.2375" gradientTransform="matrix(1 0 0 1 0 -808)">
				<stop  offset="9.000000e-02" style="stop-color:#D70010"/>
				<stop  offset="0.87" style="stop-color:#7A0110"/>
			</linearGradient>
			<path class="st60" d="M281.4,128.2h5.4v-1.7c-1-0.3-2.1-0.3-3.1,0C282.5,127,281.5,127.2,281.4,128.2z"/>
			<path class="st28" d="M291.6,92.7l-10.7,0.4c-1.1,0.1-6.9-4.6-6.9-4.6c-0.6,0-1.1-0.3-1.5-0.7c-0.3-0.4-0.5-0.9-0.5-1.4
				c0,0,1.2,1,1.9,0.9s0.6-1,0.6-1l0.8,1.2v0.6c0.3,0.5,5.4,2.1,6.4,2.2s8.9-0.3,8.9-0.3L291.6,92.7z"/>
			<path class="st28" d="M290.9,81.8c0,0-1.1,3.8-0.6,4.6s2.2,0.2,2.2,0.7c-0.2,0.8-0.5,1.6-0.8,2.4c0.9-0.2,1.7-0.2,2.6,0l0.8,0.4
				c0,0-0.2-7.9-2.3-8.5S290.9,81.8,290.9,81.8z"/>
			
				<linearGradient id="SVGID_22_" gradientUnits="userSpaceOnUse" x1="290.2836" y1="-618.3627" x2="296.1" y2="-618.3627" gradientTransform="matrix(1 0 0 -1 0 -536)">
				<stop  offset="9.000000e-02" style="stop-color:#D70010"/>
				<stop  offset="0.87" style="stop-color:#7A0110"/>
			</linearGradient>
			<path class="st61" d="M290.3,80.2c0.1,0.7,0.2,1.4,0.5,2.1c0.1-0.3-0.1-0.8,0.7-0.4c0.9,0.3,1.5,1.1,1.6,2
				c0.1,0.2,0.2,0.3,0.4,0.2s0.5-0.4,0.6-0.2s-0.2,1.1-0.2,1.2c0,0.2,0.1,0.4,0.3,0.5c1.3,1.5,1.7-1.3,1.8-1.6c0-0.2,0-0.4-0.1-0.6
				h-0.3l0.5-0.5v-0.2c-0.1-1.1-0.7-2.1-1.6-2.7C293.9,79.5,290,77.2,290.3,80.2z"/>
			<path class="st56" d="M295,88.7c0,0,8.1,4.5,3.6,14.5c-1.8,4.1-7.4,5.3-7.4,5.3l-9.4-7.1c5-2.2,9-2,9-7.9
				C290.8,91.3,290.9,87.9,295,88.7z"/>
			<path class="st56" d="M281.7,90.3l-0.2,2.8c0,0,13.1,1.6,14.1-0.4s-0.1-3.3-1.7-4S281.7,90.3,281.7,90.3z"/>
			<path class="st7" d="M274.5,112.4c0,0,0.8,0.7,3.2,0.3s7.7-3.8,9.6-5c0.3-0.2,0.5-0.6,0.3-1l-0.3-1.1l3.9,2.9
				c-1.2,0.4-2.3,0.9-3.4,1.5c-1.7,1-6.9,2.6-6.9,3.2s4.5,10.6,4.5,10.6l-2.2,0.3l-6.3-6.9C275.7,115.7,273.8,112.3,274.5,112.4z"/>
			<path class="st29" d="M285.7,100.1c1.7-0.4,3.4-0.9,5-1.5c2.1-1,2.4-4.4,2.4-4.4l-11.6-1.1l0.2-2c0,0,6.4,0.2,9.5-0.7
				s3.8-1.7,3.8-1.7c3.3,1.7,5.4,5,5.5,8.7c0.2,6.2-1.9,7.9-3.6,9s-5.7,2.1-5.7,2.1l-9.4-7.1L285.7,100.1z"/>
			<polygon class="st6" points="127.1,261 124.5,260.1 124.5,259.2 124.7,259.1 124.5,258.7 124.5,256.3 125.3,256.3 124.6,256 
				124.6,253.9 124.3,253.8 124.6,253.5 125,253.4 125,251.4 125.4,251.1 124.9,250.8 124.7,249 128.8,249.2 131.8,257.5 
				130.2,260.9 			"/>
			<polygon class="st1" points="145.3,261 144.8,258.9 145.4,258.4 145.4,256.2 141,256.2 142.8,255.8 142.8,254.8 128.6,254.8 
				128.6,256.3 130.3,256.3 130.3,258.3 127.1,258.3 127.1,261 			"/>
			<polygon class="st1" points="127.7,252.8 144,252.8 144.6,254.6 128.3,254.6 			"/>
			<rect x="127.3" y="251.4" class="st1" width="18.3" height="1.4"/>
			<rect x="127.7" y="250.6" class="st1" width="16.3" height="1.4"/>
			<polygon class="st1" points="127.7,249.7 145.4,249.7 145.2,251.7 127.7,251.7 			"/>
			<rect x="127.9" y="255.2" class="st1" width="17.5" height="2.3"/>
			<rect x="128.3" y="254.6" class="st1" width="16.3" height="0.6"/>
			<rect x="127.7" y="258" class="st1" width="15.5" height="0.5"/>
			<polygon class="st1" points="128.8,250.3 134.8,250.3 133.9,250.6 			"/>
			<polygon class="st6" points="127.3,253.3 129.3,253.6 127.7,254.2 			"/>
			<polygon class="st6" points="127.7,256.3 130.3,256.3 127.9,256 			"/>
			<polygon class="st6" points="130.1,251.7 127.5,250.9 127.5,250.1 127.7,250 127.5,249.7 127.5,247.5 128.3,247.5 127.6,247.1 
				127.6,245.3 127.3,245.1 127.6,244.8 128,244.8 128,242.9 128.4,242.6 127.9,242.4 127.8,240.7 131.5,240.7 134.8,248.5 
				133.2,251.6 			"/>
			<polygon class="st1" points="146.8,251.7 146.6,249.7 149.2,249.2 149.1,247.4 144,247.4 145.8,246.9 145.8,246 131.6,246 
				131.6,247.4 130.9,248.5 133.3,249.2 130.1,249.3 130.1,251.7 			"/>
			<rect x="130.8" y="245.2" class="st1" width="15.7" height="0.8"/>
			<rect x="130.7" y="244.2" class="st1" width="17.3" height="1.7"/>
			<rect x="129.9" y="242.9" class="st1" width="16.3" height="1.3"/>
			<rect x="130.7" y="242.2" class="st1" width="16.3" height="1.3"/>
			<polygon class="st1" points="130.7,241.1 148.4,241.4 148.2,243.2 130.7,243.2 			"/>
			<rect x="130.9" y="246.4" class="st1" width="17.5" height="2.1"/>
			<rect x="131.3" y="245.9" class="st1" width="16.3" height="0.5"/>
			<rect x="130.7" y="249" class="st1" width="15.5" height="0.5"/>
			<polygon class="st6" points="130.3,244.7 132.3,245 130.2,245 			"/>
			<polygon class="st6" points="130.7,247.4 134.1,247.3 130.7,246.7 			"/>
			<polygon class="st6" points="127.1,241 124.5,240.1 124.5,239.3 124.7,239.1 124.5,238.8 124.5,236.4 125.3,236.4 124.6,236 
				124.6,234 124.3,233.8 124.6,233.5 125,233.4 125,231.4 125.4,231.1 124.9,230.8 124.7,229 128.8,229 131.8,237.5 130.2,240.9 
							"/>
			<polygon class="st1" points="145.3,241.5 144.8,238.9 145.4,238.4 145.4,236.3 141,236.3 142.8,235.8 142.8,234.8 128.6,234.8 
				128.6,236.3 130.3,236.4 130.3,238.3 127.1,238.4 127.1,241 			"/>
			<polygon class="st1" points="127.7,232.8 144,232.8 144.6,234.7 128.3,234.7 			"/>
			<rect x="127.3" y="231.4" class="st1" width="18.3" height="1.4"/>
			<rect x="127.7" y="230.7" class="st1" width="16.3" height="1.4"/>
			<polygon class="st1" points="127.7,229.8 145.4,229.8 145.2,231.8 127.7,231.8 			"/>
			<rect x="127.9" y="235.2" class="st1" width="17.5" height="2.3"/>
			<rect x="128.3" y="234.7" class="st1" width="16.3" height="0.6"/>
			<rect x="127.7" y="238" class="st1" width="15.5" height="0.6"/>
			<polygon class="st1" points="128.8,230.4 134.8,230.4 133.9,230.7 			"/>
			<polygon class="st6" points="127.3,233.3 129.3,233.7 127.7,234.2 			"/>
			<polygon class="st6" points="127.7,236.3 130.3,236.4 127.9,236 			"/>
			<polygon class="st6" points="130.1,231.8 127.5,230.9 127.5,230.2 127.7,230 127.5,229.7 127.5,227.5 128.3,227.5 127.6,227.2 
				127.6,225.3 127.3,225.1 127.6,224.9 128,224.8 128,222.9 128.4,222.7 127.9,222.4 127.8,220.7 131.5,221.6 134.8,228.6 
				133.2,231.7 			"/>
			<polygon class="st1" points="146.8,231.8 146.6,229.7 149.2,229.3 149.1,227.4 144,227.4 145.8,227 145.8,226.1 131.6,226.1 
				131.6,227.5 130.9,228.6 133.3,229.3 130.1,229.3 130.1,231.8 			"/>
			<rect x="130.8" y="225.2" class="st1" width="15.7" height="0.8"/>
			<rect x="130.7" y="224.3" class="st1" width="17.3" height="1.7"/>
			<rect x="129.9" y="222.9" class="st1" width="16.3" height="1.3"/>
			<rect x="130.7" y="222.3" class="st1" width="16.3" height="1.3"/>
			<polygon class="st1" points="130.7,221.5 148.4,221.5 148.2,223.3 130.7,223.3 			"/>
			<rect x="130.9" y="226.4" class="st1" width="17.5" height="2.1"/>
			<rect x="131.3" y="225.9" class="st1" width="16.3" height="0.5"/>
			<rect x="130.7" y="229" class="st1" width="15.5" height="0.5"/>
			<polygon class="st1" points="127.8,220.7 146.9,220.7 148.2,221.5 130.7,221.5 			"/>
			<polygon class="st6" points="130.3,224.7 132.3,225 130.2,225 			"/>
			<polygon class="st6" points="130.7,227.4 134.1,227.4 130.7,226.7 			"/>
			<polygon class="st6" points="127.9,221 125.3,220.3 125.3,219.8 125.5,219.6 125.3,219.4 125.3,217.7 126.1,217.7 125.4,217.5 
				125.4,216.1 125.1,216 125.4,215.8 125.8,215.7 125.8,214.3 126.2,214.1 125.7,213.9 125.6,212.7 129.6,212.7 132.6,218.5 
				131,220.9 			"/>
			<polygon class="st1" points="146.1,221 145.6,219.5 146.3,219.2 146.2,217.7 141.8,217.7 143.6,217.3 143.6,216.7 129.4,216.7 
				129.4,217.7 131.2,217.7 131.2,219.1 127.9,219.1 127.9,221 			"/>
			<polygon class="st1" points="128.5,215.3 144.8,215.3 145.4,216.6 129.1,216.6 			"/>
			<rect x="128.1" y="214.3" class="st1" width="18.3" height="1"/>
			<rect x="128.5" y="213.8" class="st1" width="16.3" height="1"/>
			<polygon class="st1" points="128.5,213.2 146.2,213.2 146,214.6 128.5,214.6 			"/>
			<rect x="128.7" y="216.9" class="st1" width="17.5" height="1.6"/>
			<rect x="129.1" y="216.6" class="st1" width="16.3" height="0.4"/>
			<rect x="128.5" y="218.9" class="st1" width="15.5" height="0.4"/>
			<polygon class="st34" points="134.9,219.8 144.5,220 141.9,220.6 			"/>
			<polygon class="st34" points="133.5,224.8 143.1,225.1 140.5,225.7 			"/>
			<polygon class="st34" points="135.3,234.6 144.8,234.8 142.3,235.4 			"/>
			<polygon class="st34" points="137.4,248.1 147,248.3 147,248.9 			"/>
			<polygon class="st34" points="131.4,236.8 141,237 141,237.5 			"/>
			<polygon class="st34" points="130.6,230.1 140.2,230.3 137.1,231 			"/>
			<polygon class="st34" points="135.3,239.1 144.8,239.4 143.6,239.6 			"/>
			<polygon class="st34" points="130.6,249.9 140.2,250.1 137.1,250.8 			"/>
			<polygon class="st34" points="134.1,258.8 143.6,259.1 140.5,259.8 			"/>
			<polygon class="st34" points="128.8,234.5 134.8,234.6 130.9,235.4 			"/>
			<polygon class="st34" points="130.6,245.6 136.6,245.7 132.7,246.5 			"/>
			<polygon class="st34" points="138.9,256.7 144.8,256.8 141,257.6 			"/>
			<polygon class="st34" points="139.2,228.1 145.2,228.2 141.3,229 			"/>
			<polygon class="st34" points="128.7,214.8 138.3,215.1 135.2,215.8 			"/>
			<polygon class="st34" points="128.5,220.1 133.1,220.1 129.6,220.8 			"/>
			<polygon class="st1" points="129.6,213.6 135.6,213.6 134.7,213.8 			"/>
			<polygon class="st6" points="128.1,215.6 130.1,215.9 128.6,216.2 			"/>
			<polygon class="st6" points="128.5,217.7 131.2,217.7 128.7,217.5 			"/>
			<polygon class="st6" points="130.9,214.6 128.3,214 128.3,213.5 128.5,213.4 128.3,213.1 128.3,211.6 129.1,211.6 128.4,211.4 
				128.4,210.1 128.1,210 128.4,209.8 128.8,209.7 128.8,208.5 129.2,208.3 128.7,208.1 128.7,206.9 132.3,207.5 135.6,212.3 
				134,214.5 			"/>
			<polygon class="st1" points="147.6,214.6 147.4,213.1 150,212.8 150,211.5 144.8,211.5 146.6,211.2 146.6,210.6 132.4,210.6 
				132.4,211.6 131.7,212.3 134.2,212.8 130.9,212.9 130.9,214.6 			"/>
			<rect x="131.7" y="210.1" class="st1" width="15.7" height="0.5"/>
			<rect x="131.5" y="209.4" class="st1" width="17.3" height="1.2"/>
			<rect x="130.7" y="208.5" class="st1" width="16.3" height="0.9"/>
			<rect x="131.5" y="208" class="st1" width="16.3" height="0.9"/>
			<polygon class="st1" points="131.5,207.4 149.2,207.4 149,208.7 131.5,208.7 			"/>
			<rect x="131.7" y="210.9" class="st1" width="17.5" height="1.5"/>
			<rect x="132.1" y="210.5" class="st1" width="16.3" height="0.4"/>
			<rect x="131.5" y="212.7" class="st1" width="15.5" height="0.4"/>
			<polygon class="st34" points="133.2,209.4 141.3,209.4 134.1,210.3 			"/>
			<polygon class="st1" points="128.7,206.9 147.7,206.9 149,207.4 131.5,207.4 			"/>
			<polygon class="st34" points="143.2,212.7 147.4,212.7 144.2,213.6 			"/>
			<polygon class="st34" points="132.6,207.8 138.6,207.8 137.7,208 			"/>
			<polygon class="st6" points="131.1,209.7 133.1,209.9 131.1,209.9 			"/>
			<polygon class="st6" points="131.5,211.6 135,211.5 131.5,211.1 			"/>
			<polygon class="st62" points="129.8,224.9 146.1,221.5 130.3,221.5 129.1,223.3 			"/>
			<path class="st62" d="M130.1,231.8h15.3l-17.6,2l-1.7-1.1c0.1-0.4,0.2-0.9,0.3-1.3c0.1-0.2,0.9-0.6,0.9-0.6L130.1,231.8z"/>
			<polygon class="st62" points="129.2,241.1 145.7,241.5 129.8,244.5 129.4,243 			"/>
			<polygon class="st62" points="130.1,251.7 145.6,252.1 144.6,255.2 126.5,257.2 126.5,252.1 127.7,250.6 			"/>
			<path class="st41" d="M150.5,147.3c-1.3-0.2-2.5-1-3.3-2.1c-0.8-1.3,1.6-8,2.7-10.9l-0.8-25.9c-0.1-0.2,0.2-0.5,0.4-0.5
				c0.3,0,0.6,0.2,0.6,0.5l0.8,26h-0.1c-1.6,4.3-3.1,9.4-2.8,10.2c0.6,0.8,1.6,1.4,2.6,1.6c0.3,0,0.5-0.1,0.7-0.5s0.2-6.9-0.3-10.2
				c0-0.3,0.2-0.6,0.5-0.6s0.5,0.2,0.5,0.5c0.1,0.9,1.2,9,0.2,10.8c-0.3,0.6-0.9,1-1.6,1L150.5,147.3z"/>
			<path class="st41" d="M149.7,105.6c-0.5,0-1-0.2-1.4-0.5c-0.2-0.2-0.3-0.4-0.2-0.7c0.2-0.2,0.5-0.3,0.7-0.1
				c0.7,0.4,1.3,0.4,1.7,0c1.1-1.5,1.5-3.5,0.8-5.3c-0.3-0.6-0.8-1.3-1.5-1.4c-0.4,0-0.9,0.1-1.2,0.4c-0.2,0.2-0.5,0.3-0.7,0.1
				s-0.3-0.5-0.1-0.7l0.1-0.1c0.6-0.5,1.3-0.8,2.1-0.7c1,0.3,1.8,1,2.2,1.9c0.9,1.8,0.4,5.2-1,6.5
				C150.8,105.4,150.3,105.6,149.7,105.6z"/>
			<path class="st41" d="M149.5,134.4c-0.3,0-0.5-0.2-0.5-0.5s0.2-0.5,0.5-0.5h1.6c0.3,0,0.5,0.2,0.5,0.5s-0.2,0.5-0.5,0.5H149.5z"
				/>
			<path class="st41" d="M149.5,133.5c-0.2,0-0.5-0.2-0.5-0.4s0.3-0.5,0.5-0.6h1.6c0.3,0,0.5,0.2,0.5,0.5s-0.2,0.5-0.5,0.5H149.5z"
				/>
			<path class="st41" d="M149.5,132.6c-0.3,0-0.5-0.2-0.5-0.5s0.2-0.5,0.5-0.5h1.6c0.3,0,0.5,0.2,0.5,0.5s-0.2,0.5-0.5,0.5H149.5z"
				/>
			<path class="st41" d="M148.7,108.1c-0.3,0-0.5-0.2-0.5-0.5s0.2-0.5,0.5-0.5h1.6c0.3,0,0.5,0.2,0.5,0.5s-0.2,0.5-0.5,0.5H148.7z"
				/>
			<path class="st41" d="M148.7,107.2c-0.3,0-0.5-0.2-0.5-0.5s0.2-0.5,0.5-0.5h1.6c0.3,0,0.5,0.2,0.5,0.5s-0.2,0.5-0.5,0.5H148.7z"
				/>
			<path class="st41" d="M148.7,106.3c-0.3,0-0.5-0.2-0.5-0.5s0.2-0.5,0.5-0.5h1.6c0.3,0,0.5,0.2,0.5,0.5s-0.2,0.5-0.5,0.5H148.7z"
				/>
			<path class="st41" d="M149.5,131.6c-0.3,0-0.5-0.2-0.5-0.5s0.2-0.5,0.5-0.5h1.6c0.3,0,0.5,0.2,0.5,0.5s-0.2,0.5-0.5,0.5H149.5z"
				/>
			<path class="st41" d="M149.5,130.6c-0.3,0-0.5-0.2-0.5-0.5s0.2-0.5,0.5-0.5h1.6c0.3,0,0.5,0.2,0.5,0.5s-0.2,0.5-0.5,0.5H149.5z"
				/>
			<path class="st41" d="M148.7,108.8c-0.3,0-0.5-0.2-0.5-0.5s0.2-0.5,0.5-0.5h1.6c0.3,0,0.5,0.2,0.5,0.5s-0.2,0.5-0.5,0.5H148.7z"
				/>
			<path class="st28" d="M158.4,136.5c-0.1-1.2-4.7-7.3-4.7-7.3c-0.2-0.6-0.6-1.2-1.1-1.6c-0.4-0.4-0.9-0.6-1.5-0.5
				c0.6,0.6,1,1.3,1.3,2.1c0,0.8-1.6-0.3-1.6,0.1c0.6,0.5,1.3,1,2,1.4l1.2,1.2c1.6,1.9,2.9,4,4,6.3
				C158.5,140.3,158.5,137.8,158.4,136.5z"/>
			<path class="st63" d="M137.5,149.9c3.1,0.3,6.2,0.8,9.2,1.4c3.2,0.7,0.3-1.2,0.3-1.2l3.4-2.7c0,0-9.1,0.3-11.4-0.4
				s-8.9-4.9-8.9-4.9l-0.8,1.6L137.5,149.9z"/>
			<polygon class="st28" points="121.3,202.4 122.4,203.2 124.4,199.6 121.9,199.7 			"/>
			<path class="st26" d="M117.1,201.2l4.6,3.2l0.9-1.6c-0.6-0.9-1.6-1.5-2.6-1.8C118.7,200.8,117.7,200.4,117.1,201.2z"/>
			<path class="st58" d="M142.5,168.9L137,187l1.3,16.1h3.2c0,0,0.6-9.1,0.9-15s10.7-17.5,9.6-19.8s-11.2-7.6-12.5-4.6
				C139.3,164.3,142.3,168,142.5,168.9z"/>
			<path class="st64" d="M137,187c0,0,4.5-4.8,7.4-8.3c1.4-2.1,2.3-4.4,2.7-6.8c0.4-1.7-0.2-3.5-1.5-4.6c-1.5-1.3-3.4-2.9-4.2-2.8
				c-0.7,0-1.5-0.1-2.2-0.2l2-1.4l10.7,5.1c0.6,1.1,0.5,2.4-0.1,3.4c-1,1.9-8,12-8.7,14.4s-1.7,17.4-1.7,17.4h-3.1L137,187z"/>
			<polygon class="st28" points="139.4,206.4 140.7,206.4 141.4,203.2 139.1,203.1 			"/>
			<path class="st26" d="M135.5,207.9l5.5-0.2v-1.9c-1-0.3-2.1-0.2-3.1,0.2C136.6,206.6,135.6,206.9,135.5,207.9z"/>
			<path class="st28" d="M150.4,137.1c0,0-3.1,3-3.1,4s1.7,1,1.5,1.4l-2,3c0,0,1.9-0.1,2.5,0.7l0.6,0.8c0,0,4.2-7.5,2.5-9.2
				S150.4,137.1,150.4,137.1z"/>
			<path class="st65" d="M150.6,134.3c-0.3,0.1-0.2,2.4,0.3,3.2c0.7,0.8,0.9,1.9,0.4,2.8c0,0.2,0,0.4,0.2,0.4s0.7-0.2,0.7,0.1
				s-0.8,0.9-0.8,1c-0.1,0.2-0.2,0.5-0.1,0.7c0.5,2.1,2.6-0.7,3.2-2s-0.9-0.6-1.7-2.4S154,132.6,150.6,134.3z"/>
			<path class="st58" d="M137.2,167.4l-10.1,17l-5.9,15.7l3,1.1c0,0,5-9.2,7.1-14.7s14-12,13.7-14.6s-1.9-6.9-4.1-7.9
				C140.4,163.8,141.1,161,137.2,167.4z"/>
			<path class="st63" d="M151.4,144.9c2.4-0.3,3,2.1,2.3,4.5c-0.9,4.4-1.6,8.8-1.9,13.3c-0.2,3,1.9,6.1,1.9,6.1l-10.9-4.5l-1.6-0.3
				l-2,0.3c2.7-10.2,5.1-18.7,8.4-19.4L151.4,144.9z"/>
			<path class="st63" d="M156.5,136.3l-3-4.3l1.5-1.3l5,5.6c0,0-5,13.5-6.8,14.7s-3.6,1.2-4.7-0.6c0.2-1.4,0.8-2.7,1.8-3.7
				C153.5,143.2,156.5,136.3,156.5,136.3z"/>
			<path class="st66" d="M144.3,154.1c0.8-0.4,1.6-0.9,2.4-1.5l2.2-1.9l-0.2-1.1l0.6,0.2c0,0,1.3-1.8,1.8-2.7
				c0.3-0.7,0.6-1.5,0.7-2.3c0,0-2.6,3-3.9,4.3s-2.9,3-2.9,3L144.3,154.1z"/>
			<path class="st66" d="M142.2,160.1c-0.6,1.6,0.3-0.8,0.3-0.9s1.8-6.3,1.8-6.3l0.3-4.2h0.5l-0.6-1.3l1.3-1.5c0.7-0.7,1-0.4,1-0.4
				l-1.4,6.6l-2.8,7.6L142.2,160.1z"/>
			<path class="st65" d="M148.3,139.4c0.3,0.4,0.6,0.8,1.1,1c0.6,0.4,1.9-0.1,1.9-0.1l0.2,0.4c-0.7,1-1.6,1.8-2.6,2.5
				c-1.8,0.5-3.8-1-3.6-1.8S148.3,139.4,148.3,139.4z"/>
			<path class="st58" d="M153.7,149.4c0.7-1.2,1.6-3.6,0.2,1.3c-1.1,3.9-1.8,8-1.9,12.1c0.3,2.1,0.8,4.1,1.7,6l-9.3-3.8
				c0,0,0.3-5.1,0.5-6s2.2-4.6,3.3-5.9l0,0l1.1-0.6C150.8,151.7,153.3,150.2,153.7,149.4z"/>
			<path class="st28" d="M129.9,142.6c-0.5-0.6-1.1-1.2-1.7-1.7c-0.4-0.1-1.1-0.1-1,0.1s0.6,0.3,0.6,0.5s0.4,1.8,0.4,1.8l1.2,0.4
				L129.9,142.6z"/>
			<path class="st28" d="M126.9,141.6c0,0.3-0.1,0.5-0.2,0.8c0,0.3,0.1,0.7,0.2,1c0,0,1.4-0.2,1.3-0.6c-0.1-0.3-0.1-0.5,0-0.8
				L126.9,141.6z"/>
			
				<linearGradient id="SVGID_23_" gradientUnits="userSpaceOnUse" x1="-1.7585" y1="2029.8646" x2="6.154602e-02" y2="2029.8646" gradientTransform="matrix(0.9966 -8.193851e-02 8.193851e-02 0.9966 -23.4739 -1861.2172)">
				<stop  offset="9.000000e-02" style="stop-color:#D70010"/>
				<stop  offset="0.87" style="stop-color:#7A0110"/>
			</linearGradient>
			<path class="st67" d="M141.3,163.9l1.5,0.4v-5.1C142,160.7,141.5,162.3,141.3,163.9z"/>
			<path class="st64" d="M127.6,183.6l9.3-6.7c2.4-1.8,4.5-4.1,6.2-6.6l-3.2,7.2c0,0-6.9,6.1-7.9,8s-7.8,15.7-7.8,15.7l-3.3-1
				C120.9,200.2,127.4,183.8,127.6,183.6z"/>
			
				<linearGradient id="SVGID_24_" gradientUnits="userSpaceOnUse" x1="3.2515" y1="2016.616" x2="10.2315" y2="2016.616" gradientTransform="matrix(0.9966 -8.193851e-02 8.193851e-02 0.9966 -23.4739 -1861.2172)">
				<stop  offset="9.000000e-02" style="stop-color:#D70010"/>
				<stop  offset="0.87" style="stop-color:#7A0110"/>
			</linearGradient>
			<path class="st68" d="M147,145.2l-1.7,6.4c0,0,4.8-4.7,5.4-5.4l1.1-1.4h-1C150.2,144.5,147.1,144.5,147,145.2z"/>
			<path class="st58" d="M148.2,153.1c2.4-2.1,4.6-4.5,6.5-7.1c2.6-3.7,4.3-8.1,4.3-9.2s-1.9-3.8-1.9-3.8c1.1,1.1,2.1,2.3,3.1,3.5
				c0.2,0.4-7.7,17.6-7.8,17.7L148.2,153.1z"/>
			<path class="st17" d="M145.3,151.8L145.3,151.8v-0.2l2-4.5h0.2c0.1,0,0.1,0,0.1,0.1s0,0.1-0.1,0.1l-1.9,4.4L145.3,151.8z"/>
			<path class="st17" d="M141.8,164.1h-0.1c0,0,0.6-3.5,0.9-4.8h0.3C142.5,160.6,141.9,164.1,141.8,164.1L141.8,164.1z"/>
			<polygon class="st69" points="145.9,154.7 148.6,155.8 148.9,155.4 146.2,154.2 			"/>
			
				<linearGradient id="SVGID_25_" gradientUnits="userSpaceOnUse" x1="4.3015" y1="2022.9817" x2="6.0015" y2="2022.9817" gradientTransform="matrix(0.9966 -8.193851e-02 8.193851e-02 0.9966 -23.4739 -1861.2172)">
				<stop  offset="9.000000e-02" style="stop-color:#D70010"/>
				<stop  offset="0.87" style="stop-color:#7A0110"/>
			</linearGradient>
			<polygon class="st70" points="146.6,154.4 148,153.6 148.4,155.2 			"/>
			<path class="st41" d="M149.5,147.5l-1.3-0.2c-0.7-0.2-1.2-0.6-1.6-1.2c-0.2-0.8-0.1-1.6,0.3-2.3v-0.3c0.1-0.3,0.4-0.4,0.7-0.3
				s0.4,0.4,0.3,0.7v0.3c-0.3,0.4-0.4,1-0.4,1.5c0.3,0.3,0.6,0.5,1,0.6c1.6,0.5,2-0.1,2.6-1.1c0.2-0.5,0.4-1,0.5-1.5
				c0.1-0.3,0.3-0.5,0.6-0.4c0.3,0,0.5,0.3,0.4,0.6l0,0c-0.1,0.6-0.3,1.2-0.6,1.8C151.6,146.7,150.6,147.4,149.5,147.5z"/>
			<ellipse class="st0" cx="315.6" cy="242.9" rx="27.5" ry="5.6"/>
			<path class="st71" d="M313.3,189.1c0,0-6.5,2.5-6.8,1.6s1.8-6.2,1.5-7.4s0.7-1.6,0.6-2.1s-0.9,0.7-0.9,1.1s-0.2,1.7-0.3,1.9
				c0,0.2,0,0.4-0.1,0.6l-0.7-0.5c0,0-2.9,7.6-2.6,9.1s8-0.9,8-0.9S313.7,189.8,313.3,189.1z"/>
			<path class="st28" d="M308,207.6c0,0-3,14.8-2.5,17.4s3.8,15.9,3.8,15.9s1.7,0.7,1.2-0.2s-0.9-14.1-1.1-15.6s3.9-16.4,3.9-16.4
				L308,207.6z"/>
			<path class="st27" d="M306.9,217.1c0,0,0.7-0.2,0.7,0.6s1.1,3.5-0.2,6.5s1.9,16.5,1.9,16.7s0.7,2.3,0.4,2.6s-0.1,0.2-0.1,0.2
				s0,0.4,0.4,0.2s0.9-1.1,0.9-1.1l-0.4-2.1c0,0-0.5-3.9-0.6-6.2s-0.4-9-0.3-9.8s1.3-9.2,0.7-9.3c-2.6-0.8,1.5-0.8,1.5-0.8
				L306.9,217.1z"/>
			<polygon class="st17" points="312.1,243.6 311.1,240.7 311.6,240.2 312.3,243.6 			"/>
			<path class="st17" d="M310.2,239.6c0,0,0.9-0.2,1.3,0.2s0.2,1.2,0.2,1.2c-0.4,0.2-0.7,0.6-0.7,1.1c0.1,0.6,0.1,1.2,0,1.8
				c-0.2,0.4-2.2,0.7-2.2,0.7s-0.1-0.1,0.2-0.5l0.6-0.6c0,0,0.2,0.4,0.5-0.1S310.2,239.6,310.2,239.6z"/>
			<path class="st28" d="M309.2,204.8c0,0,0,19.8,1.9,21.6s12.8,10.3,12.8,10.3s1.8-0.5,0.7-0.9s-9.2-10.6-10.2-11.7
				s-0.3-21.5-0.3-21.5L309.2,204.8z"/>
			<path class="st27" d="M309.4,217c0.8,0.6,1.6,1.3,2.3,2c1.4,1.3,1.7,3.8,2.5,7s9.5,10.5,9.7,10.7s1.9,1.4,1.8,1.8
				s0.1,0.2,0.1,0.2s0.2,0.3,0.5-0.1s0-1.4,0-1.4l-1.6-1.4c0,0-2.8-2.8-4.3-4.5s-5.8-7-6.2-7.6s-0.2-8.3-0.3-8.5
				c-1.3-2.3-4.2-0.4-4.2-0.4L309.4,217z"/>
			<path class="st26" d="M308.9,202.7l-5,18.6c2.2-0.2,4.4-0.2,6.6-0.1c1.4,0.3,2.8,0.8,4.1,1.6l0.6-10.6c0,0,2.4-6.5,0.3-9.2
				s-2.3-1.6-2.3-1.6L308.9,202.7z"/>
			<path class="st29" d="M308.8,203.3h6.9l-1.5-7.1c-0.2-0.6,1.9-3.7,2.3-4.6s1.4-2.4-1.1-3.7c-0.9-0.2-1.8,0-2.5,0.5
				c-2.3,2.6-3.6,3.7-4.4,4.6c0,0.7,0.3,1.3,0.8,1.8C309.3,197.6,309.1,200.5,308.8,203.3z"/>
			<path class="st12" d="M309.2,199c1.2-0.8,2.3-1.7,3.3-2.7c1.7-1.9,3.2-4,4.4-6.2l-0.6,2c-0.7,1.2-1.3,2.5-1.8,3.8
				c-0.2,0.9,1.4,7.6,1.4,7.6c-1.2,0.6-2.6,0.9-3.9,0.8c-1.2,0-2.3-0.3-3.4-0.8L309.2,199z"/>
			<polygon class="st17" points="327.7,237.2 325.1,235.4 325.2,234.7 327.8,237 			"/>
			<path class="st17" d="M323.8,235c0.3-0.3,0.7-0.5,1.1-0.5s1,0.8,1,0.8c-0.2,0.4-0.2,0.8,0,1.2c0.7,0.8,1,1.1,1.1,1.5
				s-1.3,1.9-1.3,1.9s-0.1-0.1-0.1-0.5c0-0.3,0-0.5,0.1-0.8c0,0,0.3,0.1,0.3-0.5S323.8,235,323.8,235z"/>
			<path class="st28" d="M319,180.2c-1.6,0.6-3,1.8-3.9,3.2c-0.3,0.6,1.1,1.9,1.1,1.9c-0.6,1.6-3,2.8-3,2.8s-0.1,0.3,0.9,0.3
				s2.3,0.3,2.3,0.1c0.2-2.3,4.2-4.5,3.8-6.3S319,180.2,319,180.2z"/>
			
				<linearGradient id="SVGID_26_" gradientUnits="userSpaceOnUse" x1="315.4226" y1="-722.6296" x2="323.5834" y2="-722.6296" gradientTransform="matrix(1 0 0 -1 0 -536)">
				<stop  offset="9.000000e-02" style="stop-color:#D70010"/>
				<stop  offset="0.87" style="stop-color:#7A0110"/>
			</linearGradient>
			<path class="st72" d="M318.9,181c0-0.1-0.4-1.1-1.3-0.9s-0.4,1.3-0.4,1.3s-1.5-1-1.1-2.3s2.8-1.4,3.6-0.2c0.2,0.4,0.2,0.9,0,1.3
				c1.8,0.5,3.2,1.8,3.8,3.5c0.6,2.3-2.2,3.3-3.2,4.5c-1.6,2-2.6,4.4-2.9,7L317,195c-0.9-0.3-1.4-1.2-1.2-2.1c0-0.1,0.1-0.3,0.2-0.4
				l0,0c0.5-1,1-2.8,0-3.8s-0.5-0.2,0-1s2.9-3.3,3-3.6s-0.5-0.4-0.5-0.4S319.5,182.1,318.9,181z"/>
			<path class="st1" d="M303.2,160.6c0,0,2,3.3,2.1,5.2c0,1.2-0.4,2.3-1.1,3.3c1.6,2.5,2.8,5.3,3.5,8.2c0.4,2.8,0.2,5.6-0.6,8.3
				c0,0-1.6-1.3-1.6-2.3s1.2-3,0.6-6.4s-3.7-7.5-3.7-7.5L303.2,160.6z"/>
			<path class="st1" d="M301.1,161c0,0-1.4,3.6-1.1,5.5c0.2,1.2,0.8,2.3,1.6,3.1c-1.2,2.8-1.8,5.7-2,8.7c0.2,2.8,0.9,5.5,2.1,8
				c0,0,1.4-1.6,1.1-2.5c-1.1-1.9-1.7-4-1.7-6.2c0-3.4,2.3-8.1,2.3-8.1L301.1,161z"/>
			<path class="st73" d="M303.2,168.2c0.4-0.9,0.6-1.8,0.6-2.8c0-2-0.2-4.2-0.2-4.2l-0.4-0.6l-0.6,6L303.2,168.2z"/>
			<path class="st73" d="M306.1,184.5c-0.6-0.7-0.5-0.5-0.6-1.1s0.9-3.7,0.6-5.8c-0.4-1.9-1.2-3.6-2.1-5.3l1.1-1.4l-0.2,1.2
				c1.1,1.5,1.7,3.3,2,5.1c0.4,2.7-0.5,6.3-0.7,7.2L306.1,184.5L306.1,184.5z"/>
			<path class="st74" d="M300.8,170.3c0,1.2,1,2.2,2.2,2.2s2.2-1,2.2-2.2s-1-2.2-2.2-2.2S300.8,169.1,300.8,170.3z"/>
			<path class="st73" d="M301.8,170.3c0,0.7,0.5,1.2,1.2,1.2l0,0c0.7,0,1.2-0.5,1.2-1.2l0,0c-0.1-0.6-0.6-1.1-1.2-1.1
				c-0.6-0.1-1.1,0.4-1.2,1V170.3z"/>
			<path class="st28" d="M314,191.3c0,0-8.9,2.3-10.5,1.8s-2.4-8.2-2.6-8.7c-0.3-0.6-0.6-1.3-0.7-2c-0.3-0.8-0.8-2.2,0-1.6
				s1.8,2.4,1.8,1.8s0.3-1.1,0.7-0.1c0,0.8-0.2,1.5-0.5,2.2c0,0,1.3,4.9,2.7,5.9s9.1-2.6,10.2-2S315.1,191,314,191.3z"/>
			<path class="st71" d="M305.4,181.9c0,0-0.1-0.8,0.5-0.8c0.5,0,1,0.3,1.3,0.8c0.1,0.2-1.2,0.2-1.5,0.4S305.3,182.5,305.4,181.9z"
				/>
			<path class="st27" d="M252.8,202.8c0,0-6.8,4.1-10.8,5.5s-6.3,2.1-8,2c-1-0.2-1.9-0.5-2.8-1c0,0,0.8,1.2-0.9,1.1
				s-2.1-0.5-1.9-0.1s2.1,1.4,4.1,1.3s5.4,0.7,9.5-0.3s12.5-4.9,12.5-4.9L252.8,202.8z"/>
			<path class="st12" d="M234,211.6l-0.2-1.6c0,0,5.9-0.9,9.2-2.7l7.1-3.8l-0.8,5.1C249.3,208.6,243.7,213.1,234,211.6z"/>
			<path class="st27" d="M171.8,203.5c0,0,6.5,4.6,10.4,6.3s6.2,2.6,7.8,2.6c1-0.1,2-0.4,2.9-0.8c0,0-0.9,1.1,0.8,1.2
				s2.1-0.3,1.9,0.1c-1.2,0.8-2.7,1.2-4.2,0.9c-2-0.3-5.4,0.3-9.5-1c-2.6-0.8-12.1-5.9-12.1-5.9L171.8,203.5z"/>
			<path class="st12" d="M189.9,213.7l0.3-1.5c0,0-5.8-1.5-8.9-3.5l-6.8-4.3l0.4,5.1C174.9,209.5,180.1,214.4,189.9,213.7z"/>
			<path class="st29" d="M214.6,225.1c-5.5,0-12.3-1.5-17.1-2.8s-8.7-2.7-8.8-2.7l-0.4-0.2l2.9-7.9h0.4l2.2,0.8
				c3.7,1.1,13.1,3.9,20.4,4.2c9.4,0.4,17.8-6.4,17.9-6.5l0.5-0.3l3.8,7.4l-0.3,0.2c-0.3,0.3-7.6,7.4-21,7.7L214.6,225.1z
				 M189.5,218.8c1.2,0.4,4.3,1.4,8.3,2.5s11.8,2.9,17.3,2.8c7.3,0,14.3-2.5,20-7.1l-2.8-5.7c-2,1.5-9.6,6.6-18.1,6.3
				s-16-2.8-20.7-4.3l-1.7-0.5L189.5,218.8z"/>
			<polygon class="st28" points="242.5,261.9 243.8,261.9 244.3,258.2 242.1,258.6 			"/>
			<path class="st26" d="M238.3,263.4h5.6v-1.9c-1-0.3-2.2-0.3-3.2,0C239.4,262.1,238.4,262.3,238.3,263.4z"/>
			<path class="st28" d="M253.7,193.5c0,0-2.6,3.5-2.5,4.6s2.2,1.1,2,1.7c-0.6,0.8-1.3,1.5-2,2.2c1,0.1,2,0.5,2.8,1.1
				c0.3,0.2,0.5,0.4,0.7,0.7c0,0,3.1-8.3,1.1-9.8S253.7,193.5,253.7,193.5z"/>
			
				<linearGradient id="SVGID_27_" gradientUnits="userSpaceOnUse" x1="253.95" y1="-730.6874" x2="258.5425" y2="-730.6874" gradientTransform="matrix(1 0 0 -1 0 -536)">
				<stop  offset="9.000000e-02" style="stop-color:#D70010"/>
				<stop  offset="0.87" style="stop-color:#7A0110"/>
			</linearGradient>
			<path class="st75" d="M254.1,190.4c-0.1,0.3-0.4,2.8,0.3,3.5c0.7,0.8,1,1.9,0.8,2.9c-0.1,0.1,0,0.3,0.2,0.3s0.7-0.2,0.7,0.1
				s-0.6,1-0.7,1.1c-0.1,0.2,0,0.5,0.1,0.7c0.8,2.1,2.4-1,2.9-2.4s-0.4-0.9-1.4-2.7S255,188,254.1,190.4z"/>
			<path class="st26" d="M250,224.9l-6.3,17.5l-2.2,16.7l3,0.5l3.9-14.4c1.5-5.9,11.4-17.1,10.8-19.7s-6.1-8.3-8-5.6
				C250.6,221.5,250.2,223.2,250,224.9z"/>
			<polygon class="st28" points="261.9,263 263.7,262.5 263,259 260.9,259.9 			"/>
			<path class="st26" d="M258.1,264.4h5.6v-1.9c-1-0.3-2.2-0.3-3.2,0C259.3,263.1,258.3,263.3,258.1,264.4z"/>
			<path class="st76" d="M252.8,227.4l3.7,18.5l4,13.9l3.3,0.2c-0.5-4.9-1.2-9.8-2.3-14.6c-1.6-5.9,0.6-21-1.2-22.9
				s-7.5-4.3-7.9-0.9C252.3,222.1,252.4,226.7,252.8,227.4z"/>
			<path class="st26" d="M252.4,224.6l8.6,2.7c0.1-1.2,0-2.3-0.2-3.5c-0.3-0.9-9.6-3.4-9.6-3.4L252.4,224.6z"/>
			<path class="st29" d="M255,203c1.2,5.2,2.7,10.4,4.5,15.4c1.1,3,2.9,7,2.9,7l-8.8-1.2l-1.7-3.8l-0.5,3.7l-1.9,0.5
				c-3-11.3-1.8-20,1-22.2C251.4,201.7,252.5,201,255,203z"/>
			<path class="st12" d="M262.4,225.4c0,0-3.8-9.3-4.8-12.8S255,203,255,203c0,1.1-0.4,2.1-1.2,2.9c-1.2,1.4-2.5,2.6-4,3.6
				c0,0-1.3-1.2-1.9,1.2c-0.3,2.1-0.3,4.1,0,6.2l1,5.5l0.6,2.2l1.9-0.5l0.5-3.7l1.7,3.8L262.4,225.4z"/>
			<path class="st26" d="M252,196.2c0.3,0.4,0.7,0.7,1.2,0.9c0.7,0.3,2-0.3,2-0.3l0.2,0.3c0,0-0.9,2-1.9,2.4s-2.7-0.6-2.6-1.4
				C251.2,197.4,251.5,196.8,252,196.2z"/>
			<path class="st28" d="M251.2,207.3c0,0-5.6,8.8-6.5,9.6s-9.1,2.2-9.1,2.2c-0.6,0.4-1.2,0.6-1.9,0.5c-0.5-0.1-1-0.3-1.4-0.7
				c0.8,0,1.7-0.3,2.4-0.7c0.7-0.6-0.1-1.1-0.1-1.1l1.5,0.3l0.7,0.4c0.7,0.2,5.8-2.3,6.9-3s5.5-9.7,5.5-9.7L251.2,207.3z"/>
			<path class="st29" d="M244.5,214l-7.2,3.4l0.8,1.4l9-2c0,0,7.4-10.9,7.1-13s-1.2-2.3-3.3-1.7S244.5,214,244.5,214z"/>
			<polygon class="st28" points="183.2,261.9 181.9,261.9 181.4,258.2 183.6,258.6 			"/>
			<path class="st26" d="M187.4,263.4h-5.6v-1.9c1-0.3,2.2-0.3,3.2,0C186.2,262.1,187.3,262.3,187.4,263.4z"/>
			<path class="st28" d="M174.9,193.5c0,0-2.7,3.5-2.5,4.6s2.1,1.1,1.9,1.7c-0.6,0.8-1.3,1.5-2,2.2c1,0.1,2,0.5,2.9,1.1l0.6,0.7
				c0,0,3.2-8.3,1.2-9.8S174.9,193.5,174.9,193.5z"/>
			<path class="st1" d="M175.3,190.4c-0.1,0.3-0.5,2.8,0.2,3.5c0.8,0.7,1.1,1.9,0.8,2.9c0,0.2,0.1,0.3,0.3,0.3l0,0
				c0.1,0,0.7-0.2,0.6,0.1s-0.6,1-0.6,1.1c-0.1,0.2-0.1,0.5,0,0.7c0.8,2.1,2.5-1,2.9-2.4s-0.3-0.9-1.4-2.7S176.1,188,175.3,190.4z"
				/>
			<path class="st26" d="M175.7,224.9l6.3,17.5l2.2,16.7l-3,0.5l-3.9-14.4c-1.5-5.9-11.4-17.1-10.8-19.7s6.1-8.3,8-5.6
				C175.1,221.5,175.5,223.2,175.7,224.9z"/>
			<polygon class="st28" points="163.8,263 162,262.5 162.7,259 164.8,259.9 			"/>
			<path class="st26" d="M167.5,264.4h-5.6v-1.9c1-0.3,2.2-0.3,3.2,0C166.4,263.1,167.4,263.3,167.5,264.4z"/>
			<path class="st76" d="M172.9,227.4l-3.8,18.5l-3.9,13.9l-3.4,0.2c0.5-4.9,1.3-9.8,2.4-14.6c1.5-5.9-0.6-21,1.2-22.9
				s7.5-4.3,7.9-0.9C173.3,222.1,173.3,226.7,172.9,227.4z"/>
			<path class="st29" d="M170.7,203c-1.2,5.2-2.7,10.4-4.5,15.4c-1.1,3-0.7,3.4-0.7,3.4l6.6,2.4h2.2l1.5,0.6
				c2.9-11.3,2.2-20.1-0.6-22.3C174.3,201.7,173.2,201,170.7,203z"/>
			<path class="st12" d="M165,222.4c0,0,2.1-6.3,3.1-9.8s2.6-9.6,2.6-9.6c0,1.1,0.4,2.1,1.1,2.9c1.2,1.3,2.6,2.5,4.1,3.6
				c0,0-0.5,0.8,0.1,3.2s1.6,1.8,1.6,1.8s-0.5,6.3-0.9,7.9c-0.2,0.9-0.5,1.8-0.9,2.7l-1.5-1l-1.1,0.8L165,222.4z"/>
			<path class="st28" d="M173.2,207.9c0,0,5.1,8.8,6,9.6s9.7,2.5,9.7,2.5c0.6,0.4,1.2,0.6,1.9,0.5c0.5,0,1.1-0.3,1.4-0.7
				c-0.8,0-1.7-0.3-2.4-0.7c-0.6-0.6,0.2-1.1,0.2-1.1l-1.6,0.3l-0.8,0.3c-0.7,0.2-5.6-2.4-6.6-3s-5.7-9.8-5.7-9.8L173.2,207.9z"/>
			<path class="st29" d="M182.5,216.5l4.8,1.7l-0.9,1.4l-7.4-1.4c0,0-8.8-11.7-8.4-13.8s1.8-2.9,3.8-2.3S182.5,216.5,182.5,216.5z"
				/>
			<path class="st29" d="M214.1,219.9c-12.1,0-25.3-5.5-25.4-5.5c-0.3-0.1-0.4-0.4-0.3-0.7c0.2-0.2,0.4-0.3,0.7-0.2
				c0.1,0,15.3,6.3,27.7,5.3c6.4-0.4,12.4-3.2,16.8-7.9c0.1-0.3,0.4-0.3,0.7-0.1s0.2,0.5,0,0.7s-5.8,7.4-17.4,8.3L214.1,219.9z"/>
			<path class="st29" d="M214.1,222.5c-12.1,0-25.3-5.5-25.4-5.6s-0.4-0.4-0.3-0.6c0.1-0.3,0.4-0.4,0.6-0.3h0.1
				c0.1,0.1,15.3,6.3,27.7,5.4c6.6-0.4,12.8-3.1,17.7-7.6c0.1-0.2,0.5-0.2,0.7,0s0.2,0.5,0,0.7c-5,4.7-11.5,7.5-18.3,7.9
				L214.1,222.5z"/>
			<path class="st29" d="M197.1,222.5c-0.2,0-0.4-0.1-0.5-0.3l-3.3-10c-0.1-0.3,0.1-0.5,0.4-0.6l0,0c0.2-0.1,0.4,0,0.5,0.1
				c0,0,0,0.1,0.1,0.2l3.3,10c0.1,0.2-0.1,0.5-0.4,0.6H197.1z"/>
			<path class="st29" d="M193.6,222.2c-0.2,0-0.4-0.2-0.5-0.4l-3.3-10c-0.1-0.2,0.1-0.5,0.3-0.6c0.3-0.1,0.6,0,0.7,0.3l3.2,10
				C194.1,221.8,194,222.1,193.6,222.2L193.6,222.2z"/>
			<path class="st29" d="M201,223.6c-0.2,0-0.4-0.1-0.5-0.3l-3.3-10c-0.1-0.3,0.1-0.5,0.4-0.6c0.2-0.1,0.4,0,0.5,0.1
				c0,0,0,0.1,0.1,0.2l3.3,10c0,0.3-0.1,0.5-0.4,0.6H201z"/>
			<path class="st29" d="M209.9,225.5c-0.2,0-0.4-0.1-0.5-0.3l-3.3-10c-0.1-0.3,0-0.6,0.3-0.7c0.3,0,0.6,0.1,0.7,0.4l3.2,10
				c0.1,0.2,0,0.4-0.1,0.5C210.1,225.5,210.1,225.5,209.9,225.5L209.9,225.5z"/>
			<path class="st29" d="M214.4,226.2c-0.2,0-0.4-0.1-0.5-0.3l-3.3-10c-0.1-0.3,0.1-0.5,0.4-0.6l0,0c0.2-0.1,0.4,0,0.5,0.1
				c0,0,0,0.1,0.1,0.2l3.3,10c0,0.3-0.1,0.5-0.4,0.6H214.4z"/>
			<path class="st29" d="M222.5,226.3c-0.2,0-0.4-0.2-0.4-0.4l-3.3-9.9c-0.1-0.2,0-0.5,0.2-0.7c0,0,0,0,0.1,0
				c0.3-0.1,0.6,0.1,0.6,0.3l3.3,10c0.1,0.2,0,0.5-0.2,0.7c0,0,0,0-0.1,0L222.5,226.3z"/>
			<path class="st29" d="M227.1,224.3c-0.2,0-0.4-0.2-0.5-0.4l-3.3-10c-0.1-0.2,0.1-0.5,0.4-0.6c0.2-0.1,0.4,0,0.5,0.1
				c0,0,0,0.1,0.1,0.2l3.3,10c0.1,0.3-0.1,0.5-0.4,0.6l0,0L227.1,224.3z"/>
			<path class="st29" d="M231.3,222.2c-0.2,0-0.4-0.2-0.5-0.4l-3.3-10c0-0.3,0.1-0.5,0.4-0.6c0.2-0.1,0.5,0.1,0.6,0.3l3.3,10
				c0.1,0.2,0,0.4-0.1,0.5C231.6,222,231.5,222.1,231.3,222.2L231.3,222.2z"/>
			<path class="st29" d="M218.7,226.4c-0.2,0-0.4-0.1-0.5-0.3l-3.2-10c-0.1-0.2,0-0.5,0.2-0.7c0,0,0,0,0.1,0
				c0.3-0.1,0.5,0.1,0.6,0.4l3.3,9.9c0.1,0.3,0,0.6-0.3,0.7L218.7,226.4z"/>
			<path class="st29" d="M205.7,224.7c-0.2,0-0.5-0.2-0.5-0.4l-3.3-9.9c-0.1-0.3,0.1-0.6,0.4-0.7c0.2-0.1,0.5,0.1,0.6,0.3l3.3,10
				c0,0.3-0.1,0.6-0.4,0.7L205.7,224.7z"/>
			<path class="st2" d="M147,219.3c0.5,2.3,1.6,4.4,3.2,6c1.4,1.5,3.3,2.6,5.4,3l-2.6,8.6c-3.6-0.7-6.9-2.3-9.5-4.8
				c-1.8-1.6-3-3.8-3.4-6.2L147,219.3z"/>
			<g class="st77">
				<g class="st37">
					<path class="st38" d="M142.4,227.6l4.6-4.8L142.4,227.6z"/>
					
						<rect x="141.4" y="225" transform="matrix(0.6934 -0.7206 0.7206 0.6934 -117.8557 173.3653)" class="st39" width="6.7" height="0.3"/>
				</g>
				<g class="st37">
					<path class="st38" d="M148,224.7l-3.8,4.8L148,224.7z"/>
					<polygon class="st39" points="144.3,229.6 144.1,229.4 147.9,224.6 148.1,224.8 					"/>
				</g>
				<g class="st37">
					<path class="st38" d="M149.3,226.2l-3.2,5L149.3,226.2z"/>
					
						<rect x="144.9" y="228.8" transform="matrix(0.5417 -0.8406 0.8406 0.5417 -124.7044 229.2531)" class="st39" width="5.9" height="0.3"/>
				</g>
				<g class="st37">
					<path class="st38" d="M150.9,227.7l-2.2,5.1L150.9,227.7z"/>
					
						<rect x="147" y="230.2" transform="matrix(0.3971 -0.9178 0.9178 0.3971 -121.0882 276.3663)" class="st39" width="5.6" height="0.3"/>
				</g>
				<g class="st37">
					<path class="st38" d="M152.5,228.7l-1.7,5L152.5,228.7z"/>
					<polygon class="st39" points="150.6,233.7 152.3,228.7 152.6,228.8 150.9,233.8 					"/>
				</g>
			</g>
			<path class="st26" d="M260.5,259.8c0,0-2.5-14.5-2.1-16.9s2.5-14,2.5-14v12.3c0.3,2.2,0.8,4.3,1.4,6.4c0.7,2.5,1.5,12.4,1.5,12.4
				h-3.3V259.8z"/>
			<path class="st26" d="M161.8,260c0,0,3.3-10.5,5.1-13.5s4.8-13.2,4.8-13.2s-1.6,8.6-2.3,11.4s-4.2,15.1-4.2,15.1L161.8,260z"/>
			<path class="st29" d="M45.1,179.5c1.4,0.1,2.7,0.5,3.9,1.2l3.7,2.6l1-1.7c0,0-4-3.6-5.4-3.9C47,177.6,45.7,178.3,45.1,179.5z"/>
		</g>
	</g>
</g>
<g id="Layer_2_2_" class="st78">
	<rect x="-99.5" y="80.7" class="st79" width="68.7" height="55.7"/>
	<rect x="-99.5" y="11" class="st80" width="68.7" height="55.7"/>
	<rect x="-99.5" y="145.6" class="st81" width="68.7" height="55.7"/>
</g>
</svg>
