<svg xmlns="http://www.w3.org/2000/svg" xmlns:xlink="http://www.w3.org/1999/xlink" viewBox="0 0 958.8 560"><defs><style>.cls-1{isolation:isolate;}.cls-2{fill:#7a0110;}.cls-3{fill:#d70010;}.cls-4{fill:#1a1f29;}.cls-5{fill:#515769;}.cls-6{fill:#60697e;}.cls-7{fill:#101010;}.cls-8{fill:#ffa074;}.cls-9{fill:#ff8878;}.cls-10{fill:#ffb575;}.cls-11,.cls-16{fill:#0047b5;}.cls-11,.cls-15{opacity:0.4;}.cls-12{fill:#2c3446;}.cls-13{fill:#404b61;}.cls-14{fill:#fff;}.cls-17{fill:#5f708d;}.cls-18{fill:#3c4556;}.cls-19{fill:#1e2129;}.cls-20{mix-blend-mode:screen;fill:url(#linear-gradient);}.cls-21{opacity:0.5;}.cls-22{fill:#00fffb;}.cls-23{fill:#1b1b1b;opacity:0.7;}.cls-24{fill:#ff4571;}.cls-25{fill:#00d69e;}.cls-26{fill:#008ab4;}.cls-27{fill:#3d404e;}.cls-28{fill:url(#_ÂÁ_Ï_ÌÌ_È_ËÂÌÚ_618);}.cls-29{fill:url(#_ÂÁ_Ï_ÌÌ_È_ËÂÌÚ_617);}.cls-30{mix-blend-mode:overlay;}.cls-31{fill:#06d2f9;}.cls-32{fill:#15e0f9;}.cls-33{fill:#4bc9f9;}.cls-34{fill:url(#_ÂÁ_Ï_ÌÌ_È_ËÂÌÚ_618-2);}.cls-35{fill:url(#_ÂÁ_Ï_ÌÌ_È_ËÂÌÚ_617-2);}.cls-36{fill:url(#_ÂÁ_Ï_ÌÌ_È_ËÂÌÚ_618-3);}.cls-37{fill:url(#_ÂÁ_Ï_ÌÌ_È_ËÂÌÚ_617-3);}.cls-38{fill:url(#_ÂÁ_Ï_ÌÌ_È_ËÂÌÚ_618-4);}.cls-39{fill:url(#_ÂÁ_Ï_ÌÌ_È_ËÂÌÚ_617-4);}.cls-40{fill:url(#_ÂÁ_Ï_ÌÌ_È_ËÂÌÚ_618-5);}.cls-41{fill:url(#_ÂÁ_Ï_ÌÌ_È_ËÂÌÚ_617-5);}.cls-42{fill:url(#_ÂÁ_Ï_ÌÌ_È_ËÂÌÚ_618-6);}.cls-43{fill:url(#_ÂÁ_Ï_ÌÌ_È_ËÂÌÚ_617-6);}.cls-44{fill:url(#_ÂÁ_Ï_ÌÌ_È_ËÂÌÚ_618-7);}.cls-45{fill:url(#_ÂÁ_Ï_ÌÌ_È_ËÂÌÚ_617-7);}.cls-46{fill:url(#_ÂÁ_Ï_ÌÌ_È_ËÂÌÚ_618-8);}.cls-47{fill:url(#_ÂÁ_Ï_ÌÌ_È_ËÂÌÚ_617-8);}.cls-48{fill:url(#_ÂÁ_Ï_ÌÌ_È_ËÂÌÚ_618-9);}.cls-49{fill:url(#_ÂÁ_Ï_ÌÌ_È_ËÂÌÚ_617-9);}</style><linearGradient id="linear-gradient" x1="465.43" y1="483.36" x2="465.43" y2="49.95" gradientUnits="userSpaceOnUse"><stop offset="0" stop-color="#d70010"/><stop offset="0.1" stop-color="#c70010"/><stop offset="0.35" stop-color="#a50110"/><stop offset="0.59" stop-color="#8d0110"/><stop offset="0.81" stop-color="#7f0110"/><stop offset="1" stop-color="#7a0110"/></linearGradient><linearGradient id="_ÂÁ_Ï_ÌÌ_È_ËÂÌÚ_618" x1="-3850.65" y1="5496.06" x2="-3838.14" y2="5496.06" gradientTransform="translate(-5781 2032.5) rotate(-141.5)" gradientUnits="userSpaceOnUse"><stop offset="0" stop-color="#bea2a1"/><stop offset="0.41" stop-color="#bb9d9c"/><stop offset="0.91" stop-color="#b28e8d"/><stop offset="1" stop-color="#b08a8a"/></linearGradient><linearGradient id="_ÂÁ_Ï_ÌÌ_È_ËÂÌÚ_617" x1="-3863.22" y1="5496.05" x2="-3850.62" y2="5496.05" gradientTransform="translate(-5781 2032.5) rotate(-141.5)" gradientUnits="userSpaceOnUse"><stop offset="0" stop-color="#c8a9ab"/><stop offset="0.45" stop-color="#ceb3b4"/><stop offset="1" stop-color="#d2b9ba"/></linearGradient><linearGradient id="_ÂÁ_Ï_ÌÌ_È_ËÂÌÚ_618-2" x1="-4990.53" y1="3466.06" x2="-4981.46" y2="3466.06" gradientTransform="matrix(0.63, -0.78, 0.78, 0.63, 1138.88, -5678.31)" xlink:href="#_ÂÁ_Ï_ÌÌ_È_ËÂÌÚ_618"/><linearGradient id="_ÂÁ_Ï_ÌÌ_È_ËÂÌÚ_617-2" x1="-4999.62" y1="3466.07" x2="-4990.49" y2="3466.07" gradientTransform="matrix(0.63, -0.78, 0.78, 0.63, 1138.88, -5678.31)" xlink:href="#_ÂÁ_Ï_ÌÌ_È_ËÂÌÚ_617"/><linearGradient id="_ÂÁ_Ï_ÌÌ_È_ËÂÌÚ_618-3" x1="-4935.75" y1="2999.02" x2="-4926.68" y2="2999.02" gradientTransform="matrix(0.63, -0.78, 0.78, 0.63, 1138.88, -5678.31)" xlink:href="#_ÂÁ_Ï_ÌÌ_È_ËÂÌÚ_618"/><linearGradient id="_ÂÁ_Ï_ÌÌ_È_ËÂÌÚ_617-3" x1="-4944.84" y1="2999.02" x2="-4935.72" y2="2999.02" gradientTransform="matrix(0.63, -0.78, 0.78, 0.63, 1138.88, -5678.31)" xlink:href="#_ÂÁ_Ï_ÌÌ_È_ËÂÌÚ_617"/><linearGradient id="_ÂÁ_Ï_ÌÌ_È_ËÂÌÚ_618-4" x1="-5002.11" y1="2976.42" x2="-4996.33" y2="2976.42" gradientTransform="matrix(0.63, -0.78, 0.78, 0.63, 1138.88, -5678.31)" xlink:href="#_ÂÁ_Ï_ÌÌ_È_ËÂÌÚ_618"/><linearGradient id="_ÂÁ_Ï_ÌÌ_È_ËÂÌÚ_617-4" x1="-5007.91" y1="2976.42" x2="-5002.09" y2="2976.42" gradientTransform="matrix(0.63, -0.78, 0.78, 0.63, 1138.88, -5678.31)" xlink:href="#_ÂÁ_Ï_ÌÌ_È_ËÂÌÚ_617"/><linearGradient id="_ÂÁ_Ï_ÌÌ_È_ËÂÌÚ_618-5" x1="-5264.13" y1="3086.04" x2="-5257.69" y2="3086.04" gradientTransform="matrix(0.63, -0.78, 0.78, 0.63, 1138.88, -5678.31)" xlink:href="#_ÂÁ_Ï_ÌÌ_È_ËÂÌÚ_618"/><linearGradient id="_ÂÁ_Ï_ÌÌ_È_ËÂÌÚ_617-5" x1="-5270.59" y1="3086.05" x2="-5264.11" y2="3086.05" gradientTransform="matrix(0.63, -0.78, 0.78, 0.63, 1138.88, -5678.31)" xlink:href="#_ÂÁ_Ï_ÌÌ_È_ËÂÌÚ_617"/><linearGradient id="_ÂÁ_Ï_ÌÌ_È_ËÂÌÚ_618-6" x1="-5258.08" y1="3142.27" x2="-5242.34" y2="3142.27" gradientTransform="matrix(0.63, -0.78, 0.78, 0.63, 1138.88, -5678.31)" xlink:href="#_ÂÁ_Ï_ÌÌ_È_ËÂÌÚ_618"/><linearGradient id="_ÂÁ_Ï_ÌÌ_È_ËÂÌÚ_617-6" x1="-5273.86" y1="3142.28" x2="-5258.02" y2="3142.28" gradientTransform="matrix(0.63, -0.78, 0.78, 0.63, 1138.88, -5678.31)" xlink:href="#_ÂÁ_Ï_ÌÌ_È_ËÂÌÚ_617"/><linearGradient id="_ÂÁ_Ï_ÌÌ_È_ËÂÌÚ_618-7" x1="-3187.36" y1="4286.88" x2="-3174.44" y2="4286.88" gradientTransform="matrix(0.78, 0.63, -0.63, 0.78, 5470.96, -1182.89)" xlink:href="#_ÂÁ_Ï_ÌÌ_È_ËÂÌÚ_618"/><linearGradient id="_ÂÁ_Ï_ÌÌ_È_ËÂÌÚ_617-7" x1="-3200.34" y1="4286.88" x2="-3187.33" y2="4286.88" gradientTransform="matrix(0.78, 0.63, -0.63, 0.78, 5470.96, -1182.89)" xlink:href="#_ÂÁ_Ï_ÌÌ_È_ËÂÌÚ_617"/><linearGradient id="_ÂÁ_Ï_ÌÌ_È_ËÂÌÚ_618-8" x1="-2764.06" y1="4267.5" x2="-2738.6" y2="4267.5" gradientTransform="matrix(0.78, 0.63, -0.63, 0.78, 5470.96, -1182.89)" xlink:href="#_ÂÁ_Ï_ÌÌ_È_ËÂÌÚ_618"/><linearGradient id="_ÂÁ_Ï_ÌÌ_È_ËÂÌÚ_617-8" x1="-2789.65" y1="4267.48" x2="-2764" y2="4267.48" gradientTransform="matrix(0.78, 0.63, -0.63, 0.78, 5470.96, -1182.89)" xlink:href="#_ÂÁ_Ï_ÌÌ_È_ËÂÌÚ_617"/><linearGradient id="_ÂÁ_Ï_ÌÌ_È_ËÂÌÚ_618-9" x1="-4847.88" y1="3438.85" x2="-4841.44" y2="3438.85" gradientTransform="matrix(0.63, -0.78, 0.78, 0.63, 1138.88, -5678.31)" xlink:href="#_ÂÁ_Ï_ÌÌ_È_ËÂÌÚ_618"/><linearGradient id="_ÂÁ_Ï_ÌÌ_È_ËÂÌÚ_617-9" x1="-4854.34" y1="3438.85" x2="-4847.85" y2="3438.85" gradientTransform="matrix(0.63, -0.78, 0.78, 0.63, 1138.88, -5678.31)" xlink:href="#_ÂÁ_Ï_ÌÌ_È_ËÂÌÚ_617"/></defs><title>20</title><g class="cls-1"><g id="Layer_2" data-name="Layer 2"><g id="_ÎÓÈ_1" data-name="—ÎÓÈ_1"><rect class="cls-2" width="958.8" height="560"/><path class="cls-3" d="M470.6,16.8c-98.6,0-184.4,54.3-229.5,134.6A244.8,244.8,0,0,1,440.5,48.8c135.4,0,245.2,110,245.2,245.6S575.9,539.9,440.5,539.9c-6.1,0-12.1-.2-18.1-.7a263.5,263.5,0,0,0,48.2,4.5c145.3,0,263.1-118,263.1-263.5S615.9,16.8,470.6,16.8Z"/><path class="cls-2" d="M212.3,292.1a262.5,262.5,0,0,1,33.6-128.9,244.6,244.6,0,0,0-45.9,143c0,129.6,100.2,235.7,227.2,244.9C304.9,528.4,212.3,421.1,212.3,292.1Z"/><path class="cls-3" d="M690.5,306.2c0-135.6-109.8-245.5-245.3-245.5A244.7,244.7,0,0,0,245.9,163.2a262.5,262.5,0,0,0-33.6,128.9c0,129,92.6,236.3,214.9,259,6,.4,12,.7,18,.7C580.7,551.8,690.5,441.8,690.5,306.2Z"/><path class="cls-4" d="M415.3,299.5a24,24,0,0,0-33.7-4.8l-38.6,29V384l67.5-50.8A24.1,24.1,0,0,0,415.3,299.5Z"/><path class="cls-4" d="M543.6,294.6a24.1,24.1,0,0,0-27.8,39.3l59.1,41.9V316.7Z"/><path class="cls-5" d="M547.3,325.4a50.7,50.7,0,0,0-34.7-41.9,165.8,165.8,0,0,0-49.1-7.7,168,168,0,0,0-52.5,8.7,50.4,50.4,0,0,0-33.9,39.2L342.9,516.3H571.2Z"/><path class="cls-6" d="M538.1,344.9a45.5,45.5,0,0,0-31.2-37.6,147.6,147.6,0,0,0-44-6.9,149.4,149.4,0,0,0-47.2,7.8,45.2,45.2,0,0,0-30.5,35.2L354.6,516.3h205Z"/><path class="cls-4" d="M462.1,429.8a54.2,54.2,0,1,1,54.1-54.2A54.2,54.2,0,0,1,462.1,429.8Zm0-103a48.8,48.8,0,1,0,48.8,48.8A48.8,48.8,0,0,0,462.1,326.8Z"/><rect class="cls-4" x="428.9" y="344.5" width="66.5" height="15.23" rx="7.6"/><rect class="cls-4" x="428.9" y="368" width="66.5" height="15.23" rx="7.6"/><rect class="cls-4" x="428.9" y="391.5" width="66.5" height="15.23" rx="7.6"/><path class="cls-4" d="M463.5,308.6c-24.5,0-31.5-20.7-31.9-31.7a4.7,4.7,0,0,1,4.5-4.8,4.6,4.6,0,0,1,4.7,4.5,30.7,30.7,0,0,0,3.4,11.9c3.8,7.3,10.3,10.9,19.3,10.9,21.8,0,22.7-21.9,22.7-22.8a4.6,4.6,0,1,1,9.2.3C495.1,287.9,488,308.6,463.5,308.6Z"/><path class="cls-7" d="M958.8,269.3C675.3,465.6,286.5,468.9,0,279.2V560H958.8Z"/><polygon class="cls-4" points="319.4 378.7 310.9 347.8 282.9 369 319.4 378.7"/><path class="cls-4" d="M310.9,347.8l8.5,30.9L282.9,369l28-21.2-16.1-58.7a37,37,0,1,0-67.4,29l47.8,79.6,1.8,3c.4.7.9,1.4,1.4,2.1a23.9,23.9,0,0,0,33.4,4.7L343,384V323.7Z"/><polygon class="cls-4" points="639.5 362.6 609.4 341.3 602.6 375 639.5 362.6"/><path class="cls-4" d="M665.4,244a35.7,35.7,0,0,0-42.1,28l-13.9,69.3,30.1,21.3L602.6,375l6.8-33.7-34.5-24.6v59.1l36.8,26.1a18.4,18.4,0,0,0,4.1,2.4,23.9,23.9,0,0,0,31.6-12.2l1.1-2.5,42.6-96a36.3,36.3,0,0,0,2.3-7.5A35.7,35.7,0,0,0,665.4,244Z"/><ellipse class="cls-5" cx="660.9" cy="277.8" rx="42.9" ry="44" transform="translate(166 796.6) rotate(-69.2)"/><path class="cls-8" d="M650.2,302.3l-17.6-17a29.6,29.6,0,0,1-.8-41.9l9.8-10.2a29.7,29.7,0,0,1,41.9-.9l17.6,17a29.7,29.7,0,0,1,.8,41.9l-9.8,10.2A29.7,29.7,0,0,1,650.2,302.3Z"/><path class="cls-8" d="M656.9,227.9l34.5-60.5a14.4,14.4,0,1,1,25,14.3l-.4.6-37.5,58.6a12.5,12.5,0,0,1-17.4,3.9A12.7,12.7,0,0,1,656.9,227.9Z"/><path class="cls-9" d="M625.1,263.1h0a18.4,18.4,0,0,1-.8-26l10.6-11.3a18.4,18.4,0,0,1,26-.9h0a18.6,18.6,0,0,1,.8,26.1l-10.6,11.3A18.4,18.4,0,0,1,625.1,263.1Z"/><path class="cls-10" d="M684.3,281.5a12,12,0,0,1-5.1-4.4,12.7,12.7,0,0,1,3.6-17.5l22.3-14.7A12.6,12.6,0,0,1,719,266l-22.3,14.7A12.5,12.5,0,0,1,684.3,281.5Z"/><path class="cls-9" d="M661.6,271.3a12.3,12.3,0,0,1-8.1-7.2L645,244.2a12.6,12.6,0,0,1,6.7-16.6,12.4,12.4,0,0,1,16.5,6.7l8.5,19.9a12.6,12.6,0,0,1-15.1,17.1Z"/><path class="cls-10" d="M692.9,301.2a11.2,11.2,0,0,1-4.9-4.5,11,11,0,0,1,4.3-14.9l16.8-9.3a10.9,10.9,0,0,1,14.9,4.3,11,11,0,0,1-4.3,14.9L702.9,301A11,11,0,0,1,692.9,301.2Z"/><path class="cls-10" d="M668.2,262.9a12.8,12.8,0,0,1-2.1-21.5l24.5-18.7a12.6,12.6,0,0,1,15.3,20.1l-24.5,18.7A12.7,12.7,0,0,1,668.2,262.9Z"/><ellipse class="cls-5" cx="264.3" cy="302.3" rx="44" ry="42.9" transform="translate(-133.3 246.5) rotate(-40.8)"/><path class="cls-8" d="M268,326l18.9-15.5a29.6,29.6,0,0,0,4-41.7l-9-11a29.6,29.6,0,0,0-41.7-4l-18.8,15.5a29.7,29.7,0,0,0-4.1,41.7l9,11A29.6,29.6,0,0,0,268,326Z"/><path class="cls-8" d="M267,251.3l-29.7-62.9a14.4,14.4,0,1,0-26,12.3l.3.6,32.9,61.4A12.6,12.6,0,0,0,267,251.3Z"/><path class="cls-9" d="M289.5,301.9h0A18.5,18.5,0,0,0,306.3,282L305,266.6a18.4,18.4,0,0,0-19.9-16.8h0a18.4,18.4,0,0,0-16.8,19.8l1.3,15.5A18.5,18.5,0,0,0,289.5,301.9Z"/><path class="cls-10" d="M235.7,302.7a12.1,12.1,0,0,0,5.3-4,12.6,12.6,0,0,0-2.2-17.7l-21.1-16.4a12.7,12.7,0,0,0-15.5,20L223.3,301A12.7,12.7,0,0,0,235.7,302.7Z"/><path class="cls-9" d="M296.9,268.3a12.5,12.5,0,0,0,9.2-5.8l11.7-18.3a12.6,12.6,0,0,0-21.3-13.6l-11.7,18.3a12.7,12.7,0,0,0,12.1,19.4Z"/><path class="cls-10" d="M225.6,321.7a11,11,0,0,0,2-19.3l-16-10.6a11,11,0,0,0-12.1,18.3l16.1,10.6A10.8,10.8,0,0,0,225.6,321.7Z"/><path class="cls-10" d="M253.1,285.4a13.2,13.2,0,0,0,4.8-3.4,12.8,12.8,0,0,0-1-17.9l-23.1-20.5A12.6,12.6,0,0,0,217,262.5L240,283A12.9,12.9,0,0,0,253.1,285.4Z"/><path class="cls-9" d="M463.5,302.3h0a23.8,23.8,0,0,1-23.8-23.8V224.8h47.6v53.7A23.8,23.8,0,0,1,463.5,302.3Z"/><path class="cls-8" d="M398,174.8h10.8a0,0,0,0,1,0,0v32.6a0,0,0,0,1,0,0H398a16.3,16.3,0,0,1-16.3-16.3v0A16.3,16.3,0,0,1,398,174.8Z"/><path class="cls-8" d="M534.5,174.8h10.8a0,0,0,0,1,0,0v32.6a0,0,0,0,1,0,0H534.5a16.3,16.3,0,0,1-16.3-16.3v0A16.3,16.3,0,0,1,534.5,174.8Z" transform="translate(1063.5 382.2) rotate(180)"/><path class="cls-4" d="M398,174.8V120.9a35,35,0,0,1,10.2-24.7l29.9-30a3.1,3.1,0,0,1,5.3,2.2V76a4,4,0,0,0,6.8,2.8l33.6-33.6a7,7,0,0,1,12,5V62.9a4.7,4.7,0,0,0,8,3.3l15.5-15.5a6,6,0,0,1,10.2,4.2V88.6a3.1,3.1,0,0,0,5.3,2.2h0a2.2,2.2,0,0,1,3.8,1.5V151a14.9,14.9,0,0,1-4.4,10.5h0a18.1,18.1,0,0,0-5.3,12.9v.4Z"/><path class="cls-8" d="M437.1,110.8h81.2a0,0,0,0,1,0,0v99.7a45.6,45.6,0,0,1-45.6,45.6H454.4a45.6,45.6,0,0,1-45.6-45.6V139.1a28.3,28.3,0,0,1,28.3-28.3Z"/><path class="cls-10" d="M441.3,112.5h69.8a0,0,0,0,1,0,0v93.2a40.8,40.8,0,0,1-40.8,40.8H456.8a40.8,40.8,0,0,1-40.8-40.8V137.8A25.3,25.3,0,0,1,441.3,112.5Z"/><path class="cls-4" d="M433.2,107.6s31.7,47.5,87,34.9V107.6Z"/><rect class="cls-11" x="395.3" y="148.2" width="136.5" height="57.6" rx="11.2"/><rect class="cls-12" x="395.3" y="139.2" width="136.5" height="57.6" rx="11.2"/><rect class="cls-13" x="400.9" y="141.5" width="125.2" height="45.9" rx="9.6"/><path class="cls-14" d="M463.5,178.1a13.6,13.6,0,1,1,13.6-13.6A13.6,13.6,0,0,1,463.5,178.1Zm0-25.2A11.6,11.6,0,1,0,475,164.5,11.6,11.6,0,0,0,463.5,152.9Z"/><path class="cls-14" d="M483.4,182.1a5.1,5.1,0,1,1,0-10.1,5.1,5.1,0,0,1,0,10.1Zm0-8.1a3,3,0,0,0-3,3,2.9,2.9,0,0,0,3,3,3,3,0,0,0,3-3A3.1,3.1,0,0,0,483.4,174Z"/><rect class="cls-12" x="400.9" y="161.6" width="44" height="4.48"/><rect class="cls-12" x="482.1" y="161.6" width="44" height="4.48"/><rect class="cls-12" x="506.5" y="154.2" width="19.6" height="2.24"/><rect class="cls-12" x="400.9" y="154.2" width="19.6" height="2.24"/><g class="cls-15"><path class="cls-16" d="M456.4,208.6h12.8a2.2,2.2,0,0,0,1.6-3.8c-2-2-4.8-4-8-4s-6.1,2-8,4A2.2,2.2,0,0,0,456.4,208.6Z"/><path class="cls-16" d="M449.7,229.9h27.7c.7,0,.9-1.4.2-1.7-3.6-1.5-9.4-3.5-14.9-3.5a29.5,29.5,0,0,0-13.3,3.5C448.8,228.6,449,229.9,449.7,229.9Z"/><path class="cls-16" d="M471,233.3H456.1c-.4,0-.5.7-.1.9a22,22,0,0,0,8,1.8,15.6,15.6,0,0,0,7.1-1.8C471.4,234,471.3,233.3,471,233.3Z"/></g><path class="cls-17" d="M557.4,346.1a1.1,1.1,0,0,1-.8-.3l-2.3-1.5a1.4,1.4,0,0,1-.4-1.9,1.5,1.5,0,0,1,2-.4l2.2,1.6a1.3,1.3,0,0,1,.4,1.9A1.4,1.4,0,0,1,557.4,346.1Z"/><path class="cls-17" d="M616.7,384.5a1.4,1.4,0,1,1,0-2.8,6.6,6.6,0,0,0,4.2-1.5,1.4,1.4,0,0,1,1.9.3,1.3,1.3,0,0,1-.2,1.9,10.6,10.6,0,0,1-5.9,2.1Zm-5.1-1.7-.8-.2-4.5-3.1a1.4,1.4,0,1,1,1.5-2.3l4.5,3.1a1.3,1.3,0,0,1,.4,1.9A1.4,1.4,0,0,1,611.6,382.8Zm13.2-4.5h-.5a1.3,1.3,0,0,1-.8-1.7l1.7-5.2a1.5,1.5,0,0,1,1.8-.9,1.4,1.4,0,0,1,.8,1.8l-1.7,5.1A1.4,1.4,0,0,1,624.8,378.3Zm-22.3-1.6-.7-.2-4.6-3.1a1.4,1.4,0,0,1-.3-1.9,1.4,1.4,0,0,1,1.9-.4l4.5,3.1a1.4,1.4,0,0,1-.8,2.5Zm-9-6.1a1.3,1.3,0,0,1-.8-.3l-4.5-3a1.4,1.4,0,1,1,1.6-2.3l4.5,3.1a1.3,1.3,0,0,1,.3,1.9A1.3,1.3,0,0,1,593.5,370.6Zm34.8-2.7h-.5a1.6,1.6,0,0,1-.9-1.8l1.8-5.2a1.3,1.3,0,0,1,1.7-.8,1.4,1.4,0,0,1,.9,1.7l-1.7,5.2A1.4,1.4,0,0,1,628.3,367.9Zm-43.8-3.5a1.1,1.1,0,0,1-.8-.2l-4.5-3.1a1.4,1.4,0,0,1-.4-1.9,1.3,1.3,0,0,1,1.9-.3l4.5,3a1.3,1.3,0,0,1,.4,1.9A1.4,1.4,0,0,1,584.5,364.4Zm-9.1-6.1-.7-.2-4.6-3.1a1.3,1.3,0,0,1-.3-1.9,1.4,1.4,0,0,1,1.9-.4l4.5,3.1a1.4,1.4,0,0,1-.8,2.5Zm56.3-.7h-.4a1.5,1.5,0,0,1-.9-1.8l1.7-5.1a1.5,1.5,0,0,1,1.8-.9,1.4,1.4,0,0,1,.9,1.7l-1.8,5.2A1.4,1.4,0,0,1,631.7,357.6Zm-65.3-5.4-.8-.2-4.5-3.1a1.4,1.4,0,0,1-.4-1.9,1.6,1.6,0,0,1,2-.4l4.5,3.1a1.3,1.3,0,0,1,.3,1.9A1.3,1.3,0,0,1,566.4,352.2Zm68.8-5h-.5a1.3,1.3,0,0,1-.8-1.7l1.7-5.2a1.5,1.5,0,0,1,1.8-.9,1.4,1.4,0,0,1,.8,1.8l-1.7,5.2A1.4,1.4,0,0,1,635.2,347.2Zm3.5-10.4h-.5a1.5,1.5,0,0,1-.9-1.8l1.8-5.1a1.2,1.2,0,0,1,1.7-.9,1.4,1.4,0,0,1,.9,1.7l-1.7,5.2A1.4,1.4,0,0,1,638.7,336.8Z"/><path class="cls-17" d="M642.1,326.5h-.4a1.4,1.4,0,0,1-.9-1.7l.9-2.6a1.2,1.2,0,0,1,1.7-.9,1.3,1.3,0,0,1,.9,1.7l-.9,2.6A1.4,1.4,0,0,1,642.1,326.5Z"/><path class="cls-17" d="M300.6,392.9a1.3,1.3,0,0,1-1.3-1.1,1.3,1.3,0,0,1,1.1-1.6,4.3,4.3,0,0,0,2.1-.9l2.1-1.5a1.4,1.4,0,0,1,1.9.3,1.4,1.4,0,0,1-.3,2l-2.1,1.4a7.7,7.7,0,0,1-3.2,1.4Zm-5.2-1.1-.8-.2a7.6,7.6,0,0,1-2.7-3.2l-.9-1.8a1.4,1.4,0,0,1,.7-1.8,1.2,1.2,0,0,1,1.8.6l.8,1.8a6.4,6.4,0,0,0,1.9,2.1,1.3,1.3,0,0,1,.3,1.9A1.3,1.3,0,0,1,295.4,391.8Zm14.5-4.7a1.6,1.6,0,0,1-1.1-.5,1.4,1.4,0,0,1,.3-2l4.5-3.1a1.4,1.4,0,0,1,1.6,2.2l-4.5,3.2A1.1,1.1,0,0,1,309.9,387.1Zm-20-4.7a1.3,1.3,0,0,1-1.2-.8l-2.4-4.9a1.4,1.4,0,0,1,.6-1.9,1.4,1.4,0,0,1,1.8.7l2.4,5a1.3,1.3,0,0,1-.6,1.8Zm29-1.6a1.3,1.3,0,0,1-1.1-.6,1.3,1.3,0,0,1,.3-1.9l4.5-3.2a1.4,1.4,0,0,1,1.6,2.3l-4.5,3.2Zm9-6.3a1.3,1.3,0,0,1-1.1-.6,1.3,1.3,0,0,1,.3-1.9l4.5-3.2a1.4,1.4,0,0,1,1.9.3,1.3,1.3,0,0,1-.3,1.9l-4.5,3.2A1.1,1.1,0,0,1,327.9,374.5Zm-42.8-2a1.3,1.3,0,0,1-1.2-.8l-2.4-5a1.4,1.4,0,1,1,2.5-1.1l2.4,4.9a1.5,1.5,0,0,1-.7,1.9Zm51.8-4.4a1.3,1.3,0,0,1-1.1-.6,1.3,1.3,0,0,1,.3-1.9l4.5-3.2a1.4,1.4,0,0,1,1.9.4,1.3,1.3,0,0,1-.3,1.9l-4.5,3.2Zm-56.5-5.5a1.6,1.6,0,0,1-1.3-.8l-2.3-5a1.3,1.3,0,1,1,2.4-1.2l2.4,5a1.3,1.3,0,0,1-.6,1.8Zm65.5-.8a1.3,1.3,0,0,1-1.1-.6,1.3,1.3,0,0,1,.3-1.9l4.5-3.2a1.4,1.4,0,0,1,1.9.3,1.4,1.4,0,0,1-.3,2l-4.5,3.1A1.3,1.3,0,0,1,345.9,361.8Zm9-6.4a1.4,1.4,0,0,1-.8-2.5l4.5-3.1a1.3,1.3,0,0,1,1.9.3,1.4,1.4,0,0,1-.3,1.9l-4.5,3.2A1.2,1.2,0,0,1,354.9,355.4Zm-79.3-2.8a1.4,1.4,0,0,1-1.2-.7l-.8-1.6a1.5,1.5,0,0,1,.7-1.9,1.4,1.4,0,0,1,1.8.7l.8,1.6a1.4,1.4,0,0,1-.7,1.8Zm88.3-3.5a1.3,1.3,0,0,1-1.1-.6,1.3,1.3,0,0,1,.3-1.9l4.5-3.2a1.3,1.3,0,0,1,1.9.4,1.4,1.4,0,0,1-.3,1.9l-4.5,3.1A1.3,1.3,0,0,1,363.9,349.1Z"/><path class="cls-12" d="M395.3,160.9h0a10.5,10.5,0,0,0-10.5,10.5v10.2a16.6,16.6,0,0,1,10.5-6.6Z"/><path class="cls-12" d="M531.8,160.9h0a10.4,10.4,0,0,1,10.4,10.5v10.2a16.2,16.2,0,0,0-10.4-6.6Z"/><path class="cls-14" d="M337.5,35.3H320.8a.9.9,0,0,1-1-.6,1,1,0,0,1,.1-1.2l8.3-10.3a1.3,1.3,0,0,1,1.8,0l8.3,10.3a1,1,0,0,1,.1,1.2A.9.9,0,0,1,337.5,35.3Zm-14.4-2.2h12l-6-7.4Z"/><path class="cls-14" d="M616.5,151.4H599.8a1.2,1.2,0,0,1-1-.7,1.1,1.1,0,0,1,.1-1.1l8.4-10.3a.9.9,0,0,1,.8-.4h0a1,1,0,0,1,.9.4l8.3,10.3a.9.9,0,0,1,.2,1.1A1.2,1.2,0,0,1,616.5,151.4Zm-14.4-2.2h12.1l-6.1-7.5Z"/><path class="cls-14" d="M602.8,78.5H586.2a.9.9,0,0,1-1-.6,1.1,1.1,0,0,1,.1-1.2l8.3-10.3a1.3,1.3,0,0,1,1.8,0l8.3,10.3a1.1,1.1,0,0,1,.1,1.2A.9.9,0,0,1,602.8,78.5Zm-14.3-2.2h12l-6-7.4Z"/><path class="cls-14" d="M105.6,138.8H88.9a1.1,1.1,0,0,1-1-.6,1.1,1.1,0,0,1,.2-1.2l8.3-10.3a1,1,0,0,1,.9-.4h0a.9.9,0,0,1,.8.4l8.4,10.3a1.3,1.3,0,0,1,.1,1.2A1.1,1.1,0,0,1,105.6,138.8Zm-14.4-2.2h12.1l-6-7.5Z"/><path class="cls-14" d="M778.7,77.4H751.4a1.2,1.2,0,0,1-1-.6,1,1,0,0,1,.1-1.2l13.7-16.9a1.2,1.2,0,0,1,1.7,0l13.6,16.9a1.1,1.1,0,0,1,.2,1.2A1.3,1.3,0,0,1,778.7,77.4Zm-25-2.2h22.7L765,61.2Z"/><path class="cls-14" d="M338,124.8H326.8a1.1,1.1,0,0,1-1-.6,1.3,1.3,0,0,1,.1-1.2l5.7-6.9a1.2,1.2,0,0,1,1.7,0l5.6,6.9a1.1,1.1,0,0,1,.1,1.2A.9.9,0,0,1,338,124.8Zm-8.9-2.2h6.6l-3.3-4.1Z"/><path class="cls-14" d="M858.5,153h-9.8a1.1,1.1,0,0,1-.9-.5,1.1,1.1,0,0,1,.1-1.1l4.9-6a1.2,1.2,0,0,1,.8-.4h0a1,1,0,0,1,.7.4l4.9,6a1.1,1.1,0,0,1,.1,1.1A.9.9,0,0,1,858.5,153Zm-7.8-1.9h5.8l-2.9-3.6Z"/><path class="cls-14" d="M180.6,87.2a1.5,1.5,0,0,1-.9-.4l-8.3-10.3a1.3,1.3,0,0,1-.2-1.2,1.1,1.1,0,0,1,1-.6h16.7a1,1,0,0,1,1,.6,1.1,1.1,0,0,1-.1,1.2l-8.4,10.3A1.2,1.2,0,0,1,180.6,87.2Zm-6-10.3,6,7.4,6-7.4Z"/><path class="cls-14" d="M842.2,333.4a1,1,0,0,1-.9-.4l-13.7-16.9a1.1,1.1,0,0,1-.1-1.1,1.2,1.2,0,0,1,1-.7h27.3a1.2,1.2,0,0,1,1,.7,1.1,1.1,0,0,1-.1,1.1L843,333A.9.9,0,0,1,842.2,333.4Zm-11.4-16.8,11.4,14,11.3-14Z"/><path class="cls-14" d="M144.5,189.1a1.3,1.3,0,0,1-.9-.4l-13.7-16.9a1.3,1.3,0,0,1-.1-1.2,1.1,1.1,0,0,1,1-.6h27.3a1.1,1.1,0,0,1,1,.6,1.3,1.3,0,0,1-.1,1.2l-13.7,16.9A1.2,1.2,0,0,1,144.5,189.1Zm-11.4-16.9,11.4,14,11.3-14Z"/><path class="cls-14" d="M785.8,395.2h0a.9.9,0,0,1-.7-.4l-4.9-6a.9.9,0,0,1-.1-1,.8.8,0,0,1,.8-.6h9.8a1,1,0,0,1,.9.6.9.9,0,0,1-.1,1l-4.9,6A.9.9,0,0,1,785.8,395.2Zm-2.8-6,2.8,3.5,2.9-3.5Z"/><path class="cls-14" d="M679.6,32.8h0a1.3,1.3,0,0,1-.9-.4l-5.6-7a.9.9,0,0,1-.1-1.1,1,1,0,0,1,1-.7h11.2a1.2,1.2,0,0,1,1,.7,1.1,1.1,0,0,1-.1,1.1l-5.7,7A1.2,1.2,0,0,1,679.6,32.8Zm-3.3-7,3.3,4.1,3.3-4.1Z"/><path class="cls-14" d="M122,280.4h0a.9.9,0,0,1-.8-.4l-5.6-7a.9.9,0,0,1-.2-1.1,1.2,1.2,0,0,1,1-.7h11.3a1.2,1.2,0,0,1,1,.7.9.9,0,0,1-.2,1.1l-5.6,7A1,1,0,0,1,122,280.4Zm-3.3-6.9,3.3,4,3.4-4Z"/><path class="cls-6" d="M575.2,505.6a934.8,934.8,0,0,1-215.4,0c-8.2-1-14.1-7.5-13.2-14.4l5.7-43c.9-6.9,7.8-11.7,15.4-10.8a865.2,865.2,0,0,0,199.6,0c7.5-.9,14.4,3.9,15.3,10.8l5.7,43C589.2,498.1,583.4,504.6,575.2,505.6Z"/><path class="cls-14" d="M568.7,491.2a914.1,914.1,0,0,1-202.5,0c-6.7-.7-11.5-6.1-10.8-11.8l3.6-29.1c.7-5.8,6.4-9.8,12.7-9.1a863.5,863.5,0,0,0,191.5,0c6.3-.7,12,3.3,12.7,9.1l3.6,29.1C580.3,485.1,575.4,490.5,568.7,491.2Z"/><path class="cls-3" d="M395.5,503.5c-10.4-.8-20.8-1.8-31.2-2.9-1-.2-1.7-.9-1.6-1.7h0a1.6,1.6,0,0,1,1.9-1.3c10.4,1.1,20.7,2.1,31.1,2.9a1.7,1.7,0,0,1,1.7,1.6h0A1.6,1.6,0,0,1,395.5,503.5Z"/><path class="cls-3" d="M417.9,505l-11.2-.7c-.9-.1-1.7-.8-1.6-1.6h0a1.8,1.8,0,0,1,1.8-1.4l11.1.7a1.6,1.6,0,0,1,1.7,1.6h0A1.8,1.8,0,0,1,417.9,505Z"/><path class="cls-12" d="M560.5,501.6c-14.6,1.5-29.3,2.6-43.9,3.4a2.4,2.4,0,0,1-2.7-2h0a2.4,2.4,0,0,1,2.4-2.3c14.6-.8,29.2-1.9,43.7-3.4a2.4,2.4,0,0,1,2.8,1.9h0A2.3,2.3,0,0,1,560.5,501.6Z"/><path class="cls-14" d="M524.6,503.3l-5.5.3a.9.9,0,0,1-1.1-.8h0a1,1,0,0,1,1-.9l5.5-.3a.9.9,0,0,1,1,.8h0A.9.9,0,0,1,524.6,503.3Z"/><path class="cls-3" d="M534.8,502.6l-5.5.4a1,1,0,0,1-1.1-.8h0a.9.9,0,0,1,1-.9l5.5-.4a.9.9,0,0,1,1,.8h0C535.8,502.2,535.3,502.6,534.8,502.6Z"/><path class="cls-3" d="M728.3,438.6l-12.1-14a18.7,18.7,0,0,1-2-2.9c-3.8-6-20.7-6.6-39.6-1.9s-33.5,12.9-34.1,19.9c-.1,1.3-.2,2.5-.4,3.7l-4.5,18.4a14,14,0,0,1-1.3,3.4,7.3,7.3,0,0,0-.8,4.7c1.7,9.6,26.4,13.3,54.9,6.3s48.9-21.8,45.9-31.1a7,7,0,0,0-2.9-3.8A20,20,0,0,1,728.3,438.6Z"/><path class="cls-6" d="M709.4,424.4c1.8,6.1-11.1,15.2-28.9,19.6s-33.3,2.2-34.5-4,11.8-14.1,29.1-18.3S707.6,418.3,709.4,424.4Z"/><path class="cls-18" d="M676.3,426.8c13-3.2,24.7-2.9,28.1.8a3.3,3.3,0,0,0,0-1.7c-1.5-5.2-14.4-6-28.9-2.5S650,433.7,651.1,439a3.1,3.1,0,0,0,.8,1.5C653.2,435.6,663.3,430,676.3,426.8Z"/><path class="cls-14" d="M658.3,435.8c-6.9,0-12.7-1.2-16.3-3.4a7.2,7.2,0,0,1-3.4-4.6c-1.7-8.4,15.2-17.2,32.7-21.5s36.6-4.3,39,3.9h0a7.3,7.3,0,0,1-.9,5.6c-3.9,6.8-16.6,13.8-31.5,17.4A83.3,83.3,0,0,1,658.3,435.8Zm34.6-30.4a92.2,92.2,0,0,0-21.1,2.9c-18.7,4.6-32.4,13-31.2,19.1a5,5,0,0,0,2.5,3.2c6.1,3.9,20.2,4.1,34.3.7S704,421,707.6,414.8a5.7,5.7,0,0,0,.8-4h0C707.3,407.3,701.4,405.4,692.9,405.4Z"/><path class="cls-14" d="M652,420.4c-8.2,0-15-1.3-19.2-4-2.3-1.5-3.7-3.3-4-5.4-1.8-9.8,17.5-19.9,37.6-24.8s42-5,44.9,4.5c.6,2,.2,4.2-1.1,6.6-4.5,8-19,16.1-36.1,20.3A94.2,94.2,0,0,1,652,420.4Zm39-35.5a104,104,0,0,0-24.2,3.3c-21.5,5.3-37.4,15.1-36,22.4a5.9,5.9,0,0,0,3.1,4c7.1,4.6,23.4,5,39.7,1s30.6-11.9,34.8-19.3a5.9,5.9,0,0,0,.9-5h0C708,387.1,701,384.9,691,384.9Z"/><path class="cls-19" d="M688.6,451.5c1.7,3.8,3.3,7.7,4.9,11.6s-.5,7.1-4.4,8.5-8.2,0-9.5-3.3a3.8,3.8,0,0,1-.4-1.7c-.4-4.2-.7-8.4-1.1-12.5a5.4,5.4,0,0,1,5-5.5A5.1,5.1,0,0,1,688.6,451.5Z"/><path class="cls-3" d="M682,466.5c-.5-2.1,1.1-4.3,3.5-4.9s4.8.6,5.3,2.7a4.3,4.3,0,0,1-3.4,4.9C684.9,469.8,682.5,468.6,682,466.5Z"/><path class="cls-14" d="M683.8,457.2a3.1,3.1,0,0,1-1.3-.3,2.4,2.4,0,0,1-.9-1.3h0a2.3,2.3,0,0,1,1.8-2.7,2.4,2.4,0,0,1,2.9,1.6,2.1,2.1,0,0,1-.3,1.5,2.1,2.1,0,0,1-1.5,1.1Zm.3-3.3h-.4c-.8.2-1.3.8-1.1,1.5h0a1,1,0,0,0,.5.6,1.4,1.4,0,0,0,1.1.1,1.7,1.7,0,0,0,1-.6,1.1,1.1,0,0,0,.1-.8A1.1,1.1,0,0,0,684.1,453.9Z"/><path class="cls-3" d="M299.1,461.3c-1.5-6-2.9-12-4.2-17.9a22.3,22.3,0,0,1-.5-3.6c-.5-7.1-15.2-15.4-34.1-20s-35.7-4.1-39.5,1.8a33.7,33.7,0,0,1-2.1,3.1l-12.5,14.2a21.6,21.6,0,0,1-2.7,2.5,6.5,6.5,0,0,0-2.9,3.7c-3,9.3,17.4,24.1,45.9,31.1s53.2,3.3,54.9-6.3a7.3,7.3,0,0,0-.8-4.7A20.8,20.8,0,0,1,299.1,461.3Z"/><path class="cls-6" d="M289,440c-1.3,6.2-16.8,8.4-34.6,4s-30.6-13.5-28.9-19.6,17.1-7,34.4-2.7S290.2,433.8,289,440Z"/><path class="cls-18" d="M258.6,426.8c13,3.2,23.2,8.8,24.5,13.7a3.1,3.1,0,0,0,.8-1.5c1.1-5.3-9.9-12-24.5-15.6s-27.4-2.7-28.9,2.5a4.8,4.8,0,0,0,0,1.7C234,423.9,245.6,423.6,258.6,426.8Z"/><path class="cls-14" d="M276.6,435.8a84,84,0,0,1-19.6-2.6c-14.9-3.6-27.6-10.6-31.4-17.4a6.9,6.9,0,0,1-1-5.6c2.5-8.2,21.5-8.2,39-3.9s34.4,13.1,32.8,21.5h0a7.7,7.7,0,0,1-3.5,4.6C289.4,434.6,283.5,435.8,276.6,435.8ZM242,405.4c-8.5,0-14.4,1.9-15.4,5.4a5.1,5.1,0,0,0,.7,4c3.6,6.2,16,13,30.2,16.5s28.3,3.2,34.3-.7a4.7,4.7,0,0,0,2.5-3.2h0c1.2-6.1-12.5-14.5-31.1-19.1A93,93,0,0,0,242,405.4Z"/><path class="cls-14" d="M282.9,420.4a93.4,93.4,0,0,1-22-2.8c-17.1-4.2-31.6-12.3-36.1-20.3a8.1,8.1,0,0,1-1.1-6.6c2.9-9.5,24.8-9.5,44.9-4.5s39.4,15,37.6,24.8h0a8.5,8.5,0,0,1-4.1,5.4C298,419.1,291.1,420.4,282.9,420.4Zm-39-35.5c-10,0-17,2.2-18.3,6.4a6.7,6.7,0,0,0,.9,5c4.2,7.4,18.5,15.3,34.9,19.3s32.5,3.6,39.6-1a6.4,6.4,0,0,0,3.2-4h0c1.3-7.3-14.5-17.1-36.1-22.4A103.3,103.3,0,0,0,243.9,384.9Z"/><path class="cls-19" d="M258.1,454.4c-.3,4.2-.7,8.3-1,12.5s-3.8,6.1-8,5.6-7.1-3.9-6.8-7.5a9.4,9.4,0,0,1,.4-1.6c1.7-3.9,3.3-7.7,4.9-11.6a5.3,5.3,0,0,1,6.9-2.5A5.1,5.1,0,0,1,258.1,454.4Z"/><path class="cls-3" d="M245.3,464.6c.5-2.1,2.9-3.3,5.3-2.7s4,2.8,3.5,4.9-2.9,3.3-5.3,2.7S244.8,466.7,245.3,464.6Z"/><path class="cls-14" d="M252.4,457.5h-.6a2.5,2.5,0,0,1-1.6-1.2,1.6,1.6,0,0,1-.2-1.5h0a2.2,2.2,0,0,1,2.8-1.6,2.5,2.5,0,0,1,1.9,2.7,2.6,2.6,0,0,1-1,1.3A2.8,2.8,0,0,1,252.4,457.5Zm-.2-3.3a1.1,1.1,0,0,0-1.2.8h0a1,1,0,0,0,.1.8,1.6,1.6,0,0,0,.9.7,1.6,1.6,0,0,0,1.2-.2,1,1,0,0,0,.5-.6,1.5,1.5,0,0,0-1.1-1.5Z"/><polygon class="cls-20" points="355.8 483.4 208.6 50 722.2 50 579.6 482.5 355.8 483.4"/><path class="cls-14" d="M467.8,435.9a1.2,1.2,0,0,1-.8-.2l-47.5-27.5a1.3,1.3,0,0,1-.8-1.2V352a1.6,1.6,0,0,1,.8-1.3L467,323.2a1.9,1.9,0,0,1,1.5,0l47.6,27.5a1.7,1.7,0,0,1,.7,1.3v55a1.4,1.4,0,0,1-.7,1.2l-47.6,27.5A1,1,0,0,1,467.8,435.9Zm-46.2-29.7,46.2,26.6,46.1-26.6V352.8l-46.1-26.7-46.2,26.7Zm93.7.8h0Z"/><path class="cls-14" d="M467.8,322.1l-.8-.2-9-5.2a1.7,1.7,0,0,1-.7-1.3V305a1.7,1.7,0,0,1,.7-1.3l9-5.2a1.9,1.9,0,0,1,1.5,0l9,5.2a1.7,1.7,0,0,1,.7,1.3v10.4a1.7,1.7,0,0,1-.7,1.3l-9,5.2Zm-7.6-7.5,7.6,4.4,7.5-4.4v-8.8l-7.5-4.4-7.6,4.4Zm16.6.8Z"/><path class="cls-14" d="M525,353.4a1,1,0,0,1-.7-.2l-4.5-2.6a1.2,1.2,0,0,1-.7-1.2v-5.2a1.4,1.4,0,0,1,.7-1.3l4.5-2.6a1.7,1.7,0,0,1,1.4,0l4.5,2.6a1.4,1.4,0,0,1,.8,1.3v5.2a1.3,1.3,0,0,1-.8,1.2l-4.5,2.6A.8.8,0,0,1,525,353.4Zm-3.1-4.9,3.1,1.8,3.1-1.8V345l-3.1-1.8-3.1,1.8Zm7.6.9Z"/><path class="cls-14" d="M410.5,386.1a.8.8,0,0,1-.7-.2l-4.5-2.6a1.2,1.2,0,0,1-.7-1.2v-5.2a1.5,1.5,0,0,1,.7-1.3l4.5-2.6a1.7,1.7,0,0,1,1.4,0l4.5,2.6a1.5,1.5,0,0,1,.7,1.3v5.2a1.2,1.2,0,0,1-.7,1.2l-4.5,2.6A1,1,0,0,1,410.5,386.1Zm-3.1-4.8,3.1,1.7,3.1-1.7v-3.6l-3.1-1.8-3.1,1.8Zm7.6.8Z"/><path class="cls-14" d="M467.8,409.1a1.2,1.2,0,0,1-.8-.2l-24.3-14.1a1.3,1.3,0,0,1-.8-1.2V365.4a1.6,1.6,0,0,1,.8-1.3l24.3-14a1.4,1.4,0,0,1,1.5,0l24.4,14a1.7,1.7,0,0,1,.7,1.3v28.2a1.4,1.4,0,0,1-.7,1.2l-24.4,14.1A1,1,0,0,1,467.8,409.1Zm-23-16.3,23,13.2,22.9-13.2V366.2L467.8,353l-23,13.2Zm47.3.8h0Z"/><path class="cls-14" d="M515.3,408.4a1,1,0,0,1-.7-.2l-95.1-55a1.4,1.4,0,0,1-.6-1.9,1.5,1.5,0,0,1,2-.6l95.2,55a1.6,1.6,0,0,1,.5,2A1.5,1.5,0,0,1,515.3,408.4Z"/><path class="cls-14" d="M420.2,408.4a1.5,1.5,0,0,1-1.3-.7,1.5,1.5,0,0,1,.6-2l95.1-55a1.5,1.5,0,0,1,2,.6,1.4,1.4,0,0,1-.5,1.9l-95.2,55A1,1,0,0,1,420.2,408.4Z"/><path class="cls-14" d="M467.8,435.9a1.5,1.5,0,0,1-1.5-1.4v-110a1.5,1.5,0,0,1,1.5-1.5,1.5,1.5,0,0,1,1.4,1.5v110A1.4,1.4,0,0,1,467.8,435.9Z"/><g class="cls-21"><path class="cls-14" d="M245.3,133.7a2.2,2.2,0,1,0-2.1-2.1A2.2,2.2,0,0,0,245.3,133.7Z"/><path class="cls-14" d="M275.6,133.7a2.2,2.2,0,1,0-2.1-2.1A2.2,2.2,0,0,0,275.6,133.7Z"/><path class="cls-14" d="M305.9,133.7a2.2,2.2,0,1,0,0-4.3,2.1,2.1,0,0,0-2.1,2.2A2.1,2.1,0,0,0,305.9,133.7Z"/><path class="cls-14" d="M336.2,133.7a2.2,2.2,0,1,0,0-4.3,2.1,2.1,0,0,0-2.1,2.2A2.1,2.1,0,0,0,336.2,133.7Z"/><path class="cls-14" d="M366.5,133.7a2.2,2.2,0,1,0,0-4.3,2.1,2.1,0,0,0-2.1,2.2A2.1,2.1,0,0,0,366.5,133.7Z"/><path class="cls-14" d="M396.8,133.7a2.1,2.1,0,0,0,2.1-2.1,2.1,2.1,0,1,0-4.2,0A2.1,2.1,0,0,0,396.8,133.7Z"/><path class="cls-14" d="M427.1,133.7a2.1,2.1,0,0,0,2.1-2.1,2.1,2.1,0,0,0-2.1-2.2,2.2,2.2,0,1,0,0,4.3Z"/><path class="cls-14" d="M457.4,133.7a2.1,2.1,0,0,0,2.1-2.1,2.1,2.1,0,0,0-2.1-2.2,2.2,2.2,0,1,0,0,4.3Z"/><path class="cls-14" d="M487.7,133.7a2.1,2.1,0,0,0,2.1-2.1,2.1,2.1,0,0,0-2.1-2.2,2.2,2.2,0,1,0,0,4.3Z"/><path class="cls-14" d="M518,133.7a2.2,2.2,0,0,0,0-4.3,2.2,2.2,0,1,0,0,4.3Z"/><path class="cls-14" d="M548.3,133.7a2.2,2.2,0,0,0,0-4.3,2.2,2.2,0,1,0,0,4.3Z"/><path class="cls-14" d="M578.5,133.7a2.2,2.2,0,1,0-2.1-2.1A2.2,2.2,0,0,0,578.5,133.7Z"/><path class="cls-14" d="M608.8,133.7a2.2,2.2,0,1,0-2.1-2.1A2.2,2.2,0,0,0,608.8,133.7Z"/><path class="cls-14" d="M639.1,133.7a2.2,2.2,0,1,0,0-4.3,2.1,2.1,0,0,0-2.1,2.2A2.1,2.1,0,0,0,639.1,133.7Z"/><path class="cls-14" d="M669.4,133.7a2.2,2.2,0,1,0,0-4.3,2.1,2.1,0,0,0-2.1,2.2A2.1,2.1,0,0,0,669.4,133.7Z"/><path class="cls-14" d="M245.3,164a2.1,2.1,0,0,0,2.2-2.1,2.2,2.2,0,1,0-4.3,0A2.1,2.1,0,0,0,245.3,164Z"/><path class="cls-14" d="M275.6,164a2.1,2.1,0,0,0,2.2-2.1,2.2,2.2,0,1,0-4.3,0A2.1,2.1,0,0,0,275.6,164Z"/><path class="cls-14" d="M305.9,164a2.1,2.1,0,0,0,2.2-2.1,2.2,2.2,0,0,0-2.2-2.2,2.1,2.1,0,0,0-2.1,2.2A2.1,2.1,0,0,0,305.9,164Z"/><path class="cls-14" d="M336.2,164a2.1,2.1,0,0,0,2.2-2.1,2.2,2.2,0,0,0-2.2-2.2,2.1,2.1,0,0,0-2.1,2.2A2.1,2.1,0,0,0,336.2,164Z"/><path class="cls-14" d="M366.5,164a2.1,2.1,0,0,0,2.2-2.1,2.2,2.2,0,0,0-2.2-2.2,2.1,2.1,0,0,0-2.1,2.2A2.1,2.1,0,0,0,366.5,164Z"/><path class="cls-14" d="M396.8,164a2.1,2.1,0,0,0,2.1-2.1,2.1,2.1,0,1,0-4.2,0A2.1,2.1,0,0,0,396.8,164Z"/><path class="cls-14" d="M427.1,164a2.1,2.1,0,0,0,2.1-2.1,2.1,2.1,0,0,0-2.1-2.2,2.2,2.2,0,0,0-2.2,2.2A2.1,2.1,0,0,0,427.1,164Z"/><path class="cls-14" d="M457.4,164a2.1,2.1,0,0,0,2.1-2.1,2.1,2.1,0,0,0-2.1-2.2,2.2,2.2,0,0,0-2.2,2.2A2.1,2.1,0,0,0,457.4,164Z"/><path class="cls-14" d="M487.7,164a2.1,2.1,0,0,0,2.1-2.1,2.1,2.1,0,0,0-2.1-2.2,2.2,2.2,0,0,0-2.2,2.2A2.1,2.1,0,0,0,487.7,164Z"/><path class="cls-14" d="M518,164a2.1,2.1,0,0,0,2.1-2.1,2.2,2.2,0,1,0-4.3,0A2.1,2.1,0,0,0,518,164Z"/><path class="cls-14" d="M548.3,164a2.1,2.1,0,0,0,2.1-2.1,2.2,2.2,0,1,0-4.3,0A2.1,2.1,0,0,0,548.3,164Z"/><path class="cls-14" d="M578.5,164a2.1,2.1,0,0,0,2.2-2.1,2.2,2.2,0,1,0-4.3,0A2.1,2.1,0,0,0,578.5,164Z"/><path class="cls-14" d="M608.8,164a2.1,2.1,0,0,0,2.2-2.1,2.2,2.2,0,1,0-4.3,0A2.1,2.1,0,0,0,608.8,164Z"/><path class="cls-14" d="M639.1,164a2.1,2.1,0,0,0,2.2-2.1,2.2,2.2,0,0,0-2.2-2.2,2.1,2.1,0,0,0-2.1,2.2A2.1,2.1,0,0,0,639.1,164Z"/><path class="cls-14" d="M669.4,164a2.1,2.1,0,0,0,2.2-2.1,2.2,2.2,0,0,0-2.2-2.2,2.1,2.1,0,0,0-2.1,2.2A2.1,2.1,0,0,0,669.4,164Z"/><path class="cls-14" d="M245.3,194.4a2.2,2.2,0,0,0,2.2-2.2,2.1,2.1,0,0,0-2.2-2.1,2.1,2.1,0,0,0-2.1,2.1A2.2,2.2,0,0,0,245.3,194.4Z"/><path class="cls-14" d="M275.6,194.4a2.2,2.2,0,0,0,2.2-2.2,2.1,2.1,0,0,0-2.2-2.1,2.1,2.1,0,0,0-2.1,2.1A2.2,2.2,0,0,0,275.6,194.4Z"/><path class="cls-14" d="M305.9,194.4a2.2,2.2,0,0,0,2.2-2.2,2.1,2.1,0,0,0-2.2-2.1,2.1,2.1,0,0,0-2.1,2.1A2.1,2.1,0,0,0,305.9,194.4Z"/><path class="cls-14" d="M336.2,194.4a2.2,2.2,0,0,0,2.2-2.2,2.1,2.1,0,0,0-2.2-2.1,2.1,2.1,0,0,0-2.1,2.1A2.1,2.1,0,0,0,336.2,194.4Z"/><path class="cls-14" d="M366.5,194.4a2.2,2.2,0,0,0,2.2-2.2,2.1,2.1,0,0,0-2.2-2.1,2.1,2.1,0,0,0-2.1,2.1A2.1,2.1,0,0,0,366.5,194.4Z"/><path class="cls-14" d="M396.8,194.4a2.1,2.1,0,0,0,2.1-2.2,2.1,2.1,0,1,0-4.2,0A2.1,2.1,0,0,0,396.8,194.4Z"/><path class="cls-14" d="M427.1,194.4a2.1,2.1,0,0,0,2.1-2.2,2.1,2.1,0,0,0-2.1-2.1,2.1,2.1,0,0,0-2.2,2.1A2.2,2.2,0,0,0,427.1,194.4Z"/><path class="cls-14" d="M457.4,194.4a2.1,2.1,0,0,0,2.1-2.2,2.1,2.1,0,0,0-2.1-2.1,2.1,2.1,0,0,0-2.2,2.1A2.2,2.2,0,0,0,457.4,194.4Z"/><path class="cls-14" d="M487.7,194.4a2.1,2.1,0,0,0,2.1-2.2,2.1,2.1,0,0,0-2.1-2.1,2.1,2.1,0,0,0-2.2,2.1A2.2,2.2,0,0,0,487.7,194.4Z"/><path class="cls-14" d="M518,194.4a2.2,2.2,0,0,0,2.1-2.2,2.1,2.1,0,0,0-2.1-2.1,2.1,2.1,0,0,0-2.2,2.1A2.2,2.2,0,0,0,518,194.4Z"/><path class="cls-14" d="M548.3,194.4a2.2,2.2,0,0,0,2.1-2.2,2.1,2.1,0,0,0-2.1-2.1,2.1,2.1,0,0,0-2.2,2.1A2.2,2.2,0,0,0,548.3,194.4Z"/><path class="cls-14" d="M578.5,194.4a2.2,2.2,0,0,0,2.2-2.2,2.1,2.1,0,0,0-2.2-2.1,2.1,2.1,0,0,0-2.1,2.1A2.2,2.2,0,0,0,578.5,194.4Z"/><path class="cls-14" d="M608.8,194.4a2.2,2.2,0,0,0,2.2-2.2,2.1,2.1,0,0,0-2.2-2.1,2.1,2.1,0,0,0-2.1,2.1A2.2,2.2,0,0,0,608.8,194.4Z"/><path class="cls-14" d="M639.1,194.4a2.2,2.2,0,0,0,2.2-2.2,2.1,2.1,0,0,0-2.2-2.1,2.1,2.1,0,0,0-2.1,2.1A2.1,2.1,0,0,0,639.1,194.4Z"/><path class="cls-14" d="M669.4,194.4a2.2,2.2,0,0,0,2.2-2.2,2.1,2.1,0,0,0-2.2-2.1,2.1,2.1,0,0,0-2.1,2.1A2.1,2.1,0,0,0,669.4,194.4Z"/><path class="cls-14" d="M245.3,224.7a2.2,2.2,0,1,0,0-4.3,2.2,2.2,0,0,0,0,4.3Z"/><path class="cls-14" d="M275.6,224.7a2.2,2.2,0,1,0,0-4.3,2.2,2.2,0,0,0,0,4.3Z"/><path class="cls-14" d="M305.9,224.7a2.2,2.2,0,1,0,0-4.3,2.1,2.1,0,0,0-2.1,2.1A2.1,2.1,0,0,0,305.9,224.7Z"/><path class="cls-14" d="M336.2,224.7a2.2,2.2,0,1,0,0-4.3,2.1,2.1,0,0,0-2.1,2.1A2.1,2.1,0,0,0,336.2,224.7Z"/><path class="cls-14" d="M366.5,224.7a2.2,2.2,0,1,0,0-4.3,2.1,2.1,0,0,0-2.1,2.1A2.1,2.1,0,0,0,366.5,224.7Z"/><path class="cls-14" d="M396.8,224.7a2.1,2.1,0,0,0,2.1-2.2,2.1,2.1,0,1,0-4.2,0A2.1,2.1,0,0,0,396.8,224.7Z"/><path class="cls-14" d="M427.1,224.7a2.1,2.1,0,0,0,2.1-2.2,2.1,2.1,0,0,0-2.1-2.1,2.2,2.2,0,1,0,0,4.3Z"/><path class="cls-14" d="M457.4,224.7a2.1,2.1,0,0,0,2.1-2.2,2.1,2.1,0,0,0-2.1-2.1,2.2,2.2,0,1,0,0,4.3Z"/><path class="cls-14" d="M487.7,224.7a2.1,2.1,0,0,0,2.1-2.2,2.1,2.1,0,0,0-2.1-2.1,2.2,2.2,0,1,0,0,4.3Z"/><path class="cls-14" d="M518,224.7a2.2,2.2,0,1,0-2.2-2.2A2.2,2.2,0,0,0,518,224.7Z"/><path class="cls-14" d="M548.3,224.7a2.2,2.2,0,1,0-2.2-2.2A2.2,2.2,0,0,0,548.3,224.7Z"/><path class="cls-14" d="M578.5,224.7a2.2,2.2,0,1,0,0-4.3,2.2,2.2,0,0,0,0,4.3Z"/><path class="cls-14" d="M608.8,224.7a2.2,2.2,0,1,0,0-4.3,2.2,2.2,0,0,0,0,4.3Z"/><path class="cls-14" d="M639.1,224.7a2.2,2.2,0,1,0,0-4.3,2.1,2.1,0,0,0-2.1,2.1A2.1,2.1,0,0,0,639.1,224.7Z"/><path class="cls-14" d="M669.4,224.7a2.2,2.2,0,1,0,0-4.3,2.1,2.1,0,0,0-2.1,2.1A2.1,2.1,0,0,0,669.4,224.7Z"/><path class="cls-14" d="M245.3,255a2.1,2.1,0,0,0,2.2-2.1,2.2,2.2,0,1,0-4.3,0A2.1,2.1,0,0,0,245.3,255Z"/><path class="cls-14" d="M275.6,255a2.1,2.1,0,0,0,2.2-2.1,2.2,2.2,0,1,0-4.3,0A2.1,2.1,0,0,0,275.6,255Z"/><path class="cls-14" d="M305.9,255a2.1,2.1,0,0,0,2.2-2.1,2.2,2.2,0,0,0-2.2-2.2,2.1,2.1,0,0,0-2.1,2.2A2.1,2.1,0,0,0,305.9,255Z"/><path class="cls-14" d="M336.2,255a2.1,2.1,0,0,0,2.2-2.1,2.2,2.2,0,0,0-2.2-2.2,2.1,2.1,0,0,0-2.1,2.2A2.1,2.1,0,0,0,336.2,255Z"/><path class="cls-14" d="M366.5,255a2.1,2.1,0,0,0,2.2-2.1,2.2,2.2,0,0,0-2.2-2.2,2.1,2.1,0,0,0-2.1,2.2A2.1,2.1,0,0,0,366.5,255Z"/><path class="cls-14" d="M396.8,255a2.1,2.1,0,0,0,2.1-2.1,2.1,2.1,0,1,0-4.2,0A2.1,2.1,0,0,0,396.8,255Z"/><path class="cls-14" d="M427.1,255a2.1,2.1,0,0,0,2.1-2.1,2.1,2.1,0,0,0-2.1-2.2,2.2,2.2,0,0,0-2.2,2.2A2.1,2.1,0,0,0,427.1,255Z"/><path class="cls-14" d="M457.4,255a2.1,2.1,0,0,0,2.1-2.1,2.1,2.1,0,0,0-2.1-2.2,2.2,2.2,0,0,0-2.2,2.2A2.1,2.1,0,0,0,457.4,255Z"/><path class="cls-14" d="M487.7,255a2.1,2.1,0,0,0,2.1-2.1,2.1,2.1,0,0,0-2.1-2.2,2.2,2.2,0,0,0-2.2,2.2A2.1,2.1,0,0,0,487.7,255Z"/><path class="cls-14" d="M518,255a2.1,2.1,0,0,0,2.1-2.1,2.2,2.2,0,1,0-4.3,0A2.1,2.1,0,0,0,518,255Z"/><path class="cls-14" d="M548.3,255a2.1,2.1,0,0,0,2.1-2.1,2.2,2.2,0,1,0-4.3,0A2.1,2.1,0,0,0,548.3,255Z"/><path class="cls-14" d="M578.5,255a2.1,2.1,0,0,0,2.2-2.1,2.2,2.2,0,1,0-4.3,0A2.1,2.1,0,0,0,578.5,255Z"/><path class="cls-14" d="M608.8,255a2.1,2.1,0,0,0,2.2-2.1,2.2,2.2,0,1,0-4.3,0A2.1,2.1,0,0,0,608.8,255Z"/><path class="cls-14" d="M639.1,255a2.1,2.1,0,0,0,2.2-2.1,2.2,2.2,0,0,0-2.2-2.2,2.1,2.1,0,0,0-2.1,2.2A2.1,2.1,0,0,0,639.1,255Z"/><path class="cls-14" d="M669.4,255a2.1,2.1,0,0,0,2.2-2.1,2.2,2.2,0,0,0-2.2-2.2,2.1,2.1,0,0,0-2.1,2.2A2.1,2.1,0,0,0,669.4,255Z"/><path class="cls-14" d="M245.3,285.3a2.1,2.1,0,1,0,0-4.2,2.1,2.1,0,1,0,0,4.2Z"/><path class="cls-14" d="M275.6,285.3a2.1,2.1,0,1,0,0-4.2,2.1,2.1,0,0,0,0,4.2Z"/><path class="cls-14" d="M305.9,285.3a2.1,2.1,0,1,0,0-4.2,2.1,2.1,0,1,0,0,4.2Z"/><path class="cls-14" d="M336.2,285.3a2.1,2.1,0,1,0,0-4.2,2.1,2.1,0,1,0,0,4.2Z"/><path class="cls-14" d="M366.5,285.3a2.1,2.1,0,1,0,0-4.2,2.1,2.1,0,1,0,0,4.2Z"/><path class="cls-14" d="M396.8,285.3a2.1,2.1,0,1,0-2.1-2.1A2.1,2.1,0,0,0,396.8,285.3Z"/><path class="cls-14" d="M427.1,285.3a2.1,2.1,0,1,0,0-4.2,2.1,2.1,0,1,0,0,4.2Z"/><path class="cls-14" d="M457.4,285.3a2.1,2.1,0,1,0,0-4.2,2.1,2.1,0,1,0,0,4.2Z"/><path class="cls-14" d="M487.7,285.3a2.1,2.1,0,1,0,0-4.2,2.1,2.1,0,1,0,0,4.2Z"/><path class="cls-14" d="M518,285.3a2.1,2.1,0,1,0,0-4.2,2.1,2.1,0,1,0,0,4.2Z"/><path class="cls-14" d="M548.3,285.3a2.1,2.1,0,1,0,0-4.2,2.1,2.1,0,1,0,0,4.2Z"/><path class="cls-14" d="M578.5,285.3a2.1,2.1,0,1,0,0-4.2,2.1,2.1,0,0,0,0,4.2Z"/><path class="cls-14" d="M608.8,285.3a2.1,2.1,0,1,0,0-4.2,2.1,2.1,0,1,0,0,4.2Z"/><path class="cls-14" d="M639.1,285.3a2.1,2.1,0,1,0,0-4.2,2.1,2.1,0,0,0,0,4.2Z"/><path class="cls-14" d="M669.4,285.3a2.1,2.1,0,1,0,0-4.2,2.1,2.1,0,0,0,0,4.2Z"/><path class="cls-14" d="M245.3,315.7a2.2,2.2,0,0,0,2.2-2.2,2.1,2.1,0,0,0-2.2-2.1,2.1,2.1,0,0,0-2.1,2.1A2.2,2.2,0,0,0,245.3,315.7Z"/><path class="cls-14" d="M275.6,315.7a2.2,2.2,0,0,0,2.2-2.2,2.1,2.1,0,0,0-2.2-2.1,2.1,2.1,0,0,0-2.1,2.1A2.2,2.2,0,0,0,275.6,315.7Z"/><path class="cls-14" d="M305.9,315.7a2.2,2.2,0,0,0,2.2-2.2,2.1,2.1,0,0,0-2.2-2.1,2.1,2.1,0,0,0-2.1,2.1A2.1,2.1,0,0,0,305.9,315.7Z"/><path class="cls-14" d="M336.2,315.7a2.2,2.2,0,0,0,2.2-2.2,2.1,2.1,0,0,0-2.2-2.1,2.1,2.1,0,0,0-2.1,2.1A2.1,2.1,0,0,0,336.2,315.7Z"/><path class="cls-14" d="M366.5,315.7a2.2,2.2,0,0,0,2.2-2.2,2.1,2.1,0,0,0-2.2-2.1,2.1,2.1,0,0,0-2.1,2.1A2.1,2.1,0,0,0,366.5,315.7Z"/><path class="cls-14" d="M396.8,315.7a2.1,2.1,0,0,0,2.1-2.2,2.1,2.1,0,1,0-4.2,0A2.1,2.1,0,0,0,396.8,315.7Z"/><path class="cls-14" d="M427.1,315.7a2.1,2.1,0,0,0,2.1-2.2,2.1,2.1,0,0,0-2.1-2.1,2.1,2.1,0,0,0-2.2,2.1A2.2,2.2,0,0,0,427.1,315.7Z"/><path class="cls-14" d="M457.4,315.7a2.1,2.1,0,0,0,2.1-2.2,2.1,2.1,0,0,0-2.1-2.1,2.1,2.1,0,0,0-2.2,2.1A2.2,2.2,0,0,0,457.4,315.7Z"/><path class="cls-14" d="M487.7,315.7a2.1,2.1,0,0,0,2.1-2.2,2.1,2.1,0,0,0-2.1-2.1,2.1,2.1,0,0,0-2.2,2.1A2.2,2.2,0,0,0,487.7,315.7Z"/><path class="cls-14" d="M518,315.7a2.2,2.2,0,0,0,2.1-2.2,2.1,2.1,0,0,0-2.1-2.1,2.1,2.1,0,0,0-2.2,2.1A2.2,2.2,0,0,0,518,315.7Z"/><path class="cls-14" d="M548.3,315.7a2.2,2.2,0,0,0,2.1-2.2,2.1,2.1,0,0,0-2.1-2.1,2.1,2.1,0,0,0-2.2,2.1A2.2,2.2,0,0,0,548.3,315.7Z"/><path class="cls-14" d="M578.5,315.7a2.2,2.2,0,0,0,2.2-2.2,2.1,2.1,0,0,0-2.2-2.1,2.1,2.1,0,0,0-2.1,2.1A2.2,2.2,0,0,0,578.5,315.7Z"/><path class="cls-14" d="M608.8,315.7a2.2,2.2,0,0,0,2.2-2.2,2.1,2.1,0,0,0-2.2-2.1,2.1,2.1,0,0,0-2.1,2.1A2.2,2.2,0,0,0,608.8,315.7Z"/><path class="cls-14" d="M639.1,315.7a2.2,2.2,0,0,0,2.2-2.2,2.1,2.1,0,0,0-2.2-2.1,2.1,2.1,0,0,0-2.1,2.1A2.1,2.1,0,0,0,639.1,315.7Z"/><path class="cls-14" d="M669.4,315.7a2.2,2.2,0,0,0,2.2-2.2,2.1,2.1,0,0,0-2.2-2.1,2.1,2.1,0,0,0-2.1,2.1A2.1,2.1,0,0,0,669.4,315.7Z"/><path class="cls-14" d="M245.3,346a2.2,2.2,0,1,0-2.1-2.1A2.2,2.2,0,0,0,245.3,346Z"/><path class="cls-14" d="M275.6,346a2.2,2.2,0,1,0-2.1-2.1A2.2,2.2,0,0,0,275.6,346Z"/><path class="cls-14" d="M305.9,346a2.2,2.2,0,1,0,0-4.3,2.1,2.1,0,0,0-2.1,2.2A2.1,2.1,0,0,0,305.9,346Z"/><path class="cls-14" d="M336.2,346a2.2,2.2,0,1,0,0-4.3,2.1,2.1,0,0,0-2.1,2.2A2.1,2.1,0,0,0,336.2,346Z"/><path class="cls-14" d="M366.5,346a2.2,2.2,0,1,0,0-4.3,2.1,2.1,0,0,0-2.1,2.2A2.1,2.1,0,0,0,366.5,346Z"/><path class="cls-14" d="M396.8,346a2.1,2.1,0,0,0,2.1-2.1,2.1,2.1,0,1,0-4.2,0A2.1,2.1,0,0,0,396.8,346Z"/><path class="cls-14" d="M427.1,346a2.1,2.1,0,0,0,2.1-2.1,2.1,2.1,0,0,0-2.1-2.2,2.2,2.2,0,1,0,0,4.3Z"/><path class="cls-14" d="M457.4,346a2.1,2.1,0,0,0,2.1-2.1,2.1,2.1,0,0,0-2.1-2.2,2.2,2.2,0,1,0,0,4.3Z"/><path class="cls-14" d="M487.7,346a2.1,2.1,0,0,0,2.1-2.1,2.1,2.1,0,0,0-2.1-2.2,2.2,2.2,0,1,0,0,4.3Z"/><path class="cls-14" d="M518,346a2.2,2.2,0,0,0,0-4.3,2.2,2.2,0,1,0,0,4.3Z"/><path class="cls-14" d="M548.3,346a2.2,2.2,0,0,0,0-4.3,2.2,2.2,0,1,0,0,4.3Z"/><path class="cls-14" d="M578.5,346a2.2,2.2,0,1,0-2.1-2.1A2.2,2.2,0,0,0,578.5,346Z"/><path class="cls-14" d="M608.8,346a2.2,2.2,0,1,0-2.1-2.1A2.2,2.2,0,0,0,608.8,346Z"/><path class="cls-14" d="M639.1,346a2.2,2.2,0,1,0,0-4.3,2.1,2.1,0,0,0-2.1,2.2A2.1,2.1,0,0,0,639.1,346Z"/><path class="cls-14" d="M669.4,346a2.2,2.2,0,1,0,0-4.3,2.1,2.1,0,0,0-2.1,2.2A2.1,2.1,0,0,0,669.4,346Z"/><path class="cls-14" d="M245.3,376.3a2.1,2.1,0,0,0,2.2-2.1,2.2,2.2,0,1,0-4.3,0A2.1,2.1,0,0,0,245.3,376.3Z"/><path class="cls-14" d="M275.6,376.3a2.1,2.1,0,0,0,2.2-2.1,2.2,2.2,0,1,0-4.3,0A2.1,2.1,0,0,0,275.6,376.3Z"/><path class="cls-14" d="M305.9,376.3a2.1,2.1,0,0,0,2.2-2.1,2.2,2.2,0,0,0-2.2-2.2,2.1,2.1,0,0,0-2.1,2.2A2.1,2.1,0,0,0,305.9,376.3Z"/><path class="cls-14" d="M336.2,376.3a2.1,2.1,0,0,0,2.2-2.1,2.2,2.2,0,0,0-2.2-2.2,2.1,2.1,0,0,0-2.1,2.2A2.1,2.1,0,0,0,336.2,376.3Z"/><path class="cls-14" d="M366.5,376.3a2.1,2.1,0,0,0,2.2-2.1,2.2,2.2,0,0,0-2.2-2.2,2.1,2.1,0,0,0-2.1,2.2A2.1,2.1,0,0,0,366.5,376.3Z"/><path class="cls-14" d="M396.8,376.3a2.1,2.1,0,0,0,2.1-2.1,2.1,2.1,0,1,0-4.2,0A2.1,2.1,0,0,0,396.8,376.3Z"/><path class="cls-14" d="M427.1,376.3a2.1,2.1,0,0,0,2.1-2.1,2.1,2.1,0,0,0-2.1-2.2,2.2,2.2,0,0,0-2.2,2.2A2.1,2.1,0,0,0,427.1,376.3Z"/><path class="cls-14" d="M457.4,376.3a2.1,2.1,0,0,0,2.1-2.1,2.1,2.1,0,0,0-2.1-2.2,2.2,2.2,0,0,0-2.2,2.2A2.1,2.1,0,0,0,457.4,376.3Z"/><path class="cls-14" d="M487.7,376.3a2.1,2.1,0,0,0,2.1-2.1,2.1,2.1,0,0,0-2.1-2.2,2.2,2.2,0,0,0-2.2,2.2A2.1,2.1,0,0,0,487.7,376.3Z"/><path class="cls-14" d="M518,376.3a2.1,2.1,0,0,0,2.1-2.1,2.2,2.2,0,1,0-4.3,0A2.1,2.1,0,0,0,518,376.3Z"/><path class="cls-14" d="M548.3,376.3a2.1,2.1,0,0,0,2.1-2.1,2.2,2.2,0,1,0-4.3,0A2.1,2.1,0,0,0,548.3,376.3Z"/><path class="cls-14" d="M578.5,376.3a2.1,2.1,0,0,0,2.2-2.1,2.2,2.2,0,1,0-4.3,0A2.1,2.1,0,0,0,578.5,376.3Z"/><path class="cls-14" d="M608.8,376.3a2.1,2.1,0,0,0,2.2-2.1,2.2,2.2,0,1,0-4.3,0A2.1,2.1,0,0,0,608.8,376.3Z"/><path class="cls-14" d="M639.1,376.3a2.1,2.1,0,0,0,2.2-2.1,2.2,2.2,0,0,0-2.2-2.2,2.1,2.1,0,0,0-2.1,2.2A2.1,2.1,0,0,0,639.1,376.3Z"/><path class="cls-14" d="M669.4,376.3a2.1,2.1,0,0,0,2.2-2.1,2.2,2.2,0,0,0-2.2-2.2,2.1,2.1,0,0,0-2.1,2.2A2.1,2.1,0,0,0,669.4,376.3Z"/><path class="cls-14" d="M245.3,406.7a2.2,2.2,0,0,0,2.2-2.2,2.1,2.1,0,0,0-2.2-2.1,2.1,2.1,0,0,0-2.1,2.1A2.2,2.2,0,0,0,245.3,406.7Z"/><path class="cls-14" d="M275.6,406.7a2.2,2.2,0,0,0,2.2-2.2,2.1,2.1,0,0,0-2.2-2.1,2.1,2.1,0,0,0-2.1,2.1A2.2,2.2,0,0,0,275.6,406.7Z"/><path class="cls-14" d="M305.9,406.7a2.2,2.2,0,0,0,2.2-2.2,2.1,2.1,0,0,0-2.2-2.1,2.1,2.1,0,0,0-2.1,2.1A2.1,2.1,0,0,0,305.9,406.7Z"/><path class="cls-14" d="M336.2,406.7a2.2,2.2,0,0,0,2.2-2.2,2.1,2.1,0,0,0-2.2-2.1,2.1,2.1,0,0,0-2.1,2.1A2.1,2.1,0,0,0,336.2,406.7Z"/><path class="cls-14" d="M366.5,406.7a2.2,2.2,0,0,0,2.2-2.2,2.1,2.1,0,0,0-2.2-2.1,2.1,2.1,0,0,0-2.1,2.1A2.1,2.1,0,0,0,366.5,406.7Z"/><path class="cls-14" d="M396.8,406.7a2.1,2.1,0,0,0,2.1-2.2,2.1,2.1,0,1,0-4.2,0A2.1,2.1,0,0,0,396.8,406.7Z"/><path class="cls-14" d="M427.1,406.7a2.1,2.1,0,0,0,2.1-2.2,2.1,2.1,0,0,0-2.1-2.1,2.1,2.1,0,0,0-2.2,2.1A2.2,2.2,0,0,0,427.1,406.7Z"/><path class="cls-14" d="M457.4,406.7a2.1,2.1,0,0,0,2.1-2.2,2.1,2.1,0,0,0-2.1-2.1,2.1,2.1,0,0,0-2.2,2.1A2.2,2.2,0,0,0,457.4,406.7Z"/><path class="cls-14" d="M487.7,406.7a2.1,2.1,0,0,0,2.1-2.2,2.1,2.1,0,0,0-2.1-2.1,2.1,2.1,0,0,0-2.2,2.1A2.2,2.2,0,0,0,487.7,406.7Z"/><path class="cls-14" d="M518,406.7a2.2,2.2,0,0,0,2.1-2.2,2.1,2.1,0,0,0-2.1-2.1,2.1,2.1,0,0,0-2.2,2.1A2.2,2.2,0,0,0,518,406.7Z"/><path class="cls-14" d="M548.3,406.7a2.2,2.2,0,0,0,2.1-2.2,2.1,2.1,0,0,0-2.1-2.1,2.1,2.1,0,0,0-2.2,2.1A2.2,2.2,0,0,0,548.3,406.7Z"/><path class="cls-14" d="M578.5,406.7a2.2,2.2,0,0,0,2.2-2.2,2.1,2.1,0,0,0-2.2-2.1,2.1,2.1,0,0,0-2.1,2.1A2.2,2.2,0,0,0,578.5,406.7Z"/><path class="cls-14" d="M608.8,406.7a2.2,2.2,0,0,0,2.2-2.2,2.1,2.1,0,0,0-2.2-2.1,2.1,2.1,0,0,0-2.1,2.1A2.2,2.2,0,0,0,608.8,406.7Z"/><path class="cls-14" d="M639.1,406.7a2.2,2.2,0,0,0,2.2-2.2,2.1,2.1,0,0,0-2.2-2.1,2.1,2.1,0,0,0-2.1,2.1A2.1,2.1,0,0,0,639.1,406.7Z"/><path class="cls-14" d="M669.4,406.7a2.2,2.2,0,0,0,2.2-2.2,2.1,2.1,0,0,0-2.2-2.1,2.1,2.1,0,0,0-2.1,2.1A2.1,2.1,0,0,0,669.4,406.7Z"/></g><path class="cls-22" d="M707.3,242.8a72.6,72.6,0,1,1,72.4-72.6A72.6,72.6,0,0,1,707.3,242.8Zm0-142.4A69.8,69.8,0,1,0,777,170.2,69.9,69.9,0,0,0,707.3,100.4Z"/><path class="cls-22" d="M707.3,213.4a43.2,43.2,0,1,1,0-86.4,1.3,1.3,0,0,1,1.3,1.4,1.4,1.4,0,0,1-1.3,1.4,40.5,40.5,0,1,0,40.4,40.4,1.3,1.3,0,0,1,1.3-1.3,1.3,1.3,0,0,1,1.4,1.3A43.3,43.3,0,0,1,707.3,213.4Z"/><path class="cls-22" d="M707.3,179.6a9.4,9.4,0,1,1,9.3-9.4A9.4,9.4,0,0,1,707.3,179.6Zm0-16a6.7,6.7,0,1,0,6.6,6.6A6.7,6.7,0,0,0,707.3,163.6Z"/><path class="cls-22" d="M526.1,158.6a41.8,41.8,0,1,1,41.7-41.7A41.7,41.7,0,0,1,526.1,158.6Zm0-80.8a39.1,39.1,0,1,0,39,39.1A39.1,39.1,0,0,0,526.1,77.8Z"/><path class="cls-22" d="M516.9,116.9a9.2,9.2,0,1,1,9.2,9.2A9.2,9.2,0,0,1,516.9,116.9Z"/><path class="cls-22" d="M526.1,142.4a25.6,25.6,0,0,1,0-51.1,1.4,1.4,0,0,1,1.4,1.4,1.4,1.4,0,0,1-1.4,1.4,22.8,22.8,0,1,0,22.8,22.8,1.4,1.4,0,0,1,1.4-1.4,1.3,1.3,0,0,1,1.3,1.4A25.5,25.5,0,0,1,526.1,142.4Z"/><path class="cls-22" d="M571.9,293.9a29.3,29.3,0,1,1,29.3-29.3A29.3,29.3,0,0,1,571.9,293.9Zm0-55.8a26.6,26.6,0,1,0,26.6,26.5A26.5,26.5,0,0,0,571.9,238.1Z"/><path class="cls-22" d="M571.9,281.8a1.3,1.3,0,0,1-1.3-1.4,1.3,1.3,0,0,1,1.3-1.3,14.5,14.5,0,1,0-14.4-14.5,1.4,1.4,0,0,1-1.4,1.4,1.3,1.3,0,0,1-1.3-1.4,17.2,17.2,0,1,1,17.1,17.2Z"/><path class="cls-22" d="M564.7,264.6a7.2,7.2,0,0,1,7.2-7.2,7.3,7.3,0,0,1,7.3,7.2,7.3,7.3,0,0,1-7.3,7.3A7.3,7.3,0,0,1,564.7,264.6Z"/><path class="cls-22" d="M711.1,294.2a13.1,13.1,0,1,1,13.1-13.1A13.1,13.1,0,0,1,711.1,294.2Zm0-23.5a10.4,10.4,0,1,0,10.4,10.4A10.5,10.5,0,0,0,711.1,270.7Z"/><path class="cls-22" d="M706.8,281.1a4.3,4.3,0,1,1,4.3,4.3A4.2,4.2,0,0,1,706.8,281.1Z"/><path class="cls-22" d="M571.9,266a1.4,1.4,0,0,1-1.1-.6,1.3,1.3,0,0,1,.4-1.9l133-92.8L525.7,118.2a1.4,1.4,0,0,1-.9-1.7,1.3,1.3,0,0,1,1.7-.9l181.1,53.3a1.6,1.6,0,0,1,1,1.1,1.2,1.2,0,0,1-.6,1.3L572.7,265.7A1.1,1.1,0,0,1,571.9,266Z"/><path class="cls-22" d="M711.1,282.5a1.5,1.5,0,0,1-1.4-1.3l-3.8-110.9a1.2,1.2,0,0,1,.4-1L779,96.5a1.3,1.3,0,0,1,1-.4h29.3a1.3,1.3,0,0,1,1.3,1.3,1.3,1.3,0,0,1-1.3,1.4H780.5l-71.9,72,3.8,110.3a1.3,1.3,0,0,1-1.3,1.4Z"/><path class="cls-22" d="M783.4,220.4H744.1a1.4,1.4,0,0,1-1.4-1.4,1.4,1.4,0,0,1,1.4-1.4h38.7l20.9-20.8a1.1,1.1,0,0,1,.9-.4h11.3a1.4,1.4,0,0,1,1.4,1.3,1.4,1.4,0,0,1-1.4,1.4H805.2L784.3,220A1.5,1.5,0,0,1,783.4,220.4Z"/><path class="cls-22" d="M621.6,120a1.1,1.1,0,0,1-.9-.4L585.8,84.7a1.5,1.5,0,0,1-.4-.9v-20a1.4,1.4,0,0,1,1.4-1.4,1.3,1.3,0,0,1,1.3,1.4V83.2l34.5,34.5a1.4,1.4,0,0,1,0,1.9A1.3,1.3,0,0,1,621.6,120Z"/><path class="cls-22" d="M497.8,100.4a1.2,1.2,0,0,1-.9-.4L475.8,78.9h-22a1.3,1.3,0,0,1-1.4-1.3,1.4,1.4,0,0,1,1.4-1.4h22.6a1.5,1.5,0,0,1,.9.4l21.5,21.5a1.4,1.4,0,0,1,0,1.9A1.3,1.3,0,0,1,497.8,100.4Z"/><path class="cls-22" d="M538.5,295.8H516.9a1.3,1.3,0,0,1-1.3-1.3,1.3,1.3,0,0,1,1.3-1.4H538l17.2-17.2a1.3,1.3,0,1,1,1.9,1.9l-17.6,17.6A1.3,1.3,0,0,1,538.5,295.8Z"/><rect class="cls-23" x="295.5" y="217" width="93.6" height="60.15" rx="5.5"/><path class="cls-24" d="M374.4,238.9a20.2,20.2,0,0,0-4.6-7.1,19.9,19.9,0,0,0-8.7-5.1l-5.2,19Z"/><path class="cls-25" d="M375.4,248a20,20,0,0,0-1-9.1l-18.5,6.8Z"/><path class="cls-26" d="M375.4,248l-19.5-2.3L342,259.6a19.6,19.6,0,0,0,27.8,0A19.3,19.3,0,0,0,375.4,248Z"/><path class="cls-27" d="M361.1,226.7A19.7,19.7,0,0,0,342,259.6l13.9-13.9Z"/><path class="cls-27" d="M307.7,262.4a2.3,2.3,0,0,1,4.6,0,2.3,2.3,0,0,1-4.6,0Z"/><path class="cls-14" d="M324.5,263.5H316a.9.9,0,0,1-.9-.9h0a.9.9,0,0,1,.9-.9h8.5a.9.9,0,0,1,.9.9h0A.9.9,0,0,1,324.5,263.5Z"/><path class="cls-14" d="M327.5,263.5h0a.9.9,0,0,1-.9-.9h0a.9.9,0,0,1,.9-.9h0a.9.9,0,0,1,.9.9h0A.9.9,0,0,1,327.5,263.5Z"/><path class="cls-24" d="M307.7,242a2.3,2.3,0,0,1,4.6,0,2.3,2.3,0,0,1-4.6,0Z"/><path class="cls-14" d="M324.5,243H316a.9.9,0,0,1-.9-.8h0a.9.9,0,0,1,.9-.9h8.5a.9.9,0,0,1,.9.9h0A.9.9,0,0,1,324.5,243Z"/><path class="cls-14" d="M327.5,243h0a.9.9,0,0,1-.9-.8h0a.9.9,0,0,1,.9-.9h0a.9.9,0,0,1,.9.9h0A.9.9,0,0,1,327.5,243Z"/><path class="cls-25" d="M307.7,231.8a2.3,2.3,0,1,1,4.6,0,2.3,2.3,0,1,1-4.6,0Z"/><path class="cls-14" d="M324.5,232.8H316a.9.9,0,0,1-.9-.9h0a1,1,0,0,1,.9-.9h8.5a1,1,0,0,1,.9.9h0A.9.9,0,0,1,324.5,232.8Z"/><path class="cls-14" d="M327.5,232.8h0a.9.9,0,0,1-.9-.9h0a1,1,0,0,1,.9-.9h0a1,1,0,0,1,.9.9h0A.9.9,0,0,1,327.5,232.8Z"/><path class="cls-26" d="M307.7,252.2a2.3,2.3,0,0,1,4.6,0,2.3,2.3,0,1,1-4.6,0Z"/><path class="cls-14" d="M324.5,253.3H316a1,1,0,0,1-.9-.9h0a.9.9,0,0,1,.9-.9h8.5a.9.9,0,0,1,.9.9h0A1,1,0,0,1,324.5,253.3Z"/><path class="cls-14" d="M327.5,253.3h0a1,1,0,0,1-.9-.9h0a.9.9,0,0,1,.9-.9h0a.9.9,0,0,1,.9.9h0A1,1,0,0,1,327.5,253.3Z"/><rect class="cls-23" x="677.4" y="270.9" width="83.4" height="53.61" rx="4.9"/><path class="cls-27" d="M738.5,316.9a1.7,1.7,0,1,1,3.4,0,1.7,1.7,0,1,1-3.4,0Z"/><path class="cls-14" d="M751.2,317.6h-6.4a.7.7,0,0,1-.7-.6h0a.7.7,0,0,1,.7-.7h6.4a.7.7,0,0,1,.7.7h0A.7.7,0,0,1,751.2,317.6Z"/><path class="cls-14" d="M753.5,317.6h0a.7.7,0,0,1-.7-.6h0a.7.7,0,0,1,.7-.7h0a.7.7,0,0,1,.7.7h0A.7.7,0,0,1,753.5,317.6Z"/><circle class="cls-24" cx="686.3" cy="316.8" r="1.7"/><path class="cls-14" d="M697.3,317.6h-6.5a.7.7,0,0,1-.7-.7h0a.7.7,0,0,1,.7-.7h6.5a.7.7,0,0,1,.6.7h0A.7.7,0,0,1,697.3,317.6Z"/><path class="cls-14" d="M699.6,317.6h0a.7.7,0,0,1-.7-.7h0a.7.7,0,0,1,.7-.7h0a.7.7,0,0,1,.7.7h0A.7.7,0,0,1,699.6,317.6Z"/><circle class="cls-25" cx="686.3" cy="277.2" r="1.7"/><path class="cls-14" d="M697.3,278h-6.5a.7.7,0,0,1-.7-.7h0a.7.7,0,0,1,.7-.7h6.5a.7.7,0,0,1,.6.7h0A.7.7,0,0,1,697.3,278Z"/><path class="cls-14" d="M699.6,278h0a.7.7,0,0,1-.7-.7h0a.7.7,0,0,1,.7-.7h0a.7.7,0,0,1,.7.7h0A.7.7,0,0,1,699.6,278Z"/><path class="cls-26" d="M738.5,277.2a1.7,1.7,0,1,1,3.4,0,1.7,1.7,0,1,1-3.4,0Z"/><path class="cls-14" d="M751.2,278h-6.4a.7.7,0,0,1-.7-.7h0a.7.7,0,0,1,.7-.7h6.4a.7.7,0,0,1,.7.7h0A.7.7,0,0,1,751.2,278Z"/><path class="cls-14" d="M753.5,278h0a.7.7,0,0,1-.7-.7h0a.7.7,0,0,1,.7-.7h0a.7.7,0,0,1,.7.7h0A.7.7,0,0,1,753.5,278Z"/><path class="cls-27" d="M718.4,278v-2.6a22.8,22.8,0,0,0-14.4,5.4l1.5,2.1A19.8,19.8,0,0,1,718.4,278Z"/><path class="cls-14" d="M718.5,275.4h-.1V278h.1a19.7,19.7,0,1,1-13,4.9l-1.5-2.1a22.2,22.2,0,1,0,14.5-5.4Z"/><path class="cls-26" d="M718.5,279.9h-.1v2.6h.1a15.3,15.3,0,0,1,0,30.5,15.4,15.4,0,0,1-15.3-15.3,14.4,14.4,0,0,1,1.4-6.2l-2.2-1.3a17.2,17.2,0,0,0-1.7,7.5,17.8,17.8,0,1,0,17.8-17.8Z"/><path class="cls-27" d="M702.4,290.2l2.2,1.3a15.2,15.2,0,0,1,13.8-9v-2.6A17.6,17.6,0,0,0,702.4,290.2Z"/><path class="cls-25" d="M718.5,284.4h-.1v2.5h.1A10.8,10.8,0,1,1,708,300.2l-2.5.6a13.3,13.3,0,1,0,13-16.4Z"/><path class="cls-27" d="M705.2,297.7a15.5,15.5,0,0,0,.3,3.1l2.5-.6a10.1,10.1,0,0,1-.3-2.5,10.8,10.8,0,0,1,10.7-10.8v-2.5A13.3,13.3,0,0,0,705.2,297.7Z"/><path class="cls-24" d="M718.5,288.8h-.1v2.6h.1a6.3,6.3,0,0,1,0,12.6,6.7,6.7,0,0,1-3.7-1.1l-1.7,1.8a8.5,8.5,0,0,0,5.4,1.9,8.9,8.9,0,0,0,0-17.8Z"/><path class="cls-27" d="M712.2,297.7a6.3,6.3,0,0,1,6.2-6.3v-2.6a9,9,0,0,0-8.8,8.9,8.8,8.8,0,0,0,3.5,7l1.7-1.8A6.5,6.5,0,0,1,712.2,297.7Z"/><rect class="cls-23" x="566.3" y="177" width="104.6" height="67.25" rx="6.1"/><path class="cls-27" d="M642.2,184.9a2,2,0,1,1,2,2A2,2,0,0,1,642.2,184.9Z"/><path class="cls-14" d="M656.7,185.8h-7.3a.8.8,0,0,1-.8-.8h0a.9.9,0,0,1,.8-.8h7.3a.8.8,0,0,1,.8.8h0A.7.7,0,0,1,656.7,185.8Z"/><path class="cls-14" d="M659.4,185.8h0a.8.8,0,0,1-.8-.8h0a.9.9,0,0,1,.8-.8h0a.9.9,0,0,1,.8.8h0A.8.8,0,0,1,659.4,185.8Z"/><path class="cls-24" d="M620.5,184.9a2,2,0,1,1,2,2A2,2,0,0,1,620.5,184.9Z"/><path class="cls-14" d="M635,185.8h-7.3a.7.7,0,0,1-.8-.8h0a.8.8,0,0,1,.8-.8H635a.8.8,0,0,1,.8.8h0A.7.7,0,0,1,635,185.8Z"/><path class="cls-14" d="M637.7,185.8h0a.7.7,0,0,1-.8-.8h0a.8.8,0,0,1,.8-.8h0a.9.9,0,0,1,.8.8h0A.8.8,0,0,1,637.7,185.8Z"/><path class="cls-25" d="M577,184.9a2,2,0,1,1,2,2A2,2,0,0,1,577,184.9Z"/><path class="cls-14" d="M591.6,185.8h-7.4a.7.7,0,0,1-.7-.8h0a.8.8,0,0,1,.7-.8h7.4a.9.9,0,0,1,.8.8h0A.8.8,0,0,1,591.6,185.8Z"/><path class="cls-14" d="M594.2,185.8h0a.7.7,0,0,1-.7-.8h0a.8.8,0,0,1,.7-.8h0a.8.8,0,0,1,.8.8h0A.7.7,0,0,1,594.2,185.8Z"/><path class="cls-26" d="M598.8,184.9a2,2,0,0,1,2-2,2,2,0,0,1,0,4A2,2,0,0,1,598.8,184.9Z"/><path class="cls-14" d="M613.3,185.8H606a.7.7,0,0,1-.8-.8h0a.8.8,0,0,1,.8-.8h7.3a.9.9,0,0,1,.8.8h0A.8.8,0,0,1,613.3,185.8Z"/><path class="cls-14" d="M616,185.8h0a.7.7,0,0,1-.8-.8h0a.8.8,0,0,1,.8-.8h0a.8.8,0,0,1,.7.8h0A.7.7,0,0,1,616,185.8Z"/><rect class="cls-25" x="576.1" y="214.6" width="6.3" height="15.85"/><rect class="cls-26" x="576.1" y="207.7" width="6.3" height="6.91"/><rect class="cls-27" x="576.1" y="193" width="6.3" height="14.72"/><rect class="cls-24" x="576.1" y="230.5" width="6.3" height="7.39"/><rect class="cls-25" x="587.4" y="207.7" width="6.3" height="16.65"/><rect class="cls-26" x="587.4" y="197.3" width="6.3" height="10.39"/><rect class="cls-27" x="587.4" y="193" width="6.3" height="4.34"/><rect class="cls-24" x="587.4" y="224.4" width="6.3" height="13.49"/><rect class="cls-25" x="598.8" y="223.8" width="6.3" height="7.82"/><rect class="cls-26" x="598.8" y="207.2" width="6.3" height="16.6"/><rect class="cls-27" x="598.8" y="193" width="6.3" height="14.24"/><rect class="cls-24" x="598.8" y="231.6" width="6.3" height="6.21"/><rect class="cls-25" x="610.1" y="212.9" width="6.3" height="14.83"/><rect class="cls-26" x="610.1" y="209.3" width="6.3" height="3.64"/><rect class="cls-27" x="610.1" y="193" width="6.3" height="16.28"/><rect class="cls-24" x="610.1" y="227.7" width="6.3" height="10.12"/><rect class="cls-25" x="621.4" y="220.4" width="6.3" height="7.82"/><rect class="cls-26" x="621.4" y="202.5" width="6.3" height="17.94"/><rect class="cls-27" x="621.4" y="193" width="6.3" height="9.53"/><rect class="cls-24" x="621.4" y="228.3" width="6.3" height="9.58"/><rect class="cls-25" x="632.7" y="207.7" width="6.3" height="21.04"/><rect class="cls-26" x="632.7" y="197.3" width="6.3" height="10.39"/><rect class="cls-27" x="632.7" y="193" width="6.3" height="4.34"/><rect class="cls-24" x="632.7" y="228.7" width="6.3" height="9.1"/><rect class="cls-25" x="644.1" y="220.7" width="6.3" height="7.82"/><rect class="cls-26" x="644.1" y="218.2" width="6.3" height="2.49"/><rect class="cls-27" x="644.1" y="193" width="6.3" height="25.24"/><rect class="cls-24" x="644.1" y="228.5" width="6.3" height="9.32"/><rect class="cls-25" x="655.4" y="212.9" width="6.3" height="7.82"/><rect class="cls-26" x="655.4" y="202.5" width="6.3" height="10.39"/><rect class="cls-27" x="655.4" y="193" width="6.3" height="9.53"/><rect class="cls-24" x="655.4" y="220.7" width="6.3" height="17.13"/><rect class="cls-23" x="236.4" y="288.8" width="63.6" height="40.87" rx="3.7"/><circle class="cls-24" cx="241.5" cy="312.7" r="1.2"/><path class="cls-14" d="M249.1,313.2h-4.4a.5.5,0,0,1-.5-.5h0a.5.5,0,0,1,.5-.5h4.4a.5.5,0,0,1,.5.5h0A.5.5,0,0,1,249.1,313.2Z"/><path class="cls-14" d="M250.7,313.2h0a.5.5,0,0,1-.4-.5h0c0-.2.2-.5.4-.5h0a.5.5,0,0,1,.5.5h0A.5.5,0,0,1,250.7,313.2Z"/><circle class="cls-25" cx="241.5" cy="304.7" r="1.2"/><path class="cls-14" d="M249.1,305.2h-4.4a.5.5,0,0,1-.5-.5h0a.5.5,0,0,1,.5-.4h4.4a.5.5,0,0,1,.5.4h0A.5.5,0,0,1,249.1,305.2Z"/><path class="cls-14" d="M250.7,305.2h0a.5.5,0,0,1-.4-.5h0a.4.4,0,0,1,.4-.4h0a.5.5,0,0,1,.5.4h0A.5.5,0,0,1,250.7,305.2Z"/><path class="cls-26" d="M240.3,308.7a1.2,1.2,0,0,1,2.4,0,1.2,1.2,0,0,1-2.4,0Z"/><path class="cls-14" d="M249.1,309.2h-4.4a.5.5,0,0,1-.5-.5h0a.5.5,0,0,1,.5-.4h4.4a.5.5,0,0,1,.5.4h0A.5.5,0,0,1,249.1,309.2Z"/><path class="cls-14" d="M250.7,309.2h0a.5.5,0,0,1-.4-.5h0a.4.4,0,0,1,.4-.4h0a.5.5,0,0,1,.5.4h0A.5.5,0,0,1,250.7,309.2Z"/><path class="cls-14" d="M295.1,321.1h-3a.5.5,0,0,1-.5-.5h0a.5.5,0,0,1,.5-.4h3a.5.5,0,0,1,.5.4h0A.5.5,0,0,1,295.1,321.1Z"/><path class="cls-14" d="M295.1,315.4h-3a.5.5,0,0,1-.5-.5h0a.5.5,0,0,1,.5-.4h3a.5.5,0,0,1,.5.4h0A.5.5,0,0,1,295.1,315.4Z"/><path class="cls-14" d="M295.1,309.6h-3a.5.5,0,0,1-.5-.4h0a.5.5,0,0,1,.5-.4h3a.5.5,0,0,1,.5.4h0A.5.5,0,0,1,295.1,309.6Z"/><path class="cls-14" d="M295.1,303.9h-3a.5.5,0,0,1-.5-.4h0a.5.5,0,0,1,.5-.5h3a.5.5,0,0,1,.5.5h0A.5.5,0,0,1,295.1,303.9Z"/><path class="cls-14" d="M295.1,298.2h-3a.5.5,0,0,1-.5-.5h0a.5.5,0,0,1,.5-.4h3a.5.5,0,0,1,.5.4h0A.5.5,0,0,1,295.1,298.2Z"/><rect class="cls-25" x="276.1" y="309.7" width="1.3" height="25.93" transform="translate(-45.9 599.4) rotate(-90)"/><rect class="cls-26" x="278.7" y="310.4" width="1.3" height="20.66" transform="translate(-41.4 600.1) rotate(-90)"/><rect class="cls-24" x="271.7" y="301.5" width="1.3" height="34.69" transform="translate(-46.5 591.2) rotate(-90)"/><rect class="cls-25" x="282.3" y="308.1" width="1.3" height="13.6" transform="translate(-32 597.8) rotate(-90)"/><rect class="cls-26" x="275.7" y="299.7" width="1.3" height="26.7" transform="translate(-36.7 589.4) rotate(-90)"/><rect class="cls-24" x="284.5" y="306.5" width="1.3" height="9.18" transform="translate(-26 596.2) rotate(-90)"/><rect class="cls-25" x="273.1" y="291.2" width="1.3" height="31.89" transform="translate(-33.4 580.9) rotate(-90)"/><rect class="cls-26" x="277.4" y="293.7" width="1.3" height="23.21" transform="translate(-27.2 583.4) rotate(-90)"/><rect class="cls-24" x="273.9" y="288.3" width="1.3" height="30.27" transform="translate(-28.8 578) rotate(-90)"/><rect class="cls-25" x="276.5" y="286.9" width="1.3" height="25.08" transform="translate(-22.3 576.6) rotate(-90)"/><rect class="cls-26" x="272.7" y="281.2" width="1.3" height="32.65" transform="translate(-24.2 570.9) rotate(-90)"/><rect class="cls-24" x="283.9" y="290.5" width="1.3" height="10.33" transform="translate(-11.1 580.2) rotate(-90)"/><g class="cls-1"><polygon class="cls-28" points="636.9 127.2 645.9 115.9 660.2 118 651.2 129.3 636.9 127.2"/><polygon class="cls-29" points="651.2 129.3 660.2 118 665.5 131.5 656.5 142.8 651.2 129.3"/><polygon class="cls-14" points="636.9 127.2 651.2 129.3 656.5 142.8 642.3 140.7 636.9 127.2"/></g><g class="cls-30"><g class="cls-1"><polygon class="cls-31" points="628.5 125.9 642.8 108 665.5 111.3 651.2 129.3 628.5 125.9"/><polygon class="cls-32" points="651.2 129.3 665.5 111.3 673.9 132.8 659.6 150.7 651.2 129.3"/><polygon class="cls-33" points="628.5 125.9 651.2 129.3 659.6 150.7 637 147.4 628.5 125.9"/></g></g><g class="cls-1"><polygon class="cls-34" points="712.8 371.2 720.9 377.7 719.4 388.1 711.3 381.5 712.8 371.2"/><polygon class="cls-35" points="711.3 381.5 719.4 388.1 709.6 391.9 701.5 385.3 711.3 381.5"/><polygon class="cls-14" points="712.8 371.2 711.3 381.5 701.5 385.3 703 375 712.8 371.2"/></g><g class="cls-30"><g class="cls-1"><polygon class="cls-31" points="713.8 365.1 726.7 375.5 724.2 391.9 711.3 381.5 713.8 365.1"/><polygon class="cls-32" points="711.3 381.5 724.2 391.9 708.7 397.9 695.8 387.5 711.3 381.5"/><polygon class="cls-33" points="713.8 365.1 711.3 381.5 695.8 387.5 698.2 371.1 713.8 365.1"/></g></g><g class="cls-1"><polygon class="cls-36" points="383.1 35.8 391.3 42.4 389.7 52.7 381.6 46.1 383.1 35.8"/><polygon class="cls-37" points="381.6 46.1 389.7 52.7 379.9 56.5 371.8 49.9 381.6 46.1"/><polygon class="cls-14" points="383.1 35.8 381.6 46.1 371.8 49.9 373.4 39.6 383.1 35.8"/></g><g class="cls-30"><g class="cls-1"><polygon class="cls-31" points="384.1 29.7 397 40.2 394.5 56.6 381.6 46.1 384.1 29.7"/><polygon class="cls-32" points="381.6 46.1 394.5 56.6 379 62.6 366.1 52.2 381.6 46.1"/><polygon class="cls-33" points="384.1 29.7 381.6 46.1 366.1 52.2 368.6 35.8 384.1 29.7"/></g></g><g class="cls-1"><polygon class="cls-38" points="324.1 77.7 329.3 81.9 328.3 88.5 323.1 84.3 324.1 77.7"/><polygon class="cls-39" points="323.1 84.3 328.3 88.5 322 90.9 316.9 86.7 323.1 84.3"/><polygon class="cls-14" points="324.1 77.7 323.1 84.3 316.9 86.7 317.9 80.1 324.1 77.7"/></g><g class="cls-30"><g class="cls-1"><polygon class="cls-31" points="324.7 73.8 332.9 80.5 331.3 91 323.1 84.3 324.7 73.8"/><polygon class="cls-32" points="323.1 84.3 331.3 91 321.4 94.8 313.2 88.1 323.1 84.3"/><polygon class="cls-33" points="324.7 73.8 323.1 84.3 313.2 88.1 314.8 77.7 324.7 73.8"/></g></g><g class="cls-1"><polygon class="cls-40" points="245.3 349.8 251.1 354.4 250 361.8 244.2 357.1 245.3 349.8"/><polygon class="cls-41" points="244.2 357.1 250 361.8 243 364.5 237.3 359.8 244.2 357.1"/><polygon class="cls-14" points="245.3 349.8 244.2 357.1 237.3 359.8 238.4 352.5 245.3 349.8"/></g><g class="cls-30"><g class="cls-1"><polygon class="cls-31" points="246 345.4 255.2 352.8 253.4 364.5 244.2 357.1 246 345.4"/><polygon class="cls-32" points="244.2 357.1 253.4 364.5 242.4 368.8 233.2 361.4 244.2 357.1"/><polygon class="cls-33" points="246 345.4 244.2 357.1 233.2 361.4 235 349.7 246 345.4"/></g></g><g class="cls-1"><polygon class="cls-42" points="292.5 368 306.6 379.4 303.9 397.3 289.8 385.9 292.5 368"/><polygon class="cls-43" points="289.8 385.9 303.9 397.3 286.9 403.9 272.8 392.5 289.8 385.9"/><polygon class="cls-14" points="292.5 368 289.8 385.9 272.8 392.5 275.5 374.6 292.5 368"/></g><g class="cls-30"><g class="cls-1"><polygon class="cls-31" points="294.1 357.4 316.5 375.5 312.2 404 289.8 385.9 294.1 357.4"/><polygon class="cls-32" points="289.8 385.9 312.2 404 285.2 414.5 262.9 396.4 289.8 385.9"/><polygon class="cls-33" points="294.1 357.4 289.8 385.9 262.9 396.4 267.2 367.9 294.1 357.4"/></g></g><g class="cls-1"><polygon class="cls-44" points="317.7 160.5 308.3 172.1 293.6 169.8 302.9 158.2 317.7 160.5"/><polygon class="cls-45" points="302.9 158.2 293.6 169.8 288.1 155.9 297.5 144.3 302.9 158.2"/><polygon class="cls-14" points="317.7 160.5 302.9 158.2 297.5 144.3 312.2 146.5 317.7 160.5"/></g><g class="cls-30"><g class="cls-1"><polygon class="cls-31" points="326.3 161.8 311.5 180.3 288.1 176.7 302.9 158.3 326.3 161.8"/><polygon class="cls-32" points="302.9 158.3 288.1 176.7 279.5 154.5 294.3 136.1 302.9 158.3"/><polygon class="cls-33" points="326.3 161.8 302.9 158.3 294.3 136.1 317.7 139.6 326.3 161.8"/></g></g><g class="cls-1"><polygon class="cls-46" points="676.3 410 657.9 432.9 628.8 428.4 647.3 405.6 676.3 410"/><polygon class="cls-47" points="647.3 405.6 628.8 428.4 618.1 400.9 636.6 378 647.3 405.6"/><polygon class="cls-14" points="676.3 410 647.3 405.6 636.6 378 665.6 382.4 676.3 410"/></g><g class="cls-30"><g class="cls-1"><polygon class="cls-31" points="693.4 412.7 664.1 449 618 442 647.3 405.7 693.4 412.7"/><polygon class="cls-32" points="647.3 405.7 618 442 601 398.2 630.4 361.9 647.3 405.7"/><polygon class="cls-33" points="693.4 412.7 647.3 405.7 630.4 361.9 676.5 368.9 693.4 412.7"/></g></g><g class="cls-1"><polygon class="cls-48" points="781.1 246.4 786.9 251.1 785.8 258.4 780 253.7 781.1 246.4"/><polygon class="cls-49" points="780 253.7 785.8 258.4 778.8 261.1 773.1 256.4 780 253.7"/><polygon class="cls-14" points="781.1 246.4 780 253.7 773.1 256.4 774.2 249.1 781.1 246.4"/></g><g class="cls-30"><g class="cls-1"><polygon class="cls-31" points="781.8 242.1 791 249.5 789.2 261.1 780 253.7 781.8 242.1"/><polygon class="cls-32" points="780 253.7 789.2 261.1 778.2 265.4 769 258 780 253.7"/><polygon class="cls-33" points="781.8 242.1 780 253.7 769 258 770.8 246.4 781.8 242.1"/></g></g><path class="cls-22" d="M173,246.1l-.4-.2a.5.5,0,0,1,0-.7l13.5-13.5h114L251.5,183a.6.6,0,0,1,.8-.8l49.4,49.5c.1.1.1.4.1.6a.5.5,0,0,1-.5.3H186.7l-13.4,13.3Z"/><path class="cls-22" d="M720.2,213.4H695l-111.9-112a.5.5,0,0,1,0-.7l10.3-10.3.3-.2h35.9a.6.6,0,0,1,.5.6.5.5,0,0,1-.5.5H593.9l-9.7,9.7L695.6,212.4h24.6a.5.5,0,0,1,.5.5A.5.5,0,0,1,720.2,213.4Z"/><path class="cls-22" d="M487,125.2a.5.5,0,0,1-.5-.5v-7.6L467.4,98a.5.5,0,0,1,.7-.7l19.3,19.2a.6.6,0,0,1,.1.4v7.8A.5.5,0,0,1,487,125.2Z"/><path class="cls-22" d="M388.5,135.2h-.4l-9.1-9.2H323.1L279,81.7a.5.5,0,0,1,.7-.7l43.9,43.9h55.6l.4.2,9.2,9.2a.6.6,0,0,1,0,.8Z"/><path class="cls-22" d="M679.5,347.9l-.4-.2a.5.5,0,0,1,0-.7l8.9-8.9h82.4a.5.5,0,1,1,0,1H688.6l-8.7,8.7Z"/><path class="cls-22" d="M333.1,431.9H259.4a.5.5,0,0,1,0-1h73.5l55.6-55.6.3-.2h13.6a.5.5,0,0,1,0,1H389l-55.5,55.7Z"/><rect class="cls-23" x="183.5" y="117.9" width="77.5" height="49.81" rx="4.5"/><path class="cls-24" d="M232.3,125.9a1.5,1.5,0,1,1,1.5,1.5A1.5,1.5,0,0,1,232.3,125.9Z"/><path class="cls-14" d="M243.1,126.6h-5.4a.6.6,0,0,1-.6-.6h0a.6.6,0,0,1,.6-.6h5.4a.6.6,0,0,1,.6.6h0A.6.6,0,0,1,243.1,126.6Z"/><path class="cls-14" d="M245.1,126.6h0a.6.6,0,0,1-.6-.6h0a.6.6,0,0,1,.6-.6h0a.6.6,0,0,1,.6.6h0A.6.6,0,0,1,245.1,126.6Z"/><path class="cls-25" d="M200.2,125.9a1.5,1.5,0,0,1,1.4-1.5,1.5,1.5,0,0,1,0,3A1.5,1.5,0,0,1,200.2,125.9Z"/><path class="cls-14" d="M210.9,126.6h-5.4a.6.6,0,0,1-.6-.6h0a.6.6,0,0,1,.6-.6h5.4a.6.6,0,0,1,.6.6h0A.6.6,0,0,1,210.9,126.6Z"/><path class="cls-14" d="M212.9,126.6h0a.6.6,0,0,1-.6-.6h0a.6.6,0,0,1,.6-.6h0a.6.6,0,0,1,.6.6h0A.6.6,0,0,1,212.9,126.6Z"/><path class="cls-26" d="M216.2,125.9a1.5,1.5,0,1,1,1.5,1.5A1.5,1.5,0,0,1,216.2,125.9Z"/><path class="cls-14" d="M227,126.6h-5.4a.6.6,0,0,1-.6-.6h0a.6.6,0,0,1,.6-.6H227a.6.6,0,0,1,.6.6h0A.6.6,0,0,1,227,126.6Z"/><path class="cls-14" d="M229,126.6h0a.6.6,0,0,1-.6-.6h0a.6.6,0,0,1,.6-.6h0a.6.6,0,0,1,.6.6h0A.6.6,0,0,1,229,126.6Z"/><rect class="cls-25" x="191.6" y="146.5" width="2.7" height="16.13"/><rect class="cls-26" x="195.6" y="149.8" width="2.7" height="12.85"/><rect class="cls-24" x="199.6" y="141.1" width="2.7" height="21.58"/><rect class="cls-25" x="208.1" y="154.2" width="2.7" height="8.46"/><rect class="cls-26" x="212.1" y="146" width="2.7" height="16.6"/><rect class="cls-24" x="216.1" y="156.9" width="2.7" height="5.71"/><rect class="cls-25" x="224.6" y="142.8" width="2.7" height="19.83"/><rect class="cls-26" x="228.6" y="148.2" width="2.7" height="14.44"/><rect class="cls-24" x="232.7" y="143.8" width="2.7" height="18.83"/><rect class="cls-25" x="241.1" y="147" width="2.7" height="15.6"/><rect class="cls-26" x="245.1" y="142.3" width="2.7" height="20.31"/><rect class="cls-24" x="249.2" y="156.2" width="2.7" height="6.43"/><path class="cls-22" d="M273.4,77.5a5.7,5.7,0,0,1-5.7-5.7,5.6,5.6,0,0,1,5.7-5.7,5.7,5.7,0,0,1,5.7,5.7A5.8,5.8,0,0,1,273.4,77.5Zm0-10.4a4.7,4.7,0,1,0,4.6,4.7A4.7,4.7,0,0,0,273.4,67.1Z"/><path class="cls-22" d="M394.7,146.5a5.7,5.7,0,0,1-5.6-5.7,5.7,5.7,0,1,1,11.3,0A5.7,5.7,0,0,1,394.7,146.5Zm0-10.4a4.7,4.7,0,0,0-4.6,4.7,4.7,4.7,0,0,0,9.3,0A4.7,4.7,0,0,0,394.7,136.1Z"/><path class="cls-22" d="M467.7,103.5a5.7,5.7,0,1,1,0-11.3,5.7,5.7,0,1,1,0,11.3Zm0-10.3a4.7,4.7,0,1,0,4.7,4.6A4.7,4.7,0,0,0,467.7,93.2Z"/><path class="cls-22" d="M638.9,96.3a5.7,5.7,0,1,1,5.6-5.6A5.6,5.6,0,0,1,638.9,96.3Zm0-10.3a4.7,4.7,0,1,0,4.6,4.7A4.7,4.7,0,0,0,638.9,86Z"/><path class="cls-22" d="M330.9,473.9a5.8,5.8,0,0,1-5.7-5.7,5.7,5.7,0,0,1,11.4,0A5.8,5.8,0,0,1,330.9,473.9Zm0-10.4a4.7,4.7,0,1,0,4.7,4.7A4.7,4.7,0,0,0,330.9,463.5Z"/><path class="cls-22" d="M403.1,381.3a5.6,5.6,0,0,1-5.7-5.7,5.7,5.7,0,0,1,5.7-5.7,5.8,5.8,0,0,1,5.7,5.7A5.7,5.7,0,0,1,403.1,381.3Zm0-10.4a4.7,4.7,0,0,0,0,9.4,4.7,4.7,0,0,0,0-9.4Z"/><path class="cls-22" d="M546.8,59a3.1,3.1,0,1,1,3.1-3.1A3.1,3.1,0,0,1,546.8,59Zm0-5.2a2.2,2.2,0,0,0-2.1,2.1,2.1,2.1,0,0,0,2.1,2.1,2.1,2.1,0,0,0,2.1-2.1A2.1,2.1,0,0,0,546.8,53.8Z"/><path class="cls-22" d="M598.8,466.6a3.1,3.1,0,1,1,3.1-3.1A3.1,3.1,0,0,1,598.8,466.6Zm0-5.2a2.1,2.1,0,0,0-2.1,2.1,2.1,2.1,0,1,0,4.1,0A2,2,0,0,0,598.8,461.4Z"/><path class="cls-22" d="M656.5,271.4a3.1,3.1,0,1,1,3.1-3.1A3.1,3.1,0,0,1,656.5,271.4Zm0-5.2a2,2,0,0,0-2,2.1,2,2,0,0,0,2,2,2,2,0,0,0,2.1-2A2.1,2.1,0,0,0,656.5,266.2Z"/><path class="cls-22" d="M522.8,238.4a3.1,3.1,0,1,1,3.1-3.1A3.1,3.1,0,0,1,522.8,238.4Zm0-5.2a2.1,2.1,0,1,0,2.1,2.1A2.1,2.1,0,0,0,522.8,233.2Z"/><path class="cls-22" d="M399.1,88.6a3.1,3.1,0,1,1,3.1-3.1A3.1,3.1,0,0,1,399.1,88.6Zm0-5.2a2.1,2.1,0,0,0-2.1,2.1,2.1,2.1,0,0,0,2.1,2.1,2.2,2.2,0,0,0,2.1-2.1A2.1,2.1,0,0,0,399.1,83.4Z"/><path class="cls-22" d="M407.7,427.5a3.1,3.1,0,1,1,0-6.2,3.1,3.1,0,1,1,0,6.2Zm0-5.2a2.1,2.1,0,0,0-2,2.1,2,2,0,0,0,2,2.1,2.1,2.1,0,0,0,2.1-2.1A2.1,2.1,0,0,0,407.7,422.3Z"/><path class="cls-22" d="M303.9,497.5a3.1,3.1,0,1,1,3.1-3.1A3.1,3.1,0,0,1,303.9,497.5Zm0-5.2a2.1,2.1,0,0,0-2.1,2.1,2,2,0,0,0,2.1,2,2,2,0,0,0,2-2A2,2,0,0,0,303.9,492.3Z"/><path class="cls-22" d="M252.1,188.6a5.8,5.8,0,0,1-5.7-5.7,5.7,5.7,0,0,1,11.4,0A5.8,5.8,0,0,1,252.1,188.6Zm0-10.4a4.7,4.7,0,1,0,4.7,4.7A4.7,4.7,0,0,0,252.1,178.2Z"/><path class="cls-22" d="M348.8,195.7a3.1,3.1,0,1,1,3.1-3.1A3.1,3.1,0,0,1,348.8,195.7Zm0-5.2a2.1,2.1,0,1,0,0,4.1,2,2,0,0,0,2.1-2A2.1,2.1,0,0,0,348.8,190.5Z"/><path class="cls-14" d="M254.4,49.6H234.9a1.8,1.8,0,0,1-1.7-1.7,1.7,1.7,0,0,1,1.7-1.7h19.5a1.7,1.7,0,0,1,1.7,1.7A1.8,1.8,0,0,1,254.4,49.6Z"/><path class="cls-14" d="M265.8,49.6H261a1.8,1.8,0,0,1-1.7-1.7,1.7,1.7,0,0,1,1.7-1.7h4.8a1.7,1.7,0,0,1,1.7,1.7A1.8,1.8,0,0,1,265.8,49.6Z"/><path class="cls-14" d="M283.9,49.6h-11a1.8,1.8,0,0,1-1.8-1.7,1.7,1.7,0,0,1,1.8-1.7h11a1.6,1.6,0,0,1,1.7,1.7A1.7,1.7,0,0,1,283.9,49.6Z"/><path class="cls-14" d="M283.9,56.2H251a1.7,1.7,0,0,1-1.8-1.7,1.8,1.8,0,0,1,1.8-1.7h32.9a1.7,1.7,0,0,1,1.7,1.7A1.6,1.6,0,0,1,283.9,56.2Z"/><path class="cls-14" d="M258.3,65.7h-3.9a1.7,1.7,0,0,1-1.7-1.8,1.7,1.7,0,0,1,1.7-1.7h3.9a1.7,1.7,0,0,1,1.7,1.7A1.7,1.7,0,0,1,258.3,65.7Z"/><path class="cls-14" d="M853.9,89H817a1.7,1.7,0,0,1-1.8-1.7,1.8,1.8,0,0,1,1.8-1.7h36.9a1.7,1.7,0,0,1,1.7,1.7A1.6,1.6,0,0,1,853.9,89Z"/><path class="cls-14" d="M867.4,89h-5.2a1.7,1.7,0,0,1-1.7-1.7,1.8,1.8,0,0,1,1.7-1.7h5.2a1.8,1.8,0,0,1,1.7,1.7A1.7,1.7,0,0,1,867.4,89Z"/><path class="cls-14" d="M852.2,98.7H837.9a1.7,1.7,0,1,1,0-3.4h14.3a1.7,1.7,0,0,1,0,3.4Z"/><path class="cls-14" d="M862.2,98.7h-2.6a1.7,1.7,0,0,1,0-3.4h2.6a1.7,1.7,0,0,1,0,3.4Z"/><path class="cls-14" d="M156.1,255.7H123.8A1.8,1.8,0,0,1,122,254a1.7,1.7,0,0,1,1.8-1.7h32.3a1.6,1.6,0,0,1,1.7,1.7A1.7,1.7,0,0,1,156.1,255.7Z"/><path class="cls-14" d="M174.7,255.7h-8.1a1.8,1.8,0,0,1-1.7-1.7,1.7,1.7,0,0,1,1.7-1.7h8.1a1.6,1.6,0,0,1,1.7,1.7A1.7,1.7,0,0,1,174.7,255.7Z"/><path class="cls-14" d="M174.7,263.3h-31a1.8,1.8,0,0,1-1.7-1.7,1.7,1.7,0,0,1,1.7-1.7h31a1.6,1.6,0,0,1,1.7,1.7A1.7,1.7,0,0,1,174.7,263.3Z"/><path class="cls-14" d="M789.8,350.4H757.5a1.6,1.6,0,0,1-1.7-1.7,1.7,1.7,0,0,1,1.7-1.7h32.3a1.8,1.8,0,0,1,1.8,1.7A1.7,1.7,0,0,1,789.8,350.4Z"/><path class="cls-14" d="M808.4,350.4h-8.1a1.7,1.7,0,0,1-1.7-1.7,1.8,1.8,0,0,1,1.7-1.7h8.1a1.8,1.8,0,0,1,1.8,1.7A1.7,1.7,0,0,1,808.4,350.4Z"/><path class="cls-14" d="M808.4,358h-31a1.8,1.8,0,0,1-1.7-1.7,1.7,1.7,0,0,1,1.7-1.7h31a1.7,1.7,0,0,1,1.8,1.7A1.8,1.8,0,0,1,808.4,358Z"/></g></g></g></svg>