<?xml version="1.0" encoding="utf-8"?>
<!-- Generator: Adobe Illustrator 24.0.0, SVG Export Plug-In . SVG Version: 6.00 Build 0)  -->
<svg version="1.1" xmlns="http://www.w3.org/2000/svg" xmlns:xlink="http://www.w3.org/1999/xlink" x="0px" y="0px"
	 viewBox="0 0 459.1 393.2" style="enable-background:new 0 0 459.1 393.2;" xml:space="preserve">
<style type="text/css">
	.st0{fill:#D70010;}
	.st1{fill:#FFFFFF;}
	.st2{fill:#F4EAEA;}
	.st3{fill:#7A0110;}
	.st4{clip-path:url(#SVGID_2_);}
	.st5{fill:none;stroke:#FFFFFF;stroke-miterlimit:10;}
	.st6{fill:#E2D9D9;}
	.st7{clip-path:url(#SVGID_4_);}
	.st8{fill:#D70010;stroke:#FFFFFF;stroke-miterlimit:10;}
	.st9{fill:none;stroke:#101010;stroke-width:2;stroke-miterlimit:10;}
	.st10{fill:#FF7182;}
	.st11{clip-path:url(#SVGID_6_);}
	.st12{fill:none;stroke:#63BACE;stroke-linecap:round;stroke-linejoin:round;}
	.st13{fill:none;stroke:#D70010;stroke-linecap:round;stroke-linejoin:round;stroke-dasharray:2.99,2.49;}
	.st14{fill:none;stroke:#D70010;stroke-linecap:round;stroke-linejoin:round;stroke-dasharray:2.91,2.42;}
	.st15{fill:none;stroke:#D70010;stroke-linecap:round;stroke-linejoin:round;}
	.st16{fill:#FDD247;}
	.st17{fill:#FCDED6;}
	.st18{opacity:0.2;fill:#71606E;enable-background:new    ;}
	.st19{fill:#FC9549;}
	.st20{fill:#FC5E49;}
	.st21{fill:#2085B7;}
	.st22{fill:#167F7F;}
	.st23{fill:none;stroke:#D70010;stroke-linecap:round;stroke-linejoin:round;stroke-dasharray:3,2.5;}
	.st24{fill:#101010;}
	.st25{fill:none;stroke:#FFFFFF;stroke-linecap:round;stroke-linejoin:round;}
	.st26{opacity:0.2;}
	.st27{fill:#FFB839;}
	.st28{fill:#333333;}
	.st29{fill:none;stroke:#FFFFFF;stroke-width:0.5;stroke-linecap:round;stroke-linejoin:round;}
	.st30{opacity:0.55;}
	.st31{fill:#B3E5E1;}
	.st32{fill:none;stroke:#FF7182;stroke-width:16;stroke-linecap:round;stroke-linejoin:round;}
	.st33{fill:#0C877E;}
	.st34{fill:#C5E6EF;}
	.st35{opacity:0.55;fill:#71C9C4;enable-background:new    ;}
	.st36{fill:#17A59E;}
	.st37{fill:none;stroke:#95C6C6;stroke-width:0.5;stroke-linecap:round;stroke-linejoin:round;}
	.st38{fill:none;stroke:#95C6C6;stroke-width:0.5;stroke-linecap:round;stroke-linejoin:round;stroke-dasharray:1.81,2.27;}
	.st39{fill:none;stroke:#95C6C6;stroke-width:0.5;stroke-linecap:round;stroke-linejoin:round;stroke-dasharray:2.09,2.62;}
	.st40{fill:none;stroke:#95C6C6;stroke-width:0.5;stroke-linecap:round;stroke-linejoin:round;stroke-dasharray:1.79,2.24;}
	.st41{fill:none;stroke:#C5E6EF;stroke-width:0.5;stroke-miterlimit:10;}
	.st42{fill:none;stroke:#C5E6EF;stroke-width:0.25;stroke-miterlimit:10;}
	.st43{fill:#F39F86;}
	.st44{fill:none;stroke:#FFFFFF;stroke-width:0.25;stroke-miterlimit:10;}
	.st45{fill:#95C6C6;}
	.st46{fill:#5B5B5B;}
	.st47{fill:#A80216;}
	.st48{fill:#062F44;}
	.st49{fill:#383838;}
	.st50{opacity:0.5;}
	.st51{fill:#DAE4E5;}
	.st52{fill:#3A3A3A;}
	.st53{fill:#FFE7C5;}
	.st54{fill:#FFC25B;}
	.st55{fill:#FFA92C;}
	.st56{fill:#AFD4DD;}
	.st57{fill:#B50016;}
	.st58{fill:#FFB27E;}
	.st59{fill:#DB856E;}
	.st60{fill:#023D5F;}
	.st61{fill:#ED9C80;}
	.st62{opacity:0.75;fill:#EDC5C5;enable-background:new    ;}
	.st63{fill:#DD9494;}
	.st64{fill:none;stroke:#DD9494;stroke-miterlimit:10;}
	.st65{fill:#D88787;}
	.st66{fill:none;stroke:#FF7182;stroke-width:2.99;stroke-linecap:round;stroke-linejoin:round;}
	.st67{fill:none;stroke:#FF7182;stroke-miterlimit:10;}
	.st68{fill:none;stroke:#FF7182;stroke-width:0.5;stroke-miterlimit:10;}
	.st69{display:none;}
	.st70{display:inline;}
</style>
<g id="Layer_1">
	<title>21</title>
	<g>
		<g id="Layer_2_1_">
			<g id="OBJECT">
				<path class="st0" d="M366.7,237.7l9.2-11.3c1.9-2.3,5.3-2.7,7.6-0.8l11.3,9.2c2.3,1.9,2.7,5.3,0.8,7.6l-9.2,11.3
					c-1.9,2.3-5.3,2.7-7.6,0.8l-11.3-9.2C365.2,243.5,364.8,240.1,366.7,237.7z"/>
				<path class="st1" d="M378.7,229.6c1.8,1.1,3.5,2.4,4.9,4c1.2,1.3,1.3,3.2,0.4,4.7c-0.9,1.6-2.8,2.4-4.6,2
					c-1.1-0.3-2.1-0.9-3-1.6l-0.7-0.6l-3,3.7l-2.3-1.9L378.7,229.6z M377.2,236.2c0.5,0.7,1.2,1.2,2,1.4c0.9,0.2,1.8-0.2,2.3-1
					c0.4-0.7,0.3-1.6-0.3-2.2c-0.5-0.5-1-0.9-1.5-1.2L377.2,236.2z"/>
				<path class="st1" d="M389.2,243.1l-1.6,1.2l-1.2-1.5c-0.2-0.2-0.4-0.4-0.7-0.5c-0.3,0-0.6,0-0.8,0.2c-0.1,0.2-0.2,0.5-0.1,0.7
					c0.1,0.4,0.3,0.8,0.5,1.2c0.3,0.4,0.5,0.9,0.7,1.4c0.5,1.5-0.4,3-1.8,3.5c-0.4,0.1-0.8,0.2-1.3,0.1c-1.2-0.1-2.3-0.7-3.1-1.7
					c-0.6-0.6-1.1-1.3-1.7-2l1.8-1.3l1.8,2.1c0.1,0.2,0.4,0.3,0.6,0.4c0.3,0,0.5,0,0.7-0.2c0.1-0.2,0.2-0.5,0.2-0.8
					c-0.1-0.3-0.3-0.6-0.5-0.9c-0.2-0.5-0.5-1-0.7-1.6c-0.5-1.4,0.2-2.9,1.6-3.5c0.4-0.1,0.8-0.2,1.2-0.1
					C386.7,240.1,388.4,241.3,389.2,243.1z"/>
				<path class="st2" d="M401.2,163.4H299.3c-15.4,0-15.6-19-1.9-22.9c8.4-2.3,17.3-0.4,24,5.1c0,0,3.7-46.8,38.7-41.3
					c27.7,4.3,26.1,34.4,26.1,34.4s5.7-12.4,20.6-7.7C421.7,135.7,420.7,163.4,401.2,163.4z"/>
				<path class="st3" d="M286.4,232.4c-17.4,1-30.4,20.7-30.4,20.7s15.1,18.2,32.5,17.2s30.4-20.7,30.4-20.7
					S303.8,231.4,286.4,232.4z"/>
				<g>
					<defs>
						<path id="SVGID_1_" d="M286.4,232.4c-17.4,1-30.4,20.7-30.4,20.7s15.1,18.2,32.5,17.2s30.4-20.7,30.4-20.7
							S303.8,231.4,286.4,232.4z"/>
					</defs>
					<clipPath id="SVGID_2_">
						<use xlink:href="#SVGID_1_"  style="overflow:visible;"/>
					</clipPath>
					<g class="st4">
						<line class="st5" x1="254.4" y1="253.2" x2="320.5" y2="249.5"/>
						<line class="st5" x1="285" y1="271.2" x2="268.9" y2="252.4"/>
						<line class="st5" x1="308.1" y1="269.9" x2="292" y2="251.1"/>
						<line class="st5" x1="281.1" y1="251.7" x2="298.5" y2="233.4"/>
						<line class="st5" x1="296.5" y1="250.9" x2="308.4" y2="238.7"/>
					</g>
				</g>
				<ellipse class="st6" cx="219.6" cy="308.4" rx="131.6" ry="16.9"/>
				<ellipse class="st6" cx="351.2" cy="318" rx="96.6" ry="21.1"/>
				<path class="st3" d="M143.3,251.7c19.7,17,54.2,9.3,54.2,9.3s2.6-35.3-17.1-52.3s-54.2-9.2-54.2-9.2S123.7,234.7,143.3,251.7z"
					/>
				<g>
					<defs>
						<path id="SVGID_3_" d="M143.3,251.7c19.7,17,54.2,9.3,54.2,9.3s2.6-35.3-17.1-52.3s-54.2-9.2-54.2-9.2
							S123.7,234.7,143.3,251.7z"/>
					</defs>
					<clipPath id="SVGID_4_">
						<use xlink:href="#SVGID_3_"  style="overflow:visible;"/>
					</clipPath>
					<g class="st7">
						<line class="st8" x1="199.3" y1="262.7" x2="124.3" y2="197.9"/>
						<line class="st8" x1="185.1" y1="211.4" x2="182.8" y2="248.4"/>
						<line class="st8" x1="159" y1="188.9" x2="156.7" y2="225.9"/>
						<line class="st8" x1="169" y1="236.5" x2="131.3" y2="238.1"/>
						<line class="st8" x1="151.6" y1="221.4" x2="126.2" y2="222.1"/>
					</g>
				</g>
				<path class="st2" d="M99.7,237.2H10.4c-13.5,0-13.6-15.3-1.7-18.4c7.3-1.9,15-0.4,21,4.1c0,0,3.3-37.6,34-33.2
					c24.2,3.5,22.8,27.6,22.8,27.6s5-9.9,18.1-6.1S116.7,237.2,99.7,237.2z"/>
				<path class="st2" d="M119.8,80h71.8c10.9,0,11-12.3,1.4-14.8c-5.8-1.5-12-0.3-16.9,3.3c0,0-2.6-30.3-27.4-26.7
					C129.2,44.6,130.4,64,130.4,64s-4-8-14.6-4.9S106.1,80,119.8,80z"/>
				<path class="st6" d="M132.6,302.3c0,3.4-19.2,6.1-42.9,6.1s-43-2.7-43-6.1s19.2-6,43-6S132.6,299,132.6,302.3z"/>
				<line class="st9" x1="63" y1="302.8" x2="76.5" y2="161.2"/>
				<line class="st9" x1="116.9" y1="302.8" x2="103.4" y2="161.2"/>
				<line class="st9" x1="75.4" y1="172.5" x2="104.5" y2="172.5"/>
				<line class="st9" x1="73.8" y1="189.5" x2="106.1" y2="189.5"/>
				<line class="st9" x1="72.2" y1="206.5" x2="107.7" y2="206.5"/>
				<line class="st9" x1="70.5" y1="223.5" x2="109.3" y2="223.5"/>
				<line class="st9" x1="68.9" y1="240.5" x2="110.9" y2="240.5"/>
				<line class="st9" x1="67.3" y1="257.4" x2="112.5" y2="257.4"/>
				<line class="st9" x1="65.7" y1="274.4" x2="114.2" y2="274.4"/>
				<line class="st9" x1="64" y1="291.4" x2="115.3" y2="291.4"/>
				<path class="st3" d="M105.1,162H74.7c-0.9,0-1.7-0.8-1.7-1.7l0,0c0-1,0.7-1.7,1.7-1.8h30.4c1,0,1.8,0.8,1.8,1.8l0,0l0,0
					c0,0.9-0.8,1.7-1.7,1.7C105.2,162,105.1,162,105.1,162z"/>
				<path class="st10" d="M315.3,234.3c-17.8,16.2-49.3,10.5-49.3,10.5s-2.5-31.8,15.4-47.9s49.2-10.6,49.2-10.6
					S333.1,218.2,315.3,234.3z"/>
				<g>
					<defs>
						<path id="SVGID_5_" d="M315.3,234.3c-17.8,16.2-49.3,10.5-49.3,10.5s-2.5-31.8,15.4-47.9s49.2-10.6,49.2-10.6
							S333.1,218.2,315.3,234.3z"/>
					</defs>
					<clipPath id="SVGID_6_">
						<use xlink:href="#SVGID_5_"  style="overflow:visible;"/>
					</clipPath>
					<g class="st11">
						<line class="st5" x1="264.4" y1="246.4" x2="332.4" y2="184.9"/>
						<line class="st5" x1="277.2" y1="199.4" x2="279.4" y2="232.9"/>
						<line class="st5" x1="300.8" y1="178" x2="303" y2="211.4"/>
						<line class="st5" x1="291.8" y1="221.6" x2="326.1" y2="221.5"/>
						<line class="st5" x1="307.6" y1="207.2" x2="330.8" y2="206.8"/>
					</g>
				</g>
				<line class="st12" x1="208.2" y1="301.1" x2="208.2" y2="302.6"/>
				<path class="st13" d="M208.2,305v4.7c0,8.6-7,15.6-15.6,15.6c0,0,0,0,0,0H166c-5.1,0-9.3-4.2-9.3-9.3v-10.6"/>
				<line class="st12" x1="156.7" y1="304.1" x2="156.7" y2="302.6"/>
				<line class="st12" x1="115.2" y1="304.4" x2="115.2" y2="305.9"/>
				<path class="st13" d="M115.2,308.4v13.3c-0.1,10,8,18.1,18,18.2c0,0,0.1,0,0.1,0h57.6c14.9,0,27-12.1,27-27l0,0v-21.4"/>
				<line class="st12" x1="217.9" y1="290.3" x2="217.9" y2="288.8"/>
				<line class="st12" x1="129.3" y1="304.4" x2="129.3" y2="305.9"/>
				<path class="st14" d="M129.3,308.3v13.4c-0.1,10,8,18.1,18,18.2c0,0,0.1,0,0.1,0h20.8"/>
				<line class="st12" x1="169.4" y1="339.9" x2="170.9" y2="339.9"/>
				<line class="st12" x1="142.9" y1="304.4" x2="142.9" y2="305.9"/>
				<path class="st13" d="M142.9,308.3v13.4c-0.1,10,8,18.1,18,18.2c0,0,0.1,0,0.1,0h22.5"/>
				<line class="st15" x1="184.8" y1="339.9" x2="186.3" y2="339.9"/>
				<polygon class="st16" points="120.1,249.5 120.1,311.2 110.2,311.2 110,249.5 				"/>
				<polygon class="st17" points="115,236.1 116,237.6 120.1,249.5 110,249.5 114,237.5 				"/>
				<polygon class="st16" points="115,236.1 116,237.6 115.4,237.9 115,237.5 114.5,238 114,237.5 				"/>
				<polygon class="st17" points="110,249.5 111.5,250.6 112.5,249.5 				"/>
				<polygon class="st17" points="112.5,249.5 114,250.6 115,249.5 				"/>
				<polygon class="st17" points="115,249.5 116.4,250.6 117.5,249.5 				"/>
				<polygon class="st17" points="117.5,249.5 118.9,250.6 120.1,249.5 				"/>
				<polygon class="st18" points="115,236.1 116,237.5 120.1,249.5 120.2,311.2 116.9,311.2 116.7,249.5 113.5,238.9 114,237.5 				
					"/>
				<rect x="110.2" y="310.5" class="st0" width="9.9" height="1.8"/>
				<polygon class="st19" points="134.1,249.5 134.1,311.2 124.1,311.2 123.9,249.5 				"/>
				<polygon class="st17" points="128.9,236.1 129.9,237.6 134.1,249.5 123.9,249.5 127.9,237.5 				"/>
				<polygon class="st19" points="128.9,236.1 129.9,237.6 129.3,237.9 128.9,237.5 128.4,238 127.9,237.5 				"/>
				<polygon class="st17" points="123.9,249.5 125.4,250.6 126.4,249.5 				"/>
				<polygon class="st17" points="126.4,249.5 127.9,250.6 128.9,249.5 				"/>
				<polygon class="st17" points="128.9,249.5 130.3,250.6 131.4,249.5 				"/>
				<polygon class="st17" points="131.4,249.5 132.8,250.6 134.1,249.5 				"/>
				<polygon class="st18" points="128.9,236.1 129.9,237.5 134.1,249.5 134.1,311.2 130.8,311.2 130.6,249.5 127.4,238.9 
					127.9,237.5 				"/>
				<rect x="124.1" y="310.5" class="st0" width="9.9" height="1.8"/>
				<polygon class="st20" points="148,249.5 148,311.2 138,311.2 137.8,249.5 				"/>
				<polygon class="st17" points="142.8,236.1 143.8,237.6 148,249.5 137.8,249.5 141.8,237.5 				"/>
				<polygon class="st20" points="142.8,236.1 143.8,237.6 143.3,237.9 142.8,237.5 142.3,238 141.8,237.5 				"/>
				<polygon class="st17" points="137.8,249.5 139.3,250.6 140.3,249.5 				"/>
				<polygon class="st17" points="140.3,249.5 141.8,250.6 142.8,249.5 				"/>
				<polygon class="st17" points="142.8,249.5 144.2,250.6 145.3,249.5 				"/>
				<polygon class="st17" points="145.3,249.5 146.7,250.6 148,249.5 				"/>
				<polygon class="st18" points="142.8,236.1 143.8,237.5 148,249.5 148,311.2 144.7,311.2 144.5,249.5 141.3,238.9 141.8,237.5 
									"/>
				<rect x="138" y="310.5" class="st0" width="9.9" height="1.8"/>
				<polygon class="st21" points="161.9,249.5 161.9,311.2 151.9,311.2 151.7,249.5 				"/>
				<polygon class="st17" points="156.7,236.1 157.7,237.6 161.9,249.5 151.7,249.5 155.7,237.5 				"/>
				<polygon class="st21" points="156.7,236.1 157.7,237.6 157.2,237.9 156.7,237.5 156.2,238 155.7,237.5 				"/>
				<polygon class="st17" points="151.7,249.5 153.2,250.6 154.2,249.5 				"/>
				<polygon class="st17" points="154.2,249.5 155.7,250.6 156.7,249.5 				"/>
				<polygon class="st17" points="156.7,249.5 158.2,250.6 159.2,249.5 				"/>
				<polygon class="st17" points="159.2,249.5 160.6,250.6 161.9,249.5 				"/>
				<polygon class="st18" points="156.7,236.1 157.7,237.5 161.9,249.5 161.9,311.2 158.7,311.2 158.4,249.5 155.2,238.9 
					155.7,237.5 				"/>
				<rect x="151.9" y="310.5" class="st22" width="9.9" height="1.8"/>
				<path class="st23" d="M390.1,332h62.7c3.1-0.1,5.7,2.5,5.8,5.6c0,0,0,0.1,0,0.1l0,0c-0.1,3.2-2.6,5.7-5.8,5.7H255.3
					c-10.4,0-18.8-8.4-18.8-18.8v-22.3"/>
				<path class="st23" d="M224.5,305.2v37.9c0,10.5-8.5,19-19,19l0,0h-6.7"/>
				<path class="st23" d="M249.2,294.1v15.7c0,6.3,5.1,11.4,11.4,11.4l0,0h68.7"/>
				<path class="st0" d="M300.5,94c-16.3-20.2-40.5-34.5-67-34.9c-15.2-0.3-31.4,1.7-45,9c-11.9,6.5-22.4,15.3-30.9,25.9
					c-14.6,18.1-23,41.6-20.5,64.7c2.1,19.3,11.6,37,24.2,51.5s30.2,25.7,33.3,45.7c0.8,5.7-1.3,13.5,3.1,18.1s13.5,3.5,20.2,3.5
					l23.6-0.2c5.6,0,14.6,1.6,18.9-3.3s2.2-12.4,3.1-18.1c2.3-15,14-27.2,24.8-37c12.4-11.2,22.2-24.1,27.7-40.1
					C326.2,149.3,320,118.1,300.5,94z"/>
				<path class="st1" d="M224.1,294.7c0-2.6,0-5-0.1-7.6c-0.2-6.2-0.5-12.4-0.7-18.6c-0.3-7.9-0.7-15.8-1.1-23.7s-0.8-15.3-1.4-22.8
					s-1.3-15.8-3.1-23.5c-1.1-5.2-2.9-10.3-5.3-15.1c-1.5-3.3-3.8-6.1-6.7-8.3c-2-1.5-4.4-2.2-6.9-2c-2.6,0.3-5,1.7-6.6,3.8
					c-2.1,2.7-2.1,6.4-0.9,9.5c1.6,3.7,4.4,6.8,7.9,8.8c3.7,2.1,7.9,3.1,12.1,2.9c4.4,0,8.7-1,12.7-2.7c7.6-3.5,12.4-11.7,14.3-19.6
					c0.9-4,1.3-8,0.9-12.1c-0.4-2.9-2.2-5.5-4.8-6.9c-2.6-1.6-6-2-8.6-0.2c-2.4,1.9-3.9,4.7-4,7.7c-0.2,2.7-0.1,5.5,0.5,8.2
					c0.6,3.2,1.5,6.4,2.7,9.4c2.3,5.6,6.2,11.8,12.4,13.4c1.9,0.4,3.9,0.5,5.9,0.3c2.6-0.3,5.1-0.9,7.6-1.8
					c4.3-1.7,8.2-4.3,11.4-7.7c3-2.9,5.4-6.5,6.9-10.4c1.4-3.7,1.1-8.4-2.6-10.7c-1.9-1.1-4.1-1.5-6.3-1.2c-2.4,0.5-4.6,1.6-6.4,3.3
					c-1.9,1.7-3.5,3.6-4.9,5.7c-1.5,2.1-2.8,4.3-3.9,6.7c-4.6,9.4-6.3,19.7-6.8,30.1s-1,22.9-1.3,34.4s-0.7,22-0.9,33
					c-0.2,5.8-0.1,11.5-0.3,17.2c0,0.4,0.4,0.8,0.8,0.8s0.8-0.4,0.8-0.8c0.2-5.7,0.6-11.4,0.8-17s0.3-10.8,0.5-16.2
					c0.3-10.5,0.6-21,1-31.5c0.3-5.5,0.5-11.1,0.8-16.7c0.1-5.2,0.5-10.3,1.3-15.4c1.7-9.5,5.1-19,11.5-26.4c2.7-3.1,6.6-6.1,11-4.6
					c1.7,0.6,2.9,2,3.2,3.7c0.3,1.6,0.2,3.3-0.4,4.9c-1.5,3.6-3.6,6.8-6.4,9.5c-3,3.2-6.6,5.6-10.7,7.2c-2.2,0.9-4.6,1.5-7,1.6
					c-1.8,0.3-3.6,0.2-5.3-0.3c-2.5-0.8-4.7-2.4-6.3-4.5c-3.8-4.6-5.9-10.9-7-16.8c-0.4-2.4-0.6-4.9-0.4-7.4c0-0.2,0-0.3,0.1-0.4
					s-0.1,0.2,0-0.2c0-0.2,0-0.4,0.1-0.6c0.1-0.5,0.3-1,0.5-1.5c0.5-1.4,1.5-2.6,2.8-3.4c1-0.6,2.2-0.7,3.4-0.5
					c1.2,0.3,2.3,0.9,3.3,1.6c1,0.7,1.8,1.7,2.3,2.8c0.2,0.5,0.3,0.9,0.4,1.4c0.1,1,0.2,1.9,0.2,2.8c0.2,7.7-2.2,16-7.3,21.9
					c-2.4,2.9-5.6,5-9.2,6.2c-4,1.3-8.1,1.8-12.3,1.4c-3.9-0.3-7.5-1.7-10.5-4.2c-2.5-2.2-4.7-5.1-5.1-8.4c-0.6-3.8,2-7.3,5.8-7.9
					c0,0,0.1,0,0.1,0h2c-0.2,0,0.1,0.1,0.2,0.1h0.4c1.1,0.2,2.2,0.6,3.1,1.3c1.2,0.8,2.2,1.8,3.1,2.9c2.5,3.2,4.5,6.9,5.7,10.8
					c1.7,4.7,2.9,9.6,3.7,14.6c0.7,3.8,1,7.6,1.4,11.4c0.6,6.8,1.1,13.5,1.6,20.3s0.9,15.4,1.4,23.2c0.5,7.8,0.8,13.6,1.1,20.4
					c0.2,4.3,0.4,8.5,0.7,12.7c0,0.6,0,1.1,0.1,1.7C223.1,295.3,224.1,295.4,224.1,294.7L224.1,294.7z"/>
				<rect x="201.8" y="277.2" class="st3" width="53.3" height="5.3"/>
				<path class="st24" d="M258.3,300.7c-0.9-1.2-0.9-2.8,0-4l0.4-0.4c0.9-1.1,1-2.7,0.1-3.9l-0.5-0.6c-0.9-1.2-0.8-3,0.2-4.1
					c1.1-1,1.2-2.7,0.3-3.9l-1.4-1.9c-0.5-0.7-1.3-1.1-2.2-1.1h-53c-0.9,0-1.7,0.4-2.2,1.1l-1.5,1.9c-0.8,1.2-0.7,2.8,0.3,3.9
					c1.1,1.1,1.2,2.8,0.3,4.1l-0.6,0.6c-0.9,1.2-0.8,2.8,0.2,3.9l0.3,0.4c1,1.1,1,2.8,0.1,4l-0.4,0.5c-1,1.2-0.9,2.9,0.1,4l0.2,0.2
					c1.1,1.1,2.6,1.7,4.1,1.7h51.2c1.5,0,2.9-0.6,4-1.7l0.2-0.2c1-1.1,1.1-2.8,0.2-4L258.3,300.7z"/>
				<line class="st25" x1="230.9" y1="287.9" x2="255.6" y2="287.9"/>
				<line class="st25" x1="206.2" y1="287.9" x2="219.9" y2="287.9"/>
				<line class="st25" x1="202.6" y1="294" x2="238.4" y2="294"/>
				<line class="st25" x1="245.1" y1="294" x2="255.7" y2="294"/>
				<line class="st25" x1="206.2" y1="300" x2="225.3" y2="300"/>
				<line class="st25" x1="237.9" y1="300" x2="245.6" y2="300"/>
				<line class="st25" x1="223.3" y1="287.9" x2="226.1" y2="287.9"/>
				<g class="st26">
					<path class="st27" d="M300.5,94c-16.3-20.2-40.5-34.5-67-34.9c-3-0.1-6-0.1-9.1,0.1c42.4,2.6,79,39.4,77.6,83.6
						c-1.1,37.2-19.3,63.8-56.9,80.1c-7.8,3.4-13.5,8.6-14.7,17.6s1.4,16.7-0.3,25c-0.1,1.3-0.6,2.5-1.5,3.5
						c-0.9,0.8-1.9,1.4-3.1,1.7c-9.3,3.2-19.3,3.8-28.9,1.8c0.2,0.6,0.6,1.1,1.1,1.5c5.1,5.4,13.5,3.5,20.2,3.5l23.6-0.2
						c5.6,0,14.6,1.6,18.9-3.3s2.2-12.4,3.1-18.1c2.3-15,14-27.2,24.8-37c12.4-11.2,22.2-24.1,27.7-40.1
						C326.2,149.3,320,118.1,300.5,94z"/>
				</g>
				<path class="st24" d="M447.8,312.3c0,0-8.2-5.9-14.9-6.8c-13-1.9-20.5,3.3-27.6-0.7c-2.9-1.6,4.4-2.7,5.1-4.6
					c0.1-0.2,0.1-2.8,0.1-2.8c-1.1,0.5-2.4,0.6-3.5,0.2c-13.2-4.8-24.4-4.3-43.6-4.3c-42.9,0-78.3,7.7-83.6,17.7h-0.6v2.6l0,0
					c0.2,11.2,37.8,20.2,84.2,20.2c44.8,0,83.9-8.6,84.4-19L447.8,312.3z M392.3,313.5c-6,0-10.9-1.8-10.9-4s4.9-3.9,10.9-3.9
					s11,1.7,11,3.9S398.4,313.5,392.3,313.5z"/>
				<path class="st28" d="M447.6,311.2c-1.1-4.5-8-7.1-14.7-8.1c-13-1.8-20.5,3.3-27.6-0.6c-4.1-2.3,12-3.6,1.7-7.3
					c-13.2-4.7-24.4-4.3-43.6-4.3c-46.5,0-84.2,9.1-84.2,20.3s37.7,20.2,84.2,20.2S450.4,322.2,447.6,311.2z M392.3,311.1
					c-6,0-10.9-1.7-10.9-3.9s4.9-4,10.9-4s11,1.8,11,4S398.4,311.1,392.3,311.1L392.3,311.1z"/>
				<path class="st19" d="M325.7,313.4c-0.4-0.6-0.9-1.1-1.4-1.6c-1.3-1-2.8-1.8-4.3-2.3c0.4-0.1,0.5-0.7,0.3-1
					c-0.2-0.4-0.5-0.6-0.9-0.7c-1.7-0.6-3.4-0.8-5.2-0.6c-3.5,0.1-7,0.5-10.5,1.1c-1.6,0.3-3.4,0.9-4.1,2.5c-0.3,0.6-0.4,1.3-0.2,2
					c-0.4,0.2-0.8,0.4-1.3,0.4c-0.4,0.1-0.9,0.6-0.7,1s0.1,0.3,0.3,0.5c3.2,3.3,7.9,4,12.2,4c4.7,0.1,9.4-0.5,13.9-2
					c0.8-0.1,1.6-0.6,2-1.3C326.1,314.8,326,314,325.7,313.4z"/>
				<path class="st20" d="M358,302.3c-0.3-0.6-0.8-1.2-1.4-1.6c-1.2-1-2.7-1.8-4.2-2.3c0.4-0.1,0.5-0.7,0.3-1
					c-0.2-0.3-0.5-0.6-0.9-0.8c-1.7-0.6-3.5-0.7-5.2-0.5c-3.5,0.1-7,0.5-10.5,1.1c-1.6,0.3-3.5,0.9-4.2,2.5c-0.2,0.6-0.3,1.3-0.1,2
					c-0.4,0.3-0.9,0.2-1.3,0.4c-0.5,0.1-0.9,0.5-0.8,1c0,0,0,0,0,0l0.3,0.5c3.3,3.2,8,4,12.3,4c4.7,0.1,9.4-0.6,13.9-2
					c0.8-0.1,1.6-0.6,2-1.3C358.5,303.6,358.4,302.9,358,302.3z"/>
				<path class="st21" d="M416.6,318.7c-0.3-0.5-0.7-0.9-1.2-1.3c-1.1-0.9-2.3-1.5-3.6-2c0.3-0.2,0.4-0.5,0.3-0.8c0,0,0-0.1-0.1-0.1
					c-0.1-0.3-0.5-0.5-0.8-0.6c-1.4-0.5-2.9-0.6-4.4-0.4c-3,0.1-6,0.4-9,0.9c-1.4,0.2-2.9,0.7-3.5,2.1c-0.3,0.5-0.3,1.1-0.2,1.7
					l-1.1,0.4c-0.4,0.1-0.7,0.4-0.6,0.8c0,0.2,0.1,0.3,0.2,0.4c2.8,2.8,6.9,3.5,10.5,3.5c4,0,8-0.5,11.9-1.7
					c0.7-0.1,1.3-0.5,1.7-1.1C417,319.9,416.9,319.2,416.6,318.7z"/>
				<path class="st16" d="M371.6,318.8c-0.4-0.6-0.8-1.2-1.4-1.6c-1.3-1-2.7-1.8-4.2-2.3c0.3-0.1,0.4-0.7,0.2-1s-0.5-0.6-0.8-0.8
					c-1.7-0.6-3.5-0.7-5.2-0.5c-3.6,0.1-7.1,0.5-10.6,1.1c-1.6,0.3-3.4,0.9-4.1,2.5c-0.3,0.6-0.3,1.3-0.2,2
					c-0.4,0.2-0.8,0.4-1.3,0.4c-0.4,0.1-0.7,0.5-0.7,1l0.3,0.5c3.2,3.3,8,4,12.3,4c4.7,0.1,9.4-0.5,13.9-2c0.8-0.1,1.5-0.6,1.9-1.3
					C372,320.2,371.9,319.4,371.6,318.8z"/>
				<path class="st6" d="M115,367.9c0,2.2-15.3,4-34.2,4s-34.3-1.8-34.3-4s15.3-4,34.3-4S115,365.7,115,367.9z"/>
				<path class="st0" d="M43.9,353.6c-3.4-6.7-4.3-14.7-1.3-21.7c1.6-4.2,4.2-7.9,7.7-10.8c3.1-2.4,6.7-4.1,10.5-5.1
					c6.4-1.7,13.6-1.2,19.4,2.2c4.8,2.9,8.5,7.3,10.7,12.5c2.3,4.9,3.2,10.9,8.1,14.1c1.4,0.9,3.7,1.3,4.4,3s-0.6,3.9-1.4,5.7
					s-1.9,4.1-2.9,6.2s-1.3,4-3.1,4.6s-3.5-0.9-5.1-1.4c-4.2-1.1-8.8,0.5-12.7,2.2c-4.3,2.1-9.1,3-13.8,2.6
					C55.6,366.9,47.8,361.6,43.9,353.6z"/>
				<path class="st5" d="M102.3,355.5c0,0-13.6-6.8-20.1-10.4c-2.1-1.2-4.1-2.5-5.9-4.1c-1.5-1.4-4.6-4.6-2.6-6.7s5.1,1.6,5.1,3.9
					c-0.4,2.2-1.5,4.2-3.2,5.7c-2.8,2-7,1.5-9.6-0.2s-0.8-4.1,1.4-4s8,4.6,6.7,8.2c-0.8,1.9-2.3,3.4-4.1,4.3
					c-3.3,1.5-7.5-2.6-2.9-4.1s7.4,0.1,10.5,1.3l23.1,9.4"/>
				
					<rect x="93.6" y="355.9" transform="matrix(0.4083 -0.9128 0.9128 0.4083 -265.6758 303.4641)" class="st3" width="15.4" height="1.5"/>
				<path class="st24" d="M103.3,366.8c-0.3-0.3-0.7-0.5-1.1-0.4h-0.1c-0.3,0.2-0.8,0.1-0.9-0.3c0,0,0-0.1-0.1-0.1v-0.2
					c-0.2-0.4-0.6-0.6-1-0.4c0,0,0,0-0.1,0c-0.4,0.2-0.9,0-1.1-0.4l-0.3-0.6c-0.2-0.2-0.2-0.5-0.1-0.7l6.3-14
					c0.1-0.2,0.3-0.4,0.5-0.4l0.7-0.2c0.4-0.1,0.9,0.2,1,0.6c0.1,0.4,0.6,0.6,1,0.5h0.3c0.4-0.1,0.8,0,1,0.4v0.2
					c0.2,0.4,0.7,0.6,1.1,0.5h0.2c0.4-0.1,0.8,0.1,1,0.5l0,0c0.2,0.4,0.2,0.9,0,1.3l-6,13.5c-0.2,0.4-0.6,0.6-1,0.8l0,0
					c-0.4,0.2-0.9,0-1.1-0.3c0,0,0,0,0-0.1L103.3,366.8z"/>
				<line class="st29" x1="103.2" y1="358.1" x2="100.3" y2="364.6"/>
				<line class="st29" x1="106.1" y1="351.6" x2="104.5" y2="355.2"/>
				<line class="st29" x1="108.1" y1="351.4" x2="103.9" y2="360.8"/>
				<line class="st29" x1="103.1" y1="362.6" x2="101.8" y2="365.4"/>
				<line class="st29" x1="109.3" y1="353.1" x2="107" y2="358.1"/>
				<line class="st29" x1="105.5" y1="361.4" x2="104.6" y2="363.4"/>
				<line class="st29" x1="104.1" y1="356.1" x2="103.7" y2="356.9"/>
				<g class="st30">
					<path class="st31" d="M43.9,353.6c-3.4-6.7-4.3-14.7-1.3-21.7l1.1-2.4c-4.3,11.4,1.1,25.4,12.9,30.3c9.9,4,19.1,2.4,27.8-5.6
						c1.6-1.8,4-2.4,6.3-1.8c2.4,0.7,4.3,2.4,6.7,2.9h1.1c0.3-0.1,0.5-0.4,0.8-0.6c1.9-2.1,3.2-4.6,3.9-7.4c0.1,0.1,0.2,0.3,0.2,0.5
						c0.8,2-0.6,3.9-1.4,5.7s-1.9,4.1-2.9,6.2s-1.3,4-3.1,4.6s-3.5-0.9-5.1-1.4c-4.2-1.1-8.8,0.5-12.7,2.2c-4.3,2.1-9.1,3-13.8,2.6
						C55.6,366.9,47.8,361.6,43.9,353.6z"/>
				</g>
				<path class="st6" d="M368.6,359.9c0,1.8-12.1,3.2-27,3.2s-26.9-1.4-26.9-3.2s12.1-3.1,26.9-3.1S368.6,358.2,368.6,359.9z"/>
				<path class="st0" d="M369.1,350.6c2.6-4.9,3.4-10.9,1.3-16.1c-1.1-3.2-3-6-5.5-8.2c-2.3-1.8-4.9-3.1-7.7-3.9
					c-4.8-1.5-10.1-1-14.5,1.4c-3.6,2.1-6.4,5.2-8.1,9c-1.7,3.6-2.5,8.1-6.2,10.4c-1.1,0.6-2.8,0.9-3.3,2.1s0.4,3,1,4.3
					s1.3,3.1,2,4.6s0.9,3,2.2,3.5s2.7-0.6,3.8-0.9c3.2-0.8,6.6,0.5,9.4,1.8c3.2,1.5,6.7,2.3,10.2,2.1
					C360.2,360.3,366.1,356.4,369.1,350.6z"/>
				<path class="st5" d="M325.8,351c0,0,10.2-4.7,15.1-7.4c1.6-0.8,3-1.8,4.4-2.9c3-2.5,2.7-4.5,1.5-5.2s-3.2,0.8-3.3,3.1
					c0.2,1.7,1,3.2,2.3,4.3c2,1.5,5.1,1.2,7.1,0s1.3-3.1-1-3s-6,3.3-5,6c0.5,1.4,1.6,2.5,2.9,3.2c1.3,0.6,2.6,0.7,4,0.5
					c2.3-0.7-0.1-3-1.3-3.3c-2.8-0.7-5.7-0.4-8.3,0.6c-6.2,2.3-11,4.3-17.2,6.7"/>
				
					<rect x="325.6" y="346" transform="matrix(0.9212 -0.3891 0.3891 0.9212 -111.1468 154.6176)" class="st3" width="1.1" height="11.4"/>
				<path class="st24" d="M324.9,359.5c0.1-0.3,0.5-0.4,0.8-0.3c0,0,0,0,0,0h0.1c0.3,0.1,0.6,0,0.8-0.3v-0.2
					c0.2-0.3,0.6-0.3,0.9-0.2c0.2,0.1,0.6-0.1,0.8-0.3l0.2-0.5c0.1-0.1,0.1-0.4,0-0.5l-4.4-10.4c0-0.2-0.2-0.3-0.4-0.4h-0.5
					c-0.3-0.1-0.6,0.1-0.7,0.4c-0.1,0.3-0.5,0.5-0.8,0.4h-0.2c-0.3-0.1-0.6,0.1-0.7,0.4h-0.1c-0.2,0.2-0.4,0.3-0.7,0.3h-0.2
					c-0.3-0.1-0.6,0.1-0.8,0.3l0,0c-0.1,0.3-0.1,0.6,0,0.9l4.3,10.1c0.1,0.3,0.4,0.6,0.7,0.7l0,0c0.3,0.1,0.7,0,0.8-0.3c0,0,0,0,0,0
					L324.9,359.5z"/>
				<line class="st29" x1="325.1" y1="353" x2="327.2" y2="357.9"/>
				<line class="st29" x1="323.1" y1="348.2" x2="324.2" y2="350.8"/>
				<line class="st29" x1="321.6" y1="348" x2="324.6" y2="355"/>
				<line class="st29" x1="325.1" y1="356.3" x2="326" y2="358.4"/>
				<line class="st29" x1="320.7" y1="349.2" x2="322.3" y2="352.9"/>
				<line class="st29" x1="323.3" y1="355.4" x2="324" y2="356.9"/>
				<line class="st29" x1="324.5" y1="351.5" x2="324.7" y2="352.1"/>
				<g class="st30">
					<path class="st31" d="M369.1,350.6c2.6-4.9,3.4-10.9,1.3-16.1c-0.2-0.6-0.5-1.2-0.8-1.8c3.1,8.5-1.1,18.8-10,22.2
						s-14.1,1.5-20.5-4.5c-1.2-1.3-3-1.9-4.7-1.4c-1.7,0.4-3.2,1.6-4.9,2c-0.3,0.1-0.5,0.1-0.8,0c-0.3-0.1-0.5-0.3-0.6-0.5
						c-1.5-1.5-2.4-3.4-2.8-5.5c-0.1,0.1-0.2,0.2-0.2,0.3s0.4,3,1,4.3s1.3,3.1,2,4.6s0.9,3,2.2,3.5s2.7-0.6,3.8-0.9
						c3.2-0.8,6.6,0.5,9.4,1.8c3.2,1.5,6.7,2.3,10.2,2.1C360.2,360.3,366.1,356.4,369.1,350.6z"/>
				</g>
				<path class="st32" d="M167.8,110.8c-7.7,10.4-15.1,23.3-14.9,47"/>
				<path class="st32" d="M189,89c-1.5,1-2.8,2.2-3.9,3.6"/>
				<path class="st6" d="M206.8,386.7c0,3.6-16,6.5-35.7,6.5s-35.7-2.9-35.7-6.5s16-6.5,35.7-6.5S206.8,383.1,206.8,386.7z"/>
				<path class="st33" d="M194.7,371.7h-31.2l15.5-5.1h31.6v0.4l-15,4.6L194.7,371.7z"/>
				<path class="st34" d="M194.2,371.2h-30.4l15.2-4.6h30.9l-14.8,4.4L194.2,371.2z"/>
				<path class="st35" d="M191.8,370.4h-20.3l10.2-3h20.5l-9.9,2.9L191.8,370.4z"/>
				<path class="st33" d="M210.6,366.6H179l4-17.4c0.2-0.6,0.8-1,1.5-1H213c0.7-0.1,1.4,0.4,1.5,1.1c0,0.2,0,0.4-0.1,0.6
					L210.6,366.6z"/>
				<path class="st36" d="M209.9,366.6H179l4-17.4c0.2-0.6,0.8-1,1.5-1h27.7c1,0,1.8,0.8,1.5,1.7L209.9,366.6z"/>
				<path class="st34" d="M208.6,365.5h-27.9l3.6-16.2h27.9L208.6,365.5z"/>
				<polyline class="st37" points="205.6,362.4 205.4,363.4 204.4,363.4 				"/>
				<line class="st38" x1="202.1" y1="363.4" x2="186.9" y2="363.4"/>
				<polyline class="st37" points="185.8,363.4 184.8,363.4 185,362.4 				"/>
				<path class="st39" d="M185.6,359.9l1.9-8.5h18.2"/>
				<polyline class="st37" points="207,351.4 208,351.4 207.8,352.4 				"/>
				<line class="st40" x1="207.3" y1="354.6" x2="205.9" y2="361.3"/>
				<line class="st41" x1="171.5" y1="369.6" x2="196.9" y2="369.6"/>
				<line class="st42" x1="176.2" y1="368.3" x2="201.6" y2="368.3"/>
				<path class="st43" d="M168.9,368c1.1-0.9,2.9-1.1,4.3-1.3c1.4-0.1,2.7-0.2,4.1-0.1c0.8,0.1,0.6,1-0.1,1.1
					c-0.8,0.1-1.5,0.1-2.3,0c-0.5,0.7-1.3,1.2-2.1,1.4c-0.8,0.2-1.7,0.3-2.5,0.3c-0.3,0-0.6-0.1-0.6-0.3"/>
				<line class="st44" x1="202.2" y1="357.5" x2="196.4" y2="351.7"/>
				<path class="st1" d="M202.2,357.4h0.4c0.1,0.1,0.1,0.3,0,0.4h-0.4c-0.1,0-0.2-0.1-0.2-0.2C202,357.5,202.1,357.4,202.2,357.4z"
					/>
				<path class="st1" d="M200,359.4h0.4c0.1,0.1,0.1,0.3,0,0.4H200C199.9,359.7,199.9,359.5,200,359.4z"/>
				<path class="st1" d="M194,353.4h0.4c0.1,0.1,0.1,0.3,0,0.4H194c-0.1,0-0.2-0.1-0.2-0.2C193.8,353.5,193.9,353.4,194,353.4z"/>
				<path class="st1" d="M196.2,351.5c0.1-0.1,0.3-0.1,0.4,0c0.1,0.1,0.1,0.3,0,0.4s-0.3,0.1-0.4,0c0,0,0,0,0,0
					C196.1,351.8,196.1,351.6,196.2,351.5z"/>
				<path class="st44" d="M194.2,353.6c1.7-0.7,3.7-0.4,5,0.9c1.3,1.3,1.7,3.4,1,5.1"/>
				<path class="st1" d="M195.5,355.1l3.7-0.6l-2.8,3.1c-0.3-0.3-0.9-0.3-1.2,0c-0.3,0.3-0.4,0.8-0.1,1.1c0,0,0,0,0.1,0.1
					c0.3,0.3,0.9,0.3,1.2,0c0.3-0.3,0.3-0.9,0-1.2l0,0l0,0l3-3c0,0-0.5,2.6-0.6,3.9c-1.5,0.9-3.1,1.8-4.5,2.8
					c-0.2,0.1-1.8-1.5-1.7-1.6S195.5,355.1,195.5,355.1z"/>
				<path class="st1" d="M191.4,359.5l0.7-0.6h0.4l2.5,2.5c0.1,0.2,0.1,0.3,0,0.4l0,0l-0.6,0.6c-0.1,0.1-0.3,0.1-0.4,0l-2.6-2.5
					C191.3,359.8,191.3,359.6,191.4,359.5z"/>
				<path class="st45" d="M188.5,351.4c0,0.5-0.4,0.9-0.9,0.9c-0.5,0-0.9-0.4-0.9-0.9c0-0.5,0.4-0.9,0.9-0.9
					C188.1,350.5,188.5,350.9,188.5,351.4z"/>
				<path class="st45" d="M185.7,363.4c0,0.5-0.4,0.9-0.9,0.9c-0.5,0-0.9-0.4-0.9-0.9c0-0.5,0.4-0.9,0.9-0.9h0
					C185.3,362.5,185.7,362.9,185.7,363.4z"/>
				<circle class="st45" cx="205.3" cy="363.4" r="0.9"/>
				<path class="st45" d="M208.7,351.4c0,0.5-0.4,0.9-0.9,0.9c-0.5,0-0.9-0.4-0.9-0.9c0-0.5,0.4-0.9,0.9-0.9h0
					C208.3,350.5,208.7,350.9,208.7,351.4z"/>
				<path class="st46" d="M145.7,370.2c-0.6,2.2-0.4,3.9-0.9,6.2s-0.8,7.1,1.4,9.7c1.4,1.6,3.4,2.6,5.5,2.6c2.1,0,4.2-0.4,6.2-0.4
					s5.7,0.3,7.1,0.4c6.2,0.2,9.7-1.2,15.8-1.9c5.4-0.8,10.8-1.9,16.1-3.3c15.9-4.3,10.1-10.7,6.6-11.7l-4.2-1.4l-4.6,1.3h-16.3
					c-3.2-0.1-6.4-0.5-9.6-1"/>
				<path class="st43" d="M192,361.4l1,0.7l2.2,1.1l2.2,0.9l0.5,0.2c0.1,0.2,0.2,0.5,0.2,0.7c0.5,2.3,1,4.7,0.3,7.2
					c-0.5-0.8-1-1.7-1.3-2.6c0-0.5-0.2-1-0.6-1.3l-0.7-0.5c-0.8-0.5-1.5-1.1-2-1.8l-0.3-0.6v-0.2c-0.1-0.1-0.1-0.2-0.2-0.2l-2.7-1.8
					"/>
				<path class="st0" d="M148.4,370.2l-4-3.1c-3-2.6-5.7-5.3-6-7.3c-0.7-4.5-0.2-17.8,0.2-24.1c0-0.4,0-0.7,0.1-1.1
					c0.3-5.9,3.5-8.5,5.1-9.5c0.8,7.7,2.7,25.2,2.8,26S148.4,370.2,148.4,370.2z"/>
				<path class="st47" d="M148.4,370.2l-4-3.1c-0.1-4.9-1.9-3.9-3.9-12.5c-1.5-6.8-1.7-13.8-0.6-20.7l4.9,0.7
					c0.8,7.7,1.7,15.9,1.8,16.5S148.4,370.2,148.4,370.2z"/>
				<path class="st43" d="M151.5,321.6c0.6-2,0.8-4,0.6-6.1c-0.5-2.7-2.1-7.4-1.5-11s5.1-6.5,9.8-6s6.1,5,6.9,7.6
					c0.7,2.9,0.8,5.9,0.5,8.8c-0.1,1.7-0.9,3.3-2.2,4.4c-0.8,0.4-3.7-0.2-4.3,0.4s-0.9,3.9-0.9,3.9"/>
				<path class="st47" d="M149.3,324.5c0.1-1,0.4-2,1-2.9c0.8-0.7,6-0.7,7.6-0.5c2.1,0.5,4.1,1.3,6,2.4c0.5,0.4-0.5,2.4-0.5,2.4
					L149.3,324.5z"/>
				<path class="st0" d="M151.7,317.2c0,0,6.6,0.5,7.8,0s3.1-1.8,3.2-4s-0.3-3,0.6-4.2s1.6-0.8,1.7,0.3s0.2,3.4,0.5,3.5
					s0.9-1.3,0.8-3.6c-0.1-1.6-0.4-3.3-1-4.8c-0.6-1.3-0.9-1.2-1.4-1.5s1.2-0.3,2.3-2.1s0.6-5.2-2.9-5.2c-6.1,0-12.5,1.2-12.7,5.7
					c0,0-2.1-0.3-2.2,3.8s2.6,9.1,2.8,10.4S151,316.9,151.7,317.2z"/>
				<path class="st0" d="M169.9,365.4c0.3,2.1,2.1,5.3,0.9,5.7c-1.7,0.2-3.3,0.1-5-0.1h-0.2l-6.8-0.6c-8.3-0.4-12.6,1.3-13.4,0.8
					s-0.4-0.9-0.3-1.7c0.3-1.8,0.4-3.7,0.1-5.5c-0.2-1.6-0.5-3.4-0.9-5.6c-1.3-7.3-4-18.5-4.4-25.2c-0.7-10.5,10.6-9.5,10.6-9.5
					c14.4-0.9,21.1,3.2,21.9,9.4c0,0.4,0.1,0.9,0.1,1.4c0.4,6.4-1.6,16.6-2.5,24.3C169.8,361,169.8,363.2,169.9,365.4z"/>
				<path class="st47" d="M169.9,365.4c0.3,2.1,2.1,5.3,0.9,5.7c-1.7,0.2-3.3,0.1-5-0.1c2.2,0.1,2.6-1.6,2.1-2.7
					c-1-2.1-1.4-4.5-1.4-6.8c0.1-3.1,1.3-10,1.9-16.5c0.4-3.8,0.4-7.6,0.1-11.4c0.3,0.7,1.3,1.7,4.1,2.3c0,6.4-1.7,15.8-2.6,22.9
					C169.8,361,169.8,363.2,169.9,365.4z"/>
				<path class="st0" d="M162.9,325.1c0,0,6.6-0.5,9.5,1.9s6.7,26.5,6.7,26.5l-6.1,2.6c0,0-6.7-16.8-8.5-16.6"/>
				<path class="st0" d="M172.7,355.4c2.1,6.7,19.2,9.2,19.2,9.2l0.9-3.1c0,0-10.4-7.7-14.2-8.8"/>
				<path class="st48" d="M194.7,371.9l2.4,0.2h2.2c0.2-0.1,0.1-0.2,0-0.3L194.7,371.9c-0.1-0.1-0.1,0.1,0,0.1L194.7,371.9z"/>
				<path class="st49" d="M190.8,384.7c-5.7-0.3-11.3,1.1-16.9,1.9s-11.5,1.1-16.7-1.2c-0.4-0.2-0.8-0.4-1.3-0.4
					c-0.6,0.1-1.1,0.3-1.5,0.7c-0.9,0.7-1.9,1.2-3,1.5c-1.6,0.3-2.1-0.1-3.6-0.4h-0.5c-0.1,0-0.1,0-0.1,0.1l0,0
					c1.3,1.1,2.9,1.7,4.5,1.7c2.1,0,4.2-0.4,6.2-0.4s5.7,0.3,7.1,0.4c6.2,0.2,9.7-1.2,15.8-1.9c2.5-0.3,6.3-1,9.8-1.8L190.8,384.7z"
					/>
				<path class="st0" d="M350.3,159.5c-0.9-0.6-1.8-1-2.8-1.3c-1.4-0.4-0.7-1.4-2.1-1.2s-9.3,1.8-13.2,2.9h-0.1c-2,0.5-2.7,0-2.7,0
					l-0.8,0.9v0.3c-0.7,0.6-1.1,1.4-1.2,2.3c0,0.2-0.2,1-0.3,1.8c-0.2,0.6-0.1,1.2,0.2,1.7h0.1c1.2,0.3,2.5,0.5,3.7,0.5
					c3.8-0.1,7.6-0.5,11.4-1.1l7.1-1c0.7,0,1.3-0.3,1.8-0.7c0.4-0.4,0.7-0.9,0.8-1.5C352.6,161.6,351.6,160.4,350.3,159.5z"/>
				<path class="st47" d="M331.7,165.2c-0.1,0.3-0.2,0.6-0.4,0.8l-0.3,0.3c-2.9,2.9-6.5,0-8.7-1.7s-6.6-6.7-9.4-9.4
					c-0.1-0.1-1.1-1-1-1.1l2.6-3.4c0,0,7,6.3,11,7.7c1.7,0.5,3.3,1.1,4.8,2l0.5,0.2C331.8,161.9,332.2,163.6,331.7,165.2z"/>
				<path class="st47" d="M342.6,166.4c-3.8,0.6-7.6,1-11.4,1.1c-1.2,0-2.5-0.2-3.7-0.5h-0.1c-2.7-1.1-4.3-3.7-0.2-1.7
					c0.7,0.4,1.5,0.7,2.3,0.9l1.5,0.2h0.3C335.1,166.3,346.2,157.9,342.6,166.4z"/>
				<path class="st0" d="M360.8,182.4c-0.9,2.2-1.1,4.5-0.6,6.8c1,4.5-0.1,4.8-0.1,4.8s-6.1,3.9-11.1,5.4s-6.8,1-6.7-3l0,0v-0.7
					c0.2-9-1.7-9.4-2.1-19.5s-0.4-16.5,2.9-18.1s8.6-3.1,15.6-1.4c5.3,1.2,7,2.6,7,6.5c0,1.6-0.2,3.3-0.6,4.9
					C364.1,173,362.7,177.8,360.8,182.4z"/>
				<path class="st47" d="M360.8,182.4c-0.9,2.2-1.1,4.5-0.6,6.8c1,4.5-0.1,4.8-0.1,4.8s-6.1,3.9-11.1,5.4l-4.8-0.4l-1.9-1.5v-1.9
					c2.4,0.2,4.8,0.2,7.2-0.2c2.4-0.3,4.7-0.9,7-1.7c1.2-0.5,1.9-1.7,1.7-3c-0.4-2.1-0.6-4.2-0.7-6.3c0.3-2.6,0.9-5.3,1.7-7.8
					c0.6-1.8,0.8-3.8,0.7-5.7c-0.2-2.2-0.2-4.3,0-6.5l3.7-2l2.1,0.7c0,1.6-0.2,3.3-0.6,4.9C364.1,172.9,362.7,177.7,360.8,182.4z"/>
				<path class="st0" d="M344.8,141.4c-1.5-1.8-2.2-4-2.1-6.3c0.2-2.2,0.9-4.3,4.2-5.1c1.7-0.4,4.3,0.9,6.1,2.9
					c5.6,0.5,7.5,4.4,7.7,8.8l-6.6-1.5L344.8,141.4z"/>
				<path class="st43" d="M359.5,144.2c-0.1,5.1-4.5,8-4.5,8l0.3,4.6l-2.9,1.9l-2.1,1.3l-1.1-2.4l-0.2-3c-0.1-0.7-0.5-1.2-1.2-1.4
					c-1.1-0.3-2.1-0.8-2.9-1.7v-0.2h-0.1c-1.9-2.6-2.6-12.6,4-15.5S359.6,139.1,359.5,144.2z"/>
				<path class="st24" d="M348,160.3c0,0-2.9,18-1.8,26.6l2,3.7l2.2-4c0,0-2.1-15-0.9-26L348,160.3z"/>
				<path class="st24" d="M347.6,158.8v0.2c0.1,0.4,0.2,0.9,0.4,1.3l0,0l1.5,0.3l1.3-0.9l-1.5-1.8h-0.2
					C348.5,158,348,158.3,347.6,158.8L347.6,158.8z"/>
				<path class="st47" d="M355.3,154.7c0.6,0.4,1,0.8,1.4,1.4l-1.8,1l-4.5,3.1l-1.1-2.3C351.2,156.6,353.2,155.5,355.3,154.7z"/>
				<path class="st47" d="M349.3,157.9c-0.7,0.3-1.3,0.8-1.7,1.5c-0.4-1.2-0.4-2.5,0.2-3.6c0.4-0.4,0.8-0.7,1.2-0.9L349.3,157.9z"/>
				<g class="st50">
					<path class="st51" d="M328.2,282.2c0,2.1,13,3.8,29,3.8s29-1.7,29-3.8s-12.9-3.9-29-3.9S328.2,280.1,328.2,282.2z"/>
				</g>
				<path class="st43" d="M343.5,277.1c-0.3,0.7-0.4,1.4-0.5,2.2c0.1,0.9,2.9,0.9,3.2,0.5c0.3-1.5,0.5-3,0.5-4.5"/>
				<path class="st52" d="M346.9,280.6c0,0.8-0.1,1.5-0.2,2.3h-3.2l-0.2-0.5c-0.6,0.3-1.2,0.4-1.8,0.5h-2.7c-2,0-3.1-0.2-3.1-0.6
					s2.1-1.3,2.7-1.3s3.7-0.9,4.1-1.8s0.2-0.8,0.5-0.7c0.3,0.1,0.5,0.3,0.6,0.5c0.3,0.6,0.9,1,1.6,0.9c0.4,0,0.8-0.2,1.1-0.5
					C346.3,279.4,346.9,279.6,346.9,280.6z"/>
				<path class="st43" d="M374.5,274.1c0.3,1.1,0.6,2.1,1,3.1c0.4,0.8,3-0.2,3.1-0.7c-0.3-1.5-0.7-2.9-1.2-4.3"/>
				<path class="st52" d="M379.6,276.9l0.8,2.5l-2.4,1.5l-0.5-0.4c-0.3,0.5-0.8,1-1.3,1.3c-0.7,0.5-1.5,0.8-2.4,1
					c-2.2,0.5-3.9,0.3-4,0s2.2-2,2.7-2.2c1.4-0.5,2.3-1.8,2.5-3.2c0-0.7-0.2-0.8,0.2-0.9c0.3,0,0.5,0.1,0.7,0.3
					c0.5,0.4,1.3,0.5,1.9,0.2c0.3-0.2,0.6-0.5,0.8-0.9C379.1,276.2,379.4,276.5,379.6,276.9z"/>
				<path class="st46" d="M363.3,211.9c0,0,4.4-10.4-3.2-17.9c0,0-6.5,2.9-11.6,3.2c-2.1,0.2-4.1,0.2-6.2-0.1
					c-0.6,6.4-0.7,12.9-0.4,19.4L363.3,211.9z"/>
				<path class="st46" d="M347.1,278.1h-0.4c-1.4,0.1-2.8,0-4.2-0.3v-0.7c0.1-11.9-1.3-31.3-1.6-37.5v-1.1c0.5-4.5,5.1-3.9,7.1,0.2
					c0.5,1,0.8,2.1,1.1,3.2c0.4,1.4,0.6,2.9,0.7,4.4C350.7,256.6,347.9,270.5,347.1,278.1z"/>
				<path class="st46" d="M355.1,216.7c0,0.1,0,0.3-0.1,0.4c-1,5.4-4.3,20-5.9,24.7l0,0c-0.4,0.8-1.2,1.3-2.1,1.5
					c-2.3,0.6-5.8-0.3-6.1-4.9v-1.7c0.4-3.8,1.2-24.7,1.4-26.7s0.5-5,1.5-5.3C349.2,202.9,356.5,209.1,355.1,216.7z"/>
				<path class="st49" d="M350.2,238.2c1.7-6.3,4-16.7,4.8-21.1l-1.1-5l-5.4-6.5l-3.1-0.5c0,0,0.5,9.9,4.1,17.7
					c0,0-0.1,11.1-1.5,15.9l-1.3,3.6l0.3,1.1c1.6,4.6,2.1,9.4,1.4,14.2c-1.1,8.4-1.7,20.5-1.7,20.5h0.4c0.7-7.4,3.4-20.6,2.8-30.7
					c0-0.4,0-0.7-0.1-1.1C349.5,243.6,349.6,240.9,350.2,238.2L350.2,238.2z"/>
				<path class="st46" d="M365.7,238.4c-3.6-3.4-8.6-1.8-6.3,3.5s10.3,21.2,14.5,32.3l0.2,0.7c1.5-0.3,3-0.8,4.4-1.4
					c-2-7.2-3.4-19.7-7.6-28.3C369.6,242.6,367.9,240.3,365.7,238.4z"/>
				<path class="st46" d="M345.4,205.1c-0.7-8.3,9.7-2.8,14.7,0c2.1,1.1,2.9,3.5,3.2,5.7s3,24.7,3.5,28.8c1.2,9.2-6.8,4.2-7.6,1.6
					C357.3,234.7,345.8,209.7,345.4,205.1z"/>
				<path class="st49" d="M366.1,233.8c0,0,0.3,4.5,4.1,9.9c0,0-6.1-2.8-6.4-3.2c-0.6-1.7-1.1-3.4-1.3-5.2
					C362.6,234.9,366.1,233.8,366.1,233.8z"/>
				<path class="st1" d="M294.9,131c4.7-2.8,6-5.5,6-5.5c0.1-0.6,0.1-1.2,0.1-1.8c0-2.2-0.7-5.9-4.5-7.3c-5.7-2.1-9.3,1.8-13.2-5
					l0,0C284.3,117.8,283.3,131.1,294.9,131z"/>
				<path class="st53" d="M294.9,131c4.7-2.8,6-5.5,6-5.5c0.1-0.6,0.1-1.2,0.1-1.8c-13,12.3-17.4-10.5-17.7-12.2
					C284.3,117.8,283.3,131.1,294.9,131z"/>
				<g>
					<path class="st53" d="M283.3,111.5v0.3l0.4,0.7c0.4,0.8,0.9,1.6,1.5,2.3c0.9,1,1.9,1.8,3,2.5c0.6,0.4,1.3,0.7,2,0.9l2.3,0.4
						l2.3,0.4c0.8,0.2,1.5,0.5,2.1,1c1.2,0.8,2,1.9,2.3,3.3c0.2,0.6,0.2,1.1,0.2,1.7c0,0.4-0.1,0.8-0.2,1.2c0,0.3-0.2,0.6-0.2,0.8
						l0,0c0-0.2,0.1-0.5,0.1-0.8c0.1-0.4,0.1-0.8,0-1.2c0-0.5,0-1.1-0.2-1.6c-0.4-1.2-1.2-2.3-2.3-3c-0.6-0.4-1.2-0.7-1.9-0.9
						l-2.3-0.4l-2.3-0.4c-0.8-0.2-1.5-0.5-2.1-1c-1.2-0.7-2.2-1.6-3-2.7c-0.6-0.8-1.1-1.6-1.4-2.5c-0.2-0.2-0.3-0.4-0.3-0.7V111.5z"
						/>
				</g>
				<g>
					<path class="st53" d="M283.3,111.5c0.3,1.2,0.7,2.3,1.2,3.4c0.5,1.1,1.2,2.2,2,3.2c0.8,1.1,1.8,2.1,3,2.8l1.9,1l1.9,1
						c1.1,0.6,2.1,1.5,2.9,2.5c0.5,0.8,0.8,1.7,0.9,2.6v0.7c0-0.2-0.1-0.4-0.1-0.7c-0.3-0.8-0.6-1.7-1.1-2.4
						c-0.8-0.9-1.7-1.6-2.8-2.2c-0.6-0.4-1.2-0.7-1.9-0.9l-2-1.1c-1.2-0.8-2.2-1.8-3.1-3c-0.7-1-1.3-2.1-1.8-3.3
						C283.8,114,283.4,112.7,283.3,111.5z"/>
				</g>
				<path class="st0" d="M370.3,214.5c-0.3,0-0.6,0-0.9-0.2c-3.3-1.3-4.2-8.8-4.3-9.7v-1l0.9,0.3c0.9,0.3,8.1,2.7,8.8,6.2
					c0.2,1.2-0.3,2.4-1.3,3.1C372.7,214.1,371.5,214.5,370.3,214.5z M366.5,205.5c0.4,2.5,1.4,6.9,3.4,7.7c1,0.1,2-0.2,2.6-1
					c0.7-0.4,1.1-1.1,1-1.9C373.1,208.3,368.9,206.4,366.5,205.5z"/>
				
					<rect x="328.8" y="117.9" transform="matrix(0.749 -0.6626 0.6626 0.749 -27.7345 262.7656)" class="st54" width="8.2" height="100.2"/>
				
					<rect x="294.6" y="128" transform="matrix(0.749 -0.6626 0.6626 0.749 -10.7869 230.4543)" class="st55" width="8.2" height="2.9"/>
				
					<rect x="328.8" y="117.9" transform="matrix(0.749 -0.6626 0.6626 0.749 -27.7345 262.7656)" class="st19" width="8.2" height="100.2"/>
				
					<rect x="294.6" y="128" transform="matrix(0.749 -0.6626 0.6626 0.749 -10.7869 230.4543)" class="st24" width="8.2" height="2.9"/>
				<polygon class="st18" points="365.3,206 363,208 296.6,133 294.7,130.9 297,128.8 298.9,130.9 				"/>
				
					<rect x="361.4" y="204.1" transform="matrix(0.749 -0.6626 0.6626 0.749 -44.0344 293.6204)" class="st0" width="8.2" height="1.6"/>
				<path class="st43" d="M357.2,196.9l-2.2-1.8c0,0-0.8,1.1-1.2,1.2h-0.4c-0.6,0-1.3,0.3-1.8,0.6c-0.5,0.2-1.2,0.4-1.2,0.6
					c0.1,0.3,0.4,0.5,0.7,0.5h0.2v0.2c0.2,0.4,2.3,3.4,4.4,0.2C356.1,197.8,356.6,197.3,357.2,196.9z"/>
				<path class="st0" d="M359.1,168.4c1,2.9,2,7.6,4,11.6v0.2l0,0c0.1,0.1,0.2,0.3,0.2,0.4c0.5,1.5,1.9,2.4,3.4,2.4h2.3
					c0.6-0.1,1.1-0.2,1.3-0.5l0,0v-0.3l0,0V182c0-0.2,0-0.3,0.1-0.5v-0.3c0-1-0.2-2-0.2-2.4c-0.3-3.3-3.6-13.7-4.7-18
					c-0.2-0.6-0.6-1.2-1.1-1.6c-0.4-0.4-0.9-0.6-1.5-0.7h-0.3c-1.4,0.1-2.4,1.2-3.1,2.6c-0.5,0.9-0.8,1.9-0.9,2.9
					C358.5,165.5,358.6,167,359.1,168.4z"/>
				<path class="st0" d="M354.1,195.7l1.9,1.6l0,0l0.4,0.4c0,0,3.7-3.2,6.6-5.9s5.4-5.3,7-8.7l0.3-0.5l0,0v-0.3l0,0V182
					c0-0.2,0-0.3,0.1-0.5v-0.3c0-0.7-0.3-1.4-0.7-1.9c0-0.1-0.1-0.1-0.1-0.2l-0.8-0.5l-0.5-0.2c-1.4-0.4-2.9-0.2-4.1,0.5
					c-0.1,0.2-0.2,0.3-0.4,0.4l-0.7,0.9c-0.8,1-1.5,2.1-2,3.3C359.4,187.6,354.1,195.7,354.1,195.7z"/>
				<path class="st0" d="M343.9,138c0,0,4.4-0.8,7.7,1c1.7,0.9,3.8,1,5.6,0.2l1.2-0.6c-0.4-0.6-0.9-1.1-1.4-1.6
					c-0.6-0.6-1.2-1.1-1.9-1.6l-3.7-1.2c-0.7-0.2-1.5-0.2-2.2,0c-0.6,0-1.2,0.2-1.7,0.6l-1.7,1L343.9,138z"/>
				<path class="st43" d="M312.5,153.2c0,0-3.1-2.7-3.2-4.6s1.3-3.1,2.2-2c1,1.4,1.5,3.2,1.3,4.9l0.6,0.6L312.5,153.2z"/>
				<path class="st47" d="M356,197.3L356,197.3l0.4,0.4c0,0,3.7-3.2,6.6-5.9s5.4-5.3,7-8.7l0.3-0.5l0,0v-0.3l0,0V182
					c0-0.2,0-0.3,0.1-0.5v-0.3c0-1-0.2-2-0.2-2.4c-0.3-3.3-3.6-13.7-4.7-18c-0.2-0.6-0.6-1.2-1.1-1.6c-0.4-0.4-0.9-0.6-1.5-0.7h-0.3
					c0.7,1.1,1.7,3.4,2.8,7.9c1.5,6,2.5,9.7,2.9,12c0.2,0.8,0.3,1.7,0.2,2.5c-0.2,0.8-0.6,1.5-1.1,2.2
					C365,187.3,358.6,195.5,356,197.3z"/>
				<path class="st0" d="M355,152.2c-0.3-1.2-0.5-2.5-0.5-3.7c0,0,2.2-1.6,2.2-3.1s-2.4,0-2.4,0c-0.3-1-0.5-2-0.6-3
					c-0.2-2.5,3.9-4.2,3.9-4.2l2.1,1.5l1,2C360.7,141.7,360.8,150.2,355,152.2z"/>
				<path class="st1" d="M279.6,211.1l-26.2,15.1c-0.3,0.2-0.8,0.1-1-0.2c0,0,0,0,0-0.1l-2.1-3.6c-0.2-0.3-0.1-0.8,0.2-1l26.3-15.1
					c0.3-0.2,0.8-0.1,1,0.2c0,0,0,0,0,0.1l2.1,3.6C280.1,210.5,279.9,210.9,279.6,211.1z"/>
				<g class="st30">
					<g>
						<path class="st10" d="M276.2,208H276l-0.5-1.1h0.2l0.5,1C276.3,207.9,276.3,208,276.2,208z"/>
						<path class="st10" d="M275.4,207.6h-0.1l-0.2-0.4h0.1L275.4,207.6z"/>
					</g>
					<g>
						<path class="st10" d="M275.3,208.5h-0.2l-0.6-1h0.2L275.3,208.5C275.4,208.4,275.3,208.5,275.3,208.5z"/>
						<path class="st10" d="M274.5,208.2h-0.1l-0.3-0.4h0.2l0.2,0.5L274.5,208.2z"/>
					</g>
					<g>
						<path class="st10" d="M274.4,209.1h-0.2l-0.6-1h0.2L274.4,209.1z"/>
						<path class="st10" d="M273.6,208.7h-0.1l-0.3-0.5h0.1l0.3,0.4V208.7z"/>
					</g>
					<g>
						<path class="st10" d="M273.4,209.6h-0.1l-0.6-1h0.2l0.6,1C273.5,209.5,273.5,209.6,273.4,209.6z"/>
						<path class="st10" d="M272.6,209.2L272.6,209.2l-0.3-0.4h0.1l0.3,0.4H272.6z"/>
					</g>
					<g>
						<path class="st10" d="M272.5,210.1h-0.1l-0.6-1l0.2-0.2l0.6,1.1L272.5,210.1z"/>
						<path class="st10" d="M271.7,209.7c0,0.1,0,0-0.1,0l-0.2-0.4h0.1l0.2,0.5V209.7z"/>
					</g>
					<g>
						<path class="st10" d="M271.6,210.6h-0.2l-0.5-1h0.2L271.6,210.6C271.7,210.5,271.7,210.6,271.6,210.6z"/>
						<path class="st10" d="M270.8,210.3h-0.1l-0.2-0.5h0.1l0.2,0.4V210.3z"/>
					</g>
					<g>
						<path class="st10" d="M270.7,211.2h-0.2l-0.6-1h0.2L270.7,211.2C270.8,211.1,270.7,211.1,270.7,211.2z"/>
						<path class="st10" d="M269.9,210.8h-0.1l-0.3-0.5h0.2l0.2,0.4L269.9,210.8z"/>
					</g>
					<g>
						<path class="st10" d="M269.8,211.7h-0.2l-0.6-1l0.2-0.2l0.6,1V211.7z"/>
						<path class="st10" d="M269,211.3h-0.1l-0.3-0.4h0.1l0.3,0.5V211.3z"/>
					</g>
					<g>
						<path class="st10" d="M268.8,212.2c0,0.1-0.1,0.1-0.1,0l-0.6-1h0.2l0.6,1H268.8z"/>
						<path class="st10" d="M268,211.9L268,211.9l-0.3-0.4h0.1l0.3,0.5L268,211.9z"/>
					</g>
					<g>
						<path class="st10" d="M267.9,212.8c-0.1,0-0.1,0-0.1-0.1v0l-0.6-1h0.2l0.6,1L267.9,212.8z"/>
						<path class="st10" d="M267.1,212.4H267l-0.2-0.5h0.1l0.2,0.4C267.2,212.3,267.1,212.4,267.1,212.4z"/>
					</g>
					<g>
						<path class="st10" d="M267,213.3h-0.2l-0.6-1.1h0.3l0.5,1C267.1,213.2,267.1,213.3,267,213.3z"/>
						<path class="st10" d="M266.2,212.9h-0.1l-0.2-0.4h0.1L266.2,212.9z"/>
					</g>
					<g>
						<path class="st10" d="M266.1,213.8h-0.2l-0.6-1h0.2L266.1,213.8C266.2,213.7,266.1,213.8,266.1,213.8z"/>
						<path class="st10" d="M265.3,213.5h-0.1l-0.3-0.4h0.2l0.2,0.5L265.3,213.5z"/>
					</g>
					<g>
						<path class="st10" d="M265.2,214.4H265l-0.6-1h0.2L265.2,214.4z"/>
						<path class="st10" d="M264.4,214h-0.1l-0.3-0.5h0.1l0.3,0.4V214z"/>
					</g>
					<g>
						<path class="st10" d="M264.2,214.9h-0.1l-0.6-1h0.2l0.6,1C264.3,214.8,264.3,214.9,264.2,214.9z"/>
						<path class="st10" d="M263.4,214.5L263.4,214.5l-0.3-0.4h0.1l0.3,0.4H263.4z"/>
					</g>
					<g>
						<path class="st10" d="M263.3,215.4h-0.2l-0.5-1l0.2-0.2l0.6,1.1L263.3,215.4z"/>
						<path class="st10" d="M262.5,215h-0.1l-0.2-0.4h0.1l0.2,0.5V215z"/>
					</g>
					<g>
						<path class="st10" d="M262.4,216h-0.2l-0.6-1h0.3L262.4,216C262.5,215.8,262.5,215.9,262.4,216z"/>
						<path class="st10" d="M261.6,215.6h-0.1l-0.2-0.5h0.1l0.2,0.4V215.6z"/>
					</g>
					<g>
						<path class="st10" d="M261.5,216.5h-0.2l-0.6-1h0.2L261.5,216.5C261.6,216.4,261.5,216.4,261.5,216.5z"/>
						<path class="st10" d="M260.7,216.1h-0.1l-0.3-0.4h0.2L260.7,216.1L260.7,216.1z"/>
					</g>
					<g>
						<path class="st10" d="M260.6,217h-0.2l-0.6-1l0.2-0.2l0.6,1V217z"/>
						<path class="st10" d="M259.8,216.6h-0.1l-0.3-0.4h0.1l0.3,0.5V216.6z"/>
					</g>
					<g>
						<path class="st10" d="M259.6,217.5h-0.1l-0.6-1h0.2l0.6,1H259.6z"/>
						<path class="st10" d="M258.8,217.2L258.8,217.2l-0.3-0.4h0.1l0.3,0.5L258.8,217.2z"/>
					</g>
					<g>
						<path class="st10" d="M258.7,218.1h-0.2l-0.5-1h0.2l0.6,1H258.7z"/>
						<path class="st10" d="M257.9,217.7h-0.1l-0.2-0.5h0.1l0.2,0.4C258,217.6,257.9,217.7,257.9,217.7z"/>
					</g>
					<g>
						<path class="st10" d="M257.8,218.6h-0.2l-0.6-1l0.3-0.2l0.5,1C257.9,218.5,257.9,218.6,257.8,218.6z"/>
						<path class="st10" d="M257,218.2h-0.1l-0.2-0.4h0.1L257,218.2z"/>
					</g>
					<g>
						<path class="st10" d="M256.9,219.1h-0.2l-0.6-1h0.2L256.9,219.1C257,219,256.9,219.1,256.9,219.1z"/>
						<path class="st10" d="M256.1,218.8c-0.1,0-0.1,0-0.1-0.1l-0.3-0.4h0.1L256.1,218.8z"/>
					</g>
					<g>
						<path class="st10" d="M256,219.7h-0.2l-0.6-1h0.2L256,219.7z"/>
						<path class="st10" d="M255.2,219.3h-0.1l-0.3-0.5h0.1l0.3,0.4V219.3z"/>
					</g>
					<g>
						<path class="st10" d="M255,220.2h-0.1l-0.6-1h0.2L255,220.2C255.1,220.1,255.1,220.2,255,220.2z"/>
						<path class="st10" d="M254.2,219.8L254.2,219.8l-0.3-0.4h0.1l0.3,0.4C254.3,219.8,254.3,219.8,254.2,219.8z"/>
					</g>
					<g>
						<path class="st10" d="M254.1,220.7c0,0.1-0.1,0-0.2,0l-0.5-1l0.2-0.2l0.6,1.1L254.1,220.7z"/>
						<path class="st10" d="M253.3,220.3h-0.1l-0.2-0.4h0.1l0.2,0.5V220.3z"/>
					</g>
					<g>
						<path class="st10" d="M253.2,221.3H253l-0.6-1h0.3L253.2,221.3C253.3,221.1,253.3,221.2,253.2,221.3z"/>
						<path class="st10" d="M252.4,220.9h-0.1l-0.2-0.5h0.1l0.2,0.4V220.9z"/>
					</g>
				</g>
				<path class="st6" d="M324.7,367.7c0,2.1-11.5,3.8-25.6,3.8s-25.7-1.7-25.7-3.8s11.5-3.9,25.7-3.9S324.7,365.5,324.7,367.7z"/>
				<path class="st43" d="M305.7,359.5c0,0,0.1,3.5,0.1,4.4s3,1,3.3,0.5c0.3-1.5,0.5-3.1,0.5-4.6"/>
				<path class="st52" d="M309.9,365.2c0,0.8-0.1,1.7-0.3,2.5h-3.3l-0.2-0.6c-0.6,0.3-1.2,0.5-1.9,0.6h-2.8c-2,0-3.2-0.3-3.2-0.7
					s2.2-1.4,2.8-1.4s3.8-0.8,4.3-1.8s0.1-0.8,0.5-0.7c0.3,0.1,0.5,0.3,0.6,0.5c0.3,0.7,1,1.1,1.7,0.9c0.4,0,0.8-0.2,1.1-0.5
					C309.6,364.2,309.9,364.7,309.9,365.2z"/>
				<path class="st43" d="M294.1,358.5c0.3,1.1,0.6,2.2,1,3.3c0.4,0.8,3.1-0.2,3.2-0.8s-1.2-4.5-1.2-4.5"/>
				<path class="st52" d="M299.3,361.5c0.4,0.8,0.7,1.6,0.9,2.5l-2.5,1.5l-0.5-0.4c-0.4,0.5-0.8,1-1.3,1.4c-0.8,0.5-1.6,0.8-2.5,1
					c-2.3,0.6-4.1,0.3-4.2,0s2.2-2,2.8-2.3c1.4-0.5,2.4-1.8,2.5-3.3c0.1-0.7-0.1-0.8,0.3-0.9c0.3,0,0.5,0.1,0.7,0.3
					c0.6,0.5,1.4,0.5,2,0.2c0.3-0.2,0.6-0.5,0.8-0.9C298.8,360.6,299.2,361,299.3,361.5z"/>
				<path class="st34" d="M311.7,278.3c1.3-0.9,2.5-1.9,3.7-2.9c2.8-2.3,5.3-4.9,5.7-6.7c0.6-4.2,0.1-16.6-0.2-22.4
					c0-0.4-0.1-0.7-0.1-1c-0.3-5.6-3.3-8-4.8-8.9c-0.7,7.2-2.4,23.4-2.6,24.2S311.7,278.3,311.7,278.3z"/>
				<path class="st56" d="M311.7,278.3c1.3-0.9,2.5-1.9,3.7-2.9c0.1-4.5,1.5-10.9,3.4-18.9c2.3-10.1,0.9-11.9,0.9-11.9l-4.6,0.7
					c-0.8,7.1-1.6,14.8-1.7,15.3S311.7,278.3,311.7,278.3z"/>
				<path class="st46" d="M300.8,316.1c0.1,4.7,0.6,9.4,1.4,14.1c0.6,3.1,10.4,3.7,9.1,1.3s1.4-14.4,2.9-33.1
					c0.3-2.8,1.5-3.1,2.4-8.9c0.4-3.8-0.5-7.6-2.4-10.9l-13.6-1.2l-0.2,16.9v5.7C300.4,300,300.4,307.9,300.8,316.1z"/>
				<path class="st46" d="M310.1,329.3c0,0,2.7,3.3,2.3,9.2s-2.4,23.8-2.4,23.8s-3.2,0.5-4.8-0.1c0,0-3.3-33.1-3.3-36.8
					S310.1,329.3,310.1,329.3z"/>
				<path class="st49" d="M300.8,316.1c1.1-3.7,2.4-7.4,3.9-10.9c1-2.2,2.3-4.2,3.9-6c6.9-7.2,2.1-16.6,2.1-16.6l-6,5.1
					c-0.4,0.5-2.6,4.4-4.3,6.6v5.7C300.4,300,300.4,307.9,300.8,316.1z"/>
				<path class="st46" d="M284.6,313.9c0,0-3,10.2-2.5,13.3s11.7,33,11.7,33c1.6-0.1,3.1-0.5,4.5-1.2c0,0-0.2-13.1-2.4-21.2
					s-4.8-13.3-7-14S285.3,315.6,284.6,313.9z"/>
				<path class="st49" d="M294.6,319.9c0,0-3.3,5.4-1.3,10.1s-3.4,4-3.4,4s-2.8-8-2.2-9s2.9-4.5,3.6-4.7S294.6,319.9,294.6,319.9z"
					/>
				<path class="st46" d="M291.2,277.6c0,0-7.1,33.1-8,42c-0.4,3.8,3.5,10.1,7.2,6.7s11.5-22.8,13.7-26.1s10.4-6.3,4.8-23.1"/>
				<path class="st43" d="M308.9,233.2c-0.6-1.9-0.8-3.8-0.6-5.8c0.5-2.4,1.9-6.8,1.4-10.1s-4.7-6.1-9.1-5.7s-5.7,4.7-6.4,7.1
					c-0.6,2.7-0.8,5.5-0.5,8.2c0.1,1.6,0.8,3,2,4.1c0.8,0.4,3.5-0.2,4,0.3s0.9,3.7,0.9,3.7"/>
				<path class="st34" d="M311,235.8c-0.1-0.9-0.5-1.8-1-2.6c-0.7-0.7-5.6-0.7-7.1-0.5c-2,0.5-3.8,1.2-5.6,2.2
					c-0.4,0.4,0.5,2.2,0.5,2.2L311,235.8z"/>
				<path class="st43" d="M259.9,216.6c0-0.3,0.4-0.2,0.6,0.1v-0.9c0-0.3,0.4-0.2,0.6,0.1c-0.1-0.2-0.1-0.3-0.1-0.5
					c0.1-0.4,0.5-0.3,0.6,0.1s0.1,0.3,0.2,0.6c-0.1-0.1-0.1-0.3-0.1-0.4c0.1-0.3,0.5-0.2,0.6,0.1c0.1,0.2,0.1,0.4,0.1,0.6
					c0.1,0.4,0.2,0.7,0.2,1.1c0.1,0.3,0.2,0.7,0.3,1c0.4,0.5,1,0.9,1.6,1.2l0.9-0.5c0.1,0.7,0.2,1.5,0.2,2.2c-0.1,0.5-0.2,1-0.4,1.5
					l0.4,1.1l-2.6,1.1c0,0-0.3-1.6-0.7-1.9l-1.8-2.2c-0.2-0.4-0.3-0.9-0.4-1.3l-0.2-1v-0.9C259.9,217.4,259.9,217,259.9,216.6z"/>
				<path class="st34" d="M262.6,224.5c0,0,0.8,5.2,1.7,9.3c0.6,3.3,1.7,6.5,3.1,9.5l0,0c0.9,1.9,2.5,4.2,3.6,4.5
					c1.7,0.1,3.3,0,5-0.1c2.3,0.2,8.4-0.6,13.5-1.3h0.2l6.1-0.8c0.7-0.1,1.3-0.4,1.8-0.8c0.5-0.4,0.8-1,0.9-1.6l0,0
					c0.4-1.6-0.7-3-2.1-3.9l-0.2-0.2l3.5-3.6l-7.7,0.4c-1.8,0.1-14.6,3.6-16.1,4l-0.4,0.2h-0.7c-0.5-1.2-1.2-2.4-1.9-3.5
					c-2.7-3.8-7.2-13.1-7.2-13.1l-2.5,0.7l0,0L262.6,224.5z"/>
				<path class="st57" d="M308.7,229c0,0-6.1,0.5-7.3,0c-1.6-0.6-2.7-2-3-3.7c-0.1-2.1,0.3-2.7-0.5-3.9s-1.5-0.8-1.6,0.3
					s-0.2,3.1-0.5,3.3s-0.8-1.2-0.7-3.4c0.1-1.5,0.4-3,0.9-4.5c0.6-1.2,0.9-1.1,1.4-1.3s-1.1-0.3-2.2-2s-0.6-4.9,2.7-4.8
					c5.6,0,11.7,1.1,11.8,5.3c0,0,2-0.3,2,3.5s-2.4,8.4-2.5,9.6S309.3,228.7,308.7,229z"/>
				<path class="st34" d="M291.7,273.9c-0.2,1.9-1.9,4.9-0.7,5.3c1.5,0.2,3.1,0.1,4.6-0.1h0.1l6.3-0.6c7.8-0.3,11.8,1.2,12.6,0.8
					s0.4-0.9,0.2-1.6c-0.2-1.7-0.3-3.5-0.1-5.2c0.2-1.4,0.5-3.1,0.8-5.1c1.3-6.8,3.8-17.2,4.2-23.5c0.6-9.8-9.9-8.8-9.9-8.8
					c-13.4-0.9-19.6,3-20.4,8.7c0,0.4,0,0.9-0.1,1.3c-0.3,6,1.5,15.5,2.3,22.7C291.8,269.8,291.9,271.9,291.7,273.9z"/>
				<path class="st56" d="M291.7,273.9c-0.2,1.9-1.9,4.9-0.7,5.3c1.5,0.2,3.1,0.1,4.6-0.1c-2.1,0.1-2.5-1.5-2-2.5
					c0.9-2,1.3-4.2,1.3-6.4c-0.1-2.8-1.2-9.2-1.8-15.3c-0.4-3.5-0.4-7.1,0-10.6c-0.3,0.6-1.2,1.5-3.8,2.1c-0.1,6,1.6,14.7,2.3,21.4
					C291.8,269.8,291.9,271.9,291.7,273.9z"/>
				<path class="st10" d="M127.3,150.5l15-35.6l-11.1,2.3H131l-22.1,4.5h-0.4l-22.3,4.5h-0.4l-10.9,2.2L127.3,150.5z M131.1,124
					l-7.1,16.9l-25.1-10.5L131.1,124z"/>
				<g class="st50">
					<path class="st58" d="M81,127.3h0.2l0.3,1.6c0.1,0.1,0,0.1-0.1,0.1h-0.1L81,127.3z"/>
					<path class="st58" d="M81.6,127.2L81.6,127.2l0.3,0.8h-0.2L81.6,127.2z"/>
				</g>
				<g class="st50">
					<path class="st58" d="M82.1,127.1h0.2l0.4,1.6h-0.1c-0.1,0-0.2,0-0.2-0.1L82.1,127.1z"/>
					<path class="st58" d="M82.7,127h0.2v0.8l0,0c-0.1,0.1-0.1,0-0.1,0L82.7,127z"/>
				</g>
				<g class="st50">
					<path class="st58" d="M83.2,126.9h0.3l0.3,1.6c0,0.1,0,0.2-0.1,0.2h-0.1L83.2,126.9z"/>
					<path class="st58" d="M83.8,126.8H84l0.2,0.8H84L83.8,126.8z"/>
				</g>
				<g class="st50">
					<path class="st58" d="M84.4,126.6h0.2l0.3,1.6c0.1,0.1,0,0.1-0.1,0.2h-0.1L84.4,126.6z"/>
					<path class="st58" d="M85,126.5L85,126.5l0.3,0.8c0,0.1,0,0.1-0.1,0.1c-0.1,0-0.1,0-0.1-0.1c0,0,0,0,0,0L85,126.5z"/>
				</g>
				<g class="st50">
					<path class="st58" d="M85.5,126.4h0.3l0.3,1.6h-0.3L85.5,126.4z"/>
					<path class="st58" d="M86.1,126.3h0.2v0.8l0,0c-0.1,0-0.1,0-0.1-0.1L86.1,126.3z"/>
				</g>
				<g class="st50">
					<path class="st58" d="M86.6,126.2h0.3l0.3,1.6c0,0.1,0,0.2-0.1,0.2s-0.1,0-0.1-0.1L86.6,126.2z"/>
					<path class="st58" d="M87.2,126.1h0.2l0.2,0.8c0,0.1,0,0.1-0.1,0.1h-0.1L87.2,126.1z"/>
				</g>
				<g class="st50">
					<path class="st58" d="M87.8,126H88l0.4,1.6v0.2h-0.2L87.8,126z"/>
					<path class="st58" d="M88.4,125.8L88.4,125.8l0.3,0.8c0,0.1,0,0.1-0.1,0.1c-0.1,0-0.1,0-0.1-0.1c0,0,0,0,0,0L88.4,125.8z"/>
				</g>
				<g class="st50">
					<path class="st58" d="M88.9,125.7h0.3l0.3,1.6c0,0.1,0,0.1-0.1,0.1s-0.1,0-0.2-0.1L88.9,125.7z"/>
					<path class="st58" d="M89.5,125.6h0.2v0.8h-0.1L89.5,125.6z"/>
				</g>
				<g class="st50">
					<path class="st58" d="M90.1,125.5h0.2l0.3,1.6c0,0.1,0,0.1-0.1,0.1c-0.1,0-0.1,0-0.1-0.1c0,0,0,0,0,0L90.1,125.5z"/>
					<path class="st58" d="M90.6,125.4h0.2l0.2,0.8c0,0.1,0,0.1-0.1,0.1h-0.1L90.6,125.4z"/>
				</g>
				<g class="st50">
					<path class="st58" d="M91.2,125.3h0.2l0.4,1.6c0,0.1,0,0.1-0.1,0.2h-0.2L91.2,125.3z"/>
					<path class="st58" d="M91.8,125.2L91.8,125.2l0.3,0.8h-0.2L91.8,125.2z"/>
				</g>
				<g class="st50">
					<path class="st58" d="M92.3,125h0.3l0.3,1.6c0,0.1,0,0.1-0.1,0.2h-0.2L92.3,125z"/>
					<path class="st58" d="M92.9,124.9h0.2v0.8H93L92.9,124.9z"/>
				</g>
				<g class="st50">
					<path class="st58" d="M93.5,124.8h0.2l0.3,1.6h-0.2L93.5,124.8z"/>
					<path class="st58" d="M94,124.7h0.2l0.2,0.7v0.2h-0.1L94,124.7z"/>
				</g>
				<g class="st50">
					<path class="st58" d="M94.6,124.6h0.2l0.4,1.6c0,0.1,0,0.1-0.1,0.2h-0.2L94.6,124.6z"/>
					<path class="st58" d="M95.2,124.5L95.2,124.5l0.3,0.8h-0.2L95.2,124.5z"/>
				</g>
				<g class="st50">
					<path class="st58" d="M95.7,124.4H96l0.3,1.6c0,0.1,0,0.2-0.1,0.2H96L95.7,124.4z"/>
					<path class="st58" d="M96.3,124.2h0.2v0.8c0.1,0,0,0.1,0,0.1h-0.1L96.3,124.2z"/>
				</g>
				<g class="st50">
					<path class="st58" d="M96.9,124.1h0.2l0.3,1.6h-0.2L96.9,124.1z"/>
					<path class="st58" d="M97.4,124h0.2l0.2,0.8c0,0.1,0,0.1-0.1,0.1h-0.1L97.4,124z"/>
				</g>
				<g class="st50">
					<path class="st58" d="M98,123.9h0.2l0.4,1.7h-0.3L98,123.9z"/>
					<path class="st58" d="M98.6,123.8L98.6,123.8l0.3,0.8h-0.2L98.6,123.8z"/>
				</g>
				<g class="st50">
					<path class="st58" d="M99.1,123.7h0.3l0.3,1.6c0,0.1,0,0.2-0.1,0.2h-0.2L99.1,123.7z"/>
					<path class="st58" d="M99.7,123.5h0.2v0.8c0.1,0,0,0.1,0,0.1s-0.1,0-0.1-0.1L99.7,123.5z"/>
				</g>
				<g class="st50">
					<path class="st58" d="M100.3,123.4h0.2l0.3,1.6h-0.1c0,0.1-0.1,0-0.1-0.1L100.3,123.4z"/>
					<path class="st58" d="M100.8,123.3h0.2l0.2,0.8c0,0.1,0,0.1-0.1,0.1c-0.1,0-0.1,0-0.1-0.1c0,0,0,0,0,0L100.8,123.3z"/>
				</g>
				<g class="st50">
					<path class="st58" d="M101.4,123.2h0.2l0.4,1.6h-0.1c-0.1,0-0.2,0-0.2-0.1L101.4,123.2z"/>
					<path class="st58" d="M102,123.1h0.2v0.7c0,0.1,0,0.1-0.1,0.1H102V123.1z"/>
				</g>
				<g class="st50">
					<path class="st1" d="M102.5,123h0.3l0.3,1.6c0,0.1,0,0.2-0.1,0.2s-0.1,0-0.1-0.1L102.5,123z"/>
					<path class="st1" d="M103.1,122.9h0.2v0.8c0.1,0.1,0,0.1,0,0.1s-0.1,0-0.1-0.1L103.1,122.9z"/>
				</g>
				<g class="st50">
					<path class="st1" d="M103.7,122.7h0.2l0.3,1.6c0,0.1,0,0.1-0.1,0.2H104L103.7,122.7z"/>
					<path class="st1" d="M104.3,122.6L104.3,122.6l0.3,0.8h-0.2L104.3,122.6z"/>
				</g>
				<g class="st50">
					<path class="st1" d="M104.8,122.5h0.2l0.4,1.6h-0.1c-0.1,0-0.2,0-0.2-0.1L104.8,122.5z"/>
					<path class="st1" d="M105.4,122.4h0.2v0.8h-0.2V122.4z"/>
				</g>
				<g class="st50">
					<path class="st1" d="M105.9,122.3h0.3l0.3,1.6c0,0.1,0,0.2-0.1,0.2h-0.1L105.9,122.3z"/>
					<path class="st1" d="M106.5,122.2h0.2l0.2,0.8h-0.2L106.5,122.2z"/>
				</g>
				<g class="st50">
					<path class="st1" d="M107.1,122.1h0.2l0.3,1.6c0.1,0.1,0,0.2-0.1,0.2h-0.1L107.1,122.1z"/>
					<path class="st1" d="M107.7,121.9L107.7,121.9l0.3,0.8h-0.2L107.7,121.9z"/>
				</g>
				<g class="st50">
					<path class="st1" d="M108.2,121.8h0.2l0.4,1.6h-0.1c-0.1,0.1-0.2,0-0.2-0.1L108.2,121.8z"/>
					<path class="st1" d="M108.8,121.7h0.2v0.8l0,0L108.8,121.7z"/>
				</g>
				<g class="st50">
					<path class="st1" d="M109.3,121.6h0.3l0.3,1.6h-0.2L109.3,121.6z"/>
					<path class="st1" d="M109.9,121.5h0.2l0.2,0.7h-0.2L109.9,121.5z"/>
				</g>
				<g class="st50">
					<path class="st1" d="M110.5,121.4h0.2l0.3,1.6c0.1,0.1,0,0.2-0.1,0.2h-0.1L110.5,121.4z"/>
					<path class="st1" d="M111.1,121.3L111.1,121.3l0.3,0.8h-0.2L111.1,121.3z"/>
				</g>
				<g class="st50">
					<path class="st1" d="M111.6,121.1h0.2l0.4,1.6h-0.1c-0.1,0.1-0.2,0-0.2-0.1L111.6,121.1z"/>
					<path class="st1" d="M112.2,121h0.2v0.8l0,0c-0.1,0-0.1,0-0.1-0.1L112.2,121z"/>
				</g>
				<g class="st50">
					<path class="st1" d="M112.7,120.9h0.3l0.3,1.6h-0.2L112.7,120.9z"/>
					<path class="st1" d="M113.3,120.8h0.2l0.2,0.7h-0.1c-0.1,0.1-0.1,0-0.1,0L113.3,120.8z"/>
				</g>
				<g class="st50">
					<path class="st1" d="M113.9,120.7h0.2l0.3,1.6c0.1,0.1,0,0.2-0.1,0.2c-0.1,0-0.1,0-0.1-0.1L113.9,120.7z"/>
					<path class="st1" d="M114.5,120.6L114.5,120.6l0.3,0.8c0,0.1,0,0.1-0.1,0.1c-0.1,0-0.1,0-0.1-0.1L114.5,120.6z"/>
				</g>
				<g class="st50">
					<path class="st1" d="M115,120.5h0.2l0.4,1.6c0,0.1-0.1,0.1-0.1,0.2h-0.2L115,120.5z"/>
					<path class="st1" d="M115.6,120.3h0.2v0.8l0,0c-0.1,0-0.1,0-0.1-0.1L115.6,120.3z"/>
				</g>
				<g class="st50">
					<path class="st1" d="M116.1,120.2h0.3l0.3,1.6c0,0.1,0,0.1-0.1,0.1c-0.1,0-0.1,0-0.1-0.1L116.1,120.2z"/>
					<path class="st1" d="M116.7,120.1h0.2l0.2,0.8h-0.2L116.7,120.1z"/>
				</g>
				<g class="st50">
					<path class="st1" d="M117.3,120h0.2l0.3,1.6c0.1,0.1,0,0.2-0.1,0.2c-0.1,0-0.1,0-0.1-0.1L117.3,120z"/>
					<path class="st1" d="M117.9,119.9L117.9,119.9l0.3,0.8c0,0.1,0,0.1-0.1,0.1H118L117.9,119.9z"/>
				</g>
				<g class="st50">
					<path class="st1" d="M118.4,119.8h0.3l0.3,1.6c0,0.1,0,0.2-0.1,0.2h-0.2L118.4,119.8z"/>
					<path class="st1" d="M119,119.6h0.2v0.8h-0.1L119,119.6z"/>
				</g>
				<g class="st50">
					<path class="st1" d="M119.5,119.5h0.3l0.3,1.6c0,0.1,0,0.1-0.1,0.1s-0.1,0-0.1-0.1L119.5,119.5z"/>
					<path class="st1" d="M120.1,119.4h0.2l0.2,0.8h-0.2L120.1,119.4z"/>
				</g>
				<g class="st50">
					<path class="st1" d="M120.7,119.3h0.2l0.3,1.6c0.1,0,0,0.1,0,0.1H121L120.7,119.3z"/>
					<path class="st1" d="M121.3,119.2L121.3,119.2l0.3,0.7h-0.2L121.3,119.2z"/>
				</g>
				<g class="st50">
					<path class="st1" d="M121.8,119.1h0.3l0.3,1.6c0,0.1,0,0.2-0.1,0.2h-0.2L121.8,119.1z"/>
					<path class="st1" d="M122.4,119h0.2v0.8h-0.1L122.4,119z"/>
				</g>
				<g class="st50">
					<path class="st1" d="M123,118.8h0.2l0.3,1.6l0,0L123,118.8z"/>
					<path class="st1" d="M123.5,118.7h0.2l0.2,0.8h-0.2L123.5,118.7z"/>
				</g>
				<g class="st50">
					<path class="st1" d="M124.1,118.6h0.2l0.3,1.6c0.1,0,0,0.1,0,0.1h-0.2L124.1,118.6z"/>
					<path class="st1" d="M124.7,118.5L124.7,118.5l0.3,0.7v0.2h-0.1L124.7,118.5z"/>
				</g>
				<g class="st50">
					<path class="st1" d="M125.2,118.4h0.3l0.3,1.6c0,0.1,0,0.2-0.1,0.2h-0.2L125.2,118.4z"/>
					<path class="st1" d="M125.8,118.3h0.2v0.8l0,0L125.8,118.3z"/>
				</g>
				<g class="st50">
					<path class="st1" d="M126.4,118.2h0.2l0.3,1.6c0,0.1,0,0.2-0.1,0.2h-0.1L126.4,118.2z"/>
					<path class="st1" d="M126.9,118h0.2l0.2,0.8h-0.1c-0.1,0-0.1,0-0.1-0.1L126.9,118z"/>
				</g>
				<g class="st50">
					<path class="st1" d="M127.5,117.9h0.2l0.4,1.6h-0.3L127.5,117.9z"/>
					<path class="st1" d="M128.1,117.8h0.1l0.2,0.8c0,0.1,0,0.1-0.1,0.1l0,0h-0.1L128.1,117.8z"/>
				</g>
				<g class="st50">
					<path class="st1" d="M128.6,117.7h0.3l0.3,1.6c0,0.1,0,0.1-0.1,0.1l0,0h-0.2L128.6,117.7z"/>
					<path class="st1" d="M129.2,117.6h0.2v0.8h-0.1L129.2,117.6z"/>
				</g>
				<g class="st50">
					<path class="st1" d="M129.8,117.5h0.2l0.3,1.6c0,0.1,0,0.2-0.1,0.2h-0.1L129.8,117.5z"/>
					<path class="st1" d="M130.3,117.4h0.2l0.2,0.8c0,0.1,0,0.1-0.1,0.1c-0.1,0-0.1,0-0.1-0.1c0,0,0,0,0,0L130.3,117.4z"/>
				</g>
				<g class="st50">
					<path class="st1" d="M130.9,117.2h0.2l0.4,1.6c0,0.1,0,0.1-0.1,0.1l0,0c-0.1,0.1-0.2,0-0.2-0.1L130.9,117.2z"/>
					<path class="st1" d="M131.5,117.1h0.2v0.8h-0.2V117.1z"/>
				</g>
				<g class="st50">
					<path class="st1" d="M132,117h0.3l0.3,1.6c0,0.1,0,0.1-0.1,0.1l0,0c-0.1,0-0.1,0-0.1-0.1L132,117z"/>
					<path class="st1" d="M132.6,116.9h0.2v0.7c0.1,0.1,0,0.1,0,0.1h-0.1L132.6,116.9z"/>
				</g>
				<g class="st50">
					<path class="st1" d="M133.2,116.8h0.2l0.3,1.6c0,0.1,0,0.2-0.1,0.2h-0.1L133.2,116.8z"/>
					<path class="st1" d="M133.7,116.7h0.2l0.2,0.8h-0.2L133.7,116.7z"/>
				</g>
				<g class="st50">
					<path class="st1" d="M134.3,116.6h0.2l0.4,1.6c0,0.1-0.1,0.1-0.1,0.2h-0.2L134.3,116.6z"/>
					<path class="st1" d="M134.9,116.4h0.2v0.8H135L134.9,116.4z"/>
				</g>
				<g class="st50">
					<path class="st1" d="M135.4,116.3h0.3l0.3,1.6h-0.2L135.4,116.3z"/>
					<path class="st1" d="M136,116.2h0.2v0.8c0.1,0,0,0,0,0.1h-0.1L136,116.2z"/>
				</g>
				<path class="st59" d="M79.9,125.6c-1.1,8.6,2.4,17.4,6,15c5.6-3.8,14-16.2,14.8-16.3c0.8,0.2,1.5,0.3,2.3,0.3l2.4-0.3
					c0.2-0.1,0.3-0.1,0.3-0.3s0-0.2-0.1-0.2c-0.3-0.2-0.7-0.3-1-0.3c-0.3,0-0.6,0-0.7-0.3s0-0.3,0.2-0.4l0.4-0.2l2.9-0.7l-1.8-0.4
					l-1.3-0.3h-2.6c-1,0.2-1.9,0.6-2.8,1.1c-0.7,0.3-1.3,0.8-1.9,1.3c-1.5,1.2-7.3,7.9-8.5,8.9"/>
				<path class="st59" d="M113.9,154.7c-1.2,3-2.1,6.1-2.6,9.3c-0.7,4.2,1.7,11,1.4,15.9c0,1.3-0.2,2.6-0.5,3.9
					c-0.5,0.9-1.5,1.8-1.6,2.9c-0.1,0.8,0.4,1.5,1.1,1.7c0.8,0.4,1.3,0,1.6,0s1.9,1.3,4.8,1.7c1,0,2-0.2,2.9-0.8
					c0.3-0.2,0.3-0.6,0.2-0.8c0,0,0,0-0.1-0.1c-0.2-0.2-2.2-0.8-3.2-1.4c-0.9-0.6-1.6-1.5-2-2.5c0-1.5,0.1-3,0.4-4.5
					c1.2-7.9,2.7-19,3.5-23.7"/>
				<path class="st60" d="M121.2,189.4c0.2-0.3,0.3-0.8,0.1-0.9c-0.6-0.4-1.2-0.7-1.8-1l-1.1-0.3c0.3,0.2-0.2,0.8-0.7,0.8
					s-3.1-1.2-4.1-1.4c-1-0.3-1.7-1.1-1.9-2.1c-0.5,0.5-1,1.2-1.3,1.9c-0.2,0.4-0.2,0.9-0.2,1.4c0.2,0.4,0.3,0.9,0.2,1.4
					c0.3,0.2,0.6,0.3,1,0.3h1.2v-0.8h0.9c0.5,0.1,1,0.3,1.3,0.7l0.7,0.7c0.7,0.3,1.5,0.4,2.3,0.4C119.8,190.6,120.9,190,121.2,189.4
					z"/>
				<path class="st59" d="M89.9,144.2l-12.8,7.3c0,0,0.8,4.8,6.6,6c3.3,0.7,8.6-0.2,10-0.2l23.4,0.9c0,0,2.2,0.5,2.6-1.3
					s0-3.5-1.8-4.7S103.1,146.3,89.9,144.2z"/>
				<path class="st61" d="M113.7,156.4c-0.4,3.2-0.4,6.5,0,9.7c0.6,4.2,4.9,11.3,6,16.1c0.4,1.3,0.5,2.6,0.5,3.9
					c-0.2,1-0.9,2.1-0.7,3.2c0.2,0.7,0.8,1.3,1.6,1.4c0.8,0.1,1.2-0.5,1.5-0.5s2.2,0.7,5.1,0.3c1-0.3,1.9-0.8,2.6-1.6
					c0.2-0.2,0.2-0.5,0-0.7c0,0-0.1-0.1-0.2-0.1c-0.2-0.2-2.4-0.2-3.4-0.5c-1-0.4-2-1-2.7-1.9c-0.4-1.4-0.7-2.9-0.8-4.4
					c-1-7.9-3-21.3-3.5-26"/>
				<path class="st60" d="M130.5,189c0.1-0.4,0-0.9-0.2-0.9l-2-0.5c-0.5,0-1.4,0-1.1,0.1s0,0.8-0.5,0.9s-3.3-0.2-4.3-0.1
					c-1,0-2-0.6-2.4-1.6c-0.4,0.7-0.6,1.4-0.7,2.2c0,0.5,0,1,0.2,1.4c0.3,0.4,0.4,0.8,0.5,1.3h1.1c0.4,0,0.8-0.1,1.1-0.3v-0.9
					l0.9-0.2c0.5,0,1,0.1,1.5,0.3l0.8,0.5c0.8,0,1.5,0,2.3-0.2C129.5,190.5,130.4,189.7,130.5,189z"/>
				<path class="st61" d="M90.1,145.1l-12.7,7.3c0,0,0.5,4.6,6.2,5.8c3.4,0.8,9,0,10.4,0l23.4,0.9c0,0,2.1,0.5,2.2-1.3
					s0.4-3.5-1.4-4.7S103.4,147.2,90.1,145.1z"/>
				<path class="st0" d="M79.8,141c0,0-4,7.8-3,11.1s3,6.5,8.5,6.5h19.2c0.3-2,0.9-4,1.7-5.8c0.9-1.5,1.9-2.8,3.2-4
					c0,0-14-4.3-14.9-5.2c-0.8-0.9-1.4-1.9-1.9-3"/>
				<path class="st34" d="M82.2,115.8c-1.7,3.4-2.8,7.2-3,11c1.8,0.4,3.7,0.7,5.6,0.8"/>
				<path class="st34" d="M92.8,112.9c0.7,0.2,0.5,2,1.2,2.2s1.6,0,2,0.2c2.6,1.5,2,4.4,2.3,8s1.4,5.3,0.5,6.8s-2.2,2.5-3.6,4.1
					s-1.3,3.6-1.5,6.2c0,0.4,0.4,1.2,0.3,1.7s-1.5,1.1-3,1.1c-3.2,0.1-8.2-1.1-9.7-1.1s-2.7-0.6-2.5-1.4s0.6-0.8,0.9-1.9
					s0.8-8.5,1.2-10.5c1-5.3,1.7-9.2,3.9-14"/>
				<path class="st56" d="M100.3,125.5c-0.9-1.4-1.9-2.7-3-3.9l-2.8,1.3c1.3,2.5,1.5,5.5,2.1,8.2c0.6,0,1.1,0,1.7-0.1
					c0.1-0.3,0.3-0.6,0.5-0.9C99.6,128.7,100.1,127.1,100.3,125.5z"/>
				<path class="st61" d="M102.2,105.8c0.3-1.2,0.5-2.4,0.5-3.6c-0.1-2.1-0.4-5.1-3.9-6.4s-7.2-0.5-8.4,2s-0.9,6.3-1,8.3
					c-0.3,1.6-0.9,3.1-1.7,4.5l7.5,3.2c0,0,1.2-2.7,1.7-3s0.7,1,2.4,0.8s1.4-1.3,2-2.9h0.9c0.5-0.2,0.5-0.4,0.4-0.7
					C102.3,107.3,102.2,106.6,102.2,105.8z"/>
				<path class="st61" d="M114.3,146.8c0.5,1,1.3,1.8,2.4,2.1c0.3,0,0.6,0,0.9-0.2c0.4,0.2,1.7,0.1,1.1-0.6c0.9,0.5,1.9,0.5,2.9,0.2
					c0.3-0.1,0.2-0.5-0.5-0.6c-1.1-0.1-2.1-0.7-2.7-1.6c0.1-0.1,0.3,0.1,0.7,0.1s0.7-0.3,0.7-0.5l-0.7-0.3l-1.6-0.7
					c-0.5-0.2-1.1-0.3-1.6-0.3c-0.1,0-1.1,0.2-0.8,0.6"/>
				<path class="st61" d="M96.9,126.9c0,0,3.9,10.6,4.6,11.4c2.6,3.4,13.2,8.8,13.2,8.8c0.9-0.4,1.5-1.3,1.3-2.3
					c-3.2-1.4-9.2-8-10.6-8.8s-4.6-13.4-4.6-13.4"/>
				<path class="st34" d="M98.5,115.2c-2.9-1.1-5.6-1.1-7.8-3.3c-2.2,1.7,2.7,11.5,3.9,11.8s2.8,5.7,3.1,6.4c4-0.1,5.4-2.2,5.4-2.2
					C101.5,122.9,101.2,116.2,98.5,115.2z"/>
				<path class="st0" d="M96.2,115.5c-0.2-0.8-0.8-1.4-0.9-2.1c-0.1-0.8,0-1.6,0.4-2.3l1-0.9c1.6-1.2,2.1-2.2,1.6-4.1
					c-0.2-0.6-0.3-1.2-0.3-1.8c0.1-0.6,0.2-1.2,0.8-1.2s0.7,0,0.8,0.4s-0.1,2,0.5,1s1.1-1,1.1-3.3c-0.1-0.5-0.1-1,0-1.5
					c0.9,0.7,1.5,1.8,1.5,3c0.8-0.3,1-1.4,1-1.8c0-0.8-0.1-1.6-0.4-2.3c-1.4-2.9-2.8-3.4-4-3.9c-1.2-0.6-2.4-0.9-3.7-1
					c-1.3,0-2.9,0.4-3.2,1.4c-1.8-0.5-2.8,1-3.2,1.6c-0.6,0.8-1.1,1.7-1.4,2.6c-0.4,1.4-0.5,2.9-0.9,4.3c-0.2,1.2-0.8,2.3-1.7,3.2
					c-0.9,0.8-2.1,0.9-3,1.6c-1.2,0.9-1.9,2.4-1.8,3.9c0.1,1.5,0.8,3.1-0.1,4.5l-1,1.2c-0.6,1.1-0.5,2.5,0.1,3.6
					c0.8,1.1,1.8,2.1,3.1,2.6c1.1,0.3,2.2,0.5,3.3,0.4c2.1-0.1,3.9,0,6.2-1.9s0.5-1.8,1.7-2.9s1.7-1,2.2-1.9
					C96.3,117.2,96.4,116.3,96.2,115.5L96.2,115.5z"/>
				<polygon class="st62" points="162.4,29.9 143.3,49.7 143.5,42.9 				"/>
				<polygon class="st10" points="133.5,39.5 153.6,47.8 162.4,29.9 				"/>
				<polygon class="st63" points="162.4,29.9 140.7,42.5 143.3,49.7 145,44.3 				"/>
				<line class="st64" x1="269.7" y1="62.6" x2="308.4" y2="101.2"/>
				<path class="st10" d="M310.1,79.2l-19.9,3.1l15.3-16.6c1.8,1.7,4.6,1.7,6.4,0c1.8-1.8,1.8-4.6,0-6.4s-4.6-1.8-6.4,0
					c-1.7,1.8-1.7,4.6,0,6.4l0,0l-16.1,15.9c0,0,2.3-13.8,3.1-20.7c5-2.3,18.9-9.9,22.7-12.8l1.3-1c0,0-3-2.6,8,8.4l-1,1.2
					C318.3,63.3,310.1,79.2,310.1,79.2z"/>
				<path class="st63" d="M331.8,55.4l-3.4,3.4c-0.7,0.6-1.6,0.6-2.3,0l-13.5-13.5c-0.6-0.6-0.6-1.6,0-2.2l0,0l3.4-3.4
					c0.7-0.6,1.6-0.6,2.3,0l13.5,13.5C332.3,53.8,332.3,54.8,331.8,55.4z"/>
				<path class="st65" d="M331.8,55.4l-3.4,3.4c-0.7,0.6-1.6,0.6-2.3,0l-13.5-13.5c-0.6-0.6-0.6-1.6,0-2.2c10.4,11.8,14,7.6,15,5.8
					l4.2,4.2C332.4,53.8,332.4,54.7,331.8,55.4z"/>
				<path class="st64" d="M321.6,80.1c-9.5,9.4-23.9,10.4-32.2,2.1s-7.3-22.7,2.1-32.1"/>
				<path class="st63" d="M271,63.9c-0.7,0.7-1.9,0.7-2.5-0.1s-0.7-1.9,0.1-2.5c0.7-0.7,1.8-0.7,2.5,0C271.7,62,271.7,63.2,271,63.9
					z"/>
				<path class="st63" d="M292.8,51.5c-0.7,0.7-1.9,0.7-2.5-0.1c-0.7-0.7-0.7-1.9,0.1-2.5c0.7-0.7,1.8-0.7,2.5,0
					C293.5,49.6,293.5,50.8,292.8,51.5z"/>
				<path class="st63" d="M322.6,81.4c-0.7,0.7-1.9,0.7-2.6,0c-0.7-0.7-0.7-1.9,0-2.6c0.6-0.7,1.7-0.8,2.4-0.2
					c0.1,0.1,0.1,0.1,0.2,0.2C323.3,79.5,323.3,80.7,322.6,81.4z"/>
				<path class="st63" d="M309.6,102.5c-0.7,0.7-1.8,0.7-2.5,0c-0.7-0.6-0.8-1.7-0.2-2.4c0.1-0.1,0.1-0.1,0.2-0.2
					c0.7-0.7,1.8-0.7,2.5,0c0.7,0.6,0.8,1.7,0.2,2.4C309.7,102.4,309.7,102.4,309.6,102.5z"/>
				<line class="st66" x1="228.8" y1="1.5" x2="228.8" y2="42.2"/>
				<line class="st66" x1="279.3" y1="13.2" x2="257.9" y2="47.8"/>
				<line class="st66" x1="178.2" y1="13.2" x2="199.6" y2="47.8"/>
				
					<rect x="41" y="173.7" transform="matrix(0.9354 -0.3535 0.3535 0.9354 -59.9285 27.4532)" class="st67" width="8.3" height="8.3"/>
				<path class="st67" d="M52.5,170.7c1,2.4-0.2,5.1-2.6,6.1c-2.4,1-5.1-0.2-6.1-2.6c0-0.1,0-0.1-0.1-0.2c-0.9-2.4,0.4-5.1,2.9-6
					C48.9,167.2,51.6,168.3,52.5,170.7z"/>
				<path class="st10" d="M343.1,100.3l0.2-1.7l-2.4-1l-1.1,1.3l-1.5-0.6l5-5.6l1.7,0.7l-0.4,7.5L343.1,100.3z M343.4,97.3
					c0.2-1.6,0.3-2.5,0.3-2.7c0-0.2,0-0.4,0.1-0.5l-2.1,2.5L343.4,97.3z"/>
				<line class="st68" x1="349.6" y1="95.7" x2="347.2" y2="101.7"/>
				<line class="st68" x1="345.7" y1="101.1" x2="348.6" y2="102.3"/>
				<line class="st68" x1="348.2" y1="95.1" x2="351.1" y2="96.3"/>
				<line class="st68" x1="347.9" y1="92.2" x2="341.9" y2="89.7"/>
				<line class="st68" x1="342.5" y1="88.3" x2="341.3" y2="91.2"/>
				<line class="st68" x1="348.5" y1="90.8" x2="347.3" y2="93.7"/>
				<path class="st0" d="M61.1,256.7l12.7-11c2.5-2.2,6.4-1.9,8.6,0.6l11,12.7c2.2,2.5,1.9,6.4-0.6,8.6l-12.7,11
					c-2.5,2.2-6.4,1.9-8.6-0.6l-11-12.7C58.3,262.8,58.5,258.9,61.1,256.7z"/>
				<path class="st1" d="M70.1,258c0.5-0.4,1-0.8,1.4-1.3c0.2-0.2,0.5-0.2,0.7-0.1l2.4,1.5l2.4,1.5l1.7,1.1l1.7,1l1.7,1.1l1.6,1
					l2.2,1.3c0.1,0.1,0,0.3,0,0.4l-1.3,1.1l-1.2,1.1c-0.2,0.1-0.3,0.1-0.5,0l-2.6-1.6l-0.3-0.2c-0.2-0.3-0.5-0.3-0.8,0l-2.8,2.5
					c-0.2,0.1-0.3,0.2-0.1,0.5l1.3,2.8c0.3,0.8,0.3,0.8-0.4,1.3l-1.8,1.6c-0.2,0.2-0.4,0.2-0.5-0.1c-0.3-0.6-0.6-1.2-0.8-1.9
					l-0.9-1.9l-0.8-1.7l-1.2-2.7c-0.4-0.9-0.7-1.8-1.1-2.6l-1.2-2.7l-0.5-0.9c-0.1-0.3,0-0.7,0.3-0.9C68.7,259.2,70.1,258,70.1,258z
					 M71.9,260.2c0,0.1,0,0.1-0.1,0.2l0.9,1.8l1.2,2.3l0.6,1.2c0.1,0.3,0.3,0.3,0.5,0.1l2.1-1.8c0.1,0,0.2-0.1,0.1-0.2
					c0-0.1-0.1-0.2-0.2-0.1l-1-0.6l-3.3-2.3L71.9,260.2z"/>
				<path class="st1" d="M86.2,257.6l3.4,4c0.3,0.3,0.3,0.5,0,0.7l-2.1,1.8c-0.2,0.2-0.4,0.2-0.7-0.1l-6.9-7.9
					c-0.4-0.5-0.4-0.5,0.1-1l1.9-1.6c0.3-0.3,0.5-0.3,0.7,0L86.2,257.6z"/>
				<path class="st1" d="M77.6,250.6c0.7-0.7,1.8-0.8,2.5-0.1c0.1,0.1,0.1,0.1,0.2,0.2c0.6,0.7,0.6,1.8-0.1,2.4
					c-0.1,0.1-0.2,0.1-0.2,0.2c-0.7,0.7-1.9,0.6-2.5-0.1C76.8,252.4,76.9,251.3,77.6,250.6L77.6,250.6z"/>
				<path class="st10" d="M120.1,94.6l1.2-0.2c0-0.4-0.1-0.8-0.2-1.2l1.2-0.2l0.9,5.2c0.8-1.1,1.5-2.2,2.3-3.2l-2.3,0.3
					c-0.1-0.4-0.1-0.8-0.2-1.2h0.1l3.3-0.6h0.2l0.9-1.4h0.1l0.6,0.5h-0.1l-1,1.4l0,0l0.6,3.3v0.2l-1.2,0.2c-0.1-0.8-0.3-1.6-0.4-2.3
					c-0.8,1-1.5,2.1-2.3,3.2l0,0l5.2-0.9c0,0.4,0.1,0.8,0.2,1.2l-1.2,0.2c0,0.4,0.1,0.8,0.2,1.2l-1.2,0.2c-0.1-0.4-0.2-0.8-0.2-1.2
					l-4.5,0.8c-0.3-1.5-0.5-3-0.8-4.5l-1.2,0.2C120.3,95.4,120.2,95,120.1,94.6z"/>
				<path class="st10" d="M401.4,185.3l0.6-1.5l-1.4-0.6l0.6-1.4l6.3,2.7l-1.9-4.8l-1.2,2.8l-1.5-0.7h0.1c0.6-1.3,1.1-2.7,1.7-4
					c0.1-0.1,0.1-0.2,0-0.3c0,0,0,0,0,0c-0.2-0.6-0.5-1.3-0.8-2l0,0l0.9-0.3l0,0l0.8,2h0.1l4.1,1.8h0.1l-0.6,1.4l-2.8-1.2
					c0.6,1.6,1.2,3.2,1.9,4.8l0,0l2.7-6.2l1.5,0.6l-0.7,1.4l1.5,0.7l-0.6,1.4l-1.5-0.6l-2.4,5.4l-5.4-2.3l-0.6,1.4L401.4,185.3z"/>
			</g>
		</g>
	</g>
</g>
<g id="Layer_2" class="st69">
	<g id="Layer_2_2_" class="st70">
		<rect x="-167" y="154.6" class="st0" width="149.5" height="121.2"/>
		<rect x="-167" y="2.9" class="st3" width="149.5" height="121.2"/>
		<rect x="-167" y="295.8" class="st24" width="149.5" height="121.2"/>
	</g>
</g>
</svg>
