<?xml version="1.0" encoding="utf-8"?>
<!-- Generator: Adobe Illustrator 24.0.0, SVG Export Plug-In . SVG Version: 6.00 Build 0)  -->
<svg version="1.1" xmlns="http://www.w3.org/2000/svg" xmlns:xlink="http://www.w3.org/1999/xlink" x="0px" y="0px"
	 viewBox="0 0 1080.3 652.2" style="enable-background:new 0 0 1080.3 652.2;" xml:space="preserve">
<style type="text/css">
	.st0{opacity:0.7;}
	.st1{opacity:0.5;fill:url(#SVGID_1_);enable-background:new    ;}
	.st2{opacity:0.5;fill:url(#SVGID_2_);enable-background:new    ;}
	.st3{opacity:0.6;}
	.st4{fill:url(#SVGID_3_);}
	.st5{opacity:0.8;fill:url(#SVGID_4_);}
	.st6{fill:url(#SVGID_5_);}
	.st7{opacity:0.71;fill:#FFFFFF;enable-background:new    ;}
	.st8{fill:url(#SVGID_6_);}
	.st9{fill:url(#SVGID_7_);}
	.st10{opacity:0.5;fill:#FFFFFF;enable-background:new    ;}
	.st11{fill:url(#SVGID_8_);}
	.st12{opacity:0.85;}
	.st13{fill:#FFFFFF;}
	.st14{opacity:0.62;fill:#FFFFFF;enable-background:new    ;}
	.st15{fill:url(#SVGID_9_);}
	.st16{fill:url(#SVGID_10_);}
	.st17{fill:url(#SVGID_11_);}
	.st18{fill:url(#SVGID_12_);}
	.st19{fill:url(#SVGID_13_);}
	.st20{fill:url(#SVGID_14_);}
	.st21{fill:url(#SVGID_15_);}
	.st22{fill:url(#SVGID_16_);}
	.st23{fill:url(#SVGID_17_);}
	.st24{fill:url(#SVGID_18_);}
	.st25{fill:url(#SVGID_19_);}
	.st26{fill:url(#SVGID_20_);}
	.st27{fill:url(#SVGID_21_);}
	.st28{fill:url(#SVGID_22_);}
	.st29{fill:url(#SVGID_23_);}
	.st30{opacity:0.4;}
	.st31{fill:url(#SVGID_24_);}
	.st32{fill:url(#SVGID_25_);}
	.st33{fill:url(#SVGID_26_);}
	.st34{fill:url(#SVGID_27_);}
	.st35{fill:url(#SVGID_28_);}
	.st36{fill:url(#SVGID_29_);}
	.st37{fill:url(#SVGID_30_);}
	.st38{opacity:0.8;fill:url(#SVGID_31_);}
	.st39{fill:url(#SVGID_32_);}
	.st40{fill:url(#SVGID_33_);}
	.st41{fill:url(#SVGID_34_);}
	.st42{opacity:0.5;}
	.st43{fill:url(#SVGID_35_);}
	.st44{fill:url(#SVGID_36_);}
	.st45{fill:url(#SVGID_37_);}
	.st46{fill:url(#SVGID_38_);}
	.st47{opacity:0.65;fill:#FFFFFF;enable-background:new    ;}
	.st48{opacity:0.3;fill:#FFFFFF;enable-background:new    ;}
	.st49{fill:url(#SVGID_39_);}
	.st50{opacity:0.64;fill:#FFFFFF;enable-background:new    ;}
	.st51{fill:url(#SVGID_40_);}
	.st52{fill:url(#SVGID_41_);}
	.st53{fill:url(#SVGID_42_);}
	.st54{opacity:0.64;}
	.st55{fill:url(#SVGID_43_);}
	.st56{fill:url(#SVGID_44_);}
	.st57{fill:url(#SVGID_45_);}
	.st58{fill:url(#SVGID_46_);}
	.st59{fill:url(#SVGID_47_);}
	.st60{fill:url(#SVGID_48_);}
	.st61{fill:url(#SVGID_49_);}
	.st62{fill:url(#SVGID_50_);}
	.st63{fill:url(#SVGID_51_);}
	.st64{fill:url(#SVGID_52_);}
	.st65{fill:url(#SVGID_53_);}
	.st66{fill:url(#SVGID_54_);}
	.st67{fill:url(#SVGID_55_);}
	.st68{fill:url(#SVGID_56_);}
	.st69{fill:url(#SVGID_57_);}
	.st70{fill:url(#SVGID_58_);}
	.st71{fill:url(#SVGID_59_);}
	.st72{fill:url(#SVGID_60_);}
	.st73{fill:url(#SVGID_61_);}
	.st74{fill:url(#SVGID_62_);}
	.st75{fill:url(#SVGID_63_);}
	.st76{fill:url(#SVGID_64_);}
	.st77{fill:url(#SVGID_65_);}
	.st78{opacity:0.37;fill:#FFFFFF;enable-background:new    ;}
	.st79{fill:url(#SVGID_66_);}
	.st80{opacity:0.75;fill:#FFFFFF;enable-background:new    ;}
	.st81{fill:url(#SVGID_67_);}
	.st82{fill:url(#SVGID_68_);}
	.st83{opacity:0.3;fill:url(#SVGID_69_);enable-background:new    ;}
	.st84{opacity:0.63;fill:url(#SVGID_70_);enable-background:new    ;}
	.st85{opacity:0.63;fill:url(#SVGID_71_);enable-background:new    ;}
	.st86{fill:url(#SVGID_72_);}
	.st87{fill:url(#SVGID_73_);}
	.st88{fill:url(#SVGID_74_);}
	.st89{fill:url(#SVGID_75_);}
	.st90{fill:#CE41A4;}
	.st91{fill:url(#SVGID_76_);}
	.st92{fill:url(#SVGID_77_);}
	.st93{fill:url(#SVGID_78_);}
	.st94{fill:url(#SVGID_79_);}
	.st95{fill:url(#SVGID_80_);}
	.st96{fill:url(#SVGID_81_);}
	.st97{fill:url(#SVGID_82_);}
	.st98{fill:url(#SVGID_83_);}
	.st99{fill:url(#SVGID_84_);}
	.st100{fill:url(#SVGID_85_);}
	.st101{fill:url(#SVGID_86_);}
	.st102{fill:url(#SVGID_87_);}
	.st103{fill:url(#SVGID_88_);}
	.st104{fill:url(#SVGID_89_);}
	.st105{fill:url(#SVGID_90_);}
	.st106{fill:url(#SVGID_91_);}
	.st107{fill:url(#SVGID_92_);}
	.st108{fill:url(#SVGID_93_);}
	.st109{fill:url(#SVGID_94_);}
	.st110{fill:#D70010;}
	.st111{fill:url(#SVGID_95_);}
	.st112{fill:url(#SVGID_96_);}
	.st113{fill:url(#SVGID_97_);}
	.st114{opacity:0.15;fill:#FFFFFF;enable-background:new    ;}
	.st115{fill:url(#SVGID_98_);}
	.st116{fill:url(#SVGID_99_);}
	.st117{fill:url(#SVGID_100_);}
	.st118{fill:url(#SVGID_101_);}
	.st119{fill:url(#SVGID_102_);}
	.st120{fill:url(#SVGID_103_);}
	.st121{opacity:0.3;fill:url(#SVGID_104_);enable-background:new    ;}
	.st122{display:none;}
	.st123{display:inline;}
	.st124{fill:#7A0110;}
	.st125{fill:#101010;}
</style>
<g id="Layer_1">
	<title>22</title>
	<g id="Layer_2_1_">
		<g id="Illustration">
			<g class="st0">
				
					<linearGradient id="SVGID_1_" gradientUnits="userSpaceOnUse" x1="2.923" y1="336.0858" x2="1038.9454" y2="336.0858" gradientTransform="matrix(1 0 0 -1 0 654)">
					<stop  offset="0" style="stop-color:#FF7D7D"/>
					<stop  offset="1" style="stop-color:#F79797"/>
				</linearGradient>
				<path class="st1" d="M511.9,632.6c0,0-351.8,4-449.7-84.6S1,371.2,76.1,346.2s87.8-51,47.4-86S31.9,153.1,117,80.7
					s182.3,31.6,258.4,17.8s45.9-60.3,146-28.2S599.4,9,679.9,0.5s72.2,97.2,154.9,57.3s150.4-34.4,186,29s20.1,148.6-57.9,199.5
					s-69.7,47.4-40.5,97.3s55.3,214.3-77.5,237.8S511.9,632.6,511.9,632.6z"/>
				
					<linearGradient id="SVGID_2_" gradientUnits="userSpaceOnUse" x1="55.0794" y1="322.4218" x2="986.8157" y2="322.4218" gradientTransform="matrix(1 0 0 -1 0 654)">
					<stop  offset="0" style="stop-color:#FF7D7D"/>
					<stop  offset="1" style="stop-color:#F79797"/>
				</linearGradient>
				<path class="st2" d="M512.8,621.8c0,0-316.3,3.6-404.4-78s-55-163,12.5-186.1s79-47,42.6-79.4s-82.4-98.7-5.8-165.4
					S321.6,142,390,129.3s41.4-55.6,131.4-26s70.1-56.6,142.5-64.4s64.9,89.7,139.3,52.9s135.3-31.7,167.3,26.7
					s18.1,137.1-52.1,183.9s-62.7,43.7-36.4,89.8s49.7,197.6-69.7,219.2S512.8,621.8,512.8,621.8z"/>
			</g>
			<g class="st3">
				
					<linearGradient id="SVGID_3_" gradientUnits="userSpaceOnUse" x1="-239.8099" y1="38.8043" x2="-65.9499" y2="38.8043" gradientTransform="matrix(0.98 -0.19 -0.19 -0.98 340.8 490.37)">
					<stop  offset="0" style="stop-color:#A737D5"/>
					<stop  offset="1" style="stop-color:#EF497A"/>
				</linearGradient>
				<path class="st4" d="M296,596.6c0.7-1,0.5-2.5-0.6-3.2c-0.3-0.2-0.7-0.4-1.1-0.4c-19.8-0.7-102.7-7.9-99.4-80.6
					c3.6-82.4,9.7-105.9-29-134c-35.2-25.6-66.1-22.2-90.2-10.3c-0.9,0.5-1.2,1.5-0.8,2.4c0.3,0.6,0.9,1,1.6,1
					c16.1-0.2,53,2.5,66.6,28.6c17.7,33.7,16.2,117.7,52.3,157.2s66.1,37.8,98.7,40.1C294.8,597.5,295.6,597.2,296,596.6L296,596.6z
					"/>
			</g>
			
				<linearGradient id="SVGID_4_" gradientUnits="userSpaceOnUse" x1="270.4444" y1="367.5849" x2="-84.2656" y2="745.335" gradientTransform="matrix(0.98 0.18 0.18 -0.98 -116.16 791.28)">
				<stop  offset="0" style="stop-color:#FF1531"/>
				<stop  offset="0.5965" style="stop-color:#D40010"/>
				<stop  offset="1" style="stop-color:#7A0110"/>
			</linearGradient>
			<path class="st5" d="M30,321.1c-1.5-1.3-1.7-3.7-0.3-5.2c0.3-0.4,0.7-0.7,1.1-0.9c6.5-3.1,18.2-10.1,29.7-24.6
				s40.7-45.1,87.1-27.4s46.9,105.1,41.5,190S272,585.1,272,585.1l23.4,14.3c0,0-86.7-30.7-109.6-99.2s-0.4-163.9-55.5-172.3
				C77.5,319.9,64.6,350.1,30,321.1z"/>
			<g class="st3">
				
					<linearGradient id="SVGID_5_" gradientUnits="userSpaceOnUse" x1="291.2959" y1="218.564" x2="616.0759" y2="218.564" gradientTransform="matrix(0.98 0.18 0.18 -0.98 -334.96 618.16)">
					<stop  offset="0" style="stop-color:#ED0D22"/>
					<stop  offset="0.396" style="stop-color:#D70010"/>
					<stop  offset="0.8424" style="stop-color:#7A0110"/>
				</linearGradient>
				<path class="st6" d="M3.7,414.1c-1.7,0.3-3.3-0.8-3.6-2.5c-0.2-0.9,0.1-1.9,0.7-2.6c11.2-13.1,36.1-36.3,65.7-30.1
					c40.7,8.5,67.3,32.5,94.4,105.9c26.3,71.2,109.3,109.4,132.7,114.3c1.1,0.2,1.8,1.2,1.8,2.3l0,0c0,1.3-1.1,2.3-2.3,2.3
					c-0.2,0-0.3,0-0.5-0.1c-16.4-3.8-102.2-24.9-141.8-56.1C109.3,514.7,59.9,402.5,3.7,414.1z"/>
			</g>
			<path class="st7" d="M31.3,398.3c7.1-1.6,14.4-2.1,21.6-1.4l5.4,0.6l5.4,1c3.5,0.8,7,1.8,10.4,3.1c13.7,5.1,25.8,13.9,35.7,24.5
				s17.5,23.2,23.9,36.2c1.5,3.3,3,6.6,4.4,9.9s2.8,6.6,4.3,9.8l2.3,4.9l2.3,4.8c1.5,3.2,3.3,6.4,4.9,9.5c3.4,6.3,7,12.5,10.9,18.5
				c3.9,6,8.1,11.7,12.7,17.1c9.1,11,19.7,20.6,31.5,28.6c6,3.9,12.1,7.5,18.5,10.8c6.4,3.2,12.9,6.1,19.6,8.8
				c13.2,5.5,26.8,10.2,40.3,15.1c0.2,0,0.3,0.2,0.2,0.4s-0.3,0.3-0.4,0.2c-6.9-2.2-13.7-4.4-20.5-6.8s-13.5-4.7-20.2-7.4
				c-13.4-5.2-26.6-11.3-38.7-19.3c-12.1-7.9-23.1-17.5-32.4-28.6c-4.6-5.6-8.9-11.4-12.9-17.4s-7.7-12.3-11.1-18.6
				c-1.7-3.2-3.4-6.4-5-9.6l-2.4-4.9l-2.3-4.9c-1.5-3.2-2.9-6.6-4.4-9.8s-2.8-6.6-4.3-9.8c-6.2-12.8-13.7-25.1-23.3-35.6
				c-4.8-5.2-10.1-10-15.8-14.1c-5.7-4.2-12-7.6-18.6-10.2c-3.3-1.3-6.7-2.3-10.1-3.2c-1.7-0.5-3.4-0.8-5.2-1.1l-5.2-0.8
				c-3.6-0.3-7.1-0.5-10.7-0.4c-3.5,0.1-7,0.6-10.5,1.3h-0.1c-0.3,0-0.6-0.2-0.6-0.5C30.8,398.7,31,398.4,31.3,398.3z"/>
			<path class="st7" d="M34.5,316.9c2.4,0.3,4.9,0.4,7.3,0.3c2.4-0.2,4.8-0.6,7.2-1.2c4.7-1.3,9.1-3.3,13.1-6.1
				c2-1.4,3.9-2.9,5.6-4.6c1.8-1.6,3.5-3.4,5-5.3l2.2-2.9l2.1-3c1.5-2.1,3.1-4.1,4.9-5.9c3.5-3.6,7.4-6.9,11.5-9.8
				c4.2-2.8,8.6-5.3,13.3-7.3c4.7-2,9.6-3.3,14.7-4c2.6-0.3,5.1-0.4,7.7-0.3c2.6,0.1,5.2,0.5,7.7,1.1c1.3,0.3,2.5,0.6,3.7,1l3.6,1.5
				c2.3,1.1,4.6,2.3,6.7,3.8c4.1,3,7.8,6.6,10.9,10.7c6,8.1,10.6,17.2,13.7,26.8c1.7,4.7,3,9.5,4.1,14.4c1.2,4.8,2.1,9.7,2.9,14.6
				c1.6,9.8,2.6,19.7,3.1,29.6c0.1,0.3-0.1,0.5-0.4,0.5c-0.2,0-0.4-0.2-0.5-0.4c-1.1-9.8-2.4-19.6-4.3-29.3c-0.9-4.9-2-9.7-3.2-14.4
				s-2.7-9.5-4.4-14.1c-3.3-9.2-7.6-18.1-13.6-25.7c-1.5-1.9-3.1-3.6-4.8-5.3c-1.7-1.7-3.5-3.2-5.5-4.6c-2-1.3-4-2.5-6.2-3.5
				l-3.2-1.3l-3.4-1c-2.3-0.5-4.7-0.8-7.1-1c-2.4-0.1-4.7,0-7.1,0.3c-4.7,0.6-9.4,1.9-13.8,3.7c-9,3.7-17.2,9.2-24,16.1
				c-1.7,1.7-3.3,3.5-4.8,5.4l-2.2,3c-0.8,1-1.5,2-2.4,3c-1.6,1.9-3.4,3.7-5.3,5.4c-1.9,1.6-3.9,3.2-6,4.6c-4.3,2.7-9,4.7-14,5.7
				c-4.9,1.1-10,1.2-14.9,0.3c-0.2-0.1-0.4-0.3-0.3-0.5S34.3,316.9,34.5,316.9L34.5,316.9z"/>
			
				<linearGradient id="SVGID_6_" gradientUnits="userSpaceOnUse" x1="393.3878" y1="271.1829" x2="105.5278" y2="52.0129" gradientTransform="matrix(1 0 0 -1 0 654)">
				<stop  offset="0" style="stop-color:#53D8FF"/>
				<stop  offset="1" style="stop-color:#3840F7"/>
			</linearGradient>
			<path class="st8" d="M83.3,382.5l325.4-5.5c13.1-0.3,23.6,11,22.8,24.4L420.3,594c-0.5,10.4-9,18.7-19.4,18.9l-312.7,3
				c-7.8,0-14.2-6.2-14.4-14l-7.5-201c-0.6-9.6,6.8-17.8,16.4-18.4C82.9,382.5,83.1,382.5,83.3,382.5z"/>
			
				<linearGradient id="SVGID_7_" gradientUnits="userSpaceOnUse" x1="102.3754" y1="-11.5045" x2="430.5254" y2="380.2455" gradientTransform="matrix(1 0 0 -1 0 654)">
				<stop  offset="0" style="stop-color:#53D8FF"/>
				<stop  offset="1" style="stop-color:#3840F7"/>
			</linearGradient>
			<path class="st9" d="M88.3,387.4l316.9-5.3c12.1-0.2,22,9.5,22.2,21.6c0,0.5,0,1.1,0,1.6l-10.9,183.3c-0.6,10-8.8,17.9-18.9,18
				L93,609.5c-7.5,0.1-13.7-5.9-14-13.4l-7.3-191.2c-0.3-9.3,7-17.2,16.3-17.5C88.1,387.4,88.2,387.4,88.3,387.4z"/>
			<path class="st10" d="M94.2,393.7l301.8-5c11.5-0.2,21,9,21.2,20.6c0,0.5,0,1,0,1.5l-10.4,174.5c-0.6,9.5-8.4,17-18,17.1
				l-290.1,2.8c-7.1,0.1-13-5.6-13.3-12.7l-7-182.1c-0.3-8.9,6.6-16.4,15.5-16.7C94,393.7,94.1,393.7,94.2,393.7z"/>
			
				<linearGradient id="SVGID_8_" gradientUnits="userSpaceOnUse" x1="222.5809" y1="148.747" x2="306.2409" y2="446.987" gradientTransform="matrix(1 0 0 -1 0 654)">
				<stop  offset="0" style="stop-color:#53D8FF"/>
				<stop  offset="1" style="stop-color:#3840F7"/>
			</linearGradient>
			<path class="st11" d="M405.9,382l-318.2,5.2c-9.3,0.2-16.8,7.9-16.6,17.2c0,0.1,0,0.3,0,0.4l0.5,13.5h355.9l0.8-13
				c0.7-12.2-8.7-22.6-20.9-23.3C406.9,382,406.4,382,405.9,382z"/>
			<g class="st12">
				<path class="st13" d="M97.7,393.7c0.1,1.5-1.2,2.8-2.7,2.9c0,0-0.1,0-0.1,0c-1.6,0.3-3.1-0.7-3.4-2.3s0.7-3.1,2.3-3.4
					c0.4-0.1,0.7-0.1,1.1,0C96.4,390.9,97.7,392.2,97.7,393.7C97.7,393.7,97.7,393.7,97.7,393.7z"/>
				<path class="st13" d="M97.7,402.1c0.1,1.5-1.2,2.8-2.7,2.9c0,0-0.1,0-0.1,0c-1.6,0.3-3.1-0.7-3.4-2.3s0.7-3.1,2.3-3.4
					c0.4-0.1,0.7-0.1,1.1,0C96.4,399.3,97.7,400.6,97.7,402.1C97.7,402.1,97.7,402.1,97.7,402.1z"/>
				<path class="st13" d="M97.7,410.5c0.1,1.5-1.2,2.8-2.7,2.9c0,0-0.1,0-0.1,0c-1.6,0-2.9-1.3-2.9-2.9c0-1.5,1.3-2.8,2.8-2.8
					c0,0,0.1,0,0.1,0c1.5-0.1,2.7,1.1,2.8,2.6C97.7,410.4,97.7,410.4,97.7,410.5z"/>
			</g>
			<circle class="st14" cx="148.5" cy="490.5" r="45.4"/>
			
				<linearGradient id="SVGID_9_" gradientUnits="userSpaceOnUse" x1="182.9652" y1="205.2722" x2="94.9652" y2="99.9422" gradientTransform="matrix(1 0 0 -1 0 654)">
				<stop  offset="0" style="stop-color:#53D8FF"/>
				<stop  offset="1" style="stop-color:#3840F7"/>
			</linearGradient>
			<circle class="st15" cx="148.4" cy="490.1" r="10"/>
			<path class="st13" d="M172.7,506.4c-9,13.4-27.1,16.9-40.5,7.9c-13.4-9-16.9-27.1-7.9-40.5c5.5-8.1,14.6-12.9,24.4-12.9h1.4v-7.4
				h-1.4c-20.2,0-36.5,16.3-36.6,36.4c0,20.2,16.3,36.5,36.4,36.6c12,0,23.3-5.9,30.1-15.8L172.7,506.4z"/>
			
				<linearGradient id="SVGID_10_" gradientUnits="userSpaceOnUse" x1="241.4338" y1="182.222" x2="221.1138" y2="162.4521" gradientTransform="matrix(1 6.981261e-03 6.981261e-03 -1 -10.263 625.704)">
				<stop  offset="0" style="stop-color:#2B3582"/>
				<stop  offset="1" style="stop-color:#150E42"/>
			</linearGradient>
			<path class="st16" d="M228.4,455.6c-0.1,3.6-3.1,6.5-6.7,6.6c-3.7,0-6.7-3-6.7-6.7c0-3.7,3-6.7,6.7-6.7
				C225.4,448.8,228.4,451.8,228.4,455.6C228.4,455.5,228.4,455.6,228.4,455.6z"/>
			
				<linearGradient id="SVGID_11_" gradientUnits="userSpaceOnUse" x1="235.4673" y1="179.0635" x2="209.1073" y2="139.2335" gradientTransform="matrix(1 6.981288e-03 6.981288e-03 -1 -10.2602 625.7947)">
				<stop  offset="0" style="stop-color:#2B3582"/>
				<stop  offset="1" style="stop-color:#150E42"/>
			</linearGradient>
			<circle class="st17" cx="221.7" cy="455.5" r="6.4"/>
			
				<linearGradient id="SVGID_12_" gradientUnits="userSpaceOnUse" x1="215.8" y1="199.2" x2="215.89" y2="199.2" gradientTransform="matrix(1 0 0 -1 0 654)">
				<stop  offset="0" style="stop-color:#2B3582"/>
				<stop  offset="1" style="stop-color:#150E42"/>
			</linearGradient>
			<path class="st18" d="M215.8,455.2c0-0.3,0-0.5,0.1-0.8L215.8,455.2z"/>
			
				<linearGradient id="SVGID_13_" gradientUnits="userSpaceOnUse" x1="216.44" y1="202.8004" x2="222.83" y2="202.8004" gradientTransform="matrix(1 0 0 -1 0 654)">
				<stop  offset="0" style="stop-color:#2B3582"/>
				<stop  offset="1" style="stop-color:#150E42"/>
			</linearGradient>
			<path class="st19" d="M216.4,452.8c1.1-2,3.1-3.2,5.4-3.2h1L216.4,452.8z"/>
			
				<linearGradient id="SVGID_14_" gradientUnits="userSpaceOnUse" x1="241.7406" y1="141.8839" x2="221.4306" y2="122.114" gradientTransform="matrix(1 6.981261e-03 6.981261e-03 -1 -10.263 625.704)">
				<stop  offset="0" style="stop-color:#2B3582"/>
				<stop  offset="1" style="stop-color:#150E42"/>
			</linearGradient>
			<path class="st20" d="M228.4,495.9c-0.1,3.6-3.1,6.5-6.7,6.6c-3.7-0.1-6.6-3-6.6-6.7c0-3.6,3-6.6,6.6-6.6c0,0,0.1,0,0.1,0
				C225.5,489.3,228.4,492.2,228.4,495.9z"/>
			
				<linearGradient id="SVGID_15_" gradientUnits="userSpaceOnUse" x1="235.8328" y1="138.7103" x2="209.4728" y2="98.8803" gradientTransform="matrix(1 6.981261e-03 6.981261e-03 -1 -10.263 625.704)">
				<stop  offset="0" style="stop-color:#2B3582"/>
				<stop  offset="1" style="stop-color:#150E42"/>
			</linearGradient>
			<path class="st21" d="M228.1,495.9c0,3.5-2.8,6.3-6.3,6.3c0,0-0.1,0-0.1,0c-3.5,0-6.4-2.9-6.4-6.4c0-3.5,2.9-6.4,6.4-6.4
				S228.1,492.3,228.1,495.9C228.1,495.8,228.1,495.9,228.1,495.9z"/>
			
				<linearGradient id="SVGID_16_" gradientUnits="userSpaceOnUse" x1="215.8" y1="158.9" x2="215.89" y2="158.9" gradientTransform="matrix(1 0 0 -1 0 654)">
				<stop  offset="0" style="stop-color:#2B3582"/>
				<stop  offset="1" style="stop-color:#150E42"/>
			</linearGradient>
			<path class="st22" d="M215.8,495.5c0-0.3,0-0.5,0.1-0.8L215.8,495.5z"/>
			
				<linearGradient id="SVGID_17_" gradientUnits="userSpaceOnUse" x1="216.44" y1="162.5004" x2="222.83" y2="162.5004" gradientTransform="matrix(1 0 0 -1 0 654)">
				<stop  offset="0" style="stop-color:#2B3582"/>
				<stop  offset="1" style="stop-color:#150E42"/>
			</linearGradient>
			<path class="st23" d="M216.4,493.1c1.1-2,3.1-3.2,5.4-3.2h1L216.4,493.1z"/>
			
				<linearGradient id="SVGID_18_" gradientUnits="userSpaceOnUse" x1="242.0232" y1="101.581" x2="221.7032" y2="81.811" gradientTransform="matrix(1 6.981261e-03 6.981261e-03 -1 -10.263 625.704)">
				<stop  offset="0" style="stop-color:#2B3582"/>
				<stop  offset="1" style="stop-color:#150E42"/>
			</linearGradient>
			<path class="st24" d="M228.4,536.2c-0.1,3.6-3.1,6.5-6.7,6.6c-3.7-0.1-6.6-3-6.6-6.7c0-3.6,3-6.6,6.6-6.6c0,0,0.1,0,0.1,0
				C225.5,529.6,228.4,532.5,228.4,536.2z"/>
			
				<linearGradient id="SVGID_19_" gradientUnits="userSpaceOnUse" x1="236.0331" y1="98.4599" x2="209.6731" y2="58.6299" gradientTransform="matrix(1 6.981288e-03 6.981288e-03 -1 -10.1674 625.7773)">
				<stop  offset="0" style="stop-color:#2B3582"/>
				<stop  offset="1" style="stop-color:#150E42"/>
			</linearGradient>
			<circle class="st25" cx="221.7" cy="536.1" r="6.4"/>
			
				<linearGradient id="SVGID_20_" gradientUnits="userSpaceOnUse" x1="215.8" y1="118.6" x2="215.89" y2="118.6" gradientTransform="matrix(1 0 0 -1 0 654)">
				<stop  offset="0" style="stop-color:#2B3582"/>
				<stop  offset="1" style="stop-color:#150E42"/>
			</linearGradient>
			<path class="st26" d="M215.8,535.8c0-0.3,0-0.5,0.1-0.8L215.8,535.8z"/>
			
				<linearGradient id="SVGID_21_" gradientUnits="userSpaceOnUse" x1="216.44" y1="122.2003" x2="222.83" y2="122.2003" gradientTransform="matrix(1 0 0 -1 0 654)">
				<stop  offset="0" style="stop-color:#2B3582"/>
				<stop  offset="1" style="stop-color:#150E42"/>
			</linearGradient>
			<path class="st27" d="M216.4,533.4c1.1-2,3.1-3.2,5.4-3.2h1L216.4,533.4z"/>
			<path class="st14" d="M238.6,455.2v1.2c0.1,3,2,5.5,4.4,5.5l129.3,0.2c2.4,0,4.4-2.5,4.3-5.7l0,0c0-3.1-1.9-5.6-4.2-5.7
				L243,449.3C240.5,449.2,238.5,451.9,238.6,455.2z"/>
			<path class="st14" d="M238.6,495.3v1.2c0.1,3,2,5.4,4.4,5.5l129.3,0.2c2.4,0,4.4-2.5,4.3-5.7l0,0c0-3.1-1.9-5.6-4.2-5.7
				L243,489.4C240.5,489.3,238.5,492,238.6,495.3z"/>
			<path class="st14" d="M238.6,535.4v1.1c0.1,3.1,2,5.5,4.4,5.6l129.3,0.2c2.4,0,4.4-2.5,4.3-5.7l0,0c0-3.1-1.9-5.6-4.2-5.7
				L243,529.5C240.5,529.4,238.5,532.1,238.6,535.4z"/>
			
				<linearGradient id="SVGID_22_" gradientUnits="userSpaceOnUse" x1="288.9653" y1="139.2658" x2="126.9653" y2="-114.7342" gradientTransform="matrix(1 0 0 -1 0 654)">
				<stop  offset="0" style="stop-color:#53D8FF"/>
				<stop  offset="1" style="stop-color:#3840F7"/>
			</linearGradient>
			<path class="st28" d="M384.6,567L107,571.9c-4.4,0.1-8,3.7-7.9,8.1c0,0.4,0,0.8,0.1,1.2l1.2,7.7c0.6,3.9,4,6.8,8,6.7l275.1-1
				c4.1-0.1,7.5-3.2,8-7.2l1.2-11.5c0.5-4.4-2.7-8.4-7-8.9C385.3,567,385,567,384.6,567z"/>
			
				<linearGradient id="SVGID_23_" gradientUnits="userSpaceOnUse" x1="-1102.703" y1="270.5964" x2="-1104.9729" y2="264.6764" gradientTransform="matrix(-0.98 -0.19 0.19 -0.98 -809.82 578.46)">
				<stop  offset="0" style="stop-color:#A737D5"/>
				<stop  offset="1" style="stop-color:#EF497A"/>
			</linearGradient>
			<path class="st29" d="M324.1,529.2c-1.1-1.1-2.3-2.3-3.5-3.7l-1.2-1.3l1.7,0.5c1.4,0.5,2.8,0.9,4.3,1.1l0.5,0.2l-1.3,3.7
				L324.1,529.2z M322.4,526.1l1.8,1.9l0.5-1.3L322.4,526.1z"/>
			<g class="st30">
				
					<linearGradient id="SVGID_24_" gradientUnits="userSpaceOnUse" x1="336.0356" y1="307.8748" x2="613.6456" y2="307.8748" gradientTransform="matrix(-0.98 -0.19 0.19 -0.98 627.5801 716.38)">
					<stop  offset="0" style="stop-color:#7A0110"/>
					<stop  offset="0.7139" style="stop-color:#D70010"/>
				</linearGradient>
				<path class="st31" d="M123.4,125.7c13.3,20.9,35.1,36.7,56.9,49.6c28.4,16.9,59.3,31.9,79.6,58s27.7,63.2,28.6,97.7
					s-3.4,69.1-1.1,103.6c2.3,32.7,11.5,66.5,33.5,90.6c-21.4-6.6-36.4-28-42-50.1s-3.2-48.2-2.1-72.5s0.4-49.7-11.2-71
					c-22.8-41.9-78.1-53.3-110.9-87.9c-17-17.9-27.2-41.4-32.8-65.4c-3.8-16.3-5.6-33-6.8-49.8c-0.2-2.5,1.6-4.7,4.1-4.9
					C120.9,123.4,122.5,124.3,123.4,125.7z"/>
			</g>
			
				<linearGradient id="SVGID_25_" gradientUnits="userSpaceOnUse" x1="225.7083" y1="512.2238" x2="383.0483" y2="168.8938" gradientTransform="matrix(1 0 0 -1 0 654)">
				<stop  offset="0" style="stop-color:#53D8FF"/>
				<stop  offset="1" style="stop-color:#3840F7"/>
			</linearGradient>
			<path class="st32" d="M206,266.6L204,94c-0.1-8.7,6.8-15.8,15.5-15.9c0.9,0,1.7,0.1,2.6,0.2l46.8,7.1c7.7,1.1,13.4,7.7,13.4,15.5
				v157.4L206,266.6z"/>
			<g class="st3">
				
					<linearGradient id="SVGID_26_" gradientUnits="userSpaceOnUse" x1="-3300.4099" y1="81.8421" x2="-2956.5601" y2="81.8421" gradientTransform="matrix(-0.98 0.19 -0.19 -0.98 -2133.3298 1195.1)">
					<stop  offset="0" style="stop-color:#FF1531"/>
					<stop  offset="0.6972" style="stop-color:#D40010"/>
					<stop  offset="1" style="stop-color:#7A0110"/>
				</linearGradient>
				<path class="st33" d="M1076.5,441.7c1.8,0.3,3.5-0.9,3.8-2.7c0.2-1-0.1-2.1-0.8-2.8c-12.1-13.6-38.7-38-70-31
					c-42.9,9.5-70.8,35.2-98.6,113.2C883.8,594.2,796.5,635.6,771.8,641c-1.2,0.2-2,1.3-1.9,2.5l0,0c0,1.3,1.1,2.4,2.4,2.4
					c0.2,0,0.4,0,0.6-0.1c17.3-4.2,107.9-27.6,149.4-61.1C965.9,549.5,1016.8,430,1076.5,441.7z"/>
			</g>
			<path class="st7" d="M1046.7,426.6c-3.7-0.7-7.4-1-11.1-1.1c-3.7-0.1-7.5,0.1-11.2,0.6c-1.9,0.2-3.7,0.6-5.6,0.9
				s-3.7,0.7-5.5,1.2c-3.6,1-7.1,2.2-10.6,3.5c-6.9,2.9-13.5,6.6-19.5,11.1c-6,4.5-11.5,9.5-16.4,15.1c-10,11.2-17.8,24.2-24.2,37.9
				l-4.5,10.3c-1.5,3.5-2.9,7.1-4.5,10.6l-2.4,5.2l-2.5,5.1c-1.6,3.5-3.4,6.9-5.1,10.3c-3.6,6.7-7.4,13.4-11.6,19.8
				c-4.1,6.4-8.7,12.7-13.5,18.6c-9.7,11.9-21.2,22.3-34,30.8c-12.8,8.3-26.5,15.3-40.8,20.8c-14.1,5.7-28.5,10.6-42.9,15.5
				c-0.2,0-0.5-0.1-0.6-0.3c-0.1-0.2,0-0.4,0.1-0.5c0,0,0.1,0,0.2-0.1c14.2-5.3,28.5-10.5,42.4-16.5s27.6-12.7,40-21.3
				c12.4-8.6,23.5-18.9,33-30.6c4.7-5.9,9.1-12,13.2-18.3c4-6.3,7.7-12.9,11.3-19.6c1.6-3.4,3.4-6.7,5-10.2l2.4-5.1l2.3-5.2
				c1.6-3.4,3-6.9,4.4-10.4s3.1-7.1,4.7-10.5c6.5-13.9,14.5-27.2,24.9-38.7c10.3-11.6,23.1-20.6,37.5-26.4c3.6-1.4,7.3-2.6,11.1-3.4
				c1.9-0.5,3.8-0.8,5.7-1.1c1.9-0.3,3.8-0.6,5.7-0.7c7.7-0.8,15.5-0.4,23,1.3c0.4,0.1,0.6,0.5,0.5,0.8c0,0,0,0,0,0.1
				c0,0.4-0.4,0.6-0.8,0.5H1046.7z"/>
			
				<linearGradient id="SVGID_27_" gradientUnits="userSpaceOnUse" x1="696.9956" y1="-105.1044" x2="694.7256" y2="-111.0244" gradientTransform="matrix(0.9816 -0.1908 -0.1908 -0.9816 76.2332 579.5218)">
				<stop  offset="0" style="stop-color:#A737D5"/>
				<stop  offset="1" style="stop-color:#EF497A"/>
			</linearGradient>
			<path class="st34" d="M778.1,556.4l-1.3-3.7h0.6l4.3-1.1l1.7-0.6l-1.2,1.4l-3.5,3.6L778.1,556.4z M778.1,553.4l0.4,1.3l1.8-1.8
				L778.1,553.4z"/>
			<g class="st30">
				
					<linearGradient id="SVGID_28_" gradientUnits="userSpaceOnUse" x1="466.8395" y1="255.8309" x2="744.6903" y2="255.8309" gradientTransform="matrix(0.9816 -0.1908 -0.1908 -0.9816 338.8332 717.4218)">
					<stop  offset="0" style="stop-color:#A737D5"/>
					<stop  offset="1" style="stop-color:#EF497A"/>
				</linearGradient>
				<path class="st35" d="M979.4,152.4c-13.4,20.9-35.2,36.7-56.9,49.6c-28.4,16.9-59.3,31.9-79.6,58s-27.8,63.2-28.6,97.7
					s3.4,69.1,1,103.6c-2.2,32.7-11.4,66.6-33.5,90.6c21.5-6.6,36.5-27.9,42-50s3.3-48.3,2.2-72.6s-0.4-49.7,11.2-71
					c22.8-41.9,78.1-53.3,110.9-87.9c17-17.9,27.1-41.3,32.7-65.3c3.8-16.4,5.7-33.1,6.8-49.9c0.1-2.5-1.8-4.6-4.2-4.7
					C981.8,150.4,980.3,151.1,979.4,152.4z"/>
			</g>
			
				<linearGradient id="SVGID_29_" gradientUnits="userSpaceOnUse" x1="855.9722" y1="233.5771" x2="854.4722" y2="229.6771" gradientTransform="matrix(0.9932 0.1167 0.1167 -0.9932 -34.515 692.064)">
				<stop  offset="0" style="stop-color:#A737D5"/>
				<stop  offset="1" style="stop-color:#EF497A"/>
			</linearGradient>
			<path class="st36" d="M839.9,564v-2.6h4.4l-1,0.6l-2.9,1.6L839.9,564z M840.5,562.1v0.9l1.4-0.8L840.5,562.1z"/>
			<g class="st30">
				
					<linearGradient id="SVGID_30_" gradientUnits="userSpaceOnUse" x1="1015.4794" y1="257.8011" x2="1198.2662" y2="257.8011" gradientTransform="matrix(0.9932 0.1167 0.1167 -0.9932 -181.315 583.264)">
					<stop  offset="0" style="stop-color:#7A0110"/>
					<stop  offset="0.7301" style="stop-color:#D40010"/>
					<stop  offset="1" style="stop-color:#FF1531"/>
				</linearGradient>
				<path class="st37" d="M1046.9,351.1c-12.5,10.4-29.4,15.9-45.6,19.6c-21.1,4.9-43.5,8.2-61.5,20.5s-30,34-37.4,55.5
					s-11.7,44-20.1,65.1s-20.5,39.5-39.1,50.1c14.7,0.2,28.4-10.2,36.3-22.9s11.7-29.6,15.9-45.1s9.7-31.2,21.2-42.3
					c22.7-21.6,59.6-17.8,87.1-32.9c14.2-7.8,25.3-20.4,33.6-34.4c5.7-9.5,10.1-19.6,14.2-29.9c0.6-1.5-0.1-3.2-1.5-3.8
					C1048.9,350.2,1047.7,350.4,1046.9,351.1z"/>
			</g>
			
				<linearGradient id="SVGID_31_" gradientUnits="userSpaceOnUse" x1="755.3795" y1="-35.5489" x2="902.6695" y2="-35.5489" gradientTransform="matrix(0.9816 -0.1908 -0.1908 -0.9816 76.2332 579.5218)">
				<stop  offset="0" style="stop-color:#7A0110"/>
				<stop  offset="0.7301" style="stop-color:#D40010"/>
				<stop  offset="1" style="stop-color:#FF1531"/>
			</linearGradient>
			<path class="st38" d="M943.4,332.8c-4.2-6.8-9.1-13.1-14.6-18.9c-1.1-1-2.8-1-3.8,0c-0.5,0.5-0.8,1.2-0.8,1.9
				c0.2,10.2-4.7,20.6-11,29c-8.1,10.7-18.5,19.5-26.1,30.6c-15.5,22.7-17,52.3-13.7,79.7s10.9,54.3,11.5,81.8
				c0.3,13.2-1.1,26.6-6.8,38.5s-15.8,21.5-28.4,24.4c-0.3,0.1-0.5,0.5-0.4,0.8l0,0c0.1,0.2,0.3,0.4,0.5,0.4
				c16,2.5,31.6-9.6,37.9-24.6s5.1-32.2,2.4-48.3s-6.9-32.2-6.2-48.6c0.8-16.4,6.4-32.2,16.3-45.4c8.9-11.9,20.8-21.2,31.2-31.8
				s19.6-23.7,20.6-38.5C952.8,352.9,949,342.1,943.4,332.8z"/>
			<path class="st10" d="M929.8,336.7c-0.1,1.5-0.3,3-0.5,4.5l-0.9,4.4c-0.8,2.9-1.7,5.7-2.8,8.5c-0.5,1.4-1.2,2.8-1.8,4.1l-0.9,2
				l-1.1,2.1c-0.7,1.3-1.4,2.6-2.2,3.9l-2.4,3.7l-2.6,3.7c-0.4,0.6-0.9,1.2-1.4,1.7l-1.4,1.8c-0.9,1.2-1.9,2.3-2.9,3.4
				s-1.9,2.2-2.8,3.4c-3.9,4.4-7.6,9-10.9,13.9c-3.2,4.9-6,10-8.2,15.4c-1.1,2.7-2.1,5.5-2.9,8.3c-0.7,2.8-1.5,5.7-2,8.6
				c-1.1,5.8-1.8,11.6-2.1,17.5c-0.1,2.9-0.2,5.9-0.2,8.8v8.9l0,0c0,0.2-0.2,0.4-0.4,0.4l0,0c-0.2,0-0.4-0.2-0.4-0.4c0,0,0,0,0,0
				c-0.7-11.8-0.6-23.8,1.4-35.5c1.9-11.9,6.4-23.2,13.1-33.2c3.4-4.9,7-9.6,10.9-14.1l5.7-6.8l1.4-1.7l1.3-1.7l2.6-3.6l2.4-3.6
				c0.8-1.3,1.5-2.6,2.3-3.8s1.4-2.6,2-3.9s1.3-2.6,1.9-4c1.2-2.7,2.2-5.4,3-8.2c0.5-1.4,0.8-2.8,1.2-4.2c0.3-1.4,0.6-2.9,0.7-4.3
				l0,0c0-0.2,0-0.3,0.2-0.4c0.1,0,0.2,0,0.3,0.1C929.6,336.4,929.8,336.5,929.8,336.7z"/>
			
				<linearGradient id="SVGID_32_" gradientUnits="userSpaceOnUse" x1="447.8924" y1="79.6025" x2="596.3523" y2="524.9825" gradientTransform="matrix(1 0 0 -1 0 654)">
				<stop  offset="0" style="stop-color:#2B3582"/>
				<stop  offset="1" style="stop-color:#02001E"/>
			</linearGradient>
			<path class="st39" d="M831.2,590.6c-0.1,6.4-5.2,11.5-11.6,11.6H191c-6.4-0.1-11.5-5.2-11.6-11.6l-5.2-361.3
				c0-6.4,7.5-18.8,21.3-17.9l614.3-15.9c8-0.2,15.8,2.9,21.5,8.6c5.7,5.6,8.8,13.4,8.6,21.4L831.2,590.6z"/>
			
				<linearGradient id="SVGID_33_" gradientUnits="userSpaceOnUse" x1="483.0942" y1="56.8207" x2="550.2142" y2="614.3007" gradientTransform="matrix(1 0 0 -1 0 654)">
				<stop  offset="0" style="stop-color:#D70010"/>
				<stop  offset="1" style="stop-color:#7A0110"/>
			</linearGradient>
			<path class="st40" d="M819.8,579.4c0,6.1-4.9,11-11,11l0,0H206.2c-6.1,0-11-4.9-11-11l0,0l-5-327.9c0.6-19.7,17.9-26.8,28.4-26.4
				l588.8-15.8c11.3-0.3,20.8,8.6,21.1,19.9c0,0.4,0,0.8,0,1.2L819.8,579.4z"/>
			<path class="st13" d="M201.7,423c-0.6,0-1-0.4-1-1l-0.4-26.6c0-0.6,0.4-1,1-1l0,0c0.6,0,1,0.4,1,1l0.4,26.6
				c0.1,0.5-0.3,0.9-0.8,1C201.8,423,201.8,423,201.7,423z"/>
			<path class="st13" d="M200.7,357.8c-0.5,0-0.9-0.4-1-0.9L198.2,255c0.1-6.8,2.2-12.3,6.3-16.2c7.5-7.2,19.2-6.9,19.7-6.9l188-5
				c0.5-0.1,1,0.3,1.1,0.9c0,0,0,0.1,0,0.1c0,0.5-0.5,1-1,1l-188.1,5c-0.5,0-11.4-0.3-18.3,6.3c-3.7,3.6-5.6,8.5-5.7,14.8l1.5,101.8
				c0.1,0.5-0.3,0.9-0.8,1c0,0-0.1,0-0.1,0L200.7,357.8z"/>
			<path class="st10" d="M221.7,561.2c0.7-27.1,0.4-267.1-1.1-287.8s30.7-24.6,80.3-27s467.7-11.5,478.5-12.4
				c24.2-2,29.2,34.2,26.8,112.7c-1.8,59-4.8,156.2-6.2,200.9c-0.4,13.3-11.3,24-24.6,24c-100.7,0.2-486.4,1.3-512.1,2.1
				C233.8,574.6,221.5,572,221.7,561.2z"/>
			
				<linearGradient id="SVGID_34_" gradientUnits="userSpaceOnUse" x1="628.71" y1="36.8022" x2="42.2399" y2="41.3021" gradientTransform="matrix(1 0 0 -1 0 654)">
				<stop  offset="0" style="stop-color:#2B3582"/>
				<stop  offset="1" style="stop-color:#150E42"/>
			</linearGradient>
			<path class="st41" d="M866.4,632.2H157c-8.8-0.1-15.8-7.1-15.9-15.9l0,0c0.1-8.8,7.1-15.8,15.9-15.9h709.4
				c8.7,0.1,15.8,7.2,15.8,15.9l0,0C882.2,625,875.1,632.1,866.4,632.2z"/>
			<g class="st42">
				<path class="st13" d="M952.7,310.9c-0.4,0-0.8-0.3-1-0.7c-0.2-0.5,0.1-1.1,0.6-1.3c0,0,0,0,0,0l3.6-1.6c0.5-0.2,1.1,0,1.3,0.5
					c0.2,0.4,0.1,1-0.3,1.2c-0.1,0-0.1,0.1-0.2,0.1l-3.7,1.7L952.7,310.9z"/>
				<path class="st13" d="M914,318.6h-1.3c-0.5-0.1-1-0.5-0.9-1.1c0,0,0,0,0,0c0-0.5,0.4-0.9,0.9-0.9c0,0,0.1,0,0.1,0l0,0l7.7-0.2
					c0.5-0.1,0.9,0.3,1,0.8c0,0,0,0.1,0,0.1c0.1,0.5-0.3,1-0.9,1.1c0,0,0,0,0,0L914,318.6z M900.1,317.6L900.1,317.6
					c-2.7-0.4-5.3-0.8-7.9-1.4c-0.6-0.1-0.9-0.7-0.8-1.2s0.7-0.9,1.2-0.8c2.5,0.6,5,1.1,7.6,1.4c0.6,0.1,1,0.5,0.9,1.1
					C901.1,317.3,900.7,317.7,900.1,317.6z M933.1,316.8c-0.5,0-0.9-0.4-1-0.9c-0.1-0.5,0.3-1,0.8-1.1c2.5-0.5,5.1-1.1,7.5-1.8
					c0.5-0.1,1.1,0.2,1.3,0.7c0.1,0.5-0.2,1.1-0.7,1.2c-2.6,0.7-5.1,1.3-7.7,1.8L933.1,316.8z M880.3,312.7H880l-7.3-2.9
					c-0.5-0.3-0.7-0.9-0.5-1.4c0.2-0.5,0.8-0.7,1.3-0.5c2.3,1.1,4.7,2.1,7.1,2.9c0.6,0.1,0.9,0.6,0.8,1.1c-0.1,0.6-0.6,0.9-1.1,0.9
					V312.7z M861.9,303.8h-0.5l-6.6-4.4c-0.4-0.4-0.5-0.9-0.2-1.4c0.2-0.4,0.8-0.6,1.2-0.3c0.1,0,0.1,0.1,0.2,0.1l6.4,4.3
					c0.4,0.3,0.5,1,0.2,1.4C862.4,303.7,862.2,303.9,861.9,303.8L861.9,303.8z M845.7,291.4c-0.3,0-0.5-0.1-0.7-0.3
					c-1.9-1.8-3.8-3.7-5.5-5.6c-0.4-0.4-0.4-1,0-1.4c0.4-0.4,1.1-0.3,1.5,0.1c1.7,1.9,3.5,3.7,5.4,5.5c0.4,0.4,0.4,1,0,1.4
					C846.2,291.3,846,291.4,845.7,291.4L845.7,291.4z M832.3,276c-0.3,0-0.6-0.2-0.8-0.5c-1.5-2.1-2.9-4.3-4.3-6.6
					c-0.3-0.5-0.1-1.1,0.4-1.4c0.5-0.3,1.1-0.1,1.4,0.4c1.3,2.2,2.7,4.4,4.1,6.5c0.3,0.4,0.2,1.1-0.2,1.4L832.3,276z M822.4,258.1
					c-0.4,0-0.8-0.2-0.9-0.6c-1.1-2.4-2-4.8-2.8-7.3c-0.2-0.5,0.1-1.1,0.6-1.3c0,0,0,0,0,0c0.5-0.2,1,0,1.2,0.5c0,0,0,0.1,0,0.1
					c0.9,2.4,1.8,4.9,2.8,7.2c0.2,0.5,0,1.1-0.5,1.3L822.4,258.1z M816.3,238.6c-0.5,0-0.9-0.3-1-0.8c-0.5-2.5-0.9-5.2-1.2-7.8
					c-0.1-0.5,0.3-1,0.9-1.1c0,0,0,0,0,0c0.5,0,1,0.4,1.1,0.9c0.3,2.5,0.7,5.1,1.2,7.6c0.1,0.5-0.2,1.1-0.8,1.2c0,0,0,0,0,0
					L816.3,238.6z M814.3,218.3L814.3,218.3c-0.5,0-1-0.5-1-1c0-2.6,0.2-5.3,0.4-7.9c0.1-0.5,0.5-0.9,1-0.9c0.6,0,1,0.4,1,1
					c0,0,0,0.1,0,0.1c-0.2,2.5-0.4,5.1-0.4,7.7C815.3,217.9,814.9,218.3,814.3,218.3z M816.5,198h-0.2c-0.5-0.1-0.9-0.6-0.8-1.1
					c0.6-2.6,1.2-5.2,2-7.7c0.1-0.5,0.6-0.8,1.1-0.6c0,0,0.1,0,0.1,0c0.5,0.1,0.8,0.7,0.7,1.2c-0.7,2.5-1.4,5-1.9,7.5
					C817.3,197.7,816.9,198,816.5,198z"/>
				<path class="st13" d="M822.8,178.5h-0.4c-0.5-0.2-0.7-0.8-0.5-1.3c0.5-1.3,1.1-2.5,1.7-3.7c0.2-0.5,0.7-0.7,1.2-0.5
					c0,0,0.1,0,0.1,0.1c0.5,0.2,0.7,0.8,0.5,1.3l-1.7,3.6C823.5,178.3,823.2,178.5,822.8,178.5z"/>
				<path class="st13" d="M879.7,125.1c-0.4,0-0.8-0.3-0.9-0.7c-0.2-0.5,0.1-1.1,0.6-1.3c0,0,0,0,0,0l3.8-1.3
					c0.5-0.1,1.1,0.2,1.3,0.7c0.1,0.5-0.2,1.1-0.7,1.2l-3.7,1.3L879.7,125.1z"/>
				<path class="st13" d="M1008.3,251.7h-0.3c-0.5-0.2-0.8-0.8-0.6-1.3c0,0,0,0,0,0c0.8-2.4,1.6-4.8,2.2-7.3
					c0.2-0.5,0.7-0.8,1.2-0.7c0.6,0.1,0.9,0.7,0.8,1.3c-0.7,2.4-1.5,4.9-2.3,7.4C1009.1,251.5,1008.7,251.7,1008.3,251.7z
					 M1013,232.2L1013,232.2c-0.6-0.1-1-0.6-1-1.1c0.4-2.5,0.6-5.1,0.8-7.6c0-0.5,0.4-0.9,0.9-0.9c0,0,0.1,0,0.1,0c0.6,0,1,0.4,1,1
					c-0.2,2.6-0.4,5.2-0.8,7.7C1013.9,231.8,1013.5,232.2,1013,232.2z M1013.7,212.1c-0.5,0-0.9-0.4-1-0.9c0-0.5-0.1-1-0.1-1.5
					s-0.4-4.1-0.7-6.1c-0.1-0.5,0.3-1,0.8-1.1c0.5-0.1,1.1,0.2,1.2,0.8c0,0,0,0,0,0c0.3,2.1,0.5,4.2,0.7,6.2c0,0.5,0,1,0.1,1.5
					c0.1,0.5-0.3,1-0.9,1.1C1013.8,212.1,1013.8,212.1,1013.7,212.1L1013.7,212.1z M1010.3,192.3c-0.5,0-0.8-0.3-0.9-0.8
					c-0.7-2.4-1.5-4.8-2.3-7.2c-0.2-0.5,0.1-1.1,0.6-1.3c0.5-0.2,1.1,0.1,1.3,0.6c0.8,2.4,1.6,4.9,2.3,7.4c0.2,0.5-0.1,1-0.5,1.2
					c-0.1,0-0.1,0-0.2,0L1010.3,192.3z M1003.1,173.5c-0.4,0-0.7-0.2-0.9-0.5c-1.1-2.3-2.3-4.5-3.7-6.6c-0.3-0.5-0.2-1.1,0.3-1.4
					c0.5-0.3,1.1-0.2,1.4,0.3l0,0c1.3,2.2,2.6,4.5,3.8,6.8c0.2,0.5,0,1.1-0.5,1.3L1003.1,173.5z M992.2,156.6
					c-0.3,0-0.6-0.1-0.8-0.3c-1.5-2-3.2-3.9-4.9-5.8c-0.5-0.3-0.6-0.9-0.4-1.4c0.3-0.5,0.9-0.6,1.4-0.4c0.2,0.1,0.3,0.3,0.4,0.4
					c1.8,1.8,3.5,3.8,5.1,5.8c0.3,0.4,0.2,1.1-0.2,1.4C992.7,156.6,992.4,156.6,992.2,156.6L992.2,156.6z M978.2,142.3
					c-0.3,0-0.5-0.1-0.7-0.3c-1.9-1.6-3.9-3.1-6-4.6c-0.4-0.4-0.5-0.9-0.2-1.4c0.2-0.4,0.8-0.6,1.2-0.3c0.1,0,0.1,0.1,0.2,0.1
					c2.1,1.5,4.2,3,6.1,4.7c0.4,0.4,0.5,1,0.1,1.4C978.8,142.1,978.5,142.3,978.2,142.3L978.2,142.3z M961.6,131h-0.5
					c-2.2-1.2-4.5-2.4-6.8-3.4c-0.5-0.3-0.6-0.9-0.3-1.4c0.2-0.3,0.7-0.5,1.1-0.4c2.3,1,4.7,2.2,6.9,3.4c0.5,0.2,0.7,0.7,0.5,1.2
					c0,0,0,0.1-0.1,0.1C962.3,130.8,961.9,131,961.6,131z M943,123.2h-0.3c-2.4-0.7-4.9-1.4-7.3-1.9c-0.6-0.1-0.9-0.6-0.8-1.2
					s0.6-0.9,1.2-0.8l0,0c2.5,0.6,5,1.2,7.5,2c0.5,0.1,0.8,0.7,0.7,1.2C943.9,122.9,943.5,123.2,943,123.2z M895.6,120.7
					c-0.5,0-0.9-0.3-1-0.8c-0.1-0.5,0.3-1.1,0.8-1.2l7.7-1.1c0.5-0.1,1,0.3,1.1,0.9c0,0,0,0,0,0c0,0.5-0.4,1-0.9,1.1
					c-2.5,0.3-5.1,0.6-7.5,1.1H895.6z M923.3,119.4L923.3,119.4c-2.6-0.2-5.2-0.4-7.7-0.4c-0.6,0-1-0.4-1-1s0.4-1,1-1
					c2.6,0,5.2,0.2,7.8,0.4c0.5,0.1,0.9,0.6,0.9,1.1C924.2,119,923.8,119.4,923.3,119.4z"/>
				<path class="st13" d="M1001.6,266.8h-0.5c-0.5-0.3-0.6-0.9-0.4-1.4c0.7-1.1,1.3-2.3,1.9-3.5c0.2-0.5,0.7-0.7,1.2-0.5
					c0,0,0.1,0,0.1,0.1c0.5,0.2,0.7,0.8,0.5,1.3l-1.9,3.6C1002.3,266.7,1001.9,266.8,1001.6,266.8z"/>
				
					<linearGradient id="SVGID_35_" gradientUnits="userSpaceOnUse" x1="836.2" y1="436.1948" x2="990.4134" y2="436.1948" gradientTransform="matrix(1 0 0 -1 0 654)">
					<stop  offset="0" style="stop-color:#53D8FF"/>
					<stop  offset="1" style="stop-color:#3840F7"/>
				</linearGradient>
				<path class="st43" d="M976.1,262.8c0.3-0.3,0.4-0.9,0.2-1.3l-7-12.8c3.3-6.1,5.6-12.6,6.9-19.4l13.5-5.4
					c0.5-0.2,0.8-0.7,0.7-1.2l-0.8-17.4c0-0.5-0.4-1-0.9-1.1l-14-4.1c-1.9-6.6-4.9-12.9-8.8-18.6l5.7-13.4c0.2-0.5,0.1-1-0.3-1.3
					L958.4,155c-0.4-0.3-1-0.4-1.4-0.1l-12.8,7c-6-3.4-12.6-5.7-19.4-6.9l-5.4-13.5c-0.2-0.5-0.7-0.8-1.2-0.8l-17.4,0.9
					c-0.5,0-1,0.4-1.1,0.9l-4.1,13.9c-6.6,2-12.9,5-18.6,8.9l-13.4-5.8c-0.5-0.1-1,0-1.3,0.3l-11.8,13c-0.3,0.4-0.4,1-0.1,1.4
					l7,12.8c-3.4,6-5.7,12.5-6.9,19.3l-13.5,5.5c-0.5,0.2-0.8,0.6-0.8,1.1l0.9,17.5c0,0.5,0.4,1,0.9,1.1l14,4
					c1.9,6.7,4.8,12.9,8.8,18.6l-5.7,13.4c-0.2,0.5-0.1,1.1,0.3,1.4l12.9,11.7c0.4,0.4,0.9,0.4,1.4,0.2l12.8-7
					c6,3.3,12.5,5.7,19.3,6.9l5.5,13.5c0.1,0.5,0.6,0.8,1.1,0.7l17.5-0.8c0.5-0.1,0.9-0.4,1.1-0.9l4.1-14c6.6-1.9,12.9-4.9,18.5-8.8
					l13.4,5.7c0.5,0.2,1.1,0.1,1.4-0.3L976.1,262.8z"/>
				<path class="st13" d="M913.3,234.9c-7.5-0.1-14-5-16.2-12.1c-1.4-4.3-0.9-9,1.2-13c2.1-4,5.7-6.9,10-8.2
					c9-2.8,18.5,2.2,21.3,11.2c0,0,0,0,0,0c1.3,4.3,0.9,9-1.2,13C925.4,231.3,919.6,234.8,913.3,234.9z M913.3,203.8
					c-1.4,0-2.8,0.2-4.1,0.6c-3.6,1.1-6.6,3.6-8.3,6.9c-3.6,6.8-1,15.3,5.9,18.9c3.3,1.7,7.1,2.1,10.6,1c7.4-2.2,11.6-9.9,9.4-17.3
					c0-0.1,0-0.1-0.1-0.2C924.9,207.8,919.5,203.8,913.3,203.8L913.3,203.8z"/>
				<path class="st13" d="M913,261.3c-23.2-0.1-42.4-18.3-43.6-41.5c0-0.7-0.1-1.5-0.1-2.2c0-23.3,18.3-42.5,41.6-43.6
					c24.1-1.2,44.6,17.3,45.8,41.4v2.2c0,2.4-0.2,4.7-0.5,7.1l-3-0.5c0.4-2.2,0.5-4.4,0.5-6.6v-2l0,0c-1.1-22.2-19.9-39.4-42.1-38.7
					H911c-21.6,1.1-38.6,18.9-38.7,40.6c0,0.7,0.1,1.4,0.1,2c1.2,22.4,20.3,39.7,42.7,38.6c7.4-0.3,14.5-2.7,20.6-6.8l1.6,2.5
					c-6.6,4.4-14.2,6.9-22.1,7.3L913,261.3z"/>
				
					<linearGradient id="SVGID_36_" gradientUnits="userSpaceOnUse" x1="806.861" y1="618.7988" x2="826.351" y2="474.2188" gradientTransform="matrix(1 0 0 -1 0 654)">
					<stop  offset="0" style="stop-color:#53D8FF"/>
					<stop  offset="1" style="stop-color:#3840F7"/>
				</linearGradient>
				<path class="st44" d="M856.2,147.5l-4.5-6.8c1.6-3.5,2.6-7.3,3-11.1l7.3-3.6c0.2-0.1,0.4-0.4,0.4-0.7l-1.3-9.7
					c0-0.3-0.2-0.6-0.5-0.6l-8-1.7c-1.4-3.6-3.3-7-5.8-9.9l2.6-7.8c0.1-0.3,0-0.5-0.2-0.7l-7.7-6c-0.2-0.2-0.6-0.2-0.8,0l-6.8,4.5
					c-3.5-1.6-7.3-2.7-11.2-3l-3.6-7.4c-0.1-0.3-0.4-0.4-0.7-0.3l-9.7,1.2c-0.3,0.1-0.5,0.3-0.6,0.6l-1.6,8c-3.6,1.3-7,3.3-10,5.7
					l-7.7-2.6c-0.3-0.1-0.6,0-0.8,0.2l-6,7.8c-0.1,0.2-0.2,0.6,0,0.8l4.5,6.8c-1.6,3.5-2.6,7.3-3,11.1l-7.3,3.7
					c-0.3,0.1-0.4,0.4-0.4,0.7l1.3,9.7c0,0.3,0.2,0.5,0.5,0.5l8,1.7c1.4,3.6,3.3,7,5.8,10l-2.6,7.7c-0.1,0.3,0,0.6,0.2,0.8l7.7,5.9
					c0.2,0.2,0.5,0.2,0.8,0.1l6.8-4.5c3.6,1.6,7.3,2.6,11.2,3l3.6,7.3c0.1,0.2,0.4,0.4,0.7,0.4l9.7-1.3c0.3,0,0.5-0.3,0.6-0.5l1.6-8
					c3.6-1.4,7-3.3,10-5.8l7.8,2.6c0.3,0.1,0.5,0,0.7-0.2l6-7.8C856.4,148.1,856.4,147.7,856.2,147.5z"/>
				<path class="st13" d="M819.1,136.2c-1.4,0-2.8-0.3-4-0.9c-2.5-1-4.5-3.1-5.5-5.6c-2.1-5.2,0.5-11.2,5.8-13.2s11.2,0.5,13.2,5.8
					l0,0c1,2.5,0.9,5.3-0.1,7.8c-1.1,2.5-3.1,4.4-5.6,5.4C821.7,135.9,820.4,136.2,819.1,136.2z M819.1,118.8
					c-0.9,0-1.8,0.1-2.6,0.5c-3.7,1.4-5.5,5.6-4.1,9.3c0.7,1.8,2.1,3.2,3.8,4c1.8,0.7,3.8,0.8,5.6,0.1c1.8-0.7,3.2-2.1,3.9-3.9
					c0.8-1.7,0.8-3.7,0.1-5.5l0,0C824.7,120.6,822.1,118.8,819.1,118.8z"/>
				<path class="st13" d="M851.1,168.6c-0.3,0-0.6-0.1-0.8-0.4c-0.3-0.4-0.2-1.1,0.2-1.4l3-2.5c0.4-0.3,1-0.3,1.4,0.1
					c0.4,0.4,0.3,1-0.1,1.4c-1,0.9-2,1.8-3.1,2.6C851.5,168.6,851.3,168.6,851.1,168.6z"/>
				<path class="st13" d="M818.5,179.5L818.5,179.5c-2.8,0-5.6-0.3-8.3-0.8c-0.5-0.2-0.7-0.8-0.5-1.3c0.1-0.3,0.4-0.5,0.8-0.6
					c2.6,0.4,5.3,0.7,8,0.7c0.6,0,1,0.4,1,1c0.1,0.5-0.3,0.9-0.8,1C818.6,179.5,818.6,179.5,818.5,179.5z M831.8,177.9
					c-0.5,0-0.9-0.3-1-0.7c-0.1-0.5,0.2-1.1,0.7-1.2c2.2-0.6,4.4-1.3,6.5-2.1l1.2-0.5c0.5-0.3,1.1-0.2,1.4,0.3s0.2,1.1-0.3,1.4
					c-0.1,0.1-0.2,0.1-0.3,0.1l-1.2,0.5c-2.2,0.9-4.5,1.6-6.8,2.2H831.8z M797.6,174.9h-0.4c-2.6-1.1-5-2.5-7.4-4
					c-0.4-0.3-0.6-0.9-0.3-1.4c0.3-0.5,0.9-0.6,1.4-0.3c0,0,0,0,0,0c2.3,1.4,4.6,2.7,7.1,3.8c0.5,0.2,0.7,0.8,0.5,1.3
					C798.3,174.7,798,174.9,797.6,174.9z M780.2,162.3c-0.3,0-0.5-0.1-0.7-0.3c-1.9-2.1-3.6-4.3-5.1-6.6c-0.3-0.5-0.2-1.1,0.3-1.4
					c0,0,0,0,0,0c0.4-0.3,1-0.2,1.3,0.2c0,0,0,0,0,0.1c1.5,2.2,3.2,4.3,5,6.3c0.3,0.5,0.3,1.1-0.1,1.5L780.2,162.3z M769.4,143.8
					c-0.4,0-0.8-0.2-1-0.6c-0.9-2.6-1.6-5.4-2.1-8.1c-0.1-0.5,0.2-1.1,0.8-1.2c0,0,0.1,0,0.1,0c0.5-0.1,1,0.3,1.1,0.8
					c0.5,2.6,1.1,5.3,2,7.8c0.2,0.5-0.1,1.1-0.6,1.3c0,0,0,0,0,0H769.4z"/>
				<path class="st13" d="M766.8,122.5L766.8,122.5c-0.6,0-1-0.4-1-0.9c0-0.1,0-0.1,0-0.2c0.1-1.3,0.2-2.7,0.5-4
					c0-0.5,0.5-0.9,1-0.8c0,0,0.1,0,0.1,0c0.5,0,0.9,0.5,0.8,1c0,0,0,0.1,0,0.1c-0.2,1.3-0.3,2.6-0.4,3.9
					C767.7,122.1,767.3,122.5,766.8,122.5z"/>
				<path class="st13" d="M787.4,85c-0.3,0-0.6-0.1-0.8-0.4c-0.3-0.5-0.2-1,0.2-1.4c1.1-0.8,2.2-1.6,3.4-2.3
					c0.5-0.3,1.1-0.2,1.4,0.3c0,0,0,0,0,0c0.3,0.5,0.1,1.1-0.3,1.4l-3.3,2.2C787.9,85,787.7,85,787.4,85z"/>
				<path class="st13" d="M871.2,120.7c-0.5,0-0.9-0.4-0.9-0.9c0,0,0,0,0,0c-0.4-2.6-0.9-5.2-1.6-7.8c-0.2-0.5,0.1-1,0.5-1.2
					c0.1,0,0.1,0,0.2,0c0.5-0.2,1,0.1,1.2,0.5c0,0.1,0,0.1,0,0.2c0.8,2.6,1.3,5.4,1.6,8.1c0.1,0.5-0.3,1-0.8,1.1L871.2,120.7z
					 M864.6,100.7c-0.4,0-0.7-0.2-0.9-0.5c-1.3-2.3-2.8-4.5-4.5-6.6c-0.3-0.4-0.2-1.1,0.2-1.4c0.4-0.3,1.1-0.2,1.4,0.2c0,0,0,0,0,0
					c1.7,2.1,3.3,4.4,4.6,6.8c0.3,0.4,0.2,1-0.2,1.3c0,0,0,0-0.1,0L864.6,100.7z M850.6,84.9l-0.6-0.2c-2.1-1.6-4.4-3-6.7-4.2
					c-0.5-0.3-0.7-0.9-0.4-1.3c0,0,0,0,0-0.1c0.2-0.5,0.7-0.7,1.2-0.5c0,0,0.1,0,0.1,0.1c2.4,1.3,4.8,2.8,7,4.4
					c0.4,0.4,0.5,0.9,0.2,1.4C851.2,84.8,850.9,84.9,850.6,84.9L850.6,84.9z M802.6,77.1c-0.4,0-0.8-0.3-1-0.7
					c-0.2-0.5,0.1-1,0.5-1.2c0.1,0,0.1,0,0.2,0c2.6-0.9,5.2-1.6,7.9-2c0.5-0.1,1.1,0.2,1.2,0.8c0,0,0,0,0,0c0.1,0.5-0.2,1-0.7,1.1
					c0,0-0.1,0-0.1,0c-2.6,0.5-5.2,1.1-7.7,2L802.6,77.1z M831.5,75.9h-0.2c-2.6-0.6-5.2-1.1-7.9-1.3c-0.5-0.1-1-0.5-0.9-1.1
					c0,0,0,0,0,0c0.1-0.5,0.6-0.9,1.1-0.9c2.7,0.3,5.4,0.7,8.1,1.4c0.5,0.1,0.9,0.6,0.8,1.2c0,0,0,0,0,0
					C832.3,75.6,831.9,75.9,831.5,75.9L831.5,75.9z"/>
				<path class="st13" d="M870.5,137.8h-0.2c-0.5-0.1-0.9-0.7-0.8-1.2c0.3-1.3,0.5-2.6,0.7-3.9s0.6-0.9,1.1-0.9
					c0.5,0.1,0.9,0.6,0.9,1.2c-0.2,1.3-0.5,2.7-0.7,4C871.4,137.5,871,137.8,870.5,137.8z"/>
				<path class="st13" d="M818.9,151c-12.6,0-23.2-9.4-24.9-21.9c-0.1-1.1-0.2-2.2-0.2-3.3c0.3-13.9,11.9-24.9,25.8-24.6
					c12.2,0.3,22.4,9.3,24.3,21.4c0.1,1.1,0.2,2.2,0.2,3.3s-0.1,1.4-0.1,2.1l-3-0.3c0-0.6,0.1-1.2,0.1-1.8c0-1-0.1-1.9-0.2-2.9
					c-1.6-12.2-12.8-20.7-25-19c-5.7,0.8-11,3.8-14.5,8.3c-3,3.9-4.6,8.6-4.6,13.5c0,1,0,1.9,0.2,2.9c0.7,5.8,3.7,11.1,8.4,14.7
					c8.1,6.2,19.3,6.1,27.3-0.2l1.8,2.4c-3.6,2.8-7.8,4.6-12.3,5.2L818.9,151z"/>
			</g>
			<path class="st13" d="M465.8,444.8L408.9,403l57.1-46.3c1.6-1.4,1.9-3.8,0.6-5.5c-1.4-1.7-3.8-1.9-5.5-0.5c0,0,0,0,0,0l-61,49.5
				c-1.6,1.4-1.8,3.9-0.4,5.5c0.2,0.2,0.4,0.4,0.6,0.6l61,44.7c0.7,0.5,1.5,0.7,2.3,0.7c1.2,0,2.4-0.6,3.1-1.6
				c1.2-1.6,0.9-4-0.7-5.2C465.9,444.9,465.9,444.8,465.8,444.8z"/>
			<path class="st13" d="M586.7,400.2l-61-49.5c-1.6-1.4-4-1.2-5.4,0.4c0,0,0,0,0,0.1c-1.4,1.7-1.2,4.1,0.5,5.5c0,0,0,0,0,0L578,403
				l-57,41.8c-1.7,1.2-2.1,3.5-0.9,5.2c0,0,0.1,0.1,0.1,0.1c0.7,1,1.9,1.6,3.1,1.6c0.8,0,1.6-0.2,2.3-0.7l60.9-44.7
				c1-0.7,1.6-1.8,1.6-3C588.1,402.1,587.6,401,586.7,400.2z"/>
			<path class="st13" d="M504.2,339.7c-2.1-0.4-4.1,1-4.5,3.1l-22.5,119.7c-0.4,2.1,1,4.1,3.1,4.5c0.5,0.1,0.9,0.1,1.4,0
				c1.6-0.2,2.8-1.4,3.1-3l22.5-119.8C507.7,342.1,506.3,340.1,504.2,339.7z"/>
			
				<linearGradient id="SVGID_37_" gradientUnits="userSpaceOnUse" x1="708.2972" y1="148.9919" x2="891.9377" y2="148.9919" gradientTransform="matrix(1 0 0 -1 0 654)">
				<stop  offset="0" style="stop-color:#2B3582"/>
				<stop  offset="1" style="stop-color:#150E42"/>
			</linearGradient>
			<path class="st45" d="M711.3,376.4c-1,45.6-4.1,203-2.6,258.8c0.1,5.9,4.2,10.7,9.2,10.9c25,0.9,116.6,3.3,157.5,1.3
				c8.5-0.4,15.2-8.4,15.4-18.4c0.9-47.9,2.7-182.6-1.7-244.3c-0.5-7.4-5.5-13.3-11.8-14c-27.2-3.2-119.2-11-154.5-8.3
				C716.4,362.9,711.4,369,711.3,376.4z"/>
			
				<linearGradient id="SVGID_38_" gradientUnits="userSpaceOnUse" x1="597.9117" y1="-27.5019" x2="1101.9119" y2="442.4981" gradientTransform="matrix(1 0 0 -1 0 654)">
				<stop  offset="0" style="stop-color:#D70010"/>
				<stop  offset="1" style="stop-color:#7A0110"/>
			</linearGradient>
			<path class="st46" d="M722.4,390.4c-1.3,36.8-5.6,159.4-4.2,204.7c0.2,6.6,4.6,12,10.3,12.3c23.3,1.6,102.7,5.2,136.9,2
				c6.1-0.6,10.9-6.4,11.3-13.6c1.7-37.6,6.7-151.7,5.4-196.5c-0.2-7.2-5-13-11-13.6c-25.2-2.7-109.6-9-138.7-7.1
				C727,378.9,722.7,384,722.4,390.4z"/>
			<path class="st47" d="M785.8,642.1c-6.2,0-11.2-5.8-11.2-13s5-13,11.2-13s11.3,5.9,11.3,13S792,642.1,785.8,642.1z M785.8,618.1
				c-5.1,0-9.2,5-9.2,11s4.1,11,9.2,11s9.3-4.9,9.3-11S790.9,618.1,785.8,618.1z"/>
			<path class="st10" d="M773,370.3L773,370.3c-0.1,1.3,0.9,2.5,2.2,2.7l29.9,1.9c1.5,0.1,2.6-1.5,2.3-3.2v-0.3
				c-0.1-1.1-0.9-1.9-2-2.1c-5-0.5-20.2-2-30.2-1.6C773.9,367.9,772.9,369,773,370.3z"/>
			<path class="st48" d="M867.1,454.1l0.3-43.2c0.1-5.2-3.3-9.6-7.6-10l-112-8.4c-4.5-0.4-8.3,3.8-8.5,9.3c0,0-5.1,129.9-5.1,131.5
				l0,0l-1.9,51c-0.2,5.5,3.4,10.1,8,10.3l117.6,3.6c4.5,0.1,8.3-4.4,8.3-9.9l0.6-80.2l0,0L867.1,454.1L867.1,454.1z"/>
			<path class="st13" d="M782.7,520l-36.5-26.7l36.6-29.7c1.1-0.8,1.5-2.3,0.7-3.5c-0.8-1.1-2.3-1.5-3.5-0.7
				c-0.1,0.1-0.2,0.2-0.3,0.3l-39.1,31.7c-0.6,0.5-0.9,1.2-0.9,2c0,0.8,0.4,1.5,1,1.9l39.1,28.7c0.4,0.3,1,0.5,1.5,0.5
				c0.8,0,1.5-0.4,2-1C784.1,522.4,783.8,520.8,782.7,520C782.7,520,782.7,520,782.7,520z"/>
			<path class="st13" d="M860.2,491.4l-39.1-31.7c-1-0.9-2.6-0.9-3.5,0.1c-0.9,1-0.9,2.6,0.1,3.5c0.1,0.1,0.2,0.2,0.3,0.3l36.6,29.7
				L818.1,520c-1.1,0.8-1.4,2.4-0.6,3.5c0,0,0,0,0,0c0.5,0.6,1.2,1,2,1c0.5,0,1.1-0.2,1.5-0.5l39.1-28.7c0.6-0.4,1-1.1,1-1.9
				C861.1,492.6,860.8,491.9,860.2,491.4z"/>
			<path class="st13" d="M807.3,452.7c-1.4-0.2-2.6,0.6-2.9,2L790,531.4c-0.2,1.4,0.6,2.6,2,2.9h0.9c1-0.2,1.8-1,2-2l14.4-76.7
				C809.5,454.2,808.7,453,807.3,452.7z"/>
			
				<linearGradient id="SVGID_39_" gradientUnits="userSpaceOnUse" x1="562.6663" y1="179.5388" x2="228.8262" y2="-337.4712" gradientTransform="matrix(1 0 0 -1 0 654)">
				<stop  offset="0" style="stop-color:#D70010"/>
				<stop  offset="1" style="stop-color:#7A0110"/>
			</linearGradient>
			<path class="st49" d="M319.3,522.4l341.7-1.5c3.2-0.1,5.8,2.5,5.9,5.7c0,0.1,0,0.1,0,0.2l-0.7,119.6c-0.1,3.3-2.8,5.9-6.1,5.8
				c-30.1-0.9-338.9-4.9-344.8-4.6s-2.7-94.2-1.8-119.6C313.6,524.9,316.2,522.4,319.3,522.4z"/>
			<path class="st13" d="M660.3,647.5L660.3,647.5c-19.3-0.6-203.8-2.9-292.4-4l-49.3-0.6h-0.4v-0.4c-2.1-11.8-2.1-51.4,0.1-114.3
				c0-0.6,0.5-1.1,1.1-1.1c0,0,0.1,0,0.1,0l341.5-1.5c0.3,0,0.6,0.1,0.9,0.3c0.2,0.2,0.3,0.5,0.3,0.8l-0.7,119.6
				C661.5,647,661,647.5,660.3,647.5L660.3,647.5z M319,641.9l48.9,0.6c88.6,1.1,273.1,3.4,292.4,4l0,0c0.1,0,0.2-0.1,0.2-0.2l0,0
				l0.7-119.6H661l-341.6,1.5c-0.1,0-0.2,0-0.2,0.1C317.1,590.4,317,629.7,319,641.9z"/>
			<path class="st50" d="M333.9,553.3L333.9,553.3c0,3.2,1.1,5.8,2.4,5.8h130.9c1.3,0,2.4-2.6,2.4-5.8l0,0c0-3.3-1.1-5.9-2.4-5.9
				H336.3C335,547.4,333.9,550,333.9,553.3z"/>
			<path class="st50" d="M333.9,573.2L333.9,573.2c0,3.3,1.1,5.9,2.4,5.9h130.9c1.3,0,2.4-2.6,2.4-5.9l0,0c0-3.2-1.1-5.8-2.4-5.8
				H336.3C335,567.4,333.9,570,333.9,573.2z"/>
			<path class="st50" d="M333.9,593.2L333.9,593.2c0,3.2,1.1,5.8,2.4,5.8h130.9c1.3,0,2.4-2.6,2.4-5.8l0,0c0-3.3-1.1-5.9-2.4-5.9
				H336.3C335,587.3,333.9,589.9,333.9,593.2z"/>
			<path class="st50" d="M333.9,613.1L333.9,613.1c0,3.3,1.1,5.9,2.4,5.9h130.9c1.3,0,2.4-2.6,2.4-5.9l0,0c0-3.2-1.1-5.8-2.4-5.8
				H336.3C335,607.3,333.9,609.9,333.9,613.1z"/>
			<circle class="st13" cx="503.1" cy="558" r="22.8"/>
			<circle class="st13" cx="559.4" cy="557.4" r="22.8"/>
			<circle class="st13" cx="615.9" cy="558.1" r="22.8"/>
			
				<linearGradient id="SVGID_40_" gradientUnits="userSpaceOnUse" x1="533.7798" y1="125.3108" x2="454.4098" y2="49.9807" gradientTransform="matrix(1 0 0 -1 0 654)">
				<stop  offset="0" style="stop-color:#D70010"/>
				<stop  offset="1" style="stop-color:#7A0110"/>
			</linearGradient>
			<path class="st51" d="M516.3,552.6c3,7.5-0.6,16-8,19c-7.5,3-16-0.6-19-8c-3-7.5,0.6-16,8-19c1.8-0.7,3.6-1.1,5.5-1.1h0.7v-3.7
				h-0.7c-10.1,0-18.3,8.2-18.3,18.3c0,10.1,8.2,18.3,18.3,18.3c10.1,0,18.3-8.2,18.3-18.3c0-2.4-0.5-4.8-1.4-7L516.3,552.6z"/>
			
				<linearGradient id="SVGID_41_" gradientUnits="userSpaceOnUse" x1="585.2997" y1="120.4252" x2="514.8397" y2="53.5552" gradientTransform="matrix(1 0 0 -1 0 654)">
				<stop  offset="0" style="stop-color:#D70010"/>
				<stop  offset="1" style="stop-color:#7A0110"/>
			</linearGradient>
			<path class="st52" d="M566.9,570.5c-6.8,4.3-15.9,2.2-20.1-4.7c-4.3-6.8-2.2-15.9,4.7-20.1c2.3-1.4,4.9-2.2,7.6-2.2h0.8v-3.7
				h-0.8c-10.1,0.7-17.7,9.6-17,19.7c0.7,9.1,7.9,16.3,17,17c3.4,0,6.7-0.9,9.6-2.8L566.9,570.5z"/>
			
				<linearGradient id="SVGID_42_" gradientUnits="userSpaceOnUse" x1="641.7639" y1="120.9237" x2="571.3039" y2="54.0537" gradientTransform="matrix(1 0 0 -1 0 654)">
				<stop  offset="0" style="stop-color:#D70010"/>
				<stop  offset="1" style="stop-color:#7A0110"/>
			</linearGradient>
			<path class="st53" d="M628.2,566.3c-4.5,6.7-13.6,8.4-20.3,3.9c-6.7-4.5-8.4-13.6-3.9-20.3c2.7-4,7.2-6.4,12.1-6.4h0.7v-3.7h-0.7
				c-10.1-0.7-19,6.9-19.7,17c-0.7,10.1,6.9,19,17,19.7c0.9,0.1,1.8,0.1,2.7,0c6-0.1,11.7-3,15.1-8L628.2,566.3z"/>
			<g class="st54">
				<path class="st13" d="M521.3,589.8h-37.1c-2.3,0-4.2,1.9-4.2,4.2s1.9,4.2,4.2,4.2h37.1c2.3,0,4.2-1.9,4.2-4.2
					S523.6,589.8,521.3,589.8z"/>
				<path class="st13" d="M577.9,589.8h-37.1c-2.3,0-4.2,1.9-4.2,4.2s1.9,4.2,4.2,4.2h37.1c2.3,0,4.2-1.9,4.2-4.2
					S580.2,589.8,577.9,589.8L577.9,589.8z"/>
				<path class="st13" d="M597.4,598.2h37.1c2.3,0,4.2-1.9,4.2-4.2s-1.9-4.2-4.2-4.2l0,0h-37.1c-2.3,0-4.2,1.9-4.2,4.2
					S595.1,598.2,597.4,598.2z"/>
				<path class="st13" d="M484.2,602.9h37.1c2.3,0,4.2,1.9,4.2,4.2V632c0,2.3-1.9,4.2-4.2,4.2h-37.1c-2.3,0-4.2-1.9-4.2-4.2v-24.9
					C480,604.8,481.9,602.9,484.2,602.9z"/>
				<path class="st13" d="M540.8,602.9h37.1c2.3,0,4.2,1.9,4.2,4.2V632c0,2.3-1.9,4.2-4.2,4.2h-37.1c-2.3,0-4.2-1.9-4.2-4.2v-24.9
					C536.6,604.8,538.5,602.9,540.8,602.9z"/>
				<path class="st13" d="M597.4,602.9h37.1c2.3,0,4.2,1.9,4.2,4.2V632c0,2.3-1.9,4.2-4.2,4.2h-37.1c-2.3,0-4.2-1.9-4.2-4.2v-24.9
					C593.2,604.8,595.1,602.9,597.4,602.9z"/>
			</g>
			
				<linearGradient id="SVGID_43_" gradientUnits="userSpaceOnUse" x1="244.0501" y1="58.7588" x2="252.0501" y2="59.2588" gradientTransform="matrix(1 0 0 -1 0 654)">
				<stop  offset="0" style="stop-color:#D70010"/>
				<stop  offset="1" style="stop-color:#7A0110"/>
			</linearGradient>
			<path class="st55" d="M248.5,587.5c0,0-0.9,4.7-1.3,9.3c-0.1,1.8,1.3,3.4,3.1,3.5c0,0,0,0,0,0c6.2,0.2,19.4,0.7,24.2,0.5
				c0.6,0,1-0.5,1-1c0-0.1,0-0.3-0.1-0.4l0,0c-0.2-0.6-0.7-1-1.2-1.3l-21.9-10L248.5,587.5z"/>
			
				<linearGradient id="SVGID_44_" gradientUnits="userSpaceOnUse" x1="3876.1799" y1="66.5781" x2="3883.29" y2="66.5781" gradientTransform="matrix(1 0 0 -1 -3628.3999 654)">
				<stop  offset="0" style="stop-color:#F9B776"/>
				<stop  offset="1" style="stop-color:#F47960"/>
			</linearGradient>
			<path class="st56" d="M247.8,584.7l0.7,5.6c0,0,3.8,1.8,6.4-0.2l-1.6-6.3L247.8,584.7z"/>
			
				<linearGradient id="SVGID_45_" gradientUnits="userSpaceOnUse" x1="3908.4724" y1="171.5182" x2="3840.3425" y2="79.1682" gradientTransform="matrix(1 0 0 -1 -3628.3999 654)">
				<stop  offset="0" style="stop-color:#53D8FF"/>
				<stop  offset="1" style="stop-color:#3840F7"/>
			</linearGradient>
			<path class="st57" d="M248.3,479.1c-0.3,1.5-1.5,73.2,6.1,105.4c0.1,0.5-0.1,1-0.6,1.2c-2,0.8-4.1,1.2-6.3,1.3
				c-0.9,0-1.6-0.6-1.8-1.4c-2.2-7.4-12.7-44.8-14.1-80.5c-1.5-39.8,0-1.3,0-1.3l0.9-24.7L248.3,479.1z"/>
			
				<linearGradient id="SVGID_46_" gradientUnits="userSpaceOnUse" x1="248.4713" y1="-357.0815" x2="343.9713" y2="-346.0815" gradientTransform="matrix(1 0 0 -1 -3628.3999 654)">
				<stop  offset="0" style="stop-color:#D70010"/>
				<stop  offset="1" style="stop-color:#7A0110"/>
			</linearGradient>
			<path class="st58" d="M223.3,589.9c0,0-1.3,2.4-2.6,8.7c-0.2,1.1,0.6,2.1,1.7,2.3c0,0,0,0,0,0c2.1,0.2,5.2,0.5,7.8,0.5
				c1.1,0,2-1,1.9-2.1c0,0,0-0.1,0-0.1c-0.4-3.3-1.7-6.5-3.9-9L223.3,589.9z"/>
			
				<linearGradient id="SVGID_47_" gradientUnits="userSpaceOnUse" x1="3850.54" y1="66.9042" x2="3856.6799" y2="66.9042" gradientTransform="matrix(1 0 0 -1 -3628.3999 654)">
				<stop  offset="0" style="stop-color:#F9B776"/>
				<stop  offset="1" style="stop-color:#F47960"/>
			</linearGradient>
			<path class="st59" d="M222.2,582.7l1.5,8.5c0,0,1.6,1.1,4.6,0.3l-0.7-9.1L222.2,582.7z"/>
			
				<linearGradient id="SVGID_48_" gradientUnits="userSpaceOnUse" x1="3896.3606" y1="180.4574" x2="3828.2205" y2="88.1074" gradientTransform="matrix(1 0 0 -1 -3628.3999 654)">
				<stop  offset="0" style="stop-color:#53D8FF"/>
				<stop  offset="1" style="stop-color:#3840F7"/>
			</linearGradient>
			<path class="st60" d="M218,481.3c-6.3,37.9,1.3,93.6,3.9,104.5c0.2,0.7,0.7,1.1,1.4,1.2c1.6,0.3,3.3,0.3,4.9-0.2
				c0.7-0.1,1.1-0.7,1.1-1.4c0.3-8.8-0.3-62.9,5.6-84.3c0.2-1.1,0.9-2,1.8-2.6l11.4-8.1l0.8-13L218,481.3z"/>
			
				<linearGradient id="SVGID_49_" gradientUnits="userSpaceOnUse" x1="-2374.7563" y1="247.5507" x2="-2339.7563" y2="58.6007" gradientTransform="matrix(-1 0 0 -1 -2120.75 654)">
				<stop  offset="0" style="stop-color:#A737D5"/>
				<stop  offset="1" style="stop-color:#EF497A"/>
			</linearGradient>
			<path class="st61" d="M257.9,409.6c-18.8-0.3-39.5,5-39.5,5c-5.6,32.7-1,70.4-1,70.4c14.6,3.8,31-2.4,31-2.4
				c2.4-13.6,13.7-52.1,13.7-52.1c8-0.9,15.8-3.4,22.9-7.3c-4.7-5.5-7-12.5-7.9-16.6C270.9,408.6,264.4,409.6,257.9,409.6z"/>
			
				<linearGradient id="SVGID_50_" gradientUnits="userSpaceOnUse" x1="-2438.3276" y1="264.5" x2="-2329.7979" y2="198.14" gradientTransform="matrix(-1 0 0 -1 -2120.75 654)">
				<stop  offset="0" style="stop-color:#F9B776"/>
				<stop  offset="1" style="stop-color:#F47960"/>
			</linearGradient>
			<path class="st62" d="M313.4,382c-0.9-1.3-2.7-1.8-4.2-1.2c-2.7,11.7-17.2,21.1-32.1,25.8c0.9,4.1,3.2,11.1,7.9,16.6
				C309.7,409.3,313.4,382,313.4,382z"/>
			
				<linearGradient id="SVGID_51_" gradientUnits="userSpaceOnUse" x1="-2439.23" y1="290.704" x2="-2426.6799" y2="254.854" gradientTransform="matrix(-1 0 0 -1 -2120.75 654)">
				<stop  offset="0" style="stop-color:#F9B776"/>
				<stop  offset="1" style="stop-color:#F47960"/>
			</linearGradient>
			<path class="st63" d="M313,382.5c0.1,0.7-2.1,1.6-3.4-0.9s-0.8-6.4-0.1-7.4c3.9-5.2,11.3-11.7,11.3-11.7c0.7,0.6,0.8,1.7,0.2,2.4
				l-3.6,3.8c0.9,1.2,1.6,2.6,2.1,4.1c0.3,1.3,0.1,2.6-0.5,3.8c-0.7,1.3-1.5,2.5-2.3,3.7C315.9,381.6,314.5,382.4,313,382.5z"/>
			
				<linearGradient id="SVGID_52_" gradientUnits="userSpaceOnUse" x1="-2429.5911" y1="267.7993" x2="-2439.041" y2="286.8693" gradientTransform="matrix(-1 0 0 -1 -2120.75 654)">
				<stop  offset="0" style="stop-color:#F9B776"/>
				<stop  offset="1" style="stop-color:#F47960"/>
			</linearGradient>
			<path class="st64" d="M315.8,371.1l-3.3,2.8l-1,2.8l2.9,3.2c0,0,1-5.5,1.8-6.7S316.5,371.5,315.8,371.1z"/>
			
				<linearGradient id="SVGID_53_" gradientUnits="userSpaceOnUse" x1="-2339.4583" y1="254.0948" x2="-2304.4583" y2="65.1448" gradientTransform="matrix(-1 0 0 -1 -2120.75 654)">
				<stop  offset="0" style="stop-color:#A737D5"/>
				<stop  offset="1" style="stop-color:#EF497A"/>
			</linearGradient>
			<path class="st65" d="M225.6,432.8l-7.2-18.2c0,0-17.6,11.9-20.4,27c5.3,0.4,10.4,1.8,15.2,4.1
				C214.5,438.6,225.6,432.8,225.6,432.8z"/>
			
				<linearGradient id="SVGID_54_" gradientUnits="userSpaceOnUse" x1="3825.958" y1="200.6552" x2="3871.948" y2="200.6552" gradientTransform="matrix(1 0 0 -1 -3628.3999 654)">
				<stop  offset="0" style="stop-color:#F9B776"/>
				<stop  offset="1" style="stop-color:#F47960"/>
			</linearGradient>
			<path class="st66" d="M240.9,449.9c0,0-19.7,11.1-26.3,1.6c-1.2-1.7-1.7-3.8-1.4-5.8c-4.8-2.3-9.9-3.7-15.2-4.1
				c-1,4.9-0.2,10,2.2,14.3c11.7,21.3,43.3-1.1,43.3-1.1L240.9,449.9z"/>
			
				<linearGradient id="SVGID_55_" gradientUnits="userSpaceOnUse" x1="3885.8513" y1="233.3351" x2="3911.1313" y2="127.9851" gradientTransform="matrix(1 0 0 -1 -3628.3999 654)">
				<stop  offset="0" style="stop-color:#53D8FF"/>
				<stop  offset="1" style="stop-color:#3840F7"/>
			</linearGradient>
			<path class="st67" d="M238.6,464l10.7-37.6c0.1-0.4,0.5-0.7,0.9-0.8l14.2-1.4c7.8-0.6,16.9-1.2,22.4-0.7c0.7,0.1,1.1,0.8,1,1.4
				c0,0.1,0,0.1-0.1,0.2c-3.1,6.2-15.9,31.7-22.3,40.1c-0.2,0.3-0.5,0.4-0.8,0.4l-25-0.2c-0.6,0-1.1-0.5-1-1.2
				C238.6,464.2,238.6,464.1,238.6,464z"/>
			
				<linearGradient id="SVGID_56_" gradientUnits="userSpaceOnUse" x1="3901.6724" y1="249.9371" x2="3896.2825" y2="226.2872" gradientTransform="matrix(1 0 0 -1 -3628.3999 654)">
				<stop  offset="0" style="stop-color:#53D8FF"/>
				<stop  offset="1" style="stop-color:#3840F7"/>
			</linearGradient>
			<path class="st68" d="M265.5,421l7.8-1.3c0.3-0.1,0.5,0.1,0.6,0.3c0,0.1,0,0.3,0,0.4l-0.8,2.3c-0.1,0.2-0.2,0.4-0.4,0.4l-7.5,1
				c-0.3,0.1-0.6-0.2-0.7-0.5c0-0.1,0-0.1,0-0.2l0.5-2C265.1,421.2,265.2,421,265.5,421z"/>
			
				<linearGradient id="SVGID_57_" gradientUnits="userSpaceOnUse" x1="3898.8286" y1="240.0219" x2="3896.2585" y2="224.5719" gradientTransform="matrix(1 0 0 -1 -3628.3999 654)">
				<stop  offset="0" style="stop-color:#53D8FF"/>
				<stop  offset="1" style="stop-color:#3840F7"/>
			</linearGradient>
			<path class="st69" d="M259.6,427.6l0.7-3.4c0.1-0.3,0.3-0.6,0.7-0.6l15.7-1.6c0.4-0.1,0.7,0.2,0.8,0.6c0,0.1,0,0.2,0,0.3l-1,4.2
				c-0.1,0.3-0.3,0.6-0.7,0.6l-15.4,0.8c-0.4,0-0.8-0.4-0.8-0.8C259.6,427.7,259.6,427.6,259.6,427.6z"/>
			
				<linearGradient id="SVGID_58_" gradientUnits="userSpaceOnUse" x1="3868.5" y1="205.4586" x2="3882.8301" y2="205.4586" gradientTransform="matrix(1 0 0 -1 -3628.3999 654)">
				<stop  offset="0" style="stop-color:#F9B776"/>
				<stop  offset="1" style="stop-color:#F47960"/>
			</linearGradient>
			<path class="st70" d="M241.2,454.9c0,0-1.5-6.2-0.9-8.3s1.7-5,5.6-4.4c2.9,0.5,5.7,1.3,8.5,2.3c0,0-0.2,2.8-3.2,1.9l1.9,1.4
				c0,0-0.3,2.3-2.8,1.1l1.7,1.9c-0.5,0.9-1.6,1.3-2.6,0.8c-0.1-0.1-0.2-0.1-0.3-0.2C247.3,450.2,246.4,455.6,241.2,454.9z"/>
			
				<linearGradient id="SVGID_59_" gradientUnits="userSpaceOnUse" x1="3861.2476" y1="249.8076" x2="3879.4275" y2="249.8076" gradientTransform="matrix(1 0 0 -1 -3628.3999 654)">
				<stop  offset="0" style="stop-color:#F9B776"/>
				<stop  offset="1" style="stop-color:#F47960"/>
			</linearGradient>
			<path class="st71" d="M238.9,394.4l-6,17.3c-0.1,0.2,0,0.5,0.2,0.7c0,0,0,0,0.1,0c1.6,0.9,7.5,3.5,14.6-0.9
				c0.7-0.5,1.2-1.3,1.3-2.1l1.9-15H238.9z"/>
			
				<linearGradient id="SVGID_60_" gradientUnits="userSpaceOnUse" x1="-3307.8132" y1="-115.3136" x2="-3314.6133" y2="-92.9036" gradientTransform="matrix(0.75 -0.67 -0.67 -0.75 2658.23 -1910.54)">
				<stop  offset="0" style="stop-color:#F9B776"/>
				<stop  offset="1" style="stop-color:#F47960"/>
			</linearGradient>
			<path class="st72" d="M251.9,378.4c0,0,6.5,12.3,5.7,17.3s-9,4.7-16.1,0.6l-4.9-13.3L251.9,378.4z"/>
			
				<linearGradient id="SVGID_61_" gradientUnits="userSpaceOnUse" x1="-3313.4719" y1="-78.3713" x2="-3307.7917" y2="-110.7813" gradientTransform="matrix(0.75 -0.67 -0.67 -0.75 2658.23 -1910.54)">
				<stop  offset="0" style="stop-color:#2B3582"/>
				<stop  offset="1" style="stop-color:#150E42"/>
			</linearGradient>
			<path class="st73" d="M241.8,389.8c0.3-0.2,0.4-0.5,0.3-0.8c-0.9-1.2-1.5-2.5-1.9-3.9c0,0-1.1-0.7,3-1.7s10.5-2.6,11.8-6.1
				s-2.1-12.2-7.5-5.3c-0.2,0.2-0.5,0.3-0.7,0.1c0,0-0.1-0.1-0.1-0.1c-0.9-1.1-3.2-3.5-6.4-2.1s-3.3,3.6-3.3,4.7
				c0,0.3-0.2,0.5-0.5,0.5c0,0-0.1,0-0.1,0c-2.7-0.7-5.6,0.6-6.8,3.2c-1.4,3.1-0.5,4.8,0.3,5.7c0.2,0.1,0.4,0.3,0.3,0.5
				c-0.1,0.2-0.3,0.4-0.5,0.3l0,0c-1.5,0.4-2.5,1.9-2.2,3.5c0.2,3.2,3.8,3,4.9,2.8c0.2,0,0.3,0.1,0.4,0.2c0.9,1,4.9,5.1,9.2,5.6
				c0.3,0,0.5-0.2,0.5-0.5c0-0.1,0-0.2,0-0.2l-1.9-5.4c0-0.2,0.1-0.5,0.3-0.6L241.8,389.8z"/>
			
				<linearGradient id="SVGID_62_" gradientUnits="userSpaceOnUse" x1="-3314.6853" y1="-115.1986" x2="-3320.7954" y2="-95.0286" gradientTransform="matrix(0.75 -0.67 -0.67 -0.75 2658.23 -1910.54)">
				<stop  offset="0" style="stop-color:#F9B776"/>
				<stop  offset="1" style="stop-color:#F47960"/>
			</linearGradient>
			<path class="st74" d="M242.6,390.5c0,0-4.7-3.2-5-0.5s4.2,3.9,6.4,2.9L242.6,390.5z"/>
			
				<linearGradient id="SVGID_63_" gradientUnits="userSpaceOnUse" x1="-3768.3125" y1="661.4316" x2="-4234.6323" y2="-38.0384" gradientTransform="matrix(-1 0 0 -1 -3228.24 654)">
				<stop  offset="0" style="stop-color:#D70010"/>
				<stop  offset="1" style="stop-color:#7A0110"/>
			</linearGradient>
			<path class="st75" d="M854.5,179.6l-292.3-1.4c-3.6,0-6.4,3.9-6.4,8.7l0.6,115.7c0.1,4.8,3,8.6,6.6,8.5l290.6-6.2
				c3.4-0.2,6.1-3.9,6.1-8.5l1.1-108.1C860.8,183.6,858,179.7,854.5,179.6z"/>
			<path class="st13" d="M562.8,303.8c-0.7-0.1-1.2-0.6-1.1-1.3c0,0,0,0,0,0L561,186.8c0-0.3,0.1-0.6,0.3-0.8
				c0.2-0.3,0.5-0.5,0.8-0.5l292.3,1.4c0.4,0,0.7,0.2,0.9,0.5c0.1,0.3,0.2,0.6,0.2,0.9l-1,108c0.1,0.6-0.4,1.2-1,1.3l0,0
				L562.8,303.8z M562.1,186.5c0,0.1-0.1,0.2-0.1,0.3l0.7,115.7c0,0.1,0,0.2,0.1,0.3l290.6-6.2c0-0.1,0.1-0.2,0.1-0.3l1-108.1V188
				L562.1,186.5z"/>
			<g class="st3">
				<rect x="574" y="239.4" class="st13" width="14.2" height="54.4"/>
				<rect x="597.8" y="258.1" class="st13" width="14.2" height="35.7"/>
				<rect x="621.6" y="211.9" class="st13" width="14.2" height="81.9"/>
				<rect x="645.3" y="274.1" class="st13" width="14.2" height="19.7"/>
				<rect x="669.1" y="222.9" class="st13" width="14.2" height="70.9"/>
				<rect x="692.9" y="235.1" class="st13" width="14.2" height="58.6"/>
				<rect x="716.6" y="248.5" class="st13" width="14.2" height="45.3"/>
				<rect x="740.4" y="195.4" class="st13" width="14.2" height="98.4"/>
				<rect x="764.2" y="205.8" class="st13" width="14.2" height="88"/>
				<rect x="787.9" y="221.5" class="st13" width="14.2" height="72.2"/>
				<rect x="811.7" y="275.9" class="st13" width="14.2" height="17.8"/>
				<rect x="835.5" y="241.3" class="st13" width="14.2" height="52.5"/>
			</g>
			
				<linearGradient id="SVGID_64_" gradientUnits="userSpaceOnUse" x1="482.1399" y1="549.9906" x2="119.1599" y2="478.0006" gradientTransform="matrix(1 0 0 -1 0 654)">
				<stop  offset="0.2763" style="stop-color:#D70010"/>
				<stop  offset="1" style="stop-color:#7A0110"/>
			</linearGradient>
			<path class="st76" d="M498.1,146.5c-2.8-10.7-10.5-28.1-31.4-30.7c-27.8-3.5-243.4-5.5-282.1-5.9c-3.5,0-6.5,2.6-7,6
				c-1.4,9.4-3.7,28.2-1.9,44.1c0.4,3.6,3.5,6.3,7.1,6.2l308.8-10.9c3.9-0.1,6.9-3.4,6.7-7.3C498.3,147.5,498.2,147,498.1,146.5z
				 M482.5,145.6L192,155.9c-3.7,0.1-6.8-2.8-6.9-6.5c0,0,0-0.1,0-0.1c-0.1-7.5,0.3-15,1.2-22.5c0.4-3.9,3.8-6.9,7.7-6.8
				c114.6,1.1,251.1,3.2,271.5,5.7c10.4,1.3,16.4,7.8,19.9,15c0.8,1.7,0.1,3.7-1.5,4.6C483.4,145.5,483,145.6,482.5,145.6z"/>
			
				<linearGradient id="SVGID_65_" gradientUnits="userSpaceOnUse" x1="288.9974" y1="595.2957" x2="202.0074" y2="446.8057" gradientTransform="matrix(1 0 0 -1 0 654)">
				<stop  offset="0" style="stop-color:#D70010"/>
				<stop  offset="1" style="stop-color:#7A0110"/>
			</linearGradient>
			<path class="st77" d="M192.1,109.3c0,14,0.2,48.1,1.8,65.9c0.2,3.3,3,5.8,6.3,5.7c16.3-0.1,63-0.6,84.9-3.6
				c2.8-0.5,5-2.7,5.4-5.5c1.5-12,4.8-43.9,0.8-61.1c-0.6-2.8-3.1-4.8-5.9-4.9c-14.9-0.7-63.3-2.9-87-2.9c-3.5,0-6.3,2.8-6.3,6.3
				C192.1,109.2,192.1,109.3,192.1,109.3z"/>
			<path class="st78" d="M211.9,114.3l1.6,49.3c0.1,3.7,3.2,6.6,6.9,6.5c0,0,0,0,0,0l42.2-1.1c3.7-0.1,6.6-3,6.6-6.7v-46
				c0-3.6-2.8-6.5-6.4-6.7l-43.8-2.2c-3.7-0.2-6.9,2.6-7.1,6.3C211.9,113.9,211.9,114.1,211.9,114.3z"/>
			<rect x="459.7" y="141.9" class="st13" width="4" height="122"/>
			
				<rect x="423.6" y="200.3" transform="matrix(3.490598e-03 -1 1 3.490598e-03 281.1909 686.7924)" class="st13" width="123.2" height="4"/>
			
				<linearGradient id="SVGID_66_" gradientUnits="userSpaceOnUse" x1="459.28" y1="387.4239" x2="487.8864" y2="387.4239" gradientTransform="matrix(1 0 0 -1 -3.543938e-02 654.0152)">
				<stop  offset="0" style="stop-color:#2B3582"/>
				<stop  offset="1" style="stop-color:#150E42"/>
			</linearGradient>
			<circle class="st79" cx="473.5" cy="266.6" r="14.3"/>
			<circle class="st80" cx="473.6" cy="266.6" r="8.5"/>
			
				<linearGradient id="SVGID_67_" gradientUnits="userSpaceOnUse" x1="511.7775" y1="382.1139" x2="451.7775" y2="211.4439" gradientTransform="matrix(1 0 0 -1 0 654)">
				<stop  offset="0" style="stop-color:#D70010"/>
				<stop  offset="1" style="stop-color:#7A0110"/>
			</linearGradient>
			<path class="st81" d="M463.8,318.7l-4.9-26.7c-0.9-4.9,2.3-9.7,7.2-10.6c0.5-0.1,1.1-0.2,1.7-0.2H480c5.8,0,10.5,4.7,10.5,10.5
				c0,0.3,0,0.6,0,0.9l-2.1,27.5c-0.3,3.6-2.1,7-5,9.2c-4.5,3.3-10.7,10.3-12.1,23.4c-2.1,20.8,17.4,27.8,29.4,25.5
				c9.3-1.7,14.4-13,12.4-21.5c-0.7-2.7,1-5.4,3.7-6.1c0.4-0.1,0.8-0.1,1.1-0.1l0,0c2.3,0.1,4.2,1.6,4.8,3.8
				c2.3,9.3,5.4,33.5-24,38.3c-34.7,5.6-68.4-31.4-38.7-61.3C463.2,327.9,464.6,323.3,463.8,318.7z"/>
			
				<linearGradient id="SVGID_68_" gradientUnits="userSpaceOnUse" x1="459.3" y1="514.2" x2="487.9" y2="514.2" gradientTransform="matrix(1 0 0 -1 0 654)">
				<stop  offset="0" style="stop-color:#2B3582"/>
				<stop  offset="1" style="stop-color:#150E42"/>
			</linearGradient>
			<circle class="st82" cx="473.6" cy="139.8" r="14.3"/>
			<circle class="st80" cx="473.6" cy="139.8" r="8.5"/>
			
				<linearGradient id="SVGID_69_" gradientUnits="userSpaceOnUse" x1="639.8755" y1="472.1109" x2="712.4955" y2="569.4608" gradientTransform="matrix(1 0 0 -1 0 654)">
				<stop  offset="0" style="stop-color:#53D8FF"/>
				<stop  offset="1" style="stop-color:#3840F7"/>
			</linearGradient>
			<path class="st83" d="M718.6,147l-49.3,5.2c-5.7,0.6-10.7-3.5-11.3-9.1c0-0.4-0.1-0.8-0.1-1.2V85c0-5.1,3.7-9.5,8.8-10.2
				l49.3-7.1c5.6-0.8,10.9,3.1,11.7,8.7c0.1,0.5,0.1,1,0.1,1.5v58.8C727.8,142,723.9,146.4,718.6,147z"/>
			<path class="st13" d="M678.7,136.4c-4,0-7.3-3.3-7.3-7.3c0-4,3.3-7.3,7.3-7.3s7.3,3.3,7.3,7.3c0,0,0,0,0,0
				C686,133.1,682.7,136.4,678.7,136.4z M678.7,124.7c-2.4,0-4.4,2-4.4,4.4s2,4.4,4.4,4.4s4.4-2,4.4-4.4
				C683.1,126.7,681.1,124.7,678.7,124.7L678.7,124.7z"/>
			<path class="st13" d="M678.7,113.5c8.6,0,15.6,7,15.6,15.6c0,0.5,0,1.1-0.1,1.6c-0.1,0.6,0.4,1.1,1,1.2c0.1,0,0.1,0,0.2,0
				l2.3-0.4c0.5-0.1,0.9-0.5,0.9-1c0-0.4,0.1-0.9,0.1-1.4c-0.1-11-9-19.9-20-19.9h-2.4c-0.6,0.1-1.1,0.7-1,1.3l0.4,2.2
				c0.1,0.5,0.6,0.9,1.2,0.8c0,0,0,0,0,0L678.7,113.5z"/>
			<path class="st13" d="M678.7,102.3c14.8,0,26.8,12,26.8,26.8l0,0c0,0.6,0.5,1.1,1.1,1.1c0.1,0,0.1,0,0.2,0l2.2-0.4l0.9-1
				c-0.2-17.1-14.1-30.9-31.2-30.9c-1.5,0-2.9,0.1-4.4,0.3c-0.6,0.1-1,0.7-0.9,1.3c0,0,0,0,0,0l0.4,2.2c0.1,0.5,0.6,0.9,1.2,0.8
				c0,0,0,0,0,0L678.7,102.3z"/>
			<path class="st13" d="M678.7,91c20.4,0,37.2,16.1,38,36.5c0,0.6,0.6,1.1,1.2,1c0,0,0.1,0,0.1,0l2.2-0.3c0.5-0.1,0.9-0.6,0.9-1.1
				c-1.1-22.6-19.8-40.4-42.4-40.4c-2.1,0-4.2,0.2-6.3,0.5c-0.5,0.1-0.9,0.6-0.8,1.2c0,0,0,0,0,0l0.3,2.2c0.1,0.5,0.6,0.9,1.2,0.9
				C675,91.2,676.8,91,678.7,91z"/>
			
				<linearGradient id="SVGID_70_" gradientUnits="userSpaceOnUse" x1="-2159.6416" y1="3808.2852" x2="-2043.2017" y2="3784.5251" gradientTransform="matrix(-1 -5.000000e-02 5.000000e-02 -1 -1791.01 3772.21)">
				<stop  offset="0" style="stop-color:#53D8FF"/>
				<stop  offset="1" style="stop-color:#3840F7"/>
			</linearGradient>
			<path class="st84" d="M537.7,80.5c1.8-11.2-8.3-27.8-29.2-15c-0.2-5.4-24.4-23.6-38.1,10.6c-1.5-8.6-20-5.5-24.1,8.6
				c-6.7-3.9-24.2,12.8-2.6,17.2c27.7,5.7,91.6,8.7,104.2-10S537.7,80.5,537.7,80.5z"/>
			
				<linearGradient id="SVGID_71_" gradientUnits="userSpaceOnUse" x1="-2247.6792" y1="3825.0322" x2="-2174.2903" y2="3810.0645" gradientTransform="matrix(-1 -5.000000e-02 5.000000e-02 -1 -1791.01 3772.21)">
				<stop  offset="0" style="stop-color:#53D8FF"/>
				<stop  offset="1" style="stop-color:#3840F7"/>
			</linearGradient>
			<path class="st85" d="M631.1,65.5c1.2-7.1-5.2-17.5-18.4-9.5c-0.1-3.4-15.4-14.9-24,6.7c-0.9-5.4-12.6-3.4-15.2,5.5
				c-4.2-2.5-15.3,8-1.6,10.8c17.4,3.6,57.7,5.5,65.7-6.3S631.1,65.5,631.1,65.5z"/>
			
				<linearGradient id="SVGID_72_" gradientUnits="userSpaceOnUse" x1="-3102.6848" y1="1960.1104" x2="-3189.8547" y2="2012.9404" gradientTransform="matrix(0.96 -0.27 -7.000000e-02 -0.93 3941.05 1048.5601)">
				<stop  offset="0" style="stop-color:#D70010"/>
				<stop  offset="1" style="stop-color:#7A0110"/>
			</linearGradient>
			<polygon class="st86" points="753.9,33 756.1,52.6 741.9,45.6 			"/>
			
				<linearGradient id="SVGID_73_" gradientUnits="userSpaceOnUse" x1="-3155.1465" y1="1979.3193" x2="-3254.8965" y2="2084.7893" gradientTransform="matrix(0.96 -0.27 -7.000000e-02 -0.93 3941.05 1048.5601)">
				<stop  offset="0" style="stop-color:#D70010"/>
				<stop  offset="1" style="stop-color:#7A0110"/>
			</linearGradient>
			<path class="st87" d="M664.6,31.5l58,40.5c2.3,1.6,5.4,1,7-1.2c0,0,0,0,0-0.1l38.5-59.9c0.5-0.6,0.5-1.6,0-2.2
				c-0.5-0.7-1.3-1-2.1-0.8L664.6,31.5z"/>
			
				<linearGradient id="SVGID_74_" gradientUnits="userSpaceOnUse" x1="-3109.1267" y1="1960.873" x2="-3190.5466" y2="2010.223" gradientTransform="matrix(0.96 -0.27 -7.000000e-02 -0.93 3941.05 1048.5601)">
				<stop  offset="0" style="stop-color:#D70010"/>
				<stop  offset="1" style="stop-color:#7A0110"/>
			</linearGradient>
			<polygon class="st88" points="753.9,33 664.6,31.5 747.7,42.7 748.5,48.1 			"/>
			
				<linearGradient id="SVGID_75_" gradientUnits="userSpaceOnUse" x1="-373.3758" y1="1816.3979" x2="-336.1658" y2="1827.178" gradientTransform="matrix(-0.96 0.27 -0.27 -0.96 901.35 1892.34)">
				<stop  offset="0" style="stop-color:#D70010"/>
				<stop  offset="1" style="stop-color:#7A0110"/>
			</linearGradient>
			<polygon class="st89" points="744,48.4 756.1,52.6 747.7,42.7 			"/>
			<path class="st90" d="M773.3,51.2l5-0.2c0.5-0.1,0.9,0.3,1,0.8c0,0.1,0,0.1,0,0.2c0.1,0.5-0.3,0.9-0.8,1c0,0-0.1,0-0.1,0l0,0
				l-5,0.2l0,0c-0.6,0-1-0.4-1.1-1c-0.1-0.5,0.3-0.9,0.8-1C773.2,51.2,773.2,51.2,773.3,51.2z"/>
			<path class="st90" d="M783.3,50.9h5c0.5-0.1,0.9,0.3,1,0.8c0,0.1,0,0.1,0,0.2c0,0.6-0.4,1-1,1h-5c-0.6,0-1-0.4-1-1
				C782.3,51.4,782.8,50.9,783.3,50.9z"/>
			<path class="st90" d="M793.3,50.9h5c0.5-0.1,0.9,0.3,1,0.8c0,0.1,0,0.1,0,0.2c0,0.6-0.4,1-1,1h-5c-0.5,0-1-0.5-1-1
				C792.3,51.3,792.7,50.9,793.3,50.9z"/>
			<path class="st90" d="M803.3,51.1h5c0.6,0,1,0.4,1,1s-0.4,1-1,1h-5c-0.6-0.1-1-0.5-1-1.1C802.4,51.5,802.8,51.1,803.3,51.1z"/>
			<path class="st90" d="M813.3,51.4l5,0.2c0.6,0.1,1,0.5,1,1.1c-0.1,0.5-0.5,0.9-1,0.9l0,0l-5-0.2l0,0c-0.6-0.1-1-0.5-1-1.1
				C812.4,51.8,812.8,51.4,813.3,51.4z"/>
			<path class="st90" d="M823.3,51.9l5,0.3c0.6,0,1,0.4,1,1c-0.1,0.6-0.5,1-1.1,1l0,0l-5-0.3l0,0c-0.5-0.1-0.9-0.6-0.9-1.1
				C822.4,52.3,822.8,51.9,823.3,51.9z"/>
			<path class="st90" d="M833.3,52.6l5,0.4c0.5,0,0.9,0.4,0.9,0.9c0,0,0,0.1,0,0.1c-0.1,0.5-0.5,0.9-1,0.9l0,0l-5-0.4l0,0
				c-0.5-0.2-0.8-0.8-0.6-1.3C832.7,52.9,833,52.7,833.3,52.6z"/>
			<path class="st90" d="M843.3,53.4l5,0.5c0.5-0.1,1.1,0.2,1.2,0.8s-0.2,1.1-0.8,1.2c-0.2,0-0.4,0-0.6-0.1l0,0l-5-0.5l0,0
				c-0.4,0-0.8-0.3-0.8-0.8c0-0.1,0-0.2,0-0.2c0-0.5,0.4-0.9,0.9-0.9C843.2,53.4,843.3,53.4,843.3,53.4z"/>
			<path class="st90" d="M853.3,54.4l5,0.6c0.5-0.1,1,0.3,1.1,0.9c0.1,0.5-0.3,1-0.9,1.1c-0.2,0-0.4,0-0.5-0.1l0,0l-4.9-0.6l0,0
				c-0.5,0-0.9-0.4-0.9-0.9c0,0,0-0.1,0-0.1C852.3,54.8,852.7,54.3,853.3,54.4C853.3,54.4,853.3,54.4,853.3,54.4L853.3,54.4z"/>
			<path class="st90" d="M863.2,55.6l5,0.7c0.5,0.1,0.9,0.6,0.8,1.1c0,0.5-0.5,0.9-1,0.8c0,0-0.1,0-0.1,0l0,0l-4.9-0.6l0,0
				c-0.5,0-0.9-0.4-0.9-0.9c0,0,0-0.1,0-0.1C862.2,56.1,862.7,55.7,863.2,55.6L863.2,55.6z"/>
			<path class="st90" d="M873.1,57.1l5,0.8c0.5,0,0.9,0.5,0.8,1c0,0,0,0.1,0,0.1c-0.1,0.5-0.6,0.8-1.1,0.8l0,0l-5-0.8l0,0
				c-0.5-0.1-0.8-0.6-0.8-1.1c0-0.5,0.5-0.9,1-0.8C873,57.1,873.1,57.1,873.1,57.1z"/>
			<path class="st90" d="M883,58.7l5,1c0.5,0,0.8,0.5,0.7,1.1c-0.1,0.5-0.6,0.8-1.1,0.7c0,0,0,0,0,0l0,0l-4.9-0.9l0,0
				c-0.5-0.2-0.7-0.8-0.5-1.3C882.4,59,882.7,58.7,883,58.7z"/>
			<path class="st90" d="M892.9,60.6l4.9,1.1c0.5,0.1,0.8,0.6,0.7,1.1c0,0,0,0,0,0c-0.1,0.5-0.6,0.9-1.1,0.8l0,0l-4.9-1.1l0,0
				c-0.5,0-0.9-0.5-0.8-1c0,0,0-0.1,0-0.1C891.8,60.9,892.4,60.5,892.9,60.6L892.9,60.6z"/>
			<path class="st90" d="M902.7,62.8l4.8,1.2c0.5,0.2,0.8,0.7,0.7,1.2c-0.1,0.5-0.6,0.8-1.1,0.7c0,0,0,0,0,0H907l-4.8-1.2l0,0
				c-0.5-0.1-0.8-0.7-0.7-1.2C901.6,63,902.2,62.7,902.7,62.8z"/>
			<path class="st90" d="M912.4,65.3l4.8,1.4c0.5,0.1,0.8,0.6,0.6,1.1c0,0,0,0.1,0,0.1c-0.1,0.4-0.5,0.7-0.9,0.7
				c-0.1,0-0.1,0-0.2-0.1l0,0l-4.8-1.3h-0.1c-0.5-0.2-0.8-0.8-0.5-1.3C911.4,65.4,911.9,65.2,912.4,65.3z"/>
			<path class="st90" d="M922,68.2l4.8,1.6c0.5,0.1,0.7,0.6,0.6,1.1c-0.1,0.5-0.6,0.8-1.1,0.6c0,0-0.1,0-0.1,0l0,0l-4.8-1.5l0,0
				c-0.5-0.2-0.8-0.7-0.6-1.2C921,68.3,921.5,68,922,68.2z"/>
			<path class="st90" d="M931.5,71.4l4.7,1.8c0.5,0.2,0.7,0.7,0.5,1.2c0,0,0,0,0,0c-0.1,0.5-0.6,0.8-1.1,0.6c0,0-0.1,0-0.1,0l0,0
				l-4.7-1.8l0,0c-0.5-0.2-0.7-0.7-0.5-1.2c0,0,0,0,0,0C930.4,71.5,930.9,71.2,931.5,71.4C931.4,71.4,931.5,71.4,931.5,71.4z"/>
			<path class="st90" d="M940.8,75.1l4.6,2.1c0.5,0.2,0.7,0.7,0.5,1.2s-0.7,0.7-1.2,0.5l0,0l-4.6-2l0,0c-0.5-0.2-0.7-0.7-0.5-1.2
				c0,0,0,0,0,0C939.8,75.2,940.3,75,940.8,75.1C940.8,75.2,940.8,75.2,940.8,75.1L940.8,75.1z"/>
			<path class="st90" d="M950,79.3l4.4,2.4c0.4,0.1,0.6,0.6,0.5,1c0,0.1-0.1,0.1-0.1,0.2c-0.2,0.4-0.8,0.6-1.2,0.4l0,0l-4.5-2.3l0,0
				c-0.4-0.3-0.6-0.8-0.4-1.3C949,79.3,949.5,79.1,950,79.3L950,79.3z"/>
			<path class="st90" d="M958.8,84.1l4.3,2.7c0.4,0.3,0.5,0.8,0.2,1.2s-0.8,0.5-1.2,0.2l0,0l-4.2-2.6h-0.1c-0.4-0.3-0.5-0.8-0.3-1.3
				C957.8,84,958.3,83.9,958.8,84.1z"/>
			<path class="st90" d="M967.3,89.5l4.2,2.8c0.4,0.3,0.5,0.8,0.2,1.3c0,0,0,0,0,0c-0.2,0.4-0.8,0.6-1.2,0.3c0,0-0.1,0-0.1,0l0,0
				l-4.1-2.8l0,0c-0.4-0.3-0.6-0.9-0.3-1.3C966.3,89.4,966.9,89.2,967.3,89.5L967.3,89.5z"/>
			<path class="st90" d="M975.5,95.3l4.1,3c0.4,0.2,0.5,0.7,0.3,1.1c0,0,0,0.1-0.1,0.1c-0.3,0.4-0.8,0.5-1.3,0.2c0,0,0,0,0,0l0,0
				l-4-3h-0.1c-0.4-0.3-0.4-0.9-0.1-1.3c0,0,0,0,0,0C974.6,95,975.1,95,975.5,95.3C975.4,95.3,975.5,95.3,975.5,95.3L975.5,95.3z"/>
			<path class="st90" d="M983.5,101.3l3.9,3.2c0.4,0.3,0.4,0.9,0.1,1.3c0,0,0,0,0,0c-0.3,0.4-0.8,0.5-1.3,0.2c0,0,0,0,0,0l0,0
				l-3.8-3.1l0,0c-0.4-0.3-0.5-0.9-0.2-1.3S983.1,101.1,983.5,101.3L983.5,101.3z"/>
			<path class="st90" d="M991.2,107.9l3.7,3.4c0.4,0.3,0.4,0.9,0,1.3c0,0,0,0,0,0c-0.3,0.4-0.9,0.4-1.3,0c0,0,0,0,0,0l0,0l-3.6-3.4
				h-0.1c-0.3-0.4-0.3-0.9,0-1.3C990.2,107.5,990.8,107.5,991.2,107.9C991.2,107.9,991.2,107.9,991.2,107.9L991.2,107.9z"/>
			<path class="st90" d="M998.4,114.9l3.4,3.7c0.4,0.3,0.5,0.9,0.2,1.3c-0.3,0.4-0.9,0.5-1.3,0.2c-0.1-0.1-0.2-0.1-0.2-0.2l0,0
				l-3.4-3.7l0,0c-0.4-0.3-0.5-0.9-0.2-1.3c0.3-0.4,0.9-0.5,1.3-0.2C998.3,114.7,998.3,114.8,998.4,114.9z"/>
			<path class="st90" d="M1005.1,122.4l3,4.1c0.3,0.3,0.2,0.8-0.1,1.1c0,0-0.1,0.1-0.1,0.1c-0.3,0.3-0.8,0.3-1.1,0
				c0,0,0-0.1-0.1-0.1h-0.1l-2.9-3.9h-0.1c-0.3-0.3-0.2-0.8,0.1-1.1c0,0,0.1-0.1,0.1-0.1c0.4-0.3,0.9-0.3,1.3,0.1c0,0,0,0,0,0V122.4
				z"/>
			<path class="st90" d="M1010.9,130.7l2.6,4.3c0.2,0.5,0.1,1-0.4,1.3c-0.4,0.2-1,0-1.2-0.4l0,0l-2.5-4.3l0,0
				c-0.2-0.4-0.1-1,0.3-1.3C1010.1,130.1,1010.7,130.3,1010.9,130.7L1010.9,130.7z"/>
			<path class="st90" d="M1015.7,139.6l1.8,4.7c0.2,0.5,0,1-0.5,1.2c0,0,0,0,0,0c-0.5,0.2-1-0.1-1.2-0.5l0,0l-1.8-4.6l0,0
				c-0.2-0.5,0.1-1,0.5-1.2c0.5-0.2,1,0.1,1.2,0.6l0,0V139.6z"/>
			<path class="st90" d="M1018.9,149.2l0.9,5c0.1,0.5-0.2,1-0.7,1.1c0,0,0,0,0,0c-0.5,0.1-0.9-0.3-1-0.8c0,0,0,0,0,0l0,0l-0.9-4.9
				l0,0c-0.2-0.4,0-1,0.4-1.2c0.4-0.2,1,0,1.2,0.4c0.1,0.2,0.1,0.3,0.1,0.5V149.2z"/>
			<path class="st90" d="M1020.2,159.3c0,1.7,0,3.4-0.2,5.1c-0.1,0.5-0.5,0.9-1,0.8c0,0,0,0,0,0c-0.5-0.1-0.8-0.5-0.8-1
				c0.2-1.6,0.2-3.3,0.2-4.9c0-0.5,0.4-0.9,0.9-0.9C1019.8,158.4,1020.2,158.8,1020.2,159.3L1020.2,159.3z"/>
			<path class="st90" d="M1019.3,169.4l-1.3,5c-0.1,0.5-0.5,0.9-1,0.8c-0.5-0.1-0.9-0.5-0.8-1c0-0.1,0-0.2,0.1-0.3l0,0l1.2-4.7h0.1
				c0-0.4,0.3-0.7,0.7-0.7c0.1,0,0.2,0,0.3,0.1c0.5,0.1,0.8,0.5,0.7,1V169.4z"/>
			<path class="st90" d="M1016.3,179.1l-2.2,4.6c-0.1,0.4-0.6,0.7-1,0.5c0,0-0.1,0-0.1,0c-0.5-0.2-0.7-0.7-0.5-1.2c0,0,0,0,0,0h0.1
				l2-4.4h0.1c0.3-0.4,0.9-0.5,1.3-0.2c0.3,0.2,0.4,0.5,0.3,0.9L1016.3,179.1z"/>
			<path class="st90" d="M1011.6,188.1l-2.8,4.2c-0.3,0.4-0.8,0.5-1.2,0.3c-0.4-0.3-0.5-0.8-0.3-1.3h0.1l2.7-4.1l0,0
				c0.3-0.4,0.8-0.5,1.3-0.2c0,0,0,0,0,0C1011.8,187.2,1011.9,187.7,1011.6,188.1C1011.7,188.1,1011.6,188.2,1011.6,188.1
				L1011.6,188.1z"/>
			<path class="st90" d="M1005.7,196.3l-3.3,3.9c-0.4,0.3-1,0.2-1.3-0.2c-0.2-0.3-0.2-0.7,0-1l0,0l3.3-3.8l0,0
				c0.4-0.3,1-0.1,1.2,0.3C1005.8,195.7,1005.8,196,1005.7,196.3z"/>
			<path class="st90" d="M998.9,203.8l-3.6,3.5c-0.3,0.3-0.9,0.3-1.2,0c-0.3-0.4-0.3-0.9,0-1.3l0,0l3.6-3.4l0,0
				c0.4-0.3,0.9-0.3,1.3,0.1c0,0,0,0,0,0C999.3,203,999.3,203.5,998.9,203.8c0.1,0.1,0,0.1,0,0.1V203.8z"/>
			<path class="st90" d="M991.6,210.6l-3.9,3.2c-0.3,0.3-0.8,0.3-1.1,0c0,0,0-0.1-0.1-0.1c-0.3-0.3-0.3-0.8,0-1.1c0,0,0.1,0,0.1-0.1
				l0,0l3.8-3.2h0.1c0.3-0.3,0.8-0.3,1.1,0c0,0,0,0.1,0.1,0.1C992,209.8,991.9,210.3,991.6,210.6L991.6,210.6z"/>
			<path class="st90" d="M983.8,216.9l-3.9,3.2l0,0c-0.4,0.3-0.9,0.2-1.2-0.1c-0.3-0.4-0.3-0.9,0.1-1.3c0,0,0,0,0,0l3.9-3.1
				c0.3-0.3,0.8-0.3,1.1,0c0,0,0,0.1,0.1,0.1C984.2,216.1,984.1,216.6,983.8,216.9L983.8,216.9z"/>
			<path class="st90" d="M976,223.3l-3.7,3.2h-0.1c-0.3,0.3-0.8,0.3-1.1,0c0,0,0-0.1-0.1-0.1c-0.3-0.4-0.2-0.9,0.1-1.2l3.8-3.3
				c0.4-0.3,0.9-0.2,1.2,0.1c0.4,0.3,0.4,0.9,0,1.3C976.1,223.3,976.1,223.3,976,223.3L976,223.3z"/>
			<path class="st90" d="M968.5,229.8l-3.6,3.4l0,0c-0.2,0.3-0.6,0.4-1,0.2c-0.1-0.1-0.2-0.1-0.2-0.2c-0.3-0.3-0.4-0.8-0.1-1.1
				c0,0,0,0,0.1-0.1l3.7-3.4c0.3-0.3,0.8-0.3,1.1,0.1C968.9,229,968.8,229.5,968.5,229.8L968.5,229.8z"/>
			<path class="st90" d="M961.4,236.7l-3.5,3.6l0,0c-0.3,0.3-0.9,0.3-1.2,0c-0.3-0.3-0.4-0.8-0.1-1.1c0,0,0,0,0.1-0.1l3.4-3.7
				c0.3-0.3,0.9-0.3,1.2,0c0.4,0.3,0.4,0.8,0.2,1.1C961.4,236.5,961.4,236.6,961.4,236.7L961.4,236.7z"/>
			<path class="st90" d="M954.7,244.1l-3,3.9h-0.1c-0.2,0.4-0.7,0.5-1.1,0.3c0,0-0.1,0-0.1-0.1c-0.3-0.3-0.4-0.8-0.1-1.2l3.1-4
				c0.3-0.4,0.8-0.4,1.1-0.2c0,0,0.1,0,0.1,0.1c0.3,0.3,0.4,0.8,0.1,1.1l0,0V244.1z"/>
			<path class="st90" d="M948.9,252.1l-2.3,4.3h-0.1c-0.1,0.4-0.5,0.5-0.9,0.4c-0.1,0-0.1-0.1-0.2-0.1c-0.4-0.2-0.6-0.6-0.4-1
				c0,0,0,0,0-0.1l2.5-4.5c0.2-0.4,0.7-0.5,1.1-0.3c0,0,0,0,0,0c0.4,0.1,0.5,0.5,0.4,0.9c0,0.1-0.1,0.1-0.1,0.2l0,0V252.1z"/>
			<path class="st90" d="M944.7,261c-0.5,1.5-0.9,3.1-1.1,4.7c-0.1,0.5-0.5,0.8-1,0.7c-0.4,0-0.8-0.4-0.7-0.9c0,0,0-0.1,0-0.1
				c0.3-1.7,0.7-3.4,1.2-5c0.2-0.4,0.7-0.6,1.1-0.5c0.4,0.1,0.7,0.6,0.5,1C944.7,260.9,944.7,261,944.7,261L944.7,261z"/>
			<path class="st90" d="M943.2,270.5c0,1.6,0.1,3.3,0.3,4.9c0.1,0.4-0.1,0.8-0.5,0.9c-0.1,0-0.2,0-0.2,0c-0.4,0.1-0.8-0.1-0.9-0.5
				c0-0.1,0-0.2,0-0.2c-0.3-1.7-0.4-3.4-0.4-5.1c0-0.4,0.4-0.8,0.8-0.8C942.8,269.7,943.1,270,943.2,270.5L943.2,270.5z"/>
			<path class="st90" d="M944.5,280.2l1.5,4.7l0,0c0.1,0.4-0.1,0.9-0.5,1.1c-0.5,0.1-0.9-0.2-1.1-0.6l-1.5-4.8
				c-0.1-0.4,0.1-0.9,0.5-1c0.4-0.2,0.9,0,1.1,0.4C944.5,280,944.5,280.1,944.5,280.2L944.5,280.2L944.5,280.2z"/>
			<path class="st90" d="M947.9,289.5l2,4.5l0,0c0.2,0.4,0,0.9-0.4,1.1c-0.4,0.2-0.9,0-1.1-0.4l0,0l-2.1-4.6c-0.2-0.4,0-0.9,0.3-1.1
				c0,0,0,0,0.1,0c0.4-0.2,0.9,0,1.1,0.3c0,0,0,0,0,0.1h0.1V289.5z"/>
			<path class="st90" d="M952.1,298.5l2.3,4.4c0.2,0.4,0,0.9-0.3,1.1c0,0,0,0-0.1,0c-0.4,0.2-0.9,0.1-1.1-0.3c0,0,0,0,0,0l0,0
				l-2.3-4.5c-0.2-0.4,0-0.9,0.3-1.1c0,0,0,0,0.1,0c0.4-0.2,0.9-0.1,1.1,0.3c0,0,0,0,0,0l0,0V298.5z"/>
			<path class="st90" d="M956.4,307.6l1.7,4.7c0.1,0.4-0.1,0.9-0.5,1.1c-0.4,0.1-0.9-0.1-1.1-0.5l0,0l-1.6-4.6l0,0
				c-0.2-0.4,0-0.9,0.3-1.1S956.1,307.2,956.4,307.6c0,0,0,0.1,0,0.2L956.4,307.6z"/>
			<path class="st90" d="M959.5,317.2l1.1,4.9c0.1,0.5-0.2,0.9-0.7,1c-0.4,0.1-0.8-0.2-0.9-0.6h-0.1l-1-4.8h-0.1
				c-0.1-0.4,0.2-0.8,0.7-0.9c0,0,0,0,0,0c0.4-0.1,0.9,0.1,1,0.6c0,0,0,0,0,0V317.2z"/>
			<path class="st90" d="M961.4,327.1l0.6,5c0.1,0.4-0.3,0.8-0.7,0.9c-0.4,0.1-0.8-0.2-0.9-0.7c0,0,0,0,0,0l0,0l-0.6-4.9l0,0
				c-0.1-0.4,0.1-0.9,0.6-1c0,0,0.1,0,0.1,0C961,326.4,961.3,326.7,961.4,327.1L961.4,327.1z"/>
			<path class="st90" d="M962.4,337.1v5c0.1,0.4-0.2,0.7-0.6,0.8c-0.1,0-0.1,0-0.2,0c-0.4,0.1-0.7-0.2-0.8-0.6c0,0,0-0.1,0-0.1l0,0
				l-0.2-4.9l0,0c0-0.4,0.4-0.8,0.8-0.8c0.4-0.1,0.8,0.3,0.9,0.7c0,0,0,0.1,0,0.1L962.4,337.1z"/>
			<path class="st90" d="M962.4,347.1l-0.4,5.1c0,0.4-0.3,0.7-0.7,0.7c0,0-0.1,0-0.1,0c-0.4,0-0.8-0.4-0.8-0.8l0,0l0.4-4.9l0,0
				c0-0.4,0.3-0.7,0.7-0.7c0,0,0.1,0,0.1,0c0.4,0,0.8,0.4,0.8,0.8V347.1z"/>
			<path class="st90" d="M961.4,357.2l-0.8,4.9c0,0.4-0.4,0.8-0.9,0.7c0,0-0.1,0-0.1,0c-0.4-0.1-0.7-0.5-0.6-0.9l0,0l0.8-4.9l0,0
				c0.1-0.4,0.5-0.7,1-0.7C961.2,356.4,961.5,356.8,961.4,357.2c0,0.1,0,0.1,0,0.1V357.2z"/>
			<path class="st90" d="M959.5,367.1l-1.3,4.8c-0.2,0.4-0.6,0.6-1,0.6c-0.4-0.1-0.7-0.5-0.6-1c0,0,0,0,0,0l0,0l1.3-4.8l0,0
				c0.1-0.4,0.4-0.6,0.8-0.6c0.1,0,0.1,0,0.2,0.1C959.3,366.3,959.6,366.7,959.5,367.1c0,0.1,0,0.1,0,0.1V367.1z"/>
			<path class="st90" d="M956.6,376.7l-1.8,4.7c-0.2,0.4-0.7,0.6-1.1,0.5c-0.4-0.2-0.6-0.6-0.4-1c0,0,0,0,0-0.1l0,0l1.8-4.6l0,0
				c0.1-0.4,0.5-0.6,0.9-0.5c0,0,0.1,0,0.1,0.1c0.4,0.1,0.6,0.6,0.5,1V376.7z"/>
			<path class="st90" d="M952.7,386l-2.2,4.5c-0.2,0.4-0.6,0.6-1,0.4c0,0,0,0-0.1,0c-0.4-0.2-0.5-0.7-0.3-1.1c0,0,0,0,0,0l0,0
				l2.2-4.5l0,0c0.2-0.4,0.6-0.6,1-0.4c0,0,0,0,0.1,0C952.8,385.1,952.9,385.6,952.7,386C952.7,386,952.7,386,952.7,386z"/>
			<path class="st90" d="M948,394.9l-2.7,4.3c-0.2,0.4-0.7,0.6-1.1,0.4c-0.4-0.2-0.6-0.7-0.4-1.1c0-0.1,0.1-0.1,0.1-0.2l0,0l2.6-4.2
				h0.1c0.2-0.4,0.7-0.5,1.1-0.3c0,0,0,0,0,0C948.1,394.1,948.2,394.5,948,394.9L948,394.9z"/>
			<path class="st90" d="M942.5,403.3l-3.1,4c-0.3,0.3-0.8,0.4-1.1,0.1c-0.3-0.3-0.4-0.8-0.1-1.1l0,0l3-3.9l0,0
				c0.3-0.3,0.8-0.4,1.1-0.1c0.4,0.2,0.4,0.7,0.2,1.1L942.5,403.3z"/>
			<path class="st90" d="M936.2,411.2l-3.4,3.7c-0.3,0.3-0.8,0.4-1.2,0c-0.3-0.3-0.4-0.8,0-1.1l0,0l0,0l3.4-3.7l0,0
				c0.3-0.3,0.8-0.4,1.1-0.1C936.4,410.3,936.5,410.8,936.2,411.2L936.2,411.2z"/>
			<path class="st90" d="M929.3,418.4l-3.7,3.5c-0.3,0.3-0.7,0.3-1,0c0,0-0.1-0.1-0.1-0.1c-0.3-0.3-0.3-0.8,0-1.1l0,0l3.7-3.4l0,0
				c0.3-0.3,0.8-0.3,1.1,0C929.6,417.6,929.6,418.1,929.3,418.4z"/>
			<path class="st90" d="M921.8,425.2l-3.9,3.1c-0.3,0.3-0.8,0.2-1.1-0.1c-0.3-0.3-0.2-0.8,0.1-1.1l0,0l3.9-3.1l0,0
				c0.3-0.3,0.7-0.3,1,0c0,0,0.1,0.1,0.1,0.1C922.2,424.4,922.1,424.9,921.8,425.2z"/>
			<path class="st90" d="M913.9,431.3l-4.2,2.9c-0.3,0.2-0.8,0.1-1-0.2s-0.1-0.8,0.2-1l0,0l4-2.8h0.1c0.2-0.2,0.6-0.3,0.8,0
				c0.1,0.1,0.1,0.1,0.2,0.2C914.2,430.7,914.2,431.1,913.9,431.3c0,0.1,0,0.1,0,0.1V431.3z"/>
			<path class="st90" d="M905.5,437l-4.2,2.6c-0.4,0.2-0.8,0.1-1.1-0.2c-0.2-0.4-0.1-0.9,0.3-1.1c0,0,0,0,0,0l0,0l4.2-2.6l0,0
				c0.4-0.2,0.8-0.2,1.1,0.2C906,436.3,905.9,436.8,905.5,437C905.5,437,905.5,437,905.5,437z"/>
			<path class="st90" d="M896.9,442.1l-4.4,2.4c-0.4,0.2-0.8,0.1-1-0.3s-0.1-0.8,0.3-1l0,0l0,0l4.4-2.3l0,0c0.3-0.2,0.8-0.1,1,0.2
				c0,0,0,0,0,0.1C897.4,441.5,897.3,442,896.9,442.1c0,0.1,0,0.1,0,0.1V442.1z"/>
			<path class="st90" d="M888,446.8l-4.5,2.1c-0.3,0.2-0.8,0.1-1-0.2c0,0,0,0,0-0.1c-0.2-0.3-0.1-0.8,0.3-0.9c0,0,0.1,0,0.1-0.1l0,0
				l4.5-2.2l0,0c0.3-0.2,0.8-0.1,0.9,0.3c0,0,0,0.1,0.1,0.1C888.5,446.2,888.4,446.6,888,446.8z"/>
			<path class="st90" d="M878.9,451l-4.6,2c-0.4,0.1-0.8,0-1-0.4c-0.1-0.4,0-0.9,0.4-1l0,0l4.6-2l0,0c0.3-0.2,0.8-0.1,0.9,0.3
				c0,0,0,0.1,0.1,0.1c0.2,0.3,0.1,0.8-0.3,0.9C879,451,878.9,451,878.9,451z"/>
			<path class="st90" d="M869.7,454.8l-4.7,1.8c-0.3,0.2-0.8,0.1-0.9-0.3c0,0,0-0.1-0.1-0.1c-0.1-0.4,0.1-0.8,0.4-1h0.1l4.6-1.8l0,0
				c0.4-0.1,0.9,0.1,1,0.5c0.2,0.3,0.1,0.7-0.2,0.8C869.8,454.8,869.8,454.8,869.7,454.8L869.7,454.8z"/>
			<path class="st90" d="M860.3,458.3l-4.8,1.6c-0.4,0.1-0.8-0.1-0.9-0.4c0,0,0,0,0-0.1c-0.2-0.3-0.1-0.7,0.2-0.8
				c0.1,0,0.1-0.1,0.2-0.1l0,0l4.8-1.6l0,0c0.3-0.2,0.7-0.1,0.8,0.2c0,0.1,0.1,0.1,0.1,0.2c0.2,0.3,0.1,0.8-0.3,0.9
				C860.4,458.3,860.3,458.3,860.3,458.3z"/>
			
				<linearGradient id="SVGID_76_" gradientUnits="userSpaceOnUse" x1="19924.2227" y1="-3263.0559" x2="19908.2227" y2="-3367.0559" gradientTransform="matrix(-1 0 0 -1 21271.5391 654)">
				<stop  offset="0" style="stop-color:#53D8FF"/>
				<stop  offset="1" style="stop-color:#3840F7"/>
			</linearGradient>
			<path class="st91" d="M825.3,646.3c1.1,0,2-0.9,2-2V403.6c0-1.1-0.9-2-2-2s-2,0.9-2,2v240.7C823.3,645.4,824.2,646.3,825.3,646.3
				z"/>
			
				<linearGradient id="SVGID_77_" gradientUnits="userSpaceOnUse" x1="19870.9336" y1="-3254.8591" x2="19854.9336" y2="-3358.8591" gradientTransform="matrix(-1 0 0 -1 21271.5391 654)">
				<stop  offset="0" style="stop-color:#53D8FF"/>
				<stop  offset="1" style="stop-color:#3840F7"/>
			</linearGradient>
			<path class="st92" d="M879.8,646.3c1.1,0.1,2-0.8,2.1-1.9c0,0,0-0.1,0-0.1V403.6c0-1.1-0.9-2-2-2c0,0-0.1,0-0.1,0
				c-1.1,0-2,0.9-2,2v240.7C877.8,645.4,878.7,646.3,879.8,646.3z"/>
			
				<linearGradient id="SVGID_78_" gradientUnits="userSpaceOnUse" x1="20255.5879" y1="129.2573" x2="20362.6055" y2="129.2573" gradientTransform="matrix(-1 0 0 -1 21271.5391 654)">
				<stop  offset="0" style="stop-color:#9CFFFB"/>
				<stop  offset="1" style="stop-color:#9BFFFA"/>
			</linearGradient>
			<path class="st93" d="M1013.9,647.8h0.8c1-0.5,1.5-1.7,1.1-2.7l-103-242.2c-0.4-1-1.6-1.5-2.7-1.1c-1,0.4-1.5,1.6-1,2.7
				l103,242.2C1012.4,647.4,1013.1,647.8,1013.9,647.8z"/>
			
				<linearGradient id="SVGID_79_" gradientUnits="userSpaceOnUse" x1="20319.1895" y1="129.2726" x2="20426.2383" y2="129.2726" gradientTransform="matrix(-1 0 0 -1 21271.5391 654)">
				<stop  offset="0" style="stop-color:#9CFFFB"/>
				<stop  offset="1" style="stop-color:#9BFFFA"/>
			</linearGradient>
			<path class="st94" d="M950.3,647.8h0.8c1-0.5,1.5-1.7,1.1-2.7l-103-242.2c-0.5-1-1.7-1.5-2.7-1.1c-1,0.4-1.5,1.6-1,2.6
				c0,0,0,0,0,0.1l103,242.2C948.8,647.4,949.5,647.9,950.3,647.8z"/>
			
				<linearGradient id="SVGID_80_" gradientUnits="userSpaceOnUse" x1="20352.2363" y1="251.05" x2="20452.2383" y2="251.05" gradientTransform="matrix(-1 0 0 -1 21271.5391 654)">
				<stop  offset="0" style="stop-color:#9CFFFB"/>
				<stop  offset="1" style="stop-color:#9BFFFA"/>
			</linearGradient>
			<path class="st95" d="M822.1,405.8h94.4c1.5,0,2.8-1.3,2.8-2.8c0,0,0-0.1,0-0.1l0,0c0-1.5-1.3-2.8-2.8-2.8h-94.4
				c-1.5,0.1-2.7,1.3-2.8,2.8l0,0C819.3,404.5,820.5,405.7,822.1,405.8z"/>
			
				<linearGradient id="SVGID_81_" gradientUnits="userSpaceOnUse" x1="20342.8398" y1="213.4" x2="20410.6387" y2="213.4" gradientTransform="matrix(-1 0 0 -1 21271.5391 654)">
				<stop  offset="0" style="stop-color:#9CFFFB"/>
				<stop  offset="1" style="stop-color:#9BFFFA"/>
			</linearGradient>
			<path class="st96" d="M862.9,442.6h63.8c1.1,0,2-0.9,2-2s-0.9-2-2-2h-63.8c-1.1,0-2,0.9-2,2S861.8,442.6,862.9,442.6z"/>
			
				<linearGradient id="SVGID_82_" gradientUnits="userSpaceOnUse" x1="20325.2383" y1="167.585" x2="20389.0391" y2="167.585" gradientTransform="matrix(-1 0 0 -1 21271.5391 654)">
				<stop  offset="0" style="stop-color:#9CFFFB"/>
				<stop  offset="1" style="stop-color:#9BFFFA"/>
			</linearGradient>
			<rect x="882.5" y="484.4" class="st97" width="63.8" height="4"/>
			
				<linearGradient id="SVGID_83_" gradientUnits="userSpaceOnUse" x1="20306.3398" y1="121.785" x2="20370.1387" y2="121.785" gradientTransform="matrix(-1 0 0 -1 21271.5391 654)">
				<stop  offset="0" style="stop-color:#9CFFFB"/>
				<stop  offset="1" style="stop-color:#9BFFFA"/>
			</linearGradient>
			<rect x="901.4" y="530.2" class="st98" width="63.8" height="4"/>
			
				<linearGradient id="SVGID_84_" gradientUnits="userSpaceOnUse" x1="20284.4395" y1="75.9" x2="20352.2383" y2="75.9" gradientTransform="matrix(-1 0 0 -1 21271.5391 654)">
				<stop  offset="0" style="stop-color:#9CFFFB"/>
				<stop  offset="1" style="stop-color:#9BFFFA"/>
			</linearGradient>
			<path class="st99" d="M921.3,580.1h63.8c1.1,0,2-0.9,2-2s-0.9-2-2-2h-63.8c-1.1,0-2,0.9-2,2S920.2,580.1,921.3,580.1z"/>
			
				<linearGradient id="SVGID_85_" gradientUnits="userSpaceOnUse" x1="20265.2383" y1="30.1" x2="20333.0391" y2="30.1" gradientTransform="matrix(-1 0 0 -1 21271.5391 654)">
				<stop  offset="0" style="stop-color:#9CFFFB"/>
				<stop  offset="1" style="stop-color:#9BFFFA"/>
			</linearGradient>
			<path class="st100" d="M940.5,625.9h63.8c1.1,0,2-0.9,2-2s-0.9-2-2-2h-63.8c-1.1,0-2,0.9-2,2S939.4,625.9,940.5,625.9z"/>
			
				<linearGradient id="SVGID_86_" gradientUnits="userSpaceOnUse" x1="10328.3799" y1="254.989" x2="10351.2305" y2="254.989" gradientTransform="matrix(-1 0 0 -1 11184.1504 654)">
				<stop  offset="0" style="stop-color:#53D8FF"/>
				<stop  offset="1" style="stop-color:#3840F7"/>
			</linearGradient>
			<path class="st101" d="M833.6,397.9c3.9,0.3,10.7,0.9,16,1.1c2.1,0.2,4.2,0,6.2-0.6v0.4c-0.1,0.5-0.5,1-1.1,1c-7,0.4-14,0.4-21,0
				c-0.4,0-0.8-0.4-0.8-0.8c0-0.1,0-0.3,0.1-0.4L833.6,397.9z"/>
			
				<linearGradient id="SVGID_87_" gradientUnits="userSpaceOnUse" x1="10328.3799" y1="259.4533" x2="10350.5801" y2="259.4533" gradientTransform="matrix(-1 0 0 -1 11184.1504 654)">
				<stop  offset="0" style="stop-color:#D70010"/>
				<stop  offset="1" style="stop-color:#7A0110"/>
			</linearGradient>
			<path class="st102" d="M849.6,399c-5.3-0.2-12.1-0.8-16-1.1c3.8-4.7,16-7.9,16-7.9h3.5c1.8,2.5,2.7,5.4,2.7,8.4
				C853.8,399,851.7,399.2,849.6,399z"/>
			
				<linearGradient id="SVGID_88_" gradientUnits="userSpaceOnUse" x1="10330.4902" y1="265.7197" x2="10336.9199" y2="265.7197" gradientTransform="matrix(-1 0 0 -1 11184.1504 654)">
				<stop  offset="0" style="stop-color:#F9B776"/>
				<stop  offset="1" style="stop-color:#F47960"/>
			</linearGradient>
			<path class="st103" d="M853.7,384.4l-0.4,6.3c0,0.7-0.5,1.3-1.2,1.4c-0.9,0.1-1.8,0.1-2.6-0.2c-0.6-0.2-1-0.7-1.2-1.3l-1.1-6.2
				L853.7,384.4z"/>
			
				<linearGradient id="SVGID_89_" gradientUnits="userSpaceOnUse" x1="10282.8398" y1="255.4981" x2="10291.5898" y2="255.4981" gradientTransform="matrix(-1 0 0 -1 11184.1504 654)">
				<stop  offset="0" style="stop-color:#53D8FF"/>
				<stop  offset="1" style="stop-color:#3840F7"/>
			</linearGradient>
			<path class="st104" d="M898.5,399c1.3-0.1,2.3-0.9,2.8-2.1l0,0c0.2,1.1-0.5,2.1-1.5,2.5c-1.3,0.5-2.7,0.7-4.1,0.7
				c-1.2,0-2.3-0.5-3.1-1.4l0,0C893.8,399.3,895.6,399.4,898.5,399z"/>
			
				<linearGradient id="SVGID_90_" gradientUnits="userSpaceOnUse" x1="10282.9004" y1="262.2304" x2="10295.75" y2="262.2304" gradientTransform="matrix(-1 0 0 -1 11184.1504 654)">
				<stop  offset="0" style="stop-color:#D70010"/>
				<stop  offset="1" style="stop-color:#7A0110"/>
			</linearGradient>
			<path class="st105" d="M890.5,384.3h2.8c4.3-0.1,7.1,9.1,8,12.6c-0.5,1.2-1.5,2-2.8,2.1c-2.9,0.4-4.7,0.3-5.9-0.3
				c-2.4-3.1-3.5-7.6-4.1-10.3C888.1,386.7,888.9,385,890.5,384.3z"/>
			
				<linearGradient id="SVGID_91_" gradientUnits="userSpaceOnUse" x1="10289.5801" y1="271.0966" x2="10297.2695" y2="271.0966" gradientTransform="matrix(-1 0 0 -1 11184.1504 654)">
				<stop  offset="0" style="stop-color:#F9B776"/>
				<stop  offset="1" style="stop-color:#F47960"/>
			</linearGradient>
			<path class="st106" d="M892.9,378.4l1.6,6.3c0.2,0.8-0.2,1.6-0.9,1.9c-1,0.6-2.1,0.9-3.2,0.8c-0.6-0.1-1-0.5-1.2-1l-2.3-6.6
				L892.9,378.4z"/>
			
				<linearGradient id="SVGID_92_" gradientUnits="userSpaceOnUse" x1="7960.8438" y1="264.2673" x2="8072.334" y2="418.4073" gradientTransform="matrix(-1 0 0 -1 8851.1504 654)">
				<stop  offset="0" style="stop-color:#53D8FF"/>
				<stop  offset="1" style="stop-color:#3840F7"/>
			</linearGradient>
			<path class="st107" d="M894.8,380.2c-1.9,1.7-8.3,2-8.3,2c-23.1-55.3-32.5-63.1-32.5-63.1c3.3,20.8,0.6,67,0.6,67
				c-3.8,1.7-8.7,0-8.7,0c-0.3-29.5-4.3-58.9-11.8-87.4c15.6-0.4,23.8-5.7,26.5-7.8C873.6,311.8,894.8,380.2,894.8,380.2z"/>
			
				<linearGradient id="SVGID_93_" gradientUnits="userSpaceOnUse" x1="9432.0488" y1="916.7558" x2="9499.3887" y2="877.8458" gradientTransform="matrix(-1 0 0 -1 11184.1504 654)">
				<stop  offset="0" style="stop-color:#D70010"/>
				<stop  offset="1" style="stop-color:#7A0110"/>
			</linearGradient>
			<path class="st108" d="M856.7,227.3c2.9,14.7,1.9,41,1.2,53c-0.2,3.4,2.1,8.1,4,11.2c0.3,0.4,0.2,1.1-0.2,1.4
				c-0.1,0-0.1,0.1-0.2,0.1c-3.1,1.6-13.9,6.7-26.4,7.3c-0.8,0.1-1.6-0.5-1.8-1.3c-9.3-34.7-20.1-56.8-20.1-56.8
				C825.1,223.2,856.7,227.3,856.7,227.3z"/>
			
				<linearGradient id="SVGID_94_" gradientUnits="userSpaceOnUse" x1="10324.8027" y1="383.1975" x2="10297.4336" y2="358.9575" gradientTransform="matrix(-1 0 0 -1 11184.1504 654)">
				<stop  offset="0" style="stop-color:#F9B776"/>
				<stop  offset="1" style="stop-color:#F47960"/>
			</linearGradient>
			<path class="st109" d="M875.2,269.5c-1,6.8-3.8,14.3-9.4,22.2l-2.1-1.7c1.5-7,1.9-14.2,1.1-21.3
				C868.2,268.1,872.3,268.8,875.2,269.5z"/>
			<path class="st110" d="M853.4,245.5l3.3-18.2c0,0,22,16.8,18.5,42.2c-2.9-0.7-7-1.4-10.4-0.8
				C863.8,260.6,860.8,251.8,853.4,245.5z"/>
			<path class="st110" d="M813.2,242.2l8.5,18.3c-1.4,11-7.3,15.8-13.7,17.6c-0.3-4.1-1.3-8.1-2.8-11.9
				C813.3,257.8,813.2,242.2,813.2,242.2z"/>
			
				<linearGradient id="SVGID_95_" gradientUnits="userSpaceOnUse" x1="10376.1504" y1="380.9047" x2="10397.7207" y2="380.9047" gradientTransform="matrix(-1 0 0 -1 11184.1504 654)">
				<stop  offset="0" style="stop-color:#F9B776"/>
				<stop  offset="1" style="stop-color:#F47960"/>
			</linearGradient>
			<path class="st111" d="M805.2,266.2c1.5,3.8,2.5,7.8,2.8,11.9c-17,6.6-21.5-6.2-21.5-6.2l3.1-0.6
				C796.7,272.1,801.7,269.8,805.2,266.2z"/>
			
				<linearGradient id="SVGID_96_" gradientUnits="userSpaceOnUse" x1="10355.2158" y1="438.5198" x2="10354.9766" y2="398.2598" gradientTransform="matrix(-1 0 0 -1 11184.1504 654)">
				<stop  offset="0" style="stop-color:#F9B776"/>
				<stop  offset="1" style="stop-color:#F47960"/>
			</linearGradient>
			<path class="st112" d="M821,219.6l4.1,15.1c0.4,1.5,2,2.5,3.5,2.1c0.2,0,0.3-0.1,0.5-0.2c2-0.8,4-1.7,5.9-2.7
				c1.9-1.1,2.5-3.4,1.5-5.3c-0.1-0.1-0.1-0.2-0.2-0.3l-8.5-12.7L821,219.6z"/>
			
				<linearGradient id="SVGID_97_" gradientUnits="userSpaceOnUse" x1="10295.2461" y1="365.114" x2="10408.1504" y2="365.114" gradientTransform="matrix(-1 0 0 -1 11184.1504 654)">
				<stop  offset="0" style="stop-color:#2B3582"/>
				<stop  offset="1" style="stop-color:#150E42"/>
			</linearGradient>
			<path class="st113" d="M778.6,261.8l105,38.2c4.2,1.5,6.3,6.2,4.8,10.4c-0.1,0.2-0.1,0.3-0.2,0.5l-0.3,0.7
				c-1.8,3.8-6.2,5.4-10,3.7L776,268.1L778.6,261.8z"/>
			<ellipse class="st114" cx="730.4" cy="238.8" rx="51.8" ry="50.9"/>
			
				<linearGradient id="SVGID_98_" gradientUnits="userSpaceOnUse" x1="10396.0508" y1="415.2" x2="10511.4502" y2="415.2" gradientTransform="matrix(-1 0 0 -1 11184.1504 654)">
				<stop  offset="0" style="stop-color:#2B3582"/>
				<stop  offset="1" style="stop-color:#150E42"/>
			</linearGradient>
			<path class="st115" d="M672.7,238.8c0,31.3,25.8,56.6,57.7,56.6s57.7-25.3,57.7-56.6s-25.9-56.6-57.7-56.6
				S672.7,207.6,672.7,238.8z M681.2,238.8c0-26.6,22-48.3,49.2-48.3s49.2,21.7,49.2,48.3s-22,48.3-49.2,48.3
				S681.2,265.5,681.2,238.8z"/>
			<path class="st13" d="M783.7,246L783.7,246c-0.4-0.1-0.6-0.3-0.5-0.6s0.3-2.7,0.3-4c0-0.3,0.2-0.5,0.5-0.5c0.3,0,0.5,0.3,0.5,0.6
				c0,1.3-0.2,2.7-0.3,4S783.9,246,783.7,246z M783.3,230.1c-0.3,0-0.5-0.1-0.5-0.4c-0.7-3.6-1.7-7.1-3.1-10.5l0,0
				c-11.7-27.3-43.2-39.9-70.5-28.3c-2.6,1.1-5.1,2.4-7.4,3.9c-0.2,0.1-0.6,0-0.7-0.2s0-0.6,0.2-0.7c8.7-5.4,18.8-8.3,29.1-8.3
				c22-0.2,41.8,13,50.2,33.3l0,0c1.5,3.4,2.5,7,3.2,10.6C783.8,229.8,783.6,230.1,783.3,230.1L783.3,230.1z"/>
			
				<linearGradient id="SVGID_99_" gradientUnits="userSpaceOnUse" x1="10335.627" y1="370.9824" x2="10308.2568" y2="346.7324" gradientTransform="matrix(-1 0 0 -1 11184.1504 654)">
				<stop  offset="0" style="stop-color:#F9B776"/>
				<stop  offset="1" style="stop-color:#F47960"/>
			</linearGradient>
			<path class="st116" d="M864.6,289.7l-9.9-0.8l-4.3,4c0,0,1,1.4,4.2,0.6c2.5-0.6,5-1,7.5-1.1c0,0,4.4,2,4.4-1.7L864.6,289.7z"/>
			
				<linearGradient id="SVGID_100_" gradientUnits="userSpaceOnUse" x1="10395.4102" y1="383.4619" x2="10403.1299" y2="383.4619" gradientTransform="matrix(-1 0 0 -1 11184.1504 654)">
				<stop  offset="0" style="stop-color:#F9B776"/>
				<stop  offset="1" style="stop-color:#F47960"/>
			</linearGradient>
			<path class="st117" d="M787.7,274.2c-0.8,0.7-3.8-0.7-5.6-1.7c-0.9-0.4-1.3-1.5-1-2.4c0.5-1.4,1.2-3.1,2.1-3.4
				S791.3,271.5,787.7,274.2z"/>
			<path class="st13" d="M881.5,313.9c-0.2,0-0.4-0.1-0.4-0.3s0-0.6,0.3-0.6c2.9-1.1,4.4-2.7,4.5-4.9c0.1-2.3-1.3-4.4-3.5-5.1
				l-12.6-4.9c-0.3-0.1-0.4-0.4-0.3-0.6c0,0,0-0.1,0-0.1c0.1-0.3,0.4-0.4,0.7-0.3l12.6,4.9c2.5,1,4.2,3.5,4.1,6.2
				c-0.1,1.8-1,4.3-5.2,5.7L881.5,313.9z"/>
			<path class="st13" d="M866.1,296.6h-0.2l-1.6-0.7c-0.3,0-0.5-0.2-0.5-0.5c0-0.3,0.2-0.5,0.5-0.5c0.1,0,0.2,0,0.3,0.1l1.7,0.6
				c0.3,0.1,0.4,0.4,0.3,0.7C866.5,296.5,866.3,296.6,866.1,296.6z"/>
			
				<linearGradient id="SVGID_101_" gradientUnits="userSpaceOnUse" x1="8031.709" y1="442.2914" x2="8012.3291" y2="427.4614" gradientTransform="matrix(-1 0 0 -1 8851.1504 654)">
				<stop  offset="0" style="stop-color:#F9B776"/>
				<stop  offset="1" style="stop-color:#F47960"/>
			</linearGradient>
			<path class="st118" d="M820.2,204.8c0,0-3.4,7.8-3.7,11.9s-1.1,6.8,3.7,7.6c4.5,0.8,8.9-1.5,10.8-5.6c0,0,3.4-6.3,2.6-8.9
				S820.2,204.8,820.2,204.8z"/>
			
				<linearGradient id="SVGID_102_" gradientUnits="userSpaceOnUse" x1="8018.1348" y1="454.0348" x2="8035.6846" y2="431.4348" gradientTransform="matrix(-1 0 0 -1 8851.1504 654)">
				<stop  offset="0" style="stop-color:#2B3582"/>
				<stop  offset="1" style="stop-color:#150E42"/>
			</linearGradient>
			<path class="st119" d="M829.4,215.8h-0.6c0,0,2.5-5.1,0.3-6s-10.7-2.6-12.6-5.7c-1.6-2.6-0.7-6,1.9-7.5c0.1-0.1,0.2-0.1,0.3-0.2
				c0.2-0.1,0.3,0,0.4,0.1l0.2,0.4c0,0.2,0.2,0.3,0.3,0.2c0.2,0,0.3-0.2,0.2-0.3l0,0l0,0c0.1-0.2,0.4-0.3,0.5-0.1c0,0,0,0,0.1,0
				c0.5,1,2.1,2.4,6.2,3.2c5.8,1.1,9.7,3.4,9.8,7.5c0,0.2,0.2,0.4,0.5,0.2c0.7-0.3,1.5-0.2,2,0.4c1.6,1.4,1,4.8-2.6,7.7
				c-0.1,0.2-0.1,0.4,0.1,0.5s1.5,1.4-0.9,2.7s-4,1.2-4.6,1.1s-0.2-0.2-0.2-0.3l0.2-3.6c0-0.2-0.1-0.3-0.3-0.3L829.4,215.8z"/>
			
				<linearGradient id="SVGID_103_" gradientUnits="userSpaceOnUse" x1="8029.3022" y1="445.437" x2="8009.9224" y2="430.607" gradientTransform="matrix(-1 0 0 -1 8851.1504 654)">
				<stop  offset="0" style="stop-color:#F9B776"/>
				<stop  offset="1" style="stop-color:#F47960"/>
			</linearGradient>
			<path class="st120" d="M829.3,216.5c0,0,1.3-5,3.5-3.6s-1.2,5.6-3,5.8L829.3,216.5z"/>
			
				<linearGradient id="SVGID_104_" gradientUnits="userSpaceOnUse" x1="590.2869" y1="458.2457" x2="632.827" y2="556.5457" gradientTransform="matrix(1 0 0 -1 0 654)">
				<stop  offset="0" style="stop-color:#53D8FF"/>
				<stop  offset="1" style="stop-color:#3840F7"/>
			</linearGradient>
			<path class="st121" d="M631,158.3h-31.5c-2.4,0-4.4-2-4.4-4.4v0v-31.5c0-2.3,1.7-4.2,4-4.4l33.6-2.7c2.4-0.2,4.5,1.7,4.7,4.1
				c0,0.2,0,0.3,0,0.5l-2.1,34.3C635.2,156.5,633.3,158.3,631,158.3z"/>
			<path class="st13" d="M604,152.1c-0.9,0-1.7-0.3-2.3-0.9c-0.7-0.6-1-1.5-1-2.4v-20.2c0-0.6,0.4-1,1-1s1,0.4,1,1v20.2
				c0,0.3,0.2,0.7,0.4,0.9c0.3,0.3,0.6,0.4,1,0.4l23.9-1.5c0.7,0,1.2-0.5,1.2-1.2c0,0,0,0,0,0v-19.9c0-0.3-0.1-0.7-0.4-0.9
				c-0.3-0.3-0.6-0.4-1-0.4l-19.9,2c-0.5,0.1-0.8,0.4-1,0.8c-0.2,0.4-0.2,0.9,0.1,1.2l7.6,10.5c0.2,0.4,0.6,0.6,1,0.5l0,0
				c0.4,0.1,0.8-0.1,1-0.5l8.4-11.1c0.3-0.5,0.9-0.6,1.4-0.3c0,0,0.1,0.1,0.1,0.1c0.4,0.4,0.5,0.9,0.2,1.4l-8.4,11.2
				c-0.7,0.8-1.7,1.3-2.7,1.3c-1.1,0-2.1-0.5-2.7-1.4l-7.6-10.5c-0.7-1-0.8-2.2-0.3-3.3c0.5-1.1,1.5-1.8,2.7-1.9l19.9-2
				c0.9-0.1,1.9,0.2,2.6,0.8c0.7,0.7,1.1,1.6,1.1,2.5v19.9c0,1.7-1.4,3.1-3.1,3.3l-24,1.4H604z"/>
		</g>
	</g>
</g>
<g id="Layer_2" class="st122">
	<g id="Layer_2_2_" class="st123">
		<rect x="-234.1" y="215.1" class="st110" width="201.3" height="163.2"/>
		<rect x="-234.1" y="11" class="st124" width="201.3" height="163.2"/>
		<rect x="-234.1" y="405.3" class="st125" width="201.3" height="163.2"/>
	</g>
</g>
</svg>
