<?xml version="1.0" encoding="utf-8"?>
<!-- Generator: Adobe Illustrator 24.0.0, SVG Export Plug-In . SVG Version: 6.00 Build 0)  -->
<svg version="1.1" xmlns="http://www.w3.org/2000/svg" xmlns:xlink="http://www.w3.org/1999/xlink" x="0px" y="0px"
	 viewBox="0 0 94.6 90.1" style="enable-background:new 0 0 94.6 90.1;" xml:space="preserve">
<style type="text/css">
	.st0{opacity:0.1;enable-background:new    ;}
	.st1{opacity:0.1;}
	.st2{clip-path:url(#SVGID_2_);}
	.st3{fill:#B2C5CC;}
	.st4{fill:#ADC0C7;}
	.st5{fill:#A9BBC2;}
	.st6{fill:#A4B6BD;}
	.st7{fill:#A0B1B8;}
	.st8{fill:#9BACB3;}
	.st9{fill:#97A7AD;}
	.st10{fill:#93A2A8;}
	.st11{fill:#8E9DA3;}
	.st12{fill:#8A999E;}
	.st13{fill:#859499;}
	.st14{fill:#818F94;}
	.st15{fill:#7C8A8F;}
	.st16{fill:#78858A;}
	.st17{fill:#738085;}
	.st18{fill:#8AAFBF;}
	.st19{clip-path:url(#SVGID_4_);}
	.st20{clip-path:url(#SVGID_6_);}
	.st21{fill:#ABBEC5;}
	.st22{fill:#778488;}
	.st23{clip-path:url(#SVGID_8_);}
	.st24{fill:#87ABBB;}
	.st25{fill:#84A7B7;}
	.st26{fill:#80A3B2;}
	.st27{fill:#7D9EAD;}
	.st28{fill:#7A9AA8;}
	.st29{fill:#7696A4;}
	.st30{fill:#73929F;}
	.st31{fill:#708D9A;}
	.st32{fill:#6C8996;}
	.st33{fill:#698591;}
	.st34{clip-path:url(#SVGID_10_);}
	.st35{fill:#586F7A;}
	.st36{fill:#5B747E;}
	.st37{fill:#5F7883;}
	.st38{fill:#627C88;}
	.st39{fill:#65808C;}
	.st40{fill:#BFD4DB;}
	.st41{fill:#DEF6FF;}
	.st42{fill:#B2DDEA;}
	.st43{clip-path:url(#SVGID_12_);}
	.st44{clip-path:url(#SVGID_14_);}
	.st45{clip-path:url(#SVGID_16_);}
	.st46{clip-path:url(#SVGID_18_);}
	.st47{clip-path:url(#SVGID_20_);}
	.st48{clip-path:url(#SVGID_22_);}
	.st49{clip-path:url(#SVGID_24_);}
	.st50{clip-path:url(#SVGID_26_);}
	.st51{clip-path:url(#SVGID_28_);}
	.st52{clip-path:url(#SVGID_30_);}
	.st53{clip-path:url(#SVGID_32_);}
	.st54{clip-path:url(#SVGID_34_);}
	.st55{fill:#D70010;}
	.st56{fill:#FFFFFF;}
	.st57{fill:#7A0110;}
	.st58{fill:#F7001E;}
	.st59{fill:#A9D6EA;}
	.st60{fill:#131C24;}
	.st61{fill:#EFB185;}
	.st62{fill:#E6A376;}
	.st63{fill:#5B0312;}
	.st64{fill:#111114;}
	.st65{fill:#0A0A0A;}
	.st66{fill:#2B2B2B;}
	.st67{fill:#101010;}
	.st68{fill:#DD9569;}
	.st69{fill:#341C09;}
	.st70{display:none;}
	.st71{display:inline;}
</style>
<g id="Layer_1">
	<title>3</title>
	<g id="Layer_2_1_">
		<g id="Layer_1-2">
			<path class="st0" d="M90,71.2c6.1,3.5,6.1,9.2,0.1,12.7s-15.9,3.5-21.9,0s-6.1-9.2-0.1-12.7S84,67.7,90,71.2z"/>
			<g class="st1">
				<polygon points="0,74.1 26.4,89.5 87.4,54.3 60.3,38.4 				"/>
			</g>
			<g>
				<g>
					<defs>
						<path id="SVGID_1_" d="M52.8,59.8c6-3.4,10.9-11.8,10.8-18.7c0.6,0.3,1.2,0.6,1.7,1c0,6.9-4.8,15.2-10.8,18.7L52.8,59.8z"/>
					</defs>
					<clipPath id="SVGID_2_">
						<use xlink:href="#SVGID_1_"  style="overflow:visible;"/>
					</clipPath>
					<g class="st2">
						<g>
							<path class="st3" d="M54.5,60.8l-1.7-1c1.3-0.8,2.5-1.7,3.6-2.8l1.7,1C57,59.1,55.8,60,54.5,60.8z"/>
							<path class="st4" d="M58.1,58l-1.7-1l1.2-1.2l1.7,0.9L58.1,58z"/>
							<path class="st5" d="M59.3,56.7l-1.7-0.9l0.9-1.1l1.7,1L59.3,56.7z"/>
							<path class="st6" d="M60.2,55.7l-1.7-1c0.3-0.3,0.5-0.6,0.7-1l1.7,1C60.6,55,60.4,55.4,60.2,55.7z"/>
							<path class="st7" d="M60.9,54.7l-1.7-1l0.7-0.9l1.6,0.9L60.9,54.7z"/>
							<path class="st8" d="M61.5,53.7l-1.6-0.9l0.5-1l1.7,1C62.1,52.8,61.5,53.7,61.5,53.7z"/>
							<path class="st9" d="M62.1,52.8l-1.7-1c0.2-0.3,0.4-0.6,0.5-0.9l1.7,1L62.1,52.8z"/>
							<path class="st10" d="M62.6,51.9l-1.7-1l0.5-0.9l1.7,1L62.6,51.9z"/>
							<path class="st11" d="M63.1,51l-1.7-1l0.4-0.9l1.7,0.9C63.4,50.3,63.3,50.7,63.1,51z"/>
							<path class="st12" d="M63.5,50l-1.7-0.9c0.2-0.3,0.3-0.7,0.4-1l1.7,1C63.8,49.4,63.7,49.7,63.5,50z"/>
							<path class="st13" d="M63.9,49.1l-1.7-1c0.2-0.3,0.3-0.7,0.4-1l1.7,1C64.1,48.4,64,48.8,63.9,49.1z"/>
							<path class="st14" d="M64.3,48.1l-1.7-1l0.3-1.1l1.7,0.9C64.6,46.9,64.3,48.1,64.3,48.1z"/>
							<path class="st15" d="M64.6,46.9L62.9,46l0.3-1.3l1.7,1L64.6,46.9z"/>
							<path class="st16" d="M64.9,45.7l-1.7-1l0.3-1.5l1.7,1C65.2,44.2,64.9,45.7,64.9,45.7z"/>
							<path class="st17" d="M65.2,44.2l-1.7-1c0.1-0.7,0.1-1.4,0.1-2.1c0-3.4-1.2-5.8-3.1-7l1.6,1c2,1.1,3.2,3.5,3.2,7
								C65.3,42.8,65.3,43.5,65.2,44.2z"/>
						</g>
					</g>
				</g>
			</g>
			<polygon class="st18" points="50.9,55.3 49.2,54.3 58,44.4 59.7,45.3 			"/>
			<g>
				<g>
					<defs>
						<path id="SVGID_3_" d="M45.1,60.6c2,1.1,4.7,1,7.7-0.8l1.7,1c-3,1.7-5.7,1.9-7.7,0.8L45.1,60.6z"/>
					</defs>
					<clipPath id="SVGID_4_">
						<use xlink:href="#SVGID_3_"  style="overflow:visible;"/>
					</clipPath>
					<g class="st19">
						<g>
							<path class="st12" d="M46.8,61.6l-1.7-1h0.1C45.2,60.6,46.8,61.6,46.8,61.6z"/>
							<path class="st11" d="M46.8,61.6l-1.6-1l0.5,0.3l1.7,1C47.4,61.9,46.8,61.6,46.8,61.6z"/>
							<path class="st10" d="M47.4,61.9l-1.7-1l0.6,0.2l1.7,1L47.4,61.9z"/>
							<path class="st9" d="M48,62.1l-1.7-1h0.6l1.7,1H48z"/>
							<path class="st8" d="M48.6,62.2l-1.7-1h0.6l1.7,1H48.6z"/>
							<path class="st7" d="M49.2,62.3l-1.7-1h0.8l1.6,1H49.2z"/>
							<path class="st6" d="M49.9,62.3l-1.6-1h0.8l1.6,1H49.9z"/>
							<path class="st5" d="M50.7,62.2l-1.6-1L50,61l1.7,1L50.7,62.2z"/>
							<path class="st4" d="M51.7,62L50,61l1.3-0.4l1.7,1L51.7,62z"/>
							<path class="st3" d="M53,61.6l-1.7-1l1.5-0.8l1.7,1L53,61.6z"/>
						</g>
					</g>
				</g>
			</g>
			<g>
				<g>
					<defs>
						<path id="SVGID_5_" d="M63.6,41.1c0-3.4-1.2-5.8-3.1-7l1.6,1c2,1.1,3.2,3.5,3.2,7C64.8,41.7,64.2,41.4,63.6,41.1z"/>
					</defs>
					<clipPath id="SVGID_6_">
						<use xlink:href="#SVGID_5_"  style="overflow:visible;"/>
					</clipPath>
					<g class="st20">
						<g>
							<path class="st17" d="M65.2,44.2l-1.7-1c0.1-0.7,0.1-1.4,0.1-2.1c0-3.4-1.2-5.8-3.1-7l1.6,1c2,1.1,3.2,3.5,3.2,7
								C65.3,42.8,65.3,43.5,65.2,44.2z"/>
						</g>
					</g>
				</g>
			</g>
			<polygon class="st21" points="50.9,45.5 49.2,44.5 58,44.4 59.7,45.3 			"/>
			<polygon class="st22" points="50.9,55.3 49.2,54.3 49.2,44.5 50.9,45.5 			"/>
			<g>
				<g>
					<defs>
						<path id="SVGID_7_" d="M60.5,34.1l1.6,1c-1.9-1.1-4.7-1-7.7,0.8l-1.7-1C55.8,33.1,58.5,33,60.5,34.1z"/>
					</defs>
					<clipPath id="SVGID_8_">
						<use xlink:href="#SVGID_7_"  style="overflow:visible;"/>
					</clipPath>
					<g class="st23">
						<g>
							<path class="st24" d="M54.4,35.9l-1.7-1l1.6-0.8l1.7,1L54.4,35.9z"/>
							<path class="st25" d="M56,35.1l-1.7-1l1.2-0.4l1.7,1L56,35.1z"/>
							<path class="st26" d="M57.2,34.7l-1.7-1l1-0.2l1.7,1L57.2,34.7z"/>
							<path class="st27" d="M58.2,34.5l-1.7-1h0.8l1.7,1H58.2z"/>
							<path class="st28" d="M59,34.4l-1.7-1H58l1.7,1H59z"/>
							<path class="st29" d="M59.7,34.4l-1.7-1h0.7l1.7,1H59.7z"/>
							<path class="st30" d="M60.4,34.5l-1.7-1h0.6l1.7,1H60.4z"/>
							<path class="st31" d="M61,34.6l-1.7-1l0.6,0.2l1.6,1C61.5,34.8,61,34.6,61,34.6z"/>
							<path class="st32" d="M61.5,34.8l-1.6-1l0.5,0.3l1.7,1C62.1,35.1,61.5,34.8,61.5,34.8z"/>
							<path class="st33" d="M62.1,35.1l-1.7-1h0.1C60.5,34.1,62.1,35.1,62.1,35.1z"/>
						</g>
					</g>
				</g>
			</g>
			<g>
				<g>
					<defs>
						<path id="SVGID_9_" d="M46.8,61.6l-1.7-1c-2-1.2-3.2-3.6-3.2-7c0-6.9,4.8-15.3,10.8-18.7l1.7,1c-6,3.4-10.8,11.8-10.8,18.7
							C43.6,58,44.8,60.4,46.8,61.6z"/>
					</defs>
					<clipPath id="SVGID_10_">
						<use xlink:href="#SVGID_9_"  style="overflow:visible;"/>
					</clipPath>
					<g class="st34">
						<g>
							<path class="st35" d="M46.8,61.6l-1.7-1c-2-1.2-3.2-3.6-3.2-7c0-0.7,0.1-1.4,0.2-2.1l1.7,1c-0.1,0.7-0.2,1.4-0.2,2.1
								C43.6,58,44.8,60.4,46.8,61.6z"/>
							<path class="st36" d="M43.8,52.5l-1.7-1c0-0.5,0.1-1,0.2-1.5l1.7,1C43.9,51.5,43.8,52,43.8,52.5z"/>
							<path class="st37" d="M44,51l-1.7-1l0.3-1.3l1.7,1L44,51z"/>
							<path class="st38" d="M44.3,49.7l-1.7-1c0.1-0.4,0.2-0.7,0.4-1.1l1.7,1C44.5,49,44.4,49.3,44.3,49.7z"/>
							<path class="st39" d="M44.7,48.6l-1.7-1l0.3-1l1.7,1L44.7,48.6z"/>
							<path class="st33" d="M45,47.6l-1.7-1c0.2-0.3,0.3-0.6,0.4-1l1.7,1L45,47.6z"/>
							<path class="st32" d="M45.4,46.6l-1.7-1l0.5-0.9l1.6,1C45.7,46,45.6,46.3,45.4,46.6z"/>
							<path class="st31" d="M45.8,45.7l-1.6-1l0.4-0.9l1.7,1C46.2,45.1,46,45.4,45.8,45.7z"/>
							<path class="st30" d="M46.3,44.8l-1.7-1c0.2-0.3,0.4-0.6,0.5-0.9l1.7,0.9L46.3,44.8z"/>
							<path class="st29" d="M46.8,43.8l-1.7-0.9l0.6-1l1.7,1L46.8,43.8z"/>
							<path class="st28" d="M47.4,42.9l-1.7-1l0.6-0.9l1.7,1L47.4,42.9z"/>
							<path class="st27" d="M48,42l-1.7-1l0.8-1l1.6,1C48.4,41.3,48.2,41.7,48,42z"/>
							<path class="st26" d="M48.7,41l-1.6-1l0.8-1l1.7,0.9L48.7,41z"/>
							<path class="st25" d="M49.6,39.9L47.9,39l1.2-1.3l1.7,1C50.8,38.7,49.6,39.9,49.6,39.9z"/>
							<path class="st24" d="M50.8,38.7l-1.7-1c1.1-1.1,2.3-2,3.6-2.8l1.7,1C53.1,36.7,51.9,37.6,50.8,38.7z"/>
						</g>
					</g>
				</g>
			</g>
			<polygon class="st40" points="23.5,45.1 21.8,44.1 85.9,7.1 87.6,8.1 			"/>
			<path class="st41" d="M87.6,8.1v43.8c0,1.2-0.6,2.2-1.6,2.9L25.2,89.9c-0.9,0.5-1.6,0.1-1.6-0.9V45.1L87.6,8.1z"/>
			<path class="st42" d="M23.6,89V45.1l-1.7-1V88c-0.1,0.4,0.1,0.8,0.5,1c0.5,0.4,1.1,0.7,1.7,1C23.7,89.8,23.5,89.4,23.6,89z"/>
			<g>
				<g>
					<defs>
						<path id="SVGID_11_" d="M35.8,32.4c0-0.4-0.1-0.7-0.4-1l1.6,1c0.3,0.2,0.5,0.5,0.5,0.9l0,0l-1.1-0.6L35.8,32.4l1.7,0.9
							c-0.1,1.1-0.6,2-1.5,2.6l-1.7-1C35.2,34.4,35.7,33.4,35.8,32.4z"/>
					</defs>
					<clipPath id="SVGID_12_">
						<use xlink:href="#SVGID_11_"  style="overflow:visible;"/>
					</clipPath>
					<g class="st43">
						<g>
							<path class="st24" d="M36,35.9l-1.7-1c0.2-0.1,0.4-0.2,0.5-0.4l1.7,1L36,35.9z"/>
							<path class="st25" d="M36.5,35.5l-1.7-1H35l1.7,1H36.5z"/>
							<path class="st26" d="M36.7,35.4l-1.7-1c0-0.1,0.1-0.1,0.1-0.2l1.7,1C36.7,35.3,36.7,35.3,36.7,35.4z"/>
							<path class="st27" d="M36.8,35.2l-1.7-1h0.1L36.8,35.2C36.8,35.2,36.8,35.2,36.8,35.2L36.8,35.2z"/>
							<path class="st28" d="M36.9,35.1l-1.7-1c0-0.1,0-0.1,0.1-0.1l1.7,0.9C36.9,35,36.9,35,36.9,35.1z"/>
							<path class="st29" d="M37,34.9L35.3,34c0-0.1,0-0.1,0.1-0.2l1.6,1L37,34.9z"/>
							<path class="st30" d="M37,34.8l-1.6-1l0,0l1.7,1H37z"/>
							<path class="st31" d="M37.1,34.7l-1.7-1h0.1L37.1,34.7L37.1,34.7z"/>
							<path class="st32" d="M37.2,34.6l-1.7-1l0,0L37.2,34.6v0.1V34.6z"/>
							<path class="st33" d="M37.2,34.4l-1.7-0.9c0.1-0.1,0.1-0.1,0.1-0.2l1.7,1C37.3,34.4,37.3,34.4,37.2,34.4z"/>
							<path class="st39" d="M37.3,34.3l-1.7-1l0,0L37.3,34.3z"/>
							<path class="st38" d="M37.3,34.2l-1.7-1c0.1-0.1,0.1-0.1,0.1-0.2l1.7,1C37.4,34.1,37.4,34.1,37.3,34.2z"/>
							<path class="st37" d="M37.4,34l-1.7-1l0,0L37.4,34L37.4,34z"/>
							<path class="st36" d="M37.4,33.8l-1.7-0.9v-0.2l1.7,0.9C37.4,33.7,37.4,33.7,37.4,33.8L37.4,33.8z"/>
							<path class="st35" d="M37.5,33.6l-1.7-0.9v-0.3c0-0.4-0.1-0.7-0.4-1l1.6,1c0.3,0.2,0.5,0.5,0.5,0.9
								C37.5,33.3,37.5,33.6,37.5,33.6z"/>
						</g>
					</g>
				</g>
			</g>
			<g>
				<g>
					<defs>
						<path id="SVGID_13_" d="M35.4,31.4c0,0.1,0.1,0.1,0.2,0.2l1.4,0.8c-0.2-0.2-0.6-0.1-1,0.1l-1.7-1C34.6,31.3,35,31.3,35.4,31.4
							z"/>
					</defs>
					<clipPath id="SVGID_14_">
						<use xlink:href="#SVGID_13_"  style="overflow:visible;"/>
					</clipPath>
					<g class="st44">
						<g>
							<path class="st3" d="M36,32.5l-1.7-1h0.2l1.7,1H36z"/>
							<path class="st4" d="M36.2,32.4l-1.7-1h0.2l1.7,0.9L36.2,32.4z"/>
							<path class="st5" d="M36.4,32.3l-1.7-0.9h0.1l1.7,1L36.4,32.3z"/>
							<path class="st6" d="M36.5,32.3l-1.7-1h0.1L36.5,32.3L36.5,32.3z"/>
							<path class="st7" d="M36.6,32.3l-1.7-1H35l1.7,1H36.6z"/>
							<path class="st8" d="M36.7,32.3l-1.7-1h0.1L36.7,32.3L36.7,32.3z"/>
							<path class="st9" d="M36.8,32.3l-1.7-1h0.1L36.8,32.3L36.8,32.3z"/>
							<path class="st10" d="M36.9,32.3l-1.7-1h0.1L36.9,32.3L36.9,32.3z"/>
							<path class="st11" d="M37,32.4l-1.7-1h0.1C35.4,31.4,37,32.4,37,32.4z"/>
							<polygon class="st12" points="37,32.4 35.4,31.4 35.4,31.4 37,32.4 37,32.4 							"/>
						</g>
					</g>
				</g>
			</g>
			<g>
				<g>
					<defs>
						<path id="SVGID_15_" d="M34.9,36l-1.6-1c-0.3-0.2-0.5-0.5-0.5-0.9c0.1-1.1,0.6-2,1.5-2.6l1.7,1c-0.9,0.6-1.4,1.5-1.5,2.6
							C34.5,35.4,34.6,35.8,34.9,36z"/>
					</defs>
					<clipPath id="SVGID_16_">
						<use xlink:href="#SVGID_15_"  style="overflow:visible;"/>
					</clipPath>
					<g class="st45">
						<g>
							<path class="st17" d="M34.9,36l-1.6-1c-0.3-0.2-0.5-0.5-0.5-0.9v-0.3l1.7,1v0.3C34.5,35.4,34.6,35.8,34.9,36z"/>
							<path class="st16" d="M34.5,34.8l-1.7-1c0.1-0.1,0.1-0.1,0.1-0.2l1.7,1L34.5,34.8L34.5,34.8z"/>
							<path class="st15" d="M34.6,34.6l-1.7-1v-0.2l1.7,1V34.6z"/>
							<path class="st14" d="M34.6,34.4l-1.7-1c0-0.1,0-0.1,0.1-0.1l1.7,0.9C34.6,34.3,34.6,34.3,34.6,34.4z"/>
							<path class="st13" d="M34.7,34.2L33,33.3v-0.2l1.7,1V34.2z"/>
							<path class="st12" d="M34.7,34.1l-1.7-1c0-0.1,0-0.1,0.1-0.1L34.7,34.1C34.7,34,34.7,34,34.7,34.1z"/>
							<path class="st11" d="M34.8,34l-1.7-1l0,0L34.8,34L34.8,34z"/>
							<path class="st10" d="M34.8,33.8l-1.7-0.9c0-0.1,0.1-0.1,0.1-0.2l1.7,1L34.8,33.8z"/>
							<path class="st9" d="M34.9,33.7l-1.7-1h0.1C33.3,32.7,34.9,33.7,34.9,33.7z"/>
							<path class="st8" d="M34.9,33.6l-1.6-1l0,0l1.7,1H34.9z"/>
							<path class="st7" d="M35,33.5l-1.7-1h0.1L35,33.5c0.1,0,0.1,0,0,0.1V33.5z"/>
							<path class="st6" d="M35.1,33.3l-1.7-0.9v-0.2l1.7,1V33.3z"/>
							<path class="st5" d="M35.2,33.2l-1.7-1c0.1,0,0.1,0,0.1-0.1L35.2,33.2L35.2,33.2z"/>
							<path class="st4" d="M35.3,33.1l-1.7-1c0.1-0.1,0.2-0.1,0.2-0.2l1.7,1C35.4,32.9,35.4,33,35.3,33.1z"/>
							<path class="st3" d="M35.5,32.9l-1.7-1l0.5-0.4l1.7,1C35.8,32.6,35.6,32.7,35.5,32.9z"/>
						</g>
					</g>
				</g>
			</g>
			<g>
				<g>
					<defs>
						<polygon id="SVGID_17_" points="32,34.8 33.5,35.6 33.5,35.6 						"/>
					</defs>
					<clipPath id="SVGID_18_">
						<use xlink:href="#SVGID_17_"  style="overflow:visible;"/>
					</clipPath>
					<g class="st46">
						<g>
							<path class="st35" d="M33.5,35.9l-1.7-1v-0.2c0.1-0.4-0.1-0.8-0.4-1l1.7,1c0.3,0.1,0.4,0.5,0.4,0.9V35.9z"/>
						</g>
					</g>
				</g>
			</g>
			<g>
				<g>
					<defs>
						<path id="SVGID_19_" d="M31.8,34.7c0.1-0.4-0.1-0.8-0.4-1l1.7,1c0.3,0.1,0.4,0.5,0.4,0.9l0,0L31.8,34.7l1.7,0.9
							c0,1.1-0.6,2-1.5,2.6l-1.6-1C31.2,36.6,31.8,35.7,31.8,34.7z"/>
					</defs>
					<clipPath id="SVGID_20_">
						<use xlink:href="#SVGID_19_"  style="overflow:visible;"/>
					</clipPath>
					<g class="st47">
						<g>
							<path class="st24" d="M32,38.2l-1.6-1c0.1-0.1,0.3-0.2,0.4-0.4l1.7,1C32.4,38,32.2,38.1,32,38.2z"/>
							<path class="st25" d="M32.5,37.8l-1.7-1H31l1.7,0.9l-0.2,0.2V37.8z"/>
							<path class="st26" d="M32.7,37.6L31,36.7c0.1-0.1,0.1-0.1,0.1-0.2L32.7,37.6L32.7,37.6z"/>
							<path class="st27" d="M32.8,37.5l-1.7-1c0.1,0,0.1,0,0.1-0.1L32.8,37.5L32.8,37.5z"/>
							<path class="st28" d="M32.9,37.4l-1.7-1v-0.2l1.7,1C32.9,37.3,32.8,37.3,32.9,37.4L32.9,37.4z"/>
							<path class="st29" d="M33,37.2l-1.7-1c0.1,0,0.1,0,0.1-0.1L33,37.2L33,37.2z"/>
							<path class="st30" d="M33.1,37.1l-1.7-1c0-0.1,0-0.1,0.1-0.1L33.1,37.1C33.1,37,33.1,37,33.1,37.1z"/>
							<path class="st31" d="M33.2,37l-1.7-1l0,0L33.2,37z"/>
							<path class="st32" d="M33.2,36.9l-1.7-1c0-0.1,0.1-0.1,0.1-0.2l1.7,1C33.3,36.8,33.2,36.8,33.2,36.9z"/>
							<path class="st33" d="M33.3,36.7l-1.7-1l0,0L33.3,36.7z"/>
							<path class="st39" d="M33.3,36.6l-1.7-1c0.1,0,0.1,0,0.1-0.1l1.7,0.9C33.4,36.5,33.3,36.5,33.3,36.6z"/>
							<path class="st38" d="M33.4,36.4l-1.7-0.9v-0.2l1.7,1V36.4z"/>
							<path class="st37" d="M33.4,36.3l-1.7-1c0.1,0,0.1-0.1,0.1-0.2l1.7,1C33.5,36.2,33.4,36.2,33.4,36.3z"/>
							<path class="st36" d="M33.5,36.1l-1.7-1v-0.2l1.7,1V36.1z"/>
							<path class="st35" d="M33.5,35.9l-1.7-1v-0.2c0.1-0.4-0.1-0.8-0.4-1l1.7,1c0.3,0.1,0.4,0.5,0.4,0.9V35.9z"/>
						</g>
					</g>
				</g>
			</g>
			<g>
				<g>
					<defs>
						<path id="SVGID_21_" d="M29.3,37.3c0.3,0.2,0.6,0.2,1.1-0.1l1.4,0.9H32c-0.4,0.2-0.7,0.3-1,0.1L29.3,37.3z"/>
					</defs>
					<clipPath id="SVGID_22_">
						<use xlink:href="#SVGID_21_"  style="overflow:visible;"/>
					</clipPath>
					<g class="st48">
						<g>
							<polygon class="st33" points="31,38.3 29.3,37.3 29.3,37.3 31,38.3 31,38.3 							"/>
							<path class="st32" d="M31,38.3l-1.7-1h0.1l1.7,0.9L31,38.3z"/>
							<path class="st31" d="M31.1,38.3l-1.7-0.9h0.1L31.1,38.3L31.1,38.3z"/>
							<path class="st30" d="M31.1,38.4l-1.6-1l0,0l1.7,1H31.1z"/>
							<path class="st29" d="M31.2,38.4l-1.7-1h0.1l1.7,1H31.2z"/>
							<path class="st28" d="M31.3,38.4l-1.7-1h0.1l1.7,1H31.3z"/>
							<path class="st27" d="M31.4,38.4l-1.7-1h0.1l1.7,1H31.4z"/>
							<path class="st26" d="M31.5,38.4l-1.7-1H30l1.7,1H31.5z"/>
							<path class="st25" d="M31.7,38.4l-1.7-1h0.1l1.7,1C31.7,38.4,31.7,38.4,31.7,38.4L31.7,38.4z"/>
							<path class="st24" d="M31.8,38.3l-1.7-1h0.3l1.6,1H31.8z"/>
						</g>
					</g>
				</g>
			</g>
			<g>
				<g>
					<defs>
						<path id="SVGID_23_" d="M31.4,33.7l1.7,1c-0.3-0.2-0.8-0.2-1.1,0.1l-1.7-1C30.8,33.6,31.1,33.5,31.4,33.7z"/>
					</defs>
					<clipPath id="SVGID_24_">
						<use xlink:href="#SVGID_23_"  style="overflow:visible;"/>
					</clipPath>
					<g class="st49">
						<g>
							<path class="st3" d="M32,34.8l-1.7-1h0.3l1.6,1H32z"/>
							<path class="st4" d="M32.2,34.7l-1.6-1c0.1,0,0.1,0,0.1-0.1l1.7,1L32.2,34.7z"/>
							<path class="st5" d="M32.4,34.6l-1.7-1h0.2L32.4,34.6L32.4,34.6z"/>
							<path class="st6" d="M32.5,34.6l-1.6-1H31l1.7,1H32.5z"/>
							<path class="st7" d="M32.7,34.6l-1.7-1h0.1L32.7,34.6L32.7,34.6z"/>
							<path class="st8" d="M32.8,34.6l-1.7-1h0.1L32.8,34.6z"/>
							<path class="st9" d="M32.8,34.6l-1.6-1l0,0L32.8,34.6L32.8,34.6z"/>
							<path class="st10" d="M32.9,34.6l-1.7-1c0.1,0,0.1,0,0.1,0.1L32.9,34.6L32.9,34.6z"/>
							<path class="st11" d="M33,34.6l-1.7-0.9h0.1L33,34.6C33,34.7,33,34.7,33,34.6z"/>
							<polygon class="st12" points="33.1,34.7 31.4,33.7 31.4,33.7 33.1,34.7 33.1,34.7 							"/>
						</g>
					</g>
				</g>
			</g>
			<g>
				<g>
					<defs>
						<path id="SVGID_25_" d="M31,38.3l-1.7-1c-0.3-0.1-0.4-0.5-0.4-0.9c0-1,0.5-2,1.4-2.6l1.7,1c-0.9,0.6-1.4,1.5-1.5,2.5
							C30.5,37.7,30.7,38.1,31,38.3z"/>
					</defs>
					<clipPath id="SVGID_26_">
						<use xlink:href="#SVGID_25_"  style="overflow:visible;"/>
					</clipPath>
					<g class="st50">
						<g>
							<path class="st17" d="M31,38.3l-1.7-1c-0.3-0.1-0.4-0.5-0.4-0.9v-0.3l1.7,1c0,0.1,0,0.1-0.1,0.2C30.5,37.7,30.7,38.1,31,38.3
								z"/>
							<path class="st16" d="M30.6,37.1l-1.7-1v-0.2l1.7,1V37.1z"/>
							<path class="st15" d="M30.6,36.9l-1.7-1c0-0.1,0-0.1,0.1-0.2l1.6,1V36.9z"/>
							<path class="st14" d="M30.6,36.7l-1.6-1l0,0l1.7,0.9c0,0.1,0,0.1-0.1,0.2V36.7z"/>
							<path class="st13" d="M30.7,36.5L29,35.6c0-0.1,0-0.1,0.1-0.2l1.6,1V36.5z"/>
							<path class="st12" d="M30.7,36.4l-1.6-1l0,0l1.7,1H30.7z"/>
							<path class="st11" d="M30.8,36.3l-1.7-1h0.1l1.7,0.9v0.2L30.8,36.3z"/>
							<path class="st10" d="M30.9,36.1l-1.7-0.9V35L30.9,36.1L30.9,36.1z"/>
							<path class="st9" d="M30.9,36l-1.7-1c0.1,0,0.1,0,0.1-0.1l1.7,1L30.9,36z"/>
							<path class="st8" d="M31,35.9l-1.7-1c0-0.1,0-0.1,0.1-0.1l1.7,1C31,35.8,31,35.8,31,35.9z"/>
							<path class="st7" d="M31.1,35.8l-1.7-1v-0.2l1.6,1v0.2H31.1z"/>
							<path class="st6" d="M31.1,35.6l-1.6-1h0.1l1.6,1C31.2,35.7,31.2,35.7,31.1,35.6L31.1,35.6z"/>
							<path class="st5" d="M31.2,35.5l-1.6-1c0-0.1,0-0.1,0.1-0.1l1.7,0.9C31.4,35.3,31.2,35.5,31.2,35.5z"/>
							<path class="st4" d="M31.4,35.3l-1.7-0.9c0-0.1,0-0.1,0.1-0.2l1.7,1L31.4,35.3z"/>
							<path class="st3" d="M31.5,35.2l-1.7-1l0.5-0.4l1.7,1L31.5,35.2z"/>
						</g>
					</g>
				</g>
			</g>
			<g>
				<g>
					<defs>
						<polygon id="SVGID_27_" points="28.1,37.1 29.6,37.9 29.6,37.9 						"/>
					</defs>
					<clipPath id="SVGID_28_">
						<use xlink:href="#SVGID_27_"  style="overflow:visible;"/>
					</clipPath>
					<g class="st51">
						<g>
							<path class="st35" d="M29.5,38.2l-1.6-1v-0.3c0-0.4-0.2-0.7-0.5-0.9l1.7,1c0.3,0.2,0.5,0.5,0.5,0.9
								C29.6,38,29.6,38.1,29.5,38.2z"/>
						</g>
					</g>
				</g>
			</g>
			<g>
				<g>
					<defs>
						<path id="SVGID_29_" d="M27.9,36.9c0-0.4-0.2-0.7-0.5-0.9l1.7,1c0.3,0.2,0.5,0.5,0.5,0.9l0,0C29,37.6,28.4,37.3,27.9,36.9
							c0.5,0.4,1.1,0.7,1.7,1c-0.1,1.1-0.6,2-1.5,2.6l-1.7-1C27.3,38.9,27.8,38,27.9,36.9z"/>
					</defs>
					<clipPath id="SVGID_30_">
						<use xlink:href="#SVGID_29_"  style="overflow:visible;"/>
					</clipPath>
					<g class="st52">
						<g>
							<path class="st24" d="M28.1,40.5l-1.7-1l0.5-0.4l1.7,1L28.1,40.5z"/>
							<path class="st25" d="M28.6,40.1l-1.7-1C27,39,27,39,27,38.9l1.7,1C28.7,40,28.6,40,28.6,40.1z"/>
							<path class="st26" d="M28.7,39.9l-1.7-1h0.2l1.7,1H28.7z"/>
							<path class="st27" d="M28.9,39.8l-1.7-1h0.1l1.7,0.9v0.2L28.9,39.8z"/>
							<path class="st28" d="M29,39.6l-1.7-0.9c0-0.1,0-0.1,0.1-0.2l1.6,1V39.6z"/>
							<path class="st29" d="M29,39.5l-1.6-1l0,0l1.7,1C29.1,39.6,29.1,39.6,29,39.5L29,39.5z"/>
							<path class="st30" d="M29.1,39.4l-1.7-1c0.1,0,0.1,0,0.1-0.1l1.7,1L29.1,39.4z"/>
							<path class="st31" d="M29.2,39.3l-1.7-1h0.1l1.7,0.9v0.2L29.2,39.3z"/>
							<path class="st32" d="M29.3,39.1l-1.7-0.9V38L29.3,39.1L29.3,39.1z"/>
							<path class="st33" d="M29.3,39l-1.7-1h0.1l1.7,1C29.3,39,29.3,39,29.3,39L29.3,39z"/>
							<path class="st39" d="M29.4,38.9l-1.7-1l0,0L29.4,38.9V39V38.9z"/>
							<path class="st38" d="M29.4,38.7l-1.7-0.9c0-0.1,0.1-0.1,0.1-0.2l1.7,1C29.4,38.6,29.4,38.6,29.4,38.7z"/>
							<path class="st37" d="M29.5,38.6l-1.7-1v-0.2l1.7,1V38.6z"/>
							<path class="st36" d="M29.5,38.4l-1.7-1c0-0.1,0-0.1,0.1-0.2l1.6,1V38.4z"/>
							<path class="st35" d="M29.5,38.2l-1.6-1v-0.3c0-0.4-0.2-0.7-0.5-0.9l1.7,1c0.3,0.2,0.5,0.5,0.5,0.9
								C29.6,38,29.6,38.1,29.5,38.2z"/>
						</g>
					</g>
				</g>
			</g>
			<g>
				<g>
					<defs>
						<path id="SVGID_31_" d="M27.4,36l1.7,1c-0.2-0.2-0.6-0.2-1,0.1l-1.7-1C26.8,35.9,27.2,35.8,27.4,36z"/>
					</defs>
					<clipPath id="SVGID_32_">
						<use xlink:href="#SVGID_31_"  style="overflow:visible;"/>
					</clipPath>
					<g class="st53">
						<g>
							<path class="st3" d="M28.1,37.1l-1.7-1h0.2l1.7,1C28.2,37.1,28.1,37.1,28.1,37.1L28.1,37.1z"/>
							<path class="st4" d="M28.3,37l-1.7-1h0.2l1.7,1C28.4,37,28.3,37,28.3,37L28.3,37z"/>
							<path class="st5" d="M28.5,36.9l-1.7-1h0.1l1.7,1H28.5z"/>
							<path class="st6" d="M28.6,36.9l-1.7-1H27l1.7,1H28.6z"/>
							<path class="st7" d="M28.7,36.9l-1.7-1h0.1l1.7,1H28.7z"/>
							<path class="st8" d="M28.8,36.9l-1.7-1h0.1l1.7,1H28.8z"/>
							<path class="st9" d="M28.9,36.9l-1.7-1h0.1l1.7,1H28.9z"/>
							<path class="st10" d="M29,36.9l-1.7-1h0.1L29,36.9z"/>
							<path class="st11" d="M29,36.9l-1.6-1l0,0l1.7,1C29.1,36.8,29.1,36.8,29,36.9L29,36.9z"/>
							<polygon class="st12" points="29.1,37 27.4,36 27.4,36 29.1,37 29.1,37 							"/>
						</g>
					</g>
				</g>
			</g>
			<g>
				<g>
					<defs>
						<path id="SVGID_33_" d="M27,40.6l-1.7-1c-0.3-0.2-0.4-0.6-0.4-0.9c0.1-1.1,0.6-2,1.5-2.6l1.7,1c-0.9,0.5-1.5,1.5-1.5,2.5
							C26.6,40,26.7,40.3,27,40.6z"/>
					</defs>
					<clipPath id="SVGID_34_">
						<use xlink:href="#SVGID_33_"  style="overflow:visible;"/>
					</clipPath>
					<g class="st54">
						<g>
							<path class="st17" d="M27,40.6l-1.7-1c-0.3-0.2-0.4-0.6-0.4-0.9v-0.3l1.7,0.9v0.3C26.6,40,26.7,40.3,27,40.6z"/>
							<path class="st16" d="M26.6,39.3l-1.7-0.9c0-0.1,0-0.2,0.1-0.2l1.6,0.9V39.3z"/>
							<path class="st15" d="M26.6,39.1L25,38.2V38l1.7,1C26.7,39.1,26.7,39.1,26.6,39.1z"/>
							<path class="st14" d="M26.7,39L25,38v-0.2l1.7,1V39z"/>
							<path class="st13" d="M26.7,38.8l-1.7-1h0.1l1.7,1H26.7z"/>
							<path class="st12" d="M26.8,38.7l-1.7-1l0,0L26.8,38.7v0.1V38.7z"/>
							<path class="st11" d="M26.8,38.5l-1.7-0.9c0.1-0.1,0.1-0.1,0.1-0.2l1.7,1C26.9,38.5,26.9,38.5,26.8,38.5z"/>
							<path class="st10" d="M26.9,38.4l-1.7-1h0.1l1.7,1C26.9,38.4,26.9,38.4,26.9,38.4L26.9,38.4z"/>
							<path class="st9" d="M27,38.3l-1.7-1l0,0L27,38.3z"/>
							<path class="st8" d="M27,38.2l-1.7-1h0.1l1.7,0.9c0,0.1-0.1,0.1-0.1,0.2V38.2z"/>
							<path class="st7" d="M27.1,38l-1.7-0.9c0-0.1,0.1-0.1,0.1-0.2l1.7,1C27.2,38,27.2,38,27.1,38z"/>
							<path class="st6" d="M27.2,37.9l-1.7-1h0.1l1.7,1C27.2,37.9,27.2,37.9,27.2,37.9L27.2,37.9z"/>
							<path class="st5" d="M27.3,37.8l-1.7-1h0.1l1.7,0.9c0,0.1-0.1,0.1-0.1,0.2V37.8z"/>
							<path class="st4" d="M27.4,37.6l-1.7-0.9c0.1-0.1,0.1-0.2,0.2-0.2l1.7,1L27.4,37.6z"/>
							<path class="st3" d="M27.6,37.5l-1.7-1c0.1-0.2,0.3-0.3,0.5-0.4l1.7,1C27.9,37.2,27.7,37.3,27.6,37.5z"/>
						</g>
					</g>
				</g>
			</g>
			<path class="st55" d="M86,1.2c0.9-0.5,1.6-0.1,1.6,0.9v6l-64.1,37v-5.9c0.1-1.2,0.7-2.2,1.7-2.8L86,1.2z M32,38.2
				c0.9-0.6,1.5-1.5,1.5-2.6c0-0.9-0.7-1.3-1.5-0.8c-0.9,0.6-1.4,1.5-1.5,2.5C30.5,38.3,31.2,38.7,32,38.2z M28.1,40.5
				c0.9-0.6,1.4-1.5,1.5-2.6c0-0.9-0.7-1.3-1.5-0.8c-0.9,0.5-1.5,1.5-1.5,2.5C26.6,40.6,27.3,41,28.1,40.5z M36,35.9
				c0.9-0.6,1.4-1.5,1.5-2.6c0-0.9-0.7-1.3-1.5-0.8c-0.9,0.6-1.4,1.5-1.5,2.6C34.5,36,35.2,36.4,36,35.9z"/>
			<path class="st56" d="M36,32.5c0.8-0.5,1.5-0.1,1.5,0.8c-0.1,1.1-0.6,2-1.5,2.6c-0.8,0.5-1.5,0.1-1.5-0.8
				C34.6,34,35.1,33.1,36,32.5z"/>
			<path class="st56" d="M32,34.8c0.8-0.5,1.5-0.1,1.5,0.8c0,1.1-0.6,2-1.5,2.6c-0.8,0.5-1.5,0.1-1.5-0.9
				C30.6,36.3,31.1,35.4,32,34.8z"/>
			<path class="st56" d="M28.1,37.1c0.8-0.5,1.5-0.1,1.5,0.8c-0.1,1.1-0.6,2-1.5,2.6c-0.8,0.5-1.5,0.1-1.5-0.9
				C26.6,38.6,27.2,37.6,28.1,37.1z"/>
			<polygon class="st57" points="23.5,45.1 21.8,44.1 21.8,38.2 23.4,39.2 			"/>
			<path class="st58" d="M86.3,1h0.8l-1.7-0.9h-1.1L23.4,35.4l-0.3,0.2c-0.1,0-0.1,0-0.1,0.1h-0.6c0,0.1,0,0.1-0.1,0.1
				c0,0.1,0,0.1-0.1,0.2h-0.1c0,0.1,0,0.1-0.1,0.2l0,0c0,0.1-0.1,0.1-0.1,0.2h-0.1v0.2l0,0v0.3l1.6,1c0-0.2,0.1-0.3,0.1-0.4l0,0
				c0-0.1,0-0.2,0.1-0.3l0,0c0-0.1,0.1-0.2,0.1-0.3l0,0l0.2-0.4l0,0l0.3-0.4l0,0c0-0.1,0.1-0.2,0.2-0.3h0.3c0-0.1,0-0.1,0.1-0.1
				l0.3-0.2L86,1.2h0.3V1z"/>
			<polygon class="st59" points="31.6,46.7 31.6,48.2 81.3,19.6 81.3,18.1 			"/>
			<polygon class="st59" points="31.6,52.8 31.6,54.3 81.3,25.6 81.3,24.1 			"/>
			<polygon class="st59" points="31.6,58.9 31.6,60.4 81.3,31.7 81.3,30.2 			"/>
			<polygon class="st59" points="31.6,64.9 31.6,66.4 81.3,37.7 81.3,36.3 			"/>
			<polygon class="st59" points="31.6,71 31.6,72.5 81.3,43.8 81.3,42.3 			"/>
			<polygon class="st59" points="31.6,77.1 31.6,78.5 81.3,49.9 81.3,48.4 			"/>
			<path class="st60" d="M69.3,43.9c-0.5-0.8-1.3-1.3-2.3-1.3C67.3,43.6,68.3,44.2,69.3,43.9z"/>
			<path class="st61" d="M67.6,41.9c-0.6,0.7-1.1,1.5-1.5,2.3c-0.2,0.5-0.8,2.5,0.2,3.9s0.9-0.3,1-1.7s0-1.1,0.8-1.7
				c0.6-0.5,1.1-1.2,1.5-1.9C69.9,42.3,67.6,41.9,67.6,41.9z"/>
			<path class="st62" d="M69.6,42.9c-0.2,0.5-1,1.3-1.1,2.1s-1.1,0.8-1.2,1.4s-0.3,2-0.7,1.9s-0.7-1.4,0.3-3.2
				c0.6-1,1.3-1.9,2.2-2.6C69.5,42.6,69.7,42.7,69.6,42.9z"/>
			<path class="st61" d="M69,42.4c0,0-0.3,2.6-0.5,3.4s-0.6,1.2-0.7,1s0.4-2.4-0.5-2.4S68.9,42.8,69,42.4z"/>
			<path class="st63" d="M75.3,21.6c0,0-2.6-0.6-3.7,4.6s-1,7.1-1.8,8.9S67,42.6,67,42.6c0.9,0.1,1.8,0.5,2.3,1.3
				c0,0,4.2-7.1,5.1-10.2S78,23.1,75.3,21.6z"/>
			<path class="st57" d="M69.8,35.1c0.8-1.8,0.8-3.8,1.8-8.9c0.6-2.8,1.6-3.9,2.5-4.3c2.4,1.6-0.3,8.9-1.1,12s-3.1,7-4.3,9.3
				c-0.5-0.3-1.1-0.6-1.7-0.6C67,42.6,69,36.9,69.8,35.1z"/>
			<path class="st64" d="M77.9,71.4c0,0,0.7,1.6,0,2s-0.8,0.9-1.9,0.8s-0.9,0.3-1.3,0.7s-4.3,2.1-5,1.3s1.3-1.8,2-2.3
				c1.1-0.8,2-1.8,2.6-3C74.3,70.4,77.9,71.4,77.9,71.4z"/>
			<path class="st65" d="M77.9,73.4c-0.7,0.4-0.8,0.9-1.9,0.8s-0.9,0.3-1.3,0.7s-4.3,2.1-5,1.3s-0.2-0.6,0-0.9l1.2,0.2
				c1.1,0.2,2.6-1.1,3.2-1.6s1.3-0.3,2.2-0.5s0.9-1.6,0.9-1.6l0.7-0.3C78.1,71.9,78.5,73.1,77.9,73.4z"/>
			<path class="st64" d="M84.8,76.6c0.2,1,0,2-0.4,2.9c-0.7,1.1-2.3,2.8-3,2.8s-0.8-0.4-0.8-0.4c-0.2-1-0.1-2.1,0.2-3.1
				c0.3-0.7,0.4-1.4,0.5-2.2L84.8,76.6z"/>
			<path class="st65" d="M84.4,79.5c-0.7,1.1-1.6,2-2.7,2.7c1-1.3-0.6-1,0.6-1.7s0.6-1.6,1.3-1.8s0.2-1.9,0.2-1.9l0.4-0.2h0.6
				C85,77.6,84.8,78.6,84.4,79.5z"/>
			<path class="st66" d="M76.4,45.7c0,0-3.3-0.3-4.4-2.7c-0.2,3.8,0,7.7,0.4,11.5c0.7,6.2,1.2,17.1,1.2,17.1c1.2,1.2,3.1,1.2,4.3,0
				c0,0,0.6-7.2,0-11.2c0,0,0.4-7-0.3-10.5S76.4,45.7,76.4,45.7z"/>
			<path class="st67" d="M73.6,71.6c0,0-0.5-10.9-1.2-17.1c-0.4-4.1-0.6-8.3-0.4-12.4c0.8,1.6,2.1,2.9,3.8,3.5
				c-0.1,2.4-0.3,9.4-0.3,11.7s0.5,11.4,0.7,15.2C75.2,72.6,74.3,72.3,73.6,71.6z"/>
			<path class="st66" d="M84.1,45.4c0,0,0.3,3.6,0.4,9.2c0,2.9,0.2,5.8,0.6,8.7c0.3,4.3,0.4,8.7,0.3,13c0,0-1.7,2.8-4.5,0
				c0,0-0.5-9.7-1-11.9s-3.2-12.9-4.2-16.7c-0.2-0.8-0.4-1.5-0.6-2.3C75.1,45.4,79.8,48.8,84.1,45.4z"/>
			<path class="st67" d="M80.9,76.3c0,0-0.5-9.7-1-11.9s-3.2-12.9-4.2-16.7c-0.3-1.1-0.9-2.1-1.6-3c0,0,3.1,2.2,5.8,2.2
				c0.1,0.8,1.2,8.7,1.5,12.1s2.6,15.5,2,18.5C82.4,77.6,81.5,77.1,80.9,76.3z"/>
			<path class="st55" d="M81,22.8c0,0,4.8,3,4.9,3.3s1.4,1.5-0.8,5.7c0,0-2.8,4.6-1.9,9.5c0.2,1.5,0.6,2.9,1.1,4.3
				c0,0-2.5,3.1-8.6,0.4c-1.6-0.9-2.9-2.2-3.7-3.9c0.5-2.9,0.6-5.9,0.4-8.8c-0.5-4.8-0.5-11.1,2.3-11.7C74.7,21.6,75.5,20.8,81,22.8
				z"/>
			<path class="st61" d="M80.6,18.7c0,0-1.2,2.5,0.3,3.9s-0.5,3-3.2,3.3c0,0-1.2-0.1-1.2-0.6c0.1-0.8-0.3-1.7-0.9-2.2
				C75.1,22.4,80.6,18.7,80.6,18.7z"/>
			<path class="st68" d="M80.9,22.6c0.1,0,0.2,0.2,0.2,0.3c-0.9-0.6-2-0.8-3.1-0.7l2.1-3.2l0.2-0.2v0.3
				C80.2,19.9,79.8,21.5,80.9,22.6z"/>
			<path class="st61" d="M81,17.3c0,0-0.2,3.1-2.1,4.8s-3.7,2.7-4.5,0.5s-2.1-6-0.7-7.2s2.4-3,4.8-2.5C80.3,13.5,81.4,15.4,81,17.3z
				"/>
			<path class="st62" d="M81,17.3c-0.1,1.8-0.8,3.6-2.1,4.9l-1.6,1.2c0.6-0.6,1.2-1.3,1.6-2.1c0.6-1-1.3-0.4-0.3-2.9
				c0.3-0.8-1.7,0.5-2.2,0.6c-2.9,0.4-2.9-1.3-3.1-2s0.1-0.6,0.2-0.9v-0.7c0.2-0.4,0.5-0.8,0.8-1.1l4.8-0.7l1.6,1.4
				C81,15.7,81.1,16.5,81,17.3z"/>
			<path class="st69" d="M80.2,20.4c1.2-1.6,1.4-3.6,0.7-5.4c-0.6-1.5-2-2.4-3.6-2.3c-2,0-3.8,1.4-4.2,3.4c-0.1,0.9,0.1,2.5,3.2,1.2
				c0.7-0.3,1.4-0.4,2.1-0.2c0.5,0.4,0.7,1.1,0.6,1.7c-0.1,0.6,0.4,0.6,0.4,0.4s0.4-1.8,1.1-1.2S80.2,20.3,80.2,20.4z"/>
			<path class="st66" d="M80.2,20.4c0-0.1,0.9-2,0.3-2.4s-1,1.1-1.1,1.2s-0.5,0.2-0.4-0.4c0.1-0.6-0.1-1.3-0.6-1.7
				c-0.4-0.3-1.5,0-2.1,0.2s1.5-0.7,1.8-1.6c0.1-1,0.7-1.8,1.6-2.3c0.5,0.4,1,1,1.2,1.6C81.6,16.8,81.4,18.8,80.2,20.4z"/>
			<path d="M71.6,15.8c0.7,1.7,2.6,2.5,4.3,1.9c0.2-0.1,0.4-0.2,0.5-0.3c1.1-0.5,1.9-1.5,2.3-2.7c0.2-0.6,0.6-1,1.1-1.2
				c0,0-1.2-1.2-3.8-0.7s-2.2,1.7-2.5,1.9S72.6,15.9,71.6,15.8z"/>
			<path class="st55" d="M85.9,26.1c0.1,0.4,1.4,1.5-0.8,5.7c0,0-2.8,4.6-1.9,9.5c0.2,1.5,0.6,2.9,1.1,4.3c-1.1,1-2.6,1.6-4.1,1.5
				c-0.7-4.2,0.1-11.5,0.5-16.6c0.1-2.3,1.2-4.5,3.1-5.9C84.5,25,85.3,25.5,85.9,26.1z"/>
			<path class="st62" d="M75.6,27c0,0,0.1-2,0.5-2.4s-0.1-1-0.5-0.5c-0.3,0.4-0.4,0.8-0.5,1.2c0,0-0.4-2.4,0.3-2.6s-1.9-0.1-2.2,1
				s-1,2.3,1,4.4C74.8,27.9,75.3,27.5,75.6,27z"/>
			<path class="st57" d="M83.5,26c1.4-0.8,4-0.2,2.6,3.2S78.8,40.2,77,40s-1.2-3.8,0.3-6S82.3,26.7,83.5,26z"/>
			<path class="st57" d="M76.5,39.9c0,0-3.4-4.3-3-12.6c0.8,0.3,1.6,0.1,2.2-0.4C75.7,26.9,80.9,41.2,76.5,39.9z"/>
		</g>
	</g>
</g>
<g id="Layer_2" class="st70">
	<g id="Layer_2_2_" class="st71">
		<rect x="117.5" y="14.5" class="st55" width="68.7" height="55.7"/>
		<rect x="117.5" y="-55.2" class="st57" width="68.7" height="55.7"/>
		<rect x="117.5" y="79.4" class="st67" width="68.7" height="55.7"/>
	</g>
</g>
</svg>
