<?xml version="1.0" encoding="utf-8"?>
<!-- Generator: Adobe Illustrator 24.0.0, SVG Export Plug-In . SVG Version: 6.00 Build 0)  -->
<svg version="1.1" xmlns="http://www.w3.org/2000/svg" xmlns:xlink="http://www.w3.org/1999/xlink" x="0px" y="0px"
	 viewBox="0 0 720.5 505.7" style="enable-background:new 0 0 720.5 505.7;" xml:space="preserve">
<style type="text/css">
	.st0{fill:#E82E31;}
	.st1{fill:#D70010;}
	.st2{opacity:0.56;}
	.st3{opacity:0.2;}
	.st4{fill:#080C19;}
	.st5{fill:url(#SVGID_1_);}
	.st6{fill:#FFFFFF;}
	.st7{fill:#182026;}
	.st8{fill:#353A56;}
	.st9{fill:url(#SVGID_2_);}
	.st10{fill:url(#SVGID_3_);}
	.st11{opacity:0.3;}
	.st12{fill:#38B9F9;}
	.st13{fill:url(#SVGID_4_);}
	.st14{fill:#666687;}
	.st15{fill:url(#SVGID_5_);}
	.st16{fill:#4A5077;}
	.st17{fill:#101010;}
	.st18{fill:#EAEAEA;}
	.st19{fill:#DCDCE5;}
	.st20{fill:#AEAEC4;}
	.st21{fill:#7F7F7F;}
	.st22{fill:none;}
	.st23{fill:url(#SVGID_6_);}
	.st24{fill:url(#SVGID_7_);}
	.st25{fill:#A3001B;}
	.st26{fill:url(#SVGID_8_);}
	.st27{fill:url(#SVGID_9_);}
	.st28{fill:url(#SVGID_10_);}
	.st29{fill:url(#SVGID_11_);}
	.st30{fill:url(#SVGID_12_);}
	.st31{opacity:0.8;}
	.st32{fill:#20A3E5;}
	.st33{fill:#0980C9;}
	.st34{fill:#101111;}
	.st35{fill:url(#SVGID_13_);}
	.st36{fill:url(#SVGID_14_);}
	.st37{fill:url(#SVGID_15_);}
	.st38{display:none;}
	.st39{display:inline;}
	.st40{fill:#7A0110;}
</style>
<g id="Layer_1">
	<title>4</title>
	<g>
		<g id="Layer_2_1_">
			<g id="_ÎÓÈ_1">
				<path class="st0" d="M460.6,419.8c9.8,5.6,9.8,14.9,0.1,20.5l-81.3,47.3c-9.7,5.6-25.7,5.6-35.5,0l-81.8-47.3
					c-9.8-5.6-9.9-14.9-0.1-20.5l81.3-47.3c9.7-5.6,25.6-5.6,35.5,0L460.6,419.8z M378.1,486.8l81.3-47.2c9-5.3,9-13.8-0.1-19.1
					l-81.8-47.2c-9.1-5.3-23.9-5.3-32.9,0l-81.3,47.2c-9.1,5.3-9,13.8,0.1,19.1l81.8,47.2C354.3,492.1,369.1,492.1,378.1,486.8"/>
				<g>
					<path class="st1" d="M367.4,205.2c4.1,2.3,4.1,6.2,0,8.6s-10.7,2.3-14.9,0s-4.1-6.3,0-8.6C357.2,202.8,362.7,202.8,367.4,205.2
						z M353.8,213c3.9,2,8.4,2,12.3,0c3.4-1.9,3.4-5.1,0-7.1c-3.9-2-8.4-2-12.3,0C350.4,207.9,350.4,211.1,353.8,213"/>
					<path class="st1" d="M585.7,199.5c9.8,5.7,9.9,14.9,0.1,20.6l-81.2,47.2c-9.8,5.7-25.7,5.7-35.5,0l-81.8-47.2
						c-9.9-5.7-9.9-14.9-0.2-20.6l81.3-47.2c9.8-5.7,25.7-5.7,35.5,0L585.7,199.5z M503.3,266.6l81.3-47.3c9-5.2,9-13.8-0.1-19.1
						L502.6,153c-9.1-5.3-23.8-5.2-32.9,0l-81.3,47.3c-9,5.2-9,13.8,0.1,19l81.9,47.3C479.5,271.8,494.2,271.8,503.3,266.6"/>
					<path class="st1" d="M332.1,199.4c9.8,5.6,9.9,14.8,0.1,20.5l-81.3,47.2c-9.7,5.7-25.6,5.7-35.4,0l-81.8-47.2
						c-9.9-5.7-9.9-14.9-0.2-20.5l81.3-47.3c9.8-5.7,25.7-5.7,35.5,0L332.1,199.4z M249.7,266.4l81.3-47.2c9-5.3,9-13.8-0.2-19.1
						L249,152.9c-9.1-5.3-23.9-5.3-32.9-0.1l-81.3,47.3c-9,5.2-9,13.8,0.1,19.1l81.8,47.2C225.9,271.7,240.6,271.7,249.7,266.4"/>
					<path class="st1" d="M495.1,278.9c4.1,2.4,4.2,6.2,0.1,8.6c-4.7,2.4-10.2,2.4-14.9,0c-4.1-2.3-4.1-6.2,0-8.6
						C484.9,276.5,490.5,276.5,495.1,278.9z M481.6,286.8c3.9,2,8.4,2,12.3,0c3.4-2,3.4-5.2,0-7.1c-3.9-2-8.5-2-12.4,0
						C478.2,281.6,478.2,284.8,481.6,286.8"/>
					<path class="st1" d="M239.4,279.5c4.1,2.4,4.2,6.2,0.1,8.6c-4.7,2.4-10.2,2.4-14.9,0c-4.1-2.4-4.1-6.2,0-8.6
						S235.3,277.1,239.4,279.5z M225.9,287.4c3.9,1.9,8.4,1.9,12.3,0c3.4-2,3.4-5.2,0-7.2c-3.9-1.9-8.5-1.9-12.4,0
						C222.5,282.2,222.5,285.4,225.9,287.4"/>
					<path class="st1" d="M713.1,273c9.8,5.7,9.9,14.9,0.1,20.6l-81.3,47.2c-9.7,5.7-25.7,5.7-35.5,0l-81.8-47.2
						c-9.8-5.7-9.9-14.9-0.1-20.6l81.3-47.2c9.7-5.7,25.6-5.7,35.5,0L713.1,273z M630.6,340.1l81.3-47.3c9-5.2,9-13.8-0.1-19
						L630,226.5c-9.1-5.2-23.9-5.2-32.9,0l-81.3,47.3c-9.1,5.2-9,13.8,0.1,19l81.8,47.3C606.8,345.3,621.6,345.3,630.6,340.1"/>
					<path class="st1" d="M459.5,272.9c9.8,5.6,9.8,14.9,0.1,20.5l-81.3,47.3c-9.8,5.6-25.7,5.6-35.5,0L261,293.4
						c-9.8-5.6-9.9-14.9-0.1-20.5l81.3-47.3c9.7-5.6,25.6-5.6,35.5,0L459.5,272.9z M377,339.9l81.3-47.2c9.1-5.3,9-13.8-0.1-19.1
						l-81.8-47.2c-9.1-5.3-23.9-5.3-32.9,0l-81.3,47.2c-9.1,5.3-9,13.8,0.1,19.1l81.8,47.2C353.2,345.2,368,345.2,377,339.9"/>
					<path class="st1" d="M205.9,272.7c9.8,5.7,9.8,14.9,0.1,20.6l-81.3,47.2c-9.8,5.7-25.7,5.7-35.5,0L7.4,293.3
						c-9.8-5.7-9.9-14.9-0.1-20.6l81.3-47.2c9.7-5.7,25.6-5.7,35.5,0L205.9,272.7z M123.4,339.8l81.3-47.3c9-5.2,9-13.8-0.1-19
						l-81.8-47.3c-9.1-5.2-23.9-5.2-33,0L8.6,273.5c-9.1,5.2-9,13.8,0.1,19l81.8,47.3C99.6,345,114.4,345,123.4,339.8"/>
					<path class="st1" d="M367.2,353.3c4.1,2.3,4.1,6.2,0,8.6s-10.7,2.4-14.8,0s-4.2-6.3-0.1-8.6C357,350.9,362.5,350.9,367.2,353.3
						z M353.6,361.1c3.9,2,8.5,2,12.4,0c3.3-1.9,3.3-5.1-0.1-7.1c-3.9-2-8.4-2-12.3,0C350.2,356,350.2,359.2,353.6,361.1"/>
					<path class="st1" d="M586.8,346.4c9.8,5.7,9.9,14.9,0.1,20.6l-81.2,47.2c-9.8,5.7-25.7,5.7-35.5,0L388.4,367
						c-9.9-5.7-9.9-14.9-0.2-20.6l81.3-47.2c9.8-5.7,25.7-5.7,35.5,0L586.8,346.4z M504.4,413.5l81.3-47.3c9-5.2,9-13.8-0.2-19.1
						l-81.8-47.2c-9.1-5.3-23.9-5.3-32.9,0l-81.3,47.2c-9,5.3-9,13.9,0.1,19.1l81.8,47.3C480.6,418.7,495.3,418.7,504.4,413.5"/>
					<path class="st1" d="M333.2,346.3c9.8,5.6,9.9,14.8,0.1,20.5L252,414c-9.7,5.7-25.6,5.7-35.4,0l-81.9-47.2
						c-9.8-5.7-9.8-14.9-0.1-20.5l81.3-47.3c9.8-5.7,25.7-5.7,35.5,0L333.2,346.3z M250.8,413.3l81.3-47.2c9-5.3,8.9-13.9-0.2-19.1
						l-81.8-47.3c-9.1-5.2-23.9-5.2-32.9,0L135.9,347c-9,5.2-9,13.8,0.1,19.1l81.8,47.2C226.9,418.6,241.7,418.6,250.8,413.3"/>
				</g>
				<path class="st0" d="M458.4,126c9.8,5.6,9.8,14.9,0.1,20.5l-81.3,47.3c-9.8,5.6-25.7,5.6-35.5,0l-81.8-47.3
					c-9.8-5.6-9.9-14.9-0.1-20.5l81.3-47.3c9.7-5.6,25.6-5.6,35.5,0L458.4,126z M375.9,193l81.3-47.2c9-5.3,9-13.8-0.1-19.1
					l-81.8-47.2c-9.1-5.3-23.9-5.3-32.9,0l-81.3,47.2c-9.1,5.3-9,13.8,0.1,19.1L343,193C352.1,198.3,366.9,198.3,375.9,193"/>
				<g class="st2">
					<path class="st0" d="M460.6,433.6c9.8,5.7,9.8,14.9,0.1,20.6l-81.3,47.2c-9.7,5.7-25.7,5.7-35.5,0l-81.8-47.2
						c-9.8-5.7-9.9-14.9-0.1-20.6l81.3-47.2c9.7-5.7,25.6-5.7,35.5,0L460.6,433.6z M378.1,500.7l81.3-47.3c9-5.2,9-13.8-0.1-19
						l-81.8-47.3c-9.1-5.2-23.9-5.2-32.9,0l-81.3,47.3c-9.1,5.2-9,13.8,0.1,19l81.8,47.3C354.3,505.9,369.1,505.9,378.1,500.7"/>
					<g>
						<path class="st0" d="M367.4,219c4.1,2.4,4.1,6.2,0,8.6s-10.7,2.4-14.9,0s-4.1-6.2,0-8.6C357.2,216.6,362.7,216.6,367.4,219z
							 M353.8,226.9c3.9,1.9,8.4,1.9,12.3,0c3.4-2,3.4-5.2,0-7.2c-3.9-1.9-8.4-1.9-12.3,0C350.4,221.7,350.4,224.9,353.8,226.9"/>
						<path class="st0" d="M585.7,213.4c9.8,5.6,9.9,14.8,0.1,20.5l-81.2,47.2c-9.8,5.7-25.7,5.7-35.5,0l-81.8-47.2
							c-9.9-5.7-9.9-14.9-0.2-20.5l81.3-47.3c9.8-5.7,25.7-5.7,35.5,0L585.7,213.4z M503.3,280.4l81.3-47.2c9-5.3,9-13.9-0.1-19.1
							l-81.9-47.3c-9.1-5.2-23.8-5.2-32.9,0l-81.3,47.3c-9,5.2-9,13.8,0.1,19.1l81.9,47.2C479.5,285.7,494.2,285.7,503.3,280.4"/>
						<path class="st0" d="M332.1,213.2c9.8,5.7,9.9,14.9,0.1,20.5L250.9,281c-9.7,5.6-25.6,5.6-35.4,0l-81.8-47.3
							c-9.9-5.6-9.9-14.8-0.2-20.5l81.3-47.2c9.8-5.7,25.7-5.7,35.5,0L332.1,213.2z M249.7,280.2L331,233c9-5.3,9-13.8-0.2-19.1
							L249,166.7c-9.1-5.3-23.9-5.3-32.9,0l-81.3,47.2c-9,5.3-9,13.8,0.1,19.1l81.8,47.2C225.9,285.5,240.6,285.5,249.7,280.2"/>
						<path class="st0" d="M495.1,292.8c4.1,2.3,4.2,6.2,0.1,8.6c-4.7,2.3-10.2,2.3-14.9,0c-4.1-2.4-4.1-6.3,0-8.6
							C484.9,290.4,490.5,290.4,495.1,292.8z M481.6,300.6c3.9,2,8.4,2,12.3,0c3.4-1.9,3.4-5.1,0-7.1c-3.9-2-8.5-2-12.4,0
							C478.2,295.5,478.2,298.7,481.6,300.6"/>
						<path class="st0" d="M239.4,293.3c4.1,2.4,4.2,6.3,0.1,8.7c-4.7,2.3-10.2,2.3-14.9,0c-4.1-2.4-4.1-6.3,0-8.7
							S235.3,291,239.4,293.3z M225.9,301.2c3.9,2,8.4,2,12.3,0c3.4-2,3.4-5.2,0-7.1c-3.9-2-8.5-2-12.4,0
							C222.5,296,222.5,299.2,225.9,301.2"/>
						<path class="st0" d="M713.1,286.9c9.8,5.6,9.9,14.9,0.1,20.5l-81.3,47.3c-9.7,5.6-25.7,5.6-35.5,0l-81.8-47.3
							c-9.8-5.6-9.9-14.9-0.1-20.5l81.3-47.3c9.7-5.6,25.6-5.6,35.5,0L713.1,286.9z M630.6,353.9l81.3-47.2c9-5.3,9-13.8-0.1-19.1
							L630,240.4c-9.1-5.3-23.9-5.3-32.9,0l-81.3,47.2c-9.1,5.3-9,13.8,0.1,19.1l81.8,47.2C606.8,359.2,621.6,359.2,630.6,353.9"/>
						<path class="st0" d="M459.5,286.7c9.8,5.7,9.8,14.9,0.1,20.6l-81.3,47.2c-9.8,5.7-25.7,5.7-35.5,0L261,307.3
							c-9.8-5.7-9.9-14.9-0.1-20.6l81.3-47.2c9.7-5.7,25.6-5.7,35.5,0L459.5,286.7z M377,353.8l81.3-47.3c9.1-5.2,9-13.8-0.1-19
							l-81.8-47.3c-9.1-5.2-23.9-5.2-32.9,0l-81.3,47.3c-9.1,5.2-9,13.8,0.1,19l81.8,47.3C353.2,359,368,359,377,353.8"/>
						<path class="st0" d="M205.9,286.6c9.8,5.6,9.8,14.8,0.1,20.5l-81.3,47.3c-9.8,5.6-25.7,5.6-35.5,0L7.4,307.1
							c-9.8-5.6-9.9-14.9-0.1-20.5l81.3-47.3c9.7-5.6,25.6-5.6,35.5,0L205.9,286.6z M123.4,353.6l81.3-47.2c9-5.3,9-13.8-0.1-19.1
							l-81.8-47.2c-9.1-5.3-23.9-5.3-33,0L8.6,287.3c-9.1,5.3-9,13.8,0.1,19.1l81.8,47.2C99.6,358.9,114.4,358.9,123.4,353.6"/>
						<path class="st0" d="M367.2,367.1c4.1,2.4,4.1,6.2,0,8.6s-10.7,2.4-14.8,0s-4.2-6.2-0.1-8.6
							C357,364.7,362.5,364.7,367.2,367.1z M353.6,375c3.9,1.9,8.5,1.9,12.4,0c3.3-2,3.3-5.2-0.1-7.2c-3.9-1.9-8.4-1.9-12.3,0
							C350.2,369.8,350.2,373,353.6,375"/>
						<path class="st0" d="M586.8,360.2c9.8,5.7,9.9,14.9,0.1,20.6L505.7,428c-9.8,5.7-25.7,5.7-35.5,0l-81.8-47.2
							c-9.9-5.7-9.9-14.9-0.2-20.6l81.3-47.2c9.8-5.7,25.7-5.7,35.5,0L586.8,360.2z M504.4,427.3l81.3-47.2c9-5.3,9-13.9-0.2-19.1
							l-81.8-47.3c-9.1-5.2-23.9-5.2-32.9,0L389.5,361c-9,5.2-9,13.8,0.1,19.1l81.8,47.2C480.6,432.6,495.3,432.5,504.4,427.3"/>
						<path class="st0" d="M333.2,360.1c9.8,5.7,9.9,14.9,0.1,20.5L252,427.9c-9.7,5.6-25.6,5.6-35.4,0l-81.9-47.3
							c-9.8-5.6-9.8-14.8-0.1-20.5l81.3-47.2c9.8-5.7,25.7-5.7,35.5-0.1L333.2,360.1z M250.8,427.1l81.3-47.2
							c9-5.3,8.9-13.8-0.2-19.1l-81.8-47.2c-9.1-5.3-23.9-5.3-32.9,0l-81.3,47.2c-9,5.3-9,13.8,0.1,19.1l81.8,47.2
							C226.9,432.4,241.7,432.4,250.8,427.1"/>
					</g>
					<path class="st0" d="M458.4,139.8c9.8,5.7,9.8,14.9,0.1,20.6l-81.3,47.2c-9.8,5.7-25.7,5.7-35.5,0l-81.8-47.2
						c-9.8-5.7-9.9-14.9-0.1-20.6l81.3-47.2c9.7-5.7,25.6-5.7,35.5,0L458.4,139.8z M375.9,206.9l81.3-47.3c9-5.2,9-13.8-0.1-19
						l-81.8-47.3c-9.1-5.2-23.9-5.2-32.9,0l-81.3,47.3c-9.1,5.2-9,13.8,0.1,19l81.8,47.3C352.1,212.1,366.9,212.1,375.9,206.9"/>
				</g>
				<g class="st3">
					<path class="st4" d="M176.8,331.2c1.6,1,1.7,2.5,0,3.5l-29.2,17c-1.9,0.9-4.1,0.9-6,0l-29.5-17c-1.6-1-1.6-2.5,0-3.5l29.2-17
						c1.9-1,4.2-1,6.1,0L176.8,331.2z"/>
				</g>
				<g>
					
						<linearGradient id="SVGID_1_" gradientUnits="userSpaceOnUse" x1="108.2793" y1="180.1581" x2="146.2493" y2="178.0181" gradientTransform="matrix(1 0 0 -1 0 508)">
						<stop  offset="0" style="stop-color:#768AAD"/>
						<stop  offset="1" style="stop-color:#C6D6E5"/>
					</linearGradient>
					<path class="st5" d="M176.8,317.1l-29.2,17c-1.9,0.9-4.1,0.9-6,0l-29.4-17c-0.7-0.3-1.2-1-1.3-1.8v11.5
						c0.1,0.7,0.5,1.4,1.2,1.7l29.4,17c1.9,1,4.2,1,6.1,0l29.2-17c0.7-0.3,1.1-1,1.2-1.7v-11.4C178.1,316,177.6,316.6,176.8,317.1z"
						/>
					<path class="st6" d="M176.8,313.6c1.7,1,1.7,2.5,0,3.5l-29.2,17c-1.9,0.9-4.1,0.9-6,0l-29.4-17c-1.7-1-1.7-2.5-0.1-3.5l29.3-17
						c1.9-0.9,4.1-0.9,6,0L176.8,313.6z"/>
				</g>
				<g>
					<path class="st7" d="M178.1,311.8v2.2c-0.1,0.7-0.5,1.4-1.2,1.7v-2.1C177.6,313.2,178,312.6,178.1,311.8z"/>
					<path class="st7" d="M110.9,313.9v-2.1c0.1,0.8,0.6,1.5,1.3,1.8v2.1C111.5,315.4,111,314.7,110.9,313.9z"/>
					<polygon class="st7" points="176.8,313.6 176.8,315.7 147.6,332.7 147.6,330.6 					"/>
					<polygon class="st7" points="141.6,330.6 141.6,332.7 112.1,315.7 112.2,313.6 					"/>
					<path class="st7" d="M147.6,330.6v2.1c-1.9,0.9-4.1,0.9-6,0v-2.1C143.5,331.5,145.7,331.5,147.6,330.6z"/>
					<path class="st8" d="M176.8,310.1c1.7,0.9,1.7,2.5,0,3.5l-29.2,17c-1.9,0.9-4.1,0.9-6,0l-29.4-17c-1.7-1-1.7-2.6-0.1-3.5
						l29.3-17c1.9-1,4.1-1,6,0L176.8,310.1z"/>
				</g>
				<path class="st8" d="M170.6,323.8c1.4-0.8,2.6-0.2,2.6,1.5c-0.2,1.8-1.1,3.5-2.6,4.5l-16,9.2c-1.4,0.8-2.6,0.2-2.6-1.5
					c0.1-1.8,1.1-3.5,2.6-4.5L170.6,323.8z M170.6,329.1c1.2-0.8,1.9-2.1,2-3.5c0-1.2-0.9-1.8-2-1.1l-16,9.2c-1.2,0.8-1.9,2.1-2,3.5
					c0,1.2,0.9,1.7,2,1.1L170.6,329.1"/>
				<path class="st8" d="M159.1,332c0.7-0.3,1.2,0,1.2,0.7c0,0.9-0.5,1.6-1.2,2.1c-0.4,0.2-0.9,0.1-1.1-0.3
					c-0.1-0.1-0.1-0.3-0.1-0.4C158,333.3,158.4,332.5,159.1,332z"/>
				<path class="st8" d="M162.6,330c0.7-0.3,1.2,0,1.2,0.7c0,0.9-0.5,1.6-1.2,2.1c-0.4,0.2-0.9,0.1-1.1-0.3
					c-0.1-0.1-0.1-0.3-0.1-0.4C161.4,331.2,161.9,330.5,162.6,330z"/>
				<path class="st8" d="M166.1,328c0.6-0.4,1.2-0.1,1.2,0.7c0,0.8-0.5,1.6-1.2,2c-0.7,0.4-1.2,0.1-1.2-0.6
					C164.9,329.2,165.4,328.5,166.1,328z"/>
				<path class="st8" d="M134,332.4c1.6,1,2.5,2.7,2.6,4.5c0,1.7-1.2,2.3-2.6,1.5l-16-9.2c-1.5-1-2.5-2.7-2.6-4.5
					c0-1.7,1.2-2.3,2.6-1.5L134,332.4z M118,328.5l16,9.2c1.1,0.6,2,0.1,2-1.1c-0.1-1.4-0.8-2.7-2-3.5l-16-9.2c-1.1-0.7-2-0.1-2,1.1
					C116.1,326.4,116.8,327.7,118,328.5"/>
				<path class="st8" d="M129.5,331.5c-0.3-0.3-0.7-0.3-1,0c-0.2,0.2-0.3,0.4-0.2,0.6c0,0.9,0.5,1.6,1.2,2.1c0.7,0.4,1.2,0,1.2-0.7
					C130.7,332.7,130.2,331.9,129.5,331.5z"/>
				<path class="st8" d="M126,329.4c-0.4-0.2-0.9-0.1-1.1,0.3c-0.1,0.1-0.1,0.3-0.1,0.4c0.1,0.8,0.5,1.6,1.2,2.1
					c0.7,0.3,1.2,0,1.2-0.7C127.2,330.6,126.7,329.9,126,329.4z"/>
				<path class="st8" d="M122.5,327.4c-0.6-0.4-1.2-0.1-1.2,0.7c0.1,0.8,0.5,1.5,1.2,2c0.7,0.4,1.2,0.1,1.2-0.6
					C123.7,328.6,123.2,327.9,122.5,327.4z"/>
				<g class="st3">
					<path class="st4" d="M176.8,306.1c1.6,0.9,1.7,2.5,0,3.5l-29.2,16.9c-1.9,1-4.1,1-6,0l-29.5-17c-1.6-0.9-1.6-2.5,0-3.4l29.2-17
						c1.9-1,4.2-1,6.1,0L176.8,306.1z"/>
				</g>
				<g>
					
						<linearGradient id="SVGID_2_" gradientUnits="userSpaceOnUse" x1="108.2804" y1="205.308" x2="146.2505" y2="203.168" gradientTransform="matrix(1 0 0 -1 0 508)">
						<stop  offset="0" style="stop-color:#768AAD"/>
						<stop  offset="1" style="stop-color:#C6D6E5"/>
					</linearGradient>
					<path class="st9" d="M176.8,292l-29.2,17c-1.9,0.9-4.1,0.9-6,0l-29.4-17c-0.7-0.3-1.2-1-1.3-1.8v11.5c0.1,0.7,0.5,1.4,1.2,1.7
						l29.4,17c1.9,1,4.2,1,6.1,0l29.2-17c0.7-0.3,1.1-1,1.2-1.7v-11.5C177.9,291,177.5,291.6,176.8,292z"/>
					<path class="st6" d="M176.8,288.5c1.7,0.9,1.7,2.5,0,3.5l-29.2,17c-1.9,0.9-4.1,0.9-6,0l-29.4-17c-1.7-1-1.7-2.6-0.1-3.5
						l29.3-17c1.9-1,4.1-1,6,0L176.8,288.5z"/>
				</g>
				<g>
					<path class="st7" d="M178.1,286.7v2.1c0,0.8-0.5,1.5-1.2,1.8v-2.2C177.6,288.1,178,287.4,178.1,286.7z"/>
					<path class="st7" d="M110.9,288.8v-2.1c0.1,0.8,0.6,1.4,1.3,1.7v2.2C111.5,290.3,111,289.6,110.9,288.8z"/>
					<polygon class="st7" points="176.8,288.4 176.8,290.6 147.6,307.6 147.6,305.4 					"/>
					<polygon class="st7" points="141.6,305.4 141.6,307.5 112.1,290.6 112.2,288.4 					"/>
					<path class="st7" d="M147.6,305.4v2.2c-1.9,0.9-4.1,0.9-6-0.1v-2.1C143.5,306.4,145.7,306.4,147.6,305.4z"/>
					<path class="st8" d="M176.8,285c1.7,0.9,1.7,2.5,0,3.4l-29.2,17c-1.9,1-4.1,1-6,0l-29.4-17c-1.7-0.9-1.7-2.5-0.1-3.4l29.3-17
						c1.9-1,4.1-1,6,0L176.8,285z"/>
				</g>
				<path class="st8" d="M170.6,298.7c1.4-0.9,2.6-0.2,2.6,1.5c-0.2,1.8-1.1,3.5-2.6,4.5l-16,9.2c-0.7,0.6-1.7,0.5-2.3-0.2
					c-0.3-0.4-0.4-0.8-0.3-1.3c0.1-1.8,1.1-3.5,2.6-4.5L170.6,298.7z M170.6,304c1.2-0.8,1.9-2.1,2-3.5c0-1.3-0.9-1.8-2-1.1l-16,9.2
					c-1.2,0.8-1.9,2-2,3.4c0,1.3,0.9,1.8,2,1.2L170.6,304"/>
				<path class="st8" d="M159.1,306.9c0.7-0.4,1.2,0,1.2,0.7c0,0.8-0.5,1.6-1.2,2c-0.3,0.3-0.7,0.3-1,0c-0.2-0.2-0.3-0.4-0.2-0.6
					C158,308.2,158.4,307.4,159.1,306.9z"/>
				<path class="st8" d="M162.6,304.9c0.7-0.4,1.2-0.1,1.2,0.7c0,0.8-0.5,1.6-1.2,2c-0.3,0.3-0.7,0.3-1,0c-0.2-0.2-0.3-0.4-0.2-0.6
					C161.4,306.1,161.9,305.4,162.6,304.9z"/>
				<path class="st8" d="M166.1,302.9c0.6-0.4,1.2-0.1,1.2,0.7c0,0.8-0.5,1.6-1.2,2c-0.7,0.4-1.2,0.1-1.2-0.7
					C164.9,304.1,165.4,303.3,166.1,302.9z"/>
				<path class="st8" d="M134,307.3c1.6,1,2.5,2.7,2.6,4.5c0.1,0.9-0.4,1.7-1.3,1.8c-0.5,0.1-0.9,0-1.3-0.3l-16-9.2
					c-1.5-1-2.4-2.7-2.6-4.5c0-1.7,1.2-2.4,2.6-1.5L134,307.3z M118,303.4l16,9.2c1.1,0.6,2,0.1,2-1.2c-0.1-1.4-0.8-2.6-2-3.4
					l-16-9.2c-1.1-0.7-2-0.2-2,1.1C116.1,301.3,116.8,302.6,118,303.4"/>
				<path class="st8" d="M129.5,306.3c-0.2-0.3-0.7-0.4-1-0.1c-0.3,0.2-0.3,0.5-0.2,0.8c0,0.8,0.5,1.6,1.2,2
					c0.7,0.4,1.2,0.1,1.2-0.6C130.7,307.5,130.2,306.8,129.5,306.3z"/>
				<path class="st8" d="M126,304.3c-0.6-0.4-1.2-0.1-1.2,0.7c0.1,0.8,0.5,1.5,1.2,2c0.7,0.4,1.2,0.1,1.2-0.6
					C127.2,305.5,126.7,304.8,126,304.3z"/>
				<path class="st8" d="M122.5,302.3c-0.6-0.4-1.2-0.1-1.2,0.7c0.1,0.8,0.5,1.5,1.2,2c0.7,0.4,1.2,0.1,1.2-0.7
					C123.7,303.5,123.2,302.7,122.5,302.3z"/>
				<g class="st3">
					<path class="st4" d="M176.8,280.9c1.6,1,1.7,2.6,0,3.5l-29.2,17c-1.9,1-4.1,1-6,0l-29.5-17c-1.6-0.9-1.6-2.5,0-3.5l29.2-16.9
						c1.9-1,4.2-1,6.1,0L176.8,280.9z"/>
				</g>
				<g>
					
						<linearGradient id="SVGID_3_" gradientUnits="userSpaceOnUse" x1="108.2812" y1="230.4421" x2="146.2512" y2="228.3021" gradientTransform="matrix(1 0 0 -1 0 508)">
						<stop  offset="0" style="stop-color:#768AAD"/>
						<stop  offset="1" style="stop-color:#C6D6E5"/>
					</linearGradient>
					<path class="st10" d="M176.8,266.9l-29.2,16.9c-1.9,1-4.1,1-6,0l-29.4-16.9c-0.7-0.3-1.2-1-1.3-1.8v11.4c0,0.8,0.5,1.5,1.2,1.8
						l29.4,17c1.9,0.9,4.2,0.9,6.1,0l29.2-17c0.7-0.3,1.1-1,1.2-1.7v-11.5C177.9,265.9,177.5,266.5,176.8,266.9z"/>
					<path class="st6" d="M176.8,263.4c1.7,0.9,1.7,2.5,0,3.5l-29.2,16.9c-1.9,1-4.1,1-6,0l-29.4-16.9c-1.7-1-1.7-2.6-0.1-3.5
						l29.3-17c1.9-1,4.1-1,6,0L176.8,263.4z"/>
				</g>
				<g>
					<path class="st7" d="M178.1,261.6v2.1c-0.1,0.7-0.5,1.4-1.2,1.7v-2.1C177.6,262.8,178.1,262.2,178.1,261.6z"/>
					<path class="st7" d="M110.9,263.7v-2.1c0,0.6,0.4,1.2,1.3,1.7v2.1C111.5,265.1,111,264.5,110.9,263.7z"/>
					<polygon class="st7" points="176.8,263.3 176.8,265.4 147.6,282.4 147.6,280.3 					"/>
					<polygon class="st7" points="141.6,280.3 141.6,282.4 112.1,265.4 112.2,263.3 					"/>
					<path class="st7" d="M147.6,280.3v2.1c-1.9,1-4.1,1-6,0v-2.1C143.5,281.3,145.7,281.3,147.6,280.3z"/>
					<path class="st8" d="M176.8,259.8c1.7,1,1.7,2.6,0,3.5l-29.2,17c-1.9,1-4.1,1-6,0l-29.4-17c-1.7-0.9-1.7-2.5-0.1-3.5l29.3-16.9
						c1.9-1,4.1-1,6,0L176.8,259.8z"/>
				</g>
				<path class="st8" d="M170.6,273.5c0.7-0.6,1.7-0.5,2.3,0.2c0.3,0.4,0.4,0.8,0.3,1.3c-0.1,1.8-1.1,3.5-2.6,4.5l-16,9.3
					c-0.7,0.6-1.7,0.5-2.3-0.2c-0.3-0.4-0.4-0.8-0.3-1.3c0.1-1.8,1.1-3.5,2.6-4.5L170.6,273.5z M170.6,278.8c1.2-0.8,1.9-2,2-3.4
					c0-1.3-0.9-1.8-2-1.2l-16,9.3c-1.2,0.8-1.9,2-2,3.4c0,1.3,0.9,1.8,2,1.2L170.6,278.8"/>
				<path class="st8" d="M159.1,281.8c0.7-0.4,1.2-0.1,1.2,0.7c0,0.8-0.5,1.6-1.2,2c-0.6,0.4-1.2,0.1-1.2-0.7
					C158,283,158.4,282.3,159.1,281.8z"/>
				<path class="st8" d="M162.6,279.8c0.7-0.4,1.2-0.1,1.2,0.7c0,0.8-0.5,1.6-1.2,2c-0.6,0.4-1.2,0.1-1.2-0.7
					C161.4,281,161.9,280.2,162.6,279.8z"/>
				<path class="st8" d="M166.1,277.8c0.3-0.3,0.7-0.3,1,0c0.2,0.2,0.3,0.4,0.2,0.6c0,0.9-0.5,1.6-1.2,2.1c-0.7,0.4-1.2,0.1-1.2-0.7
					C164.9,279,165.4,278.2,166.1,277.8z"/>
				<path class="st8" d="M134,282.2c1.6,1,2.5,2.7,2.6,4.5c0.1,0.9-0.4,1.7-1.3,1.8c-0.5,0.1-0.9,0-1.3-0.3l-16-9.3
					c-1.5-1-2.5-2.7-2.6-4.5c-0.1-0.9,0.4-1.7,1.3-1.8c0.5-0.1,0.9,0,1.3,0.3L134,282.2z M118,278.2l16,9.3c1.1,0.6,2,0.1,2-1.2
					c-0.1-1.4-0.8-2.6-2-3.4l-16-9.3c-1.1-0.6-2-0.1-2,1.2C116.1,276.2,116.8,277.4,118,278.2"/>
				<path class="st8" d="M129.5,281.2c-0.6-0.4-1.2-0.1-1.2,0.7c0,0.8,0.5,1.6,1.2,2c0.7,0.4,1.2,0.1,1.2-0.7
					C130.7,282.4,130.2,281.6,129.5,281.2z"/>
				<path class="st8" d="M126,279.2c-0.6-0.4-1.2-0.1-1.2,0.7c0.1,0.8,0.5,1.5,1.2,2c0.7,0.4,1.2,0.1,1.2-0.7
					C127.2,280.4,126.7,279.6,126,279.2z"/>
				<path class="st8" d="M122.5,277.2c-0.3-0.3-0.7-0.3-1,0c-0.2,0.2-0.3,0.4-0.2,0.6c0.1,0.8,0.5,1.6,1.2,2.1
					c0.7,0.4,1.2,0.1,1.2-0.7C123.7,278.4,123.2,277.6,122.5,277.2z"/>
				<g class="st11">
					<path class="st12" d="M175.5,253.6c2,1.2,2,3.1,0,4.2l-27.3,15.9c-2.3,1.2-5,1.2-7.3,0l-27.4-15.9c-2.1-1.1-2.1-3-0.1-4.2
						l27.3-15.8c2.3-1.2,5-1.2,7.3,0L175.5,253.6z"/>
				</g>
				<g class="st11">
					<path class="st12" d="M175.5,247.3c2,1.2,2,3,0,4.2l-27.3,15.9c-2.3,1.1-5,1.1-7.3,0l-27.4-15.9c-2.1-1.2-2.1-3-0.1-4.2
						l27.3-15.9c2.3-1.1,5-1.1,7.3,0L175.5,247.3z"/>
				</g>
				<g class="st11">
					<path class="st12" d="M175.5,240.4c2,1.2,2,3.1,0,4.2l-27.3,15.9c-2.3,1.2-5,1.2-7.3,0l-27.4-15.9c-2.1-1.1-2.1-3-0.1-4.2
						l27.3-15.8c2.3-1.2,5-1.2,7.3,0L175.5,240.4z"/>
				</g>
				<path class="st6" d="M145.6,251.3c-0.1,0-0.2,0-0.2-0.1l-14.5-8.3c-0.2-0.1-0.3-0.2-0.3-0.4c0-0.2,0.1-0.4,0.3-0.5l14.4-8.3h0.5
					l14.4,8.3c0.2,0.1,0.3,0.3,0.3,0.5c0,0.2-0.1,0.3-0.3,0.4l-14.3,8.3L145.6,251.3z M132.1,242.5l13.5,7.7l13.4-7.7l-13.5-7.8
					L132.1,242.5z"/>
				<path class="st6" d="M145.6,248.7h-0.2l-14.5-8.4c-0.2-0.1-0.3-0.2-0.3-0.4c0-0.2,0.1-0.4,0.3-0.5l14.4-8.3h0.5l14.4,8.3
					c0.2,0.1,0.3,0.3,0.3,0.5c0,0.2-0.1,0.3-0.3,0.4l-14.3,8.4H145.6z M132.1,239.9l13.5,7.8l13.4-7.8l-13.5-7.8L132.1,239.9z"/>
				<path class="st6" d="M145.6,246.1h-0.2l-14.5-8.4c-0.2-0.1-0.3-0.2-0.3-0.4s0.1-0.4,0.3-0.4l14.4-8.4h0.5l14.4,8.4
					c0.2,0,0.3,0.2,0.3,0.4s-0.1,0.3-0.3,0.4l-14.3,8.4H145.6z M132.1,237.3l13.5,7.8l13.4-7.8l-13.5-7.8L132.1,237.3z"/>
				
					<linearGradient id="SVGID_4_" gradientUnits="userSpaceOnUse" x1="500.6788" y1="418.4266" x2="141.9688" y2="-105.3735" gradientTransform="matrix(1 0 0 -1 0 508)">
					<stop  offset="0" style="stop-color:#FF314A"/>
					<stop  offset="0.2536" style="stop-color:#D70010"/>
					<stop  offset="0.5954" style="stop-color:#7A0110"/>
				</linearGradient>
				<path class="st13" d="M468.8,59.4l-2.3,1.3l-3.3,2v66.8l0.2,66.4c0,1.4,0,2.9-0.1,4.3v0.2c-0.1,0.5-0.2,1.1-0.2,1.6
					c0,0.2-0.1,0.4-0.1,0.7s-0.4,2.8-0.7,4.2v0.4c-0.3,1.4-0.6,2.9-1,4.4v0.2l-0.6,2v0.3l-0.6,1.8c-0.1,0.2-0.1,0.4-0.2,0.5
					s-0.5,1.4-0.7,2.1v0.2c-0.3,0.7-0.5,1.5-0.8,2.2h-0.1l-0.9,2.3l0,0c-0.4,0.7-0.7,1.4-1,2.2h-0.1c-6.7,14.3-17.5,27.3-29.7,34.4
					v6.5h0.1c23.6-13.6,42.8-46.8,42.7-74L468.8,59.4z"/>
				<path class="st14" d="M426.5,260.1l-21.1,12.2l-16,9.2v6.5l37-21.4v-6.5H426.5z"/>
				
					<linearGradient id="SVGID_5_" gradientUnits="userSpaceOnUse" x1="447.5228" y1="491.9757" x2="285.0028" y2="78.4857" gradientTransform="matrix(1 0 0 -1 0 508)">
					<stop  offset="0.1913" style="stop-color:#FF314A"/>
					<stop  offset="0.3118" style="stop-color:#D70010"/>
					<stop  offset="0.441" style="stop-color:#7A0110"/>
				</linearGradient>
				<path class="st15" d="M463.3,129.5V62.7L361,3.3l0.3,133.2c0.1,8.6-2.1,17.8-5.9,26.7c-6.6,15.5-18.1,30-31.1,37.5l65.2,37.9
					v42.9l16-9.2l21.1-12.2l0,0c12.2-7.1,23-20.1,29.7-34.4h0.1c0.3-0.8,0.6-1.5,1-2.2l0.9-2.3h0.1c0.3-0.7,0.5-1.5,0.8-2.2v-0.2
					c0.2-0.7,0.5-1.4,0.7-2.1s0.1-0.3,0.2-0.5l0.6-1.8v-0.3l0.6-2v-0.2c0.4-1.5,0.7-3,1-4.4v-0.4c0.3-1.4,0.5-2.8,0.7-4.2
					s0.1-0.5,0.1-0.7c0-0.5,0.1-1.1,0.2-1.6v-0.2c0.1-1.4,0.1-2.9,0.1-4.3L463.3,129.5z"/>
				<polygon class="st16" points="295.9,235.2 288.8,239.3 356.3,278.2 356.3,270.1 				"/>
				<polygon class="st8" points="289.3,94.8 296.3,90.7 295.9,235.2 288.8,239.3 				"/>
				<path class="st17" d="M268.1,58.3l7.1-4.1c1.8-1.1,4.4-1,7.2,0.7l-7.1,4.1C272.5,57.3,270,57.2,268.1,58.3z"/>
				<polygon class="st17" points="282.4,54.9 275.3,59 356.3,105.7 356.3,97.5 				"/>
				<path class="st18" d="M288.8,239.3l0.5-144.5l67,38.7v-27.8l-81-46.7c-5.6-3.3-10.1-0.7-10.1,5.7l-0.5,176.8
					c0,6.4,4.5,14.2,10.1,17.4l81.5,47.1v-27.8L288.8,239.3z"/>
				<polygon class="st19" points="282.9,243.6 275.8,247.7 343.3,286.7 343.3,278.5 				"/>
				<polygon class="st20" points="276.2,103.2 283.3,99.1 282.9,243.6 275.8,247.7 				"/>
				<path class="st17" d="M255.1,66.7l7.1-4.1c1.8-1.1,4.3-0.9,7.2,0.7l-7.1,4.1C259.5,65.8,256.9,65.6,255.1,66.7z"/>
				<polygon class="st17" points="269.4,63.3 262.3,67.4 343.3,114.1 343.3,106 				"/>
				<path class="st18" d="M275.8,247.7l0.4-144.5l67.1,38.7v-27.8l-81-46.7c-5.6-3.2-10.1-0.7-10.1,5.8l-0.5,176.7
					c-0.1,6.4,4.5,14.2,10,17.5l81.6,47v-27.7L275.8,247.7z"/>
				<polygon class="st16" points="270.5,250.8 263.5,254.9 330.9,293.8 330.9,285.7 				"/>
				<polygon class="st8" points="263.9,110.4 270.9,106.3 270.5,250.8 263.5,254.9 				"/>
				<path class="st17" d="M242.8,73.9l7-4.1c1.8-1.1,4.4-1,7.2,0.7l-7,4.1C247.2,72.9,244.6,72.8,242.8,73.9z"/>
				<polygon class="st17" points="257,70.5 250,74.6 330.9,121.3 330.9,113.1 				"/>
				<path class="st18" d="M263.5,254.9l0.4-144.5l67,38.7v-27.8L250,74.6c-5.6-3.3-10.2-0.7-10.2,5.7l-0.5,176.8
					c0,6.4,4.5,14.2,10.1,17.4l81.5,47.1v-27.8L263.5,254.9z"/>
				<polygon class="st16" points="421.7,307.8 356.3,270.1 356.3,278.2 414.6,311.9 				"/>
				<path class="st17" d="M442.8,344.3l-7,4.1c1.8-1,2.9-3.3,2.9-6.5l7.1-4.1C445.8,341,444.6,343.3,442.8,344.3z"/>
				<polygon class="st17" points="439.2,165.2 439,244.9 438.7,341.9 445.8,337.8 446,244.9 446.3,161.1 				"/>
				<path class="st18" d="M429.1,147.7l-72.8-42v27.8l58.7,33.9l-0.2,77.5l-0.2,67l-58.3-33.7V306l72.3,41.7
					c5.5,3.2,10.1,0.7,10.1-5.8l0.3-97l0.2-79.7C439.2,158.8,434.7,151,429.1,147.7z"/>
				<polygon class="st21" points="408.7,316.2 343.3,278.5 343.3,286.7 401.6,320.3 				"/>
				<path class="st17" d="M429.8,352.8l-7.1,4c1.8-1,3-3.3,3-6.4l7-4.1C432.7,349.4,431.6,351.7,429.8,352.8z"/>
				<polygon class="st17" points="426.2,173.6 426,244.9 425.7,350.4 432.7,346.3 433,244.9 433.2,169.5 				"/>
				<path class="st18" d="M416.1,156.2l-72.8-42.1v27.8l58.7,33.9l-0.2,69.1l-0.2,75.4l-58.3-33.6v27.7l72.2,41.7
					c5.6,3.3,10.2,0.7,10.2-5.7l0.3-105.5l0.2-71.3C426.2,167.2,421.7,159.4,416.1,156.2z"/>
				<polygon class="st21" points="396.3,323.4 330.9,285.7 330.9,293.8 389.3,327.5 				"/>
				<path class="st17" d="M417.4,359.9l-7,4.1c1.8-1,2.9-3.3,2.9-6.5l7.1-4.1C420.4,356.6,419.3,358.9,417.4,359.9z"/>
				<polygon class="st17" points="413.8,180.8 413.7,244.9 413.3,357.5 420.4,353.4 420.7,244.9 420.9,176.7 				"/>
				<path class="st18" d="M403.7,163.3l-72.8-42v27.8l58.8,33.9l-0.2,61.9l-0.2,82.6l-58.4-33.7v27.8l72.3,41.7
					c5.6,3.2,10.1,0.7,10.1-5.8l0.4-112.6v-64.1C413.9,174.4,409.3,166.6,403.7,163.3z"/>
				<polygon class="st22" points="463.3,129.5 463.2,62.7 463.2,62.7 				"/>
				<path class="st22" d="M315.7,382.2c1.4-2.1,2.8-4.3,4.1-6.6l34.3-59.3l-34.3,59.3C318.5,377.9,317.1,380.1,315.7,382.2z"/>
				<path class="st22" d="M460.7,213.9L460.7,213.9z"/>
				<path class="st22" d="M460.1,216c-0.1,0.2-0.1,0.4-0.2,0.5S460,216.2,460.1,216z"/>
				<path class="st22" d="M458.3,221L458.3,221z"/>
				<path class="st22" d="M461.4,211.7L461.4,211.7z"/>
				<path class="st22" d="M459.2,218.6L459.2,218.6z"/>
				<path class="st22" d="M456.3,225.6L456.3,225.6z"/>
				<path class="st22" d="M463.4,200.2L463.4,200.2z"/>
				<path class="st22" d="M463.2,202c0,0.2-0.1,0.4-0.1,0.7S463.2,202.2,463.2,202z"/>
				<path class="st22" d="M457.3,223.4"/>
				<path class="st22" d="M462.4,206.9L462.4,206.9z"/>
				<path class="st14" d="M457.3,223.4c-0.4,0.7-0.7,1.4-1,2.2C456.6,224.8,456.9,224.1,457.3,223.4z"/>
				<path class="st14" d="M463.5,195.9c0,1.4,0,2.9-0.1,4.3C463.5,198.8,463.5,197.3,463.5,195.9z"/>
				<path class="st14" d="M458.2,221.1l-0.9,2.3L458.2,221.1z"/>
				<path class="st14" d="M461.3,211.9l-0.6,2L461.3,211.9z"/>
				<path class="st14" d="M463.1,202.7c-0.2,1.4-0.4,2.8-0.7,4.2C462.7,205.5,462.9,204.1,463.1,202.7z"/>
				<path class="st14" d="M463.4,200.4c-0.1,0.5-0.2,1.1-0.2,1.6C463.2,201.5,463.3,200.9,463.4,200.4z"/>
				<path class="st14" d="M462.4,207.3c-0.3,1.4-0.6,2.9-1,4.4C461.8,210.2,462.1,208.7,462.4,207.3z"/>
				<path class="st14" d="M459.9,216.5c-0.2,0.7-0.5,1.4-0.7,2.1S459.7,217.2,459.9,216.5z"/>
				<path class="st14" d="M460.7,214.2l-0.6,1.8L460.7,214.2z"/>
				<path class="st14" d="M459.1,218.8c-0.3,0.7-0.5,1.5-0.8,2.2S458.8,219.5,459.1,218.8z"/>
				<polygon class="st14" points="463.5,195.9 463.3,129.5 463.5,195.9 				"/>
				
					<linearGradient id="SVGID_6_" gradientUnits="userSpaceOnUse" x1="506.1047" y1="439.757" x2="157.7548" y2="580.6671" gradientTransform="matrix(1 0 0 -1 0 508)">
					<stop  offset="0" style="stop-color:#FF314A"/>
					<stop  offset="0.2436" style="stop-color:#D70010"/>
					<stop  offset="1" style="stop-color:#7A0110"/>
				</linearGradient>
				<polygon class="st23" points="463.2,62.7 463.2,62.7 466.5,60.7 468.8,59.4 366.6,0 361,3.3 463.2,62.7 				"/>
				<polygon class="st14" points="463.2,62.7 466.5,60.7 463.2,62.7 				"/>
				<path class="st14" d="M426.5,260.1"/>
				<path class="st14" d="M355.6,313.7l2.7-4.1l0,0L355.6,313.7z"/>
				<path class="st14" d="M382.2,285.7c-1.5,0.9-2.9,1.9-4.2,2.9C379.3,287.6,380.7,286.6,382.2,285.7z"/>
				<path class="st14" d="M373.8,291.9l-3.9,3.7L373.8,291.9z"/>
				<path class="st14" d="M384.3,284.4l-2.1,1.3L384.3,284.4l5.1-2.9l0,0L384.3,284.4z"/>
				
					<linearGradient id="SVGID_7_" gradientUnits="userSpaceOnUse" x1="511.8845" y1="410.7569" x2="153.1645" y2="-113.0431" gradientTransform="matrix(1 0 0 -1 0 508)">
					<stop  offset="0.2975" style="stop-color:#D70010"/>
					<stop  offset="1" style="stop-color:#7A0110"/>
				</linearGradient>
				<path class="st24" d="M384.3,284.4l-2.1,1.3c-1.5,0.9-2.9,1.9-4.2,2.9l-4.2,3.3l-3.9,3.7l-2,2c-1.9,2.1-3.8,4.2-5.6,6.5
					s-2.3,3.1-3.4,4.7l-0.6,0.8l4,2.4c6.4-9.1,14-16.4,22-21l5.1-3v-6.5L384.3,284.4z"/>
				<path class="st14" d="M367.9,297.6c-1.9,2.1-3.8,4.2-5.6,6.5C364.1,301.8,366,299.7,367.9,297.6z"/>
				<path class="st14" d="M362.3,304.1c-1.2,1.5-2.3,3.1-3.4,4.7C360,307.2,361.1,305.6,362.3,304.1z"/>
				<path class="st14" d="M358.3,309.6l0.6-0.8L358.3,309.6z"/>
				<polygon class="st17" points="436.2,143.7 356.3,97.5 356.3,105.7 429.1,147.7 				"/>
				<path class="st17" d="M429.1,147.7l7.1-4c5.6,3.2,10.1,11,10.1,17.4l-7.1,4.1C439.2,158.8,434.7,151,429.1,147.7z"/>
				<polygon class="st17" points="423.1,152.1 343.3,106 343.3,114.1 416.1,156.2 				"/>
				<path class="st17" d="M416.1,156.2l7-4.1c5.6,3.2,10.2,11,10.1,17.4l-7,4.1C426.2,167.2,421.7,159.4,416.1,156.2z"/>
				<polygon class="st17" points="410.8,159.3 330.9,113.1 330.9,121.3 403.8,163.3 				"/>
				<path class="st17" d="M403.8,163.3l7-4c5.6,3.2,10.1,11,10.1,17.4l-7.1,4.1C413.9,174.4,409.3,166.6,403.8,163.3z"/>
				<polygon class="st1" points="254.6,88.9 254.5,96.1 248.3,92.5 248.4,85.4 				"/>
				<polygon class="st1" points="400.7,173.3 400.7,180.5 394.5,176.9 394.5,169.8 				"/>
				<polygon class="st1" points="284.9,106.5 284.9,113.6 263.1,101 263.1,93.9 				"/>
				<polygon class="st1" points="311.7,121.9 311.7,129.1 289.9,116.5 290,109.4 				"/>
				<polygon class="st1" points="331.6,133.4 331.6,140.5 325.1,136.8 325.2,129.7 				"/>
				<polygon class="st1" points="341.8,139.3 341.8,146.4 335.4,142.7 335.4,135.6 				"/>
				<polygon class="st25" points="400.3,344.7 400.2,351.8 394,348.3 394.1,341.1 				"/>
				<polygon class="st14" points="254.1,260.3 254.1,267.5 247.9,263.9 247.9,256.7 				"/>
				<polygon class="st25" points="385.5,336.2 385.5,343.3 363.7,330.7 363.7,323.6 				"/>
				<polygon class="st25" points="358.7,320.7 358.6,327.8 336.9,315.3 336.9,308.1 				"/>
				<polygon class="st14" points="323.5,300.4 323.4,307.5 317,303.8 317,296.7 				"/>
				<polygon class="st14" points="313.2,294.5 313.2,301.6 306.8,297.9 306.8,290.8 				"/>
				
					<linearGradient id="SVGID_8_" gradientUnits="userSpaceOnUse" x1="501.9563" y1="417.552" x2="143.2463" y2="-106.248" gradientTransform="matrix(1 0 0 -1 0 508)">
					<stop  offset="0.2058" style="stop-color:#7A0110"/>
					<stop  offset="0.4672" style="stop-color:#D70010"/>
					<stop  offset="0.7203" style="stop-color:#FF314A"/>
				</linearGradient>
				<path class="st26" d="M355.6,313.7l-1.5,2.6l-34.3,59.3c-1.3,2.3-2.7,4.5-4.1,6.6s-3,4.1-4.6,6l-3.3,3.6
					c-1.1,1.2-2.2,2.3-3.4,3.4c-1.7,1.6-3.4,3-5.3,4.4c-1.7,1.4-3.6,2.6-5.5,3.7l-41.5,24v6.5l41.5-24c11.5-6.6,22.2-17.9,30.3-31.9
					l34.2-59.3c1.3-2.3,2.7-4.5,4.2-6.6l-4-2.4L355.6,313.7z"/>
				
					<linearGradient id="SVGID_9_" gradientUnits="userSpaceOnUse" x1="398.5341" y1="511.2245" x2="236.0241" y2="97.7444" gradientTransform="matrix(1 0 0 -1 0 508)">
					<stop  offset="0.4292" style="stop-color:#7A0110"/>
					<stop  offset="0.7414" style="stop-color:#D70010"/>
					<stop  offset="0.9257" style="stop-color:#FF314A"/>
				</linearGradient>
				<path class="st27" d="M324.3,200.7L282.1,225c-7,4.2-13.3,9.5-18.6,15.7c-4.4,5-8.3,10.4-11.6,16.2l-34.3,59.3
					c-7,12.1-16.3,22-26.2,27.7l-41.5,24l102.2,59.4l41.5-24c1.9-1.1,3.8-2.3,5.5-3.7c1.9-1.4,3.6-2.8,5.3-4.4
					c1.2-1.1,2.3-2.2,3.4-3.4l3.3-3.6c1.6-1.9,3.1-3.9,4.6-6s2.8-4.3,4.1-6.6l34.3-59.3l1.5-2.6l2.7-4.1l0.6-0.8
					c1.1-1.6,2.2-3.2,3.4-4.7s3.7-4.4,5.6-6.5l2-2l3.9-3.7l4.2-3.3c1.3-1,2.7-2,4.2-2.9l2.1-1.3l5.1-2.9v-42.9L324.3,200.7z"/>
				<polygon class="st6" points="442.3,73.8 442.3,77.7 445.7,79.7 445.7,75.8 				"/>
				<path class="st6" d="M440,69.1l8,4.6l0.5,0.5c0.1,0.2,0.2,0.5,0.2,0.7V84c0,0.2-0.1,0.4-0.2,0.5c-0.2,0.1-0.3,0-0.5-0.1l-8-4.6
					l-0.5-0.5c-0.1-0.2-0.2-0.5-0.2-0.7v-9.1c0-0.2,0.1-0.4,0.2-0.5C439.7,68.9,439.8,69,440,69.1z M440.7,78.6l6.6,3.9v-7.6
					l-6.6-3.9V78.6"/>
				<path class="st6" d="M439.9,97.8l8,4.7c0.2,0.1,0.4,0.3,0.5,0.5c0.1,0.2,0.2,0.4,0.2,0.6v9.2c0,0.2-0.1,0.4-0.2,0.5h-0.5l-8-4.6
					l-0.5-0.5c-0.1-0.2-0.2-0.5-0.2-0.7v-9.3c0-0.2,0-0.3,0.2-0.4L439.9,97.8z M440.6,107.4l6.6,3.9v-7.7l-6.6-3.8V107.4"/>
				<polygon class="st6" points="442.2,102.5 442.2,106.5 445.6,108.5 445.6,104.5 				"/>
				<polygon class="st6" points="429.9,66.6 429.9,70.6 433.4,72.6 433.4,68.6 				"/>
				<path class="st6" d="M427.7,61.9l8,4.7c0.2,0.1,0.3,0.3,0.4,0.5c0.2,0.2,0.2,0.4,0.2,0.6v9.2c0,0.2-0.1,0.4-0.2,0.5h-0.5l-8-4.6
					l-0.4-0.5c-0.2-0.2-0.2-0.4-0.2-0.7v-9.3c0-0.2,0.1-0.3,0.2-0.4C427.3,61.8,427.6,61.8,427.7,61.9z M428.3,71.5l6.7,3.8v-7.6
					l-6.7-3.8V71.5"/>
				<path class="st6" d="M427.6,76.2l8,4.6c0.2,0.1,0.4,0.3,0.5,0.6c0.1,0.2,0.2,0.4,0.2,0.6v9.2c0,0.2-0.1,0.4-0.2,0.4
					c-0.2,0.1-0.3,0.1-0.5,0l-8-4.6c-0.2-0.1-0.4-0.3-0.5-0.5c-0.1-0.2-0.2-0.5-0.2-0.7v-9.2c0-0.2,0.1-0.3,0.2-0.4
					C427.2,76.1,427.5,76.1,427.6,76.2z M428.3,85.8l6.6,3.8V82l-6.6-3.8V85.8"/>
				<polygon class="st6" points="429.9,80.9 429.9,84.9 433.3,86.9 433.3,82.9 				"/>
				<path class="st6" d="M406.9,50l8,4.6c0.2,0.1,0.4,0.3,0.5,0.5c0.1,0.2,0.2,0.5,0.2,0.7v9.1c0,0.2-0.1,0.4-0.2,0.5
					c-0.1,0.1-0.3,0-0.5-0.1l-8-4.6l-0.5-0.5c-0.1-0.2-0.2-0.5-0.2-0.7v-9.1c0-0.2,0-0.4,0.2-0.5S406.8,49.9,406.9,50z M407.6,59.5
					l6.6,3.9v-7.6l-6.6-3.9V59.5"/>
				<polygon class="st6" points="409.2,54.7 409.2,58.6 412.6,60.6 412.7,56.7 				"/>
				<polygon class="st6" points="409.1,97.1 409.1,101 412.5,103 412.5,99.1 				"/>
				<path class="st6" d="M406.8,92.4l8,4.6l0.5,0.5c0.1,0.2,0.2,0.5,0.2,0.7v9.2c0,0.2-0.1,0.3-0.2,0.4c-0.2,0.1-0.3,0.1-0.5-0.1
					l-8-4.6c-0.2-0.1-0.4-0.3-0.5-0.5c-0.1-0.2-0.2-0.4-0.2-0.6v-9.2c0-0.2,0.1-0.4,0.2-0.5L406.8,92.4z M407.5,102l6.6,3.8v-7.6
					l-6.6-3.9V102"/>
				<path class="st6" d="M406.9,78.7l8,4.7c0.2,0.1,0.3,0.3,0.4,0.5c0.2,0.2,0.2,0.4,0.2,0.6v9.2c0,0.2-0.1,0.4-0.2,0.5h-0.5l-8-4.6
					l-0.5-0.5c-0.1-0.2-0.2-0.5-0.2-0.7v-9.3c0-0.2,0-0.3,0.2-0.4C406.4,78.5,406.7,78.5,406.9,78.7
					C406.9,78.7,406.9,78.7,406.9,78.7z M407.5,88.3l6.6,3.9v-7.7l-6.7-3.8v7.6"/>
				<polygon class="st6" points="409.1,83.5 409.1,87.4 412.6,89.4 412.6,85.4 				"/>
				<path class="st6" d="M394.6,42.8l8,4.7l0.5,0.5c0.1,0.2,0.2,0.4,0.2,0.6v9.2c0,0.2,0,0.4-0.2,0.5h-0.4l-8-4.6
					c-0.2-0.1-0.4-0.3-0.5-0.5c-0.1-0.2-0.2-0.5-0.2-0.7v-9.3c0-0.2,0.1-0.3,0.2-0.4H394.6z M395.3,52.4l6.6,3.8v-7.6l-6.6-3.8V52.4
					"/>
				<polygon class="st6" points="396.9,47.5 396.8,51.5 400.3,53.5 400.3,49.5 				"/>
				<polygon class="st6" points="378.8,37.1 378.8,41.1 382.2,43.1 382.2,39.1 				"/>
				<path class="st6" d="M376.5,32.4l8,4.6l0.5,0.5c0.1,0.2,0.2,0.5,0.2,0.7v9.2c0,0.2-0.1,0.3-0.2,0.4c-0.2,0.1-0.3,0.1-0.5,0
					l-8-4.6c-0.2-0.1-0.4-0.3-0.5-0.6c-0.1-0.2-0.2-0.4-0.2-0.6v-9.2c0-0.2,0.1-0.4,0.2-0.4C376.2,32.3,376.3,32.3,376.5,32.4z
					 M377.2,42l6.6,3.8v-7.6l-6.6-3.8V42"/>
				<polygon class="st6" points="396.8,61.8 396.8,65.8 400.3,67.8 400.3,63.8 				"/>
				<path class="st6" d="M394.6,57.1l7.9,4.6c0.2,0.1,0.4,0.3,0.5,0.6c0.2,0.2,0.2,0.4,0.2,0.6v9.2c0,0.2-0.1,0.4-0.2,0.4h-0.5
					l-8-4.6l-0.5-0.5c-0.1-0.2-0.2-0.5-0.2-0.7v-9.2c0-0.2,0-0.3,0.2-0.4C394.1,56.9,394.4,56.9,394.6,57.1
					C394.6,57.1,394.6,57.1,394.6,57.1z M395.2,66.7l6.6,3.8v-7.6l-6.7-3.8v7.6"/>
				<polygon class="st6" points="396.7,90 396.7,93.9 400.2,95.9 400.2,91.9 				"/>
				<path class="st6" d="M394.5,85.2l8,4.7l0.4,0.5c0.2,0.2,0.2,0.4,0.2,0.6v9.2c0,0.2-0.1,0.4-0.2,0.5h-0.5l-8-4.6l-0.4-0.5
					c-0.2-0.2-0.2-0.4-0.2-0.7v-9.3c0-0.2,0.1-0.3,0.2-0.4C394.1,85.1,394.4,85.1,394.5,85.2z M395.1,94.8l6.7,3.9V91l-6.6-3.8v7.6"
					/>
				<polygon class="st6" points="378.7,51.4 378.7,55.4 382.2,57.4 382.2,53.4 				"/>
				<path class="st6" d="M376.5,46.7l8,4.6l0.4,0.5c0.2,0.2,0.2,0.4,0.2,0.7v9.2c0,0.2-0.1,0.3-0.2,0.4c-0.1,0.1-0.4,0.1-0.5,0
					l-8-4.7c-0.2-0.1-0.3-0.3-0.4-0.5c-0.2-0.2-0.2-0.4-0.2-0.6v-9.2c0-0.2,0.1-0.4,0.2-0.5L376.5,46.7z M377.1,56.3l6.7,3.8v-7.6
					l-6.6-3.9v7.7"/>
				<path class="st6" d="M230.7,354.9c0.6,0.3,0.6,0.9,0,1.3c-0.7,0.3-1.6,0.3-2.3,0l-13.8-8c-0.6-0.4-0.6-1,0-1.3
					c0.7-0.4,1.6-0.4,2.3,0L230.7,354.9z"/>
				<path class="st6" d="M243,367.7c0.7,0.4,0.7,1,0,1.3c-0.7,0.4-1.5,0.4-2.2,0l-10.6-6c-0.4-0.2-0.5-0.7-0.3-1.1
					c0.1-0.1,0.2-0.2,0.3-0.3c0.7-0.3,1.6-0.3,2.3,0L243,367.7z"/>
				<path class="st6" d="M249.1,365.5c0.6,0.3,0.6,0.9,0,1.3c-0.7,0.3-1.6,0.3-2.3,0l-5.4-3.2c-0.7-0.3-0.7-0.9,0-1.3
					c0.7-0.3,1.5-0.3,2.2,0L249.1,365.5z"/>
				<path class="st6" d="M239.4,359.9c0.6,0.4,0.6,0.9,0,1.3c-0.7,0.4-1.5,0.4-2.2,0l-3.9-2.2c-0.7-0.4-0.7-1-0.1-1.4
					c0.7-0.3,1.6-0.3,2.3,0L239.4,359.9z"/>
				<path class="st6" d="M249.4,398c0.6,0.3,0.6,0.9,0,1.3c-0.7,0.3-1.5,0.3-2.2,0l-14.4-8.3c-0.6-0.4-0.6-1,0-1.3
					c0.7-0.4,1.6-0.4,2.3,0L249.4,398z"/>
				<path class="st6" d="M246.7,390.7c0.7,0.3,0.7,0.9,0,1.3c-0.7,0.3-1.5,0.3-2.2,0l-12.2-7c-0.6-0.4-0.6-1,0-1.3
					c0.7-0.4,1.6-0.4,2.3,0L246.7,390.7z"/>
				<path class="st6" d="M255.6,384.5c0.6,0.3,0.6,0.9,0,1.3c-0.7,0.3-1.6,0.3-2.3,0l-6.4-3.7c-0.6-0.4-0.6-1,0-1.3
					c0.7-0.4,1.6-0.4,2.3,0L255.6,384.5z"/>
				<path class="st6" d="M272.3,384.6c0.7,0.4,0.7,1,0,1.4c-0.7,0.3-1.5,0.3-2.2,0l-14.4-8.3c-0.6-0.4-0.6-1,0-1.3
					c0.7-0.4,1.6-0.4,2.3,0L272.3,384.6z"/>
				<path class="st6" d="M269.7,377.3c0.4,0.2,0.5,0.7,0.3,1.1c-0.1,0.1-0.2,0.2-0.3,0.3c-0.7,0.3-1.6,0.3-2.3,0l-12.2-7.1
					c-0.6-0.3-0.6-0.9,0-1.3c0.7-0.3,1.6-0.3,2.3,0L269.7,377.3z"/>
				<path class="st6" d="M252.5,373.2c0.7,0.4,0.7,1,0,1.3c-0.7,0.4-1.5,0.4-2.2,0l-4.2-2.4c-0.7-0.4-0.7-1,0-1.3
					c0.7-0.4,1.5-0.4,2.2,0L252.5,373.2z"/>
				<path class="st6" d="M267.6,391.4c0.6,0.4,0.6,0.9,0,1.3c-0.7,0.4-1.6,0.4-2.3,0l-6.5-3.8c-0.7-0.3-0.7-0.9-0.1-1.3
					c0.7-0.4,1.6-0.4,2.3,0L267.6,391.4z"/>
				<path class="st6" d="M207.8,368.2c0.6,0.3,0.6,0.9,0,1.3c-0.7,0.3-1.6,0.3-2.3,0l-13.8-8c-0.6-0.3-0.6-0.9,0-1.3
					c0.7-0.4,1.6-0.4,2.3,0L207.8,368.2z"/>
				<path class="st6" d="M220.1,381c0.4,0.2,0.5,0.7,0.3,1.1c-0.1,0.1-0.2,0.2-0.3,0.3c-0.7,0.3-1.5,0.3-2.2,0l-10.6-6.1
					c-0.6-0.4-0.6-1,0-1.3c0.7-0.4,1.6-0.4,2.3,0L220.1,381z"/>
				<path class="st6" d="M226.2,378.8c0.6,0.4,0.6,0.9,0,1.3c-0.7,0.4-1.6,0.4-2.3,0l-5.5-3.1c-0.4-0.2-0.5-0.7-0.3-1.1
					c0.1-0.1,0.2-0.2,0.3-0.3c0.7-0.3,1.6-0.3,2.3,0L226.2,378.8z"/>
				<path class="st6" d="M216.5,373.2c0.6,0.4,0.6,1,0,1.3c-0.7,0.4-1.6,0.4-2.3,0l-3.9-2.2c-0.6-0.4-0.6-1,0-1.3
					c0.7-0.4,1.6-0.4,2.3,0L216.5,373.2z"/>
				<path class="st6" d="M229.6,386.5c0.6,0.4,0.6,1,0,1.3c-0.7,0.4-1.5,0.4-2.2,0l-4.2-2.4c-0.7-0.4-0.7-0.9-0.1-1.3
					c0.7-0.4,1.6-0.4,2.3,0L229.6,386.5z"/>
				<path class="st6" d="M232.6,397.8c0.7,0.3,0.7,0.9,0,1.3c-0.7,0.4-1.5,0.4-2.2,0l-6.4-3.7c-0.6-0.4-0.6-0.9,0-1.3
					c0.7-0.4,1.5-0.4,2.2,0L232.6,397.8z"/>
				<path class="st6" d="M244.6,404.7c0.7,0.4,0.7,1,0,1.3c-0.7,0.4-1.5,0.4-2.2,0l-6.6-3.8c-0.6-0.3-0.6-0.9,0-1.3
					c0.7-0.3,1.6-0.3,2.3,0L244.6,404.7z"/>
				<path class="st6" d="M330.3,230.2c0.6,0.3,0.6,0.9,0,1.3c-0.7,0.4-1.6,0.4-2.3,0l-13.8-8c-0.6-0.3-0.6-0.9,0-1.3
					c0.7-0.3,1.6-0.3,2.3,0L330.3,230.2z"/>
				<path class="st6" d="M342.6,243.1c0.6,0.3,0.6,0.9,0,1.3c-0.7,0.3-1.5,0.3-2.2,0l-10.6-6.1c-0.6-0.4-0.6-1,0-1.3
					c0.7-0.4,1.6-0.4,2.3,0L342.6,243.1z"/>
				<path class="st6" d="M348.7,240.8c0.6,0.4,0.6,1,0,1.3c-0.7,0.4-1.6,0.4-2.3,0l-5.5-3.1c-0.6-0.4-0.6-1,0-1.3
					c0.7-0.4,1.6-0.4,2.3,0L348.7,240.8z"/>
				<path class="st6" d="M339,235.2c0.6,0.4,0.6,1,0,1.3c-0.7,0.4-1.6,0.4-2.3,0l-3.9-2.2c-0.6-0.4-0.6-1,0-1.3
					c0.7-0.4,1.6-0.4,2.3,0L339,235.2z"/>
				<path class="st6" d="M349,273.3c0.6,0.3,0.6,0.9,0,1.3c-0.7,0.4-1.6,0.4-2.3,0l-14.3-8.3c-0.6-0.3-0.6-0.9,0-1.3
					c0.7-0.4,1.6-0.4,2.3,0L349,273.3z"/>
				<path class="st6" d="M346.3,266c0.6,0.4,0.6,1,0,1.3c-0.7,0.4-1.5,0.4-2.2,0l-12.2-7c-0.6-0.4-0.6-1,0-1.3
					c0.7-0.4,1.6-0.4,2.3,0L346.3,266z"/>
				<path class="st6" d="M355.1,259.8c0.7,0.4,0.7,0.9,0,1.3c-0.7,0.4-1.5,0.4-2.2,0l-6.4-3.7c-0.6-0.3-0.6-0.9,0-1.3
					c0.7-0.4,1.5-0.4,2.2,0L355.1,259.8z"/>
				<path class="st6" d="M371.9,260c0.6,0.3,0.6,0.9,0,1.3c-0.7,0.3-1.5,0.3-2.2,0l-14.4-8.3c-0.6-0.4-0.6-0.9,0-1.3
					c0.7-0.4,1.6-0.4,2.3,0L371.9,260z"/>
				<path class="st6" d="M369.2,252.7c0.7,0.3,0.7,0.9,0,1.3c-0.7,0.4-1.5,0.4-2.2,0l-12.2-7c-0.6-0.4-0.6-1,0-1.3
					c0.7-0.4,1.6-0.4,2.3,0L369.2,252.7z"/>
				<path class="st6" d="M352.1,248.5c0.7,0.4,0.6,1,0,1.4c-0.7,0.3-1.5,0.3-2.2,0l-4.2-2.5c-0.7-0.3-0.7-0.9-0.1-1.3
					c0.7-0.4,1.6-0.4,2.3,0L352.1,248.5z"/>
				<path class="st6" d="M367.1,266.7c0.7,0.4,0.7,1,0,1.3c-0.7,0.4-1.5,0.4-2.2,0l-6.6-3.7c-0.4-0.2-0.5-0.7-0.3-1.1
					c0.1-0.1,0.2-0.2,0.3-0.3c0.7-0.3,1.6-0.3,2.3,0L367.1,266.7z"/>
				<path class="st6" d="M307.3,243.5c0.7,0.4,0.7,1,0.1,1.3c-0.7,0.4-1.6,0.4-2.3,0l-13.8-7.9c-0.4-0.2-0.5-0.7-0.3-1.1
					c0.1-0.1,0.2-0.2,0.3-0.3c0.7-0.3,1.6-0.3,2.3,0L307.3,243.5z"/>
				<path class="st6" d="M319.7,256.4c0.6,0.3,0.6,0.9,0,1.3c-0.7,0.3-1.6,0.3-2.3,0l-10.5-6.1c-0.6-0.4-0.6-0.9,0-1.3
					c0.7-0.4,1.6-0.4,2.3,0L319.7,256.4z"/>
				<path class="st6" d="M325.7,254.1c0.7,0.4,0.7,1,0,1.3c-0.7,0.4-1.5,0.4-2.2,0l-5.5-3.1c-0.6-0.4-0.6-1,0-1.3
					c0.7-0.4,1.6-0.4,2.3,0L325.7,254.1z"/>
				<path class="st6" d="M316.1,248.5c0.4,0.2,0.5,0.7,0.3,1.1c-0.1,0.1-0.2,0.2-0.3,0.3c-0.7,0.3-1.6,0.3-2.3,0l-3.9-2.3
					c-0.6-0.4-0.6-0.9,0-1.3c0.7-0.4,1.6-0.4,2.3,0L316.1,248.5z"/>
				<path class="st6" d="M329.2,261.9c0.6,0.3,0.6,0.9,0,1.3c-0.7,0.3-1.6,0.3-2.3,0l-4.2-2.5c-0.6-0.3-0.6-0.9,0-1.3
					c0.7-0.3,1.6-0.3,2.3,0L329.2,261.9z"/>
				<path class="st6" d="M332.2,273.1c0.6,0.4,0.6,1,0,1.3c-0.7,0.4-1.5,0.4-2.2,0l-6.4-3.7c-0.7-0.3-0.7-0.9,0-1.3
					c0.7-0.3,1.5-0.3,2.2,0L332.2,273.1z"/>
				<path class="st6" d="M344.2,280c0.6,0.4,0.6,1,0,1.3c-0.7,0.4-1.5,0.4-2.2,0.1l-6.6-3.8c-0.6-0.4-0.6-1,0-1.3
					c0.7-0.4,1.6-0.4,2.3,0L344.2,280z"/>
				
					<linearGradient id="SVGID_10_" gradientUnits="userSpaceOnUse" x1="360.4492" y1="360.405" x2="291.5292" y2="233.375" gradientTransform="matrix(1 0 0 -1 0 508)">
					<stop  offset="0" style="stop-color:#FF2E51"/>
					<stop  offset="0.249" style="stop-color:#D70010"/>
					<stop  offset="1" style="stop-color:#960019"/>
				</linearGradient>
				<polygon class="st28" points="263.9,110.4 263.5,240.7 389.5,309.2 389.7,183 				"/>
				
					<linearGradient id="SVGID_11_" gradientUnits="userSpaceOnUse" x1="354.0416" y1="356.3" x2="285.1316" y2="229.27" gradientTransform="matrix(1 0 0 -1 0 508)">
					<stop  offset="0.2161" style="stop-color:#FF2E51"/>
					<stop  offset="0.6388" style="stop-color:#D70010"/>
					<stop  offset="1" style="stop-color:#960019"/>
				</linearGradient>
				<polygon class="st29" points="257.5,114.5 257.1,244.8 383.1,313.3 383.3,187.1 				"/>
				
					<linearGradient id="SVGID_12_" gradientUnits="userSpaceOnUse" x1="347.5764" y1="352.6219" x2="278.6664" y2="225.5919" gradientTransform="matrix(1 0 0 -1 0 508)">
					<stop  offset="0" style="stop-color:#FF2E51"/>
					<stop  offset="1" style="stop-color:#960019"/>
				</linearGradient>
				<polygon class="st30" points="251,118.1 250.7,248.4 376.7,317 376.8,190.8 				"/>
				<g class="st31">
					<g>
						<polygon class="st32" points="283.6,214.8 298.3,206.3 305,225.4 290.2,233.9 						"/>
						<polygon class="st12" points="270.3,214.8 285,206.2 298.3,206.3 283.6,214.8 						"/>
						<polygon class="st33" points="283.6,214.8 290.2,233.9 276.9,233.9 270.3,214.8 						"/>
					</g>
				</g>
				<g>
					<path class="st6" d="M291.2,239.5H291c-0.1,0-0.2-0.2-0.3-0.3l-9-26.2c-0.1-0.2,0-0.4,0.2-0.6l20.1-11.7h0.5l0.3,0.3l9,26.2
						c0.1,0.2,0,0.4-0.2,0.6l-20.1,11.7H291.2z M282.8,213.1l8.7,25.2l19.2-11.2l-8.7-25.2L282.8,213.1z"/>
					<path class="st6" d="M282.1,213.4h-18.2c-0.2,0-0.4-0.1-0.5-0.3c0-0.2,0.1-0.5,0.3-0.6l20.1-11.7h18.5c0.2,0,0.4,0.1,0.5,0.3
						c0,0.2-0.1,0.5-0.3,0.6l-20.1,11.7H282.1z M265.8,212.4H282l18.4-10.7h-16.2L265.8,212.4z"/>
					<path class="st6" d="M291.2,239.5H273c-0.2,0-0.4-0.1-0.5-0.3l-9-26.2c-0.1-0.1-0.1-0.3,0-0.4c0.1-0.2,0.2-0.3,0.4-0.3h18.2
						c0.3,0,0.5,0.1,0.5,0.3l9.1,26.2c0,0.1,0,0.3-0.1,0.4C291.5,239.5,291.4,239.5,291.2,239.5z M273.3,238.5h17.2l-8.7-25.1h-17.2
						L273.3,238.5z"/>
				</g>
				<circle class="st6" cx="282.2" cy="212.9" r="2.4"/>
				<circle class="st6" cx="283.6" cy="200.8" r="2.4"/>
				<path class="st6" d="M299.4,201.2c-0.3-1.3,0.6-2.6,1.9-2.8c1.3-0.3,2.6,0.6,2.8,1.9c0.1,0.3,0.1,0.7,0,1c0,1.3-1,2.3-2.3,2.3
					c-1.3,0.1-2.3-0.9-2.4-2.2C299.4,201.3,299.4,201.2,299.4,201.2z"/>
				<circle class="st6" cx="263.9" cy="212.8" r="2.4"/>
				<circle class="st6" cx="272.9" cy="239" r="2.4"/>
				<circle class="st6" cx="291.2" cy="239" r="2.4"/>
				<circle class="st6" cx="311.4" cy="227.3" r="2.4"/>
				<g class="st31">
					<g>
						<polygon class="st32" points="196.9,216.3 215.2,223.3 212.4,241.4 194.1,234.5 						"/>
						<polygon class="st33" points="194.1,234.5 212.4,241.4 202.5,249.3 184.3,242.3 						"/>
						<polygon class="st12" points="196.9,216.3 194.1,234.5 184.3,242.3 187.1,224.2 						"/>
					</g>
				</g>
				<g>
					<path class="st6" d="M216.5,244.8h-0.2l-24.2-9.3c-0.2-0.1-0.3-0.3-0.3-0.5l3.7-24.1c0.1-0.2,0.1-0.3,0.3-0.4h0.4l24.2,9.2
						c0.2,0.1,0.4,0.4,0.3,0.6l-3.7,24.1l-0.2,0.3L216.5,244.8z M192.9,234.7l23.2,8.9l3.6-23.1l-23.3-8.9L192.9,234.7z"/>
					<path class="st6" d="M203.4,255.2h-0.1l-24.2-9.2l-0.4-0.4c0-0.2,0.1-0.4,0.2-0.5l13.1-10.4c0.1-0.2,0.3-0.2,0.5-0.1l24.2,9.2
						c0.2,0.1,0.3,0.2,0.3,0.4s0,0.4-0.2,0.5l-13,10.4L203.4,255.2z M180.2,245.3l23.2,8.8l12.1-9.7l-23.1-8.8L180.2,245.3z"/>
					<path class="st6" d="M179.2,245.9H179c-0.2-0.1-0.3-0.4-0.3-0.6l3.8-24.1c0-0.1,0-0.2,0.1-0.3l13.1-10.4h0.6
						c0.2,0.1,0.3,0.3,0.2,0.5l-3.7,24.1c0,0.1-0.1,0.3-0.2,0.3l-13.1,10.4L179.2,245.9z M183.4,221.6l-3.5,22.6l11.9-9.4l3.5-22.7
						L183.4,221.6z"/>
				</g>
				<path class="st6" d="M176.9,245.4c0-1.3,1-2.3,2.3-2.3l0,0c1.3-0.1,2.3,0.9,2.4,2.2c0,0,0,0.1,0,0.1c0,1.3-1.1,2.4-2.4,2.4
					c-1.3,0-2.3-1-2.3-2.3C176.9,245.5,176.9,245.4,176.9,245.4z"/>
				<path class="st6" d="M180.5,221c-0.1-1.3,0.9-2.3,2.2-2.4c0,0,0.1,0,0.1,0c1.3,0,2.4,1.1,2.4,2.4c0,1.3-1.1,2.4-2.4,2.4
					c-1.3,0-2.3-1-2.3-2.3C180.5,221.1,180.5,221,180.5,221z"/>
				<circle class="st6" cx="196" cy="210.9" r="2.4"/>
				<circle class="st6" cx="192.3" cy="235.5" r="2.4"/>
				<circle class="st6" cx="203.8" cy="254.5" r="2.4"/>
				<path class="st6" d="M214.2,243.8c-0.1-1.3,0.9-2.3,2.2-2.4c0,0,0.1,0,0.1,0c1.3,0,2.4,1.1,2.4,2.4c0,1.3-1.1,2.4-2.4,2.4
					c-1.3,0-2.3-1-2.3-2.3C214.2,243.9,214.2,243.8,214.2,243.8z"/>
				<circle class="st6" cx="220.2" cy="220.4" r="2.4"/>
				<g class="st31">
					<g>
						<polygon class="st32" points="341.5,172.6 360.3,178.5 352.7,197.5 333.9,191.6 						"/>
						<polygon class="st12" points="336.7,165.9 355.5,171.8 360.3,178.5 341.5,172.6 						"/>
						<polygon class="st33" points="341.5,172.6 333.9,191.6 329.1,184.9 336.7,165.9 						"/>
					</g>
				</g>
				<g>
					<path class="st6" d="M355.5,203.5h-0.1l-25.5-8c-0.1-0.1-0.2-0.1-0.3-0.3v-0.4l10.3-25.6c0.1-0.2,0.3-0.3,0.5-0.2
						c0,0,0.1,0,0.1,0l25.4,7.9l0.4,0.3v0.4L356,203.2C355.9,203.4,355.7,203.5,355.5,203.5z M330.7,194.7l24.5,7.7l9.9-24.7
						l-24.5-7.6L330.7,194.7z"/>
					<path class="st6" d="M365.8,177.9h-0.2l-25.4-8l-0.3-0.2l-6.4-9c-0.2-0.1-0.2-0.4,0-0.6c0,0,0,0,0,0c0.1-0.2,0.3-0.2,0.5-0.2
						l25.5,8c0.1,0,0.2,0.1,0.2,0.2c0,0,0,0,0,0l6.5,9c0.1,0.2,0.1,0.4,0,0.6L365.8,177.9z M340.7,169l23.8,7.5l-5.5-7.7l-23.9-7.5
						L340.7,169z"/>
					<path class="st6" d="M330.1,195.5c-0.2,0-0.3-0.1-0.4-0.2l-6.5-9c-0.1-0.2-0.1-0.3-0.1-0.5l10.3-25.6c0.1-0.1,0.2-0.3,0.4-0.3
						l0.5,0.2l6.5,9c0.1,0.1,0.1,0.4,0,0.5l-10.3,25.6C330.5,195.4,330.3,195.5,330.1,195.5z M324.2,185.9l5.7,8.1l9.9-24.5
						l-5.8-8.1L324.2,185.9z"/>
				</g>
				<circle class="st6" cx="334.3" cy="160.6" r="2.4"/>
				<path class="st6" d="M338,169.4c0-1.3,1-2.3,2.3-2.3c1.3-0.1,2.3,0.9,2.4,2.2c0,0,0,0.1,0,0.1c0.3,1.3-0.6,2.6-1.9,2.8
					c-1.3,0.3-2.6-0.6-2.8-1.9C337.9,170.1,337.9,169.7,338,169.4L338,169.4z"/>
				<circle class="st6" cx="323.6" cy="186.2" r="2.4"/>
				<circle class="st6" cx="330.1" cy="195" r="2.4"/>
				<circle class="st6" cx="355.2" cy="203" r="2.4"/>
				<circle class="st6" cx="365.8" cy="177.4" r="2.4"/>
				<circle class="st6" cx="359.4" cy="168.3" r="2.4"/>
				<g class="st31">
					<g>
						<polygon class="st32" points="172.8,167.2 183.3,158.9 191.1,170.3 180.6,178.7 						"/>
						<polygon class="st12" points="167.2,167.4 177.7,159 183.3,158.9 172.8,167.2 						"/>
						<polygon class="st33" points="172.8,167.2 180.6,178.7 175,178.9 167.2,167.4 						"/>
					</g>
				</g>
				<g>
					<path class="st6" d="M181.1,182.7L181.1,182.7l-0.4-0.2l-10.5-15.6c-0.1-0.2-0.1-0.5,0.1-0.6l14.2-11.3
						c0.1-0.1,0.2-0.2,0.4-0.1s0.2,0,0.3,0.2l10.5,15.5c0.1,0.2,0.1,0.4,0,0.6c0,0,0,0-0.1,0l-14.2,11.4L181.1,182.7z M171.3,166.8
						l9.9,14.7l13.4-10.7l-9.9-14.7L171.3,166.8z"/>
					<path class="st6" d="M163.1,167.4c-0.2,0-0.4-0.1-0.5-0.3c-0.1-0.2,0-0.4,0.1-0.6l14.2-11.3h0.3l7.6-0.3c0.2,0,0.4,0.2,0.5,0.4
						c0,0.2,0,0.4-0.2,0.5l-14.2,11.4h-0.3L163.1,167.4L163.1,167.4z M177.4,156.1l-12.9,10.3l5.9-0.2l12.9-10.3L177.4,156.1z"/>
					<path class="st6" d="M173.6,182.9l-0.4-0.2l-10.6-15.5c-0.1-0.1-0.1-0.4,0-0.5c0.1-0.2,0.2-0.3,0.4-0.3l7.6-0.2
						c0.2,0,0.3,0,0.4,0.2l10.5,15.5c0.2,0.2,0.2,0.3,0.1,0.5c-0.1,0.2-0.2,0.3-0.4,0.3L173.6,182.9z M164,167.4l9.8,14.5l6.4-0.2
						l-9.8-14.5L164,167.4z"/>
				</g>
				<path class="st6" d="M162.4,168c-0.8-0.4-1.1-1.3-0.7-2.1c0.4-0.8,1.3-1.1,2.1-0.7c0.1,0.1,0.3,0.2,0.4,0.3c0.7,0.4,1,1.3,0.6,2
					c0,0.1-0.1,0.1-0.1,0.2C164.2,168.3,163.2,168.5,162.4,168z"/>
				<path class="st6" d="M169.7,168c-0.7-0.5-0.9-1.5-0.4-2.2c0.4-0.7,1.3-1,2-0.6c0.1,0,0.1,0.1,0.2,0.1c0.8,0.5,1,1.5,0.5,2.3
					C171.5,168.3,170.5,168.5,169.7,168z"/>
				<path class="st6" d="M172.8,183.8c-0.7-0.5-0.9-1.5-0.4-2.2s1.5-0.9,2.2-0.4c0.7,0.5,0.9,1.5,0.4,2.2c0,0,0,0,0,0
					C174.5,184.1,173.5,184.3,172.8,183.8z"/>
				<path class="st6" d="M180.2,183.5c-0.7-0.5-0.9-1.5-0.4-2.2c0.4-0.7,1.3-1,2-0.6c0.1,0,0.1,0.1,0.2,0.1c0.8,0.4,1,1.4,0.6,2.2
					c0,0,0,0.1-0.1,0.1C182,183.8,181,184,180.2,183.5z"/>
				<path class="st6" d="M194.3,172.4c-0.7-0.4-1-1.3-0.6-2c0-0.1,0.1-0.1,0.1-0.2c0.4-0.8,1.4-1,2.2-0.6c0,0,0.1,0,0.1,0.1
					c0.7,0.5,0.9,1.5,0.4,2.3C196,172.7,195,172.9,194.3,172.4z"/>
				<path class="st6" d="M183.9,156.7c-0.8-0.4-1-1.4-0.6-2.2c0,0,0-0.1,0.1-0.1c0.5-0.7,1.5-0.9,2.3-0.4c0.7,0.5,0.9,1.5,0.4,2.2
					c-0.4,0.7-1.3,1-2,0.6C184,156.8,184,156.7,183.9,156.7z"/>
				<path class="st6" d="M176.3,156.8c-0.7-0.5-0.9-1.5-0.4-2.2c0.4-0.7,1.4-0.9,2.1-0.5c0,0,0.1,0.1,0.1,0.1c0.7,0.5,1,1.5,0.5,2.2
					C178.1,157.1,177.1,157.3,176.3,156.8z"/>
				<g class="st31">
					<g>
						<polygon class="st32" points="244.8,253.8 259.5,265.6 262.6,275.5 247.9,263.7 						"/>
						<polygon class="st33" points="247.9,263.7 262.6,275.5 248.1,289.7 233.4,277.9 						"/>
						<polygon class="st12" points="244.8,253.8 247.9,263.7 233.4,277.9 230.3,267.9 						"/>
					</g>
				</g>
				<g>
					<path class="st6" d="M268.3,277.4H268l-19.9-16l-0.2-0.2l-4.2-13.5c0-0.2,0.1-0.4,0.2-0.6c0.2-0.1,0.5-0.1,0.6,0.1l19.9,15.8
						c0.1,0.1,0.2,0.2,0.2,0.3l4.2,13.4c0.1,0.2,0,0.5-0.2,0.6L268.3,277.4z M248.9,260.6l18.5,14.9l-3.7-11.8l-18.5-14.8
						L248.9,260.6z"/>
					<path class="st6" d="M248.6,296.5h-0.3l-19.9-16l-0.2-0.3c0-0.2,0.1-0.3,0.2-0.4l19.7-19.1c0.2-0.2,0.4-0.2,0.6-0.1l19.9,16
						c0.1,0.1,0.2,0.2,0.2,0.4c0,0.1,0,0.2-0.1,0.3L249,296.4L248.6,296.5z M229.5,280l19.1,15.3l19-18.4l-19.1-15.3L229.5,280z"/>
					<path class="st6" d="M228.7,280.5h-0.1c-0.2,0-0.3-0.1-0.3-0.3l-4.2-13.5c-0.1-0.2,0-0.4,0.1-0.5l19.7-19.1
						c0.1-0.1,0.3-0.2,0.4-0.1s0.4,0.1,0.4,0.3l4.2,13.5c0.1,0.2,0,0.3-0.1,0.5l-19.7,19.1L228.7,280.5z M225.1,266.7l3.9,12.4
						l18.9-18.3l-3.9-12.4L225.1,266.7z"/>
				</g>
				<path class="st6" d="M241.9,247.4c0-1.3,1-2.3,2.3-2.3l0,0c1.3-0.3,2.6,0.6,2.8,1.9c0.3,1.3-0.6,2.6-1.9,2.8
					c-0.3,0.1-0.7,0.1-1,0c-1.3,0-2.3-1-2.3-2.3C241.9,247.5,241.9,247.4,241.9,247.4z"/>
				<circle class="st6" cx="248.4" cy="260.9" r="2.4"/>
				<path class="st6" d="M222.2,266.7c-0.1-1.3,0.9-2.3,2.2-2.4c0,0,0.1,0,0.1,0c1.3,0,2.4,1.1,2.4,2.4s-1.1,2.4-2.4,2.4
					c0,0,0,0,0,0c-1.3,0-2.3-1-2.3-2.3C222.2,266.8,222.2,266.7,222.2,266.7z"/>
				<circle class="st6" cx="228.7" cy="280.6" r="2.4"/>
				<circle class="st6" cx="248.7" cy="296" r="2.4"/>
				<circle class="st6" cx="268.3" cy="276.7" r="2.4"/>
				<circle class="st6" cx="264.2" cy="263.3" r="2.4"/>
				<g class="st31">
					<g>
						<polygon class="st32" points="185,273.9 187.8,290.3 184,298.6 181.2,282.3 						"/>
						<polygon class="st33" points="181.2,282.3 184,298.6 166.2,299.4 163.4,283.1 						"/>
						<polygon class="st12" points="185,273.9 181.2,282.3 163.4,283.1 167.2,274.7 						"/>
					</g>
				</g>
				<g>
					<path class="st6" d="M187,303.3h-0.1c-0.2,0-0.4-0.2-0.4-0.4l-3.8-22.1c0-0.1,0-0.2,0.1-0.3l5.1-11.3c0.1-0.2,0.3-0.3,0.5-0.3
						c0.2,0,0.4,0.2,0.4,0.4l3.8,22.2v0.2l-5.2,11.4L187,303.3z M183.7,280.8l3.5,20.3l4.4-9.6l-3.5-20.4L183.7,280.8z"/>
					<path class="st6" d="M162.9,304.4c-0.2,0-0.5-0.2-0.5-0.4l-3.8-22.1c0-0.2,0-0.3,0.1-0.4l0.4-0.2l24.1-1.1
						c0.2,0,0.5,0.2,0.5,0.4l3.8,22.2c0,0.1,0,0.3-0.1,0.4H187l-24.1,1.1V304.4z M159.7,282.3l3.6,21.1l23.1-1l-3.6-21.2
						L159.7,282.3z"/>
					<path class="st6" d="M159.1,282.3l-0.4-0.2c-0.1-0.1-0.1-0.4,0-0.5l5.1-11.3c0-0.2,0.2-0.3,0.4-0.3l24.1-1.1l0.5,0.2
						c0.1,0.1,0.1,0.4,0,0.5l-5.1,11.3c-0.1,0.2-0.2,0.3-0.4,0.3L159.1,282.3L159.1,282.3z M164.6,271l-4.7,10.3l23-1.1l4.6-10.3
						L164.6,271z"/>
				</g>
				<path class="st6" d="M186.8,268c0.8-0.8,2-0.9,2.9-0.2c0.9,0.8,1,2.1,0.2,3c0,0,0,0,0,0c-0.8,0.8-2,0.9-2.9,0.2
					C186.1,270.2,186,268.9,186.8,268C186.8,268,186.8,268,186.8,268z"/>
				<path class="st6" d="M181.7,279.3c0.8-0.8,2.1-0.8,2.9-0.1c0.9,0.7,1,2,0.3,2.8c0,0,0,0.1-0.1,0.1c-0.7,0.9-2,1.1-2.9,0.5
					c-0.9-0.7-1.1-2-0.5-2.9C181.5,279.5,181.6,279.4,181.7,279.3L181.7,279.3z"/>
				<path class="st6" d="M162.6,269.2c0.7-0.9,2-1,2.8-0.3c0,0,0.1,0,0.1,0.1c0.9,0.8,1,2.1,0.2,3c0,0,0,0,0,0
					c-0.8,0.8-2.1,0.8-2.9,0.1C161.9,271.4,161.8,270.1,162.6,269.2C162.5,269.3,162.6,269.2,162.6,269.2z"/>
				<path class="st6" d="M157.2,280.8c0.8-0.9,2.1-1,3-0.2c0,0,0,0,0,0c0.8,0.8,0.9,2.1,0.1,3c-0.9,0.8-2.2,0.7-3-0.2
					C156.7,282.7,156.6,281.6,157.2,280.8z"/>
				<path class="st6" d="M161.3,302.6c0.8-0.9,2.1-1,3-0.2c0,0,0,0,0,0c0.8,0.8,0.9,2,0.2,2.9c-0.8,0.9-2.1,1-3,0.2c0,0,0,0,0,0
					C160.7,304.7,160.6,303.5,161.3,302.6z"/>
				<path class="st6" d="M185.5,301.3c0.8-0.8,2.1-0.9,3-0.1c0.8,0.8,0.8,2.1,0.1,2.9c-0.7,0.9-2,1-2.8,0.3c0,0-0.1,0-0.1-0.1
					C184.9,303.5,184.8,302.2,185.5,301.3z"/>
				<path class="st6" d="M190.7,290.1c0.8-0.8,2-0.9,2.9-0.2c0.8,0.8,0.9,2.1,0.2,3c-0.8,0.8-2.1,0.9-3,0.2
					C190,292.3,189.9,291,190.7,290.1z"/>
				<g class="st31">
					<g>
						<polygon class="st32" points="241.2,175.5 258.2,175.8 249.4,190.4 232.3,190.1 						"/>
						<polygon class="st12" points="232.9,160.5 250,160.8 258.2,175.8 241.2,175.5 						"/>
						<polygon class="st33" points="241.2,175.5 232.3,190.1 224.1,175.1 232.9,160.5 						"/>
					</g>
				</g>
				<g>
					<path class="st6" d="M252.7,197L252.7,197l-24-0.4c-0.2,0-0.3-0.1-0.4-0.3c-0.1-0.1-0.1-0.4,0-0.5l12.5-20.5
						c0.1-0.2,0.3-0.3,0.5-0.2l23.9,0.4l0.4,0.2c0.1,0.1,0.1,0.4,0,0.5l-12.5,20.6L252.7,197z M229.6,195.6l22.8,0.4l11.9-19.5
						l-22.8-0.4L229.6,195.6z"/>
					<path class="st6" d="M265.2,176.5L265.2,176.5l-24-0.4c-0.2,0-0.3-0.1-0.4-0.3l-11.6-21.2c-0.1-0.1-0.1-0.4,0-0.5l0.4-0.2
						l24,0.4c0.2,0,0.3,0.1,0.4,0.3l11.6,21.1c0.1,0.1,0.1,0.4,0,0.5C265.5,176.4,265.4,176.5,265.2,176.5z M241.5,175.1l22.9,0.4
						l-11.1-20.2l-22.9-0.4L241.5,175.1z"/>
					<path class="st6" d="M228.7,196.6L228.7,196.6c-0.2,0-0.3-0.1-0.4-0.3l-11.7-21.1c0-0.2,0-0.4,0.1-0.5l12.5-20.6l0.4-0.2
						l0.4,0.2l11.7,21.2c0.1,0.1,0.1,0.4,0,0.5l-12.5,20.6L228.7,196.6z M217.7,174.9l11.1,20.2l11.9-19.6l-11.1-20.1L217.7,174.9z"
						/>
				</g>
				<path class="st6" d="M251.5,153.6c0.7-1.1,2.2-1.5,3.3-0.8c0,0,0,0,0,0c1.2,0.5,1.8,1.9,1.4,3.1c-0.5,1.2-1.9,1.8-3.1,1.4
					c-0.3-0.1-0.5-0.3-0.8-0.5C251.2,156.1,250.9,154.7,251.5,153.6z"/>
				<path class="st6" d="M239.1,174.2c0.7-1.1,2.1-1.5,3.2-0.8s1.5,2.1,0.8,3.2s-2.1,1.5-3.2,0.8S238.4,175.3,239.1,174.2z"/>
				<path class="st6" d="M226.6,194.8c0.6-1.1,2-1.5,3.1-0.8c0,0,0,0,0.1,0c1.2,0.6,1.6,2.1,0.9,3.3c0,0,0,0,0,0
					c-0.7,1.1-2.2,1.4-3.3,0.8C226.3,197.4,225.9,195.9,226.6,194.8C226.6,194.8,226.6,194.8,226.6,194.8z"/>
				<path class="st6" d="M227.6,153.2c0.6-1.1,1.9-1.5,3-0.9c0.1,0,0.2,0.1,0.2,0.1c1.1,0.7,1.5,2.1,0.8,3.2s-2.1,1.5-3.2,0.8
					c-1.1-0.6-1.5-1.9-0.9-3C227.5,153.4,227.5,153.3,227.6,153.2z"/>
				<path class="st6" d="M262.8,174.5c0.7-1.1,2.2-1.5,3.3-0.8c0,0,0,0,0,0c1.1,0.6,1.5,2,0.8,3.1c0,0,0,0,0,0.1
					c-0.6,1.2-2.1,1.6-3.3,0.9c0,0,0,0,0,0C262.5,177.1,262.2,175.6,262.8,174.5z"/>
				<path class="st6" d="M250.7,194.6c0.6-1.1,2-1.5,3.1-0.8c0,0,0,0,0.1,0c1,0.8,1.2,2.3,0.4,3.4c-0.7,0.8-1.8,1.1-2.8,0.7
					c-1.1-0.6-1.5-2-0.9-3.1C250.6,194.7,250.7,194.7,250.7,194.6z"/>
				<path class="st6" d="M215.3,173.2c0.7-1.1,2.2-1.4,3.3-0.8c1.1,0.7,1.5,2.2,0.8,3.3s-2.2,1.5-3.3,0.8
					C215,175.8,214.7,174.3,215.3,173.2z"/>
				<g class="st31">
					<g>
						<polygon class="st32" points="146,214.1 156.4,214.3 151,223.3 140.6,223.1 						"/>
						<polygon class="st12" points="140.9,205 151.3,205.1 156.4,214.3 146,214.1 						"/>
						<polygon class="st33" points="146,214.1 140.6,223.1 135.5,213.9 140.9,205 						"/>
					</g>
				</g>
				<g>
					<path class="st6" d="M153,227.5L153,227.5l-14.7-0.3l-0.4-0.2c-0.1-0.1-0.1-0.4,0-0.5l7.7-12.6l0.4-0.2l14.7,0.2
						c0.2,0,0.3,0.1,0.4,0.3c0.1,0.1,0.1,0.4,0,0.5l-7.7,12.5C153.3,227.4,153.2,227.5,153,227.5z M139.2,226.2l13.5,0.3l7.1-11.6
						l-13.5-0.2L139.2,226.2z"/>
					<path class="st6" d="M160.7,214.9L160.7,214.9l-14.7-0.2c-0.2,0-0.3-0.1-0.4-0.3l-7.2-12.9V201c0.1-0.2,0.3-0.3,0.5-0.3
						l14.6,0.3l0.5,0.2l7.1,13c0.1,0.1,0.1,0.4,0,0.5L160.7,214.9z M146.3,213.7l13.5,0.2l-6.6-11.9l-13.5-0.3L146.3,213.7z"/>
					<path class="st6" d="M138.4,227.2h-0.1l-0.4-0.2l-7.1-13c-0.1-0.1-0.1-0.4,0-0.5l7.6-12.5c0.1-0.2,0.3-0.3,0.5-0.3
						c0.2,0,0.3,0.1,0.4,0.3l7.1,12.9c0.1,0.1,0.1,0.4,0,0.5l-7.6,12.6L138.4,227.2z M131.8,213.8l6.6,11.9l7-11.5l-6.5-12
						L131.8,213.8z"/>
				</g>
				<path class="st6" d="M152.3,200.7c0.4-0.7,1.3-1,2-0.6c0.7,0.4,1,1.3,0.6,2c-0.4,0.7-1.3,1-2,0.6c0,0,0,0-0.1,0
					C152.1,202.3,151.9,201.4,152.3,200.7z"/>
				<path class="st6" d="M144.7,213.3c0.4-0.7,1.3-0.9,1.9-0.4s0.9,1.3,0.4,1.9c-0.4,0.7-1.2,0.9-1.9,0.5
					C144.5,214.9,144.3,214,144.7,213.3z"/>
				<path class="st6" d="M137,225.9c0.5-0.6,1.3-0.8,2-0.5c0.7,0.4,0.9,1.3,0.5,2c-0.6,0.6-1.5,0.6-2.1,0
					C137,227,136.8,226.4,137,225.9z"/>
				<path class="st6" d="M137.6,200.5c0.4-0.7,1.3-1,2-0.6c0.7,0.4,1,1.3,0.6,2c-0.4,0.7-1.3,1-2,0.6c0,0,0,0-0.1,0
					C137.4,202.1,137.2,201.2,137.6,200.5z"/>
				<path class="st6" d="M159.2,213.5c0.4-0.7,1.3-1,2-0.6c0.7,0.4,1,1.3,0.6,2c-0.4,0.7-1.3,1-2,0.6c0,0,0,0-0.1,0
					C159,215.1,158.8,214.2,159.2,213.5z"/>
				<path class="st6" d="M151.8,225.8c0.4-0.7,1.3-0.9,2-0.5c0.7,0.4,0.9,1.3,0.4,1.9c0,0,0,0,0,0.1c-0.4,0.7-1.2,0.9-1.9,0.5
					C151.6,227.4,151.4,226.5,151.8,225.8z"/>
				<path class="st6" d="M130.2,212.7c0.4-0.6,1.2-0.8,1.8-0.5c0,0,0.1,0.1,0.1,0.1c0.6,0.3,0.9,1.1,0.6,1.7c0,0.1-0.1,0.1-0.1,0.2
					c-0.4,0.7-1.2,0.9-1.9,0.6c0,0-0.1,0-0.1-0.1C129.9,214.3,129.7,213.4,130.2,212.7C130.2,212.7,130.2,212.7,130.2,212.7z"/>
				<polygon class="st6" points="83.1,211.5 83.1,213.9 79.1,211.5 79.1,209.2 				"/>
				<polygon class="st6" points="87.4,214 87.4,216.3 85.8,215.4 85.8,213.1 				"/>
				<polygon class="st6" points="96.4,224.9 96.4,227.2 93.5,225.5 93.5,223.2 				"/>
				<polygon class="st6" points="101.2,222 101.2,224.3 95.8,221.2 95.8,218.9 				"/>
				<polygon class="st6" points="101.2,227.6 101.1,229.9 98.7,228.5 98.7,226.2 				"/>
				<polygon class="st34" points="74.5,216.7 74.5,219.5 72.2,218.1 72.2,215.4 				"/>
				<polygon class="st34" points="107,235.5 107,238.2 104.6,236.8 104.6,234.1 				"/>
				<path class="st34" d="M102,218.8c1.6,1,2.5,2.7,2.6,4.5v9c0.1,0.9-0.4,1.7-1.3,1.8c-0.5,0.1-0.9,0-1.3-0.3l-24.8-14.3
					c-1.6-1-2.6-2.7-2.7-4.6V206c0-1.7,1.2-2.4,2.6-1.5L102,218.8z M101.2,224.3V222l-5.4-3.1v2.3L101.2,224.3 M83.1,213.9v-2.4
					l-4-2.3v2.3L83.1,213.9 M96.4,227.2v-2.3l-2.9-1.7v2.3L96.4,227.2 M101.1,229.9v-2.3l-2.5-1.4v2.3L101.1,229.9 M87.4,216.3V214
					l-1.6-0.9v2.3L87.4,216.3"/>
				<polygon class="st34" points="74.6,199.3 74.6,202 72.2,200.6 72.2,197.9 				"/>
				<polygon class="st34" points="107,218 107,220.7 104.6,219.4 104.6,216.6 				"/>
				<polygon class="st6" points="330.4,34.6 330.4,36.9 319.9,30.9 319.9,28.6 				"/>
				<polygon class="st6" points="340.1,44.7 340.1,47 333.3,43 333.3,40.7 				"/>
				<polygon class="st34" points="314.3,35.8 314.3,38.5 311.9,37.2 311.9,34.4 				"/>
				<polygon class="st34" points="346.7,54.5 346.7,57.3 344.4,55.9 344.4,53.1 				"/>
				<g>
					<polygon class="st6" points="331.9,39.9 331.8,42.2 328.4,40.2 328.4,37.9 					"/>
					<path class="st34" d="M341.8,36.7c1.5,1.1,2.5,2.8,2.6,4.6v9c0,1.6-1.2,2.3-2.7,1.5L317,37.5c-1.6-1-2.6-2.7-2.7-4.6V24
						c0.1-1.7,1.2-2.4,2.7-1.6L341.8,36.7z M319.9,28.6v2.3l10.5,6v-2.3L319.9,28.6 M340.1,47v-2.3l-6.8-4V43L340.1,47 M331.8,42.2
						v-2.3l-3.5-2v2.3l3.4,2 M332.8,36.1v2.3l2.6,1.5v-2.3L332.8,36.1"/>
				</g>
				<polygon class="st6" points="335.5,37.6 335.5,39.9 332.9,38.4 332.9,36.1 				"/>
				<polygon class="st34" points="314.4,18.3 314.4,21.1 312,19.7 312,17 				"/>
				<polygon class="st34" points="346.8,37.1 346.8,39.8 344.4,38.4 344.4,35.7 				"/>
				<polygon class="st6" points="479.4,311.1 479.4,313.4 482.4,311.6 482.4,309.3 				"/>
				<polygon class="st6" points="479.1,307.7 479.1,310 480.9,309 480.8,306.7 				"/>
				<polygon class="st6" points="465.3,323.1 465.3,325.4 466.7,324.6 466.7,322.3 				"/>
				<polygon class="st34" points="458.9,331.2 458.9,333.9 461.3,332.5 461.3,329.8 				"/>
				<g>
					<path class="st34" d="M488.7,299.4c1.4-0.9,2.6-0.2,2.6,1.5v8.9c0,1.9-1,3.6-2.6,4.6l-24.8,14.3c-0.7,0.6-1.7,0.5-2.3-0.2
						c-0.3-0.4-0.4-0.8-0.3-1.3v-9c0.1-1.8,1-3.5,2.6-4.5L488.7,299.4z M465.3,321.6l10.4-6.1v-2.3l-10.4,6V321.6 M465.2,318
						l6.7-3.8v-2.3l-6.7,3.8V318 M482.9,307.9l4.3-2.5v-2.3l-4.3,2.4V307.9 M479.4,313.4l3-1.8v-2.3l-3,1.8V313.4 M479.1,310l1.8-1
						v-2.3l-1.7,1L479.1,310 M465.4,325.4l1.4-0.8v-2.3l-1.4,0.8V325.4"/>
					<polygon class="st6" points="465.3,319.2 465.3,321.6 475.7,315.5 475.7,313.2 					"/>
					<polygon class="st6" points="465.2,315.7 465.2,318 471.9,314.2 471.9,311.9 					"/>
				</g>
				<polygon class="st6" points="482.9,305.5 482.9,307.9 487.2,305.4 487.2,303.1 				"/>
				<polygon class="st34" points="491.3,295 491.3,297.7 493.7,296.3 493.7,293.6 				"/>
				<polygon class="st34" points="458.9,313.7 458.9,316.4 461.3,315.1 461.3,312.3 				"/>
				<polygon class="st34" points="491.4,312.4 491.4,315.2 493.7,313.8 493.7,311.1 				"/>
				<polygon class="st6" points="495.5,128.4 495.5,130.8 497.1,129.8 497.1,127.5 				"/>
				<polygon class="st34" points="511.4,110.3 511.4,113 513.8,111.6 513.8,108.9 				"/>
				<polygon class="st34" points="479,129 479,131.7 481.4,130.4 481.4,127.6 				"/>
				<polygon class="st34" points="479,146.5 479,149.2 481.4,147.8 481.4,145.1 				"/>
				<path class="st34" d="M508.8,114.4c1.4-0.8,2.6-0.2,2.6,1.5v9c-0.1,1.8-1.1,3.5-2.7,4.5L484,143.7c-1.5,0.9-2.7,0.2-2.7-1.5
					v-8.9c0.1-1.9,1.1-3.6,2.6-4.6L508.8,114.4z M487,135.7l6.3-3.7v-2.3l-6.3,3.7V135.7 M499.2,128.6l6-3.5v-2.3l-6,3.5V128.6
					 M495.5,130.8l1.6-1v-2.3l-1.6,0.9V130.8"/>
				<polygon class="st6" points="499.2,126.3 499.2,128.6 505.2,125.1 505.2,122.8 				"/>
				<polygon class="st6" points="487,133.4 487,135.7 493.3,132 493.3,129.7 				"/>
				<polygon class="st34" points="511.5,127.7 511.5,130.5 513.9,129.1 513.9,126.4 				"/>
				<polygon class="st6" points="205.2,90.9 205.2,93.2 208.1,91.6 208,89.3 				"/>
				<polygon class="st6" points="199,100.1 199,102.5 202.5,100.5 202.5,98.1 				"/>
				<polygon class="st34" points="225,72.9 225,75.6 227.4,74.3 227.4,71.5 				"/>
				<polygon class="st34" points="225.1,90.4 225.1,93.1 227.5,91.7 227.5,89 				"/>
				<polygon class="st34" points="192.6,109.1 192.7,111.8 195,110.5 195,107.7 				"/>
				<g>
					<polygon class="st6" points="216.8,89.9 216.8,92.2 219.5,90.7 219.5,88.3 					"/>
					<path class="st34" d="M222.4,77c1.5-0.8,2.6-0.1,2.6,1.5v9c-0.1,1.9-1.1,3.5-2.7,4.5l-24.7,14.3c-1.5,0.9-2.7,0.2-2.7-1.5v-8.9
						c0.1-1.8,1.1-3.5,2.6-4.6L222.4,77z M211,89.9l8.5-4.9v-2.3l-8.5,4.9V89.9 M199,102.5l3.5-2v-2.4l-3.5,2V102.5 M205.2,93.2
						l2.9-1.6v-2.3l-2.8,1.6L205.2,93.2 M216.9,92.2l2.7-1.5v-2.4l-2.7,1.6V92.2 M213,94.4l1.8-1.1V91l-1.8,1.1V94.4"/>
					<polygon class="st34" points="192.6,91.6 192.6,94.4 195,93 195,90.3 					"/>
				</g>
				<polygon class="st6" points="211,87.6 211,89.9 219.5,85 219.4,82.7 				"/>
				<polygon class="st6" points="213,92.1 213,94.4 214.8,93.3 214.8,91 				"/>
				<g class="st3">
					<path class="st4" d="M379.1,452.8c1.7,1,1.7,2.5,0,3.5l-29.2,17c-1.9,1-4.1,1-6,0l-29.4-17c-1.7-1-1.7-2.5,0-3.5l29.2-17
						c1.9-0.9,4.1-0.9,6,0L379.1,452.8z"/>
				</g>
				<g>
					
						<linearGradient id="SVGID_13_" gradientUnits="userSpaceOnUse" x1="310.6203" y1="58.5455" x2="348.5903" y2="56.4055" gradientTransform="matrix(1 0 0 -1 0 508)">
						<stop  offset="0" style="stop-color:#768AAD"/>
						<stop  offset="1" style="stop-color:#C6D6E5"/>
					</linearGradient>
					<path class="st35" d="M379.2,438.7l-29.3,17c-1.9,1-4.1,1-6,0l-29.4-17c-0.8-0.5-1.3-1.1-1.3-1.7v11.4c0.1,0.8,0.6,1.5,1.3,1.8
						l29.4,17c1.9,0.9,4.1,0.9,6,0l29.2-17c0.7-0.3,1.2-1,1.3-1.8V437C380.3,437.7,379.9,438.4,379.2,438.7z"/>
					<path class="st6" d="M379.1,435.2c1.7,1,1.7,2.6,0.1,3.5l-29.3,17c-1.9,1-4.1,1-6,0l-29.4-17c-1.7-0.9-1.7-2.5,0-3.5l29.2-16.9
						c1.9-1,4.1-1,6,0L379.1,435.2z"/>
				</g>
				<g>
					<path class="st7" d="M380.4,433.5v2.1c-0.1,0.7-0.5,1.4-1.2,1.7v-2.1C379.9,434.9,380.3,434.2,380.4,433.5z"/>
					<path class="st7" d="M313.2,435.6v-2.2c0.1,0.8,0.6,1.5,1.3,1.8v2.1C313.6,436.8,313.2,436.2,313.2,435.6z"/>
					<polygon class="st7" points="379.2,435.2 379.2,437.3 349.9,454.3 349.9,452.2 					"/>
					<polygon class="st7" points="343.9,452.2 343.9,454.3 314.5,437.3 314.5,435.2 					"/>
					<path class="st7" d="M349.9,452.2v2.1c-1.9,1-4.1,1-6,0v-2.1C345.8,453.2,348,453.2,349.9,452.2z"/>
					<path class="st8" d="M379.1,431.7c1.7,1,1.7,2.5,0.1,3.5l-29.3,17c-1.9,1-4.1,1-6,0l-29.4-17c-1.7-1-1.7-2.5,0-3.5l29.2-17
						c1.9-0.9,4.1-0.9,6,0L379.1,431.7z"/>
				</g>
				<path class="st8" d="M372.9,445.4c1.5-0.8,2.6-0.1,2.6,1.5c0,1.9-1,3.6-2.6,4.5l-15.9,9.2c-1.5,0.9-2.6,0.2-2.7-1.5
					c0.2-1.8,1.1-3.5,2.6-4.5L372.9,445.4z M372.9,450.7c1.2-0.8,1.9-2,2-3.4c0-1.3-0.9-1.8-2-1.2l-15.9,9.2c-1.2,0.8-2,2.1-2,3.5
					c0,1.3,0.9,1.8,2,1.1L372.9,450.7"/>
				<path class="st8" d="M361.5,453.7c0.6-0.4,1.1-0.1,1.1,0.7c-0.1,0.8-0.5,1.5-1.1,2c-0.7,0.4-1.2,0.1-1.2-0.7
					C360.3,454.9,360.8,454.1,361.5,453.7z"/>
				<path class="st8" d="M364.9,451.7c0.7-0.4,1.2-0.1,1.2,0.6c0,0.8-0.4,1.6-1.1,2.1c-0.7,0.4-1.2,0.1-1.2-0.7
					C363.8,452.9,364.2,452.2,364.9,451.7z"/>
				<path class="st8" d="M368.4,449.7c0.7-0.4,1.2-0.1,1.2,0.6c0,0.9-0.5,1.6-1.2,2.1c-0.6,0.4-1.1,0.1-1.1-0.7
					C367.3,450.9,367.7,450.1,368.4,449.7z"/>
				<path class="st8" d="M336.4,454c1.5,1.1,2.5,2.8,2.6,4.6c-0.1,1.6-1.2,2.3-2.7,1.4l-15.9-9.2c-1.6-0.9-2.6-2.6-2.6-4.5
					c0-1.6,1.1-2.3,2.6-1.5L336.4,454z M320.4,450.1l15.9,9.2c1.1,0.7,2,0.2,2-1.1c0-1.4-0.8-2.7-2-3.5l-15.9-9.2
					c-1.1-0.6-2-0.1-2,1.2C318.5,448.1,319.2,449.3,320.4,450.1"/>
				<path class="st8" d="M331.8,453.1c-0.6-0.4-1.1-0.1-1.1,0.7c0.1,0.8,0.5,1.5,1.1,2c0.7,0.4,1.2,0.1,1.2-0.7
					C333,454.3,332.5,453.5,331.8,453.1z"/>
				<path class="st8" d="M328.4,451.1c-0.7-0.4-1.2-0.1-1.2,0.6c0,0.8,0.4,1.6,1.1,2.1c0.7,0.4,1.2,0.1,1.2-0.7
					C329.5,452.3,329.1,451.6,328.4,451.1z"/>
				<path class="st8" d="M324.9,449.1c-0.7-0.4-1.2-0.1-1.2,0.6c0,0.9,0.5,1.6,1.2,2.1c0.6,0.4,1.1,0.1,1.1-0.7
					C326,450.3,325.6,449.5,324.9,449.1z"/>
				<g class="st3">
					<path class="st4" d="M379.1,427.7c1.7,1,1.7,2.5,0,3.5l-29.2,17c-1.9,0.9-4.1,0.9-6,0l-29.4-17c-1.7-1-1.7-2.5,0-3.5l29.2-17
						c1.9-0.9,4.1-0.9,6,0L379.1,427.7z"/>
				</g>
				<g>
					
						<linearGradient id="SVGID_14_" gradientUnits="userSpaceOnUse" x1="310.62" y1="83.6604" x2="348.59" y2="81.5204" gradientTransform="matrix(1 0 0 -1 0 508)">
						<stop  offset="0" style="stop-color:#768AAD"/>
						<stop  offset="1" style="stop-color:#C6D6E5"/>
					</linearGradient>
					<path class="st36" d="M379.2,413.6l-29.3,17c-1.9,1-4.1,1-6,0l-29.4-17c-0.8-0.5-1.3-1.1-1.3-1.7v11.4c0.1,0.8,0.6,1.5,1.3,1.8
						l29.4,16.9c1.9,1,4.1,1,6,0l29.2-16.9c0.7-0.4,1.2-1,1.3-1.8v-11.4C380.3,412.6,379.9,413.3,379.2,413.6z"/>
					<path class="st6" d="M379.1,410.1c1.7,1,1.7,2.5,0.1,3.5l-29.3,17c-1.9,1-4.1,1-6,0l-29.4-17c-1.7-1-1.7-2.5,0-3.5l29.2-17
						c1.9-0.9,4.1-0.9,6,0L379.1,410.1z"/>
				</g>
				<g>
					<path class="st7" d="M380.4,408.3v2.2c-0.1,0.7-0.5,1.4-1.2,1.7v-2.1C379.9,409.8,380.4,409.1,380.4,408.3z"/>
					<path class="st7" d="M313.2,410.4v-2.1c0.1,0.8,0.6,1.5,1.3,1.8v2.1C313.8,411.9,313.3,411.2,313.2,410.4z"/>
					<polygon class="st7" points="379.2,410.1 379.2,412.2 349.9,429.2 349.9,427.1 					"/>
					<polygon class="st7" points="343.9,427.1 343.9,429.2 314.5,412.2 314.5,410.1 					"/>
					<path class="st7" d="M349.9,427.1v2.1c-1.9,0.9-4.1,0.9-6,0v-2.1C345.8,428,348,428,349.9,427.1z"/>
					<path class="st8" d="M379.1,406.6c1.7,1,1.7,2.5,0.1,3.5l-29.3,17c-1.9,0.9-4.1,0.9-6,0l-29.4-17c-1.7-1-1.7-2.5,0-3.5l29.2-17
						c1.9-1,4.1-1,6,0L379.1,406.6z"/>
				</g>
				<path class="st8" d="M372.9,420.3c1.5-0.8,2.6-0.2,2.6,1.5c0,1.8-1,3.5-2.6,4.5l-15.9,9.2c-1.5,0.8-2.6,0.2-2.7-1.5
					c0.2-1.8,1.1-3.5,2.6-4.5L372.9,420.3z M372.9,425.6c1.2-0.8,1.9-2.1,2-3.5c0-1.2-0.9-1.7-2-1.1l-15.9,9.2c-1.2,0.8-2,2.1-2,3.5
					c0,1.2,0.9,1.8,2,1.1L372.9,425.6"/>
				<path class="st8" d="M361.5,428.6c0.6-0.4,1.1-0.1,1.1,0.6c0,0.8-0.4,1.6-1.1,2.1c-0.7,0.4-1.2,0.1-1.2-0.7
					C360.3,429.8,360.8,429,361.5,428.6z"/>
				<path class="st8" d="M364.9,426.5c0.7-0.3,1.2,0,1.2,0.7c0,0.8-0.4,1.6-1.1,2.1c-0.7,0.3-1.2,0-1.2-0.7
					C363.8,427.8,364.2,427,364.9,426.5z"/>
				<path class="st8" d="M368.4,424.5c0.7-0.3,1.2,0,1.2,0.7c0,0.9-0.5,1.6-1.2,2.1c-0.6,0.3-1.1,0-1.1-0.7
					C367.3,425.8,367.7,425,368.4,424.5z"/>
				<path class="st8" d="M336.4,428.9c1.5,1,2.4,2.7,2.6,4.5c-0.1,1.7-1.2,2.3-2.7,1.5l-15.9-9.2c-1.6-1-2.6-2.7-2.6-4.5
					c0-1.7,1.1-2.3,2.6-1.5L336.4,428.9z M320.4,425l15.9,9.2c1.1,0.7,2,0.1,2-1.1c0-1.4-0.8-2.7-2-3.5l-15.9-9.2
					c-1.1-0.6-2-0.1-2,1.1C318.5,422.9,319.2,424.2,320.4,425"/>
				<path class="st8" d="M331.8,428c-0.6-0.4-1.1-0.1-1.1,0.6c0,0.8,0.4,1.6,1.1,2.1c0.7,0.4,1.2,0.1,1.2-0.7
					C333,429.2,332.5,428.4,331.8,428z"/>
				<path class="st8" d="M328.4,425.9c-0.7-0.3-1.2,0-1.2,0.7c0,0.8,0.4,1.6,1.1,2.1c0.7,0.3,1.2,0,1.2-0.7
					C329.5,427.2,329.1,426.4,328.4,425.9z"/>
				<path class="st8" d="M324.9,423.9c-0.7-0.3-1.2,0-1.2,0.7c0,0.9,0.5,1.6,1.2,2.1c0.6,0.3,1.1,0,1.1-0.7
					C326,425.2,325.6,424.4,324.9,423.9z"/>
				<g class="st3">
					<path class="st4" d="M379.1,402.6c1.7,0.9,1.7,2.5,0,3.5L349.9,423c-1.9,1-4.1,1-6,0l-29.4-16.9c-1.7-1-1.7-2.6,0-3.5l29.2-17
						c1.9-1,4.1-1,6,0L379.1,402.6z"/>
				</g>
				<g>
					
						<linearGradient id="SVGID_15_" gradientUnits="userSpaceOnUse" x1="310.6183" y1="108.7605" x2="348.5883" y2="106.6205" gradientTransform="matrix(1 0 0 -1 0 508)">
						<stop  offset="0" style="stop-color:#768AAD"/>
						<stop  offset="1" style="stop-color:#C6D6E5"/>
					</linearGradient>
					<path class="st37" d="M379.2,388.5l-29.3,17c-1.9,0.9-4.1,0.9-6,0l-29.4-17c-0.7-0.3-1.2-1-1.3-1.8v11.5c0,0.6,0.4,1.2,1.3,1.7
						l29.4,17c1.9,1,4.1,1,6,0l29.2-17c0.7-0.3,1.2-0.9,1.3-1.7v-11.4C380.3,387.5,379.9,388.2,379.2,388.5z"/>
					<path class="st6" d="M379.1,385c1.7,1,1.7,2.5,0.1,3.5l-29.3,17c-1.9,0.9-4.1,0.9-6,0l-29.4-17c-1.7-1-1.7-2.5,0-3.5l29.2-17
						c1.9-0.9,4.1-0.9,6,0L379.1,385z"/>
				</g>
				<g>
					<path class="st7" d="M380.4,383.2v2.1c0,0.8-0.5,1.5-1.2,1.8V385C379.9,384.7,380.4,384,380.4,383.2z"/>
					<path class="st7" d="M313.2,385.3v-2.1c0.1,0.8,0.6,1.4,1.3,1.8v2.1C313.8,386.8,313.3,386.1,313.2,385.3z"/>
					<polygon class="st7" points="379.2,385 379.2,387.1 349.9,404.1 349.9,401.9 					"/>
					<polygon class="st7" points="343.9,401.9 343.9,404.1 314.5,387.1 314.5,385 					"/>
					<path class="st7" d="M349.9,401.9v2.2c-1.9,0.9-4.1,0.9-6,0v-2.2C345.8,402.9,348,402.9,349.9,401.9z"/>
					<path class="st8" d="M379.1,381.5c1.7,0.9,1.7,2.5,0.1,3.5l-29.3,16.9c-1.9,1-4.1,1-6,0L314.5,385c-1.7-1-1.7-2.6,0-3.5
						l29.2-17c1.9-1,4.1-1,6,0L379.1,381.5z"/>
				</g>
				<path class="st8" d="M372.9,395.2c1.5-0.9,2.6-0.2,2.6,1.5c-0.1,1.8-1,3.5-2.6,4.5l-15.9,9.2c-1.5,0.8-2.6,0.2-2.7-1.5
					c0.1-1.8,1.1-3.5,2.6-4.5L372.9,395.2z M372.9,400.5c1.2-0.8,1.9-2.1,2-3.5c0-1.3-0.9-1.8-2-1.1l-15.9,9.2c-1.2,0.7-2,2.1-2,3.5
					c0,1.2,0.9,1.7,2,1.1L372.9,400.5"/>
				<path class="st8" d="M361.5,403.4c0.6-0.3,1.1,0,1.1,0.7c0,0.8-0.4,1.6-1.1,2.1c-0.7,0.3-1.2,0-1.2-0.7
					C360.3,404.6,360.8,403.9,361.5,403.4z"/>
				<path class="st8" d="M364.9,401.4c0.7-0.4,1.2-0.1,1.2,0.7c0,0.8-0.4,1.5-1.1,2c-0.7,0.4-1.2,0.1-1.2-0.6
					C363.8,402.7,364.2,401.9,364.9,401.4z"/>
				<path class="st8" d="M368.4,399.4c0.7-0.4,1.2-0.1,1.2,0.7c0,0.8-0.5,1.6-1.2,2c-0.6,0.4-1.1,0.1-1.1-0.6
					C367.3,400.7,367.7,399.9,368.4,399.4z"/>
				<path class="st8" d="M336.4,403.8c1.5,1,2.5,2.7,2.6,4.5c-0.1,1.7-1.2,2.3-2.7,1.5l-15.9-9.2c-1.6-1-2.5-2.7-2.6-4.5
					c0-1.7,1.1-2.4,2.6-1.5L336.4,403.8z M320.4,399.9l15.9,9.2c1.1,0.6,2,0.1,2-1.1c0-1.4-0.8-2.8-2-3.5l-15.9-9.2
					c-1.1-0.7-2-0.2-2,1.1C318.5,397.8,319.2,399.1,320.4,399.9"/>
				<path class="st8" d="M331.8,402.8c-0.6-0.3-1.1,0-1.1,0.7c0,0.8,0.4,1.6,1.1,2.1c0.7,0.3,1.2,0,1.2-0.7
					C333,404,332.5,403.3,331.8,402.8z"/>
				<path class="st8" d="M328.4,400.8c-0.7-0.4-1.2-0.1-1.2,0.7c0,0.8,0.4,1.6,1.1,2c0.7,0.4,1.2,0.1,1.2-0.6
					C329.5,402.1,329.1,401.3,328.4,400.8z"/>
				<path class="st8" d="M324.9,398.8c-0.7-0.4-1.2-0.1-1.2,0.7c0,0.8,0.5,1.6,1.2,2c0.6,0.4,1.1,0.1,1.1-0.6
					C326,400.1,325.6,399.3,324.9,398.8z"/>
				<g class="st11">
					<path class="st12" d="M377.8,375.3c2,1.1,2,3,0,4.2l-27.3,15.8c-2.2,1.2-5,1.2-7.2,0l-27.5-15.8c-2-1.2-2-3.1,0-4.2l27.3-15.9
						c2.3-1.2,4.9-1.2,7.2,0L377.8,375.3z"/>
				</g>
				<g class="st11">
					<path class="st12" d="M377.8,368.9c2,1.2,2,3.1,0,4.2L350.5,389c-2.3,1.2-4.9,1.2-7.2,0l-27.5-15.8c-2-1.2-2-3.1,0-4.3
						l27.3-15.8c2.3-1.2,4.9-1.2,7.2,0L377.8,368.9z"/>
				</g>
				<g class="st11">
					<path class="st12" d="M377.8,362.1c2,1.1,2,3,0,4.2l-27.3,15.8c-2.3,1.2-4.9,1.2-7.2,0l-27.5-15.8c-2-1.2-2-3.1,0-4.2
						l27.3-15.9c2.2-1.2,5-1.2,7.2,0L377.8,362.1z"/>
				</g>
				<path class="st6" d="M348,373h-0.3l-14.5-8.4c-0.1-0.1-0.2-0.2-0.2-0.4c0-0.2,0.1-0.4,0.2-0.4l14.4-8.4c0.1-0.1,0.4-0.1,0.5,0
					l14.5,8.4c0.1,0,0.2,0.2,0.2,0.4c0,0.2-0.1,0.3-0.2,0.4l-14.4,8.4H348z M334.5,364.1l13.4,7.8l13.4-7.8l-13.4-7.8L334.5,364.1z"
					/>
				<path class="st6" d="M348,370.4h-0.3l-14.5-8.4c-0.1,0-0.2-0.2-0.2-0.4c0-0.2,0.1-0.3,0.2-0.4l14.4-8.4h0.5l14.5,8.4
					c0.1,0.1,0.2,0.2,0.2,0.4c0,0.2-0.1,0.4-0.2,0.4l-14.4,8.4H348z M334.5,361.5l13.4,7.8l13.4-7.8l-13.4-7.8L334.5,361.5z"/>
				<path class="st6" d="M348,367.8h-0.3l-14.5-8.3c-0.1-0.1-0.2-0.3-0.2-0.5c0-0.2,0.1-0.3,0.2-0.4l14.4-8.4c0.1-0.1,0.4-0.1,0.5,0
					l14.5,8.4c0.1,0.1,0.2,0.2,0.2,0.4c0,0.2-0.1,0.4-0.2,0.5l-14.4,8.3H348z M334.5,358.9l13.4,7.8l13.4-7.8l-13.4-7.8L334.5,358.9
					z"/>
			</g>
		</g>
	</g>
</g>
<g id="Layer_2" class="st38">
	<g id="Layer_2_2_" class="st39">
		<rect x="-141.1" y="186.6" class="st1" width="68.7" height="134.6"/>
		<rect x="-141.1" y="18.2" class="st40" width="68.7" height="134.6"/>
		<rect x="-141.1" y="343.4" class="st17" width="68.7" height="134.6"/>
	</g>
</g>
</svg>
