<?xml version="1.0" encoding="utf-8"?>
<!-- Generator: Adobe Illustrator 24.0.0, SVG Export Plug-In . SVG Version: 6.00 Build 0)  -->
<svg version="1.1" xmlns="http://www.w3.org/2000/svg" xmlns:xlink="http://www.w3.org/1999/xlink" x="0px" y="0px"
	 viewBox="0 0 418.9 417.8" style="enable-background:new 0 0 418.9 417.8;" xml:space="preserve">
<style type="text/css">
	.st0{opacity:0.35;}
	.st1{fill:#19093B;}
	.st2{fill:#A80216;}
	.st3{fill:#7A0110;}
	.st4{fill:#D70010;}
	.st5{fill:#E5F5FF;}
	.st6{fill:#BFCFD9;}
	.st7{fill:#007291;}
	.st8{fill:#8C9CA6;}
	.st9{fill:#F4F4F4;}
	.st10{opacity:0.22;fill:#E5F5FF;enable-background:new    ;}
	.st11{opacity:0.18;fill:#E5F5FF;enable-background:new    ;}
	.st12{opacity:0.65;fill:#D70010;enable-background:new    ;}
	.st13{opacity:0.44;fill:#D70010;enable-background:new    ;}
	.st14{opacity:0.18;fill:#F2736A;enable-background:new    ;}
	.st15{opacity:0.64;fill:#D70010;enable-background:new    ;}
	.st16{opacity:0.24;fill:#D70010;enable-background:new    ;}
	.st17{fill:#101010;}
	.st18{fill:#FFFFFF;}
	.st19{opacity:0.46;}
	.st20{fill:#F2736A;}
	.st21{opacity:0.21;}
	.st22{opacity:0.43;}
	.st23{opacity:0.54;}
	.st24{display:none;}
	.st25{display:inline;}
</style>
<g id="Layer_1">
	<title>5</title>
	<g>
		<g id="Layer_2_1_">
			<g id="_ÎÓÈ_1">
				<g class="st0">
					<path class="st1" d="M379.4,298.5c7.4,4.3,7.4,11.2,0.1,15.5L206.4,414.6c-7.3,4.2-19.2,4.2-26.6,0L5.6,314
						c-7.4-4.3-7.4-11.2-0.1-15.5L178.6,198c7.3-4.3,19.2-4.3,26.6,0L379.4,298.5z"/>
				</g>
				<g>
					<path class="st2" d="M385,274v10.6c-0.1,2.8-1.9,5.5-5.5,7.7v-10.6C383.2,279.6,385,276.8,385,274z"/>
					<path class="st3" d="M0,284.5v-10.6c0,2.8,1.9,5.6,5.6,7.8v10.6C1.8,290.1,0,287.3,0,284.5z"/>
					<polygon class="st2" points="379.5,281.7 379.5,292.3 206.4,392.8 206.4,382.3 					"/>
					<polygon class="st3" points="179.8,382.3 179.8,392.8 5.6,292.3 5.6,281.7 					"/>
					<path class="st3" d="M179.8,382.3v10.5c1.9,1.1,4,2,6.2,2.4v-10.5C183.8,384.2,181.8,383.4,179.8,382.3z"/>
					<path class="st3" d="M186,384.7v10.5c1.6,0.4,3.2,0.6,4.8,0.7v-10.5C189.2,385.3,187.6,385,186,384.7z"/>
					<path class="st3" d="M190.8,385.4v10.5c1.9,0.2,3.9,0.1,5.8-0.1v-10.5C194.7,385.5,192.7,385.5,190.8,385.4z"/>
					<path class="st3" d="M196.6,385.3v10.5c1.7-0.1,3.3-0.4,4.9-0.9v-10.6C199.9,384.8,198.3,385.1,196.6,385.3z"/>
					<path class="st3" d="M206.4,382.3c-1.6,0.8-3.2,1.5-4.9,2v10.6c1.7-0.5,3.4-1.2,4.9-2.1V382.3z"/>
					<path class="st4" d="M379.4,266.3c7.4,4.2,7.4,11.1,0.1,15.4L206.4,382.3c-7.3,4.2-19.2,4.2-26.6,0L5.6,281.7
						c-7.4-4.3-7.4-11.2-0.1-15.4l173.1-100.6c7.3-4.3,19.2-4.3,26.6,0L379.4,266.3z"/>
				</g>
				<polygon points="354.8,274 193,368.1 30.1,274 192,180 				"/>
				<path class="st4" d="M193,357.3c-0.7,0-1.4-0.2-2-0.6L53.8,277.5c-1.3-0.7-2.1-2-2.1-3.5c0-1.4,0.8-2.8,2-3.5L190,191.3
					c1.2-0.7,2.8-0.7,4,0l137.2,79.3c1.3,0.7,2.1,2,2,3.5c0,1.4-0.8,2.7-2,3.4L195,356.7C194.4,357.1,193.7,357.3,193,357.3z
					 M63.8,274L193,348.5l128.1-74.4L192,199.5L63.8,274z"/>
				<g>
					<path class="st5" d="M290.6,13l4.4-2.6c-17.6,10.3-41.6,4.1-54.7-0.7c-2.4-0.9-4.5-0.8-6.1,0.2l-4.4,2.5c1.9-0.9,4.1-1,6.1-0.2
						C249,17,273,23.2,290.6,13z"/>
					<path class="st5" d="M306.3,0.8l-4.4,2.5c2.2-1.3,5.2-0.9,8.1,0.8l4.4-2.5C311.5-0.1,308.5-0.5,306.3,0.8z"/>
					<path class="st6" d="M310,4.1c-3.7-2.1-7.4-2.2-9.7,0.6c-17.2,21-48.6,13.3-64.4,7.5c-5.7-2-9.7,1.5-9.4,8.3
						c4.4,95.1,61.6,163.7,78.4,181.8c1.3,1.5,2.8,2.7,4.5,3.7c1.4,0.9,3,1.4,4.6,1.6c16.8,1.2,74.2-1.2,79.1-90.9
						c0.4-6.4-3.6-14.6-9.3-19c-15.7-12.5-47.1-41-64.2-81.9C317.7,11,314.4,6.9,310,4.1z"/>
					<path class="st5" d="M354.1,198.7l4.4-2.6c18.6-10.7,36.4-33.7,39-82c0.4-6.4-3.6-14.5-9.3-19c-15.7-12.5-47.1-40.9-64.2-81.9
						c-2.2-5.3-5.9-9.5-9.6-11.6L310,4.1c4.4,2.8,7.7,6.9,9.6,11.7c17.1,40.9,48.5,69.4,64.2,81.9c5.7,4.4,9.7,12.6,9.3,19
						C390.5,164.9,372.7,187.9,354.1,198.7z"/>
				</g>
				<path class="st5" d="M309.8,87.5c-1.6-0.9-3.1-1-4.1-0.4s-1.7,1.9-1.8,3.8c0.1,2,0.7,4,1.7,5.7c0.8,1.3,1.8,2.5,3,3.5v-0.8
					c-0.1-0.4,0.2-0.7,0.6-0.8c0.2,0,0.5,0,0.6,0.2c0.7,0.4,1.2,1.2,1.2,2v0.8c1,0.3,2,0.3,2.9-0.2c1.2-0.8,1.8-2.3,1.7-3.7
					l-1.2-0.7l-1.2-0.7c0.1,0.9-0.3,1.7-1,2.2c-0.8,0.4-1.7,0.4-2.4-0.2c-1-0.6-1.9-1.5-2.5-2.6c-0.6-1-0.9-2.2-1-3.4
					c-0.1-0.9,0.3-1.7,1-2.2c0.8-0.4,1.8-0.3,2.5,0.2c1,0.7,1.8,1.6,2.4,2.6c0.7,1,1,2.2,1,3.4l1.2,0.7l1.2,0.7
					c-0.1-2-0.7-4-1.7-5.7C312.9,90.1,311.5,88.6,309.8,87.5z"/>
				<path class="st3" d="M306.3,92.2c0.1,1.2,0.4,2.4,1,3.4c0.6,1.1,1.5,2,2.5,2.6c0.7,0.6,1.6,0.6,2.4,0.2c0.7-0.5,1.1-1.3,1-2.2
					c0-1.2-0.3-2.4-1-3.4c-0.6-1-1.4-1.9-2.4-2.6c-0.7-0.5-1.7-0.6-2.5-0.2C306.6,90.5,306.2,91.3,306.3,92.2z"/>
				<path class="st3" d="M310,13c-1.4-0.8-2.5-0.1-2.5,1.5c0.1,1.7,1,3.3,2.5,4.2c0.6,0.6,1.6,0.5,2.1-0.1c0.3-0.4,0.5-0.9,0.4-1.3
					C312.4,15.5,311.5,13.9,310,13z"/>
				<g>
					<path class="st5" d="M325.8,125.3c-0.3-0.1-0.6-0.2-0.8,0l-0.7,0.3l-8.4,4.8c-0.3,0.2-0.4,0.5-0.4,0.8V179c0,0.8,0.5,1.6,1.2,2
						c0.6,0.4,1.1,0.1,1.1-0.6v-47.3l8.2-4.7l0.5-0.3c0.5-0.2,0.5-1.1,0-1.9C326.3,125.8,326.1,125.5,325.8,125.3z"/>
					<path class="st5" d="M328.9,117.5c-1.6-0.9-3-1-4.1-0.4c-1.2,0.9-1.8,2.3-1.7,3.8c0.1,1.6,0.5,3.2,1.2,4.7l0.7-0.3
						c0.2-0.2,0.5-0.1,0.8,0c0.3,0.2,0.6,0.5,0.8,0.9c0.5,0.8,0.5,1.7,0,1.9l-0.5,0.3c0.8,1,1.7,1.9,2.8,2.5c1.6,0.9,3.1,1,4.1,0.4
						s1.7-1.9,1.7-3.7l-1.1-0.7l-1.2-0.7c0.1,0.9-0.3,1.7-1,2.3c-0.8,0.3-1.8,0.2-2.5-0.3c-1-0.6-1.8-1.5-2.4-2.6
						c-0.7-1-1-2.2-1-3.4c-0.1-0.9,0.3-1.7,1-2.2c0.8-0.4,1.7-0.3,2.4,0.2c1,0.6,1.9,1.5,2.5,2.6c0.6,1,0.9,2.2,1,3.4l1.2,0.7
						l1.1,0.7c0-2-0.6-4-1.6-5.7C332,120.1,330.6,118.6,328.9,117.5z"/>
				</g>
				<path class="st5" d="M309.8,98.7c-0.3-0.3-0.7-0.3-1,0c-0.2,0.2-0.3,0.4-0.2,0.6v0.8l-0.2,77.2v2.2c0,0.8,0.4,1.5,1.1,2
					c0.4,0.2,0.6,0.3,0.8,0.2c0.3-0.1,0.5-0.5,0.5-0.8v-2.3l0.2-77.1v-0.8C311,99.9,310.5,99.1,309.8,98.7z"/>
				<g>
					<path class="st7" d="M309.5,196.1c-1.4-0.8-2.5-0.2-2.5,1.4c0.1,1.8,1,3.4,2.5,4.3c1.3,0.8,2.4,0.1,2.4-1.4
						C311.8,198.7,310.9,197.1,309.5,196.1z"/>
					<path class="st5" d="M293.8,106.9c-0.2-0.2-0.5-0.2-0.8-0.1c-0.5,0.3-0.5,1.1,0,1.9l0.5,1l8.2,14.1l-0.2,44.9v2.4
						c0,0.8,0.5,1.6,1.2,2c0.6,0.4,1.2,0.1,1.2-0.7v-47.8c0-0.4-0.1-0.8-0.3-1.2l-8.4-14.5l-0.7-1.1
						C294.3,107.4,294.1,107.1,293.8,106.9z"/>
					<path class="st5" d="M290.7,95.5c-1.6-0.9-3-1-4.1-0.4s-1.7,1.9-1.7,3.8l1.2,0.6l1.1,0.7c-0.1-0.9,0.3-1.8,1.1-2.2
						c0.8-0.4,1.7-0.3,2.4,0.2c1,0.7,1.9,1.5,2.5,2.6c0.6,1,0.9,2.2,1,3.4c0.1,0.9-0.3,1.8-1.1,2.2c-0.8,0.4-1.7,0.3-2.4-0.2
						c-1-0.7-1.9-1.5-2.5-2.6c-0.6-1-0.9-2.2-1-3.4l-1.1-0.7l-1.2-0.6c0.1,2,0.7,4,1.7,5.7c1,1.8,2.4,3.3,4.1,4.3
						c0.8,0.5,1.8,0.8,2.8,0.8l-0.5-1c-0.5-0.8-0.5-1.6,0-1.9c0.3-0.1,0.6-0.1,0.8,0.1c0.3,0.2,0.6,0.5,0.8,0.9l0.7,1.1
						c0.9-0.9,1.3-2.1,1.2-3.3c0-2-0.6-4-1.7-5.7C293.9,98.1,292.4,96.6,290.7,95.5z"/>
					<path class="st4" d="M377.5,112.5c-2.4,32.3-12.8,54.8-30.8,67.2c-14.3,9.7-29.8,10.5-37.2,10.1c-14.4-16.2-26.8-34-37-53
						c-17.9-33.1-28.2-67.5-30.4-102.5c18.6,6.3,48.5,11.8,67.9-7.1C329.1,68.3,358.9,97.3,377.5,112.5z M277.2,134.6
						c8.9,16.6,19.6,32.2,31.8,46.5l0.6,0.5c0.3,0.1,0.5,0.2,0.7,0.1c11.3,0,22.3-3.4,31.7-9.7c15.7-10.7,25.3-29.8,28.5-56.6
						c0-0.8-0.3-1.5-0.9-2c-10.7-9.4-20.7-19.5-29.9-30.4c-11.1-13.1-20.7-27.4-28.9-42.5c-0.2-0.4-0.5-0.7-0.9-0.9
						c-0.3-0.2-0.6-0.2-0.9-0.1c-8.7,6.1-18.8,8.6-29,9s-20.7-1.6-30-4.2c-0.6-0.2-1,0.3-0.9,1C252.2,75.7,261.6,105.8,277.2,134.6"
						/>
					<path class="st5" d="M273.1,103.3v-9l1.2,0.8l1.1,0.6v8.4l15.6,27.1c0.2,0.3,0.4,0.7,0.4,1.1v22.3c0,0.7-0.5,1-1.2,0.6
						c-0.7-0.4-1.1-1.2-1.1-2v-21.7l-15.6-27C273.3,104.1,273.1,103.7,273.1,103.3z"/>
					<path class="st3" d="M270.8,86.4c0,1.2,0.4,2.4,1,3.4c0.6,1.1,1.5,2,2.5,2.6c0.7,0.5,1.6,0.6,2.4,0.3c0.8-0.5,1.2-1.4,1.1-2.3
						c-0.1-1.2-0.4-2.4-1-3.4c-0.6-1.1-1.5-1.9-2.5-2.6c-0.7-0.5-1.7-0.6-2.5-0.2C271.1,84.7,270.7,85.5,270.8,86.4z"/>
					<path class="st5" d="M274.3,81.8c-1.6-1-3.1-1.1-4.1-0.5s-1.7,1.9-1.7,3.8l1.1,0.7l1.2,0.6c-0.1-0.9,0.3-1.7,1-2.2
						c0.8-0.4,1.8-0.3,2.5,0.2c1,0.7,1.9,1.5,2.5,2.6c0.6,1,0.9,2.2,1,3.4c0.1,0.9-0.3,1.8-1.1,2.3c-0.8,0.3-1.7,0.2-2.4-0.3
						c-1-0.6-1.9-1.5-2.5-2.6c-0.6-1-1-2.2-1-3.4l-1.2-0.6l-1.1-0.7c0.1,2,0.6,4,1.7,5.7c0.7,1.3,1.7,2.5,2.9,3.5l1.2,0.8l1.1,0.6
						c1,0.4,2.1,0.3,3-0.2c1.2-0.8,1.8-2.3,1.7-3.7C279.9,87.7,277.7,84,274.3,81.8L274.3,81.8z"/>
					<path class="st3" d="M290.7,106.2c0.7,0.5,1.6,0.6,2.4,0.3c0.8-0.5,1.2-1.4,1.1-2.3c-0.1-1.2-0.4-2.4-1-3.4
						c-0.6-1.1-1.5-1.9-2.5-2.6c-0.7-0.5-1.6-0.6-2.4-0.2c-0.8,0.4-1.2,1.3-1.1,2.2c0.1,1.2,0.4,2.4,1,3.4
						C288.8,104.7,289.7,105.5,290.7,106.2z"/>
					<path class="st3" d="M331.4,122.8c-0.6-1.1-1.5-2-2.5-2.6c-0.7-0.5-1.6-0.6-2.4-0.2c-0.7,0.5-1.1,1.3-1,2.2
						c0,1.2,0.3,2.4,1,3.4c0.6,1.1,1.4,2,2.4,2.6c0.7,0.5,1.7,0.6,2.5,0.3c0.7-0.6,1.1-1.4,1-2.3C332.3,125,332,123.8,331.4,122.8z"
						/>
					<path class="st5" d="M346.5,136.6l-1.2-0.5l-1.1-0.8v8.5l-15.7,8.9c-0.2,0.1-0.3,0.4-0.3,0.8v22.2c0,0.8,0.5,1.6,1.2,2
						c0.3,0.3,0.7,0.3,1,0c0.2-0.2,0.3-0.4,0.2-0.6v-21.7l15.7-9c0.3-0.1,0.4-0.4,0.4-0.7L346.5,136.6z"/>
					<path class="st3" d="M341.9,127.4c0.1,1.2,0.4,2.4,1,3.4c0.6,1.1,1.4,2,2.4,2.6c0.7,0.5,1.7,0.6,2.5,0.3c0.7-0.6,1.1-1.4,1-2.3
						c0-1.2-0.3-2.4-1-3.4c-0.6-1-1.4-1.9-2.4-2.6c-0.7-0.5-1.7-0.6-2.5-0.2C342.2,125.7,341.8,126.5,341.9,127.4z"/>
					<path class="st5" d="M345.4,122.7c-1.6-0.9-3.1-1-4.1-0.4s-1.8,1.9-1.8,3.8c0.1,2,0.7,4,1.7,5.7c0.8,1.3,1.8,2.5,3,3.5l1.1,0.8
						l1.2,0.5c1,0.4,2.1,0.4,3-0.1c1.2-0.8,1.8-2.3,1.7-3.7l-1.2-0.7l-1.2-0.7c0.1,0.9-0.3,1.7-1,2.3c-0.8,0.3-1.8,0.2-2.5-0.3
						c-1-0.6-1.8-1.5-2.4-2.6c-0.6-1-0.9-2.2-1-3.4c-0.1-0.9,0.3-1.7,1-2.2c0.8-0.4,1.8-0.3,2.5,0.2c1,0.7,1.8,1.6,2.4,2.6
						c0.7,1,1,2.2,1,3.4l1.2,0.7l1.2,0.7c-0.1-2-0.7-4-1.7-5.7C348.5,125.3,347.1,123.8,345.4,122.7z"/>
					<path class="st4" d="M309.9,42.9c-8.7,5.8-18.7,8.2-28.8,8.6c-10,0.2-19.9-1.2-29.5-4c3.1,29.6,12.3,58.5,27.4,86.3
						c3.3,6.1,6.7,11.8,10,17v-19.3l-15.6-27c-0.2-0.4-0.3-0.8-0.3-1.2v-9c-1.2-1-2.2-2.2-2.9-3.5c-1.1-1.7-1.6-3.7-1.7-5.7
						c0-1.9,0.6-3.2,1.7-3.8s2.5-0.5,4.1,0.5c3.4,2.2,5.6,5.9,5.8,10c0.1,1.4-0.5,2.9-1.7,3.7c-0.9,0.5-2,0.6-3,0.2v8.4l15.6,27.1
						c0.2,0.3,0.4,0.7,0.4,1.1v22.1c3.6,5.4,7.1,10.2,10.2,14.3l0.2-44.9l-8.2-14.1c-1,0-2-0.3-2.8-0.8c-1.7-1-3.1-2.5-4.1-4.3
						c-1-1.7-1.6-3.7-1.7-5.7c0-1.9,0.6-3.2,1.7-3.8s2.5-0.5,4.1,0.4c1.7,1.1,3.1,2.6,4.1,4.4c1.1,1.7,1.7,3.7,1.7,5.7
						c0.1,1.2-0.3,2.4-1.2,3.3l8.4,14.5c0.2,0.4,0.3,0.8,0.3,1.2v47.1c1.6,2.1,3.1,4,4.5,5.6l0.2-77.2c-1.2-1-2.2-2.2-3-3.5
						c-1-1.7-1.6-3.7-1.7-5.7c0.1-1.9,0.7-3.2,1.8-3.8s2.5-0.5,4.1,0.4c1.7,1.1,3.1,2.6,4.1,4.4c1,1.7,1.6,3.7,1.7,5.7
						c0.1,1.4-0.5,2.9-1.7,3.7c-0.9,0.5-1.9,0.5-2.9,0.2l-0.2,77.1l4.6-0.3v-47.1c0-0.3,0.1-0.6,0.4-0.8l8.4-4.8
						c-0.7-1.5-1.1-3.1-1.2-4.7c-0.1-1.5,0.5-2.9,1.7-3.8c1.1-0.6,2.5-0.5,4.1,0.4c1.7,1.1,3.1,2.6,4.2,4.4c1,1.7,1.6,3.7,1.6,5.7
						c0,1.8-0.6,3.1-1.7,3.7s-2.5,0.5-4.1-0.4c-1.1-0.6-2-1.5-2.8-2.5l-8.2,4.7v44.8c3.5-0.5,6.9-1.4,10.2-2.5v-21.9
						c0-0.4,0.1-0.7,0.3-0.8l15.7-8.9v-8.5c-1.2-1-2.2-2.2-3-3.5c-1-1.7-1.6-3.7-1.7-5.7c0-1.9,0.7-3.2,1.8-3.8s2.5-0.5,4.1,0.4
						c1.7,1.1,3.1,2.6,4.1,4.4c1,1.7,1.6,3.7,1.7,5.7c0.1,1.4-0.5,2.9-1.7,3.7c-0.9,0.5-2,0.5-3,0.1v9.1c0,0.3-0.1,0.6-0.4,0.7
						l-15.7,9v19.1c3.4-1.4,6.7-3.2,9.8-5.3c15.2-10.4,24.5-28.6,27.8-54.4c-10.5-9.3-20.3-19.4-29.4-30.1
						C327.7,71.8,318.1,57.8,309.9,42.9z"/>
					<path class="st5" d="M309.9,39.6c-0.3-0.2-0.6-0.2-0.9-0.1c-8.7,6.1-18.8,8.6-29,9s-20.7-1.6-30-4.2c-0.6-0.2-1,0.3-0.9,1
						c3.1,30.4,12.5,60.5,28.1,89.3c8.9,16.6,19.6,32.2,31.8,46.5l0.5,0.4c-0.7-0.5-1.1-1.2-1.1-2v-2.2c-1.4-1.6-2.9-3.5-4.5-5.6
						v0.7c0,0.8-0.6,1.1-1.2,0.7c-0.7-0.4-1.2-1.2-1.2-2v-2.4c-3.1-4.1-6.6-8.9-10.2-14.3c0,0.9-0.5,1.2-1.2,0.8
						c-0.7-0.4-1.1-1.2-1.1-2v-2.4c-3.3-5.2-6.7-10.9-10-17c-15.1-27.8-24.3-56.7-27.4-86.3c9.6,2.8,19.5,4.2,29.5,4
						c10.1-0.4,20.1-2.8,28.8-8.6c8.2,14.9,17.8,28.9,28.7,41.8c9.1,10.7,18.9,20.8,29.4,30.1c-3.3,25.8-12.6,44-27.8,54.4
						c-3.1,2.1-6.4,3.9-9.8,5.3v2.6c0.1,0.4-0.2,0.7-0.6,0.8c-0.2,0-0.5,0-0.6-0.2c-0.7-0.4-1.2-1.2-1.2-2c-3.6,0.9-7,1.7-10.2,2.2
						v2.5c0,0.7-0.5,1-1.1,0.6c-0.7-0.4-1.2-1.2-1.2-2v-0.7l-4.6,0.3v2.3c0,0.3-0.2,0.7-0.5,0.8c11.3-0.1,22.2-3.4,31.6-9.7
						c15.7-10.7,25.3-29.8,28.5-56.6c0-0.8-0.3-1.5-0.9-2c-10.7-9.4-20.7-19.5-29.9-30.4c-11.1-13.1-20.7-27.4-28.9-42.5
						C310.6,40.1,310.3,39.8,309.9,39.6z"/>
				</g>
				<g>
					<path class="st6" d="M360.1,218.5v7.9c0,2.1-1.4,4.3-4.2,5.9v-7.9C358.7,222.8,360.1,220.7,360.1,218.5z"/>
					<path class="st8" d="M88.4,265v-7.8c0,2.1,1.4,4.3,4.3,6v7.8C89.8,269.4,88.4,267.2,88.4,265z"/>
					<polygon class="st6" points="355.9,224.4 355.9,232.3 201.5,322 201.5,314.1 					"/>
					<polygon class="st8" points="181,314.1 181,322 92.6,271 92.7,263.2 					"/>
					<path class="st8" d="M187.9,316.4l-2.8-0.6v7.9l2.8,0.5V316.4z"/>
					<path class="st8" d="M181,314.1v7.9c1.3,0.7,2.7,1.3,4.1,1.7v-7.9C183.6,315.5,182.3,314.9,181,314.1z"/>
					<path class="st6" d="M187.9,316.4v7.8c1.7,0.3,3.3,0.3,5,0.2v-7.8C191.2,316.7,189.6,316.6,187.9,316.4z"/>
					<path class="st8" d="M196.7,316c-1.2,0.3-2.5,0.5-3.8,0.6v7.8c1.3-0.1,2.6-0.3,3.8-0.6V316z"/>
					<path class="st6" d="M201.5,314.1c-1.5,0.9-3.1,1.5-4.8,1.9v7.8c1.7-0.4,3.3-1,4.8-1.8V314.1z"/>
					<path class="st5" d="M355.8,212.5c5.7,3.3,5.7,8.6,0.1,11.9l-154.4,89.7c-5.7,3.3-14.8,3.3-20.5,0l-88.3-50.9
						c-5.7-3.3-5.7-8.6-0.1-11.9L247,161.6c5.6-3.3,14.8-3.3,20.5,0L355.8,212.5z"/>
				</g>
				<path d="M351.1,214.2c3.1,1.8,3.1,4.7,0.1,6.5l-154.4,89.7c-3.5,1.8-7.6,1.8-11.1,0l-88.4-51c-3-1.8-3.1-4.7,0-6.4l154.4-89.8
					c3.5-1.7,7.6-1.7,11.1,0L351.1,214.2z"/>
				<path class="st5" d="M300.1,189.9c1.6,0.9,1.6,2.5,0,3.4c-1.9,0.9-4,0.9-5.9,0c-1.7-0.9-1.7-2.5,0-3.4
					C296,188.9,298.3,188.9,300.1,189.9z"/>
				<path class="st5" d="M19,135.1c2-1.2,3.6-0.3,3.6,2c-0.1,1.8-0.8,3.5-2,4.8c2.7-0.8,4.7,0.9,4.7,4.2l-12.5,7.2
					c0.2-3.7,1.9-7.2,4.7-9.6c-1.2,0-2-0.9-2-2.5C15.6,138.7,16.9,136.5,19,135.1z"/>
				<path class="st4" d="M19,131.3c5.8-3.4,10.4-0.7,10.5,5.9s-4.7,14.7-10.4,18s-10.5,0.7-10.5-5.9S13.3,134.6,19,131.3z
					 M12.8,153.3l12.5-7.2c0-3.3-2-5-4.7-4.2c1.2-1.3,1.9-3,2-4.8c0-2.3-1.6-3.2-3.6-2c-2.1,1.4-3.4,3.6-3.5,6.1
					c0,1.6,0.8,2.5,2,2.5C14.7,146.1,13,149.6,12.8,153.3"/>
				<path class="st4" d="M49.8,124.7c0.7-0.4,1.2-0.1,1.2,0.7c0,0.9-0.5,1.6-1.2,2.1l-15.6,9c-0.6,0.4-1.2,0.1-1.2-0.7
					c0.1-0.8,0.5-1.6,1.2-2.1L49.8,124.7z"/>
				<path class="st4" d="M62,117.6c0.7-0.3,1.2,0,1.2,0.7c0,0.9-0.4,1.7-1.2,2.2l-7,4c-0.7,0.4-1.2,0.1-1.2-0.7
					c0-0.9,0.5-1.6,1.2-2.1L62,117.6z"/>
				<path class="st4" d="M77.8,108.5c0.7-0.4,1.2,0,1.2,0.7c0,0.9-0.5,1.7-1.2,2.2l-10.7,6.1c-0.7,0.4-1.3,0.1-1.3-0.7
					c0.1-0.9,0.6-1.6,1.3-2.1L77.8,108.5z"/>
				<path class="st9" d="M71.9,96.6c8.1-4.7,14.6-0.9,14.6,8.3S80.1,125.4,72,130l-53.6,31c-8,4.6-14.5,0.9-14.6-8.3
					s6.5-20.5,14.5-25.2L71.9,96.6z M19.1,155.2c5.7-3.3,10.4-11.4,10.4-18s-4.7-9.3-10.5-5.9s-10.4,11.3-10.4,18
					S13.3,158.5,19.1,155.2 M49.8,127.5c0.7-0.5,1.2-1.2,1.2-2.1c0-0.8-0.5-1.1-1.2-0.7l-15.6,9c-0.7,0.5-1.1,1.3-1.2,2.1
					c0,0.8,0.6,1.1,1.2,0.7L49.8,127.5 M77.8,111.4c0.7-0.5,1.2-1.3,1.2-2.2c0-0.7-0.5-1.1-1.2-0.7l-10.7,6.2
					c-0.7,0.5-1.2,1.2-1.3,2.1c0,0.8,0.6,1.1,1.3,0.7L77.8,111.4 M62,120.5c0.8-0.5,1.2-1.3,1.2-2.2c0-0.7-0.5-1-1.2-0.7l-7,4.1
					c-0.7,0.5-1.2,1.2-1.2,2.1c0,0.8,0.5,1.1,1.2,0.7L62,120.5"/>
				<path class="st5" d="M19,177c2-1.1,3.6-0.2,3.6,2.1c-0.1,1.8-0.8,3.5-2,4.8c2.7-0.8,4.7,0.9,4.7,4.2l-12.5,7.2
					c0.2-3.7,1.9-7.2,4.7-9.6c-1.2,0-2-0.9-2-2.5C15.6,180.7,16.9,178.4,19,177z"/>
				<path class="st4" d="M19,173.3c5.8-3.4,10.4-0.7,10.5,5.9s-4.7,14.7-10.4,18s-10.5,0.7-10.5-6S13.3,176.6,19,173.3z M12.8,195.3
					l12.5-7.2c0-3.3-2-5-4.7-4.2c1.2-1.3,1.9-3,2-4.8c0-2.3-1.6-3.2-3.6-2.1c-2.1,1.4-3.4,3.7-3.5,6.2c0,1.6,0.8,2.5,2,2.5
					C14.7,188.1,13,191.6,12.8,195.3"/>
				<path class="st4" d="M49.8,166.7c0.7-0.4,1.2-0.1,1.2,0.7c0,0.9-0.5,1.6-1.2,2.1l-15.6,9c-0.6,0.4-1.2,0.1-1.2-0.7
					c0.1-0.8,0.5-1.6,1.2-2.1L49.8,166.7z"/>
				<path class="st4" d="M62,159.6c0.7-0.4,1.2-0.1,1.2,0.7c0.1,0.9-0.4,1.7-1.2,2.1l-7,4.1c-0.7,0.4-1.2,0.1-1.2-0.7
					c0-0.9,0.5-1.6,1.2-2.1L62,159.6z"/>
				<path class="st4" d="M77.8,150.5c0.7-0.4,1.2-0.1,1.2,0.7c0,0.9-0.5,1.6-1.2,2.1l-10.7,6.2c-0.7,0.4-1.3,0.1-1.3-0.7
					c0.1-0.9,0.6-1.6,1.3-2.1L77.8,150.5z"/>
				<path class="st9" d="M71.9,138.6c8.1-4.7,14.6-1,14.6,8.3S80.1,167.4,72,172l-53.6,31c-8,4.6-14.5,0.9-14.6-8.4
					s6.5-20.4,14.5-25.1L71.9,138.6z M19.1,197.2c5.7-3.3,10.4-11.4,10.4-18s-4.7-9.3-10.5-5.9S8.6,184.6,8.6,191.2
					S13.3,200.5,19.1,197.2 M49.8,169.5c0.7-0.5,1.2-1.2,1.2-2.1c0-0.8-0.5-1.1-1.2-0.7l-15.6,9c-0.7,0.5-1.1,1.3-1.2,2.1
					c0,0.8,0.6,1.1,1.2,0.7L49.8,169.5 M77.8,153.3c0.7-0.5,1.2-1.2,1.2-2.1c0-0.8-0.5-1.1-1.2-0.7l-10.7,6.2
					c-0.7,0.5-1.2,1.2-1.3,2.1c0,0.8,0.6,1.1,1.3,0.7L77.8,153.3 M62,162.4c0.8-0.4,1.3-1.2,1.2-2.1c0-0.8-0.5-1.1-1.2-0.7l-7,4.1
					c-0.7,0.5-1.2,1.2-1.2,2.1c0,0.8,0.5,1.1,1.2,0.7L62,162.4"/>
				<path class="st5" d="M19,219c2-1.1,3.6-0.2,3.6,2.1c-0.1,1.8-0.8,3.5-2,4.8c2.7-0.8,4.7,0.9,4.7,4.2l-12.5,7.2
					c0.2-3.7,1.9-7.2,4.7-9.6c-1.2,0-2-0.9-2-2.6C15.7,222.6,17,220.4,19,219z"/>
				<path class="st4" d="M19,215.2c5.8-3.3,10.4-0.6,10.5,6s-4.7,14.7-10.4,18s-10.5,0.6-10.5-6S13.3,218.6,19,215.2z M12.8,237.3
					l12.5-7.2c0-3.3-2-5-4.7-4.2c1.2-1.3,1.9-3,2-4.8c0-2.3-1.6-3.2-3.6-2.1c-2,1.4-3.3,3.6-3.5,6.1c0,1.7,0.8,2.6,2,2.6
					C14.7,230.1,13,233.6,12.8,237.3"/>
				<path class="st4" d="M49.8,208.7c0.7-0.4,1.2-0.1,1.2,0.7c0,0.9-0.5,1.6-1.2,2.1l-15.6,9c-0.2,0.3-0.7,0.4-1,0.1
					c-0.3-0.2-0.3-0.5-0.2-0.8c0-0.9,0.5-1.6,1.2-2.1L49.8,208.7z"/>
				<path class="st4" d="M62,201.6c0.7-0.4,1.2-0.1,1.2,0.7c0,0.9-0.5,1.7-1.2,2.1l-7,4.1c-0.7,0.4-1.2,0.1-1.2-0.7
					c0-0.9,0.5-1.6,1.2-2.1L62,201.6z"/>
				<path class="st4" d="M77.8,192.5c0.7-0.4,1.2-0.1,1.2,0.7c0,0.9-0.5,1.6-1.2,2.1l-10.7,6.2c-0.7,0.4-1.3,0.1-1.3-0.7
					c0.1-0.9,0.6-1.7,1.3-2.1L77.8,192.5z"/>
				<path class="st9" d="M71.9,180.5c8.1-4.6,14.6-0.9,14.6,8.4S80.1,209.3,72,214l-53.6,30.9c-8,4.7-14.5,1-14.6-8.3
					s6.5-20.5,14.5-25.1L71.9,180.5z M19.1,239.2c5.7-3.3,10.4-11.4,10.4-18s-4.7-9.3-10.5-6s-10.4,11.4-10.4,18
					S13.3,242.5,19.1,239.2 M49.8,211.5c0.7-0.5,1.2-1.2,1.2-2.1c0-0.8-0.5-1.1-1.2-0.7l-15.6,9c-0.7,0.5-1.2,1.2-1.2,2.1
					c-0.2,0.4,0,0.8,0.4,0.9c0.3,0.1,0.6,0,0.8-0.2L49.8,211.5 M77.8,195.3c0.7-0.5,1.2-1.2,1.2-2.1c0-0.8-0.5-1.1-1.2-0.7
					l-10.7,6.2c-0.7,0.4-1.2,1.2-1.3,2.1c0,0.8,0.6,1.1,1.3,0.7L77.8,195.3 M62,204.4c0.7-0.4,1.2-1.2,1.2-2.1
					c0-0.8-0.5-1.1-1.2-0.7l-7,4.1c-0.7,0.5-1.2,1.2-1.2,2.1c0,0.8,0.5,1.1,1.2,0.7L62,204.4"/>
				<path class="st10" d="M299.3,213.9l-89.4-51.6c-3-1.5-6.7-1.5-9.7,0l-50.8,29.5c-2.7,1.6-2.6,4.1,0,5.6l89.4,51.6
					c3,1.6,6.7,1.6,9.7,0l50.8-29.5C302,217.9,301.9,215.4,299.3,213.9z M240.7,199.7l-0.9-0.2l0,0L240.7,199.7z M235.9,197.2
					L235.9,197.2l-0.2-0.2L235.9,197.2z M218.7,197.5c0,0.4-0.1,0.7-0.1,1.1S218.7,197.9,218.7,197.5L218.7,197.5z M185.3,193.4
					L185.3,193.4c-0.3,0.2-0.6,0.4-0.7,0.8C184.7,193.8,185,193.6,185.3,193.4L185.3,193.4z M170.1,199.9c-1.1-0.8-1.4-1.9-0.7-2.8
					C168.7,198,169,199.1,170.1,199.9L170.1,199.9z M233.2,237.5l-63.8-36.8c-2.4-1.4-2.5-3.7,0-5.1l0,0c-2.5,1.4-2.4,3.7,0,5.1
					L233.2,237.5c1.9,1,4.2,1.3,6.3,0.9C237.4,238.8,235.1,238.5,233.2,237.5L233.2,237.5z M177.1,196.2c-1.4-0.7-2.9-0.9-4.4-0.7
					C174.2,195.3,175.7,195.5,177.1,196.2l63.8,36.8L177.1,196.2z M223,215.9l0.8-0.3c0.2-0.1,0.3-0.3,0.4-0.4s-0.2,0.3-0.4,0.4
					L223,215.9z M227.1,219.3L227.1,219.3l2.2,1.3L227.1,219.3z M243.8,227.2c-0.9,0.4-1.9,0.5-2.8,0.2
					C241.9,227.7,242.9,227.6,243.8,227.2c0.4-0.1,0.7-0.5,0.7-0.9C244.5,226.7,244.2,227.1,243.8,227.2L243.8,227.2z M224.2,206.3
					c-3.7-2.1-5.6-4.8-5.6-7.6C218.6,201.5,220.5,204.2,224.2,206.3c6.3,3.7,16.2,4.2,23.4,1.5C240.4,210.5,230.5,210,224.2,206.3
					L224.2,206.3z M252,205.4c0.8-0.6,1.6-1.2,2.2-2C253.6,204.2,252.8,204.8,252,205.4z"/>
				<path class="st11" d="M299.3,223l-89.4-51.6c-3-1.6-6.7-1.6-9.7,0l-50.8,29.5c-2.7,1.6-2.6,4.1,0,5.6l89.4,51.6
					c3,1.6,6.7,1.6,9.7,0l50.8-29.5C302,227,301.9,224.5,299.3,223z M240.7,208.7L240.7,208.7z M235.9,206.3L235.9,206.3l-0.2-0.2
					L235.9,206.3z M218.7,206.6c0,0.4-0.1,0.7-0.1,1.1S218.7,207,218.7,206.6L218.7,206.6z M185.3,202.5L185.3,202.5
					c-0.3,0.1-0.6,0.4-0.7,0.7C184.7,202.9,185,202.6,185.3,202.5L185.3,202.5z M170.1,209c-1.1-0.8-1.4-1.9-0.7-2.8
					C168.7,207.1,169,208.2,170.1,209z M233.2,246.6l-63.8-36.8c-2.4-1.4-2.5-3.7,0-5.1l0,0c-2.5,1.4-2.4,3.7,0,5.1L233.2,246.6
					c1.9,1,4.2,1.3,6.3,0.9C237.4,247.9,235.1,247.6,233.2,246.6L233.2,246.6z M177.1,205.3c-1.3-0.7-2.9-1-4.4-0.8
					C174.2,204.3,175.8,204.6,177.1,205.3l63.8,36.8L177.1,205.3z M223,225l0.8-0.3l0.4-0.4l-0.4,0.4L223,225z M227.1,228.4
					L227.1,228.4l2.2,1.3L227.1,228.4z M243.8,236.3c-0.9,0.4-1.9,0.5-2.8,0.1C241.9,236.8,242.9,236.7,243.8,236.3
					c0.5-0.3,0.7-0.6,0.7-0.9S244.3,236,243.8,236.3L243.8,236.3z M224.2,215.4c-3.7-2.1-5.6-4.9-5.6-7.6
					C218.6,210.5,220.5,213.3,224.2,215.4c6.3,3.7,16.2,4.2,23.4,1.4C240.4,219.6,230.5,219.1,224.2,215.4z M252,214.5
					c0.8-0.6,1.6-1.2,2.2-2C253.6,213.3,252.8,213.9,252,214.5z"/>
				<path class="st5" d="M246.3,183.6c2.5,1.4,2.5,3.8,0,5.2c-2,1-4.3,1.3-6.5,0.9c2.5,2.5,2,5.7-1.7,7.9l-15.9-9.2
					c3.7-2.2,9.3-2.5,13.6-1c-0.8-1.3-0.3-2.8,1.5-3.8C240.1,182.1,243.5,182.1,246.3,183.6z"/>
				<g>
					<path class="st4" d="M250.5,181.2c7.3,4.2,7.3,11,0,15.3s-19.1,4.2-26.4,0s-7.4-11.1-0.1-15.3S243.1,176.9,250.5,181.2z
						 M222.2,188.4l15.9,9.2c3.7-2.2,4.2-5.4,1.7-7.9c2.2,0.4,4.5,0.1,6.5-0.9c2.5-1.4,2.5-3.8,0-5.2c-2.8-1.5-6.2-1.5-9,0
						c-1.8,1-2.3,2.5-1.5,3.8C231.5,185.9,225.9,186.2,222.2,188.4"/>
					<path class="st4" d="M223.7,203.9c0.9,0.5,0.9,1.3,0,1.8c-1,0.5-2.1,0.5-3.1,0l-8.9-5.1c-0.9-0.5-0.9-1.3,0-1.8
						c1-0.5,2.1-0.5,3.1,0L223.7,203.9z"/>
					<path class="st5" d="M240.8,223.1c1.9,1.1,1.9,2.9,0.1,3.9c-2.1,1.1-4.7,1.1-6.8,0l-63.7-36.8c-1.9-1.1-1.9-2.8,0-3.9
						c2.1-1,4.6-1,6.7,0L240.8,223.1z"/>
				</g>
				<path class="st4" d="M208.2,195c0.5,0.2,0.7,0.8,0.5,1.3c-0.1,0.2-0.3,0.4-0.5,0.5c-1,0.5-2.1,0.5-3.1,0l-19.9-11.5
					c-0.5-0.2-0.7-0.8-0.5-1.3c0.1-0.2,0.3-0.4,0.5-0.5c1-0.5,2.1-0.5,3.1,0L208.2,195z"/>
				<path class="st4" d="M241.9,222.5c2.4,1.5,2.4,3.7,0,5.1c-2.8,1.4-6,1.4-8.8,0l-63.8-36.8c-2.4-1.4-2.4-3.7,0-5.1
					c2.8-1.4,6-1.4,8.8,0L241.9,222.5z M234.1,227c2.1,1.1,4.7,1.1,6.8,0c1.8-1,1.8-2.8-0.1-3.9l-63.7-36.8c-2.1-1-4.6-1-6.7,0
					c-1.9,1.1-1.9,2.8,0,3.9L234.1,227"/>
				<path class="st4" d="M243.8,215.5c0.9,0.5,0.9,1.3,0,1.8c-1,0.5-2.1,0.5-3.1,0l-13.7-7.9c-0.5-0.2-0.7-0.8-0.5-1.3
					c0.1-0.2,0.3-0.4,0.5-0.5c1-0.5,2.1-0.5,3.1,0L243.8,215.5z"/>
				<path class="st5" d="M299.2,204c2.7,1.6,2.7,4.1,0,5.6l-50.8,29.6c-3.1,1.5-6.6,1.5-9.7,0l-89.3-51.6c-2.7-1.6-2.7-4.1,0-5.6
					l50.8-29.6c3.1-1.5,6.6-1.5,9.7,0L299.2,204z M250.5,181.2c-7.4-4.3-19.2-4.3-26.5,0s-7.2,11,0.1,15.3s19.2,4.2,26.4,0
					S257.8,185.4,250.5,181.2 M233.1,227.6c2.8,1.4,6,1.4,8.8,0c2.4-1.4,2.4-3.6,0-5.1l-63.8-36.8c-2.8-1.4-6-1.4-8.8,0
					c-2.4,1.4-2.4,3.7,0,5.1L233.1,227.6 M188.3,183.5c-1-0.5-2.1-0.5-3.1,0c-0.5,0.2-0.7,0.8-0.5,1.3c0.1,0.2,0.3,0.4,0.5,0.5
					l19.9,11.5c1,0.5,2.1,0.5,3.1,0c0.5-0.2,0.7-0.8,0.5-1.3c-0.1-0.2-0.3-0.4-0.5-0.5L188.3,183.5 M243.8,217.3
					c0.9-0.5,0.9-1.3,0-1.8l-13.7-7.9c-1-0.5-2.1-0.5-3.1,0c-0.5,0.2-0.7,0.8-0.5,1.3c0.1,0.2,0.3,0.4,0.5,0.5l13.7,7.9
					C241.7,217.8,242.8,217.8,243.8,217.3 M223.7,205.7c0.9-0.5,0.9-1.3,0-1.8l-8.9-5.1c-1-0.5-2.1-0.5-3.1,0
					c-0.9,0.5-0.9,1.3,0,1.8l8.9,5.1C221.6,206.2,222.7,206.2,223.7,205.7"/>
				<path class="st12" d="M223.2,247.8c-5.2-3.2-13.6-3.2-18.7,0s-5.1,8.3,0,11.5s13.6,3.1,18.8,0S228.4,250.9,223.2,247.8z
					 M204.7,253.2c-0.1,0-0.1,0.1-0.1,0.2S204.6,253.2,204.7,253.2z M206.7,254.8L206.7,254.8z M222.1,254.7l0.3-0.2L222.1,254.7z
					 M222.8,254.2l0.3-0.3L222.8,254.2z"/>
				<path class="st13" d="M223.2,255.5c-5.2-3.1-13.6-3.1-18.7,0s-5.1,8.4,0,11.5s13.6,3.2,18.8,0S228.4,258.7,223.2,255.5z
					 M204.7,260.9c-0.1,0.1-0.1,0.2-0.1,0.3C204.6,261.1,204.6,261,204.7,260.9z M206.7,262.6L206.7,262.6z M222.1,262.4
					L222.1,262.4z M222.8,262l0.3-0.3L222.8,262z"/>
				<path class="st14" d="M223.2,261.7c-5.2-3.1-13.6-3.1-18.7,0s-5.2,8.4,0,11.5s13.6,3.2,18.8,0S228.4,264.9,223.2,261.7z
					 M204.6,267.1L204.6,267.1z M206.7,268.8L206.7,268.8z M222.1,268.6L222.1,268.6z M222.8,268.2l0.3-0.3L222.8,268.2z"/>
				<g>
					<path class="st5" d="M222.6,246.2c0.3,0.2,0.6,0.5,0.6,0.9c0,0.8-0.9,1.4-2.1,1.4h-14.4c-0.5,0-1-0.1-1.5-0.4
						c-0.4-0.2-0.6-0.6-0.6-1c0-0.7,0.9-1.3,2.1-1.3h14.4C221.6,245.8,222.1,246,222.6,246.2z"/>
					<path class="st5" d="M216.1,251.5c0,0.8-1,1.4-2.2,1.4c-0.5,0-1-0.1-1.5-0.4c-0.4-0.2-0.6-0.6-0.6-1v-3h4.2L216.1,251.5z"/>
					<path class="st4" d="M223.2,241.4c5.2,3.2,5.2,8.3,0.1,11.5c-5.1,3.2-13.6,3.2-18.8,0s-5.2-8.3,0-11.5S218,238.2,223.2,241.4z
						 M216.1,251.5v-3h5.1c1.2,0,2.1-0.6,2.1-1.4c0-0.4-0.3-0.7-0.6-0.9c-0.5-0.2-1-0.4-1.5-0.4H216v-3.1c0-0.4-0.3-0.7-0.6-0.9
						c-0.5-0.3-1-0.4-1.5-0.4c-1.2,0-2.2,0.6-2.2,1.3v3.1h-5c-1.2,0-2.1,0.6-2.1,1.3c0,0.4,0.2,0.8,0.6,1c0.5,0.3,1,0.4,1.5,0.4h5.1
						v3c0,0.4,0.2,0.8,0.6,1c0.5,0.3,1,0.4,1.5,0.4C215.1,252.9,216.1,252.3,216.1,251.5"/>
				</g>
				<path class="st5" d="M216,242.7v3.1h-4.3v-3.1c0-0.7,1-1.3,2.2-1.3c0.5,0,1,0.1,1.5,0.4C215.7,242,216,242.3,216,242.7z"/>
				<path class="st15" d="M177,223.9c-5.2-3.2-13.6-3.2-18.7,0s-5.1,8.3,0,11.5s13.6,3.1,18.8,0S182.2,227,177,223.9z M159.8,230.7
					L159.8,230.7z M160.4,231.6c0.2,0.2,0.5,0.3,0.8,0.3C160.9,231.9,160.6,231.8,160.4,231.6L160.4,231.6z"/>
				<path class="st13" d="M177,230.5c-5.2-3.1-13.6-3.1-18.7,0s-5.1,8.4,0,11.5s13.6,3.2,18.8,0S182.2,233.7,177,230.5z
					 M159.8,237.3L159.8,237.3z M160.4,238.3l0.8,0.3L160.4,238.3z"/>
				<path class="st16" d="M177,237.6c-5.2-3.2-13.6-3.2-18.7,0s-5.1,8.3,0,11.5s13.6,3.1,18.8,0S182.2,240.7,177,237.6z
					 M159.8,244.4L159.8,244.4z M160.4,245.3c0.2,0.2,0.5,0.3,0.8,0.3C160.9,245.6,160.6,245.5,160.4,245.3L160.4,245.3z"/>
				<path class="st5" d="M178.4,222.6c0.4,0.1,0.7,0.5,0.7,0.9c0,0.7-1,1.3-2.2,1.3h-15c-0.5,0-1.1-0.1-1.5-0.4
					c-0.3-0.2-0.6-0.5-0.6-0.9v-4.2c0-0.8,1-1.3,2.2-1.3c0.5,0,1,0.1,1.5,0.3c0.4,0.2,0.6,0.6,0.6,1v2.9H177
					C177.5,222.2,178,222.3,178.4,222.6z"/>
				<path class="st4" d="M177,216.7c5.2,3.2,5.2,8.3,0.1,11.5s-13.6,3.2-18.8,0s-5.2-8.3,0-11.5S171.8,213.5,177,216.7z
					 M176.9,224.8c1.2,0,2.2-0.6,2.2-1.3c0-0.4-0.3-0.8-0.7-0.9c-0.4-0.3-1-0.4-1.5-0.4H164v-2.9c0-0.4-0.2-0.8-0.6-1
					c-0.5-0.2-1-0.3-1.5-0.3c-1.2,0-2.2,0.5-2.2,1.3v4.2c0,0.4,0.3,0.7,0.6,0.9c0.4,0.3,1,0.4,1.5,0.4H176.9"/>
				<path class="st4" d="M83.7,70.5c3.4-2,6.2-0.4,6.2,3.5v5.8L87.8,81v-5.8c0-2.5-1.8-3.6-4.1-2.3c-2.4,1.6-3.8,4.2-4,7v5.8
					L77.6,87v-5.8C77.8,76.9,80,72.9,83.7,70.5z"/>
				<g>
					<path class="st17" d="M83.8,87.4c1.3-0.8,2.4-0.1,2.5,1.4c0,1.2-0.5,2.3-1.3,3.2v2.8c0,0.9-0.5,1.6-1.2,2.1
						c-0.4,0.2-0.9,0.1-1.1-0.3c-0.1-0.1-0.1-0.3-0.1-0.4v-2.8c-0.7,0-1.2-0.7-1.3-1.7C81.4,89.9,82.3,88.3,83.8,87.4z"/>
					<path class="st4" d="M90,79.2c2.1,0.8,3.5,3.1,3.5,6.5c0,6.2-4.3,13.7-9.6,16.8s-9.8,0.6-9.8-5.5c0.1-3.8,1.3-7.5,3.5-10.6V87
						l2.1-1.3v-2.1c1.1-1.4,2.5-2.5,4.1-3.4c1.2-0.8,2.6-1.2,4-1.3V81l2.2-1.2V79.2z M85,92c0.8-0.9,1.3-2,1.3-3.2
						c-0.1-1.5-1.2-2.2-2.5-1.4c-1.5,0.9-2.4,2.5-2.5,4.3c0.1,1,0.6,1.7,1.3,1.7v2.8c0,0.4,0.4,0.8,0.8,0.8c0.1,0,0.3,0,0.4-0.1
						c0.7-0.5,1.2-1.2,1.2-2.1V92"/>
				</g>
				<path class="st4" d="M89.9,155.6c3.4-2,6.2-0.4,6.2,3.5v5.8l-2.1,1.2v-5.8c0-2.5-1.8-3.6-4-2.3c-2.4,1.6-3.9,4.1-4.1,7v5.8
					l-2.2,1.3v-5.8C83.7,162.3,86.4,157.5,89.9,155.6z"/>
				<g>
					<path class="st17" d="M89.9,172.5c1.4-0.8,2.5-0.1,2.5,1.4c-0.1,1.2-0.5,2.3-1.2,3.2v2.8c-0.1,0.8-0.5,1.6-1.2,2.1
						c-0.7,0.3-1.2,0-1.2-0.7v-2.8c-0.8-0.1-1.4-0.9-1.3-1.7c0,0,0,0,0,0C87.6,175.1,88.5,173.5,89.9,172.5z"/>
					<path class="st4" d="M96.1,164.3c2.2,0.8,3.5,3.1,3.5,6.5c0.1,6.2-4.2,13.7-9.6,16.8s-9.7,0.6-9.7-5.5
						c0.1-3.8,1.3-7.5,3.4-10.6v0.6l2.2-1.3v-2.1c1.1-1.3,2.5-2.5,4-3.4c1.2-0.8,2.6-1.2,4.1-1.3v2.1l2.1-1.2V164.3z M91.2,177.1
						c0.7-0.9,1.1-2,1.2-3.2c0-1.5-1.1-2.2-2.5-1.4c-1.4,1-2.3,2.6-2.4,4.3c-0.1,0.8,0.5,1.6,1.3,1.7c0,0,0,0,0,0v2.8
						c0,0.7,0.5,1,1.2,0.7c0.7-0.5,1.1-1.3,1.2-2.1L91.2,177.1"/>
				</g>
				<path class="st4" d="M144,80.8c0.5-0.2,0.8,0,0.8,0.5c0,0.6-0.3,1.1-0.8,1.3l-6.1,3.6c-0.5,0.2-0.8,0-0.8-0.5
					c0-0.6,0.3-1.1,0.8-1.3L144,80.8z"/>
				<path class="st4" d="M120.3,107.7c0.5-0.2,0.8,0,0.8,0.5c0,0.6-0.3,1.1-0.8,1.3l-12.9,7.5c-0.4,0.2-0.7,0-0.7-0.4
					c0-0.6,0.3-1.1,0.7-1.4L120.3,107.7z"/>
				<g>
					<path class="st4" d="M150.2,91.1c0.5-0.2,0.8,0,0.8,0.5c0,0.6-0.3,1.1-0.8,1.3l-6.1,3.6c-0.5,0.2-0.8,0-0.8-0.5
						c0-0.6,0.3-1.1,0.8-1.3L150.2,91.1z"/>
					<path class="st4" d="M162,51.5c1.1,0.7,1.7,2,1.6,3.3v40.5c-0.1,1.8-0.6,3.5-1.5,5c-0.8,1.6-2.1,2.9-3.6,3.8l-58,33.5
						c-1,0.8-2.4,0.9-3.6,0.4c-1.1-0.7-1.7-2-1.6-3.3V94.2c0.1-1.8,0.6-3.6,1.5-5.1c0.8-1.6,2.1-2.9,3.6-3.8l58-33.5
						C159.8,51,161.1,50.9,162,51.5z M162.1,96.2V55.7c0.1-0.9-0.3-1.8-1.1-2.3c-0.8-0.4-1.8-0.3-2.5,0.2l-58,33.5
						c-1,0.7-1.9,1.6-2.5,2.7c-0.6,1.1-1,2.3-1,3.5v40.5c-0.1,0.9,0.3,1.8,1.1,2.3c0.8,0.3,1.8,0.2,2.5-0.3l58-33.5
						C160.7,101,162,98.7,162.1,96.2"/>
					<path class="st4" d="M134.2,86.5c0.2-0.2,0.5-0.1,0.7,0.1c0.1,0.1,0.1,0.2,0.1,0.3c-0.1,0.6-0.3,1.1-0.8,1.4L123,94.8
						c-0.2,0.2-0.5,0.1-0.7-0.1c-0.1-0.1-0.1-0.3-0.1-0.4c0-0.5,0.3-1,0.8-1.3L134.2,86.5z"/>
				</g>
				<path class="st4" d="M102.4,89.2c0.8-0.4,1.5-0.1,1.5,0.8c-0.1,1-0.6,1.9-1.5,2.5c-0.4,0.3-1,0.2-1.2-0.2
					c-0.1-0.2-0.2-0.4-0.2-0.6C101.1,90.7,101.6,89.8,102.4,89.2z"/>
				<path class="st4" d="M107.4,86.4c0.7-0.5,1.4-0.1,1.4,0.8c0,1-0.6,1.9-1.4,2.5c-0.5,0.3-1.1,0.1-1.4-0.4
					c-0.1-0.2-0.1-0.3-0.1-0.5C106,87.8,106.5,86.9,107.4,86.4z"/>
				<path class="st4" d="M112.3,83.5c0.8-0.4,1.4,0,1.4,0.9c0,1-0.6,1.9-1.4,2.4c-0.8,0.5-1.4,0.1-1.4-0.8
					C110.9,85,111.5,84.1,112.3,83.5z"/>
				<path class="st4" d="M127.4,103.7c0.5-0.3,0.8-0.1,0.8,0.4c0,0.6-0.3,1.1-0.8,1.3l-2.5,1.5c-0.2,0.2-0.5,0.1-0.7-0.1
					c-0.1-0.1-0.1-0.2-0.1-0.3c0.1-0.6,0.3-1.1,0.8-1.4L127.4,103.7z"/>
				<polygon class="st4" points="143,142.7 143.7,142.8 142.9,144.8 142,144.7 128.7,142.6 130.1,140.7 				"/>
				<polygon class="st4" points="114.4,138.2 115.5,138.4 128.7,140.4 127.3,142.4 114.1,140.3 113.5,140.2 				"/>
				<polygon class="st4" points="142.4,122 143.3,123 142.7,123.8 130.1,140.7 128.7,142.6 115.6,160.3 114.4,161.8 113.6,160.8 
					114.2,160 127.3,142.4 128.7,140.4 141.3,123.5 				"/>
				<path class="st4" d="M141,121.9c1.9-1.2,3.5-0.3,3.6,2v17.3c-0.1,2.5-1.4,4.8-3.5,6.2l-25.2,14.5c-2,1.1-3.6,0.2-3.6-2v-17.4
					c0.2-2.5,1.5-4.8,3.6-6.1L141,121.9z M142.9,144.8l0.8-2H143v-18c0-0.4-0.1-0.7-0.3-1l0.6-0.8l-0.9-1l-1.1,1.5l-0.3,0.2
					l-25.2,14.5l-0.3,0.2l-1.1-0.2l-0.9,2h0.6c-0.2,0.4-0.3,0.9-0.3,1.3V159c0,0.4,0.1,0.7,0.3,1l-0.6,0.8l0.8,1l1.2-1.5l0.3-0.2
					l25.2-14.5c0.4-0.2,0.7-0.5,1-0.9L142.9,144.8"/>
				<polygon class="st4" points="175.5,150.6 176.3,150.7 175.5,152.7 174.6,152.6 161.3,150.5 162.7,148.6 				"/>
				<polygon class="st4" points="146.9,146.1 148.1,146.2 161.3,148.3 159.8,150.2 146.7,148.2 146.1,148.1 				"/>
				<polygon class="st4" points="175,129.9 175.8,130.9 175.3,131.7 162.7,148.6 161.3,150.5 148.1,168.1 147,169.6 146.1,168.6 
					146.7,167.9 159.8,150.2 161.3,148.3 173.8,131.4 				"/>
				<path class="st4" d="M173.5,129.7c2-1.1,3.6-0.2,3.6,2.1v17.3c-0.1,2.5-1.5,4.8-3.6,6.1l-25.2,14.6c-1.9,1.1-3.5,0.2-3.5-2.1
					v-17.3c0.2-2.5,1.5-4.8,3.6-6.1L173.5,129.7z M175.5,152.7l0.8-2h-0.8c0.1-0.2,0.1-0.4,0.1-0.6v-17.4c0-0.4-0.1-0.7-0.3-1
					l0.5-0.8l-0.8-1l-1.1,1.5h-0.3L148.4,146h-1.5l-0.8,2h0.6c-0.2,0.4-0.3,0.9-0.3,1.3v17.3c0,0.4,0.1,0.8,0.3,1.1l-0.6,0.7l0.9,1
					l1.1-1.5h0.3l25.2-14.6c0.4-0.2,0.7-0.5,1-0.8h0.9"/>
				<path d="M408.2,159.2c2.5,1.6,4,4.3,4.2,7.3V191c0,2.7-1.9,3.8-4.2,2.4l-51.8-29.9c-2.5-1.6-4-4.3-4.2-7.3v-24.5
					c0-2.7,1.9-3.8,4.3-2.4L408.2,159.2z"/>
				<path d="M408.4,202.7c2.4,1.5,3.8,4,4,6.8v5.5c-0.1,2.5-1.8,3.5-4,2.2L356,187c-2.3-1.5-3.8-4-3.9-6.8v-5.5c0-2.5,1.8-3.5,4-2.3
					L408.4,202.7z"/>
				<path class="st18" d="M384,163.8c0.3,0.2,0.5,0.6,0.5,1c0,0.4-0.2,0.5-0.5,0.3l-11.4-6.5c-0.3-0.2-0.5-0.6-0.5-1
					c0-0.3,0.2-0.5,0.5-0.3L384,163.8z"/>
				<path class="st18" d="M379.2,157.3c0.3,0.2,0.6,0.6,0.6,1c0,0.4-0.3,0.5-0.6,0.3l-10.3-6c-0.4-0.2-0.6-0.5-0.6-0.9
					c0-0.4,0.2-0.6,0.6-0.4L379.2,157.3z"/>
				<path class="st18" d="M385.6,161c0.3,0.2,0.6,0.6,0.6,1c0,0.4-0.3,0.5-0.6,0.3l-3.3-1.9c-0.3-0.2-0.6-0.6-0.6-1
					c0-0.2,0.2-0.4,0.4-0.4c0.1,0,0.1,0,0.2,0.1L385.6,161z"/>
				<path class="st18" d="M388.9,166.7c0.4,0.2,0.6,0.6,0.6,1c0,0.3-0.2,0.5-0.6,0.3l-1.8-1c-0.3-0.2-0.5-0.6-0.6-1
					c0-0.4,0.3-0.5,0.6-0.4L388.9,166.7z"/>
				<path class="st18" d="M391.4,164.4c0.4,0.2,0.6,0.6,0.6,1c0,0.2-0.2,0.4-0.4,0.4c-0.1,0-0.1,0-0.2-0.1l-2.4-1.5
					c-0.4-0.2-0.6-0.5-0.6-0.9c0-0.4,0.2-0.5,0.6-0.4L391.4,164.4z"/>
				<path class="st18" d="M362,180.9c0.4,0.2,0.6,0.5,0.6,0.9c0,0.4-0.2,0.6-0.6,0.4l-4.7-2.7c-0.3-0.2-0.5-0.6-0.5-1
					c0-0.4,0.2-0.5,0.5-0.3L362,180.9z"/>
				<path class="st18" d="M367.7,184.1c0.3,0.2,0.5,0.6,0.6,1c0,0.4-0.3,0.5-0.6,0.4l-2.5-1.5c-0.3-0.2-0.6-0.6-0.6-1
					c0-0.4,0.3-0.5,0.6-0.3L367.7,184.1z"/>
				<path class="st18" d="M401.3,208.2c0.3,0.2,0.5,0.6,0.6,1c0,0.4-0.3,0.5-0.6,0.3l-2.9-1.6c-0.3-0.2-0.5-0.6-0.6-1
					c0-0.4,0.3-0.5,0.6-0.4L401.3,208.2z"/>
				<path class="st18" d="M405,210.4c0.4,0.2,0.6,0.6,0.6,1c0,0.3-0.2,0.5-0.6,0.3l-1.5-0.9c-0.3-0.2-0.6-0.6-0.6-1
					c0-0.4,0.3-0.5,0.6-0.3L405,210.4z"/>
				<g>
					<path class="st3" d="M205.9,167.7l-6.2-3.6c-10-5.7-16-16.5-15.6-28l6.1,3.6C189.7,151.2,195.8,162.1,205.9,167.7z"/>
					<path class="st3" d="M211.9,106.8l6.2,3.6c-3-1.7-7.1-1.5-11.6,1.1l-6.2-3.5C204.8,105.3,208.9,105.1,211.9,106.8z"/>
					<path class="st3" d="M190.2,139.7l-6.1-3.6c-0.1-10.3,7.2-22.9,16.2-28.1l6.2,3.5C197.5,116.7,190.2,129.3,190.2,139.7z"/>
					<path class="st4" d="M206.5,111.5c9-5.2,16.3-1,16.3,9.4c0.1,0.8,1.4,17.2-16.2,47.2c-10.5-5.5-16.8-16.6-16.4-28.4
						C190.2,129.3,197.5,116.7,206.5,111.5z"/>
				</g>
				<path class="st18" d="M207.7,117.9c6.2-3.6,11.2-0.7,11.2,6.4c0,7.1-5,15.8-11.2,19.4s-11.2,0.7-11.2-6.4
					S201.5,121.5,207.7,117.9z"/>
				<g>
					<polygon class="st4" points="149.5,254.2 148.4,254.8 149.5,255.4 148.4,256.1 146.2,254.8 147.3,254.2 145.1,252.9 
						142.9,254.2 147.3,256.7 146.2,257.3 147.3,258 145.1,259.2 144.1,258.6 143,259.2 137.5,256.1 138.6,255.4 137.5,254.8 
						138.6,254.2 140.8,255.4 139.7,256.1 143,258 145.1,256.7 140.8,254.2 141.8,253.5 140.7,252.9 142.9,251.7 144,252.3 
						145.1,251.7 					"/>
					<path class="st4" d="M138.8,244.2l52.3,30.2l-14.4,8.4l-52.3-30.2L138.8,244.2z M176.7,280.8l11-6.4l-48.8-28.2l-11.1,6.4
						L176.7,280.8"/>
				</g>
				<polygon class="st4" points="178.9,271.1 171.3,275.6 169.1,274.3 172.3,272.4 171.2,271.8 170.1,272.4 169.1,271.8 
					170.1,271.1 169,270.5 165.8,272.4 163.6,271.1 171.2,266.7 173.4,268 172.3,268.6 173.4,269.3 172.3,269.9 173.4,270.5 
					174.5,269.9 175.6,270.5 176.7,269.9 				"/>
				<path class="st4" d="M166.5,266.5l1.1,0.7l-5.4,3.1l-2.2-1.2l2.2-1.3l-3.3-1.9l-2.2,1.3l-2.2-1.3l5.5-3.1l1.1,0.6l1-0.6l1.1,0.6
					l1.1-0.6l3.3,1.8l-1.1,0.7l1.1,0.6L166.5,266.5z M163.3,267.2l2.1-1.3l-1.1-0.6l1.1-0.7l-1.1-0.6l-1,0.6l-1.1-0.6l-2.2,1.3
					L163.3,267.2"/>
				<path class="st4" d="M158.6,260.7l1-0.7l-6.5-3.7l-7.6,4.4l2.2,1.2l2.1-1.2l4.4,2.5l1.1-0.6l1.1,0.6l3.3-1.9L158.6,260.7z
					 M154.2,261.9l-3.3-1.9l3.3-1.8l3.3,1.8L154.2,261.9z"/>
				<g class="st19">
					<g>
						<polygon class="st20" points="149.5,258.7 148.4,259.3 149.5,260 148.4,260.6 146.2,259.3 147.3,258.7 145.1,257.4 
							142.9,258.7 147.3,261.2 146.2,261.9 147.3,262.5 145.1,263.8 144.1,263.1 143,263.8 137.5,260.6 138.6,260 137.5,259.3 
							138.6,258.7 140.8,260 139.7,260.6 143,262.5 145.1,261.2 140.8,258.7 141.8,258.1 140.7,257.4 142.9,256.2 144,256.8 
							145.1,256.2 						"/>
						<path class="st4" d="M138.8,248.8l52.3,30.1l-14.4,8.4l-52.3-30.2L138.8,248.8z M176.7,285.3l11-6.4l-48.8-28.2l-11.1,6.4
							L176.7,285.3"/>
					</g>
					<polygon class="st20" points="178.9,275.7 171.3,280.1 169.1,278.8 172.3,276.9 171.2,276.3 170.1,276.9 169.1,276.3 
						170.1,275.7 169,275 165.8,276.9 163.6,275.7 171.2,271.3 173.4,272.5 172.3,273.1 173.4,273.8 172.3,274.4 173.4,275 
						174.5,274.4 175.6,275 176.7,274.4 					"/>
					<path class="st20" d="M166.5,271.1l1.1,0.6l-5.4,3.2l-2.2-1.3l2.2-1.3l-3.3-1.9l-2.2,1.3l-2.2-1.3l5.5-3.1l1.1,0.6l1-0.6
						l1.1,0.6l1.1-0.6l3.3,1.9l-1.1,0.6l1.1,0.6L166.5,271.1z M163.3,271.7l2.1-1.3l-1.1-0.6l1.1-0.6l-1.1-0.7l-1,0.7l-1.1-0.7
						l-2.2,1.3L163.3,271.7"/>
					<path class="st20" d="M158.6,265.2l1-0.6l-6.5-3.8l-7.6,4.4l2.2,1.3l2.1-1.3l4.4,2.5l1.1-0.6l1.1,0.6l3.3-1.9L158.6,265.2z
						 M154.2,266.5l-3.3-1.9l3.3-1.9l3.3,1.9L154.2,266.5z"/>
				</g>
				<g class="st21">
					<g>
						<polygon class="st4" points="149.5,264.3 148.4,264.9 149.5,265.5 148.4,266.2 146.2,264.9 147.3,264.3 145.1,263 
							142.9,264.3 147.3,266.8 146.2,267.4 147.3,268.1 145.1,269.3 144.1,268.7 143,269.3 137.5,266.2 138.6,265.5 137.5,264.9 
							138.6,264.3 140.8,265.5 139.7,266.2 143,268.1 145.1,266.8 140.8,264.3 141.8,263.6 140.7,263 142.9,261.7 144,262.4 
							145.1,261.7 						"/>
						<path class="st4" d="M138.8,254.3l52.3,30.2l-14.4,8.4l-52.3-30.2L138.8,254.3z M176.7,290.9l11-6.4l-48.8-28.2l-11.1,6.4
							L176.7,290.9"/>
					</g>
					<polygon class="st4" points="178.9,281.2 171.3,285.7 169.1,284.4 172.3,282.5 171.2,281.9 170.1,282.5 169.1,281.9 
						170.1,281.2 169,280.6 165.8,282.5 163.6,281.2 171.2,276.8 173.4,278.1 172.3,278.7 173.4,279.3 172.3,280 173.4,280.6 
						174.5,280 175.6,280.6 176.7,280 					"/>
					<path class="st4" d="M166.5,276.6l1.1,0.7l-5.4,3.1l-2.2-1.2l2.2-1.3l-3.3-1.9l-2.2,1.3l-2.2-1.3l5.5-3.2l1.1,0.7l1-0.7
						l1.1,0.7l1.1-0.7l3.3,1.9l-1.1,0.7l1.1,0.6L166.5,276.6z M163.3,277.3l2.1-1.3l-1.1-0.6l1.1-0.7l-1.1-0.6l-1,0.6l-1.1-0.6
						l-2.2,1.3L163.3,277.3"/>
					<path class="st4" d="M158.6,270.8l1-0.7l-6.5-3.8l-7.6,4.5l2.2,1.2l2.1-1.2l4.4,2.5l1.1-0.6l1.1,0.6l3.3-1.9L158.6,270.8z
						 M154.2,272l-3.3-1.9l3.3-1.9l3.3,1.9L154.2,272z"/>
				</g>
				<polygon class="st4" points="15.7,109.4 15.7,111.3 10.9,114.1 10.9,112.2 				"/>
				<polygon class="st4" points="15.7,106.3 15.7,108.3 10.9,111 10.9,109.1 				"/>
				<polygon class="st4" points="9.1,113.3 9.1,115.2 6.7,116.6 6.7,114.6 				"/>
				<polygon class="st4" points="9.1,110.2 9.1,112.1 6.7,113.5 6.7,111.5 				"/>
				<polygon class="st4" points="19.8,107.1 19.8,109 17.4,110.4 17.4,108.5 				"/>
				<polygon class="st4" points="19.8,104 19.8,105.9 17.4,107.3 17.4,105.4 				"/>
				<polygon class="st4" points="362.6,330.4 362.6,332.4 357.8,335.1 357.8,333.2 				"/>
				<polygon class="st4" points="369,329.9 369,331.9 364.2,334.7 364.2,332.7 				"/>
				<polygon class="st4" points="369,326.8 369,328.7 364.2,331.5 364.2,329.5 				"/>
				<polygon class="st4" points="375.1,326.4 375.1,328.4 372.5,329.8 372.5,327.9 				"/>
				<polygon class="st4" points="375.1,323.3 375.1,325.2 372.5,326.7 372.5,324.7 				"/>
				<polygon class="st4" points="362.6,333.6 362.6,335.6 357.8,338.3 357.8,336.4 				"/>
				<polygon class="st4" points="112.2,181.8 112.2,183.8 109.7,185.2 109.7,183.3 				"/>
				<polygon class="st4" points="112.2,185 112.2,187 109.7,188.4 109.7,186.5 				"/>
				<polygon class="st4" points="116.3,179.5 116.3,181.4 113.8,182.9 113.8,181 				"/>
				<polygon class="st4" points="116.3,182.7 116.3,184.6 113.8,186.1 113.8,184.1 				"/>
				<polygon class="st4" points="124.2,174.9 124.2,176.8 117.8,180.5 117.8,178.6 				"/>
				<polygon class="st4" points="124.2,178.1 124.2,180 117.8,183.7 117.8,181.8 				"/>
				<polygon class="st4" points="360.4,37 360.4,38.9 355.6,41.7 355.6,39.8 				"/>
				<polygon class="st4" points="360.4,33.7 360.4,35.6 355.6,38.4 355.6,36.5 				"/>
				<polygon class="st4" points="363.3,32 363.3,33.9 361.3,35.1 361.3,33.1 				"/>
				<polygon class="st4" points="367.2,29.8 367.2,31.7 365.8,32.5 365.8,30.6 				"/>
				<polygon class="st4" points="369.6,28.4 369.6,30.3 368.2,31.1 368.2,29.2 				"/>
				<polygon class="st4" points="363.3,35.3 363.3,37.3 361.3,38.4 361.3,36.5 				"/>
				<polygon class="st4" points="367.2,33.1 367.2,35 365.8,35.8 365.8,33.9 				"/>
				<polygon class="st4" points="369.6,31.7 369.6,33.6 368.2,34.4 368.2,32.5 				"/>
				<polygon class="st4" points="409.9,144.4 409.9,146.3 414.7,149.1 414.7,147.1 				"/>
				<polygon class="st4" points="409.9,141.3 409.9,143.2 414.7,146 414.7,144.1 				"/>
				<polygon class="st4" points="416.5,148.2 416.5,150.1 418.9,151.5 418.9,149.6 				"/>
				<polygon class="st4" points="416.5,145.1 416.5,147 418.9,148.4 418.9,146.5 				"/>
				<polygon class="st4" points="405.8,142 405.8,143.9 408.2,145.3 408.2,143.4 				"/>
				<polygon class="st4" points="405.8,138.9 405.8,140.8 408.2,142.2 408.2,140.3 				"/>
				<polygon class="st4" points="383.3,248.1 383.3,250 388.1,252.8 388.1,250.9 				"/>
				<polygon class="st4" points="377,247.6 377,249.5 381.8,252.3 381.8,250.4 				"/>
				<polygon class="st4" points="377,244.4 377,246.4 381.8,249.1 381.8,247.2 				"/>
				<polygon class="st4" points="370.9,244.1 370.9,246 373.4,247.5 373.4,245.6 				"/>
				<polygon class="st4" points="370.9,240.9 370.9,242.8 373.4,244.3 373.4,242.4 				"/>
				<polygon class="st4" points="383.3,251.3 383.3,253.2 388.1,256 388.1,254.1 				"/>
				<polygon class="st4" points="205.5,38.7 205.5,40.6 208,42.1 208,40.2 				"/>
				<polygon class="st4" points="205.5,41.9 205.5,43.8 208,45.3 208,43.4 				"/>
				<polygon class="st4" points="201.4,36.4 201.4,38.3 203.9,39.8 203.9,37.8 				"/>
				<polygon class="st4" points="201.4,39.5 201.4,41.5 203.9,42.9 203.9,41 				"/>
				<polygon class="st4" points="193.5,31.8 193.5,33.7 199.9,37.4 199.9,35.5 				"/>
				<polygon class="st4" points="193.5,35 193.4,36.9 199.8,40.6 199.8,38.7 				"/>
				<polygon class="st4" points="32.3,337.1 32.3,339 37.1,341.8 37.1,339.8 				"/>
				<polygon class="st4" points="32.3,333.7 32.3,335.7 37.1,338.4 37.1,336.5 				"/>
				<polygon class="st4" points="29.4,332 29.4,334 31.4,335.1 31.4,333.2 				"/>
				<polygon class="st4" points="25.6,329.8 25.5,331.8 26.9,332.6 26.9,330.6 				"/>
				<polygon class="st4" points="23.1,328.4 23.1,330.3 24.5,331.1 24.5,329.2 				"/>
				<polygon class="st4" points="29.4,335.4 29.4,337.3 31.4,338.4 31.4,336.5 				"/>
				<polygon class="st4" points="25.5,333.1 25.5,335.1 26.9,335.9 26.9,334 				"/>
				<polygon class="st4" points="23.1,331.7 23.1,333.7 24.5,334.5 24.5,332.5 				"/>
				<path class="st4" d="M200.1,75.4c-0.5-0.3-0.9,0-0.9,0.6c0,0.7,0.4,1.3,0.9,1.7l7.7,4.4c0.5,0.3,1,0.1,1-0.6
					c-0.1-0.7-0.4-1.3-1-1.6L200.1,75.4z"/>
				<path class="st4" d="M194.8,72.3c-0.2-0.2-0.6-0.2-0.8,0c-0.2,0.2-0.2,0.4-0.2,0.6c0.1,0.7,0.4,1.3,1,1.7l2.5,1.4
					c0.5,0.3,0.9,0.1,0.9-0.6c0-0.6-0.4-1.2-0.9-1.6L194.8,72.3z"/>
				<g>
					<path class="st4" d="M185.4,74.5c-0.5-0.3-0.9,0-0.9,0.6c0,0.7,0.4,1.3,0.9,1.7l5.2,3c0.6,0.3,1,0,1-0.6c0-0.7-0.4-1.3-1-1.7
						L185.4,74.5z"/>
					<path class="st4" d="M199.4,67.6l3.4-1.9c0.2-0.1,0.4-0.1,0.6,0.1l9.5,5.4c0.5,0.4,0.9,1,0.9,1.7v25c0,0.6-0.5,0.8-1,0.5
						l-33-19.1c-0.6-0.3-1-0.9-1-1.6V56.9c-0.1-0.3,0.1-0.7,0.4-0.8c0.2-0.1,0.4,0,0.6,0.2L199.4,67.6z M180.7,77.7l31.1,17.9V72.9
						l-8.1-4.6l-3.3,1.9c-0.2,0.1-0.5,0.1-0.7-0.1l-19-11V77.7"/>
				</g>
				<g class="st22">
					<path class="st4" d="M205.7,72.4c-0.2-0.2-0.6-0.2-0.8,0c-0.2,0.2-0.2,0.4-0.2,0.6c0.1,0.7,0.4,1.3,1,1.7l7.7,4.4
						c0.5,0.3,0.9,0.1,0.9-0.5c0-0.7-0.3-1.3-0.9-1.7L205.7,72.4z"/>
					<path class="st4" d="M200.4,69.4c-0.6-0.3-1-0.1-1,0.5c0,0.7,0.4,1.3,1,1.7l2.4,1.4c0.5,0.3,1,0.1,1-0.5c0-0.7-0.4-1.3-1-1.7
						L200.4,69.4z"/>
					<g>
						<path class="st4" d="M191,71.5c-0.6-0.3-1,0-1,0.6c0,0.7,0.4,1.3,1,1.7l5.2,3c0.5,0.3,1,0.1,1-0.6c-0.1-0.7-0.4-1.3-1-1.7
							L191,71.5z"/>
						<path class="st4" d="M204.9,64.6l3.4-1.9c0.2-0.1,0.5-0.1,0.7,0.1l9.4,5.4c0.6,0.4,1,1,1,1.7v25c0,0.6-0.4,0.8-1,0.5l-33-19
							c-0.6-0.4-0.9-1-1-1.7V53.9c0-0.6,0.4-0.9,1-0.6L204.9,64.6z M186.3,74.7l31.1,17.9V69.9l-8-4.6l-3.4,1.9
							c-0.2,0.1-0.5,0.1-0.7-0.1l-19-10.9V74.7"/>
					</g>
				</g>
				<g class="st23">
					<path class="st4" d="M90.5,243.8c-2.4,1.4-2.4,3.6,0,5l68.5,39.5c2.7,1.4,6,1.4,8.7,0l2.6-1.5v-89.4L90.5,243.8z"/>
					<polygon class="st4" points="178.6,192.6 178.6,282 197.8,270.8 197.8,181.4 					"/>
				</g>
			</g>
		</g>
	</g>
</g>
<g id="Layer_2" class="st24">
	<g id="Layer_2_2_" class="st25">
		<rect x="522.3" y="129.3" class="st4" width="68.7" height="134.6"/>
		<rect x="522.3" y="-39.1" class="st3" width="68.7" height="134.6"/>
		<rect x="522.3" y="286.1" class="st17" width="68.7" height="134.6"/>
	</g>
</g>
</svg>
