<?xml version="1.0" encoding="utf-8"?>
<!-- Generator: Adobe Illustrator 24.0.0, SVG Export Plug-In . SVG Version: 6.00 Build 0)  -->
<svg version="1.1" xmlns="http://www.w3.org/2000/svg" xmlns:xlink="http://www.w3.org/1999/xlink" x="0px" y="0px"
	 viewBox="0 0 122.9 85" style="enable-background:new 0 0 122.9 85;" xml:space="preserve">
<style type="text/css">
	.st0{opacity:0.1;}
	.st1{fill:#C5C5C5;}
	.st2{fill:#95C4DE;}
	.st3{clip-path:url(#SVGID_2_);}
	.st4{fill:#898989;}
	.st5{fill:#D70010;}
	.st6{fill:#38A7BE;}
	.st7{fill:#277484;}
	.st8{fill:#F8F9FD;}
	.st9{fill:#A9D6EA;}
	.st10{fill:#7A0110;}
	.st11{fill:#ABBEC5;}
	.st12{fill:#778489;}
	.st13{fill:#5B737E;}
	.st14{fill:url(#SVGID_3_);}
	.st15{fill:#82A5B5;}
	.st16{fill:#BEE7F4;}
	.st17{fill:#DEF6FF;}
	.st18{fill:#67A4BA;}
	.st19{fill:#7FB5CC;}
	.st20{clip-path:url(#SVGID_5_);}
	.st21{opacity:0.1;enable-background:new    ;}
	.st22{fill:#6E91A0;}
	.st23{fill:#EFB185;}
	.st24{fill:#606060;}
	.st25{fill:#494949;}
	.st26{fill:#231D21;}
	.st27{fill:#E8A476;}
	.st28{fill:#DB9669;}
	.st29{fill:#F1B287;}
	.st30{fill:#E2E6ED;}
	.st31{fill:#A5AAB4;}
	.st32{display:none;}
	.st33{display:inline;}
	.st34{fill:#101010;}
</style>
<g id="Layer_1">
	<title>7</title>
	<g id="Layer_2_1_">
		<g id="Layer_1-2">
			<g class="st0">
				<path d="M59.8,13.2c1.5,0.8,1.5,2.2,0,3.1l-2.7,1.6l-3.9,2.2L46.5,24l-2.2-6l-8.7-5c-1.5-0.9-1.5-2.2,0-3.1l6.6-3.8
					c1.7-0.9,3.6-0.9,5.3,0L59.8,13.2z M53.9,16.9l1-0.6L41.8,8.7l-1,0.6C40.8,9.3,53.9,16.9,53.9,16.9z M56.6,15.3l1-0.5L44.4,7.2
					l-1,0.6C43.4,7.8,56.6,15.3,56.6,15.3z M51.2,18.4l1-0.5l-13.1-7.6l-1,0.6C38.1,10.9,51.2,18.4,51.2,18.4z"/>
			</g>
			<polygon class="st1" points="44.9,1.7 44.9,3.5 43.9,4.1 43.9,2.3 			"/>
			<polygon class="st1" points="42.2,3.3 42.2,5 41.2,5.6 41.2,3.9 			"/>
			<polygon class="st1" points="39.6,4.8 39.6,6.6 38.6,7.2 38.6,5.4 			"/>
			<path class="st2" d="M35,7.7V6c0,0.7,0.5,1.3,1.1,1.6v1.7C35.5,9,35,8.4,35,7.7z"/>
			<g>
				<defs>
					<path id="SVGID_1_" d="M35,7.7V6c0,0.7,0.5,1.3,1.1,1.6v1.7C35.5,9,35,8.4,35,7.7z"/>
				</defs>
				<clipPath id="SVGID_2_">
					<use xlink:href="#SVGID_1_"  style="overflow:visible;"/>
				</clipPath>
				<g class="st3">
					<g>
						<path class="st2" d="M36.1,7.6v1.7C35.5,9,35,8.4,35,7.7V6C35,6.7,35.5,7.3,36.1,7.6z"/>
					</g>
				</g>
			</g>
			<polygon class="st4" points="58,9.3 58,11.1 44.9,3.5 44.9,1.7 			"/>
			<polygon class="st5" points="58,9.3 57,9.9 43.9,2.3 44.9,1.7 			"/>
			<polygon class="st6" points="58,9.3 58,11.1 57,11.6 57,9.9 			"/>
			<polygon class="st7" points="57,9.9 57,11.6 43.9,4.1 43.9,2.3 			"/>
			<polygon class="st4" points="55.4,10.9 55.4,12.6 42.2,5 42.2,3.3 			"/>
			<polygon class="st7" points="54.4,11.5 54.4,13.2 41.2,5.6 41.2,3.9 			"/>
			<polygon class="st6" points="55.4,10.9 55.4,12.6 54.4,13.2 54.4,11.5 			"/>
			<polygon class="st5" points="55.4,10.9 54.4,11.5 41.2,3.9 42.2,3.3 			"/>
			<polygon class="st4" points="52.7,12.4 52.7,14.2 39.6,6.6 39.6,4.8 			"/>
			<polygon class="st2" points="44.7,12.6 44.7,14.3 36.1,9.3 36.1,7.6 			"/>
			<polygon class="st6" points="52.7,12.4 52.7,14.2 51.7,14.7 51.7,13 			"/>
			<polygon class="st7" points="51.7,13 51.7,14.7 38.6,7.2 38.6,5.4 			"/>
			<path class="st8" d="M60.3,7.7c1.5,0.9,1.5,2.3,0,3.1l-2.8,1.6l-3.8,2.2l-6.7,4l-2.3-6.1l-8.6-4.9c-1.5-0.9-1.5-2.3,0-3.1
				l6.5-3.9c1.7-0.8,3.7-0.8,5.4,0L60.3,7.7z M54.4,11.5l1-0.6L42.2,3.3l-1,0.6C41.2,3.9,54.4,11.5,54.4,11.5z M57,9.9l1-0.6
				L44.9,1.7l-1,0.6L57,9.9z M51.7,13l1-0.6L39.6,4.8l-1,0.6L51.7,13z"/>
			<polygon class="st5" points="52.7,12.4 51.7,13 38.6,5.4 39.6,4.8 			"/>
			<path class="st9" d="M61.4,9.3c0,0.1,0,0.3-0.1,0.4l0,0c0,0.1-0.1,0.3-0.2,0.4l0,0l-0.3,0.4l-0.3,0.2h-0.2l-2.8,1.6l-3.8,2.2
				l-6.7,4v1.7l6.8-3.9l3.8-2.2l2.8-1.6h0.2l0.3-0.2l0,0l0.2-0.3h0.2v-0.2h0.1v-2V9.3z"/>
			<polygon class="st2" points="47,18.6 46.9,20.3 44.7,14.3 44.7,12.6 			"/>
			<g class="st0">
				<path d="M122.8,22.7c0.1-0.3-0.1-0.7-0.6-1l-17.9-10.4c-1-0.5-2.1-0.5-3.1,0L70.4,29.2l-2.5-1.5c-0.9-0.4-2-0.4-2.9,0L40,42.3
					c-0.3,0.1-0.6,0.4-0.6,0.8l0,0v4.2l0,0L2.8,68.6c-0.4,0.2-0.6,0.6-0.6,1l0,0v2.3c0,0.4,0.2,0.8,0.6,1l18.9,10.9h1.8
					c0.1,0,0.2,0,0.2-0.1h0.8l0.5-0.2l38.2-21.9l0,0l2,1.1l0.3,0.2H67c0-0.1,0-0.1,0.1-0.1h0.2c0.1,0,0.2,0,0.2-0.1h0.2l0.4-0.2
					l25-14.5l0,0c0.1,0,0.1,0,0.1-0.1h0.2c0-0.1,0-0.1,0.1-0.1l0,0c0.1,0,0.1,0,0.1-0.1l0,0c0.1,0,0.1,0,0.1-0.1l0,0v-4.5l0,0
					c0-0.3-0.1-0.5-0.3-0.7l28.8-16.8h0.2c0.1,0,0.1,0,0.1-0.1h0.4v-2.9L122.8,22.7z M39.8,43.8L39.8,43.8z M39.5,43.3L39.5,43.3z
					 M39.6,43.5L39.6,43.5z M93.1,43.9L93.1,43.9z M93.4,43.7L93.4,43.7z M93.7,43.3c-0.1,0.1-0.1,0.1-0.1,0.2
					C93.6,43.4,93.6,43.4,93.7,43.3z"/>
				<path d="M23.6,84.8L23.6,84.8z"/>
				<path d="M23.4,84.9"/>
				<path d="M20.7,84.5l0.4,0.2l0,0L20.7,84.5z"/>
				<path d="M22.1,85L22.1,85z"/>
				<path d="M21.5,84.9"/>
				<path d="M22.6,85L22.6,85z"/>
			</g>
			<path class="st10" d="M120.1,20.6h0.4c0-0.1,0-0.1,0.1-0.1l0,0V20l0,0v-2.3h-0.1c0,0.1,0,0.1-0.1,0.1l0,0l-0.3,0.2H120L87,37.6
				l1.9,1.1L120.1,20.6L120.1,20.6z"/>
			<path class="st5" d="M120.2,18.3l0.3-0.2l0,0c0.1,0,0.1,0,0.1-0.1h0.1c0.1-0.5-0.2-0.9-0.6-1.1l-18-10.4c-1-0.4-2.1-0.4-3.1,0
				l-33.1,19L87,37.6L120.2,18.3L120.2,18.3z"/>
			<polygon class="st11" points="64,25.1 64,29.3 41.9,42.1 41.9,37.9 			"/>
			<polygon class="st12" points="86.6,38.2 86.6,42.3 64,29.3 64,25.1 			"/>
			<polygon class="st13" points="64.6,51 64.5,55.1 41.9,42.1 41.9,37.9 			"/>
			
				<linearGradient id="SVGID_3_" gradientUnits="userSpaceOnUse" x1="41.9" y1="47.95" x2="86.55" y2="47.95" gradientTransform="matrix(1 0 0 -1 0 86)">
				<stop  offset="0" style="stop-color:#D70010"/>
				<stop  offset="1" style="stop-color:#7A0110"/>
			</linearGradient>
			<polygon class="st14" points="86.6,38.2 64.6,51 41.9,37.9 64,25.1 			"/>
			<polygon class="st15" points="86.6,38.2 86.6,42.3 64.5,55.1 64.6,51 			"/>
			<path class="st16" d="M37.9,38.9c-0.3-0.2-0.6-0.5-0.6-0.9v4.2c0,0.4,0.3,0.7,0.6,0.8L63,57.5v-4.1L37.9,38.9z"/>
			<path class="st17" d="M90.9,37.2c0.8,0.4,0.8,1.2,0,1.7L66,53.4c-0.9,0.5-2.1,0.5-3,0L37.9,38.9c-0.8-0.5-0.8-1.3,0-1.7l25-14.5
				c0.9-0.5,2-0.5,2.9,0L90.9,37.2z M64.6,51l22-12.8L64,25.1L41.9,37.9L64.6,51z"/>
			<path class="st2" d="M91.5,38.2L91.5,38.2c-0.1,0.1-0.1,0.1-0.1,0.2l0,0l-0.2,0.2h-0.3L66,53.4l-0.5,0.2H63v4.1l0.3,0.2h2.2
				c0.2,0,0.3-0.1,0.4-0.2l25-14.7h0.2c0.1,0,0.1,0,0.1-0.1h0.1c0.1,0,0.1,0,0.1-0.1l0,0c0.1-0.1,0.1-0.1,0.1-0.2l0,0v-4L91.5,38.2z
				"/>
			<path class="st10" d="M22.2,76.6h-2.3l-0.3-0.2l-18.9-11l-0.3-0.2H0.3c0-0.1-0.1-0.1-0.1-0.2H0.1c0-0.1,0-0.1-0.1-0.2l0,0v2.1
				c0,0.4,0.2,0.7,0.7,1l18.9,10.8l0.3,0.2h2.5l0.4-0.2L61,56.5v-2.3L22.8,76.3L22.2,76.6z"/>
			<path class="st5" d="M0,64.5L0,64.5v0.2l0,0c0.1,0.1,0.1,0.1,0.1,0.2h0.1c0,0.1,0.1,0.1,0.1,0.2h0.1l0.3,0.2l18.9,11l0.3,0.2h2.3
				l0.6-0.3l38.2-22L38.8,41.4L0.7,63.5C0.2,63.8,0,64.1,0,64.5z"/>
			<path class="st18" d="M23.4,62.7c1.1,0.6,1.1,1.6,0,2.2c-1.2,0.6-2.6,0.6-3.8,0c-1.1-0.6-1.1-1.6,0-2.2
				C20.8,62.1,22.2,62.1,23.4,62.7z"/>
			<path class="st19" d="M19.6,64.9c1.2,0.6,2.5,0.6,3.7,0.1c-0.1-0.5-0.4-0.9-0.8-1.1c-1.2-0.5-2.5-0.5-3.7,0
				C18.9,64.3,19.2,64.7,19.6,64.9z"/>
			<path class="st18" d="M31.4,57.9c0.6,0.3,0.9,1,0.6,1.6c-0.1,0.3-0.3,0.5-0.6,0.6c-1.2,0.7-2.6,0.7-3.8,0c-1.1-0.6-1.1-1.6,0-2.2
				C28.8,57.3,30.2,57.3,31.4,57.9z"/>
			<path class="st19" d="M27.6,60.1c1.1,0.6,2.5,0.7,3.7,0.1c-0.1-0.4-0.4-0.8-0.8-1c-1.2-0.6-2.5-0.6-3.7-0.1
				C26.8,59.6,27.1,60,27.6,60.1z"/>
			<path class="st18" d="M39.2,54c1,0.6,1.1,1.6,0,2.2c-1.2,0.7-2.6,0.7-3.8,0c-1.1-0.6-1.1-1.6,0-2.2C36.6,53.4,38,53.4,39.2,54z"
				/>
			<path class="st19" d="M35.4,56.2c1.2,0.6,2.5,0.6,3.7,0.1c-0.1-0.4-0.4-0.8-0.8-1c-1.2-0.6-2.5-0.6-3.7-0.1
				C34.6,55.7,34.9,56.1,35.4,56.2z"/>
			<g class="st0">
				<path d="M67.5,34.5c0.7,0.2,1.1,0.9,0.9,1.6c-0.1,0.4-0.5,0.8-0.9,0.9l-2.2,1.3l-3.1,1.8l-5.4,3.1L55,38.4l-6.9-4
					c-0.7-0.2-1.1-0.9-0.9-1.6c0.1-0.4,0.5-0.8,0.9-0.9l5.3-3c1.3-0.7,2.9-0.7,4.2,0L67.5,34.5z M62.7,37.5l0.8-0.5L53,31l-0.8,0.4
					L62.7,37.5z M64.9,36.3l0.8-0.5l-10.5-6.1l-0.8,0.5L64.9,36.3z M60.6,38.8l0.8-0.5l-10.5-6.1l-0.8,0.5L60.6,38.8z"/>
			</g>
			<polygon class="st1" points="55.5,25.4 55.5,26.8 54.7,27.2 54.7,25.8 			"/>
			<polygon class="st1" points="53.4,26.6 53.4,28 52.6,28.5 52.6,27.1 			"/>
			<polygon class="st1" points="51.3,27.9 51.3,29.2 50.4,29.7 50.5,28.3 			"/>
			<path class="st2" d="M47.6,30.2v-1.4c0.1,0.5,0.4,1,0.9,1.2v1.4C48,31.2,47.7,30.7,47.6,30.2z"/>
			<g>
				<defs>
					<path id="SVGID_4_" d="M47.6,30.2v-1.4c0.1,0.5,0.4,1,0.9,1.2v1.4C48,31.2,47.7,30.7,47.6,30.2z"/>
				</defs>
				<clipPath id="SVGID_5_">
					<use xlink:href="#SVGID_4_"  style="overflow:visible;"/>
				</clipPath>
				<g class="st20">
					<g>
						<path class="st2" d="M48.5,30v1.4c-0.5-0.2-0.8-0.7-0.9-1.2v-1.4C47.7,29.3,48,29.8,48.5,30z"/>
					</g>
				</g>
			</g>
			<polygon class="st4" points="66.1,31.4 66,32.8 55.5,26.8 55.5,25.4 			"/>
			<polygon class="st5" points="66.1,31.4 65.2,31.9 54.7,25.8 55.5,25.4 			"/>
			<polygon class="st6" points="66.1,31.4 66,32.8 65.2,33.3 65.2,31.9 			"/>
			<polygon class="st7" points="65.2,31.9 65.2,33.3 54.7,27.2 54.7,25.8 			"/>
			<polygon class="st4" points="63.9,32.7 63.9,34.1 53.4,28 53.4,26.6 			"/>
			<polygon class="st7" points="63.1,33.2 63.1,34.5 52.6,28.5 52.6,27.1 			"/>
			<polygon class="st6" points="63.9,32.7 63.9,34.1 63.1,34.5 63.1,33.2 			"/>
			<polygon class="st5" points="63.9,32.7 63.1,33.2 52.6,27.1 53.4,26.6 			"/>
			<polygon class="st4" points="61.8,33.9 61.8,35.3 51.3,29.2 51.3,27.9 			"/>
			<polygon class="st2" points="55.4,34 55.4,35.4 48.5,31.4 48.5,30 			"/>
			<polygon class="st6" points="61.8,33.9 61.8,35.3 61,35.8 61,34.4 			"/>
			<polygon class="st7" points="61,34.4 61,35.8 50.4,29.7 50.5,28.3 			"/>
			<path class="st8" d="M67.8,30.2c1.2,0.7,1.2,1.8,0.1,2.5l-2.3,1.2l-3,1.8l-5.4,3.2L55.4,34l-6.9-4c-1.2-0.7-1.2-1.8,0-2.4
				l5.2-3.1c1.3-0.7,3-0.7,4.3,0L67.8,30.2z M63.1,33.2l0.8-0.5l-10.5-6.1l-0.8,0.5L63.1,33.2z M65.2,31.9l0.9-0.5l-10.6-6l-0.8,0.4
				C54.7,25.8,65.2,31.9,65.2,31.9z M61,34.4l0.8-0.5l-10.5-6l-0.8,0.4L61,34.4z"/>
			<polygon class="st5" points="61.8,33.9 61,34.4 50.5,28.3 51.3,27.9 			"/>
			<path class="st9" d="M68.7,31.4v0.3l0,0l-0.2,0.2l0,0l-0.2,0.3h-0.2c-0.1,0.1-0.2,0.1-0.2,0.2l-2.3,1.2l-3,1.8l-5.4,3.2v1.3
				l5.4-3.1l3-1.8l2.3-1h0.2c0-0.1,0.1-0.1,0.2-0.1l0,0l0.2-0.2h0.1c0-0.1,0-0.2,0.1-0.2l0,0C68.7,33.5,68.7,31.4,68.7,31.4z"/>
			<polygon class="st2" points="57.2,38.9 57.2,40.3 55.4,35.4 55.4,34 			"/>
			<path class="st21" d="M73.1,39.2c-1.8-1-4-1-5.8,0c-1.6,0.9-1.6,2.4,0,3.3c1.8,1,4.1,1,5.9,0C74.8,41.6,74.8,40.1,73.1,39.2z"/>
			<path class="st8" d="M72.3,37.4c0.3,0.1,0.4,0.5,0.3,0.8c-0.1,0.1-0.2,0.2-0.3,0.3l-1,0.2c0.2,0.5,0.1,1-0.3,1.3l-3.1-1.8
				c0.7-0.3,1.4-0.3,2.1-0.2c0-0.2,0.2-0.4,0.4-0.6C71,37.1,71.7,37.1,72.3,37.4z"/>
			<path class="st10" d="M74.8,38.7L74.8,38.7c-0.1,0.1-0.2,0.1-0.2,0.2l0,0v0.2c-0.1,0-0.1,0-0.1,0.1l-0.2,0.2H74
				c0,0.1,0,0.1-0.1,0.1h-0.2l-0.6,0.4c-0.1,0-0.1,0.1-0.1,0.1h-4.5c0-0.1,0-0.1-0.1-0.1l-0.6-0.4c-0.7-0.4-1.1-1.2-1.2-2.1v1.3
				c0.1,0.9,0.5,1.7,1.2,2.1l0.6,0.4H73l0.6-0.4h0.1c0-0.1,0-0.1,0.1-0.1h0.1c0.1,0,0.1-0.1,0.1-0.1h0.2l0.2-0.2l0,0
				c0.1,0,0.1,0,0.1-0.1h0.2c0-0.1,0-0.1,0.1-0.1l0,0v-0.2l0,0v-1.1L74.8,38.7z"/>
			<path class="st5" d="M73.6,36.6c1.6,1,1.6,2.5,0,3.4c-1.8,1-4,1-5.8,0c-1.6-0.9-1.6-2.4,0-3.4C69.6,35.7,71.8,35.7,73.6,36.6z
				 M67.9,38.2L71,40c0.4-0.3,0.5-0.8,0.3-1.3l1-0.2c0.3-0.1,0.4-0.5,0.3-0.8c-0.1-0.1-0.2-0.2-0.3-0.3c-0.6-0.3-1.3-0.3-1.9,0
				C70.2,37.6,70,37.8,70,38C69.3,37.9,68.6,37.9,67.9,38.2z"/>
			<path class="st5" d="M52.1,72.8c0.1,1,0.5,2,1,2.9c0.8,1,4.4,3.3,4.2,4.3s-3,1.1-4.6-0.6s-2.1-2-2.8-2.2
				c-0.9-0.1-1.5-0.9-1.3-1.8c0-0.3,0.2-0.6,0.3-0.8C50.1,74.3,51.2,73.7,52.1,72.8z"/>
			<path class="st5" d="M47.4,76.2c0.1,1.1,0.6,2.1,1.2,2.9c0.9,1.1,4.9,3.2,4.6,4.3s-3,1.3-4.8-0.3s-2.3-2-3.1-2.1s-1.9-1-1.2-2.7
				C45.4,77.9,46.5,77.2,47.4,76.2z"/>
			<path class="st22" d="M37.6,48.5c0,0,13.4,7.5,14.2,9.8s0.9,5.7,0.4,14.1v2c-1,0.8-2.4,1-3.6,0.4c-0.6-0.3,0-5.8-0.9-8.9
				c-0.2-1.5-0.2-3.1,0-4.6c0,0-10.8-3.7-13.3-6S37.6,48.5,37.6,48.5z"/>
			<path class="st2" d="M26.3,50.9c0,0-2.1,4.8,3.5,7.7s12.4,6.8,12.4,6.8c-0.1,2,0,4.1,0.3,6.1c0.6,3.1,1.5,7.1,1.5,7.1
				s2.6,1.1,4-0.4c0,0,0.2-14.8-1.6-16.5S36,53.4,36,53.4l1.6-4.9L26.3,50.9z"/>
			<path class="st22" d="M29.8,58.6c6,3.1,12.4,6.8,12.4,6.8c-0.1,2,0,4.1,0.3,6.1c0.6,3.1,1,7,1,7c0.5,0.2,1.1,0.3,1.6,0.3
				c-0.9-4-1.3-12.9-1.7-14.5s-6.8-4.2-11.3-6.6c-2.7-1.4-4.4-4.1-4.7-7.1l-1.1,0.3C26.3,50.9,24.2,55.7,29.8,58.6z"/>
			<path class="st2" d="M52.6,72.1c0.6-8.4,0.3-10.4-0.8-13.8s-14.2-9.8-14.2-9.8l-1.5,1.4c3.6,1.8,12.2,6.3,13.8,9.3
				s0.5,13.1,0.7,15.9c0.6-0.1,1.3-0.3,1.9-0.5L52.6,72.1z"/>
			<path class="st23" d="M43.6,45.6c0,0,1.9-0.3,2.7,0.4s1.4,0.8,1.8,1.6s-0.1,1-0.7,1c-0.9-0.1-1.8-0.5-2.6-1
				c-0.4-0.3-0.9-0.4-1.4-0.5C43.1,47.1,42.7,46.2,43.6,45.6z"/>
			<path class="st24" d="M35.4,31.1c0.9-0.1,2.4,0.4,2.4,2.9s-0.3,9.2-0.3,9.2s6.2,1.8,6.9,2.2c-0.7,0.3-1.1,1.1-0.9,1.8
				c0,0-7.3,0.2-8.6-1.6S31.7,31.5,35.4,31.1z"/>
			<path class="st25" d="M24.8,35.9c0,0,2.2-3.7,10.8-5c0,0,1.4-0.5,1.3,3.9c0.1,0.9,0.5,1.7,1.1,2.4c0.4,0.6,1.6,2.8-1,5.5
				c0,0-1,4,0.2,6.6s-4.6,4.5-9.4,4c-0.6,0-2-0.4-1.4-2.5s1.7-5.7,0.7-9.5S24.2,37.9,24.8,35.9z"/>
			<path class="st26" d="M24.8,35.9c-0.6,2,1.4,1.5,2.3,5.4s-0.2,7.4-0.7,9.5s0.8,2.5,1.4,2.5h2.4c-1.7-3.8,0.5-10.5,0.6-14.2
				c0-2.4-1.4-4.5-3.5-5.5C26.3,34.2,25.5,35,24.8,35.9z"/>
			<path class="st10" d="M34.1,24c0,0-0.6,4.5-0.9,8.7c0,0.8,0.7,1.5,1.6,1.4c0.1,0,0.2,0,0.2,0c0,0,3.2-5,0.6-10
				c-1.2-2.3-4-3.2-6.3-2c-0.3,0.1-0.5,0.3-0.8,0.5L34.1,24z"/>
			<path class="st27" d="M35,29.9c0,0-1.6,1.8-0.8,3.7c0.8,1.9,0.6,2.8-2.7,1.8c0,0-3.4-1.7-2.4-2.8s1.4-1.7,0.4-5.2L35,29.9z"/>
			<path class="st28" d="M29.1,32.6c-0.1,0.2-0.2,0.3-0.2,0.4c2,0.3,3.9-0.3,5.4-1.6l-4.1-3.7l0,0l-0.5,0.4
				C30.4,31.1,29.7,32,29.1,32.6z"/>
			<path class="st29" d="M34.5,23.5c0,0,0.9,0.3,0.9,3c0,0.3,0.5,0.7,0.6,1.4s0.2,3.7-1.5,4c-2.3,0.1-4.5-1.3-5.3-3.5
				C28.2,25.4,30.7,21.6,34.5,23.5z"/>
			<path class="st5" d="M34.3,24.6c0,0-7.6,2.8-1.9,12.6c0,0-4,0.4-5.8-3.1c-0.8-1.6-0.5-4.9-0.2-8.1c0,0,0.9-4.8,5-4.1
				C31.4,21.9,34,22.9,34.3,24.6z"/>
			<path class="st10" d="M34.3,24.6c0,0,1.3-0.3,2,2.2c0,0-0.2-6.9-6.8-4.8C29.5,22,33.4,22.2,34.3,24.6z"/>
			<path class="st29" d="M30.7,28.9c0,0-0.4-1.5-1.3-1.1s-0.5,0.5-0.1,1.2s1.2,1.5,1.9,1.4L30.7,28.9z"/>
			<path class="st23" d="M36.2,48.3c0,0,1.9,0.1,2.6,0.9c0.7,0.7,1.2,1.5,1.7,2.4c0.3,0.8,0.1,1-0.5,0.9c-1.1-0.5-2.1-1.1-3-1.9
				c-0.8-0.8-1-0.7-1.3-0.8S35.2,48.7,36.2,48.3z"/>
			<path class="st28" d="M35.7,49.8c0.3,0.1,0.5,0,1.3,0.8c0.9,0.8,1.9,1.4,3,1.9h0.2l-2-2c-0.7-0.7-1.7-1.2-2.7-1.4
				C35.4,49.4,35.5,49.6,35.7,49.8z"/>
			<path class="st24" d="M25.8,35.1c0.9-0.2,2.4,0.2,2.6,2.6s0.9,9.1,0.9,9.1s6.4,1.1,7.2,1.4c-0.7,0.3-1,1-0.8,1.7
				c0,0-7.1,1.3-8.7-0.3S22.1,36,25.8,35.1z"/>
			<path class="st25" d="M36.5,48.2c-0.8-0.3-7.2-1.4-7.2-1.4s-0.6-6.7-0.9-9.1s-1.7-2.8-2.6-2.6l-0.6,0.3h-0.1c0,0,2.2,1,2.5,5.4
				s-1.4,7,2.3,7.4l5.8,0.6C35.9,48.5,36.2,48.3,36.5,48.2z"/>
			<polygon class="st30" points="34.6,56.1 43.9,61.5 51.1,57.3 41.8,51.9 			"/>
			<polygon class="st31" points="42.1,59.2 42.3,59.3 44.5,58.1 44.3,58 			"/>
			<polygon class="st31" points="43,59.7 43.2,59.9 46.5,58 46.3,57.8 			"/>
			<polygon class="st31" points="42.6,59.5 42.8,59.6 45.6,58 45.4,57.8 			"/>
			<polygon class="st31" points="45.3,56.9 47.2,58 48.8,57 47,55.9 			"/>
			<polygon class="st31" points="43.9,60.2 44.1,60.4 46.9,58.7 46.7,58.6 			"/>
			<polygon class="st31" points="43.4,60 43.7,60.1 45.9,58.8 45.6,58.7 			"/>
			<polygon class="st31" points="41.7,59 41.9,59.1 45.2,57.2 44.9,57.1 			"/>
			<polygon class="st31" points="39.1,57.2 39.3,57.3 41.5,56 41.2,55.9 			"/>
			<polygon class="st31" points="39.9,57.7 40.2,57.8 43.4,55.9 43.2,55.8 			"/>
			<polygon class="st31" points="39.5,57.4 39.7,57.6 42.6,55.9 42.3,55.8 			"/>
			<polygon class="st31" points="40.8,58.2 41,58.3 43.9,56.7 43.7,56.6 			"/>
			<polygon class="st31" points="40.4,57.9 40.6,58.1 42.8,56.8 42.6,56.7 			"/>
			<polygon class="st31" points="38.6,56.9 38.8,57 42.1,55.2 41.9,55 			"/>
		</g>
	</g>
</g>
<g id="Layer_2" class="st32">
	<g id="Layer_2_2_" class="st33">
		<rect x="-108.3" y="24.7" class="st5" width="66.7" height="34.6"/>
		<rect x="-108.3" y="-18.6" class="st10" width="66.7" height="34.6"/>
		<rect x="-108.3" y="65" class="st34" width="66.7" height="34.6"/>
	</g>
</g>
</svg>
