<?xml version="1.0" encoding="utf-8"?>
<!-- Generator: Adobe Illustrator 24.0.0, SVG Export Plug-In . SVG Version: 6.00 Build 0)  -->
<svg version="1.1" xmlns="http://www.w3.org/2000/svg" xmlns:xlink="http://www.w3.org/1999/xlink" x="0px" y="0px"
	 viewBox="0 0 105.6 87.5" style="enable-background:new 0 0 105.6 87.5;" xml:space="preserve">
<style type="text/css">
	.st0{opacity:0.1;}
	.st1{fill:#A9D6EA;}
	.st2{fill:#95C4DE;}
	.st3{fill:#DEF6FF;}
	.st4{fill:url(#SVGID_1_);}
	.st5{fill:#75B2CC;}
	.st6{fill:url(#SVGID_2_);}
	.st7{clip-path:url(#SVGID_4_);}
	.st8{fill:#B8387B;}
	.st9{fill:url(#SVGID_5_);}
	.st10{fill:url(#SVGID_6_);}
	.st11{fill:#D70010;}
	.st12{fill:url(#SVGID_7_);}
	.st13{fill:url(#SVGID_8_);}
	.st14{fill:url(#SVGID_9_);}
	.st15{fill:url(#SVGID_10_);}
	.st16{fill:url(#SVGID_11_);}
	.st17{fill:url(#SVGID_12_);}
	.st18{fill:#BAD1DE;}
	.st19{fill:#EFB185;}
	.st20{fill:#A3C1CE;}
	.st21{fill:#111114;}
	.st22{fill:#282828;}
	.st23{fill:#101010;}
	.st24{fill:#CAE0EA;}
	.st25{fill:#FEFFFF;}
	.st26{fill:#DD9569;}
	.st27{fill:#F2B78F;}
	.st28{fill:#E6A376;}
	.st29{fill:#341C09;}
	.st30{fill:#221101;}
	.st31{fill:#9DBCC9;}
	.st32{fill:#E2E6ED;}
	.st33{fill:#A5AAB4;}
	.st34{display:none;}
	.st35{display:inline;}
	.st36{fill:#7A0110;}
</style>
<g id="Layer_1">
	<title>8</title>
	<g id="Layer_2_1_">
		<g id="Layer_1-2">
			<g class="st0">
				<path d="M1.2,45.8c-1.6,0.9-1.6,2.4,0,3.3l3,1.8L60.9,84l4.8,2.8c1.7,0.9,3.8,0.9,5.5,0l33.2-19c1.5-0.9,1.5-2.3,0-3.2
					L39.9,26.9c-1.8-0.9-3.8-0.9-5.6,0L1.2,45.8z"/>
			</g>
			<path class="st1" d="M0,35.4c0,0.1,0,0.3,0.1,0.4l0,0c0,0.2,0.1,0.3,0.2,0.4l0,0l0.3,0.3l0.3,0.2c0.1,0.1,0.2,0.1,0.2,0.2
				l3.1,1.8v5.1l-3-1.7H0.9l-0.3-0.2l0,0c-0.1-0.1-0.2-0.2-0.2-0.3H0.3c0-0.1,0-0.1-0.1-0.1c0-0.1-0.1-0.2-0.1-0.3H0V41l0,0V35.4z"
				/>
			<path class="st2" d="M104.4,55.4c0.7-0.3,1.1-0.9,1.2-1.6V59c0,0.6-0.4,1.1-1.2,1.6L71.3,79.7v-5.2L104.4,55.4z"/>
			<path class="st1" d="M65.7,74.5l0.8,0.4h4.2l0.6-0.3v5.2l-0.5,0.3h-4.3l-0.7-0.3L61,76.9v-5.1L65.7,74.5z"/>
			<path class="st3" d="M1.2,33.8c-1.6,0.9-1.6,2.3-0.1,3.2l3.1,1.8l56.8,33l4.7,2.7c1.8,0.9,3.8,0.9,5.6,0l33.1-19.1
				c1.6-0.9,1.6-2.3,0-3.2L39.8,14.7c-1.8-0.9-3.8-0.9-5.6,0L1.2,33.8z"/>
			
				<linearGradient id="SVGID_1_" gradientUnits="userSpaceOnUse" x1="-1757.9371" y1="69.3926" x2="-1839.7072" y2="22.9726" gradientTransform="matrix(-1 0 0 -1 -1747.37 90)">
				<stop  offset="0" style="stop-color:#FF2247"/>
				<stop  offset="1" style="stop-color:#D70010"/>
			</linearGradient>
			<polygon class="st4" points="4.2,38.8 61,71.8 99.7,49.5 42.9,16.4 			"/>
			<path class="st5" d="M14,29.1c-0.4,0.3-0.4,0.8,0.2,1.1c0.4,0.3,0.9,0.3,1.4,0.1l12-6.8c0.4-0.2-0.1-0.8-0.5-1
				c-0.5-0.3-1-0.3-1.5,0L14,29.1z"/>
			<path class="st1" d="M14.4,29.5c-0.2,0-0.4,0.2-0.4,0.4c0,0.2,0.2,0.4,0.4,0.4c0.5,0.3,1,0.3,1.5,0l11.5-6.7
				c0.2,0,0.4-0.2,0.4-0.4c0-0.2-0.2-0.4-0.4-0.4c-0.5-0.3-1-0.3-1.5,0L14.4,29.5z"/>
			
				<linearGradient id="SVGID_2_" gradientUnits="userSpaceOnUse" x1="-1808.37" y1="32.15" x2="-1751.5699" y2="32.15" gradientTransform="matrix(-1 0 0 -1 -1747.37 90)">
				<stop  offset="0" style="stop-color:#7A0110"/>
				<stop  offset="1" style="stop-color:#D70010"/>
			</linearGradient>
			<polygon class="st6" points="4.2,38.8 4.2,43.9 61,76.9 61,71.8 			"/>
			<g>
				<g>
					<defs>
						<polygon id="SVGID_3_" points="29.1,42.3 29.1,41.1 29.1,41.1 						"/>
					</defs>
					<clipPath id="SVGID_4_">
						<use xlink:href="#SVGID_3_"  style="overflow:visible;"/>
					</clipPath>
					<g class="st7">
						<g>
							<path class="st8" d="M28.7,40.9v1.4l0.4,0.2h0.1v-1.4l0,0l-0.4-0.2L28.7,40.9z"/>
						</g>
					</g>
				</g>
			</g>
			<g class="st0">
				<polygon points="94.1,48.5 72.1,61.2 21.5,32 44,18.8 				"/>
			</g>
			<g>
				
					<linearGradient id="SVGID_5_" gradientUnits="userSpaceOnUse" x1="101.49" y1="64.05" x2="110.39" y2="64.05" gradientTransform="matrix(1 0 0 -1 -71 90)">
					<stop  offset="0" style="stop-color:#E8001C"/>
					<stop  offset="0.1959" style="stop-color:#C90018"/>
					<stop  offset="0.4934" style="stop-color:#A80014"/>
					<stop  offset="0.74" style="stop-color:#7A0110"/>
					<stop  offset="1" style="stop-color:#7A0110"/>
				</linearGradient>
				<polygon class="st9" points="39.4,14.8 39.3,31.9 30.5,37.1 30.5,20 				"/>
				
					<linearGradient id="SVGID_6_" gradientUnits="userSpaceOnUse" x1="97.8397" y1="76.3207" x2="95.9797" y2="47.4207" gradientTransform="matrix(1 0 0 -1 -71 90)">
					<stop  offset="0" style="stop-color:#E8001C"/>
					<stop  offset="0.1959" style="stop-color:#C90018"/>
					<stop  offset="0.4934" style="stop-color:#A80014"/>
					<stop  offset="0.74" style="stop-color:#7A0110"/>
					<stop  offset="1" style="stop-color:#7A0110"/>
				</linearGradient>
				<polygon class="st10" points="30.5,20 30.5,37.1 21.6,31.9 21.6,14.8 				"/>
				<polygon class="st11" points="39.4,14.8 30.5,20 21.6,14.8 30.5,9.7 				"/>
			</g>
			<g>
				
					<linearGradient id="SVGID_7_" gradientUnits="userSpaceOnUse" x1="114.85" y1="61.5" x2="123.78" y2="61.5" gradientTransform="matrix(1 0 0 -1 -71 90)">
					<stop  offset="0" style="stop-color:#E8001C"/>
					<stop  offset="0.1959" style="stop-color:#C90018"/>
					<stop  offset="0.4934" style="stop-color:#A80014"/>
					<stop  offset="0.74" style="stop-color:#7A0110"/>
					<stop  offset="1" style="stop-color:#7A0110"/>
				</linearGradient>
				<polygon class="st12" points="52.7,11.7 52.7,40.2 43.8,45.3 43.9,16.8 				"/>
				
					<linearGradient id="SVGID_8_" gradientUnits="userSpaceOnUse" x1="111.0368" y1="80.6811" x2="109.6368" y2="38.5111" gradientTransform="matrix(1 0 0 -1 -71 90)">
					<stop  offset="0" style="stop-color:#E8001C"/>
					<stop  offset="0.1959" style="stop-color:#C90018"/>
					<stop  offset="0.4934" style="stop-color:#A80014"/>
					<stop  offset="0.74" style="stop-color:#7A0110"/>
					<stop  offset="1" style="stop-color:#7A0110"/>
				</linearGradient>
				<polygon class="st13" points="43.9,16.8 43.8,45.3 34.9,40.2 35,11.7 				"/>
				<polygon class="st11" points="52.7,11.7 43.9,16.8 35,11.7 43.8,6.6 				"/>
			</g>
			<g>
				
					<linearGradient id="SVGID_9_" gradientUnits="userSpaceOnUse" x1="128.22" y1="59.2" x2="137.18" y2="59.2" gradientTransform="matrix(1 0 0 -1 -71 90)">
					<stop  offset="0" style="stop-color:#E8001C"/>
					<stop  offset="0.1959" style="stop-color:#C90018"/>
					<stop  offset="0.4934" style="stop-color:#A80014"/>
					<stop  offset="0.74" style="stop-color:#7A0110"/>
					<stop  offset="1" style="stop-color:#7A0110"/>
				</linearGradient>
				<polygon class="st14" points="66.1,8.3 66,48.2 57.2,53.3 57.3,13.4 				"/>
				
					<linearGradient id="SVGID_10_" gradientUnits="userSpaceOnUse" x1="124.0805" y1="78.9003" x2="123.3805" y2="29.7403" gradientTransform="matrix(1 0 0 -1 -71 90)">
					<stop  offset="0" style="stop-color:#E8001C"/>
					<stop  offset="0.1959" style="stop-color:#C90018"/>
					<stop  offset="0.4934" style="stop-color:#A80014"/>
					<stop  offset="0.74" style="stop-color:#7A0110"/>
					<stop  offset="1" style="stop-color:#7A0110"/>
				</linearGradient>
				<polygon class="st15" points="57.3,13.4 57.2,53.3 48.3,48.2 48.4,8.3 				"/>
				<polygon class="st11" points="66.1,8.3 57.3,13.4 48.4,8.3 57.2,3.1 				"/>
			</g>
			<g>
				
					<linearGradient id="SVGID_11_" gradientUnits="userSpaceOnUse" x1="147.1342" y1="79.9897" x2="148.0642" y2="33.3897" gradientTransform="matrix(1 0 0 -1 -71 90)">
					<stop  offset="0" style="stop-color:#E8001C"/>
					<stop  offset="0.1959" style="stop-color:#C90018"/>
					<stop  offset="0.4934" style="stop-color:#A80014"/>
					<stop  offset="0.74" style="stop-color:#7A0110"/>
					<stop  offset="1" style="stop-color:#7A0110"/>
				</linearGradient>
				<polygon class="st16" points="81.1,5.1 80.9,56.4 72.1,61.6 72.2,10.3 				"/>
				
					<linearGradient id="SVGID_12_" gradientUnits="userSpaceOnUse" x1="139.5428" y1="80.9313" x2="137.6828" y2="27.3413" gradientTransform="matrix(1 0 0 -1 -71 90)">
					<stop  offset="0" style="stop-color:#E8001C"/>
					<stop  offset="0.1959" style="stop-color:#C90018"/>
					<stop  offset="0.4934" style="stop-color:#A80014"/>
					<stop  offset="0.74" style="stop-color:#7A0110"/>
					<stop  offset="1" style="stop-color:#7A0110"/>
				</linearGradient>
				<polygon class="st17" points="72.2,10.3 72.1,61.6 63.2,56.4 63.3,5.1 				"/>
				<polygon class="st11" points="81.1,5.1 72.2,10.3 63.3,5.1 72.2,0 				"/>
			</g>
			<path class="st18" d="M39.2,24c1.2,0.2,2,1.3,1.9,2.5c0,2.2-2.1,11.8-4.5,13.7s-2.3-2.6-2.3-2.6S35.8,23.5,39.2,24z"/>
			<path class="st19" d="M25.9,39.4c-1.5,0.3-3,0.2-4.5-0.3c-1.8-0.8-1.4-0.8-1.3-1.1s2.8-0.4,3.2-0.6S23,37,22.8,36.7
				s-0.6-0.7-0.5-0.8s0.5-0.2,1.2,0.3c0.7,0.5,1.6,1,2.4,1.3L25.9,39.4z"/>
			<path class="st18" d="M25.5,37.2c0.1,0.4,0.2,0.8,0.2,1.2c0,0.5-0.1,1-0.4,1.4c0,0,8.8,1.8,11,0.7c0,0,2.2-3.4-1.1-4.3L25.5,37.2
				z"/>
			<path class="st20" d="M35.6,40.7l0.7-0.2l0,0l0.3-0.2c2.4-1.9,4.5-11.5,4.5-13.7c0-0.4,0-0.7-0.1-1.1c-0.8,2.5-4.1,13.9-5.1,14.1
				c-3.4,0-6.9-0.1-10.3-0.4c-0.1,0.2-0.2,0.5-0.3,0.7C25.3,39.9,32.6,41.3,35.6,40.7z"/>
			<path class="st21" d="M29.3,67.6c0,0,0.5,1.8-0.8,2.2c-1,0.3-1.9,0.8-2.7,1.4c-0.5,0.3-5.8,2.6-6.4,1.5s0.9-2.3,1.3-2.6l4-3.5
				L29.3,67.6z"/>
			<path class="st21" d="M33.6,70.7c0,0,0.5,1.7-0.8,2.2c-1,0.3-1.9,0.7-2.7,1.3c-0.5,0.4-5.8,2.6-6.4,1.6s0.9-2.3,1.3-2.7l4-3.5
				L33.6,70.7z"/>
			<path class="st22" d="M38.1,42.3c0,0-13,8.2-13.3,10.2s-0.3,14.4-0.3,14.4s3.3,1.4,4.9,0.5l1.4-11.5L41.4,48
				C41.9,47.8,38.1,42.3,38.1,42.3z"/>
			<path class="st23" d="M41.4,48l-10.6,7.9l-1.4,11.5c-1,0.3-2,0.4-3,0.1c0.5-3.5,1.5-11.2,1.9-13.2s11-8.6,11-8.6l2.1,2
				C41.5,47.9,41.5,48,41.4,48z"/>
			<path class="st22" d="M38.1,42.6c0,0,1.5,4.5,2.3,5.4S30,53.5,29.5,56.2s-1.2,14-1.2,14c1.7,1,3.7,1.1,5.5,0.4
				c0,0,1.1-8.7,1.2-12.2c0,0,15.8-4.2,14.6-12.8C45.5,46.9,41,45.7,38.1,42.6z"/>
			<path class="st23" d="M35,58.4c-0.1,3.5-1.2,12.2-1.2,12.2L32.2,71c0.1-1.4,0.2-3.2,0.4-5.5c0.5-8.8,1.8-8.7,1.8-8.7
				c10-4.5,12-8.8,12-8.8l3.2-1.9C50.2,54.4,35,58.4,35,58.4z"/>
			<path class="st18" d="M44.8,24.8c0,0,5,2.5,5.1,2.9s1.4,1.3-0.4,5.7c0,0-2.5,4.7-1.2,9.4c0.3,1.4,0.8,2.8,1.3,4.2
				c0,0-2.2,3.3-8.4,1c-1.6-0.8-3-2-3.9-3.5c0.3-2.9,0.2-5.9-0.2-8.8C36.3,31,35.9,24.8,38.5,24C38.5,24,39.2,23.2,44.8,24.8z"/>
			<path class="st24" d="M37.1,35.7c0.4,2.9,0.5,5.9,0.2,8.8c0.9,1.5,2.3,2.7,3.9,3.5l2,0.6c-0.5-1.1-0.8-2.3-1.1-3.5
				c-1.3-4.8,1.2-9.5,1.2-9.5c1.8-4.4,0.6-5.3,0.4-5.7c-1.6-1.1-3.3-2-5-2.9l-1.9-0.5C36.2,28.9,36.6,32.6,37.1,35.7z"/>
			<path class="st25" d="M43.1,23.3c0,0-3.6,1.9-2,4.6l-1.7,0.9C39.4,28.8,37.7,24.1,43.1,23.3z"/>
			<path class="st19" d="M45.4,21.4c0,0-1.5,2.3-0.3,3.8s-0.9,3-3.6,2.8c0,0-1.2-0.3-1.1-0.7c0.2-0.8,0-1.7-0.5-2.4
				C39.4,24.2,45.4,21.4,45.4,21.4z"/>
			<path class="st26" d="M45.1,25.2c0.1,0.1,0.1,0.3,0.1,0.4c-0.8-0.7-1.8-1-2.9-1.1l2.6-2.9h0.2v0.3C44.8,22.5,44.2,24.1,45.1,25.2
				z"/>
			<path class="st27" d="M40.4,27.3c0.3-1.6-0.1-1.6-0.5-2.4s0.2-0.5,0.8-0.9l0.4,0.4c0.8,1,1.1,2.3,1,3.6h-0.6
				C41.2,27.9,40.3,27.7,40.4,27.3z"/>
			<path class="st19" d="M46,20.1c-0.4,1.7-1.4,3.3-2.8,4.4c-1.8,1.2-4,2-4.4-0.2s-1.2-6.2,0.4-7.1s2.7-2.6,5-1.8
				C44.2,15.4,46.9,16.6,46,20.1z"/>
			<path class="st28" d="M46,20.1c-0.3,1.8-1.3,3.4-2.8,4.4c-0.5,0.4-1.1,0.7-1.7,1c0.6-0.5,1.3-1.2,1.8-1.8
				c0.8-0.9-1.1-0.6,0.2-2.8s-1.7,0.2-2.2,0.2c-2.9-0.1-2.7-1.7-2.7-2.4c0-0.3,0.1-0.6,0.2-0.9l0.3-0.5c0-0.1,0-0.1,0.1-0.1l0.9-1.1
				l4.8,0.2l1.2,1.6C46.2,18.6,46.2,19.4,46,20.1z"/>
			<path class="st29" d="M44.7,23c1.4-1.3,1.9-3.3,1.5-5.1c-0.3-1.5-1.6-2.7-3.1-2.8c-2-0.4-4,0.6-4.8,2.5c-0.3,0.8-0.1,2.6,3.1,1.8
				c0.5-0.1,1.7-0.3,2.1,0.1c0.5,0.5,0.6,1.2,0.3,1.8c-0.2,0.5,0.3,0.6,0.4,0.5s0.6-1.7,1.2-1.1S44.8,22.9,44.7,23z"/>
			<path class="st30" d="M44.7,23c0.1-0.1,1.3-1.8,0.7-2.3s-1.2,0.9-1.2,1.1s-0.6,0-0.4-0.5c0.3-0.6,0.2-1.3-0.3-1.8
				c-0.7-0.2-1.4-0.3-2.1-0.1c0.5-0.3,1.6-0.5,2-1.3c0.3-0.9,1-1.7,1.9-2c0.5,0.5,0.8,1.1,0.9,1.8C46.6,19.7,46.1,21.7,44.7,23z"/>
			<path class="st25" d="M44.7,24.5c-0.4,1.7-1.8,3.1-3.6,3.4L42,30C42,30,47.5,27.3,44.7,24.5z"/>
			<path class="st31" d="M49.9,27.7c0.2,0.4,1.4,1.3-0.4,5.7c-1.2,3-1.6,6.2-1,9.4c0.2,1.3,0.6,2.7,1.2,3.9c0.4,1-1.5,1.6-3.3,2.1
				c-0.7-1.7-1.2-3.5-1.3-5.3c-0.6-3.7-0.2-6.8,2.9-10.6s1.5-4.6,1.6-5.5L49.9,27.7z"/>
			<path class="st29" d="M38.3,17.6c0,0-0.5,3,3.2,1.9c1.2-0.3,2.1-1.1,2.7-2.2c0.2-0.5,0.6-1,1.2-1.1c0,0-1-1.4-3.6-1.2
				c-1,0.2-2,0.7-2.8,1.4C38.7,16.6,39.2,17.9,38.3,17.6z"/>
			<polygon class="st32" points="36.8,46.8 27.2,52.3 19.8,48.1 29.4,42.5 			"/>
			<polygon class="st33" points="29,50 28.8,50.2 26.6,48.9 26.8,48.7 			"/>
			<polygon class="st33" points="28.1,50.6 27.9,50.7 24.6,48.8 24.8,48.6 			"/>
			<polygon class="st33" points="28.6,50.3 28.4,50.4 25.4,48.7 25.7,48.6 			"/>
			<polygon class="st33" points="25.8,47.6 23.9,48.8 22.1,47.8 24.1,46.6 			"/>
			<polygon class="st33" points="27.2,51.1 27,51.2 24.1,49.5 24.3,49.4 			"/>
			<polygon class="st33" points="27.7,50.8 27.5,51 25.2,49.7 25.4,49.5 			"/>
			<polygon class="st33" points="29.5,49.8 29.3,49.9 25.9,48 26.2,47.8 			"/>
			<polygon class="st33" points="32.2,47.9 32,48.1 29.7,46.8 29.9,46.6 			"/>
			<polygon class="st33" points="31.3,48.5 31.1,48.6 27.7,46.7 27.9,46.5 			"/>
			<polygon class="st33" points="31.7,48.2 31.5,48.3 28.6,46.6 28.8,46.5 			"/>
			<polygon class="st33" points="30.4,49 30.2,49.1 27.2,47.4 27.5,47.3 			"/>
			<polygon class="st33" points="30.8,48.7 30.6,48.9 28.4,47.6 28.6,47.4 			"/>
			<polygon class="st33" points="32.6,47.7 32.4,47.8 29.1,45.9 29.3,45.8 			"/>
			<path class="st19" d="M38.6,47.2c0,0-3,2.5-5.9,1.9c0,0,0-0.8,1.3-1.1c0.8-0.1,1.5-0.6,1.8-1.4c-0.5-0.2-1-0.2-1.5-0.2
				c-0.4-0.1-1-0.7,0.1-0.7c1.4-0.2,2.7-0.3,4.1-0.3C38.5,45.4,39.6,46.5,38.6,47.2z"/>
			<path class="st18" d="M48.2,26.8c1.4,0.4,2.5,1.4,3,2.7c0.6,2.2,1.5,11.9-0.1,14.5s-12.7,3.8-12.7,3.8c0.4-1,0.3-2.1-0.3-3l9.4-4
				C47.5,40.8,45.9,27.7,48.2,26.8z"/>
			<path class="st24" d="M47.5,40.8l-9.4,4c0.1,0.2,0.3,0.4,0.3,0.6c2.3-0.8,9.8-3.4,10.5-4.3S48,29,47.7,27.3
				C46.1,29.9,47.5,40.8,47.5,40.8z"/>
		</g>
	</g>
</g>
<g id="Layer_2" class="st34">
	<g id="Layer_2_2_" class="st35">
		<rect x="-76.2" y="24.2" class="st11" width="66.7" height="34.6"/>
		<rect x="-76.2" y="-19.1" class="st36" width="66.7" height="34.6"/>
		<rect x="-76.2" y="64.5" class="st23" width="66.7" height="34.6"/>
	</g>
</g>
</svg>
