<?xml version="1.0" encoding="utf-8"?>
<!-- Generator: Adobe Illustrator 24.0.0, SVG Export Plug-In . SVG Version: 6.00 Build 0)  -->
<svg version="1.1" xmlns="http://www.w3.org/2000/svg" xmlns:xlink="http://www.w3.org/1999/xlink" x="0px" y="0px"
	 viewBox="0 0 93.9 100.4" style="enable-background:new 0 0 93.9 100.4;" xml:space="preserve">
<style type="text/css">
	.st0{opacity:0.1;}
	.st1{fill:#95C4DE;}
	.st2{fill:#A9D6EA;}
	.st3{fill:#DEF6FF;}
	.st4{opacity:0.5;fill:#DEF6FF;enable-background:new    ;}
	.st5{fill:#C0C5D1;}
	.st6{fill:url(#SVGID_1_);}
	.st7{fill:#FFFFFF;}
	.st8{fill:#C9C9C9;}
	.st9{opacity:0.8;}
	.st10{fill:#D70010;}
	.st11{fill:#7A0110;}
	.st12{fill:#0D2445;}
	.st13{fill:#111114;}
	.st14{fill:#2B3C4B;}
	.st15{fill:#314656;}
	.st16{fill:#EFB185;}
	.st17{fill:#DD9569;}
	.st18{fill:#E6A376;}
	.st19{fill:#131C24;}
	.st20{fill:#1D2833;}
	.st21{fill:#DEF0F9;}
	.st22{display:none;}
	.st23{display:inline;}
	.st24{fill:#101010;}
</style>
<g id="Layer_1">
	<title>9</title>
	<g id="Layer_2_1_">
		<g id="Layer_1-2">
			<g class="st0">
				<polygon points="93.9,85.5 68.3,100.4 9.2,66.3 35.4,50.9 				"/>
			</g>
			<g>
				<polygon class="st1" points="70.2,83.1 70.2,86 56.4,94 56.4,91.1 				"/>
				<polygon class="st2" points="56.4,91.1 56.4,94 23.7,75.1 23.7,72.3 				"/>
				<polygon class="st3" points="70.2,83.1 56.4,91.1 23.7,72.3 37.5,64.3 				"/>
				<polygon class="st4" points="70.2,83.1 23.7,72.3 23.7,72.3 37.5,64.3 				"/>
			</g>
			<g>
				<polygon class="st1" points="57.5,85.9 59.9,84.4 60,58.9 57.6,60.4 				"/>
				<polygon class="st5" points="57.6,60.4 60,58.9 37.8,46.1 35.4,47.5 				"/>
				<polygon class="st2" points="35.4,47.5 35.3,73 57.5,85.9 57.6,60.4 				"/>
			</g>
			<polygon class="st1" points="79.8,88.8 82.2,88.1 92.4,38.1 90,38.8 			"/>
			<polygon class="st2" points="90,38.8 92.4,38.1 26.4,0 24,0.7 			"/>
			<polygon class="st3" points="24,0.7 13.9,50.7 79.8,88.8 90,38.8 			"/>
			
				<linearGradient id="SVGID_1_" gradientUnits="userSpaceOnUse" x1="-1264.6833" y1="92.9115" x2="-1294.4434" y2="24.5015" gradientTransform="matrix(-1 0 0 -1 -1228.11 102)">
				<stop  offset="0" style="stop-color:#9B9B9B"/>
				<stop  offset="1" style="stop-color:#101010"/>
			</linearGradient>
			<polygon class="st6" points="25.8,4.6 16.8,49.7 77.9,85.1 87.2,39.4 			"/>
			<g>
				<polygon class="st7" points="33.5,14.8 33.1,16.5 42.8,22.1 43.1,20.4 				"/>
				<path class="st7" d="M46.7,63.9L24.3,51l4.9-21.6l22.4,13L46.7,63.9z M27.9,42.4l19,10.9l2.2-9.7l-19-10.9
					C30.1,32.7,27.9,42.4,27.9,42.4z"/>
				<polygon class="st7" points="30.9,21.9 30.5,23.5 52.9,36.5 53.3,34.8 				"/>
				<polygon class="st8" points="59.8,41.4 59.5,42.8 72.8,50.5 73.1,49.1 				"/>
				<polygon class="st8" points="60.5,38.4 60.1,39.7 73.5,47.4 73.8,46.1 				"/>
				<path class="st7" d="M68.4,77.5l-17.1-9.9l7.5-33l17,9.8L68.4,77.5z M54,66.9l13.4,7.7l2.1-9.6l-13.3-7.7L54,66.9z M57.9,49.5
					l13.4,7.7l0.3-1.3l-13.4-7.7L57.9,49.5z M60.1,39.7l13.4,7.7l0.3-1.3l-13.3-7.7C60.5,38.4,60.1,39.7,60.1,39.7z M58.6,46.5
					L72,54.2l0.3-1.4l-13.4-7.7L58.6,46.5z M59.5,42.8l13.3,7.7l0.3-1.4l-13.3-7.7C59.8,41.4,59.5,42.8,59.5,42.8z"/>
				<polygon class="st7" points="30.1,25.6 29.7,27.2 52.1,40.1 52.4,38.5 				"/>
				<polygon class="st7" points="52.5,25.8 52.1,27.5 76.5,41.6 76.9,39.8 				"/>
				<g class="st9">
					<path class="st10" d="M21.6,52.5l48.1,27.8l9.4-41.6L31,10.9L21.6,52.5z M29.7,27.2l0.4-1.6l22.3,12.9l0,0l-0.3,1.6l-14.2-8.2
						L29.7,27.2z M30.9,21.9l22.3,12.9l-0.3,1.7l-22.4-13C30.5,23.5,30.9,21.9,30.9,21.9z M31.2,20.5l0.4-1.6l22.3,12.9l-0.3,1.6
						C53.6,33.4,31.2,20.5,31.2,20.5z M77.7,39.3l-0.8,3.6L32,17l0.8-3.6L77.7,39.3z M68.4,77.5l-17.1-9.9l7.5-33l17,9.8L68.4,77.5z
						 M51.6,42.4l-4.9,21.5L24.3,51l4.9-21.6L51.6,42.4z"/>
				</g>
				<polygon class="st8" points="27.9,42.4 30.1,32.7 49.1,43.6 46.9,53.3 				"/>
				<polygon class="st7" points="31.6,18.9 31.2,20.5 53.6,33.4 53.9,31.8 				"/>
				<polygon class="st8" points="56.2,57.3 54,66.9 67.4,74.6 69.5,65 				"/>
				<path class="st11" d="M76.9,42.9L32,17l0.8-3.6l44.9,25.9L76.9,42.9z M52.1,27.5l24.4,14.1l0.4-1.8l-24.4-14L52.1,27.5z
					 M33.1,16.5l9.7,5.6l0.3-1.7l-9.6-5.6L33.1,16.5z"/>
			</g>
			<polygon class="st8" points="58.9,45.1 58.6,46.5 72,54.2 72.3,52.8 			"/>
			<polygon class="st8" points="58.2,48.2 57.9,49.5 71.3,57.2 71.6,55.9 			"/>
			<polygon class="st10" points="29,6.4 26.4,19.4 33.7,23.6 37.1,22.6 39.3,21.8 41.1,13.4 			"/>
			<polygon class="st11" points="39.3,21.8 35.1,19.9 33.7,23.6 			"/>
			<polygon class="st3" points="30.6,10 30.4,10.8 37.9,15.2 38.1,14.4 			"/>
			<polygon class="st3" points="30,12.4 29.9,13.2 37.4,17.6 37.6,16.7 			"/>
			<polygon class="st3" points="29.3,14.6 29.1,15.4 36.6,19.8 36.8,19 			"/>
			<path class="st3" d="M15.7,19.5C10.5,38.4,5.3,57.3,0,76.2c-0.4,1.5,2,2.2,2.4,0.7C7.6,58,12.8,39.1,18.1,20.2
				C18.5,18.7,16.1,18,15.7,19.5z"/>
			<path class="st3" d="M28,25.9L12.4,82.5c0,0.7,0.6,1.3,1.3,1.3c0.4,0,0.9-0.2,1.1-0.6l15.6-56.7c0.2-0.7-0.2-1.3-0.9-1.5
				S28.2,25.2,28,25.9z"/>
			<path class="st3" d="M14.1,28.9l12,7.3c0.5,0.5,1.2,0.5,1.7,0c0.5-0.5,0.5-1.2,0-1.7c-0.1-0.1-0.3-0.2-0.5-0.3l-12-7.4
				c-0.6-0.3-1.3-0.1-1.7,0.5C13.3,27.8,13.5,28.6,14.1,28.9z"/>
			<path class="st3" d="M11.8,38.4l11.3,7.3c1.3,0.8,2.5-1.3,1.2-2.1L13,36.3C11.7,35.5,10.5,37.6,11.8,38.4z"/>
			<path class="st3" d="M9.4,49.1l11.2,6.6c1.3,0.8,2.5-1.3,1.2-2.1L10.6,47C9.3,46.2,8.1,48.3,9.4,49.1z"/>
			<path class="st3" d="M6.6,57.1l11.3,7.1c1.3,0.8,2.5-1.3,1.2-2.1L7.8,55C6.5,54.2,5.3,56.3,6.6,57.1z"/>
			<path class="st3" d="M4.2,67l11.1,6.7c0.6,0.3,1.3,0.1,1.6-0.4c0.3-0.6,0.1-1.3-0.4-1.7L5.4,64.9C4.1,64.1,2.9,66.2,4.2,67z"/>
			<polygon class="st12" points="29.3,29.7 29.6,30.2 28.8,29.6 28.5,29.1 			"/>
			<path class="st13" d="M11,63.3c0,0,1.4,0.3,1,1.1s-2.1,1.8-2.4,2.2s-1.7,2.2-2.1,2S6,68.5,6.3,66.5C6.9,64.5,8.9,63.1,11,63.3z"
				/>
			<path class="st13" d="M12.7,70.9c0,0-0.9,1.8,0.7,2.5s1.2-0.5,4.8,0.8s4-0.6,4-1s-2.3-1.4-3.1-1.7c-0.8-0.4-1.6-0.8-2.3-1.2h-4.2
				L12.7,70.9z"/>
			<path class="st14" d="M9.3,36.4c0,0-1.2,11.7-1.3,13S5.3,61,5.7,65.7c0,0,2.3,2.8,4.8,0.5c0,0,2.1-13,3.1-15.9s1.6-11.9,1.6-11.9
				L9.3,36.4z"/>
			<path class="st14" d="M13.7,38.5c0,0-0.2,7.7-0.4,15.2c0,0-1.2,15-1,17.2c0,0,4.7,1.7,5.4-0.5c0,0,1.2-13.2,1.6-15.9
				s1.5-10.4,0.9-14.9S13.7,38.5,13.7,38.5z"/>
			<path class="st15" d="M12.3,70.9c-0.2-2.2,1-17.2,1-17.2c0.1-5.1,0.2-10.2,0.3-13l2.9,1c1,4.7,1.2,9.5,0.4,14.3
				c-0.9,6.5-1.7,12.9-2,15.5C14,71.4,13.1,71.2,12.3,70.9z"/>
			<path class="st15" d="M5.7,65.7C5.3,61,7.8,50.8,8,49.4s1.2-11.9,1.3-12.9l2.4,2.2c0,0,0,8.5-1.3,13.2S8.8,64.7,8.2,67.1
				C7.2,67,6.3,66.5,5.7,65.7z"/>
			<path class="st11" d="M16.5,13c0,0-2.3-0.8-3.3,3s-1.4,8.2-1,10.3s2,6.7,2,6.7s2.8,0.4,2.8-1.4l-1.4-6.9
				C15.6,24.7,19.2,13.3,16.5,13z"/>
			<path class="st10" d="M16.3,12.9c0,0-2.8,0.3-2.9,4.8s0,7.4-0.6,8.9s-3,6.3-3.6,7.2s-1.6,3.1,5.2,7.8c0,0,6,2.8,6.4-1.7
				c0.6-4.3,1.6-8.5,3.1-12.6c0.7-1.5,2.8-4.3-0.4-7.9S18.9,13.6,16.3,12.9z"/>
			<path class="st11" d="M23.9,27.3c-1.5,4.1-2.5,8.3-3.1,12.6c-0.3,3.1-3.2,2.7-5,2.2c0.1-2.1,2.2-5,2.3-9.4s1.5-8.7,3.3-11
				s2.2-1.1,3-1.1C26.2,23.6,24.6,25.9,23.9,27.3z"/>
			<path class="st16" d="M19.8,11.9c-0.3,1.2-0.9,2.3-1.7,3.2c-1.1,1,3.5,3.8,4,2.8c-0.1-1.5,0.5-3,1.7-4
				C24.8,13,19.8,11.9,19.8,11.9z"/>
			<path class="st17" d="M18.1,15.2c0.8-0.8,1.3-1.8,1.6-2.8l2.9,3l0,0c-0.1,0-2.7-0.2-3.9,1.3C18.1,16.2,17.7,15.6,18.1,15.2z"/>
			<path class="st16" d="M26.9,8.2c0,1.3-0.2,2.6-0.6,3.8c-0.8,1.7-0.6,2.1-1,2.9s-0.4,0.8-0.8,1c-0.4,0.2-2,0.1-3.3-1
				s-2.6-4.5-1-6.5S24.8,5.4,26.9,8.2z"/>
			<path class="st18" d="M19.4,10.9c1.3-1.4,2.7-2.7,4.2-3.8l1.6-0.4c0.7,0.4,1.3,0.9,1.7,1.5c0.1,0.5,0.1,0.9,0,1.4
				c-0.6,0.3-1.7,0.5-2,0.9c-0.6,1-0.9,2.1-0.9,3.2c0,0.7-1.5,1.3-1.5,1.9l0,0l-1.3-0.8C20.1,13.8,19.5,12.4,19.4,10.9z"/>
			<path class="st19" d="M27.8,7.6c-0.2,1.1-1.1,1.9-2.2,2c-1.2,0.1-1.6,1.7-1.7,2c0,0.6-0.2,1.2-0.4,1.8c-0.3,0.3-0.7-1-1.1-1.1
				s-0.9,0.9-0.4,2s-1.9,0.9-2.7-0.3s-0.6-0.9-0.8-2.7s0.6-5.2,3.6-5.7S25.9,7.7,27.8,7.6z"/>
			<path class="st20" d="M19.3,14c-0.5-0.6-0.6-0.9-0.8-2.7s0.6-5.2,3.6-5.7s3.8,2.1,5.7,2l-0.3,0.7c-0.8-0.2-3.2-0.5-4.1,0.2
				s-1.8,0.3-2.3,1.8s-1.4,3.1,0.7,4.7C20.8,15.2,19.8,14.8,19.3,14z"/>
			<path class="st21" d="M22,17.1l1.2,1.9c0,0-5.5-0.3-6.1-3.3c0.1-0.8,0.7-1.4,1.5-1.4C18.6,14.3,18.1,16.4,22,17.1z"/>
			<path class="st16" d="M29.6,25.6c0,0-0.1-1.2,0.2-1.4c0.4-0.6,0.7-1.2,1-1.8c0.1-0.2,0.5-0.6,0.6-0.4c0,0.7,0,1.4-0.1,2.1
				c-0.1,0.2,1.2-0.2,1.5-0.7s0.7-1,0.8-0.8c0.4,0.9,0.3,1.9-0.3,2.7c-0.6,0.8-1.4,1.4-2.3,1.8L29.6,25.6z"/>
			<path class="st11" d="M22.7,20.2c0.8-0.2,2,0.2,2.3,1.9s-0.8,8.4-0.8,8.4l5.1-5.3c0,0,2.1,0.9,1.9,2.3s-7.9,9.4-9,9.3
				C19.5,36.5,18.9,20.8,22.7,20.2z"/>
			<path class="st10" d="M22.2,36.8c1.1,0.1,9-9.3,9-9.3c0-0.2,0-0.5-0.1-0.7l-0.2-0.4h-0.1c-0.2,0.2-6.6,6.8-8.4,8.1
				s0.2-12.1,0.6-14.3h-0.3C18.9,20.8,19.5,36.5,22.2,36.8z"/>
		</g>
	</g>
</g>
<g id="Layer_2" class="st22">
	<g id="Layer_2_2_" class="st23">
		<rect x="-100.3" y="23" class="st10" width="66.7" height="34.6"/>
		<rect x="-100.3" y="-20.3" class="st11" width="66.7" height="34.6"/>
		<rect x="-100.3" y="63.3" class="st24" width="66.7" height="34.6"/>
	</g>
</g>
</svg>
