<svg xmlns="http://www.w3.org/2000/svg" xmlns:xlink="http://www.w3.org/1999/xlink" viewBox="0 0 960 539.47"><defs><style>.cls-1{fill:none;}.cls-2{isolation:isolate;}.cls-3{fill:url(#radial-gradient);}.cls-4{mix-blend-mode:multiply;fill:url(#_ÂÁ_Ï_ÌÌ_È_ËÂÌÚ_98);}.cls-5{fill:#fff;}.cls-6{fill:url(#_ÂÁ_Ï_ÌÌ_È_ËÂÌÚ_74);}.cls-7{fill:url(#_ÂÁ_Ï_ÌÌ_È_ËÂÌÚ_74-2);}.cls-8{fill:url(#_ÂÁ_Ï_ÌÌ_È_ËÂÌÚ_74-3);}.cls-9{fill:#131619;opacity:0.17;}.cls-10{fill:url(#_ÂÁ_Ï_ÌÌ_È_ËÂÌÚ_74-4);}.cls-11,.cls-15,.cls-16,.cls-17,.cls-18,.cls-29,.cls-30,.cls-31,.cls-32{mix-blend-mode:screen;}.cls-11{fill:url(#_ÂÁ_Ï_ÌÌ_È_ËÂÌÚ_73);}.cls-12{fill:url(#_ÂÁ_Ï_ÌÌ_È_ËÂÌÚ_74-5);}.cls-13{fill:url(#_ÂÁ_Ï_ÌÌ_È_ËÂÌÚ_105);}.cls-14{fill:#111;}.cls-15{fill:url(#_ÂÁ_Ï_ÌÌ_È_ËÂÌÚ_73-2);}.cls-16{fill:url(#_ÂÁ_Ï_ÌÌ_È_ËÂÌÚ_73-3);}.cls-17{fill:url(#_ÂÁ_Ï_ÌÌ_È_ËÂÌÚ_121);}.cls-18{fill:url(#_ÂÁ_Ï_ÌÌ_È_ËÂÌÚ_127);}.cls-19{clip-path:url(#clip-path);}.cls-20{fill:#6cbdff;}.cls-21{fill:url(#radial-gradient-2);}.cls-22{fill:url(#radial-gradient-3);}.cls-23{fill:url(#_ÂÁ_Ï_ÌÌ_È_ËÂÌÚ_69);}.cls-24{fill:url(#radial-gradient-4);}.cls-25{fill:url(#radial-gradient-5);}.cls-26{fill:url(#radial-gradient-6);}.cls-27{fill:url(#radial-gradient-7);}.cls-28{fill:url(#radial-gradient-8);}.cls-29,.cls-30,.cls-31{opacity:0.28;}.cls-29{fill:url(#_ÂÁ_Ï_ÌÌ_È_ËÂÌÚ_68);}.cls-30{fill:url(#_ÂÁ_Ï_ÌÌ_È_ËÂÌÚ_68-2);}.cls-31{fill:url(#_ÂÁ_Ï_ÌÌ_È_ËÂÌÚ_68-3);}.cls-32,.cls-33{opacity:0.46;}.cls-32{fill:url(#_ÂÁ_Ï_ÌÌ_È_ËÂÌÚ_106);}.cls-33,.cls-34{mix-blend-mode:color-dodge;}.cls-33{fill:url(#_ÂÁ_Ï_ÌÌ_È_ËÂÌÚ_106-2);}.cls-35{opacity:0.3;}.cls-36{fill:#d70010;}</style><radialGradient id="radial-gradient" cx="827.31" cy="-57.4" r="935.62" gradientUnits="userSpaceOnUse"><stop offset="0" stop-color="#d70010"/><stop offset="0.25" stop-color="#960510"/><stop offset="0.51" stop-color="#5d0a10"/><stop offset="0.73" stop-color="#330d10"/><stop offset="0.9" stop-color="#190f10"/><stop offset="1" stop-color="#101010"/></radialGradient><radialGradient id="_ÂÁ_Ï_ÌÌ_È_ËÂÌÚ_98" cx="2058.83" cy="38792.16" r="291.7" gradientTransform="translate(-1317.97 -4257.47) scale(0.88 0.12)" gradientUnits="userSpaceOnUse"><stop offset="0"/><stop offset="0.17" stop-color="#333"/><stop offset="0.47" stop-color="#898989"/><stop offset="0.72" stop-color="#c9c9c9"/><stop offset="0.91" stop-color="#f0f0f0"/><stop offset="1" stop-color="#fff"/></radialGradient><linearGradient id="_ÂÁ_Ï_ÌÌ_È_ËÂÌÚ_74" x1="553.92" y1="408.46" x2="552.67" y2="363.41" gradientUnits="userSpaceOnUse"><stop offset="0" stop-color="#f4f4f4"/><stop offset="0.34" stop-color="#b3bcc6"/><stop offset="0.64" stop-color="#cad0d8"/><stop offset="1" stop-color="#848f99"/></linearGradient><linearGradient id="_ÂÁ_Ï_ÌÌ_È_ËÂÌÚ_74-2" x1="516.97" y1="435.83" x2="517.91" y2="336.63" xlink:href="#_ÂÁ_Ï_ÌÌ_È_ËÂÌÚ_74"/><linearGradient id="_ÂÁ_Ï_ÌÌ_È_ËÂÌÚ_74-3" x1="448.01" y1="417.92" x2="593.07" y2="417.92" xlink:href="#_ÂÁ_Ï_ÌÌ_È_ËÂÌÚ_74"/><linearGradient id="_ÂÁ_Ï_ÌÌ_È_ËÂÌÚ_74-4" x1="397.32" y1="312.95" x2="752.6" y2="418.19" xlink:href="#_ÂÁ_Ï_ÌÌ_È_ËÂÌÚ_74"/><linearGradient id="_ÂÁ_Ï_ÌÌ_È_ËÂÌÚ_73" x1="382.18" y1="295.26" x2="479.65" y2="428.52" gradientUnits="userSpaceOnUse"><stop offset="0" stop-color="#fff"/><stop offset="0.06" stop-color="#eaeaea"/><stop offset="0.33" stop-color="#989898"/><stop offset="0.57" stop-color="#575757"/><stop offset="0.76" stop-color="#282828"/><stop offset="0.91" stop-color="#0b0b0b"/><stop offset="1"/></linearGradient><linearGradient id="_ÂÁ_Ï_ÌÌ_È_ËÂÌÚ_74-5" x1="475.57" y1="230.16" x2="541.26" y2="410.27" xlink:href="#_ÂÁ_Ï_ÌÌ_È_ËÂÌÚ_74"/><linearGradient id="_ÂÁ_Ï_ÌÌ_È_ËÂÌÚ_105" x1="635.93" y1="192.48" x2="693.33" y2="192.48" gradientUnits="userSpaceOnUse"><stop offset="0" stop-color="#333"/><stop offset="0.64" stop-color="#1a1a1a"/><stop offset="1"/></linearGradient><linearGradient id="_ÂÁ_Ï_ÌÌ_È_ËÂÌÚ_73-2" x1="536.92" y1="-32.01" x2="453.1" y2="258.05" xlink:href="#_ÂÁ_Ï_ÌÌ_È_ËÂÌÚ_73"/><linearGradient id="_ÂÁ_Ï_ÌÌ_È_ËÂÌÚ_73-3" x1="577.58" y1="-20.26" x2="493.77" y2="269.8" xlink:href="#_ÂÁ_Ï_ÌÌ_È_ËÂÌÚ_73"/><linearGradient id="_ÂÁ_Ï_ÌÌ_È_ËÂÌÚ_121" x1="332.48" y1="259" x2="642.07" y2="259" gradientUnits="userSpaceOnUse"><stop offset="0" stop-color="#ed1e79"/><stop offset="0.21" stop-color="#aa1657"/><stop offset="0.41" stop-color="#6e0e38"/><stop offset="0.6" stop-color="#3f0820"/><stop offset="0.77" stop-color="#1c040f"/><stop offset="0.91" stop-color="#080104"/><stop offset="1"/></linearGradient><linearGradient id="_ÂÁ_Ï_ÌÌ_È_ËÂÌÚ_127" x1="308.6" y1="246.36" x2="635.17" y2="246.36" gradientUnits="userSpaceOnUse"><stop offset="0" stop-color="#3fa9f5"/><stop offset="0" stop-color="#3fa8f4"/><stop offset="0.22" stop-color="#2c76ab"/><stop offset="0.43" stop-color="#1c4c6e"/><stop offset="0.61" stop-color="#102b3f"/><stop offset="0.78" stop-color="#07141c"/><stop offset="0.91" stop-color="#020508"/><stop offset="1"/></linearGradient><clipPath id="clip-path"><path class="cls-1" d="M681.07,80.66c0,.66,0,1.31,0,2s-.09,1.3-.17,2c-.11.87-.24,1.73-.4,2.59-.2,1.08-.42,2.15-.65,3.22-.52,2.56-1,5.14-1.52,7.71-.75,3.87-1.54,7.72-2.32,11.57-1.39,6.85-2.74,13.71-4.1,20.57q-2.57,12.85-5.14,25.7-4.12,20.57-8.22,41.13-5.13,25.71-10.27,51.42-6.16,30.84-12.32,61.69l-239.8,19.37q5.34-21.39,10.69-42.79,4.29-17.11,8.55-34.22,2.69-10.71,5.35-21.4,2.14-8.55,4.28-17.11,1.61-6.42,3.2-12.84c1.07-4.28,2.13-8.56,3.22-12.83.81-3.21,1.64-6.41,2.42-9.62.48-2,1-3.93,1.45-5.89q.27-1.07.57-2.13c.15-.53.32-1.06.49-1.58s.36-1,.55-1.56.39-1,.6-1.54.43-1,.66-1.52.46-1,.7-1.5.5-1,.77-1.46.54-1,.83-1.43.59-.94.9-1.39.63-.9,1-1.34.7-.85,1.08-1.25a12.67,12.67,0,0,1,1-1c.28-.25.57-.47.86-.69s.46-.3.71-.43a7.27,7.27,0,0,1,.76-.33c.51-.2,1-.38,1.55-.57.78-.28,1.55-.58,2.32-.87,1.37-.53,2.76-1,4.14-1.54l5.16-1.92,6.2-2.31,12.4-4.61,18.6-6.91,33.07-12.29,41.35-15.37,49.6-18.44,49.6-18.44.43-.15c.28-.09.56-.16.84-.23l.25-.06.38-.07a7.93,7.93,0,0,1,1-.1h.72a7,7,0,0,1,1.72.39,6.1,6.1,0,0,1,1.14.58.57.57,0,0,1,.13.08l.07.06a6.13,6.13,0,0,1,.69.57,7.53,7.53,0,0,1,.65.73,7.75,7.75,0,0,1,.56.81c.16.28.32.57.46.87a9,9,0,0,1,.38.9c.11.31.22.62.3.93s.23.85.31,1.28.18,1.08.24,1.62S681.06,80,681.07,80.66Z"/></clipPath><radialGradient id="radial-gradient-2" cx="612.72" cy="212.67" r="102.44" gradientUnits="userSpaceOnUse"><stop offset="0" stop-color="#d70010"/><stop offset="0.71" stop-color="#1b1464"/><stop offset="0.97" stop-color="#7a0110"/></radialGradient><radialGradient id="radial-gradient-3" cx="472.6" cy="277.68" r="75.21" gradientTransform="translate(722.83 -223.43) rotate(80.78)" gradientUnits="userSpaceOnUse"><stop offset="0" stop-color="#d70010"/><stop offset="0.81" stop-color="#1b1464"/><stop offset="1" stop-color="#662d91"/></radialGradient><radialGradient id="_ÂÁ_Ï_ÌÌ_È_ËÂÌÚ_69" cx="538.33" cy="238.97" r="34.83" gradientUnits="userSpaceOnUse"><stop offset="0.04" stop-color="#fff"/><stop offset="0.21" stop-color="#fdfcfe"/><stop offset="0.31" stop-color="#f7f4f9"/><stop offset="0.4" stop-color="#ede6f2"/><stop offset="0.47" stop-color="#ded1e7"/><stop offset="0.54" stop-color="#cbb7d9"/><stop offset="0.61" stop-color="#b397c8"/><stop offset="0.67" stop-color="#9770b4"/><stop offset="0.73" stop-color="#77459e"/><stop offset="0.75" stop-color="#662d91"/><stop offset="1" stop-color="#3fa9f5"/></radialGradient><radialGradient id="radial-gradient-4" cx="425.78" cy="138.37" r="81.01" xlink:href="#radial-gradient-2"/><radialGradient id="radial-gradient-5" cx="316.58" cy="227.52" r="59.48" gradientTransform="matrix(1, 0, 0, 1, 0, 0)" xlink:href="#radial-gradient-3"/><radialGradient id="radial-gradient-6" cx="283.25" cy="193.33" r="27.54" gradientTransform="translate(421.93 -120.4) rotate(76.72)" gradientUnits="userSpaceOnUse"><stop offset="0.04" stop-color="#fff"/><stop offset="0.2" stop-color="#fffcfd"/><stop offset="0.3" stop-color="#fdf4f5"/><stop offset="0.38" stop-color="#fbe6e7"/><stop offset="0.45" stop-color="#f8d1d4"/><stop offset="0.51" stop-color="#f4b7bc"/><stop offset="0.57" stop-color="#ef979d"/><stop offset="0.63" stop-color="#e97079"/><stop offset="0.69" stop-color="#e2434f"/><stop offset="0.74" stop-color="#da1221"/><stop offset="0.75" stop-color="#d70010"/><stop offset="1" stop-color="#3fa9f5"/></radialGradient><radialGradient id="radial-gradient-7" cx="351.49" cy="273.24" r="19.81" gradientTransform="matrix(1, 0, 0, 1, 0, 0)" xlink:href="#radial-gradient-6"/><radialGradient id="radial-gradient-8" cx="595.38" cy="66.63" r="63.86" gradientTransform="matrix(1, 0, 0, 1, 0, 0)" xlink:href="#radial-gradient-6"/><radialGradient id="_ÂÁ_Ï_ÌÌ_È_ËÂÌÚ_68" cx="591.6" cy="69.45" r="27.97" gradientTransform="matrix(6.29, 0, 0, 4.51, -3092.22, -1.9)" gradientUnits="userSpaceOnUse"><stop offset="0" stop-color="#ed1e79"/><stop offset="1"/></radialGradient><radialGradient id="_ÂÁ_Ï_ÌÌ_È_ËÂÌÚ_68-2" cx="583.44" cy="30.58" r="27.97" gradientTransform="matrix(6.29, 0, 0, 4.51, -3189.07, 66.51)" xlink:href="#_ÂÁ_Ï_ÌÌ_È_ËÂÌÚ_68"/><radialGradient id="_ÂÁ_Ï_ÌÌ_È_ËÂÌÚ_68-3" cx="1224.58" cy="3117.05" r="27.97" gradientTransform="translate(-7272.28 -3534.97) scale(6.29 1.25)" xlink:href="#_ÂÁ_Ï_ÌÌ_È_ËÂÌÚ_68"/><radialGradient id="_ÂÁ_Ï_ÌÌ_È_ËÂÌÚ_106" cx="514.81" cy="262.06" r="16.14" gradientTransform="matrix(0, 4.04, -3.02, 0, 1145.64, -1799.47)" gradientUnits="userSpaceOnUse"><stop offset="0" stop-color="#29abe2"/><stop offset="0.18" stop-color="#1f81aa"/><stop offset="0.39" stop-color="#14536e"/><stop offset="0.59" stop-color="#0b2f3f"/><stop offset="0.76" stop-color="#05161c"/><stop offset="0.91" stop-color="#010608"/><stop offset="1"/></radialGradient><radialGradient id="_ÂÁ_Ï_ÌÌ_È_ËÂÌÚ_106-2" cx="579.09" cy="211.46" r="27.02" gradientTransform="matrix(0, 4.04, -3.02, 0, 1284.54, -2134.12)" xlink:href="#_ÂÁ_Ï_ÌÌ_È_ËÂÌÚ_106"/></defs><title>bg-3</title><g class="cls-2"><g id="Layer_2" data-name="Layer 2"><g id="_ÎÓÈ_1" data-name="—ÎÓÈ_1"><rect class="cls-3" width="960" height="539.47"/><ellipse class="cls-4" cx="501.41" cy="436.39" rx="257.81" ry="35.29"/><path class="cls-5" d="M676.35,70.39l.1,0a4.67,4.67,0,0,1,.72.42,6.1,6.1,0,0,0-1.14-.58,7,7,0,0,0-1.72-.39l.26,0a6.52,6.52,0,0,1,1,.19A5.73,5.73,0,0,1,676.35,70.39Z"/><path class="cls-5" d="M674.15,69.87h-.56a7.93,7.93,0,0,0-1,.1l-.38.07.23,0A6.44,6.44,0,0,1,674.15,69.87Z"/><path class="cls-5" d="M671.65,70.17l.33-.08c-.28.07-.56.14-.84.23C671.31,70.26,671.48,70.22,671.65,70.17Z"/><path class="cls-5" d="M645.47,332.84c-.4,2-.8,4.07-1.19,6.11-1.11,5.71-2.2,11.42-3.34,17.11l-.33,1.64q1.46-7.44,2.9-14.88Q644.48,337.83,645.47,332.84Z"/><path class="cls-5" d="M640.51,358.2c-.13.64-.25,1.28-.38,1.92-.35,1.77-.71,3.53-1,5.3l.15-.81C639.64,362.47,640.08,360.34,640.51,358.2Z"/><path class="cls-5" d="M638.57,368c0-.18.08-.35.11-.52C638.65,367.63,638.61,367.81,638.57,368Z"/><path class="cls-5" d="M636.69,374.5c.12-.33.24-.66.35-1C636.93,373.84,636.81,374.17,636.69,374.5Z"/><path class="cls-5" d="M636.26,375.64l.42-1.11-.11.31C636.47,375.11,636.37,375.37,636.26,375.64Z"/><path class="cls-5" d="M635.61,377.17c.09-.2.18-.4.26-.6C635.79,376.77,635.7,377,635.61,377.17Z"/><path class="cls-5" d="M634.85,378.8q.23-.44.42-.87c0,.11-.11.23-.16.35S635,378.63,634.85,378.8Z"/><path class="cls-5" d="M634.7,379.12l-.43.83,0,.05C634.4,379.71,634.55,379.42,634.7,379.12Z"/><path class="cls-5" d="M633.52,381.29c.09-.14.18-.29.26-.44C633.7,381,633.61,381.15,633.52,381.29Z"/><path class="cls-5" d="M633.16,381.9c.12-.2.25-.4.36-.61l-.16.29C633.29,381.69,633.23,381.8,633.16,381.9Z"/><path class="cls-5" d="M631.72,384.09c.21-.28.41-.57.6-.86C632.13,383.52,631.93,383.81,631.72,384.09Z"/><path class="cls-5" d="M630.54,385.65c.17-.2.34-.41.49-.62C630.88,385.24,630.71,385.45,630.54,385.65Z"/><path class="cls-5" d="M628.88,387.53c.2-.2.39-.41.59-.63C629.28,387.12,629.08,387.33,628.88,387.53Z"/><path class="cls-5" d="M628.88,387.53l-.24.24-.43.42Z"/><path class="cls-5" d="M628.2,388.19l-.44.41-.24.21C627.75,388.61,628,388.41,628.2,388.19Z"/><path class="cls-5" d="M627,389.23l.51-.42Z"/><path class="cls-5" d="M625.27,390.48l.38-.25Z"/><path class="cls-5" d="M623.86,391.24l.34-.16Z"/><path class="cls-5" d="M623.76,391.29l-.14.06-.38.16Z"/><path class="cls-5" d="M622.17,391.87c.13,0,.26-.07.38-.12A2.4,2.4,0,0,1,622.17,391.87Z"/><path class="cls-5" d="M622,391.91l-.17,0-.31.07Z"/><path class="cls-5" d="M621.12,392.1a2.66,2.66,0,0,0,.39-.07A2.66,2.66,0,0,1,621.12,392.1Z"/><path class="cls-5" d="M621.12,392.1a1.08,1.08,0,0,1-.19,0l-.2,0Z"/><path class="cls-5" d="M620,392.21h-.08a.85.85,0,0,1-.16,0Z"/><path class="cls-5" d="M619.77,392.21c-.61,0-1.23,0-1.85,0l-.25,0,1.09,0C619.1,392.19,619.43,392.21,619.77,392.21Z"/><path class="cls-5" d="M617.5,392.15l-.92,0-1.06,0C616.18,392.12,616.84,392.12,617.5,392.15Z"/><path class="cls-5" d="M615,392.1h-.31l-4.21-.11,3,.07Z"/><path class="cls-5" d="M610.45,392l-2-.05-6.22-.15-4.43-.12c1.09,0,2.17.06,3.26.08,2.67.06,5.34.12,8,.2Z"/><path class="cls-5" d="M562.76,400.2a23.6,23.6,0,0,0,0-2.66A21.46,21.46,0,0,1,562.76,400.2Z"/><path class="cls-5" d="M562.71,400.86l0-.66A4.89,4.89,0,0,1,562.71,400.86Z"/><path class="cls-5" d="M562.64,401.51c0-.22.05-.43.07-.65A4.62,4.62,0,0,1,562.64,401.51Z"/><path class="cls-5" d="M562.55,402.15a12.37,12.37,0,0,1-.61,2.45A12.73,12.73,0,0,0,562.55,402.15Z"/><path class="cls-5" d="M561.27,406c.08-.14.17-.29.24-.44C561.44,405.73,561.35,405.88,561.27,406Z"/><path class="cls-5" d="M560.87,406.61q.12-.15.24-.33A2.8,2.8,0,0,1,560.87,406.61Z"/><path class="cls-5" d="M560,407.48a4.9,4.9,0,0,0,.83-.87A3.81,3.81,0,0,1,560,407.48Z"/><path class="cls-5" d="M559.75,407.69a1.94,1.94,0,0,0,.29-.21A1.94,1.94,0,0,1,559.75,407.69Z"/><path class="cls-5" d="M558,408.18h0Z"/><path class="cls-5" d="M555.59,408.06l3.52-.06a3.21,3.21,0,0,1-.77.18H558Z"/><path class="cls-5" d="M553,390.54l9,.23h0l-9.15-.23H553Z"/><path class="cls-6" d="M557,405.48a15.52,15.52,0,0,1-2.2-4.11,24.31,24.31,0,0,1-1.37-5.7l-.6-5.13h0l-5.24-.13.62,5.31a24.82,24.82,0,0,0,1.55,6.17,13.19,13.19,0,0,0,2.55,4.32,5.1,5.1,0,0,0,3.26,1.85l3.52-.06a2.39,2.39,0,0,0,.37-.15l.19-.11s0,0,0,0A6.72,6.72,0,0,1,557,405.48Z"/><path class="cls-5" d="M459.75,432.9l-3.44.12c-.92,0-1.85.08-2.77.14l1.35-.08C456.57,433,458.12,433,459.75,432.9Z"/><path class="cls-5" d="M438.49,387.68q18.4.48,36.84.92c-10.41-.25-20.82-.48-31.23-.77C442.23,387.79,440.36,387.73,438.49,387.68Z"/><path class="cls-5" d="M452.65,433.21l-.79.06Z"/><path class="cls-5" d="M451.17,433.32l-.59.05Z"/><path class="cls-5" d="M450.58,433.37a2.66,2.66,0,0,1-.28,0Z"/><path class="cls-5" d="M449.19,433.54l-.17,0h-.09Z"/><path class="cls-5" d="M448.91,433.58l-.08,0-.1,0Z"/><path class="cls-5" d="M448.59,433.65c-.08,0-.14.06-.27.09a.42.42,0,0,0-.19.06.63.63,0,0,1,.25-.1Z"/><path class="cls-7" d="M562,390.77h0l10.26.25,9.67.24q.72,6.11,1.43,12.2.58,4.89,1.16,9.76.32,2.75.64,5.49c.14,1.22.3,2.44.44,3.66,0,.51.11,1,.17,1.52s.11.82.14,1.22,0,.62,0,.93,0,.61,0,.91-.06.61-.12.92-.11.6-.18.9-.17.59-.27.88a9,9,0,0,1-.34.86c-.13.27-.26.55-.41.82s-.32.53-.49.78-.36.5-.56.73a6.75,6.75,0,0,1-.64.67,8.17,8.17,0,0,1-.7.6,7.61,7.61,0,0,1-.75.51,9.16,9.16,0,0,1-.82.43,6.41,6.41,0,0,1-.87.31,5.69,5.69,0,0,1-.89.2,7.3,7.3,0,0,1-.92.08l-1.23,0-3.38.12c-1.84.07-3.68.11-5.52.15l-7.37.23q-4.91.17-9.82.3l-17.18.54-24.56.75q-6.08.18-12.15.17c-3.25,0-6.49-.07-9.73-.16-2.43-.07-4.86-.17-7.28-.42L450,434.3c-.23,0-.47-.07-.71-.09a3.28,3.28,0,0,1-.56-.08,1.4,1.4,0,0,0-.35-.1c-.08,0-.18,0-.24-.07a.16.16,0,0,1,0-.13l0,0a.42.42,0,0,1,.19-.06c.13,0,.19-.07.27-.09a.32.32,0,0,1,.14,0l.1,0,.08,0H449l.17,0,.39-.06.72-.08a2.66,2.66,0,0,0,.28,0l.59-.05.27,0,.42,0,.79-.06.8,0h.09c.92-.06,1.85-.1,2.77-.14l3.44-.12,23.11-.64,18.49-.51q5.19-.17,10.4-.3l6.92-.19,3.47-.09,2.6-.06a11.12,11.12,0,0,0,1.72-.16,6.1,6.1,0,0,0,.84-.22,7.92,7.92,0,0,0,.8-.33,6.31,6.31,0,0,0,.76-.42,6.85,6.85,0,0,0,.7-.5,6,6,0,0,0,.65-.58,7,7,0,0,0,.58-.64c.18-.23.36-.46.52-.7a6.87,6.87,0,0,0,.44-.74,8,8,0,0,0,.38-.78c.12-.27.22-.54.31-.81s.16-.56.23-.83.12-.57.16-.86a8.08,8.08,0,0,0,.08-.86,8.42,8.42,0,0,0,0-.87,16.42,16.42,0,0,0-.17-1.72c-.15-1.25-.28-2.49-.41-3.73-.22-1.92-.45-3.83-.68-5.75l-1-9.18q-.66-5.74-1.33-11.48h.4l4.13.1,13.8.35.62,5.31a24.82,24.82,0,0,0,1.55,6.17,13.19,13.19,0,0,0,2.55,4.32,5.1,5.1,0,0,0,3.26,1.85l2.37.12h.38a3.21,3.21,0,0,0,.77-.18,2.39,2.39,0,0,0,.37-.15l.19-.11s0,0,0,0l0,0a1.94,1.94,0,0,0,.29-.21,3.81,3.81,0,0,0,.83-.87,2.8,2.8,0,0,0,.24-.33l.16-.26c.08-.14.17-.29.24-.44a9.4,9.4,0,0,0,.43-1,12.37,12.37,0,0,0,.61-2.45.06.06,0,0,0,0,0c0-.2.06-.4.08-.6a4.62,4.62,0,0,0,.07-.65,4.89,4.89,0,0,0,0-.66,21.46,21.46,0,0,0,0-2.66c0-.45-.07-.9-.12-1.34Z"/><path class="cls-8" d="M591.08,423.06c-.16-1.39-.34-2.79-.51-4.18-.24-2-.46-4-.7-6-.36-3.19-.74-6.38-1.12-9.56l-1.41-12,5.73.15-4.79-.13-6.35-.16q.72,6.11,1.43,12.2.58,4.89,1.16,9.76.32,2.75.64,5.49c.14,1.22.3,2.44.44,3.66,0,.51.11,1,.17,1.52s.11.82.14,1.22,0,.62,0,.93,0,.61,0,.91-.06.61-.12.92-.11.6-.18.9-.17.59-.27.88a9,9,0,0,1-.34.86c-.13.27-.26.55-.41.82s-.32.53-.49.78-.36.5-.56.73a6.75,6.75,0,0,1-.64.67,8.17,8.17,0,0,1-.7.6,7.61,7.61,0,0,1-.75.51,9.16,9.16,0,0,1-.82.43,6.41,6.41,0,0,1-.87.31,5.69,5.69,0,0,1-.89.2,7.3,7.3,0,0,1-.92.08l-1.23,0-3.38.12c-1.84.07-3.68.11-5.52.15l-7.37.23q-4.91.17-9.82.3l-17.18.54-24.56.75q-6.08.18-12.15.17c-3.25,0-6.49-.07-9.73-.16-2.43-.07-4.86-.17-7.28-.42L450,434.3c-.23,0-.47-.07-.71-.09a3.28,3.28,0,0,1-.56-.08,1.4,1.4,0,0,0-.35-.1c-.08,0-.18,0-.24-.07a.16.16,0,0,1,0-.13l0,0a.06.06,0,0,0,0,.07l-.08,6.22c0,.08.1.12.19.15l.31.09c.18.05.39.08.59.12s.55.08.83.1l29.74,3.39c2.41.27,4.85.37,7.29.45,3.24.11,6.48.16,9.73.18q6.07,0,12.16-.18L578,442c.3,0,.6,0,.9-.07s.59-.08.89-.13.59-.13.88-.21a8.63,8.63,0,0,0,.86-.28l.84-.33c.27-.12.54-.26.8-.4s.53-.29.78-.45.51-.33.75-.51.48-.36.71-.55.46-.39.68-.6.43-.42.64-.64.53-.6.78-.91.6-.8.88-1.22a16.16,16.16,0,0,0,.9-1.56,17.25,17.25,0,0,0,.73-1.65c.22-.56.41-1.14.57-1.71s.28-1.17.38-1.77a17.85,17.85,0,0,0,.22-1.79c0-.6.06-1.2,0-1.8C591.25,424.66,591.17,423.86,591.08,423.06Z"/><path class="cls-9" d="M590.57,418.88c-.24-2-.46-4-.7-6-.36-3.19-.74-6.38-1.12-9.56l-1.41-12,5.73.15-4.79-.13-6.35-.16-9.67-.24L562,390.77h0l.64,5.43c.05.44.09.89.12,1.34a21.46,21.46,0,0,1,0,2.66,4.89,4.89,0,0,1,0,.66,4.62,4.62,0,0,1-.07.65c0,.2,0,.4-.08.6a.06.06,0,0,1,0,0,12.37,12.37,0,0,1-.61,2.45,9.4,9.4,0,0,1-.43,1c-.07.15-.16.3-.24.44l-.16.26a2.8,2.8,0,0,1-.24.33,3.81,3.81,0,0,1-.83.87,1.94,1.94,0,0,1-.29.21l0,0s0,0,0,0l-.19.11a2.39,2.39,0,0,1-.37.15,3.21,3.21,0,0,1-.77.18H558l-2.37-.12a5.1,5.1,0,0,1-3.26-1.85,13.19,13.19,0,0,1-2.55-4.32,24.82,24.82,0,0,1-1.55-6.17l-.62-5.31-13.8-.35-4.13-.1h-.4q.66,5.74,1.33,11.48l1,9.18c.23,1.92.46,3.83.68,5.75.13,1.24.26,2.48.41,3.73a16.42,16.42,0,0,1,.17,1.72,8.42,8.42,0,0,1,0,.87,8.08,8.08,0,0,1-.08.86c0,.29-.1.57-.16.86s-.15.55-.23.83-.19.54-.31.81a8,8,0,0,1-.38.78,6.87,6.87,0,0,1-.44.74l-.08.12,26.3,11,.21,4.09,8.88-.3L578,442c.3,0,.6,0,.9-.07s.59-.08.89-.13.59-.13.88-.21a8.63,8.63,0,0,0,.86-.28l.84-.33c.27-.12.54-.26.8-.4s.53-.29.78-.45.51-.33.75-.51.48-.36.71-.55.46-.39.68-.6.43-.42.64-.64.53-.6.78-.91.6-.8.88-1.22a16.16,16.16,0,0,0,.9-1.56,17.25,17.25,0,0,0,.73-1.65c.22-.56.41-1.14.57-1.71s.28-1.17.38-1.77a17.85,17.85,0,0,0,.22-1.79c0-.6.06-1.2,0-1.8,0-.8-.1-1.6-.19-2.4C590.92,421.67,590.74,420.27,590.57,418.88Zm-6.47,13.23c-.18.25-.36.5-.56.73.2-.23.38-.48.56-.73s.34-.51.49-.78C584.44,431.6,584.27,431.86,584.1,432.11Z"/><path class="cls-5" d="M437.28,387.65l-18.21-.46,2.6.06Q429.47,387.42,437.28,387.65Z"/><path class="cls-5" d="M418.26,387.17l.6,0c-2.8-.06-5.61-.12-8.41-.2l-1,0Z"/><path class="cls-5" d="M409.05,387h-.3l-4.43-.11h.52C406.24,386.86,407.65,386.9,409.05,387Z"/><path class="cls-5" d="M404,386.82h.33l-2.28-.05-.41,0Z"/><path class="cls-5" d="M401.62,386.76l-.93,0Z"/><path class="cls-5" d="M400.26,386.72h0Z"/><path class="cls-5" d="M392.59,343.7q-.73,3-1.49,6-.92,3.66-1.82,7.32l-.66,2.65c.34-1.38.68-2.76,1-4.13C390.6,351.57,391.61,347.63,392.59,343.7Z"/><path class="cls-5" d="M390.08,384h0Z"/><path class="cls-5" d="M389.4,384h0Z"/><path class="cls-5" d="M389.4,384h0Z"/><path class="cls-5" d="M389.18,383.94H389Z"/><path class="cls-5" d="M388.66,383.83l.15.05Z"/><path class="cls-5" d="M388.66,383.83h0l-.08,0Z"/><path class="cls-5" d="M387.9,362.46c.23-.87.45-1.74.67-2.62-.32,1.31-.64,2.61-1,3.92s-.72,2.75-1,4.13c.06-.29.13-.57.19-.86C387.11,365.51,387.51,364,387.9,362.46Z"/><path class="cls-5" d="M388,383.53l.2.12Z"/><path class="cls-5" d="M387.81,383.36l.16.12-.11-.08Z"/><path class="cls-5" d="M387.68,383.25l.13.11Z"/><path class="cls-5" d="M387.34,382.87a1.92,1.92,0,0,0,.18.22l0,0A1.46,1.46,0,0,1,387.34,382.87Z"/><path class="cls-5" d="M387.2,382.7a1.58,1.58,0,0,0,.12.15Z"/><path class="cls-5" d="M386.47,381.31c0,.09.07.17.1.25C386.54,381.48,386.5,381.4,386.47,381.31Z"/><path class="cls-5" d="M386.38,368.88c-.05.25-.1.5-.14.76C386.28,369.38,386.32,369.13,386.38,368.88Z"/><path class="cls-5" d="M386.38,381.06c-.08-.23-.15-.47-.21-.71C386.23,380.59,386.3,380.83,386.38,381.06Z"/><path class="cls-5" d="M386.13,370.28c0-.11,0-.23.05-.34l-.09.58A2,2,0,0,1,386.13,370.28Z"/><path class="cls-5" d="M386.08,380c0,.11.05.23.08.35s0-.06,0-.09A1.38,1.38,0,0,1,386.08,380Z"/><path class="cls-5" d="M386.06,370.74l0-.22c0,.22-.07.44-.09.66A3.32,3.32,0,0,1,386.06,370.74Z"/><path class="cls-5" d="M386,379.68c0,.1,0,.21.07.31C386.05,379.89,386,379.78,386,379.68Z"/><path class="cls-5" d="M386,371.18c0,.24-.07.49-.1.73C385.93,371.67,386,371.42,386,371.18Z"/><path class="cls-5" d="M385.8,378.37l.06.42Z"/><path class="cls-5" d="M385.78,378.18c0-.13,0-.26,0-.39s0-.16,0-.24Z"/><path class="cls-5" d="M385.68,376.86c0,.23,0,.46,0,.69C385.7,377.32,385.69,377.09,385.68,376.86Z"/><path class="cls-5" d="M385.72,373.9c0,.28,0,.55,0,.83C385.69,374.45,385.7,374.18,385.72,373.9Z"/><path class="cls-5" d="M385.67,375a.49.49,0,0,1,0-.12c0,.17,0,.34,0,.51Z"/><path class="cls-5" d="M385.67,376.57v-.2c0-.11,0-.22,0-.34C385.66,376.22,385.67,376.39,385.67,376.57Z"/><path class="cls-10" d="M396.13,329.55l239.8-19.37q-2.22,11.08-4.43,22.18-1.63,8.33-3.3,16.64-1,5.07-2.05,10.16c-.25,1.23-.49,2.46-.74,3.7-.19.92-.38,1.84-.61,2.76s-.49,1.82-.77,2.72-.6,1.79-.93,2.67-.7,1.75-1.09,2.6-.8,1.71-1.25,2.54-.75,1.38-1.16,2.05-.67,1.07-1,1.58-.54.77-.82,1.15-.57.75-.87,1.11-.61.72-.92,1.07-.65.69-1,1-.68.65-1,.95a13.39,13.39,0,0,1-1.11.88c-.38.28-.77.54-1.17.79s-.82.46-1.25.67-.72.31-1.09.44-.6.19-.9.26-.46.1-.7.14-.46.07-.69.09c-.48,0-.95,0-1.42,0-1.65-.05-3.3-.06-4.94-.08-2.82,0-5.66-.13-8.49-.2l-15.07-.3c-6.28-.11-12.57-.25-18.85-.38l-22.61-.46-30.16-.61-30.14-.61-30.15-.62q-9.44-.18-18.85-.38c-5-.1-10-.22-15.08-.31-3.14,0-6.28-.09-9.42-.17-2.2-.06-4.4-.14-6.59-.16-1.1,0-2.2,0-3.3-.05-.55,0-1.1,0-1.65,0h-1.12l-.16,0-.15,0h-.06l-.15-.05-.09,0a1.66,1.66,0,0,1-.33-.15l-.2-.12h0l-.06,0-.16-.12-.13-.11-.16-.16a1.92,1.92,0,0,1-.18-.22l0,0a1.58,1.58,0,0,1-.12-.15l-.13-.2a4.59,4.59,0,0,1-.35-.61l-.15-.33c0-.08-.07-.16-.1-.25s0-.05,0-.07l-.07-.18c-.08-.23-.15-.47-.21-.71,0,0,0,0,0,0s-.06-.24-.08-.35-.05-.21-.07-.31-.07-.33-.09-.49-.05-.27-.06-.4l-.06-.42c0-.06,0-.12,0-.19l-.06-.63c0-.23,0-.46,0-.69a2.81,2.81,0,0,0,0-.29c0-.18,0-.35,0-.54s0-.45,0-.68,0-.34,0-.51v-.11c0-.28,0-.55,0-.83l.06-.82.12-1.17c0-.24.06-.49.1-.73s.06-.44.09-.66l.09-.58.06-.3c0-.26.09-.51.14-.76s.12-.66.19-1c.3-1.38.67-2.76,1-4.13s.66-2.61,1-3.92a1.6,1.6,0,0,1,.05-.21l.66-2.65q.9-3.66,1.82-7.32.75-3,1.49-6c.27-1.05.53-2.12.8-3.18Q394.76,335,396.13,329.55Z"/><path class="cls-11" d="M398.32,332.13l-5.11,20.42c-.42,1.69-.85,3.39-1.27,5.08,0,0-.68,2.75-.7,2.85-.32,1.33-.65,2.64-1,4l-.15.59c-.31,1.19-.6,2.31-.84,3.42-.06.3-.12.59-.17.88l0,.13c0,.21-.08.42-.11.63l0,.11s-.08.54-.12.78-.05.35-.08.53v.1c0,.2-.06.4-.08.6,0,.36-.08.72-.11,1.14,0,.24,0,.47-.06.73s0,.47,0,.7v.2c0,.12,0,.49,0,.49a5.2,5.2,0,0,0,0,.56v.39l0,.31c0,.21,0,.42,0,.65s0,.3,0,.45v.09l0,.12v.12l0,.2.06.39c0,.12,0,.24.08.41l.11.48.14.48.11.29.06.15.06.14.1.18,0,.06.27.28h.69c.49,0,1,0,1.49,0H392c.83,0,1.66,0,2.49.05h.74c1.63,0,3.26.06,4.88.11l1.76.05c2.44.06,4.87.1,7.31.14l2.09,0,9.13.18L461,327.07Z"/><path class="cls-12" d="M395.25,384.07c2.19,0,4.39.1,6.59.16,3.14.08,6.28.12,9.42.17,5,.09,10.05.21,15.08.31q9.42.21,18.85.38l30.15.62,30.14.61,30.16.61,22.61.46c6.28.13,12.57.27,18.85.38l15.07.3c2.83.07,5.67.15,8.49.2,1.64,0,3.29,0,4.94.08.47,0,.94,0,1.42,0,.23,0,.47-.05.69-.09s.47-.08.7-.14.6-.16.9-.26.74-.28,1.09-.44.85-.43,1.25-.67.79-.51,1.17-.79a13.39,13.39,0,0,0,1.11-.88c.36-.3.71-.62,1-.95s.67-.67,1-1,.62-.7.92-1.07.59-.73.87-1.11.56-.76.82-1.15.7-1,1-1.58.8-1.35,1.16-2.05.86-1.68,1.25-2.54.75-1.72,1.09-2.6.64-1.78.93-2.67.54-1.81.77-2.72.42-1.84.61-2.76c.25-1.24.49-2.47.74-3.7q1-5.09,2.05-10.16,1.68-8.33,3.3-16.64,2.21-11.08,4.43-22.18l13.16,4.34q-1.8,9.15-3.62,18.32-1,5-2,10-1.46,7.44-2.9,14.88c0,.16-.07.33-.1.5-.43,2.14-.87,4.27-1.28,6.41l-.15.81c0,.07,0,.13,0,.2-.12.61-.23,1.22-.36,1.84,0,.17-.07.34-.11.52s-.11.52-.17.78c-.17.78-.38,1.56-.6,2.33s-.46,1.54-.71,2.3l-.05.12c-.11.33-.23.66-.35,1a0,0,0,0,1,0,0l-.42,1.11q-.18.47-.39.93c-.08.2-.17.4-.26.6s-.19.46-.3.68l0,.08q-.19.44-.42.87c0,.1-.1.21-.15.32-.15.3-.3.59-.46.88s-.3.57-.46.85-.17.3-.26.44-.24.41-.36.61l-.11.19c-.24.39-.48.77-.73,1.14s-.39.58-.6.86-.45.63-.69.94-.32.42-.49.62l0,0c-.33.41-.68.82-1,1.21-.2.22-.39.43-.59.63l-.67.66h0c-.22.22-.45.42-.68.62l-.51.42-.17.14c-.31.25-.63.49-1,.71l-.23.15-.38.25-.41.24-.66.36-.34.16-.07,0,0,0-.52.22-.56.21-.13,0c-.12.05-.25.08-.38.12l-.15,0-.48.12h0a2.66,2.66,0,0,1-.39.07l-.39,0q-.36,0-.72.06h-.24c-.34,0-.67,0-1,0l-1.09,0h-.17c-.66,0-1.32,0-2,0H615l-1.56-.05-3-.07h-.06l-1.34,0c-2.67-.08-5.34-.14-8-.2-1.09,0-2.17,0-3.26-.08l-4.77-.11-4.79-.13-6.35-.16-9.67-.24L562,390.77l-9-.23h-.18l-5.24-.13-13.8-.35-4.13-.1h-.4l-21.1-.53-32-.8-.81,0q-18.42-.47-36.84-.92l-1.21,0q-7.81-.22-15.61-.4l-2.6-.06h-.21l-.6,0-8.84-.21h-.37c-1.4-.05-2.81-.09-4.21-.12H404l-2.36-.06h0l-.93,0h-.94a3,3,0,0,1-.51-.08l-10.37-2.74.15,0h1.28c.55,0,1.1,0,1.65,0C393.05,384.06,394.15,384.06,395.25,384.07Z"/><path class="cls-13" d="M676.45,70.43l12,5.44a5.63,5.63,0,0,1,.83.46,5.35,5.35,0,0,1,.75.58,8.7,8.7,0,0,1,.67.69,8.4,8.4,0,0,1,.74,1,9.9,9.9,0,0,1,.71,1.42,14.9,14.9,0,0,1,.6,1.82c.15.62.27,1.25.36,1.88s.13,1.26.16,1.9,0,1.27,0,1.91-.07,1.28-.13,1.91-.14,1.27-.23,1.89c-.13.85-.3,1.68-.46,2.51-.28,1.46-.57,2.92-.86,4.38L688.94,112q-3.18,16.26-6.4,32.5-6.91,35-13.76,70-9.82,50-19.69,100l-13.16-4.34q6.17-30.84,12.32-61.69,5.13-25.71,10.27-51.42,4.11-20.56,8.22-41.13,2.57-12.85,5.14-25.7c1.36-6.86,2.71-13.72,4.1-20.57.78-3.85,1.57-7.7,2.32-11.57.51-2.57,1-5.15,1.52-7.71.23-1.07.45-2.14.65-3.22.16-.86.29-1.72.4-2.59.08-.65.13-1.3.17-2s.05-1.31,0-2,0-1.31-.11-2-.14-1.09-.24-1.62-.19-.86-.31-1.28-.19-.62-.3-.93a9,9,0,0,0-.38-.9c-.14-.3-.3-.59-.46-.87a7.75,7.75,0,0,0-.56-.81,7.53,7.53,0,0,0-.65-.73,6.13,6.13,0,0,0-.69-.57l-.07-.06a.57.57,0,0,0-.13-.08A4.67,4.67,0,0,0,676.45,70.43Z"/><path class="cls-14" d="M681.07,80.66c0,.66,0,1.31,0,2s-.09,1.3-.17,2c-.11.87-.24,1.73-.4,2.59-.2,1.08-.42,2.15-.65,3.22-.52,2.56-1,5.14-1.52,7.71-.75,3.87-1.54,7.72-2.32,11.57-1.39,6.85-2.74,13.71-4.1,20.57q-2.57,12.85-5.14,25.7-4.12,20.57-8.22,41.13-5.13,25.71-10.27,51.42-6.16,30.84-12.32,61.69l-239.8,19.37q5.34-21.39,10.69-42.79,4.29-17.11,8.55-34.22,2.69-10.71,5.35-21.4,2.14-8.55,4.28-17.11,1.61-6.42,3.2-12.84c1.07-4.28,2.13-8.56,3.22-12.83.81-3.21,1.64-6.41,2.42-9.62.48-2,1-3.93,1.45-5.89q.27-1.07.57-2.13c.15-.53.32-1.06.49-1.58s.36-1,.55-1.56.39-1,.6-1.54.43-1,.66-1.52.46-1,.7-1.5.5-1,.77-1.46.54-1,.83-1.43.59-.94.9-1.39.63-.9,1-1.34.7-.85,1.08-1.25a12.67,12.67,0,0,1,1-1c.28-.25.57-.47.86-.69s.46-.3.71-.43a7.27,7.27,0,0,1,.76-.33c.51-.2,1-.38,1.55-.57.78-.28,1.55-.58,2.32-.87,1.37-.53,2.76-1,4.14-1.54l5.16-1.92,6.2-2.31,12.4-4.61,18.6-6.91,33.07-12.29,41.35-15.37,49.6-18.44,49.6-18.44.43-.15c.28-.09.56-.16.84-.23l.25-.06.38-.07a7.93,7.93,0,0,1,1-.1h.72a7,7,0,0,1,1.72.39,6.1,6.1,0,0,1,1.14.58.57.57,0,0,1,.13.08l.07.06a6.13,6.13,0,0,1,.69.57,7.53,7.53,0,0,1,.65.73,7.75,7.75,0,0,1,.56.81c.16.28.32.57.46.87a9,9,0,0,1,.38.9c.11.31.22.62.3.93s.23.85.31,1.28.18,1.08.24,1.62S681.06,80,681.07,80.66Z"/><path class="cls-15" d="M498.05,137.59l-18.6,6.91-12.4,4.61-2,.76-4.16,1.55-1.58.58c-1.2.45-2.39.9-3.6,1.34l-.94.35c-1.05.39-2.11.77-3.17,1.18l-.62.24-1.74.65-.43.15-1.09.4a4.43,4.43,0,0,0-.45.2,3.39,3.39,0,0,0-.38.23,7.65,7.65,0,0,0-.65.51c-.26.23-.52.49-.8.79s-.57.64-.9,1.05-.6.79-.88,1.2-.56.84-.82,1.27-.52.89-.76,1.32-.49.91-.72,1.36-.45.93-.67,1.42-.41.94-.61,1.42-.38,1-.56,1.46-.36,1-.52,1.45-.32,1-.46,1.49c-.2.68-.38,1.36-.55,2.05-.35,1.37-.69,2.75-1,4.12l-.42,1.74c-.58,2.36-1.18,4.71-1.78,7.06l-.65,2.58c-.78,3.05-1.54,6.1-2.3,9.16l-.91,3.67c-.72,2.9-1.45,5.8-2.17,8.7l-5.31,21.25q-2.67,10.69-5.35,21.39l-18.32,73.3,18.55-1.5L531.08,125.31Z"/><path class="cls-16" d="M553.76,116.88,430.67,324l33-2.66L589.2,103.7Z"/><path class="cls-17" d="M642,87.08c0-.67-.09-1.33-.17-2a16.59,16.59,0,0,0-.38-2,15.25,15.25,0,0,0-.62-1.91,10.65,10.65,0,0,0-.76-1.51,8.68,8.68,0,0,0-.81-1.12,7.42,7.42,0,0,0-.72-.76,8.47,8.47,0,0,0-.84-.64,6.5,6.5,0,0,0-.93-.52l-12.15-5.49a.23.23,0,0,0-.11,0l-.25-.11a7.24,7.24,0,0,0-3.93-.32,11.35,11.35,0,0,0-1.86.52L469.24,126.77l-24.68,9.17-4.71,1.75-13.92,5.18-3.53,1.31-8.9,3.31-1.07.4-5.14,1.91-1.28.48-3.89,1.44-1,.37c-1.05.39-2.11.77-3.15,1.17l-.58.22-1.74.65-.44.16-1.13.42a6.23,6.23,0,0,0-.82.36,7.89,7.89,0,0,0-.78.48c-.31.22-.62.46-.93.73a13.83,13.83,0,0,0-1,1c-.38.4-.74.83-1.11,1.3s-.68.89-1,1.37-.62.93-.92,1.42-.57,1-.84,1.46-.53,1-.78,1.5-.49,1-.72,1.52-.46,1-.67,1.54-.41,1-.61,1.56-.38,1.06-.55,1.59-.35,1.07-.5,1.61c-.22.75-.42,1.51-.59,2.15-.34,1.36-.67,2.73-1,4.09l-.45,1.81c-.58,2.39-1.19,4.77-1.79,7.15l-.63,2.49c-.86,3.36-1.69,6.72-2.53,10.09l-.69,2.77q-1.29,5.19-2.59,10.38l-.62,2.48q-1.62,6.47-3.23,12.92L343,331.31,341.81,336q-1.17,4.72-2.36,9.45l-.79,3.13q-1.1,4.33-2.18,8.69l-.54,2.23c-.49,2-1,4-1.5,6l-.15.55c-.3,1.18-.61,2.4-.87,3.61-.18.82-.33,1.63-.46,2.43-.1.62-.18,1.24-.25,1.84s-.13,1.25-.17,1.86-.06,1.26-.06,1.86,0,1.28.07,1.88.1,1.07.18,1.57.15.86.25,1.25.18.64.29.93a7.69,7.69,0,0,0,.38.92,6.57,6.57,0,0,0,.44.74,6.23,6.23,0,0,0,.44.55,3.33,3.33,0,0,0,1.41.92l.14,0,.05,0,10.46,2.75a4.34,4.34,0,0,0,1.18.12l1,0h.32l1.81,0h.58l3.55.09,1.21,0,7.07.17,2.46.06c4.72.11,9.44.24,14.15.36l4.9.12,26.81.67,11.32.28,33,.82,20.51.52.48,4.14.78,6.78L478,406c.26,2.27.52,4.53.79,6.8l.16,1.36c.17,1.46.35,2.92.51,4.38l.1,1c.1.93.2,1.86.32,2.79l0,.14c.06.53.13,1,.14,1.53a9.43,9.43,0,0,1-.09,1.62c0,.26-.09.53-.15.79s-.13.53-.21.78-.18.52-.29.76a7,7,0,0,1-.35.73c-.12.23-.26.46-.41.69a7.62,7.62,0,0,1-.48.64,6.1,6.1,0,0,1-.54.59,6.37,6.37,0,0,1-1.24,1,5.76,5.76,0,0,1-.69.38,5.84,5.84,0,0,1-.73.29,5.26,5.26,0,0,1-.75.21,9.85,9.85,0,0,1-1.62.14c-.62,0-1.23,0-1.84.05h-.76l-2.82.08-.65,0-5,.13-1.92.05-7.91.23-2.51.07-13.72.38-4.79.13-13.94.39-9.21.26c-1.47,0-3.14.09-4.9.18-1.1.06-2.35.14-3.53.23-.52,0-1,.08-1.69.16-.32,0-.67.09-.93.14a3.59,3.59,0,0,0-.5.11,1,1,0,0,0-.72.49.71.71,0,0,0-.07.32h0l-.08,6.23h0a.8.8,0,0,0,.63.79l.38.11.65.13.85.11,29.8,3.39c2.55.29,5.14.39,7.36.46,3.24.1,6.52.16,9.76.17h1.23c3.71,0,7.4-.06,11-.18l69.31-2.35c.32,0,.64,0,1-.07s.63-.09.94-.15.63-.13.93-.22a8.78,8.78,0,0,0,.91-.29c.3-.1.6-.22.89-.35s.57-.27.85-.42.56-.31.83-.48.53-.34.78-.53.51-.38.75-.58.48-.41.71-.63.45-.44.66-.67.56-.62.83-.95.63-.83.91-1.27a17.64,17.64,0,0,0,.94-1.63,16.6,16.6,0,0,0,.76-1.72,17.67,17.67,0,0,0,.59-1.78c.16-.6.3-1.22.4-1.83s.18-1.23.23-1.85.06-1.28,0-1.88c0-.84-.11-1.68-.2-2.46-.11-1-.24-2-.36-3l-.14-1.16c-.19-1.54-.37-3.09-.55-4.63l-.15-1.35-.84-7.11-.29-2.47q-.43-3.65-.86-7.29l-.46-3.91,15.68.39,4.74.12,1.23,0,3.75.09.72,0,2.41.06h.59l1.58,0h.2l.84,0H568a6.74,6.74,0,0,0,1-.08,8.63,8.63,0,0,0,1-.19,8.53,8.53,0,0,0,.95-.28,8.89,8.89,0,0,0,.93-.36c.29-.13.59-.27.88-.43s.57-.32.85-.49.72-.46,1.08-.72.85-.65,1.26-1,.94-.85,1.4-1.32.87-.92,1.29-1.42.81-1,1.19-1.5.74-1,1.1-1.56.69-1.06,1-1.61.63-1.1.93-1.66.58-1.13.85-1.7.53-1.15.78-1.74.48-1.17.71-1.76.43-1.19.63-1.79.39-1.2.56-1.81c.24-.81.45-1.64.64-2.45.29-1.24.53-2.51.76-3.74l.11-.57c.41-2.13.84-4.29,1.27-6.38l.43-2.17c.82-4.05,1.61-8.18,2.38-12.17.33-1.66.65-3.32,1-5,1-5,2-9.91,2.93-14.86.63-3.21,1.27-6.41,1.9-9.62l7.77-39.49q6-30.36,12-60.7l4-20.57q4.86-24.79,9.74-49.58l1.69-8.54q2.37-12,4.73-24l.8-4.1c.64-3.23,1.27-6.45,1.9-9.68l.87-4.38c.15-.78.32-1.66.46-2.54.1-.63.18-1.29.24-1.94s.1-1.32.12-2S642.07,87.72,642,87.08ZM536.25,408l.84,7.11.15,1.35c.18,1.55.36,3.1.55,4.64l.14,1.17c.13,1,.25,2,.36,3,.09.76.17,1.56.19,2.35a14.63,14.63,0,0,1,0,1.74,18.63,18.63,0,0,1-.58,3.43c-.16.56-.34,1.12-.54,1.65a16.32,16.32,0,0,1-.71,1.59,13.94,13.94,0,0,1-.87,1.5c-.26.41-.55.8-.84,1.18s-.49.59-.75.87-.4.41-.61.61-.43.39-.65.57-.44.36-.67.53-.47.33-.72.48-.49.3-.74.43-.51.26-.77.38l-.79.32c-.27.09-.54.18-.81.25s-.55.14-.83.2-.56.1-.84.13-.57.05-.85.06l-69.18,2.35,0-5.85,9.61-.3,14.89-.45,5-.16,12.21-.38,2.28-.07,7.56-.23,1.48-.05,5.9-.18,1.42,0,4.11-.12,1,0,2.34-.08h.27l1,0a8.19,8.19,0,0,0,.92-.08,5.28,5.28,0,0,0,.92-.21,5.81,5.81,0,0,0,.88-.32,7.27,7.27,0,0,0,.83-.43,7.43,7.43,0,0,0,.77-.52,8.83,8.83,0,0,0,1.35-1.29,8.52,8.52,0,0,0,.57-.74,8.85,8.85,0,0,0,.5-.79,9.19,9.19,0,0,0,.42-.83c.12-.28.24-.57.34-.87s.19-.59.27-.89.14-.6.19-.91.09-.61.12-.92,0-.63,0-.93,0-.63,0-.94-.07-.67-.12-1l0-.22c0-.39-.1-.78-.14-1.18l0-.35c-.1-.87-.21-1.74-.31-2.61l-.13-1.06-.48-4.12-.16-1.37-.84-7.13-.32-2.65c-.29-2.51-.59-5-.88-7.52l-.54-4.58,4.64.11h0l.55,4.66c.28,2.43.57,4.87.86,7.3ZM407.4,435.69l9.22-.26,13.93-.39,4.8-.13,13.72-.38,2.51-.08,7.91-.22,1.91-.05,5-.14.65,0,2.81-.07.75,0,1.86,0a11.88,11.88,0,0,0,1.84-.17,6.65,6.65,0,0,0,.92-.25,6.77,6.77,0,0,0,.88-.36,7.45,7.45,0,0,0,.83-.45c.26-.17.52-.35.77-.55s.47-.41.7-.63.43-.45.63-.69.38-.49.55-.75.33-.53.48-.8a8.09,8.09,0,0,0,.4-.84c.12-.28.23-.57.33-.86s.18-.6.25-.9.12-.6.17-.91.07-.61.09-.92,0-.62,0-.93c0-.56-.09-1.11-.15-1.64l0-.14c-.12-.93-.22-1.85-.32-2.77l-.1-1c-.16-1.47-.34-2.93-.51-4.39l-.16-1.37c-.27-2.26-.53-4.53-.79-6.79l-.27-2.41q-.39-3.39-.79-6.78l-.47-4.07a.67.67,0,0,0,.31-.44l3.21.08h.28l13.73.35.61,5.23a25,25,0,0,0,1.56,6.2,13.16,13.16,0,0,0,2.58,4.37,5.1,5.1,0,0,0,3.34,1.89l2.38.12h.88a.65.65,0,0,0,.54.29.58.58,0,0,0,.28-.07,3.11,3.11,0,0,0,.4-.22l0,0a6,6,0,0,0,2-2.38,12.56,12.56,0,0,0,1.2-4.3,24,24,0,0,0,0-5.49l-.57-4.84a.64.64,0,0,0,.22-.39l9.32.24,4,.09,5.62.14.54,4.61c.3,2.51.59,5,.89,7.52l.31,2.66q.44,3.56.84,7.12l.16,1.38c.16,1.37.32,2.75.49,4.12l.13,1.06c.1.86.21,1.73.31,2.61l0,.35c0,.39.09.78.13,1.17l0,.23c0,.32.09.66.11,1s0,.61,0,.92,0,.6,0,.91-.06.61-.11.91-.11.6-.19.89a8.7,8.7,0,0,1-.26.87c-.1.29-.22.58-.34.85s-.26.56-.41.82-.31.52-.48.77-.37.5-.56.73-.41.45-.63.66a7.68,7.68,0,0,1-.69.59,7.66,7.66,0,0,1-1.56.93,7.79,7.79,0,0,1-.85.31,6,6,0,0,1-.89.2,7.87,7.87,0,0,1-.9.08l-1,0h-.27l-2.35.08-1,0c-1.37.06-2.76.09-4.11.12l-1.42,0-5.89.18-1.49.05-7.56.23-2.28.07-12.21.38-5,.15-14.89.46-9.71.3c-4,.12-8.06.18-12.17.16-3.24,0-6.51-.06-9.74-.16-2.2-.06-4.77-.15-7.29-.41l-29.78-3.07-.36,0h.15c.61-.08,1.12-.12,1.62-.16,1.17-.09,2.41-.17,3.5-.23C404.29,435.77,405.94,435.73,407.4,435.69Zm92.46-43a.65.65,0,0,0,.18.38l.53,4.57-4.45.05-.59-5.11Zm9.94,10.83a10.92,10.92,0,0,1-1.06,3.85,5.21,5.21,0,0,1-1.28,1.67,6.45,6.45,0,0,1-2.09-1.87,15,15,0,0,1-2.11-3.95,23.43,23.43,0,0,1-1.34-5.55l-.51-4.38,7.82.2.57,4.86A22.35,22.35,0,0,1,509.8,403.49Zm-9.2-5.66a25.18,25.18,0,0,0,1.4,5.83,16.07,16.07,0,0,0,2.31,4.29,8,8,0,0,0,2.14,2l-3,0a4.87,4.87,0,0,1-3.2-1.82,12.79,12.79,0,0,1-2.53-4.3,24.55,24.55,0,0,1-1.53-6ZM397.66,442l.06-5.5,29.57,3.05-.05,5.81Zm-1.3-5.62.13,0,.3,0h.11l.35.05.26,0-.07,5.49-.62-.09c-.18,0-.37-.06-.53-.09Zm31.09,9,.05-5.81c2.5.26,5,.34,7.19.41,3.23.09,6.51.15,9.75.16h1.22c3.66,0,7.31-.06,10.85-.16l0,5.85c-3.94.13-8,.19-12.08.17-3.23,0-6.5-.07-9.73-.17C432.48,445.79,429.94,445.69,427.45,445.41Zm107.77-52.64h-.09l0,0a.65.65,0,0,0-.53.52l-10.48-.26-4-.1-9.33-.23a.66.66,0,0,0-.63-.58l-9.62-.24a.66.66,0,0,0-.67.55L481.59,392h-.28l-3.21-.08a.66.66,0,0,0-.64-.57L456,390.78,423,390l-11.32-.28-26.8-.66-4.9-.13-14.16-.36-2.46-.06-7.07-.17-1.21,0-3.55-.09-.58,0-1.8,0h-.32l-1.09,0a3.48,3.48,0,0,1-.82-.07l-7-1.85,2,0h.84c1.6,0,3.23.06,4.8.11l1.8.05c2.42.06,4.88.1,7.25.14l2.19,0c3.82.07,7.71.15,11.46.24l3.65.08,14.39.29,4.49.08,22.07.45,8.13.17,19.3.39,23.38.47,17.74.36,4.94.1,17.72.36,4.66.1,14.22.29,3.67.07c3.75.07,7.62.14,11.43.23l2.08.05c2.11.06,4.29.11,6.42.14l1.37,0,3.58.07h.78c.22,0,.43,0,.65,0a5.94,5.94,0,0,0,.71-.08c.24,0,.47-.08.7-.14a8.62,8.62,0,0,0,.92-.27,11.09,11.09,0,0,0,1.1-.45,12.82,12.82,0,0,0,1.26-.67c.39-.24.79-.51,1.19-.79s.74-.57,1.11-.89.7-.62,1.05-1,.66-.67,1-1,.62-.71.93-1.08.59-.73.88-1.12.55-.76.82-1.15.7-1.05,1-1.59.8-1.35,1.17-2.06.86-1.68,1.26-2.54.75-1.74,1.09-2.63.64-1.77.93-2.68.55-1.85.77-2.73.45-1.94.62-2.77.39-1.93.58-2.9l.16-.8c.46-2.36.95-4.75,1.42-7.06l.63-3.13c.81-4,1.62-8.13,2.41-12.1l.9-4.56q1.47-7.41,3-14.82.72-3.64,1.46-7.29l12.44,4.11-1.89,9.59q-1.49,7.43-2.93,14.86c-.33,1.66-.65,3.33-1,5-.77,4-1.57,8.11-2.38,12.15l-.44,2.17c-.42,2.1-.86,4.26-1.26,6.4l-.11.57c-.23,1.22-.47,2.47-.75,3.69-.19.79-.39,1.59-.62,2.38-.17.59-.36,1.19-.55,1.76s-.4,1.16-.61,1.74-.45,1.15-.69,1.71-.49,1.14-.75,1.68-.54,1.11-.83,1.65-.59,1.09-.9,1.6-.64,1.06-1,1.56-.7,1-1.06,1.5-.75,1-1.14,1.43-.81.93-1.22,1.35-.88.87-1.32,1.25-.79.65-1.18.94-.66.46-1,.66-.51.31-.77.45-.53.27-.8.39-.55.22-.82.32-.56.18-.84.24a8.52,8.52,0,0,1-.85.17,8.09,8.09,0,0,1-.86.07l-1,0h-.21q-.8,0-1.59,0h-.6l-2.39-.07-.72,0-3.76-.09-1.23,0-4.73-.12ZM619,72.53a11.28,11.28,0,0,1,1.66-.46,5.85,5.85,0,0,1,3.2.27,4.72,4.72,0,0,1,1.39.78.68.68,0,0,0,.42.14.54.54,0,0,0,.22,0l.53.24.28.33a9.39,9.39,0,0,1,.55.8c.16.27.32.56.46.86s.26.59.37.9.22.61.31.93.21.83.3,1.27.18,1.06.24,1.61.1,1.29.12,2,0,1.29,0,2-.1,1.3-.17,2-.23,1.64-.4,2.59-.34,1.77-.52,2.64l-.12.58c-.38,1.85-.75,3.73-1.1,5.56-.15.72-.29,1.45-.43,2.17-.57,2.93-1.18,5.9-1.76,8.77l-.57,2.82c-1.06,5.21-2.11,10.52-3.13,15.65l-1,4.95q-1.93,9.75-3.89,19.48l-1.26,6.27q-3.12,15.6-6.23,31.18l-2,10Q602.72,217.33,599,236l-2.86,14.28-8,40.12L583.8,312,344.37,331.3,370,228.82q1.61-6.47,3.22-12.92l.63-2.49q1.29-5.19,2.59-10.37l.69-2.78q1.25-5,2.52-10.08l.63-2.49c.61-2.38,1.22-4.77,1.8-7.16l.45-1.81c.33-1.36.65-2.72,1-4.08.16-.63.36-1.38.57-2.11.15-.52.31-1,.49-1.56s.35-1,.54-1.54.38-1,.59-1.52.42-1,.65-1.5.45-1,.7-1.48.49-1,.75-1.44.54-1,.82-1.41.58-.93.88-1.36.63-.9.95-1.3.69-.85,1-1.22a11.49,11.49,0,0,1,.94-.92,7.7,7.7,0,0,1,.81-.63,4.52,4.52,0,0,1,.63-.39c.23-.12.47-.22.69-.31l1.09-.4.45-.16c.59-.21,1.17-.43,1.76-.66l.57-.22,3.14-1.16,1-.37,3.89-1.45,1.29-.48,5.13-1.91,1.08-.4,8.9-3.31,3.52-1.31,13.93-5.18,4.71-1.75L469.71,128ZM344.29,331.63l0-.11,239.44-19.34c-.48,2.42-1,4.85-1.45,7.27q-1.48,7.41-3,14.81l-.9,4.57c-.79,4-1.6,8.07-2.41,12.1l-.63,3.12c-.47,2.32-1,4.71-1.42,7.06l-.16.81c-.19,1-.38,1.93-.58,2.9s-.38,1.8-.62,2.76-.47,1.79-.77,2.72-.6,1.8-.92,2.67-.7,1.76-1.09,2.61-.81,1.72-1.24,2.53-.77,1.39-1.17,2.05-.68,1.07-1,1.58-.55.77-.83,1.15-.57.75-.87,1.11-.61.72-.92,1.06-.65.7-1,1-.69.65-1,.95-.73.6-1.1.87-.78.55-1.17.79-.83.47-1.24.66-.72.31-1.08.44-.6.19-.9.26-.45.1-.68.14-.47.06-.7.08c-.44,0-.9,0-1.34,0h-.06l-3.59-.06-1.36,0c-2.14,0-4.32-.09-6.43-.14l-2.07-.05c-3.82-.09-7.69-.16-11.43-.23L525,389.7l-14.21-.29-4.67-.1L488.36,389l-4.95-.1-17.73-.36L442.3,388l-19.3-.39-8.13-.17L392.79,387l-4.49-.09-14.39-.29-3.64-.08-11.46-.23-2.19,0c-2.38,0-4.84-.07-7.25-.14l-1.8-.05c-1.58,0-3.21-.09-4.81-.11h-.84c-.81,0-1.64,0-2.46-.05H339l-.4-.11a.67.67,0,0,0-.62-.48h-.82a2.42,2.42,0,0,1-.47,0,1.3,1.3,0,0,1-.33-.07,2,2,0,0,1-.3-.14,1.32,1.32,0,0,1-.29-.19,2.91,2.91,0,0,1-.27-.24,3.25,3.25,0,0,1-.31-.4,3.9,3.9,0,0,1-.34-.57,6,6,0,0,1-.32-.76c-.09-.26-.18-.53-.25-.82s-.17-.74-.23-1.13-.13-1-.17-1.46-.06-1.16-.06-1.78,0-1.17.06-1.78.09-1.18.16-1.79.15-1.18.24-1.78c.13-.77.27-1.57.44-2.36.26-1.18.57-2.39.87-3.55l.14-.56c.52-2,1-4,1.51-6.06l.54-2.22c.72-2.9,1.45-5.79,2.18-8.69l.79-3.13q1.19-4.72,2.36-9.45Zm252.17-15.54L584,312l4.31-21.6,8-40.12L599.2,236q3.72-18.62,7.43-37.23l2-10q3.12-15.58,6.23-31.17l1.26-6.28q1.95-9.74,3.89-19.48l1-5c1-5.13,2.07-10.44,3.13-15.65l.57-2.82c.58-2.87,1.19-5.84,1.76-8.77.14-.72.28-1.45.43-2.17.35-1.82.72-3.71,1.1-5.56l.12-.58c.18-.86.36-1.76.52-2.64s.31-1.81.4-2.6.14-1.32.17-2,0-1.34,0-2-.05-1.34-.12-2-.14-1.11-.24-1.63-.19-.88-.31-1.29a9.4,9.4,0,0,0-.31-.94,8.44,8.44,0,0,0-.38-.92,9.25,9.25,0,0,0-.47-.88,7.89,7.89,0,0,0-.56-.82l9.42,4.26a5.86,5.86,0,0,1,.74.41,5,5,0,0,1,.68.53,7,7,0,0,1,.6.62,7.39,7.39,0,0,1,.68,1,9.19,9.19,0,0,1,.67,1.33,14,14,0,0,1,.57,1.73,16.15,16.15,0,0,1,.34,1.81,18,18,0,0,1,.16,1.84c0,.61,0,1.23,0,1.87s-.06,1.23-.12,1.87-.14,1.25-.23,1.86c-.13.85-.3,1.71-.46,2.48l-.86,4.38c-.63,3.23-1.27,6.45-1.9,9.68l-.8,4.1q-2.36,12-4.73,24l-1.69,8.54q-4.89,24.78-9.75,49.58l-4,20.57q-6,30.35-11.94,60.7Z"/><path class="cls-18" d="M635.14,65c0-.71-.09-1.41-.18-2.07a20.36,20.36,0,0,0-.39-2.06,14.49,14.49,0,0,0-.66-2,12,12,0,0,0-.81-1.6,9.27,9.27,0,0,0-.84-1.18,7.2,7.2,0,0,0-.77-.79,6.35,6.35,0,0,0-.88-.69,7.17,7.17,0,0,0-1-.54l-12.82-5.79a.53.53,0,0,0-.12,0l-.26-.11a7.55,7.55,0,0,0-4.15-.34,12.92,12.92,0,0,0-2,.55L452.87,106.87l-26,9.68-5,1.84-14.69,5.47-3.72,1.38-9.39,3.49-1.13.42-5.42,2-1.35.51-4.11,1.53-1.05.39c-1.11.4-2.22.81-3.32,1.23l-.61.23c-.61.24-1.22.47-1.84.69l-.46.17-1.19.43c-.26.11-.57.23-.87.39a7,7,0,0,0-.82.5,11.39,11.39,0,0,0-1,.77c-.36.32-.72.67-1.09,1.07s-.78.87-1.17,1.37-.71.94-1.06,1.45-.66,1-1,1.5-.6,1-.89,1.54-.56,1-.83,1.57-.51,1.07-.76,1.61-.48,1.08-.7,1.62-.44,1.1-.64,1.66-.4,1.11-.59,1.67-.36,1.12-.53,1.69c-.23.8-.44,1.6-.61,2.27-.37,1.44-.71,2.88-1.06,4.32l-.47,1.91c-.61,2.52-1.25,5-1.89,7.54l-.67,2.63q-1.35,5.31-2.66,10.64l-.73,2.92q-1.36,5.47-2.74,11l-.65,2.62q-1.71,6.81-3.41,13.63l-27.1,108.46-1.25,5-2.49,10-.83,3.3q-1.17,4.58-2.3,9.16l-.58,2.35c-.52,2.13-1,4.26-1.58,6.38l-.15.58c-.32,1.24-.65,2.53-.93,3.81-.18.86-.34,1.72-.48,2.56-.1.66-.19,1.31-.26,1.94s-.14,1.33-.18,2-.06,1.34-.06,2,0,1.35.07,2a16.6,16.6,0,0,0,.19,1.65,12.3,12.3,0,0,0,.27,1.32c.09.35.19.68.29,1s.26.66.41,1a6.27,6.27,0,0,0,.46.77,5.79,5.79,0,0,0,.47.59,5.22,5.22,0,0,0,.43.39,3.08,3.08,0,0,0,.5.33,3.53,3.53,0,0,0,.56.25l.15,0,.05,0,11,2.91a5.27,5.27,0,0,0,1.24.12l1.09,0h.34l1.91,0,.61,0,3.74.09,1.28,0,7.46.18,2.6.06,14.92.38,5.17.13,28.28.7,11.94.3q17.38.42,34.77.87l21.63.54.51,4.38c.27,2.38.55,4.76.82,7.15l.29,2.54c.28,2.39.55,4.78.83,7.17l.17,1.44c.18,1.54.37,3.08.54,4.62l.11,1c.11,1,.21,2,.33,2.94l0,.15a15.31,15.31,0,0,1,.15,1.61,10.58,10.58,0,0,1-.09,1.71,8.28,8.28,0,0,1-.16.84c-.06.27-.14.55-.22.82s-.19.54-.3.8-.24.52-.37.76-.29.5-.44.73a7.09,7.09,0,0,1-.51.68,6.64,6.64,0,0,1-.56.63,8.39,8.39,0,0,1-.63.56,7.63,7.63,0,0,1-.68.48,7.53,7.53,0,0,1-.73.41,7.28,7.28,0,0,1-.77.31,5.77,5.77,0,0,1-.79.21,11.12,11.12,0,0,1-1.72.16l-1.93,0-.8,0-3,.08-.69,0-5.3.14-2,.06-8.35.23-2.64.08-14.48.4-5.06.14-14.69.41-9.73.27c-1.55.05-3.3.09-5.16.19-1.16.06-2.48.15-3.73.24-.55,0-1.1.09-1.78.17-.34,0-.71.1-1,.15l-.53.12a1.07,1.07,0,0,0-.76.51.81.81,0,0,0-.08.34h0l-.08,6.57h0a.87.87,0,0,0,.67.84l.4.12.68.13.91.12,31.43,3.57c2.69.3,5.42.41,7.76.49,3.41.11,6.88.17,10.3.18h1.3c3.91,0,7.8-.06,11.59-.19l73.12-2.48c.33,0,.67,0,1-.08s.67-.09,1-.15.66-.14,1-.23.65-.19,1-.31a9.47,9.47,0,0,0,.93-.37c.31-.14.61-.28.91-.44s.58-.33.86-.51.56-.36.83-.56.53-.4.79-.61.51-.44.75-.66.47-.47.7-.71.59-.66.87-1a14.71,14.71,0,0,0,1-1.34,18.35,18.35,0,0,0,1-1.72c.29-.58.56-1.19.8-1.8s.44-1.25.61-1.88a19.09,19.09,0,0,0,.43-1.93c.11-.64.19-1.3.24-2s.06-1.34.05-2c0-.89-.12-1.77-.22-2.59-.12-1.07-.25-2.13-.38-3.2l-.15-1.23c-.2-1.62-.38-3.25-.57-4.88l-.17-1.43q-.44-3.75-.88-7.5l-.31-2.6c-.3-2.56-.6-5.13-.91-7.69l-.48-4.13,16.54.42,5,.12,1.3,0,4,.1.76,0,2.53.07H554l1.66,0h.22c.29,0,.59,0,.88,0H557a9.28,9.28,0,0,0,1.06-.08c.35,0,.7-.12,1.05-.2a9.49,9.49,0,0,0,1-.3c.33-.11.66-.24,1-.38s.62-.29.93-.45l.9-.52c.38-.23.76-.49,1.13-.76s.9-.69,1.34-1.07,1-.89,1.47-1.39.92-1,1.37-1.5.84-1,1.25-1.58.78-1.08,1.16-1.64.72-1.12,1.06-1.71.67-1.15,1-1.75.61-1.19.9-1.79.55-1.21.82-1.83.5-1.23.74-1.86.46-1.26.67-1.89.4-1.26.59-1.91c.25-.86.47-1.72.67-2.58.31-1.31.56-2.65.81-3.94l.11-.6c.43-2.25.89-4.53,1.33-6.74l.47-2.29c.86-4.27,1.7-8.62,2.51-12.83l1-5.26q1.51-7.85,3.09-15.67,1-5.08,2-10.15,4.1-20.83,8.2-41.66,6.32-32,12.6-64l4.26-21.7q5.13-26.14,10.28-52.3l1.78-9q2.51-12.66,5-25.33l.85-4.33q1-5.1,2-10.21l.92-4.62c.16-.82.34-1.76.48-2.68.11-.67.19-1.36.26-2s.11-1.39.13-2.06S635.17,65.68,635.14,65ZM523.55,403.49q.45,3.75.88,7.5l.17,1.42c.18,1.63.37,3.27.57,4.9l.15,1.22c.13,1.06.26,2.12.38,3.19.09.79.18,1.64.21,2.47,0,.59,0,1.21,0,1.84s-.12,1.22-.22,1.82-.24,1.2-.4,1.79a17,17,0,0,1-.57,1.75c-.22.57-.47,1.14-.74,1.68s-.59,1.07-.92,1.58-.58.84-.89,1.24-.52.62-.79.92l-.64.64c-.22.21-.45.41-.68.6s-.47.38-.72.56-.49.35-.75.51-.51.31-.78.45-.54.28-.81.4l-.84.34c-.28.1-.57.19-.86.27a8.44,8.44,0,0,1-.87.2,8.68,8.68,0,0,1-.89.14c-.29,0-.59.06-.89.07l-73,2.47,0-6.17,10.13-.31,15.71-.48,5.28-.17,12.88-.39,2.41-.08,8-.24,1.57-.05c2.07-.07,4.14-.14,6.21-.19l1.5,0c1.42,0,2.9-.07,4.34-.13l1.09,0,2.48-.08h.28l1,0c.29,0,.63,0,1-.09a6.9,6.9,0,0,0,1-.21,9.33,9.33,0,0,0,.93-.34,8.21,8.21,0,0,0,.88-.46,8.38,8.38,0,0,0,.82-.55c.25-.2.5-.41.74-.64a6.64,6.64,0,0,0,.68-.72,9.46,9.46,0,0,0,.6-.78,9.73,9.73,0,0,0,.52-.83,9,9,0,0,0,.44-.88c.14-.3.26-.6.37-.91s.2-.63.28-.94.15-.64.2-1,.1-.65.12-1,.05-.66.05-1,0-.66,0-1-.08-.72-.12-1.06l0-.24-.15-1.24,0-.37-.33-2.75-.13-1.12q-.27-2.17-.51-4.35l-.17-1.45c-.29-2.5-.59-5-.89-7.51l-.33-2.8-.93-7.93-.57-4.83,4.89.12h0l.58,4.92c.3,2.57.61,5.13.91,7.7ZM387.63,432.74l9.73-.27,14.69-.41,5.06-.14,14.48-.4,2.64-.08,8.35-.23,2-.06,5.31-.14.69,0,3-.08.79,0,2,0a12,12,0,0,0,1.94-.18,8.71,8.71,0,0,0,1-.26,9.53,9.53,0,0,0,.93-.38,7.37,7.37,0,0,0,.87-.48,7.91,7.91,0,0,0,.81-.58,9.4,9.4,0,0,0,.74-.66c.23-.23.46-.48.67-.73s.4-.52.58-.79.35-.56.51-.85a8.89,8.89,0,0,0,.42-.88,9,9,0,0,0,.35-.91c.1-.31.18-.63.26-.95s.13-.64.18-1,.07-.64.09-1,0-.66,0-1c0-.59-.1-1.17-.17-1.73l0-.15c-.12-1-.22-2-.33-2.92l-.11-1c-.17-1.54-.35-3.08-.54-4.63l-.17-1.44q-.42-3.58-.82-7.16l-.29-2.54c-.28-2.39-.55-4.77-.83-7.16l-.5-4.29a.7.7,0,0,0,.33-.47l3.38.09h.3l14.48.37.64,5.52a26.39,26.39,0,0,0,1.65,6.54,13.74,13.74,0,0,0,2.72,4.61,5.4,5.4,0,0,0,3.52,2l2.51.12h.93a.7.7,0,0,0,.57.3.63.63,0,0,0,.3-.07,4.16,4.16,0,0,0,.42-.23l0,0a6.25,6.25,0,0,0,2.12-2.51,13,13,0,0,0,1.27-4.53,25.48,25.48,0,0,0,0-5.79l-.6-5.11a.68.68,0,0,0,.23-.4l9.83.24,4.19.1,5.93.15.57,4.86c.31,2.65.62,5.29.94,7.94l.33,2.79c.3,2.51.59,5,.88,7.52l.17,1.45.51,4.35.14,1.11.33,2.76,0,.37c0,.41.09.83.14,1.24l0,.23q.07.53.12,1.05c0,.32,0,.65,0,1s0,.64,0,1-.07.64-.12,1-.12.63-.2.94-.17.62-.28.92a8.83,8.83,0,0,1-.35.9c-.14.29-.28.58-.44.86a8.48,8.48,0,0,1-.51.81,9.11,9.11,0,0,1-.58.77c-.21.24-.43.48-.66.7s-.48.43-.73.62a7,7,0,0,1-.8.54,8.53,8.53,0,0,1-.85.44,6.9,6.9,0,0,1-.9.33,8.76,8.76,0,0,1-.93.21,8.85,8.85,0,0,1-1,.08c-.34,0-.67,0-1,0h-.29c-.82,0-1.66.05-2.47.09l-1.09,0-4.34.12-1.5,0-6.22.19-1.57.05-8,.25-2.41.07-12.88.4-5.28.16-15.71.49-10.24.31c-4.19.13-8.51.19-12.84.17-3.41,0-6.87-.06-10.28-.16-2.32-.07-5-.17-7.69-.44l-31.41-3.24-.37,0h0l.16,0c.65-.08,1.18-.12,1.71-.16,1.24-.1,2.55-.18,3.69-.24C384.34,432.83,386.09,432.79,387.63,432.74Zm97.53-45.38a.75.75,0,0,0,.19.4l.56,4.82-4.7.05-.62-5.39Zm10.49,11.42a11.78,11.78,0,0,1-1.12,4.06,5.35,5.35,0,0,1-1.35,1.77,6.86,6.86,0,0,1-2.21-2,16.11,16.11,0,0,1-2.23-4.16,24.88,24.88,0,0,1-1.4-5.87L486.8,388l8.25.21.6,5.13A23.65,23.65,0,0,1,495.65,398.78Zm-9.71-6a26.8,26.8,0,0,0,1.48,6.15,17,17,0,0,0,2.44,4.53,8.73,8.73,0,0,0,2.25,2.13l-3.21.05a5.15,5.15,0,0,1-3.37-1.92,13.7,13.7,0,0,1-2.67-4.53,26.43,26.43,0,0,1-1.62-6.36ZM377.35,439.43l.07-5.79,31.19,3.21-.06,6.13ZM376,433.51l.14,0,.32,0h.11l.37.05.27,0-.07,5.79-.66-.09-.55-.1Zm32.8,9.49.06-6.13c2.63.27,5.29.36,7.58.43,3.4.1,6.86.16,10.28.17H428c3.86,0,7.7-.06,11.44-.17l0,6.17c-4.15.14-8.44.21-12.74.19-3.41,0-6.86-.07-10.27-.18C414.08,443.4,411.41,443.3,408.78,443Zm113.68-55.53h-.09l0,0a.67.67,0,0,0-.56.55l-11.06-.27-4.18-.11-9.84-.24a.68.68,0,0,0-.66-.61l-10.16-.25a.67.67,0,0,0-.69.57l-19.29-.48h-.29l-3.39-.08a.7.7,0,0,0-.67-.61l-22.67-.57q-17.37-.44-34.76-.87l-12-.3-28.27-.7-5.17-.13L343.78,383l-2.59-.06-7.47-.18-1.27,0-3.75-.09-.61,0-1.9,0h-.34l-1.14,0a3.85,3.85,0,0,1-.87-.08l-7.4-1.95,2.11,0h.89c1.69,0,3.4.07,5.07.11l1.9.06c2.54.06,5.14.1,7.64.14l2.31,0c4,.07,8.13.16,12.09.25l3.85.08,15.18.31,4.73.09,23.29.47,8.58.18,20.35.41,24.67.5,18.71.38,5.21.11,18.69.38,4.92.1,15,.31,3.87.07c4,.07,8,.15,12.06.25l2.19.05,6.78.15,1.44,0,3.78.06h.82l.68,0L544,385c.25,0,.5-.09.74-.15a8.85,8.85,0,0,0,1-.28,11.28,11.28,0,0,0,1.16-.47c.44-.21.89-.45,1.33-.71s.84-.54,1.25-.84.79-.6,1.18-.93.74-.66,1.1-1,.7-.7,1-1.08.66-.74,1-1.13.62-.78.92-1.18.59-.8.88-1.22.73-1.1,1.08-1.68.84-1.42,1.24-2.16.9-1.77,1.32-2.69.79-1.83,1.15-2.77.68-1.86,1-2.82.59-2,.82-2.89.47-2.05.65-2.92.41-2,.61-3.06l.17-.85c.49-2.48,1-5,1.49-7.44.23-1.1.45-2.2.67-3.3.86-4.25,1.72-8.58,2.54-12.76l1-4.82q1.54-7.82,3.11-15.63.78-3.84,1.54-7.69L587,306.81q-1,5.07-2,10.12-1.56,7.85-3.09,15.68l-1,5.26c-.81,4.21-1.65,8.55-2.51,12.82l-.46,2.29c-.45,2.21-.91,4.5-1.34,6.75l-.11.6c-.24,1.28-.49,2.61-.79,3.89-.19.83-.42,1.68-.66,2.51-.18.63-.37,1.26-.57,1.86s-.42,1.23-.65,1.83-.47,1.22-.72,1.81-.53,1.2-.8,1.77-.57,1.17-.87,1.74-.63,1.15-.95,1.69-.68,1.12-1,1.65-.73,1.07-1.11,1.58-.8,1-1.2,1.51-.86,1-1.29,1.42-.93.91-1.4,1.32-.82.68-1.24,1-.7.49-1,.7-.54.32-.82.47-.56.28-.84.41-.58.24-.87.34-.59.19-.88.26-.6.13-.9.17a6.82,6.82,0,0,1-.9.07c-.35,0-.71,0-1.06,0h-.22l-1.68,0h-.63l-2.52-.07-.76,0-4-.1-1.31,0-5-.12ZM610.81,49.66a12.42,12.42,0,0,1,1.74-.49,6.15,6.15,0,0,1,3.39.29,5.1,5.1,0,0,1,1.46.82.73.73,0,0,0,.44.15.67.67,0,0,0,.24,0l.56.25c.1.11.19.23.29.35a9,9,0,0,1,.58.85c.17.28.33.59.48.9s.28.62.4.95.22.64.32,1,.23.87.32,1.34.19,1.11.25,1.7.11,1.36.12,2.06,0,1.36,0,2.07-.09,1.37-.18,2.06-.23,1.73-.41,2.74-.37,1.86-.56,2.77l-.12.62c-.41,2-.79,3.94-1.17,5.86-.14.76-.29,1.53-.44,2.29-.61,3.09-1.25,6.22-1.86,9.26l-.6,3c-1.12,5.5-2.23,11.1-3.3,16.51l-1,5.22q-2,10.27-4.1,20.55l-1.33,6.62-6.57,32.88-2.11,10.59q-3.92,19.64-7.84,39.26l-3,15.07q-4.23,21.16-8.45,42.32l-4.56,22.8-252.57,20.4,27-108.11q1.69-6.81,3.41-13.63l.65-2.62q1.38-5.47,2.74-10.94l.72-2.93c.89-3.55,1.77-7.09,2.67-10.64l.66-2.62c.64-2.52,1.28-5,1.9-7.55l.47-1.91c.35-1.44.69-2.88,1.06-4.31.17-.66.37-1.45.6-2.22.16-.56.33-1.1.51-1.65s.37-1.09.57-1.63.41-1.07.63-1.6.44-1.06.68-1.58.48-1,.74-1.56.52-1,.79-1.52.57-1,.86-1.49.62-1,.93-1.43.67-.95,1-1.37a16.36,16.36,0,0,1,1.09-1.29c.34-.36.67-.68,1-1s.57-.47.86-.67a5.72,5.72,0,0,1,.66-.41,7.4,7.4,0,0,1,.73-.32c.38-.15.77-.29,1.16-.42l.46-.17,1.86-.7.61-.23c1.1-.42,2.2-.82,3.31-1.23l1.05-.39c1.37-.5,2.74-1,4.11-1.53l1.35-.5,5.42-2,1.14-.42,9.38-3.49,3.72-1.38,14.69-5.46,5-1.85,26-9.68ZM321.06,323l0-.12,252.59-20.4c-.51,2.56-1,5.11-1.54,7.67q-1.56,7.81-3.12,15.63c-.31,1.6-.63,3.21-1,4.81-.83,4.19-1.68,8.52-2.54,12.77-.22,1.1-.44,2.19-.67,3.29l-1.5,7.45-.16.85c-.2,1-.4,2-.61,3.06s-.4,1.89-.65,2.91-.51,1.89-.81,2.87-.64,1.9-1,2.81-.74,1.86-1.15,2.76-.85,1.81-1.31,2.67-.81,1.46-1.23,2.16-.71,1.13-1.08,1.66-.57.82-.87,1.22-.61.79-.92,1.17-.64.76-1,1.12-.69.73-1,1.07-.73.69-1.1,1-.78.64-1.16.93a14.72,14.72,0,0,1-1.24.82,11.8,11.8,0,0,1-1.3.7,12,12,0,0,1-1.14.47,9.1,9.1,0,0,1-.95.27l-.72.15a6.5,6.5,0,0,1-.73.08,13.47,13.47,0,0,1-1.42,0h-.07l-3.78-.07-1.44,0c-2.25,0-4.55-.09-6.78-.15l-2.19-.05-12-.24-3.88-.08-15-.3-4.92-.11L473,383.44l-5.21-.1L449.1,383l-24.66-.5L404.08,382l-8.58-.17-23.28-.47-4.74-.1L352.3,381l-3.84-.09-12.09-.24-2.31,0c-2.51,0-5.1-.08-7.65-.15l-1.9-.05c-1.66-.05-3.38-.1-5.07-.12h-.89c-.85,0-1.73,0-2.59,0l-.45,0h0l-.42-.11a.7.7,0,0,0-.65-.5l-.87,0a4.18,4.18,0,0,1-.5,0l-.34-.08a1.87,1.87,0,0,1-.32-.15,2.32,2.32,0,0,1-.58-.46,3.53,3.53,0,0,1-.34-.41,6.57,6.57,0,0,1-.36-.61,6.65,6.65,0,0,1-.33-.8,7.2,7.2,0,0,1-.26-.86c-.1-.38-.18-.78-.25-1.2s-.13-1-.17-1.54-.07-1.22-.07-1.87,0-1.23.06-1.88.1-1.25.17-1.89.16-1.24.26-1.87c.13-.82.29-1.66.46-2.49.27-1.26.6-2.53.92-3.76l.15-.58c.54-2.13,1.06-4.26,1.59-6.39l.57-2.35c.75-3.06,1.52-6.11,2.29-9.16l.84-3.3,2.49-10Zm266-16.39-13.13-4.33,4.55-22.78q4.21-21.17,8.45-42.32l3-15.07q3.93-19.64,7.84-39.27l2.11-10.58,6.57-32.89,1.33-6.61q2.06-10.28,4.1-20.56l1-5.22c1.07-5.41,2.18-11,3.3-16.51l.6-3c.62-3,1.25-6.17,1.86-9.25l.45-2.3c.37-1.92.76-3.91,1.16-5.86l.12-.61c.19-.91.39-1.85.56-2.78s.32-1.91.42-2.75.14-1.39.18-2.08,0-1.41,0-2.08,0-1.41-.12-2.08-.15-1.18-.26-1.73-.2-.92-.32-1.35-.21-.68-.33-1-.26-.66-.4-1a10.17,10.17,0,0,0-.5-.93,6.85,6.85,0,0,0-.59-.86l9.94,4.49a5,5,0,0,1,.78.43,5.39,5.39,0,0,1,.71.55,5.71,5.71,0,0,1,.64.66,7,7,0,0,1,.72,1,8.71,8.71,0,0,1,.7,1.4,11.77,11.77,0,0,1,.6,1.82,18,18,0,0,1,.36,1.91c.09.62.14,1.27.17,1.95s0,1.29,0,2-.07,1.3-.13,2-.14,1.32-.24,2c-.14.89-.32,1.81-.48,2.62L632,78.22q-1,5.1-2,10.21l-.85,4.33q-2.49,12.66-5,25.33l-1.78,9q-5.16,26.15-10.28,52.3l-4.26,21.69-12.6,64Z"/><g class="cls-19"><path class="cls-20" d="M406.54,361.92l-.89-.23,45.9-180.64a26,26,0,0,1,16.19-18L690.89,80.42l.31.86L468.06,163.91a25.13,25.13,0,0,0-15.63,17.37Z"/><path class="cls-20" d="M437.09,375.75l-.88-.22L482.1,194.88a26,26,0,0,1,16.19-18L721.44,94.26l.32.85L498.61,177.74A25.1,25.1,0,0,0,483,195.11Z"/><path class="cls-20" d="M475.47,397.65l-.89-.22,45.9-180.65a26,26,0,0,1,16.19-18l223.15-82.62.31.85L537,199.64A25.13,25.13,0,0,0,521.36,217Z"/><path class="cls-20" d="M537,419.74l-.88-.22,45.89-180.65a26,26,0,0,1,16.19-18l223.15-82.62.32.86L598.56,221.73a25.1,25.1,0,0,0-15.62,17.37Z"/><rect class="cls-20" x="554.51" y="79.22" width="0.92" height="239.66" transform="translate(118.51 595.42) rotate(-61.98)"/><rect class="cls-20" x="541.35" y="75.82" width="0.92" height="282.65" transform="translate(124.66 625.43) rotate(-66.22)"/><rect class="cls-20" x="593.1" y="59.26" width="0.92" height="211.22" transform="translate(100.46 534.12) rotate(-52.35)"/><rect class="cls-20" x="529.31" y="148.4" width="0.92" height="273.58" transform="translate(243.67 814.46) rotate(-89.9)"/><circle class="cls-21" cx="639.79" cy="250.66" r="55.78"/><circle class="cls-22" cx="492.72" cy="313.08" r="37.45" transform="translate(104.76 749.29) rotate(-80.78)"/><circle class="cls-23" cx="543.11" cy="255.46" r="14.53"/></g><circle class="cls-24" cx="447.19" cy="168.41" r="44.11"/><circle class="cls-25" cx="332.48" cy="255.52" r="29.61"/><circle class="cls-26" cx="287.03" cy="206.37" r="11.49" transform="translate(20.24 438.31) rotate(-76.72)"/><circle class="cls-27" cx="354.21" cy="282.62" r="8.26"/><circle class="cls-28" cx="604.15" cy="96.87" r="26.64"/><ellipse class="cls-29" cx="626.18" cy="311.4" rx="175.77" ry="126.15" transform="translate(-59.28 450.04) rotate(-37.88)"/><ellipse class="cls-30" cx="478.06" cy="204.47" rx="175.77" ry="126.15" transform="translate(-24.83 336.58) rotate(-37.88)"/><ellipse class="cls-31" cx="424.68" cy="376.3" rx="175.77" ry="35.09"/><ellipse class="cls-32" cx="354.21" cy="279.54" rx="48.74" ry="65.17" transform="translate(-12.38 542.63) rotate(-73.95)"/><ellipse class="cls-33" cx="645.92" cy="204.47" rx="81.61" ry="109.13" transform="matrix(0.28, -0.96, 0.96, 0.28, 270.8, 768.66)"/><g class="cls-34"><g class="cls-35"><g class="cls-2"><path class="cls-36" d="M324.06,170.94l-.63,1.25c-.2.42-.4.83-.59,1.25s-.39.84-.58,1.25l-.54,1.26-2.29-.7c.19-.45.39-.9.59-1.35s.41-.9.62-1.35.42-.9.64-1.35l.67-1.34c.51-1,1-2,1.57-2.93s1.09-1.9,1.66-2.83,1.15-1.83,1.75-2.72,1.2-1.76,1.83-2.62l1.63,1.87c-.58.79-1.15,1.6-1.7,2.43s-1.1,1.67-1.63,2.52-1,1.74-1.54,2.63S324.53,170,324.06,170.94Z"/><path class="cls-36" d="M320.14,180c-.5,1.4-.95,2.81-1.36,4.22s-.77,2.81-1.09,4.21-.58,2.81-.8,4.2-.4,2.79-.53,4.17l-2.76.92c.14-1.49.34-3,.58-4.5s.54-3,.89-4.53.74-3,1.18-4.54.94-3,1.48-4.55Z"/><path class="cls-36" d="M344.88,142.57l.5,3.12c-1.11.78-2.2,1.62-3.28,2.5S340,150,338.94,151s-2,2-3,3-2,2.14-2.88,3.27l-1.44-2.14q1.52-1.83,3.1-3.53t3.25-3.28c1.11-1,2.25-2,3.4-3S343.68,143.43,344.88,142.57Z"/><path class="cls-36" d="M316.12,200.9c0,1.39,0,2.76.05,4.11s.18,2.7.35,4,.39,2.63.67,3.9a38.4,38.4,0,0,0,1,3.76l-2.77,2.6c-.4-1.34-.75-2.7-1-4.1s-.52-2.8-.69-4.24-.29-2.88-.35-4.35-.07-2.94,0-4.44Z"/><path class="cls-36" d="M364.08,134l-1,3.95a34.26,34.26,0,0,0-3.68.84,37.74,37.74,0,0,0-3.63,1.22c-1.2.46-2.39,1-3.57,1.57s-2.34,1.21-3.49,1.9l-.24-3.32c1.24-.75,2.5-1.45,3.76-2.09s2.57-1.23,3.86-1.74,2.62-1,3.94-1.37A41,41,0,0,1,364.08,134Z"/><path class="cls-36" d="M327.91,231.76v0H328L325.86,236v0h0l0,0h0a29.91,29.91,0,0,1-2.85-2.78,32.22,32.22,0,0,1-4.49-6.44,36.64,36.64,0,0,1-1.69-3.58l2.69-2.92c.48,1.12,1,2.21,1.59,3.26a31.87,31.87,0,0,0,1.93,3,27.73,27.73,0,0,0,2.28,2.79A26,26,0,0,0,327.91,231.76Z"/><path class="cls-36" d="M368,133.51c.82-.06,1.63-.09,2.44-.09s1.62,0,2.43.08,1.62.16,2.43.28,1.62.29,2.42.48l1.42.38q.7.21,1.38.45l1.36.52c.45.19.89.38,1.32.59l-2.61,4.06c-.39-.19-.79-.38-1.2-.56s-.81-.34-1.23-.49-.83-.3-1.26-.44-.85-.26-1.29-.37c-.73-.19-1.47-.35-2.21-.48s-1.48-.23-2.22-.3-1.48-.1-2.23-.11-1.48,0-2.22.05Z"/><path class="cls-36" d="M330.82,233.84a23.73,23.73,0,0,0,3.24,1.68,25,25,0,0,0,3.47,1.21,26.14,26.14,0,0,0,3.67.7,27.13,27.13,0,0,0,3.84.21l-.64,5a32.44,32.44,0,0,1-4.2-.3,30,30,0,0,1-4-.86,28.18,28.18,0,0,1-7.27-3.29Z"/><path class="cls-36" d="M393.42,154.14a34.51,34.51,0,0,0-1.95-3.67,29.19,29.19,0,0,0-2.3-3.25,26.78,26.78,0,0,0-2.62-2.8,25.24,25.24,0,0,0-2.92-2.35l2.94-4a27.7,27.7,0,0,1,3.24,2.5,28.67,28.67,0,0,1,2.92,3,32.35,32.35,0,0,1,2.58,3.51,37.15,37.15,0,0,1,2.19,4Z"/><path class="cls-36" d="M349.06,237.33a36.05,36.05,0,0,0,4.23-.86,40.77,40.77,0,0,0,4.3-1.42,46.5,46.5,0,0,0,4.35-2c1.45-.75,2.9-1.6,4.33-2.53l1.48,4.65c-1.58,1-3.18,1.93-4.78,2.74a51,51,0,0,1-4.79,2.11,44.65,44.65,0,0,1-4.74,1.5,38.55,38.55,0,0,1-4.64.87Z"/><path class="cls-36" d="M396.93,178c.16-1.83.23-3.62.22-5.38a50.57,50.57,0,0,0-.26-5.12,48.74,48.74,0,0,0-.73-4.83A41.36,41.36,0,0,0,395,158.2l4.29-2.67a46.29,46.29,0,0,1,1.35,4.9,51.66,51.66,0,0,1,.86,5.29c.2,1.83.32,3.71.34,5.63s0,3.91-.2,5.92Z"/><path class="cls-36" d="M372.39,231.9l-1.92-4.38c1.38-1.09,2.73-2.27,4.06-3.52s2.64-2.6,3.91-4,2.5-2.92,3.69-4.49,2.33-3.22,3.42-4.93l3.58,2.68c-1.21,1.9-2.48,3.71-3.8,5.45s-2.68,3.38-4.1,4.94-2.85,3-4.33,4.41S373.92,230.71,372.39,231.9Z"/><path class="cls-36" d="M389.19,204.2c.88-1.72,1.69-3.46,2.42-5.2s1.39-3.48,2-5.23,1.09-3.48,1.53-5.21.81-3.44,1.1-5.14l4.65-.17c-.32,1.88-.71,3.78-1.19,5.68s-1,3.84-1.68,5.77-1.37,3.86-2.18,5.78-1.69,3.85-2.66,5.75c-.07.12-.13.24-.19.36l-.19.35-.18.36c-.07.12-.13.24-.19.36l-3.9-2.16.18-.32c.05-.11.11-.22.17-.33l.17-.32Z"/></g></g><g class="cls-35"><g class="cls-2"><path class="cls-36" d="M338.07,178.22l.11-.23.12-.23a2.26,2.26,0,0,1,.11-.22l.12-.23.1-.2a2,2,0,0,0,.1-.21c0-.06.07-.13.11-.2s.07-.13.1-.2l.79.43-.1.2a1.74,1.74,0,0,0-.1.19,1.86,1.86,0,0,0-.1.2l-.11.2c0,.07-.07.14-.11.22l-.11.22c0,.07-.07.15-.11.22s-.07.15-.11.22Z"/><path class="cls-36" d="M340.68,175.17l-.76-.48c.07-.14.15-.28.23-.42l.24-.42.24-.42.24-.42.73.53-.23.4-.24.41c-.07.14-.15.27-.23.41Z"/><path class="cls-36" d="M336.37,181.82c.07-.14.13-.29.2-.43s.13-.3.2-.44.13-.3.2-.44.14-.29.2-.44l.84.33c-.07.14-.13.29-.2.43l-.19.42c-.07.15-.13.29-.2.43l-.19.43Z"/><path class="cls-36" d="M341.92,171.24l.25-.41.25-.41c.09-.13.17-.27.26-.41l.26-.4.68.62-.26.4-.24.39-.25.4c-.08.14-.17.27-.25.4Z"/><path class="cls-36" d="M336.44,183.94l-.18.44c-.06.14-.12.29-.17.43l-.18.43-.17.44-.91-.18.18-.45.18-.44.18-.45.19-.45Z"/><path class="cls-36" d="M344.07,167.89l.27-.4.27-.4c.09-.14.18-.27.28-.4l.27-.39.62.72-.27.38-.27.39-.26.39-.27.38Z"/><path class="cls-36" d="M335,187.55c0,.15-.1.29-.16.44l-.15.44c-.06.15-.11.3-.16.44l-.15.45-1-.08c.05-.15.1-.3.16-.45s.1-.3.16-.46.1-.3.16-.45l.16-.45Z"/><path class="cls-36" d="M346.37,164.63l.29-.39.29-.39.29-.39.3-.38.55.83-.29.37-.28.37c-.1.12-.19.25-.29.38l-.28.37Z"/><path class="cls-36" d="M333.79,191.22c-.05.14-.1.29-.14.44s-.09.3-.14.45-.09.3-.13.45-.09.3-.13.45l-1,0c.05-.15.09-.31.14-.46s.09-.31.14-.46l.14-.47.15-.46Z"/><path class="cls-36" d="M348.82,161.46l.31-.37.31-.38.31-.37c.1-.12.21-.24.31-.37l.48.93-.3.36-.3.35-.3.37-.3.36Z"/><path class="cls-36" d="M332.71,194.93c0,.15-.08.3-.11.46l-.12.45c0,.15-.08.3-.11.45s-.08.31-.11.46l-1,.15c0-.16.07-.31.11-.47l.12-.47.12-.46.12-.47Z"/><path class="cls-36" d="M351.42,158.42l.32-.36.33-.36.33-.36.33-.35.41,1-.32.34c-.11.12-.22.23-.32.35l-.32.34c-.11.12-.21.24-.32.35Z"/><path class="cls-36" d="M331.81,198.69l-.09.46c0,.16-.07.31-.1.46l-.09.46-.09.46-1.06.27.09-.47c0-.16.06-.32.1-.48l.09-.47c0-.16.07-.32.1-.47Z"/><path class="cls-36" d="M354.16,155.5l.34-.35.35-.34.34-.34.35-.34.33,1.12-.34.33-.33.33-.34.33-.33.33Z"/><path class="cls-36" d="M331.1,202.5c0,.15-.05.31-.08.46s0,.31-.07.46,0,.31-.07.47l-.06.46-1.1.39c0-.16,0-.32.07-.48s0-.31.07-.47.05-.32.07-.48.06-.32.08-.48Z"/><path class="cls-36" d="M357,152.72l.36-.33.36-.33.37-.32.36-.32.25,1.22-.36.31-.35.31-.35.31-.35.31Z"/><path class="cls-36" d="M330.57,206.34c0,.15,0,.31-.05.46s0,.32,0,.47,0,.31,0,.47,0,.31-.05.46l-1.13.52c0-.16,0-.32.05-.48s0-.32.05-.48,0-.33,0-.49,0-.32.05-.48Z"/><path class="cls-36" d="M360.07,150.08l.37-.31.38-.3.38-.31.38-.3.16,1.32c-.13.09-.25.19-.37.29l-.37.29-.37.29-.36.3Z"/><path class="cls-36" d="M330.24,210.2l0,.47c0,.16,0,.31,0,.47s0,.31,0,.47,0,.31,0,.47l-1.15.64c0-.16,0-.32,0-.48s0-.32,0-.49l0-.48c0-.16,0-.32,0-.49Z"/><path class="cls-36" d="M364.81,146.47l.06,1.41-.39.27-.38.27-.38.27-.38.28-.11-1.36.39-.29.4-.29.39-.28Z"/><path class="cls-36" d="M330.12,214.08c0,.16,0,.32,0,.47v.94c0,.16,0,.32,0,.47l-1.17.78c0-.16,0-.32,0-.48v-.49c0-.16,0-.32,0-.49s0-.32,0-.48Z"/><path class="cls-36" d="M368.13,145.78l-.4.24-.4.25-.4.25-.39.25v-1.46l.41-.27.41-.26.41-.26.42-.25Z"/><path class="cls-36" d="M330.34,219.84l-1.19.93c0-.17,0-.33,0-.49l0-.49,0-.48c0-.16,0-.33,0-.49l1.18-.85,0,.47,0,.46,0,.47C330.32,219.53,330.33,219.69,330.34,219.84Z"/><path class="cls-36" d="M371.51,143.87l-.42.22c-.13.08-.27.15-.41.22l-.41.23-.41.23.1-1.56.43-.24.42-.24.43-.23.43-.23Z"/><path class="cls-36" d="M330.54,221.84l.06.47.06.46.06.47c0,.15,0,.31.07.46l-1.21,1.08-.06-.49c0-.16,0-.32-.07-.48s0-.32-.05-.48l-.06-.49Z"/><path class="cls-36" d="M375,142.2l-.43.19-.42.19-.43.2-.42.2.22-1.65.44-.22.44-.2.45-.21.44-.2Z"/><path class="cls-36" d="M331.12,225.68c0,.16.05.31.08.47l.09.46c0,.15.07.31.1.46s.06.31.1.46l-1.21,1.23c0-.16-.07-.32-.1-.48s-.06-.32-.1-.48l-.09-.48c0-.16-.05-.32-.08-.48Z"/><path class="cls-36" d="M378.61,140.77l-.44.16-.44.16-.44.17-.44.17.35-1.75.46-.18.45-.18.46-.17L379,139Z"/><path class="cls-36" d="M332,229.48l.12.46c0,.15.08.3.13.45l.12.46c.05.15.09.3.14.45l-1.21,1.4c0-.16-.09-.32-.13-.48s-.09-.31-.13-.47l-.12-.48a3.59,3.59,0,0,1-.12-.47Z"/><path class="cls-36" d="M382.32,139.62l-.46.13-.45.12L381,140l-.45.13.5-1.84.46-.14.47-.15.47-.13.48-.14Z"/><path class="cls-36" d="M333.07,233.21l.15.45c0,.14.11.29.16.44s.11.29.16.44l.17.44-1.19,1.57c-.06-.16-.12-.31-.17-.46l-.17-.47c-.05-.15-.1-.3-.16-.46l-.15-.46Z"/><path class="cls-36" d="M386.11,138.78l-.46.08-.46.09-.46.1-.46.1.64-1.93.48-.11.48-.1.48-.1.49-.1Z"/><path class="cls-36" d="M334.47,236.84c.06.14.13.28.19.43l.19.42c.07.15.14.29.2.43l.21.43-1.17,1.74-.21-.45c-.06-.15-.13-.3-.2-.44l-.2-.45c-.06-.15-.13-.3-.19-.46Z"/><path class="cls-36" d="M390,138.27l-.47,0-.47.05-.47,0-.47.06.81-2,.49-.07.49-.06.49-.06.49-.05Z"/><path class="cls-36" d="M336.18,240.33c.07.14.15.28.23.42l.23.41.24.4.24.41L336,243.9l-.25-.43-.24-.43-.24-.44-.23-.43Z"/><path class="cls-36" d="M393.89,138.12h-1.42l-.48,0,1-2.08.49,0,.5,0h1Z"/><path class="cls-36" d="M339.31,245.22v0l0,0h0l-1.08,2.12v0l0,0v0h0l-.29-.41-.29-.41-.27-.41c-.1-.14-.19-.28-.28-.42l1.11-2,.26.39.28.39.27.39C339.12,245,339.21,245.1,339.31,245.22Z"/><path class="cls-36" d="M397.84,138.37l-.48-.05-.48,0-.47,0-.48,0,1.17-2.14.5,0,.5,0,.5,0,.5,0Z"/><path class="cls-36" d="M341.89,248.34l-1,2.3-.33-.38-.33-.38-.32-.38-.32-.39,1-2.22c.1.13.21.25.31.37l.32.36.31.36Z"/><path class="cls-36" d="M401.78,139l-.47-.1-.48-.1-.48-.09-.47-.09,1.36-2.19.51.08.5.09.5.1.5.1Z"/><path class="cls-36" d="M343.33,249.81l.35.33.36.33.36.33.36.32-.92,2.49-.37-.34-.38-.35-.36-.35-.37-.36Z"/><path class="cls-36" d="M405.68,140.19l-.46-.17-.47-.15-.48-.15-.47-.15,1.58-2.21.5.14.5.14.49.16.5.16Z"/><path class="cls-36" d="M346.39,252.44l.39.29.4.3.41.28c.13.1.27.19.41.28l-.81,2.68-.42-.3-.42-.31-.42-.31-.41-.32Z"/><path class="cls-36" d="M409.51,141.84l-.46-.23-.46-.22-.46-.21-.46-.21,1.8-2.22.49.2.49.22.49.22.48.23Z"/><path class="cls-36" d="M349.81,254.73l.44.25.44.25.45.24.45.23-.67,2.86-.47-.25-.47-.26-.46-.27-.45-.27Z"/><path class="cls-36" d="M413.21,144l-.44-.29-.44-.29c-.15-.09-.3-.18-.44-.28l-.45-.27,2-2.21.48.27.47.29.47.29.47.3Z"/><path class="cls-36" d="M353.59,256.63l.48.2.49.19.49.19.49.18-.51,3-.52-.2L354,260l-.5-.21-.5-.22Z"/><path class="cls-36" d="M416.72,146.79l-.41-.37-.42-.35c-.13-.12-.27-.23-.42-.35l-.42-.34,2.27-2.16.45.34.45.36.45.36.44.37Z"/><path class="cls-36" d="M357.71,258.07l.53.14.53.14.53.12.53.12-.32,3.19-.56-.13-.56-.15-.55-.15-.54-.16Z"/><path class="cls-36" d="M420,150.13l-.38-.44-.39-.43-.39-.41-.39-.41,2.51-2.09.42.42.42.43.41.44.41.45Z"/><path class="cls-36" d="M362.18,259l.56.07.57.07.57.06.58.05-.11,3.32-.6-.06-.6-.07-.59-.09-.59-.09Z"/><path class="cls-36" d="M423,154.05l-.33-.5c-.12-.17-.23-.34-.35-.5l-.35-.49-.36-.48,2.74-2,.39.5.38.51.37.51.37.53Z"/><path class="cls-36" d="M367,259.38h1.2l.6,0,.61,0,.14,3.43h-.64c-.21,0-.42,0-.64,0h-.63l-.63,0Z"/><path class="cls-36" d="M425.56,158.57c-.09-.19-.19-.38-.29-.58l-.3-.56-.3-.56-.31-.56,3-1.81c.12.19.23.38.34.57l.33.58.33.6.31.6Z"/><path class="cls-36" d="M372.31,262.6l-.28-3.47.63-.08.64-.08.63-.1.64-.1.42,3.5-.68.1-.67.09-.67.07Z"/><path class="cls-36" d="M426.74,161.13l3.17-1.61c.1.21.19.43.29.64l.27.66.27.67c.09.22.17.45.26.67l-3.28,1.51c-.07-.22-.15-.44-.23-.65s-.16-.43-.25-.64-.16-.42-.25-.63S426.82,161.34,426.74,161.13Z"/><path class="cls-36" d="M377.91,261.73l-.57-3.52.66-.16.65-.17.66-.18.67-.19.71,3.53-.7.19-.7.18-.69.16Z"/><path class="cls-36" d="M429.38,169.31c-.06-.24-.11-.48-.17-.71l-.18-.71c-.06-.23-.13-.46-.19-.69s-.13-.46-.2-.69l3.37-1.37c.08.24.15.48.22.72l.21.73c.06.25.13.49.2.74s.12.49.19.74Z"/><path class="cls-36" d="M383.7,260.1l-.87-3.53.67-.25.67-.26.68-.27.67-.28,1,3.51-.72.29-.71.27-.71.27Z"/><path class="cls-36" d="M430.46,175.44c0-.25-.06-.51-.1-.76s-.07-.51-.11-.76-.07-.51-.11-.76-.08-.5-.13-.74l3.53-1.08c0,.26.1.52.14.79s.09.52.13.79.09.53.13.8.08.54.11.81Z"/><path class="cls-36" d="M389.63,257.67l-1.21-3.49.68-.34.68-.35.68-.36.68-.38,1.38,3.44-.72.39-.72.37-.73.37Z"/><path class="cls-36" d="M430.91,182c0-.27,0-.54,0-.82s0-.54,0-.8,0-.54,0-.81,0-.53,0-.8l3.64-.73q0,.42.06.84l.06.85c0,.28,0,.57,0,.85l0,.86Z"/><path class="cls-36" d="M395.6,254.41,394,251l.68-.44.68-.44.67-.46.68-.46,1.72,3.3-.71.49-.72.48-.72.46Z"/><path class="cls-36" d="M430.69,188.92l.06-.85.06-.85c0-.28,0-.56,0-.84s0-.56,0-.84l3.72-.36c0,.3,0,.59,0,.89l0,.89c0,.3,0,.6-.05.9l-.06.9Z"/><path class="cls-36" d="M401.51,250.33l-1.91-3.22.66-.53.66-.54.65-.54.66-.56,2.08,3.12-.7.58-.7.58-.7.56Z"/><path class="cls-36" d="M429.76,196.09l.15-.88c0-.29.09-.58.14-.88s.09-.58.13-.87l.12-.86,3.75.05-.12.92c0,.31-.09.61-.13.92l-.15.93-.15.93Z"/><path class="cls-36" d="M407.24,245.44l-2.26-3,.63-.61.63-.62.62-.63.62-.64,2.43,2.86c-.22.23-.44.46-.67.68l-.66.66-.67.66Z"/><path class="cls-36" d="M428.1,203.38l.24-.89c.08-.29.15-.59.23-.88l.21-.89.21-.88,3.72.49-.21.94c-.08.31-.15.62-.23.93l-.24.94c-.08.32-.16.63-.25.94Z"/><path class="cls-36" d="M412.66,239.81l-2.6-2.71.59-.69c.2-.23.4-.46.59-.7l.58-.7.58-.72,2.74,2.55c-.2.26-.4.51-.61.76l-.62.75c-.2.25-.41.49-.62.73Z"/><path class="cls-36" d="M425.72,210.66l.33-.88c.11-.29.21-.58.31-.88s.21-.58.31-.88l.29-.87,3.63.93c-.1.31-.2.62-.31.93s-.21.63-.32.94-.21.62-.33.93-.22.62-.34.93Z"/><path class="cls-36" d="M417.67,233.52l-2.9-2.38.54-.75c.18-.25.35-.51.53-.77l.52-.77c.18-.26.35-.52.52-.78l3,2.2-.55.82-.56.82-.57.81Z"/><path class="cls-36" d="M422.67,217.8c.14-.28.27-.57.41-.85l.39-.86.39-.86c.12-.28.25-.57.37-.86l3.49,1.38-.4.91c-.13.31-.27.61-.41.91s-.27.61-.41.91-.29.6-.43.91Z"/><path class="cls-36" d="M422.17,226.67l-3.17-2,.47-.81.47-.81.46-.83.45-.83,3.29,1.8-.48.88c-.17.29-.33.59-.49.88l-.5.86C422.51,226.1,422.34,226.39,422.17,226.67Z"/></g></g><g class="cls-35"><g class="cls-2"><path class="cls-36" d="M290,153.57l-1,1.9-.93,1.9c-.31.63-.61,1.26-.91,1.9s-.6,1.27-.89,1.9l-5-1.84c.31-.68.63-1.36,1-2.05s.65-1.36,1-2,.66-1.36,1-2l1-2,.6-1.16.6-1.15.6-1.14c.2-.38.4-.76.61-1.14l4.55,2.73-.56,1.06-.57,1.06-.55,1.07Z"/><path class="cls-36" d="M296.92,131l3.93,3.86c-.6.92-1.19,1.85-1.77,2.78s-1.16,1.87-1.74,2.82-1.13,1.9-1.69,2.86-1.12,1.93-1.66,2.9l-4.43-3c.59-1.05,1.18-2.1,1.78-3.13s1.21-2.06,1.82-3.08,1.24-2,1.86-3.05S296.28,132,296.92,131Z"/><path class="cls-36" d="M284.89,164.4c-.45,1-.89,2-1.32,3.07s-.86,2.05-1.27,3.07-.82,2.05-1.22,3.08-.78,2.06-1.16,3.09l-5.54-.66c.41-1.1.83-2.21,1.26-3.32s.87-2.21,1.32-3.32.91-2.21,1.38-3.31,1-2.2,1.43-3.3Z"/><path class="cls-36" d="M307.39,116.07l3.21,5q-1,1.31-2,2.64c-.66.89-1.32,1.78-2,2.68s-1.29,1.81-1.93,2.72-1.27,1.84-1.89,2.76L299,127.79c.67-1,1.34-2,2-3s1.37-2,2.07-3,1.4-1.95,2.11-2.91S306.66,117,307.39,116.07Z"/><path class="cls-36" d="M278.73,180.05c-.37,1-.72,2.11-1.07,3.17s-.69,2.12-1,3.18-.65,2.12-1,3.19-.61,2.13-.91,3.19l-6,.61c.32-1.15.66-2.3,1-3.45s.7-2.29,1.06-3.44.74-2.29,1.12-3.43.77-2.28,1.17-3.42Z"/><path class="cls-36" d="M321.55,108.1q-1.12,1.23-2.25,2.49c-.74.83-1.47,1.67-2.2,2.52s-1.45,1.7-2.17,2.56-1.42,1.73-2.12,2.6L309.76,113c.75-1,1.51-1.89,2.27-2.83s1.55-1.87,2.33-2.79,1.57-1.84,2.37-2.75,1.6-1.82,2.41-2.72Z"/><path class="cls-36" d="M273.87,196.22q-.42,1.64-.81,3.27c-.26,1.09-.5,2.18-.74,3.27s-.47,2.19-.69,3.28-.43,2.2-.64,3.3l-6.5,2q.35-1.78.72-3.57c.25-1.18.51-2.37.78-3.55s.54-2.36.83-3.54.59-2.35.9-3.53Z"/><path class="cls-36" d="M333.72,96c-.84.76-1.67,1.52-2.5,2.3s-1.63,1.55-2.44,2.34-1.61,1.58-2.41,2.38-1.57,1.6-2.35,2.42l-2.23-6.42c.84-.89,1.68-1.78,2.53-2.66s1.72-1.75,2.59-2.61,1.75-1.73,2.63-2.58,1.79-1.7,2.69-2.53Z"/><path class="cls-36" d="M270.38,212.88c-.18,1.12-.35,2.23-.51,3.34s-.32,2.24-.46,3.36-.27,2.25-.39,3.37-.23,2.26-.33,3.39l-6.93,3.44c.13-1.23.26-2.46.41-3.69s.31-2.44.48-3.67.34-2.43.53-3.64.39-2.42.6-3.63Z"/><path class="cls-36" d="M347.11,85.06c-.92.68-1.83,1.37-2.74,2.07l-2.69,2.12L339,91.42c-.87.73-1.73,1.47-2.59,2.21L335.16,86c.93-.83,1.86-1.65,2.81-2.46s1.89-1.61,2.85-2.41,1.94-1.58,2.92-2.36,2-1.56,3-2.33Z"/><path class="cls-36" d="M268.4,230c-.08,1.13-.14,2.27-.2,3.41s-.1,2.28-.13,3.42-.06,2.29-.07,3.44,0,2.3,0,3.45l-7.28,5.08c0-1.26,0-2.52.06-3.79s.07-2.51.13-3.76.12-2.5.2-3.75.17-2.49.28-3.73Z"/><path class="cls-36" d="M361.75,75.4c-1,.58-2,1.18-3,1.79s-2,1.22-2.94,1.85-1.93,1.26-2.88,1.91-1.9,1.3-2.84,2L349.94,74c1-.75,2.05-1.48,3.08-2.21s2.09-1.45,3.14-2.16,2.13-1.42,3.21-2.11,2.17-1.39,3.27-2.06Z"/><path class="cls-36" d="M268.09,247.38c0,1.15.09,2.3.16,3.45s.14,2.31.23,3.47.19,2.31.31,3.47.24,2.32.38,3.48l-7.55,6.95c-.13-1.29-.24-2.58-.34-3.87s-.19-2.56-.26-3.85-.13-2.55-.18-3.83-.07-2.54-.09-3.82Z"/><path class="cls-36" d="M377.61,67.37q-1.64.7-3.24,1.44c-1.07.5-2.13,1-3.19,1.52s-2.09,1-3.13,1.58S366,73,365,73.56l1.2-10.19c1.12-.65,2.24-1.28,3.37-1.91s2.29-1.24,3.44-1.85,2.33-1.2,3.51-1.78,2.38-1.15,3.58-1.71Z"/><path class="cls-36" d="M269.68,265c.17,1.16.36,2.31.56,3.46s.42,2.31.65,3.46.47,2.32.73,3.47.54,2.31.84,3.46l-7.68,9.08c-.3-1.3-.57-2.6-.83-3.91s-.49-2.59-.72-3.89-.42-2.59-.62-3.88-.36-2.58-.52-3.87Z"/><path class="cls-36" d="M394.67,61.39c-1.17.32-2.33.65-3.48,1s-2.29.71-3.42,1.1-2.25.77-3.36,1.17-2.21.83-3.3,1.27L384,54.39c1.21-.53,2.44-1,3.67-1.53s2.48-1,3.74-1.45,2.53-.92,3.81-1.36,2.58-.87,3.89-1.27Z"/><path class="cls-36" d="M273.45,282.49c.32,1.14.66,2.27,1,3.4s.73,2.27,1.12,3.39.81,2.27,1.24,3.39.87,2.26,1.34,3.38l-7.6,11.5c-.48-1.29-.94-2.59-1.39-3.89s-.85-2.57-1.25-3.87-.78-2.58-1.14-3.87-.7-2.57-1-3.86Z"/><path class="cls-36" d="M412.8,58q-1.86.2-3.69.45c-1.22.17-2.43.36-3.63.56s-2.38.44-3.57.68-2.34.5-3.51.78l4.84-12.9c1.31-.36,2.62-.7,3.95-1s2.67-.64,4-.93,2.72-.57,4.09-.82,2.78-.49,4.18-.7Z"/><path class="cls-36" d="M286.65,312.55l0,0,0,.05,0,.05,0,.05L279.54,327l0-.06,0-.06,0-.05,0-.06c-.7-1.25-1.38-2.5-2-3.76s-1.28-2.51-1.89-3.77-1.18-2.51-1.74-3.77-1.08-2.52-1.6-3.78l7.55-12c.5,1.1,1,2.18,1.55,3.26s1.09,2.18,1.67,3.25,1.18,2.16,1.79,3.23S286,311.49,286.65,312.55Z"/><path class="cls-36" d="M416.73,57.62,424,43.45h.14c1.42-.17,2.84-.31,4.25-.42s2.85-.21,4.27-.28,2.86-.12,4.29-.13,2.87,0,4.3,0l-9.43,15c-1.24-.09-2.48-.17-3.73-.22s-2.48-.07-3.73-.08-2.48,0-3.73.06-2.48.1-3.73.18h-.12Z"/><path class="cls-36" d="M289,316.07c.72,1.05,1.45,2.08,2.2,3.09s1.52,2,2.3,3,1.6,2,2.42,2.92,1.67,1.9,2.53,2.82L292,345.08q-1.41-1.68-2.74-3.43c-.89-1.15-1.75-2.32-2.6-3.51s-1.66-2.38-2.46-3.59-1.57-2.43-2.33-3.67Z"/><path class="cls-36" d="M451.12,61.27c-1.25-.37-2.52-.73-3.79-1.05s-2.54-.61-3.82-.88-2.55-.5-3.83-.71-2.56-.39-3.85-.55l10.08-15.25c1.5.09,3,.21,4.48.37s3,.33,4.49.55,3,.46,4.48.73,3,.59,4.49.93Z"/><path class="cls-36" d="M301.28,330.86c.94.92,1.89,1.81,2.86,2.68s2,1.74,3,2.58,2.06,1.66,3.12,2.45,2.15,1.58,3.25,2.33l-5,20.33c-1.22-1-2.41-1.94-3.59-3s-2.3-2-3.42-3.08-2.2-2.11-3.27-3.2-2.09-2.19-3.11-3.32Z"/><path class="cls-36" d="M470.21,69.6c-1.21-.71-2.44-1.4-3.68-2s-2.48-1.26-3.74-1.84-2.5-1.13-3.77-1.65-2.53-1-3.81-1.45l13.48-16c1.53.43,3,.89,4.55,1.38s3,1,4.52,1.61,3,1.18,4.5,1.82,3,1.34,4.47,2.07Z"/><path class="cls-36" d="M317.13,343.26q1.75,1.08,3.57,2.07c1.22.67,2.46,1.31,3.71,1.92s2.55,1.21,3.85,1.77,2.64,1.1,4,1.6l-2.75,23.51c-1.52-.71-3-1.44-4.5-2.21s-2.9-1.56-4.33-2.39-2.79-1.67-4.15-2.55-2.68-1.78-4-2.71Z"/><path class="cls-36" d="M474.12,72l17.36-16c1.49.83,3,1.69,4.41,2.6s2.92,1.87,4.36,2.86,2.87,2.05,4.28,3.13,2.81,2.23,4.19,3.41L488.06,83.4q-1.65-1.64-3.36-3.18c-1.13-1-2.28-2-3.45-3s-2.33-1.85-3.53-2.72S475.33,72.83,474.12,72Z"/><path class="cls-36" d="M336.66,352.13c1.42.45,2.85.86,4.3,1.24s3,.72,4.44,1,3,.59,4.57.83,3.12.44,4.7.61l.47,26.36c-1.83-.33-3.63-.71-5.42-1.13s-3.52-.87-5.25-1.37-3.4-1-5.08-1.6-3.28-1.18-4.9-1.82Z"/><path class="cls-36" d="M503.42,103.22c-.89-1.5-1.82-3-2.77-4.4s-1.91-2.8-2.9-4.16-2-2.64-3-3.92-2.08-2.48-3.16-3.68L513.11,72c1.36,1.3,2.7,2.63,4,4s2.62,2.83,3.88,4.3,2.53,3,3.75,4.61,2.42,3.22,3.59,4.9Z"/><path class="cls-36" d="M359.84,356.24c1.64.08,3.3.13,5,.13s3.38,0,5.09-.12,3.46-.21,5.21-.38,3.52-.39,5.3-.65l4.79,28.44q-3.15.24-6.25.32t-6.1,0c-2-.05-4-.14-6-.29s-3.87-.34-5.78-.58Z"/><path class="cls-36" d="M514.77,129.19c-.57-1.9-1.19-3.77-1.84-5.6s-1.34-3.62-2.06-5.38-1.46-3.45-2.25-5.13-1.58-3.3-2.42-4.89L532,95.35q1.66,2.7,3.22,5.52c1,1.91,2.06,3.85,3,5.84s1.91,4.05,2.8,6.14,1.76,4.25,2.57,6.44Z"/><path class="cls-36" d="M386.18,354.22q2.73-.54,5.48-1.23t5.57-1.52c1.87-.56,3.75-1.17,5.62-1.83s3.79-1.38,5.69-2.14l10.18,29.17q-3.42,1.15-6.83,2.13c-2.25.64-4.5,1.23-6.73,1.75s-4.43,1-6.63,1.38-4.35.74-6.51,1Z"/><path class="cls-36" d="M520.51,160.72q-.24-3.34-.62-6.62c-.24-2.18-.54-4.32-.88-6.44s-.71-4.19-1.13-6.24-.88-4-1.38-6l29.55-8.93c.72,2.3,1.39,4.63,2,7s1.2,4.82,1.72,7.28,1,5,1.41,7.56.78,5.18,1.08,7.81Z"/><path class="cls-36" d="M414.64,344.87c1.9-.88,3.81-1.8,5.71-2.78s3.82-2,5.73-3.11,3.82-2.23,5.72-3.43,3.81-2.46,5.7-3.76l16.33,27.95q-3.46,2.19-7,4.18t-7,3.76q-3.46,1.77-6.94,3.35T426.06,374Z"/><path class="cls-36" d="M519.2,196.39q.51-3.67.87-7.3c.24-2.42.42-4.81.56-7.19s.22-4.72.26-7.05,0-4.63,0-6.91L553,164.67q.27,4.07.35,8.2t0,8.41c-.07,2.84-.2,5.71-.39,8.59s-.46,5.82-.79,8.76Z"/><path class="cls-36" d="M461.18,354.82l-17.66-27.4q2.79-2.12,5.54-4.38c1.84-1.52,3.66-3.08,5.46-4.7s3.6-3.3,5.38-5,3.53-3.51,5.26-5.33l22.56,24.41q-3.18,3.21-6.47,6.22t-6.59,5.82q-3.33,2.79-6.7,5.4C465.72,351.56,463.46,353.23,461.18,354.82Z"/><path class="cls-36" d="M510.08,233.82c.86-2.48,1.68-5,2.44-7.45s1.47-5,2.12-7.43,1.26-4.93,1.81-7.39,1-4.89,1.49-7.33l33,3.82q-.69,4.4-1.59,8.83c-.59,3-1.26,5.93-2,8.9s-1.53,6-2.4,9-1.81,6-2.82,9Z"/><path class="cls-36" d="M494.37,325.41,470.59,302c1.65-1.9,3.27-3.83,4.87-5.81s3.17-4,4.72-6.08,3.06-4.19,4.54-6.34,2.94-4.36,4.36-6.59L517,295.91c-1.73,2.67-3.49,5.3-5.31,7.87s-3.66,5.09-5.55,7.56-3.82,4.86-5.79,7.21S496.4,323.18,494.37,325.41Z"/><path class="cls-36" d="M498.79,260.18q1.17-2.3,2.28-4.61c.74-1.53,1.46-3.08,2.16-4.62s1.37-3.1,2-4.65,1.29-3.1,1.91-4.66l31.56,11.52q-1.1,2.82-2.25,5.62c-.78,1.88-1.59,3.74-2.42,5.6s-1.69,3.72-2.58,5.57-1.79,3.69-2.73,5.52l-1.56,3c-.53,1-1.06,2-1.6,3s-1.08,2-1.64,2.94-1.11,1.95-1.67,2.91L493.43,270c.47-.8.93-1.61,1.38-2.42s.91-1.63,1.36-2.46.89-1.64,1.32-2.47S498.36,261,498.79,260.18Z"/></g></g><g class="cls-35"><path class="cls-36" d="M325.6,171.73a69.3,69.3,0,0,1,9.51-14.13,58.29,58.29,0,0,1,11.82-10.43,41.68,41.68,0,0,1,13.33-5.9,27.86,27.86,0,0,1,13.82.09,23.81,23.81,0,0,1,11.69,7.38,32.24,32.24,0,0,1,6.89,14,51,51,0,0,1,.61,18.94,70.16,70.16,0,0,1-19.94,39.05,50.85,50.85,0,0,1-15.7,10.61A32.33,32.33,0,0,1,342.26,234a23.81,23.81,0,0,1-12.84-5.14,28,28,0,0,1-8.18-11.14,42.19,42.19,0,0,1-3-14.26,58.7,58.7,0,0,1,1.52-15.7A69.59,69.59,0,0,1,325.6,171.73Zm60,30.65a66.82,66.82,0,0,0,6.69-20.63,50.05,50.05,0,0,0-.56-18.52,31.72,31.72,0,0,0-6.7-13.71,23.39,23.39,0,0,0-11.42-7.28,27.17,27.17,0,0,0-13.53-.13A40.79,40.79,0,0,0,347,147.87a57.53,57.53,0,0,0-11.61,10.22,69.21,69.21,0,0,0-15.1,29.58,56.79,56.79,0,0,0-1.48,15.4,41,41,0,0,0,3,14,27.27,27.27,0,0,0,8,10.88,23.39,23.39,0,0,0,12.59,5,31.8,31.8,0,0,0,15-2.61,49.94,49.94,0,0,0,15.34-10.41,67.09,67.09,0,0,0,12.79-17.51"/></g><g class="cls-35"><g class="cls-2"><path class="cls-36" d="M376.82,197.89q-.88,1.76-1.68,3.51c-.53,1.17-1,2.35-1.5,3.53s-.89,2.35-1.3,3.53-.77,2.36-1.11,3.54h-1c.35-1.21.74-2.43,1.15-3.64s.86-2.43,1.34-3.64,1-2.42,1.53-3.63,1.13-2.41,1.74-3.61l0,0,0,0,0,0v0l.79.41v0l0,0,0,0Z"/><polygon class="cls-36" points="371.24 212 371.23 212 371.24 212 371.24 212 371.24 212 371.24 212 371.24 212"/><path class="cls-36" d="M386.89,181.3l.5.87c-.81.93-1.61,1.89-2.38,2.88s-1.53,2-2.27,3-1.45,2.11-2.15,3.2-1.37,2.22-2,3.36l-.74-.49c.67-1.18,1.36-2.33,2.07-3.46s1.45-2.22,2.21-3.29,1.54-2.12,2.33-3.14S386.06,182.26,386.89,181.3Z"/><path class="cls-36" d="M370.36,215.36q-.45,1.88-.78,3.72c-.23,1.25-.42,2.48-.57,3.71s-.28,2.47-.36,3.69-.13,2.45-.15,3.66l-1.07.53c0-1.24.07-2.5.16-3.77s.21-2.52.37-3.79.36-2.54.6-3.82.5-2.55.8-3.83Z"/><path class="cls-36" d="M401.05,170.17c-1,.65-2,1.34-3,2.07s-1.94,1.48-2.88,2.27-1.88,1.61-2.79,2.46-1.8,1.73-2.68,2.64l-.43-.94c.9-.94,1.82-1.85,2.75-2.73s1.9-1.73,2.87-2.54,2-1.6,3-2.35,2-1.46,3.07-2.14Z"/><path class="cls-36" d="M368.56,233.46c.06,1.2.15,2.39.28,3.57s.31,2.35.52,3.5.46,2.29.76,3.41.63,2.23,1,3.31l-1.07,1.12c-.38-1.12-.72-2.27-1-3.44s-.55-2.33-.77-3.53-.38-2.39-.52-3.62-.22-2.44-.27-3.68Z"/><path class="cls-36" d="M417.14,161.94l-.38,1.56c-1.11.23-2.22.51-3.32.84s-2.18.7-3.26,1.12-2.14.88-3.2,1.38-2.09,1-3.12,1.63l0-1.32c1.07-.61,2.14-1.18,3.22-1.7s2.19-1,3.3-1.44,2.24-.84,3.37-1.18S416,162.18,417.14,161.94Z"/><path class="cls-36" d="M420.27,161.41c.84-.11,1.68-.18,2.53-.23s1.69-.06,2.54,0,1.7.07,2.55.16,1.71.21,2.56.37l.83.17.82.19.82.21.8.24-1,1.67-.77-.24-.78-.21-.79-.19-.8-.17c-.82-.16-1.64-.29-2.47-.38s-1.64-.15-2.46-.18-1.63,0-2.45,0-1.63.11-2.44.21Z"/><path class="cls-36" d="M379.78,260.89l.67.61c.22.2.45.39.68.58l.7.55.72.53-.78,1.78-.73-.56-.72-.58-.71-.61c-.23-.2-.46-.41-.68-.63a29.68,29.68,0,0,1-2.38-2.51,32.5,32.5,0,0,1-2.06-2.73,31.61,31.61,0,0,1-1.77-2.9c-.54-1-1-2-1.49-3.06l1-1.22c.44,1,.93,2,1.46,3s1.11,1.89,1.72,2.79a31.87,31.87,0,0,0,2,2.61A29,29,0,0,0,379.78,260.89Z"/><path class="cls-36" d="M384.39,266.64l.69-1.86a25.14,25.14,0,0,0,3.05,1.47,27.39,27.39,0,0,0,3.24,1.09,28,28,0,0,0,3.42.69,32.59,32.59,0,0,0,3.59.28l-.24,2.12a30.42,30.42,0,0,1-3.72-.32,30.08,30.08,0,0,1-3.54-.75,28.21,28.21,0,0,1-3.35-1.16A26.21,26.21,0,0,1,384.39,266.64Z"/><path class="cls-36" d="M453.75,192.56c-.22-1.54-.51-3-.85-4.48s-.76-2.82-1.22-4.16a41.06,41.06,0,0,0-1.56-3.84,34.84,34.84,0,0,0-1.88-3.47l1.67-1.36a34.39,34.39,0,0,1,2,3.59,40.1,40.1,0,0,1,1.65,4q.73,2.08,1.29,4.32c.37,1.5.68,3,.91,4.64Z"/><path class="cls-36" d="M401.84,268.19a36.13,36.13,0,0,0,3.93-.57,38.29,38.29,0,0,0,4-1,42.31,42.31,0,0,0,4.1-1.5c1.38-.58,2.75-1.24,4.13-2l.54,2.07c-1.43.76-2.87,1.44-4.3,2s-2.85,1.1-4.26,1.53a41.31,41.31,0,0,1-4.19,1,36.27,36.27,0,0,1-4.08.55Z"/><path class="cls-36" d="M452,217.59q.72-2.72,1.22-5.39c.33-1.78.58-3.54.77-5.28s.29-3.44.33-5.12,0-3.31-.09-4.91l2-.63c.11,1.67.15,3.37.11,5.11s-.14,3.53-.32,5.33-.45,3.65-.79,5.5-.75,3.74-1.25,5.63Z"/><path class="cls-36" d="M422.48,262.89l-.7-2c1.36-.87,2.7-1.83,4-2.85s2.65-2.14,3.94-3.31,2.57-2.44,3.81-3.76,2.46-2.72,3.64-4.19l1.38,1.47q-1.85,2.3-3.8,4.36c-1.29,1.37-2.62,2.68-4,3.9s-2.72,2.37-4.11,3.44S423.89,262,422.48,262.89Z"/><path class="cls-36" d="M446,233.19c.45-.88.88-1.77,1.3-2.66s.81-1.78,1.19-2.68.73-1.79,1.07-2.68.67-1.8,1-2.69l1.95.44c-.31.94-.65,1.87-1,2.81s-.73,1.86-1.13,2.8-.8,1.86-1.23,2.79-.89,1.85-1.36,2.77-.9,1.74-1.38,2.59-.95,1.69-1.45,2.52-1,1.64-1.53,2.43-1,1.58-1.58,2.35l-1.52-1.29c.52-.74,1-1.5,1.52-2.26s1-1.55,1.46-2.34.94-1.59,1.39-2.41S445.53,234,446,233.19Z"/></g><path class="cls-36" d="M446.28,173.77a30.65,30.65,0,0,0-2.35-2.71,28.52,28.52,0,0,0-2.59-2.33,25.92,25.92,0,0,0-2.8-1.95,27.35,27.35,0,0,0-3-1.56l1.09-1.66a27,27,0,0,1,3.12,1.6,27.33,27.33,0,0,1,2.92,2,27.74,27.74,0,0,1,2.71,2.39,30,30,0,0,1,2.47,2.78Z"/></g><g class="cls-35"><g class="cls-2"><path class="cls-36" d="M306.77,161.31l2.2,1.11a.25.25,0,0,1,.11.12.42.42,0,0,1,0,.2.69.69,0,0,1,0,.24,1.53,1.53,0,0,1-.11.27.76.76,0,0,1-.15.23.94.94,0,0,1-.18.17.55.55,0,0,1-.18.08.25.25,0,0,1-.17,0l-2.19-1.13Z"/><path class="cls-36" d="M303.91,160.65a4.94,4.94,0,0,1,.57-.86,2.85,2.85,0,0,1,.65-.61,1.68,1.68,0,0,1,.65-.31.91.91,0,0,1,.59.06l3.5,1.73a.86.86,0,0,1,.42.44,1.79,1.79,0,0,1,.16.73,3.32,3.32,0,0,1-.11.91,4.1,4.1,0,0,1-.38,1,4.56,4.56,0,0,1-.58.89,3.58,3.58,0,0,1-.68.63,1.92,1.92,0,0,1-.68.3,1,1,0,0,1-.61-.08L304,163.65a.81.81,0,0,1-.39-.44,1.73,1.73,0,0,1-.14-.71,3.66,3.66,0,0,1,.11-.89A5.72,5.72,0,0,1,303.91,160.65Zm5.6.71-3.5-1.74a.63.63,0,0,0-.41,0,1.18,1.18,0,0,0-.46.21,2.11,2.11,0,0,0-.46.44,2.68,2.68,0,0,0-.4.61,2.87,2.87,0,0,0-.26.68,2.39,2.39,0,0,0-.09.63,1.48,1.48,0,0,0,.1.5.61.61,0,0,0,.28.31l3.46,1.81a.64.64,0,0,0,.43.06,1.29,1.29,0,0,0,.48-.22,2.18,2.18,0,0,0,.48-.44,3.83,3.83,0,0,0,.42-.63,2.84,2.84,0,0,0,.26-.7,2.56,2.56,0,0,0,.08-.65,1.32,1.32,0,0,0-.11-.51.67.67,0,0,0-.3-.32"/><path class="cls-36" d="M295.1,213.44a1.33,1.33,0,0,1,.71-.19,1,1,0,0,1,.58.23,1.47,1.47,0,0,1,.39.62,2.91,2.91,0,0,1,.14.94,4.89,4.89,0,0,1,0,.54c0,.18-.06.36-.11.55a5.6,5.6,0,0,1-.17.54,5.05,5.05,0,0,1-.24.53,4.51,4.51,0,0,1-.28.49,4.63,4.63,0,0,1-.32.42,3.61,3.61,0,0,1-.35.33,2.12,2.12,0,0,1-.36.25l-4.92,2.64a1.17,1.17,0,0,1-.69.17.91.91,0,0,1-.55-.26,1.4,1.4,0,0,1-.36-.62,2.92,2.92,0,0,1-.12-.93,5.35,5.35,0,0,1,.05-.55,5.17,5.17,0,0,1,.11-.54c.05-.17.11-.35.17-.52a3.81,3.81,0,0,1,.23-.5,5,5,0,0,1,.26-.46c.1-.14.2-.28.3-.4a2.73,2.73,0,0,1,.34-.34,2,2,0,0,1,.35-.24Zm1.28,1.9a1.93,1.93,0,0,0-.1-.67,1.06,1.06,0,0,0-.27-.44.64.64,0,0,0-.41-.16.92.92,0,0,0-.51.13l-4.87,2.69a1.44,1.44,0,0,0-.25.18,2.55,2.55,0,0,0-.24.23,2.16,2.16,0,0,0-.21.29,3.37,3.37,0,0,0-.19.32,3.73,3.73,0,0,0-.16.35,2.78,2.78,0,0,0-.12.38c0,.12-.06.25-.08.38a2.53,2.53,0,0,0,0,.38,1.87,1.87,0,0,0,.08.66,1,1,0,0,0,.26.44.59.59,0,0,0,.39.18.75.75,0,0,0,.48-.12l4.92-2.65.25-.17a1.88,1.88,0,0,0,.25-.24l.22-.29a4,4,0,0,0,.2-.35c.06-.12.12-.24.17-.37a2.91,2.91,0,0,0,.12-.39,2.79,2.79,0,0,0,.07-.38,2.53,2.53,0,0,0,0-.38"/><path class="cls-36" d="M292,217l3.07-1.69a.36.36,0,0,1,.19,0,.23.23,0,0,1,.16.06.4.4,0,0,1,.1.17.62.62,0,0,1,0,.25.66.66,0,0,1,0,.14l0,.15a.88.88,0,0,1,0,.15.38.38,0,0,1-.06.13.54.54,0,0,1-.07.13,1,1,0,0,1-.08.11l-.1.09-.1.07L292,218.43Z"/><path class="cls-36" d="M342.65,113.49a2.74,2.74,0,0,1,.83-.45,1.54,1.54,0,0,1,.72-.08.92.92,0,0,1,.53.3,1.25,1.25,0,0,1,.27.66l.74,5.53a2.14,2.14,0,0,1,0,.44,2.65,2.65,0,0,1-.07.48,2.57,2.57,0,0,1-.15.5c-.06.17-.14.34-.22.52a5.09,5.09,0,0,1-.3.5,5,5,0,0,1-.34.46c-.12.14-.25.28-.38.41a4.35,4.35,0,0,1-.41.34,2.77,2.77,0,0,1-.85.44,1.42,1.42,0,0,1-.73,0,1,1,0,0,1-.53-.33,1.27,1.27,0,0,1-.26-.69l-.67-5.52a2,2,0,0,1,0-.43,4.2,4.2,0,0,1,.08-.47,4.42,4.42,0,0,1,.15-.48,5.16,5.16,0,0,1,.21-.49c.08-.16.18-.31.28-.47l.32-.45a4.73,4.73,0,0,1,.37-.4A4.59,4.59,0,0,1,342.65,113.49Zm1.73.89a.78.78,0,0,0-.19-.46.59.59,0,0,0-.37-.22,1.16,1.16,0,0,0-.51,0,2.42,2.42,0,0,0-.58.32,2.35,2.35,0,0,0-.29.26,3.57,3.57,0,0,0-.27.28c-.08.11-.16.21-.23.32a3.72,3.72,0,0,0-.19.34,2.07,2.07,0,0,0-.15.34,2.24,2.24,0,0,0-.11.34c0,.11,0,.22-.05.33a1.6,1.6,0,0,0,0,.31l.68,5.52a1,1,0,0,0,.19.49.61.61,0,0,0,.37.23.94.94,0,0,0,.52,0,2.15,2.15,0,0,0,.6-.31,3.36,3.36,0,0,0,.29-.24l.27-.29a4,4,0,0,0,.24-.33,4.05,4.05,0,0,0,.21-.35c.06-.12.11-.24.16-.36a2.42,2.42,0,0,0,.1-.36,2,2,0,0,0,.05-.34,1.48,1.48,0,0,0,0-.3l-.73-5.54"/><path class="cls-36" d="M342.61,118l1.12-.84.45,3.49v.12a.59.59,0,0,1,0,.13.65.65,0,0,1,0,.13l-.06.14s-.05.08-.07.13l-.09.12-.11.11-.11.09a.69.69,0,0,1-.22.12.35.35,0,0,1-.2,0,.22.22,0,0,1-.14-.08.37.37,0,0,1-.08-.19Z"/><path class="cls-36" d="M394,97.4a5.6,5.6,0,0,1,.79-1.15,5.74,5.74,0,0,1,1-.91,4.66,4.66,0,0,1,1.12-.59,2.9,2.9,0,0,1,1.1-.17,1.59,1.59,0,0,1,.86.31,1.42,1.42,0,0,1,.47.71,2.23,2.23,0,0,1,.05,1,4,4,0,0,1-.41,1.2l-4.22,8.28a6,6,0,0,1-.81,1.17,5.45,5.45,0,0,1-1,.9,4,4,0,0,1-1.11.55,2.57,2.57,0,0,1-1.08.12,1.44,1.44,0,0,1-1.26-1.1,2.46,2.46,0,0,1,0-1,4.17,4.17,0,0,1,.4-1.19Zm4.25.35a2.86,2.86,0,0,0,.29-.85,1.51,1.51,0,0,0,0-.71.92.92,0,0,0-.33-.5,1,1,0,0,0-.6-.22,2,2,0,0,0-.78.11A3.79,3.79,0,0,0,396,96a4,4,0,0,0-.72.65,3.77,3.77,0,0,0-.56.81l-4.16,8.15a3,3,0,0,0-.29.84,1.71,1.71,0,0,0,0,.72,1,1,0,0,0,.31.52,1,1,0,0,0,.58.25,1.83,1.83,0,0,0,.76-.08,2.9,2.9,0,0,0,.79-.39,4,4,0,0,0,.73-.64A4.1,4.1,0,0,0,394,106l4.22-8.26"/><path class="cls-36" d="M394.2,100.61l1.33.12-2.63,5.15a1.73,1.73,0,0,1-.22.31,1.22,1.22,0,0,1-.27.24,1.05,1.05,0,0,1-.3.15.75.75,0,0,1-.29,0,.41.41,0,0,1-.22-.1.37.37,0,0,1-.12-.2.6.6,0,0,1,0-.27,1.11,1.11,0,0,1,.11-.32Z"/><path class="cls-36" d="M309.61,262.55a3.87,3.87,0,0,1,.73-1,2.36,2.36,0,0,1,.84-.58,1.51,1.51,0,0,1,.86-.08,1.49,1.49,0,0,1,.77.46,2.7,2.7,0,0,1,.54.94,4.34,4.34,0,0,1,.2,1.23,5.7,5.7,0,0,1-.6,2.69l-4.23,8.29a3.59,3.59,0,0,1-.74,1,2.22,2.22,0,0,1-.84.55,1.41,1.41,0,0,1-.86,0,1.53,1.53,0,0,1-.75-.52,2.75,2.75,0,0,1-.5-1,4.26,4.26,0,0,1-.18-1.26A5.69,5.69,0,0,1,305,272a6.1,6.1,0,0,1,.47-1.32Zm2.84,3.1a3.41,3.41,0,0,0,.34-.94,4,4,0,0,0,.09-1,3,3,0,0,0-.15-.87,1.7,1.7,0,0,0-.37-.66,1.1,1.1,0,0,0-.55-.33,1.08,1.08,0,0,0-.61.06,1.55,1.55,0,0,0-.59.4,2.9,2.9,0,0,0-.52.72l-4.16,8.15a3.82,3.82,0,0,0-.33.93,4,4,0,0,0-.1,1,2.82,2.82,0,0,0,.13.89,2.09,2.09,0,0,0,.35.7,1.17,1.17,0,0,0,.54.36,1,1,0,0,0,.6,0,1.62,1.62,0,0,0,.6-.39,2.79,2.79,0,0,0,.52-.73l4.21-8.26"/><path class="cls-36" d="M310.82,263.87a1.24,1.24,0,0,1,.19-.28.75.75,0,0,1,.23-.15.37.37,0,0,1,.23,0,.39.39,0,0,1,.21.13.61.61,0,0,1,.14.25,1.14,1.14,0,0,1,.05.33,1.1,1.1,0,0,1,0,.36,1.48,1.48,0,0,1-.13.35L309.08,270l-.88-1Z"/><path class="cls-36" d="M432.33,140.34a1.88,1.88,0,0,1,.12-.18l.14-.18.17-.15a1.37,1.37,0,0,1,.2-.13l6.52-3.57.64,1.69-6.56,3.56a1.18,1.18,0,0,1-.42.15,1,1,0,0,1-.38,0,.86.86,0,0,1-.32-.15.67.67,0,0,1-.19-.29.48.48,0,0,1,0-.18.54.54,0,0,1,0-.18,1.42,1.42,0,0,1,0-.2A1.54,1.54,0,0,1,432.33,140.34Z"/><path class="cls-36" d="M362.92,273a2.43,2.43,0,0,1,1.28,0,2.7,2.7,0,0,1,1.14.61,3.79,3.79,0,0,1,.87,1.15,5,5,0,0,1,.48,1.6l1.6,12a7,7,0,0,1,.06.91,6.54,6.54,0,0,1-.08.89,6,6,0,0,1-.21.86,5.16,5.16,0,0,1-.33.8,4.36,4.36,0,0,1-.43.7,4.76,4.76,0,0,1-.52.57,3.69,3.69,0,0,1-.59.41,3,3,0,0,1-.65.25,2.4,2.4,0,0,1-1.33,0,3,3,0,0,1-1.17-.71,4.34,4.34,0,0,1-.87-1.26,5.41,5.41,0,0,1-.47-1.67l-1.43-11.81a8.25,8.25,0,0,1,0-.86,6,6,0,0,1,.09-.84,4.56,4.56,0,0,1,.2-.81,5,5,0,0,1,.31-.76,5.46,5.46,0,0,1,.42-.67,3.76,3.76,0,0,1,.49-.55,4.3,4.3,0,0,1,.56-.42A3.42,3.42,0,0,1,362.92,273Zm2.82,3.6a3.56,3.56,0,0,0-.34-1.13,2.59,2.59,0,0,0-.61-.82,1.93,1.93,0,0,0-.81-.43,1.76,1.76,0,0,0-.91,0,2.35,2.35,0,0,0-.43.19,2.2,2.2,0,0,0-.4.3,3.22,3.22,0,0,0-.35.38,2.92,2.92,0,0,0-.29.48,3.25,3.25,0,0,0-.23.54,3.77,3.77,0,0,0-.14.58,5.61,5.61,0,0,0-.06.59,6.08,6.08,0,0,0,0,.61l1.45,11.83a4.24,4.24,0,0,0,.33,1.19,3.1,3.1,0,0,0,.63.89,2.19,2.19,0,0,0,.82.5,1.76,1.76,0,0,0,.94,0,2,2,0,0,0,.46-.18,1.81,1.81,0,0,0,.41-.29,2.3,2.3,0,0,0,.37-.39,3.52,3.52,0,0,0,.31-.5,3.88,3.88,0,0,0,.23-.56,4.15,4.15,0,0,0,.14-.61,3.21,3.21,0,0,0,.06-.63,4.68,4.68,0,0,0,0-.64l-1.57-11.94"/><path class="cls-36" d="M362.75,276.59a1,1,0,0,1,.11-.17.64.64,0,0,1,.13-.15l.15-.12.17-.07a.6.6,0,0,1,.35,0,.75.75,0,0,1,.3.17,1,1,0,0,1,.23.31,1.38,1.38,0,0,1,.13.42l.95,7.41-1.74.47-.93-7.38a1.77,1.77,0,0,1,0-.23,1.64,1.64,0,0,1,0-.23.9.9,0,0,1,.06-.22A1.67,1.67,0,0,1,362.75,276.59Z"/><path class="cls-36" d="M442.55,131.65a5.39,5.39,0,0,1,1.63-.6,4.16,4.16,0,0,1,1.53,0,3,3,0,0,1,1.26.53,2.42,2.42,0,0,1,.82,1.06A2.95,2.95,0,0,1,448,134a3.32,3.32,0,0,1-.15.75,4.14,4.14,0,0,1-.31.77,6.36,6.36,0,0,1-.45.74,7.32,7.32,0,0,1-.58.67,6.3,6.3,0,0,1-.68.58,6.14,6.14,0,0,1-.76.49l-10.64,5.72a4.81,4.81,0,0,1-1.58.55,3.84,3.84,0,0,1-1.44,0,2.87,2.87,0,0,1-1.16-.57,2.42,2.42,0,0,1-.72-1.06,2.87,2.87,0,0,1-.14-.66,3.19,3.19,0,0,1,0-.69,4,4,0,0,1,.15-.73,6.26,6.26,0,0,1,.3-.73,7.31,7.31,0,0,1,.43-.7,8.3,8.3,0,0,1,.54-.64,5.7,5.7,0,0,1,.64-.56,5.82,5.82,0,0,1,.71-.47Zm4.05,1.6a1.71,1.71,0,0,0-.57-.75,2,2,0,0,0-.89-.37,3,3,0,0,0-1.08,0,4.15,4.15,0,0,0-1.15.43l-10.44,5.76a4.45,4.45,0,0,0-.51.33,5.82,5.82,0,0,0-.45.4,3.23,3.23,0,0,0-.38.45,3.76,3.76,0,0,0-.31.5,2.83,2.83,0,0,0-.21.52,2.33,2.33,0,0,0-.11.51,2.8,2.8,0,0,0,0,.5,1.82,1.82,0,0,0,.11.46,1.65,1.65,0,0,0,.51.75,2,2,0,0,0,.82.4,2.67,2.67,0,0,0,1,0,3.6,3.6,0,0,0,1.11-.39l10.61-5.73a4.51,4.51,0,0,0,.54-.35,3.07,3.07,0,0,0,.47-.41,4.45,4.45,0,0,0,.41-.47,4,4,0,0,0,.32-.52,3.07,3.07,0,0,0,.22-.54,3.58,3.58,0,0,0,.11-.53,2.9,2.9,0,0,0,0-.51,1.93,1.93,0,0,0-.13-.47"/><path class="cls-36" d="M423.26,221.6a1.1,1.1,0,0,1,.29-.38,1.15,1.15,0,0,1,.39-.24,1.05,1.05,0,0,1,.43-.07,1,1,0,0,1,.43.11l6.46,3.26-1.14,2.23-6.43-3.32a1.07,1.07,0,0,1-.54-.68,1.33,1.33,0,0,1,0-.45A1.35,1.35,0,0,1,423.26,221.6Z"/><path class="cls-36" d="M420.58,220.23a5.28,5.28,0,0,1,1.08-1.41,4.58,4.58,0,0,1,1.44-.88,4.25,4.25,0,0,1,1.61-.29,4,4,0,0,1,1.61.4l10.5,5.17a4.5,4.5,0,0,1,1.4,1.11,4.57,4.57,0,0,1,1,3.34,4.9,4.9,0,0,1-.52,1.82,4.81,4.81,0,0,1-1.17,1.49,4.61,4.61,0,0,1-1.56.9,4.48,4.48,0,0,1-1.74.24,4.29,4.29,0,0,1-1.72-.49l-10.35-5.47a4,4,0,0,1-1.26-1.07,4.26,4.26,0,0,1-.71-1.47,4.73,4.73,0,0,1-.13-1.68A4.94,4.94,0,0,1,420.58,220.23Zm15.61,4.22-10.48-5.21a2.56,2.56,0,0,0-1.13-.29,3,3,0,0,0-1.15.2,3.17,3.17,0,0,0-1,.63,3.46,3.46,0,0,0-1.13,2.21,3,3,0,0,0,.09,1.19,2.89,2.89,0,0,0,.51,1,2.5,2.5,0,0,0,.89.75l10.37,5.43a3.14,3.14,0,0,0,1.22.34,3.06,3.06,0,0,0,1.23-.17,3.26,3.26,0,0,0,1.09-.64,3.48,3.48,0,0,0,.83-1.05,3.4,3.4,0,0,0,.24-2.54,3.09,3.09,0,0,0-.59-1.1,3,3,0,0,0-1-.79"/></g></g></g></g></g></g></svg>