<svg xmlns="http://www.w3.org/2000/svg" xmlns:xlink="http://www.w3.org/1999/xlink" viewBox="0 0 1063.89 560"><defs><style>.cls-1{fill:#f9f9f9;}.cls-2{isolation:isolate;}.cls-3{fill:url(#radial-gradient);}.cls-11,.cls-12,.cls-21,.cls-22,.cls-23,.cls-24,.cls-25,.cls-26,.cls-27,.cls-28,.cls-29,.cls-30,.cls-31,.cls-4,.cls-5,.cls-6,.cls-8,.cls-9{mix-blend-mode:screen;}.cls-5{fill:url(#_ÂÁ_Ï_ÌÌ_È_ËÂÌÚ_29);}.cls-6{fill:url(#_ÂÁ_Ï_ÌÌ_È_ËÂÌÚ_29-2);}.cls-7{fill:url(#_ÂÁ_Ï_ÌÌ_È_ËÂÌÚ_29-3);}.cls-8{fill:url(#linear-gradient);}.cls-9{fill:url(#linear-gradient-2);}.cls-10{fill:url(#linear-gradient-3);}.cls-11{fill:url(#linear-gradient-4);}.cls-12{fill:url(#linear-gradient-5);}.cls-13{clip-path:url(#clip-path);}.cls-14{fill:url(#radial-gradient-2);}.cls-15{fill:url(#radial-gradient-3);}.cls-16{fill:url(#radial-gradient-4);}.cls-17{fill:url(#radial-gradient-5);}.cls-18{fill:url(#radial-gradient-6);}.cls-19{fill:url(#radial-gradient-7);}.cls-20{fill:url(#radial-gradient-8);}.cls-21{fill:url(#_ÂÁ_Ï_ÌÌ_È_ËÂÌÚ_29-4);}.cls-22{fill:url(#_ÂÁ_Ï_ÌÌ_È_ËÂÌÚ_50);}.cls-23{fill:url(#_ÂÁ_Ï_ÌÌ_È_ËÂÌÚ_29-5);}.cls-24{fill:url(#_ÂÁ_Ï_ÌÌ_È_ËÂÌÚ_29-6);}.cls-25{fill:url(#_ÂÁ_Ï_ÌÌ_È_ËÂÌÚ_50-2);}.cls-26{fill:url(#_ÂÁ_Ï_ÌÌ_È_ËÂÌÚ_29-7);}.cls-27{fill:url(#_ÂÁ_Ï_ÌÌ_È_ËÂÌÚ_29-8);}.cls-28{fill:url(#_ÂÁ_Ï_ÌÌ_È_ËÂÌÚ_50-3);}.cls-29{fill:url(#_ÂÁ_Ï_ÌÌ_È_ËÂÌÚ_29-9);}.cls-30{fill:url(#_ÂÁ_Ï_ÌÌ_È_ËÂÌÚ_29-10);}.cls-31{fill:url(#_ÂÁ_Ï_ÌÌ_È_ËÂÌÚ_29-11);}.cls-32{fill:#fff;}</style><radialGradient id="radial-gradient" cx="-145.48" cy="-350.38" r="1291.53" gradientUnits="userSpaceOnUse"><stop offset="0" stop-color="#d70010"/><stop offset="0.19" stop-color="#a00410"/><stop offset="0.39" stop-color="#6d0910"/><stop offset="0.57" stop-color="#450c10"/><stop offset="0.75" stop-color="#280e10"/><stop offset="0.89" stop-color="#160f10"/><stop offset="1" stop-color="#101010"/></radialGradient><linearGradient id="_ÂÁ_Ï_ÌÌ_È_ËÂÌÚ_29" x1="713.42" y1="395.05" x2="570.45" y2="277.79" gradientUnits="userSpaceOnUse"><stop offset="0" stop-color="#29abe2"/><stop offset="1"/></linearGradient><linearGradient id="_ÂÁ_Ï_ÌÌ_È_ËÂÌÚ_29-2" x1="713.43" y1="395.05" x2="570.46" y2="277.79" xlink:href="#_ÂÁ_Ï_ÌÌ_È_ËÂÌÚ_29"/><linearGradient id="_ÂÁ_Ï_ÌÌ_È_ËÂÌÚ_29-3" x1="713.49" y1="394.97" x2="570.51" y2="277.72" xlink:href="#_ÂÁ_Ï_ÌÌ_È_ËÂÌÚ_29"/><linearGradient id="linear-gradient" x1="793.5" y1="512.02" x2="586.75" y2="219.9" gradientUnits="userSpaceOnUse"><stop offset="0" stop-color="#d70010"/><stop offset="0.68" stop-color="#7a0110"/></linearGradient><linearGradient id="linear-gradient-2" x1="794.67" y1="511.19" x2="587.93" y2="219.07" xlink:href="#linear-gradient"/><linearGradient id="linear-gradient-3" x1="793.53" y1="511.99" x2="586.79" y2="219.88" xlink:href="#linear-gradient"/><linearGradient id="linear-gradient-4" x1="645.33" y1="87.9" x2="509.09" y2="462.44" xlink:href="#linear-gradient"/><linearGradient id="linear-gradient-5" x1="714.78" y1="61" x2="511.61" y2="404.69" xlink:href="#linear-gradient"/><clipPath id="clip-path"><path class="cls-1" d="M724.88,106.27a.85.85,0,0,1,0,.31,3.34,3.34,0,0,1-.18.5,7.73,7.73,0,0,1-.38.68c-.33.54-.67,1-1,1.56-.51.76-1,1.55-1.51,2.34-.88,1.4-1.78,2.77-2.68,4.15q-1.68,2.61-3.37,5.21-2,3.14-4,6.24l-5.38,8.33c-2.24,3.46-4.49,6.93-6.72,10.39q-4.05,6.24-8.07,12.48c-2.68,4.17-5.38,8.32-8.07,12.49q-8.06,12.48-16.14,25-12.09,18.72-24.21,37.44Q629.67,254.16,616.21,275q-10.77,16.64-21.52,33.28-8.09,12.48-16.14,25-6.74,10.41-13.45,20.8-5.37,8.33-10.76,16.64-4.05,6.24-8.07,12.48c-2,3.13-4,6.25-6,9.37-1.25,1.91-2.5,3.81-3.72,5.72-.45.69-.9,1.38-1.34,2.08-.34.51-.69,1-1.06,1.53s-.75,1-1.15,1.44-.82.94-1.26,1.39-.74.72-1.11,1.06a12.21,12.21,0,0,1-1,.79,12,12,0,0,1-1.59,1c-.82.44-1.66.85-2.49,1.25-1.47.73-2.94,1.52-4.39,2.28-1.83,1-3.67,1.9-5.51,2.84l-6.6,3.42-8.8,4.54-11,5.69q-8.79,4.58-17.6,9.11l-15.4,8c-4.4,2.27-8.8,4.56-13.21,6.83l-6.6,3.42c-1.83.94-3.66,1.91-5.5,2.85l-3.85,2c-.63.34-1.28.69-1.92,1l-1,.48a4.44,4.44,0,0,1-.48.25,1.66,1.66,0,0,1-.29.1.48.48,0,0,1-.24,0,.36.36,0,0,1-.14-.18,1,1,0,0,1,0-.3,4.58,4.58,0,0,1,.14-.53,8,8,0,0,1,.47-1c.36-.62.75-1.23,1.15-1.83.81-1.19,1.65-2.38,2.47-3.57,1.64-2.39,3.24-4.78,4.86-7.17,2.3-3.41,4.65-6.83,7-10.23,2.8-4.09,5.58-8.19,8.38-12.28q5.57-8.19,11.16-16.37l13.95-20.46Q481,375.25,489.38,363l16.75-24.57q8.37-12.27,16.74-24.56l16.74-24.55,14-20.47q5.58-8.19,11.16-16.37c2.8-4.1,5.59-8.18,8.37-12.28l8.38-12.28c2.33-3.41,4.65-6.83,7-10.23,1.85-2.73,3.72-5.46,5.58-8.19l4.18-6.14,4.2-6.14q1.55-2.29,3.12-4.61c.35-.51.7-1,1.06-1.52s.73-1,1.12-1.48a18.26,18.26,0,0,1,1.22-1.4c.36-.39.72-.75,1.09-1.11s.6-.55.93-.82,1-.73,1.51-1.09c.76-.53,1.51-1.07,2.25-1.61l4-2.86c1.69-1.19,3.38-2.38,5.05-3.59l8.09-5.72c3.36-2.39,6.74-4.77,10.1-7.17l16.18-11.45,20.2-14.31q9.09-6.47,18.19-12.89l12.13-8.6,5-3.57,4-2.87c.84-.6,1.68-1.21,2.52-1.8.68-.47,1.38-.94,2-1.43.37-.27.73-.54,1.13-.8a5,5,0,0,1,.76-.4,1.15,1.15,0,0,1,.29-.08.47.47,0,0,1,.24,0A.33.33,0,0,1,724.88,106.27Z"/></clipPath><radialGradient id="radial-gradient-2" cx="631.35" cy="192.79" r="94.38" gradientUnits="userSpaceOnUse"><stop offset="0" stop-color="#d70010"/><stop offset="0.71" stop-color="#1b1464"/><stop offset="0.97" stop-color="#d4145a"/></radialGradient><radialGradient id="radial-gradient-3" cx="509.9" cy="358.03" r="85.21" gradientUnits="userSpaceOnUse"><stop offset="0" stop-color="#d70010"/><stop offset="0.8" stop-color="#1b1464"/><stop offset="1" stop-color="#7a0110"/></radialGradient><radialGradient id="radial-gradient-4" cx="473.19" cy="221.16" r="113.67" gradientTransform="translate(333.58 -278.72) rotate(45)" gradientUnits="userSpaceOnUse"><stop offset="0" stop-color="#d70010"/><stop offset="0.71" stop-color="#1b1464"/><stop offset="0.97" stop-color="#7a0110"/></radialGradient><radialGradient id="radial-gradient-5" cx="334.47" cy="179.99" r="35.85" gradientUnits="userSpaceOnUse"><stop offset="0" stop-color="#ff3951"/><stop offset="0.61" stop-color="#d70010"/><stop offset="0.81" stop-color="#7a0110"/></radialGradient><radialGradient id="radial-gradient-6" cx="412.06" cy="103.29" r="61.91" xlink:href="#radial-gradient-3"/><radialGradient id="radial-gradient-7" cx="427.91" cy="273.97" r="46.45" gradientUnits="userSpaceOnUse"><stop offset="0.04" stop-color="#fff"/><stop offset="0.14" stop-color="#fefcfc"/><stop offset="0.24" stop-color="#fdf1f2"/><stop offset="0.32" stop-color="#fae0e2"/><stop offset="0.4" stop-color="#f6c7cb"/><stop offset="0.48" stop-color="#f1a7ad"/><stop offset="0.56" stop-color="#eb8088"/><stop offset="0.63" stop-color="#e4525d"/><stop offset="0.71" stop-color="#dc1e2c"/><stop offset="0.74" stop-color="#d70010"/><stop offset="0.91" stop-color="#7a0110"/></radialGradient><radialGradient id="radial-gradient-8" cx="585.69" cy="139.49" r="21.97" gradientTransform="translate(599.33 -457.5) rotate(76.72)" gradientUnits="userSpaceOnUse"><stop offset="0.04" stop-color="#fff"/><stop offset="0.14" stop-color="#fefcfc"/><stop offset="0.24" stop-color="#fdf1f2"/><stop offset="0.32" stop-color="#fae0e2"/><stop offset="0.4" stop-color="#f6c7cb"/><stop offset="0.48" stop-color="#f1a7ad"/><stop offset="0.56" stop-color="#eb8088"/><stop offset="0.63" stop-color="#e4525d"/><stop offset="0.71" stop-color="#dc1e2c"/><stop offset="0.74" stop-color="#d70010"/><stop offset="1" stop-color="#101010"/></radialGradient><linearGradient id="_ÂÁ_Ï_ÌÌ_È_ËÂÌÚ_29-4" x1="266.23" y1="391.33" x2="475.2" y2="391.33" xlink:href="#_ÂÁ_Ï_ÌÌ_È_ËÂÌÚ_29"/><linearGradient id="_ÂÁ_Ï_ÌÌ_È_ËÂÌÚ_50" x1="221.1" y1="338.54" x2="430.07" y2="338.54" gradientUnits="userSpaceOnUse"><stop offset="0" stop-color="#ed1e79"/><stop offset="1"/></linearGradient><linearGradient id="_ÂÁ_Ï_ÌÌ_È_ËÂÌÚ_29-5" x1="398.14" y1="277.93" x2="551.57" y2="277.93" xlink:href="#_ÂÁ_Ï_ÌÌ_È_ËÂÌÚ_29"/><linearGradient id="_ÂÁ_Ï_ÌÌ_È_ËÂÌÚ_29-6" x1="544.72" y1="199.91" x2="599.37" y2="199.91" xlink:href="#_ÂÁ_Ï_ÌÌ_È_ËÂÌÚ_29"/><linearGradient id="_ÂÁ_Ï_ÌÌ_È_ËÂÌÚ_50-2" x1="526.11" y1="140.73" x2="580.76" y2="140.73" xlink:href="#_ÂÁ_Ï_ÌÌ_È_ËÂÌÚ_50"/><linearGradient id="_ÂÁ_Ï_ÌÌ_È_ËÂÌÚ_29-7" x1="641.91" y1="100.74" x2="668.83" y2="100.74" xlink:href="#_ÂÁ_Ï_ÌÌ_È_ËÂÌÚ_29"/><linearGradient id="_ÂÁ_Ï_ÌÌ_È_ËÂÌÚ_29-8" x1="402.12" y1="123.84" x2="510.69" y2="123.84" xlink:href="#_ÂÁ_Ï_ÌÌ_È_ËÂÌÚ_29"/><linearGradient id="_ÂÁ_Ï_ÌÌ_È_ËÂÌÚ_50-3" x1="466" y1="229.92" x2="574.57" y2="229.92" xlink:href="#_ÂÁ_Ï_ÌÌ_È_ËÂÌÚ_50"/><linearGradient id="_ÂÁ_Ï_ÌÌ_È_ËÂÌÚ_29-9" x1="284.74" y1="246.5" x2="366.43" y2="246.5" xlink:href="#_ÂÁ_Ï_ÌÌ_È_ËÂÌÚ_29"/><linearGradient id="_ÂÁ_Ï_ÌÌ_È_ËÂÌÚ_29-10" x1="612.6" y1="143.48" x2="622.54" y2="143.48" xlink:href="#_ÂÁ_Ï_ÌÌ_È_ËÂÌÚ_29"/><linearGradient id="_ÂÁ_Ï_ÌÌ_È_ËÂÌÚ_29-11" x1="255.43" y1="145.02" x2="446.66" y2="145.02" xlink:href="#_ÂÁ_Ï_ÌÌ_È_ËÂÌÚ_29"/></defs><title>bg-4</title><g class="cls-2"><g id="Layer_2" data-name="Layer 2"><g id="_ÎÓÈ_1" data-name="—ÎÓÈ_1"><rect class="cls-3" width="1063.89" height="560"/><g class="cls-4"><path class="cls-5" d="M450.14,489.2a1.09,1.09,0,0,1-.26,0,.77.77,0,0,1-.48-.33.35.35,0,0,1-.08-.13l0-.07a1.18,1.18,0,0,1-.07-.43,1.79,1.79,0,0,1,0-.23h0l0-.17a.19.19,0,0,1,0-.1c.07-.31.14-.6.23-.91a13.55,13.55,0,0,1,.67-1.5c.11-.24.24-.48.36-.7.31-.55.62-1.06.94-1.58s.64-1,1-1.51l.06-.08L634.3,215.13c.68-1,1.43-2,2.31-3.09a71.07,71.07,0,0,1,5.23-5.66,26,26,0,0,1,3-2.46l111.81-79.46a13.26,13.26,0,0,1,1.51-1c.18-.1.36-.18.55-.27l.09,0,.32-.11a1.07,1.07,0,0,1,.31-.08,1.35,1.35,0,0,1,.54,0,.3.3,0,0,1,.15,0l.09,0a.87.87,0,0,1,.28.24l0,.08,0,.07a.54.54,0,0,1,0,.22.77.77,0,0,1,0,.31,3,3,0,0,1-.16.81,11.08,11.08,0,0,1-.58,1.3c-.31.57-.6,1.07-.9,1.52L569.7,420.89a57.51,57.51,0,0,1-5,6.6,55.27,55.27,0,0,1-4.66,4.75,19.55,19.55,0,0,1-4.06,2.94L451.32,488.83a3.61,3.61,0,0,1-.79.31l-.11.05h-.05Zm-.37-1.38h0l0,.14a.93.93,0,0,0,0,.24.71.71,0,0,0,0,.26l0,0a.37.37,0,0,0,.2.16.86.86,0,0,0,.32,0h.07a4.32,4.32,0,0,0,.72-.28l104.64-53.66a18.69,18.69,0,0,0,3.95-2.87,52.78,52.78,0,0,0,4.62-4.7,56.26,56.26,0,0,0,5-6.54L758.53,127.34c.29-.45.58-.93.88-1.48a11.86,11.86,0,0,0,.55-1.24,2.57,2.57,0,0,0,.14-.69.74.74,0,0,0,0-.21l0-.06,0-.13,0,0h0l-.08,0a.93.93,0,0,0-.41,0,.67.67,0,0,0-.24.07,2,2,0,0,0-.29.09l-.07,0-.52.25a12.42,12.42,0,0,0-1.45.93L645.1,204.33a27,27,0,0,0-2.92,2.41,69.94,69.94,0,0,0-5.18,5.62c-.87,1.07-1.62,2.07-2.29,3L452.89,481.74l-.06.08c-.29.45-.63,1-.93,1.46s-.62,1-.92,1.56c-.12.22-.24.45-.35.68A13.14,13.14,0,0,0,450,487,7.73,7.73,0,0,0,449.77,487.82Zm4.43-4a.54.54,0,0,1-.22,0,.58.58,0,0,1-.28-.32,1.09,1.09,0,0,1,0-.43,4.74,4.74,0,0,1,.15-.57,7.8,7.8,0,0,1,.49-1c.34-.58.72-1.19,1.16-1.84s1-1.43,1.48-2.14l1-1.44c1.18-1.71,2.33-3.42,3.49-5.14l1.37-2c2.1-3.11,4.28-6.28,6.39-9.35l.6-.88,5.25-7.7,3.13-4.58q5.56-8.19,11.16-16.37,7-10.23,14-20.46Q511.66,397.22,520,385l4.86-7.12q5.94-8.73,11.89-17.44l.22-.31,16.52-24.25,30.77-45.13q5.55-8.13,11.09-16.27l2.43-3.56,6-8.72,15.35-22.51,2.79-4.09,2.79-4.09,2.1-3.09,2.08-3.06,4.2-6.13q1.54-2.31,3.13-4.62c.35-.52.69-1,1-1.52s.76-1.05,1.13-1.5.84-1,1.23-1.41.68-.71,1.1-1.11.66-.61.95-.84.78-.58,1.17-.86l.35-.24c.76-.53,1.51-1.06,2.25-1.6l2.49-1.77,1.56-1.1c1.7-1.2,3.38-2.39,5-3.59l2.37-1.67,5.72-4.05,5-3.58,5.06-3.59,12.59-8.92,3.58-2.53,20.2-14.31q9.09-6.47,18.19-12.89l12.13-8.6c1.64-1.17,3.3-2.33,5-3.5l4.7-3.33c.65-.47,1.31-.95,2-1.41l.38-.26c.55-.39,1.11-.77,1.63-1.16s.75-.55,1.15-.81A4,4,0,0,1,755,128a1.4,1.4,0,0,1,.35-.1.67.67,0,0,1,.39.08.55.55,0,0,1,.23.38,1,1,0,0,1,0,.38l-.24,0,.24.06a4.29,4.29,0,0,1-.19.54,6.36,6.36,0,0,1-.4.71c-.18.31-.38.6-.57.89l-.44.68c-.51.76-1,1.55-1.51,2.34-.69,1.09-1.39,2.16-2.09,3.24l-4,6.12q-2,3.14-4,6.24l-4,6.15-1.4,2.18Q734,163,730.65,168.23l-5.8,9-2.27,3.52q-2,3.12-4,6.24c-1.34,2.08-2.69,4.16-4,6.25q-8.06,12.48-16.15,25-12.08,18.72-24.2,37.44l-13.41,20.75q-6.74,10.42-13.48,20.86l-21.51,33.28q-4.07,6.27-8.11,12.54l-8,12.42-3.81,5.89-9.63,14.91q-5.38,8.33-10.76,16.64-2.91,4.49-5.81,9l-2.26,3.5q-3,4.69-6,9.37l-.74,1.14q-1.5,2.28-3,4.58c-.46.69-.9,1.38-1.34,2.07l-.18.27c-.29.43-.58.87-.9,1.29s-.8,1-1.16,1.45-.79.91-1.27,1.4-.74.72-1.11,1.07-.64.55-1,.81a14.57,14.57,0,0,1-1.63,1c-.73.39-1.49.76-2.23,1.12l-.26.13c-1.08.53-2.15,1.1-3.22,1.66l-1.17.62c-1.42.75-2.86,1.48-4.29,2.22l-1.22.62q-3.3,1.69-6.6,3.42-4.38,2.26-8.77,4.52l-11,5.71-17.6,9.11q-7.71,4-15.4,8l-6.57,3.4L474,473.73l-.09,0-6.52,3.37L465,478.4c-1,.54-2.05,1.07-3.08,1.6l-1.29.66-2.55,1.3c-.64.35-1.29.7-1.93,1l-.48.24-.47.24-.5.25a1.39,1.39,0,0,1-.36.12ZM755.39,128.39l-.19.06a4.69,4.69,0,0,0-.73.39c-.39.25-.75.51-1.12.79-.53.39-1.09.78-1.65,1.17l-.38.26-2,1.4-4.7,3.34q-2.49,1.74-4.95,3.5l-12.13,8.59-18.19,12.89-20.2,14.32-3.58,2.53c-4.2,3-8.4,5.94-12.59,8.92L668,190.14l-5.05,3.58-5.72,4-2.37,1.68q-2.51,1.8-5,3.57l-1.58,1.12-2.48,1.76c-.75.54-1.5,1.08-2.26,1.61l-.35.24c-.39.27-.79.55-1.15.84s-.56.47-.91.81-.76.75-1.08,1.09a18.29,18.29,0,0,0-1.21,1.39q-.54.66-1.11,1.47c-.36.49-.7,1-1,1.5-1.06,1.55-2.1,3.09-3.14,4.63-1.4,2.05-2.8,4.1-4.2,6.13-.69,1-1.39,2-2.08,3.07l-2.1,3.08c-.92,1.36-1.86,2.73-2.79,4.09l-2.79,4.09-15.35,22.51-5.94,8.72-2.44,3.57L584.7,291l-30.76,45.13-16.53,24.25-.21.31-11.9,17.44-4.86,7.12q-8.37,12.27-16.73,24.56-7,10.21-14,20.47-5.6,8.18-11.16,16.36l-3.13,4.59c-1.75,2.56-3.49,5.13-5.25,7.69l-.6.88c-2.11,3.07-4.29,6.24-6.39,9.35l-1.37,2c-1.15,1.72-2.31,3.43-3.49,5.15l-1,1.43c-.5.71-1,1.43-1.47,2.14s-.81,1.24-1.14,1.81a6.75,6.75,0,0,0-.46.95,3.23,3.23,0,0,0-.12.47.79.79,0,0,0,0,.21h.09a1.68,1.68,0,0,0,.24-.08c.14-.07.3-.15.45-.24l.5-.25.47-.24c.64-.32,1.29-.66,1.92-1l2.56-1.31,1.3-.66,3.07-1.59,2.42-1.26,6.52-3.37.09-.05,6.63-3.43,6.57-3.39q7.69-4,15.4-8,8.81-4.55,17.6-9.11l11-5.69c3-1.51,5.87-3,8.79-4.54l6.6-3.42,1.22-.62c1.43-.73,2.87-1.46,4.29-2.21l1.17-.62c1.07-.57,2.15-1.13,3.22-1.67l.28-.13c.73-.36,1.49-.72,2.21-1.11a12.53,12.53,0,0,0,1.56-1c.32-.24.64-.5.94-.77s.74-.7,1.1-1.06.91-1,1.24-1.37.76-.9,1.14-1.42.6-.85.89-1.27l.17-.26,1.34-2.08q1.47-2.28,3-4.58l.74-1.13q3-4.68,6-9.37l2.26-3.51q2.9-4.48,5.81-9,5.38-8.31,10.76-16.64l9.63-14.91,3.81-5.89,8-12.42q4-6.27,8.11-12.54l21.51-33.29,13.48-20.85,13.41-20.75q12.1-18.72,24.2-37.44,8.09-12.48,16.15-25c1.34-2.09,2.69-4.17,4-6.25s2.7-4.16,4-6.24l2.27-3.52,5.8-9q3.35-5.19,6.72-10.4l1.4-2.17,4-6.15q2-3.11,4-6.24l4-6.13c.7-1.07,1.4-2.14,2.09-3.23.5-.79,1-1.58,1.51-2.34l.45-.69.56-.87a7.27,7.27,0,0,0,.36-.65,3.57,3.57,0,0,0,.16-.46v0a.49.49,0,0,0,0-.19S755.43,128.39,755.39,128.39Z"/><path class="cls-6" d="M461.85,498.61h-.09a1,1,0,0,1-.5-.19L449.51,489v-.59l.39.24.08,0a.66.66,0,0,0,.32,0h.07a4.32,4.32,0,0,0,.72-.28l104.64-53.66a18.35,18.35,0,0,0,3.95-2.87,52.78,52.78,0,0,0,4.62-4.7,56.26,56.26,0,0,0,5-6.54L758.53,127.34c.29-.44.58-.93.88-1.48a11.86,11.86,0,0,0,.55-1.24,2.57,2.57,0,0,0,.14-.69.74.74,0,0,0,0-.21l0-.06,0-.13-.12-.06,0-.11v-.58l.42.39L771,133.25a1.37,1.37,0,0,1,.18,1.34,5.69,5.69,0,0,1-.57,1.45c-.26.51-.58,1.08-1,1.69L582.78,431.87a53,53,0,0,1-5,6.6,54.77,54.77,0,0,1-4.66,4.72,18.77,18.77,0,0,1-4.09,2.9l-106,52.16a5.12,5.12,0,0,1-.67.26A1.73,1.73,0,0,1,461.85,498.61Zm-11.35-9.46L461.56,498a.57.57,0,0,0,.25.09,1.14,1.14,0,0,0,.44-.08,3.88,3.88,0,0,0,.58-.23l106-52.16a18.27,18.27,0,0,0,4-2.83,52.24,52.24,0,0,0,4.61-4.67,53.08,53.08,0,0,0,5-6.54L769.23,137.46c.36-.58.68-1.15.93-1.65a5.46,5.46,0,0,0,.54-1.33c.11-.46.09-.74,0-.87l-10.07-9.53a3.08,3.08,0,0,1-.16.71,11.08,11.08,0,0,1-.58,1.3c-.31.57-.6,1.07-.9,1.52L569.7,420.89a57.51,57.51,0,0,1-5,6.6,55.27,55.27,0,0,1-4.66,4.75,19.55,19.55,0,0,1-4.06,2.94L451.32,488.83a3.61,3.61,0,0,1-.79.31Z"/><path class="cls-7" d="M454.2,483.84a.54.54,0,0,1-.22,0,.58.58,0,0,1-.28-.32,1.09,1.09,0,0,1,0-.43,4.74,4.74,0,0,1,.15-.57,7.8,7.8,0,0,1,.49-1c.34-.58.72-1.19,1.16-1.84s1-1.43,1.48-2.14l1-1.44c1.18-1.71,2.33-3.42,3.49-5.14l1.37-2c2.1-3.11,4.28-6.28,6.39-9.35l.6-.88,5.25-7.7,3.13-4.58q5.56-8.19,11.16-16.37,7-10.23,14-20.46Q511.66,397.22,520,385l4.86-7.12q5.94-8.73,11.89-17.44l.22-.31,16.52-24.25,30.77-45.13q5.55-8.13,11.09-16.27l2.43-3.56,6-8.72,15.35-22.51,2.79-4.09,2.79-4.09,2.1-3.09,2.08-3.06,4.2-6.13q1.54-2.31,3.13-4.62c.35-.52.69-1,1-1.52s.76-1.05,1.13-1.5.84-1,1.23-1.41.68-.71,1.1-1.11.66-.61.95-.84.78-.58,1.17-.86l.35-.24c.76-.53,1.51-1.06,2.25-1.6l2.49-1.77,1.56-1.1c1.7-1.2,3.38-2.39,5-3.59l2.37-1.67,5.72-4.05,5-3.58,5.06-3.59,12.59-8.92,3.58-2.53,20.2-14.31q9.09-6.47,18.19-12.89l12.13-8.6c1.64-1.17,3.3-2.33,5-3.5l4.7-3.33c.65-.47,1.31-.95,2-1.41l.38-.26c.55-.39,1.11-.77,1.63-1.16s.75-.55,1.15-.81A4,4,0,0,1,755,128a1.4,1.4,0,0,1,.35-.1.67.67,0,0,1,.39.08.55.55,0,0,1,.23.38h0a1,1,0,0,1,0,.38,3.67,3.67,0,0,1-.19.56,6.36,6.36,0,0,1-.4.71c-.18.31-.38.6-.57.89l-.44.68c-.51.76-1,1.55-1.51,2.34-.69,1.09-1.39,2.16-2.09,3.24l-4,6.12q-2,3.14-4,6.24l-4,6.15-1.4,2.18Q734,163,730.65,168.23l-5.8,9-2.27,3.52q-2,3.12-4,6.24c-1.34,2.08-2.69,4.16-4,6.25q-8.06,12.48-16.15,25-12.08,18.72-24.2,37.44l-13.41,20.75q-6.74,10.42-13.48,20.86l-21.51,33.28q-4.07,6.27-8.11,12.54l-8,12.42-3.81,5.89-9.63,14.91q-5.38,8.33-10.76,16.64-2.91,4.49-5.81,9l-2.26,3.5q-3,4.69-6,9.37l-.74,1.14q-1.5,2.28-3,4.58c-.46.69-.9,1.38-1.34,2.07l-.18.27c-.29.43-.58.87-.9,1.29s-.8,1-1.16,1.45-.79.91-1.27,1.4-.74.72-1.11,1.07-.64.55-1,.81a14.57,14.57,0,0,1-1.63,1c-.73.39-1.49.76-2.23,1.12l-.26.13c-1.08.53-2.15,1.1-3.22,1.66l-1.17.62c-1.42.75-2.86,1.48-4.29,2.22l-1.22.62q-3.3,1.69-6.6,3.42-4.38,2.26-8.77,4.52l-11,5.71-17.6,9.11q-7.71,4-15.4,8l-6.57,3.4L474,473.73l-.09,0-6.52,3.37L465,478.4c-1,.54-2.05,1.07-3.08,1.6l-1.29.66-2.55,1.3c-.64.35-1.29.7-1.93,1l-.48.24-.47.24-.5.25a1.39,1.39,0,0,1-.36.12ZM755.47,128.38s0,0-.08,0l-.19.06a4.69,4.69,0,0,0-.73.39c-.39.25-.75.51-1.12.79-.53.39-1.09.78-1.65,1.17l-.38.26-2,1.4-4.7,3.34q-2.49,1.74-4.95,3.5l-12.13,8.59-18.19,12.89-20.2,14.32-3.58,2.53c-4.2,3-8.4,5.94-12.59,8.92L668,190.14l-5.05,3.58-5.72,4-2.37,1.68q-2.51,1.8-5,3.57l-1.58,1.12-2.48,1.76c-.75.54-1.5,1.08-2.26,1.61l-.35.24c-.39.27-.79.55-1.15.84s-.56.47-.91.81-.76.75-1.08,1.09a18.29,18.29,0,0,0-1.21,1.39q-.54.66-1.11,1.47c-.36.49-.7,1-1,1.5-1.06,1.55-2.1,3.09-3.14,4.63-1.4,2.05-2.8,4.1-4.2,6.13-.69,1-1.39,2-2.08,3.07l-2.1,3.08c-.92,1.36-1.86,2.73-2.79,4.09l-2.79,4.09-15.35,22.51-5.94,8.72-2.44,3.57L584.7,291l-30.76,45.13-16.53,24.25-.21.31-11.9,17.44-4.86,7.12q-8.37,12.27-16.73,24.56-7,10.21-14,20.47-5.6,8.18-11.16,16.36l-3.13,4.59c-1.75,2.56-3.49,5.13-5.25,7.69l-.6.88c-2.11,3.07-4.29,6.24-6.39,9.35l-1.37,2c-1.15,1.72-2.31,3.43-3.49,5.15l-1,1.43c-.5.71-1,1.43-1.47,2.14s-.81,1.24-1.14,1.81a6.75,6.75,0,0,0-.46.95,3.23,3.23,0,0,0-.12.47.79.79,0,0,0,0,.21h.09a1.68,1.68,0,0,0,.24-.08c.14-.07.3-.15.45-.24l.5-.25.47-.24c.64-.32,1.29-.66,1.92-1l2.56-1.31,1.3-.66,3.07-1.59,2.42-1.26,6.52-3.37.09-.05,6.63-3.43,6.57-3.39q7.69-4,15.4-8,8.81-4.55,17.6-9.11l11-5.69c3-1.51,5.87-3,8.79-4.54l6.6-3.42,1.22-.62c1.43-.73,2.87-1.46,4.29-2.21l1.17-.62c1.07-.57,2.15-1.13,3.22-1.67l.28-.13c.73-.36,1.49-.72,2.21-1.11a12.53,12.53,0,0,0,1.56-1c.32-.24.64-.5.94-.77s.74-.7,1.1-1.06.91-1,1.24-1.37.76-.9,1.14-1.42.6-.85.89-1.27l.17-.26,1.34-2.08q1.47-2.28,3-4.58l.74-1.13q3-4.68,6-9.37l2.26-3.51q2.9-4.48,5.81-9,5.38-8.31,10.76-16.64l9.63-14.91,3.81-5.89,8-12.42q4-6.27,8.11-12.54l21.51-33.29,13.48-20.85,13.41-20.75q12.1-18.72,24.2-37.44,8.09-12.48,16.15-25c1.34-2.09,2.69-4.17,4-6.25s2.7-4.16,4-6.24l2.27-3.52,5.8-9q3.35-5.19,6.72-10.4l1.4-2.17,4-6.15q2-3.11,4-6.24l4-6.13c.7-1.07,1.4-2.14,2.09-3.23.5-.79,1-1.58,1.51-2.34l.45-.69.56-.87a7.27,7.27,0,0,0,.36-.65,3.57,3.57,0,0,0,.16-.46.74.74,0,0,0,0-.2S755.48,128.38,755.47,128.38Z"/></g><g class="cls-4"><path class="cls-8" d="M499.21,498l-.27,0a.83.83,0,0,1-.48-.33.57.57,0,0,1-.08-.13l0-.07a1.18,1.18,0,0,1-.07-.43,1.77,1.77,0,0,1,0-.23h0l0-.17a.19.19,0,0,1,0-.1,7.58,7.58,0,0,1,.23-.91,15.83,15.83,0,0,1,.66-1.5c.11-.24.24-.48.37-.71.31-.54.61-1.05.93-1.57s.65-1,1-1.51l.07-.08L683.37,224c.67-1,1.43-2,2.31-3.09a72.89,72.89,0,0,1,5.22-5.66,26.08,26.08,0,0,1,3-2.46l111.8-79.46a15.29,15.29,0,0,1,1.51-1c.18-.1.37-.18.55-.27l.1,0a1.73,1.73,0,0,1,.32-.11,1.07,1.07,0,0,1,.3-.09,1.6,1.6,0,0,1,.54,0s.07,0,.15,0l.1.05a.36.36,0,0,1,.17.12.43.43,0,0,1,.11.12l.05.08a.19.19,0,0,1,0,.07.54.54,0,0,1,0,.22,1,1,0,0,1,0,.31,2.83,2.83,0,0,1-.16.8,12.27,12.27,0,0,1-.58,1.31c-.31.57-.6,1.07-.9,1.52L618.76,429.73a56.12,56.12,0,0,1-5,6.6,52.35,52.35,0,0,1-4.66,4.74A19.14,19.14,0,0,1,605,444L500.38,497.67a3.84,3.84,0,0,1-.78.31l-.12,0h0Zm-.38-1.38h0l0,.14a.93.93,0,0,0,0,.24.62.62,0,0,0,0,.25l0,.06c.06.08.12.15.2.16a.81.81,0,0,0,.31,0h.08a3.61,3.61,0,0,0,.72-.29L604.8,443.57a18.69,18.69,0,0,0,4-2.87,58.33,58.33,0,0,0,9.59-11.24L807.6,136.18c.29-.45.58-.93.87-1.48a11.86,11.86,0,0,0,.56-1.24,2.53,2.53,0,0,0,.13-.69.74.74,0,0,0,0-.21l0-.06,0-.13,0,0h0l-.08,0a1.16,1.16,0,0,0-.42,0,.86.86,0,0,0-.23.06l-.29.1-.07,0-.52.25a13.32,13.32,0,0,0-1.46.93l-111.8,79.46a25.21,25.21,0,0,0-2.92,2.41,71.93,71.93,0,0,0-5.19,5.62c-.86,1.07-1.61,2.07-2.28,3.05L502,490.58l-.06.08c-.29.45-.63.95-.93,1.46s-.62,1-.92,1.56c-.13.22-.25.45-.36.68a14.28,14.28,0,0,0-.64,1.44C499,496.08,498.9,496.36,498.83,496.66Zm4.44-4a.59.59,0,0,1-.23,0,.56.56,0,0,1-.27-.32,1.09,1.09,0,0,1,0-.43,3.16,3.16,0,0,1,.15-.57,7.24,7.24,0,0,1,.49-1c.34-.59.72-1.19,1.16-1.84s1-1.43,1.47-2.15c.34-.47.67-.95,1-1.43,1.19-1.71,2.34-3.42,3.49-5.14l1.37-2c2.1-3.11,4.29-6.28,6.39-9.35l.61-.88,5.25-7.7,3.12-4.58q5.57-8.19,11.16-16.37l14-20.46q8.37-12.3,16.74-24.56l4.85-7.12q5.94-8.73,11.9-17.44l.21-.31q8.27-12.12,16.53-24.26l30.76-45.12q5.55-8.13,11.1-16.27l2.43-3.56c2-2.91,4-5.81,5.94-8.72l15.36-22.51c.92-1.36,1.86-2.73,2.79-4.09l2.79-4.09,2.09-3.09,2.09-3.06c1.4-2,2.79-4.09,4.19-6.14l3.13-4.61c.35-.52.7-1,1.06-1.52s.76-1,1.13-1.5.84-1,1.23-1.41.68-.71,1.1-1.12a12.18,12.18,0,0,1,1-.83c.36-.3.77-.58,1.17-.86l.35-.24c.76-.53,1.5-1.06,2.25-1.6s1.66-1.19,2.49-1.77l1.56-1.1c1.7-1.2,3.38-2.39,5.05-3.59L706,206.2c1.9-1.36,3.81-2.7,5.72-4l5-3.58,5-3.59,12.6-8.92,3.57-2.53q10.1-7.17,20.21-14.31,9.09-6.47,18.19-12.9l12.13-8.59q2.46-1.75,5-3.5l4.69-3.34,2-1.4.39-.27c.55-.38,1.1-.76,1.63-1.15s.74-.55,1.15-.82a4.15,4.15,0,0,1,.81-.42,1.22,1.22,0,0,1,.34-.1.7.7,0,0,1,.4.08.59.59,0,0,1,.23.38,1,1,0,0,1,0,.38l-.25,0,.24.06a3.13,3.13,0,0,1-.19.54,6.24,6.24,0,0,1-.39.71c-.19.31-.38.6-.57.89s-.3.45-.44.68c-.52.76-1,1.55-1.51,2.34-.69,1.09-1.39,2.16-2.09,3.23l-4,6.13-4,6.24-4,6.15-1.41,2.18-6.71,10.39-5.8,9-2.27,3.52-4,6.24-4,6.25q-8.05,12.48-16.14,25l-24.2,37.44-13.41,20.75L696.34,306l-21.52,33.29-8.1,12.54-8,12.42-3.81,5.89q-4.83,7.45-9.63,14.91l-10.76,16.64q-2.91,4.49-5.81,9l-2.26,3.51q-3,4.68-6,9.37l-.74,1.14q-1.5,2.28-3,4.58c-.46.69-.9,1.38-1.34,2.07l-.18.27c-.29.43-.59.87-.9,1.29s-.8,1-1.16,1.45-.79.91-1.27,1.4-.74.72-1.12,1.07-.64.55-1,.81a14.57,14.57,0,0,1-1.63,1c-.73.39-1.49.76-2.23,1.12l-.27.13c-1.07.53-2.14,1.1-3.21,1.66l-1.17.62c-1.43.75-2.86,1.48-4.3,2.22l-1.21.62-6.61,3.41c-2.91,1.52-5.84,3-8.76,4.53l-11,5.71q-8.77,4.56-17.59,9.11-7.71,4-15.4,8l-6.57,3.4-6.64,3.42-.08.05L516.49,486l-2.42,1.26-3.08,1.6-1.29.66-2.56,1.3c-.63.35-1.29.7-1.93,1-.15.09-.31.17-.47.25l-.48.24c-.16.09-.33.18-.49.25a1.39,1.39,0,0,1-.36.12ZM804.46,137.23l-.2.06a3.9,3.9,0,0,0-.72.39c-.4.25-.75.51-1.12.79-.53.39-1.09.78-1.65,1.17l-.38.26-2,1.4-4.7,3.34-4.94,3.49-12.13,8.6-18.2,12.89-20.2,14.32-3.57,2.53q-6.31,4.46-12.6,8.92L717,199l-5,3.58c-1.92,1.34-3.82,2.69-5.73,4l-2.36,1.68q-2.5,1.8-5,3.57L697.27,213l-2.48,1.76c-.75.54-1.49,1.08-2.26,1.61l-.35.24c-.38.27-.78.55-1.14.84s-.56.47-.91.81-.76.75-1.09,1.09-.77.85-1.2,1.39-.74.93-1.11,1.47-.7,1-1.05,1.5q-1.59,2.32-3.13,4.63c-1.4,2.05-2.8,4.1-4.2,6.13l-2.08,3.06-2.1,3.09-2.79,4.09-2.79,4.09-15.36,22.51q-3,4.37-5.94,8.72l-2.43,3.56q-5.54,8.15-11.1,16.27L603,345l-16.52,24.25-.22.31q-6,8.72-11.89,17.44l-4.86,7.12q-8.37,12.27-16.74,24.56L538.82,439.1q-5.6,8.19-11.16,16.37l-3.13,4.59-5.25,7.69-.6.88c-2.11,3.07-4.29,6.24-6.39,9.35l-1.37,2c-1.16,1.72-2.31,3.43-3.49,5.15l-1,1.43c-.49.71-1,1.42-1.47,2.14s-.8,1.23-1.14,1.81a7.88,7.88,0,0,0-.45.95,2.31,2.31,0,0,0-.12.47.52.52,0,0,0,0,.21h.09a1.27,1.27,0,0,0,.23-.08l.46-.24.49-.25.48-.24c.64-.32,1.28-.66,1.92-1l2.56-1.31,1.29-.66c1-.52,2-1.06,3.08-1.59l2.42-1.26,6.52-3.38.08,0,6.64-3.43,6.57-3.4,15.4-8q8.81-4.54,17.59-9.11l11-5.69c3-1.52,5.88-3,8.79-4.54,2.2-1.15,4.41-2.28,6.61-3.42l1.22-.62c1.43-.73,2.86-1.46,4.29-2.22l1.17-.61c1.07-.57,2.14-1.14,3.22-1.67l.27-.13c.73-.36,1.49-.72,2.22-1.12a13.34,13.34,0,0,0,1.56-.95,11.51,11.51,0,0,0,.93-.77c.37-.34.75-.7,1.1-1.06s.92-1,1.25-1.37.76-.9,1.14-1.42.6-.85.88-1.27l.18-.26c.44-.69.88-1.38,1.34-2.08,1-1.53,2-3,3-4.58l.74-1.13q3-4.68,6-9.38l2.26-3.5q2.89-4.49,5.81-9l10.76-16.64q4.8-7.47,9.63-14.91l3.81-5.89,8-12.43,8.1-12.53,21.52-33.29q6.74-10.42,13.48-20.86l13.41-20.74L747,226.73q8.09-12.48,16.14-25l4-6.25,4-6.24,2.27-3.52q2.89-4.48,5.8-9c2.23-3.46,4.47-6.94,6.71-10.4l1.41-2.18,4-6.14,4-6.24,4-6.13c.7-1.07,1.4-2.14,2.09-3.23.5-.79,1-1.58,1.51-2.35l.44-.68q.29-.42.57-.87a7.37,7.37,0,0,0,.36-.66,3,3,0,0,0,.16-.45v0a.89.89,0,0,0,0-.19S804.49,137.23,804.46,137.23Z"/><path class="cls-9" d="M510.92,507.45h-.09a1,1,0,0,1-.51-.18l-11.74-9.42v-.58l.39.24.08,0a.62.62,0,0,0,.31,0h.08a3.87,3.87,0,0,0,.72-.29L604.8,443.57a19,19,0,0,0,4-2.87,58.33,58.33,0,0,0,9.59-11.24L807.6,136.18c.29-.45.58-.93.87-1.48a11.86,11.86,0,0,0,.56-1.24,2.53,2.53,0,0,0,.13-.69.74.74,0,0,0,0-.21l0-.06,0-.13-.12-.06,0-.11v-.58l.42.39,10.65,10.08a1.37,1.37,0,0,1,.18,1.34,5.87,5.87,0,0,1-.58,1.44,18.13,18.13,0,0,1-.95,1.7L631.85,440.7a53.43,53.43,0,0,1-5,6.61,52,52,0,0,1-4.66,4.72,18.47,18.47,0,0,1-4.08,2.9l-106,52.16a4.22,4.22,0,0,1-.67.26A1.67,1.67,0,0,1,510.92,507.45ZM499.56,498l11.07,8.87a.57.57,0,0,0,.25.09,1.17,1.17,0,0,0,.44-.08,3.88,3.88,0,0,0,.58-.23l106-52.16a18.21,18.21,0,0,0,4-2.83,52.33,52.33,0,0,0,4.62-4.67,54.1,54.1,0,0,0,4.95-6.54L818.3,146.3c.36-.58.68-1.15.93-1.65a5.43,5.43,0,0,0,.53-1.33c.11-.46.1-.74,0-.87l-10.07-9.53a2.45,2.45,0,0,1-.15.7,12.27,12.27,0,0,1-.58,1.31c-.31.57-.6,1.07-.9,1.52L618.76,429.73a55.31,55.31,0,0,1-5,6.6,52.35,52.35,0,0,1-4.66,4.74A19.14,19.14,0,0,1,605,444L500.38,497.67a4.09,4.09,0,0,1-.78.31Z"/><path class="cls-10" d="M503.27,492.68a.59.59,0,0,1-.23,0,.56.56,0,0,1-.27-.32,1.09,1.09,0,0,1,0-.43,3.16,3.16,0,0,1,.15-.57,7.24,7.24,0,0,1,.49-1c.34-.59.72-1.19,1.16-1.84s1-1.43,1.47-2.15c.34-.47.67-.95,1-1.43,1.19-1.71,2.34-3.42,3.49-5.14l1.37-2c2.1-3.11,4.29-6.28,6.39-9.35l.61-.88,5.25-7.7,3.12-4.58q5.57-8.19,11.16-16.37l14-20.46q8.37-12.3,16.74-24.56l4.85-7.12q5.94-8.73,11.9-17.44l.21-.31q8.27-12.12,16.53-24.26l30.76-45.12q5.55-8.13,11.1-16.27l2.43-3.56c2-2.91,4-5.81,5.94-8.72l15.36-22.51c.92-1.36,1.86-2.73,2.79-4.09l2.79-4.09,2.09-3.09,2.09-3.06c1.4-2,2.79-4.09,4.19-6.14l3.13-4.61c.35-.52.7-1,1.06-1.52s.76-1,1.13-1.5.84-1,1.23-1.41.68-.71,1.1-1.12a12.18,12.18,0,0,1,1-.83c.36-.3.77-.58,1.17-.86l.35-.24c.76-.53,1.5-1.06,2.25-1.6s1.66-1.19,2.49-1.77l1.56-1.1c1.7-1.2,3.38-2.39,5.05-3.59L706,206.2c1.9-1.36,3.81-2.7,5.72-4l5-3.58,5-3.59,12.6-8.92,3.57-2.53q10.1-7.17,20.21-14.31,9.09-6.47,18.19-12.9l12.13-8.59q2.46-1.75,5-3.5l4.69-3.34,2-1.4.39-.27c.55-.38,1.1-.76,1.63-1.15s.74-.55,1.15-.82a4.15,4.15,0,0,1,.81-.42,1.22,1.22,0,0,1,.34-.1.7.7,0,0,1,.4.08.59.59,0,0,1,.23.38h0a1,1,0,0,1,0,.38,3.65,3.65,0,0,1-.2.56,6.24,6.24,0,0,1-.39.71c-.19.31-.38.6-.57.89s-.3.45-.44.68c-.52.76-1,1.55-1.51,2.34-.69,1.09-1.39,2.16-2.09,3.23l-4,6.13-4,6.24-4,6.15-1.41,2.18-6.71,10.39-5.8,9-2.27,3.52-4,6.24-4,6.25q-8.05,12.48-16.14,25l-24.2,37.44-13.41,20.75L696.34,306l-21.52,33.29-8.1,12.54-8,12.42-3.81,5.89q-4.83,7.45-9.63,14.91l-10.76,16.64q-2.91,4.49-5.81,9l-2.26,3.51q-3,4.68-6,9.37l-.74,1.14q-1.5,2.28-3,4.58c-.46.69-.9,1.38-1.34,2.07l-.18.27c-.29.43-.59.87-.9,1.29s-.8,1-1.16,1.45-.79.91-1.27,1.4-.74.72-1.12,1.07-.64.55-1,.81a14.57,14.57,0,0,1-1.63,1c-.73.39-1.49.76-2.23,1.12l-.27.13c-1.07.53-2.14,1.1-3.21,1.66l-1.17.62c-1.43.75-2.86,1.48-4.3,2.22l-1.21.62-6.61,3.41c-2.91,1.52-5.84,3-8.76,4.53l-11,5.71q-8.77,4.56-17.59,9.11-7.71,4-15.4,8l-6.57,3.4-6.64,3.42-.08.05L516.49,486l-2.42,1.26-3.08,1.6-1.29.66-2.56,1.3c-.63.35-1.29.7-1.93,1-.15.09-.31.17-.47.25l-.48.24c-.16.09-.33.18-.49.25a1.39,1.39,0,0,1-.36.12ZM804.54,137.22h-.08l-.2.06a3.9,3.9,0,0,0-.72.39c-.4.25-.75.51-1.12.79-.53.39-1.09.78-1.65,1.17l-.38.26-2,1.4-4.7,3.34-4.94,3.49-12.13,8.6-18.2,12.89-20.2,14.32-3.57,2.53q-6.31,4.46-12.6,8.92L717,199l-5,3.58c-1.92,1.34-3.82,2.69-5.73,4l-2.36,1.68q-2.5,1.8-5,3.57L697.27,213l-2.48,1.76c-.75.54-1.49,1.08-2.26,1.61l-.35.24c-.38.27-.78.55-1.14.84s-.56.47-.91.81-.76.75-1.09,1.09-.77.85-1.2,1.39-.74.93-1.11,1.47-.7,1-1.05,1.5q-1.59,2.32-3.13,4.63c-1.4,2.05-2.8,4.1-4.2,6.13l-2.08,3.06-2.1,3.09-2.79,4.09-2.79,4.09-15.36,22.51q-3,4.37-5.94,8.72l-2.43,3.56q-5.54,8.15-11.1,16.27L603,345l-16.52,24.25-.22.31q-6,8.72-11.89,17.44l-4.86,7.12q-8.37,12.27-16.74,24.56L538.82,439.1q-5.6,8.19-11.16,16.37l-3.13,4.59-5.25,7.69-.6.88c-2.11,3.07-4.29,6.24-6.39,9.35l-1.37,2c-1.16,1.72-2.31,3.43-3.49,5.15l-1,1.43c-.49.71-1,1.42-1.47,2.14s-.8,1.23-1.14,1.81a7.88,7.88,0,0,0-.45.95,2.31,2.31,0,0,0-.12.47.52.52,0,0,0,0,.21h.09a1.27,1.27,0,0,0,.23-.08l.46-.24.49-.25.48-.24c.64-.32,1.28-.66,1.92-1l2.56-1.31,1.29-.66c1-.52,2-1.06,3.08-1.59l2.42-1.26,6.52-3.38.08,0,6.64-3.43,6.57-3.4,15.4-8q8.81-4.54,17.59-9.11l11-5.69c3-1.52,5.88-3,8.79-4.54,2.2-1.15,4.41-2.28,6.61-3.42l1.22-.62c1.43-.73,2.86-1.46,4.29-2.22l1.17-.61c1.07-.57,2.14-1.14,3.22-1.67l.27-.13c.73-.36,1.49-.72,2.22-1.12a13.34,13.34,0,0,0,1.56-.95,11.51,11.51,0,0,0,.93-.77c.37-.34.75-.7,1.1-1.06s.92-1,1.25-1.37.76-.9,1.14-1.42.6-.85.88-1.27l.18-.26c.44-.69.88-1.38,1.34-2.08,1-1.53,2-3,3-4.58l.74-1.13q3-4.68,6-9.38l2.26-3.5q2.89-4.49,5.81-9l10.76-16.64q4.8-7.47,9.63-14.91l3.81-5.89,8-12.43,8.1-12.53,21.52-33.29q6.74-10.42,13.48-20.86l13.41-20.74L747,226.73q8.09-12.48,16.14-25l4-6.25,4-6.24,2.27-3.52q2.89-4.48,5.8-9c2.23-3.46,4.47-6.94,6.71-10.4l1.41-2.18,4-6.14,4-6.24,4-6.13c.7-1.07,1.4-2.14,2.09-3.23.5-.79,1-1.58,1.51-2.35l.44-.68q.29-.42.57-.87a7.37,7.37,0,0,0,.36-.66,3,3,0,0,0,.16-.45,1.68,1.68,0,0,0,0-.2Z"/></g><path class="cls-11" d="M724.84,106.58a.85.85,0,0,0,0-.31.33.33,0,0,0-.11-.2.47.47,0,0,0-.24,0,1.15,1.15,0,0,0-.29.08,5,5,0,0,0-.76.4c-.4.26-.76.53-1.13.8-.65.49-1.35,1-2,1.43-.84.59-1.68,1.2-2.52,1.8l-4,2.87-5,3.57-12.13,8.6q-9.09,6.44-18.19,12.89l-20.2,14.31L642,164.23c-3.36,2.4-6.74,4.78-10.1,7.17l-8.09,5.72c-1.67,1.21-3.36,2.4-5.05,3.59l-4,2.86c-.74.54-1.49,1.08-2.25,1.61-.51.36-1,.71-1.51,1.09s-.64.54-.93.82-.73.72-1.09,1.11a18.26,18.26,0,0,0-1.22,1.4c-.39.47-.76,1-1.12,1.48s-.71,1-1.06,1.52q-1.57,2.31-3.12,4.61l-4.2,6.14L594,209.49c-1.86,2.73-3.73,5.46-5.58,8.19-2.33,3.4-4.65,6.82-7,10.23l-8.38,12.28c-2.78,4.1-5.57,8.18-8.37,12.28q-5.57,8.19-11.16,16.37l-14,20.47-16.74,24.55q-8.37,12.3-16.74,24.56L489.38,363q-8.37,12.27-16.74,24.56L458.69,408q-5.6,8.19-11.16,16.37c-2.8,4.09-5.58,8.19-8.38,12.28-2.34,3.4-4.69,6.82-7,10.23-1.62,2.39-3.22,4.78-4.86,7.17-.82,1.19-1.66,2.38-2.47,3.57-.4.6-.79,1.21-1.15,1.83a8,8,0,0,0-.47,1,4.58,4.58,0,0,0-.14.53,1,1,0,0,0,0,.3.36.36,0,0,0,.14.18.48.48,0,0,0,.24,0,1.66,1.66,0,0,0,.29-.1,4.44,4.44,0,0,0,.48-.25l1-.48c.64-.32,1.29-.67,1.92-1l3.85-2c1.84-.94,3.67-1.91,5.5-2.85l6.6-3.42c4.41-2.27,8.81-4.56,13.21-6.83l15.4-8q8.8-4.55,17.6-9.11l11-5.69,8.8-4.54,6.6-3.42c1.84-.94,3.68-1.87,5.51-2.84,1.45-.76,2.92-1.55,4.39-2.28.83-.4,1.67-.81,2.49-1.25a12,12,0,0,0,1.59-1,12.21,12.21,0,0,0,1-.79c.37-.34.75-.7,1.11-1.06s.86-.92,1.26-1.39.79-.94,1.15-1.44.72-1,1.06-1.53c.44-.7.89-1.39,1.34-2.08,1.22-1.91,2.47-3.81,3.72-5.72,2-3.12,4-6.24,6-9.37q4-6.24,8.07-12.48,5.38-8.31,10.76-16.64,6.71-10.41,13.45-20.8,8.07-12.48,16.14-25Q605.44,291.6,616.21,275q13.42-20.82,26.88-41.61,12.12-18.72,24.21-37.44,8.07-12.48,16.14-25c2.69-4.17,5.39-8.32,8.07-12.49s5.37-8.32,8.07-12.48c2.23-3.46,4.48-6.93,6.72-10.39l5.38-8.33q2-3.11,4-6.24,1.69-2.59,3.37-5.21c.9-1.38,1.8-2.75,2.68-4.15.5-.79,1-1.58,1.51-2.34.34-.53.68-1,1-1.56a7.73,7.73,0,0,0,.38-.68A3.34,3.34,0,0,0,724.84,106.58Zm3.09-5.23a1.91,1.91,0,0,1,.36-.13,1,1,0,0,1,.29-.08,1.14,1.14,0,0,1,.45,0h.09l.09,0a.18.18,0,0,1,.11.08.12.12,0,0,1,.07.07s0,0,0,0h0s0,0,0,.06a.21.21,0,0,1,.05.13,1.31,1.31,0,0,1,0,.28,2.7,2.7,0,0,1-.15.76,11.13,11.13,0,0,1-.57,1.28c-.28.51-.57,1-.89,1.49L538.63,398.64a57.15,57.15,0,0,1-5,6.57,54.49,54.49,0,0,1-4.64,4.73,18.9,18.9,0,0,1-4,2.9L420.35,466.49a3.38,3.38,0,0,1-.74.3l-.09,0h0a1,1,0,0,1-.42,0,.52.52,0,0,1-.33-.23s-.05-.1-.08-.14a1,1,0,0,1-.06-.35,1.65,1.65,0,0,1,0-.3s0,0,0-.06,0,0,0,0c.07-.32.14-.62.23-.93a15.83,15.83,0,0,1,.65-1.46c.11-.24.24-.47.36-.7.31-.54.61-1.05.93-1.56s.64-1,1-1.51c0,0,0,0,0,0L603.65,193.16c.72-1.06,1.49-2.08,2.3-3.08a70.89,70.89,0,0,1,5.2-5.63,25.3,25.3,0,0,1,3-2.44l111.8-79.46a12.71,12.71,0,0,1,1.49-.94C727.57,101.51,727.75,101.43,727.93,101.35Z"/><path class="cls-12" d="M740,111.31l-10.65-10.07h0a.12.12,0,0,1,.07.07s0,0,0,0h0s0,0,0,.06a.24.24,0,0,1,.05.13,1.31,1.31,0,0,1,0,.28,2.7,2.7,0,0,1-.15.76,11.13,11.13,0,0,1-.57,1.28c-.28.51-.57,1-.89,1.49L538.63,398.64a56,56,0,0,1-5,6.57,54.49,54.49,0,0,1-4.64,4.73,18.9,18.9,0,0,1-4,2.9L420.35,466.49a3.38,3.38,0,0,1-.74.3l-.09,0h0a.85.85,0,0,1-.42,0,.34.34,0,0,1-.16-.05h0l11.64,9.33a.68.68,0,0,0,.38.14,1.4,1.4,0,0,0,.53-.08,4.12,4.12,0,0,0,.63-.25l106-52.16a18.5,18.5,0,0,0,4-2.86,56.54,56.54,0,0,0,9.61-11.27L738.59,115.48c.33-.54.66-1.12.94-1.67a5.6,5.6,0,0,0,.55-1.39C740.18,112,740.23,111.56,740,111.31Z"/><path class="cls-1" d="M724.88,106.27a.85.85,0,0,1,0,.31,3.34,3.34,0,0,1-.18.5,7.73,7.73,0,0,1-.38.68c-.33.54-.67,1-1,1.56-.51.76-1,1.55-1.51,2.34-.88,1.4-1.78,2.77-2.68,4.15q-1.68,2.61-3.37,5.21-2,3.14-4,6.24l-5.38,8.33c-2.24,3.46-4.49,6.93-6.72,10.39q-4.05,6.24-8.07,12.48c-2.68,4.17-5.38,8.32-8.07,12.49q-8.06,12.48-16.14,25-12.09,18.72-24.21,37.44Q629.67,254.16,616.21,275q-10.77,16.64-21.52,33.28-8.09,12.48-16.14,25-6.74,10.41-13.45,20.8-5.37,8.33-10.76,16.64-4.05,6.24-8.07,12.48c-2,3.13-4,6.25-6,9.37-1.25,1.91-2.5,3.81-3.72,5.72-.45.69-.9,1.38-1.34,2.08-.34.51-.69,1-1.06,1.53s-.75,1-1.15,1.44-.82.94-1.26,1.39-.74.72-1.11,1.06a12.21,12.21,0,0,1-1,.79,12,12,0,0,1-1.59,1c-.82.44-1.66.85-2.49,1.25-1.47.73-2.94,1.52-4.39,2.28-1.83,1-3.67,1.9-5.51,2.84l-6.6,3.42-8.8,4.54-11,5.69q-8.79,4.58-17.6,9.11l-15.4,8c-4.4,2.27-8.8,4.56-13.21,6.83l-6.6,3.42c-1.83.94-3.66,1.91-5.5,2.85l-3.85,2c-.63.34-1.28.69-1.92,1l-1,.48a4.44,4.44,0,0,1-.48.25,1.66,1.66,0,0,1-.29.1.48.48,0,0,1-.24,0,.36.36,0,0,1-.14-.18,1,1,0,0,1,0-.3,4.58,4.58,0,0,1,.14-.53,8,8,0,0,1,.47-1c.36-.62.75-1.23,1.15-1.83.81-1.19,1.65-2.38,2.47-3.57,1.64-2.39,3.24-4.78,4.86-7.17,2.3-3.41,4.65-6.83,7-10.23,2.8-4.09,5.58-8.19,8.38-12.28q5.57-8.19,11.16-16.37l13.95-20.46Q481,375.25,489.38,363l16.75-24.57q8.37-12.27,16.74-24.56l16.74-24.55,14-20.47q5.58-8.19,11.16-16.37c2.8-4.1,5.59-8.18,8.37-12.28l8.38-12.28c2.33-3.41,4.65-6.83,7-10.23,1.85-2.73,3.72-5.46,5.58-8.19l4.18-6.14,4.2-6.14q1.55-2.29,3.12-4.61c.35-.51.7-1,1.06-1.52s.73-1,1.12-1.48a18.26,18.26,0,0,1,1.22-1.4c.36-.39.72-.75,1.09-1.11s.6-.55.93-.82,1-.73,1.51-1.09c.76-.53,1.51-1.07,2.25-1.61l4-2.86c1.69-1.19,3.38-2.38,5.05-3.59l8.09-5.72c3.36-2.39,6.74-4.77,10.1-7.17l16.18-11.45,20.2-14.31q9.09-6.47,18.19-12.89l12.13-8.6,5-3.57,4-2.87c.84-.6,1.68-1.21,2.52-1.8.68-.47,1.38-.94,2-1.43.37-.27.73-.54,1.13-.8a5,5,0,0,1,.76-.4,1.15,1.15,0,0,1,.29-.08.47.47,0,0,1,.24,0A.33.33,0,0,1,724.88,106.27Z"/><g class="cls-13"><circle class="cls-14" cx="656.29" cy="227.79" r="51.39"/><circle class="cls-15" cx="540.49" cy="392.57" r="42.22"/></g><circle class="cls-16" cx="503.23" cy="263.31" r="61.89" transform="translate(-38.8 432.96) rotate(-45)"/><circle class="cls-17" cx="338.76" cy="195.14" r="18.9"/><circle class="cls-18" cx="434.29" cy="128.39" r="30.67"/><circle class="cls-19" cx="434.29" cy="295.97" r="19.38"/><circle class="cls-20" cx="588.7" cy="149.89" r="9.17" transform="translate(307.56 688.41) rotate(-76.72)"/><path class="cls-21" d="M473.7,409.58l-.24,0-206-33.49a1.51,1.51,0,0,1-1.24-1.72,1.49,1.49,0,0,1,1.72-1.24l206,33.49a1.5,1.5,0,0,1-.24,3Z"/><path class="cls-22" d="M428.57,356.79l-.24,0-206-33.49a1.51,1.51,0,0,1-1.24-1.72,1.49,1.49,0,0,1,1.72-1.24l206,33.49a1.5,1.5,0,0,1-.24,3Z"/><path class="cls-23" d="M550.07,328.51a1.56,1.56,0,0,1-.82-.24L398.82,230.11a1.5,1.5,0,0,1,1.64-2.51l150.43,98.16a1.49,1.49,0,0,1,.44,2.07A1.51,1.51,0,0,1,550.07,328.51Z"/><path class="cls-24" d="M597.87,236.78a1.49,1.49,0,0,1-1.21-.61L545,165.43a1.5,1.5,0,1,1,2.43-1.77l51.65,70.74a1.49,1.49,0,0,1-.33,2.09A1.45,1.45,0,0,1,597.87,236.78Z"/><path class="cls-25" d="M579.26,177.6a1.5,1.5,0,0,1-1.21-.62L526.4,106.24a1.5,1.5,0,0,1,2.42-1.77l51.65,70.74a1.5,1.5,0,0,1-.32,2.1A1.55,1.55,0,0,1,579.26,177.6Z"/><path class="cls-26" d="M667.33,160.56a1.51,1.51,0,0,1-1.47-1.2L642,42.72a1.5,1.5,0,1,1,2.93-.6L668.8,158.76a1.5,1.5,0,0,1-1.17,1.77A1.53,1.53,0,0,1,667.33,160.56Z"/><path class="cls-27" d="M509.19,173.59a1.52,1.52,0,0,1-1-.39L402.61,76.7a1.5,1.5,0,1,1,2-2.21L510.2,171a1.5,1.5,0,0,1,.09,2.12A1.46,1.46,0,0,1,509.19,173.59Z"/><path class="cls-28" d="M573.07,279.66a1.49,1.49,0,0,1-1-.39L466.49,182.78a1.5,1.5,0,0,1,2-2.22l105.57,96.5a1.49,1.49,0,0,1-1,2.6Z"/><path class="cls-29" d="M364.93,264.59a1.47,1.47,0,0,1-.58-.12L285.66,231.3a1.5,1.5,0,1,1,1.17-2.77l78.68,33.18a1.5,1.5,0,0,1-.58,2.88Z"/><path class="cls-30" d="M621,160.56a1.49,1.49,0,0,1-1.46-1.17l-6.94-31.17a1.5,1.5,0,1,1,2.92-.65l7,31.16a1.5,1.5,0,0,1-1.14,1.79A1.24,1.24,0,0,1,621,160.56Z"/><path class="cls-31" d="M445.16,207.47a1.53,1.53,0,0,1-.82-.24L256.11,85.34a1.5,1.5,0,0,1,1.63-2.52L446,204.71a1.49,1.49,0,0,1,.45,2.07A1.52,1.52,0,0,1,445.16,207.47Z"/><path class="cls-32" d="M437.19,363.52a6.73,6.73,0,1,1,6.72-6.73A6.74,6.74,0,0,1,437.19,363.52Zm0-11.46a4.73,4.73,0,1,0,4.72,4.73A4.73,4.73,0,0,0,437.19,352.06Z"/><path class="cls-32" d="M410.44,224.19a3.83,3.83,0,1,1,3.83-3.82A3.82,3.82,0,0,1,410.44,224.19Zm0-5.65a1.83,1.83,0,1,0,1.83,1.83A1.83,1.83,0,0,0,410.44,218.54Z"/><path class="cls-32" d="M529.76,183.46a12,12,0,1,1,12-12A12,12,0,0,1,529.76,183.46Zm0-21.9a9.95,9.95,0,1,0,10,9.95A10,10,0,0,0,529.76,161.56Z"/><path class="cls-32" d="M402.12,434.14a5,5,0,1,1,5-5A5,5,0,0,1,402.12,434.14Zm0-7.95a3,3,0,1,0,3,3A3,3,0,0,0,402.12,426.19Z"/><path class="cls-32" d="M385.76,105.8a8.08,8.08,0,1,1,8.07-8.08A8.09,8.09,0,0,1,385.76,105.8Zm0-14.16a6.08,6.08,0,1,0,6.07,6.08A6.09,6.09,0,0,0,385.76,91.64Z"/><path class="cls-32" d="M622.54,93.65a6,6,0,1,1,6-6A6,6,0,0,1,622.54,93.65Zm0-9.94a4,4,0,1,0,4,4A4,4,0,0,0,622.54,83.71Z"/><path class="cls-32" d="M266.23,196.25a9.83,9.83,0,1,1,9.82-9.83A9.84,9.84,0,0,1,266.23,196.25Zm0-17.65a7.83,7.83,0,1,0,7.82,7.82A7.83,7.83,0,0,0,266.23,178.6Z"/><path class="cls-32" d="M234.56,361.46a4.67,4.67,0,1,1,4.67-4.67A4.67,4.67,0,0,1,234.56,361.46Zm0-7.34a2.67,2.67,0,1,0,2.67,2.67A2.68,2.68,0,0,0,234.56,354.12Z"/></g></g></g></svg>