<svg xmlns="http://www.w3.org/2000/svg" viewBox="0 0 52.77 120.69"><defs><style>.cls-1{opacity:0.7;}.cls-2{fill:#181818;}.cls-10,.cls-11,.cls-12,.cls-13,.cls-14,.cls-15,.cls-16,.cls-17,.cls-18,.cls-19,.cls-2,.cls-20,.cls-21,.cls-22,.cls-23,.cls-24,.cls-25,.cls-26,.cls-27,.cls-28,.cls-29,.cls-3,.cls-30,.cls-31,.cls-32,.cls-33,.cls-34,.cls-35,.cls-4,.cls-5,.cls-6,.cls-7,.cls-8,.cls-9{fill-rule:evenodd;}.cls-3{fill:#212222;}.cls-4{fill:#111;}.cls-5{fill:#1c1c1c;}.cls-6{fill:#2a2a2a;}.cls-7{fill:#282828;}.cls-8{fill:#303030;}.cls-9{fill:#899090;}.cls-10{fill:#6f6d6d;}.cls-11{fill:#474848;}.cls-12{fill:#4b4d4d;}.cls-13{fill:#484848;}.cls-14{fill:#686565;}.cls-15{fill:#2a2626;}.cls-16{fill:#7b7c7c;}.cls-17{fill:#2e2e2e;}.cls-18{fill:#0a0a0a;}.cls-19{fill:#232323;}.cls-20{fill:#1d1e1e;}.cls-21{fill:#242424;}.cls-22{fill:#1d1d1d;}.cls-23{fill:#272727;}.cls-24{fill:#3d3e3e;}.cls-25{fill:#0c0c0c;}.cls-26{fill:#333;}.cls-27{fill:#333131;}.cls-28{fill:#3c3c3c;}.cls-29{fill:#4a4b4b;}.cls-30{fill:#464646;}.cls-31{fill:#646565;}.cls-32{fill:#2f3030;}.cls-33{fill:#656565;}.cls-34{fill:#c6bbbb;}.cls-35{fill:#3b3c3c;}</style></defs><title>1</title><g id="Layer_2" data-name="Layer 2"><g id="Objects"><g class="cls-1"><path class="cls-2" d="M52.52,7l-.09.09.07.11c-.49,1.32-.56,2.76-1.27,4v0c-.12.15-.24.31-.37.46-.44.58-1.14.8-1.82,1.37a1.85,1.85,0,0,1,.61,2.81,16.44,16.44,0,0,1-1.24,2.44c-1.22,1.52-2.44,3-1.19,5.12.12.21,0,.55-.15.81a3.52,3.52,0,0,0-.24.78,3.47,3.47,0,0,0,.37,1.82,1.32,1.32,0,0,1,0,.56c-.11.32-.34.62-.17,1a1.26,1.26,0,0,1,.18.48l-.06.25L47,29.3c-.32.28-.79.36-1.05.74l-.3.45a6.17,6.17,0,0,1-.83,2.36c-1.58,2.87-1.67,5.7.28,8.47a7,7,0,0,1,.55,1.36,3.27,3.27,0,0,1,.18,2.16,5.13,5.13,0,0,1-.12.77,1.22,1.22,0,0,1-.24.43c-.36.25.18.29.12.48a1.38,1.38,0,0,1,0,.78,3.23,3.23,0,0,1-.42.72,2,2,0,0,1-.67.54c-1.58.56-3.15,1.2-5,.62.45,1.82.92,3.67.17,5.21-.48,1-1,1.7-.5,2.74s-.34,1.06-1,1.23c-.12,0-.23-.07-.35-.08a2.32,2.32,0,0,0,.3.22c.11,1.66.68,3.33-.25,4.93a5.07,5.07,0,0,1-.72.49c-.25.24-.61.52-.61.83,0,.77-1.5.54-1,1.72S34.56,68,34.44,69s.29,1.93.25,3c0,.77,0,1.45-.62,1.85-.76.51-1.09-.34-1.49-.75-1.19-1.27-3.06-.61-4.36-1.57-.07-.19.21-.28.14-.48-.17.07-.05.31-.21.38-.75,1.2.43.69.72.72.53.06,1,.07,1.07.73A1.24,1.24,0,0,1,29.3,74a2.09,2.09,0,0,1-2.56,0A2.32,2.32,0,0,1,26,71c.94-1.66.29-3.33.54-5,0-.91,0-1.81,0-2.71a1,1,0,0,1,.12-.56,2.51,2.51,0,0,0,.48-1.3,3.43,3.43,0,0,1,.24-.83C28,58.8,29,57.08,29,55.05a2.07,2.07,0,0,1,.48-1.38c1.28-1.32.67-2.71.12-4a2.83,2.83,0,0,1,.08-2.9c.64-1.14,1.45-2.44.92-4-.09-.25-.2,0-.06-.17,1.37-1.21,1.77-3,2.23-4.46.65,0,.27-.46.41-.21,0,.08,0,.13-.15.14-.49.05-1.39-.34-1.28.52.27,2.14-1.46,2.66-2.69,3.54a29.53,29.53,0,0,0-2.3,2.32c-1.72,1.55-2.76,3.71-4.86,4.92a3,3,0,0,0-1.8,2.94c.12,1.48-1.73,1.89-2.24,3.12s-2.55.76-3.06,2.21c0,.19,0,.38,0,.57,0,1.31-.12,2.58-1.56,3.18-.93.38-.61,1.33-1,2a.94.94,0,0,1-.59.12,4.49,4.49,0,0,1-2.36-.7h0a.81.81,0,0,1-.12-.5A11.7,11.7,0,0,0,9.07,61c2.09-3,3.53-6.37,5.63-9.4a21.2,21.2,0,0,0,2.77-5.41A3.38,3.38,0,0,1,20,44.36c.85-.1,1.64-.38,2.46-.54.2.21.29-.37.17-.11,0,0-.05,0-.13,0-1.09-.47-.6-1-.1-1.6a14.85,14.85,0,0,1,5.07-3.79,10.32,10.32,0,0,0,1.23-.79c.1-.08.24,0,.36,0a1.68,1.68,0,0,0-.29-.24c-.73-1.33.25-1.72,1.15-2.18s2.45-.78,1.3-2.51c-.32-.49.38-1,.72-1.41a4.38,4.38,0,0,0,1.08-4.27c-.36-1.2.09-1.94,1.43-1.88a12.15,12.15,0,0,0,2.83-.66.67.67,0,0,1,.3,0,.67.67,0,0,0-.38,0,4.57,4.57,0,0,1-1.87.11c-1.24-.23-1.57-.81-.52-1.76.44,0,.84.52,1.31.1a.79.79,0,0,1-1-.09c0-1.45,1.15-2.59,1.13-4.09,0-.76.35-1.3-.36-2.2-.82-1.05.87-.85,1.44-1.24.26,0-.28-.37-.18-.11s0,.19-.08.19c-1.76,0-1.05-2.08-2.25-2.75-.37-.21,1.54-1.17,3.06-.4-.82-1.14-.84-1.19-2-.61s-1.88.8-2.18-.71c-.1-.5-.64-.51-.85-.87a1.76,1.76,0,0,1,.73-1.91l0,0c.06-.3.38-.34.54-.55L34.43,7c1.06-.7,1.51-2.43,3.27-2l0-.05c.49.29.09.92.48,1.25h0c.26.22.17.61.43.83l0,0a1.72,1.72,0,0,0,.4.36l.06,0c.17.29.58.18.77.44h0a2.78,2.78,0,0,1,.43.41h0c.15.14.33.26.37.49l0,0c.36.18.28.59.46.86h0c.57.93-.26,1.83,0,2.68.37-1.36,1.5-2.47,1.84-3.95l0,.05a.83.83,0,0,1,.4-.5h0c.22-.25.14-.66.46-.85l0,0c.2-.27.1-.69.48-.85l0,0c.5-.83.68-1.81,1.23-2.61v0c.21-.26.15-.65.42-.88h0c.11-.12.22-.25.32-.38a8.63,8.63,0,0,0,.41-.94A2.77,2.77,0,0,1,47,1.17c.7-.13,1.4-.65,2.12-.06l0,.06a2.51,2.51,0,0,0,1.08.57,1.09,1.09,0,0,1,.45.24,3.19,3.19,0,0,1,.33.4c0,.09,0,.17,0,.24.18,0-.51.5.12.16a1.43,1.43,0,0,1,.33-.15.48.48,0,0,1,.42.27c.28.85-.4,1.77.21,2.58a.94.94,0,0,1,.41.33l0,0A.85.85,0,0,1,52.52,7Z"/><path class="cls-3" d="M36.89,63.31h.84c1.35-.63.62-2.83,2.41-3.2.3-.06-.1-.59-.2-.91-.66-2.12-.08-3.4,1.93-4.26.26-.11.57-.13.59-.48s-.31-.5-.64-.66c-1.25-.64-1.53-1.87-.45-2.28,1.52-.58,2.47-1.72,3.67-2.64a2,2,0,0,1,.43.49,8.51,8.51,0,0,1,.35,4.36,3.27,3.27,0,0,1-1,1.66c-.39.34-.37.67-.07,1.09s.59,1.18.27,1.35c-1.82,1-.63,2.21-.46,3.37.29,2.11-.3,3.15-2.19,3.94,1.09,2.3,1,2.49-1.42,3.43-.47.18-.9.43-1,1-.3,2.92-1.53,5.71-1.07,8.75a3.33,3.33,0,0,0,.81,1.61c.55.93,1.4,1.71,1.47,2.88a17.7,17.7,0,0,1-3.33,5c.81.53,2.27.72,1.76,2.13s.43,3.89-2.22,4.44a1.61,1.61,0,0,0-1.39,1.64c.21,1.52-1,3-.16,4.48a.82.82,0,0,1,0,.82c-1.63,1.87-.94,3.57.34,5.24.11.15,0,.41,0,.61-.66.87-1.76,1.13-2.57,1.8-.57.47-1,.13-1.38-.4a2,2,0,0,1-.81-.94c0,.64.65.7.92,1.08-.34,1.86-1.81.94-2.65.88-2.28-.17-2.26-.3-2,2a2.7,2.7,0,0,1-.1,1.66c-1.1.5-1.13-.39-1.35-1a4.23,4.23,0,0,1-.28-.85l.06-.12-.09-.09c-.34-.39-.19-1-.57-1.36-.23-.68.12-1.42-.26-2.08l0,0c-.58-.65,0-1.54-.44-2.22.11-.11.1-.2,0-.29-.49-1.47-.1-3-.23-4.47a5.22,5.22,0,0,1,1.37-3.19c.87-.91.8-2.21.87-3.4,0-.42,0-.91-.72-.55-.48.25-1,.35-1.16-.35s-.06-1.29.53-1.44c2.42-.6,3.2-2.74,4.42-4.48.93.15.78.88.66,1.46a5.31,5.31,0,0,0,0,1.9c.07-.31-.14-.71.05-1.08a2,2,0,0,1,1.83-1.15c-.38-.41-.8-.8-.65-1.45s1.35-.83,1.22-1.8a1.55,1.55,0,0,1,.22-.55c.73-.69,1.25-1.79,2.6-1.29.28.1.56-.15.64-.43.41-1.48,1.82-2.76.81-4.54A2.68,2.68,0,0,1,36.84,76c.24-.58.23-1.12-.49-1.39-1.76-.67-.73-1.59,0-2.15a1.71,1.71,0,0,0,.8-1.94,5.24,5.24,0,0,1,.16-3.29C37.79,65.91,36.93,64.63,36.89,63.31Z"/><path class="cls-4" d="M35.19,22.67c-.36.25-.64.59-.48,1s.58.2.9.24c.71.1,1.52-.27,2.12.43h0c-1.18.59-2.18,1.63-3.77,1-.58-.23-.76.46-.53,1,1.11,2.51-.2,4.25-1.84,5.91,0,.47.42.43.65.64.43.41,1,.66-.09,1.29a13.5,13.5,0,0,1-2.26,1.4c-1.21.41-1.14,1-.63,1.87h0c-.69.58-.93,1.86-2.3,1.34-.35-.14-.57.29-.79.57-.46.62-.57,1.74-1.84,1.26-.15,0-.62.39-.73.68a2.51,2.51,0,0,1-1.44,1.56.72.72,0,0,0,1,.4c.35-.1.54,0,.54.38s-.15.36-.41.36c-1.15,0-2,1.27-3.31.74-.23-.09-1,.14-.91.58s0,.61-.4.54-.9-.38-1,.27c-.08.47.63.51.78,1.07-1.85.78-2.54,2.46-2.91,4.29-.13.61-.07,1.13-.91,1-.11,0-.24.13-.36.19-.85.39.05,1.48-.68,1.82a1.42,1.42,0,0,0-1,1.49A1.53,1.53,0,0,1,12,57.52c-1.33.9-1.7,2.49-2.63,3.68-1.45.45-2-.71-2.58-1.57s.16-1.44.77-1.93c.91-.71,1.06-2,2.13-2.68C8.71,55,8,54.86,8,53.83a1,1,0,0,1,1.37-.94c1.09.2,1.08-.81,1.85-1.4,0,0-.63-.15-.42,0s0,.07-.09.13c-1.12.59-1.69.06-1.46-1a21,21,0,0,1,.45-2.23c.06-.21.25-.34.39-.5-2.86-1.52.51-2,.46-2.94-.65.38-1,1.44-2.07,1.34-.21-.28-.26-.54.07-.76h0c.8-1.32,1.29-2.86,2.63-3.81q.21.09.27-.12c.39-.48.32-1.24,1-1.57l0,0A8.14,8.14,0,0,1,14.14,38l0,0a11,11,0,0,1,1.71-3l0,0C16.6,33.9,17,32.53,18,31.51a1.14,1.14,0,0,1,.22-.52c1.3-1,1.37-2.93,3-3.65h0c.31-.44.24-1.35,1.2-1,.17,2-1.1,3.28-2.15,4.67a8,8,0,0,0-1.5,1.89c.56.58,1.65.59,2,1.47,0,.35,0,.73.51.38a14.76,14.76,0,0,1,2.11.15c.57.11,1.65,0,.84,1.14-.18.26-.12.21.06.13.42-.19,1,.09,1.31-.48.9-1.65,3-2.62,2.81-4.88,0-.19.21-.38.41-.45,2.67-.92,2.57-3.34,2.2-5.25-.3-1.48.54-2,1-2.9l.37-.44c1-1.71-.1-2.94-1-4.18-.69-1-1.2-1.91.12-3-.8.36-.9,1.42-1.84,1.32a.71.71,0,0,1-.24-.79,2.33,2.33,0,0,1,.63-1h0c.39-.32,0-1,.51-1.23a.24.24,0,0,0,.32-.15c.3-.13.16-.6.53-.67l0,0c.82-.55.67-1.72,1.47-2.28a8.1,8.1,0,0,1,.8-.24c.77-.15,1.14,0,.69.85-.19.32-.38.62,0,.9a.71.71,0,0,0,.79,0c.74-.4,1.7-.57,1.66-1.84.86.66.68,2.14,2.08,1.91.14,0,.29.35.09.5-.36.27-.52.93-1.15.71a2,2,0,0,1-.67-.5c-1-1-1.54-.37-2.06.52.65.28,2.13-.14,1.19,1.43a.45.45,0,0,0,.24.69c.58.25.42-.3.56-.55a.4.4,0,0,1,.32-.2c.29,0,.24.29.24.49,0,1.14-1.2.78-1.71,1.46.25.58,1.08-.24,1.26.39A2.07,2.07,0,0,1,37,17.86a2.66,2.66,0,0,0-.29,1A5.05,5.05,0,0,1,35.19,22.67Z"/><path class="cls-5" d="M36.89,63.31a3.82,3.82,0,0,1,1,4.18,7.39,7.39,0,0,0,0,4.14.59.59,0,0,1-.52.75c-.84.17-1.15.83-1.61,1.62.68.06,1.48-.3,1.84.49a1.52,1.52,0,0,1-.26,1.76,1,1,0,0,0,0,1.34c.68.94.18,2.27,1,3.14,0,.06,0,.37-.09.37-1.75,0-1,1.65-1.56,2.44-.33.47-.62.93-1.31.31-.38-.34-1-.52-1.28.36-.1.31-.66.47-1,.69a.55.55,0,0,0-.37-.18.55.55,0,0,1,.37.18c.12.54.25,1.07.38,1.59-.42.58-1.41-.32-1.57.64-.19,1.21,1.12.84,1.75,1.35-3.59.84-2.79,1-3.34,3.52-.25-1.57-.78-2.76-.27-4.07,0-.1-.22-.32-.34-.49-1.44,0-2.78,0-2.39-2.2.21-1.16-1.1-1.63-1.91-2.27a1.56,1.56,0,0,1-.2-.56,4.16,4.16,0,0,1-.13-.59c0-.2,0-.4,0-.6.17-1.15.61-1.55,1.62-.6-2-1.9-1.08-4.31-1.2-6.55,0-.39.23-.78.05-1.17l.09-.13-.09-.12a5,5,0,0,1,.4-3v0c.48-1.09-.23-2.48.85-3.42.23.18.46.46.33.71A1.74,1.74,0,0,0,28,69.61c-1.51.67-1.75,1.22-1.68,2.77,0,1,.72,1.34,1.39,1.64s1.46-.34,2-1.47a7,7,0,0,0-2.24,0,.51.51,0,0,1-.66-.37c-.13-.47.15-.53.54-.63a4.54,4.54,0,0,0,1.07-.63c.06.62.3.78.71.24.27-.34.86-.78.91-.35.13,1.39.8.82,1.52.7.35-.06.77.28,1,.64s.73,1,1.33,1.8c0-1,1-1.54-.15-2.2a.72.72,0,0,1-.21-.77c.11-.5,1,.16.85-.48-.06-.33-.61-.55-.81-.89s.12-.64.27-1c.37-.78,1.22-1.13,1.64-1.82-.35-.56-.84.06-1.26-.39C35,65.34,36.37,64.66,36.89,63.31Z"/><path class="cls-2" d="M34.34,120a.72.72,0,0,0-.84,0,1.3,1.3,0,0,1-1.64-.05h0c-.28-.14-.62-.1-.87-.32l-.07,0c-.31-.4-.88,0-1.2-.41l-.05,0c-.27-.28-.7-.18-1-.44-.46-.5-1.13-.78-1.41-1.45a2.59,2.59,0,0,1-.1-.62,2.08,2.08,0,0,1,1.65-2.34A18.26,18.26,0,0,0,31.88,113a5.74,5.74,0,0,1,4.81-.52A6.56,6.56,0,0,1,39.5,114a3.08,3.08,0,0,1,.79,2c0,.38-.3.75,0,1.15h0c.4.66.51,1.44.86,2.13v0c-.32,1.13-1,.6-1.67.39a.74.74,0,0,0-.84,0c-.4.21-.7.74-1.28.41a.29.29,0,0,0-.41,0,1,1,0,0,1-.52.38l0,0c-.37.48-.78.37-1.19.07h0C35,120.21,34.57,120.3,34.34,120Z"/><path class="cls-6" d="M39.43,80.25c-.66-.71-1.79-1.28-.74-2.49A3.4,3.4,0,0,1,38.44,75c.33-1.43.65-2.85,1-4.28a3.22,3.22,0,0,1,.19-.6c.21-.47-.81-.93,0-1.43.63-.37,1.36-1,2-.73,1,.43,1.07-.43,1-.75-.08-.54.05-1.32-.74-1.56-.43-.13-.45-.46-.49-.79.14-.1.23-.22.34-.24,2.2-.35,2.92-1.67,2.17-3.86a6.54,6.54,0,0,1-.62-3c.52-.19.88.18,1.38.17a1.58,1.58,0,0,0-.38-1.47c-.6-.7-.65-.66.2-1.2a1.81,1.81,0,0,1,1.5,1c-.09.5.16,1.06-.3,1.49l0,0c-.5,1.4.18,2.92-.44,4.31l-.07.1.08.09c-.25.45,0,1.06-.44,1.45l0,0c-.54.54.39,1.15-.07,1.7l0,0c-.47,2.41.26,4.88-.39,7.27l0,0c-.19.22-.11.44,0,.66v0c-.06.31-.33.42-.54.58-.43.47-.16,1.09-.35,1.6-.1.26-.21.52-.55.56-1.2.13-1.33.26-1.56,1.75C41.26,79,39.7,79.09,39.43,80.25Z"/><path class="cls-7" d="M25.41,82.79c2-.16,2.14,1.6,2.82,2.76.3.51-.5.5-.73.84l2.19,1c0,1.69-1.22,2.74-2.1,4a1.21,1.21,0,0,1-1.25.55c-1-.11-1.4.43-1.24,1.49a4.57,4.57,0,0,1,1.83-.66c.52,2.3.37,4.39-1.72,5.94-.51.38.6,1.38-.6,1.42-.43-.54,0-1.25-.39-1.8a.44.44,0,0,0,0-.56,5.09,5.09,0,0,0,0-2.79l0,0a1.26,1.26,0,0,1-.43-1.19c.1-.31.11-.67.48-.81l0,0c.4-2.42-.2-4.88.32-7.3a.77.77,0,0,0,.06-.72C25.26,84.4,23.74,83.06,25.41,82.79Z"/><path class="cls-8" d="M39.43,80.25c0-.43,0-.85,0-1.27s.12-.72.59-.68.83.3,1-.33c.26-.82-.5-1-.93-1.42.46-.8,1.3-.38,1.9-.62A2.27,2.27,0,0,0,42,74.2c1.11.06.59,1,1.05,1.39.29-.17.11-.48.21-.69.2-.45-.77-1.36.53-1.38A20.3,20.3,0,0,1,43.67,79a1.3,1.3,0,0,0-.06,1.12c-.12.35-.27.7,0,1v0a.52.52,0,0,1,0,.83v0c-.22.25-.13.67-.48.84l0,0a1.54,1.54,0,0,1-.34.43c-.5.22-1,.36-1.54.54-.4-.23-.51-.52-.17-.89Z"/><path class="cls-9" d="M27.66,60.76c-.07.32-.14.63-.2.94l-.25.1-.27,0a1.88,1.88,0,0,0-1.4.56,2.73,2.73,0,0,1-.48.25,1.63,1.63,0,0,0-.47.25v0c-.26.29-.66.25-1,.4l-1.13,0a6.76,6.76,0,0,1-2.83.18c-.49-.89.33-.83.77-1,1.67,0,3.15-.15,3.89-2.06.33-.84,1.39-1.15,2.17-1.56,1-.55,1.05.49,1.33,1.06A1.71,1.71,0,0,1,27.66,60.76Z"/><path class="cls-10" d="M42.42,95.9c0,.15,0,.3,0,.44,0,.5-.21.51-.56.33a1.68,1.68,0,0,1-.39-.88,13.82,13.82,0,0,1-.07-1.58c-.18-1.07.51-2.17-.13-3.23a25.27,25.27,0,0,1,.46-5.56c.13-.55,0-1.71,1.25-1.16-.1,1.2.32,2.43-.27,3.58l0,0a.9.9,0,0,0,0,1l0,0c.13.09.17.17.14.27s-.07.14-.11.14c0,.15.06.29.1.44a4.6,4.6,0,0,1-.15,2.93l0-.05a.48.48,0,0,0,0,.58c0,.2,0,.4,0,.59C42.39,94.35,42.82,95.19,42.42,95.9Z"/><path class="cls-11" d="M45.88,56.14a1.36,1.36,0,0,1-1.37-.87L45.37,54c.37-1.6.19-3.27.68-4.85.18-.58.09-1.27.78-1.6.4,0,.48.35.6.65a.17.17,0,0,0,0,.29c.11.11.14.2.08.28a.19.19,0,0,1-.15.1l0,0c-.27.41,0,1-.36,1.35a.61.61,0,0,0,0,.66c-.5,1.13.25,2.44-.49,3.53l0,0C46.11,54.86,46.89,55.82,45.88,56.14Z"/><path class="cls-7" d="M25.83,73.8c0,.62.05,1.25.06,1.87,0,1.44-.19,2.9.75,4.2a3.48,3.48,0,0,1,.35,1.4c.08.47-.09.89-.6.88s-.32-.47-.24-.77.16-.67-.2-.93c-.68.16-.38.79-.56,1.19-.56,0-.55-.43-.56-.83v-.58A1.11,1.11,0,0,1,25,79.4a1,1,0,0,0,.05-.84C25.24,77,24.79,75.26,25.83,73.8Z"/><path class="cls-12" d="M48.71,40l-.09.12.07.13c-.26.44,0,1-.37,1.43a.21.21,0,0,0,0,.31c-.49,1,.19,2.11-.42,3.07v0a.38.38,0,0,1-.49,0,1.44,1.44,0,0,1-.26-.49A5.16,5.16,0,0,1,47,43.44a5.61,5.61,0,0,1,0-.58,3.66,3.66,0,0,1,0-.57,32.77,32.77,0,0,0,.57-3.41,5.44,5.44,0,0,1,0-.57,4.14,4.14,0,0,0,.05-.86c0-1-.75-2.51,1.36-2.25a.65.65,0,0,1,.3.55A13.25,13.25,0,0,1,48.71,40Z"/><path class="cls-13" d="M50,30.48a.94.94,0,0,0,0,.89c-.53,1.28.27,2.72-.48,4l0-.08c0,.22-.12.26-.3.15L49,35.23c-.67-1.06-1.31-2.12-1-3.46a4.94,4.94,0,0,0,.53-2.14c0-.71.38-1,1.07-.64C50,29.46,49.7,30,50,30.48Z"/><path class="cls-14" d="M43.18,115.58l0,.53c-.76.64-1.67.19-2.49.33-1.14-.77,0-1.56,0-2.33a1.17,1.17,0,0,1,1.15-.31.89.89,0,0,1,.46.39v0c.35.15.24.6.52.8h0A1,1,0,0,1,43.18,115.58Z"/><path class="cls-15" d="M49.09,1.11a7.19,7.19,0,0,1-2.48.39c-.12-.08-.17-.16-.15-.26s0-.15.09-.15a.18.18,0,0,0,.12-.27.91.91,0,0,1,.39-.56h0c.81-.34,1.57-.48,2.07.47A2.45,2.45,0,0,0,49.09,1.11Z"/><path class="cls-16" d="M41,105.65c.15,1,0,2,.5,3a1.07,1.07,0,0,0,.05.86c.12.29,0,.45-.28.49C39.79,108.42,39.71,107.05,41,105.65Z"/><path class="cls-15" d="M51.81,2.7c.67.32.14.92.32,1.35a.59.59,0,0,1,0,.84c0,.15,0,.29,0,.43a.31.31,0,0,1,0,.41C50.88,4.85,51.44,3.76,51.81,2.7Z"/><path class="cls-15" d="M50.38,1.93c-.58,0-1.16.05-1.24-.76l.25,0a1.23,1.23,0,0,1,.61.31.25.25,0,0,0,.31.1c.18.05.25.12.21.22S50.43,1.93,50.38,1.93Z"/><path class="cls-17" d="M19,63.66a.84.84,0,0,0-.87.38l-6.25-.31a1.14,1.14,0,0,1-.15-.34l.51-.14c.25-.35,1,0,1-.86,0-.36.07-1,.38-1.14,2.48-1.09,2.57-3.73,3.76-5.65a3.78,3.78,0,0,0,2.39-1.86A16.09,16.09,0,0,1,25,48.58a3.82,3.82,0,0,1,4.75.83,1.26,1.26,0,0,1,.26,1.2,20.84,20.84,0,0,0-1.2,6.15.67.67,0,0,1-.69.66c-.76-.55-.52-1.39-.63-2.13-.08-.55,0-1.23-.64-1.45s-1.2.27-1.64.71a6.31,6.31,0,0,0-1.65,3.14,9.56,9.56,0,0,1-2.05,4.62,1.17,1.17,0,0,1-.71.5c-.43.14-1-.06-1.27.48Z"/><path class="cls-18" d="M.56,54.51c.29,0,.38-.21.39-.47a1.9,1.9,0,0,0,.84-.84A1.25,1.25,0,0,0,2.68,52c.68-.15,1-.69,1.28-1.24,1.31-.6,1.72-2.22,3.11-2.71,1-.14,1.24-.89,1.39-1.71h0c1.3-.46,1.65-1.81,2.59-2.73.6.37.49.9.24,1.4a2.37,2.37,0,0,1-1.06,1c-.52.29-1,.65-.71,1.32s.89.1,1.33.31c0,.69-1.53.83-.6,1.84.32.34-.14.61-.34.86-.33.41-.69.84,0,1.17,1,.5.47-.75.91-.9,1.27,1.11-.11,1.91-.31,2.85-.11.54-.37.25-.58.11a1.11,1.11,0,0,0-1-.3c-.44.13-.79.37-.55.9s.34,1.11.84.1c.18-.37.77.29.73.34-.47.38.89.85-.06,1.12-.32.09-.7,0-.76.5A3,3,0,0,1,7.43,58.4a.75.75,0,0,0-.07,1.37c.66.48,1.1,1.3,2,1.43.12.43,1.56.88,0,1.3h0a1.14,1.14,0,0,0-.5-.39L8.13,62l-1.64-.91a1.85,1.85,0,0,0-1.35-.71L5,60.25l-.21,0-.47-.35a.45.45,0,0,0-.4-.45A.47.47,0,0,0,3.48,59a.45.45,0,0,0-.43-.42.47.47,0,0,0-.43-.41c0-.23-.1-.43-.36-.49a.44.44,0,0,0-.5-.35A1,1,0,0,0,1,56.88L.1,56.07A1.32,1.32,0,0,1,.56,54.51Z"/><path class="cls-19" d="M28,57.38c.78-1.17.35-2.55.66-3.81.17-.67.14-1.39.3-2.07s1.39-1.07.32-1.85c-1.67-1.23-2.8-1.53-3.81-.75-2.25,1.72-4.85,3.17-5.65,6.21a.66.66,0,0,1-.71.57c-.56,0-1.13,0-1.69,0a.27.27,0,0,1-.11-.29c0-.09.08-.14.11-.14.84-.78.95-2.26,2.37-2.32a2.92,2.92,0,0,0-.47-1.53c-.15-.39-.07-.87.23-.91,1.27-.19,1.67-1.52,2.76-2,.9-.35,1.75-1,1.47-2.19-.05-.26,0-.31.26-.41,1.58-.76,1.57-.77,2.44-2.54a.88.88,0,0,1,.44-.39c1.47-.55,2.22-2.27,3.94-2.42a.54.54,0,0,0,.4-.66,7.44,7.44,0,0,1-.25-1c0-1.12.65-1.49,1.79-1,.38.15.86-.15,1.2.32-.75.2-1.42.24-1.18,1.45.31,1.57-.27,2.14-2.07,2.7,1,.76,1.36,1.53.23,2.43-.68.54.14,1.65-.54,2.14-1.26.91-.87,1.77-.18,2.75a1.63,1.63,0,0,1,.27,1.21,1.36,1.36,0,0,0,1.18,1.66c-.37.86-1.55-.22-1.63,1-.05.69-.9,1.29-.63,1.95.42,1-.09,1.6-.53,2.31-.57.94-.12,2.31-1.25,3,0-.27-.06-.55-.1-.83a.44.44,0,0,1-.14-.31c0-.12,0-.18,0-.18.2-.61,0-1.29.33-1.87Z"/><path class="cls-20" d="M44.93,48.92a.86.86,0,0,0-.4.7c0,1.14-.24,1.9-1.68,1.7a1.63,1.63,0,0,0-1.49.63,1.16,1.16,0,0,0-.12,1.2c.23.45.56.14.89.07,1.22-.28.68,1,1.2,1.49s-.41.72-.82.84-.67-.16-1-.15-.85.17-.86.47c-.06,1.3-1.34,2.71.31,3.89a.77.77,0,0,1,.24.78c-.25.3-.61.21-.95.23-.53,0-1-.21-.77.86.22.91-.87,1.39-1.74,1.68.11-.32.35-.67.29-1-.25-1.07-.6-2.1,0-3.18.11-.18-.21-.62-.34-.94h0c.32-.13.64-.28,1-.4s.57-.15.11-.45c-.85-.57.24-1.76-.75-2.38-.17-.1.34-.54.71-.45.6.14.9-.3.82-.66-.42-1.74.17-3.64-.85-5.27,0,0,0-.11.08-.26,2,1.24,3.81.29,5.69-.28C44.84,48.26,45.13,48.47,44.93,48.92Z"/><path class="cls-21" d="M48.33,32c-.11,1.15,1,2,.71,3.24-.83.17-1.37.49-.92,1.49a4.47,4.47,0,0,1,.17,1.17,5.46,5.46,0,0,1-.39.45c0,.14,0,.28,0,.42a4.74,4.74,0,0,0-.45,3.84V43c-.28.31-.41.72-.65,1-.09.13-.2.25-.3.37s-.28.38-.41.58a1,1,0,0,1-.33.32.31.31,0,0,1-.39-.15c-.15-.7.48-1.41,0-2.12-.26-1.82-1.06-3.7,1-5.14.43-.31-.76-.67-.44-1.27a1.3,1.3,0,0,1,.23-.54c.16-.2.63-.43.57-.48C44.91,34,46,31.72,45.35,29.87h.42c.39-.34,1.07-.23,1.28-.85h0a.26.26,0,0,0,.1-.28c0-.09-.07-.14-.11-.14h0a1,1,0,0,1,0-1.27v-.42c-.67-.55.15-1.7-.84-2.12l.42-.42c1.11-.36,0-1.89,1.18-2.21,1.15,1.3.83,2.81.67,4.32C48.29,28.31,47.82,30.14,48.33,32Z"/><path class="cls-22" d="M46.2,36.22c0,.31-.06.94.2.88,1.06-.29.69.64.54.73-2,1.29-1.38,3.35-1.59,5.16-.42-1.37-1.69-2.3-1.92-3.79-.31-2-.72-4,.6-5.88a9.56,9.56,0,0,0,1.32-3.45c.51.74,1.12,1.38.72,2.47-.51,1.43.76,2.35,1.38,3.48l-1.25.4s-.1-.07-.12-.13A.83.83,0,0,0,46.2,36.22Z"/><path class="cls-22" d="M47.89,22.25c-.46.3-.42.78-.43,1.24a.8.8,0,0,1-.84.88c.23-.64.48-1.18-.27-1.78-.34-.26-.07-1.15-.91-1.3-.12,0,.1-.61.5-.71.69-.18,1.13-.49.92-1.34s.84-.41,1.07-1a36.4,36.4,0,0,1,1.72-3.49c.27-.52-.14-.73-.37-1.06s-1,.08-1.3-.55c.83-.85,2-1.19,2.93-1.89.16,1.43-.4,2.76-.57,4.14-.56.27-.52.9-.78,1.35C49,18.59,49,20.59,47.89,22.25Z"/><path class="cls-3" d="M17.41,55.27v.43c.17,1.32-1.27,2.39-.61,3.84.12.27-.61.29-.79.54a2.72,2.72,0,0,1-1.63.84c-1.12.36.11,1.06-.39,1.54s-.84,1.14-1.71.79c-.44-1-.72-1.82.73-2.21,1.73-.47,1.33-2,1.44-3.23h0c-.7-1.05.13-1.35.85-1.45A3.34,3.34,0,0,0,17.41,55.27Z"/><path class="cls-21" d="M44.93,48.92l-.42-.84.42-.43c.16-.12.27-.29.42-.42v-.85a.25.25,0,0,1-.09-.28c0-.09.06-.14.09-.14h0c.27-.22.15-.62.41-.84h0c1.7.71.65,2,.56,3-.05.68-.2,1.68-1.41,1.21Z"/><path class="cls-22" d="M46.2,24.79c1.36.28.66,1.37.84,2.12C45.82,26.58,46.68,25.42,46.2,24.79Z"/><path class="cls-5" d="M31.32,68.2c-.24.85-.63,1.11-1.27.89-.08,0-.19-.26-.15-.32C30.21,68.19,30.75,68.37,31.32,68.2Z"/><path class="cls-5" d="M29.72,66.48c.33.09.35.37.36.64,0,.47-.21.9-.68.76s.21-.47.05-.79A.39.39,0,0,1,29.72,66.48Z"/><path class="cls-15" d="M50.91,2.31l.79,0a.48.48,0,0,1,.09.32c-.59.23-.78.89-1.43,1.32C50.26,3.24,50.69,2.8,50.91,2.31Z"/><path class="cls-22" d="M47,27.33V28.6c-.32,0-.85.11-.91-.17C46,27.82,46.61,27.6,47,27.33Z"/><path class="cls-5" d="M32.49,69.9c0,.23,0,.42-.29.41s-.34-.21-.33-.43.1-.33.17-.34C32.27,69.52,32.41,69.69,32.49,69.9Z"/><path class="cls-22" d="M47.05,29c0,.86-.66.86-1.28.85C45.73,28.88,46.7,29.42,47.05,29Z"/><path class="cls-15" d="M46.26,1.56a2,2,0,0,1,.35-.06c.36.62.29,1.08-.5,1.25Z"/><path class="cls-4" d="M36.21,22.78c-.19.14-.3.27-.38.26a1.39,1.39,0,0,1-.52-.21c-.2-.14-.16-.2.08-.16Z"/><path class="cls-4" d="M37.73,24.37c.19.09.4.38.31.42-.49.19-.2-.28-.31-.42Z"/><path class="cls-4" d="M29.26,37.49l.56.16c-.31.39-.4,0-.55-.16Z"/><path class="cls-20" d="M45.76,45.12a.84.84,0,0,1-.41.84v-.85Z"/><path class="cls-20" d="M36.87,56l-.15-.12c.06,0,.12-.09.17-.08s.1.07.15.11Z"/><path class="cls-20" d="M37.73,58.23c-.18-.09-.4-.38-.3-.41.48-.2.19.27.3.41Z"/><polygon class="cls-5" points="28.42 70.93 28.52 70.76 28.6 70.84 28.42 70.93"/><path class="cls-20" d="M45.35,47.23l-.42.42Z"/><path class="cls-20" d="M45.35,46v.42Q44.92,46.17,45.35,46Z"/><path class="cls-22" d="M47,28.6c.3.14.3.28,0,.42C47.05,28.88,47.05,28.74,47,28.6Z"/><path class="cls-15" d="M50.44,2a1.79,1.79,0,0,0,.4,0,.72.72,0,0,1,.06.36A.44.44,0,0,1,50.44,2Z"/><path class="cls-6" d="M41.12,82.79a.86.86,0,0,0,.43.84c.06.06.12.13.19.19a1.4,1.4,0,0,1,.12.78,1.91,1.91,0,0,1-.14.52,3.7,3.7,0,0,0-.18,1.32,43,43,0,0,1-1.28,6.37,3.12,3.12,0,0,1-.11.53,2.07,2.07,0,0,0-.09,1.47,4.05,4.05,0,0,1,.12.5,1.58,1.58,0,0,1-.35,1.22,7.78,7.78,0,0,0-.65,1.12,3.62,3.62,0,0,1-.36.42c-.23.27-.52.66-.28.93,1.71,2,.57,3.07-1.28,3.89,2.24,2.27,2,3.42-1,4.62l-.25-.17c0-.73-.52-1.11-.93-1.59-1.17-1.37-1.25-2.5,0-3.76a1.66,1.66,0,0,0,.08-2.26c-.45-.75-.54-1.26.21-1.78.31-.22.36-.4.22-.84a2.43,2.43,0,0,1,1.7-3.21c1.14-.26,1.91-.47,1.45-1.88-.09-.27.17-.66.25-1,.34-1.58.34-1.58-1.16-2.36-.49-.25-.2-1-.83-1.06.45-1,1.32-.88,2-1.12.27-.49,0-.8-.34-1.08s-.15-.8.18-.77c1.17.13,1.5-.45,1.57-1.47C40.44,82.87,40.84,82.84,41.12,82.79Z"/><path class="cls-23" d="M27.57,113.26c-.74-1.06-.06-2.53-1-3.54-.21-.21,0-.51.26-.68.61-.42,1.48-.73,1.95-.31,1,.9,2.14,0,3.13.54.17.09.32-.38.36-.66h0c.41.12.78.56,1.26,0A3.28,3.28,0,0,1,36,107.34h0c.33,3.12-1,4.86-4.17,5a23.53,23.53,0,0,0-4,1Z"/><path class="cls-24" d="M44.93,49.35c1.45-1,1.67-2.09.85-4.24a.85.85,0,0,1,.43-.84h0c.28-.55.44-1.22,1.22-1.32v.46a1.23,1.23,0,0,0,0,1.28l.12.47v0c-.28.53-.75,1-.43,1.68,0,.28,0,.56,0,.84-.37,1.86-1.6,3.54-1.12,5.58.09.4-.27.6-.59.77C45.19,52.46,45.69,50.85,44.93,49.35Z"/><path class="cls-23" d="M26.49,108.26c-.22-1,.74-2.33-.85-3.06-.25-.11.2-.9.64-1.14a.62.62,0,0,1,.86.38c.28.61.33,1.36,1.14,1.59.2.06.43.37.23.46C27.65,106.89,28.09,108.76,26.49,108.26Z"/><path class="cls-23" d="M32.23,108.61a2.31,2.31,0,0,1-1.35-.52.58.58,0,0,1-.14-.9,1.1,1.1,0,0,1,.7-.37c.36,0,.3.36.38.61s.27.79.41,1.18Z"/><path class="cls-23" d="M26.39,113.61c0-.54-.07-1.08-.11-1.62.58.27.36,1.35,1.29,1.27h0c0,.71-.37.7-.86.43A.9.9,0,0,0,26.39,113.61Z"/><path class="cls-20" d="M42.26,56.58c-.1.09-.18.23-.28.24s-.22-.13-.13-.28a.27.27,0,0,1,.15-.13C42.16,56.34,42.25,56.41,42.26,56.58Z"/><path class="cls-25" d="M29,16.43a.43.43,0,0,0,.34-.49l.33-.06c1.05-.42,1.3-1.45,1.76-2.55.48.67,1.18,1.14.26,1.78s-.62,1.2-.17,1.77a5.71,5.71,0,0,1,1.43,2.2c.09.33,1,.61.7.86-.68.68.16,1.9-1,2.31h0c-.68.48-.58,1.54-1.45,1.9-.18.08-.06.42.24.35.82-.2.41.49.58.76.44.71-1.88.91-.37,1.6.89.4-.52,1.39.68,1.54.39.05-.06.68-.34.68-.95,0-1.3.92-1.84,1.15-1.42.59-1.53,1.45-1.36,2.68a.65.65,0,0,1-.61.73c-.66.12-1.12.25-.49,1,.27.35-.14.38-.42.33a1.39,1.39,0,0,0-1,.08L26,36.89c-.67.15-1.05-.79-1.78-.29-.41.28-.95.71-1.55.16.14-.85,1.31-.43,1.55-1.29-1.15-.27-2.4.19-3.43-.52-.72-.92-1.57-1.57-2.91-1.07a3.16,3.16,0,0,1,1.29-2.5c1.78-1.27,2.24-3.3,3.27-5,.29-.53.59-1.06.88-1.6A8.55,8.55,0,0,0,26,21.08a1.61,1.61,0,0,0,.73-1.37.77.77,0,0,0,.52-.75h0a.59.59,0,0,1,.38-.49l.05,0c.2-.48.33-1,.84-1.28A1.2,1.2,0,0,0,29,16.43Z"/><path class="cls-25" d="M22,36.86c-.05.12-.1.33-.18.35a.34.34,0,0,1-.41-.36.33.33,0,0,1,.43-.34C22,36.52,22,36.74,22,36.86Z"/><path class="cls-25" d="M32.77,16.91c0,.05,0,.15-.05.15a.47.47,0,0,1-.19-.06c0-.05,0-.14.06-.14A.41.41,0,0,1,32.77,16.91Z"/><polygon class="cls-25" points="20.8 34.95 20.7 35.13 20.62 35.05 20.8 34.95"/><path class="cls-3" d="M33.08,84.9a.52.52,0,0,1-.21,0c-.4-.12-.52.68-1,.31a.44.44,0,0,1,0-.38c.4-.55.78-.38,1.15.05Z"/><path class="cls-3" d="M34.23,83.05c0-.06,0-.15.05-.15a.61.61,0,0,1,.18,0s0,.15-.05.15A.61.61,0,0,1,34.23,83.05Z"/><path class="cls-7" d="M25.08,82.32c.11-.17.22-.33.32-.5v.68A3.3,3.3,0,0,0,25.08,82.32Z"/><path class="cls-26" d="M26.71,113.7a.92.92,0,0,0,.86-.43,6.52,6.52,0,0,1,4.66-1.34c1.27.16,1.9-1.09,3-1.33-.41-.87,1.26-1.48.29-2.48-.22-.22.42-.46.53-.78,1.26,0,1.36-1.52,2.37-1.94.32-.14.11-.75-.3-1-.62-.42-1.22-.87-2-1.4,1.07-.73,2.27-1,3-2.1-.29-.39-.59-.83-.91-1.25-1-1.26-1-1.25.76-2,1.5,1.29,1.35,3,1,4.65s-.83,3.43-.18,5.19a1.35,1.35,0,0,1-.51,1.5c-.2.2-.78.3-.42.74,1.59,2-.15,1.54-1.16,1.61s-1.4.33-.82,1.3l-.09.27a1.41,1.41,0,0,1-.41,0c-2.16-.65-3.92.42-5.74,1.28a6.12,6.12,0,0,1-1.33.55,2,2,0,0,0-1.87,2.48C26.8,116.11,27,114.85,26.71,113.7Z"/><path class="cls-27" d="M40.28,116.21a.57.57,0,0,1-.37.14l-.51-2.21a2,2,0,0,0,.05-.24,1,1,0,0,1,.35-.34l.24-.06.24,0a1.14,1.14,0,0,1,.37.32,2.17,2.17,0,0,0,.07.24A1.31,1.31,0,0,1,40.28,116.21Z"/><path class="cls-27" d="M39.4,114.14a13.07,13.07,0,0,1-2.53-1.28l0,0c1.42-.73,2.46-.69,2.54,1.26Z"/><path class="cls-28" d="M39.84,93.37c-.16-2.09.93-3.94,1.09-6,0-.41.13-.81.19-1.22.4-.34,0-.93.42-1.28v-.42a.55.55,0,0,0,0-.85h0c0-1,.91-.46,1.27-.84l-.06,1.26a7.07,7.07,0,0,0-.82,4.13,10.25,10.25,0,0,1-.36,3C42.14,92.83,41.46,93.48,39.84,93.37Z"/><path class="cls-29" d="M27.59,59.5l0,.43c-.43-.07-.28-1.31-1.34-.38a6.44,6.44,0,0,0-2.1,2.23c-.59,1.34-2.08,1.12-3.34,1l.42-.36c.32-.31.43-.81.93-.93.71.27.08-.52.42-.54a5.36,5.36,0,0,0,1.75-3,3.18,3.18,0,0,1,.26-.79c.45-.94,1.11-1.71,2.22-1.54s.94,1.19,1,2C27.71,58.26,27.94,58.91,27.59,59.5Z"/><path class="cls-30" d="M39.84,93.37c.19-.19.39-.55.58-.55,1.22,0,1.15-.81,1.16-1.62.36.09.58.23.5.7-.11.74-.11,1.5-.16,2.25-.64.6-.32,1.21,0,1.82l.12.83h0c-.46.27-.84,0-1.23-.2a1.34,1.34,0,0,1-.37-.38,3.74,3.74,0,0,0-.55-1.16,1.7,1.7,0,0,1,0-1.69Z"/><path class="cls-31" d="M41.9,96a3.5,3.5,0,0,1-.46-.39c-.9-1-.87-1.06.48-1.43C41.91,94.76,41.91,95.37,41.9,96Z"/><path class="cls-24" d="M47.43,42.6c-1.47-.62-.29-1.87-.62-2.78-.24-.67.65-.76,1.07-1.06A8.38,8.38,0,0,1,47.43,42.6Z"/><path class="cls-11" d="M47.4,44.69a.75.75,0,0,1,0-1.28Z"/><path class="cls-24" d="M47.9,38.34l.39-.45Z"/><path class="cls-32" d="M47.89,22.25c0-.21-.16-.49-.07-.61,1.13-1.44.66-3.44,1.74-4.89a5.8,5.8,0,0,1-.12,2c-.21.91-.77,1.87.45,2.69.5.34.07,1.3,0,2-.32.21-.33.4,0,.56.15.22.49.59.44.64-1.13,1.33.19,3.07-.75,4.41-.54,0-.72.22-.56.77A1.81,1.81,0,0,1,48.33,32c-.92-.93-.62-1.95-.59-3.14C47.8,26.66,48.53,24.46,47.89,22.25Z"/><path class="cls-30" d="M39.43,114.09c-.37-1.36-1.47-1.28-2.54-1.26-.21-.49-1.32-.27-.9-1.33.32-.83.88-.78,1.51-.77s1.1,0,1.7.08c0-1.08-.94-.77-1.48-1.06,0-.5.5-.62.8-.81.76-.49,1.28-.74.68-1.92a4.93,4.93,0,0,1,.09-3.71A7.78,7.78,0,0,0,39,97.6h0a6.9,6.9,0,0,0,.42-.63c.45-.17.61-.89,1.26-.64l0,0c1.18,1.25.36,2.91.88,4.29-.25.82.19,1.75-.36,2.52-.44,1.32-1.07,2.64-.85,4a16.6,16.6,0,0,1-.53,6.47Z"/><path class="cls-33" d="M39.85,113.66a1.89,1.89,0,0,1-.31-1.81c.88-1.64.62-3.31.38-5-.16-1.18.77-2.22.57-3.45,0-.2.46-.23.74-.22-.17.83.62,1.72-.19,2.49a3.85,3.85,0,0,0,.44,4.22c0,.15,0,.29.05.43a13.63,13.63,0,0,0-1.26,3.38Z"/><path class="cls-31" d="M41.59,100.64c-.1-.3-.07-.68-.56-.69s-.7-.39-.47-.67c.79-1,.12-2,.15-2.93A2.42,2.42,0,0,1,42,96.8C41.66,98.06,42.51,99.44,41.59,100.64Z"/><path class="cls-16" d="M40.27,113.68a2.64,2.64,0,0,1,1.26-3.38l.37.47a.29.29,0,0,0,0,.31c-.64,1-1.25,2,0,3.06l-1.17,0h0c-.14-.13-.29-.26-.42-.4Z"/><path class="cls-4" d="M8.46,46.3c0,.61.55,1.11.37,1.79-.59.25-1.17-.13-1.76-.08,0-.73.89-1,1-1.64Z"/><path class="cls-11" d="M47.09,46.81c-.79-.8,0-1.21.43-1.68A2.62,2.62,0,0,1,47.09,46.81Z"/><path class="cls-34" d="M28.5,17.22a1.89,1.89,0,0,1-.84,1.28c0-.16-.08-.32-.11-.48l.09-.78Z"/><path class="cls-2" d="M8.84,62.1a.52.52,0,0,1,.5.39h-.2l-.2,0C8.91,62.35,8.87,62.23,8.84,62.1Z"/><path class="cls-35" d="M22.49,61.62l-1.29.83c0-.62-.59-1.49.58-1.65s.92-.87.93-1.55a6.8,6.8,0,0,1,4.46-6.4c1.15,1.34.74,3,.82,4.53h0q-.21.3-.42,0c-.11-.6-.11-1.34-.92-1.37a1.5,1.5,0,0,0-1.47,1c-.08.18-.33.35-.31.52.15,1.92-1.23,3-2.38,4.11Z"/><path class="cls-17" d="M27.57,57.38H28c-.09.72.28,1.52-.4,2.12Z"/><path class="cls-21" d="M46.2,36.22a3.22,3.22,0,0,1-.78-.24c-.4-.26-.27-.6,0-.87.14-.12.39-.28.52-.23.31.11.22.45.24.71s0,.42,0,.63Z"/><path class="cls-2" d="M14.45,57.81a2.58,2.58,0,0,1,.34-.5c.19-.17.44-.43.64,0,0,.06-.22.32-.39.4a1.88,1.88,0,0,1-.59.13Z"/><path class="cls-28" d="M40.68,96.33c-.42.27-.6.91-1.25.85a.57.57,0,0,1,0-.84c.49-.31.4-.81.42-1.28A1.26,1.26,0,0,1,40.68,96.33Z"/><path class="cls-28" d="M39.84,93.37c0,.56,0,1.13,0,1.69A1,1,0,0,1,39.84,93.37Z"/><path class="cls-26" d="M39.43,96.34v.84L39,97.6C39,97.14,38.92,96.64,39.43,96.34Z"/><path class="cls-8" d="M41.54,84.9c0,.47.07,1-.42,1.28C41.13,85.71,41,85.21,41.54,84.9Z"/><path class="cls-8" d="M41.54,83.63c.44.29.43.57,0,.85Z"/><path class="cls-11" d="M46.21,44.27l.16.09c0,.14-.09.11-.16-.09Z"/><path class="cls-4" d="M32.65,22.25a1.12,1.12,0,0,1-.17-.09c0-.15.1-.11.17.09Z"/><path class="cls-14" d="M40.28,113.69l.42.4Z"/><path class="cls-35" d="M22.49,61.62c.06,0,.17.08.17.1s-.1.1-.17-.1Z"/></g></g></g></svg>