<svg xmlns="http://www.w3.org/2000/svg" viewBox="0 0 71 113.14"><defs><style>.cls-1{opacity:0.7;}.cls-2{fill:#020202;}.cls-10,.cls-100,.cls-101,.cls-102,.cls-103,.cls-104,.cls-105,.cls-106,.cls-107,.cls-108,.cls-109,.cls-11,.cls-110,.cls-111,.cls-112,.cls-113,.cls-114,.cls-115,.cls-116,.cls-117,.cls-118,.cls-119,.cls-12,.cls-120,.cls-121,.cls-122,.cls-123,.cls-124,.cls-125,.cls-126,.cls-127,.cls-13,.cls-14,.cls-15,.cls-16,.cls-17,.cls-18,.cls-19,.cls-2,.cls-20,.cls-21,.cls-22,.cls-23,.cls-24,.cls-25,.cls-26,.cls-27,.cls-28,.cls-29,.cls-3,.cls-30,.cls-31,.cls-32,.cls-33,.cls-34,.cls-35,.cls-36,.cls-37,.cls-38,.cls-39,.cls-4,.cls-40,.cls-41,.cls-42,.cls-43,.cls-44,.cls-45,.cls-46,.cls-47,.cls-48,.cls-49,.cls-5,.cls-50,.cls-51,.cls-52,.cls-53,.cls-54,.cls-55,.cls-56,.cls-57,.cls-58,.cls-59,.cls-6,.cls-60,.cls-61,.cls-62,.cls-63,.cls-64,.cls-65,.cls-66,.cls-67,.cls-68,.cls-69,.cls-7,.cls-70,.cls-71,.cls-72,.cls-73,.cls-74,.cls-75,.cls-76,.cls-77,.cls-78,.cls-79,.cls-8,.cls-80,.cls-81,.cls-82,.cls-83,.cls-84,.cls-85,.cls-86,.cls-87,.cls-88,.cls-89,.cls-9,.cls-90,.cls-91,.cls-92,.cls-93,.cls-94,.cls-95,.cls-96,.cls-97,.cls-98,.cls-99{fill-rule:evenodd;}.cls-3{fill:#080808;}.cls-4{fill:#0a0a0a;}.cls-5{fill:#060606;}.cls-6{fill:#0c0c0c;}.cls-7{fill:#050505;}.cls-8{fill:#030303;}.cls-9{fill:#111212;}.cls-10{fill:#1d1d1d;}.cls-11{fill:#151111;}.cls-12{fill:#272929;}.cls-13{fill:#2a2828;}.cls-14{fill:#624949;}.cls-15{fill:#4a4b4b;}.cls-16{fill:#262a2a;}.cls-17{fill:#847b7b;}.cls-18{fill:#a5a7a7;}.cls-19{fill:#a4b0b0;}.cls-20{fill:#696d6d;}.cls-21{fill:#d9d8d8;}.cls-22{fill:#584747;}.cls-23{fill:#5f5d5d;}.cls-24{fill:#e4e3e3;}.cls-25{fill:#807575;}.cls-26{fill:#6b6e6e;}.cls-27{fill:#524b4b;}.cls-28{fill:#d1e9e9;}.cls-29{fill:#a8b9b9;}.cls-30{fill:#798181;}.cls-31{fill:#666363;}.cls-32{fill:#9da7a7;}.cls-33{fill:#e1e8e8;}.cls-34{fill:#b7caca;}.cls-35{fill:#6f5a5a;}.cls-36{fill:#a29a9a;}.cls-37{fill:#bdb8b8;}.cls-38{fill:#dfe0e0;}.cls-39{fill:#3b3232;}.cls-40{fill:#abbcbc;}.cls-41{fill:#101515;}.cls-42{fill:#6e6c6c;}.cls-43{fill:#676565;}.cls-44{fill:#d1d4d4;}.cls-45{fill:#c4d8d8;}.cls-46{fill:#171717;}.cls-47{fill:#3b4545;}.cls-48{fill:#363d3d;}.cls-49{fill:#121313;}.cls-50{fill:#474848;}.cls-51{fill:#6a6e6e;}.cls-52{fill:#b6a0a0;}.cls-53{fill:#c6a8a8;}.cls-54{fill:#91c5c5;}.cls-55{fill:#f1f3f3;}.cls-56{fill:#110f0f;}.cls-57{fill:#b3b2b2;}.cls-58{fill:#372f2f;}.cls-59{fill:#1e2020;}.cls-60{fill:#1e1d1d;}.cls-61{fill:#3e4141;}.cls-62{fill:#b1b0b0;}.cls-63{fill:#dae7e7;}.cls-64{fill:#a1c4c4;}.cls-65{fill:#565d5d;}.cls-66{fill:#191919;}.cls-67{fill:#171515;}.cls-68{fill:#777e7e;}.cls-69{fill:#1e1f1f;}.cls-70{fill:#d7dcdc;}.cls-71{fill:#3f3f3f;}.cls-72{fill:#d3d6d6;}.cls-73{fill:#8f9c9c;}.cls-74{fill:#dbf3f3;}.cls-75{fill:#6f9f9f;}.cls-76{fill:#391919;}.cls-77{fill:#757a7a;}.cls-78{fill:#6a6161;}.cls-79{fill:#484545;}.cls-80{fill:#1d1c1c;}.cls-81{fill:#798080;}.cls-82{fill:#666868;}.cls-83{fill:#737676;}.cls-84{fill:#605d5d;}.cls-85{fill:#7e7d7d;}.cls-86{fill:#382f2f;}.cls-87{fill:#3a2e2e;}.cls-88{fill:#7b8080;}.cls-89{fill:#cdd9d9;}.cls-90{fill:#2e2c2c;}.cls-91{fill:#868585;}.cls-92{fill:#433f3f;}.cls-93{fill:#a0a4a4;}.cls-94{fill:#887070;}.cls-95{fill:#7b7a7a;}.cls-96{fill:#635757;}.cls-97{fill:#3f4343;}.cls-98{fill:#485252;}.cls-99{fill:#756f6f;}.cls-100{fill:#181515;}.cls-101{fill:#767272;}.cls-102{fill:#3e3c3c;}.cls-103{fill:#595555;}.cls-104{fill:#5d5959;}.cls-105{fill:#a0a5a5;}.cls-106{fill:#8a8484;}.cls-107{fill:#282828;}.cls-108{fill:#363535;}.cls-109{fill:#333434;}.cls-110{fill:#9f9c9c;}.cls-111{fill:#565a5a;}.cls-112{fill:#5e6868;}.cls-113{fill:#b2c6c6;}.cls-114{fill:#464d4d;}.cls-115{fill:#859494;}.cls-116{fill:#c6b5b5;}.cls-117{fill:#629d9d;}.cls-118{fill:#717777;}.cls-119{fill:#f9f5f5;}.cls-120{fill:#cbd2d2;}.cls-121{fill:#ced2d2;}.cls-122{fill:#c5c6c6;}.cls-123{fill:#bcc9c9;}.cls-124{fill:#d0dddd;}.cls-125{fill:#eae9e9;}.cls-126{fill:#dedfdf;}.cls-127{fill:#fcfefe;}</style></defs><title>2</title><g id="Layer_2" data-name="Layer 2"><g id="Objects"><g class="cls-1"><path class="cls-2" d="M45.89,31.74l.2-.39c.27-.65.32-1.41.95-1.89l0,0c.18-.3.13-.71.43-1h0c.24-.26.16-.69.47-.92h0c.41-.35-.06-1.07.56-1.33l0,0a4.17,4.17,0,0,1,.83-2.4l.11-.14-.07-.16c.15-1.25.54-2.45.72-3.7a3.77,3.77,0,0,0,.22-3l0,0c-.34-.51-1-.58-1.42-.92h0a2.38,2.38,0,0,0-1.85,0c-3.16,0-5.77,1.85-8.74,2.53-.73.17-1.51,1.85-2.62,2.49-.36.57-.92,1-1.24,1.59a1.05,1.05,0,0,1-.28.49,1.83,1.83,0,0,1-.53.17c-.25.53-.89.61-1.23,1l0,0a13,13,0,0,0-1.57,2.19.53.53,0,0,1-.42.38l0,0c-.33.58-1,.92-1.28,1.51h0a5.71,5.71,0,0,1-1.51,3.17,1.72,1.72,0,0,0-.36,2.07,1.2,1.2,0,0,0,0,1,1.59,1.59,0,0,0,0,1.3l-.05.15.13.1c.59,1.32-.19,2.79.45,4.1l0,0c-.41,1.56-1.61,2.5-2.7,1.93-.76-.4-1.66,0-2.31-.63h0c-.29-.17-.68-.11-.94-.39l0,0c-.25-.26-.65-.18-.94-.36s-.63-.28-.78-.62l0,0c-.3-.14-.74,0-.88-.47L19,40l.07-.13a.88.88,0,0,1-.54-.31l-.06,0c-.19-.29-.69-.14-.78-.57l-.09.09.1-.07a.54.54,0,0,1-.5-.43h0a.78.78,0,0,1-.49-.43h0a1.3,1.3,0,0,1-.47-.46h0c-.31-.2-.19-.65-.5-.85l0,0a3.25,3.25,0,0,1-.37-.52h0a.82.82,0,0,1-.47-.48l0,0a.57.57,0,0,1-.43-.52l0,0c-.37-.11-.33-.44-.38-.72-.09-.66.22-1.35-.15-2a5.73,5.73,0,0,1-.42-1.18c-.21-2.12.37-4.2.3-6.31a4.56,4.56,0,0,1,.14-.64c.32-.91.63-1.83.91-2.75a7.24,7.24,0,0,0,.3-1.24A2.7,2.7,0,0,1,15.87,19c.21-.21.53-.38.61-.65.61-2.08,1.66-2.53,3.3-.93,0,.05.17.13.15.16-.78,2-.71,2.52.73,5.18.9-1.14-1.57-2.41.14-3.49.07-.11.25.13.3-.08a.87.87,0,0,1-.1-.39.33.33,0,0,0-.37-.2c-.45-.35-.42-1.05-1-1.29-1.33-.49-1.91-1.28-.93-2.57.34-.45.6-1.15,1.36-1s.78.68.91,1.19A3.07,3.07,0,0,0,22,16.6c.49.37,1,.82,1.63.39s.12-.85-.05-1.34c-.38-1.07,1-2.36,2.59-2.33a9.79,9.79,0,0,0,3.37-.3c.85-.46.71-1.29.75-2,.57-1,2.3-.28,2.6-1.72a2.12,2.12,0,0,1,.51-.38c3.18-1.44,5.8-3.75,8.71-5.6A1.64,1.64,0,0,1,42.71,3c1.21.38,1.87-1,3-1a1.84,1.84,0,0,1,1.46,1,2.12,2.12,0,0,0,2.43,1.29C51.18,4,52.44,5.39,54,5a1.67,1.67,0,0,1,.59,0c.27.09.5.27.77.37s.57,0,.68.37l.08-.09L56,5.68c.25,0,.37.2.54.34l.05,0c.2.3.68.16.81.56l0,0a.8.8,0,0,1,.52.41h0l.48.38,0,0a1.06,1.06,0,0,1,.18.6c-.3,1.24-.41,2.57-1.48,3.48s.71,2.08,0,3.12a.9.9,0,0,1-.56.25c-.3,0-.81-.15-.85.05-.42,2.21-2.85,3.48-2.72,6a4.37,4.37,0,0,1-1,2.23l-.31.53c-.4.92-.28,2-1,2.84-.1.17-.2.33-.29.5-.37.63,0,1.29,0,1.93-1.15,3.14-3.83,5.37-5,8.4a8.24,8.24,0,0,1-4.25,4.38,1.25,1.25,0,0,1-.59-.19c-.39-.52-.09-1,.15-1.43a2.63,2.63,0,0,1,.22-.55l0-.05c.41-.37.55-.94,1-1.3v0a4.91,4.91,0,0,1,.39-.51l0,0c.31-.21.2-.64.47-.87h0c.27-.23.17-.68.51-.88h0c.21-.26.09-.75.54-.87l0,0c0-.28.18-.42.39-.55v0a2.81,2.81,0,0,1,.4-.51l0,0c.47-.29,0-1,.58-1.26l0,0a.79.79,0,0,1,.4-.54h0A1.33,1.33,0,0,0,45.89,31.74Z"/><path class="cls-3" d="M10.29,92.72l.46,0c.28-.23.67-.19,1-.35h0c.2-.38.09-1.06.56-1.16,1.64-.38,2.71-1.58,3.95-2.55h0a.84.84,0,0,1,.83-.18c.67.42,1.31.11,2-.09a12,12,0,0,1,2.27-.63,8.84,8.84,0,0,0,1.13-.27,5,5,0,0,1,.55-.16,9.43,9.43,0,0,0,1.67-.3l.51-.21c.25-.11.51-.22.77-.31s.71-.17,1.06-.28l.48-.25.22-.17a5.26,5.26,0,0,1,1.41-1.07,4.26,4.26,0,0,1,.62,0c2.35-.23.8,1.52.85,2.09.13,1.52-2.72,2.74-4,1.88a.92.92,0,0,1,.23-.5c-.26-.05-.05.3-.25.31-.55,1.09-2.75,1.29-2,2.86.5,1.11,2.21.66,3.34.78,1.48.16,2.19.67,1.24,1.89-.64.83.23.56.31.65,1.39,1.62,3.71,2.29,4.47,4.65.36,1.09.29,1.54-.81,1.75a6,6,0,0,1-.58.25c-.63.13-1.24.16-1.64-.46-.16-.15.33-.21.08-.4a.66.66,0,0,1-.28.34c-.6.32-1.43.35-1.51,1.27a1.79,1.79,0,0,1-1,1.19v0c-.34.82-1.28.83-1.85,1.35h0a3.85,3.85,0,0,1-2.78,2,4.46,4.46,0,0,0-3.2,2.12v0c-.36.71-1.23.52-1.73,1l-.05,0A1.78,1.78,0,0,1,17.12,111h0a.62.62,0,0,1-.52.39l.09.09-.08-.1c-.29.61-.95.18-1.35.49h0c-.19.4-.62.3-.91.48h0a.52.52,0,0,1-.52.4l.09.12-.07-.13c-.56.72-1.33.22-2,.36a.58.58,0,0,1-.6-.3h0a.65.65,0,0,1-.27-.51c-.81-1.49-.45-3.11-.46-4.66s2-1.27,2.67-2.37c-1,.69-2.12,1-3.1,1.59-1.58,1-3.12,0-4.67.07-.28,0,0,.12-.21-.07-.43-.34-1-5.17-.57-5.59.22-.23.87-.21.38-.75a.66.66,0,0,0-1-.07c-.72.71-1.28.75-1.69-.28-.09-.83.57-1.09,1.1-1.46h0c.13-.16.27-.33.41-.48l0,0c.3-.2.18-.66.52-.85l0,0a.74.74,0,0,1,.51-.43,2.49,2.49,0,0,1,1-1.32c.53-.39,1-.86,1.47-1.3s1.08-.29,1.53-.66l0,0c.16-.15.28-.37.55-.33h0C9.56,92.85,10.07,93,10.29,92.72Z"/><path class="cls-4" d="M40.55,41.35c1.05.22,1.46-.64,2-1.23.87-.95,2.58-1.36,2.2-3.18,1.21-1.13,1-3.32,3-3.88a.71.71,0,0,0,.57-.62c.06-1.59,1.21-2.64,1.87-3.93a1.83,1.83,0,0,1,0-1.84h0c2.08-.37.77-2.2,1.37-3.21.9-1.32,1.85-.14,2.81,0-.36-.76-1.69-1.13-.91-2.25.45-.65,3.32-.36,4.11.37,1,.95.18,1.63-.39,2.32a9.88,9.88,0,0,1-1.49,1.4,13,13,0,0,0-1.58,1.1c1,1,2.65.48,3.55,1.58a2.79,2.79,0,0,1-1,1.66,1.19,1.19,0,0,1-1,.1c1.08.59,2.66,0,3.46,1.45-.51-1.31-1.16-2.5.34-3.48a1.82,1.82,0,0,1,1.91-.32c.77.36.64,1,.37,1.61a3.11,3.11,0,0,0,.11-2.57c-1.11-1.49-.37-2.43.64-3.28,1.3-1.11.62-2.51.78-3.79s-.68-2.76.74-3.79c.24,0,.38.1.37.35l-.06.14.11.1c.48.61.07,1.42.43,2.05v0a1,1,0,0,0,0,.76l0-.06c.63.27,0,1.08.58,1.38l.13.1.15-.08c.83,1.6-1,2.66-.84,4.13v0c1.43,2.27,1.3,2.84-1.33,5.83a4.19,4.19,0,0,0-.4.54c0,.15,0,.31,0,.46-.19,1.2-1.06,2.07-1.49,3.16l0-.05a1.31,1.31,0,0,1-.88,1h0c-.37,1.62-1.67,2.31-3,3-.82-.2-1.52-.14-1.64.92a2.66,2.66,0,0,1-2.55,2.46,5.63,5.63,0,0,0-.59.14c-1,.72-1.86,1.71-3.11.36-.56-.6-.61-.18-.58.39,0,.29-.39.54-.67.5-2.31-.36-4.39,1.19-6.67.79-.46-.08-.55-.16-.73.31A5.36,5.36,0,0,1,39.8,46a2.89,2.89,0,0,1-.86.43c-.74.33-1.5.22-1.34,1.73.13,1.2-1.31,2.55-2.66,3.3a1.75,1.75,0,0,1-.32.48,1.35,1.35,0,0,1-1.06-.11,1.49,1.49,0,0,1-.38-.28c-.11-.46-.21-.17-.31,0a2.38,2.38,0,0,1-.48.57,1.34,1.34,0,0,1-.71.36.84.84,0,0,1-.52-.22,2.38,2.38,0,0,1-.43-.76c0-.09,0-.19,0-.29l.08-.29.2-.23a2.06,2.06,0,0,0,1-1.13,1.74,1.74,0,0,1,.36-.45l0,0,.45-.45h0a4.4,4.4,0,0,1,1.88-1.77h0c.2-.29.11-.74.51-.92l0,.06c.49-.45.7-1.16,1.35-1.46h0a1.32,1.32,0,0,1,.46-.48h0c.24-.27.15-.78.62-.88l.19,0,.07-.17c.28-.28.57-.54.85-.81l.07,0a4.25,4.25,0,0,0,.47-.37h0c.26-.23.12-.74.57-.83l-.11-.08.1.1c0-.55.43-.76.8-1h0a.3.3,0,0,1,.4-.07,2.35,2.35,0,0,1-.42,1.43Z"/><path class="cls-5" d="M57.51,28c-.92-1.17-1.54.42-2.35.29.14-1.26.14-1.26-2.2-1.17.89-2.38,4-2.51,4.69-4.95-1.59-.9-2-1-4.11-.63.12,1,1.05,1,1.63,1.42s.37.76,0,1.14-.71.7-1.11.16a2,2,0,0,0-2.54-.84c0-1.26,1.18-2.05,1.19-3.29s.22-2.55,1.61-3.31c.25-.14,1-.89.63-1.7A.76.76,0,0,1,55.4,14c.66-.27.93.24,1.2.71l0,.21a.25.25,0,0,0,.37,0l0-.19c0-.15.06-.34,0-.45-1-1.5-1.21-2.86.52-4a.78.78,0,0,0,.19-1c-.38-.81.55-1,.73-1.48a.38.38,0,0,1,.41,0l.07.07a.82.82,0,0,0,.39.37l.08.08a7.74,7.74,0,0,1,.83.89l0,0c.2.3.67.17.83.53h0a1.17,1.17,0,0,1,.51.39l0,0,.43.44v0c.15.16.36.28.38.54l0,0c.58.28.12,1,.55,1.34h0a.91.91,0,0,1,.4.65l0,.1c-.08.22-.17.44,0,.65v0c.3.24.24.66.45,1l0,0a.54.54,0,0,1,.07.87,7.31,7.31,0,0,0-.14,3.93c.09.81-.76,1.79.32,2.53.18.13-.37.74-.63.81-.91.26-1,1.29-1.72,1.68-.27.14-.39.54,0,.67a1,1,0,0,1,.74,1.23,25.1,25.1,0,0,1-.48,2.86c-.09.35-.51.23-.77.07s-.68-.41,0-.75.31-.83-.14-1c-.85-.3-1.37.22-1.89.87s-.42.79.12,1.2a1.37,1.37,0,0,1,.31,1.68c-.16.41-.28,1-.82,1s-.64-.45-.57-1-.39-1.17-1-.93c-1.21.54-1.78-.32-2.71-1l2.06-.16C56.87,28.87,57.45,28.62,57.51,28Z"/><path class="cls-6" d="M32.79,101c.13-.54.81-.36,1-.78-1-1.09-1.15-3.22-2.51-3.44-1.74-.27-1.85-2.43-3.88-2.28.61-.57,1.46-.28,1.56-1,.06-.4.28-1.07-.51-.89-1.32.31-2.53-.42-3.87-.23-1,.13-1.19-.57-.69-1.55.83-1.64.83-1.64,2.87-2.73.11.77.47,1.12,1.21.62s1-1.48,2.15-1.4c.3,0,.36-.57.15-.72-1-.7.06-1.08.22-1.62l-1.11-.19c-.09-.17,0-.28.14-.35.61,0,1.22.28,1.83,0,.32-.23.62-.28.85.12l0,0c.64.52,1.38.23,2.08.28.33,0,.65,0,1,0l2,0h1c.81,0,1.63,0,2.44,0h.7a12.77,12.77,0,0,1,1.38.08,1.81,1.81,0,0,1,.92.39c.3.93-.37,1.3-1,1.45-1.33.33-1.38,1.72-2.12,2.52a1.44,1.44,0,0,0,.91,2.14c.51.12,1.08.33,1,1s-.61,1-1.2,1.23c-1.56.57-3.31.53-4.8,1.46,0,1.13,2.24,1.32,1.1,3-.72,1.07-1.86,1.5-2.66,2.38a2.37,2.37,0,0,1-.48.41h0C34,101.41,33.39,101.21,32.79,101Z"/><path class="cls-7" d="M30,13.37A3.15,3.15,0,0,1,27,14c-1.56-.4-2.26.54-3.4,1.08,1.36.75,1.45,1,.86,2.15-.38.72-1.53,1.13-2.07.5-.7-.82-2.28-1.06-2-2.68a1,1,0,0,0-.4-1c-.12,0-.28.05-.35.14-1.32,1.69-1.32,1.69.19,3.32-1.28-.12-1.28-.12-2-1-.81.78-.37,2.31-1.67,2.8a.74.74,0,0,1-.18-.82,11.76,11.76,0,0,0,.62-1l.15-.1,0-.17c.29-.47,0-1.14.49-1.54l0,.05c.3-.75.94-1.34,1.08-2.17a7.18,7.18,0,0,0,.28-1.13,1.64,1.64,0,0,1,.27-.48c.38-.25.85-.31,1.22-.57a4.39,4.39,0,0,1,.47-.27,3,3,0,0,0,1.29-.91c.31-.67-.13-1.3-.12-2A3.33,3.33,0,0,1,21.9,6.7a.9.9,0,0,1,.46-.4C23.21,5.89,24.25,7.37,25,6a3.43,3.43,0,0,1,1.29-.87A4.68,4.68,0,0,0,29.54,3.1a1.3,1.3,0,0,1,1.24,0c.75.63.18,1.37.16,2.18,1,0,1.67-1.51,2.76-.62.53-.88-.25-1.52-.17-2.25C34.67.58,36.64,1.3,38.22.83c.3,0,.73,0,.86.22.84,1.41,1.7,1.06,2.87.33a2.58,2.58,0,0,1,3.65,1c-.29,0-.57,0-.69.37-.43,1.17-1.22,1-2.07.55a.75.75,0,0,1-.2-.3l0-.16L42.55,3a.32.32,0,0,1-.17.3c-.12,1.23-.69,1.91-2,1.88A1.92,1.92,0,0,0,38.82,6a9.67,9.67,0,0,1-5.61,3.25l-.12-.11h-.17l-.1.12.1-.12a.32.32,0,0,1,.29.1,2.38,2.38,0,0,1-.49,1.21c-.43.66-.8,1-1.53.35-.24-.21-.56,0-.73.27l-.09.29a1.4,1.4,0,0,1-.42.42,3.78,3.78,0,0,1-.56.21c-.24.1-.68.12-.61.45s.7.41,1,.69C29.87,13.22,29.93,13.3,30,13.37Z"/><path class="cls-8" d="M2.41,100c.38,0,.43.94,1,.31,1-1.1,1.48-1.11,2.29,0,0,.06,0,.15.08.21l.62.88c-.09.43-.37.43-.69.46s-.93-.72-1,.12c0,.44-.41,1.44.14,1.4,1.79-.13.44,1,.71,1.49s-.56,1.11-.11,1.73c.77.14.92-1,1.7-.83,0,.55-.47,1.49.72,1.17,1.46-.4,3.13-.42,4.16-1.83.24-.34.63-.37,1-.48s.9-.23,1.08.39.08,1.17-.61,1.16a6.82,6.82,0,0,0-1.53.33c-.52.09-1,.6-.9.88.56,1.4-.83,3,.49,4.28.55.53.19.75-.36.84a.65.65,0,0,1-.88,0l-.12-.13-.17.06a2.63,2.63,0,0,0-2,0H8c-.47.35-.65-.14-.94-.32-.37-.48-1-.52-1.46-.85-.47-.6-1.11-1-1.55-1.66l-.12.12.11-.13c-.3,0-.44-.15-.51-.42l0,0a.5.5,0,0,1-.44-.49.54.54,0,0,1-.51-.42h0a.61.61,0,0,1-.45-.49l0,0A9.88,9.88,0,0,1,.66,106h0a2.45,2.45,0,0,1-.36-1l0,0c-.44-.25-.4-.53,0-.81v.05c.15-.33.1-.74.44-1l0,0c.3-.38.15-.76,0-1.14V102c.32-.43-.08-1.12.52-1.46l0,0A1.13,1.13,0,0,1,2.41,100Z"/><path class="cls-9" d="M52.88,41.38c1.49-.24,2.75-.69,2.71-2.58a1.41,1.41,0,0,1,.6-1.14c.81-.65,1.07,0,1.39.51.12.1.16.19.12.28s-.08.15-.12.15a.26.26,0,0,0-.1.37.25.25,0,0,1-.32.23c-.32.09.06.39-.16.51a2.93,2.93,0,0,1-2.25,2.06h0a.71.71,0,0,1-.54.39c-.51,2.16-2.52,2.13-4.07,2.78h0a.56.56,0,0,1-.51.27c-.8-.54-1.61-1.13-2.43,0a5.69,5.69,0,0,1-.52.33c-1.41.55-3.44.52-2.79,3a6.15,6.15,0,0,1-.9,1.57.73.73,0,0,1-.58.08,2.16,2.16,0,0,1-.54-1,.33.33,0,0,0-.31-.22.77.77,0,0,0-.31.26,1.72,1.72,0,0,1-.32.34,1.37,1.37,0,0,1-.43.23,1.51,1.51,0,0,1-.52,0,3.8,3.8,0,0,0-1.06-.09c-1.11.14,0,1.19-.62,1.52a3.1,3.1,0,0,1-3.11,1.07,1.13,1.13,0,0,1-.58-.4c-.09-.36-.18-.72-.26-1.08s0-.62.17-.57c2.16.81,1.54-2,3-2-.35-.63-1.22-.39-1.24-1s.58-.65,1.12-.65.78-.73,1.39-.56c.28.32.56.28.84,0-.06-1.13,1.19-1.53,1.41-2.53.1-.49.38-.26.63-.06a1.51,1.51,0,0,0,1.73.13c1.47-1,3-1,4.7-.79,1,.12.66-.1.29-.71-.2-.34,1.29-.87,1.79-.29,1,1.14,1.49,1.12,1.93-.36.14-.48.55-.4.79,0Z"/><path class="cls-10" d="M70.37,79.86a.21.21,0,0,0-.07.32,5.59,5.59,0,0,1-1.25,2l0,.07c-.27.18-.34.5-.51.75-.79,1.5-1.94,2.76-2.46,4.47a3.05,3.05,0,0,1-2.77,2.11c.26.37.78.52.83,1a.7.7,0,0,1-.32.5,3.18,3.18,0,0,1-.89.28,3.06,3.06,0,0,1-.58.2c-1.15.19-2.28.35-3.27-.49-.35-.36-1-.81-.41-1.26s.38-1,.41-1.64c.09-1.65,1.48-.71,2.37-.72a.26.26,0,0,0,.17-.12c0-.06,0-.14,0-.22.05-.62-.24-.13-.39-.12a2.83,2.83,0,0,1-.91.14c-.66,0-1.58.24-1.77-.6s.7-1.32,1.43-1.45.93-.49,1.23-1.18c.75-1.79,2.8-2,4.28-.53.09-.89-1.37-.79-1.11-1.76a3,3,0,0,1,.19-.58A10.48,10.48,0,0,0,65,79.62a1.63,1.63,0,0,1,.3-.51,10.92,10.92,0,0,0,2-1.76c1.49-.09,1.49-.09,2.07-1.83,2.16-.13.8,1.81,1.5,2.54v0a.72.72,0,0,1,.17.81C70.73,79.17,70.57,79.53,70.37,79.86Z"/><path class="cls-11" d="M45.6,2.37c-1.38-1-2.76-1-3.75-.07s-1.75.6-2.6-.56c-.23-.31-.72-.43-1.08-.64,0-.1.09-.2.13-.29a2.28,2.28,0,0,1,2-.74L41,0c.3,0,.6,0,.9,0A3.54,3.54,0,0,1,43,.19c.23.09.32.4.62.38l.25,0H44c.6.39,1.42-.12,2,.48h0c.57.39,1.33-.09,1.87.41h0c.67.48,1.7.15,2.22,1h0c.24,0,.37.21.54.34a.2.2,0,0,0,.34.09c.32.17.72.14,1,.39l.06,0c.21.3.62.19.87.43l0,0a1,1,0,0,0,.41.34.18.18,0,0,0,.25.18c.38.13.83.09,1.09.48l0,0c.17.06.24.14.2.23s-.09.15-.15.15c-.8.71-1.73,1.15-2.57.25s-2-.46-3-.48c-1.3,0-2-.32-2.38-1.58C46.65,2.71,46,2.64,45.6,2.37Z"/><path class="cls-12" d="M58.22,94.47l-.14-.06-.11.11c-1,.63-2.18-.15-3.18.47l0,0c-.62.47-.48,1.82-1.76,1.5-.78-1.16-2.44-2.29-.18-3.62a4.24,4.24,0,0,1,.59-.23A4.66,4.66,0,0,0,55,91.75c2.47-1.54,3.61-1.11,4.43,1.65a.82.82,0,0,1-.09.61h0C59,94.38,58.59,94.34,58.22,94.47Z"/><path class="cls-13" d="M34.6,60.56a.25.25,0,0,0,.32.09c.9,1.6-.61,2.2-1.3,3.13h0a1.17,1.17,0,0,1-.49.47v0a1.14,1.14,0,0,1-1,.85h0c-.39.36-.82.16-1.24.09a1.5,1.5,0,0,1-.46-.22.79.79,0,0,1-.23-.42,2,2,0,0,0-.06-.69c-.18-.28-.41-.55-.3-.93.8-.89,1-2.19,2.13-2.86a.88.88,0,0,1,.8.54c0,.37.18.19.33.06C33.64,60.37,34.11,60.14,34.6,60.56Z"/><path class="cls-12" d="M63.93,90.76c-.31-.74-1-.67-1.83-.84,1.07-1,2.61-1,3.22-2.25.15-.34.51-.59.64-.93a11.52,11.52,0,0,1,2.64-4.15c.18-.11.29-.06.33.14v.17a1,1,0,0,1-.45.61v0c-.33,1,0,2.23-1.26,2.79a.21.21,0,0,0-.13.32,5.83,5.83,0,0,1-.38,1.06l0,0C66,88.29,66,89.3,65.33,90a.24.24,0,0,0-.07.32c-.17.42-.62.35-.93.52h0C64.18,91.08,64,91.07,63.93,90.76Z"/><path class="cls-14" d="M43.75,85.42l-1-.11a1.28,1.28,0,0,0-1.08-.4,8.79,8.79,0,0,0-2.4.14,1.77,1.77,0,0,1-.94,0,1.13,1.13,0,0,1-.62-.73.54.54,0,0,1,.3-.53,4.17,4.17,0,0,1,1.65.09h1a1.9,1.9,0,0,1,1.35,0,17,17,0,0,0,3.7,0c.6-.26,1.31.08,1.89-.32l.84,0c.46-.39,1-.17,1.53-.22.73.22.47.82.52,1.3a.78.78,0,0,1-.31.49,2.11,2.11,0,0,1-1.06.06c-.64,0,.16.28-.06.41a.64.64,0,0,1-.3.46c-.82.34-1.37-.12-1.9-.63a1.87,1.87,0,0,0-1.88-.22A2.75,2.75,0,0,1,43.75,85.42Z"/><path class="cls-15" d="M14.34,24.77c.46,2.34-.25,4.62-.39,6.92.09.23.09.46-.18.5a.42.42,0,0,1-.46-.38,3.5,3.5,0,0,0-.2-1.1l0,0a.5.5,0,0,1-.3-.33,3.6,3.6,0,0,0-.2-.66c0-.26,0-.52,0-.78a.44.44,0,0,1-.16-.51A4.05,4.05,0,0,1,14.34,24.77Z"/><path class="cls-16" d="M37.61,59.62l-.19,0-.08.18c-.7.78-1.31.2-1.94-.11-.19-1,.94-1.58.9-2.55a2.69,2.69,0,0,1,.77-2,1,1,0,0,1,.57-.17c.54.24.4.81.59,1.22.48.49,1.46.76.78,1.75C38.34,58.33,38.57,59.48,37.61,59.62Z"/><path class="cls-11" d="M29,3.24a1.43,1.43,0,0,1,.09-.41c1.79-1,3.86-1,5.7-1.78l.17.05L35.05,1c.46-.34,1.06-.1,1.53-.37h1.64c.14,0,.2.09.18.17s0,.15-.09.15a1.33,1.33,0,0,0-.14.19c-.66-.19-.81,1-1.79.48s-1.81.37-2.65.84a2.68,2.68,0,0,1-2.84.89l-1.31,0A.42.42,0,0,1,29,3.24Z"/><path class="cls-17" d="M59.31,81.13c.92-.21,1.85-.29,2.16-1.5a1.29,1.29,0,0,1,1.5-.72l.19.2,0,.27a2,2,0,0,1-.14.53,2.77,2.77,0,0,1-.26.48,2.87,2.87,0,0,1-.34.44l-.19.2a5.23,5.23,0,0,1-.42.39,5.63,5.63,0,0,1-.45.38,3,3,0,0,1-2,.86c-.9-.1-2,0-1.87-1.41l0,0a.78.78,0,0,1,.89-.16l.48,0A.38.38,0,0,1,59.31,81.13Z"/><path class="cls-18" d="M5.71,90.82l0-.77a6.69,6.69,0,0,0,.2-2.4.86.86,0,0,1,.21-.57.78.78,0,0,1,.6.1,2.09,2.09,0,0,1,.4.49c1,1.08.43,2.43.63,3.65a1.35,1.35,0,0,1-.21.61c-.7.76-1.32.8-1.84-.19l0,0c-.12-.09-.17-.18-.13-.27s.09-.14.13-.14l0,0A.44.44,0,0,0,5.71,90.82Z"/><path class="cls-19" d="M50.17,84.89a.35.35,0,0,1,.08-.35c.88-1,2.13-.94,3.3-1.11l.58-.08.56-.11a1,1,0,0,0,.56-.57l1.36-.06c.42-.17.52.1.58.43a1.74,1.74,0,0,1-.49.8,4.77,4.77,0,0,1-1.06.73c-1,.51-2.13.34-3.15.72-.76.17-1.49.59-2.3.2a.43.43,0,0,1-.13-.4C50.1,85,50.13,84.89,50.17,84.89Z"/><path class="cls-20" d="M14,80.76c.15,1-.84,1.74-.5,2.74h0c-.37.4-.07,1-.38,1.4a.48.48,0,0,0-.12.33c-.92.84-1.13-.09-1.51-.61a1.41,1.41,0,0,1,.32-1.5c-.18-.29,1,.06.23-.52a.92.92,0,0,1,.24-.73,5.65,5.65,0,0,1,1.17-1.22l.29,0Z"/><path class="cls-21" d="M13.88,73c0-.16,0-.31.07-.46a.38.38,0,0,1,.45-.15,5.74,5.74,0,0,1,.75.73,1.28,1.28,0,0,1,.44,1,1.4,1.4,0,0,1-.18.52,2.49,2.49,0,0,1-.59.62,1.3,1.3,0,0,1-1.36.23,4.16,4.16,0,0,1-1-1,.45.45,0,0,1,.13-.51h0c.29-.24.2-.67.48-.91h.44A.22.22,0,0,0,13.88,73Z"/><path class="cls-22" d="M54.19,83.92c-1.41-.38-2.6.62-3.94.62-.53-.29-.19-.64-.07-1,.28-.35.73-.27,1.09-.44A.63.63,0,0,0,52,83a.54.54,0,0,1,.54-.09A2.13,2.13,0,0,0,54,82.87c.35,0,.9-.13.66.59l0,0A.71.71,0,0,1,54.19,83.92Z"/><path class="cls-23" d="M46,50.08a.24.24,0,0,0,0,.29.59.59,0,0,1-.43.37c-.88.2-1.26.93-1.68,1.61a.58.58,0,0,1-.56.14,1.55,1.55,0,0,1-.67-1c0-.93.66-1.41,1.26-1.94a1.06,1.06,0,0,1,.55-.12c.16,0,.17.17.16.32.14-.1.11-.19-.09-.28a.64.64,0,0,1,.15-.51,2.41,2.41,0,0,1,.48-.3c.5-.14.94-.87,1.53-.18,0,.39.16.81-.32,1.05l0-.06C46.36,49.74,46,49.79,46,50.08Z"/><path class="cls-24" d="M17.64,66.57a3,3,0,0,0,.43,0,.42.42,0,0,1,.46-.13,3.3,3.3,0,0,0,.89.52L20,67a2,2,0,0,1,1.4.44.88.88,0,0,1,0,.62,1.74,1.74,0,0,1-1.7.78,7.25,7.25,0,0,1-1.21-.26c-.48-.12-1-.14-1.45-.28a1,1,0,0,1-.46-.35l.58-.48C17.45,67.23,17.36,66.8,17.64,66.57Z"/><path class="cls-25" d="M5.76,92.84c.88-.22,1.42,0,1.42,1a.64.64,0,0,0,.38.69,1.76,1.76,0,0,1-1.44,1.31c-.34-.32-.16-.73-.19-1.11a3.56,3.56,0,0,1,0-.57c.83-.53-.57-.29-.22-.65l0,0c-.14-.07-.2-.15-.18-.25s.06-.17.1-.17A.34.34,0,0,0,5.76,92.84Z"/><path class="cls-26" d="M20.84,73c0,.42,0,.83,0,1.25-.39.57-1,.26-1.49.34a.92.92,0,0,1-.45-.44,2.78,2.78,0,0,1,.7-1.73,2.45,2.45,0,0,1,.9-.85.68.68,0,0,1,.54.24A1.36,1.36,0,0,1,20.84,73Z"/><path class="cls-27" d="M23.19,85.86l.86-.11a1.26,1.26,0,0,1,.63-.14c.43,0,1-.17,1.2.32s-.41.68-.77.92l-.61.26a4.21,4.21,0,0,1-1,.07A11.55,11.55,0,0,1,22.19,87c-.37-.07-.59-.27-.54-.67C22.09,85.87,22.74,86.23,23.19,85.86Z"/><path class="cls-28" d="M25,86.74c.19-.37,1-.28.79-.83-.16-.37-.8-.21-1.23-.24a2.54,2.54,0,0,1,0-.29l1.87,0c.78-.14.64.69,1,1a.32.32,0,0,1-.28.37l-1.48.17.09,0-.71.34a.28.28,0,0,1-.14-.31C24.88,86.8,24.91,86.74,25,86.74Z"/><path class="cls-29" d="M22.24,6.5a.77.77,0,0,1,0-.45l.47-.11a.93.93,0,0,1,.78,0l1.9.61c-.1.6-.77.32-1,.63-.58.74-.68.28-.92-.26S22.63,6.68,22.24,6.5Z"/><path class="cls-30" d="M42.23,54.14a.43.43,0,0,0-.34.22.43.43,0,0,0-.34.3l-.08.05a2.64,2.64,0,0,1-.61.23.88.88,0,0,1-.88-.35,1.4,1.4,0,0,1,.52-1.23,1.54,1.54,0,0,1,2-.13C42.59,53.59,42.68,53.94,42.23,54.14Z"/><path class="cls-31" d="M19.08,64.77a.47.47,0,0,0,.4-.19l.62-.17a1.28,1.28,0,0,1,.93.22,1.13,1.13,0,0,1,.36,1.47c-.53.35-1.07.14-1.61,0a1.28,1.28,0,0,1-1-.82A.58.58,0,0,1,19.08,64.77Z"/><path class="cls-32" d="M43.78,52.38c.17-1.65.17-1.65,1.86-1.82a.3.3,0,0,1,0,.41h0a2.58,2.58,0,0,1-.5.43v0c-.22.29-.13.78-.59.92a.52.52,0,0,0-.32.18A.27.27,0,0,1,43.78,52.38Z"/><path class="cls-33" d="M11.64,84.43c.55.09.45,1.26,1.33.8l-.72,1.11-.23.28c-.47.29-.9.25-1.09-.3A1.36,1.36,0,0,1,11.64,84.43Z"/><path class="cls-34" d="M9.32,90.32c0,.17,0,.34-.05.52l-.76.92c-.18-.17-.36-.22-.54,0H8a3.13,3.13,0,0,0-.44,0,2.16,2.16,0,0,0,0-.44C7.55,90,8.26,89.89,9.32,90.32Z"/><path class="cls-35" d="M19,88.2a2,2,0,0,0,.08.35c-.62.48-1.23,1.58-1.92.06.27-.36.75-.22,1.07-.45Z"/><path class="cls-36" d="M54.67,83.46a.7.7,0,0,0-.86-.33.87.87,0,0,1-.92,0,.34.34,0,0,1,.07-.53l2.29,0C55.54,83.29,55.41,83.6,54.67,83.46Z"/><path class="cls-37" d="M20.33,87.62c-.42.07-.8,0-1-.42l1.08-.61.16.19a1.32,1.32,0,0,1,.06.48A.66.66,0,0,1,20.33,87.62Z"/><path class="cls-38" d="M17.59,11.09l.06-.45h.42c0,.67,0,1.32-.9,1.35h0a.27.27,0,0,1-.11-.3c0-.1.07-.15.1-.15h0A4.57,4.57,0,0,0,17.59,11.09Z"/><path class="cls-39" d="M17.91,76.27c0,.46-.14.85-.71.88-1.07-.31-.45-.67,0-1l.45,0A.23.23,0,0,0,17.91,76.27Z"/><path class="cls-40" d="M20.84,73V71.6l.21-.18a.78.78,0,0,1,.8.16.36.36,0,0,1-.2.45Z"/><path class="cls-7" d="M19.91,17.5c.33,0,.88-.57.77.33-.07.54.24.56.61.59v.92c-.43.28-1.19.88-.58,1.11,1.75.66.18,2,.79,2.87.06.09-.77.65-.78.35,0-1-1.85-.83-1.26-2.09.12-.28,0-.38-.29-.41-.8-.08-1.44-.16-1.38-1.32s.56-1.51,1.55-1.68C19.56,18.14,19.72,17.73,19.91,17.5Z"/><path class="cls-41" d="M38.14,19.73c-.28,0-.38.2-.42.44-.36,0-.74,0-.94.42a1.25,1.25,0,0,0-.87.51l-.8.23c0-.63.56-.82,1-1.16s1.59-.55,1.27-1.72c0-.16.53-.74.78-.72,2.34.25,4.12-1.39,6.27-1.78a9.37,9.37,0,0,1,2.69-.23c-.48.74-1.42.31-2,.79-.94-.16-1.56.55-2.31.89a.93.93,0,0,0-1,.41,10.75,10.75,0,0,0-3.14,1.43v0a.8.8,0,0,1-.5.47Z"/><path class="cls-42" d="M12.64,22.54A.46.46,0,0,0,13,22h0c1.23-.15.85-1.1.91-1.84a1,1,0,0,1,.93-.15,1.23,1.23,0,0,1,.66.72,1,1,0,0,1-.15.95,3.61,3.61,0,0,1-.86,2.71c-.32-.32.48-1.76-1-.94-.49.35,0,1.05-.5,1.41A2.93,2.93,0,0,1,12.64,22.54Z"/><path class="cls-7" d="M24.5,18.77a3.92,3.92,0,0,1-2.22,3.08C22.9,20.39,22.24,18.79,24.5,18.77Z"/><path class="cls-5" d="M51.55,23.46a3.24,3.24,0,0,0,.22,1.3c.71,1.56.34,2-1.59,1.91.44-.93,1.08-1.81.81-3A3.08,3.08,0,0,1,51.55,23.46Z"/><path class="cls-7" d="M30.46,11.08c.84,1,.52,1.7-.46,2.29-1.61-.61-1-1.22,0-1.83h0A5,5,0,0,0,30.46,11.08Z"/><path class="cls-7" d="M26.45,15.39c-.19.34,0,1-.66.92-.33,0-.34-.41-.34-.7s.15-.72.59-.77S26.5,15.07,26.45,15.39Z"/><path class="cls-7" d="M25.35,18.2c.63.18,1.43,0,1.79.91A1.57,1.57,0,0,1,25.35,18.2Z"/><path class="cls-7" d="M23.79,22.29c-.21.74-.41,1.24-1.13,1.06a.42.42,0,0,1-.24-.33C22.58,22.42,23.05,22.27,23.79,22.29Z"/><path class="cls-43" d="M14.39,34.49a1.4,1.4,0,0,1-.35-.1,1.94,1.94,0,0,1,.38-1.76C15.3,33.26,14.64,33.87,14.39,34.49Z"/><path class="cls-7" d="M22.15,19.68a.4.4,0,0,1-.27.36c-.37.09-.49-.19-.57-.48s.24-.3.4-.36S22.12,19.21,22.15,19.68Z"/><path class="cls-5" d="M50.18,26.67c0,.61,0,1.23,0,1.84A1.11,1.11,0,0,1,50.18,26.67Z"/><path class="cls-11" d="M42.38,3.29a.93.93,0,0,1,.46-.92h0v.92Z"/><path class="cls-44" d="M15.36,20.71a2.17,2.17,0,0,0,.36,0c.17.44.26.85-.39,1Z"/><polygon class="cls-7" points="21.29 18.42 21.39 18.23 21.48 18.31 21.29 18.42"/><path class="cls-5" d="M56.6,14.75h.45c0,.18.14.41-.13.46s-.38-.19-.32-.46Z"/><path class="cls-11" d="M54.78,5.14l.44,0a.79.79,0,0,1,.13.4A.57.57,0,0,1,54.78,5.14Z"/><path class="cls-6" d="M32.69,101.34c-.49.09-1-.08-1.4.43l-2.64.17c.21-1.42.21-1.42,2.27-1.44.48.68,1.22.37,1.85.49C32.74,101.11,32.71,101.23,32.69,101.34Z"/><path class="cls-45" d="M25,86.74l0,.47c-.64.67-1.54.12-2.25.47l-.6-.52c-.12-.22-.06-.33.2-.33l1.29,0a.77.77,0,0,0,.86,0Z"/><path class="cls-6" d="M27.81,85l1.27-.12a2.4,2.4,0,0,1-1.43,1.36C27.7,85.84,27.76,85.42,27.81,85Z"/><path class="cls-6" d="M30.92,100.49c.26-.39.86-.8,1-.53.37.54-.3.45-.6.53A2.26,2.26,0,0,1,30.92,100.49Z"/><path class="cls-45" d="M21.78,88.05a.67.67,0,0,1,.88-.33C22.47,88.12,22.14,88.12,21.78,88.05Z"/><polygon class="cls-6" points="26.79 88.12 26.89 87.93 26.98 88.01 26.79 88.12"/><path class="cls-6" d="M27.15,86.31l.53-.08a.66.66,0,0,1-.6.44C27.11,86.55,27.13,86.43,27.15,86.31Z"/><path class="cls-46" d="M29.92,53.22c.31-.48-.09-1.43.94-1.43.28.09.34.38.52.56h.45c.15-.15.3-.31.44-.47s.32-.3.47-.46.32-.21.47,0h0c.4.32.74.84,1.37.46h.47a1.64,1.64,0,0,1,.32.54c.15.87-.36,1.6-.56,2.56.78.19,1.56-.55,2.3-.1l.22.22a3.85,3.85,0,0,0-.46,2.33c-1.06.55-1.57,1.81-2.8,2.13l-1.63.65c-1.15.79-1.27,2.37-2.43,3.14a.55.55,0,0,1,.15.39c0,.14,0,.22,0,.22a4.74,4.74,0,0,1-2.44,2.12l-1.83,1.39c-1.19.63-1.86,0-2.35-1a1.76,1.76,0,0,1-.1-.6c.07-.41.42-.62.68-.89a1.41,1.41,0,0,0,.29-1c-.08-.66.42-.94.81-1.28.11-.26,0-.44-.2-.63a1,1,0,0,1-.21-.77c.62-.53,1.53-.93.86-2a2.3,2.3,0,0,1,.75-1.27c.26-.76-.79-1.93.71-2.3a4.57,4.57,0,0,0,3.06-1.51C30.64,53.67,30,53.55,29.92,53.22Z"/><path class="cls-47" d="M57.51,28c.91,1.19-.48.93-.83,1.33C56.51,28.65,57,28.3,57.51,28Z"/><path class="cls-9" d="M34.58,51.89c-.76.76-1.19.52-1.37-.46A3.14,3.14,0,0,1,34.58,51.89Z"/><path class="cls-9" d="M31,51a1.6,1.6,0,0,1,0-.38c.91.21.6-1,1.24-1.09C32.4,50.5,32.08,51.07,31,51Z"/><path class="cls-48" d="M39.62,46c0,.35,0,.81-.55.72-.33,0-.31-.42-.3-.71Z"/><path class="cls-9" d="M33.21,51.43h-.47c.07-.31,0-.82.51-.69S33.24,51.18,33.21,51.43Z"/><path class="cls-5" d="M63.46,24.59c-.05.13-.09.36-.16.37s-.25-.15-.14-.3.25-.29.31-.26C63.75,24.51,63.48,24.29,63.46,24.59Z"/><path class="cls-9" d="M31.38,52.35l-.52-.56a.32.32,0,0,1,0-.35A.93.93,0,0,1,31.38,52.35Z"/><path class="cls-9" d="M32.27,51.88l-.44.47Z"/><path class="cls-9" d="M30.59,51.1l.35,0a1.75,1.75,0,0,1,0,.4Z"/><path class="cls-2" d="M40.55,41.35c0,.06-.08.18-.11.18s-.11-.1.1-.19Z"/><polygon class="cls-5" points="63.47 24.38 63.58 24.19 63.66 24.27 63.47 24.38"/><path class="cls-2" d="M56.6,14.75q.23.46.45,0c.39.31.44.64-.06.83-.31.12-.8.27-1-.21C56,15.05,56.32,14.88,56.6,14.75Z"/><path class="cls-4" d="M60.38,26.5l-.2.06c0-.06-.06-.16,0-.17C60.32,26.26,60.4,26.31,60.38,26.5Z"/><path class="cls-49" d="M38.34,99.47c-.25-.39-.43-.3-.57.08-.48.11-1.06-.12-1.39.43-.37,0-.73.08-.91.47l-.85.09A1.77,1.77,0,0,1,35,99.49c.38-.56,1.57-.13,1.43-.69-.27-1,.48-.87.91-1.15.61-.41.27-.79-.12-1.05S36.33,96.28,36,96a1.18,1.18,0,0,1-.41-1.23c.09-.6.6-.26.88-.4A21.71,21.71,0,0,1,41,93.17c.55-.13,1-.23,1.18-.88-.13-.39-.45-.34-.75-.35-1.54,0-.86-2-2.1-2.35a.79.79,0,0,1,.06-.42c.32-.58,1-.72,1.49-1,.74-.4-.62-1.13.28-1.5a3.69,3.69,0,0,1,1.3-.39,1.41,1.41,0,0,0,1.26-.85.77.77,0,0,1,.82-.46l.27,0c.27,0,.54,0,.81,0l1,0h.25c.53.45,1,1.13,1.82.89,1-.72,1.94-.17,2.74.33s1.41,1.22.87,2.09S51,88.4,50.47,88a2.64,2.64,0,0,0-1.91-.63c-.69.09-1.87-.51-1.74,1,.1,1.06-.22,2.41,1.65,2.22,1.3-.12,2.55-.45,3.83-.62.79-.11,1.72-.54,2.33.3s-.43,1.35-.54,2.07a1.35,1.35,0,0,1-.71.86h-.45c-1,.68-1.85,1.33-3.48.89a3.83,3.83,0,0,0-4.64,2c-.63,1.33-2.55,1-3.29,2.25-.18.5-.9.2-1.05.73-.62.16-1.36-.23-1.86.42l-.14,0Z"/><path class="cls-50" d="M35.5,84l.44.06a.65.65,0,0,1,.29.43,1,1,0,0,1-.15.5c-.28.22-.7.07-1,.34H34.05c0-.41-.79-.3-.61-.79.12-.31.5-.24.8-.23S35.15,84.39,35.5,84Z"/><path class="cls-51" d="M39.12,84.88c.88-.76,1.91-.3,2.88-.36a.69.69,0,0,1-.41.75H41C40.4,84.91,39.65,85.4,39.12,84.88Z"/><path class="cls-52" d="M39.12,84.88c.61.15,1.35-.28,1.84.4l-2.73.06a.28.28,0,0,1,.09-.45Z"/><path class="cls-53" d="M35.11,85.31c.08-.41.42-.42.73-.48a1.33,1.33,0,0,1,1.36-.13.47.47,0,0,1,.19.62Z"/><path class="cls-54" d="M41.59,85.27c.13-.25.27-.5.41-.75.6-.06,1,.06.7.79Z"/><path class="cls-55" d="M37.39,85.32a.91.91,0,0,1-.06-.4.68.68,0,0,1,.23-.43l.24-.08.52.48-.09.45Z"/><path class="cls-56" d="M30.89,3.31a8.33,8.33,0,0,1,2.84-.89c.45.49,1,.93.84,1.73-.14.61,0,1.65-1.16.73a.6.6,0,0,0-1,.18c-.65,1.55-1.58.92-2.83.31C30.79,5,30.6,4,30.89,3.31Z"/><path class="cls-57" d="M19.45,8.79a4.15,4.15,0,0,0,1.49-1.62,1,1,0,0,1,1.27-.65c0,.6,0,1.2,0,1.79q-.19.21-.39.39A2.46,2.46,0,0,0,20.87,10a1.34,1.34,0,0,1-.5.67A3.18,3.18,0,0,1,19.45,8.79Z"/><path class="cls-56" d="M29,3.24l.6.11c-.3,1.94-1.82,2.05-3.32,2.2C26.67,4.2,28.19,4.14,29,3.24Z"/><path class="cls-2" d="M30,11.54c-.46.61-.92,1.22,0,1.83-.86-.06-2.14.24-2.13-1C27.88,10.92,29.26,11.81,30,11.54Z"/><path class="cls-58" d="M20.37,10.63c0-.26.09-.52.13-.79.58-.3,1,.08,1.44.35a1.2,1.2,0,0,1,.35.51,2.46,2.46,0,0,1-2,.77Z"/><path class="cls-58" d="M21.79,8.45a1.42,1.42,0,0,1,.41-.14c0,.8.86,1.56.09,2.39l-.13-.12C21.67,9.93,20.11,9.47,21.79,8.45Z"/><path class="cls-58" d="M19,12c0-1.26.67-.87,1.32-.54C20.17,12.35,19.65,12.34,19,12Z"/><path class="cls-56" d="M29.9,6.8c.24.12.36.3.27.52a.56.56,0,0,1-.67.4c-.17,0-.2-.2-.11-.36S29.53,6.79,29.9,6.8Z"/><path class="cls-56" d="M31.36,6.84l-.16-.13c.06,0,.13-.1.18-.09s.11.08.16.12Z"/><path class="cls-2" d="M32.64,9.43c-.12.05-.28.18-.37.15s-.15-.23.06-.28a1.93,1.93,0,0,1,.42-.05Z"/><path class="cls-58" d="M18.6,13.38c-.1-.41-.14-.81.32-1.06A.81.81,0,0,1,18.6,13.38Z"/><path class="cls-2" d="M30.46,11.08l-.46.46Z"/><path class="cls-2" d="M33.21,9.25h-.46C32.9,8.93,33.06,8.93,33.21,9.25Z"/><path class="cls-11" d="M42.84,2.37c0-.06.08-.19.1-.18s.12.1-.1.18Z"/><path class="cls-59" d="M49.74,45c-.26.78-1,1.37-1,2.27L48,48a.91.91,0,0,0-1.43.26v.08c-.71-.12-.66,1.1-1.46.83-.13-.24-.29-.45-.62-.35a1.1,1.1,0,0,1-.51.09.26.26,0,0,1-.21-.37c-.28-.49-1.11-.86-.67-1.53s.72-1.53,1.8-1.53a7.45,7.45,0,0,0,1.77-.37c0,.14.15.28.26.24S47,45.1,47,45C48.2,43.17,48.46,43.17,49.74,45Z"/><path class="cls-60" d="M35,52.35c0-.15,0-.3,0-.46A4.87,4.87,0,0,0,38.22,51l.23.12.38.33a4.35,4.35,0,0,0,1,.25c1.11.52.83,1.19.21,1.91s-1,1.59-2.12,1.6l-.61,0h0a3.54,3.54,0,0,1-.35-.42,6.23,6.23,0,0,0-.41-.71A2.42,2.42,0,0,1,35,52.35Z"/><path class="cls-61" d="M39.66,53.32c.36-.48,1.09-1,0-1.44-.27-.39,0-.71.13-1.05a3.34,3.34,0,0,1,.76-1.16.75.75,0,0,1,.49-.52c.4-.14.56-.54.85-.81.81.43.44,1.2.54,1.84.59.25-.51,1.22.54,1.29.32.26.33.65.42,1l-.59.73h-.19l-.17.1a2.38,2.38,0,0,0-1.81.41C40.09,54.09,39.88,53.69,39.66,53.32Z"/><path class="cls-62" d="M43,51.47a2.89,2.89,0,0,1-.32.29c-.27.2-.57.57-.91.24s-.16-.68.11-1,.54-.48.58-.87a1.15,1.15,0,0,0,.37-.25c.29-.12.39-.47.7-.56a.7.7,0,0,1,.8.29C43.86,50.27,43.15,50.69,43,51.47Z"/><path class="cls-60" d="M38.22,51c-1-1.5-1-1.55,1-1.78.06.07.11.15.16.22v.27a7.52,7.52,0,0,1-.32,1,1.27,1.27,0,0,1-.33.43.37.37,0,0,1-.46-.13Z"/><path class="cls-63" d="M47,45c.68.15.91.54.51,1.14a.64.64,0,0,1-1,.19c-.47-.41.09-.8.15-1.22A.27.27,0,0,0,47,45Z"/><path class="cls-64" d="M40.53,49.67c0,.48.08,1-.46,1.3l-.3,0c-.61-.26-1.11-.57-.54-1.32v0c.24-.36.56-.28.88-.13Z"/><path class="cls-65" d="M41.87,48.34c0,.53.3,1.45-.85.81h0c.27-.21.14-.67.49-.83A.5.5,0,0,1,41.87,48.34Z"/><path class="cls-61" d="M43.29,49.6l-.51.33a1.19,1.19,0,0,1,1-1.42.37.37,0,0,1,0,.25C44,49.24,43.54,49.37,43.29,49.6Z"/><path class="cls-61" d="M41.51,48.32a1,1,0,0,1-.49.83C41,48.77,41.07,48.43,41.51,48.32Z"/><path class="cls-61" d="M40.1,49.52l-.88.13c0-.16,0-.32,0-.48A.92.92,0,0,1,40.1,49.52Z"/><path class="cls-4" d="M57,39.05c-.06,0-.17-.09-.17-.11s.11-.11.2.1Z"/><path class="cls-66" d="M53.38,93.16c.3-.93-.14-2.12,1.17-2.73-3-.18-5.64,1.35-8.64.38.27-1,1.06-2.18-.17-3.25-.25-.22.15-.78.57-.75C48,86.93,50,86,51.25,88a.5.5,0,0,0,.77.19c.33-.24.13-.5,0-.78a3.12,3.12,0,0,0-3.24-1.63c0-.12.07-.24.1-.36.39-.46.84-.3,1.29-.13l2.3-.45c1.09-.5,2.49.37,3.42-.8.23-.18.47-.35.71-.52a.69.69,0,0,1,1,0c.88-.29,1.91-.33,2.37-1.35.92.31.9-1.08,1.72-1,1.08.17,2.16-1.1,3.23,0-.51.85.24,1,.73,1.3s.71.64.23,1.07-.58.52-1-.32-2.67-.37-3.29.67c-.77,1.29-.77,1.27-1.77,1.7-.4.17-.9.27-.95.85.89.71,1.93-.36,2.83.24l0,0c.31.55,1.28.59,1.2,1.53-1.25.3-2.25-.91-3.57-.52-.1.86,1.07.73,1.15,1.42-.27.5-.83.52-1.27.76-.83.45.29.57.21.91.62.91,1.48,1.82,0,2.74l0,0c-.46-.1-.69-.24-.77-.86-.18-1.49-.49-1.66-1.89-1.23-.69.22-1.49.31-1.9,1.09C54.48,93.2,53.91,93.14,53.38,93.16Z"/><path class="cls-67" d="M64.85,81.24a3.94,3.94,0,0,0-2.67.7c-.78.62-.69-.21-.56-.73h0a2,2,0,0,0,.48-.43h0a1.23,1.23,0,0,0,.4-.6.34.34,0,0,1,0-.31A3.48,3.48,0,0,0,63,79.4h0c.42-.57.1-1.48.9-1.86h0c.61-1,.64-2.31,1.36-3.3l0-.81a1.56,1.56,0,0,0,.57-1.28,4.77,4.77,0,0,1,2.57,0A1.76,1.76,0,0,0,68,74.91a.49.49,0,0,0,.54.39l.51.56c.22.37.8.43.82,1,0,.92-.52,1.32-1.4,1a3.37,3.37,0,0,0-1.28-.21c-.32.91-1.4,1.05-1.84,1.84-.92.42.07,1.31-.46,1.83Z"/><path class="cls-12" d="M59.36,93.61c.76-.92.1-1.83,0-2.74,1,.89,2.22-.08,3.23.5,0,.12,0,.25-.06.37-.36.06-.74.06-1,.42-1.16.42.22.91,0,1.36Z"/><path class="cls-66" d="M64.85,81.24c0-.07,0-.17,0-.22-.88-1.11-.88-1.11.48-1.61C65.24,80,65.52,80.76,64.85,81.24Z"/><path class="cls-66" d="M65.31,79.41c.11-1.11,1.19-1.25,1.84-1.84C67.39,79,66.06,78.94,65.31,79.41Z"/><path class="cls-68" d="M61.61,86.75c.06-.32-.14-.81.46-.8a.4.4,0,0,1,.29.26c.06.56-.36.53-.73.56Z"/><path class="cls-12" d="M63.65,90.94c-.21.51-.65.43-1.07.42A.91.91,0,0,1,63.65,90.94Z"/><path class="cls-69" d="M41.52,98.3c-.08-.89.43-1.71,1.16-1.71A1.82,1.82,0,0,0,44.75,95a1.41,1.41,0,0,1,1.14-1c1.32-.31,2.66-.54,4-.76a.78.78,0,0,1,.62.2c.64.94,1,.39,1.53-.14.16-.17.59-.08.89-.1-.86.91-1.36,1.8.14,2.6.06,0-.08.41-.13.63-.83.75-2,0-2.87.75-1.16.36-2.45,0-3.57.59-1.09.07-2.24-.31-3.27.39Z"/><path class="cls-70" d="M27.68,66.09a6.87,6.87,0,0,1,2.24-2.34.5.5,0,0,1,.57,0,.43.43,0,0,1,.13.36c0,.13,0,.19-.07.19-.07.15-.14.29-.2.43a2.08,2.08,0,0,1-1.18,1.58c-.33.11-.56.61-1,.27Z"/><path class="cls-71" d="M29,66.06c.42-.47.65-1.13,1.32-1.36l.65.07c.1.44.21.87.32,1.3a.58.58,0,0,0-.47.42L29.57,67a.39.39,0,0,0-.46-.32A.38.38,0,0,1,29,66.06Z"/><path class="cls-72" d="M32.67,61c0,.23.14.49.06.66s-.34.26-.53.34-.25-.16-.26-.26c0-.27.21-.35.39-.47l.39-.24Z"/><path class="cls-73" d="M30.51,63.82l-.59-.07a2.74,2.74,0,0,1,.09-.39c.36,0,.74-.1.87.39C30.79,63.94,30.67,64,30.51,63.82Z"/><path class="cls-71" d="M30.51,63.82a.67.67,0,0,0,.37-.07l-.33.52A1.38,1.38,0,0,1,30.51,63.82Z"/><path class="cls-74" d="M50.15,85.3l-1.29.13c-.41-.12-1,0-.6-.85s.48,0,.63.07c.39.33.85.16,1.28.24A1.12,1.12,0,0,0,50.15,85.3Z"/><path class="cls-75" d="M44.57,85a1.72,1.72,0,0,1,2.37-.06h0c-.38.36-.85.2-1.29.24s-.68.05-.94-.23Z"/><path class="cls-76" d="M36,84.45c0-.14,0-.28,0-.41a3.48,3.48,0,0,1,1.84,0,.93.93,0,0,0,0,.37l0,.06A2,2,0,0,1,36,84.45Z"/><path class="cls-66" d="M65.26,74.25c-.16,1.22-.11,2.53-1.36,3.3a2.26,2.26,0,0,0-.31-1.3,1.63,1.63,0,0,0,.83-1.2C64.43,74.44,64.85,74.37,65.26,74.25Z"/><path class="cls-66" d="M63.91,77.54c-.38.58-.26,1.4-.9,1.86,0-.17,0-.33,0-.49C62.82,78.13,63,77.56,63.91,77.54Z"/><path class="cls-77" d="M34.07,59.57c.72-1,1.08-2.45,2.8-2.13,0,1-1,1.41-1.33,2.2Z"/><path class="cls-78" d="M37.38,56.4a.81.81,0,0,0,1-.21,1.44,1.44,0,0,1,1.26-.7,1.89,1.89,0,0,1,0,1.91c0,.13,0,.26-.07.4l-.84,0c0-.37.4-.88-.41-.86C37.89,57,37.43,57,37.38,56.4Z"/><path class="cls-79" d="M13,24.88c.12-.49-.06-1.08.5-1.41a7.11,7.11,0,0,1,0,1.13C13.51,24.85,13.43,25.25,13,24.88Z"/><path class="cls-80" d="M8.11,82.28a.49.49,0,0,0,.4-.52,10.25,10.25,0,0,0,2.2-1.84c.5-.41-.13-.63,0-.94a6.13,6.13,0,0,1,1.21-1.28A3,3,0,0,0,13,76a1.3,1.3,0,0,1,.49-.74,1.79,1.79,0,0,0,1.39-.48l.43-.47h0a1.93,1.93,0,0,1,1.3-.73,1.19,1.19,0,0,1,.57.18c.27.41,0,.77-.12,1.13a5,5,0,0,0-.26.52,5.68,5.68,0,0,1-.35,1.13c-.43.72-1.19,1.17-1.59,1.92-.45.31-.91.61-1.37.91-.41.56-1.09,1-.73,1.87,0,.3.06.6-.25.8s-.42.24-.41.52c.27.18.27.36,0,.52a2.14,2.14,0,0,0-.45,1.31,1.51,1.51,0,0,0-.5,1.63c.16.51.51.44.89.31,0,.39,0,.79,0,1.18-.4.19-.42.56-.43.93a.44.44,0,0,0-.44.44c-1.5-.68-1.39.69-1.8,1.4-.7.16-1.53.1-1.77,1a.75.75,0,0,1-.4-1.12c.6-1-.14-1.73-.45-2.54.46-1.42,1.51-2.49,2.15-3.79,0-.74-1.3-.26-1.16-1.17A.49.49,0,0,0,8.11,82.28Z"/><path class="cls-81" d="M14.87,78.5c-.15-.57-.83-1.3.45-1.44a1.11,1.11,0,0,0,.94-.84c.26-.26.18-.67.43-.94h0a.29.29,0,0,1,.47,0v.83c-.08.34-.53.7,0,1a1.71,1.71,0,0,0-.59,1.25A1.91,1.91,0,0,1,14.87,78.5Z"/><path class="cls-82" d="M12.57,81.29c-.86-.16-1-.65-.43-1.24a1.49,1.49,0,0,1,1.36-.64c0,.38.56.5.45.94l-.18.16a1.52,1.52,0,0,0-.47.15C13,80.82,12.86,81.13,12.57,81.29Z"/><path class="cls-83" d="M14,80.35c.26,0,.71-.24.74.09.06.55-.46.26-.74.32l0,0c-.26-.17-.26-.33,0-.5Z"/><path class="cls-66" d="M62.09,80.79l-.48.43A.62.62,0,0,1,62.09,80.79Z"/><path class="cls-66" d="M62.51,80.18a.71.71,0,0,1-.4.6Z"/><path class="cls-66" d="M63,79.4l-.47.47C62.55,79.56,62.76,79.47,63,79.4Z"/><path class="cls-84" d="M8.84,83.91A5,5,0,0,1,6.69,87.7c-.06-.19-.11-.38-.17-.57a.25.25,0,0,1,0-.38l.09-.47c.42-.39,0-.85.11-1.28A6.57,6.57,0,0,0,8.84,83.91Z"/><path class="cls-36" d="M55.87,84.05c0,.35,0,.73-.57.73-.95,0-1.9,0-2.85.07C53.47,84.08,54.82,84.7,55.87,84.05Z"/><path class="cls-36" d="M57.53,83.52h-1c.13-.15.27-.29.41-.43Z"/><path class="cls-36" d="M54.19,83.92l.51-.44A.54.54,0,0,1,54.19,83.92Z"/><path class="cls-85" d="M13.5,75.3c0,.31-.05.63-.07,1-.36.68-1,1.13-1.29,1.88L10.68,79h.05a.4.4,0,0,1,0-.53l.45-1.36c.69-.43.45-1.15.53-1.77a1.74,1.74,0,0,0,.91-.88C13.25,74.39,13.42,74.8,13.5,75.3Z"/><path class="cls-80" d="M10.74,78.46c0,.18,0,.35,0,.53-.12-.06-.31-.1-.33-.18C10.33,78.56,10.54,78.5,10.74,78.46Z"/><path class="cls-71" d="M12.57,81.29c.07-.61.33-1,1-.94l.09.18-.13.15c-.33.48-.37,1.17-1,1.4C12.54,81.82,12.55,81.56,12.57,81.29Z"/><path class="cls-36" d="M14.35,72.49l.18-.76a1.57,1.57,0,0,0,1-1,.49.49,0,0,0,.31-.16,2,2,0,0,0,.44-.37h0c.54-.41,1.3-.74.3-1.49-.28-.21.06-.53.2-.78l1.89.1c.07.73-.45,1.25-.64,1.89-.09.19-.17.44-.34.52-.78.33-.37.51.07.7,0,.73-.51,1.21-.82,1.78a.87.87,0,0,1-.48.21,1.28,1.28,0,0,0-1,0,2.29,2.29,0,0,0-.66.29C14.31,73.3,14.43,72.85,14.35,72.49Z"/><path class="cls-86" d="M14.8,73.47c0-.33.31-.46.57-.59a.68.68,0,0,1,.84,0h.48a.68.68,0,0,1,0,1,3,3,0,0,1-1.38.45A.87.87,0,0,0,14.8,73.47Z"/><path class="cls-86" d="M15.32,74.35a.59.59,0,0,1-.43.47A.49.49,0,0,1,15.32,74.35Z"/><path class="cls-87" d="M52.49,83.13a.55.55,0,0,1,.38-.15l.94.15A.75.75,0,0,1,52.49,83.13Z"/><path class="cls-88" d="M44.19,48.65c.13-.18.25-.36.39-.53s.51-.45.75-.3c.45.28.09.62-.06.93l-.19.39h-.17l-.17,0A.59.59,0,0,1,44.19,48.65Z"/><path class="cls-89" d="M44.19,48.65a.64.64,0,0,1,.55.51.49.49,0,0,0-.06.44h0l-.2,0-.19.06-1,0c0-.4.39-.52.5-.84A1,1,0,0,0,44.19,48.65Z"/><path class="cls-9" d="M44.68,49.6l.13.09-.14-.08Z"/><path class="cls-90" d="M17.63,69.73c-.21-.88.73-1.07,1-1.67a1,1,0,0,1,.83.37c1.05.53,2.07,0,3.11-.07a1.63,1.63,0,0,1,1.55.56,1.27,1.27,0,0,0-.12.36c-.53.7-.62,1.81-1.81,1.87-.49.57-1-.2-1.43,0l-.41.29-.37.35a.85.85,0,0,1-.5,0c-.24-.3-.48-.16-.72,0a.65.65,0,0,1-.45-.26,3,3,0,0,1-.29-.77A2.32,2.32,0,0,0,17.63,69.73Z"/><path class="cls-91" d="M19.88,65.71l1.48.3a1.78,1.78,0,0,0,.32-.35,2.12,2.12,0,0,1,.44-.59,1,1,0,0,1,.73-.14.8.8,0,0,1,.41.29c.09.33-.15.66,0,1s.56.7.41,1.2c-.47.61-1.18.61-1.84.71a.9.9,0,0,1-.55-.17c0-.14,0-.27,0-.41a1.73,1.73,0,0,0-1.83-.11l-.2,0-.21,0C18.35,66.38,19.58,66.27,19.88,65.71Z"/><path class="cls-92" d="M21.29,67.94a.93.93,0,0,0,.4-.06L22,68a.67.67,0,0,1,.21.86c-1,.67-1.89.1-2.74-.43A2.66,2.66,0,0,0,21.29,67.94Z"/><path class="cls-93" d="M19.88,65.71c.11.31.43.69-.12.84a.83.83,0,0,0-.73.88c-.43-.14-.48-.52-.55-.89s.06-.87.1-1.31c.13,0,.26,0,.39-.06A1.11,1.11,0,0,0,19.88,65.71Z"/><path class="cls-93" d="M19.44,67.42c.64-.56,1.26-.67,1.83.11Z"/><path class="cls-92" d="M21.69,67.88c.35-.84,1.53,0,1.84-.9a.69.69,0,0,1-.11-.75l.24-.13c.51.8,1.09,1.5,2.19,1.38-.06.63-1.26.42-1,1.31h-.19l-.2,0c-.78-.67-1.9-.14-2.68-.79Z"/><path class="cls-94" d="M28.18,67c.07.67-.13,1.16-.86,1.31C27.06,67.51,27.7,67.31,28.18,67Z"/><path class="cls-95" d="M29,66.06c0,.2,0,.4.08.6a.82.82,0,0,1,0,.35l-.92,0c0-.16,0-.33,0-.49Z"/><path class="cls-96" d="M22.33,86.83a1.38,1.38,0,0,0-.2.33l-.81.14c-.34.12-.67.21-.93-.17a1,1,0,0,0,0-.3c.32-.14.72-.15.9-.53l.47,0Z"/><path class="cls-45" d="M20.39,87.13l.93.17a1.16,1.16,0,0,1-1,.32Z"/><path class="cls-97" d="M18.43,70.55l.12,1a2.88,2.88,0,0,1-.1.87c-.21.65.42,1,.54,1.54l.09.52h0a1.63,1.63,0,0,1-.9.1A2.83,2.83,0,0,1,17.07,74l-.37-.08c0-.32,0-.64,0-1a1.56,1.56,0,0,1,.94-1.78A.74.74,0,0,1,18.43,70.55Z"/><path class="cls-40" d="M19.43,72.52a2,2,0,0,0-1.34-.44.56.56,0,0,1,.46-.58.49.49,0,0,0,.44,0,.49.49,0,0,1,.47,0l.45-.08.26,0,.18.19a.79.79,0,0,1-.45.93h-.18l-.15-.16Z"/><path class="cls-40" d="M20.84,71.6h-.49l-.07-.09a.3.3,0,0,1,.08-.36v0c.43-.11.62,0,.45.47Z"/><path class="cls-9" d="M29.92,53.22c.57.07,1.2,0,1.62.58-1.37,1-2.24,2.7-4.27,2.33-.56-1.34,1-.93,1.3-1.55a.52.52,0,0,0,.09-.36C29.24,54.08,28.93,52.84,29.92,53.22Z"/><path class="cls-28" d="M24.48,86.8c-.27.41-.55.42-.86,0Z"/><path class="cls-86" d="M17.07,74a.89.89,0,0,1,1,.39q.24.15.15.27a.24.24,0,0,1-.18.12l-.38.1a1.08,1.08,0,0,0-.49.43h0l-.47,0C16.82,74.84,17,74.41,17.07,74Z"/><path class="cls-26" d="M18.05,74.76a2.56,2.56,0,0,1,0-.39l1,.07C18.86,75,18.49,75,18.05,74.76Z"/><path class="cls-81" d="M17.18,75.29a.44.44,0,0,1,.49-.43C17.59,75.1,17.48,75.3,17.18,75.29Z"/><path class="cls-98" d="M20.82,71.63l-.45-.47c.23-1,.57-1.4,1.24-.25.09.15.39.16.58.24,0,.11-.07.23-.1.35a.34.34,0,0,0-.33.11Z"/><path class="cls-99" d="M39.64,57.4l0-1.91a1,1,0,0,1,.52-.84l1,0c0,.14-.07.28-.1.42l-.5.42c-.82.41-.4,1.17-.51,1.78A1.4,1.4,0,0,0,39.64,57.4Z"/><path class="cls-100" d="M46.53,48.23c0-.49-.16-1.13.55-1.26s.76.51.88,1C47.57,48.54,47,48.29,46.53,48.23Z"/><path class="cls-101" d="M22.21,65.19c0,.37-.06.74-.49.89-.28-.43-.19-1.09-.82-1.3l-1.15-.13a.9.9,0,0,0,.2-.34,1.35,1.35,0,0,0,1-1.34,1.1,1.1,0,0,0,.47-.88h.4c.67.15.75.74.94,1.26a7.06,7.06,0,0,0,.53.92.73.73,0,0,1-.07.52C22.9,65,22.47,64.88,22.21,65.19Z"/><path class="cls-102" d="M20.9,64.78c1,0,.86.67.82,1.3a.86.86,0,0,1-.36-.07C21.2,65.6,21.05,65.19,20.9,64.78Z"/><path class="cls-103" d="M23.61,59.72c.28,0,.46-.15.46-.46l.46-.46c.36-.3.68-.09,1,.06l.22.17c0,.08.08.17.13.25a.83.83,0,0,0,.58.84c.45.13.9.34.72.89-.22.72-.79.49-1.28.31s-.71-.17-1,.19a6.15,6.15,0,0,1-2.69,2.33,3,3,0,0,0-.46-1.74l.41-.59Z"/><path class="cls-104" d="M28.57,54.58c-.3.63-1.12.82-1.3,1.55-.5.11-.95.44-.74.92s.78-.13,1.38.11a2,2,0,0,1-1.1,1.17c-.32-.29-.88-.1-1.12-.55a1,1,0,0,1,.12-.94c.18-.41.37-.83.55-1.25h0c.14-.16.27-.33.42-.48a.21.21,0,0,0,.11-.29A3.36,3.36,0,0,1,28.57,54.58Z"/><path class="cls-105" d="M25.86,57.89c.39,0,.82-.1.95.44-.31.32-.62.63-.92,1l-.06-.21-.19,0-.16.11-.95-.34c0-.47,0-.95-.05-1.42a1.45,1.45,0,0,1,.41-.06C25.27,57.42,25.49,57.78,25.86,57.89Z"/><path class="cls-106" d="M25.86,57.89c-.84.69-.82-.08-1-.57A1.35,1.35,0,0,0,25,57l.81-.14C25.83,57.2,25.84,57.54,25.86,57.89Z"/><path class="cls-107" d="M21.81,68l1.8,0c.56,0,.79.33.88.83a.31.31,0,0,1-.37.14l-1.92-.06Z"/><path class="cls-16" d="M37.26,54.49c0,.21.05.41.07.62-1.22-.23-2.17,1-3.6.76.44-1.31,1.21-2.3,1.31-3.52.44,1,1.71.65,2.26,1.45A.44.44,0,0,0,37.26,54.49Z"/><path class="cls-108" d="M22.25,63.84a4.1,4.1,0,0,1,2.69-2.33l.48.48c-.32.57.12.75.49,1-.19.54-1.65.15-1,1.32a1.38,1.38,0,0,1-.91.4,1.4,1.4,0,0,1-.92-.41C22.78,64.22,22.4,64.26,22.25,63.84Z"/><path class="cls-109" d="M32.94,54.32c.05.21.11.31.08.34-.34.43-.55,1.05-1.26,1-.1,0-.25-.24-.23-.35C31.67,54.4,32.3,54.39,32.94,54.32Z"/><path class="cls-110" d="M23.11,64.27l.94.07a1.2,1.2,0,0,1,.49.72l0,.22c-.23.41-.61.36-1,.34a.79.79,0,0,1-.47-.33v-.16c-.15-.1-.19-.2-.13-.29s.1-.14.15-.14S23.11,64.42,23.11,64.27Z"/><path class="cls-111" d="M31.42,58.35a3.76,3.76,0,0,1,.48-.68c.22-.2.55-.3.73,0a.65.65,0,0,1-.12.57,3.9,3.9,0,0,1-.68.51A1,1,0,0,1,31.42,58.35Z"/><path class="cls-112" d="M25.91,63c-.79,0-.88-.37-.49-1C26.19,62,26.55,62.23,25.91,63Z"/><path class="cls-101" d="M23.11,65.29a.43.43,0,0,1,.47.33c0,.16.05.32.08.48l-.22.05a.52.52,0,0,1-.78-.05Z"/><path class="cls-113" d="M24.06,64.77c0-.14,0-.29,0-.43l.9-.06a.75.75,0,0,1-.38,1,.57.57,0,0,0-.13-.21Z"/><path class="cls-114" d="M30.83,56.46c0,.06,0,.17-.07.19s-.24,0-.21-.21.1-.1.15-.15A1.09,1.09,0,0,1,30.83,56.46Z"/><path class="cls-115" d="M31.42,58.35l.41.42-.34.12C31.47,58.71,31.45,58.53,31.42,58.35Z"/><path class="cls-14" d="M45.6,84.91l1.36,0c-.34.56-.89.46-1.42.44-.11-.11-.14-.21-.09-.29S45.55,84.91,45.6,84.91Z"/><path class="cls-116" d="M45.6,84.91a1,1,0,0,1-.06.42c-.35,0-.8.2-.81-.43Z"/><path class="cls-69" d="M43.43,94.72s0,.15-.06.15a.49.49,0,0,1-.2-.05c0-.06,0-.16.06-.16A.39.39,0,0,1,43.43,94.72Z"/><path class="cls-117" d="M36,84.45l1.86,0-.49.45-1.49-.09A1.29,1.29,0,0,0,36,84.45Z"/><path class="cls-118" d="M21.79,8.45c-.35.48-.68.93.1,1.37.17.1.18.5.27.76-.78.27-1.08-.55-1.66-.74C20.63,9.1,20.77,8.37,21.79,8.45Z"/><path class="cls-100" d="M44.83,46.93c0,.17-.08.26-.26.22a.29.29,0,0,1-.18-.13c-.11-.16-.07-.33.11-.34S44.72,46.84,44.83,46.93Z"/><path class="cls-119" d="M40.07,51l-.43.91c-.46-.05-1.27,1.25-1.33-.34.08-.25.19-.45.49-.44l0,0c.39-.51.83-.39,1.27-.08Z"/><path class="cls-61" d="M38.8,51.1a.54.54,0,0,1-.49.44c0-.19,0-.38-.05-.56Z"/><path class="cls-61" d="M40.1,51l-1.27.08c-.06-.53-.3-1.12.4-1.45C39.08,50.37,40,50.45,40.1,51Z"/><path class="cls-120" d="M12.14,78.13c-.23-1.08.65-1.4,1.29-1.88C13.56,77.26,13,77.77,12.14,78.13Z"/><path class="cls-86" d="M16.69,75.28a1.11,1.11,0,0,1-.43.94A.93.93,0,0,1,16.69,75.28Z"/><path class="cls-121" d="M18.43,70.55l-.8.6c-.39-.08-1,0-.5-.71.17-.23.33-.47.5-.71C18.2,69.7,18.55,69.89,18.43,70.55Z"/><path class="cls-122" d="M16.21,72.92l-.84,0c0-.28,0-.63.34-.67C16.23,72.15,16.22,72.56,16.21,72.92Z"/><path class="cls-97" d="M20.36,71.14a3.21,3.21,0,0,1-.08.36l-.37-.06Z"/><path class="cls-97" d="M19.46,71.52H19C19.14,71.32,19.3,71.31,19.46,71.52Z"/><path class="cls-123" d="M22.66,66.1l.78.05.09.83A1.11,1.11,0,0,1,22.66,66.1Z"/><path class="cls-124" d="M23.12,64.7a2,2,0,0,1,0,.43l-.89.06C22.33,64.68,22.76,64.75,23.12,64.7Z"/><path class="cls-125" d="M19.43,72.52c.09-.11.17-.46.29,0Z"/><path class="cls-126" d="M25.48,59.14c.07-.24.19-.25.35-.07l-.17.09Z"/><path class="cls-127" d="M24.06,64.77l.38.3C24.19,65.13,24.05,65.05,24.06,64.77Z"/></g></g></g></svg>