<?xml version="1.0" encoding="utf-8"?>
<!-- Generator: Adobe Illustrator 24.0.0, SVG Export Plug-In . SVG Version: 6.00 Build 0)  -->
<svg version="1.1" id="Layer_1" xmlns="http://www.w3.org/2000/svg" xmlns:xlink="http://www.w3.org/1999/xlink" x="0px" y="0px"
	 viewBox="0 0 180.3 57.5" style="enable-background:new 0 0 180.3 57.5;" xml:space="preserve">
<style type="text/css">
	.st0{fill:#E7DFDD;}
	.st1{fill:#D5F1FF;}
	.st2{fill:#FFFFFD;}
	.st3{fill:#e76650;}
</style>
<title>10-2</title>
<g id="Layer_2_1_">
	<g id="OBJECTS">
		<path class="st0" d="M7.1,0h166.1c3.9,0,7.1,3.2,7.1,7.1v43.3c0,3.9-3.2,7.1-7.1,7.1H7.1c-3.9,0-7.1-3.2-7.1-7.1V7.1
			C0,3.2,3.2,0,7.1,0z"/>
		<path class="st1" d="M47.8,28.7c0,9.4-7.7,17.1-17.1,17c-9.4,0-17.1-7.7-17-17.1c0-9.4,7.7-17,17.1-17c9.4,0,17,7.5,17.1,16.9
			C47.8,28.6,47.8,28.7,47.8,28.7z"/>
		<circle class="st2" cx="30.7" cy="24.1" r="6.3"/>
		<path class="st2" d="M41.5,41.2c0,0.3,0,0.6,0,0.8c-6.3,5.1-15.2,5.1-21.5,0c0-0.3,0-0.6,0-0.8c0-5.9,4.8-10.8,10.8-10.8
			S41.5,35.2,41.5,41.2L41.5,41.2z"/>
		<path class="st3" d="M68.9,25.5v-8.7H70v7.8h4v0.9H68.9z"/>
		<path class="st3" d="M78.2,25.7c-1.1,0-2.1-0.6-2.6-1.6c-0.3-0.6-0.4-1.2-0.4-1.8c0-0.6,0.1-1.2,0.4-1.8c0.2-0.5,0.6-0.9,1-1.2
			c1-0.6,2.1-0.6,3.1,0c0.4,0.3,0.8,0.7,1,1.2c0.3,0.6,0.4,1.2,0.4,1.8c0,0.6-0.1,1.2-0.4,1.8C80.2,25.1,79.2,25.7,78.2,25.7
			L78.2,25.7z M78.2,24.8c0.4,0,0.8-0.1,1.1-0.3c0.3-0.2,0.5-0.6,0.7-0.9c0.1-0.4,0.2-0.8,0.2-1.2c0-0.4-0.1-0.8-0.2-1.2
			c-0.1-0.4-0.4-0.7-0.7-0.9c-0.7-0.5-1.5-0.5-2.2,0c-0.3,0.2-0.5,0.6-0.7,0.9c-0.1,0.4-0.2,0.8-0.2,1.2c0,0.4,0.1,0.8,0.2,1.2
			c0.1,0.4,0.4,0.7,0.7,0.9C77.4,24.7,77.8,24.8,78.2,24.8z"/>
		<path class="st3" d="M82.7,25.5V19h1v1h0.1c0.1-0.3,0.3-0.6,0.6-0.8c0.3-0.2,0.7-0.3,1.1-0.3H86v1h-0.2c-0.1,0-0.3,0-0.4,0
			c-0.3,0-0.6,0.1-0.8,0.2c-0.2,0.1-0.4,0.3-0.6,0.5c-0.2,0.2-0.2,0.5-0.2,0.8v4.1L82.7,25.5z"/>
		<path class="st3" d="M89.7,25.7c-0.6,0-1.1-0.1-1.6-0.4c-0.4-0.3-0.8-0.7-1-1.2c-0.3-0.6-0.4-1.2-0.4-1.8c0-0.6,0.1-1.2,0.3-1.8
			c0.2-0.5,0.6-0.9,1-1.2c0.5-0.3,1-0.4,1.6-0.4c0.3,0,0.7,0.1,1,0.2c0.7,0.3,1.3,0.8,1.6,1.6c0.2,0.5,0.3,1,0.2,1.5v0.4h-5v-0.9h4
			c0-0.3-0.1-0.7-0.2-1c-0.1-0.3-0.4-0.5-0.6-0.7c-0.3-0.2-0.6-0.3-1-0.3c-0.4,0-0.7,0.1-1,0.3c-0.3,0.2-0.5,0.5-0.7,0.8
			c-0.2,0.3-0.2,0.7-0.2,1v0.6c0,0.4,0.1,0.9,0.3,1.3c0.2,0.3,0.4,0.6,0.7,0.8c0.3,0.2,0.7,0.3,1.1,0.3c0.2,0,0.5,0,0.7-0.1
			c0.2-0.1,0.4-0.2,0.6-0.3c0.2-0.2,0.3-0.4,0.4-0.6l1,0.3c-0.1,0.3-0.3,0.6-0.5,0.9c-0.3,0.3-0.6,0.5-0.9,0.6
			C90.5,25.6,90.1,25.7,89.7,25.7z"/>
		<path class="st3" d="M93.9,25.5V19h1v1H95c0.1-0.3,0.4-0.6,0.7-0.8c0.3-0.2,0.7-0.3,1.1-0.3c0.4,0,0.8,0.1,1.1,0.3
			c0.3,0.2,0.5,0.5,0.7,0.8h0.1c0.2-0.3,0.4-0.6,0.8-0.8c0.4-0.2,0.8-0.3,1.2-0.3c0.5,0,1.1,0.2,1.4,0.5c0.4,0.5,0.6,1.1,0.6,1.7
			v4.4h-1v-4.4c0-0.4-0.1-0.7-0.4-1c-0.3-0.2-0.6-0.3-0.9-0.3c-0.4,0-0.8,0.1-1.1,0.4c-0.3,0.3-0.4,0.7-0.4,1v4.3h-1v-4.5
			c0-0.3-0.1-0.7-0.4-0.9c-0.5-0.4-1.2-0.5-1.7-0.1c-0.2,0.1-0.4,0.3-0.5,0.6c-0.1,0.3-0.2,0.6-0.2,0.9v4.1L93.9,25.5z"/>
		<path class="st3" d="M108.3,17.9c-0.2,0-0.4-0.1-0.5-0.2c-0.3-0.2-0.3-0.6-0.1-0.9c0,0,0.1-0.1,0.1-0.1c0.3-0.3,0.7-0.3,1,0
			c0.3,0.2,0.3,0.6,0.1,0.9c0,0-0.1,0.1-0.1,0.1C108.6,17.8,108.4,17.9,108.3,17.9z M107.8,25.5V19h1v6.5L107.8,25.5z"/>
		<path class="st3" d="M110.6,28v-9h1v1h0.1c0.1-0.1,0.2-0.3,0.3-0.4c0.2-0.2,0.3-0.4,0.6-0.5c0.3-0.2,0.7-0.2,1-0.2
			c0.5,0,1,0.1,1.5,0.4c0.4,0.3,0.8,0.7,1,1.2c0.3,0.6,0.4,1.2,0.4,1.8c0,0.6-0.1,1.2-0.4,1.8c-0.2,0.5-0.6,0.9-1,1.2
			c-0.4,0.3-0.9,0.4-1.4,0.4c-0.3,0-0.7-0.1-1-0.2c-0.2-0.1-0.4-0.2-0.6-0.4c-0.1-0.2-0.2-0.3-0.3-0.5h-0.1V28H110.6z M111.6,22.3
			c0,0.4,0.1,0.9,0.2,1.3c0.1,0.3,0.3,0.7,0.6,0.9c0.3,0.2,0.6,0.3,1,0.3c0.4,0,0.8-0.1,1.1-0.3c0.3-0.2,0.5-0.6,0.6-0.9
			c0.1-0.4,0.2-0.8,0.2-1.3c0-0.4-0.1-0.8-0.2-1.3c-0.1-0.4-0.3-0.7-0.6-0.9c-0.6-0.4-1.5-0.4-2.1,0c-0.3,0.2-0.5,0.5-0.6,0.9
			C111.6,21.4,111.6,21.8,111.6,22.3L111.6,22.3z"/>
		<path class="st3" d="M122.6,20.5l-0.9,0.3c-0.1-0.2-0.1-0.3-0.3-0.5c-0.1-0.1-0.3-0.3-0.4-0.4c-0.2-0.1-0.5-0.2-0.7-0.1
			c-0.4,0-0.7,0.1-1,0.3c-0.2,0.1-0.4,0.4-0.4,0.7c0,0.2,0.1,0.4,0.3,0.6c0.3,0.2,0.6,0.3,0.9,0.4l1,0.2c0.5,0.1,0.9,0.3,1.3,0.6
			c0.3,0.3,0.4,0.7,0.4,1.1c0,0.4-0.1,0.7-0.3,1c-0.2,0.3-0.5,0.6-0.9,0.7c-0.4,0.2-0.9,0.3-1.3,0.3c-0.6,0-1.2-0.1-1.7-0.4
			c-0.4-0.3-0.7-0.8-0.8-1.3l1-0.2c0.1,0.3,0.2,0.6,0.5,0.8c0.3,0.2,0.6,0.3,1,0.3c0.4,0,0.8-0.1,1.1-0.3c0.3-0.2,0.4-0.4,0.4-0.7
			c0-0.2-0.1-0.4-0.2-0.6c-0.2-0.2-0.5-0.3-0.7-0.3l-1.1-0.3c-0.5-0.1-1-0.3-1.3-0.7c-0.3-0.3-0.4-0.7-0.4-1.1c0-0.4,0.1-0.7,0.3-1
			c0.2-0.3,0.5-0.5,0.8-0.7c0.4-0.2,0.8-0.2,1.2-0.2c0.5,0,1.1,0.1,1.5,0.4C122.2,19.6,122.4,20,122.6,20.5z"/>
		<path class="st3" d="M128.3,22.9V19h1v6.5h-1v-1.1h-0.1c-0.2,0.3-0.4,0.6-0.7,0.9c-0.4,0.2-0.8,0.4-1.2,0.3
			c-0.4,0-0.8-0.1-1.1-0.3c-0.3-0.2-0.6-0.5-0.8-0.8c-0.2-0.4-0.3-0.9-0.3-1.4V19h1v4.1c0,0.4,0.1,0.8,0.4,1.1
			c0.3,0.3,0.6,0.4,1,0.4c0.3,0,0.5-0.1,0.8-0.2c0.3-0.1,0.5-0.3,0.7-0.6C128.2,23.6,128.3,23.2,128.3,22.9z"/>
		<path class="st3" d="M131.1,25.5V19h1v1h0.1c0.1-0.3,0.4-0.6,0.7-0.8c0.3-0.2,0.7-0.3,1.1-0.3c0.4,0,0.8,0.1,1.1,0.3
			c0.3,0.2,0.5,0.5,0.7,0.8h0.1c0.2-0.3,0.4-0.6,0.8-0.8c0.4-0.2,0.8-0.3,1.2-0.3c0.5,0,1.1,0.2,1.4,0.5c0.4,0.5,0.6,1.1,0.6,1.7
			v4.4h-1v-4.4c0-0.4-0.1-0.7-0.4-1c-0.3-0.2-0.6-0.3-0.9-0.3c-0.4,0-0.8,0.1-1.1,0.4c-0.3,0.3-0.4,0.7-0.4,1v4.3h-1v-4.5
			c0-0.3-0.1-0.7-0.4-0.9c-0.5-0.4-1.1-0.5-1.7-0.1c-0.2,0.1-0.4,0.3-0.5,0.6c-0.1,0.3-0.2,0.6-0.2,0.9v4.1H131.1z"/>
		<path class="st3" d="M71.3,40.1c-0.5,0-1-0.1-1.4-0.4c-0.4-0.3-0.8-0.7-1-1.2c-0.2-0.6-0.4-1.2-0.3-1.8c0-0.6,0.1-1.2,0.3-1.8
			c0.2-0.5,0.6-0.9,1-1.2c0.4-0.3,0.9-0.4,1.4-0.4c0.3,0,0.7,0.1,1,0.2c0.2,0.1,0.4,0.3,0.6,0.5c0.1,0.2,0.2,0.3,0.3,0.4h0.1v-3.2h1
			v8.7h-1v-1h-0.1c-0.1,0.1-0.2,0.3-0.3,0.5c-0.2,0.2-0.4,0.4-0.6,0.5C71.9,40,71.6,40.1,71.3,40.1z M71.4,39.2c0.4,0,0.7-0.1,1-0.3
			c0.3-0.2,0.5-0.5,0.6-0.9c0.2-0.4,0.2-0.9,0.2-1.3c0-0.4-0.1-0.9-0.2-1.3c-0.1-0.3-0.4-0.6-0.6-0.9c-0.3-0.2-0.6-0.3-1-0.3
			c-0.4,0-0.8,0.1-1.1,0.3c-0.3,0.2-0.5,0.5-0.6,0.9c-0.2,0.4-0.2,0.8-0.2,1.3c0,0.4,0.1,0.9,0.2,1.3c0.1,0.4,0.3,0.7,0.6,0.9
			C70.6,39.1,71,39.2,71.4,39.2z"/>
		<path class="st3" d="M78.9,40.1c-1.1,0-2.1-0.6-2.6-1.6c-0.3-0.6-0.4-1.2-0.4-1.8c0-0.6,0.1-1.2,0.4-1.8c0.2-0.5,0.6-0.9,1-1.2
			c0.5-0.3,1-0.4,1.6-0.4c1.1,0,2.1,0.6,2.6,1.6c0.3,0.6,0.4,1.2,0.4,1.8c0,0.6-0.1,1.2-0.4,1.8c-0.2,0.5-0.6,0.9-1,1.2
			C80,39.9,79.4,40.1,78.9,40.1z M78.9,39.2c0.4,0,0.8-0.1,1.1-0.3c0.3-0.2,0.5-0.6,0.7-0.9c0.1-0.4,0.2-0.8,0.2-1.2
			c0-0.4-0.1-0.8-0.2-1.2c-0.1-0.4-0.4-0.7-0.7-0.9c-0.7-0.5-1.5-0.5-2.2,0c-0.3,0.2-0.5,0.6-0.7,0.9c-0.1,0.4-0.2,0.8-0.2,1.2
			c0,0.4,0.1,0.8,0.2,1.2c0.1,0.4,0.4,0.7,0.7,0.9C78.1,39.1,78.5,39.2,78.9,39.2z"/>
		<path class="st3" d="M84.4,31.2v8.7h-1v-8.7H84.4z"/>
		<path class="st3" d="M88.9,40.1c-0.5,0-1.1-0.1-1.6-0.4c-0.4-0.3-0.8-0.7-1-1.2c-0.3-0.6-0.4-1.2-0.4-1.8c0-0.6,0.1-1.2,0.4-1.8
			c0.2-0.5,0.6-0.9,1-1.2c1.3-0.9,3.1-0.5,4,0.9c0.1,0.1,0.1,0.2,0.2,0.3c0.3,0.6,0.4,1.2,0.4,1.8c0,0.6-0.1,1.2-0.4,1.8
			c-0.2,0.5-0.6,0.9-1,1.2C90,39.9,89.5,40.1,88.9,40.1z M88.9,39.2c0.4,0,0.8-0.1,1.1-0.3c0.3-0.2,0.5-0.6,0.6-0.9
			c0.1-0.4,0.2-0.8,0.2-1.2c0-0.4-0.1-0.8-0.2-1.2c-0.1-0.4-0.3-0.7-0.6-0.9c-0.7-0.5-1.6-0.5-2.2,0c-0.3,0.2-0.5,0.6-0.6,0.9
			c-0.1,0.4-0.2,0.8-0.2,1.2c0,0.4,0.1,0.8,0.2,1.2c0.1,0.4,0.3,0.7,0.6,0.9C88.1,39.1,88.5,39.2,88.9,39.2z"/>
		<path class="st3" d="M93.4,39.9v-6.5h1v1h0.1c0.1-0.3,0.4-0.6,0.7-0.8c0.3-0.2,0.6-0.3,1-0.3h0.5v1h-0.2c-0.1,0-0.3,0-0.4,0
			c-0.3,0-0.6,0.1-0.8,0.2c-0.2,0.1-0.5,0.3-0.6,0.5c-0.1,0.2-0.2,0.5-0.2,0.8V40L93.4,39.9z"/>
		<path class="st3" d="M105.9,34.9l-0.9,0.3c-0.1-0.2-0.1-0.3-0.3-0.5c-0.1-0.1-0.3-0.3-0.4-0.3c-0.2-0.1-0.5-0.2-0.7-0.1
			c-0.4,0-0.7,0.1-1,0.3c-0.2,0.1-0.4,0.4-0.4,0.7c0,0.2,0.1,0.4,0.3,0.6c0.3,0.2,0.6,0.3,0.9,0.4l1,0.2c0.5,0.1,0.9,0.3,1.3,0.7
			c0.3,0.3,0.4,0.7,0.4,1.1c0,0.4-0.1,0.7-0.3,1c-0.2,0.3-0.5,0.6-0.9,0.7c-0.4,0.2-0.9,0.3-1.3,0.3c-0.6,0-1.2-0.1-1.7-0.4
			c-0.4-0.3-0.7-0.8-0.8-1.3l1-0.2c0.1,0.3,0.3,0.6,0.5,0.8c0.3,0.2,0.6,0.3,1,0.3c0.4,0,0.8-0.1,1.1-0.3c0.3-0.2,0.4-0.4,0.4-0.7
			c0-0.2-0.1-0.4-0.2-0.6c-0.2-0.2-0.5-0.3-0.7-0.3l-1.2-0.3c-0.5-0.1-1-0.3-1.3-0.7c-0.5-0.6-0.6-1.5-0.1-2.1
			c0.2-0.3,0.5-0.5,0.8-0.7c0.4-0.2,0.8-0.2,1.2-0.2c0.5,0,1.1,0.1,1.5,0.4C105.5,34,105.7,34.4,105.9,34.9z"/>
		<path class="st3" d="M108,32.3c-0.2,0-0.4-0.1-0.5-0.2c-0.3-0.2-0.3-0.6-0.1-0.9c0,0,0.1-0.1,0.1-0.1c0.3-0.3,0.7-0.3,1,0
			c0.3,0.2,0.3,0.6,0.1,0.9c0,0-0.1,0.1-0.1,0.1C108.4,32.2,108.2,32.3,108,32.3z M107.5,39.9v-6.5h1v6.5H107.5z"/>
		<path class="st3" d="M113.2,33.4v0.9h-3.4v-0.9H113.2z M110.8,31.8h1v6.2c0,0.2,0,0.4,0.1,0.6c0.1,0.1,0.2,0.2,0.3,0.3
			c0.1,0,0.3,0.1,0.4,0.1c0.1,0,0.2,0,0.3,0h0.2l0.2,0.9c-0.1,0-0.2,0-0.3,0.1c-0.4,0.1-0.9,0-1.3-0.1c-0.3-0.1-0.5-0.3-0.7-0.6
			c-0.2-0.3-0.3-0.6-0.3-0.9L110.8,31.8z"/>
		<path class="st3" d="M120,40.1c-0.4,0-0.8-0.1-1.1-0.2c-0.3-0.2-0.6-0.4-0.8-0.7c-0.2-0.3-0.3-0.7-0.3-1.1c0-0.3,0.1-0.6,0.2-0.9
			c0.1-0.2,0.4-0.4,0.6-0.5c0.3-0.1,0.5-0.2,0.8-0.3c0.3-0.1,0.6-0.1,0.9-0.2l1-0.1c0.2,0,0.4-0.1,0.6-0.1c0.1-0.1,0.2-0.2,0.2-0.3
			l0,0c0-0.4-0.1-0.7-0.3-1c-0.3-0.2-0.6-0.4-1-0.3c-0.4,0-0.8,0.1-1.1,0.3c-0.2,0.2-0.4,0.4-0.6,0.7l-1-0.3
			c0.1-0.4,0.4-0.7,0.7-0.9c0.3-0.2,0.6-0.4,0.9-0.5c0.3-0.1,0.7-0.1,1-0.1c0.2,0,0.5,0,0.7,0.1c0.3,0.1,0.6,0.2,0.8,0.3
			c0.3,0.2,0.5,0.4,0.6,0.7c0.2,0.4,0.3,0.8,0.3,1.3V40h-1v-0.9l0,0c-0.1,0.2-0.2,0.3-0.3,0.5c-0.2,0.2-0.4,0.3-0.6,0.4
			C120.7,40.1,120.4,40.1,120,40.1z M120.2,39.2c0.3,0,0.7-0.1,1-0.2c0.3-0.1,0.5-0.3,0.6-0.6c0.1-0.2,0.2-0.5,0.2-0.8v-0.9
			c-0.1,0.1-0.2,0.1-0.3,0.1c-0.2,0-0.3,0.1-0.5,0.1l-0.5,0.1l-0.4,0c-0.2,0-0.5,0.1-0.7,0.2c-0.2,0.1-0.4,0.2-0.6,0.3
			c-0.1,0.2-0.2,0.4-0.2,0.6c0,0.3,0.1,0.6,0.4,0.8C119.5,39.1,119.8,39.2,120.2,39.2L120.2,39.2z"/>
		<path class="st3" d="M124.9,39.9v-6.5h1v1h0.1c0.1-0.3,0.4-0.6,0.7-0.8c0.3-0.2,0.7-0.3,1.1-0.3c0.4,0,0.8,0.1,1.1,0.3
			c0.3,0.2,0.5,0.5,0.7,0.8h0.1c0.2-0.3,0.4-0.6,0.8-0.8c0.4-0.2,0.8-0.3,1.2-0.3c0.5,0,1.1,0.2,1.4,0.5c0.4,0.5,0.6,1.1,0.6,1.7
			v4.4h-1v-4.3c0-0.4-0.1-0.7-0.4-1c-0.3-0.2-0.6-0.3-0.9-0.3c-0.4,0-0.8,0.1-1.1,0.4c-0.2,0.3-0.4,0.6-0.4,1v4.3h-1v-4.5
			c0-0.3-0.1-0.7-0.4-0.9c-0.3-0.2-0.6-0.4-0.9-0.3c-0.3,0-0.5,0.1-0.7,0.2c-0.2,0.1-0.4,0.3-0.5,0.6c-0.1,0.3-0.2,0.6-0.2,0.8v4.1
			H124.9z"/>
		<path class="st3" d="M138,40.1c-0.6,0-1.1-0.1-1.6-0.4c-0.4-0.3-0.8-0.7-1-1.2c-0.3-0.6-0.4-1.2-0.4-1.8c0-0.6,0.1-1.2,0.4-1.8
			c0.2-0.5,0.6-0.9,1-1.2c0.5-0.3,1-0.4,1.6-0.4c0.3,0,0.7,0.1,1,0.2c0.7,0.2,1.3,0.8,1.6,1.5c0.2,0.5,0.3,1,0.2,1.5V37h-5v-0.9h4
			c0-0.3-0.1-0.7-0.2-1c-0.1-0.3-0.4-0.5-0.6-0.7c-0.3-0.2-0.6-0.3-0.9-0.3c-0.4,0-0.7,0.1-1,0.3c-0.3,0.2-0.5,0.5-0.7,0.8
			c-0.2,0.3-0.2,0.7-0.2,1v0.6c0,0.4,0.1,0.9,0.3,1.3c0.2,0.3,0.4,0.6,0.7,0.8c0.3,0.2,0.7,0.3,1.1,0.3c0.2,0,0.5,0,0.7-0.1
			c0.2-0.1,0.4-0.2,0.6-0.3c0.2-0.2,0.3-0.4,0.4-0.6l1,0.3c-0.1,0.3-0.3,0.6-0.5,0.9c-0.3,0.3-0.6,0.5-0.9,0.6
			C138.9,40,138.5,40.1,138,40.1z"/>
		<path class="st3" d="M145.1,33.4v0.9h-3.4v-0.9H145.1z M142.7,31.8h1v6.2c0,0.2,0,0.4,0.1,0.6c0.1,0.1,0.2,0.2,0.3,0.3
			c0.1,0,0.3,0.1,0.4,0.1c0.1,0,0.2,0,0.3,0h0.2l0.2,0.9c-0.1,0-0.2,0-0.3,0.1c-0.2,0-0.3,0-0.5,0c-0.3,0-0.6-0.1-0.8-0.2
			c-0.3-0.1-0.5-0.3-0.7-0.6c-0.2-0.3-0.3-0.6-0.3-0.9L142.7,31.8z"/>
	</g>
</g>
</svg>
