<?xml version="1.0" encoding="utf-8"?>
<!-- Generator: Adobe Illustrator 24.0.0, SVG Export Plug-In . SVG Version: 6.00 Build 0)  -->
<svg version="1.1" id="Layer_1" xmlns="http://www.w3.org/2000/svg" xmlns:xlink="http://www.w3.org/1999/xlink" x="0px" y="0px"
	 viewBox="0 0 191.1 60.9" style="enable-background:new 0 0 191.1 60.9;" xml:space="preserve">
<style type="text/css">
	.st0{fill:#FFFFFF;}
	.st1{fill:#FFF2D8;}
	.st2{fill:#646464;}
</style>
<title>10-1</title>
<path class="st0" d="M7.1,0h177c3.9,0,7.1,3.2,7.1,7.1v46.8c0,3.9-3.2,7.1-7.1,7.1H7.1C3.2,61,0,57.8,0,53.9V7.1C0,3.2,3.2,0,7.1,0z
	"/>
<path class="st1" d="M50.7,30.5c0,10-8.1,18.1-18.1,18.1s-18.1-8.1-18.1-18.1s8.1-18.1,18.1-18.1s18.1,8,18.1,18
	C50.7,30.4,50.7,30.4,50.7,30.5z"/>
<path class="st0" d="M39.2,25.5c0,3.7-3,6.7-6.7,6.7s-6.7-3-6.7-6.7s3-6.7,6.7-6.7S39.2,21.8,39.2,25.5L39.2,25.5z"/>
<path class="st0" d="M44,43.6c0,0.3,0,0.6,0,0.9c-6.6,5.3-16.1,5.3-22.7,0c0-0.3,0-0.6,0-0.9c0-6.3,5.1-11.4,11.4-11.4
	S44.1,37.3,44,43.6L44,43.6z"/>
<g>
	<path class="st2" d="M72.6,27.5v-8.7h1.1v7.8h4.1v0.9L72.6,27.5z"/>
	<path class="st2" d="M81.9,27.6c-0.5,0-1.1-0.1-1.6-0.4c-0.4-0.3-0.8-0.7-1-1.2c-0.3-0.6-0.4-1.2-0.4-1.8c0-0.6,0.1-1.2,0.4-1.8
		c0.5-1,1.5-1.6,2.6-1.6c0.5,0,1.1,0.1,1.6,0.4c0.4,0.3,0.8,0.7,1,1.2c0.3,0.6,0.4,1.2,0.4,1.8c0,0.6-0.1,1.2-0.4,1.8
		C84,27,83,27.6,81.9,27.6L81.9,27.6z M81.9,26.7c0.4,0,0.8-0.1,1.1-0.3c0.3-0.2,0.5-0.6,0.7-0.9c0.1-0.4,0.2-0.8,0.2-1.2
		c0-0.4-0.1-0.8-0.2-1.2c-0.1-0.3-0.3-0.7-0.6-0.9c-0.3-0.2-0.7-0.4-1.1-0.4s-0.8,0.1-1.1,0.4c-0.3,0.2-0.5,0.6-0.6,0.9
		c-0.1,0.4-0.2,0.8-0.2,1.2c0,0.4,0.1,0.8,0.2,1.2c0.1,0.4,0.3,0.7,0.6,0.9C81.1,26.6,81.5,26.7,81.9,26.7z"/>
	<path class="st2" d="M86.4,27.5V21h1v1h0.1c0.1-0.3,0.3-0.6,0.6-0.8c0.3-0.2,0.7-0.3,1.1-0.3h0.3h0.3v1h-0.2c-0.1,0-0.3,0-0.4,0
		c-0.3,0-0.6,0.1-0.8,0.2c-0.2,0.1-0.5,0.3-0.6,0.5c-0.2,0.2-0.2,0.5-0.2,0.8v4.1L86.4,27.5z"/>
	<path class="st2" d="M93.4,27.6c-0.6,0-1.1-0.1-1.6-0.4c-0.4-0.3-0.8-0.7-1-1.2c-0.3-0.6-0.4-1.2-0.4-1.8c0-0.6,0.1-1.2,0.4-1.8
		c0.2-0.5,0.6-0.9,1-1.2c0.5-0.3,1-0.4,1.6-0.4c0.3,0,0.7,0.1,1,0.2s0.6,0.3,0.9,0.5c0.3,0.3,0.5,0.6,0.7,1c0.2,0.5,0.3,1,0.2,1.5
		v0.4H91v-0.9h4c0-0.3-0.1-0.7-0.2-1s-0.4-0.5-0.6-0.7c-0.3-0.2-0.6-0.3-0.9-0.3c-0.4,0-0.7,0.1-1,0.3c-0.3,0.2-0.5,0.5-0.7,0.8
		s-0.2,0.7-0.2,1v0.6c0,0.4,0.1,0.9,0.3,1.3c0.2,0.3,0.4,0.6,0.7,0.8c0.3,0.2,0.7,0.3,1.1,0.3c0.2,0,0.5,0,0.7-0.1s0.4-0.2,0.6-0.3
		c0.2-0.2,0.3-0.4,0.4-0.6l1,0.3c-0.1,0.3-0.3,0.6-0.5,0.9c-0.3,0.3-0.6,0.5-0.9,0.6C94.2,27.6,93.8,27.6,93.4,27.6z"/>
	<path class="st2" d="M97.6,27.5V21h1v1h0.1c0.1-0.3,0.4-0.6,0.7-0.8c0.3-0.2,0.7-0.3,1.1-0.3s0.8,0.1,1.1,0.3
		c0.3,0.2,0.5,0.5,0.7,0.8h0.1c0.2-0.3,0.4-0.6,0.8-0.8c0.4-0.2,0.8-0.3,1.2-0.3c0.5,0,1.1,0.2,1.4,0.5c0.4,0.5,0.6,1.1,0.6,1.7v4.4
		h-1v-4.4c0-0.4-0.1-0.7-0.4-1c-0.3-0.2-0.6-0.3-0.9-0.3c-0.4,0-0.8,0.1-1.1,0.4c-0.2,0.3-0.4,0.6-0.4,1v4.3h-1V23
		c0-0.3-0.1-0.7-0.4-0.9c-0.3-0.2-0.6-0.4-0.9-0.3c-0.3,0-0.5,0.1-0.7,0.2s-0.4,0.3-0.5,0.6c-0.1,0.3-0.2,0.6-0.2,0.9v4.1h-1.3V27.5
		z"/>
	<path class="st2" d="M111.9,19.8c-0.2,0-0.4-0.1-0.5-0.2c-0.3-0.2-0.3-0.6-0.1-0.9l0.1-0.1c0.1-0.1,0.3-0.2,0.5-0.2
		s0.4,0.1,0.5,0.2c0.3,0.2,0.3,0.6,0.1,0.9l-0.1,0.1C112.3,19.8,112.1,19.8,111.9,19.8z M111.4,27.5V21h1v6.5H111.4z"/>
	<path class="st2" d="M114.3,29.9v-9h1v1h0.1c0.1-0.1,0.2-0.3,0.3-0.4c0.2-0.2,0.3-0.4,0.6-0.5c0.3-0.2,0.7-0.2,1-0.2
		c0.5,0,1,0.1,1.5,0.4c0.4,0.3,0.8,0.7,1,1.2c0.5,1.1,0.5,2.4,0,3.6c-0.2,0.5-0.6,0.9-1,1.2c-0.4,0.3-0.9,0.4-1.4,0.4
		c-0.3,0-0.7-0.1-1-0.2c-0.2-0.1-0.4-0.3-0.6-0.5c-0.1-0.1-0.2-0.3-0.3-0.5h-0.1v3.5H114.3z M115.3,24.2c0,0.4,0.1,0.9,0.2,1.3
		c0.1,0.3,0.3,0.7,0.6,0.9c0.3,0.2,0.6,0.3,1,0.3s0.8-0.1,1.1-0.3c0.3-0.2,0.5-0.6,0.6-0.9c0.1-0.4,0.2-0.8,0.2-1.3
		c0-0.4-0.1-0.8-0.2-1.3c-0.1-0.3-0.3-0.7-0.6-0.9c-0.3-0.2-0.7-0.3-1.1-0.3s-0.7,0.1-1,0.3c-0.3,0.2-0.5,0.5-0.6,0.9
		C115.3,23.3,115.2,23.8,115.3,24.2L115.3,24.2z"/>
	<path class="st2" d="M126.2,22.4l-0.9,0.3c-0.1-0.2-0.1-0.3-0.3-0.4c-0.1-0.2-0.3-0.3-0.4-0.4c-0.2-0.1-0.5-0.2-0.7-0.1
		c-0.4,0-0.7,0.1-1,0.3c-0.2,0.1-0.4,0.4-0.4,0.7c0,0.2,0.1,0.5,0.3,0.6c0.3,0.2,0.5,0.3,0.8,0.4l1,0.2c0.5,0.1,0.9,0.3,1.3,0.6
		c0.3,0.3,0.4,0.7,0.4,1.1s-0.1,0.7-0.3,1c-0.2,0.3-0.5,0.6-0.9,0.7c-0.4,0.2-0.9,0.3-1.3,0.3c-0.6,0-1.2-0.1-1.7-0.4
		c-0.4-0.3-0.7-0.8-0.8-1.3l1-0.2c0.1,0.3,0.2,0.6,0.5,0.8c0.3,0.2,0.6,0.3,1,0.3s0.8-0.1,1.1-0.3c0.3-0.2,0.4-0.4,0.4-0.7
		c0-0.2-0.1-0.4-0.2-0.6c-0.2-0.2-0.5-0.3-0.7-0.4l-1.1-0.3c-0.5-0.1-1-0.3-1.3-0.7c-0.5-0.6-0.6-1.5-0.1-2.1
		c0.2-0.3,0.5-0.5,0.9-0.7s0.8-0.2,1.2-0.2c0.5,0,1.1,0.1,1.5,0.4C125.8,21.6,126.1,22,126.2,22.4z"/>
	<path class="st2" d="M132,24.8v-3.9h1v6.5h-1v-1.1h-0.1c-0.2,0.3-0.4,0.6-0.7,0.9c-0.4,0.2-0.8,0.4-1.2,0.3c-0.4,0-0.8-0.1-1.1-0.3
		c-0.3-0.2-0.6-0.5-0.8-0.8c-0.2-0.4-0.3-0.9-0.3-1.4v-4.2h1V25c0,0.4,0.1,0.8,0.4,1.1c0.3,0.3,0.6,0.4,1,0.4c0.3,0,0.5-0.1,0.8-0.2
		s0.5-0.3,0.6-0.6C131.9,25.5,132,25.2,132,24.8z"/>
	<path class="st2" d="M134.8,27.5V21h1v1h0.1c0.1-0.3,0.4-0.6,0.7-0.8c0.3-0.2,0.7-0.3,1.1-0.3c0.4,0,0.8,0.1,1.1,0.3
		c0.3,0.2,0.5,0.5,0.7,0.8h0.1c0.2-0.3,0.4-0.6,0.8-0.8c0.4-0.2,0.8-0.3,1.2-0.3c0.5,0,1.1,0.2,1.4,0.5c0.4,0.5,0.6,1.1,0.6,1.7v4.4
		h-1v-4.4c0-0.4-0.1-0.7-0.4-1c-0.3-0.2-0.6-0.3-0.9-0.3c-0.4,0-0.8,0.1-1.1,0.4c-0.2,0.3-0.4,0.6-0.4,1v4.3h-1V23
		c0-0.3-0.1-0.7-0.4-0.9c-0.3-0.2-0.6-0.4-0.9-0.3c-0.3,0-0.5,0.1-0.7,0.2s-0.4,0.3-0.5,0.6c-0.1,0.3-0.2,0.6-0.2,0.9v4.1h-1.3V27.5
		z"/>
	<path class="st2" d="M74.9,42c-0.5,0-1-0.1-1.4-0.4c-0.4-0.3-0.8-0.7-1-1.2c-0.5-1.1-0.5-2.4,0-3.6c0.2-0.5,0.6-0.9,1-1.2
		s0.9-0.4,1.5-0.4c0.3,0,0.7,0.1,1,0.2c0.2,0.1,0.4,0.3,0.6,0.5c0.1,0.2,0.2,0.3,0.3,0.4H77v-3.2h1v8.7h-1v-1h-0.1
		c-0.1,0.1-0.2,0.3-0.3,0.5c-0.2,0.2-0.4,0.4-0.6,0.5C75.6,42,75.3,42,74.9,42z M75.1,41.1c0.4,0,0.7-0.1,1-0.3s0.5-0.5,0.6-0.9
		c0.2-0.4,0.2-0.9,0.2-1.3c0-0.4-0.1-0.9-0.2-1.3c-0.1-0.3-0.3-0.6-0.6-0.9c-0.3-0.2-0.6-0.3-1-0.3s-0.8,0.1-1.1,0.3
		c-0.3,0.2-0.5,0.5-0.6,0.9s-0.2,0.8-0.2,1.3c0,0.4,0.1,0.9,0.2,1.3c0.1,0.4,0.4,0.7,0.6,0.9C74.3,41,74.7,41.1,75.1,41.1L75.1,41.1
		z"/>
	<path class="st2" d="M82.6,42c-1.1,0-2.1-0.6-2.6-1.6c-0.3-0.6-0.4-1.2-0.4-1.8s0.1-1.2,0.4-1.8c0.2-0.5,0.6-0.9,1-1.2
		c1-0.6,2.1-0.6,3.1,0c0.4,0.3,0.8,0.7,1,1.2c0.3,0.6,0.4,1.2,0.4,1.8s-0.1,1.2-0.4,1.8C84.6,41.4,83.6,42,82.6,42z M82.6,41.1
		c0.4,0,0.8-0.1,1.1-0.3c0.3-0.2,0.5-0.6,0.7-0.9c0.1-0.4,0.2-0.8,0.2-1.2s-0.1-0.8-0.2-1.2s-0.4-0.7-0.7-0.9
		c-0.7-0.5-1.5-0.5-2.2,0c-0.3,0.2-0.5,0.6-0.7,0.9c-0.1,0.4-0.2,0.8-0.2,1.2s0.1,0.8,0.2,1.2s0.4,0.7,0.7,0.9
		C81.8,41,82.2,41.1,82.6,41.1L82.6,41.1z"/>
	<path class="st2" d="M88.1,33.2v8.7h-1v-8.7H88.1z"/>
	<path class="st2" d="M92.6,42c-0.5,0-1.1-0.1-1.6-0.4c-0.4-0.3-0.8-0.7-1-1.2c-0.3-0.6-0.4-1.2-0.4-1.8s0.1-1.2,0.4-1.8
		c0.5-1,1.5-1.6,2.6-1.6c0.5,0,1.1,0.1,1.6,0.4c0.4,0.3,0.8,0.7,1,1.2c0.3,0.6,0.4,1.2,0.4,1.8s-0.1,1.2-0.4,1.8
		c-0.2,0.5-0.6,0.9-1,1.2C93.7,41.9,93.1,42,92.6,42z M92.6,41.1c0.4,0,0.8-0.1,1.1-0.3c0.3-0.2,0.5-0.6,0.6-0.9
		c0.1-0.4,0.2-0.8,0.2-1.2s-0.1-0.8-0.2-1.2s-0.3-0.7-0.6-0.9c-0.7-0.5-1.6-0.5-2.2,0c-0.3,0.2-0.5,0.6-0.6,0.9
		c-0.1,0.4-0.2,0.8-0.2,1.2s0.1,0.8,0.2,1.2s0.3,0.7,0.6,0.9C91.8,41,92.2,41.1,92.6,41.1L92.6,41.1z"/>
	<path class="st2" d="M97.1,41.9v-6.5h1v1h0.1c0.1-0.3,0.4-0.6,0.7-0.8c0.3-0.2,0.7-0.3,1.1-0.3h0.3h0.3v1h-0.2c-0.1,0-0.3,0-0.4,0
		c-0.3,0-0.6,0.1-0.8,0.2c-0.5,0.3-0.8,0.8-0.8,1.3v4.1H97.1z"/>
	<path class="st2" d="M109.5,36.8l-0.9,0.3c-0.1-0.2-0.1-0.3-0.2-0.4c-0.1-0.2-0.3-0.3-0.4-0.3c-0.2-0.1-0.5-0.2-0.7-0.1
		c-0.4,0-0.7,0.1-1,0.3c-0.2,0.1-0.4,0.4-0.4,0.7c0,0.2,0.1,0.5,0.3,0.6c0.3,0.2,0.6,0.3,0.9,0.3l1,0.2c0.5,0.1,0.9,0.3,1.3,0.7
		c0.3,0.3,0.4,0.7,0.4,1.1c0,0.4-0.1,0.7-0.3,1c-0.2,0.3-0.5,0.6-0.9,0.7c-0.4,0.2-0.9,0.3-1.3,0.3c-0.6,0-1.2-0.1-1.7-0.4
		c-0.4-0.3-0.7-0.8-0.8-1.3l1-0.2c0.1,0.3,0.3,0.6,0.5,0.8c0.3,0.2,0.6,0.3,1,0.3s0.8-0.1,1.1-0.3c0.3-0.2,0.4-0.4,0.4-0.7
		c0-0.2-0.1-0.4-0.2-0.6c-0.2-0.2-0.5-0.3-0.7-0.3l-1.1-0.3c-0.5-0.1-1-0.3-1.3-0.7c-0.5-0.6-0.6-1.5-0.1-2.1
		c0.2-0.3,0.5-0.5,0.9-0.7s0.8-0.2,1.2-0.2c0.5,0,1.1,0.1,1.5,0.4C109.2,35.9,109.4,36.4,109.5,36.8z"/>
	<path class="st2" d="M111.7,34.2c-0.2,0-0.4-0.1-0.5-0.2c-0.3-0.2-0.3-0.6-0.1-0.9l0.1-0.1c0.1-0.1,0.3-0.2,0.5-0.2
		s0.4,0.1,0.5,0.2c0.3,0.2,0.3,0.6,0.1,0.9l-0.1,0.1C112.1,34.2,111.9,34.2,111.7,34.2z M111.2,41.9v-6.5h1v6.5H111.2z"/>
	<path class="st2" d="M116.9,35.3v0.8h-3.4v-0.8H116.9z M114.5,33.8h1V40c0,0.2,0,0.4,0.1,0.6c0.1,0.1,0.2,0.2,0.3,0.3
		c0.1,0,0.3,0.1,0.4,0.1s0.2,0,0.3,0h0.2l0.2,0.9c-0.1,0-0.2,0.1-0.3,0.1c-0.2,0-0.3,0-0.5,0c-0.3,0-0.6-0.1-0.8-0.2
		c-0.3-0.1-0.5-0.3-0.7-0.6s-0.3-0.6-0.3-0.9L114.5,33.8z"/>
	<path class="st2" d="M123.7,42c-0.4,0-0.8-0.1-1.1-0.2c-0.3-0.1-0.6-0.4-0.8-0.7c-0.2-0.3-0.3-0.7-0.3-1.1c0-0.3,0.1-0.6,0.2-0.9
		c0.1-0.2,0.4-0.4,0.6-0.6c0.3-0.1,0.5-0.2,0.8-0.3s0.6-0.1,0.9-0.2l1-0.1c0.2,0,0.4-0.1,0.6-0.1c0.1-0.1,0.2-0.2,0.2-0.3l0,0
		c0-0.4-0.1-0.7-0.3-1c-0.3-0.2-0.6-0.4-1-0.3c-0.4,0-0.8,0.1-1.1,0.3c-0.2,0.2-0.4,0.4-0.6,0.7l-1-0.3c0.1-0.4,0.4-0.7,0.7-0.9
		c0.3-0.2,0.6-0.4,0.9-0.5c0.6-0.2,1.2-0.2,1.7-0.1c0.3,0.1,0.6,0.2,0.8,0.3c0.3,0.2,0.5,0.4,0.6,0.7c0.2,0.4,0.3,0.8,0.3,1.3V42h-1
		v-1h-0.1c-0.1,0.2-0.2,0.3-0.3,0.5c-0.2,0.2-0.4,0.3-0.6,0.4C124.4,42,124,42,123.7,42z M123.8,41.1c0.3,0,0.7-0.1,1-0.2
		c0.3-0.1,0.5-0.3,0.6-0.6c0.1-0.2,0.2-0.5,0.2-0.8v-0.9c-0.1,0.1-0.2,0.1-0.3,0.1c-0.2,0-0.3,0.1-0.5,0.1l-0.5,0.1h-0.4
		c-0.2,0-0.5,0.1-0.7,0.2c-0.2,0.1-0.4,0.2-0.5,0.3c-0.1,0.2-0.2,0.4-0.2,0.6c0,0.3,0.1,0.6,0.4,0.8C123.1,41,123.5,41.1,123.8,41.1
		L123.8,41.1z"/>
	<path class="st2" d="M128.5,41.9v-6.5h1v1h0.1c0.1-0.3,0.4-0.6,0.7-0.8s0.7-0.3,1.1-0.3c0.4,0,0.8,0.1,1.1,0.3s0.5,0.5,0.7,0.8h0.1
		c0.2-0.3,0.4-0.6,0.8-0.8c0.4-0.2,0.8-0.3,1.2-0.3c0.5,0,1.1,0.2,1.4,0.5c0.4,0.5,0.6,1.1,0.6,1.7v4.4h-1v-4.4c0-0.4-0.1-0.7-0.4-1
		c-0.3-0.2-0.6-0.3-0.9-0.3c-0.4,0-0.8,0.1-1.1,0.4c-0.2,0.3-0.4,0.6-0.4,1v4.3h-1v-4.5c0-0.3-0.1-0.7-0.4-0.9
		c-0.5-0.4-1.1-0.5-1.7-0.1c-0.2,0.1-0.4,0.3-0.6,0.6c-0.1,0.3-0.2,0.6-0.2,0.8v4.1H128.5z"/>
	<path class="st2" d="M141.7,42c-0.6,0-1.1-0.1-1.6-0.4c-0.4-0.3-0.8-0.7-1-1.2c-0.3-0.6-0.4-1.2-0.4-1.8s0.1-1.2,0.4-1.8
		c0.2-0.5,0.6-0.9,1-1.2c0.5-0.3,1-0.4,1.6-0.4c0.3,0,0.7,0.1,1,0.2c0.3,0.1,0.6,0.3,0.9,0.5c0.3,0.3,0.5,0.6,0.6,1
		c0.2,0.5,0.3,1,0.2,1.5V39h-5v-0.9h4c0-0.3-0.1-0.7-0.2-1c-0.1-0.3-0.4-0.5-0.6-0.7c-0.3-0.2-0.6-0.3-1-0.3s-0.7,0.1-1,0.3
		s-0.5,0.5-0.7,0.8s-0.2,0.7-0.2,1v0.6c0,0.4,0.1,0.9,0.3,1.3c0.2,0.3,0.4,0.6,0.7,0.8s0.7,0.3,1.1,0.3c0.2,0,0.5,0,0.7-0.1
		s0.4-0.2,0.6-0.3c0.2-0.2,0.3-0.4,0.4-0.6l1,0.3c-0.1,0.3-0.3,0.6-0.5,0.9c-0.3,0.3-0.6,0.5-0.9,0.6C142.5,42,142.1,42,141.7,42z"
		/>
	<path class="st2" d="M148.8,35.3v0.8h-3.4v-0.8H148.8z M146.4,33.8h1V40c0,0.2,0,0.4,0.1,0.6c0.1,0.1,0.2,0.2,0.3,0.3
		c0.1,0,0.3,0.1,0.4,0.1c0.1,0,0.2,0,0.3,0h0.2l0.2,0.9c-0.1,0-0.2,0.1-0.3,0.1c-0.4,0.1-0.9,0-1.3-0.1c-0.3-0.1-0.5-0.3-0.7-0.6
		s-0.3-0.6-0.3-0.9L146.4,33.8z"/>
</g>
</svg>
