<svg xmlns="http://www.w3.org/2000/svg" xmlns:xlink="http://www.w3.org/1999/xlink" viewBox="0 0 1763.6 1213.78"><defs><style>.cls-1{fill:none;}.cls-2{clip-path:url(#clip-path);}.cls-3{fill:#f8f5f5;}.cls-10,.cls-11,.cls-12,.cls-13,.cls-14,.cls-15,.cls-16,.cls-3,.cls-4,.cls-5,.cls-6,.cls-7,.cls-8,.cls-9{fill-rule:evenodd;}.cls-4{fill:#fff;}.cls-5{fill:#e7dfdd;}.cls-6{fill:#c7e0ff;}.cls-7{fill:#cddaec;}.cls-8{fill:#eef6ff;}.cls-9{fill:#ffebcf;}.cls-10{fill:#ffcfe1;}.cls-11{fill:#c8d3e2;}.cls-12{fill:#d4def1;}.cls-13{fill:#afbbd4;}.cls-14{fill:#b1e6e7;}.cls-15{fill:#ffb8d4;}.cls-16{fill:#6d4b5c;}</style><clipPath id="clip-path" transform="translate(-106 -490.95)"><rect class="cls-1" width="2000" height="2000"/></clipPath></defs><g id="Layer_2" data-name="Layer 2"><g id="Layer_1-2" data-name="Layer 1"><g class="cls-2"><g id="Layer3"><path class="cls-3" d="M442.12,1553.79s-7-23.94,1.57-31.7,125.8-11.54,125.8-11.54-2.65-14.08-2-26.8,9.75-74.55,11.45-99.7,18.26-124.94,18.26-124.94,23.73-244.39,24.93-262.3,15.09-125.63,20.36-154.34,4.32-54.77,13.7-67.25,45.34-6.63,78.16-10.15,144.17-4.35,144.17-4.35,196.44,14.83,246.85,10.36,234.11-4.05,291.38-7.42,130.89,0,155.14,5.62,30.64,10,27.44,58.62-17.26,136.94-25.83,188.45-26.66,196.44-26.66,196.44-13.59,115-22.83,169.79S1494.77,1528,1494.77,1528s6.37,17.54,3.73,27.63-7.3,17-29.79,24.34-108.78,2.42-108.78,2.42-271.17-7.59-315.47-10.78-162.84-8.87-162.84-8.87-197.93-2.73-232,1.21-145.93-4.15-173.86-3.07S442.12,1553.79,442.12,1553.79Z" transform="translate(-106 -490.95)"/><path class="cls-4" d="M626.25,1449.92l31-213.68s11.17-278.82,22.49-344.15,16.76-74.44,21.73-75.76,105.79-3.1,142.48-4,90.54,2.51,90.54,2.51l229.28,11s157.87-8.46,232.58-4.69,143.73,1.37,152.2,4.38,1.74,35.92-1.68,60.64-23,149.23-24.08,157.78-28.91,252.6-36.14,294.92-19.15,131.78-19.15,131.78-334.83,1.49-368.55.24-184.68-4.86-184.68-4.86-151,.55-188.82-2.56-76-6.72-85.86-6.72S626.25,1449.92,626.25,1449.92Z" transform="translate(-106 -490.95)"/><path class="cls-5" d="M881.92,704.16s-33.55,8.06-48.81-14.3-20.79-43-9.11-54.78,19.5-10.63,20.63-30.19,8.73-51,26.43-69,42.64-14.51,42.64-14.51,27-14.47,44.64-22,50.27.58,73.29,20.58,13.46,41.24,32,55.23,60.33,27.93,64.44,66.5-2.56,69.35-12.6,87.29-26.9,40.17-26.9,40.17,13.54-1.36,20.63,17.28,15.73,28.45.36,52.61-17.62,34.43-41.3,34.72-37.68-5.37-43.66-13.78-17.75-34.46-17.75-34.46Z" transform="translate(-106 -490.95)"/><path class="cls-6" d="M858.81,1182.42c-.43-5.08-26.88-278.46-26.88-278.46s22.21-13.68,36.65-21.65,20.71.81,20.71.81l118.57-9.65s24.39,13.38,28.38,24.12,2.25,82.13-4.09,123.6S1002.7,1269,1002.7,1269l-59.91,4.28S859.24,1187.5,858.81,1182.42Z" transform="translate(-106 -490.95)"/><path class="cls-7" d="M751,1460.1l-10.58-77s-9.62-172.3-10.55-182.55-10.13-14.54,10.63-18.27,193.55-12.34,210-9.51,22.11,13.78,22.75,40.26,24.56,250.71,24.56,250.71-159.81,2.44-182.93,4S751,1460.1,751,1460.1Z" transform="translate(-106 -490.95)"/><path class="cls-4" d="M797.82,1177.69s-4.92,21.87,11.57,24,66.38,4,74.12-2.25,4.33-22.26,4.33-22.26Z" transform="translate(-106 -490.95)"/><path class="cls-4" d="M716.25,1458S701,1353.71,698.47,1317.3s-2.82-92.66-2.82-92.66-33.27,15.08-67.13,29.26-148.81,57.44-181.77,67.92-79.63,21.93-90-23-14.69-145-15.48-183.23,1.8-141.14,1.8-141.14-10.58-8.09-5.75-26.31,26.2-74.31,29.71-77.39,7.49-.42,28.75,4.55,71.89,15.81,85.19,26.35,17.56,10.21,18,34.41-2.46,51.82-2.46,51.82l-16.32,5.44s-1.7,36.83,3.24,63.16,9.26,53,9.26,53,77.68-34.54,104.26-55.22,102.84-86,124.41-101.81,37.52-25,62.64-30.86,57.72-21.38,57.72-21.38L841,986.78s2.27,17.7,7.37,59S862,1174.66,862,1174.66s-95.79,3.29-114.63,8.52-18.64,11-18.34,30,9.61,89.88,11.53,142.14,11.15,108.81,11.15,108.81Z" transform="translate(-106 -490.95)"/><path class="cls-4" d="M993.7,1265c2.18-6.59,4.94-27.11,10.6-61.73s21.74-168.07,21.46-185.46,10.53-109.33,9.35-117.4,10.49-8.61,24.63,1.06,24.89,27.86,58.75,39.91,67.38,19.77,92.91,45.28,84.31,106.1,113.78,166.37,91.91,171,103.69,192.69,43.91,78.25,43.91,78.25-.56,25.4-4.36,37.3,8.56,9.64-20.65,11.47-188.07-.13-219.07-.56-231.78-7.1-231.78-7.1-11.35-89.51-11.72-119.43S991.53,1271.58,993.7,1265Z" transform="translate(-106 -490.95)"/><path class="cls-4" d="M1140.69,1320.26s-43.9-20.3-63.26-33.53-52.12-21-80.23-17.7-82.25,8.47-101.05,21-14.39,16.33-15.81,22.56-.52,12.51,5.59,20.3,7.74,9,15.07,11.18-.37,2.78,6.06,11,28.05,15.28,47.23,16.13,64.27-.47,64.27-.47,17.57,15.22,34.31,22.77,48.28,4.64,52.76,5.69,29.36,18,29.36,18Z" transform="translate(-106 -490.95)"/><path class="cls-8" d="M628,831.59s-41.52-23.94-32.2-49.42,12.66-41.06,42.53-40.64,42.24,10.06,45.26,24.81,2.1,32.44-13.55,46.61S628,831.59,628,831.59Z" transform="translate(-106 -490.95)"/><path class="cls-4" d="M478.05,895.5s34.49-29.79,52.48-50.47,27.07-29.11,37.27-33.18,27.61-10,27.61-10,.49-27,4.89-35.87,14.85-22.24,14.85-22.24-15.63-5.66-53.09-11.55-59.77,5.5-85,26.28-38.69,46-53.82,66.77-32.33,48.45-32.33,48.45-3.15,5.89,27.74,9.59A401.74,401.74,0,0,1,478.05,895.5Z" transform="translate(-106 -490.95)"/><path class="cls-4" d="M920.2,579.55s-6.67,7.43-21,19.82-28.6,25.18-28.6,25.18,1,18.32.53,45.3-6.52,96.27,3.43,116,29.95,34.77,29.95,34.77,4.26,17.19.67,31.41-17,29.85-17,29.85A437.26,437.26,0,0,0,906.58,939c12.65,31.93,32.75,61,32.75,61s14.39-9.11,29.14-36.37,39.06-88.72,39.06-88.72-1.17-17.76,2.7-29.95,14.33-54.41,14.33-54.41,22.34-10.38,27.51-39.61,2.14-36.75-3.38-36.84-17.33,7.51-17.33,7.51a55.72,55.72,0,0,0-11-8.79c-6-3.49-25.64-37.05-26.71-45.55s-1.28-23.73-1.28-23.73-11.88,7.91-29.1,3.87-33.11-17-37.56-34.31A209,209,0,0,1,920.2,579.55Z" transform="translate(-106 -490.95)"/><path class="cls-6" d="M110.71,1660.67s1.94-19.86,2.61-40.82-.12-53.48,6.87-60.36S138.08,1545,138.08,1545s-4-10.72-.08-16.56,8.86-8.39,21.84-9.87,45.95,3.9,45.95,3.9l.36,18.42s11.36,9.64,15.22,19.89,10.68,25,9.11,49-5,53.76-5,53.76,7.56-3.24-24.51-.24-54.41-.77-67.14.65A48.23,48.23,0,0,1,110.71,1660.67Z" transform="translate(-106 -490.95)"/><path class="cls-4" d="M245.46,1404.71s11.14-7.39,43.81-13.84,77.75-2.64,91.24,5.43,15.55,19.67,14.68,37.36-26.3,175.82-26.3,175.82S353.08,1622.07,318,1621s-56.87,4-64.94-16-8.91-73.79-9-105.34S245.46,1404.71,245.46,1404.71Z" transform="translate(-106 -490.95)"/><path class="cls-9" d="M481.76,1653.64c-5.25-.42-29.3-13.27-19.69-21.48s34.86-15.92,48.3-11.1,26,11.81,21,19.25-16.31,12.67-26.89,13.76S487,1654.05,481.76,1653.64Z" transform="translate(-106 -490.95)"/><path class="cls-6" d="M580.35,1657.18S564,1645.36,568,1633.52s24-25,35-20.83,16.67,12.3,15.24,21.43-7.1,19.33-13.75,22S580.35,1657.18,580.35,1657.18Z" transform="translate(-106 -490.95)"/><path class="cls-6" d="M646,1651s6.87-13,29-13.74,43.27,8.45,45.43,16.56,2.82,17-20,18.36-35.28,1.54-46.28-4.35A15.16,15.16,0,0,1,646,1651Z" transform="translate(-106 -490.95)"/><path class="cls-6" d="M730.14,1632s-18-13.37-11.45-28.26,24.13-19.32,33.35-15.49,14.75,15.61,13.11,25.48-9,16.4-16.57,19.09S730.14,1632,730.14,1632Z" transform="translate(-106 -490.95)"/><path class="cls-9" d="M657,1614.78s-39.05-4.46-33.17-12.77,18.75-13.64,33.55-13.07,36.1,8.48,33,14.18-12.86,13.66-17.46,13.7S657,1614.78,657,1614.78Z" transform="translate(-106 -490.95)"/><path class="cls-10" d="M752.17,1677.16s-14.78-14.24,1.66-19.09,43.93-1.29,51.58,4.65,12.58,16.81,4.48,20.71-19.35,4.26-32.71,1.67A125.46,125.46,0,0,1,752.17,1677.16Z" transform="translate(-106 -490.95)"/><path class="cls-6" d="M803.83,1619.85s33.31-7.58,101.51-12.28,166.63-10.34,186.59-9.17,26.34,2.59,23,21.75-1.67,30.53-10.44,32.79-47.25-.58-96.1.29S858.92,1651.38,834,1643s-32.82-15-32.82-15Z" transform="translate(-106 -490.95)"/><path class="cls-11" d="M827.67,1640.78l.52-25.19s-16.1-2.38-21.82,1.35-6.73,17,.76,20.36S827.67,1640.78,827.67,1640.78Z" transform="translate(-106 -490.95)"/><path class="cls-11" d="M1055.4,1657.3l1.31-58.94s29-1.6,40.08-.18,19.67,6,18.8,18.89-5.29,34.86-9.71,36.68S1055.4,1657.3,1055.4,1657.3Z" transform="translate(-106 -490.95)"/><path class="cls-12" d="M1180,1684.06s21.14-45.94,26.34-56.34,13.84-17.28,29-21,148.43-6.21,176.71-5,72.22-.37,77,8,4.08,13.3-.21,20.85-38.51,65-38.51,65-47.31-3.56-72.93-.71-93.61,2.92-124,2.76-60.06-4.48-66.39-5.15S1180,1684.06,1180,1684.06Z" transform="translate(-106 -490.95)"/><path class="cls-13" d="M1608.13,1405.73s135.14,1.42,155.64.28,62,1.38,65.94,10.44-.58,36-2.66,46.92-6.12,17.06-5.44,24,2.93,28-3,59.39-5.53,37.65-20.69,43.65-36.62,6.86-76,7.63-84.28,6.46-101.06-10.6-17-17.55-18.83-37.66,4.21-79,4.21-79-12-4.89-11.56-17S1608.13,1405.73,1608.13,1405.73Z" transform="translate(-106 -490.95)"/><path class="cls-14" d="M1614.55,1401.7s-12.19-26-9.07-35.63,20.38-25.72,20.38-25.72-2.07-2.88-4.95-25.58-1.83-57.88,2.37-71.47,29.2-39.71,45.27-35.84,23.26,24.19,27.49,31.42,11.24,27,11.24,27,6.48-19.26,10.92-31.55,21.48-32.1,32.21-28.78,19.1,15.78,20,26,1.42,28.19,1.42,28.19,8-30.37,19.16-36.36,25.9-7.32,33.92.91,13.26,34.25,13.12,38-1.12,16.85-1.12,16.85,11.57-10.62,19.32-2.53,6.39,18.82,4.71,25.87-2.79,25.14-8.57,39.2-12.75,22.25-12.75,22.25,12.27-4,10.74,3.69-8,22.58-11.47,26.84-17.93,15.5-17.93,15.5-29.45-7.83-71.34-5.31-92.23-2.76-109.42.13S1614.55,1401.7,1614.55,1401.7Z" transform="translate(-106 -490.95)"/><path class="cls-15" d="M969.54,736.45a3.9,3.9,0,0,1,.62-2.67c2.49-3.73,6.81-6.39,12-7.8a37.33,37.33,0,0,1,22,1c4.95,1.9,8.67,5.06,10.21,9a13.21,13.21,0,0,1-.29,10c-2.71,6.76-6.71,11.22-11.55,13.62s-10.73,2.79-17.32.91c-7.26-2.08-12.88-4.11-15.91-11.69C967.28,743.93,967.65,739.81,969.54,736.45Zm-97.8-3.37a3.92,3.92,0,0,1,2.08-6.89c6.66-.75,14.72-1.42,20.65,2.9,5.13,3.73,6.33,9.28,5,14.56a19.1,19.1,0,0,1-8.81,11.64c-2.78,1.54-7.68,2.16-11.94,1.27a12.63,12.63,0,0,1-7.58-4.34,11.08,11.08,0,0,1-1.89-6.44,38.63,38.63,0,0,1,2.46-12.54Z" transform="translate(-106 -490.95)"/></g><g id="Layer2"><path class="cls-16" d="M868.65,630.41c-3.21,27.63-3.09,56.8-3.09,84.64,0,20.24-1.48,41.23,2.24,59.78,3.93,19.6,13.44,36.59,35.63,47.69a4.57,4.57,0,1,0,4.09-8.18c-23.15-11.58-30.23-30.69-32.31-52.08-1.48-15.14-.51-31.41-.51-47.21,0-27.49-.14-56.3,3-83.59a4.57,4.57,0,1,0-9.08-1.05Z" transform="translate(-106 -490.95)"/><path class="cls-16" d="M902.29,819.34a23.3,23.3,0,0,0-.06,6.95c.3,2.67.88,5.49.66,7.9-.49,5.47-2.21,20.22-6.36,31.14a28.66,28.66,0,0,1-4.39,8.19c-1.07,1.26-2.2,2.23-3.64,2.23a4.58,4.58,0,0,0,0,9.15c5.58,0,10.44-3.92,14-10.5C908.8,862.62,911.37,842,912,835a39.34,39.34,0,0,0-.51-8.32,18.65,18.65,0,0,1-.23-5.56,4.57,4.57,0,1,0-9-1.8Z" transform="translate(-106 -490.95)"/><path class="cls-16" d="M884.45,884.47c-.37,6.42,1.42,13.73,4.15,21.13,3.74,10.1,9.21,20.4,12.06,28.54,11.7,33.44,29.61,63.52,47.32,93.89,5.54,9.49,10.25,21.17,18,28.94a4.57,4.57,0,1,0,6.47-6.47c-7.24-7.24-11.43-18.24-16.58-27.08-17.42-29.86-35.08-59.42-46.6-92.3-2.86-8.18-8.35-18.55-12.11-28.7-2.25-6.1-3.91-12.11-3.6-17.41a4.57,4.57,0,1,0-9.13-.54Z" transform="translate(-106 -490.95)"/><path class="cls-16" d="M1010.15,880.25c-4.15,8-11.32,31-12.76,34.68-12.87,33.09-30.21,61.73-52.81,89a4.57,4.57,0,0,1-7.05-5.83c22-26.54,38.83-54.37,51.33-86.52,1.43-3.68,8.37-25.52,12.74-34.67a21.43,21.43,0,0,1,2.65-4.44,6.08,6.08,0,0,1,2.67-1.88,8.41,8.41,0,0,1,7.7,1.47c1.69,1.19,3.22,3.14,4.52,4,10.47,7,16.27,12.8,19,19.64s2.58,14.87.22,26.67c-2.66,13.3-25.62,66.08-44.81,100.26C985,1038,976.89,1049.6,971.77,1053a4.57,4.57,0,0,1-5.07-7.61c4.54-3,11.28-13.62,18.91-27.21,18.68-33.29,41.22-84.62,43.81-97.57,1.89-9.49,2.5-16,.27-21.45s-7.21-9.84-15.62-15.45a34.93,34.93,0,0,1-3.56-3.15C1010.41,880.47,1010.28,880.36,1010.15,880.25Z" transform="translate(-106 -490.95)"/><path class="cls-16" d="M931.06,1067.08a4.57,4.57,0,0,1-1.37,8.94,6.25,6.25,0,0,1-3.25-1,19.55,19.55,0,0,1-4.08-3.77c-6.89-8-19-28.26-20.86-31.19-18.16-29.34-58.58-99.7-62-131.67a4.58,4.58,0,1,1,9.1-1c3.34,31.09,43,99.31,60.7,127.83,1.54,2.49,10.71,17.84,17.46,26.83A59.13,59.13,0,0,0,931.06,1067.08Z" transform="translate(-106 -490.95)"/><path class="cls-16" d="M932.82,1076.62c16.19-.86,32.93-4.08,49.18-5.56a27.2,27.2,0,0,1,7.83.12,3.64,3.64,0,0,1,2.22,1.07c.84,1.06.86,2.62.88,4.53,0,5.21-1.08,12.27-1.08,21a4.57,4.57,0,0,0,9.14,0c0-9.28,1.24-16.68,1.06-22s-1.68-8.86-4.88-11.25c-2.91-2.16-7.79-3.37-16-2.62-16.15,1.46-32.76,4.68-48.85,5.54a4.57,4.57,0,1,0,.49,9.13Z" transform="translate(-106 -490.95)"/><path class="cls-16" d="M990.89,1100.26a4.57,4.57,0,0,1,5.88,7c-.84.85-2.91,1.92-6,2.44-7.19,1.24-22.25,1.21-25,1.36-9,.5-18.55,2.24-26,1.21-4.69-.64-8.67-2.31-11.67-5.4s-5-7.42-5.44-14c-.46-6.38-1.54-14.35.22-20.55a4.58,4.58,0,0,1,8.8,2.51c-1.49,5.25-.28,12,.1,17.39.27,3.75,1.14,6.39,2.73,8.16,2.41,2.66,6.2,3.11,10.47,3.14,6.24,0,13.42-1.16,20.29-1.54,2.35-.13,13.81-.09,21.3-.89A41.76,41.76,0,0,0,990.89,1100.26Z" transform="translate(-106 -490.95)"/><path class="cls-16" d="M970.84,1059.83c.45,3.33,1.71,4.93,3.81,7a4.57,4.57,0,0,0,6.47-6.47c-.57-.56-1.09-.88-1.21-1.78a4.58,4.58,0,1,0-9.07,1.23Z" transform="translate(-106 -490.95)"/><path class="cls-16" d="M845,902.93c4.41-3.34,19.38-13.72,30.71-18.73a35.56,35.56,0,0,1,6-2.15,5,5,0,0,1,2.44-.27,4.57,4.57,0,1,0,2.89-8.68,12.54,12.54,0,0,0-6-.25,40.31,40.31,0,0,0-9.09,3c-12,5.3-27.85,16.25-32.53,19.79a4.58,4.58,0,1,0,5.52,7.3Z" transform="translate(-106 -490.95)"/><path class="cls-16" d="M1464.29,1467.7c.18-.78,1.53-6.52,2.55-12.92,5.39-33.63,14.25-114,15.48-123.82,5.43-43.43,13.22-87,20.44-130.31,6.54-39.28,6.84-80,11-119.64,4.26-40.43,12.62-80.55,17.88-120.89,5.44-41.73,15.27-85.61,15.27-127.83,0-1.51-.48-4.59-.21-6.76a7.33,7.33,0,0,1,2.57-5,4.57,4.57,0,0,1,6.51,6.29c0,.43,0,1.24,0,1.77.1,1.43.27,2.8.27,3.67,0,42.61-9.86,86.9-15.35,129-5.25,40.26-13.6,80.3-17.85,120.65-4.19,39.81-4.51,80.73-11.09,120.2-7.2,43.18-15,86.63-20.39,129.94-1.23,9.87-10.11,90.41-15.51,124.13a113.45,113.45,0,0,1-2.92,14.43,7.35,7.35,0,0,1-1.58,2.74,4.58,4.58,0,0,1-7.09-5.7Z" transform="translate(-106 -490.95)"/><path class="cls-16" d="M1595.3,788.73c0,70.72-12.66,145.66-26.33,214-8.09,40.44-8.22,82.82-15,123.7-9.12,54.74-16.71,110.08-23.59,165.16-2.71,21.67-14.26,118.09-26,181.64-4.89,26.41-9.61,47-13.93,53.49a4.57,4.57,0,1,0,7.61,5.08c4.61-6.91,10.1-28.75,15.32-56.9,11.82-63.74,23.41-160.44,26.12-182.18,6.87-55,14.44-110.17,23.55-164.79,6.79-40.78,6.9-83.06,15-123.4,13.79-69,26.51-144.53,26.51-215.84a4.58,4.58,0,1,0-9.15,0Z" transform="translate(-106 -490.95)"/><path class="cls-16" d="M628.22,1459.49c41.59,1.73,82.6,6.18,124,9.63,81,6.75,163.27-3.24,244.32.81,155.27,7.76,312.1,6.37,467.88,6.37a4.58,4.58,0,0,0,0-9.15c-155.63,0-312.3,1.4-467.42-6.36-81-4-163.14,6-244-.78-41.55-3.47-82.69-7.93-124.41-9.66a4.57,4.57,0,0,0-.38,9.14Z" transform="translate(-106 -490.95)"/><path class="cls-16" d="M576.45,1514.67c21.38-1.88,44.72,6.9,66.08,8.54,47,3.61,94.44,6.93,141.66,9.55,58.17,3.23,116.82-2.64,175,0,178.17,8.1,356.41,1.6,534.66,1.6a4.58,4.58,0,1,0,0-9.15c-178.11,0-356.21,6.51-534.25-1.59-58.16-2.64-116.79,3.24-174.92,0-47.16-2.62-94.53-5.93-141.47-9.54-21.84-1.68-45.72-10.45-67.58-8.54a4.58,4.58,0,0,0,.8,9.12Z" transform="translate(-106 -490.95)"/><path class="cls-16" d="M692.17,1220.23c-3.59,29.18-.9,60.69,1.75,89.85,3.3,36.3,4.64,72.08,12.86,107.72,3,13.1,2.25,27.32,6.49,40.06A4.57,4.57,0,1,0,722,1455c-4.15-12.47-3.3-26.4-6.26-39.23-8.13-35.23-9.4-70.61-12.66-106.49-2.59-28.52-5.3-59.35-1.78-87.9a4.57,4.57,0,0,0-9.08-1.12Z" transform="translate(-106 -490.95)"/><path class="cls-16" d="M724.14,1195c2.55,46.83,7.49,93.57,10.33,140.43,2.56,42.26,2.14,85.89,12.43,127.07a4.58,4.58,0,1,0,8.88-2.22c-10.16-40.64-9.65-83.7-12.18-125.41-2.84-46.84-7.78-93.55-10.32-140.37a4.58,4.58,0,0,0-9.14.5Z" transform="translate(-106 -490.95)"/><path class="cls-16" d="M734.56,1189.74a4.37,4.37,0,0,1-.6.7,4.77,4.77,0,0,1-7.32-5.87c.46-.92,1.94-2.51,4.82-3.51,7.3-2.53,29.26-5.44,33.59-5.83,23.81-2.17,47.47-2.12,71.31-3.21,17.3-.78,34.64-1,51.93-1.82,13.26-.66,40-4.91,59.48-2.81,9.48,1,17.33,3.66,21.91,8.25a5.28,5.28,0,0,1,1.28,2.11,42.05,42.05,0,0,1,1.21,6c2,12.8,5,43.26,5.22,46.77.85,11.89,2.75,24.53,2.75,36.33a4.58,4.58,0,0,1-9.15,0c0-11.59-1.89-24-2.72-35.68-.28-3.87-4-41.17-5.77-49.64v-.07a21.15,21.15,0,0,0-8.54-3.75,73,73,0,0,0-15.39-1.71c-17.78-.4-38.65,2.8-49.81,3.36-17.31.86-34.66,1-52,1.82-23.7,1.08-47.22,1-70.89,3.18-3.23.29-16.84,2-25.85,3.94C738,1188.7,735.78,1189.36,734.56,1189.74Zm-.1-5.4,0,0,0,0Zm-.15-.19.06.08-.06-.07Z" transform="translate(-106 -490.95)"/><path class="cls-16" d="M988,1378.88c-2.29,28.34,4.92,57.66,4.92,86.19a4.58,4.58,0,1,0,9.15,0c0-28.29-7.22-57.36-4.95-85.45a4.57,4.57,0,0,0-9.12-.74Z" transform="translate(-106 -490.95)"/><path class="cls-16" d="M885.26,1194c.78-1.33.35-3.18.06-5-.51-3.4-1.38-6.88-1.38-9.58a4.58,4.58,0,1,1,9.15,0c0,2.89,1.21,6.78,1.54,10.35s-.14,6.94-1.85,9.5c-1.42,2.14-4.53,3.91-8.68,4.77-6.43,1.32-15.84.92-19.17,1.34-12,1.49-23.69.94-35.66.94-6.77,0-14,.52-19.92-.25-5.61-.73-10.25-2.62-13.26-6.18s-4.63-8.87-3.32-17.15a4.57,4.57,0,0,1,9,1.43c-.74,4.69-.41,7.81,1.28,9.81s4.36,2.62,7.44,3c5.61.73,12.38.18,18.75.18,11.6,0,22.93.58,34.53-.87,2.8-.35,10-.09,16-.83a22.1,22.1,0,0,0,4.41-.9A9.63,9.63,0,0,0,885.26,1194Z" transform="translate(-106 -490.95)"/><path class="cls-16" d="M880.67,1297.25c3.08-4.85,9.72-9.3,18.24-13,17.86-7.7,44.15-12.68,55.61-15.38,22.2-5.22,77.88-8.52,99.31-.27,19.71,7.58,36,21.84,54.3,31.69,10.81,5.82,22.86,8.08,33.21,14.26a4.57,4.57,0,1,1-4.69,7.85c-10.23-6.11-22.17-8.3-32.85-14.06-18-9.66-33.91-23.76-53.25-31.2-20.28-7.8-72.94-4.3-93.93.64-9.59,2.25-29.83,6.11-46.39,11.9a78.25,78.25,0,0,0-16.39,7.5,17.65,17.65,0,0,0-5.49,5l-.15.23a102,102,0,0,0,13.95-.89c26.34-2.88,69-11.81,79.4-11.81a4.58,4.58,0,0,1,0,9.15c-11.77,0-65.36,11.65-88.8,12.59-4.83.19-8.57-.12-10.77-.83a7.58,7.58,0,0,1-4.05-2.86,6.2,6.2,0,0,1-.37-6A25.6,25.6,0,0,1,880.67,1297.25Z" transform="translate(-106 -490.95)"/><path class="cls-16" d="M887,1305.19a26.56,26.56,0,0,0-11,9.13c-2.59,4.06-3,8.4-.06,12,1.45,1.81,4.23,3.36,7.79,4.26,6,1.49,14.39,1.56,17.66,1.56,28.12,0,57.59-1.86,85.21-7.38a4.57,4.57,0,0,0-1.8-9c-27,5.41-55.88,7.2-83.41,7.2a84.52,84.52,0,0,1-13.26-.84,21.13,21.13,0,0,1-3.88-1,3,3,0,0,1-1.17-.57c-.07-.1.06-.2.1-.31a3.46,3.46,0,0,1,.24-.57,9.18,9.18,0,0,1,1.16-1.65,16.39,16.39,0,0,1,5.6-4.32,4.57,4.57,0,1,0-3.16-8.58Z" transform="translate(-106 -490.95)"/><path class="cls-16" d="M983.28,1350.42c-.65-.08-3-.33-5.35-.43-16.19-.65-54.63.26-60.79-.56-5.7-.76-13.82-1-21-2.66-5.58-1.29-10.6-3.43-14-6.84-1.63-1.64-2.59-5.54-1.78-8.58a6.64,6.64,0,0,1,5.48-5.19,4.57,4.57,0,0,1,3.54,8c2.28,1.86,5.44,2.93,8.82,3.7,6.87,1.58,14.67,1.78,20.14,2.51,6.08.81,44-.15,60,.49a43.09,43.09,0,0,1,7.61.77,5.6,5.6,0,0,1,2.51,1.41,4.58,4.58,0,0,1-5.15,7.39Z" transform="translate(-106 -490.95)"/><path class="cls-16" d="M909,1353a9.44,9.44,0,0,0,1.24,1.18,19.15,19.15,0,0,0,2.55,1.56,61.59,61.59,0,0,0,15.28,5.11c30.65,5.11,59.58,4.5,90.39,4.5a4.58,4.58,0,1,1,0,9.15c-31.32,0-60.73.57-91.89-4.62-3.82-.64-15.7-3.86-21.77-8.34-3-2.25-4.79-4.95-5.1-7.58-.34-2.84.65-6.16,4.91-9.27a4.57,4.57,0,0,1,5.39,7.39A8.32,8.32,0,0,0,909,1353Z" transform="translate(-106 -490.95)"/><path class="cls-16" d="M1020.63,1379a19.08,19.08,0,0,0,6.83,7.47c3.53,2.38,7.82,4.08,11.29,5.81,15.43,7.72,32.28,14.38,50.09,11.83,2.47-.35,6-1.13,9.32-1.48a13.78,13.78,0,0,1,4.42,0c8.89,2.22,17.39,8.93,25.19,13.61a4.57,4.57,0,0,0,4.7-7.85c-8.52-5.11-18-12.21-27.67-14.64-4.53-1.13-12.59.61-17.25,1.28-15.93,2.27-30.91-4.06-44.71-11-2.67-1.34-5.9-2.63-8.8-4.3-2.14-1.24-4.15-2.64-5.15-4.74a4.58,4.58,0,0,0-8.26,3.94Z" transform="translate(-106 -490.95)"/><path class="cls-16" d="M1140.76,1304.14c-5.24,38.54-9.69,76.75-12.47,115.63-.9,12.59-5.93,25.77-5.93,38.15a4.57,4.57,0,1,0,9.14,0c0-12.17,5-25.12,5.92-37.5,2.76-38.68,7.19-76.7,12.4-115.05a4.57,4.57,0,0,0-9.06-1.23Z" transform="translate(-106 -490.95)"/><path class="cls-16" d="M1150.14,1300c12.48-1,24.89.08,36.71,4.51,14.07,5.28,29.76,7.47,42.55,15.14,3.29,2,3.6,6.24,3.42,10.8-.37,9.39-4.13,20.31-5.11,25.44-2.17,11.38-8.29,22.78-9.62,34-1.73,14.77-2.94,29.71-5.86,44.31-1.88,9.4-4.65,18.59-4.65,28.24a4.58,4.58,0,0,0,9.15,0c0-9,2.7-17.64,4.47-26.45,3-14.83,4.21-30,6-45,1.3-11.06,7.39-22.22,9.52-33.4,1-5.4,4.87-16.91,5.26-26.78.33-8.29-1.88-15.43-7.86-19-13.25-8-29.45-10.38-44-15.85-13.1-4.92-26.86-6.22-40.68-5.06a4.57,4.57,0,1,0,.76,9.11Z" transform="translate(-106 -490.95)"/><path class="cls-16" d="M1241.35,1333.2c6.79-.08,19.27,4,34.2,10,36.44,14.51,86.54,40.31,105.92,50a4.58,4.58,0,1,0,4.09-8.19c-19.5-9.75-69.94-35.71-106.62-50.31-16.42-6.53-30.24-10.73-37.7-10.64a4.58,4.58,0,0,0,.11,9.15Z" transform="translate(-106 -490.95)"/><path class="cls-16" d="M1161,1201.73c2.54,21-8.2,67.86-17.93,87.32a4.57,4.57,0,0,0,8.18,4.09c10.31-20.6,21.52-70.23,18.83-92.5a4.57,4.57,0,1,0-9.08,1.09Z" transform="translate(-106 -490.95)"/><path class="cls-16" d="M1165,1236c13.48,25.24,26.79,55.75,47.26,76.22a4.57,4.57,0,0,0,6.47-6.47c-19.86-19.86-32.59-49.58-45.66-74.06A4.57,4.57,0,0,0,1165,1236Z" transform="translate(-106 -490.95)"/><path class="cls-16" d="M1186.51,972.58c-1.65-.86-4.14-2.11-6.58-3.15-13.79-5.87-39-14.9-60.85-23.8-14.94-6.08-28.31-12.14-35.67-17.1-4.19-2.82-6.63-5.65-7.4-7.85a4.57,4.57,0,1,1,8.63-3c.16.45.71.84,1.33,1.38a36.12,36.12,0,0,0,4.86,3.38c10.34,6.22,29,13.85,47.62,21.06,21.74,8.44,43.33,16.3,51.89,20.67,3.44,1.76,5.25,3.6,5.74,4.58a4.47,4.47,0,0,1,.49,2.06,10.15,10.15,0,0,1-.76,3.13c-3.07,8.19-20.07,46.16-21.41,49.52a4.57,4.57,0,1,1-8.49-3.4C1167.16,1016.9,1182.12,983.48,1186.51,972.58Z" transform="translate(-106 -490.95)"/><path class="cls-16" d="M1461.84,1416.4c-.22-.54-2.64-6.3-5.61-12.05-15-29.2-53-94.14-56-99.93-33.08-62.84-65.37-126.48-103.42-186.72-12.6-20-22.38-42.17-36.24-61.37-9.57-13.25-20.58-25.47-30.22-38.61-11-15.06-21.26-30.48-37.37-41a4.57,4.57,0,1,1,5-7.66c17.06,11.13,28,27.29,39.74,43.24,9.66,13.16,20.68,25.4,30.26,38.67,14,19.35,23.87,41.73,36.56,61.83,38.18,60.45,70.6,124.3,103.79,187.36,3,5.78,41,70.78,56.07,100,2.74,5.32,4.74,9.5,5.7,12a11.71,11.71,0,0,1,.91,3.81,4.57,4.57,0,0,1-9.13.43Z" transform="translate(-106 -490.95)"/><path class="cls-16" d="M990.82,1261.54c.14-.52,1.28-4.77,2-8.74,4.22-23.51,10-78.07,10.84-84.73,5.62-43.1,9.83-86.49,15.22-129.64,5-40.21,4.63-81.7,10.65-121.73a4.57,4.57,0,0,1,9,1.36c-6,40-5.6,81.37-10.61,121.5-5.4,43.17-9.61,86.57-15.23,129.69-.87,6.7-6.66,61.54-10.9,85.16a77.25,77.25,0,0,1-2.22,9.76,8.61,8.61,0,0,1-1.83,3.27,4.57,4.57,0,0,1-6.95-5.9Z" transform="translate(-106 -490.95)"/><path class="cls-16" d="M1032.58,895.88a94,94,0,0,1,26.24,9.85c5.25,3.06,9.82,6.64,11.94,10.89,4.79,9.59,7.72,26.72,9.73,45.58,3.1,29.17,3.78,62.4,4.5,79.61.47,11.52,3.87,27.7,4.29,42.66.26,9.08-.51,17.68-4.22,24.18-7.31,12.78-22.67,25.12-37.84,37.83-16.15,13.52-32.08,27.44-39.45,42.19a4.57,4.57,0,0,0,8.18,4.09c6.9-13.8,22-26.61,37.14-39.27,16.08-13.47,32.17-26.75,39.91-40.3,4.46-7.8,5.74-18.08,5.43-29-.43-15-3.83-31.23-4.3-42.78-.85-20.26-1.66-62.51-6.33-94.58-2.08-14.26-5-26.56-8.85-34.32-2.82-5.63-8.59-10.66-15.53-14.7a103.87,103.87,0,0,0-29-10.92,4.58,4.58,0,0,0-1.81,9Z" transform="translate(-106 -490.95)"/><path class="cls-16" d="M1048.2,1152.87c.32,16.53,3.4,31,5.12,44.58,2.39,19,2,36.14-14.49,55.38a32.94,32.94,0,0,0-4.25,7.15,16.23,16.23,0,0,1-2.86,4.66,4.58,4.58,0,1,0,6.47,6.48,25.55,25.55,0,0,0,4.64-7.17,22.93,22.93,0,0,1,3-5.17c18.62-21.72,19.32-41.08,16.61-62.48-1.68-13.3-4.73-27.44-5-43.61a4.58,4.58,0,0,0-9.15.18Z" transform="translate(-106 -490.95)"/><path class="cls-16" d="M835.72,905.17c-1.94,17.94,1,36.34,1.63,54.23,1.39,37.38,2.83,75.32,8.38,112.37,1.17,7.76,4.79,14.93,5.32,22.83,1.44,21.59.09,57.26,6.77,77.3a4.58,4.58,0,0,0,8.68-2.9c-6.48-19.44-4.93-54.06-6.33-75-.54-8.15-4.19-15.57-5.39-23.58-5.51-36.71-6.91-74.31-8.28-111.35-.65-17.45-3.57-35.4-1.68-52.9a4.58,4.58,0,0,0-9.1-1Z" transform="translate(-106 -490.95)"/><path class="cls-16" d="M789.16,1097.75c0-22.6,6.37-45.9,10.8-68,5-25.27,7.61-52.71,8.84-78.45.28-5.91,0-14.58.61-22.42.48-5.85,1.51-11.27,3.44-15.11,2.69-5.38,6.87-8.78,11.61-11.47,3.93-2.22,8.27-3.9,12.1-6.22a4.58,4.58,0,1,1,4.74,7.83c-3.91,2.37-8.33,4.09-12.33,6.36-3.19,1.8-6.13,4-7.94,7.59-1.49,3-2.13,7.22-2.5,11.76-.63,7.73-.32,16.28-.59,22.11-1.25,26.18-3.87,54.11-9,79.82-4.32,21.57-10.62,44.28-10.62,66.33,0,.11,0,.71-.06,1.16,5,9.48,15,18.07,25.54,26.35,11.61,9.1,24.05,17.75,32.67,26.38a4.57,4.57,0,1,1-6.46,6.47c-10.13-10.14-25.69-20.27-38.71-31.19-9.27-7.78-17.28-16-21.65-24.74a5.8,5.8,0,0,1-.54-2.08C789.05,1099.53,789.14,1098,789.16,1097.75Z" transform="translate(-106 -490.95)"/><path class="cls-16" d="M821.76,1139.39c-1.09,10.79-5.23,21.46-5.23,32.25a4.58,4.58,0,1,0,9.15,0c0-10.49,4.12-20.85,5.18-31.33a4.57,4.57,0,1,0-9.1-.92Z" transform="translate(-106 -490.95)"/><path class="cls-16" d="M486.64,1118.4c13.27-8.69,29.9-13,44.16-20.09,24.5-12.25,47.79-27.42,70.76-42.28,41.64-27,78.34-62.66,117.38-93,12.2-9.49,16.66-17.52,30.55-24.46,23-11.52,47.87-12.55,74.07-23.77a4.58,4.58,0,1,0-3.61-8.41c-26.37,11.3-51.35,12.39-74.55,24-14.53,7.26-19.31,15.49-32.08,25.43-38.84,30.2-75.31,65.75-116.73,92.56-22.69,14.68-45.68,29.68-69.88,41.78-14.58,7.28-31.53,11.74-45.09,20.62a4.58,4.58,0,0,0,5,7.65Z" transform="translate(-106 -490.95)"/><path class="cls-16" d="M738.88,945.8a4.58,4.58,0,0,1,3.13-8.53,7.11,7.11,0,0,1,3.82,2.48,23.94,23.94,0,0,1,3.74,8.2c5.11,17.63,7.76,60,7.76,67.18a4.58,4.58,0,0,1-9.15,0c0-6-1.94-38.17-5.73-57.52A77.5,77.5,0,0,0,738.88,945.8Z" transform="translate(-106 -490.95)"/><path class="cls-16" d="M366.34,871.88c17.37,9.84,36.26,11.75,55.75,15.4,17.59,3.3,31,6.54,41.26,10.7,9.49,3.86,16.09,8.46,20.59,14.83,9.54,13.52,10,34.26,10,69.36a4.58,4.58,0,1,0,9.15,0c0-37.84-1.39-60.06-11.67-74.63s-30-22.19-67.64-29.25c-18.48-3.47-36.46-5-52.93-14.37a4.57,4.57,0,1,0-4.51,8Z" transform="translate(-106 -490.95)"/><path class="cls-16" d="M341.74,967.61c6.5,4.5,19.42,7.57,35.1,9.94,39.68,6,96.5,6.59,118.7,6.59a4.58,4.58,0,0,1,0,9.15c-22.45,0-79.94-.59-120.08-6.69-18.07-2.75-32.73-6.79-39.78-12.08-1.42-1.06-2.79-3.24-3.21-6.71-.54-4.5.25-12.29,2.06-21.63,4-20.73,12.78-49.59,20.37-66.07,2.48-5.38,4.9-9.51,7-11.87a10.75,10.75,0,0,1,4-3,4.57,4.57,0,0,1,3.45,8.47,15.45,15.45,0,0,0-1.22,1.34,51.82,51.82,0,0,0-4.93,8.92c-7.35,16-15.83,43.9-19.7,64-1.37,7.09-2.17,13.15-2.06,17.24A17.55,17.55,0,0,0,341.74,967.61Z" transform="translate(-106 -490.95)"/><path class="cls-16" d="M478.15,991.14c-2.48,11.23-1.71,27.11.21,44.09,2.76,24.43,7.85,51.24,7.85,68.94a4.57,4.57,0,0,0,9.14,0c0-18-5.1-45.18-7.9-70-1.79-15.84-2.68-30.63-.37-41.1a4.57,4.57,0,1,0-8.93-2Z" transform="translate(-106 -490.95)"/><path class="cls-16" d="M338.06,979c-2.93,21.2-1.68,42.81-2.42,64.28-2.32,67.35-5.15,137.25,6.61,203.89,2.28,12.91,6.12,44.33,16.15,64.32,4.87,9.71,11.32,16.77,19.24,19,39.11,11.17,82.8-8.2,118.44-22.78,24.17-9.88,49.8-17.37,74.3-26.74,14.67-5.61,62.88-23.24,95.21-38,14.49-6.63,25.85-12.85,30.17-17.16a4.57,4.57,0,0,0-6.47-6.47c-3.91,3.91-14.36,9.3-27.5,15.31-32.15,14.71-80.09,32.23-94.68,37.81-24.57,9.39-50.26,16.9-74.49,26.81-33.89,13.87-75.28,33.08-112.47,22.46-3.66-1-6.7-3.77-9.38-7.39a63.33,63.33,0,0,1-7.84-15.48c-6.89-18.75-9.78-42.6-11.67-53.28-11.65-66-8.78-135.27-6.48-202,.73-21.15-.55-42.44,2.35-63.34a4.58,4.58,0,0,0-9.07-1.25Z" transform="translate(-106 -490.95)"/><path class="cls-16" d="M396.71,874.48c14-25,32.68-49.46,50.45-72.08,25.7-32.71,43.43-53.78,65.64-63.44,22-9.57,48.27-7.65,90.85,4.51a4.57,4.57,0,1,0,2.51-8.79c-45.44-13-73.52-14.33-97-4.11-23.29,10.13-42.23,31.88-69.19,66.18-18,23-37,47.83-51.23,73.25a4.58,4.58,0,0,0,8,4.48Z" transform="translate(-106 -490.95)"/><path class="cls-16" d="M475,893.59c1.57-2.11,16.38-21.76,22.81-28.19,7.11-7.1,17.61-12.86,26-19.84,5.85-4.87,10.83-11.23,15.93-17.38,5.57-6.73,11.28-13.21,18.07-17.74,6.17-4.11,13.31-5.86,20.56-7.55,6.18-1.45,12.46-2.85,17.94-6.51a4.57,4.57,0,1,1,5.08,7.61c-6.43,4.29-13.7,6.11-20.93,7.81-6.18,1.44-12.32,2.75-17.57,6.25-6.08,4.05-11.12,9.94-16.11,16-5.46,6.59-10.85,13.36-17.11,18.58-8.17,6.81-18.44,12.36-25.37,19.28-6.09,6.1-16.38,21.33-21.54,27a12.91,12.91,0,0,1-4.15,3.27,5.22,5.22,0,0,1-2.76.29,4.57,4.57,0,0,1-.83-8.79Z" transform="translate(-106 -490.95)"/><path class="cls-16" d="M557.81,790.12c6.7-.1,13.28-1.84,19.91-3.6,5.88-1.56,11.83-3.15,18-3.15a4.58,4.58,0,0,0,0-9.15c-7,0-13.72,1.69-20.37,3.46-5.9,1.56-11.73,3.2-17.69,3.29a4.58,4.58,0,0,0,.13,9.15Z" transform="translate(-106 -490.95)"/><path class="cls-16" d="M568.33,767.06c9.92-1.3,20.51.42,30.46.42a4.57,4.57,0,1,0,0-9.14c-10.34,0-21.34-1.7-31.65-.35a4.57,4.57,0,0,0,1.19,9.07Z" transform="translate(-106 -490.95)"/><path class="cls-16" d="M667.46,744.31a4.58,4.58,0,0,1,3.39.69c24,16,22.4,45,7.68,65.88-14.59,20.65-41.76,32.86-68.09,15.93-16.17-10.39-21-32.66-16.27-52.8S613,736.2,633.06,734.86c11.64-.77,23.66,4.75,33.92,9.2A5.39,5.39,0,0,1,667.46,744.31ZM666,752.76a4.63,4.63,0,0,1-2.66-.3c-9-3.91-19.45-9.15-29.67-8.47-16.1,1.07-26.8,15.85-30.59,32.1s-.79,34.61,12.3,43C637,833,659.1,822.52,671.05,805.6,682.83,788.93,685,765.63,666,752.76Z" transform="translate(-106 -490.95)"/><path class="cls-16" d="M652.57,756.78l.15,0c11,3.69,17.18,10.07,19.87,17.15,4,10.56.24,23.16-8,32.15-9.08,9.92-23.34,15.32-37.35,9.08-6.52-2.89-10.44-7.27-12.45-12.31-2.86-7.18-1.7-15.93,2.29-24,6.41-12.95,20-23.72,32.84-23.13A4.52,4.52,0,0,1,652.57,756.78Zm-3.92,8.13c-9.35.1-18.68,8.62-23.36,18.07-4.44,8.94-4.64,19.28,5.67,23.87,12.74,5.66,25.57-2.42,31.2-13,2.73-5.11,3.82-10.89,2.08-16.07s-6.35-9.61-14.42-12.3A4.29,4.29,0,0,1,648.65,764.91Z" transform="translate(-106 -490.95)"/><path class="cls-16" d="M619.85,834c-11.47,20.74-14.71,48.41-19.57,71.3-9,42.31-15,92.88-7.07,137.93,8.11,46,30.69,86.24,78.9,106.9,29.22,12.52,53.58,15.89,84.43,4.87a32,32,0,0,0,10.14-6.28,69.52,69.52,0,0,1,7.49-6.1c52.36-33.66,84.22-93.09,105-150.14,4.47-12.27,5.48-27,11.13-38.27a4.58,4.58,0,0,0-8.19-4.09c-5.79,11.58-7,26.64-11.53,39.23-20.09,55.23-50.62,113-101.32,145.58a76.76,76.76,0,0,0-8.48,6.84,23.08,23.08,0,0,1-7.28,4.62c-28.41,10.14-50.84,6.86-77.74-4.67-45.06-19.31-65.92-57.11-73.5-100.08-7.75-43.91-1.74-93.19,7-134.44,4.68-22.06,7.58-48.79,18.62-68.78a4.57,4.57,0,0,0-8-4.42Z" transform="translate(-106 -490.95)"/><path class="cls-16" d="M839.49,1070.63c-18.39,27.63-42.13,51.66-70.21,68.51-35.53,21.31-76.59,16.81-109.72-2.67-33-19.38-58-53.58-61.74-91.42a488.44,488.44,0,0,1-1.2-89c3.16-41.18,13-80.78,25.81-120.23a4.57,4.57,0,1,1,8.7,2.82c-12.57,38.76-22.28,77.65-25.39,118.11a479.8,479.8,0,0,0,1.18,87.44c3.5,35,26.78,66.52,57.27,84.44,30.31,17.83,67.88,22.21,100.38,2.71,38.74-23.24,68.82-60.77,87.48-102.28,5.08-13.74,9.1-27.93,13-42.26,3-10.9,7-21.37,10.15-32.25.5-1.77,1.07-5.42,1.07-5.42a4.57,4.57,0,0,1,9-.1s1.39,8.37.58,12.44c-4.21,21.06-13.06,40.91-21.11,61q-2.06,5.14-4.34,10.22a212.9,212.9,0,0,1-16.85,35.75A4.58,4.58,0,0,1,839.49,1070.63Z" transform="translate(-106 -490.95)"/><path class="cls-16" d="M591.26,1267.3c-7.91,49-16.48,99.68-21,149.35-.87,9.52-1.2,19.55-2.77,29-1.68,10.1-6,26.25-6.09,40.61-.1,10.74,2.2,20.51,8.57,26.88a4.57,4.57,0,0,0,6.47-6.47c-4.78-4.78-6-12.27-5.9-20.33.13-13.86,4.35-29.44,6-39.19s2-19.94,2.85-29.68c4.5-49.47,13-100,20.91-148.72a4.57,4.57,0,1,0-9-1.46Z" transform="translate(-106 -490.95)"/><path class="cls-16" d="M649,1244c.14,4.5-2.65,10.09-3.52,14.68-3,15.63-4.85,31.43-7.65,47.08-6.78,38-10.38,75.62-13.32,113.81-.87,11.36-3.63,23.27-3.63,34.51a4.58,4.58,0,1,0,9.15,0c0-11,2.74-22.68,3.6-33.81,2.91-37.89,6.48-75.25,13.2-112.9,2.8-15.62,4.66-31.39,7.63-47,1-5.2,3.85-11.58,3.69-16.67a4.58,4.58,0,1,0-9.15.28Z" transform="translate(-106 -490.95)"/><path class="cls-16" d="M611.67,748.67a4.57,4.57,0,0,1-1.3-9,7.42,7.42,0,0,1,2.7,0,11.61,11.61,0,0,0,1.83.44,4.58,4.58,0,0,1,0,9.15A18.26,18.26,0,0,1,611.67,748.67Z" transform="translate(-106 -490.95)"/><path class="cls-16" d="M642.18,831c-9.18,23.48-9.87,50.82-14,75.62q-8.45,50.68-12.79,101.75c-.84,10.06-3.87,20.51-3.87,30.32a4.58,4.58,0,0,0,9.15,0c0-9.57,3-19.75,3.84-29.56q4.23-50.74,12.7-101c4-24.19,4.54-50.88,13.5-73.79a4.57,4.57,0,1,0-8.52-3.33Z" transform="translate(-106 -490.95)"/><path class="cls-16" d="M687.16,829c-4.84,29-12.65,57.89-16.33,87.33-3.35,26.82-5.63,53.85-10.91,80.3a4.57,4.57,0,1,0,9,1.79c5.33-26.66,7.64-53.92,11-81,3.66-29.31,11.45-58,16.27-87a4.57,4.57,0,0,0-9-1.5Z" transform="translate(-106 -490.95)"/><path class="cls-16" d="M687.27,771.89a4.57,4.57,0,0,1-4.76-7.68,5.42,5.42,0,0,1,2-1.07,26.28,26.28,0,0,1,5.05-.64c9.67-.57,32.14-.25,35.56-.49,37.64-2.69,74.9-4.76,112.67-4.76a4.58,4.58,0,0,1,0,9.15c-37.55,0-74.6,2.06-112,4.73-3.82.27-31.63-.18-38.29.72Z" transform="translate(-106 -490.95)"/><path class="cls-16" d="M857,765.31c3-.07,5.9-.28,8.87-.28a4.58,4.58,0,0,0,0-9.15c-3,0-6,.21-9.09.28a4.58,4.58,0,0,0,.22,9.15Z" transform="translate(-106 -490.95)"/><path class="cls-16" d="M695.57,820.17a221.47,221.47,0,0,0,34.58-1.63c15.92-2,32.29.21,48.11-2.43,10.71-1.79,22.2.45,32.94-1.34,9.83-1.64,20.8-.47,30.84-.47,13.36,0,26.88-.81,40.43-.81a4.58,4.58,0,1,0,0-9.15c-13.55,0-27.07.81-40.43.81-10.53,0-22-1.12-32.35.6-10.73,1.79-22.23-.45-32.93,1.34-15.7,2.61-32,.4-47.75,2.38A214.19,214.19,0,0,1,695.86,811a4.57,4.57,0,1,0-.29,9.14Z" transform="translate(-106 -490.95)"/><path class="cls-16" d="M1103.35,774.14c2.46-.63,5.55-.42,8.67-.13,3.83.35,7.7.88,10.87.88,22.23,0,44.75.43,66.9-1,74-4.94,148.7-.47,222.87-4.83,29.24-1.72,58.51-4.85,87.85-3.45,14.25.68,28.34,2.95,42.52,4.47s33.37.61,46.4,7.13c1.76.88,2.74,2.49,3.9,3.92a21.13,21.13,0,0,0,4.58,4.42,4.57,4.57,0,0,0,5.08-7.61c-1.79-1.19-2.86-3-4.2-4.59a16.64,16.64,0,0,0-5.27-4.32c-13.92-7-34.42-6.43-49.52-8-14.35-1.54-28.62-3.82-43-4.51-29.67-1.41-59.27,1.72-88.83,3.46-74.19,4.36-148.86-.11-222.94,4.83-22,1.46-44.26,1-66.29,1-6.43,0-15.71-2-21.82-.46a4.57,4.57,0,0,0,2.28,8.86Z" transform="translate(-106 -490.95)"/><path class="cls-16" d="M1119,829.72a4.58,4.58,0,0,1-3.91-8.27c1.3-.65,4.34-1.15,8.18-1.23,6.64-.13,16.34.56,19.37.25,26.85-2.68,54-.9,80.85-2.81,26.59-1.91,53.46,2.39,80,.35,48.56-3.74,98.17-.85,146.82.34,32.4.79,64.78-.71,97.11-.71a4.58,4.58,0,0,1,0,9.15c-32.4,0-64.86,1.49-97.33.7-48.35-1.18-97.64-4.07-145.9-.36-26.55,2-53.44-2.25-80-.35-26.81,1.91-53.83.12-80.6,2.8-3.14.31-13.21-.35-20.11-.21C1121.54,829.4,1119.2,829.69,1119,829.72Z" transform="translate(-106 -490.95)"/><path class="cls-16" d="M446.44,1521.35a31.41,31.41,0,0,0,9.85-1.26,47.08,47.08,0,0,1,7.64-1.64c16.36-1.36,32.9,1.47,49.24.61,19.72-1,40.52-4.16,59.86-4.16a4.58,4.58,0,0,0,0-9.15c-19.5,0-40.47,3.13-60.34,4.18-16.43.86-33.07-2-49.52-.59a57,57,0,0,0-9.15,1.89,22.12,22.12,0,0,1-7,1,4.57,4.57,0,0,0-.6,9.13Z" transform="translate(-106 -490.95)"/><path class="cls-16" d="M444.5,1553.88c15,4.6,33,.67,48.38,1.26,35.07,1.35,70.18,1.94,105.27,3,91.9,2.71,184.05-.59,275.94-.59,38.57,0,76.47,3.57,114.83,3.57a4.57,4.57,0,0,1,0,9.14c-38.36,0-76.26-3.57-114.83-3.57-92,0-184.21,3.31-276.21.6-35.12-1-70.25-1.63-105.35-3-16.53-.63-35.88,3.31-51.85-2-2.12-.71-4.51-3.23-5.6-7.72-1.48-6.12-1.42-16.86.21-25.58,1-5.46,2.73-10.15,4.8-12.83,2.46-3.19,5.52-4.3,8.78-3.48a4.57,4.57,0,0,1-1.42,9,12.86,12.86,0,0,0-1.16,1.94,32.94,32.94,0,0,0-2,7.06,66.41,66.41,0,0,0-.72,19.51A23.9,23.9,0,0,0,444.5,1553.88Z" transform="translate(-106 -490.95)"/><path class="cls-16" d="M1003.71,1572.54c126.94,4.41,253.47,17.87,380.77,12.57,17.47-.73,65.77,4.89,94.86-3.9,11-3.31,19.3-8.7,23.34-16.54s4-18.45-3-32.59a4.58,4.58,0,0,0-8.19,4.09c5.3,10.59,6.11,18.44,3.09,24.32s-9.62,9.47-17.84,12c-28.4,8.58-75.55,2.81-92.6,3.52-127.07,5.29-253.37-8.17-380.07-12.57a4.57,4.57,0,0,0-.32,9.14Z" transform="translate(-106 -490.95)"/><path class="cls-16" d="M1824.79,1417.54c-4.71-4.53-11.48-6.45-18.78-7.33-12.63-1.51-26.87.23-37.16.23H1656.06c-15,0-32.62-2.82-47.24.11a4.57,4.57,0,1,1-1.8-9c15.18-3,33.45-.29,49-.29h112.79c10.6,0,25.25-1.72,38.25-.16,9.62,1.15,18.35,4.12,24.45,10.22a8.94,8.94,0,0,1,2.15,4.05,44.89,44.89,0,0,1,.94,11c-.08,13.78-2.77,35.08-2.77,41a4.58,4.58,0,0,1-9.15,0c0-5.94,2.69-27.27,2.77-41.06a49.81,49.81,0,0,0-.37-7.35C1825,1418.46,1824.86,1417.8,1824.79,1417.54Z" transform="translate(-106 -490.95)"/><path class="cls-16" d="M1603.85,1465.58c3.09,2.7,9.5,4.75,13.18,5.54,23.76,5.09,52.73,1.92,76.68.42,43.17-2.7,86.69-5.65,130-5.65a4.58,4.58,0,1,1,0,9.15c-43.11,0-86.44,3-129.42,5.63-24.73,1.55-54.63,4.66-79.17-.6-5.2-1.12-14.27-4.52-18.16-8.42a9,9,0,0,1-2.16-4.59,66.35,66.35,0,0,1-.62-13.34c.35-12.61,2.34-30.16,4.68-40.74,1.26-5.66,3-9.59,4.27-10.89a4.58,4.58,0,0,1,6.66,6.27,55.7,55.7,0,0,0-2,6.6c-2.25,10.13-4.14,26.94-4.47,39a74.74,74.74,0,0,0,.2,9.62A17.91,17.91,0,0,0,1603.85,1465.58Z" transform="translate(-106 -490.95)"/><path class="cls-16" d="M1601.86,1477.55a4.57,4.57,0,0,1,7.87-4.66,13,13,0,0,1,1.52,5.33c.37,3.77,0,9.64-.66,16.67-1.33,13.23-3.92,30.84-4.66,45.78-.46,9.26-.31,17.42,1.61,22.52,2,5.36,5.69,13.78,10.37,17.52,7.65,6.12,24.43,9.81,44.91,12.06,49.63,5.42,120.66,1.13,143.8-8.12a4.57,4.57,0,1,1,3.4,8.49c-23.85,9.54-97,14.32-148.19,8.72-22.72-2.49-41.15-7.21-49.64-14-5.78-4.63-10.73-14.81-13.22-21.45-2.22-5.94-2.72-15.41-2.18-26.18.75-15.09,3.36-32.88,4.7-46.25a108.23,108.23,0,0,0,.75-13.47A23.1,23.1,0,0,0,1601.86,1477.55Z" transform="translate(-106 -490.95)"/><path class="cls-16" d="M1817.11,1473.64c-.17,15,1.6,45.48-1.09,71.55-1.68,16.23-4.82,30.77-12,37.91a4.57,4.57,0,0,0,6.47,6.46c6.28-6.27,10.4-17.26,12.79-30.44,5.15-28.49,2.74-67.56,2.94-85.38a4.58,4.58,0,0,0-9.15-.1Z" transform="translate(-106 -490.95)"/><path class="cls-16" d="M1736.89,1592.85a4.57,4.57,0,0,1-8.61,3.09,11.24,11.24,0,0,1-.24-6c.38-2,1.17-4.05,1.46-5.51a39.5,39.5,0,0,0,.23-4.77,13.24,13.24,0,0,1,1.19-5.1c2.21-4.42,7.17-6.77,13.06-7,7.37-.26,16,2.86,19.39,6.3,3.19,3.19,4.18,6.87,4.34,10.75.09,2.12-.1,4.31-.09,6.45a9.11,9.11,0,0,0,.7,4,4.57,4.57,0,1,1-8.18,4.09c-1.59-3.18-1.74-6.7-1.63-10.28a39.78,39.78,0,0,0,0-4.5,6,6,0,0,0-1.63-4c-2.21-2.22-7.86-3.79-12.6-3.63-2.21.07-4.37.27-5.2,1.93a5.79,5.79,0,0,0-.27,2.35,34.75,34.75,0,0,1-.36,5.21c-.25,1.28-.86,3-1.29,4.72C1737,1591.56,1736.91,1592.68,1736.89,1592.85Z" transform="translate(-106 -490.95)"/><path class="cls-16" d="M1652.53,1585a4.56,4.56,0,0,1,.38,3.63,4.79,4.79,0,0,1-2.05,2.76,4.4,4.4,0,0,1-4.16.44,5.5,5.5,0,0,1-3.19-4.45c-.44-2.85-.38-10.94,1.57-16,1.34-3.49,3.64-5.72,6.28-6.39,11-2.75,19.43-.46,25.15,4.76s8.73,13.28,8.73,23.26a4.57,4.57,0,1,1-9.14,0c0-7-1.82-12.91-5.75-16.5-3.71-3.38-9.21-4.41-16.26-2.76a15.56,15.56,0,0,0-.92,2.36A40.7,40.7,0,0,0,1652.53,1585Zm-8.26.61h0l0,0Z" transform="translate(-106 -490.95)"/><path class="cls-16" d="M1619.86,1397.77c-12.77-15.89-9.88-41.74,7.2-51.5a4.57,4.57,0,0,0-4.54-7.94c-21.64,12.36-26,45-9.79,65.17a4.57,4.57,0,0,0,7.13-5.73Z" transform="translate(-106 -490.95)"/><path class="cls-16" d="M1662.86,1399.08c-4.66-7.74-11.55-15-15.52-22.94-21.58-43.16-31.76-95.29-16.16-142.11,3-8.89,10.58-16,19.39-19.29,8.6-3.23,18.44-2.83,26.19,3.46a16,16,0,0,1,3.56,4.83,53.64,53.64,0,0,0,4.47,7.29c11,13.82,15,25.45,16.44,43.15a4.58,4.58,0,1,0,9.12-.76c-1.65-19.74-6.09-32.69-18.42-48.11a44.31,44.31,0,0,1-3.63-6,25.21,25.21,0,0,0-5.78-7.47c-10.42-8.45-23.61-9.25-35.17-4.91-11.34,4.26-21,13.51-24.85,25-16.37,49.1-6,103.82,16.65,149.09,4.08,8.16,11.09,15.63,15.88,23.57a4.57,4.57,0,1,0,7.83-4.72Z" transform="translate(-106 -490.95)"/><path class="cls-16" d="M1653.77,1219.88c-1.2,42.41,8.61,87,15.2,128.77,2.48,15.7,1.91,36.6,9.14,51.06a4.58,4.58,0,1,0,8.19-4.09c-6.85-13.69-5.94-33.53-8.29-48.4-6.51-41.24-16.28-85.23-15.1-127.09a4.57,4.57,0,1,0-9.14-.25Z" transform="translate(-106 -490.95)"/><path class="cls-16" d="M1711.81,1398.1c2.53-35.82-6.54-75.21-1.49-110.52a4.58,4.58,0,0,0-9.06-1.29c-5.07,35.51,4,75.14,1.43,111.16a4.57,4.57,0,1,0,9.12.65Z" transform="translate(-106 -490.95)"/><path class="cls-16" d="M1716.15,1259.47c2.25-11.26,7.8-29.33,17.38-39.7,5.42-5.88,12.26-9,20.74-5.51,6.74,2.8,9.88,10.7,11.1,17.58,8.17,46.31-4.38,114-21.79,157.47a4.58,4.58,0,0,0,8.5,3.39c18-44.88,30.73-114.68,22.3-162.44-1.73-9.78-7-20.46-16.59-24.45-12.62-5.26-22.92-1-31,7.75-10.66,11.56-17.12,31.58-19.62,44.12a4.57,4.57,0,0,0,9,1.79Z" transform="translate(-106 -490.95)"/><path class="cls-16" d="M1746.35,1227.68c-4.91,29.08-6.9,58.65-11.75,87.72a4.57,4.57,0,1,0,9,1.51c4.85-29.07,6.84-58.63,11.75-87.71a4.57,4.57,0,0,0-9-1.52Z" transform="translate(-106 -490.95)"/><path class="cls-16" d="M1727.61,1348c-1.1,11.48-3,22.82-4.32,34.28a4.57,4.57,0,1,0,9.09,1c1.28-11.52,3.23-22.9,4.33-34.42a4.57,4.57,0,0,0-9.1-.88Z" transform="translate(-106 -490.95)"/><path class="cls-16" d="M1781.11,1245.12c7-15.84,21.4-24.83,33.62-21.88,8,1.93,14.49,9.09,17.32,22.11,2,9,2.48,19.27.51,28.31-2.06,9.51-20.18,61.69-34.68,94.06a169.6,169.6,0,0,1-9.93,19.6,28.64,28.64,0,0,1-2.36,3.32,3.26,3.26,0,0,1-.85.88,4.58,4.58,0,0,0,4.1,8.19,12.62,12.62,0,0,0,3.72-3.14,69.07,69.07,0,0,0,7.57-12.3c15.24-29.64,39-97.58,41.37-108.67,2.24-10.28,1.72-21.94-.51-32.19-3.81-17.51-13.4-26.47-24.11-29.06-15.78-3.81-35.11,6.62-44.14,27.07a4.58,4.58,0,0,0,8.37,3.7Z" transform="translate(-106 -490.95)"/><path class="cls-16" d="M1771.35,1395c3-17.45,16.75-37.64,23.75-54,6.09-14.22,9.15-29.76,14.44-44.32a4.57,4.57,0,1,0-8.59-3.13c-5.24,14.4-8.23,29.78-14.26,43.85-7.26,16.93-21.26,37.95-24.36,56a4.58,4.58,0,0,0,9,1.54Z" transform="translate(-106 -490.95)"/><path class="cls-16" d="M1815.91,1264a79.85,79.85,0,0,1,2.9-11,4.57,4.57,0,0,0-8.68-2.89,88.08,88.08,0,0,0-3.21,12.19,4.57,4.57,0,1,0,9,1.68Z" transform="translate(-106 -490.95)"/><path class="cls-16" d="M1841.45,1277.84c7.73-.4,12.89,1.18,15.83,4.84,2.18,2.71,3.06,6.41,3.16,10.71a60.14,60.14,0,0,1-2.57,17.07c-9.07,32.83-38.55,76.92-49.71,88.08a4.57,4.57,0,1,0,6.47,6.46c8.16-8.15,25.76-33.13,38.81-59.16,8.84-17.64,15.53-35.78,16.12-49.58.37-8.53-1.59-15.57-6.09-20.4s-11.67-7.71-22.49-7.16a4.58,4.58,0,0,0,.47,9.14Z" transform="translate(-106 -490.95)"/><path class="cls-16" d="M1839,1367.11a10.39,10.39,0,0,0,4.47.05c.42-.07.82-.17,1.23-.25.24-.06.5-.26.79,0,1.21,1,1.42,2.39,1.25,4a24.62,24.62,0,0,1-3.42,9c-6,10.67-17.51,22.08-21.6,24.81a4.57,4.57,0,1,0,5.07,7.61c5.43-3.62,22.33-20.62,27.46-34.1,2.88-7.59,2.16-14.23-3-18.39a8.65,8.65,0,0,0-6.62-2.08,17.56,17.56,0,0,0-2,.33,3,3,0,0,1-1.43.22,4.58,4.58,0,0,0-2.17,8.89Z" transform="translate(-106 -490.95)"/><path class="cls-16" d="M202.82,1525c-1.09-.14-2.6-.32-3-.32-8,0-23.49-1.09-36.84-.61-8,.29-15.18,1-18.91,3.21a3.81,3.81,0,0,0-1.22,1.84,17.28,17.28,0,0,0-1.22,4.73,20.06,20.06,0,0,0,0,5,5.29,5.29,0,0,0,.67,2.35,4.57,4.57,0,1,1-7.2,5.63c-2.14-2.72-3.22-8.49-2.51-14.14.74-5.82,3.39-11.21,6.81-13.27s9.51-3.48,16.57-4.1c14.63-1.27,34.41.2,43.89.2,1.18,0,5.91.32,8.08,1.35a5.87,5.87,0,0,1,3.16,3.4,24.14,24.14,0,0,1,.72,10.67,71.24,71.24,0,0,0-.89,8.25,4.58,4.58,0,0,1-9.15,0,81.08,81.08,0,0,1,1-9.32A19,19,0,0,0,202.82,1525Z" transform="translate(-106 -490.95)"/><path class="cls-16" d="M147.85,1548.3c10.84-.8,21.52-2.26,32.28-3.08,7-.54,13.31,1,20.12-.68a4.58,4.58,0,1,0-2.22-8.88c-6.29,1.58-12.16-.06-18.6.43-10.76.83-21.43,2.29-32.25,3.09a4.57,4.57,0,1,0,.67,9.12Z" transform="translate(-106 -490.95)"/><path class="cls-16" d="M123.83,1566.76a60.26,60.26,0,0,0,7.78.27c8.34-.08,17.9-1.12,22.5-1.35,21.14-1.06,42,1.93,63,1.93a4.58,4.58,0,1,1,0,9.15c-20.85,0-41.56-3-62.55-1.94-5.48.27-17.89,1.64-27.14,1.31-4.71-.17-8.7-.87-11.08-2.07-3.6-1.8-3.38-5.33-2.58-7.75,1.17-3.49,11.57-17.16,17.6-22.17,2.78-2.32,5.38-2.91,6.72-2.72a4.57,4.57,0,0,1,.14,9,110.64,110.64,0,0,0-8.92,9.15C127.16,1562.21,125.13,1564.82,123.83,1566.76Z" transform="translate(-106 -490.95)"/><path class="cls-16" d="M204.55,1546.91c2.21-.16,3.82,1,5.15,2.57a23.71,23.71,0,0,1,3.23,5.47c2.86,6.3,4.72,13.56,7,17a4.57,4.57,0,1,0,7.61-5.08c-2.62-3.92-4.48-13.1-8.3-19.62-3.51-6-8.44-10-15.37-9.48a4.58,4.58,0,0,0,.66,9.13Z" transform="translate(-106 -490.95)"/><path class="cls-16" d="M117.29,1640.89c.65.19,1.47.41,2.16.55,6.84,1.27,17.65,1.42,20.41,1.7,21.88,2.19,58,4.37,79.46-1a4.58,4.58,0,1,1,2.22,8.88c-22.3,5.57-59.84,3.5-82.59,1.22-3.33-.33-17.76-.6-24.34-2.55-3.22-1-5.13-2.66-5.85-4.1a8.7,8.7,0,0,1-.59-3.25c-.18-6.77.93-36.76.93-39.45,0-10.36-1.39-24.56,3.06-34.33a4.57,4.57,0,1,1,8.32,3.8c-4,8.67-2.23,21.33-2.23,30.53C118.25,1605.43,117.25,1632.37,117.29,1640.89Z" transform="translate(-106 -490.95)"/><path class="cls-16" d="M223.47,1642.47a17.21,17.21,0,0,0,.66-2.64c.51-4.09.12-9.17.32-11.6.58-7,2.2-23,1.1-36.19a48.68,48.68,0,0,0-2-11c-.75-2.25-1.59-4.11-3-5a4.58,4.58,0,1,1,5-7.66c4.05,2.65,6.9,8.49,8.24,16.09,2.58,14.56.48,36-.23,44.55-.26,3,.27,9.87-.79,14.43-.8,3.44-2.55,5.87-4.77,7a4.58,4.58,0,0,1-4.54-7.93Z" transform="translate(-106 -490.95)"/><path class="cls-16" d="M106.92,1650.24a26,26,0,0,1,.28-3.08,6.35,6.35,0,0,1,.81-2,4.76,4.76,0,0,1,2.71-2,4.67,4.67,0,0,1,5.38,6.84c0,.55-.08,1.19-.1,1.36-.1.85-.54,5.72-.73,7.93a31.11,31.11,0,0,0,8.59.93c4.66,0,9.4-.22,13.19.12,23.29,2.12,46.41,1.55,69.81,0,2.69-.18,9,.86,14.25.52a13.71,13.71,0,0,0,2.88-.44,7.8,7.8,0,0,0,1-.42,3.34,3.34,0,0,0,0-2,23.22,23.22,0,0,0-.79-2.81,23.45,23.45,0,0,1-1.44-6.9,4.57,4.57,0,0,1,9.14,0c0,2.34,1.36,4.81,1.93,7.29a12.45,12.45,0,0,1-.75,8.59c-1.41,2.81-4.36,4.7-8.36,5.44-5.69,1-14-.38-17.28-.16-23.87,1.59-47.47,2.15-71.24,0-4.36-.39-10,.11-15.34-.16a29.27,29.27,0,0,1-11.46-2.51,6.39,6.39,0,0,1-3.24-4.71C105.56,1658.73,106.71,1651.87,106.92,1650.24Zm3.06,1.29a4.14,4.14,0,0,0,2.16.58A4.54,4.54,0,0,1,110,1651.53Z" transform="translate(-106 -490.95)"/><path class="cls-16" d="M140.34,1595.3c16.75-.19,33.43-1.18,50.07-1.18,5.57,0,12,1.17,18.13,1.17a4.58,4.58,0,1,0,0-9.15c-6.17,0-12.56-1.17-18.13-1.17-16.67,0-33.39,1-50.17,1.18a4.58,4.58,0,1,0,.1,9.15Z" transform="translate(-106 -490.95)"/><path class="cls-16" d="M144.83,1609.43c12.64-1.4,25.44-1.44,38.11-2.54,7.07-.62,13.08-2.7,20.07-1a4.58,4.58,0,0,0,2.22-8.88c-8-2-15,0-23.08.72-12.74,1.1-25.61,1.15-38.33,2.56a4.57,4.57,0,0,0,1,9.09Z" transform="translate(-106 -490.95)"/><path class="cls-16" d="M168.15,1616.38a13.52,13.52,0,0,0-2,6c-.49,4-.1,9.37-.1,12a4.58,4.58,0,1,0,9.15,0c0-2.11-.3-6.06-.1-9.49.08-1.34,0-2.6.49-3.26a4.57,4.57,0,1,0-7.47-5.28Z" transform="translate(-106 -490.95)"/><path class="cls-16" d="M163.52,1630.89a19.29,19.29,0,0,1,6.19-.06c2.94.28,5.92.69,8.41.69a4.58,4.58,0,0,0,0-9.15c-5.06,0-12.15-1.56-16.88-.33a4.57,4.57,0,1,0,2.28,8.85Z" transform="translate(-106 -490.95)"/><path class="cls-16" d="M238.39,1407.43c-2.35,17.27.54,34.5.54,51.75,0,16.37,2.27,32.85,1.31,49.2s-3.78,44-1.33,68.08c1.73,17,6.25,32.31,15.25,41.31,3.44,3.44,10.18,5.77,18.5,6.84,16.86,2.15,40.7,0,50.18-.74,16.79-1.29,34.35-.24,48.94-9.36a4.57,4.57,0,1,0-4.85-7.75c-13.32,8.33-29.46,6.81-44.79,8-9.13.71-32.08,2.86-48.31.78-5.86-.75-10.78-1.81-13.2-4.23-7.76-7.75-11.13-21.08-12.62-35.77-2.4-23.55.42-50.59,1.37-66.61,1-16.53-1.3-33.19-1.3-49.74,0-16.84-2.92-33.65-.62-50.51a4.58,4.58,0,0,0-9.07-1.24Z" transform="translate(-106 -490.95)"/><path class="cls-16" d="M241.57,1402.09a4.54,4.54,0,0,1,1-1.67c5-5.49,15.76-10,29.24-12.94,29.42-6.52,72-7,87.73-3.51,5.84,1.3,23.93,7.21,32.67,14.89,5.18,4.56,7.29,9.84,5.34,15.06-1.27,3.39-4.54,6.49-9.09,8.89-8.31,4.4-21.06,6.88-26.48,7.88-14,2.6-62.73,5.26-93.88-3-14.89-3.93-25.77-10.69-28.89-20A4.57,4.57,0,0,1,241.57,1402.09Zm7.3,4.9a18.34,18.34,0,0,0,6.06,5.69,56.07,56.07,0,0,0,15.46,6.2c29.83,7.87,76.46,5.31,89.89,2.82,4.22-.78,13.36-2.48,20.65-5.48a27.94,27.94,0,0,0,5.75-3,6.12,6.12,0,0,0,2.27-2.47,2.84,2.84,0,0,0-.66-2.63,19.82,19.82,0,0,0-5.61-4.9c-8.32-5.37-20.74-9.28-25.16-10.27-15.07-3.34-55.68-2.72-83.77,3.51-11.16,2.48-20.32,5.61-24.44,10.16A4.37,4.37,0,0,1,248.87,1407Z" transform="translate(-106 -490.95)"/><path class="cls-16" d="M390.3,1410c-2.31,8.78,0,21.57-.34,30.78a697.77,697.77,0,0,1-6.47,70.71c-3.22,22.57-7.19,45.49-11.67,67.88-1.7,8.48-6.17,19-6.17,27.37a4.58,4.58,0,0,0,9.15,0c0-7.84,4.4-17.63,6-25.58,4.51-22.55,8.51-45.64,11.76-68.38a707.47,707.47,0,0,0,6.55-71.64c.33-8.63-2.12-20.6,0-28.81a4.57,4.57,0,1,0-8.84-2.33Z" transform="translate(-106 -490.95)"/><path class="cls-16" d="M254.7,1460.66a42.25,42.25,0,0,1,6.12-.34,475.43,475.43,0,0,0,85.1,7.3,4.58,4.58,0,1,1,0,9.15,484.36,484.36,0,0,1-86.48-7.4c-.49.06-3.63.45-4.87.45a6.29,6.29,0,0,1-3.15-.73,4.57,4.57,0,0,1,3.28-8.43Z" transform="translate(-106 -490.95)"/><path class="cls-16" d="M356.55,1475.48c1.87-.49,3.1,0,5,.33a4.57,4.57,0,1,0,1.79-9c-3.41-.68-5.67-1.1-9.08-.21a4.57,4.57,0,0,0,2.32,8.85Z" transform="translate(-106 -490.95)"/><path class="cls-16" d="M378.76,1475.29a9.69,9.69,0,0,1,1.32-.74,4.57,4.57,0,1,0-4.09-8.18,14,14,0,0,0-2,1.13,4.58,4.58,0,0,0,4.8,7.79Z" transform="translate(-106 -490.95)"/><path class="cls-16" d="M458.21,1639.5l-.21-.12a4.57,4.57,0,0,1-1.6-6.27c4.12-7,12.85-11.88,23.32-14.35,14.64-3.47,32.55-2.3,43.62,2.72,9.93,4.5,14.77,11.94,11.27,21.27-2.13,5.68-7.82,10.1-15.65,12.78-10.07,3.45-23.75,4.22-35.37,2.67-8.12-1.09-15.23-3.35-19.66-6.4-4.09-2.82-6.18-6.4-6.18-10.29A4.67,4.67,0,0,1,458.21,1639.5Zm6.25-2a4.56,4.56,0,0,1,2.44,4,2.64,2.64,0,0,0,1,1.8,12.1,12.1,0,0,0,2.88,2c3.57,1.86,8.52,3.13,14,3.86,10.24,1.37,22.31.79,31.19-2.26,4.82-1.65,8.74-3.84,10-7.33,1.25-3.34-.33-5.93-3.19-7.9a31.11,31.11,0,0,0-10.74-4.24,69.8,69.8,0,0,0-33.79,1.21C472.26,1630.5,467.09,1633.3,464.46,1637.47Z" transform="translate(-106 -490.95)"/><path class="cls-16" d="M494.57,1625.32c-.31,3.44-2,6.78-3.75,10.12-2.18,4.12-4.58,8.2-5.93,12.26a4.58,4.58,0,0,0,8.68,2.9c1.2-3.61,3.39-7.21,5.33-10.88,2.36-4.44,4.36-9,4.79-13.55a4.58,4.58,0,0,0-9.12-.85Z" transform="translate(-106 -490.95)"/><path class="cls-16" d="M575.7,1658.06a4.57,4.57,0,0,1-4.77-.28c-4.89-3.4-5.91-7-7.75-12.48-4.75-14.25,2.68-26.85,13.93-34s25.91-8.3,35.28-1.09c6.25,4.81,7.55,9.84,9,16.91,3.31,16.57-8.38,29.51-21.48,34.08C591,1664.34,581.63,1663.42,575.7,1658.06Zm.41-7.82a4.56,4.56,0,0,1,5.45.77c3.61,3.61,9.65,3.56,15.31,1.59,9.2-3.21,17.84-12,15.52-23.65-.94-4.7-1.42-8.25-5.58-11.45-6.6-5.08-16.93-3.39-24.81,1.58s-13.43,13.45-10.15,23.32C573,1645.76,573.17,1648.17,576.11,1650.24Z" transform="translate(-106 -490.95)"/><path class="cls-16" d="M604,1615.83c-6.27,7.11-12.67,14.54-18.95,21.87-3.62,4.22-8.41,6.94-11.66,11.82a4.57,4.57,0,0,0,7.61,5.07c3-4.55,7.61-7,11-10.93,6.26-7.3,12.64-14.7,18.88-21.78a4.58,4.58,0,1,0-6.87-6.05Z" transform="translate(-106 -490.95)"/><path class="cls-16" d="M622.09,1598.35a4.56,4.56,0,0,1,1-3.45c4.07-4.94,12-7.74,21.13-8.64a112.24,112.24,0,0,1,33.74,2.45c3,.74,9.54,3.06,13.53,6.61,3.83,3.41,5.58,7.78,3.36,12.78-3.19,7.18-11.46,10.72-21.62,11.48-12.66,1-28.22-2-35.85-3-3.22-.4-11.76-2.67-15.36-6.45-2.63-2.76-3.56-6.09-1.62-10A4.58,4.58,0,0,1,622.09,1598.35Zm6.69,5.53a12.21,12.21,0,0,0,1.63,1.15,20.23,20.23,0,0,0,2,.87,29.2,29.2,0,0,0,6.17,1.62c7.25.9,22,3.84,34,2.94a29,29,0,0,0,9.47-2,8.23,8.23,0,0,0,4.47-4,1.24,1.24,0,0,0-.24-1.32,8.7,8.7,0,0,0-2.2-1.94,29.47,29.47,0,0,0-8.31-3.54,102.15,102.15,0,0,0-30.62-2.22c-6.35.63-12.14,1.92-15,5.36a4.61,4.61,0,0,1-1.11,1A4.49,4.49,0,0,1,628.78,1603.88Z" transform="translate(-106 -490.95)"/><path class="cls-16" d="M654.83,1596a4.52,4.52,0,0,1-.26-3.73,4.58,4.58,0,0,1,5.87-2.72c1.67.61,3.74,2.61,3.56,6.46-.19,4-3,12.69-3.64,15.57l0,.08a4.57,4.57,0,0,1-9.13-.29,23.06,23.06,0,0,1,.92-4.48C653,1603.65,654.58,1598.79,654.83,1596Z" transform="translate(-106 -490.95)"/><path class="cls-16" d="M723.28,1634.68c-10.11-5-13.46-17.17-10.81-29.2,2.36-10.73,9.45-21,19.35-24.73,6.8-2.59,15-2.35,24.1,3,10.09,5.94,13.91,16.19,12.79,26.4-1.63,14.82-13.9,29.39-31.84,29.39-2,0-4.1.27-6.1.08a11.37,11.37,0,0,1-5.67-2A4.53,4.53,0,0,1,723.28,1634.68Zm7.62-4.27a5.57,5.57,0,0,0,2.09.14c1.3,0,2.63-.16,3.88-.16,12.88,0,21.58-10.59,22.75-21.23.74-6.76-1.67-13.6-8.34-17.52-6.13-3.61-11.62-4.09-16.2-2.34-7.17,2.73-12,10.38-13.68,18.15-1.76,8-.44,16.51,6.67,19.36A4.58,4.58,0,0,1,730.9,1630.41Z" transform="translate(-106 -490.95)"/><path class="cls-16" d="M748.05,1589.93c-1.78,9-15,29.32-22,36.35a4.57,4.57,0,0,0,6.47,6.47c7.91-7.91,22.56-30.88,24.55-41.06a4.57,4.57,0,1,0-9-1.76Z" transform="translate(-106 -490.95)"/><path class="cls-16" d="M639.81,1650.78a4.53,4.53,0,0,1,1.07-3c8.26-9.89,21-13.82,33.43-14.86,7.76-.64,15.81-.83,23.4,1.24,6.77,1.85,16.87,6.35,22.79,12.08,5.13,5,7.27,10.86,4.6,16.82-1.46,3.24-4.58,6.72-10.31,10-11.64,6.71-32.51,8-49.76,2.93-12-3.51-22.14-10.09-26.79-19.39A4.58,4.58,0,0,1,639.81,1650.78Zm7.54,3.44c4,6.32,11.63,10.52,20.25,13,14.77,4.33,32.66,3.66,42.63-2.07a18.79,18.79,0,0,0,5.85-4.72,4.28,4.28,0,0,0,1-2.79c-.18-2.65-2.64-4.85-5.47-7a53.14,53.14,0,0,0-16.3-7.71c-6.57-1.79-13.53-1.51-20.24-1-10,.83-20.5,3.62-27.18,11.61A3.45,3.45,0,0,1,647.35,1654.22Z" transform="translate(-106 -490.95)"/><path class="cls-16" d="M689.91,1641.77c-4.26,6.31-15,18.21-17.38,25.21a4.57,4.57,0,0,0,8.68,2.89c2.15-6.44,12.36-17.17,16.28-23a4.57,4.57,0,1,0-7.58-5.12Z" transform="translate(-106 -490.95)"/><path class="cls-16" d="M746.74,1660.23a4.63,4.63,0,0,1,0-.91,4.74,4.74,0,0,1,1.67-3.49,10.08,10.08,0,0,1,3.54-1.75,102.94,102.94,0,0,1,17-2.95c6.41-.49,23.08.59,34.57,5.6,9.4,4.1,15.3,10.81,13.45,20.07-1,5-4.81,8.78-10.82,11-10.66,3.88-29.12,2.68-43.38-1.64-8.67-2.62-15.75-6.48-19.12-10.65s-3.91-8.5-1.18-13A4.58,4.58,0,0,1,746.74,1660.23Zm4.12,3.94a4.51,4.51,0,0,1-.61,3c-.85,1.42.24,2.58,1.64,3.8,3,2.57,7.85,4.73,13.47,6.43,10.72,3.25,24.13,4.69,33.62,2.87a18.8,18.8,0,0,0,6.79-2.44,4.53,4.53,0,0,0,2.17-2.8c1-4.9-3.16-7.71-8.13-9.88-10-4.38-24.62-5.3-30.22-4.87-4,.31-12.82,2.18-15.12,2.68l-.12.12A4.52,4.52,0,0,1,750.86,1664.17Zm4-7.37a4.52,4.52,0,0,1,1,2.67A4,4,0,0,0,754.91,1656.8Z" transform="translate(-106 -490.95)"/><path class="cls-16" d="M780.15,1657.69c-4.2,7.14-9.09,14.32-12.82,21.78a4.57,4.57,0,0,0,8.18,4.09c3.64-7.28,8.42-14.26,12.52-21.23a4.57,4.57,0,1,0-7.88-4.64Z" transform="translate(-106 -490.95)"/><path class="cls-16" d="M806.33,1623.39c22.35-6.69,58.56-8.14,82.1-9.82,48.49-3.46,96.88-9.8,145.63-11.64,14.36-.54,28.61.32,43,.32,8.53,0,15.82-.14,21.68.6,4.61.58,8.22,1.53,10.4,4.21,1.39,1.71,2.11,4.07,2.35,7.22.3,4-.19,8.94-1.45,15.24-1.12,5.62-1.83,11.18-4.32,16.17a4.57,4.57,0,1,0,8.18,4.09c2.85-5.71,3.83-12,5.11-18.46,3.13-15.63,1.56-24.7-2.78-30-2.88-3.54-7.06-5.72-12.55-6.88-6.73-1.42-15.73-1.3-26.62-1.3-14.47,0-28.82-.86-43.31-.31-48.85,1.84-97.34,8.19-145.93,11.66-24.11,1.72-61.18,3.33-84.07,10.18a4.57,4.57,0,1,0,2.62,8.76Z" transform="translate(-106 -490.95)"/><path class="cls-16" d="M805.74,1626.57a7.13,7.13,0,0,0,.76,1.51c3.35,4.69,8.68,6.32,14.08,7.66,21.28,5.32,43,7,64.73,8.7,35.89,2.76,72.29,1.46,108.1,5,14.87,1.49,30.31-1.21,45.13.65,10.31,1.28,33.38,3,50.71,1.73,6.83-.5,12.72-1.4,16.26-3.18a4.58,4.58,0,0,1,4.1,8.19c-4.31,2.15-11.39,3.5-19.68,4.12-18,1.33-41.84-.45-52.52-1.79-14.75-1.84-30.12.86-44.91-.61-35.74-3.58-72.07-2.28-107.89-5-22.27-1.71-44.47-3.49-66.25-8.94-7.52-1.88-14.64-4.69-19.3-11.22a26.59,26.59,0,0,1-1.95-3.77,7.94,7.94,0,0,1-.45-4.56,21.64,21.64,0,0,1,2.85-7.5c2.25-3,5.11-2.64,6.75-1.67a4.58,4.58,0,0,1,1.62,6.27,4.41,4.41,0,0,1-1.16,1.3Zm-3.21-2.37.07,0-.13,0Zm-.19-.07.09,0-.19-.07Zm-.18-.07.07,0L802,1624ZM802,1624l0,0-.18-.1Zm-.17-.09-.2-.11Z" transform="translate(-106 -490.95)"/><path class="cls-16" d="M1052.44,1601.29c-2.09,16.18-1.4,33.45-1.4,49.91a4.57,4.57,0,1,0,9.14,0c0-16.07-.71-32.94,1.33-48.74a4.57,4.57,0,1,0-9.07-1.17Z" transform="translate(-106 -490.95)"/><path class="cls-16" d="M975.23,1616.18a4.51,4.51,0,0,1,3.24-1.35c7.4,0,15.7-2.21,23.61-2.21h15.12c3.58,0,6.8-.44,9.38-.35,3.25.1,5.79,1,7.62,2.84s3,4.41,3,9a36.16,36.16,0,0,1-.22,6.14,10.13,10.13,0,0,1-2.7,5.6c-2.41,2.41-6,3.58-10.06,3.83-4.24.27-9-.5-12.07-.3-4,.27-18,1.45-27.28.34a26.38,26.38,0,0,1-7-1.67,9.23,9.23,0,0,1-4.1-3.21,11.7,11.7,0,0,1-1.31-5.48,59.54,59.54,0,0,1,.72-10.33A4.54,4.54,0,0,1,975.23,1616.18Zm52.48,5.42a6.86,6.86,0,0,0-.92-.16,17.54,17.54,0,0,0-2.19,0c-2.18.1-4.69.35-7.4.35h-15.12c-6.73,0-13.74,1.6-20.24,2.07-.07,2-.12,4.52-.14,5.82a27.63,27.63,0,0,0,4.26,1c8.7,1,21.87-.14,25.58-.38,2.64-.18,6.51.32,10.26.34a17.75,17.75,0,0,0,4.13-.36,3.79,3.79,0,0,0,1.89-.86c.11-.11.07-.3.11-.47a9.89,9.89,0,0,0,.15-1.45c0-1.2,0-2.38,0-3.35a9.94,9.94,0,0,0-.14-1.83A4.93,4.93,0,0,0,1027.71,1621.6Z" transform="translate(-106 -490.95)"/><path class="cls-16" d="M833,1637a4.71,4.71,0,0,1,.17,1.25,4.58,4.58,0,0,1-4.58,4.58,4.41,4.41,0,0,1-4.42-3.19,7.54,7.54,0,0,1-.34-2.11c0-1.33.19-3.8.19-4.32,0-5.4-.07-13,2-18a4.57,4.57,0,0,1,8.48,3.42c-1.63,4.07-1.29,10.25-1.29,14.62C833.17,1633.66,833,1636.13,833,1637Zm-4.17-3.32a4.55,4.55,0,0,1,1.92.54A4.37,4.37,0,0,0,828.83,1633.72Zm0,0h0Z" transform="translate(-106 -490.95)"/><path class="cls-16" d="M1222.15,1613.81a4.57,4.57,0,0,1-6.63-5.3,5.29,5.29,0,0,1,4-3.51c4.58-1.26,27.75-2.68,63.76-4.93,14.91-.93,29.75-2,44.72-2.5,40.78-1.34,81.23.71,121.77.71,6.12,0,20.39.3,30.48,2.55,5.23,1.17,9.43,3,11.63,5.21,6,6,6.09,14,3,22.33-3.69,10.08-12.2,20.76-15.85,27.06-4.64,8-8.56,16.42-13.71,24.14-4,6-6.5,13-11.62,18.18a4.57,4.57,0,0,1-6.47-6.47c4.7-4.71,6.82-11.29,10.48-16.78,5-7.57,8.86-15.81,13.4-23.65,3.47-6,11.67-16.06,15.19-25.63,1.73-4.74,2.46-9.35-.91-12.71a7.46,7.46,0,0,0-2.54-1.41,43.49,43.49,0,0,0-8.71-2.1,173.38,173.38,0,0,0-24.39-1.57c-40.44,0-80.79-2-121.47-.72-14.89.49-29.63,1.56-44.45,2.49C1250.71,1611.27,1224.78,1613.57,1222.15,1613.81Zm1.87-2,0,0v0Zm.06-.13c.08-.18.14-.36.2-.53C1224.22,1611.33,1224.15,1611.51,1224.08,1611.68Z" transform="translate(-106 -490.95)"/><path class="cls-16" d="M1184.59,1685.82a6.94,6.94,0,0,0,2.31,1.4,47.22,47.22,0,0,0,10.33,2.88c17.39,3.28,43.59,3.57,50.77,3.76,32.08.85,69,3.63,100.6-.32,33.09-4.14,67.45-5,100.79-5a4.58,4.58,0,0,1,0,9.15c-33,0-66.94.87-99.65,5-32,4-69.46,1.24-102,.39-7.39-.2-34.33-.55-52.22-3.92a56.82,56.82,0,0,1-12.4-3.53,15.16,15.16,0,0,1-6-4.37c-1.73-2.31-2.19-5.66-1.28-9.46,1.37-5.64,5.87-12.7,7.33-15.42,10.22-19,17.94-41,31.71-57.83a4.58,4.58,0,0,1,7.08,5.8c-13.41,16.35-20.78,37.89-30.73,56.37-1.12,2.07-4.3,6.91-5.93,11.4a13.37,13.37,0,0,0-.74,2.72A6.39,6.39,0,0,0,1184.59,1685.82Z" transform="translate(-106 -490.95)"/><path class="cls-16" d="M1440.41,1685a116.22,116.22,0,0,0-12.18-.15c-17.37.87-44.29,4.21-49.1,4.58-45,3.46-89.56,1.91-134.16-2.14-19.88-1.81-40-.45-59.83-2.17a4.57,4.57,0,0,1,.79-9.11c19.88,1.72,40,.36,59.87,2.17,44.09,4,88.16,5.55,132.62,2.13,5.55-.43,40.22-4.75,56.35-4.81a40.51,40.51,0,0,1,7.41.49,8.44,8.44,0,0,1,3,1.15,13.43,13.43,0,0,1,5.42,6.71c.61,1.54.94,3.22,1.84,5a4.57,4.57,0,0,1-8.18,4.09,36.32,36.32,0,0,1-1.88-5A5.56,5.56,0,0,0,1440.41,1685Z" transform="translate(-106 -490.95)"/><path class="cls-16" d="M1480.74,1608.22c-3.23,4.68-5.31,11.54-8.21,16.61-9.17,16.05-18.9,35.43-32.08,48.61a4.57,4.57,0,1,0,6.47,6.47c13.72-13.72,24-33.82,33.55-50.54,2.78-4.86,4.71-11.47,7.81-16a4.58,4.58,0,0,0-7.54-5.19Z" transform="translate(-106 -490.95)"/><path class="cls-16" d="M1454.57,1605c-5.59,16.43-17.79,31.17-26.28,46.26-4.3,7.64-7.33,18.86-13.52,25a4.57,4.57,0,0,0,6.47,6.47c6.72-6.73,10.35-18.73,15-27,8.76-15.57,21.2-30.85,27-47.8a4.57,4.57,0,0,0-8.66-3Z" transform="translate(-106 -490.95)"/><path class="cls-16" d="M1208.17,1672.93c.75-1.72,1.93-4.42,2.19-4.89,3-5.42,5.6-11.17,8.52-16.68,3.09-5.85,10.16-17,15.6-27,3.28-6,6-11.48,6.49-14.74a4.57,4.57,0,1,1,9.06,1.26c-.42,3-2.26,7.65-4.9,12.9-5.53,10.93-14.56,25-18.17,31.86-3,5.56-5.56,11.36-8.61,16.84-.35.65-1.68,4.22-2.6,6a7.74,7.74,0,0,1-1.66,2.24,4.35,4.35,0,0,1-5.88.28,4.85,4.85,0,0,1-2-4.28A4.56,4.56,0,0,1,1208.17,1672.93Zm7.19,3.53v0Zm0-.21v0Zm0-.17v0Z" transform="translate(-106 -490.95)"/><path class="cls-16" d="M1024.77,744.85c0-5.41,3.33-10.13,6.46-14.44,3.29-4.51,6.27-7.6,9-9.43,1.83-1.22,3.4-1.85,4.8-1.59,1.78.32,2.88,2,3.82,4.23,2.19,5.15,2.61,12.94,1.18,21.42-2.23,13.21-9.06,28.08-21.9,37.71a37.87,37.87,0,0,1-8.71,5c-2.46,1-5,1.61-7.18.53a4.57,4.57,0,1,0-4.09,8.18c3.58,1.8,7.72,1.85,11.87.72,5.07-1.39,10.15-4.57,13.6-7.15,14.84-11.13,22.86-28.24,25.43-43.51,1.77-10.51.93-20.15-1.78-26.53-2.35-5.5-6.12-8.83-10.61-9.65a14.4,14.4,0,0,0-9.26,1.67c-4,2-8.58,6.12-13.56,13-4.26,5.85-8.22,12.48-8.22,19.82a4.58,4.58,0,0,0,9.15,0Z" transform="translate(-106 -490.95)"/><path class="cls-16" d="M1016,763.49a4.65,4.65,0,0,1-.5-2.43,21.67,21.67,0,0,1,5.63-12.29,22.7,22.7,0,0,1,10.31-6.9c4.53-1.22,8.3.09,10.41,3.78,1.23,2.14,1.93,5.67.87,11a15.13,15.13,0,0,1-2.42,5.45,27.79,27.79,0,0,0-2,3,30.87,30.87,0,0,1-5.53,7.85c-4.94,4.94-9,5.08-11.53,4a7.79,7.79,0,0,1-3.86-3.68C1016.18,771.05,1015.63,767.42,1016,763.49Zm9.34,3c0,.2,0,.41,0,.61l0,.26c.28-.22.56-.46.82-.71h0a4.89,4.89,0,0,1-.83-.51Z" transform="translate(-106 -490.95)"/><path class="cls-16" d="M1028.15,770.69c-.59-1.13-.22-2.65.12-4.16a44,44,0,0,1,2.18-6.43,4.57,4.57,0,1,0-8.49-3.4,45.65,45.65,0,0,0-3,9.74,14,14,0,0,0,1,8.49,4.58,4.58,0,0,0,8.11-4.24Z" transform="translate(-106 -490.95)"/><path class="cls-16" d="M1018.47,760.78l.18.12a4.58,4.58,0,1,0,5-7.7l-.18-.12a4.58,4.58,0,0,0-4.95,7.7Z" transform="translate(-106 -490.95)"/><path class="cls-16" d="M1024.91,766.78a4.59,4.59,0,0,1,4.95,3.91c3.19,22.36-3.78,54.53-15.92,84.46s-29.4,57.52-46.25,71c-17.46,14-36.75,25-58.74,29.07-8.65,1.62-20.72-.21-23.05-1.32a4.75,4.75,0,0,1-2.95-4.44,4.83,4.83,0,0,1,3.44-4.59c2.75-1,16.55-2.68,17.61-2.86,9.92-1.65,21.29-6.2,30.12-10.87,26.31-13.93,44.24-33.58,56.36-60.84,10.11-22.76,22.53-49.38,27.42-73.82.43-2.14,0-6.07-.43-10.47-.82-7.78-2.05-16.81-1.64-21.79.38-4.56,2.66-6.94,4.67-7.58a4.58,4.58,0,0,1,4.58,7.64C1025,764.82,1024.94,765.8,1024.91,766.78Z" transform="translate(-106 -490.95)"/><path class="cls-16" d="M863.93,722.73c-1.79,3.15-5.24,5.53-7.42,8.52a160.66,160.66,0,0,0-19.91,37.24c-14.38,39-8.73,89.59,6.78,127.27,3.28,8,12.93,31.6,23.93,45.08C873,947.75,879.21,952,885,952a4.58,4.58,0,1,0,0-9.15c-2.17,0-4.28-1.4-6.45-3.33a52.52,52.52,0,0,1-8.37-10.21c-8.58-13-15.66-30.47-18.34-37-14.7-35.71-20.28-83.64-6.66-120.62a151.2,151.2,0,0,1,18.73-35c2.37-3.26,6-6,8-9.38a4.57,4.57,0,1,0-8-4.52Z" transform="translate(-106 -490.95)"/><path class="cls-16" d="M862.4,731.43c-7.63,9.77-12.94,24.68-17,36.29-16.27,46.5-18,101.41,8.83,145.08,4.46,7.25,8.64,18,14.53,26.53,4.49,6.5,10,11.75,16.91,14.06a4.57,4.57,0,0,0,2.89-8.68c-6.54-2.17-11-8.15-14.88-14.69-4.46-7.56-8-16-11.66-22-25.42-41.31-23.38-93.27-8-137.26,3.76-10.75,8.52-24.64,15.58-33.68a4.57,4.57,0,1,0-7.21-5.63Z" transform="translate(-106 -490.95)"/><path class="cls-16" d="M875.17,658.18c3.78-4.45,7.31-6.77,10.86-7.28,5.47-.79,10.56,2.55,15.72,6.86a4.58,4.58,0,0,0,5.86-7c-7.39-6.16-15.05-10-22.88-8.89-5.31.76-10.88,3.76-16.53,10.42a4.57,4.57,0,1,0,7,5.92Z" transform="translate(-106 -490.95)"/><path class="cls-16" d="M949.72,662.74c4.84-1.66,8.71-3.28,12.1-4.26,2.52-.73,4.66-1.12,6.83-.49,3.32,1,6.44,4,10.79,9.8a4.57,4.57,0,1,0,7.31-5.49c-6-8.07-10.9-11.73-15.52-13.09-3.79-1.11-7.56-.79-12,.48-3.51,1-7.51,2.67-12.52,4.39a4.58,4.58,0,0,0,3,8.66Z" transform="translate(-106 -490.95)"/><path class="cls-16" d="M883.45,683.55c-.37,9.36-1.35,19-1.35,28.31a4.58,4.58,0,0,0,9.15,0c0-9.2,1-18.71,1.35-27.94a4.58,4.58,0,0,0-9.15-.37Z" transform="translate(-106 -490.95)"/><path class="cls-16" d="M959.07,684.5c-.72,9.42-1.75,19.54-1.75,29a4.58,4.58,0,0,0,9.15,0c0-9.19,1-19.07,1.72-28.26a4.57,4.57,0,0,0-9.12-.7Z" transform="translate(-106 -490.95)"/><path class="cls-16" d="M902.19,765.37a4.58,4.58,0,0,1-.57-8,5,5,0,0,1,3.71-.84,4.72,4.72,0,0,1,3,1.72,5.15,5.15,0,0,0,1,1.47c3.89,3.54,8.23,7.3,13.25,9.07,9.85,3.48,18.45.3,27.06-4.48a4.57,4.57,0,1,1,4.44,8c-11,6.08-22,9.54-34.55,5.11-6.14-2.17-11.59-6.6-16.36-10.93A10,10,0,0,1,902.19,765.37Zm4.1-.17,0,0,0,0Z" transform="translate(-106 -490.95)"/><path class="cls-16" d="M876.17,623c17.39-5.62,31.6-22.28,39.4-37.87a4.57,4.57,0,1,0-8.18-4.1c-6.79,13.59-18.89,28.37-34,33.26a4.58,4.58,0,1,0,2.81,8.71Z" transform="translate(-106 -490.95)"/><path class="cls-16" d="M988.49,650.87c-4.94,1.71-10.14,4-15.4,4-12.13,0-30.06-8.57-38.44-17C921,624.18,916,608.07,917.73,588.64c.7-8.1,2.34-19,6.06-26.46a12.48,12.48,0,0,1,1.3-2.35,5.11,5.11,0,0,1,6.8-.83,4.57,4.57,0,0,1,1.24,6.35,4.48,4.48,0,0,1-1.34,1.3c-3.12,6.49-4.35,15.84-4.95,22.77-1.44,16.56,2.62,30.33,14.28,42,7,7,21.87,14.26,32,14.26,4.56,0,9-2.3,13.25-3.73.2-.14,2.85-2,3.89-2.52a6.24,6.24,0,0,1,3.1-.74A4.85,4.85,0,0,1,996.5,640a5,5,0,0,1,1.57,3.81c0,5.63-1.44,11.65-.82,17.53,1.07,10.18,6.22,25,14.12,36.17,4.9,6.94,10.81,12.57,17.64,14.28a4.57,4.57,0,1,1-2.22,8.87c-8.75-2.18-16.62-9-22.89-17.88-8.84-12.52-14.55-29.09-15.75-40.49A57.7,57.7,0,0,1,988.49,650.87Zm-61.23-84h0l-.06,0Zm-.24-.13.06,0-.08,0Z" transform="translate(-106 -490.95)"/><path class="cls-16" d="M913.8,518.53c-5-3.3-11-3.81-17.07-2.58-7.86,1.59-15.9,6.13-21.33,9.62C859.14,536,852.32,550.73,848.27,567c-3.75,15-5,31.42-10.32,46.53-2.73,7.79-8.58,9.54-13.31,13-6.29,4.61-11.85,11-10.95,29.13.66,13,8.72,31.85,20.67,43.13,8.64,8.15,19.23,12.39,30.43,9a4.58,4.58,0,0,0-2.63-8.77c-8,2.39-15.37-1.12-21.52-6.93-10.25-9.66-17.25-25.75-17.81-36.92-.4-8.09.63-13.11,2.68-16.55s4.83-5,7.64-6.86c5.28-3.4,10.51-6.92,13.43-15.26,5.39-15.39,6.75-32.06,10.56-47.34,3.51-14.05,9.16-26.91,23.21-36,4.65-3,11.47-7,18.2-8.34,3.63-.74,7.24-.73,10.21,1.24a4.57,4.57,0,1,0,5-7.63Z" transform="translate(-106 -490.95)"/><path class="cls-16" d="M923.62,522.11c27.83-27.18,67.24-29.15,97.89-5.48,4.38,3.39,9.84,6.39,13.35,10.78,5.15,6.43,7.33,14.28,9.54,22,2.54,8.91,5.11,17.7,10.71,24.82,4.76,6.06,10.64,9.61,16.93,12.51,5.5,2.54,11.32,4.55,16.73,7.79,12.62,7.57,22.66,21.58,29.53,34.27,13.91,25.67,9.56,63.16-5.61,95.1s-41.09,58.4-71.69,61.8a4.58,4.58,0,0,0,1,9.1c33.47-3.72,62.41-32.17,79-67s20.5-75.48,5.38-103.38c-7.6-14-18.9-29.37-32.87-37.75-5.69-3.42-11.8-5.58-17.59-8.25-5-2.32-9.78-5-13.57-9.86-4.87-6.2-6.91-13.93-9.12-21.68-2.54-8.9-5.27-17.83-11.19-25.23-4-4.94-10-8.48-14.9-12.29-34.4-26.59-78.63-24.35-109.88,6.16a4.58,4.58,0,0,0,6.4,6.55Z" transform="translate(-106 -490.95)"/><path class="cls-16" d="M1090.94,774.26c2.36-.21,4.5.91,6.47,2.65a31.68,31.68,0,0,1,6.8,9.48,71.51,71.51,0,0,1,6.88,24.58c.41,4.76.25,9-.87,11.81-3.89,9.71-10.09,23-18.36,32.92-5,6-10.79,10.91-17.39,12.43-13.27,3.06-25.08,2.46-34.51-2.21-9.22-4.57-16-13.07-19.74-25.44-2.44-8.13-3.85-12.51-1.43-21A4.57,4.57,0,1,0,1010,817c-3,10.57-1.57,16,1.46,26.15,4.55,15.17,13.13,25.4,24.44,31,11.11,5.51,25,6.54,40.62,2.93,8.4-1.94,16-7.79,22.37-15.49,8.9-10.7,15.64-24.93,19.82-35.37,1.53-3.83,2.06-9.54,1.49-16a81,81,0,0,0-7.82-27.9c-5.42-10.76-13.49-17.88-22.23-17.13a4.58,4.58,0,0,0,.79,9.12Z" transform="translate(-106 -490.95)"/></g></g></g></g></svg>