<svg xmlns="http://www.w3.org/2000/svg" viewBox="0 0 2470.55 1687.49"><defs><style>.cls-1{opacity:0.2;}.cls-2{fill:#807672;}.cls-3{fill:#fff;}.cls-4{fill:#858fa3;}.cls-5{fill:#e9e2e0;}.cls-6{fill:#cbe9e2;}.cls-7{fill:#cfd5d8;}.cls-8{fill:#bec4c7;}.cls-9{fill:#fff2d8;}.cls-10{fill:#332e3c;}.cls-11{fill:#ffb8d4;}</style></defs><g id="Layer_2" data-name="Layer 2"><g id="Layer_2-2" data-name="Layer 2"><g class="cls-1"><path class="cls-2" d="M950.49,932h0a3.35,3.35,0,0,1-3.35-3.36l2-920.26A3.35,3.35,0,0,1,952.45,5h0a3.34,3.34,0,0,1,3.33,3.36l-1.94,920.26A3.36,3.36,0,0,1,950.49,932Z"/><path class="cls-2" d="M929.9,940.7a3.35,3.35,0,0,1-3.35-3.35l-1-928A3.35,3.35,0,0,1,928.93,6h0a3.35,3.35,0,0,1,3.35,3.35l1,928a3.35,3.35,0,0,1-3.36,3.36Z"/><path class="cls-2" d="M390.45,1553h0a3.36,3.36,0,0,1-3.35-3.36l2.2-1534.37A3.35,3.35,0,0,1,392.65,12h0A3.37,3.37,0,0,1,396,15.32l-2.2,1534.37A3.35,3.35,0,0,1,390.45,1553Z"/><path class="cls-2" d="M368.1,1552.07h0a3.34,3.34,0,0,1-3.34-3.36l3.19-1535a3.34,3.34,0,0,1,3.34-3.35h0a3.35,3.35,0,0,1,3.34,3.35l-3.18,1535A3.36,3.36,0,0,1,368.1,1552.07Z"/><path class="cls-2" d="M368.06,1168.37l-26.28,0-334.09-.3a3.43,3.43,0,0,1-3.45-3.34,3.28,3.28,0,0,1,3.25-3.36H7.7l360.36.31a3.36,3.36,0,0,1,0,6.71Z"/><path class="cls-2" d="M832.28,1168.78h0l-437.83-.38a3.36,3.36,0,1,1,0-6.72h0l437.85.39a3.36,3.36,0,0,1,0,6.71Z"/><path class="cls-2" d="M367.45,663.47l-34.1,0-328.6-.32a3.36,3.36,0,1,1,0-6.71l16.28,0,346.08.35a3.5,3.5,0,0,1,3.52,3.34A3.2,3.2,0,0,1,367.45,663.47Z"/><path class="cls-2" d="M929.11,664h0l-535.83-.52a3.36,3.36,0,1,1,0-6.71h0l535.85.53a3.35,3.35,0,0,1,0,6.7Z"/><path class="cls-2" d="M7.55,161.9a3.36,3.36,0,0,1,0-6.72l361.26-.35h0a3.36,3.36,0,0,1,0,6.71L7.55,161.9Z"/><path class="cls-2" d="M393,161.53a3.36,3.36,0,0,1,0-6.72h3l532.17-.52h0a3.35,3.35,0,1,1,0,6.7L393,161.53Z"/><path class="cls-2" d="M5.62,142.12a3.35,3.35,0,0,1,0-6.7l363.78-.35h0a3.35,3.35,0,1,1,0,6.7l-363.78.35Z"/><path class="cls-2" d="M396.79,141.74h-2.73a3.36,3.36,0,1,1,0-6.71h2.73l530.89-.53h0a3.36,3.36,0,1,1,0,6.72Z"/><path class="cls-2" d="M3.33,645.59a3.35,3.35,0,0,1,0-6.7l365.91-.38a3.46,3.46,0,0,1,3.47,3.35,3.27,3.27,0,0,1-3.23,3.37l-34,0-332.16.32Z"/><path class="cls-2" d="M393.88,645.2a3.36,3.36,0,1,1,0-6.71l533.8-.52h0a3.36,3.36,0,1,1,0,6.71l-533.8.52Z"/><path class="cls-2" d="M8.12,1150.71a3.36,3.36,0,0,1,0-6.71l355.09-.54h0a3.36,3.36,0,0,1,0,6.71l-355.1.54Z"/><path class="cls-2" d="M839.69,1149.87h0l-444.87-.08a3.36,3.36,0,1,1,0-6.71h0l444.87.08a3.36,3.36,0,0,1,0,6.71Z"/><path class="cls-2" d="M1846.85,1552.57a3.35,3.35,0,0,1-3.35-3.35V634.94a3.35,3.35,0,1,1,6.69,0v914.28A3.34,3.34,0,0,1,1846.85,1552.57Z"/><path class="cls-2" d="M1871.38,1550.07a3.36,3.36,0,0,1-3.35-3.35l-.22-910.35a3.36,3.36,0,0,1,6.72,0l.2,910.35A3.36,3.36,0,0,1,1871.38,1550.07Z"/><path class="cls-2" d="M2466.84,637.42l-68.84-.07-550.74-.51a3.36,3.36,0,0,1,0-6.71h0l619.58.58a3.36,3.36,0,0,1,0,6.71Z"/><path class="cls-2" d="M2465.38,1114.12h0l-590.13-.59a3.36,3.36,0,0,1,0-6.71h0l590.13.59a3.36,3.36,0,0,1,0,6.71Z"/><path class="cls-2" d="M2466.13,1132.87l-60.69,0-529-.53a3.36,3.36,0,0,1,0-6.72h0l589.7.59a3.36,3.36,0,0,1,0,6.71Z"/><path class="cls-2" d="M2466.08,658.79l-64.94-.07-529.79-.5a3.36,3.36,0,1,1,0-6.71h0l594.73.57a3.36,3.36,0,0,1,0,6.71Z"/><path class="cls-2" d="M2467.19,1452.17h0l-594.86-.61a3.35,3.35,0,0,1,0-6.7h0l594.87.6a3.36,3.36,0,0,1,0,6.71Z"/><path class="cls-2" d="M2293.16,1554.42a3.34,3.34,0,0,1-3.34-3.34l-.21-894.57a3.36,3.36,0,0,1,6.71,0l.2,894.57A3.34,3.34,0,0,1,2293.16,1554.42Z"/><path class="cls-2" d="M1848.33,448.84h-336a3.35,3.35,0,0,1-3.36-3.35V3.35A3.35,3.35,0,0,1,1512.28,0h336a3.36,3.36,0,0,1,3.36,3.35V445.49A3.36,3.36,0,0,1,1848.33,448.84Zm-332.71-6.71H1845V6.7H1515.62Z"/><path class="cls-2" d="M1827.29,427.22h-294a3.35,3.35,0,0,1-3.35-3.35V23.81a3.35,3.35,0,0,1,3.35-3.36h294a3.36,3.36,0,0,1,3.37,3.36V423.87A3.35,3.35,0,0,1,1827.29,427.22Zm-290.63-6.71h287.28V27.16H1536.66Z"/><path class="cls-2" d="M2289.35,352.88H2061.6a3.37,3.37,0,0,1-3.35-3.37V49.89a3.36,3.36,0,0,1,3.35-3.35h227.75a3.35,3.35,0,0,1,3.36,3.35V349.51A3.36,3.36,0,0,1,2289.35,352.88ZM2065,346.16H2286V53.25H2065Z"/><path class="cls-2" d="M2270.39,331.84H2080.57a3.35,3.35,0,0,1-3.36-3.35V70.14a3.35,3.35,0,0,1,3.36-3.35h189.82a3.35,3.35,0,0,1,3.36,3.35V328.49A3.35,3.35,0,0,1,2270.39,331.84Zm-186.47-6.71h183.13V73.5H2083.92Z"/><path class="cls-2" d="M1750.27,308.26a3.38,3.38,0,0,1-.72-.07,3.34,3.34,0,0,1-2.61-3.69l12-94.83-13.44,41.42a3.36,3.36,0,0,1-6.54-.79l-2.22-30.72-35.39-.31a3.32,3.32,0,0,1-3.32-3.36l.12-32-35.76,121.44a3.35,3.35,0,0,1-6.53-1.41l13.67-96.83-17,46.95a3.35,3.35,0,0,1-6.5-1.23l.81-34.47-36.23-.5a3.45,3.45,0,0,1-2.41-1.07,3.41,3.41,0,0,1-.91-2.46l1.38-28.63-36.86,118.65a3.35,3.35,0,0,1-6.53-1.42l12.46-99.72-20.11,52a3.28,3.28,0,0,1-3.7,2.09,3.33,3.33,0,0,1-2.78-3.21l-1-37.06-14.35.25h0a3.35,3.35,0,0,1-.06-6.7l17.65-.32h.06a3.37,3.37,0,0,1,3.36,3.27l.65,23.68,23.93-61.86a3.36,3.36,0,0,1,6.46,1.64l-11.17,89.26L1610,158.55a3.36,3.36,0,0,1,3.8-2.31,3.33,3.33,0,0,1,2.75,3.46l-2.46,51.46,36.15.52a3.35,3.35,0,0,1,3.31,3.44l-.4,17.35,21-58a3.36,3.36,0,0,1,6.48,1.62l-11.76,83.24,29.44-100a3.36,3.36,0,0,1,6.58,1l-.2,52.3,35.14.31a3.36,3.36,0,0,1,3.33,3.11l1.19,16.66,19.1-58.89a3.31,3.31,0,0,1,3.91-2.24,3.37,3.37,0,0,1,2.62,3.7l-11.74,93,34-108.2a3.39,3.39,0,0,1,3.83-2.28,3.34,3.34,0,0,1,2.73,3.52l-3.35,50.78,31.24-.34a3.45,3.45,0,0,1,3.38,3.33,3.34,3.34,0,0,1-3.32,3.38l-34.85.37a3.1,3.1,0,0,1-2.47-1.05,3.34,3.34,0,0,1-.92-2.53l1.74-26.43-36.8,117.12A3.34,3.34,0,0,1,1750.27,308.26Z"/><path class="cls-2" d="M2235.38,1112.25H1901.67a3.35,3.35,0,0,1-3.34-3.34v-33a3.35,3.35,0,0,1,3.34-3.36h333.71a3.35,3.35,0,0,1,3.35,3.36v33A3.35,3.35,0,0,1,2235.38,1112.25ZM1905,1105.54h327v-26.31H1905Z"/><path class="cls-2" d="M2210.15,1075h-290a3.34,3.34,0,0,1-3.36-3.34v-33a3.35,3.35,0,0,1,3.36-3.36h290a3.35,3.35,0,0,1,3.35,3.36v33A3.34,3.34,0,0,1,2210.15,1075Zm-286.67-6.7h283.31V1042H1923.48Z"/><path class="cls-2" d="M2199,1037H1909a3.34,3.34,0,0,1-3.35-3.34v-33a3.35,3.35,0,0,1,3.35-3.35h290a3.35,3.35,0,0,1,3.35,3.35v33A3.34,3.34,0,0,1,2199,1037Zm-286.7-6.69h283.34V1004H1912.32Z"/><path class="cls-2" d="M2224,1001.66h-290a3.37,3.37,0,0,1-3.36-3.36v-33a3.37,3.37,0,0,1,3.36-3.35h290a3.36,3.36,0,0,1,3.35,3.35v33A3.36,3.36,0,0,1,2224,1001.66ZM1937.29,995h283.32V968.64H1937.29Z"/><path class="cls-2" d="M1874.83,832.72a3.36,3.36,0,0,1,0-6.71l588.81-.41.42,3.36v3.37l-58.78,0-530.45.37Z"/><path class="cls-2" d="M1872.1,848.51a3.35,3.35,0,1,1,0-6.7l592.84-.42a3.41,3.41,0,0,1,3.42,3.35,3.32,3.32,0,0,1-3.3,3.36l-59.68,0-533.28.38Z"/><path class="cls-2" d="M2466.94,1466.58h0l-592.88-.58a3.36,3.36,0,0,1,0-6.71h0l592.86.58a3.36,3.36,0,1,1,0,6.71Z"/><path class="cls-2" d="M1918.77,1449.49a3.32,3.32,0,0,1-1.86-.57,3.44,3.44,0,0,1-1.43-2.15l-46.26-238.69a3.36,3.36,0,0,1,2.65-3.93l82-15.89a3.31,3.31,0,0,1,3.92,2.65l46.28,238.69a3.37,3.37,0,0,1-2.66,3.93l-82,15.89A3,3,0,0,1,1918.77,1449.49Zm-42.31-239.39,45,232.1,75.41-14.62-45-232.1Z"/><path class="cls-2" d="M2023.26,1448a3.38,3.38,0,0,1-3.25-2.52L1959.59,1210a3.36,3.36,0,0,1,2.41-4.08l80.91-20.76a3.35,3.35,0,0,1,2.56.36,3.41,3.41,0,0,1,1.54,2l60.41,235.5a3.34,3.34,0,0,1-.37,2.56,3.29,3.29,0,0,1-2,1.53l-80.9,20.76A3.53,3.53,0,0,1,2023.26,1448Zm-56.34-236.44,58.76,229,74.4-19.07-58.73-229Z"/><path class="cls-2" d="M2113.06,1447.57a3.5,3.5,0,0,1-1.71-.45,3.34,3.34,0,0,1-1.52-2.06l-60.44-235.5a3.34,3.34,0,0,1,.37-2.55,3.31,3.31,0,0,1,2-1.53l80.92-20.76a3.36,3.36,0,0,1,4.09,2.42l60.42,235.49a3.39,3.39,0,0,1-2.42,4.09l-80.91,20.76A3.86,3.86,0,0,1,2113.06,1447.57Zm-56.33-236.44,58.75,229,74.41-19.1-58.76-229Z"/><path class="cls-2" d="M2278.08,1446h-.14l-83.47-3.17a3.36,3.36,0,0,1-2.33-1.08,3.32,3.32,0,0,1-.89-2.4l9.25-243a3.35,3.35,0,0,1,3.34-3.23h.12l83.48,3.18a3.38,3.38,0,0,1,2.34,1.06,3.44,3.44,0,0,1,.88,2.42l-9.24,243a3.34,3.34,0,0,1-3.34,3.22Zm-80-9.75,76.76,2.92,9-236.26-76.75-2.91Z"/><path class="cls-2" d="M1923.17,1368a3.32,3.32,0,0,1-1.87-.57,3.43,3.43,0,0,1-1.43-2.14l-23-118.89a3.28,3.28,0,0,1,.52-2.52,3.33,3.33,0,0,1,2.13-1.42l40.85-7.91a3.34,3.34,0,0,1,3.93,2.66l23,118.88a3.36,3.36,0,0,1-2.66,3.94l-40.84,7.91A2.78,2.78,0,0,1,1923.17,1368Zm-19.12-119.58,21.78,112.3,34.26-6.65-21.77-112.29Z"/><path class="cls-2" d="M2025.2,1370.92a3.28,3.28,0,0,1-1.7-.45,3.37,3.37,0,0,1-1.53-2l-31-117.1a3.28,3.28,0,0,1,.35-2.54,3.33,3.33,0,0,1,2-1.55l40.22-10.62a3.36,3.36,0,0,1,4.11,2.38l30.94,117.08a3.37,3.37,0,0,1-.36,2.54,3.28,3.28,0,0,1-2,1.56l-40.22,10.63A3.55,3.55,0,0,1,2025.2,1370.92Zm-26.83-118,29.22,110.59,33.74-8.92L2032.08,1244Z"/><path class="cls-2" d="M2116.28,1374.09a3.38,3.38,0,0,1-3.25-2.5l-30.92-117.08a3.33,3.33,0,0,1,2.39-4.09l40.21-10.64a3.34,3.34,0,0,1,4.1,2.39l31,117.08a3.37,3.37,0,0,1-2.39,4.1L2117.14,1374A3.56,3.56,0,0,1,2116.28,1374.09Zm-26.82-118,29.22,110.58,33.73-8.91-29.23-110.59Z"/><path class="cls-2" d="M2259.51,1371.09h-.18l-41.54-2.18a3.43,3.43,0,0,1-2.33-1.11,3.35,3.35,0,0,1-.85-2.42l6.35-120.92a3.6,3.6,0,0,1,3.52-3.19l41.55,2.18a3.4,3.4,0,0,1,2.33,1.1,3.48,3.48,0,0,1,.85,2.43l-6.35,120.93A3.36,3.36,0,0,1,2259.51,1371.09Zm-38-8.71,34.83,1.82,6-114.23-34.86-1.82Z"/><path class="cls-2" d="M1951.8,1408.37a11.71,11.71,0,1,1,12.16-11.72A12,12,0,0,1,1951.8,1408.37Zm0-16.71a5,5,0,1,0,5.43,5A5.26,5.26,0,0,0,1951.8,1391.66Z"/><path class="cls-2" d="M2051.22,1408.08a11.72,11.72,0,1,1,12.14-11.72A12,12,0,0,1,2051.22,1408.08Zm0-16.73a5,5,0,1,0,5.44,5A5.26,5.26,0,0,0,2051.22,1391.35Z"/><path class="cls-2" d="M2145,1409.87a11.72,11.72,0,1,1,12.16-11.72A12,12,0,0,1,2145,1409.87Zm0-16.72a5,5,0,1,0,5.44,5A5.26,5.26,0,0,0,2145,1393.15Z"/><path class="cls-2" d="M2237.36,1413.6a11.72,11.72,0,1,1,12.17-11.72A11.95,11.95,0,0,1,2237.36,1413.6Zm0-16.72a5,5,0,1,0,5.46,5A5.24,5.24,0,0,0,2237.36,1396.88Z"/><path class="cls-2" d="M1950.45,829.8h-22.27a26,26,0,0,1-26-26V709.72a26,26,0,0,1,26-26h22.27a26,26,0,0,1,26,26V803.8A26,26,0,0,1,1950.45,829.8Zm-22.27-139.38a19.31,19.31,0,0,0-19.28,19.3V803.8a19.32,19.32,0,0,0,19.28,19.31h22.27a19.32,19.32,0,0,0,19.29-19.31V709.72a19.32,19.32,0,0,0-19.29-19.3Z"/><path class="cls-2" d="M2038.43,830.05h-18.76a22.46,22.46,0,0,1-22.44-22.45V728.34a22.46,22.46,0,0,1,22.44-22.43h18.76a22.46,22.46,0,0,1,22.42,22.43V807.6A22.45,22.45,0,0,1,2038.43,830.05Zm-18.76-117.43A15.74,15.74,0,0,0,2004,728.34V807.6a15.75,15.75,0,0,0,15.72,15.74h18.76a15.75,15.75,0,0,0,15.73-15.74V728.34a15.74,15.74,0,0,0-15.73-15.72Z"/><path class="cls-2" d="M1955.49,688.7h-30.38a9.21,9.21,0,1,1,0-18.42h30.38a9.21,9.21,0,1,1,0,18.42ZM1925.11,677a2.5,2.5,0,1,0,0,5h30.38a2.5,2.5,0,1,0,0-5Z"/><path class="cls-2" d="M2035.87,710.84h-11.71a13.67,13.67,0,1,1,0-27.33h11.71a13.67,13.67,0,1,1,0,27.33Zm-11.71-20.62a7,7,0,1,0,0,13.91h11.71a7,7,0,0,0,0-13.91Z"/><path class="cls-2" d="M2464.28,1111.1H2340a3.35,3.35,0,0,1-3.36-3.34V1061.1a3.35,3.35,0,0,1,3.36-3.36h124.26a3.36,3.36,0,0,1,0,6.71H2343.36v40h120.92a3.35,3.35,0,1,1,0,6.7Z"/><path class="cls-2" d="M2466.17,1079.66h0l-122.83-.62a3.36,3.36,0,0,1,0-6.72h0l122.81.63a3.36,3.36,0,1,1,0,6.71Z"/><path class="cls-2" d="M2465.39,1096.38h0l-125.89-.63a3.35,3.35,0,0,1,0-6.7h0l125.88.62a3.36,3.36,0,0,1,0,6.71Z"/><path class="cls-2" d="M2462.7,829H2350.32a3.35,3.35,0,0,1-3.34-3.35V745.79a3.34,3.34,0,0,1,3.34-3.36h114.13a3.36,3.36,0,0,1,0,6.72H2353.67v73.17h109a3.35,3.35,0,0,1,0,6.7Z"/><path class="cls-2" d="M2462.21,776.5h0l-107.45-.14a3.36,3.36,0,1,1,0-6.71h0l107.46.14a3.36,3.36,0,0,1,0,6.71Z"/><path class="cls-2" d="M2466.42,1448.64h0l-50-.63a38.4,38.4,0,0,1-38.34-38.37V1263.12a38.41,38.41,0,0,1,38.38-38.37l50.24.36a3.36,3.36,0,0,1,0,6.71h0l-50.23-.38a31.71,31.71,0,0,0-31.66,31.68v146.52a31.71,31.71,0,0,0,31.69,31.66l50,.63a3.36,3.36,0,0,1-.06,6.71Z"/><path class="cls-2" d="M2465.15,1305.74h0l-78-.18a3.36,3.36,0,0,1,0-6.71h0l78,.18a3.36,3.36,0,0,1,0,6.71Z"/><path class="cls-2" d="M2464.63,1387.29h0l-82.17-.18a3.36,3.36,0,1,1,0-6.71h0l82.17.19a3.35,3.35,0,1,1,0,6.7Z"/><path class="cls-2" d="M2466.42,1229.75h-34.73a19.42,19.42,0,1,1,0-38.84h33.46a3.36,3.36,0,0,1,0,6.71h-33.46a12.72,12.72,0,1,0,0,25.43h34.73a3.35,3.35,0,1,1,0,6.7Z"/><path class="cls-2" d="M731.76,606.38a3,3,0,0,1-.66-.07,3.37,3.37,0,0,1-2.65-3.95l26.4-132.7H535.49L560.9,601.13a3.36,3.36,0,0,1-6.59,1.27L528.13,467a3.38,3.38,0,0,1,3.29-4H758.93a3.36,3.36,0,0,1,3.29,4L735,603.67A3.36,3.36,0,0,1,731.76,606.38Z"/><path class="cls-2" d="M739.51,645.16h0l-190.64-.68a3.37,3.37,0,0,1-3.3-2.77L539,605a3.28,3.28,0,0,1,.73-2.74,3.32,3.32,0,0,1,2.57-1.19h14.4l188.59,1.44a3.25,3.25,0,0,1,2.52,1.19,3.3,3.3,0,0,1,.77,2.69l-5.77,35.92A3.36,3.36,0,0,1,739.51,645.16Zm-187.82-7.39,185,.67,4.67-29.21-195-1.44Z"/><path class="cls-2" d="M607.18,465.12H607a3.34,3.34,0,0,1-3.2-3.5c.27-5.64-.56-16.27-1.61-29.73-3.61-46-9.62-123,16.93-149.78,7.11-7.13,16-10.37,26.66-9.66,14.8,1,27,6.95,36.17,17.58,14,16.18,20.33,42.82,17.89,75a3.36,3.36,0,1,1-6.71-.51c2.33-30.39-3.47-55.29-16.27-70.09-8-9.24-18.6-14.38-31.54-15.29-8.65-.62-15.69,1.92-21.42,7.71-24.4,24.6-18.53,99.66-15,144.51,1.06,13.7,1.91,24.52,1.63,30.58A3.37,3.37,0,0,1,607.18,465.12Z"/><path class="cls-2" d="M692.67,464.78a3.34,3.34,0,0,1-3.35-3.2c-.14-3.14.68-16.53,2-38.12l.79-12.49a3.35,3.35,0,0,1,6.69.42L698,423.88c-1.09,17.72-2.11,34.46-2,37.4a3.34,3.34,0,0,1-3.2,3.5Z"/><path class="cls-2" d="M702.7,414.55a13.42,13.42,0,0,1-10.45-4.48c-9.67-10.87-3.65-37.87.94-46.51a3.36,3.36,0,0,1,5.94,3.14c-4.08,7.66-8.67,31.26-1.87,38.91.9,1,3.64,4.1,12.33.71,14.8-5.79,36-21.43,50-43.35,4.31-6.74,4-13.35-.66-17.69-7.12-6.51-23.47-6.84-42.62,7.85a3.35,3.35,0,1,1-4.08-5.32c22.33-17.15,41.83-16.11,51.23-7.47,7.11,6.53,7.83,16.82,1.79,26.24-14.83,23.19-37.43,39.8-53.25,46A25.58,25.58,0,0,1,702.7,414.55Z"/><path class="cls-2" d="M629.15,466.67a3.35,3.35,0,0,1-3.35-3.35c0-22.15-.69-45.46-1.35-68s-1.34-46.1-1.34-68.5l0-4.25c-.09-14.73-.2-33.07,8.64-46.35a3.36,3.36,0,1,1,5.58,3.73c-7.7,11.57-7.59,28.77-7.5,42.58v4.29c0,22.3.7,45.69,1.35,68.3s1.34,45.93,1.34,68.18A3.36,3.36,0,0,1,629.15,466.67Z"/><path class="cls-2" d="M668.48,467.68a3.34,3.34,0,0,1-3.35-3.35c0-15,.19-31,.37-47,.35-31.75.75-64.58-.37-89.63-.14-3-.2-6.05-.27-9.15-.46-24-2.13-39.75-20.24-39.75a3.35,3.35,0,1,1,0-6.7c26,0,26.55,25.68,27,46.33.07,3,.13,6.05.27,9,1.12,25.23.74,58.16.36,90-.18,16-.36,32-.36,47A3.35,3.35,0,0,1,668.48,467.68Z"/><path class="cls-2" d="M697,395.36a12,12,0,0,1-5.48-1.31,3.36,3.36,0,1,1,3-6c3.18,1.62,6.58-.18,11.4-3.1.9-.55,1.76-1.06,2.61-1.53,13.9-7.73,26-20.14,37.78-32.15,2.31-2.36,4.6-4.7,6.86-7a3.35,3.35,0,0,1,4.73,4.74c-2.24,2.25-4.5,4.58-6.8,6.92-12.07,12.35-24.55,25.12-39.32,33.32-.77.42-1.57.91-2.39,1.4C706,392.75,701.68,395.36,697,395.36Z"/><path class="cls-2" d="M450.09,1147a3.29,3.29,0,0,1-1.86-.57,3.33,3.33,0,0,1-1.42-2.14l-54.6-281.67a3.34,3.34,0,0,1,2.66-3.93l96.76-18.77a3.35,3.35,0,0,1,3.92,2.66l54.62,281.67a3.36,3.36,0,0,1-2.66,3.93l-96.77,18.76A2.81,2.81,0,0,1,450.09,1147ZM399.43,864.63l53.33,275.08,90.17-17.49L489.61,847.14Z"/><path class="cls-2" d="M573.4,1145.21a3.36,3.36,0,0,1-3.25-2.52L498.84,864.77a3.36,3.36,0,0,1,2.41-4.08l95.49-24.49a3.25,3.25,0,0,1,2.53.36,3.28,3.28,0,0,1,1.55,2l71.31,277.92a3.37,3.37,0,0,1-2.42,4.09l-95.48,24.49A3.38,3.38,0,0,1,573.4,1145.21ZM506.19,866.35l69.63,271.42,89-22.83L595.15,843.53Z"/><path class="cls-2" d="M679.36,1144.74a3.38,3.38,0,0,1-1.69-.46,3.34,3.34,0,0,1-1.55-2l-71.3-277.91a3.37,3.37,0,0,1,2.41-4.1l95.49-24.49a3.35,3.35,0,0,1,4.07,2.41l71.31,277.92a3.37,3.37,0,0,1-2.42,4.08l-95.47,24.49A3.41,3.41,0,0,1,679.36,1144.74Zm-67.2-278.85,69.63,271.41,89-22.82L701.12,843.06Z"/><path class="cls-2" d="M854.74,1151h-.22l-80.12-5.29a3.36,3.36,0,0,1-3.12-3.47l10.9-286.71a3.3,3.3,0,0,1,1.06-2.33,3.94,3.94,0,0,1,2.41-.9l98.5,3.75a3.38,3.38,0,0,1,2.34,1.08,3.49,3.49,0,0,1,.9,2.41s-5.09,130.8-7.23,186.73a3.36,3.36,0,0,1-6.71-.25c1.92-50.64,6.27-162.61,7.09-183.39l-91.79-3.49-10.64,280.09,76.85,5.07a3.36,3.36,0,0,1-.22,6.71Z"/><path class="cls-2" d="M455.29,1050.85a3.29,3.29,0,0,1-1.88-.58,3.37,3.37,0,0,1-1.42-2.13l-27.2-140.3a3.45,3.45,0,0,1,.52-2.52,3.29,3.29,0,0,1,2.14-1.41l48.2-9.34a3.34,3.34,0,0,1,3.94,2.66l27.18,140.27a3.35,3.35,0,0,1-2.64,3.94l-48.21,9.35A3.21,3.21,0,0,1,455.29,1050.85ZM432,909.86l25.92,133.71,41.62-8.08-25.92-133.7Z"/><path class="cls-2" d="M575.69,1054.28a3.32,3.32,0,0,1-3.25-2.5L536,913.63a3.32,3.32,0,0,1,2.37-4.1L585.79,897a3.25,3.25,0,0,1,2.53.33,3.37,3.37,0,0,1,1.57,2l36.5,138.16a3.34,3.34,0,0,1-2.38,4.09l-47.47,12.55A3.15,3.15,0,0,1,575.69,1054.28ZM543.28,915.16l34.79,131.67L619,1036,584.25,904.33Z"/><path class="cls-2" d="M683.18,1058a3.34,3.34,0,0,1-3.25-2.5L643.41,917.36a3.34,3.34,0,0,1,2.39-4.09l47.47-12.55a3.2,3.2,0,0,1,2.54.35,3.35,3.35,0,0,1,1.56,2l36.51,138.16a3.33,3.33,0,0,1-2.38,4.09L684,1057.91A3.08,3.08,0,0,1,683.18,1058ZM650.75,918.9l34.8,131.66,41-10.83L691.74,908.07Z"/><path class="cls-2" d="M851.22,1061h-.17l-49-2.58a3.35,3.35,0,0,1-3.18-3.53l7.48-142.7a3.29,3.29,0,0,1,1.11-2.33,3.68,3.68,0,0,1,2.41-.86l49,2.57a3.46,3.46,0,0,1,2.33,1.11,3.38,3.38,0,0,1,.86,2.42l-7.51,142.71A3.35,3.35,0,0,1,851.22,1061Zm-45.5-9.1,42.32,2.21,7.14-136-42.32-2.21Z"/><path class="cls-2" d="M489.05,1098.47c-7.58,0-13.75-5.92-13.75-13.21a13.76,13.76,0,0,1,27.5,0C502.8,1092.55,496.63,1098.47,489.05,1098.47Zm0-19.72a6.53,6.53,0,1,0,7.05,6.51A6.8,6.8,0,0,0,489.05,1078.75Z"/><path class="cls-2" d="M606.38,1098.12c-7.59,0-13.76-5.92-13.76-13.21a13.75,13.75,0,1,1,13.76,13.21Zm0-19.73a6.53,6.53,0,1,0,7,6.52A6.8,6.8,0,0,0,606.38,1078.39Z"/><path class="cls-2" d="M717,1100.24A13.23,13.23,0,1,1,730.73,1087,13.5,13.5,0,0,1,717,1100.24Zm0-19.73a6.53,6.53,0,1,0,7,6.51A6.79,6.79,0,0,0,717,1080.51Z"/><path class="cls-2" d="M825.11,1111.16a13.23,13.23,0,1,1,13.73-13.22A13.5,13.5,0,0,1,825.11,1111.16Zm0-19.73a6.53,6.53,0,1,0,7,6.51A6.81,6.81,0,0,0,825.11,1091.43Z"/><path class="cls-2" d="M291.3,641.14a3.14,3.14,0,0,1-.75-.09l-34.83-8.17a3.35,3.35,0,0,1-2.5-4l77-328.43a3.39,3.39,0,0,1,4-2.49l34.81,8.16a3.35,3.35,0,0,1,2.51,4l-77,328.43a3.37,3.37,0,0,1-3.27,2.6Zm-30.79-14,28.3,6.63,75.5-321.89L336,305.21Z"/><path class="cls-2" d="M229.12,638.62a4.05,4.05,0,0,1-1-.14L193.93,628a3.33,3.33,0,0,1-2-1.62,3.29,3.29,0,0,1-.24-2.57l98.46-322.64a3.37,3.37,0,0,1,4.19-2.24l34.21,10.45a3.35,3.35,0,0,1,2.24,4.19L232.35,636.23A3.4,3.4,0,0,1,229.12,638.62Zm-30-16,27.81,8.47,96.5-316.23-27.79-8.47Z"/><path class="cls-2" d="M186.44,638.61a4,4,0,0,1-1-.13L151.25,628a3.35,3.35,0,0,1-2.24-4.19l98.46-322.64a3.4,3.4,0,0,1,1.64-2,3.3,3.3,0,0,1,2.55-.26l34.21,10.45a3.36,3.36,0,0,1,2.24,4.19L189.65,636.23a3.45,3.45,0,0,1-1.64,2A3.23,3.23,0,0,1,186.44,638.61Zm-30-16,27.79,8.47,96.52-316.23-27.81-8.47Z"/><path class="cls-2" d="M142.58,643.23a4,4,0,0,1-1-.14l-34.22-10.46a3.36,3.36,0,0,1-2.23-4.18L203.63,305.8a3.37,3.37,0,0,1,4.19-2.24L242,314a3.36,3.36,0,0,1,2,1.62,3.52,3.52,0,0,1,.25,2.57L145.78,640.85a3.35,3.35,0,0,1-3.2,2.38Zm-30-16,27.79,8.48,96.52-316.23L209.07,311Z"/><path class="cls-2" d="M99.12,644.76a3.81,3.81,0,0,1-1-.14L63.91,634.18A3.36,3.36,0,0,1,61.69,630l98.47-322.65a3.38,3.38,0,0,1,4.2-2.23l34.2,10.44a3.35,3.35,0,0,1,2.23,4.19L102.31,642.38A3.32,3.32,0,0,1,99.12,644.76Zm-30-16,27.8,8.48L193.39,321l-27.8-8.48Z"/><path class="cls-2" d="M17.09,641.14a3.28,3.28,0,0,1-1.37-.29,3.35,3.35,0,0,1-1.7-4.43L149.87,331.35,123.3,319.41,6.81,581.16A3.35,3.35,0,1,1,.7,578.43L118.54,313.61a3.33,3.33,0,0,1,4.43-1.69l32.69,14.68a3.35,3.35,0,0,1,1.69,4.43L20.15,639.15A3.35,3.35,0,0,1,17.09,641.14Z"/><path class="cls-2" d="M772.14,1554.42H430.34a3.35,3.35,0,0,1-3.35-3.35v-63.36a3.36,3.36,0,0,1,3.35-3.36h341.8a3.37,3.37,0,0,1,3.37,3.36v63.36A3.36,3.36,0,0,1,772.14,1554.42Zm-338.45-6.7H768.78v-56.66H433.69Z"/><path class="cls-2" d="M792.29,1490.78H450.49a3.36,3.36,0,0,1-3.35-3.35v-63.37a3.35,3.35,0,0,1,3.35-3.34h341.8a3.36,3.36,0,0,1,3.36,3.34v63.37A3.37,3.37,0,0,1,792.29,1490.78Zm-338.43-6.71H788.94v-56.66H453.86Z"/><path class="cls-2" d="M748.84,1426.6H434.58a3.37,3.37,0,0,1-3.36-3.36v-63.35a3.36,3.36,0,0,1,3.36-3.36H748.84a3.35,3.35,0,0,1,3.36,3.36v63.35A3.36,3.36,0,0,1,748.84,1426.6Zm-310.91-6.72H745.48v-56.64H437.93Z"/><path class="cls-2" d="M669.08,1363.47H450a3.35,3.35,0,0,1-3.34-3.35v-48.29a3.34,3.34,0,0,1,3.34-3.34H669.08a3.34,3.34,0,0,1,3.35,3.34v48.29A3.35,3.35,0,0,1,669.08,1363.47Zm-215.77-6.7H665.72v-41.58H453.31Z"/><path class="cls-2" d="M135,1147.63H101.4a37.53,37.53,0,0,1-37.5-37.49V968.3a37.53,37.53,0,0,1,37.5-37.48H135a37.52,37.52,0,0,1,37.49,37.48v141.84A37.52,37.52,0,0,1,135,1147.63ZM101.4,937.52A30.81,30.81,0,0,0,70.61,968.3v141.84a30.83,30.83,0,0,0,30.79,30.79H135a30.82,30.82,0,0,0,30.78-30.79V968.3A30.8,30.8,0,0,0,135,937.52Z"/><path class="cls-2" d="M267.57,1148H239.31a32.16,32.16,0,0,1-32.12-32.12V996.39a32.14,32.14,0,0,1,32.12-32.12h28.26a32.15,32.15,0,0,1,32.13,32.12v119.49A32.17,32.17,0,0,1,267.57,1148ZM239.31,971a25.46,25.46,0,0,0-25.42,25.42v119.49a25.44,25.44,0,0,0,25.42,25.4h28.26a25.43,25.43,0,0,0,25.42-25.4V996.39A25.44,25.44,0,0,0,267.57,971Z"/><path class="cls-2" d="M142.56,934.93H96.77a12.19,12.19,0,0,1,0-24.38h45.79a12.19,12.19,0,0,1,0,24.38ZM96.77,917.26a5.48,5.48,0,1,0,0,11h45.79a5.48,5.48,0,1,0,0-11Z"/><path class="cls-2" d="M263.73,968.29H246.08a18.9,18.9,0,1,1,0-37.79h17.65a18.9,18.9,0,0,1,0,37.79ZM246.08,937.2a12.19,12.19,0,0,0,0,24.38h17.65a12.19,12.19,0,0,0,0-24.38Z"/></g></g><g id="_Layer_" data-name="&lt;Layer&gt;"><path class="cls-3" d="M981.37,964.57s-13.77,7.8-40.85,24.32c-33.5,19.74-85.37,50.95-132.65,72.53-21.57,10.09-42.23,17.44-62,24.32-23.86,8.27-45.43,12.4-63.79,10.56-15.15-1.38-28.46-7.8-33.05-12.39-2.76-2.76-11.94-19.28-17-42.69-4.59-21.11-5.05-45-2.75-74.82,2.29-30.29,14.23-56,31.21-85.83,11.48-20.66,25.7-44.52,38.1-66.1,7.34-13.31,16.52-29.83,23.41-42.68,20.19-38.1,38.1-74.82,54.16-97.77,4.59-6.89,8.72-10.1,13.31-14.69,6.89-7.34,16.06-3.21,16.06-3.21s73.91,88.59,74.36,110.16c0,7.8-4.13,18.36-9.64,31.67-7.8,18.82-17,40.85-17,40.85s16.07-13.77,72.06-69.31c13.78-13.77,30.76-31.67,49.12-50.49,19.28-19.28,43.14-31.21,73.44-45.9,12.39-6,46.81-26.62,46.81-26.62l8.27-12.85,47.73-29.84L1394,537.7l25.25,12.39,14.69,8.72,15.6,6.89,3.22,5s28.45,8.73,67.47,17.91c34.88,8.26,79.87,18.36,113.37,31.67,18.82,7.34,32.13,14.68,42.69,24.32,10.56,9.18,17.9,24.33,24.79,38.1,20.19,41.77,28.45,96.85,43.6,149.63,15.6,54.17,36.26,111.54,51.41,148.72,7.34,17.44,11.47,31.21,14.68,39.47,9.65,23.87,21.58,65.18,22,101.44.46,28.46-6,53.71-21.12,68.85-12.39,12.4-39.93,14.69-60.59,12.86-61-5.51-132.64-59.22-132.64-59.22l6,127.15,14.23,207.47,9.18,170.29s-171.21,38.09-329.56,38.09-333.23-37.64-333.23-37.64-2.3-31.67.45-108.32c2.3-62.42,9.64-147.34,11.94-180.39.46-7.8-.92-19.73-.92-19.73l-9.64-275.86Z"/><path class="cls-3" d="M874.89,553.76l42.68-42.23s13.77-21.57,20.66-42.68c7.34-23.41,8.26-45.44,19.28-41.77,7.34,2.29,17.44,12.39,14.68,43.14-.46,4.59-3.21,13.77-4.59,21.12a111.09,111.09,0,0,0-1.37,16.06s60.58,11,80.32,23.87c7.8,5.05,7.35,7.8,6,11.93-1.84,6.89-6.43,15.15-6.43,15.15s5.05,4.13,4.59,12.85-6.88,23.41-6.88,23.41,1.83,2.3,2.29,7.35-.92,15.6-.92,15.6,22.5,4.59,32.13,11.94c5.51,4.13,1.84,10.55-.45,12.85-2.76,3.21-13.78,4.13-26.63,3.21a212.79,212.79,0,0,1-26.16-3.67s-10.1,8.72-20.66,8.26-20.19-11-20.19-11S965.77,653.37,943.73,669c-22,15.15-30.29,11.48-51,31.21-8.71,8.27-12.85,18.82-16.52,27.54-5.51,11.94-9.64,22.95-9.64,22.95s-23.87-.46-37.64-19.73c-14.23-18.82-19.73-60.59-19.73-60.59l13.31-28.92,24.32-37.18Z"/><path class="cls-3" d="M1488.11,872.77c6.42-10.1,25.24-55.08,39.93-57.38,11.94-1.83,26.16,3.67,31.67,14.69,1.84,3.21,2.76,15.15,2.76,15.15s6-6.89,15.6-2.3c9.64,4.13,10.56,13.31,23.41,19.74s14.69-2.75,27.54,6c12.85,8.26,10.56,13.31,23.41,28,12.85,14.22,31.67,2.29,28.46,29.83-2.3,20.2-28.46,50-28.46,50a155,155,0,0,1-6.89,33.51c-6,18.82-17,41.77-17,41.77s-11.47,18.82-30.29,18.36c-6.89,0-17.9-2.76-35.8-16.07-17.45-13.31-37.64-38.55-37.64-38.55s-11,.91-35.8-9.18c-15.61-6.43-31.67-6.89-36.26-22-6-17.9,13.76-25.24,21.11-44.52C1481.68,920.5,1476.63,889.75,1488.11,872.77Z"/><path class="cls-3" d="M1016.71,288.46c23-28,92.27-56,154.23-44.52,72.06,13.31,134.49,75.73,134.49,75.73s40.39-16.52,47.73,8.72c3.68,11.48,6,23.87,5.51,32.59-1.83,30.3-24.78,40.85-24.78,40.85s1.83,36.26,10.09,68.39,23.41,60.13,23.41,60.13-14.69,31.22-45.9,63.34c-31.67,32.13-79.4,62.89-79.4,62.89l-12.86,14.69-6.42,62.42-16.07-67.93a33.91,33.91,0,0,1-28.46-18.82c-9.63-19.28-14.22-58.29-14.22-58.29a121.36,121.36,0,0,1-24.79-13.31c-13.31-9.19-28.46-23.87-28.46-23.87s-24.33-19.74-46.82-63.34c-7.8-14.69-23.87-52.33-31.21-68.86-7.34-17-16.07-38.09-20.66-55.08C1002.49,331.61,1002.49,305.44,1016.71,288.46Z"/><path class="cls-4" d="M1159,587.73l10.09,3.21a205.85,205.85,0,0,0-30.29,32.59c-12.85,17.9-23,39-33.51,74.82-21.57,73.44-22,187.27-22,187.27s4.59.92,6.88,9.64c1.84,8.72.46,25.7.46,25.7l-23.86.46s-.92-16.52,0-24.33c1.37-8.26,4.59-8.72,4.59-8.72s0-121.17,22-195.53c10.56-35.8,23.87-61.51,36.72-78.49C1144.78,595.53,1159,587.73,1159,587.73Z"/><path class="cls-4" d="M1356.37,506s42.69,6.42,65.64,57.37,24.33,135.87,24.33,135.87,34,8.26,47.73,38.55c7.35,15.15,9.65,37.64,10.1,54.62A158.46,158.46,0,0,1,1502.8,820a24.76,24.76,0,0,1-7.81.46,32.48,32.48,0,0,1-8.26-2.29s3.67-43.15-8.26-72.07c-7.8-19.27-28-28.91-39.48-29.83s-29.83,8.72-41.3,25.7c-17.91,26.62-27.54,65.64-27.54,65.64a16,16,0,0,1-6,.46c-2.75-.46-5.51-3.21-5.51-3.21s7.35-41.77,24.79-68.4c17.9-26.62,45.9-35.34,45.9-35.34s-3.67-63.8-12.85-103.73c-9.19-39.48-24.33-55.08-24.33-55.08l-13.31-12.4s-5-8.26-9.64-11.47a10.39,10.39,0,0,0-8.72-1.84Z"/><path class="cls-5" d="M1058.48,177.38c16.53-12.39,56.92-39.93,98.69-42.69,31.67-1.83,59.67,6.43,86.29,15.61,24.79,8.72,51.41,19.74,60.13,30.75,4.59,5.51,18.36,20.2,24.33,51.41,6,32.59,6,82.16,6,82.16s-12.86,9.64-28.46,11.94c-10.56,1.83-24.33-.92-35.35-6-17.44-7.8-34.88-18.36-52.78-31.67-17-12.85-40.39-29.84-61-28.92-13.31.46-28,5.05-42.23,13.31-18.36,10.56-36.72,26.63-53.7,33.51-21.57,9.64-33-1.38-45,9.64-14.23,13.31-6,36.72-6,36.72s-45-24.79-42.23-48.2C972.65,259.54,1031.86,197.58,1058.48,177.38Z"/><path class="cls-6" d="M804.2,658.41c6-9.64,13.31-6,13.31-6l-7.8,18.82s2.29,18.82,7.34,34a76.79,76.79,0,0,0,13.77,26.62c14.23,19.28,36.26,16.07,36.26,16.07l10.56-20.2s5.51,5.51,1.38,17.9c-5.51,17.45-20.66,51.87-20.66,51.87s-2.75,2.3-9.18.46c-8.72-2.75-22.95-11.47-33-27.08-17.44-27.08-29.37-83.08-29.37-83.08S798.23,669,804.2,658.41Z"/><path class="cls-6" d="M1154,603.79l13.77-10.1s4.59,29.84,14.22,47.74,22.5,18.36,24.33,24.79c4.59,12.85,8.27,36.72,11.48,51.86,2.75,14.23,5,19.74,5,19.74s-.46-37.64,2.29-56.46,8.26-18.36,8.26-18.36l52.33-42.68s30.75-27.08,50.49-50S1365.1,529,1365.1,529l-5.51-11.48s3.67-3.67,11,3.21c6.88,6.89,19.73,23.41,19.73,23.41s-12.85,51.41-42.23,114.29c-22,47.28-90.88,181.31-123,252.91-10.55,23.87-17,56-17,56s-32.13-80.78-46.36-170.75C1153,742,1151.2,686.41,1151.2,648.78,1151.66,624,1154,603.79,1154,603.79Z"/><path class="cls-6" d="M1526.67,1015.06s50,63.34,82.15,52.32,45.91-96.85,45.91-96.85l4.13-3.67s13.31,26.17,9.63,50.95-24.78,49.57-24.78,49.57-36.26,42.69-70.23,22.95c-13.31-7.8-26.62-20.65-36.72-34.42a239.52,239.52,0,0,1-25.24-42.69Z"/><path class="cls-7" d="M1049.31,935.65c16.06-18.36,42.68-21.57,59.67-5.51a51.16,51.16,0,0,1,16.52,28c2.75,13.77,0,30.3-8.26,40.85-14.69,18.82-45.45,24.79-62,7.81C1039.21,988.89,1033.24,954,1049.31,935.65Z"/><path class="cls-8" d="M1359.59,807.13l8.26,1.38s-8.72,52.32-14.23,103.73c-3.21,28.92-6,56-3.67,77.11,3.67,32.59,50,48.66,50,48.66s35.8-9.64,52.33-19.28c9.18-5.51,11.93-19.74,11.93-19.74l8.72,1.84s-.46,14.69-15.14,25.24c-14.69,11-43.61,18.82-43.61,18.82l17.9,11-3.67,6-28.46-12.4-35.34,4.13-1.84-6.42,23.41-5.51s-33.51-23.87-39-28.92c-11-11-8.71-46.82-4.58-87.67C1348.57,869.1,1359.59,807.13,1359.59,807.13Z"/><path class="cls-9" d="M1363.72,1056.37c4.59-4.59.46-9.18-5-10.1-6-.92-17,3.21-21.11,7.34-5.51,4.59-.46,12.4,6,14.69.92.46,6,2.3,6.89,1.38,3.67-2.3,5-6.89,8.26-10.1C1359.59,1058.2,1362.34,1057.74,1363.72,1056.37Z"/><path class="cls-9" d="M1435.78,1055.45c-3.67-.46-6,4.59-6,6.88,0,4.14,3.21,4.59,3.67,7.81.46,2.29.91,9.18,3.67,10.1,6.89,3.21,15.15.45,17.9-5,.92-2.3,2.3-4.59.92-6.89A29,29,0,0,0,1435.78,1055.45Z"/><path class="cls-8" d="M1491.78,821.36h7.34l-1.37,29.83-10.1,18.36Z"/><path class="cls-10" d="M1523.91,1016.89c-9.64,0-22.49-4.13-36.26-9.18-3.67-1.37-7.34-2.29-10.56-3.67-12.39-4.13-21.57-6.88-26.16-19.28-4.13-10.55,3.67-21.57,11.47-31.67,3.68-5.51,7.81-10.55,9.64-15.61,4.14-10.55,5-21.57,6.43-33a144.24,144.24,0,0,1,2.3-19.74c2.29-12.85,11-26.62,18.35-39,1.38-2.76,3.22-5.05,4.6-7.35,9.18-15.61,17.44-23.87,25.7-25.7,10.1-2.3,25.24,1.83,31.67,12.39,6.43,11,5.05,21.57-5,34.43-5.51,6.88-13.31,10.55-20.19,9.18-6.43-.92-11.48-5.51-14.24-13.31-1.83-5.51-1.37-16.53-1.37-17.91a2.76,2.76,0,0,1,5.51,0c0,3.22,0,11.48,1.37,15.61,1.84,5.51,5.51,8.72,9.64,9.64,5,.92,11-1.84,15.15-7.34,8.72-11,10.1-18.82,4.59-28-5-8.27-17-11.94-25.71-10.1-4.12.92-11.47,6-22,23.41a62.73,62.73,0,0,1-4.59,7.34c-7.34,11.94-15.6,25.25-17.9,37.18a139.22,139.22,0,0,0-2.29,19.28c-.92,11.47-1.84,23.41-6.43,34.88-2.29,5.51-6.43,11.48-10.56,17-6.88,9.18-13.76,18.81-10.55,26.62,3.67,10.1,11,12.39,23,16.06,3.21.92,6.88,2.3,10.55,3.67,12.4,4.59,35.81,13.32,41.32,6.89,4.59-5.51,2.75-10.1-1.38-16.52-7.35-11.94-23-21.12-37.18-22a2.75,2.75,0,1,1,0-5.5c16.06.91,33.5,11,41.77,24.32,3.21,5.51,8.72,13.77.92,23C1532.63,1016,1529,1016.89,1523.91,1016.89Z"/><path class="cls-10" d="M1501.42,970.53a2.91,2.91,0,0,1-2.76-2.29,119.22,119.22,0,0,0-5.5-17c-.46-1.38,0-3.22,1.37-3.68s3.22,0,3.68,1.38a103.3,103.3,0,0,1,6,17.9c.46,1.38-.46,2.76-2.29,3.22Z"/><path class="cls-10" d="M1537.22,1015.06a6.8,6.8,0,0,1-3.21-.46,2.79,2.79,0,1,1,.92-5.51c6,1.38,13.31-2.29,22-10.56a2.6,2.6,0,0,1,3.67,3.68C1551.91,1010.93,1544.11,1015.06,1537.22,1015.06Z"/><path class="cls-10" d="M1521.61,981.09h0c-1.83,0-2.75-1.38-2.75-3.21a37.52,37.52,0,0,0-1.38-8.26,80.16,80.16,0,0,1-2.29-23.41c.92-16.07,11.93-48.2,21.11-67l.46-.91c2.76-5,5-10.56,7.81-15.61a2.47,2.47,0,0,1,3.67-.92c1.37.92,1.83,2.3.91,3.67-2.75,5.05-5.5,10.1-7.8,15.15v.92c-9.18,18.36-19.74,49.57-20.65,64.72a73.42,73.42,0,0,0,2.29,22,47.28,47.28,0,0,1,1.38,10.1A2.65,2.65,0,0,1,1521.61,981.09Z"/><path class="cls-10" d="M1604.69,1015.52a8.94,8.94,0,0,1-3.67-.46c-4.59-.92-7.34-4.13-8.72-8.72a2.62,2.62,0,1,1,5-1.38,7.32,7.32,0,0,0,4.59,5c8.26,1.83,23-6.43,25.71-10.1,11.93-13.31,34-39.93,45.9-64.72,4.13-8.26,5-15.15,3.21-19.74-2.3-6.42-10.1-9.63-17-12.85-4.13-1.83-7.8-3.21-11-5.51-4.13-3.21-6.89-7.34-10.1-11.93s-6.43-9.64-11-12.39c-5.05-3.22-10.56-3.67-16.07-4.59-4.59-.92-9.18-1.38-12.85-3.22a53.3,53.3,0,0,1-12.86-11c-3.67-4.13-6.88-7.35-11.93-8.26-4.13-.92-8.26,0-12.85,3.67-1.38.92-2.76.92-3.67-.46s-.92-2.75.46-3.67c5.51-4.59,11.47-6.43,17.44-4.59,6.42,1.83,10.55,5.51,14.69,10.1,3.21,3.21,6.42,6.88,11.93,10.09,2.3,1.38,6.43,1.84,10.56,2.76,6,.92,12.39,1.83,18.36,5.51,5.51,3.67,9.18,8.72,12.39,14.22,2.76,4.14,5,8.27,8.72,10.56a93.28,93.28,0,0,0,9.64,5c7.81,3.21,17,7.34,20.2,16.07,2.29,6.42,1.37,14.22-3.67,24.32-12.4,25.71-34.89,52.33-46.82,66.1C1628.56,1007.71,1615.25,1015.52,1604.69,1015.52Z"/><path class="cls-10" d="M1574.86,1017.81a20.55,20.55,0,0,1-5-.46,12,12,0,0,1-9.18-6c-4.59-6.89-5.51-19.28-1.38-38.56,7.35-36.72,28.92-80.78,28.92-81.24.46-1.38,2.29-1.84,3.67-1.38s1.84,2.29,1.38,3.67c0,.46-21.57,43.6-28.46,79.87-4.13,21.11-1.83,30.29.92,34a9.38,9.38,0,0,0,6,3.68c8.26,1.37,17.9,0,29.37-21.58,10.1-18.82,38.1-74.81,38.56-75.27.46-1.38,2.29-1.84,3.67-1.38s1.84,2.29,1.38,3.67c-.46.46-28.46,56.46-38.56,75.74C1596,1009.55,1586.34,1017.81,1574.86,1017.81Z"/><path class="cls-10" d="M867.54,750.67a1.69,1.69,0,0,1-1.38-.46,3.07,3.07,0,0,1-1.37-3.67q3.44-6.88,6.88-15.15c6-13.31,11.48-27.08,20.2-34.88,7.34-6.43,18.36-12.39,29.83-18.82,7.81-4.13,15.61-8.26,22.49-12.85A201.23,201.23,0,0,0,960.72,652c11-9.18,21.57-17.9,30.29-17.9h.46c7.35,0,20.65,2.29,33.51,4.59,9.18,1.37,18.36,2.75,23.87,3.67,15.6,1.38,28-1.38,28.91-6.89s-13.77-9.64-29.37-14.23c-18.82-5.5-53.71-17.9-60.13-21.11-1.38-.46-1.84-2.29-1.38-3.67s2.3-1.84,3.67-1.38c5.51,2.76,39.48,15.15,59.21,20.66,20.2,6,34.43,10.09,33.51,20.19-1.38,9.18-14.69,13.77-34.88,11.94a244.23,244.23,0,0,1-24.33-3.68c-12.85-1.83-26.16-4.13-33-4.59-6.88,0-17,8.27-27.08,16.53-5.51,4.59-11.48,9.64-17.44,13.31-6.89,4.59-15.15,8.72-22.49,12.85-11.48,6-22,11.94-28.92,17.9-7.34,6.89-13.31,20.66-18.82,33.05a122.85,122.85,0,0,1-7.34,15.61C869.38,750.21,868.46,750.67,867.54,750.67Z"/><path class="cls-10" d="M1004.32,652.91c-6,0-12.39-2.3-20.65-9.64-.92-.92-1.38-2.76,0-3.68.91-.91,2.75-1.37,3.67,0,14.23,12.86,22,8.27,30.75,3.22a51.06,51.06,0,0,1,5-2.76c1.38-.46,3.22,0,3.67,1.38s0,3.21-1.37,3.67a21.65,21.65,0,0,1-4.59,2.3C1015.8,649.69,1010.29,652.91,1004.32,652.91Z"/><path class="cls-10" d="M1045.63,618h0c-1.83,0-2.75-1.37-2.75-3.21,1.84-17.9,1.38-19.28-12.4-24.33l-4.58-1.37c-13.78-4.6-26.63-9.19-40.4-14.69a2.77,2.77,0,0,1,2.3-5c13.31,5.51,26.16,10.1,39.93,14.69l4.59,1.37c17.44,6,17.44,11,16.07,29.84C1047.93,616.65,1047,618,1045.63,618Z"/><path class="cls-10" d="M1044.26,596h-.92c-1.38-.46-1.84-2.3-1.38-3.67l.92-2.76c3.21-7.8,8.26-18.36,4.59-25.24-1.84-3.67-6.43-5.05-11-6-.92-.46-1.83-.46-2.75-.92-3.67-.91-7.34-2.29-11.48-3.21-12.39-3.67-26.16-7.34-36.26-11a2.9,2.9,0,0,1,1.84-5.5c10.1,3.21,23.87,7.34,36.26,11,4.13,1.38,7.8,2.3,11.47,3.22.92,0,1.38.45,2.3.45,5.05,1.38,11.48,3.22,14.69,8.73,5,9.18-.46,21.11-4.13,29.83l-.92,2.3C1046.09,595.53,1045.17,596,1044.26,596Z"/><path class="cls-10" d="M1045.63,560.19h-.91a3.12,3.12,0,0,1-1.84-3.67,27.12,27.12,0,0,1,1.84-3.68c3.67-7.34,6.88-15.14,2.29-18.82-8.26-6-74.36-26.62-88.13-24.32-12.85,1.83-35.34,21.11-50.49,33.5l-2.75,2.3c-1.38.92-2.76.92-3.68-.46s-.91-2.75.47-3.67l2.75-2.3c16.52-13.77,38.55-33,53.24-34.88,15.61-2.3,82.62,18.36,92.26,25.7,9.18,6.43,2.76,18.82-.46,25.71-.46,1.37-1.37,2.29-1.37,3.21C1047.93,559.27,1047,560.19,1045.63,560.19Z"/><path class="cls-10" d="M809.71,673.56h-.92c-1.38-.46-1.84-2.29-1.38-3.67,11.93-28,23-45,32.59-60.13,2.29-3.21,4.13-6.43,6.43-10.1,4.59-7.34,8.72-15.15,12.85-22.49,6.43-11.47,12.39-22,17.9-28.92A190.6,190.6,0,0,1,891,534c14.23-14.22,32.59-31.67,41.77-54.62a188.8,188.8,0,0,0,9.18-32.13c2.29-12.39,4.13-21.11,14.23-22.95a11.56,11.56,0,0,1,9.18,2.76c6.42,5.51,10.55,19.74,10.09,34.88a142.24,142.24,0,0,1-3.21,23.87c-1.37,6.43-2.75,12.39-2.75,19.74a2.76,2.76,0,0,1-5.51,0c0-8.27,1.38-14.23,2.76-21.12a131.82,131.82,0,0,0,3.21-22.95c.46-13.31-2.76-26.16-8.26-30.29q-2.07-2.07-4.13-1.38c-6.43,1.38-7.35,6.43-10.1,18.82a209,209,0,0,1-9.18,33.05c-9.64,23.87-28,41.77-42.69,56.46-5.51,5.5-10.1,10.09-13.31,14.22-5.05,6.43-11,17-17,28-4.12,7.81-8.72,15.61-13.3,23-2.3,3.22-4.14,6.43-6.43,10.1-9.64,14.69-20.66,31.67-32.13,59.21A20.64,20.64,0,0,1,809.71,673.56Z"/><path class="cls-10" d="M865.71,752.05c-9.19,0-19.74-4.13-25.71-8.26-16.52-11.48-27.08-32.13-31.67-62.88a150.11,150.11,0,0,1-1.84-20.66c.46-6.43.46-7.8.46-7.8l2.76-.46,1.37-2.3c1.38.92,1.38.92.92,10.56-.46,6.89.46,12.85,1.84,19.28,4.59,29.37,14.23,48.65,29.37,59.21,7.35,5,22,10.1,30.3,6,3.67-1.84,5-5.51,5-10.56a2.76,2.76,0,1,1,5.51,0c0,9.18-4.59,13.31-8.27,15.6A20.22,20.22,0,0,1,865.71,752.05Z"/><path class="cls-10" d="M787.21,690.09a1.68,1.68,0,0,1-1.37-.46c-1.38-.92-1.84-2.3-.92-3.68a90.6,90.6,0,0,1,7.35-11,103.54,103.54,0,0,0,6-9.18l1.38-2.76c4.13-7.34,7.34-13.77,12.39-15.14a9.49,9.49,0,0,1,6.89,1.37,2.68,2.68,0,1,1-2.76,4.59c-1.38-.91-1.83-.91-2.29-.46-2.76.92-6,6.89-9.18,12.4l-1.38,2.75c-1.84,3.67-4.13,6.43-6,9.64a105.31,105.31,0,0,0-6.88,10.56C789.05,689.17,788.13,690.09,787.21,690.09Z"/><path class="cls-10" d="M857.44,799.79h-.92a2.91,2.91,0,0,1-1.83-3.68c.92-3.21,5-12.39,9.18-22,3.21-6.89,6-14.23,8.26-20.19l.92-1.84c4.59-11.47,6.88-16.52,2.75-23.41a2.68,2.68,0,1,1,4.59-2.75c5.51,9.18,2.3,17-2.29,28.45l-.92,1.84c-2.29,5.51-5.51,12.85-8.26,20.2-4.13,9.64-7.8,18.36-8.72,21.57A3.11,3.11,0,0,1,857.44,799.79Z"/><path class="cls-10" d="M853.31,800.7a10.1,10.1,0,0,1-3.67-.46c-34-11.47-47.28-48.65-56-73.44-.92-2.75-1.84-5-2.75-7.34-5.51-15.61-13.77-53.24-1.84-64.72,2.75-2.75,8.26-5,17-1.38a2.77,2.77,0,0,1-2.3,5c-7.34-3.21-10.1-.46-11,.46-8.26,8.26-3.67,39.94,3.22,58.75.92,2.3,1.83,4.59,2.75,7.35C807,748.84,819.81,784.64,851,795.2c1.83.46,4.59,0,7.34-1.38,7.8-4.13,15.61-14.23,17.9-23.41,1.38-5-.46-9.18-3.21-14.69-.46-1.38,0-3.21,1.38-3.67s3.21,0,3.67,1.38c3.21,6.88,5.51,11.93,3.67,18.82-2.75,10.55-11.48,22-20.65,26.62A16.2,16.2,0,0,1,853.31,800.7Z"/><path class="cls-10" d="M783.09,1019.65a2.77,2.77,0,0,1-1.84-.46,2.42,2.42,0,0,1-.46-3.67c17-20.66,23.41-44.07,31.21-73.9,4.59-16.53,9.18-34.89,17-54.62,10.56-28.46,19.74-48.66,27.54-66.1,7.35-17,14.23-31.21,19.74-48.19a2.9,2.9,0,1,1,5.51,1.83c-5.51,17-12.39,31.67-19.74,48.66-7.8,17.9-17,37.63-27.54,66.09A533.76,533.76,0,0,0,818,943.45c-7.8,29.38-14.69,54.62-32.59,76.2C784.92,1019.19,784,1019.65,783.09,1019.65Z"/><path class="cls-10" d="M692.2,1099.51c-11.93,0-24.32-2.29-35.34-7.8-34.43-17.44-36.26-109.24-25.7-151.47C639,910,661,872.77,680.27,840.64c6.88-11.48,13.31-22.49,18.82-32.13,16.06-29.38,28.91-53.25,39-72.53,25.71-48.65,37.18-70.68,51.87-81.24a2.62,2.62,0,1,1,3.21,4.13c-13.31,10.1-24.78,31.67-50,79.41-10.1,19.28-22.95,43.61-39,72.52-5.51,10.1-11.94,20.66-18.82,32.59-19.28,32.13-40.85,68.39-48.66,98.23-11.93,46.82-6.42,130.35,22.49,145,30.76,15.15,70.23,2.3,96.39-6.42H756c26.17-8.73,52.33-21.12,76.66-33,30.75-15.61,61.5-34,91.34-51.87,13.31-8.26,27.08-16.52,40.85-24.33a2.68,2.68,0,0,1,2.75,4.59c-13.31,7.81-27.08,16.07-40.85,24.33-29.83,17.9-60.59,36.72-91.34,52.32-24.33,12.4-50.49,24.79-77.11,33.51h-.46C739.48,1091.71,715.61,1099.51,692.2,1099.51Z"/><path class="cls-10" d="M877.18,819.06c-.92,0-1.38-.45-2.29-.91-.92-1.38-.92-2.76.45-3.68,19.74-16.52,42.23-39.93,76.2-78,27.54-30.75,55.54-45.44,75.73-56,3.67-1.84,6.89-3.68,9.64-5.05a79.46,79.46,0,0,0,10.56-6c16.52-9.18,32.13-17.44,46.82-28.92,1.37-.92,2.75-.92,3.67.46s.92,2.76-.46,3.67c-14.69,11.94-30.75,20.66-47.74,29.84a119.8,119.8,0,0,0-10.55,6c-3.22,1.83-6.43,3.21-9.64,5-20.2,10.55-47.28,24.78-74.36,54.62-34.43,38.09-56.92,62-77.11,78.49C878.1,819.06,877.64,819.06,877.18,819.06Z"/><path class="cls-10" d="M997.9,1353.34a3,3,0,0,1-2.76-2.75c-2.75-56-5-125.31-7.34-192.32-3.22-91.35-6.89-185.9-10.56-248.32a2.76,2.76,0,1,1,5.51,0c4.13,62.42,7.34,157,10.56,248.77,2.29,67,5.05,136.33,7.34,192.33a3,3,0,0,1-2.75,2.29Z"/><path class="cls-10" d="M985.05,1651.69a3,3,0,0,1-2.76-2.75c-4.13-93.18,12.39-271.27,12.39-273.11a2.79,2.79,0,0,1,5.51.92c0,1.84-17,179.47-12.39,272.19a3,3,0,0,1-2.75,2.75Z"/><path class="cls-10" d="M1648.3,1652.15a3,3,0,0,1-2.76-2.75c0-1.38-5.5-122.56-13.31-238.68-1.37-23-3.21-45.9-5-67.94-4.59-61-9.64-123.93-10.56-199.66a2.76,2.76,0,1,1,5.51,0c1.37,75.73,6,138.61,10.55,199.66,1.84,22,3.67,45,5,67.94,7.8,116.12,13.31,237.76,13.31,239.13a2.58,2.58,0,0,1-2.75,2.3Z"/><path class="cls-10" d="M1600.56,1072c-19.73,0-45-17.9-76.19-54.16-.92-1.38-.92-2.75.46-3.67a2.42,2.42,0,0,1,3.67.46c31.67,36.72,56,53.7,74.36,51.87,9.64-.92,17.9-6.89,24.79-18.36,15.14-25.25,21.11-57.38,23.4-74.36a2.79,2.79,0,1,1,5.51.92c-2.29,17.44-8.26,50.49-23.87,76.19-7.8,12.85-17.44,20.2-28.91,21.11C1602.4,1071.51,1601.48,1072,1600.56,1072Z"/><path class="cls-10" d="M1593.68,1098.6c-40.85,0-74.82-63.35-84.46-84-.46-1.38,0-3.21,1.38-3.67s3.21,0,3.67,1.37c10.1,21.12,45.44,88.59,86.29,80.33,13.31-2.76,35.35-19.28,44.07-30.75,30.29-39,22.95-60.13,12.39-92.26l-.46-1.38a2.9,2.9,0,0,1,5.51-1.84l.46,1.38c11,32.59,18.82,56-13.31,97.31-10.1,12.85-33,29.83-47.74,32.59A51,51,0,0,1,1593.68,1098.6Z"/><path class="cls-10" d="M1765.35,1207.38c-18.37,0-39.48-4.59-63.81-13.77-34.42-12.85-63.34-32.59-105.57-64.72-41.31-31.21-70.22-75.74-74.36-90.88a2.62,2.62,0,1,1,5.06-1.38c3.67,14.23,31.66,57.38,72.06,87.67,41.77,31.67,70.68,51.41,104.19,63.8,40.85,15.15,94.1,25.25,117-15.15,19.74-34.42,7.35-93.17-6.42-136.32-6-18.82-11.93-33.51-18.36-49.11a694.24,694.24,0,0,1-26.62-72.07l-3.21-10.55c-17.45-54.62-28.92-90.43-41.32-144.59-9.17-39.47-26.16-89-44.52-109.7-19.28-22-64.72-36.26-83.54-41.77-15.6-4.13-33-8.26-51.86-12.85-27.09-6.43-55.08-12.85-78-20.2a2.9,2.9,0,1,1,1.83-5.5c22.49,7.34,50.49,13.77,77.57,20.19,18.82,4.13,36.26,8.26,51.87,12.85,23.87,6.43,66.55,21.12,86.29,43.15,20.2,22.95,37.18,74.82,45.9,112.46,12.4,53.7,23.87,89.5,41.31,144.12l3.22,10.56a720.63,720.63,0,0,0,26.62,71.6c6.42,15.61,12.39,30.3,18.82,49.12,14.22,44.06,26.62,104.65,6,140.91C1813.54,1196.82,1793.34,1207.38,1765.35,1207.38Z"/><path class="cls-10" d="M1780.49,1030.66a3.51,3.51,0,0,1-2.29-.91c-9.64-13.32-25.25-17.91-45.44-24.33-21.58-6.43-48.2-14.69-74.36-37.18a2.62,2.62,0,0,1,3.21-4.13c25.25,21.57,50.49,29.37,72.52,35.8,20.2,6,37.64,11.48,48.2,26.16a2.8,2.8,0,0,1-.46,3.68C1781.41,1030.66,1781,1030.66,1780.49,1030.66Z"/><path class="cls-10" d="M1577.15,827.33h-.46a3.46,3.46,0,0,1-2.29-3.22c10.1-47.27,31.67-99.14,55.54-133.11a2.62,2.62,0,1,1,4.13,3.22c-23.41,33.5-44.52,84.91-54.62,131.27C1579.45,826.41,1578.07,827.33,1577.15,827.33Z"/><path class="cls-10" d="M1365.56,530.81a2.54,2.54,0,0,1-2.3-1.37c-14.69-28.92-25.24-67.48-29.37-105.12a2.79,2.79,0,1,1,5.5-.91c4.13,36.72,15.15,75.27,28.92,103.27.46,1.38,0,3.21-1.38,3.67C1366,530.81,1366,530.81,1365.56,530.81Z"/><path class="cls-10" d="M1213.17,953.09a3,3,0,0,1-2.76-2.75c-2.75-74.36,4.14-146,9.18-192.78a426.93,426.93,0,0,0,2.3-46.36c.46-24.33.92-41.77,9.64-50a196.36,196.36,0,0,1,19.74-15.61A460.8,460.8,0,0,0,1288,615.73c30.3-27.54,82.63-85.84,78.49-95.48-.45-.91-2.75-.91-3.67-.91a2.54,2.54,0,0,1-.46-5.05c6-.46,8.27,1.83,9.18,4.13,8.26,18.36-79,101-79.86,101.9-14.23,12.85-26.63,22.49-36.72,30.29q-11,8.26-19.28,15.15c-7.34,6.42-7.34,23.87-7.8,45.9-.46,13.77-.46,29.37-2.3,46.82-5,46.81-11.48,118-9.18,192.32a4.27,4.27,0,0,1-3.21,2.29Z"/><path class="cls-10" d="M1223.27,741.49a2.86,2.86,0,0,1-2.76-1.83c-5-13.31-6.88-28-8.72-40.39-1.84-13.77-3.67-25.25-8.26-31.68a60.23,60.23,0,0,0-7.8-7.34c-10.1-7.8-22-17.9-30.76-64.72-.46-1.38.92-2.75,2.3-3.21s2.75.92,3.21,2.29c8.26,45,19.74,54.17,28.92,61.51a74.86,74.86,0,0,1,8.72,8.26c5.51,7.8,7.34,20.2,9.18,34.43,1.84,12.39,3.67,26.16,8.26,39a2.74,2.74,0,0,1-1.83,3.67C1223.73,741,1223.73,741.49,1223.27,741.49Z"/><path class="cls-10" d="M1285.23,728.18a5.79,5.79,0,0,1-2.75-.46c-7.35-2.29-13.32-15.14-19.74-29.37s-13.77-30.3-22-33.05c-1.84-.92-3.68-.46-6,.46-1.38.46-3.21,0-3.67-1.38s0-3.21,1.37-3.67a13,13,0,0,1,10.1-.92c10.1,3.67,17.9,20.2,24.79,35.8,5.51,11.48,11.48,24.79,16.52,26.63.92.45,1.84,0,2.76-.46,6.88-3.68,26.62-26.17,51-61,3.67-5.05,7.8-11.48,11.47-17l2.76-3.68a2.68,2.68,0,0,1,4.59,2.76l-2.76,3.67c-3.67,6-8.26,12.39-11.93,17.44-23,32.59-44.07,57.84-52.79,62.43A4.18,4.18,0,0,1,1285.23,728.18Z"/><path class="cls-10" d="M1389.42,544.12a2.75,2.75,0,0,1-1.83-.46c-1.84-1.83-4.13-3.67-6.43-6a54.56,54.56,0,0,1-7.8-10.1c-2.3-3.21-3.21-5.05-6.89-7.35a2.68,2.68,0,0,1,2.76-4.59c4.59,2.76,6.42,5.51,8.72,8.73a66.46,66.46,0,0,0,7.34,9.63c1.84,1.84,4.13,3.68,6,5.51a2.42,2.42,0,0,1,.46,3.67A3.51,3.51,0,0,1,1389.42,544.12Z"/><path class="cls-10" d="M1165.43,717.63a5.44,5.44,0,0,1-4.13-2.3c-6-7.8-8.72-35.8-11.48-68.39-.45-3.67-.45-6.89-.91-9.64a2.79,2.79,0,1,1,5.5-.92c.46,3.22.46,6.43.92,10.1,1.84,22.95,5.05,56.92,10.1,65.18,1.84-2.3,4.59-8.72,6.89-14.23,7.34-17.44,17-41.77,34.42-34.89a2.77,2.77,0,1,1-2.29,5.05c-11.94-5.05-20.66,16.53-27.09,31.67-5,11.48-7.34,17.45-11.47,17.91C1165.89,717.63,1165.89,717.63,1165.43,717.63Z"/><path class="cls-10" d="M1194.81,1687a3,3,0,0,1-2.76-2.75c-4.59-151.47-9.18-470-5-561.82,5-122.55,23.4-185.43,50-242.35,17.91-38.55,38.56-80.32,58.76-120.72,22.49-45.9,44.06-89,55.54-115.66,2.29-5.51,5-11.48,7.34-17.45,14.23-33,30.3-70.68,28.92-86.29a2.54,2.54,0,0,1,5.05-.46c1.37,17-14.23,53.25-29.38,88.59-2.75,6-5,11.93-7.34,17.44-11.48,27.08-33.05,70.23-55.54,116.13-19.74,40.39-40.4,82.16-58.29,120.72-26.17,56-44.53,118.42-49.58,240.05-3.67,91.34.46,409.89,5,561.36a3.06,3.06,0,0,1-2.75,3.21Z"/><path class="cls-10" d="M1208.12,970.08a3.78,3.78,0,0,1-2.76-1.84c-18.35-51-31.67-100.52-43.14-160.65-13.31-69.77-17.44-149.63-10.1-202.42a2.79,2.79,0,0,1,5.51.92c-7.35,52.32-3.22,131.27,10.1,200.58,11.47,60.13,24.78,109.24,43.14,159.73a2.75,2.75,0,0,1-1.83,3.68Z"/><path class="cls-10" d="M1387.13,732.31h0c-11.94-.91-19.28-2.75-23-6.42-11-11.48-21.57-42.69-21.57-63.34a2.75,2.75,0,1,1,5.5,0c0,19.27,10.1,49.11,20.2,59.67,1.84,1.83,6.42,4.13,18.82,5a3,3,0,0,1,2.75,2.76C1389.88,731.4,1389,732.31,1387.13,732.31Z"/><path class="cls-10" d="M1373.36,803a3.49,3.49,0,0,1-1.84-.92c-.91-.92-1.37-2.75,0-3.67,15.15-17,49.58-54.62,56-64.72-3.21-.46-10.56-.46-16.52-.46h-2.76a2.76,2.76,0,0,1,0-5.51H1411c15.14,0,20.19,0,22,2.76a3.75,3.75,0,0,1,.46,3.21c-1.84,6-23.87,30.75-58.3,68.85A4.68,4.68,0,0,1,1373.36,803Z"/><path class="cls-10" d="M1197.1,1036.17h-.91a2.9,2.9,0,0,1-1.84-3.67c17.9-54.62,118.42-169.83,160.65-216.65.92-.92,2.75-1.38,3.67,0,.92.92,1.38,2.76,0,3.67-42.23,46.82-142.29,161.11-159.73,214.82C1199.4,1035.71,1198.48,1036.17,1197.1,1036.17Z"/><path class="cls-10" d="M1444.05,668.05h0c-1.84,0-2.76-1.37-2.76-3.21,1.38-14.69,3.21-30.29,5.51-43.61,3.21-18.35,8.72-53.24,0-55.53-12.85-3.22-26.16-12.4-38.1-20.2l-1.38-.92a2.68,2.68,0,0,1,2.76-4.59l.92.92c11.47,7.8,24.32,16.52,36.26,19.74,12.85,3.21,9.64,28.46,4.13,61.5-2.3,13.31-4.13,28.92-5.51,43.15C1446.34,667.14,1445.42,668.05,1444.05,668.05Z"/><path class="cls-10" d="M1367.39,726.35a2.52,2.52,0,0,1-2.29-1.38,2.4,2.4,0,0,1,.92-3.67c9.17-5.51,23.86-8.27,36.71-10.56,1.38-.46,2.76.92,3.22,2.29s-.92,2.76-2.3,3.22c-12.39,2.29-26.62,5-35.34,9.64C1368.31,726.35,1367.85,726.35,1367.39,726.35Z"/><path class="cls-10" d="M1078.68,1016.89c-23.41,0-42.23-22-42.23-49.57s18.82-49.57,42.23-49.57,42.23,22,42.23,49.57S1102.09,1016.89,1078.68,1016.89Zm0-93.63c-20.2,0-36.72,19.73-36.72,44.06s16.52,44.07,36.72,44.07,36.72-19.74,36.72-44.07S1098.88,923.26,1078.68,923.26Z"/><path class="cls-10" d="M1083.27,1019.19c-14.69,0-28.46-7.35-37.64-20.66a2.68,2.68,0,1,1,4.59-2.75c7.8,11.47,19.74,18.36,33,18.36,22.49,0,41.31-20.2,41.31-45s-18.36-45-41.31-45h-1.83a2.65,2.65,0,0,1-2.76-2.76,2.43,2.43,0,0,1,2.76-2.75h2.29c25.7,0,46.82,23,46.82,50.49C1130.09,996.24,1109,1019.19,1083.27,1019.19Z"/><path class="cls-10" d="M1072.26,999.45c-13.78,0-25.25-14.23-25.25-32.13s11.47-32.13,25.25-32.13,25.24,14.23,25.24,32.13S1086.48,999.45,1072.26,999.45Zm0-59.21c-11,0-19.74,11.93-19.74,26.62s8.72,26.62,19.74,26.62S1092,981.55,1092,966.86,1083.27,940.24,1072.26,940.24Z"/><path class="cls-10" d="M1071.79,889.29a3,3,0,0,1-2.75-2.75c-1.37-28.46,3.22-112,18.36-183.6,7.34-34.43,20.66-65.64,37.18-87.67,9.64-12.85,23.87-26.17,33.05-30.76a2.77,2.77,0,0,1,2.29,5c-8.72,4.59-22.49,17.45-31.21,29.38-16.06,21.57-28.91,51.87-36.26,85.37-15.6,71.15-19.74,153.77-18.36,182.23.46,1.37-.92,2.75-2.3,2.75Z"/><path class="cls-10" d="M1083.73,889.75A2.64,2.64,0,0,1,1081,887c-1.38-27.08,9.17-141.38,17.44-175.34,8.72-36.26,20.19-64.72,33.51-84.92,9.63-14.69,24.78-29.83,38.09-38.55a2.68,2.68,0,0,1,2.75,4.59c-12.85,8.26-27.08,22.49-36.26,36.72-12.85,19.73-23.86,47.27-32.58,83.08-8.27,33.5-18.82,146.88-17.45,173.5.46,2.29-.91,3.67-2.75,3.67Z"/><path class="cls-10" d="M1445.88,702a2.64,2.64,0,0,1-2.75-2.76,91,91,0,0,0-.92-10.09c-3.22-48.66-11-162.49-85.84-180.85a2.62,2.62,0,0,1,1.38-5.05c79,19.28,86.75,135.87,90,185.44.46,3.67.46,6.88.92,10.1a2.59,2.59,0,0,1-2.76,3.21Z"/><path class="cls-10" d="M1429.82,701.56a2.65,2.65,0,0,1-2.76-2.75l-.46-7.35c-2.29-41.31-7.34-127.14-47.73-158.35a2.62,2.62,0,1,1,3.21-4.13c42.23,32.58,47.28,120.25,50,162.48l.46,7.35c0,1.37-.92,2.29-2.75,2.75Z"/><path class="cls-10" d="M1497.29,823.2h-3.22c-2.29-.47-9.17-.92-8.71-8.27.45-3.67.45-52.32-9.18-70.22-9.19-17.45-28.92-31.67-51-23.41-17.45,6.42-29.38,27.54-33.51,34.42-6.43,11-12.4,27.54-16.07,43.61-.46,1.83-1.37,6-1.83,8.26h0c-.46,2.75-3.21,4.59-8.26,4.13-6-.46-10.1-2.75-10.1-6.89,0-4.59,2.29-14.22,2.29-14.68,5-22,17.9-62.43,48.66-81.71,22.49-14.22,45.9-11,58.75-3.67,34.88,19.74,40.39,60.59,41.31,77.11.46,13.32.46,30.76-.92,37.18C1505.55,820.9,1503.72,823.2,1497.29,823.2ZM1438.54,713c18.82,0,34,12.85,42.23,28.45,11,20.66,9.63,73,9.63,73.44,0,1.38,0,2.3,3.67,2.76s5.51,0,6-.46c1.38-4.59,1.38-20.2.92-35.34-.92-15.61-6-54.17-38.56-72.53-11.47-6.42-32.58-9.64-53.24,3.68-29.38,18.36-41.77,56.91-46.36,78.48-.46,2.76-2.29,10.1-2.29,13.32.45.91,5.51,1.83,7.34.91a67.31,67.31,0,0,1,1.84-7.8c3.67-16.06,9.63-33.51,16.52-45,4.13-7.35,17-29.38,36.26-36.72C1428.9,714,1434,713,1438.54,713Z"/><path class="cls-10" d="M1497.75,854h0c-1.84,0-2.76-1.38-2.76-3.21.92-11,1.84-20.66,2.3-28.46a2.76,2.76,0,1,1,5.51,0c-.46,7.8-1.38,17.9-2.3,28.91A2.44,2.44,0,0,1,1497.75,854Z"/><path class="cls-10" d="M1365.56,1056.37a2.92,2.92,0,0,1-2.76-2.3c-.46-1.37.92-2.75,2.3-3.21,21.57-3.21,79-12.39,97.3-32.13,1.84-1.84,4.59-6.89,8.27-18.36a2.89,2.89,0,0,1,3.67-1.84,2.92,2.92,0,0,1,1.84,3.68c-3.22,10.09-6.43,16.52-9.65,20.19-17.89,18.82-62.88,28-101,34Z"/><path class="cls-10" d="M1486.73,876h0c-1.83,0-2.75-1.38-2.75-3.21,1.83-17.44,3.67-35.8,5-51.87a2.75,2.75,0,1,1,5.5,0c-1.37,16.07-2.75,34.43-5,51.87C1489,874.6,1488.11,876,1486.73,876Z"/><path class="cls-10" d="M1361.43,1049a2.91,2.91,0,0,1-2.76-2.29,3.44,3.44,0,0,1,2.29-3.21c.92,0,76.66-11.94,93.64-30.3,2.76-2.75,5.51-8.72,8.26-17a2.9,2.9,0,1,1,5.51,1.83c-3.21,9.18-6,15.61-9.18,18.82-19.28,19.74-94.55,31.67-97.76,32.13Z"/><path class="cls-10" d="M1348.11,1072.89c-3.21,0-7.34-1.38-12.39-6-4.59-4.13-4.59-7.8-4.13-10.55,1.84-6.89,11-11,16.52-12.4,7.35-1.83,11.94-2.29,15.15.46h0c1.84,1.84,4.13,5.51,3.67,8.72a6.52,6.52,0,0,1-2.75,5.51c-1.38,1.38-2.75,1.38-3.67,1.84h-.92a2,2,0,0,0-.46,1.38,13,13,0,0,1-7.8,10.09C1350.41,1072.89,1349.49,1072.89,1348.11,1072.89Zm9.18-24.78a34.16,34.16,0,0,0-7.8,1.37c-5.51,1.38-11.93,5-12.39,8.26,0,.46-.46,2.3,2.29,5,4.13,3.67,7.8,5,10.1,4.13,1.84-.46,3.67-2.75,4.13-6,.92-4.59,3.22-5.51,5.51-6,.92,0,.92-.46,1.38-.46.45-.46.92-.92.92-1.38,0-1.37-1.38-3.67-2.3-4.59h0C1359.13,1048.11,1358.21,1048.11,1357.29,1048.11Z"/><path class="cls-10" d="M1387.59,1043.52a1.69,1.69,0,0,1-1.38-.46c-24.78-14.69-40.39-28-46.36-39.94-9.64-18.82,7.8-142.29,17.44-195.53a2.79,2.79,0,1,1,5.51.92c-10.56,60.13-25.7,176.25-17.9,191.86,5.51,11,20.66,23.87,44.52,37.64,1.38.92,1.84,2.29.92,3.67S1388.51,1043.52,1387.59,1043.52Z"/><path class="cls-10" d="M1428.44,1064.63a1.69,1.69,0,0,1-1.38-.46c-8.26-4.13-17.9-8.26-28-13.77-1.37-.92-1.83-2.29-.91-3.67a2.47,2.47,0,0,1,3.67-.92c10.1,5.51,19.28,9.64,27.54,13.77,1.37.46,1.83,2.3,1.37,3.67C1430.27,1063.71,1429.36,1064.63,1428.44,1064.63Z"/><path class="cls-10" d="M1400.9,1040.76a1.69,1.69,0,0,1-1.38-.46c-28.46-16.06-45.44-29.83-51-40.39-9.64-19.28,6.89-136.32,16.53-190a2.79,2.79,0,0,1,5.51.92c-12.4,67.93-24.79,170.75-17,186.36,5.05,9.64,21.57,23,48.65,38.09,1.38.92,1.84,2.3.92,3.68A2.34,2.34,0,0,1,1400.9,1040.76Z"/><path class="cls-10" d="M1434,1058.2a1.69,1.69,0,0,1-1.38-.46s-9.18-4.13-21.57-11c-1.38-.92-1.84-2.3-.92-3.67s2.29-1.84,3.67-.92c11.94,6.42,21.11,10.56,21.11,10.56,1.38.45,1.84,2.29,1.38,3.67A3,3,0,0,1,1434,1058.2Z"/><path class="cls-10" d="M1442.21,1085.28a11.87,11.87,0,0,1-6.43-1.83c-3.67-2.3-5-6.89-4.59-11.94v-1.83l-.46-.46a15.1,15.1,0,0,1-3.21-2.75c-1.38-1.84-1.38-3.68-.92-6a13.83,13.83,0,0,1,6-7.35h0c3.67-1.83,7.8-.45,14.69,3.68,4.59,2.75,12.85,9.64,12.39,16.52,0,2.75-1.38,6.43-6.88,8.72C1448.18,1084.37,1445,1085.28,1442.21,1085.28Zm-7.35-27.08c-1.37.92-3.21,2.3-3.67,3.68a1.68,1.68,0,0,0,.46,1.37,3.54,3.54,0,0,0,1.38.92c1.83.92,3.67,2.75,3.21,7.34-.46,3.22.46,6,2.3,6.89,2.29,1.38,6.42,1.38,11-1.38,3.68-1.83,3.68-3.67,3.68-4.13,0-3.67-4.59-8.72-9.65-11.47C1442.21,1060.5,1436.7,1057.29,1434.86,1058.2Z"/><path class="cls-10" d="M1332.51,403.67a2.86,2.86,0,0,1-2.76-1.84c-.45-1.37,0-3.21,1.38-3.67,18.36-7.34,28-33.51,22.49-60.59-1.84-10.1-8.26-17.44-16.52-18.82-7.8-1.37-15.61,3.68-21.12,13.32a2.68,2.68,0,0,1-4.59-2.76c7.35-11.93,17-17.44,27.09-16.06,10.09,1.83,18.36,11,20.65,23.4,6,29.84-5.05,58.3-25.7,67Z"/><path class="cls-10" d="M1327.92,371.08H1327a2.61,2.61,0,0,1-1.84-3.21c1.84-6.43,5-10.56,8.73-15.61a2.62,2.62,0,0,1,4.13,3.21,41.14,41.14,0,0,0-7.81,13.77A2.09,2.09,0,0,1,1327.92,371.08Z"/><path class="cls-10" d="M1110.35,751.59a67.1,67.1,0,0,1-14.69-1.83,2.79,2.79,0,0,1,.92-5.51c12.4,2.75,17,1.83,18.82.92,11.47-6.43,28-30.3,33.51-48.2a2.62,2.62,0,1,1,5,1.38c-5.51,19.28-23.41,44.06-36.27,51.41C1116.32,751.13,1113.57,751.59,1110.35,751.59Z"/><path class="cls-10" d="M1076.85,787.39a2.54,2.54,0,0,1-2.3-1.37c-17.44-37.18-19.74-45-19.74-47.74a3.26,3.26,0,0,1,1.38-2.75c2.29-1.84,6.88-.46,20.66,3.67l6.42,1.83a2.62,2.62,0,1,1-1.38,5.05l-6.42-1.83c-5-1.38-11-3.22-14.23-4.13,1.37,4.13,5.51,15.6,18.82,43.6.46,1.38,0,3.21-1.38,3.67Z"/><path class="cls-10" d="M1198,1008.63a2.52,2.52,0,0,1-2.29-1.38c-3.68-6-85.84-146.42-99.15-174.42l-10.56-22,2.3-1.38,2.29-1.37,10.56,22c13.31,28,98.23,172.58,99.15,174a2.41,2.41,0,0,1-.92,3.67C1198.94,1008.63,1198.48,1008.63,1198,1008.63Z"/><path class="cls-10" d="M1085.11,730a1.69,1.69,0,0,1-1.38-.46c-15.61-7.8-30.29-15.61-29.38-25.25.46-4.59,7.81-16.06,20.66-33.5,7.34-10.56,15.14-21.12,16.52-25.25,4.59-11.93,12.4-17,22-23.87,3.67-2.75,8.26-5.5,12.85-9.18,1.37-.91,2.75-.91,3.67.46s.92,2.76-.46,3.68c-4.59,3.67-9.18,6.88-13.31,9.63-9.64,6.43-16.07,11-20.2,21.12-1.83,4.59-9.18,15.15-17.44,26.62s-19.28,27.08-19.74,30.75c-.46,6,14.23,13.77,26.17,19.74a3.08,3.08,0,0,1,1.37,3.67C1087.4,729.56,1086,730,1085.11,730Z"/><path class="cls-10" d="M1116.32,749.76a2.39,2.39,0,0,1-1.84-.92c-3.67-3.67-9.18-7.81-17.9-12.4a2.47,2.47,0,0,1-.92-3.67c.92-1.37,2.3-1.83,3.67-.92,9.65,5,15.61,9.18,19.28,13.77a2.8,2.8,0,0,1,0,3.68A4.11,4.11,0,0,1,1116.32,749.76Z"/><path class="cls-10" d="M1066.75,925.09a3,3,0,0,1-2.76-2.75V897.55a14.23,14.23,0,0,1,28.46,0v24.33a2.76,2.76,0,0,1-5.51,0V897.55a8.71,8.71,0,0,0-8.72-8.72,8.44,8.44,0,0,0-8.72,8.72v24.79A2.64,2.64,0,0,1,1066.75,925.09Z"/><path class="cls-10" d="M1031.4,420.65a2.52,2.52,0,0,1-2.29-1.38c-11.93-22.49-24.79-64.71-26.17-88.12a2.76,2.76,0,1,1,5.51,0c1.38,22.49,13.77,64.26,25.71,85.83a2.75,2.75,0,0,1-.92,3.67Z"/><path class="cls-10" d="M1190.68,596a58.52,58.52,0,0,1-8.73-.46c-56.91-6.42-110.16-79.41-120.71-106-.46-1.38,0-3.21,1.37-3.67s3.22,0,3.68,1.38c10.1,25.7,61.5,96.39,116.13,102.81,59.67,6.89,111.07-65.63,124.38-136.78a2.79,2.79,0,0,1,5.51.92C1299,525.76,1250.35,596,1190.68,596Z"/><path class="cls-3" d="M1130.55,507.4a185.67,185.67,0,0,0,32.59-8.72c17.44-6.42,45.44-24.32,45.44-24.32s10.1,49.11-25.25,58.75C1152.12,541.37,1130.55,507.4,1130.55,507.4Z"/><path class="cls-10" d="M1173.23,536.78c-27.08,0-45-28-45-28a2.91,2.91,0,0,1,0-2.75,2.53,2.53,0,0,1,2.3-1.38,177,177,0,0,0,32.13-8.72c17-6.43,44.52-23.87,45-24.33a2.91,2.91,0,0,1,2.75,0,3.59,3.59,0,0,1,1.84,1.84c0,.46,10.1,51.4-27.08,62A59.41,59.41,0,0,1,1173.23,536.78Zm-38.09-27.54c6.42,8.26,24.33,27.54,47.28,21.11,27.07-7.34,25.24-39.93,23.86-51.41-8.26,5.05-28.46,17.45-42.22,22.5A264.82,264.82,0,0,1,1135.14,509.24Z"/><path class="cls-10" d="M1145.23,469.31h0c-7.8-.92-12.85-2.76-15.14-6.43-3.67-5.05-2.3-11.48-.92-17.9.46-2.3.92-5.05,1.38-7.35,1.38-11.47-4.59-20.19-17.9-27.54a2.47,2.47,0,0,1-.92-3.67c.92-1.37,2.29-1.83,3.67-.92,15.61,8.73,22,19.28,20.66,33.05-.46,2.76-.92,5.51-1.38,7.81-.92,5.5-2.3,10.55,0,13.31q2.76,3.43,11,4.13A2.5,2.5,0,0,1,1148,467,2.92,2.92,0,0,1,1145.23,469.31Z"/><path class="cls-10" d="M1071.79,434.88c-2.75-6-1.37-12.85,3.68-15.15s11,.92,14.23,6.89c2.75,6,1.37,12.85-3.68,15.15C1080.52,444.06,1074.55,440.85,1071.79,434.88Z"/><path class="cls-10" d="M1174.15,395c-2.75-6.43-.92-12.85,4.13-15.15,5-1.84,11,1.38,13.77,7.8s.92,12.86-4.13,15.15S1176.91,401.37,1174.15,395Z"/><path class="cls-10" d="M1044.72,406.88c-.92,0-1.38-.46-2.3-.92-.92-1.37-.92-2.75.46-3.67,11-9.18,23.41-12.85,39.47-11.93a2.76,2.76,0,1,1,0,5.51c-14.68-.92-25.7,2.29-35.8,10.55C1046.09,406.42,1045.63,406.88,1044.72,406.88Z"/><path class="cls-10" d="M1142.48,368.33a3.46,3.46,0,0,1-1.83-.92c-.92-.92-1.38-2.76,0-3.67,10.55-11.48,34.88-22,53.7-20.66,1.38,0,2.75,1.38,2.29,2.76,0,1.37-1.37,2.75-2.75,2.29-17-1.38-39.93,8.72-49.57,18.82C1144.32,367.87,1143.4,368.33,1142.48,368.33Z"/><path class="cls-10" d="M1031.4,314.16a47.13,47.13,0,0,1-7.8-.46c-1.38,0-2.75-1.37-2.29-2.75,0-1.38,1.37-2.75,2.75-2.29,35.8,2.75,62-17,82.62-36.72a2.6,2.6,0,0,1,3.67,3.67C1090.61,294.89,1065.83,314.16,1031.4,314.16Z"/><path class="cls-10" d="M1245.76,302.23c-15.15,0-28.92-9.64-41.77-19.28-17.9-12.85-36.26-26.16-60.13-18.36a2.9,2.9,0,0,1-1.84-5.51c26.63-8.72,46.82,6.43,64.72,19.28,18.36,13.31,34.43,24.79,54.62,14.23a2.74,2.74,0,0,1,3.67.92c.46.92,0,3.21-.91,3.67A35.94,35.94,0,0,1,1245.76,302.23Z"/><path class="cls-10" d="M1282,325.64c-14.69,0-26.16-9.64-26.62-10.1a2.42,2.42,0,0,1-.46-3.67c.92-.92,2.75-1.38,3.67-.46,0,0,16.06,13.77,33.5,6.43,1.38-.46,3.22,0,3.68,1.37s0,3.22-1.38,3.67A28.68,28.68,0,0,1,1282,325.64Z"/><path class="cls-10" d="M992.85,348.13a2.39,2.39,0,0,1-1.84-.92c-.92-.92-17-17.9-21.11-25.24-11-18.82-.92-35.35,12.39-58.3l.92-1.83c.92-1.38,2.29-1.84,3.67-.92s1.84,2.29.92,3.67l-.92,1.84c-13.31,22-21.57,36.72-12.39,52.78,3.67,6.89,20.19,23.87,20.19,24.33a2.79,2.79,0,0,1,0,3.67A3.43,3.43,0,0,1,992.85,348.13Z"/><path class="cls-10" d="M986.88,245.77a2.56,2.56,0,0,1-2.75-2.29,3.46,3.46,0,0,1,2.29-3.22c9.18-1.37,18.82-11.93,18.82-11.93.92-.92,2.76-1.38,3.67,0,.92.92,1.38,2.76,0,3.67,0,.46-10.55,11.94-22,13.77Z"/><path class="cls-10" d="M993.77,219.15a2.58,2.58,0,0,1-2.76-2.29,3.46,3.46,0,0,1,2.3-3.22c3.67-.46,13.77-1.83,17.44-4.13,12.85-7.34,24.78-17,36.26-26.62,9.64-7.8,19.28-15.61,29.84-22.49,28.91-18.82,85.37-39.93,123.92-22.49,1.38.46,1.84,2.29,1.38,3.67s-2.29,1.84-3.67,1.38c-32.59-14.69-84.46,0-118.88,22-10.1,6.42-19.74,14.69-29.38,22-11.47,9.64-23.41,19.28-36.72,27.08-5.5,3.22-18.36,5.05-19.73,5.05Z"/><path class="cls-10" d="M1228.32,148.92a1.69,1.69,0,0,1-1.38-.46c-1.38-.91-1.84-2.75-.92-3.67,6-9.18,14.69-13.77,15.15-13.77,1.37-.46,3.21,0,3.67,1.38s0,3.21-1.38,3.67A33.58,33.58,0,0,0,1230.61,148,3.55,3.55,0,0,1,1228.32,148.92Z"/><path class="cls-10" d="M1333.43,316h0a3,3,0,0,1-2.76-2.75c.46-65.64-6-100.53-22-123.93-14.69-20.66-34.42-27.54-53.7-31.67a3.46,3.46,0,0,1-2.3-3.22c0-1.38,1.84-2.29,3.22-2.29,20.65,4.13,41.31,11.47,56.91,34,17,24.33,23.41,60.13,23.41,127.15A2.65,2.65,0,0,1,1333.43,316Z"/><path class="cls-10" d="M819.34,585a2.9,2.9,0,0,1-2.75-2.29c-2.75-12.39-1.37-87.21,66.1-126.23a2.68,2.68,0,1,1,2.75,4.59c-60.13,34.89-66.55,103.74-63.34,120.26.46,1.38-.46,2.76-2.29,3.21A.46.46,0,0,1,819.34,585Z"/><path class="cls-10" d="M803.74,540.91a3,3,0,0,1-2.76-2.75c-.91-35.35,6.89-57.38,29.38-83.08a2.62,2.62,0,0,1,4.13,3.21c-21.57,24.79-28.92,45.44-28,79.41,0,1.83-.92,3.21-2.75,3.21Z"/><ellipse class="cls-11" cx="1066.34" cy="477.67" rx="21.54" ry="16.54" transform="translate(-101.79 450.9) rotate(-22.82)"/><ellipse class="cls-11" cx="1230.41" cy="421.11" rx="21.54" ry="16.54" transform="translate(-67.02 510.1) rotate(-22.82)"/></g></g></svg>