<svg xmlns="http://www.w3.org/2000/svg" viewBox="0 0 2574.13 1759.2"><defs><style>.cls-1{opacity:0.2;}.cls-2{fill:#807672;}.cls-3{fill:#60626e;}.cls-4{fill:#fff;}.cls-10,.cls-12,.cls-4,.cls-5,.cls-6,.cls-7,.cls-8,.cls-9{fill-rule:evenodd;}.cls-5{fill:#e9e2e0;}.cls-6{fill:#cbe9e2;}.cls-7{fill:#e4e2f1;}.cls-8{fill:#dedede;}.cls-9{fill:#ffe1b4;}.cls-10{fill:#a4a9ae;}.cls-11,.cls-12{fill:#5b2714;}.cls-13{fill:#ffb8d4;}</style></defs><g id="Layer_2" data-name="Layer 2"><g id="Layer_4" data-name="Layer 4"><g class="cls-1"><path class="cls-2" d="M1468.42,535.84a3.31,3.31,0,0,1-2.73-1.37,2.87,2.87,0,0,1,1-4.16L2300.92,29.47a3.4,3.4,0,0,1,4.49.89,2.9,2.9,0,0,1-1,4.17L1470.18,535.36A3.41,3.41,0,0,1,1468.42,535.84Z"/><path class="cls-2" d="M1666.38,493.37a3.28,3.28,0,0,1-2.92-1.69,2.92,2.92,0,0,1,1.49-4L2565.57,79.89a3.37,3.37,0,0,1,4.35,1.39,2.92,2.92,0,0,1-1.49,4L1667.81,493.07A3.43,3.43,0,0,1,1666.38,493.37Z"/><path class="cls-2" d="M1685.41,502.94a3.27,3.27,0,0,1-2.91-1.67,2.92,2.92,0,0,1,1.46-4l336.45-155.14a3.36,3.36,0,0,1,4.36,1.36,2.92,2.92,0,0,1-1.46,4L1686.85,502.62A3.35,3.35,0,0,1,1685.41,502.94Z"/><path class="cls-2" d="M1706,511.31a3.29,3.29,0,0,1-2.93-1.72,2.93,2.93,0,0,1,1.54-4L1998.2,376.68a3.37,3.37,0,0,1,4.32,1.43,2.92,2.92,0,0,1-1.54,4L1707.36,511A3.4,3.4,0,0,1,1706,511.31Z"/><path class="cls-2" d="M2025.15,1298.42a3.14,3.14,0,0,1-3.25-3L2016.49,356a3.12,3.12,0,0,1,3.22-3h0a3.14,3.14,0,0,1,3.25,3l5.41,939.42a3.12,3.12,0,0,1-3.23,3Z"/><path class="cls-2" d="M2000.81,1275.26h0a3.14,3.14,0,0,1-3.25-3l.71-881.32a3.14,3.14,0,0,1,3.25-3h0a3.12,3.12,0,0,1,3.24,3l-.71,881.31A3.13,3.13,0,0,1,2000.81,1275.26Z"/><path class="cls-2" d="M1917.25,1214.91a3.13,3.13,0,0,1-3.24-3l-10.32-781.29a3.14,3.14,0,0,1,3.2-3h0a3.14,3.14,0,0,1,3.24,3l10.32,781.28a3.12,3.12,0,0,1-3.2,3.05Z"/><path class="cls-2" d="M1900.61,1210.4a3.14,3.14,0,0,1-3.25-3l-7.83-770.29a3.12,3.12,0,0,1,3.21-3h0a3.14,3.14,0,0,1,3.25,3l7.83,770.29a3.12,3.12,0,0,1-3.21,3Z"/><path class="cls-2" d="M1791.87,1112.26a3.14,3.14,0,0,1-3.24-2.93L1771,488a3.11,3.11,0,0,1,3.16-3.08,3,3,0,0,1,3.33,2.93l17.62,621.3a3.13,3.13,0,0,1-3.16,3.09Z"/><path class="cls-2" d="M1774.76,1101.78a3.13,3.13,0,0,1-3.24-2.94L1757.19,495a3.11,3.11,0,0,1,3.17-3.07h.07a3.15,3.15,0,0,1,3.25,3L1778,1098.7a3.11,3.11,0,0,1-3.17,3.08Z"/><path class="cls-2" d="M1805.79,1096.91a3.15,3.15,0,0,1-3.25-2.92L1783.37,487.5a3.13,3.13,0,0,1,3.15-3.1,3.08,3.08,0,0,1,3.34,2.92L1809,1093.81a3.13,3.13,0,0,1-3.15,3.1Z"/><path class="cls-2" d="M1932.76,1196.5a3.12,3.12,0,0,1-3.24-3l-11.53-766a3.14,3.14,0,0,1,3.2-3.06,3,3,0,0,1,3.29,3l11.53,766a3.11,3.11,0,0,1-3.2,3Z"/><path class="cls-2" d="M1771.19,1068.68a3.4,3.4,0,0,1-2.11-.71L1710,1021.29a2.87,2.87,0,0,1-.37-4.25,3.43,3.43,0,0,1,4.58-.34l59.08,46.68a2.87,2.87,0,0,1,.36,4.25A3.38,3.38,0,0,1,1771.19,1068.68Z"/><path class="cls-2" d="M1900.22,1170.59a3.41,3.41,0,0,1-2.1-.71l-10.75-8.43-83.8-66.23a2.87,2.87,0,0,1-.37-4.25,3.45,3.45,0,0,1,4.58-.33l94.54,74.64a2.86,2.86,0,0,1,.38,4.24A3.37,3.37,0,0,1,1900.22,1170.59Z"/><path class="cls-2" d="M1994.76,1245.37a3.35,3.35,0,0,1-2.11-.72L1930,1195.13a2.87,2.87,0,0,1-.37-4.25,3.46,3.46,0,0,1,4.59-.33l62.66,49.52a2.87,2.87,0,0,1,.36,4.25A3.38,3.38,0,0,1,1994.76,1245.37Z"/><path class="cls-2" d="M1772.33,1086.34a3.35,3.35,0,0,1-2.11-.72l-60.9-48.48a2.85,2.85,0,0,1-.35-4.24,3.42,3.42,0,0,1,4.58-.32l60.9,48.47a2.85,2.85,0,0,1,.35,4.24A3.33,3.33,0,0,1,1772.33,1086.34Z"/><path class="cls-2" d="M1898.8,1187.73a3.42,3.42,0,0,1-2.13-.73l-103.37-83a2.85,2.85,0,0,1-.33-4.24,3.42,3.42,0,0,1,4.58-.3l103.37,83a2.85,2.85,0,0,1,.33,4.24A3.29,3.29,0,0,1,1898.8,1187.73Z"/><path class="cls-2" d="M1992.9,1261.88a3.35,3.35,0,0,1-2.11-.72l-76.63-61a2.85,2.85,0,0,1-.35-4.24,3.41,3.41,0,0,1,4.57-.33l76.63,61a2.86,2.86,0,0,1,.35,4.25A3.35,3.35,0,0,1,1992.9,1261.88Z"/><path class="cls-2" d="M2553.31,1747.71a3.4,3.4,0,0,1-2.14-.75l-832.06-679.15a2.85,2.85,0,0,1-.29-4.25,3.43,3.43,0,0,1,4.58-.27l832.06,679.15a2.86,2.86,0,0,1,.29,4.25A3.38,3.38,0,0,1,2553.31,1747.71Z"/><path class="cls-2" d="M2184.28,1417.65h0a3.12,3.12,0,0,1-3.24-3l.77-1143.49a3.14,3.14,0,0,1,3.25-3h0a3.12,3.12,0,0,1,3.24,3l-.77,1143.48A3.13,3.13,0,0,1,2184.28,1417.65Z"/><path class="cls-2" d="M2324.47,1533h0a3.13,3.13,0,0,1-3.24-3l1.56-1327.77a3.14,3.14,0,0,1,3.25-3h0a3.13,3.13,0,0,1,3.24,3L2327.71,1530A3.12,3.12,0,0,1,2324.47,1533Z"/><path class="cls-2" d="M2346.44,1544.88h0a3.11,3.11,0,0,1-3.23-3l1.55-1327.77a3.14,3.14,0,0,1,3.25-3h0a3.13,3.13,0,0,1,3.24,3l-1.56,1327.77A3.12,3.12,0,0,1,2346.44,1544.88Z"/><path class="cls-2" d="M1161.86,535.84a3.4,3.4,0,0,1-1.74-.47L307.46,32.17a2.89,2.89,0,0,1-1-4.16,3.41,3.41,0,0,1,4.48-.92l852.67,503.2a2.89,2.89,0,0,1,1,4.16A3.32,3.32,0,0,1,1161.86,535.84Z"/><path class="cls-2" d="M900.86,480.22a3.49,3.49,0,0,1-1.4-.3L3,82.87a2.93,2.93,0,0,1-1.53-4,3.38,3.38,0,0,1,4.33-1.42L902.27,474.49a2.92,2.92,0,0,1,1.53,4A3.29,3.29,0,0,1,900.86,480.22Z"/><path class="cls-2" d="M3.25,1759.2a3.38,3.38,0,0,1-2.44-1,2.86,2.86,0,0,1,.29-4.25L869,1046.29a3.42,3.42,0,0,1,4.58.27,2.86,2.86,0,0,1-.3,4.25L5.39,1758.45A3.4,3.4,0,0,1,3.25,1759.2Z"/><path class="cls-2" d="M2364.83,295.67a3.24,3.24,0,0,1-3-1.93,3,3,0,0,1,1.87-3.89l206-73.37a3.33,3.33,0,0,1,4.2,1.73,3,3,0,0,1-1.87,3.89L2366,295.47A3.33,3.33,0,0,1,2364.83,295.67Z"/><path class="cls-2" d="M2366.59,686.26a3.17,3.17,0,0,1-3.21-2.59,3.06,3.06,0,0,1,2.76-3.4c110.9-14.37,200.53-26.36,202.55-26.67l.54,3,3.28-.21c.21,2.81.21,2.81-18.87,5.36-10.35,1.39-25.3,3.38-43.72,5.81-36.83,4.88-87.5,11.54-142.88,18.72A3.39,3.39,0,0,1,2366.59,686.26Z"/><path class="cls-2" d="M2364.38,790.12a3.16,3.16,0,0,1-3.24-2.84,3.11,3.11,0,0,1,3.06-3.18l202.3-10.8a3.22,3.22,0,0,1,3.43,2.83,3.11,3.11,0,0,1-3.06,3.18l-202.3,10.8Z"/><path class="cls-2" d="M2568.78,1191.65a3.65,3.65,0,0,1-.74-.08L2366,1147.81a3,3,0,0,1-2.42-3.62,3.27,3.27,0,0,1,3.9-2.24l202.05,43.76a3,3,0,0,1,2.42,3.62A3.21,3.21,0,0,1,2568.78,1191.65Z"/><path class="cls-2" d="M2569.27,659.57a3.14,3.14,0,0,1-3.25-3v-438a3.25,3.25,0,0,1,6.49,0v438A3.13,3.13,0,0,1,2569.27,659.57Z"/><path class="cls-2" d="M2569.27,1190.05a3.14,3.14,0,0,1-3.25-3V775.72a3.25,3.25,0,0,1,6.49,0V1187A3.13,3.13,0,0,1,2569.27,1190.05Z"/><path class="cls-2" d="M2366.59,686.26a3.12,3.12,0,0,1-3.24-3l-1.15-389.89a3.12,3.12,0,0,1,3.23-3h0a3.13,3.13,0,0,1,3.25,3l1.15,389.89a3.13,3.13,0,0,1-3.24,3Z"/><path class="cls-2" d="M2365.44,1145.81a3.13,3.13,0,0,1-3.24-3V787.1a3.25,3.25,0,0,1,6.49,0v355.7A3.14,3.14,0,0,1,2365.44,1145.81Z"/><path class="cls-2" d="M465.59,370.82a3.44,3.44,0,0,1-1.29-.25L226.89,275.43a2.93,2.93,0,0,1-1.7-4,3.36,3.36,0,0,1,4.27-1.57l237.41,95.15a2.92,2.92,0,0,1,1.7,3.95A3.27,3.27,0,0,1,465.59,370.82Z"/><path class="cls-2" d="M814.85,508.68a3.39,3.39,0,0,1-1.28-.25L645.05,441.06a2.93,2.93,0,0,1-1.7-4,3.36,3.36,0,0,1,4.27-1.57L816.14,502.9a2.93,2.93,0,0,1,1.69,4A3.25,3.25,0,0,1,814.85,508.68Z"/><path class="cls-2" d="M249.75,1437.16a3.34,3.34,0,0,1-2.62-1.22,2.87,2.87,0,0,1,.69-4.21l209.37-143.42a3.43,3.43,0,0,1,4.54.63,2.87,2.87,0,0,1-.68,4.21L251.67,1436.57A3.37,3.37,0,0,1,249.75,1437.16Z"/><path class="cls-2" d="M655.17,1159.78a3.34,3.34,0,0,1-2.62-1.22,2.87,2.87,0,0,1,.69-4.21L811.3,1046.13a3.43,3.43,0,0,1,4.55.63,2.88,2.88,0,0,1-.69,4.21L657.09,1159.19A3.37,3.37,0,0,1,655.17,1159.78Z"/><path class="cls-2" d="M236.8,1544.65a3.14,3.14,0,0,1-3.25-3l-6.47-1267a3.14,3.14,0,0,1,3.23-3h0a3.14,3.14,0,0,1,3.25,3l6.47,1267a3.13,3.13,0,0,1-3.23,3Z"/><path class="cls-2" d="M249.74,1544.65a3.13,3.13,0,0,1-3.24-3L240,302.59a3.25,3.25,0,0,1,6.49,0L253,1541.63a3.13,3.13,0,0,1-3.23,3Z"/><path class="cls-2" d="M637.9,603.44a3.13,3.13,0,0,1-3.24-3l-1.28-152.94a3.13,3.13,0,0,1,3.22-3h0a3.13,3.13,0,0,1,3.24,3l1.28,152.94a3.13,3.13,0,0,1-3.22,3Z"/><path class="cls-2" d="M643.1,1214.91a3.14,3.14,0,0,1-3.25-3l-4.11-483.45a3.15,3.15,0,0,1,3.23-3h0a3.15,3.15,0,0,1,3.25,3l4.11,483.45a3.13,3.13,0,0,1-3.23,3Z"/><path class="cls-2" d="M647.75,610.32a3.13,3.13,0,0,1-3.24-3l-1.43-169a3.26,3.26,0,0,1,6.5-.05l1.42,169a3.12,3.12,0,0,1-3.22,3Z"/><path class="cls-2" d="M652.8,1220.6a3.14,3.14,0,0,1-3.25-3l-4-488.09a3.15,3.15,0,0,1,3.22-3h0a3.14,3.14,0,0,1,3.24,3l4.06,488.09a3.13,3.13,0,0,1-3.23,3Z"/><path class="cls-2" d="M459.12,1378.33a3.14,3.14,0,0,1-3.25-3L449.4,386a3.14,3.14,0,0,1,3.23-3h0a3.15,3.15,0,0,1,3.25,3l6.47,989.33a3.13,3.13,0,0,1-3.23,3Z"/><path class="cls-2" d="M472.06,1365.59a3.14,3.14,0,0,1-3.25-3l-6.47-985.79a3.13,3.13,0,0,1,3.23-3h0a3.15,3.15,0,0,1,3.25,3l6.47,985.79a3.13,3.13,0,0,1-3.23,3Z"/><path class="cls-2" d="M813.23,1086.34a3.12,3.12,0,0,1-3.24-3l-6.48-560.14a3.14,3.14,0,0,1,3.22-3.05,3,3,0,0,1,3.28,3l6.47,560.14a3.12,3.12,0,0,1-3.21,3Z"/><path class="cls-2" d="M822.94,1083.28a3.14,3.14,0,0,1-3.25-3L813.22,514a3.13,3.13,0,0,1,3.22-3,3.28,3.28,0,0,1,3.28,3l6.46,566.27a3.13,3.13,0,0,1-3.21,3Z"/><path class="cls-2" d="M658.32,613.48a3.58,3.58,0,0,1-1.11-.18l-95.44-31.9a3,3,0,0,1-2-3.85,3.33,3.33,0,0,1,4.16-1.82l95.45,31.9a3,3,0,0,1,2,3.86A3.26,3.26,0,0,1,658.32,613.48Z"/><path class="cls-2" d="M677.4,732.44h-.16l-102.39-4.68a3.1,3.1,0,0,1-3.08-3.15,3.17,3.17,0,0,1,3.4-2.86l102.39,4.68a3.1,3.1,0,0,1,3.08,3.15A3.15,3.15,0,0,1,677.4,732.44Z"/><path class="cls-2" d="M678.25,727a3.18,3.18,0,0,1-3.2-2.55L657.22,616.67a3.06,3.06,0,0,1,2.72-3.44,3.27,3.27,0,0,1,3.7,2.52l17.83,107.83a3.05,3.05,0,0,1-2.72,3.43A4.19,4.19,0,0,1,678.25,727Z"/><path class="cls-2" d="M575,720.92a3.16,3.16,0,0,1-3.24-2.76L559.63,581.43a3.09,3.09,0,0,1,3-3.25,3.19,3.19,0,0,1,3.5,2.76l12.15,136.72a3.1,3.1,0,0,1-3,3.25Z"/><path class="cls-2" d="M568.94,722.09a3.16,3.16,0,0,1-3.24-2.77L553.56,582.6a3.1,3.1,0,0,1,3-3.25A3.2,3.2,0,0,1,560,582.1l12.14,136.73a3.1,3.1,0,0,1-3,3.25Z"/><path class="cls-2" d="M566.54,699.83a3.42,3.42,0,0,1-1.94-.6l-13.67-9.52a3,3,0,0,1-1.27-2L545.77,658a2.87,2.87,0,0,1,.82-2.39l7.3-7.43,3.21-24.82a3.24,3.24,0,0,1,3.61-2.64,3.07,3.07,0,0,1,2.84,3.35l-3.34,25.79a2.91,2.91,0,0,1-.82,1.67l-7,7.11,3.54,27,12.56,8.74a2.87,2.87,0,0,1,.64,4.22A3.36,3.36,0,0,1,566.54,699.83Z"/><path class="cls-2" d="M597.64,13.17a3.14,3.14,0,0,1-3.25-3,3.13,3.13,0,0,1,3.23-3L1963.9,0h0a3.14,3.14,0,0,1,3.24,3,3.13,3.13,0,0,1-3.23,3L597.65,13.17Z"/><path class="cls-2" d="M600.16,34a3,3,0,1,1,0-6l1357-7.14h0a3,3,0,1,1,0,6L600.18,34Z"/><path class="cls-2" d="M675.55,81.71c-12.12,0-37.9-1.27-53.34-11.22-20.4-13.15-26.6-37.68-26.86-38.72a3.31,3.31,0,0,1-.08-.55l-.88-20.95a3.26,3.26,0,0,1,6.49-.23l.87,20.65c.69,2.54,6.9,23.72,24.16,34.85,18.46,11.9,55.53,10,55.9,10a3.17,3.17,0,0,1,3.43,2.83,3.1,3.1,0,0,1-3,3.19C681.81,81.59,679.35,81.71,675.55,81.71Z"/><path class="cls-2" d="M1885.45,74.57c-3.79,0-6.25-.13-6.64-.15a3.1,3.1,0,0,1-3-3.18,3.23,3.23,0,0,1,3.43-2.83c.38,0,37.47,1.86,55.9-10,17.32-11.17,23.47-32.32,24.16-34.86l.87-20.65A3.16,3.16,0,0,1,1963.5,0a3.12,3.12,0,0,1,3.11,3.13l-.88,21c0,.18,0,.36-.08.55-.26,1-6.45,25.56-26.85,38.71C1923.35,73.3,1897.58,74.57,1885.45,74.57Z"/><path class="cls-2" d="M682,81.7a3,3,0,1,1,0-6l1195.8-8h0a3,3,0,1,1,0,6L682,81.7Z"/><path class="cls-2" d="M943.29,226a3,3,0,1,1,0-6l693-3.71h0a3,3,0,1,1,0,6L943.3,226Z"/><path class="cls-2" d="M944.57,236.85a3,3,0,1,1,0-6l688.31-3.71h0a3,3,0,1,1,0,6l-688.31,3.71Z"/><path class="cls-2" d="M982.88,261.61c-6.31,0-19.86-.68-28.08-6.11-10.83-7.15-14.1-20.41-14.24-21a3.07,3.07,0,0,1-.07-.53L940,223.11a3.26,3.26,0,0,1,6.49-.23l.44,10.58c.46,1.68,3.53,11.81,11.6,17.14,8.87,5.86,27.13,4.93,27.32,4.92a3.16,3.16,0,0,1,3.43,2.83,3.09,3.09,0,0,1-3,3.18C986.08,261.54,984.82,261.61,982.88,261.61Z"/><path class="cls-2" d="M1596.43,257.9c-1.94,0-3.2-.07-3.4-.08a3.1,3.1,0,0,1-3-3.18,3.26,3.26,0,0,1,3.43-2.83c.2,0,18.44.94,27.32-4.93,8.11-5.35,11.15-15.45,11.6-17.13l.44-10.58a3,3,0,0,1,3.37-2.89,3.11,3.11,0,0,1,3.12,3.12l-.45,10.88a3.33,3.33,0,0,1-.07.54c-.14.56-3.41,13.82-14.25,21C1616.29,257.21,1602.74,257.9,1596.43,257.9Z"/><path class="cls-2" d="M986.08,261.61a3,3,0,1,1,0-6l606.53-4.17h0a3,3,0,1,1,0,6l-606.54,4.18Z"/><path class="cls-2" d="M1101.8,404.25a3,3,0,1,1,0-6l417.93-3.07h0a3,3,0,1,1,0,6l-417.93,3.06Z"/><path class="cls-2" d="M1102.58,413.2a3,3,0,1,1,0-6l415.1-3.07a3.28,3.28,0,0,1,3.27,3,3.15,3.15,0,0,1-3.22,3l-415.1,3.06Z"/><path class="cls-2" d="M1125.73,433.62c-4,0-12.76-.6-18.11-5.43-6.69-6-8.67-17-8.75-17.49l-.31-9.38a3.12,3.12,0,0,1,3.15-3.09,3.17,3.17,0,0,1,3.34,2.93l.27,9h0s1.78,9.19,6.83,13.75c4,3.66,12.34,3.89,15.19,3.68a3.18,3.18,0,0,1,3.51,2.75,3.1,3.1,0,0,1-3,3.25C1127.75,433.57,1127,433.62,1125.73,433.62Z"/><path class="cls-2" d="M1495.63,430.56c-1.22,0-2-.05-2.14-.06a3.1,3.1,0,0,1-3-3.24,3.26,3.26,0,0,1,3.5-2.76c2.88.21,11.17-.05,15.2-3.68,4.28-3.87,6.42-11.53,6.88-14.15l.22-8.58a3.15,3.15,0,0,1,3.25-2.93h.09a3.1,3.1,0,0,1,3.15,3.09l-.27,9c-.12.86-2.11,11.85-8.79,17.89C1508.4,430,1499.67,430.56,1495.63,430.56Z"/><path class="cls-2" d="M1127.61,433.63a3,3,0,1,1,0-6l365.78-3.44a3,3,0,1,1,.07,6l-365.79,3.45Z"/><path class="cls-3" d="M1461.88,1095.69H1424.6a2,2,0,1,1,0-4h35.11V536.76H1167.87v554.91h71.22a2,2,0,1,1,0,4h-73.38a2.09,2.09,0,0,1-2.17-2V534.75a2.09,2.09,0,0,1,2.17-2h296.17a2.09,2.09,0,0,1,2.16,2v558.93A2.09,2.09,0,0,1,1461.88,1095.69Z"/><path class="cls-3" d="M1451.46,1076a2.09,2.09,0,0,1-2.17-2V545.5h-271V1074a2.17,2.17,0,0,1-4.32,0V543.5a2.09,2.09,0,0,1,2.16-2h275.33a2.1,2.1,0,0,1,2.17,2V1074A2.1,2.1,0,0,1,1451.46,1076Z"/></g></g><g id="_Layer_" data-name="&lt;Layer&gt;"><g id="_ÎÓÈ_4" data-name="—ÎÓÈ_4"><path class="cls-4" d="M1284.65,788.1c-8.19-1.67-9.23-13.46-14.11-20.29-3.93-5.5-10.22-12-15-16.76-22.47-22.46-49.5-38.95-67-65.27-9.8-14.69-14-35.95-14-35.95s.29-29.66-1.47-54.42c-1.13-16-3.18-33.92-5.1-43.53-2.3-11.51-28.3-13.29-36.39-20-17.51-14.59-21.74-19.07-26-40.6-1.63-8.14-.74-18.32,1-26.87,1.93-9.65,17.18-18.65,17.18-18.65s16.64-10.76,20.75-14.87c10.39-10.39,17.41-28.36,24.7-41.46,22-39.67,40.07-81.06,71.45-114.68,20.87-22.36,43.42-40.89,75.86-34.4,7.49,1.5,13.92,7.65,20.29,11.47,15.7,9.42,34.65,20.5,44.11,37,8.09,14.16,13.83,33.24,25.57,45,19.1,19.09,48.08,30,55.58,60,2.76,11,4,23.9,1.76,35.28-1.35,6.78-6.06,21.24-6.06,21.24s11.94,2.25,15.13,6.08c10.71,12.87,6.85,33.28,1.31,48.51C1469.53,517.49,1443,535,1443,535s-3.93,17.68-6.11,23.67c-3.4,9.33-12.36,30.7-15.74,37.07s-23.41,30-23.41,30l.91,37.07s8.94,1.63,6,11.48c-4,13.44-13.18,25.77-21.17,37-13,18.36-29.8,44.89-51.16,55.58-6,3-12.7,4.61-18.53,7.94C1302.45,781.33,1298.27,790.88,1284.65,788.1Z"/><path class="cls-4" d="M783,1517.5c19.11,16.78,45.16,25,67.93,31.28s67.54,15.34,67.54,15.34-11.7,66.44-17.86,120.55c-3,26.54-4.72,50.09-5.66,67.23h832.33c-.92-22.23-2.94-56.26-7.33-93.79-6.75-57.7-16.68-110-16.68-110s19.65,3,44.71-5.54c19.36-6.56,46.06-22.79,67.81-48.76C1848,1455.4,1875,1370.36,1868.82,1293c-1-12.53-5.48-40.56-12.29-75.25-6.93-35.23-16.24-77.44-25.46-129.46-8.78-49.49-14.78-104.37-24.3-151.08-9.45-46.38-22.42-84.71-34.4-97.12-8-8.25-22.26-22.37-33.23-30-48.83-33.84-117.35-51.13-175.67-74.79-41-16.64-81.63-39.92-81.63-39.92l-80.62-69.58-3.13,1.7s5.18,65.48-9.81,121.61c-25.33,94.83-71.87,366.79-71.87,366.79l-140-464.78-3.22-22-70,66.75a456.35,456.35,0,0,1-49.57,19.87c-14.56,4.94-35.52,10.41-49.5,13.81l-3.53.85C951,742.36,899.2,752.26,857.3,782.5c-20.43,14.74-42.11,37-53.32,61.68-12.46,27.44-24.47,65.92-31.14,109.12-11.4,73.79-19.57,173.34-24,258.07-4.79,92.39-6.48,173.24-3.26,213C749.42,1471.36,762.36,1499.4,783,1517.5Z"/><path class="cls-4" d="M1596.86,1111.74s-.82-29.53-.82-31.66c0-16-2.75-49.59-5.9-65.4s-21.87-44.32-27.29-57.85c-3.88-9.71-12-30.94-14.58-41.36-3.77-15.07-12.79-32.66-8.2-48.74,3.33-11.66,19.27-23.1,25.2-33.47,4.46-7.8,15.73-26.57,24.18-31.64,7-4.21,11.94-1.79,11.94-1.79s3.7-30.49,4.79-46.89,7.07-45.42,10.65-61.54c4.55-20.47,8.1-43.65,18-61.94,6.55-12.14,16.72-37.13,31.17-23,7.9,7.72.89,33.2-2,46.87-4.67,21.86-7.8,61.68-9.2,76.39s-1.23,48.63-1.23,48.63,11.23,2.9,15.74,6.12c7.89,5.64,11,9.62,11,9.62s10.9,1.14,13.11,1.69c7.81,2,19.91,6.05,25.78,10.35,7.45,5.46,11.93,18,11.93,18s11.52,6.79,16.21,9.43c7.09,4,15.21,11.23,17.18,23,3.69,22.14-2.59,79.16-11.39,101.17-12,30-20.92,34-25.23,54-5.61,26.07-1,56.35.89,82.09.62,8.69,4.82,28.54,4.82,28.54s-9,9.69-21.29,13.63c-17.56,5.64-40.91,6-46.49,4.93-16.92-3.39-41.9-2.22-55.57-15.88C1605.27,1120.19,1596.86,1111.74,1596.86,1111.74Z"/><path class="cls-4" d="M1424.44,1497.26s3.18-14.46,3.53-19c.94-12.21.33-24.82.84-37.07.36-8.85-2.34-57.81-2.34-57.81s26.59-3.11,31.65-6.72c21.83-15.59,36.65-38.49,50.73-61,12.23-19.56,25-49.28,33.33-61.31,3.47-5,21.48-14.07,21.48-14.07s5.21,53.77,10,96.08c1.95,17.2,5.15,36,5.73,43.87,1.44,19.42,10.74,59.42,10.74,59.42s-14.29,19.29-19.44,23.52c-31.52,25.78-70.72,23.94-100.59,26.9C1458.36,1491.26,1424.44,1497.26,1424.44,1497.26Z"/><path class="cls-4" d="M1366.5,554.6s-27.46,4.43-40.33,3c-6.33-.7-19.61-.15-25.88-1-7.62-1.09-31.74-4.29-31.74-4.29s9.63,25.93,17.69,32.38c4.11,3.29,9.51,9.08,14.18,11.09,8,3.43,22.37,6.48,36.55-.16C1356.18,586.59,1366.5,554.6,1366.5,554.6Z"/><path class="cls-5" d="M1123.72,443.55s-10.5-45.59-14.32-67.22c-5.81-32.94-7.27-51.07-4.18-82.92,2.88-29.63,7.61-71.48,29.72-95.6a109,109,0,0,1,36.57-25.54c19.67-8.21,32.63-.83,50.14-7.5,20-7.61,30.5-18.07,46.75-25.38,12.68-5.72,42.43-9.95,59.32-7.53,18.15,2.59,34.2,6.7,52.64,16.52,13.33,7.11,30.69,24,41.15,31.57,19.25,14,29.49,26,42.47,46.38,4.84,7.61,11.17,26,14.32,34.16,10.91,28.36,9.15,68.24,6.1,98.73-3,29.77-4.2,41.62-10.63,70.54-1.48,6.68-5.92,23.85-5.92,23.85L1457.33,452s.16-8,.16-13.15c0-12.93,0-34.17-8.39-45.39-4.11-5.48-12.49-7.89-21.37-13-11.29-6.48-15-8.58-24.31-17.87-12.4-12.4-21.25-21.6-29.32-37-11.45-21.85-29.67-51.41-56.67-54.41-6.63-.74-30,7.55-36.8,8.3-15.65,1.74-27.51,2.49-35,15.3-5.78,9.9-11.48,40.65-22.46,62.18-10.47,20.54-21.68,28.89-21.68,28.89s-1.11-3.88-10.53,21.63-15.18,40.44-35.51,43.83C1151.63,452,1123.72,443.55,1123.72,443.55Z"/><path class="cls-6" d="M1384.17,1378.16s4.66,25.95,4.33,38.6c-.15,5.59-.5,26-1,35.11s-7.32,55.57-9,64.72-8.49,30.28-8.49,30.28,12.15-1.5,18.81-1.33,20.77,1.2,25.45-7.65c7.65-14.48,12.07-44.86,14.48-68.22,1.16-11.32,1-32,1.49-45.92.38-10.85,1.52-34.14-5.66-42.93C1422.27,1378,1384.17,1378.16,1384.17,1378.16Z"/><path class="cls-6" d="M1592.07,1180s1.23-19.84.41-32.57-1-36.65,1.1-40c1.58-2.51,6.85,9,18.61,16.15s33,13.68,50.77,15.74,43.93-2.88,53.1-6.71,20.58-13,20.8-12.86c6.89,3.6,8.18,19.7,9.58,26.68,1.84,9.2,8.07,33.94,8.07,33.94s-19.69,25.31-32,34.49c-14,10.4-34.57,11.52-40.64,11.77-15.43.63-45.62-13.31-56.94-21.76C1612.83,1195.87,1592.07,1180,1592.07,1180Z"/><path class="cls-7" d="M1176.45,665c6,28.24,13.75,55.58,20.79,83.73Z"/><path class="cls-6" d="M1287.72,729.07c-3.49-3.4-42.18-18.22-72.38-39.61-22.46-15.91-41.32-39.43-42.25-35.86-2.43,9.3,9.2,60.14,24.25,110.72,17.64,59.32,39.66,119.47,44.3,129.4,2.25,4.83,25.18,70.59,44.8,129.27,7.35,22,14.57,42.78,19.78,59.51,5.64,18.13,9.07,31.27,11.7,30.61s12-31,21.95-67.07c18.91-68.36,42.43-164.53,43.39-169.18,36.52-175.89,19.29-213.55,19.29-213.55s-12.65,15.88-25.51,23.27c-22,12.62-43.7,25.71-57.78,38.57-20.75,18.91-21.54,37.64-21.54,37.64S1298.15,739.2,1287.72,729.07Z"/><path class="cls-8" d="M1007.24,1060.83l13.74.36s-1.17,31.7-2.73,64.24c-1.39,29-4.13,59.65,3.71,80.16,8,20.76,24.38,26.1,38.22,28.44a188.86,188.86,0,0,0,27,2.67,6.47,6.47,0,0,1,.9,5.25c-.75,3.14-3.91,7.36-3.91,7.36s-11.4,1.3-28-2.12c-15.49-3.2-39.68-9.34-49.07-31.9-8.88-21.35-7.11-52.51-5.29-83.25C1004,1095.54,1007.24,1060.83,1007.24,1060.83Z"/><path class="cls-8" d="M1188.78,1053.36s1.91-4.34,5.54-5.41,9,1.13,9,1.13,7,20.5,15.37,51.49c7.72,28.7,16.64,68.84,14,92.2-5.45,48.59-51.57,54.45-51.57,54.45s-4-3.27-4.9-7a13,13,0,0,1,1-7.62s35.8-.28,38.46-44.12S1188.78,1053.36,1188.78,1053.36Z"/><path class="cls-8" d="M1545,969.64s-3.66-27.19-2.76-31.26,12.3-5.36,12.3-5.36,6.86,17.92,15.53,35.76,12.45,19.37,18.21,37.9a129.13,129.13,0,0,1,5.26,36.94s-12.34,12.66-26.26,16.05c-15.27,3.73-33-2.78-41.34-10.58-11.86-11.14-18.24-31.79-14-45.95a53.78,53.78,0,0,1,12.37-20.9A52.89,52.89,0,0,1,1545,969.64Z"/><path class="cls-9" d="M1087.09,1233.36a23.24,23.24,0,0,1-.45,10.71c-.74,2.38-5.47,8.14-5.47,8.14s12.16,10.26,19.3,5.24,11.17-19,10.38-25.33c-.33-2.63-4.41-6.63-6.48-7.69C1097,1220.7,1087.09,1233.36,1087.09,1233.36Z"/><path class="cls-9" d="M1178.11,1230s-.95-1.38-12.75-8.16c-3.92-2.25-10.7-2.08-12.43,5.62-2,8.81,1,21.62,9,27,1.47,1,7.9,1.79,13-.72,3.34-1.64,6.28-6.83,6.28-6.83s-6.3-4.15-6-10S1178.11,1230,1178.11,1230Z"/><path class="cls-10" d="M1154.43,647.49s-14.11,24.6-30.65,48.57-28,29-33.4,44.1c-3,8.53,8.68,13.16,8.68,13.16s-6.64,17.7-8.31,43.54,1.35,63.71,1.35,63.71,27.12.53,42.51,7.57,19,20.57,19,20.57,41.79,116,52.51,155.92c1.44,5.37-3.27,2.75-10.73,4.22-4.11.81-6.41,5.87-9.73,2.43-7.89-8.16-2-11.07-9.36-35.39-3.26-10.81-9.47-27.49-13.79-41.42-8.44-27.22-23.76-71-29-80.38s-16-13.69-25.34-15.08c-26.21-3.9-60.11,8.6-66.36,19.87-3.93,7.07-4.3,15.13-5.26,27.86-1.13,15-3.58,38.15-4.76,53-3.62,46.3-2.76,62.1-5.12,81-.36,2.91-7.4-.72-13.45-.79-5.07-.07-9.87,3.67-9.87-1.18,0-16.12,2.69-49,8-101.87,2.12-21.38,3.74-46.81,6.77-61.77,2.22-11,18.35-21.87,27.66-25.75,14.85-6.19,26.2-6.85,26.2-6.85s-1.91-22.27-1.6-44.92c.38-28.06,4.83-61.42,13.74-83.07,9-22,19.93-40.9,30.95-54.12C1135.19,656.32,1154.43,647.49,1154.43,647.49Z"/><path class="cls-10" d="M1496.15,755l9.16-9.43,1.32-8.25A310.9,310.9,0,0,1,1530.2,787c10.31,28.1,17.69,62.7,17.69,62.7l-11,21.56s-11.65-43.33-21.39-71.38S1496.15,755,1496.15,755Z"/><path class="cls-10" d="M1542.33,904l10.87,28.41-6.67,1.48Z"/><path class="cls-10" d="M1434,654.7s16.72,4.9,33.85,24.06,34.71,52.59,34.71,52.59l-34.15-31.42Z"/></g><g id="_ÎÓÈ_2_1_" data-name="—ÎÓÈ_2_1_"><path class="cls-11" d="M1604.61,753.83a3,3,0,0,1-1.06-.19c-33.48-12.09-82.62-31-122.66-55.11a3.12,3.12,0,0,1,3.21-5.34c39.57,23.86,88.33,42.58,121.57,54.59a3.12,3.12,0,0,1-1.06,6.05Z"/><path class="cls-11" d="M1719.41,1551.89c-52.71,0-111.74-45-128.45-100.33-19.93-66-34.54-226.9-33.36-316.12a3.13,3.13,0,0,1,3.12-3.08h0a3.13,3.13,0,0,1,3.08,3.16c-1.18,88.79,13.31,248.75,33.08,314.23,17.14,56.77,80.64,102.17,133.18,95.21,29-3.82,109.09-41.18,131-166.38,12-68.36,2.11-114.92-12.8-185.4-5.62-26.61-12-56.78-18.13-92.63-4.19-24.58-7.81-48.67-11.31-72-10.82-72-20.16-134.27-40.69-172.88-20.27-38.12-64.09-61-123.66-83.52a3.12,3.12,0,0,1,2.2-5.83c60.89,23.06,105.77,46.59,127,86.42,21,39.56,30.45,102.27,41.36,174.88,3.49,23.27,7.1,47.33,11.29,71.85,6.09,35.72,12.46,65.82,18.08,92.38,15.06,71.18,25,118.21,12.83,187.76-20.17,115.28-92.57,165.71-136.31,171.49A88,88,0,0,1,1719.41,1551.89Z"/><path class="cls-11" d="M1593,1180.78h-.16a3.12,3.12,0,0,1-3-3.27c.75-15-.08-28.07-.82-39.64-1.14-17.89-2-30.81,3.87-39.25a3.12,3.12,0,0,1,5.12,3.56c-4.6,6.64-3.79,19.29-2.77,35.29.75,11.74,1.6,25,.82,40.36A3.12,3.12,0,0,1,1593,1180.78Z"/><path class="cls-11" d="M1596.45,1113h0a3.1,3.1,0,0,1-3.1-3.12c.07-17.43-.09-30.38-.52-40.76-2.51-61.38-13.38-78.16-22.11-91.65a88,88,0,0,1-8.09-14.48c-11.14-26.82-26.66-76-27.17-84.22-1-16.63,7.4-25.52,17.15-35.81a151.88,151.88,0,0,0,11.87-13.62c3-4.06,5.79-8,8.32-11.65,9.3-13.38,16.65-23.92,26.83-20.81,3.88,1.18,7,4,9.09,8.27,4.17,8.54,3.65,22-1.35,35.06a112.88,112.88,0,0,1-8.13,16.34c-4.33,7.54-7.46,13-5.75,19.63.83,3.21,5.14,7.52,10.6,13,12.46,12.44,31.3,31.22,38.94,65.88a3.12,3.12,0,0,1-6.09,1.34c-7.24-32.88-25.3-50.88-37.25-62.8-6.37-6.37-11-11-12.23-15.82-2.34-9.11,1.7-16.15,6.37-24.29a107,107,0,0,0,7.72-15.47c4.34-11.35,5-23.16,1.57-30.1a9,9,0,0,0-5.32-5.05c-5.56-1.69-10.92,5.51-19.88,18.41-2.58,3.71-5.36,7.71-8.45,11.84a160,160,0,0,1-12.34,14.17c-9.46,10-16.3,17.21-15.45,31.14.42,6.78,15.53,55.31,26.71,82.21a83.16,83.16,0,0,0,7.56,13.49c9.14,14.12,20.53,31.7,23.11,94.77.43,10.48.59,23.52.52,41A3.11,3.11,0,0,1,1596.45,1113Z"/><path class="cls-11" d="M1827.59,1402.15l-.37,0a3.13,3.13,0,0,1-2.74-3.46c4.59-39.17-7.72-70.88-23.31-111-14.31-36.85-32.13-82.73-42.32-149a3.12,3.12,0,1,1,6.16-.95c10.09,65.63,27.76,111.15,42,147.73,15.9,40.94,28.46,73.28,23.7,114A3.13,3.13,0,0,1,1827.59,1402.15Z"/><path class="cls-11" d="M1753.83,1180.72a3.1,3.1,0,0,1-2.95-2.14,299.55,299.55,0,0,1-8.74-34.36c-2.84-13.63-5.08-24.4-9.85-26.8a3.11,3.11,0,0,1,2.8-5.56c7.46,3.74,9.85,15.21,13.16,31.08a289.72,289.72,0,0,0,8.54,33.68,3.12,3.12,0,0,1-2,3.94A3,3,0,0,1,1753.83,1180.72Z"/><path class="cls-11" d="M1733.79,1124.11a3.12,3.12,0,0,1-3-2.41c-9.07-39.55-9.69-69-7.82-101.11.82-14,8.15-26.94,15.23-39.41,4-7,8.09-14.24,11-21.64,9.07-22.67,23.51-101.54,4.52-117.16-11.43-9.4-28.79-19.67-39.89-17.69-24.16,4.28-34.64,24.58-41.7,43.87-3.77,10.32-.35,34.69,6.78,48.29,2.69,5.15,5.76,8.39,8.62,9.14a6.39,6.39,0,0,0,5.76-.83c4.83-3.48,7.88-14.48,9.08-32.67,1-15.67,9.24-21.48,17.2-27.09,1.93-1.37,3.9-2.76,5.79-4.32a3.11,3.11,0,1,1,4,4.79c-2,1.68-4.11,3.16-6.18,4.62-7.37,5.2-13.74,9.7-14.58,22.4-1.36,20.71-5.06,32.57-11.65,37.32a12.54,12.54,0,0,1-11,1.81c-4.72-1.23-9-5.36-12.57-12.28-7.91-15.09-11.43-41.5-7.11-53.32,7.22-19.74,19-43,46.47-47.86,17.06-3,40.43,15.3,44.93,19,23.59,19.4,4.57,106.11-2.7,124.28-3.11,7.8-7.33,15.23-11.41,22.41-7,12.4-13.7,24.1-14.43,36.7-1.84,31.55-1.23,60.52,7.68,99.34a3.12,3.12,0,0,1-2.34,3.73A2.84,2.84,0,0,1,1733.79,1124.11Z"/><path class="cls-11" d="M1664.08,921.35a14.32,14.32,0,0,1-6.36-1.6c-16.64-8.24-32.3-48.73-23.8-72.81,11.12-31.52,15.86-42.88,33.42-52.17,9.85-5.2,28.32-3.69,43.88,3.6,12.65,5.93,20.71,14.38,22.7,23.81a3.12,3.12,0,0,1-6.1,1.29c-1.55-7.36-8.56-14.46-19.24-19.46-13.71-6.42-30.19-8-38.33-3.73-15.55,8.22-19.7,18.26-30.46,48.73-8,22.71,7.69,58.71,20.7,65.15,2.55,1.27,6.38,2.26,10.27-3.68a3.12,3.12,0,0,1,5.21,3.42C1672.75,918.81,1668.61,921.35,1664.08,921.35Z"/><path class="cls-11" d="M1608.75,816.15a3.05,3.05,0,0,1-1.93-.68,3.1,3.1,0,0,1-.51-4.37,137.86,137.86,0,0,1,11.52-12.32c3.44-3.39,7-6.88,10.29-10.72,6.75-7.85,15.49-11.7,25.18-11.18,13.35.73,25.33,9.46,29.22,15.13a3.11,3.11,0,1,1-5.13,3.53c-2.68-3.9-12.91-11.81-24.43-12.44-7.9-.48-14.6,2.61-20.12,9-3.46,4-7.11,7.62-10.63,11.1a131.46,131.46,0,0,0-11,11.75A3.11,3.11,0,0,1,1608.75,816.15Z"/><path class="cls-11" d="M1636.51,911.41a17.5,17.5,0,0,1-3.34-.33c-7.64-1.51-22.11-9.33-33.14-44.83a104.27,104.27,0,0,1-3.41-14.15,3.12,3.12,0,1,1,6.15-1,99.29,99.29,0,0,0,3.21,13.3c10.73,34.57,24.45,39.79,28.4,40.57a9.06,9.06,0,0,0,9-2.91,3.11,3.11,0,0,1,4.8,4A14.92,14.92,0,0,1,1636.51,911.41Z"/><path class="cls-11" d="M1602.12,803.05h-.07a3.13,3.13,0,0,1-3-3.19c.75-34,9.82-87.33,18.48-125,11.94-52.05,25.45-75.61,43.18-74a11.44,11.44,0,0,1,8.53,4.48c5.74,7.65,2.66,23.45-1.25,43.46-2.34,12-5,25.56-5.92,38.74-1,13.56-2.25,24.11-3.4,33.41-2.22,18-4,32.29-1.73,57.21a3.12,3.12,0,0,1-6.21.56c-2.3-25.58-.51-40.12,1.76-58.53,1.13-9.23,2.42-19.69,3.36-33.09,1-13.56,3.65-27.34,6-39.5,3.33-17,6.47-33.09,2.38-38.52a5.22,5.22,0,0,0-4.1-2c-9.16-.85-23.08,10.5-36.55,69.2C1615,713.62,1606,766.4,1605.23,800A3.11,3.11,0,0,1,1602.12,803.05Z"/><path class="cls-11" d="M1427.08,1385.81a3.11,3.11,0,0,1-.21-6.22c13.05-.93,22.71-2.78,27.94-5.36,24.22-11.93,57-67.28,71.92-99.36,15.69-33.69,35.93-37.69,36.78-37.84a3.11,3.11,0,1,1,1.1,6.13c-.15,0-18,3.86-32.24,34.34-15.91,34.16-49,89.6-74.8,102.31-6,3-16.21,5-30.26,6Z"/><path class="cls-11" d="M1427.69,1498.39a3.12,3.12,0,0,1-.4-6.21c15.67-2.07,35-4.17,62.85-6.83,48.5-4.6,72.77-12.24,97.53-47.65a3.12,3.12,0,1,1,5.11,3.57c-26.19,37.44-51.53,45.48-102,50.29-27.72,2.64-47,4.74-62.63,6.8A2.73,2.73,0,0,1,1427.69,1498.39Z"/><path class="cls-11" d="M1254.88,1596.56c-28.3,0-62.15-1.27-103.58-3.79-135.28-8.23-311.44-30.47-362.7-66.07-57.5-39.94-51.39-150.29-44.93-267.11,1-18.69,2.09-37.62,2.9-56.58,5.24-121.65,21.91-263,37.16-315.1,34.18-116.68,113.94-135.47,198.39-155.36,39.88-9.39,81.12-19.11,118.79-39.72a3.12,3.12,0,0,1,3,5.47c-38.41,21-80.07,30.83-120.35,40.32-82.63,19.46-160.68,37.84-193.84,151C774.57,941.35,758,1082,752.8,1203.28c-.82,19-1.87,37.94-2.91,56.66-6.37,115-12.38,223.69,42.26,261.63,47,32.64,214.43,56.15,359.52,65,95.15,5.77,149.94,5,189.15-2.73,24.16-4.76,43.45-86.91,44.57-157.19.66-41.57-5.59-54-9-54.82-26.66-6.14-75.84-9.51-119.22-12.49-32.64-2.24-60.84-4.18-75.06-6.92-49.53-9.52-90.87-24.6-127.36-37.91-53.94-19.67-100.51-36.68-154.79-29.53a3.12,3.12,0,1,1-.81-6.18c55.75-7.31,103,9.9,157.74,29.86,36.26,13.23,77.36,28.22,126.39,37.64,13.86,2.67,43.23,4.68,74.31,6.82,43.62,3,93.06,6.39,120.2,12.64,12.16,2.81,14.23,34.71,13.81,61-1,62.07-17.43,156.87-49.59,163.2C1319.48,1594.37,1291.94,1596.56,1254.88,1596.56Z"/><path class="cls-11" d="M991.41,1273.41h0a3.12,3.12,0,0,1-3.07-3.16C990,1138.82,951,954.52,904.85,875.86a3.11,3.11,0,0,1,5.37-3.15c52.34,89.22,85.85,277.63,84.31,397.63A3.11,3.11,0,0,1,991.41,1273.41Z"/><path class="cls-11" d="M1371.4,1550.63a3.11,3.11,0,0,1-.54-6.18,172.6,172.6,0,0,1,18.52-2c10.94-.75,20.39-1.4,23-6.58,1.79-3.58,10.34-37.54,13.2-71.19,3.51-41.57.2-78.54-3.67-82.23-3.36-2-8.58-1.7-15.18-1.33-6.14.35-13.77.78-22.45-.66a3.12,3.12,0,1,1,1-6.15c8,1.33,15,.94,21.09.59,7.35-.41,13.73-.78,18.84,2.29,8.7,5.22,9.39,54.47,6.55,88s-11.47,68.73-13.82,73.45c-4.19,8.37-15.29,9.13-28.14,10a165.77,165.77,0,0,0-17.84,1.9A3.43,3.43,0,0,1,1371.4,1550.63Z"/><path class="cls-11" d="M1686.61,1229.62c-11.73,0-24.86-3.19-39.28-9.54-41.94-18.51-82.48-59.36-88.31-76.83-5.55-16.66,5.82-38.3,33.79-64.35a3.12,3.12,0,0,1,4.25,4.56c-17.9,16.66-38,40.21-32.12,57.82,5.5,16.5,45.72,55.81,84.9,73.09,22.24,9.81,41.66,11.58,56.18,5.13,29.69-13.19,51.16-40,53.43-66.82,1.86-22-9.13-41.55-31.8-56.63a3.11,3.11,0,0,1,3.46-5.18c31.16,20.73,36,45.34,34.55,62.33-2.45,29-25.4,57.91-57.11,72A53.46,53.46,0,0,1,1686.61,1229.62Z"/><path class="cls-11" d="M1675.34,1143.27a139.18,139.18,0,0,1-26.62-2.63c-28-5.45-50-18.35-57.38-33.66a3.12,3.12,0,1,1,5.61-2.71c6.48,13.37,27.27,25.25,53,30.26,33.72,6.56,65.32.13,84.53-17.23a3.12,3.12,0,0,1,4.18,4.62C1723.22,1135.84,1700.61,1143.27,1675.34,1143.27Z"/><path class="cls-11" d="M898.14,1751.9c5.48-87.66,18.46-166.55,22.84-185.93a3.11,3.11,0,1,0-6.07-1.38c-4.42,19.54-17.51,99.09-23,187.31Z"/><path class="cls-11" d="M1724.56,1751.9h6.23c-3-70-13-152.67-25.13-202.91a3.12,3.12,0,1,0-6.06,1.46C1711.6,1600.29,1721.59,1682.38,1724.56,1751.9Z"/><path class="cls-11" d="M1318.19,665.2c-1.67,0-3.32-.07-5-.22-38.73-3.36-94.52-26-124.32-78.88a3.12,3.12,0,0,1,5.43-3.07c37.67,66.81,111.17,75,119.43,75.75,26.82,2.3,63.82-18.64,85-39.55,29.25-28.89,38.12-67.05,42.94-100.57a3.12,3.12,0,1,1,6.17.89c-5,34.54-14.17,73.93-44.73,104.12C1385.68,640.9,1349.54,665.2,1318.19,665.2Z"/><path class="cls-11" d="M1152.74,542.13c-8.72,0-20-5.06-29.69-13.42-13.78-11.94-21.77-28.3-21.92-44.89-.17-18.92,6.31-33.3,17.35-38.45,8.93-4.17,19.67-1.77,29.46,6.58a3.11,3.11,0,0,1-4,4.74c-8-6.8-16.07-8.81-22.79-5.68-8.76,4.1-13.9,16.34-13.75,32.76.14,14.8,7.34,29.46,19.77,40.23,9.25,8,20.29,12.73,27.47,11.78a3.11,3.11,0,0,1,.83,6.17A19.49,19.49,0,0,1,1152.74,542.13Z"/><path class="cls-11" d="M1444.36,536.23a3.11,3.11,0,0,1-.73-6.14c.87-.22,21.16-5.55,29.84-34.93,4.31-14.57,3.65-27.36-1.75-34.2-3-3.77-7.32-5.52-12.75-5.23a3.11,3.11,0,0,1-.33-6.22c7.63-.34,13.74,2.23,18,7.59,6.75,8.55,7.79,23.07,2.83,39.83-9.75,33-33.36,39-34.37,39.22A3.43,3.43,0,0,1,1444.36,536.23Z"/><path class="cls-11" d="M1321.27,513a3.12,3.12,0,0,1-1.94-5.56c13.74-10.9,11.25-16,6.73-25.32-4.27-8.78-10.11-20.81-2.47-41a3.12,3.12,0,0,1,5.83,2.2c-6.69,17.7-1.94,27.47,2.25,36.09,4.73,9.73,9.19,18.92-8.46,32.93A3.1,3.1,0,0,1,1321.27,513Z"/><path class="cls-11" d="M1219.23,407.75a3.12,3.12,0,0,1-1.5-5.85c12.18-6.64,40.13-10.78,56.22-2.14a3.12,3.12,0,1,1-3,5.49c-13.57-7.29-39.45-3.8-50.28,2.12A3.06,3.06,0,0,1,1219.23,407.75Z"/><path class="cls-11" d="M1410.62,407.73a3.13,3.13,0,0,1-1.95-.68c-8.84-7.08-29.45-6.35-41.27-1a3.12,3.12,0,0,1-2.58-5.68c13.73-6.21,36.71-7,47.75,1.8a3.12,3.12,0,0,1-2,5.55Z"/><path class="cls-11" d="M1144.48,501.81a3.1,3.1,0,0,1-2.31-1L1129.66,487a3.12,3.12,0,1,1,4.62-4.18l12.5,13.83a3.12,3.12,0,0,1-2.3,5.21Z"/><path class="cls-11" d="M1455.29,470.3l-.37,0a3.12,3.12,0,0,1-2.73-3.46c1.36-11.57,4.57-43.18,3.15-50.44a3.11,3.11,0,1,1,6.11-1.19c1.87,9.53-2.56,48-3.07,52.36A3.11,3.11,0,0,1,1455.29,470.3Z"/><path class="cls-12" d="M1230.59,453.6c.66-7.65,6.33-13.29,12.65-12.61s10.92,7.43,10.26,15.08-6.32,13.29-12.65,12.61S1229.93,461.24,1230.59,453.6Z"/><path class="cls-11" d="M1086.88,313a3.12,3.12,0,0,1-1-6.06c17.09-6,18.9-22.13,21.19-42.61,1.82-16.33,3.89-34.84,14.13-52.46,22.32-38.42,62.79-55.2,96.23-39.9a3.11,3.11,0,1,1-2.6,5.66c-30.45-13.92-67.57,1.78-88.24,37.36-9.58,16.49-11.58,34.32-13.33,50-2.43,21.75-4.53,40.53-25.32,47.79A3.1,3.1,0,0,1,1086.88,313Z"/><path class="cls-11" d="M1123.51,448.62a3.12,3.12,0,0,1-3.09-2.71c-.73-5.51-2.52-13.7-4.6-23.19-5.26-24-12.46-56.93-10-80.87a3.12,3.12,0,0,1,6.2.62c-2.32,23,4.77,55.3,9.94,78.92,2.1,9.62,3.92,17.94,4.69,23.71a3.12,3.12,0,0,1-2.68,3.49Z"/><path class="cls-11" d="M1470.82,209.83c-22.27,0-35.18-12.14-51.14-27.13-3.94-3.71-8.14-7.65-12.77-11.71-63.09-55.25-133.59-40.5-163.49-12.37a3.11,3.11,0,0,1-4.26-4.54c37.43-35.19,111.94-40.24,171.85,12.22,4.7,4.12,8.94,8.1,12.94,11.86,17.7,16.63,29.43,27.62,53.33,25.09a3.11,3.11,0,0,1,.66,6.19A68.32,68.32,0,0,1,1470.82,209.83Z"/><path class="cls-11" d="M1176.11,392.93c-1.18,0-2.38,0-3.6-.08a3.12,3.12,0,0,1-3-3.25,3.21,3.21,0,0,1,3.25-3c39.58,1.64,48.06-27.12,57-57.66,6.61-22.63,13.43-46,35-52.32a3.11,3.11,0,1,1,1.74,6c-18.28,5.33-24.34,26.1-30.76,48.09C1227.21,359.93,1217.59,392.93,1176.11,392.93Z"/><path class="cls-11" d="M1449.77,388.3c-37.69,0-66.2-39.8-84.57-70.21-19.6-32.44-34.75-52.81-65.78-40.54a3.11,3.11,0,0,1-2.29-5.79c35.5-14,52.81,9,73.4,43.11,18.13,30,46.32,69.59,82.59,67.09a3.23,3.23,0,0,1,3.33,2.88,3.12,3.12,0,0,1-2.89,3.33C1452.28,388.26,1451,388.3,1449.77,388.3Z"/><path class="cls-11" d="M1473.7,431.22a3.18,3.18,0,0,1-.74-.09,3.11,3.11,0,0,1-2.28-3.77c6.17-25.12,24.94-136-3.55-179.48a3.11,3.11,0,1,1,5.21-3.41c30,45.8,11.1,157.08,4.39,184.37A3.11,3.11,0,0,1,1473.7,431.22Z"/><path class="cls-11" d="M1320.84,603.52h-1c-42.28-1.1-54.2-50.64-54.32-51.15a3.11,3.11,0,0,1,3.59-3.76c.28,0,28.2,5,53.47,5.22a239.35,239.35,0,0,0,44.19-3.6,3.11,3.11,0,0,1,3.61,3.88C1369.77,556.13,1356.31,603.52,1320.84,603.52Zm-47.92-48c3.91,11.55,16.83,41,47,41.73,25,.8,38.46-28.37,42.77-40.06a252.7,252.7,0,0,1-40.24,2.83C1303.09,559.92,1282.22,557,1272.92,555.55Z"/><path class="cls-11" d="M1158.06,436.64a3.12,3.12,0,0,1-.69-6.16c11-2.49,19.46-5.07,28.06-15.56a3.12,3.12,0,1,1,4.82,3.95c-9.84,12-19.67,15-31.5,17.69A3.32,3.32,0,0,1,1158.06,436.64Z"/><path class="cls-11" d="M1398.91,666.65a3.1,3.1,0,0,1-3.09-2.81,273.88,273.88,0,0,1-1-37.62,3.11,3.11,0,1,1,6.22.28,271.94,271.94,0,0,0,1,36.72,3.11,3.11,0,0,1-2.79,3.41Z"/><path class="cls-11" d="M1175.15,657.48h-.1a3.12,3.12,0,0,1-3-3.21c1.09-34.94-2.26-80.35-5.1-99.69a3.12,3.12,0,0,1,6.17-.91c2.76,18.83,6.31,63.88,5.16,100.79A3.11,3.11,0,0,1,1175.15,657.48Z"/><path class="cls-11" d="M1265.68,248.38a3.11,3.11,0,0,1-3-2.28c-4.62-16.64-18.37-37.16-18.51-37.36a3.12,3.12,0,0,1,5.17-3.49c.58.88,14.46,21.57,19.35,39.18a3.13,3.13,0,0,1-2.17,3.84A3,3,0,0,1,1265.68,248.38Z"/><path class="cls-12" d="M1373.37,454.17c.66-7.65,6.32-13.29,12.65-12.6s10.91,7.43,10.25,15.07-6.32,13.29-12.64,12.61S1372.71,461.81,1373.37,454.17Z"/><path class="cls-11" d="M1350,1364.83a3.11,3.11,0,0,1-3.1-2.91c-7.38-110.24-20.58-197.69-40.35-267.33-16.58-58.46-41-126.82-64.67-192.93-40.84-114.2-79.41-222.07-72.25-264.43a3.11,3.11,0,1,1,6.14,1c-6.89,40.75,31.42,147.88,72,261.3,23.67,66.2,48.15,134.66,64.8,193.32,19.89,70.07,33.16,157.94,40.57,268.62a3.12,3.12,0,0,1-2.91,3.31Z"/><path class="cls-11" d="M1353.6,1751.9h6.23c.72-57.66.89-121.44.43-177.7a3.12,3.12,0,0,0-3.12-3.09h0a3.12,3.12,0,0,0-3.09,3.14C1354.48,1630.5,1354.32,1694.26,1353.6,1751.9Z"/><path class="cls-11" d="M1316.84,1122.62a3.31,3.31,0,0,1-1.07-.19,3.12,3.12,0,0,1-1.85-4c37.59-102.36,111.57-406,84.19-459.67a3.11,3.11,0,1,1,5.55-2.83c28.6,56.12-44.94,358.6-83.9,464.66A3.11,3.11,0,0,1,1316.84,1122.62Z"/><path class="cls-11" d="M1310.39,1097.83h-.05a3.12,3.12,0,0,1-3.06-3.17c1.15-67.73,1.07-140.47-7.21-213.38-4.66-41-5.3-73.39-5.77-97-.48-24.24-.8-40.25-4.9-48.14-2.69-5.17-15.17-11.34-29.63-18.47-28.52-14.09-67.59-33.37-89-69.27a3.12,3.12,0,1,1,5.35-3.2c20.51,34.32,58.62,53.14,86.45,66.88,16.7,8.25,28.77,14.2,32.4,21.18,4.77,9.19,5.1,25.78,5.6,50.9.47,23.51,1.11,55.72,5.73,96.45,8.32,73.27,8.4,146.24,7.25,214.19A3.12,3.12,0,0,1,1310.39,1097.83Z"/><path class="cls-11" d="M1215.1,816.38a3.12,3.12,0,0,1-2.33-5.18c7.5-8.44,15.34-19.47,22.93-30.13,19.13-26.88,37.14-52.2,55.87-49.21a3.12,3.12,0,0,1-1,6.15c-14.86-2.49-32.61,22.53-49.78,46.67-7.69,10.8-15.63,22-23.36,30.65A3.06,3.06,0,0,1,1215.1,816.38Z"/><path class="cls-11" d="M1297.37,768.75a2.92,2.92,0,0,1-.51,0,3.11,3.11,0,0,1-2.57-3.58c6.17-37.28,35.44-54,61.27-68.65,18.36-10.45,35.7-20.33,42.89-36.12a3.11,3.11,0,1,1,5.67,2.58c-8,17.63-26.22,28-45.48,38.95-25.82,14.71-52.51,29.91-58.2,64.26A3.13,3.13,0,0,1,1297.37,768.75Z"/><path class="cls-11" d="M1382.94,820.13c-11.69,0-21.76-17.78-33.42-38.37s-25-44.1-38.38-44.1a3.12,3.12,0,1,1,0-6.23c17,0,30.64,24,43.8,47.26,9.81,17.31,20,35.21,28,35.21h0c3.07,0,6.26-3,9.5-8.79a3.11,3.11,0,0,1,5.44,3c-4.48,8.05-9.36,12-14.92,12Z"/><path class="cls-11" d="M1154.2,790.41a3.12,3.12,0,0,1-2.89-1.95c-6.12-15.19-25.39-22.08-40.87-27.62-12.55-4.49-22.45-8-23.29-15.33-1-8.6,5.67-16.36,15.76-28.1,7.41-8.61,16.62-19.33,25.85-33.93,22.28-35.24,33.26-51.08,43.55-57.94a3.11,3.11,0,1,1,3.46,5.18c-9.29,6.19-20.39,22.31-41.74,56.09-9.47,15-18.86,25.89-26.4,34.67-9,10.49-15,17.42-14.3,23.31.4,3.45,10.39,7,19.21,10.18,16.65,6,37.38,13.38,44.55,31.16a3.12,3.12,0,0,1-1.72,4A3.21,3.21,0,0,1,1154.2,790.41Z"/><path class="cls-11" d="M1122.17,867.29a3.11,3.11,0,0,1-2.77-1.7c-29.59-57.72-33.75-72.4-30.86-77.38,2.5-4.33,9-3.3,19.76-1.59,13.28,2.11,31.46,5,47.59-1.18,13.73-5.26,22.68-20.18,32.65-42.56a3.12,3.12,0,0,1,5.69,2.54c-10.62,23.83-20.37,39.82-36.11,45.84-17.69,6.78-37.6,3.61-50.8,1.51-5.44-.86-12.23-1.94-13.66-1.14-.63,2.77,3.95,17.79,31.28,71.12a3.11,3.11,0,0,1-1.35,4.19A3,3,0,0,1,1122.17,867.29Z"/><path class="cls-11" d="M1323.29,1154.84a3.11,3.11,0,0,1-2.83-1.79c-25-53.49-65-99.75-103.61-144.49-14.52-16.8-28.24-32.68-40.66-48.4a3.11,3.11,0,1,1,4.89-3.85c12.34,15.61,26,31.43,40.48,48.18,37.11,43,79.18,91.65,104.55,145.92a3.12,3.12,0,0,1-1.51,4.14A3.08,3.08,0,0,1,1323.29,1154.84Z"/><path class="cls-11" d="M1445.28,794.87a3,3,0,0,1-.89-.13,3.13,3.13,0,0,1-2.1-3.88c5.49-18.36,25.43-27.68,41.46-35.18,8.47-4,18.09-8.45,18.16-11.93.13-5.92-6.46-12.27-16.42-21.88-4.74-4.56-10.1-9.74-15.89-16-5-5.36-9.42-10.61-13.62-16.06-24.75-32.06-47.06-56.18-56.82-61.44a3.11,3.11,0,1,1,2.95-5.48c12.71,6.85,38.71,37.09,58.8,63.11,4.09,5.3,8.43,10.42,13.26,15.64,5.66,6.11,11,11.22,15.64,15.73,11.15,10.75,18.51,17.85,18.33,26.5-.16,7.34-9.69,11.8-21.76,17.44-14.89,7-33.43,15.63-38.11,31.32A3.12,3.12,0,0,1,1445.28,794.87Z"/><path class="cls-11" d="M1326.2,1163.92a3,3,0,0,1-1-.19,3.11,3.11,0,0,1-1.88-4c20.22-56.49,53-106.09,82-149.85,24.16-36.52,47-71,59.82-104.84,1.85-4.89,4.88-12.35,8.46-21.2,10.49-25.89,35-86.51,32.07-93.85-1.16-.26-7.78,1.45-13.13,2.82-12.93,3.33-32.47,8.34-50.71,3.24-16.24-4.53-27.44-19.53-40.23-42.26a3.11,3.11,0,0,1,5.42-3.06c12,21.34,22.32,35.37,36.49,39.32,16.64,4.66,34.46.07,47.48-3.27,10.56-2.71,16.93-4.34,19.83-.26,4.82,6.75-6.81,38.86-31.45,99.66-3.56,8.8-6.57,16.22-8.41,21.07-13.08,34.47-36.09,69.25-60.44,106.07-30.16,45.58-61.34,92.73-81.3,148.51A3.12,3.12,0,0,1,1326.2,1163.92Z"/><path class="cls-11" d="M1548.41,854.78a3.12,3.12,0,0,1-3-2.42C1521,746.45,1481.76,682.19,1418,644a3.12,3.12,0,1,1,3.2-5.35c64.41,38.59,105.78,106.05,130.2,212.3a3.12,3.12,0,0,1-2.33,3.73A3.42,3.42,0,0,1,1548.41,854.78Z"/><path class="cls-11" d="M1545.76,936.55a3.12,3.12,0,0,1-3.09-2.76c-7.61-65.83-24.24-126.93-48.09-176.69a3.12,3.12,0,0,1,5.62-2.7c24.15,50.38,41,112.16,48.66,178.68a3.12,3.12,0,0,1-2.74,3.45Z"/><path class="cls-11" d="M1072.44,863.24a3.1,3.1,0,0,1-3.09-2.79c-15.72-153.71,61.36-202.52,86.69-218.56a3.12,3.12,0,1,1,3.34,5.26c-24.53,15.53-99.15,62.79-83.83,212.66a3.13,3.13,0,0,1-2.79,3.42Z"/><path class="cls-11" d="M1091.8,860.94a3.12,3.12,0,0,1-3.1-2.82c-3-30.78-4.35-67.33,7.67-105.11a3.11,3.11,0,1,1,5.93,1.88c-11.67,36.71-10.29,72.48-7.4,102.64a3.1,3.1,0,0,1-2.8,3.39A1.51,1.51,0,0,1,1091.8,860.94Z"/><path class="cls-11" d="M1556.66,1064.11a48.41,48.41,0,0,1-28.74-9.45A49.19,49.19,0,0,1,1549,966.34a48.17,48.17,0,0,1,20.31,1.1,3.11,3.11,0,1,1-1.64,6,42.5,42.5,0,0,0-45.55,16.17,43.15,43.15,0,0,0,9.46,60,42.51,42.51,0,0,0,58.89-8.42,3.12,3.12,0,0,1,4.94,3.8,48.64,48.64,0,0,1-31.11,18.5A49.65,49.65,0,0,1,1556.66,1064.11Z"/><path class="cls-11" d="M1558.61,1039.17a28.86,28.86,0,0,1-23.24-45.79,28.68,28.68,0,0,1,51.53,12.51h0a28.79,28.79,0,0,1-23.84,32.94A29.28,29.28,0,0,1,1558.61,1039.17Zm0-51.41a22.45,22.45,0,0,0-18.16,9.27,22.44,22.44,0,1,0,31.34-4.93A22.21,22.21,0,0,0,1558.58,987.76Z"/><path class="cls-11" d="M1182.36,1249.07a3.11,3.11,0,0,1-.45-6.19c14.7-2.18,29.52-11.93,36.57-20.45,11.8-14.24,14.22-34,8.34-68.17-5.5-32-13-62.53-25.14-102.12a3.12,3.12,0,0,1,6-1.83c12.2,39.86,19.77,70.63,25.32,102.89,6.22,36.19,3.41,57.4-9.68,73.21-7.57,9.13-23.45,20.11-40.46,22.63Z"/><path class="cls-11" d="M1004.45,1065.29a3,3,0,0,1-2.67-1.55c-2.87-5-1-23.25,1.85-48.42.67-5.78,1.27-11,1.61-14.87,1.59-17.77,2.87-33.16,4-46.34,2.87-34.47,4.45-53.46,7-61.56,5.17-16.35,27.06-28.58,58.55-32.71,29.92-3.93,65.7.79,76.24,17.35,9.2,14.46,34,89.48,42.49,118.3,3.44,11.61,7,21.12,9.86,28.76,4.77,12.72,7.65,20.4,5.94,26.34a3.12,3.12,0,0,1-6-1.72c1.14-4-1.76-11.71-5.78-22.43-2.9-7.73-6.51-17.35-10-29.18-9.71-32.81-33.54-103.8-41.76-116.72-7.94-12.48-38.11-18.73-70.18-14.52-28.6,3.75-49.07,14.63-53.42,28.41-2.35,7.43-4,27.29-6.74,60.2-1.09,13.19-2.38,28.59-4,46.37-.35,3.91-1,9.19-1.63,15-1.64,14.26-4.69,40.8-2.63,44.62a3.13,3.13,0,0,1-2.74,4.63Z"/><path class="cls-11" d="M1082.35,1252.44c-22.36,0-42.09-4.38-57.11-12.68-19.08-10.54-29.19-35.81-28.48-71.16.28-13.76,1.45-30.81,2.93-52.4,1-15.26,2.23-32.59,3.33-52.16a3,3,0,0,1,3.28-2.93,3.11,3.11,0,0,1,2.94,3.28c-1.1,19.6-2.29,36.95-3.34,52.24-1.47,21.5-2.64,38.49-2.91,52.09-.67,32.93,8.31,56.22,25.26,65.59,14.1,7.79,32.8,11.9,54.1,11.9.21,0,.53.07.62,0a3.12,3.12,0,0,1,3.12,3.11C1086.1,1251.25,1084.24,1252.44,1082.35,1252.44Z"/><path class="cls-11" d="M1177.11,1235.91a3.11,3.11,0,0,1-.5-6.18c30.64-5,41.61-25,35.59-64.59-3.5-23.09-13.56-67.93-27.36-111.81a3.12,3.12,0,0,1,6-1.88c13.9,44.21,24,89.44,27.57,112.75,6.57,43.25-6.38,66-40.74,71.67A2.92,2.92,0,0,1,1177.11,1235.91Z"/><path class="cls-11" d="M1025.4,1065.2a3.11,3.11,0,0,1-2.37-5.13c1.89-2.23,1.89-4.58,1.63-11.7a200.34,200.34,0,0,1,.29-23.64c4-56.85,9.39-113,11.86-122.65,3.06-12,15.2-20.59,34.18-24.31,24.84-4.88,55-.43,62.15,9.15,8.8,11.85,22.14,52.32,37.58,99.19,2.75,8.33,5.52,16.75,8.31,25.1,1.94,5.84,3.11,13,4.25,20,1.07,6.62,2.69,16.61,4.59,18a3.12,3.12,0,0,1-3.7,5c-3.75-2.76-5.12-10.17-7-22-1.1-6.74-2.23-13.69-4-19.06-2.78-8.35-5.56-16.78-8.31-25.12-14.64-44.43-28.46-86.39-36.66-97.43-5.06-6.82-32.41-11.37-56-6.75-9.55,1.87-26.07,6.93-29.35,19.74-2.08,8.15-7.39,60.07-11.68,121.55a197.36,197.36,0,0,0-.28,23c.29,7.6.44,11.78-3.1,16A3.11,3.11,0,0,1,1025.4,1065.2Z"/><path class="cls-11" d="M1086.21,1239.29h0c-36.24-.32-73.24-7.9-72.79-61.64.17-20.93,2.4-63.77,5.08-113.47a3,3,0,0,1,3.28-2.94,3.12,3.12,0,0,1,3,3.28c-2.68,49.61-4.91,92.38-5.08,113.18-.42,50.53,34.17,55.07,66.62,55.36a3.12,3.12,0,0,1,0,6.23Z"/><path class="cls-11" d="M1093.84,1262c-4.39,0-9.75-1.9-15.79-7.81a3.11,3.11,0,0,1,1.48-5.26c3.68-3.43,5.6-6.68,5.57-9.4a5,5,0,0,0-1.29-3.37,3.11,3.11,0,0,1-.32-4.38c1-1.18,10.15-11.58,19.47-10.47,2.9.33,7,2,10.08,7.82,3.7,7.06-.23,22.63-9.47,29.5A16.33,16.33,0,0,1,1093.84,1262Zm-8.7-9.85c5.41,4.21,10.36,4.71,14.72,1.48,6.91-5.14,9.87-17.41,7.67-21.6-1.47-2.81-3.2-4.29-5.27-4.53-4.12-.46-9.38,3.69-12.34,6.56a11.2,11.2,0,0,1,1.41,5.41C1091.37,1243.57,1089.29,1247.83,1085.14,1252.1Z"/><path class="cls-11" d="M1168.81,1259.28c-4.13,0-8.29-1.87-12.39-5.58-5.81-5.25-9-17.23-7-26.17,1.15-5.12,4-8.62,8-9.84,11.55-3.5,22.38,9.49,22.84,10a3.12,3.12,0,0,1,.56,2.92,3.19,3.19,0,0,1-.73,2c-1.63,1.93-2.27,3.67-2,5.31.56,2.85,3.92,5.19,5.16,5.85a3.12,3.12,0,0,1,1.34,4.15c-.19.39-4.8,9.45-13.23,11A13.07,13.07,0,0,1,1168.81,1259.28Zm-7.39-36a7.71,7.71,0,0,0-2.23.32c-2.26.69-3.27,3.23-3.72,5.24-1.49,6.65,1,16.46,5.13,20.18,3.42,3.1,6.64,4.37,9.59,3.85,3.31-.62,5.88-3.36,7.38-5.4a14.58,14.58,0,0,1-5.57-8.29,11.7,11.7,0,0,1,2.09-9C1171.33,1227.43,1166.22,1223.33,1161.42,1223.33Z"/><path class="cls-11" d="M1028.43,1032.92l-.45,0a3.11,3.11,0,0,1-2.64-3.52c7.15-50.31,34.59-78.63,46.75-84.46,14.44-6.91,31.79-6.64,48.86.75,27,11.7,49.37,38.6,59.88,72a3.11,3.11,0,0,1-5.94,1.87c-10-31.65-31.07-57.11-56.42-68.1-15.4-6.68-30.91-7-43.68-.85-10.74,5.15-36.55,32.36-43.28,79.71A3.12,3.12,0,0,1,1028.43,1032.92Z"/><path class="cls-11" d="M1187,1054.79a3.12,3.12,0,0,1-1.06-6,32.43,32.43,0,0,0,3.3-1.45c4-1.9,8.44-4,16.69-1.39a3.11,3.11,0,0,1,2,3.92,3.08,3.08,0,0,1-3.92,2c-5.88-1.91-8.48-.65-12.06,1.09a42.14,42.14,0,0,1-3.89,1.69A3,3,0,0,1,1187,1054.79Z"/><path class="cls-11" d="M1004.45,1064.93a3.12,3.12,0,0,1-1-6.07c5.64-1.91,12.61-3.4,21.48-.16a3.12,3.12,0,1,1-2.15,5.85c-6.64-2.45-11.73-1.68-17.34.22A3.48,3.48,0,0,1,1004.45,1064.93Z"/><path class="cls-11" d="M1544.8,971.17a3.12,3.12,0,0,1-3.11-3c-.16-6.16-.86-11.89-1.48-17-.69-5.68-1.25-10.17-.8-13.45.78-5.81,9.57-7.4,13.32-7.82a3.12,3.12,0,0,1,.68,6.2c-4.82.53-7.51,2-7.88,2.62-.28,2.32.25,6.66.86,11.69.64,5.2,1.36,11.09,1.53,17.55a3.12,3.12,0,0,1-3,3.2Z"/><path class="cls-11" d="M1714.28,623.58a3.12,3.12,0,0,1-2.18-.89c-4.47-4.4-6.57-8.79-6.22-13,.44-5.47,4.71-9.19,8-11.64l-.67-.13c-3.71-.71-8.34-1.6-12.24-6-4.79-5.34.44-15.64,6.07-26.58-11.69,7.95-23,14.07-30.47,11.94a9,9,0,0,1-6-5.43c-2.37-5.68-.68-17.61,1.93-32.72-7.79,15.8-14.6,28.8-19.44,32.43a8.07,8.07,0,0,1-6.39,1.61c-5.92-1-10.7-8.4-14.56-14.31l-.51-.78c0,1.14,0,2.34-.05,3.39-.09,8.34-.2,17.78-4.95,21.46-3.93,3-9.71,2.63-14.33,1.54a16.5,16.5,0,0,1-2.23,14.44,3.11,3.11,0,1,1-5.13-3.52c2.87-4.19,2.51-8.93-1.06-14.07a3.94,3.94,0,0,1-.47-3.63,3.13,3.13,0,0,1,4.07-1.39c3.6,1.64,12.09,4.22,15.34,1.69,2.36-1.82,2.47-11.43,2.53-16.59.07-6.33.18-9.73,1.65-11.7a4,4,0,0,1,3.08-1.49c2.61.09,4.18,2.48,7.29,7.25,2.67,4.12,7.16,11,10.41,11.57a1.84,1.84,0,0,0,1.57-.46c4.42-3.32,14.13-23.11,19.34-33.75,6.25-12.73,6.36-13,8.76-13a3.64,3.64,0,0,1,2.59,1.21c1.52,1.81,1.25,4.23-1,17-1.75,10-4.68,26.66-2.7,31.4a2.79,2.79,0,0,0,2,1.83c7,2.07,25-10.8,30.87-15,4.39-3.14,5.58-4,7.54-2.45a3.22,3.22,0,0,1,1,3.63,109.25,109.25,0,0,1-5,10.41c-2.72,5.3-9.1,17.71-7.13,19.92,2.5,2.79,5.55,3.37,8.78,4a19.47,19.47,0,0,1,6.81,2.22,4.19,4.19,0,0,1,1.74,3c.07,2.23-1.63,3.43-4,5.09-2.64,1.87-6.62,4.69-6.9,8.12-.19,2.33,1.28,5.05,4.38,8.1a3.11,3.11,0,0,1-2.19,5.33Z"/></g><ellipse class="cls-13" cx="1211.98" cy="501.81" rx="23.96" ry="8.61"/><ellipse class="cls-13" cx="1413.73" cy="502.94" rx="23.96" ry="8.61"/></g></g></svg>