<svg xmlns="http://www.w3.org/2000/svg" xmlns:xlink="http://www.w3.org/1999/xlink" viewBox="0 0 523.46 434.44"><defs><style>.cls-1,.cls-25{fill:none;}.cls-2{isolation:isolate;}.cls-3{fill:#ffe3a6;}.cls-4{fill:#f4f4f6;}.cls-11,.cls-18,.cls-21,.cls-25,.cls-28,.cls-30,.cls-5{mix-blend-mode:soft-light;}.cls-6{fill:#32324c;}.cls-7{fill:#83b4fd;}.cls-21,.cls-30,.cls-8{fill:#fff;}.cls-9{clip-path:url(#clip-path);}.cls-10{fill:#f4b799;}.cls-11{opacity:0.6;}.cls-12{fill:#f8f7fc;}.cls-13,.cls-15{fill:#e2e2f2;}.cls-14{fill:#5dcec1;}.cls-15{mix-blend-mode:darken;}.cls-16{fill:#d4d2ea;}.cls-17{fill:#fbfbfd;}.cls-18,.cls-30{opacity:0.3;}.cls-19{fill:#b9b9b9;}.cls-20{fill:#8a8988;}.cls-22{fill:#4f4f4f;}.cls-23{fill:#3a3a3a;}.cls-24{fill:#b22828;}.cls-25{stroke:#000;stroke-linecap:round;stroke-linejoin:round;stroke-width:1.15px;}.cls-26{fill:#deefff;}.cls-27{fill:#ff715b;}.cls-28{opacity:0.2;}.cls-29{fill:#c2deff;}.cls-31{fill:#529f91;}</style><clipPath id="clip-path"><rect class="cls-1" x="137.46" y="43.42" width="200.32" height="302.78"/></clipPath></defs><g class="cls-2"><g id="Layer_2" data-name="Layer 2"><g id="Layer_5" data-name="Layer 5"><path class="cls-3" d="M129.24,61.24c-17.3,14.53-87.22,68.7-117,196.85-7.26,31.3,1.11,64.27,10.12,95,4.83,16.46,10.52,32.89,19.88,47s22.85,25.84,38.78,29.62c20.47,4.87,41.69-3.82,59.7-15.19s34.56-25.65,54.09-33.76a96.63,96.63,0,0,1,74.74.49c16.62,7.15,31.18,18.9,47.75,26.2,38.6,17,84.75,7.41,119.14-17.74s58.08-64,73.49-105c9.39-25,16.08-52.07,12.53-78.73s-19.16-52.77-43.17-61.85c-12.34-4.68-25.78-4.62-38.68-7.07s-27.44-8-32.5-20.7c-20.41-51.29-70.37-82.56-124.46-92.07C236.46,16,179.58,18.94,129.24,61.24Z"/></g><g id="OBJECTS"><path class="cls-4" d="M275,434.27H190.76c9-3.79,11.47-43,11.55-44.24,0,0,0,0,.11.05,3,.82,60.52-.08,60.52-.08a74,74,0,0,0,1.61,16.52A97.17,97.17,0,0,0,275,434.27Z"/><path class="cls-5" d="M265.11,409.73c-32.71,2.08-60.72-18.19-62.69-19.65,3,.82,60.52-.08,60.52-.08a74,74,0,0,0,1.61,16.52C264.86,408.48,265.11,409.73,265.11,409.73Z"/><rect class="cls-4" x="71.58" y="160.46" width="324.34" height="230.51" rx="14.07"/><path class="cls-6" d="M395.92,174.52V352.46H71.58V174.52a14.06,14.06,0,0,1,14.07-14.06h296.2A14.06,14.06,0,0,1,395.92,174.52Z"/><rect class="cls-7" x="78.76" y="168.64" width="308.97" height="177.62"/><circle class="cls-8" cx="232.15" cy="368.18" r="8.34"/><g class="cls-9"><path class="cls-6" d="M210.1,120.55s-25.28-41.71-12.81-51.84,24.29-7.64,31.4,4.37,55.24-6.81,55.24-6.81,16.57,6.16,0,33.5S230.73,156.75,210.1,120.55Z"/><path class="cls-10" d="M216.19,110.26a7.7,7.7,0,1,1-6.86-8.47A7.71,7.71,0,0,1,216.19,110.26Z"/><path class="cls-11" d="M211.49,109.86a3.71,3.71,0,1,1-3.71-3.7A3.71,3.71,0,0,1,211.49,109.86Z"/><path class="cls-10" d="M279,110.67a7.71,7.71,0,1,1-6.86-8.47A7.72,7.72,0,0,1,279,110.67Z"/><path class="cls-11" d="M275.51,109.86a3.71,3.71,0,1,1-3.71-3.7A3.71,3.71,0,0,1,275.51,109.86Z"/><path class="cls-12" d="M167,346.2c3.3-6.53,12.72-96.57,12.72-96.57s-8.4-62.61,1.53-68.21c6.69-3.77,22.16-7.78,31.54-10,4.54-1.07,7.66-1.72,7.66-1.72,22.61-2.17,39-1.82,50.81.11,24.09,4,29.19,14.43,29.36,23.31.26,13.23,9,107,9.93,114.79,1.11,9.29,1.14,23.23,2.29,28.76,1,4.9,1.78,9.52,1.78,9.52Z"/><path class="cls-13" d="M284.39,365.19a19.56,19.56,0,0,1-5.76-.79c-15.18-4.7-9-28.58-9-28.58l19.72-2,6.61-.67S306.75,365.19,284.39,365.19Z"/><path class="cls-11" d="M284.39,365.19a19.56,19.56,0,0,1-5.76-.79,6.27,6.27,0,0,1,1.05-1.76c2.89-3.47,7.84-4.88,10.33-8.65,2-3,2-6.91,1.49-10.48-.29-2-1.95-6.24-2.18-9.68l6.61-.67S306.75,365.19,284.39,365.19Z"/><path class="cls-13" d="M198.72,365.11a19.42,19.42,0,0,1-5.53-1.79c-14.13-7.27-3.91-29.71-3.91-29.71L209,335.09l6.63.5S220.74,369,198.72,365.11Z"/><path class="cls-11" d="M198.72,365.11a19.42,19.42,0,0,1-5.53-1.79,6,6,0,0,1,1.34-1.54c3.45-2.92,8.57-3.45,11.68-6.72,2.49-2.61,3.17-6.45,3.29-10.06.07-2-.83-6.48-.46-9.91l6.63.5S220.74,369,198.72,365.11Z"/><polygon class="cls-14" points="242.48 313.57 235.93 346.19 249.03 346.19 242.48 313.57"/><polygon class="cls-13" points="203.69 274.5 247.41 283.77 269.51 278.88 273.51 291.87 205.16 307.75 203.69 274.5"/><path class="cls-13" d="M184,187.57s-10.84,1.55-12.62,15.25-14.26,94.69-4.77,122.1c8,23,80.9-9.44,80.9-9.44l54.9-15.58-10.12-18.46L202.94,301.1s3.35-64.59-3.8-87.82S184,187.57,184,187.57Z"/><path class="cls-15" d="M289.63,179.62s10.23.28,12,14,15.15,99.24,5.63,126.63-83.06-11.08-83.06-11.08l-53.61-18.46,10.13-18.47,89.34,19.66S266,226.3,275.9,203.12C285.48,180.79,289.63,179.62,289.63,179.62Z"/><path class="cls-12" d="M313.3,290.7c-.07,2.26-.17,4.46-.31,6.57-.5,7.33-1.5,13.68-3.14,18.42-6.5,18.68-42.32,8.85-64.48.7-1.45-.53-2.86-1.06-4.18-1.58-8.1-3.13-13.54-5.67-13.54-5.67l-53.6-18.46,10.12-18.47,89.34,19.66s-4.76-65.52,2.39-88.75,13.7-27.4,13.7-27.4,13.7,4.18,15.48,17.87C306.47,204.24,314.33,255.51,313.3,290.7Z"/><path class="cls-10" d="M199.91,283.25s11.16.71,12.83,10.4l-13.6,3Z"/><path class="cls-14" d="M268.09,169.77l-26.48,79.15-25.92-78.17c4.54-1.07,4.71-1,4.71-1C243,167.54,256.27,167.84,268.09,169.77Z"/><path class="cls-10" d="M241.48,190.6h0A15.53,15.53,0,0,1,226.06,175l.16-24.74,31,.2-.16,24.74A15.53,15.53,0,0,1,241.48,190.6Z"/><path class="cls-11" d="M226.18,156.53A30.68,30.68,0,0,0,257.23,155l0,4.22S239.64,169,226.18,156.53Z"/><path class="cls-10" d="M261.6,74.31c-16.18-18-46.13-9.67-51.26,14-2.3,10.61-3.7,23.8-1.33,37,5.34,29.68,24.46,41.79,45.28,31.45S276.05,104,268.65,85.64A38.16,38.16,0,0,0,261.6,74.31Z"/><path class="cls-10" d="M220.4,169.71s-1.06,29,18.49,30,23-20.52,24.73-30.87A100.9,100.9,0,0,0,220.4,169.71Z"/><path class="cls-16" d="M268.5,195.47s5-2.44,8.87-4.59c2.29-12.08-.44-21.48-18.93-22.21,0,0,6.52,6.65,2.37,23.74-4.83,19.87-19.2,56.51-19.2,56.51s23.84-22.69,31-43.18c1.21-3.48,2.53-7,3.4-10.32Z"/><path class="cls-12" d="M268.5,194.32s4-2.26,7.87-4.41c2.3-12.09-.5-21.43-19-22.16,0,0,6.55,6.34,2.4,23.43-4.83,19.87-17.9,57.27-17.9,57.27S265,225,272.14,204.54c1.2-3.48,2.34-6.92,3.22-10.22Z"/><path class="cls-16" d="M215,196.21s-5.29-2.6-9.17-4.75c-2.3-12.09.7-21.42,19.18-22.15,0,0-5.45,6.67-1.3,23.76,4.82,19.86,17.9,56.12,17.9,56.12s-24.07-22.07-31.2-42.56c-1.21-3.48-2.37-7.1-3.25-10.4Z"/><path class="cls-12" d="M215,195.06s-4-2.26-7.87-4.41c-2.3-12.09.49-21.43,19-22.16,0,0-6.55,6.34-2.4,23.43,4.82,19.87,17.9,57.27,17.9,57.27s-23.12-23.42-30.25-43.91c-1.21-3.48-2.34-6.92-3.22-10.22Z"/><path class="cls-13" d="M313.3,290.7c-.07,2.26-.17,4.46-.31,6.57A186.39,186.39,0,0,1,287.92,299a3.15,3.15,0,0,0-1.59.26,2.52,2.52,0,0,0-.93,2.54,11.5,11.5,0,0,1,.31,2.84c-.33,2.4-3.18,3.42-5.54,3.94l-23.94,5.32c-3.54.8-7.23,2-10.86,2.47l-.54.07a4,4,0,0,1-3.64-1.65,3.19,3.19,0,0,1-.11-3.42,5.33,5.33,0,0,1,1.84-1.75c4.52-3.13,9.08-6.28,14.18-8.37,2.49-1,5.09-1.78,7.6-2.78,3.86-1.55,7.47-3.67,11.35-5.16A41.89,41.89,0,0,1,296.56,291a60.36,60.36,0,0,0,8.11.95A47.48,47.48,0,0,0,313.3,290.7Z"/><path class="cls-10" d="M323.3,288.62c-.52-2.08-6.88.18-10.34.72s-4.2.21-3.87-.24,7.25-2.81,10.44-3.65,8.28-2.06,7.64-4.27-5.68-.6-10,.42-8.18,3-8.55,2,15.07-6.66,16.19-7.15,4.85-1.86,4.24-3.75-4-1-5.78-.46-6.62,2.15-10.59,3.77-5.23,2.16-5.61,1.56,8.2-5.6,11.38-7.33,5.67-4.12,4-5.72-7.41,2.23-10.84,4.2-9.34,5.39-12,6.19-4.86,2.06-5.08.62h0c-.06-.32-.13-.57-.17-.73-.27-1,.67-3.5,1.69-5.17s.88-4.48.26-6.13-2-2.29-3.25,1.76a28.81,28.81,0,0,1-7.29,11.22c-2.54,2.15-4.36,3.3-4.22,6.91.05,1.19-24.76,8.86-28.43,9.84s2.69,15.54,5.6,14.47,27.16-12.71,28.86-11.62,3.32,1.31,8.7.64c2.68-.33,7.77-1.32,12-2.2,0,0,8-1.62,11-2.55S323.82,290.71,323.3,288.62Z"/><path class="cls-12" d="M183.06,180.5s-13.7,4.17-15.49,17.87-14.29,94.7-4.76,122.1S245,313.91,245,313.91l38.93-13.41-7.58-20.84-77.21,17s4.76-65.52-2.38-88.74S183.06,180.5,183.06,180.5Z"/><circle class="cls-16" cx="241.8" cy="257.38" r="3.67"/><path class="cls-17" d="M245.09,257a3.67,3.67,0,0,1-3.67,3.68,3.62,3.62,0,0,1-1.51-.33,3.67,3.67,0,0,1,1.51-7h.06A3.67,3.67,0,0,1,245.09,257Z"/><circle class="cls-16" cx="241.42" cy="257.04" r="2.48"/><path class="cls-5" d="M245.09,257a3.67,3.67,0,0,1-3.67,3.68,3.62,3.62,0,0,1-1.51-.33,1.43,1.43,0,0,1,.52-.69,4.87,4.87,0,0,1,1-.49,4.68,4.68,0,0,0,2-1.2,1.91,1.91,0,0,0,.31-2.16,3.11,3.11,0,0,0-.44-.52l-1.12-1.11a2.63,2.63,0,0,1-.71-.85A3.67,3.67,0,0,1,245.09,257Z"/><circle class="cls-16" cx="241.8" cy="272.79" r="3.67"/><path class="cls-17" d="M245.09,272.46a3.67,3.67,0,0,1-3.67,3.67,3.48,3.48,0,0,1-1.51-.33,3.67,3.67,0,0,1,1.51-7h.06A3.67,3.67,0,0,1,245.09,272.46Z"/><circle class="cls-16" cx="241.42" cy="272.46" r="2.48"/><path class="cls-5" d="M245.09,272.46a3.67,3.67,0,0,1-3.67,3.67,3.48,3.48,0,0,1-1.51-.33,1.45,1.45,0,0,1,.52-.68,4.42,4.42,0,0,1,1-.49,4.7,4.7,0,0,0,2-1.21,1.9,1.9,0,0,0,.31-2.15,2.75,2.75,0,0,0-.44-.52l-1.12-1.11a2.73,2.73,0,0,1-.71-.85A3.67,3.67,0,0,1,245.09,272.46Z"/><path class="cls-18" d="M222.51,185l19.1,64.17S223,195.66,222.51,185Z"/><path class="cls-18" d="M260.83,185l-19.1,64.17S260.34,195.66,260.83,185Z"/><path class="cls-19" d="M275.08,220a7,7,0,0,1-7,7,7,7,0,0,1-7-7,7,7,0,0,1,7-7,7.11,7.11,0,0,1,1.14.09A7,7,0,0,1,275.08,220Z"/><path class="cls-20" d="M271.58,220a3.49,3.49,0,1,1-3.49-3.49A3.5,3.5,0,0,1,271.58,220Z"/><path class="cls-11" d="M275.08,220a7,7,0,0,1-7,7,6.89,6.89,0,0,1-3.4-.89,1.83,1.83,0,0,1,.76-1.35,15.14,15.14,0,0,1,1.83-1.35c.64-.42,1.29-.82,1.9-1.28a6.19,6.19,0,0,0,2.3-3,3.12,3.12,0,0,0,.15-.75c.16-1.74-2-3.66-2.4-5.31A7,7,0,0,1,275.08,220Z"/><path class="cls-21" d="M262.54,217.58a3.45,3.45,0,0,0-.35,1.6,1.36,1.36,0,0,0,.92,1.24,1.66,1.66,0,0,0,1.64-.93,9.41,9.41,0,0,1,1-1.73c.41-.42,1-.66,1.42-1a1.31,1.31,0,0,0,.47-1.56,1.37,1.37,0,0,0-.9-.56,2.75,2.75,0,0,0-2.7.48A6.78,6.78,0,0,0,262.54,217.58Z"/><path class="cls-19" d="M226.57,225.05A88.86,88.86,0,0,1,224.84,240a5.3,5.3,0,0,1-5,4.55h-.27l-1.29-.08.09-1.53,1.29.07a3.71,3.71,0,0,0,3.64-3.29A85.31,85.31,0,0,0,225,225c.06-5.6-.8-11.32-3.85-15-2.29-2.75-5.68-4.15-10.07-4.15h0a13.73,13.73,0,0,0-10.67,4.46c-3.09,3.45-4.59,8.43-5.25,13.39a64.89,64.89,0,0,0,0,14.78,3.35,3.35,0,0,0,3,3.19l2.92.18-.09,1.53-2.92-.18a4.9,4.9,0,0,1-4.4-4.55,65.81,65.81,0,0,1,0-15c.68-5.26,2.28-10.6,5.63-14.35a15.18,15.18,0,0,1,11.81-4.95h0c4.87,0,8.65,1.57,11.25,4.69C225.71,213.08,226.64,219.15,226.57,225.05Z"/><path class="cls-22" d="M204.78,242.35a2.3,2.3,0,0,1-.5,1.39,3.88,3.88,0,0,1-3.09,1.35c-2,0-3.59-1.23-3.59-2.74s1.61-2.75,3.59-2.75a3.88,3.88,0,0,1,3.09,1.35A2.32,2.32,0,0,1,204.78,242.35Z"/><path class="cls-23" d="M204.78,242.35a2.3,2.3,0,0,1-.5,1.39,2.28,2.28,0,0,1-.49-1.39,2.31,2.31,0,0,1,.49-1.4A2.32,2.32,0,0,1,204.78,242.35Z"/><path class="cls-22" d="M212.72,243.45a2.28,2.28,0,0,1,.49-1.39,3.9,3.9,0,0,1,3.09-1.35c2,0,3.59,1.23,3.59,2.74s-1.61,2.75-3.59,2.75a3.93,3.93,0,0,1-3.09-1.35A2.31,2.31,0,0,1,212.72,243.45Z"/><path class="cls-23" d="M212.72,243.45a2.28,2.28,0,0,1,.49-1.39,2.3,2.3,0,0,1,.5,1.39,2.32,2.32,0,0,1-.5,1.4A2.31,2.31,0,0,1,212.72,243.45Z"/><path class="cls-22" d="M226.57,225.05,225,225c.06-5.6-.8-11.32-3.85-15-2.29-2.75-5.68-4.15-10.07-4.15h0a13.73,13.73,0,0,0-10.67,4.46c-3.09,3.45-4.59,8.43-5.25,13.39l-1.52-.07c.68-5.26,2.28-10.6,5.63-14.35a15.18,15.18,0,0,1,11.81-4.95h0c4.87,0,8.65,1.57,11.25,4.69C225.71,213.08,226.64,219.15,226.57,225.05Z"/><path class="cls-22" d="M213.67,205.07l-1.91-.12c1.07-16,3.7-27.32,7.8-33.77,3.22-5.05,6.22-5.2,6.55-5.2l0,1.91C226,167.9,216.11,168.81,213.67,205.07Z"/><path class="cls-22" d="M269,213.09l-1.9-.16c2.4-27.75-1.8-38.63-5.76-42.88-2.2-2.36-4.11-2.36-4.19-2.36l-.08-1.91c.11,0,2.75-.09,5.55,2.84C267,173.09,271.53,184.43,269,213.09Z"/><path class="cls-24" d="M252.87,135.89s-13,2.94-25.1.55c0,0,2.38,11.08,12.79,10.83C250.37,147,252.8,138.05,252.87,135.89Z"/><path class="cls-8" d="M240.16,141.49c-8,.17-10.42-3.1-11.47-4.88,9.43,1.65,17,.37,23.55-.58C251.57,138.05,247.7,141.32,240.16,141.49Z"/><path class="cls-25" d="M241.34,112.16c-.31,2.87-.7,5.94-2.63,8.09-1.24,1.37-3.06,2.32-3.7,4a4.62,4.62,0,0,0,1.52,4.85,9.66,9.66,0,0,0,4.93,2"/><path class="cls-6" d="M230.58,113.63c0,2.07-1.26,3.76-2.81,3.76S225,115.7,225,113.63s1.25-3.77,2.81-3.77S230.58,111.55,230.58,113.63Z"/><path class="cls-6" d="M215.68,106.16s2.47-5.67,7.61-7.27a13.23,13.23,0,0,1,10,.48,1.72,1.72,0,0,1,.87,2.08h0a1.74,1.74,0,0,1-2.32,1.06C228.87,101.28,222.39,99.8,215.68,106.16Z"/><path class="cls-6" d="M250.17,113.63c0,2.07,1.26,3.76,2.81,3.76s2.81-1.69,2.81-3.76-1.26-3.77-2.81-3.77S250.17,111.55,250.17,113.63Z"/><path class="cls-6" d="M264,106.64s-2-5.84-7-7.84a13.26,13.26,0,0,0-10-.3,1.72,1.72,0,0,0-1,2h0a1.74,1.74,0,0,0,2.22,1.24C251.26,100.75,257.83,99.78,264,106.64Z"/><path class="cls-18" d="M213.27,80.32s13,15.76,57.74,13.19c0,0-1.07-6.17-2.88-8.6C268.13,84.91,223.45,77.68,213.27,80.32Z"/><path class="cls-6" d="M281.48,86.44c2.14-.81-4.52,22.25-2.63,20.93,7.52-5.29,15.12-31.29,14-39.64a13.48,13.48,0,0,0-3.63-7.9,12.18,12.18,0,0,0-7.75-3.15c-3.54-.22-17.92,2.14-18.43,7.6.89-9.62-2.8-14.1-12.16-15.17-8.67-1-17.75-1.21-25.75,2.32C219,54.11,214,58.77,209.57,63.82a14,14,0,0,0-3.46,5.73c-2.3,9.65,17.1,15.27,23.45,17.43A79,79,0,0,0,263,90.79,74.16,74.16,0,0,0,281.48,86.44Z"/></g><rect class="cls-7" x="399.12" y="230.16" width="70.05" height="44.84" rx="3.71" transform="translate(64.98 593.16) rotate(-72.88)"/><rect class="cls-7" x="439.82" y="203.28" width="11.79" height="30.59" transform="translate(105.64 580.22) rotate(-72.88)"/><rect class="cls-26" x="418.53" y="232.45" width="31.88" height="39.35" transform="translate(93.45 -116.7) rotate(17.12)"/><rect class="cls-27" x="430.94" y="241.52" width="6.76" height="21.37" transform="translate(93.46 -116.65) rotate(17.12)"/><rect class="cls-27" x="430.94" y="241.52" width="6.76" height="21.37" transform="translate(803.18 -88.65) rotate(107.12)"/><path class="cls-11" d="M464.79,229.25,446.36,289.1a3.72,3.72,0,0,1-4.64,2.46L410.6,282a6.31,6.31,0,0,1,3.56-1.48c5.58-.77,11.18.79,16.8,1.17s12-.86,15.11-5.54a19.91,19.91,0,0,0,2.25-5.48q5-16.75,9-33.78a38.32,38.32,0,0,0,1.32-8.28c0-.47,0-.93,0-1.4a8.88,8.88,0,0,0-1.16-4.08,4.73,4.73,0,0,0-.89-1.06,9.22,9.22,0,0,0-3.22-1.66c-7.16-2.6-14.29-5.38-21.51-7.79l-.25-.08,1.26-4.07,29.23,9-2,6.47,2.25.7A3.72,3.72,0,0,1,464.79,229.25Z"/><rect class="cls-6" x="428.91" y="207.05" width="37.71" height="9.31" rx="1.79" transform="translate(82.14 -122.41) rotate(17.12)"/><circle class="cls-8" cx="61.94" cy="71.37" r="11.81" transform="translate(-32.06 81.02) rotate(-54.91)"/><path class="cls-8" d="M65.47,74.58l-7.68-4,29.86-57a4.34,4.34,0,0,1,5.85-1.83h0a4.35,4.35,0,0,1,1.83,5.86Z"/><path class="cls-7" d="M66.29,69.73l-4.86-2.55,21-40.06A2.75,2.75,0,0,1,86.12,26h0a2.76,2.76,0,0,1,1.16,3.71Z"/><ellipse class="cls-7" cx="62.17" cy="71.04" rx="7.75" ry="7.87" transform="translate(-29.62 93.12) rotate(-62.34)"/><path class="cls-6" d="M92.12,21.67l-2.63-1.38a.49.49,0,0,1-.2-.67h0a.49.49,0,0,1,.66-.21l2.63,1.38a.5.5,0,0,1,.21.67h0A.51.51,0,0,1,92.12,21.67Z"/><path class="cls-6" d="M89.81,26.09l-1.61-.85a.48.48,0,0,1-.21-.66h0a.48.48,0,0,1,.66-.21l1.61.84a.49.49,0,0,1,.21.67h0A.49.49,0,0,1,89.81,26.09Z"/><path class="cls-6" d="M87.49,30.51l-2.63-1.38a.5.5,0,0,1-.21-.67h0a.49.49,0,0,1,.67-.2L88,29.63a.51.51,0,0,1,.21.67h0A.51.51,0,0,1,87.49,30.51Z"/><path class="cls-6" d="M85.17,34.93l-1.61-.85a.48.48,0,0,1-.2-.66h0a.48.48,0,0,1,.66-.21l1.61.84a.5.5,0,0,1,.21.67h0A.51.51,0,0,1,85.17,34.93Z"/><path class="cls-6" d="M82.86,39.35,80.23,38A.5.5,0,0,1,80,37.3h0a.49.49,0,0,1,.67-.2l2.63,1.37a.51.51,0,0,1,.21.67h0A.51.51,0,0,1,82.86,39.35Z"/><path class="cls-6" d="M80.54,43.77l-1.61-.84a.51.51,0,0,1-.21-.67h0a.5.5,0,0,1,.67-.21l1.61.84a.5.5,0,0,1,.21.67h0A.51.51,0,0,1,80.54,43.77Z"/><path class="cls-6" d="M78.23,48.19,75.6,46.81a.48.48,0,0,1-.21-.66h0a.49.49,0,0,1,.67-.21l2.62,1.37a.49.49,0,0,1,.21.67h0A.48.48,0,0,1,78.23,48.19Z"/><path class="cls-6" d="M75.91,52.61l-1.61-.84a.51.51,0,0,1-.21-.67h0a.5.5,0,0,1,.67-.21l1.61.84a.51.51,0,0,1,.21.67h0A.5.5,0,0,1,75.91,52.61Z"/><path class="cls-6" d="M73.59,57,71,55.65a.48.48,0,0,1-.21-.66h0a.49.49,0,0,1,.67-.21l2.62,1.37a.5.5,0,0,1,.21.67h0A.5.5,0,0,1,73.59,57Z"/><path class="cls-6" d="M71.28,61.45l-1.61-.84a.5.5,0,0,1-.21-.67h0a.5.5,0,0,1,.67-.21l1.61.84a.51.51,0,0,1,.21.67h0A.5.5,0,0,1,71.28,61.45Z"/><path class="cls-27" d="M149.23,132.24a13.38,13.38,0,0,1-1.88,2.92c-.15.18-.31.35-.47.52h0A13.3,13.3,0,0,1,124,124.89v0c0-.23.06-.46.11-.69a13,13,0,0,1,2.62-5.84l.45-.54h0a13.31,13.31,0,0,1,23.14,10.93h0c0,.23-.09.46-.14.69A13,13,0,0,1,149.23,132.24Z"/><path class="cls-11" d="M149.23,132.24a13.38,13.38,0,0,1-1.88,2.92c-.15.18-.31.35-.47.52L124,124.87c0-.23.06-.46.11-.69a13,13,0,0,1,2.62-5.84l.45-.54,23.14,10.93c0,.23-.09.46-.14.69A13,13,0,0,1,149.23,132.24Z"/><path class="cls-28" d="M150.19,129.42l-23.45-11.08.45-.54h0l23.14,10.93h0C150.29,129,150.24,129.19,150.19,129.42Z"/><path class="cls-28" d="M147.35,135.16c-.15.18-.31.35-.47.52h0L124,124.89v0c0-.23.06-.46.11-.69Z"/><path class="cls-7" d="M35.37,311,18,322.24a11.69,11.69,0,0,1-16.15-3.45h0a11.67,11.67,0,0,1,3.45-16.15L22.67,291.4Z"/><path class="cls-6" d="M54.34,284.79a11.68,11.68,0,0,1-3.45,16.15L33.55,312.17l-12.7-19.59,17.34-11.24A11.67,11.67,0,0,1,54.34,284.79Z"/><rect class="cls-29" x="26.01" y="290.74" width="2.29" height="23.42" transform="translate(-160.1 63.39) rotate(-32.94)"/><path class="cls-18" d="M54.34,284.79a11.68,11.68,0,0,1-3.45,16.15l-16,10.39a2.52,2.52,0,0,1-.5-1A4.94,4.94,0,0,1,35,307.1a39.34,39.34,0,0,1,6.66-9.81c1.67-1.81,3.62-3.64,4-6.08.52-3.18-1.85-6-4.52-7.4C40,283.2,38,283,36.73,282.29l1.46-1A11.67,11.67,0,0,1,54.34,284.79Z"/><path class="cls-30" d="M1.92,311.32a10.4,10.4,0,0,0,2.46,6.42,4,4,0,0,0,1,.94,3.54,3.54,0,0,0,3,.09A2.39,2.39,0,0,0,9.52,318a2,2,0,0,0,.11-1.88,8,8,0,0,0-1.05-1.66,13.81,13.81,0,0,1-1.16-2,2.6,2.6,0,0,1-.31-1.25c.07-.85.86-1.43,1.58-1.9L11,307.82c.69-.45,1.47-1.06,1.43-1.89a1.71,1.71,0,0,0-.53-1.06,4,4,0,0,0-3.59-1A7.71,7.71,0,0,0,1.92,311.32Z"/><polygon class="cls-6" points="437.35 92.35 437.12 93.46 427.71 71.13 428.31 70.88 437.35 92.35"/><rect class="cls-7" x="398.82" y="8.3" width="10.21" height="10.82" transform="translate(26.32 157.79) rotate(-22.83)"/><rect class="cls-6" x="393.2" y="6.61" width="16.68" height="2.89" transform="translate(28.33 156.43) rotate(-22.83)"/><rect class="cls-7" x="408.65" y="19.15" width="17.53" height="53.22" transform="translate(14.94 165.54) rotate(-22.83)"/><rect class="cls-7" x="422.09" y="70.18" width="12.4" height="2.85" transform="translate(5.77 171.78) rotate(-22.83)"/><rect class="cls-11" x="421.65" y="70.26" width="12.4" height="0.59" transform="translate(6.14 171.53) rotate(-22.83)"/><rect class="cls-11" x="397.08" y="9.37" width="10.22" height="0.41" transform="translate(27.79 156.79) rotate(-22.83)"/><rect class="cls-11" x="400.82" y="18.27" width="10.22" height="0.41" transform="translate(24.63 158.94) rotate(-22.83)"/><rect class="cls-31" x="414.67" y="42.91" width="14.28" height="26.65" transform="matrix(0.92, -0.39, 0.39, 0.92, 11.23, 168.06)"/><path class="cls-6" d="M420.46,34.76l-2,.82a.35.35,0,0,1-.46-.19h0a.35.35,0,0,1,.19-.46l2-.83a.35.35,0,0,1,.46.19h0A.36.36,0,0,1,420.46,34.76Z"/><path class="cls-6" d="M421.85,38.07l-1.21.5a.36.36,0,0,1-.47-.19h0a.35.35,0,0,1,.2-.46l1.2-.51a.37.37,0,0,1,.47.19h0A.37.37,0,0,1,421.85,38.07Z"/><path class="cls-6" d="M423.23,41.38l-2,.82a.35.35,0,0,1-.46-.19h0a.35.35,0,0,1,.19-.46l2-.83a.35.35,0,0,1,.46.19h0A.36.36,0,0,1,423.23,41.38Z"/><path class="cls-6" d="M424.62,44.69l-1.21.5A.35.35,0,0,1,423,45h0a.35.35,0,0,1,.19-.46l1.2-.51a.37.37,0,0,1,.47.19h0A.37.37,0,0,1,424.62,44.69Z"/><path class="cls-6" d="M426,48l-2,.82a.35.35,0,0,1-.46-.19h0a.35.35,0,0,1,.19-.46l2-.83a.35.35,0,0,1,.46.2h0A.35.35,0,0,1,426,48Z"/><path class="cls-6" d="M427.39,51.31l-1.21.51a.35.35,0,0,1-.46-.2h0a.35.35,0,0,1,.19-.46l1.2-.5a.36.36,0,0,1,.47.19h0A.35.35,0,0,1,427.39,51.31Z"/><path class="cls-6" d="M428.77,54.62l-2,.82a.35.35,0,0,1-.46-.19h0a.35.35,0,0,1,.19-.46l2-.82a.35.35,0,0,1,.46.19h0A.35.35,0,0,1,428.77,54.62Z"/><path class="cls-6" d="M430.16,57.93l-1.21.51a.35.35,0,0,1-.46-.19h0a.36.36,0,0,1,.19-.47l1.2-.5a.36.36,0,0,1,.47.19h0A.35.35,0,0,1,430.16,57.93Z"/><path class="cls-6" d="M431.54,61.24l-2,.83a.37.37,0,0,1-.47-.19h0a.36.36,0,0,1,.19-.47l2-.82a.35.35,0,0,1,.46.19h0A.35.35,0,0,1,431.54,61.24Z"/><path class="cls-6" d="M432.93,64.55l-1.21.51a.35.35,0,0,1-.46-.19h0a.36.36,0,0,1,.19-.47l1.2-.5a.36.36,0,0,1,.47.19h0A.35.35,0,0,1,432.93,64.55Z"/><path class="cls-11" d="M415.17,17.84l20.64,49-11.49,4.84a3.32,3.32,0,0,1-.24-3.76c.61-1.22,1.61-2.21,2.32-3.39a10.49,10.49,0,0,0,1.07-6.82A31.22,31.22,0,0,0,425.39,51Q421.63,41.5,417.85,32c-1.22-3.12-2.85-6.61-6.07-7.53-3.76-1.07-8,2.29-11.69,2.74L399,24.64Z"/><rect class="cls-6" x="395.8" y="18.51" width="21.92" height="3.89" transform="translate(23.93 159.42) rotate(-22.83)"/><path class="cls-7" d="M159.81,1.17l33.64,36.31a3.63,3.63,0,0,1-.2,5.13L183,52.13a3.62,3.62,0,0,1-5.13-.19L144.2,15.63a3.64,3.64,0,0,1,.2-5.14L154.69,1A3.6,3.6,0,0,1,159.81,1.17Z"/><rect class="cls-6" x="160.47" y="17.65" width="16.36" height="17.15" rx="3.1" transform="translate(27.1 121.58) rotate(-42.8)"/><path class="cls-26" d="M148.09,13.52a1,1,0,1,1-1.38,0A1,1,0,0,1,148.09,13.52Z"/><path class="cls-26" d="M150.89,10.92a1,1,0,1,1-1.43,1.33,1,1,0,0,1,1.43-1.33Z"/><path class="cls-26" d="M153.7,8.33a1,1,0,1,1-1.38-.05A1,1,0,0,1,153.7,8.33Z"/><path class="cls-26" d="M156.5,5.73a1,1,0,1,1-1.38-.05A1,1,0,0,1,156.5,5.73Z"/><path class="cls-26" d="M159.3,3.14a1,1,0,1,1-1.38-.06A1,1,0,0,1,159.3,3.14Z"/><path class="cls-26" d="M151.57,14.62a1,1,0,1,1-1.38,0A1,1,0,0,1,151.57,14.62Z"/><path class="cls-26" d="M154.37,12a1,1,0,1,1-1.43,1.33A1,1,0,0,1,153,12,1,1,0,0,1,154.37,12Z"/><path class="cls-26" d="M157.18,9.43a1,1,0,0,1-.06,1.38,1,1,0,1,1,.06-1.38Z"/><path class="cls-26" d="M160,6.83a1,1,0,1,1-1.38,0A1,1,0,0,1,160,6.83Z"/><path class="cls-26" d="M152.64,18.44a1,1,0,1,1-1.43,1.32,1,1,0,1,1,1.43-1.32Z"/><path class="cls-26" d="M155.45,15.84a1,1,0,1,1-1.38-.05A1,1,0,0,1,155.45,15.84Z"/><path class="cls-26" d="M158.25,13.24a1,1,0,1,1-1.38-.05A1,1,0,0,1,158.25,13.24Z"/><path class="cls-26" d="M161.05,10.65a1,1,0,1,1-1.38-.05A1,1,0,0,1,161.05,10.65Z"/><path class="cls-26" d="M163.85,8.05a1,1,0,0,1-1.43,1.33A1,1,0,0,1,162.48,8,1,1,0,0,1,163.85,8.05Z"/><path class="cls-26" d="M156.13,19.54a1,1,0,0,1-1.44,1.32,1,1,0,1,1,1.44-1.32Z"/><path class="cls-26" d="M158.93,16.94a1,1,0,1,1-1.43,1.33,1,1,0,0,1,1.43-1.33Z"/><path class="cls-26" d="M161.73,14.34a1,1,0,1,1-1.38-.05A1,1,0,0,1,161.73,14.34Z"/><path class="cls-26" d="M164.53,11.75a1,1,0,1,1-1.38-.05A1,1,0,0,1,164.53,11.75Z"/><path class="cls-26" d="M174.39,41.92a1,1,0,0,1,0,1.38A1,1,0,0,1,173,41.87,1,1,0,0,1,174.39,41.92Z"/><path class="cls-26" d="M177.2,39.32a1,1,0,1,1-1.38,0A1,1,0,0,1,177.2,39.32Z"/><path class="cls-26" d="M180,36.73a1,1,0,1,1-1.43,1.32A1,1,0,1,1,180,36.73Z"/><path class="cls-26" d="M182.8,34.13a1,1,0,1,1-1.38-.05A1,1,0,0,1,182.8,34.13Z"/><path class="cls-26" d="M185.6,31.54a1,1,0,1,1-1.43,1.32,1,1,0,1,1,1.43-1.32Z"/><path class="cls-26" d="M177.87,43A1,1,0,1,1,176.5,43,1,1,0,0,1,177.87,43Z"/><path class="cls-26" d="M180.68,40.42a1,1,0,0,1-.06,1.38,1,1,0,0,1-1.32-1.43A1,1,0,0,1,180.68,40.42Z"/><path class="cls-26" d="M183.48,37.83a1,1,0,1,1-1.38-.06A1,1,0,0,1,183.48,37.83Z"/><path class="cls-26" d="M186.28,35.23a1,1,0,1,1-1.38,0A1,1,0,0,1,186.28,35.23Z"/><path class="cls-26" d="M179,46.84a1,1,0,0,1-1.44,1.32A1,1,0,0,1,179,46.84Z"/><path class="cls-26" d="M181.75,44.24a1,1,0,1,1-1.38-.05A1,1,0,0,1,181.75,44.24Z"/><path class="cls-26" d="M184.55,41.64a1,1,0,1,1-1.38,0A1,1,0,0,1,184.55,41.64Z"/><path class="cls-26" d="M187.35,39.05A1,1,0,1,1,186,39,1,1,0,0,1,187.35,39.05Z"/><path class="cls-26" d="M190.16,36.45a1,1,0,1,1-1.38-.05A1,1,0,0,1,190.16,36.45Z"/><path class="cls-26" d="M182.43,47.93a1,1,0,0,1-.06,1.38,1,1,0,0,1-1.37-.05,1,1,0,0,1,.05-1.38A1,1,0,0,1,182.43,47.93Z"/><path class="cls-26" d="M185.23,45.34a1,1,0,1,1-1.43,1.32,1,1,0,0,1,1.43-1.32Z"/><path class="cls-26" d="M188,42.74a1,1,0,1,1-1.38-.05A1,1,0,0,1,188,42.74Z"/><path class="cls-26" d="M190.84,40.15a1,1,0,1,1-1.38-.06A1,1,0,0,1,190.84,40.15Z"/><path class="cls-18" d="M159.81,1.17l33.64,36.31a3.63,3.63,0,0,1-.2,5.13L183,52.08a6.46,6.46,0,0,1-4.68-3.89c-.72-2-.22-4.2,0-6.31.88-8.93-3.67-17.5-9-24.67a39.13,39.13,0,0,0-6.93-7.49c-2.91-2.28-6.17-3.46-9.47-5a10.63,10.63,0,0,1-1.41-.78l3.2-3A3.6,3.6,0,0,1,159.81,1.17Z"/><circle class="cls-26" cx="308.13" cy="31.45" r="17.29" transform="translate(206.21 323.93) rotate(-76.62)"/><rect class="cls-27" x="304.97" y="21.1" width="6.76" height="21.37" transform="translate(23.01 -89.34) rotate(17.12)"/><rect class="cls-27" x="304.97" y="21.1" width="6.76" height="21.37" transform="translate(429.48 -253.56) rotate(107.12)"/><path class="cls-4" d="M465.75,371.39h-9.27V358.32H403.57v62.86a13.21,13.21,0,0,0,6.63,11.47,13,13,0,0,0,6.62,1.79h26.4a13.26,13.26,0,0,0,13.26-13.26V405.9h9.27a13.1,13.1,0,0,0,13.08-13.09v-8.34A13.1,13.1,0,0,0,465.75,371.39Zm8.9,21.42a8.91,8.91,0,0,1-8.9,8.9h-9.27V375.58h9.27a8.9,8.9,0,0,1,8.9,8.89Z"/><circle class="cls-27" cx="430.95" cy="394.29" r="15.32"/><path class="cls-5" d="M465.75,371.39h-9.27V358.32h-11.6c.29,1.69,1.11,3.68,1.37,5.14.41,2.28.73,4.58,1,6.88.49,4.57.69,9.17.74,13.76.06,5.29-.08,10.57-.23,15.85-.12,4.21-.32,8.69-2.74,12.12a21.79,21.79,0,0,1-5.27,4.76c-6,4.34-12.11,8.72-19,11.49-3.13,1.26-6.39,2.18-9.42,3.65a8.16,8.16,0,0,0-1.12.68,13,13,0,0,0,6.62,1.79h26.4a13.26,13.26,0,0,0,13.26-13.26V405.9h9.27a13.1,13.1,0,0,0,13.08-13.09v-8.34A13.1,13.1,0,0,0,465.75,371.39Zm8.9,21.42a8.91,8.91,0,0,1-8.9,8.9h-9.27V375.58h9.27a8.9,8.9,0,0,1,8.9,8.89Z"/></g></g></g></svg>