<svg xmlns="http://www.w3.org/2000/svg" viewBox="0 0 2180.85 1612.83"><defs><style>.cls-1{opacity:0.2;}.cls-2{fill:#807672;}.cls-3{fill:#60626e;}.cls-4{fill:#cbe9e2;}.cls-10,.cls-11,.cls-4,.cls-5,.cls-6,.cls-7,.cls-8,.cls-9{fill-rule:evenodd;}.cls-5{fill:#fff;}.cls-6{fill:#c3daff;}.cls-7{fill:#d8e4f3;}.cls-8{fill:#b2b7bd;}.cls-9{fill:#e9e2e0;}.cls-10{fill:#7e7474;}.cls-11{fill:#7f7676;}.cls-12{fill:#ffb8d4;}</style></defs><g id="Layer_2" data-name="Layer 2"><g id="_Layer_" data-name="&lt;Layer&gt;"><g class="cls-1"><path class="cls-2" d="M1244.07,489.6a2.75,2.75,0,0,1-1.5-5.06L1949.38,26.93a2.75,2.75,0,0,1,3,4.62L1245.56,489.16A2.81,2.81,0,0,1,1244.07,489.6Z"/><path class="cls-2" d="M1411.79,450.79a2.75,2.75,0,0,1-1.21-5.22L2173.6,73a2.75,2.75,0,1,1,2.42,4.94L1413,450.51A2.78,2.78,0,0,1,1411.79,450.79Z"/><path class="cls-2" d="M1427.9,459.53a2.75,2.75,0,0,1-1.22-5.21l285-141.75a2.75,2.75,0,1,1,2.45,4.92l-285,141.75A2.68,2.68,0,0,1,1427.9,459.53Z"/><path class="cls-2" d="M1445.33,467.18a2.75,2.75,0,0,1-1.18-5.24l248.76-117.77a2.75,2.75,0,0,1,2.36,5L1446.51,466.92A2.89,2.89,0,0,1,1445.33,467.18Z"/><path class="cls-2" d="M1715.74,1186.36a2.75,2.75,0,0,1-2.75-2.73l-4.59-858.34a2.74,2.74,0,0,1,2.74-2.76h0a2.74,2.74,0,0,1,2.75,2.73l4.59,858.34a2.74,2.74,0,0,1-2.74,2.76Z"/><path class="cls-2" d="M1695.12,1165.2h0a2.74,2.74,0,0,1-2.75-2.75l.6-805.26a2.75,2.75,0,0,1,2.75-2.75h0a2.75,2.75,0,0,1,2.75,2.76l-.6,805.25A2.75,2.75,0,0,1,1695.12,1165.2Z"/><path class="cls-2" d="M1624.33,1110.06a2.76,2.76,0,0,1-2.75-2.72l-8.74-713.85a2.75,2.75,0,0,1,2.71-2.79h0a2.75,2.75,0,0,1,2.75,2.72l8.74,713.85a2.75,2.75,0,0,1-2.71,2.79Z"/><path class="cls-2" d="M1610.23,1105.94a2.74,2.74,0,0,1-2.75-2.72l-6.64-703.82a2.76,2.76,0,0,1,2.72-2.78h0a2.75,2.75,0,0,1,2.75,2.73l6.64,703.81a2.75,2.75,0,0,1-2.73,2.78Z"/><path class="cls-2" d="M1518.11,1016.27a2.75,2.75,0,0,1-2.75-2.68L1500.43,445.9a2.76,2.76,0,0,1,2.68-2.82,2.64,2.64,0,0,1,2.82,2.68l14.92,567.69a2.75,2.75,0,0,1-2.67,2.82Z"/><path class="cls-2" d="M1503.61,1006.69a2.75,2.75,0,0,1-2.75-2.69l-12.14-551.74a2.74,2.74,0,0,1,2.69-2.81h.06a2.75,2.75,0,0,1,2.75,2.69l12.14,551.74a2.75,2.75,0,0,1-2.69,2.81Z"/><path class="cls-2" d="M1529.89,1002.24a2.74,2.74,0,0,1-2.74-2.67L1510.9,445.43a2.75,2.75,0,0,1,2.67-2.83,2.68,2.68,0,0,1,2.83,2.67l16.24,554.14a2.75,2.75,0,0,1-2.67,2.83Z"/><path class="cls-2" d="M1637.47,1093.24a2.75,2.75,0,0,1-2.75-2.71L1625,390.66a2.76,2.76,0,0,1,2.71-2.79,2.62,2.62,0,0,1,2.79,2.72l9.76,699.86a2.75,2.75,0,0,1-2.71,2.79Z"/><path class="cls-2" d="M1500.58,976.45a2.82,2.82,0,0,1-1.79-.65l-50-42.66a2.75,2.75,0,1,1,3.57-4.19l50,42.65a2.75,2.75,0,0,1-1.79,4.85Z"/><path class="cls-2" d="M1609.9,1069.56a2.74,2.74,0,0,1-1.78-.65l-9.11-7.7-71-60.51a2.76,2.76,0,1,1,3.58-4.19l80.09,68.2a2.75,2.75,0,0,1-1.78,4.85Z"/><path class="cls-2" d="M1690,1137.89a2.8,2.8,0,0,1-1.79-.65L1635.12,1092a2.75,2.75,0,0,1,3.57-4.19l53.09,45.24a2.75,2.75,0,0,1-1.78,4.85Z"/><path class="cls-2" d="M1501.55,992.59a2.73,2.73,0,0,1-1.79-.67l-51.6-44.29a2.75,2.75,0,0,1,3.59-4.17l51.59,44.29a2.75,2.75,0,0,1-1.79,4.84Z"/><path class="cls-2" d="M1608.7,1085.23a2.74,2.74,0,0,1-1.8-.67l-87.59-75.86a2.75,2.75,0,0,1,3.6-4.15l87.59,75.85a2.74,2.74,0,0,1,.27,3.88A2.71,2.71,0,0,1,1608.7,1085.23Z"/><path class="cls-2" d="M1688.42,1153a2.75,2.75,0,0,1-1.79-.66l-64.92-55.73a2.75,2.75,0,1,1,3.58-4.17l64.92,55.72a2.75,2.75,0,0,1-1.79,4.84Z"/><path class="cls-2" d="M2163.21,1596.87a2.77,2.77,0,0,1-1.82-.68L1456.46,975.65a2.75,2.75,0,0,1,3.63-4.13L2165,1592.06a2.75,2.75,0,0,1-1.82,4.81Z"/><path class="cls-2" d="M1850.56,1295.3h0a2.75,2.75,0,0,1-2.75-2.75l.66-1044.79a2.75,2.75,0,0,1,2.75-2.75h0a2.75,2.75,0,0,1,2.75,2.75l-.66,1044.79A2.74,2.74,0,0,1,1850.56,1295.3Z"/><path class="cls-2" d="M1969.33,1400.69h0a2.74,2.74,0,0,1-2.74-2.76l1.32-1213.17a2.75,2.75,0,0,1,2.75-2.75h0a2.75,2.75,0,0,1,2.75,2.75l-1.32,1213.18A2.75,2.75,0,0,1,1969.33,1400.69Z"/><path class="cls-2" d="M1988,1411.55h0a2.73,2.73,0,0,1-2.74-2.75l1.32-1213.18a2.74,2.74,0,0,1,2.75-2.74h0a2.75,2.75,0,0,1,2.75,2.75l-1.33,1213.18A2.74,2.74,0,0,1,1988,1411.55Z"/><path class="cls-2" d="M984.35,489.6a2.76,2.76,0,0,1-1.48-.43L260.48,29.4a2.76,2.76,0,0,1,3-4.65L985.83,484.53a2.75,2.75,0,0,1-1.48,5.07Z"/><path class="cls-2" d="M763.23,438.77a2.82,2.82,0,0,1-1.19-.27L2.57,75.72a2.75,2.75,0,1,1,2.37-5L764.42,433.54a2.75,2.75,0,0,1-1.19,5.23Z"/><path class="cls-2" d="M2.75,1607.37a2.74,2.74,0,0,1-1.81-4.81L736.24,956a2.75,2.75,0,0,1,3.63,4.13L4.57,1606.69A2.75,2.75,0,0,1,2.75,1607.37Z"/><path class="cls-2" d="M2003.53,270.15a2.75,2.75,0,0,1-1-5.31l174.57-67a2.75,2.75,0,1,1,2,5.14l-174.57,67A2.61,2.61,0,0,1,2003.53,270.15Z"/><path class="cls-2" d="M2005,627a2.75,2.75,0,0,1-.37-5.48c94-13.13,169.89-24.08,171.6-24.37l.46,2.71,2.77-.19c.18,2.56.18,2.56-16,4.89-8.77,1.27-21.44,3.09-37,5.31-31.2,4.46-74.13,10.54-121,17.1Z"/><path class="cls-2" d="M2003.14,721.93a2.75,2.75,0,0,1-.15-5.5l171.4-9.87a2.79,2.79,0,0,1,2.9,2.59,2.74,2.74,0,0,1-2.59,2.9l-171.4,9.87Z"/><path class="cls-2" d="M2176.32,1088.81a2.87,2.87,0,0,1-.64-.08l-171.17-40a2.75,2.75,0,0,1,1.25-5.36l171.18,40a2.75,2.75,0,0,1-.62,5.43Z"/><path class="cls-2" d="M2176.73,602.65a2.75,2.75,0,0,1-2.75-2.75V199.72a2.75,2.75,0,1,1,5.5,0V599.9A2.75,2.75,0,0,1,2176.73,602.65Z"/><path class="cls-2" d="M2176.73,1087.34a2.75,2.75,0,0,1-2.75-2.74V708.77a2.75,2.75,0,0,1,5.5,0V1084.6A2.75,2.75,0,0,1,2176.73,1087.34Z"/><path class="cls-2" d="M2005,627a2.75,2.75,0,0,1-2.75-2.75l-1-356.24a2.74,2.74,0,0,1,2.74-2.75h0a2.74,2.74,0,0,1,2.74,2.74l1,356.24A2.76,2.76,0,0,1,2005,627Z"/><path class="cls-2" d="M2004.05,1046.92a2.75,2.75,0,0,1-2.75-2.75v-325a2.75,2.75,0,1,1,5.49,0v325A2.75,2.75,0,0,1,2004.05,1046.92Z"/><path class="cls-2" d="M394.45,338.82a2.84,2.84,0,0,1-1.09-.23L192.22,251.66a2.75,2.75,0,0,1,2.18-5l201.14,86.93a2.75,2.75,0,0,1-1.09,5.28Z"/><path class="cls-2" d="M690.36,464.78a2.6,2.6,0,0,1-1.09-.23L546.49,403a2.75,2.75,0,0,1,2.18-5.05L691.45,459.5a2.75,2.75,0,0,1-1.09,5.28Z"/><path class="cls-2" d="M211.59,1313.13a2.75,2.75,0,0,1-1.64-5l177.39-131.05a2.75,2.75,0,1,1,3.27,4.43l-177.39,131A2.75,2.75,0,0,1,211.59,1313.13Z"/><path class="cls-2" d="M555.07,1059.69a2.75,2.75,0,0,1-1.64-5l133.92-98.89a2.75,2.75,0,0,1,3.27,4.43L556.7,1059.15A2.75,2.75,0,0,1,555.07,1059.69Z"/><path class="cls-2" d="M200.62,1411.34a2.75,2.75,0,0,1-2.75-2.73L192.39,251a2.76,2.76,0,0,1,2.74-2.77h0a2.75,2.75,0,0,1,2.75,2.74l5.48,1157.63a2.74,2.74,0,0,1-2.73,2.76Z"/><path class="cls-2" d="M211.59,1411.34a2.74,2.74,0,0,1-2.75-2.73L203.35,276.47a2.75,2.75,0,0,1,2.74-2.76,2.71,2.71,0,0,1,2.77,2.73l5.48,1132.14a2.74,2.74,0,0,1-2.74,2.76Z"/><path class="cls-2" d="M540.44,551.36a2.75,2.75,0,0,1-2.75-2.73l-1.08-139.74a2.75,2.75,0,0,1,2.73-2.77h0a2.75,2.75,0,0,1,2.75,2.73l1.08,139.74a2.74,2.74,0,0,1-2.73,2.77Z"/><path class="cls-2" d="M544.84,1110.06a2.76,2.76,0,0,1-2.75-2.73l-3.48-441.72a2.75,2.75,0,0,1,2.73-2.77h0a2.76,2.76,0,0,1,2.76,2.72l3.47,441.73a2.75,2.75,0,0,1-2.72,2.77Z"/><path class="cls-2" d="M548.79,557.65a2.75,2.75,0,0,1-2.75-2.73l-1.21-154.43a2.75,2.75,0,0,1,5.5,0l1.21,154.42a2.76,2.76,0,0,1-2.73,2.78Z"/><path class="cls-2" d="M553.06,1115.26a2.76,2.76,0,0,1-2.75-2.73l-3.43-446a2.76,2.76,0,0,1,2.73-2.78h0a2.75,2.75,0,0,1,2.75,2.74l3.44,446a2.76,2.76,0,0,1-2.74,2.77Z"/><path class="cls-2" d="M389,1259.37a2.74,2.74,0,0,1-2.75-2.73l-5.48-903.95a2.75,2.75,0,0,1,2.74-2.76h0a2.75,2.75,0,0,1,2.75,2.73l5.49,903.95a2.75,2.75,0,0,1-2.74,2.76Z"/><path class="cls-2" d="M399.94,1247.74a2.74,2.74,0,0,1-2.75-2.73L391.7,344.29a2.76,2.76,0,0,1,2.74-2.77h0a2.75,2.75,0,0,1,2.76,2.74L402.69,1245a2.76,2.76,0,0,1-2.74,2.77Z"/><path class="cls-2" d="M689,992.59a2.76,2.76,0,0,1-2.76-2.72l-5.48-511.8a2.76,2.76,0,0,1,2.72-2.78,2.64,2.64,0,0,1,2.78,2.72l5.49,511.8a2.76,2.76,0,0,1-2.73,2.78Z"/><path class="cls-2" d="M697.21,989.79a2.76,2.76,0,0,1-2.76-2.72L689,469.67a2.74,2.74,0,0,1,2.72-2.78,2.86,2.86,0,0,1,2.78,2.72L700,987a2.76,2.76,0,0,1-2.73,2.78Z"/><path class="cls-2" d="M557.74,560.53a2.81,2.81,0,0,1-.94-.16l-80.86-29.15a2.75,2.75,0,1,1,1.86-5.17l80.87,29.14a2.75,2.75,0,0,1-.93,5.34Z"/><path class="cls-2" d="M573.91,669.22h-.14L487,664.94a2.75,2.75,0,1,1,.27-5.49L574,663.72a2.75,2.75,0,0,1-.13,5.5Z"/><path class="cls-2" d="M574.63,664.3a2.76,2.76,0,0,1-2.72-2.34l-15.1-98.51a2.75,2.75,0,0,1,2.3-3.14,2.79,2.79,0,0,1,3.14,2.3l15.1,98.52a2.76,2.76,0,0,1-2.3,3.14Z"/><path class="cls-2" d="M487.16,658.7a2.75,2.75,0,0,1-2.74-2.52L474.13,531.25a2.75,2.75,0,1,1,5.48-.45L489.9,655.72a2.75,2.75,0,0,1-2.52,3Z"/><path class="cls-2" d="M482,659.77a2.76,2.76,0,0,1-2.74-2.53L469,532.32a2.75,2.75,0,1,1,5.48-.46l10.29,124.93a2.76,2.76,0,0,1-2.52,3Z"/><path class="cls-2" d="M480,639.43a2.77,2.77,0,0,1-1.65-.55l-11.57-8.69a2.76,2.76,0,0,1-1.08-1.87l-3.3-27.12a2.77,2.77,0,0,1,.7-2.18l6.19-6.79L472,569.55a2.75,2.75,0,1,1,5.46.65l-2.83,23.56a2.7,2.7,0,0,1-.7,1.53l-5.92,6.5,3,24.7,10.64,8a2.75,2.75,0,0,1-1.66,4.95Z"/><path class="cls-2" d="M506.33,12a2.75,2.75,0,0,1,0-5.5L1663.85,0h0a2.75,2.75,0,0,1,0,5.5L506.34,12Z"/><path class="cls-2" d="M508.47,31.1a2.75,2.75,0,0,1,0-5.5l1149.69-6.53h0a2.76,2.76,0,0,1,0,5.51L508.48,31.1Z"/><path class="cls-2" d="M572.34,74.66c-10.27,0-32.11-1.16-45.2-10.26C509.86,52.39,504.61,30,504.39,29a2.73,2.73,0,0,1-.06-.5l-.75-19.14a2.75,2.75,0,1,1,5.5-.22L509.81,28c.59,2.32,5.85,21.68,20.47,31.84,15.64,10.88,47.05,9.17,47.36,9.15a2.75,2.75,0,0,1,.33,5.5C577.64,74.55,575.55,74.66,572.34,74.66Z"/><path class="cls-2" d="M1597.39,68.13c-3.22,0-5.3-.11-5.63-.13a2.74,2.74,0,0,1-2.58-2.91,2.8,2.8,0,0,1,2.9-2.58c.32,0,31.74,1.7,47.36-9.15,14.68-10.21,19.89-29.53,20.47-31.85l.74-18.87a2.75,2.75,0,0,1,5.5.22L1665.4,22a2.74,2.74,0,0,1-.07.5c-.22.95-5.46,23.36-22.75,35.37C1629.49,67,1607.66,68.13,1597.39,68.13Z"/><path class="cls-2" d="M577.8,74.65a2.75,2.75,0,0,1,0-5.5l1013.1-7.35h0a2.75,2.75,0,0,1,0,5.5L577.82,74.65Z"/><path class="cls-2" d="M799.17,206.5a2.75,2.75,0,0,1,0-5.5l587.13-3.39h0a2.75,2.75,0,0,1,0,5.5L799.18,206.5Z"/><path class="cls-2" d="M800.25,216.41a2.75,2.75,0,0,1,0-5.5l583.15-3.39h0a2.75,2.75,0,0,1,0,5.5l-583.15,3.39Z"/><path class="cls-2" d="M832.71,239c-5.34,0-16.82-.62-23.79-5.58-9.17-6.53-11.94-18.65-12.06-19.16a3.86,3.86,0,0,1-.06-.49l-.38-9.94a2.75,2.75,0,1,1,5.5-.21l.37,9.66c.39,1.54,3,10.79,9.83,15.66,7.51,5.35,23,4.5,23.14,4.5a2.75,2.75,0,0,1,.33,5.49C835.42,239,834.36,239,832.71,239Z"/><path class="cls-2" d="M1352.52,235.64c-1.64,0-2.7-.06-2.87-.07a2.74,2.74,0,0,1-2.58-2.91,2.82,2.82,0,0,1,2.9-2.58c.17,0,15.62.86,23.15-4.5,6.87-4.9,9.44-14.12,9.83-15.66l.37-9.66a2.66,2.66,0,0,1,2.85-2.65,2.76,2.76,0,0,1,2.65,2.86l-.38,9.94a2.76,2.76,0,0,1-.07.49c-.11.51-2.88,12.63-12.06,19.16C1369.35,235,1357.87,235.64,1352.52,235.64Z"/><path class="cls-2" d="M835.43,239a2.75,2.75,0,1,1,0-5.5l513.86-3.82h0a2.75,2.75,0,0,1,0,5.5L835.45,239Z"/><path class="cls-2" d="M933.47,369.36a2.75,2.75,0,0,1,0-5.5l354.08-2.8h0a2.75,2.75,0,0,1,0,5.5l-354.08,2.8Z"/><path class="cls-2" d="M934.12,377.54a2.76,2.76,0,0,1,0-5.51l351.68-2.79a2.86,2.86,0,0,1,2.77,2.72,2.76,2.76,0,0,1-2.73,2.78l-351.68,2.8Z"/><path class="cls-2" d="M953.74,396.2c-3.42,0-10.82-.55-15.34-5-5.67-5.52-7.35-15.56-7.42-16l-.26-8.57a2.75,2.75,0,0,1,5.5-.16l.22,8.2h0s1.51,8.4,5.8,12.57c3.43,3.34,10.45,3.55,12.87,3.36a2.75,2.75,0,0,1,.45,5.48C955.45,396.15,954.78,396.2,953.74,396.2Z"/><path class="cls-2" d="M1267.13,393.4c-1,0-1.71,0-1.82,0a2.75,2.75,0,0,1-2.51-3,2.81,2.81,0,0,1,3-2.52c2.44.19,9.47,0,12.87-3.36,3.64-3.54,5.44-10.53,5.83-12.92l.2-7.84a2.75,2.75,0,0,1,2.75-2.68h.07a2.75,2.75,0,0,1,2.67,2.83l-.22,8.2c-.11.79-1.79,10.83-7.45,16.35C1277.94,392.85,1270.54,393.4,1267.13,393.4Z"/><path class="cls-2" d="M955.33,396.2a2.75,2.75,0,0,1,0-5.5l309.9-3.15a2.75,2.75,0,0,1,.06,5.5l-309.9,3.15Z"/><path class="cls-3" d="M1238.53,1001.13H1207a1.84,1.84,0,1,1,0-3.67h29.74v-507H989.44v507h60.33a1.84,1.84,0,1,1,0,3.67H987.61a1.84,1.84,0,0,1-1.83-1.84V488.6a1.83,1.83,0,0,1,1.83-1.83h250.92a1.83,1.83,0,0,1,1.83,1.83V999.29A1.84,1.84,0,0,1,1238.53,1001.13Z"/><path class="cls-3" d="M1229.7,983.16a1.83,1.83,0,0,1-1.83-1.83V498.42H998.27V981.33a1.84,1.84,0,0,1-3.67,0V496.59a1.84,1.84,0,0,1,1.84-1.83H1229.7a1.84,1.84,0,0,1,1.84,1.83V981.33A1.84,1.84,0,0,1,1229.7,983.16Z"/></g><path class="cls-4" d="M673.89,728c-1.62-6.75-13.33,9.38-15.09,15-2.66,8.52-2,18-3.53,26.77-1.92,11-4.42,21.79-5.43,32.87-2.27,24.66-4.82,50.73-10,74.91-1.52,7.06-6.1,19.25-4.44,26.12s10.38-4.94,11.13-4.7c2,.63,0,4.19-.1,6.28-.46,7.88.77,15.71.44,23.56-1.27,30.17,1,60.2.37,90.43-1.44,70.9,1.6,142.25,5.16,213.09,2.72,54,8.82,107.61,6.66,161.9-1.45,36.5-12.44,58.75-15.2,94.86-.53,7-12,45.1-8.83,45.17,11.88.28,127.27,1.41,128,1.24,2.58-.59-7.12-24-7.68-33.14-2.25-36.73-5-73.47-5.68-110.3-1.85-97.44,6.38-193.66,12-290.61,3-52.26,12.08-104.58,13-156.89.21-12.79-1.54-25.76-1-38.58.13-2.89-.44-13.13,1.73-15.06,1.32-1.17,3.44,4.39,3.69,4.86,2.1,4,7.09,18.28,11.15,20.21,2.8,1.34,5.16-6.71,5.9-8.19,4.66-9.22,8.38-19.26,12.7-28.74,6.63-14.56,17-26.72,25.5-40,12.92-20.21,23.47-42.69,32.88-64.8,9.77-23,17.42-42.46.12-64.63-.94-1.21-6.71-9.51-8.91-8.36-4.47,2.34-1.86,15.39-3.44,19.36-6,15.06-19.35,28.47-30.67,39.86C806,778.91,785.59,794.91,767.4,813c-11.59,11.48-28.59,18.93-33.88,35.87-4.14,13.25-.67,28-3.7,41.58-4.19,18.75-14.82,35.68-21.88,53.38-3.3,8.26-7.17,16.36-10.3,24.66-1,2.54-.18,8.49-2.78,7.68-1.68-.53-.17-8.68-.17-9,.28-6.6.64-13.15,1-19.76,1.54-30.2,9.75-59.14,12.9-88.89,1.62-15.29-14.42-26.08-21.8-37.29-11.6-17.61-12.34-45.15-13.36-65.5C672.93,746.12,676.18,737.49,673.89,728Z"/><path class="cls-5" d="M651.28,766.85c-19.34,6.25-31.41,24.41-41.25,29.88-20.25,11.24-52.4,21.55-74.83,27.16-12.25,3.06-75.06,29.6-115,126.33-12.33,29.88-27.71,62.06-38.29,92.63-30.51,88.15-63.58,187.06-71.36,280.43-5.68,68.21,145,99.31,168,121.44,7.34,7.06-6.22,148.1,2.49,155.07.83.66,87.2,9.08,229.94,8.57,154.25-.56,392-5.79,392-9.84,0-23.7-28.24-123.72-24.16-129.84,6.85-10.27,25.47-39.52,32.48-50,18.32-27.49,27.6-75.84,32.2-108.68,11-78.67-17.49-273-18-315-.67-52.26-7.76-139.3-63.83-169.88-23.73-12.94-47.34-25.38-91.06-40.32-22.76-7.78-33.22-13.59-55.71-22-10.2-3.83-16.14-37.61-44.44-42.11-7.84-1.25,5.25,7.36,3.16,20.68-3.07,19.56-23.1,63.15-23.1,63.15s-46,79.69-57.54,110.26c-4.09,10.84-12.48-22-17.79-17.21-1.65,1.48-25.6,258.48-53.76,379.18-.49,2.12-42.14-3.72-43.73-4.26-17.59-6-23.3-367.77-38-372.85C636,898.25,652.73,766.37,651.28,766.85Z"/><path class="cls-5" d="M1328.45,842.82a351,351,0,0,1-49.16,17.48c-35.9,9.56-80.25,21.13-102.67,69.06-20,42.73-14.47,96.85-10.42,152.48,3.78,52.08,5.51,107.19,5.51,107.19s6.49,58.59,22.82,119.7,44.34,109.53,44.34,109.53-10.36,21.65-20,62.45-18.68,100.77-18.68,100.77,91.57,14.7,163.28,20.09,123.56,1.5,123.56,1.5l9.41-206.76,134.86-57s6.64,2.09,9.14,66.48-1.71,204.83-1.71,204.83,29.69,3.67,77,1.51S1828,1602,1828,1602l-23.08-194.4-12.38-66.7s58.23-1.13,83.53-46.35c10.19-18.22,12.69-45.49,9.86-81.09-5.39-67.63-29.82-130.47-52.93-197.23-19.24-55.58-27.21-113.53-66-159.33-46.45-54.78-102.6-40.38-147.63-36.46-37.84,3.3-73.36-5.13-73.36-5.13s28.5,46.76,46.7,138.29,34.11,249.24,34.11,249.24-18.47,5.15-50.37-4.34c-37.9-11.27-80.48-20.22-80.48-20.22a350.2,350.2,0,0,1-10.89-47.7c-7.92-49-18.08-125.62-35-182.59-11.75-39.41-28.7-70.94-39.82-91.85-14.23-26.76-21.32-37.31-21.32-37.31Z"/><path class="cls-4" d="M756.3,1287.81c-4.77-20.34-30.74,4.52-36.75,11.85-20.81,25.36-39.95,54.79-50,86.18-2.14,6.66-9.13,34.53-7.47,35.32,4.72,2.25,69.74,8.81,74.31,5.78,6-4,6.74-10.12,9.91-16.24,2.09-4,6.07-12.67,5.85-17.5-.05-1-34.89-3.22-35.41-3.75-.78-.78,12.83-67.26,23.34-83.27,1.35-2.06,7.44-10.44,11.68-14.4C755,1288.76,756.87,1290.23,756.3,1287.81Z"/><path class="cls-4" d="M1486.43,1602.79l151.59,7.27s4.93-155.53,1.6-223.87-14.65-48.75-14.65-48.75-35.1,20-54.08,29.56-35,12.61-56.08,20.84-20.64,11.76-20.64,11.76Z"/><path class="cls-4" d="M1412.31,858s15.49,33.16,28.24,69.14,9,14.4,22.65,77.57,31.79,175.1,31.79,175.1,20.87,3,48,9.39c13.77,3.22,32.82,10.27,44.08,12.17,33.47,5.67,39.53,1.73,39.53,1.73l-6.29-28.87s-.48-43.62-13.79-125.7-39.46-202.61-39.46-202.61L1555.4,831l-26.94,157.25-102.9-120.76Z"/><path class="cls-4" d="M1499.64,1184.39c-5.85-2.13-14.53-6.39-21.06-4.51s-11,13-14.41,18.13c-10,15-16.35,30.62-21,47.8-1.7,6.24-5.21,14.64-3.78,21.22.71,3.31,9.37,2.51,11.8,2.94.76.14,3.59,1,4.33.23,1.23-1.24,1.59-4.37,2.18-6,2.08-5.71,4.12-11.59,5.89-17.4a248.67,248.67,0,0,1,9-23.73c5.84-13.86,13.71-24.54,22.86-36.06Z"/><path class="cls-6" d="M1659,1199.94c3.79-15.76,20.91-14.3,31.79-9.09a84.41,84.41,0,0,1,10.51,5.48c.3.2,3,1.27,2.92,1.52-.13,1-10.26-.34-11.32-.36-6-.13-12,1.2-17.81,1.2-3.85,0-7.72,1.93-11.61,2.06C1662.51,1200.78,1658.52,1201.78,1659,1199.94Z"/><path class="cls-4" d="M491.52,1442.49c0-.77-2.8,9-2,11.92.29,1.09,5.58,3.08,6.48,3.61,7.34,4.34,15.43,6.72,23.42,9.61,1.25.45,9.16,2,9.6.95.94-2.14.39-5.39.72-7.69.27-1.91,2.49-8.23,1.82-10.13-.41-1.15-3.3-1.23-4.28-1.58-4.39-1.54-8.75-2.94-13.25-4.08a61.07,61.07,0,0,0-15-1.83C497.3,1443.26,491.5,1443,491.52,1442.49Z"/><path class="cls-5" d="M1365.64,740.79c-3.67-1.84-5.27,5.38-6.28,8.63-2.78,8.94-10.87,24.59-.19,31.27,4.31,2.69,23.24,11.92,24.51,10.65,2.6-2.6.17-12.25-.5-15.22-1.83-8-3.74-19.28-9.17-25.91-2.75-3.36-5-7.1-8.23-8.69Z"/><path class="cls-7" d="M774.25,926.47c-2,32-.19,64-4.24,95.77-1.25,9.84-1.4,20-2.78,29.8-3.2,22.86-5.52,48.87,6.64,69.84,7.44,12.82,17.63,18.89,31.56,22.8,2.76.77,10.69,4.24,12.24.41.61-1.51,3.55-8.35,2.1-9.59-6.54-5.57-19-4.23-26.28-9-11.14-7.32-16.59-20-17.14-33.12-1.81-42.28,8.43-85.15,11-127.29.7-11.22,2.46-22.51,2.22-33.77,0-2.63,1.39-6.65.34-9.11-.53-1.25-3.58-.91-4.58-.87-3.58.15-11,2.63-13.49-.73Z"/><path class="cls-7" d="M924.54,911.48c-1.2-2-.83,12.24-.34,16.94,1.22,11.72.73,23.63,1.72,35.18,3.11,36.11,8.19,72,6.79,108.34-.45,11.58-1.06,23.2-8.29,32.83-3.18,4.23-8.62,6.94-12.25,10.87-4.15,4.47-13.74,3.37-17.45,8.32-2.07,2.75-4.49,10.58,1.7,10,8.89-.76,15.13-5.66,22.1-10.48,7.78-5.38,17.48-12.4,21.29-21.61,3.51-8.51,4-17.16,4.09-26.33.2-23.43-.75-45.76-2.26-69.1-.66-10.25-3.11-20.2-4-30.47-1.18-13.78-3.57-28.84-3-42.51.21-5.28,4.39-13.88,1.84-18.78C934.19,910.41,926.64,915,924.54,911.48Z"/><path class="cls-7" d="M1575,1004.57c-2.84,5.62-.08-1.45-2.22-.61-3.55,1.39.83,7.58,1.33,11.36,1.1,8.53,2.59,17.06,3.77,25.6,5,36,7.73,72.14,22.35,105.64,6.24,14.32,20,21.16,34.73,22,3.32.19,8.09,2.16,11.21.38s1.23-5.15-1.3-6.26c-7.3-3.17-15.46-1.33-22.68-5.61-12.67-7.52-19.08-19.75-21.53-34.64-4.5-27.34-9.93-54.4-12.82-81.81-1.28-12.21-4.17-24.41-6.53-36.4C1580.3,999.4,1576.8,1000.92,1575,1004.57Z"/><path class="cls-7" d="M1698.27,971.32c1.32,15.44,11.38,29.09,15.93,43.94,2.94,9.6,6.12,19,8.81,28.73,3.2,11.49,4.41,27.27,11.21,37.37,1.62,2.41,9.36-7.13,9.22-9.73-.49-9.44-5.4-17.72-7.73-26.84-4.4-17.23-11.16-34.27-16.09-51.47-2.12-7.39-6-14.12-8.43-21.46-.44-1.33-1.17-6.05-3-6.41C1705.49,964.93,1698.07,969,1698.27,971.32Z"/><path class="cls-8" d="M652.15,768.83c.51-3.72-3-1-5.61-.05a56,56,0,0,0-17,9.27c-15.57,12.58-22.73,29.61-28.21,48.33-6.19,21.22-4.83,43.2-6,64.88-2,38-4.25,75.77-4.79,113.85-.22,15.25-1.14,30.47-.31,45.74.13,2.33-1.07,11.58,2.13,12.44.83.22,12.05.73,12.25.47,1.39-1.74.6-5.84.57-7.82-.12-7.46-.12-15.27.1-22.7.83-28.58,3.64-57.52,3.18-86-.27-16.69,1.62-33.87,2.83-50.55,2-27.56,3.88-53.8,12.11-80.6,2.58-8.37,9.22-17.67,16.33-22.68,1.93-1.36,9-2.33,9.86-3.46,1.08-1.36.52-5.36.66-7C650.72,778.32,651.53,773.42,652.15,768.83Z"/><path class="cls-8" d="M776.26,897.16c-.41-4.14-2.9,4.13-3.09,5.63-.64,5.14-1.18,11.31.27,16.37.65,2.29,12.87,2.74,15,1.88,1.89-.75,1.68-3.66.8-4.83C785.43,911.08,776.94,903.94,776.26,897.16Z"/><path class="cls-8" d="M829.5,847.79c-5.94,8.78.52,2.35,5.13-2.7A213.49,213.49,0,0,0,854,820.4c9.1-13.64,28.35-47.92,29.79-61.46.45-4.17,4.1-6.28,9.81,10.08s12.71,44.92,13.73,53.6c2.47,21,8.51,46.76,10.27,67.81.87,10.47-1.36,21.09,11,21.75,2.11.12,9.39-4.26,8.65-8.74-2.19-13.14-6-34-8.23-47.14-4.24-25.42-7.19-47.75-13.83-72.67-3.33-12.47-6.18-23.89-12.62-35.15-6.66-11.67-13.47-23.11-26.84-28.45-2.48-1-5-1.28-5.37,2.14-.42,4.28,3.14,9.12,3.7,13.59,1.1,8.85-2.46,18.67-5.58,26.67-11.2,28.81-26.06,56.77-38.64,85.08Z"/><path class="cls-8" d="M1385,1048.32l10.92,34.28,15.32-3.8-5.08-16.6Z"/><path class="cls-8" d="M1548.29,815.29c1.47,1.6,9.62,3.69,12.18,5,5.4,2.77,13.53,10.08,16,15.66,4.49,10.37-8.28,23.79-11,33.08-2.32,8.05-1.39,16.25-2.17,24.42a292.65,292.65,0,0,0-1.41,36.5,457.39,457.39,0,0,0,5.18,59.41c.71,4.32,5.32,17,12,11.31,2.82-2.42,2.37-6.94,2.37-10.19,0-11-3.37-20.67-5-31.57-3-21-7.84-44.85-4.13-65.92,3.61-20.48,18.71-39.13,39.6-42.66,17.28-2.91,31.59,9.44,40.2,22.58,4.89,7.46,11.66,14.22,15,22.6,5.44,13.63,9,27.81,13.71,41.67,2.86,8.43,5.59,19.61,11.11,26.69,3.35,4.3,10.67,3.85,14.28,0,3.32-3.51,1.56-10.79.54-14.86-3.47-13.95-12.17-25.6-18.07-38.57-8-17.51-14.58-35.43-25.89-51.13-5.21-7.23-12.54-12.38-18.89-18.51a211.33,211.33,0,0,0-53.27-37.41c-13-6.51-30.49-15.52-45.67-13.18-9.45,1.46-2.22,14.42.08,19.18C1546.2,811.79,1546.4,813.24,1548.29,815.29Z"/><path class="cls-5" d="M554.62,1106.12a40,40,0,1,1,40,40.28A40.15,40.15,0,0,1,554.62,1106.12Z"/><path class="cls-8" d="M571.81,1106.12a22.82,22.82,0,1,1,22.82,23A22.89,22.89,0,0,1,571.81,1106.12Z"/><path class="cls-5" d="M1373.14,1121.29c0-22.7,17.59-41.1,39.29-41.1s39.28,18.4,39.28,41.1-17.59,41.1-39.28,41.1S1373.14,1144,1373.14,1121.29Z"/><path class="cls-8" d="M1391.37,1121.29c0-12.16,9.43-22,21.06-22s21,9.87,21,22-9.43,22-21,22S1391.37,1133.45,1391.37,1121.29Z"/><path class="cls-8" d="M828.12,1133.7c-1-.5-3.08-1.25-4.27-.65-2,1-2.9,5.3-3.28,7.33-.5,2.66-1.51,5.91-1.21,8.65.5,4.43,6.44,5.32,10,4.82,3.73-.54,5.15-4.47,5.69-7.67,1.11-6.65-3-14.21-10.84-12.26Z"/><path class="cls-8" d="M890.2,1124.45c-3.72-3.44-12.44-2.28-15.22,2.36-1.26,2.1-1,5.25-1.09,7.55-.11,2.51-.23,4.34,1.53,6.35,2.48,2.84,11.56,2,14.12-.55C891.85,1137.85,892.49,1126.57,890.2,1124.45Z"/><path class="cls-8" d="M1664.18,1159.74c-3.4-1.73-14.24-4.22-16.58,1-1.08,2.38-.33,5.41,0,7.88.23,2,.28,3.59,1.66,5.05s4.51,1.17,6.21,1.07c4.74-.29,9-1.93,9.28-7.4.12-2.37-.16-9.88-4-9.43Z"/><path class="cls-9" d="M647.46,519.76c12,3.51,8.41-28.3,17.6-37.49,19.87-19.87,46-25.42,72.69-27.55,16.74-1.34,34-3.88,50.89-2.68,23.51,1.68,51,16.64,69.63,30.61,14.44,10.83,16.32,25,21.43,41.32,1.39,4.47,3,15.87,8.79,16.83,2.77.46,4.34-6.11,5-8,3.31-9.93,3.18-20.67,4.59-31,5.3-38.88,14.71-88.32-8.8-123.58-11.89-17.83-26.89-32-47.82-39-6.85-2.28-14.27-2.72-21-5-10.24-3.41-19.6-9.35-29.85-13-13.57-4.85-28.57-6.85-42.85-8-16.13-1.34-38.77.18-53.18,9.18-20.28,12.68-37.46,29.48-53.18,47.44-5.93,6.78-13.24,13.83-16.83,22.19-1,2.42,2.5,4.63,3.44,6.51a22.13,22.13,0,0,1,1.53,12.24c-2.21,11.08-6.57,21.78-8.8,32.9-.13.64-.09,11.1.38,11.1.83,0,1.76-6.58,1.92-7.27a34.35,34.35,0,0,1,3.82-9.56c.69-1.18,1.72-4,2.68-3.07,1.58,1.58.77,5.67.77,7.66,0,6.25.91,12.2,1.53,18.36C633.9,482,625.7,513.42,647.46,519.76Z"/><path class="cls-9" d="M1354.79,780.28c-6,3.17-6.33,10.37-9.54,16.11-9,16.18-15.28,35-19.43,53.07-5.62,24.49-10.49,50-8.15,75.12.79,8.54.38,18.08,2.91,26.37,6.1,19.93,12.91,39.5,22.92,57.91,5.65,10.38,11.5,20.7,17.76,30.68,2,3.26,4.69,9.84,8.15,11.68,7,3.7,15.28.82,22.49,3.12,11.46,3.65,19,12.81,29.39,18.31,7.39,3.93,16.14,6.83,22.94,11.79,6.54,4.77,11,11.21,16.77,16.67.7.65,4,4.45,5.3,3.09,2.56-2.63,2.55-11.82,3-15.25,2.29-15.92-2.84-34.12-7.14-49.52-8.37-30-22.89-57.3-34.53-85.93-4.24-10.43-7.26-21.2-11.28-31.69-9.49-24.75-20.33-48.94-26.18-74.88-2.48-11-5.5-24.62-5-36,.12-2.77,2.14-12.43.69-14.87-2.2-3.71-11.63-7.51-15.33-9.36C1365.66,784.25,1359.86,777.62,1354.79,780.28Z"/><path class="cls-9" d="M1316.82,620.78c-7.68-6.92-.83-.86-5.8-27.79-3.88-21.07,1.35-43.56,5.65-64.2,11-52.6,55.25-102.7,110.57-107.3,9.4-.79,18.89,2.22,27.64,5.35,3.4,1.21,6.77,4.15,10.41,4.75,2.93.49,6.17-2.28,8.91-3a35.23,35.23,0,0,1,13.38-.3c5.89.85,11.14,4.53,16.35,7.14,21.7,10.84,41.16,32,54.09,52.31,14.23,22.36,21.11,54.24,21.11,80.25,0,8.63,2.94,24.5-8.33,26.75-4.88,1-6.65-8.68-8-11.88-6.24-14.56-7-30-11.3-45.19-3.4-11.89-7.63-30.14-17.83-38.63-8.31-6.93-14.57-1.55-23.18-3.28-4.07-.81-7.44-6.12-12.49-7.13-19.36-3.87-37.84,7.95-52.61,19-28.46,21.34-54.16,47-77.28,74-7.9,9.22-16.67,17.57-25.26,26.16-4.28,4.28-8.78,10.11-13.68,13.38C1326.58,622.94,1319,622.77,1316.82,620.78Z"/><path class="cls-5" d="M750.8,1293.29c13.5-2.09,28.51,1.7,42.33,1a315,315,0,0,0,93.42-19c11.42-4.23,21.33-7,33.41-8.11,1.5-.13,8-1.66,9-.43.66.79-7.87,4.66-8.83,5.15-5.51,2.8-10.14,7.13-15.23,10.52-1.1.73-5.07,2.8-5.48,4.22-.54,1.81,9.83,4.49,11.62,4.9,3.19.75,6.42,1.24,9.67,1.67,5.25.69,10.31,1.11,15.6,1.57,38.76,3.4,75.87,5.74,110.78,25.46,10.74,6.07,33.57,14.53,29.81,30.62-.81,3.48-6.41,5.1-9.09,5.74-11.12,2.65-19.6-3.23-30.17-5.51-1.17-.25-11-3.16-12.28-2.1-.08.07,4.58,3,5,3.3a150.44,150.44,0,0,0,13.22,7.7c14.23,7.63,27,14.29,39.56,24.32,3.27,2.62,9.59,7.64,7.89,12.55-3.42,9.9-19.43,9.83-27.95,8.79-14-1.72-24.94-9.94-37.24-15.74a115.27,115.27,0,0,0-31.85-9.74c-8.66-1.35-17.39-2.55-26.07-3.31a64.42,64.42,0,0,1-8.67-1.38c-1.46-.34-5.39-1.94-4.43-.8s8.44,2.63,9.56,2.89c6.94,1.62,14.37,6,20.89,8.78,18.87,8.19,33,21.28,48.47,34.5,8.26,7.06,24.27,17.15,13.78,29.41-5.72,6.68-18,3.44-25,1.08-21.85-7.35-38.46-24.2-58.69-34.59-7.35-3.76-16.38-4.88-24.35-6.63-1.25-.27-10.43-2.74-10.29-1.51.1.94,3.23,2.35,3.84,2.78,4.12,2.9,8.65,5.36,13,7.89,17.27,10.06,30.83,23.2,44.75,37.24,3.6,3.63,15.33,13.43,6.07,17.09-7.42,2.93-15,.75-22.39-1.15-16.45-4.25-30.42-13-43.28-23.82-5.34-4.49-9.24-11.52-15.67-14.67-5.68-2.77-12.43-2.36-18.52-3.25-13.32-2-26.52-4.52-39.58-7.77-21.37-5.32-40.46-16.42-61.08-23.55-8.14-2.8-17.06-3.73-25.49-5.3-12.47-2.32-25.5-2.24-38.13-3.35-3.61-.31-10.27,2-13.46-.36-5.47-4-1.43-21.26.07-26.36,5.4-18.46,8.25-37.45,17.07-54.91C739.78,1302.48,743.21,1294.47,750.8,1293.29Z"/><path class="cls-5" d="M642.59,518c-1.27-2.41-1.33-5.41-3.08-7.7-5.56-7.28-16.51-.12-18.28,6.36-3.85,14-3.5,27.52-2.17,41.79,1.62,17.41,4.65,35.17,14,50.24,2.17,3.5,5.44,7.66,8.93,9.93,2.56,1.66,6,1.82,7.1,5.23,3.55,10.62,17.38,48.17,19.24,57.53,4.21,21.22,3.09,45.92,4.41,67.53,1.07,17.52,3.85,44.85,8.92,61.82,4.21,14.11,11,14.92,18.83,27.09,3.83,6,6.73,14.3,5.71,22-3.9,29.13-9.18,57.36-9.92,86.88-.18,7-1.4,25.69-1.73,32.8s12-30.3,15.63-38.38c10.1-22.47,16.81-43.91,20.37-68.25,1.74-11.87-1.64-25.08,7.56-34.43,18.23-18.52,70.73-55.9,110.31-108.2,8.21-10.85,5.9-32.1,8.56-45.1,5.07-24.84,9.83-35.9,19.84-59,3.1-7.15,18.35-8.77,24.83-13.49,4.47-3.26,6.14-8.81,8.9-13.39,8.33-13.8,19.47-36.5,13.49-53.12-3-8.42-11.73-16.13-21-11.88-2.68,1.23-11.55,8.93-13.13,7.29-2-2.1-1.43-10.77-1.63-13.13-.95-11.54.35-26.63-4.18-37.43-2.76-6.59-10-11.66-15.27-16.23-19.63-17-45.93-23.4-70.64-30.18-9.76-2.67-19.42-8.86-29.58-9.3-15.27-.68-30.87,7.82-45.57,10.82-11.9,2.43-20,.33-28.43,3.21s-14.94,9.81-18.73,8.83c-4.49-1.16-10.64-2.57-16.31,3.37-7.25,7.61-10.26,22.86-11.77,32.47-1.19,7.57-1.23,15.41-2.08,23.1Z"/><path class="cls-5" d="M1509.59,495c-12.37-5.78-27.09-8.45-40.43-4.62-12.68,3.63-23.16,16.91-32.91,25.16-22.84,19.32-42.72,41.94-63.07,63.59-8.56,9.11-16.23,18.33-25.77,26.41-5,4.18-8.72,10.91-14.45,14-4.73,2.55-17.46-4.47-20.49.7-2.86,4.88-2.21,13-1.6,18.28,1.73,15.15,3.8,31.44,14.41,43.2,5.35,5.93,14.07,8.33,19.27,13.83,4.39,4.64,6.79,15.21,9.42,21.14,3.34,7.54,8.42,14,13.07,20.72,10.53,15.13,13.5,31.64,15.56,49.65,1.1,9.53.17,18.73,4.43,27.88,4.94,10.59,10,26.82,18,35.37,8.3,8.76,19.27,14.68,27.44,24,12.54,14.31,23.63,30.23,36,44.84,14.33,16.93,27.62,34.64,42.47,51.09,3.56,3.94,9.6,16.36,15.55,17.14,4.8.63,4.32-10.87,4.64-13.29,2-15.15,7.07-29.44,7.62-44.89a297.15,297.15,0,0,1,17.51-91.29c.74-2-1.77-4.06-2.68-5.45-2.95-4.52-5.95-9.52-7.45-14.78-5.62-19.58-13.12-40.9-12-62,.26-5.21,5-10.43,7.35-14.83,3.5-6.55,5.65-14,8.73-20.74,6.1-13.44,8.18-28.86,13.21-42.66,1.71-4.7,8.39-9.63,11.15-14,8.74-13.92,12.61-33.34,13.24-49.65.3-7.87-2.76-16.66-11.8-16.76-2.53,0-7.08,2-9.38.67-1.29-.75-1.18-4.33-1.87-5.54a61.83,61.83,0,0,1-6.52-17.36c-3.55-16.37-5-33.46-10.19-49.44-3.16-9.84-6-21.93-15.89-27.39C1525.23,494.14,1516.45,498.21,1509.59,495Z"/><path class="cls-5" d="M1671.38,1187.9c-.52-5.52,9-16.12,10.81-18.85,6-9.19,11.94-18.36,18.3-27.34,10.64-15,19.06-31.78,29.24-47.15,5.33-8,10-16.92,17.22-23.54,5.49-5,12.71-9.08,19-12.89,4.6-2.77,9-7.26,14.23-8.93,5.65-1.82,13,1.91,18.67,2.38,7.44.6,14.51,2,20.76,6.4,4.19,3-1.61,8.34-4.22,9.74-8.51,4.54-19.17,3.5-27.62,7.61-8.88,4.32-16.13,14.42-22.37,21.76a89.79,89.79,0,0,0-8,10.38c-.07.12-3.08,4-2.46,4.81,2,2.74,7.87-3.2,9.3-4.25,8.45-6.2,17.08-13.53,26.11-18.72,7.44-4.28,16.38-3.8,24.7-3.12,15.18,1.24,30.62-1.46,40.63,12.18,4.86,6.63-6.17,9.73-10.92,9.94-9.6.43-25.66-3.68-34.24.91-6,3.17-10.47,9.61-15.49,13.93-2.89,2.48-6,4.89-8.82,7.54-.2.18-3.29,2.4-3.22,3.21.12,1.25,8.64-4,8.79-4.09a164.81,164.81,0,0,1,20.87-10.38c8.06-3.29,16.19-1.71,24.53-.42,10.78,1.66,22,2.59,29,12.12,6,8.18-4.42,11-10,12.3-9.4,2.18-17.49-1-26.79-.91-4.83.06-9.06,3.85-12.62,6.46-4.17,3.06-8.34,6-12.33,9.47-1.22,1-2.48,2.09-3.69,3.14-.48.41-2,1-1.43,1.26,3.36,1.41,14.66-4.94,17.68-5.68,4.69-1.16,8.21.6,12.57.2,9.61-.89,27.31.73,33.85,9.66,3.19,4.34-3,7.5-5.62,9.27-6.66,4.41-14.93,10-23.37,7.28-3-1-5.86-3-9.19-2.9-12.32.33-17.23,17.49-28.34,20.35-3.29.85-6.49-.59-9.77-.76-8.5-.45-16.93-2.84-25.49-2.94-9.26-.09-18.86-1.1-28.08-.61-13.5.71-26.58,3.22-39.26-1.84-4.71-1.88-9.42-4.5-14.48-5.44C1677,1188.92,1671.62,1190.33,1671.38,1187.9Z"/><path class="cls-5" d="M1472.87,1183.11c-5.52-1.35-13.43.43-19.13.59-16.36.46-31.94-2.3-48.29.74-10.59,2-19.3,8.73-29.09,12.44-6.22,2.35-20.41,6.71-24.28,13-1.69,2.75-.84,7.29-.64,10.23.61,9.1,3,17.95,3.87,26.91.77,7.71,1.73,16.63,4.42,23.72.91,2.41.89,6,2.67,8,1.43,1.56,6,0,7.86-.27,9.62-1.5,19.12-3.84,28.78-5.21,7.94-1.12,15.83-1.9,23.84-2.6,3.62-.31,10,1.45,13.09-.44,2.49-1.51,3-12.16,3.44-14.73,1.89-12.24,6.5-24.79,11.6-36.1a124.84,124.84,0,0,1,17.27-27.82c4.16-5.07,5.18-1.62,4.47-8.69Z"/><path class="cls-2" d="M646.41,621.36a2.78,2.78,0,0,1-.75-.11c-9.56-2.73-13.4-11.4-16.78-19l-.42-.94c-8.32-18.72-12.31-30-12.9-51.9-.22-8.06,1.86-26.65,7.87-35.22,3.12-4.45,7.73-6.57,12.33-5.67,4.06.79,11.44,4.61,15.24,21.24a2.75,2.75,0,0,1-5.37,1.23c-2.23-9.79-6.32-16.17-10.93-17.07-2.44-.48-4.9.77-6.77,3.43-4.8,6.85-7.11,23.21-6.87,31.91.53,19.75,3.72,30.23,12.43,49.82l.42.94c3,6.87,6.18,14,13.26,16a2.75,2.75,0,0,1-.76,5.4Z"/><path class="cls-2" d="M638.68,581.46a2.75,2.75,0,0,1-2.53-1.66c-2.14-5-1.3-10.66-.5-16.14a52.33,52.33,0,0,0,.76-7.33,2.75,2.75,0,0,1,5.5,0,57.39,57.39,0,0,1-.81,8.14c-.7,4.72-1.42,9.6.11,13.16a2.75,2.75,0,0,1-2.53,3.83Z"/><path class="cls-2" d="M882,623.67a10.22,10.22,0,0,1-5.86-1.7,2.75,2.75,0,1,1,3.09-4.55c2.7,1.83,7.7,0,11.48-2.29,14.37-8.78,24.65-30.41,29.09-46.27,1.9-6.75.39-21.87-3.75-28.08A9.1,9.1,0,0,0,909,536.6c-4.66-.34-10,2.46-14.74,7.68a2.75,2.75,0,0,1-4.08-3.7c6-6.58,12.8-9.94,19.22-9.46a14.58,14.58,0,0,1,11.26,6.61c5.07,7.61,6.72,24.58,4.47,32.62-4.71,16.81-15.79,39.87-31.52,49.48C891.31,621.21,886.64,623.67,882,623.67Z"/><path class="cls-2" d="M894.27,591.91a2.75,2.75,0,0,1-1.65-4.95c3.06-2.3,2.65-5.06,1.58-10.15-.86-4.1-1.84-8.75.44-13.3a2.75,2.75,0,0,1,4.92,2.46c-1.42,2.83-.72,6.17,0,9.71,1,5,2.35,11.18-3.66,15.68A2.71,2.71,0,0,1,894.27,591.91Z"/><path class="cls-2" d="M761.11,743.23q-3.74,0-7.6-.3C662.38,735.9,645.2,620.57,645,619.4a2.75,2.75,0,1,1,5.44-.76c.16,1.12,16.75,112.11,103.46,118.81,89.2,6.9,120-116.74,120.32-118a2.75,2.75,0,0,1,5.35,1.29C879.3,622,849,743.23,761.11,743.23Z"/><path class="cls-5" d="M712,636.24l85.69,5.91s-4.8,35.85-45,33.1C712.12,672.46,712,636.24,712,636.24Z"/><path class="cls-2" d="M757,678.15c-1.46,0-3,0-4.51-.16-42.66-2.92-43.25-41.35-43.25-41.74a2.76,2.76,0,0,1,2.94-2.75l85.69,5.91a2.74,2.74,0,0,1,2.54,3.11C800.4,642.89,795.21,678.15,757,678.15Zm-42-38.94c1,8.33,6.66,31.15,37.89,33.29,30.88,2.09,39.42-19.72,41.5-27.82Z"/><path class="cls-2" d="M754.92,602.83a2.75,2.75,0,0,1-2.71-2.29,24.45,24.45,0,0,0-1.8-5.44c-1.56-3.69-3.32-7.88-.95-13.09.27-.6.56-1.17.85-1.73a14,14,0,0,0,1.34-3.25c.06-.34.14-1.27.21-2,.11-1.11.38-3.78,3-3.6a2.85,2.85,0,0,1,2.63,2.86,2.93,2.93,0,0,1-.08.67l-.06.59c-.09,1-.23,2.25-.32,2.67a18.86,18.86,0,0,1-1.81,4.57c-.25.49-.5,1-.74,1.5-1.31,2.89-.51,5.07,1,8.69a29.75,29.75,0,0,1,2.16,6.66,2.75,2.75,0,0,1-2.26,3.17A3.55,3.55,0,0,1,754.92,602.83Z"/><path class="cls-2" d="M733,503.64a2.75,2.75,0,0,1-2-.83c-6.51-6.68-18.28-8.27-26.4-7.62-4.69.38-8.42,1.52-10,3.05a2.75,2.75,0,0,1-3.85-3.94c3.24-3.16,9.07-4.25,13.38-4.6,9.78-.78,23,1.24,30.79,9.26a2.75,2.75,0,0,1-2,4.68Z"/><path class="cls-2" d="M855.9,510.11a2.78,2.78,0,0,1-2.35-1.31c-1.44-2.34-6.76-3.6-9.62-4.27a38.56,38.56,0,0,0-28.63,4.52,2.75,2.75,0,0,1-2.89-4.68A43.51,43.51,0,0,1,845,499.13c4.29,1,10.55,2.49,13.2,6.78a2.76,2.76,0,0,1-.9,3.79A2.81,2.81,0,0,1,855.9,510.11Z"/><path class="cls-2" d="M891.27,547.33a3.27,3.27,0,0,1-1.67-.43c-2.45-1.51-2.72-7.56-2.75-9.38-.11-7.91-.24-16.87-.86-25.53-1.42-19.83-9.2-32.19-26.84-42.69-13.5-8-29.07-13-44.13-17.88-18.86-6.07-38.36-12.34-54.69-24.67-11.12-8.38-18.75-16-24-24-.19-.3-4.79-7.32-3.9-10.55a3.72,3.72,0,0,1,1.7-2.06,2.75,2.75,0,0,1,3.67,1.29,2.7,2.7,0,0,1,.08,2.19,32.7,32.7,0,0,0,3,6.1c4.91,7.42,12.13,14.6,22.74,22.6,15.59,11.77,34.64,17.89,53.06,23.82,15.35,4.94,31.22,10,45.26,18.4,19.14,11.38,28,25.44,29.52,47,.63,8.82.76,17.87.87,25.85a29.66,29.66,0,0,0,.64,4.93,2.56,2.56,0,0,1,.86,1,2.76,2.76,0,0,1-1.29,3.67A3.16,3.16,0,0,1,891.27,547.33Zm-1.08-5.23h0Zm-153.69-147h0Z"/><path class="cls-2" d="M717.42,448.91a100.25,100.25,0,0,1-33-5.74c-7.58-2.75-15.62-6.38-17.83-12.46a2.75,2.75,0,0,1,5.18-1.87c1.62,4.48,11,7.87,14.52,9.15,17.88,6.47,39.1,7.14,54.06,1.72a2.75,2.75,0,0,1,1.88,5.17A73,73,0,0,1,717.42,448.91Z"/><path class="cls-2" d="M646.29,523.52a2.66,2.66,0,0,1-.88-.14,2.75,2.75,0,0,1-1.73-3.49c2.57-7.57,3-15.21,3.42-23.29.56-10.21,1.13-20.75,6.44-30.92,2.47-4.74,6.49-8.16,12.65-10.77,2.62-1.12,7.61-1.7,9.92,1.46a2.75,2.75,0,0,1-4.4,3.31,5.43,5.43,0,0,0-3.37.29c-4.92,2.09-8.07,4.71-9.93,8.26-4.75,9.1-5.27,18.61-5.81,28.67-.44,8.09-.9,16.47-3.71,24.75A2.75,2.75,0,0,1,646.29,523.52Z"/><path class="cls-2" d="M621.43,459.73a2.75,2.75,0,0,1-2.73-2.46,52.5,52.5,0,0,1,.55-14.68c3.6-20,9.17-34.75,16.54-43.73a2.75,2.75,0,0,1,4.25,3.49c-6.77,8.25-11.94,22.12-15.38,41.21a47.09,47.09,0,0,0-.49,13.12,2.75,2.75,0,0,1-2.44,3Z"/><path class="cls-2" d="M639.71,514.62a2.75,2.75,0,0,1-2.1-1c-6.28-7.34-7.19-25.35-8.07-42.77-.38-7.56-.74-14.71-1.52-20.47a66.38,66.38,0,0,1-.66-16l0-.53c.13-1.61.41-4.95,3.57-6a2.75,2.75,0,0,1,2.08,5.07,10.23,10.23,0,0,0-.17,1.34l-.06.67a60.48,60.48,0,0,0,.64,14.68c.81,6,1.18,13.25,1.57,20.93.79,15.73,1.69,33.56,6.75,39.47a2.75,2.75,0,0,1-2.08,4.54Z"/><path class="cls-2" d="M626.93,392.68a2.75,2.75,0,0,1-1.81-4.82c5.23-4.57,10.51-11,16.61-18.44,15.77-19.2,35.38-43.1,69-53,36.15-10.69,70.39-5.74,101.74,14.7a2.75,2.75,0,0,1-3,4.61c-30.36-19.79-62.15-24.38-97.18-14-32,9.46-51,32.63-66.31,51.25-6.27,7.63-11.68,14.22-17.25,19.09A2.72,2.72,0,0,1,626.93,392.68Z"/><path class="cls-2" d="M893.63,543.06h0a2.75,2.75,0,0,1-2.74-2.76c0-11.18,1.9-25.07,3.87-39.77,4.42-32.87,9.91-73.78-2-107.71-16.71-47.64-67.52-53.78-68-53.84a2.75,2.75,0,0,1-2.43-3,2.72,2.72,0,0,1,3-2.43c.55.06,54.78,6.61,72.62,57.48,12.34,35.18,6.75,76.82,2.25,110.28-2,14.51-3.79,28.22-3.82,39.05A2.75,2.75,0,0,1,893.63,543.06Z"/><path class="cls-2" d="M690.51,1006.17a2.76,2.76,0,0,1-2.74-2.48c-.69-6.94.52-14.82,1.69-22.43.57-3.72,1.11-7.22,1.4-10.45.73-8.16,1.29-16.34,1.86-24.53,1-14.1,2-28.67,3.85-42.93.82-6.18,2.16-12.44,3.46-18.5,2.15-10.09,4.39-20.53,4.21-30.66-.12-7.23-3.88-11-8.65-15.86a71,71,0,0,1-5.58-6.11c-6.62-8.42-10.75-21.2-12.21-26.31-7.31-25.43-7.73-52.69-8.13-79.07l-.1-5.67c-.08-5-.68-10.32-1.26-15.49-.76-6.71-1.54-13.64-1.27-20.15a2.84,2.84,0,0,1,2.87-2.63,2.76,2.76,0,0,1,2.63,2.87c-.26,6.08.5,12.79,1.23,19.29.6,5.3,1.22,10.79,1.31,16l.09,5.68c.4,26,.82,52.91,7.91,77.63,1.38,4.8,5.23,16.77,11.26,24.43a68,68,0,0,0,5.16,5.64c5,5,10.09,10.2,10.25,19.64.18,10.76-2.12,21.51-4.34,31.9-1.27,6-2.59,12.11-3.38,18.08-1.86,14.08-2.86,28.56-3.82,42.57-.57,8.23-1.14,16.46-1.87,24.65-.31,3.4-.86,7-1.44,10.79-1.12,7.28-2.28,14.81-1.65,21.06a2.76,2.76,0,0,1-2.46,3Z"/><path class="cls-2" d="M637.85,906.16a3.32,3.32,0,0,1-1-.15,3.43,3.43,0,0,1-2.37-2.93c-.67-4.61.24-10.46,1-15.62.33-2.12.65-4.16.83-6,.74-7.26,1.65-14.5,2.57-21.74s1.83-14.49,2.56-21.75c2.16-21.27,4.56-43.87,8.25-65.84a77.76,77.76,0,0,0,.7-8.45c.33-6.7.71-14.3,3.63-19.57s7.1-9,11.23-12.73c1.77-1.6,3.53-3.19,5.15-4.86a2.75,2.75,0,1,1,3.95,3.82c-1.7,1.77-3.55,3.44-5.4,5.12-4,3.6-7.73,7-10.12,11.31C656.6,751,656.26,757.89,656,764a82.86,82.86,0,0,1-.76,9.1c-3.66,21.8-6.06,44.3-8.2,65.47-.74,7.31-1.66,14.6-2.58,21.89s-1.83,14.39-2.56,21.6c-.19,1.89-.52,4-.86,6.25a89.22,89.22,0,0,0-1.18,9.92l1-1.1.79-.9a81.49,81.49,0,0,0,7.68-10.43L651.1,883c6.47-9.65,11.84-20.06,17.23-30.76a39.42,39.42,0,0,0,1.57-3.7c1.48-3.86,3.15-8.24,8.36-10.57,3-1.38,7.37.72,12.93,4.26l.41.25a2.75,2.75,0,0,1-2.93,4.66l-.43-.27c-5.84-3.72-7.54-3.9-7.92-3.82-2.94,1.34-4,4-5.29,7.46a44.91,44.91,0,0,1-1.78,4.21c-5.48,10.86-10.94,21.43-17.58,31.35l-1.82,2.74a86.07,86.07,0,0,1-8.2,11.1l-.73.83C642,904,640,906.16,637.85,906.16ZM640,902.3h0Z"/><path class="cls-2" d="M852.88,723.58h-.25a2.75,2.75,0,0,1-2.5-3l.62-7c.79-9.19,1.48-17.13,3-26.92l.7-4.62c1.27-8.48,2-13.3,2.63-16a3.47,3.47,0,0,1,0-.56h.14l0-.07-.15,0h.15c.77-2.94,1.46-2.87,2.92-2.68a3,3,0,0,1,2.4,3.25,2.54,2.54,0,0,1-.19.79c-.41,2.39-1.63,10.53-2.47,16.12l-.7,4.62c-1.45,9.62-2.13,17.48-2.92,26.58l-.62,7A2.75,2.75,0,0,1,852.88,723.58Z"/><path class="cls-2" d="M691.39,1004.35h-.25a2.75,2.75,0,0,1-2.49-3c.89-9.83,5-20.83,8.64-30.53.7-1.88,1.38-3.69,2-5.42,8.16-22.52,17.41-48.06,25.73-72.75,2.48-7.36,2.78-15.07,3.08-23.24.38-9.92.77-20.18,5.47-29.59,2.45-4.92,7.2-8.5,11.38-11.67,1.27-1,2.51-1.89,3.63-2.83,2.78-2.32,5.6-4.64,8.42-7,7.4-6.09,15-12.38,22.13-18.79,28.11-25.43,53-49.1,72.92-81.3a2.75,2.75,0,1,1,4.68,2.9c-20.29,32.81-45.48,56.76-73.92,82.48-7.18,6.49-14.87,12.83-22.31,19q-4.23,3.48-8.4,6.95c-1.18,1-2.49,2-3.83,3-3.88,2.93-7.9,6-9.78,9.74-4.17,8.34-4.52,17.57-4.89,27.33-.31,8.2-.63,16.68-3.36,24.79-8.34,24.76-17.6,50.32-25.78,72.87-.63,1.75-1.31,3.58-2,5.48-3.51,9.38-7.49,20-8.31,29.09A2.75,2.75,0,0,1,691.39,1004.35Z"/><path class="cls-2" d="M791,919.35a2.86,2.86,0,0,1-.92-.15c-8.22-2.87-13.13-18.15-14.44-22.77-4.16-14.65-9-30.33-16.07-45.79-2-4.35-3.38-6.33-4.82-6.85s-3.72.1-7.32,1.87l-.61.3c-1.82.88-3.39,1.64-4,3a2.75,2.75,0,0,1-5-2.2c1.4-3.2,4.29-4.6,6.62-5.72l.58-.29c3.65-1.79,7.88-3.44,11.6-2.11,3.51,1.26,5.65,4.66,8,9.74,7.22,15.79,12.13,31.72,16.35,46.58,1.92,6.76,5.29,14.41,8.8,17.67.37-1.1.75-2.29.95-2.93.3-.93.53-1.63.61-1.8,2.23-5.32,5-10.48,7.65-15.47l.26-.47c3.52-6.59,7.33-13.14,11-19.47,4.11-7,8.35-14.32,12.15-21.61,2.07-4,4.28-7.83,6.49-11.7,3-5.29,6.15-10.76,8.79-16.33,3.2-6.74,6.79-13.39,10.27-19.82,6.47-12,13.16-24.36,17.33-37.45.88-2.73,1.75-5.1,2.56-7.29,3.08-8.3,4.93-13.31,2.08-26.12-2.15-9.65-5.09-22.87-14.7-27.06a2.75,2.75,0,0,1,2.2-5.05c12.17,5.32,15.6,20.72,17.87,30.92,3.21,14.39.9,20.62-2.29,29.23-.78,2.11-1.63,4.4-2.47,7.05-4.33,13.57-11.15,26.19-17.74,38.38-3.45,6.37-7,13-10.14,19.57-2.73,5.75-5.91,11.32-9,16.7-2.18,3.81-4.36,7.62-6.39,11.51-3.86,7.41-8.14,14.75-12.27,21.84-3.67,6.29-7.46,12.79-10.93,19.29l-.25.48c-2.61,4.87-5.31,9.91-7.45,15,0,.16-.22.67-.43,1.34-2,6.29-2.39,7.08-3.66,7.71A2.87,2.87,0,0,1,791,919.35Z"/><path class="cls-2" d="M675.56,1271a2.75,2.75,0,0,1-2.72-2.36c-13.31-91.73-29.27-369.31-29.43-372.1a2.74,2.74,0,0,1,2.59-2.9,2.68,2.68,0,0,1,2.9,2.58c.16,2.79,16.11,280.14,29.38,371.63a2.75,2.75,0,0,1-2.32,3.12Z"/><path class="cls-2" d="M722.15,1281.44a2.69,2.69,0,0,1-.4,0,2.74,2.74,0,0,1-2.32-3.12l51.64-349.6a2.75,2.75,0,1,1,5.44.81l-51.64,349.59A2.75,2.75,0,0,1,722.15,1281.44Z"/><path class="cls-2" d="M783.83,927c-4.5,0-9.46-1.68-11.71-4.36-3.44-4.12-2.91-20.56-.66-27.07.35-1,1.4-4,4.09-4.61a2.75,2.75,0,0,1,1.61,5.24c-2.19,2.91-2.84,20-.81,22.92,1.33,1.59,7.07,3.19,10.34,2a1.91,1.91,0,0,0,1.47-2.12,2.75,2.75,0,0,1,2.65-2.85,2.8,2.8,0,0,1,2.84,2.65,7.33,7.33,0,0,1-5,7.45A13.53,13.53,0,0,1,783.83,927Zm-7.14-30.66Z"/><path class="cls-2" d="M816.47,1150.59a2.73,2.73,0,0,1-1.49-.45c-2-1.3-5.06-2-8-2.6a47.94,47.94,0,0,1-5.86-1.54,52.81,52.81,0,0,1-25.86-19.41c-16.7-24-13.5-54.36-10.68-81.18l.7-6.81C769,1001.32,771,963.18,771.35,922a2.6,2.6,0,0,1,2.77-2.73,2.76,2.76,0,0,1,2.73,2.77c-.37,41.35-2.36,79.65-6.1,117.09L770,1046c-2.72,25.86-5.8,55.16,9.72,77.46A47.43,47.43,0,0,0,803,1140.83a44.45,44.45,0,0,0,5.17,1.33c3.43.74,7,1.51,9.83,3.37a2.75,2.75,0,0,1-1.5,5.06Z"/><path class="cls-2" d="M818.82,1137.64a2.75,2.75,0,0,1-1.5-.44c-2.09-1.36-5.39-1.75-8.57-2.12a38.53,38.53,0,0,1-6.91-1.25c-7.12-2.25-13.49-7.38-18.41-14.82-12.35-18.68-10-43-7.89-64.51l.4-4.14q1.14-12.09,2.33-24.16c1.81-18.73,3.69-38.1,5.24-57.19.31-3.82.69-7.65,1.07-11.5,1.12-11.23,2.28-22.83,1.52-34a2.76,2.76,0,0,1,2.56-2.93,2.72,2.72,0,0,1,2.93,2.56c.79,11.63-.39,23.47-1.53,34.92-.38,3.82-.76,7.62-1.07,11.4-1.55,19.14-3.43,38.53-5.25,57.28q-1.17,12.07-2.32,24.15L781,1055c-2,20.58-4.27,43.9,7,61,2.94,4.45,8,10.25,15.48,12.61a34.2,34.2,0,0,0,5.9,1c3.8.44,7.75.91,10.91,3a2.75,2.75,0,0,1-1.49,5.06Z"/><path class="cls-2" d="M829.07,1155.53a40.1,40.1,0,0,1-10.9-2.07,2.76,2.76,0,0,1,1.83-5.2c3.52,1.25,9.54,2.26,10.88,1.57.87-.7,2.28-4.14,2.41-8,.09-2.44-.42-3.81-.77-4.14-2-1.85-8.95-2.7-10.1-1.57a2.75,2.75,0,1,1-4.33-3.39c1.15-1.48,3-2.34,5.62-2.55,3.86-.34,9.83,1,12.53,3.46,2.28,2.1,2.65,5.71,2.55,8.38-.14,4.23-1.64,9.84-4.56,12.17A8.28,8.28,0,0,1,829.07,1155.53Z"/><path class="cls-2" d="M818.09,1151.77a3,3,0,0,1-.88-.14,2.71,2.71,0,0,1-1.7-3.45c1.15-3.24,3.19-9,1.83-11.84a2.75,2.75,0,1,1,5-2.39c2.35,4.89,0,11.54-1.55,15.93A2.86,2.86,0,0,1,818.09,1151.77Z"/><path class="cls-2" d="M925.33,914.35c-2.51,0-4.87-.57-6.36-2.28-1.36-1.55-2.82-8.38-12.93-74.58-2.42-15.86-4.52-29.57-5-31.45-8.47-35.18-16.63-46.26-18.2-47.11a2.56,2.56,0,0,1-2.25-3,2.89,2.89,0,0,1,3.22-2.4c6.29.64,15.36,21.21,22.58,51.19.48,2,2.15,12.88,5.06,31.91,3.82,25.07,10.17,66.6,11.84,72,1.43.79,6.92-.3,9.81-1.35,1.43-10.22-11.9-88-18.45-117.16-2.37-10.56-11.45-46.05-28.6-59.57a66.94,66.94,0,0,0-17.32-10,2.75,2.75,0,1,1,2-5.13,72,72,0,0,1,18.76,10.81c18.57,14.64,28.08,51.68,30.56,62.69,2.86,12.72,8.43,42.11,12.81,69.27,8.29,51.44,6,52.54,3.5,53.7C936.28,911.91,930.49,914.35,925.33,914.35Z"/><path class="cls-2" d="M820.22,863.69a2.75,2.75,0,0,1-1.58-5c8.07-5.64,50-50.12,62.06-101.79a2.75,2.75,0,1,1,5.35,1.26c-12.45,53.18-55.89,99.19-64.26,105A2.7,2.7,0,0,1,820.22,863.69Z"/><path class="cls-2" d="M892.64,1128.12a2.75,2.75,0,0,1-.65-5.43c22.86-5.62,36-21,38-44.37,2.17-24.92-1.27-53.38-4.59-80.9-1.24-10.27-2.41-20-3.26-29.29-1.3-14-2.35-44.16-1.7-56.94a2.75,2.75,0,1,1,5.49.28c-.64,12.58.41,42.3,1.69,56.16.84,9.24,2,18.9,3.24,29.13,3.36,27.8,6.83,56.54,4.61,82S918.3,1121.88,893.3,1128A2.5,2.5,0,0,1,892.64,1128.12Z"/><path class="cls-2" d="M893.92,1138.4a3.9,3.9,0,0,1-2.08-.45,2.75,2.75,0,0,1,2.17-5c4.65,0,33.17-11,40.67-27.93,9.51-21.44,8.2-47.25,6.39-64.8-.87-8.44-2-17.22-3.16-26.51-2.42-19.14-4.93-38.92-5.38-56.73-.09-3.26-.14-8-.19-13.1-.12-10.8-.32-28.59-1-32.12a2.75,2.75,0,0,1,1.81-4.32,2.92,2.92,0,0,1,2.3.65c1.61,1.36,2,3.06,2.41,35.72,0,5.13.1,9.79.19,13,.45,17.54,2.93,37.18,5.34,56.18,1.18,9.33,2.3,18.14,3.17,26.64,1.88,18.17,3.21,45-6.83,67.59-6.72,15.15-26.87,25.57-37.72,29.34C897.79,1138,895.37,1138.4,893.92,1138.4Zm.48-5.32h0ZM934,912.84h0Z"/><path class="cls-2" d="M880.45,1144.93a12.62,12.62,0,0,1-4.94-.86c-2.77-1.18-4.54-4.17-5-8.43-.49-4.63.73-10.54,4-12.87,4.69-3.32,9-2.85,12.84-2.44a36,36,0,0,0,4,.29,2.75,2.75,0,1,1,0,5.49,41.71,41.71,0,0,1-4.57-.31c-3.53-.38-6.08-.65-9.08,1.46-1,.67-2.12,4.12-1.73,7.8.25,2.34,1,3.67,1.68,4,2.68,1.15,9.45-.2,14.09-2.2a2.75,2.75,0,0,1,2.17,5.06A38.43,38.43,0,0,1,880.45,1144.93Z"/><path class="cls-2" d="M893.12,1140.16a2.71,2.71,0,0,1-1.94-.8c-3.66-3.65-2.63-11.75-1.92-14.55a2.75,2.75,0,0,1,5.33,1.33c-.8,3.19-.73,8.12.48,9.33a2.75,2.75,0,0,1-2,4.69Z"/><path class="cls-2" d="M958.35,1262.13a2.76,2.76,0,0,1-2.59-1.83c-1.07-3-.86-8.24-.49-14.82.12-2.08.23-3.93.21-5.12q-.08-3.06-.1-6.15c-.08-7.09-.16-14.41-1.33-21.45l-.89-5.34c-3-17.88-6.14-36.36-4.8-54.6,1.24-16.85,5-33.36,8.62-49.33l.92-4.08c8.44-37.36,16.94-73.88,28.24-109.94,2.15-6.86,4.78-13.79,7.31-20.5,3.58-9.44,7.27-19.21,9.65-28.81a2.75,2.75,0,0,1,5.34,1.33c-2.46,9.91-6.21,19.83-9.84,29.43-2.51,6.63-5.11,13.49-7.21,20.19-11.23,35.87-19.71,72.27-28.12,109.51l-.93,4.09c-3.58,15.77-7.28,32.08-8.49,48.51-1.3,17.58,1.77,35.73,4.73,53.28l.9,5.36c1.24,7.45,1.32,15,1.4,22.29,0,2,0,4.06.09,6.09,0,1.29-.08,3.29-.2,5.56-.24,4.18-.6,10.48.17,12.64a2.77,2.77,0,0,1-2.59,3.69Z"/><path class="cls-2" d="M901.6,1287.24a2.74,2.74,0,0,1-2-4.59c7.35-8.17,47.82-25.88,73.15-28.27,8.47-.8,40.86-12,52.27-19.47a2.75,2.75,0,1,1,3,4.6c-12.19,8-45.62,19.49-54.77,20.35-24.37,2.29-63.58,19.81-69.57,26.47A2.74,2.74,0,0,1,901.6,1287.24Z"/><path class="cls-2" d="M781,1297.81a238.66,238.66,0,0,1-26.33-1.37,2.77,2.77,0,0,1-2.43-3,2.8,2.8,0,0,1,3-2.42c27.26,3.08,63.07.77,95.81-6.18a83.45,83.45,0,0,0,13.62-4.64c5.77-2.32,11.73-4.72,17.7-5.45a60.82,60.82,0,0,0,8.94-2.41c8.55-2.68,21.49-6.74,37.34-6.93h0a2.75,2.75,0,0,1,0,5.5c-15,.19-27,3.94-35.76,6.69a63.79,63.79,0,0,1-9.92,2.62c-5.25.63-10.62,2.79-16.31,5.09a90.05,90.05,0,0,1-14.53,4.91A352.54,352.54,0,0,1,781,1297.81Z"/><path class="cls-2" d="M1063.87,1360.39c-6,0-12.29-2-18.42-4.05-7.78-2.53-15.13-4.92-21.3-3.15a2.75,2.75,0,1,1-1.52-5.29c7.81-2.23,16.3.53,24.52,3.21,8.76,2.86,17,5.56,23.66,2.27,1.58-.78,3-2.87,3.65-5.46.72-2.75.47-5.57-.64-7.18-5-7.28-13.67-11.85-22.3-15.7-3.34-1.49-7-2.8-10.11-3.91q-20.33-7.19-40.58-14.59c-1.41-.51-2.88-1.09-4.37-1.68-5.12-2-10.41-4.09-15.23-4.3l-5-.2c-27.82-1.12-59.36-2.4-86.13-12.59a2.75,2.75,0,0,1,1.95-5.14c25.94,9.87,57,11.12,84.4,12.23l5,.21c5.74.24,11.73,2.59,17,4.68,1.45.57,2.87,1.13,4.24,1.63q20.25,7.35,40.54,14.57c3.23,1.14,7,2.49,10.52,4.07,9.36,4.18,18.81,9.2,24.59,17.61,2,2.95,2.56,7.32,1.43,11.68-1.1,4.2-3.48,7.49-6.54,9A20.79,20.79,0,0,1,1063.87,1360.39Z"/><path class="cls-2" d="M1068.48,1407.75a41.63,41.63,0,0,1-11.66-1.49c-8.35-2.56-16.42-6.44-24.23-10.19-9.24-4.44-18.8-9-28.53-11.21-13-2.9-27.1-5.35-45.71-7.93a30,30,0,0,0-4-.2,24.12,24.12,0,0,1-7.46-.85,2.75,2.75,0,0,1,1.67-5.24,19.91,19.91,0,0,0,5.82.59,35.28,35.28,0,0,1,4.75.25c18.76,2.61,33,5.08,46.15,8,10.35,2.31,20.19,7,29.71,11.62,7.63,3.66,15.5,7.45,23.46,9.88,8.59,2.63,23.93,1.26,30-4.37,1.6-1.48-1.17-4.84-2.43-6.22a89,89,0,0,0-20.92-16.32c-11.07-6.12-22.66-11.48-33.86-16.65q-4.86-2.25-9.72-4.52c-1.51-.7-3.07-1.5-4.67-2.32-4.57-2.33-9.29-4.74-13.75-5.57-7.91-1.47-15.86-2.87-23.81-4.28s-16.17-2.87-24.21-4.36a2.75,2.75,0,1,1,1-5.41c8,1.49,16.09,2.92,24.16,4.35s15.93,2.82,23.85,4.29c5.25,1,10.56,3.69,15.25,6.08,1.54.79,3,1.56,4.51,2.25q4.84,2.26,9.68,4.49c11.3,5.22,23,10.62,34.22,16.84a94.79,94.79,0,0,1,22.31,17.41c7.15,7.79,3.85,12.38,2.11,14C1086.73,1405.7,1077.06,1407.75,1068.48,1407.75Z"/><path class="cls-2" d="M1037.86,1456.42c-8.54,0-17.86-4.24-25.21-7.57l-3.06-1.38c-11.5-5.07-21.21-11.25-31.48-17.8-2.49-1.58-5-3.18-7.56-4.78-12.12-7.56-29.06-11.42-44-14.2a2.75,2.75,0,1,1,1-5.41c15.47,2.87,33,6.89,45.93,15q3.85,2.4,7.6,4.81c10.1,6.42,19.63,12.5,30.74,17.39l3.13,1.41c9,4.1,21.4,9.72,29.44,5.68,4.25-2.13,6.39-4.6,6.54-7.52.31-6.4-8.67-15.08-17.14-20.44-6.28-4-12.52-8.2-18.55-12.28-22.52-15.25-43.79-29.65-70.27-34.56a2.75,2.75,0,0,1,1-5.41c27.61,5.13,50.36,20.52,72.35,35.41,6,4.06,12.2,8.26,18.41,12.19,3.39,2.14,20.28,13.45,19.69,25.36-.25,5-3.46,9.11-9.56,12.17A19.78,19.78,0,0,1,1037.86,1456.42Z"/><path class="cls-2" d="M988.45,1478.51c-.49,0-1,0-1.4-.06-14.32-1.25-32.9-10.71-55.22-28.11-2.22-1.73-4.31-3.63-6.34-5.47-4.33-3.94-8.43-7.67-13.59-9.72-5.93-2.35-12-2.88-18.37-3.44-2.49-.22-5-.44-7.52-.76a335.44,335.44,0,0,1-46.36-9.31c-10.08-2.79-19.56-7.05-28.73-11.16-7.16-3.21-14.57-6.53-22.12-9.08-10.3-3.48-22.57-4.32-36.78-5.3-9.86-.68-20.06-1.38-31-3a2.76,2.76,0,0,1-2.31-3.13,2.8,2.8,0,0,1,3.13-2.31c10.77,1.62,20.85,2.32,30.61,3,14.59,1,27.19,1.87,38.16,5.58,7.8,2.63,15.33,6,22.61,9.27,9,4,18.28,8.2,28,10.88a328.88,328.88,0,0,0,45.6,9.15c2.45.32,4.88.53,7.29.74,6.51.57,13.24,1.16,19.92,3.81,6.09,2.42,10.75,6.66,15.26,10.76,2,1.85,4,3.6,6,5.2,21.48,16.74,39.08,25.81,52.32,27,3.11.24,8.8-1,10.61-3.51.42-.59.81-1.48.07-3.12-1.54-3.42-5.74-7.34-9.12-10.5-1.06-1-2.05-1.91-2.9-2.77-13.68-13.63-27.61-22.52-47-33.26a63.07,63.07,0,0,1-6-4,38.86,38.86,0,0,0-8.26-4.95,2.75,2.75,0,1,1,2-5.14,42.71,42.71,0,0,1,9.51,5.62,57.93,57.93,0,0,0,5.47,3.62c15.87,8.77,32.66,18.64,48.26,34.19.81.81,1.77,1.7,2.77,2.64,3.74,3.49,8.4,7.84,10.39,12.26a8.36,8.36,0,0,1-.61,8.57C999.64,1476.84,993,1478.51,988.45,1478.51Z"/><path class="cls-2" d="M730.72,1430a11,11,0,0,1-7.53-3.21,17.23,17.23,0,0,1-3.75-4.73,46.14,46.14,0,0,1-3.32-8.38,52.12,52.12,0,0,1-1.92-12c-1.49-29.55,7.88-59.27,16-79,3.9-9.49,8.69-20.35,16-29.29,4.36-5.32,8.22-7.81,11.33-7.35a5.31,5.31,0,0,1,4.19,3.47,2.75,2.75,0,1,1-5,2.17,1.07,1.07,0,0,0-.18-.32c-.47.12-3,1.83-6,5.51-6.85,8.36-11.43,18.79-15.19,27.9-7.91,19.21-17,48.09-15.6,76.62a46.32,46.32,0,0,0,1.72,10.74,40,40,0,0,0,2.91,7.37,12,12,0,0,0,2.6,3.21c2.14,2,3.76,1.89,4.78,1.65,4.38-1,9.48-8.4,12.06-14.85.33-.84.63-1.71.94-2.59s.69-2,1.08-3,.75-2.24,1.08-3.37a37.3,37.3,0,0,1,1.26-3.92,2.75,2.75,0,0,1,5.11,2,32.25,32.25,0,0,0-1.08,3.37c-.38,1.32-.76,2.64-1.26,3.91-.36.89-.68,1.81-1,2.72s-.66,1.89-1,2.81c-.66,1.65-6.66,16.07-16,18.18A9.79,9.79,0,0,1,730.72,1430Z"/><path class="cls-2" d="M680,1463.53c-7.75,0-17.06-3.87-20.44-10.73s-3.14-13.32-2.9-20.18l.05-1.47c.48-14.88,5.48-29.16,10.32-43l.2-.57c12.76-36.41,26.94-62.64,44.6-82.56l1.91-2.18c1.32-1.53,2.64-3.05,4-4.51,1.79-1.87,3.67-3.66,5.55-5.44l.55-.53c6.5-6.18,18.83-16.2,28.21-13.91,4.08,1,7,4,8.75,9a2.75,2.75,0,1,1-5.19,1.8c-1.1-3.16-2.69-5-4.86-5.48-5.82-1.38-15.75,5.56-23.12,12.56l-.55.53c-1.82,1.72-3.64,3.45-5.37,5.26-1.33,1.38-2.59,2.84-3.85,4.3l-1.95,2.24c-17.18,19.35-31,45-43.53,80.72l-.2.56c-4.7,13.42-9.56,27.29-10,41.33l-.05,1.49c-.23,6.41-.42,12,2.33,17.55,2.67,5.4,12.06,8.49,18,7.45,9.36-1.63,27.89-18.29,30.91-30a2.78,2.78,0,0,1,3.35-2,2.75,2.75,0,0,1,2,3.35c-3.56,13.82-24.07,32.08-35.28,34A20.6,20.6,0,0,1,680,1463.53Z"/><path class="cls-2" d="M749.43,1284.1a2.35,2.35,0,0,1-.45,0,118.53,118.53,0,0,0-15.67-1.14c-4.29-.13-8.73-.26-13-.75-22.35-2.54-44.95-7.07-66.8-11.45-8.56-1.72-17.1-3.43-25.62-5-14.38-2.7-29.11-5.1-43.35-7.42-18.18-3-37-6-55.31-9.75-11.8-2.38-22.89-7.1-33.61-11.66-10.18-4.33-20.71-8.81-31.63-11.15-17-3.66-32.84-.26-49.56,3.33-4.7,1-9.43,2-14.25,2.91a2.75,2.75,0,1,1-1-5.42c4.76-.86,9.43-1.87,14.08-2.86,17.31-3.73,33.67-7.24,51.86-3.34,11.44,2.45,22.21,7,32.63,11.47s21.3,9,32.55,11.33c18.23,3.69,37,6.75,55.11,9.71,14.27,2.32,29,4.73,43.47,7.44,8.55,1.6,17.11,3.31,25.7,5,21.73,4.36,44.21,8.87,66.33,11.38,4.07.47,8.4.6,12.58.72a123.33,123.33,0,0,1,16.4,1.21,2.75,2.75,0,0,1-.45,5.47Z"/><path class="cls-2" d="M730.28,1430.44H730l-68.64-6.87a2.75,2.75,0,1,1,.55-5.47l68.64,6.86a2.75,2.75,0,0,1-.28,5.49Z"/><path class="cls-2" d="M647.79,1466.35c-18.59,0-37.37-2.36-56.49-5-64.46-9-133.14-21.5-198.62-51.79-11-5.07-21.61-10.66-31.9-16.06q-5.08-2.67-10.21-5.33c-1.17-.61-2.45-1.21-3.76-1.84-5.39-2.54-11.48-5.44-15.07-10.37a2.75,2.75,0,1,1,4.45-3.23c2.76,3.8,8.18,6.37,13,8.64,1.38.64,2.71,1.28,3.94,1.91,3.43,1.78,6.83,3.57,10.23,5.35,10.24,5.37,20.82,10.92,31.66,15.94,64.83,30,133,42.39,197.07,51.33,24.19,3.38,47.82,6.24,71,4.38,1.5-.12,3.3-.15,5.26-.18,5.23-.07,12.4-.17,15.35-2.6a2.75,2.75,0,1,1,3.49,4.25c-4.44,3.65-12.38,3.76-18.76,3.85-1.83,0-3.51.05-4.89.16C658.26,1466.16,653,1466.35,647.79,1466.35Z"/><path class="cls-2" d="M328.38,1372.37a2.75,2.75,0,0,1-2-.89c-27.94-30.66-17.13-80-9.23-116l1.36-6.26c2.61-12,5.51-24.09,8.6-35.78,2.95-11.13,6.49-24.32,10.4-37.69,21.16-72.32,44.74-149.19,79.75-224.16C434,915.8,455.57,875.31,489,846.57c21.44-18.42,48.57-26.93,74.8-35.16,16.51-5.18,33.57-10.54,48.71-18.28A2.75,2.75,0,1,1,615,798c-15.55,8-32.85,13.38-49.57,18.63-25.7,8.06-52.28,16.4-72.86,34.08-32.67,28.06-53.92,67.92-70.4,103.22-34.84,74.61-58.35,151.26-79.45,223.37-3.89,13.31-7.42,26.46-10.36,37.56-3.08,11.61-5.95,23.56-8.54,35.54l-1.37,6.27c-8.06,36.76-18.1,82.52,7.92,111.07a2.74,2.74,0,0,1-2,4.6Z"/><path class="cls-2" d="M480,1229.07a2.76,2.76,0,0,1-2.68-2.14c-12.12-52.46-13.38-106.6-11.55-171.76.17-6.05.72-12.14,1.25-18,.6-6.67,1.22-13.57,1.27-20.33.07-9.1-2.22-18.19-4.43-27-2.37-9.38-4.81-19.08-4.53-29.09a2.9,2.9,0,0,1,2.82-2.68,2.76,2.76,0,0,1,2.68,2.83c-.26,9.25,2,18.16,4.36,27.6,2.3,9.12,4.68,18.56,4.6,28.37-.05,7-.68,14-1.29,20.77-.53,5.8-1.07,11.8-1.23,17.69-1.82,64.73-.58,118.47,11.41,170.36a2.75,2.75,0,0,1-2.06,3.3A2.7,2.7,0,0,1,480,1229.07Z"/><path class="cls-2" d="M478.4,1583.94a2.75,2.75,0,0,1-2.66-2.06c-4.55-17.59-1.4-127.37,2.14-133.38a2.75,2.75,0,1,1,4.74,2.79c-2,5.49-6.4,110.49-1.55,129.21a2.75,2.75,0,0,1-2,3.35A2.8,2.8,0,0,1,478.4,1583.94Z"/><path class="cls-2" d="M528.92,1474.35a2.75,2.75,0,0,1-2.61-1.89c-1.43-4.28,1.19-21.3,5.92-24.37a2.75,2.75,0,1,1,3,4.61c-2.13,1.81-4.61,15.28-3.7,18a2.75,2.75,0,0,1-1.75,3.48A2.87,2.87,0,0,1,528.92,1474.35Z"/><path class="cls-2" d="M818,1507.39l-13.61,0h-2.92c-57.82-.07-111.16-5.11-158.54-15-26.6-5.54-77.18-12.8-101.49-16.29-8.7-1.25-12.59-1.81-13.49-2a2.75,2.75,0,1,1,1.09-5.39c.79.16,6.26.94,13.18,1.94,24.36,3.49,75.06,10.77,101.83,16.35,47,9.78,100,14.78,157.43,14.86h2.91c47.39,0,96.41.13,144.15-7.28,30.64-4.77,66.24-11,98-20.65,4.25-1.29,8.57-2.91,12.76-4.48a170.3,170.3,0,0,1,17.08-5.73,2.75,2.75,0,0,1,1.37,5.33,166.05,166.05,0,0,0-16.52,5.55c-4.26,1.6-8.67,3.25-13.09,4.6-32.08,9.79-67.92,16-98.74,20.81C905.76,1506.8,861.3,1507.39,818,1507.39Z"/><path class="cls-2" d="M487.72,1452.48a2.71,2.71,0,0,1-.88-.15c-10.38-3.5-25.48-12.77-34.08-19.71a2.75,2.75,0,1,1,3.45-4.28c8.23,6.63,22.59,15.47,32.39,18.78a2.75,2.75,0,0,1-.88,5.36Z"/><path class="cls-2" d="M1088,1457.55a2.74,2.74,0,0,1-2.27-4.29c2.32-3.43,4.72-6.9,7.15-10.41,12.65-18.25,25.72-37.13,32.22-57.39,29.4-91.72,18.61-190.22,8.17-285.49-2.46-22.42-5-45.6-6.93-68.1-.69-8-1.29-16.27-1.9-24.63-4.08-56-8.7-119.48-44.62-164.14-10.78-13.41-28.17-22-43.77-28.66l-1.54-.66c-24.38-10.39-49.59-21.14-75-30.13-3.94-1.39-51.87-19.75-54.56-24.56a2.75,2.75,0,0,1,4.8-2.69c2.71,2.5,37.06,16.92,51.6,22.07,25.59,9,50.88,19.83,75.33,30.25l1.55.66c16.22,6.92,34.36,15.92,45.9,30.27,37,46,41.68,110.38,45.82,167.19.61,8.34,1.21,16.55,1.89,24.57,1.93,22.43,4.46,45.57,6.92,68,10.5,95.83,21.36,194.94-8.4,287.77-6.75,21-20.06,40.26-32.93,58.84-2.42,3.49-4.81,6.94-7.13,10.36A2.72,2.72,0,0,1,1088,1457.55Z"/><path class="cls-2" d="M606.22,1066.59h-.1a2.74,2.74,0,0,1-2.65-2.84c.31-9.13.66-23.32,1.07-40.24,1.41-58.33,3.54-146.48,7.93-175.65,2.69-17.79,6.26-35,20.31-49.46l.66-.69c6.41-6.73,11.53-11,15.76-9.94a2.75,2.75,0,0,1-1.31,5.34c-.68,0-3.1.66-10.47,8.39l-.69.73c-12.92,13.33-16.27,29.58-18.82,46.45-4.34,28.82-6.47,116.77-7.88,175-.41,16.93-.75,31.14-1.06,40.29A2.76,2.76,0,0,1,606.22,1066.59Z"/><path class="cls-2" d="M591,1065.21a2.75,2.75,0,0,1-2.74-2.54c-2.57-33.19,1.94-185.68,7.58-223.12,4.06-26.94,16.62-61.72,53.35-74.4a2.75,2.75,0,0,1,1.8,5.2c-34.14,11.78-45.87,44.58-49.71,70-5.61,37.23-10.09,188.88-7.53,221.89a2.76,2.76,0,0,1-2.53,3Z"/><path class="cls-2" d="M429,936.73a2.91,2.91,0,0,1-1-.2l-.42-.17a3.16,3.16,0,0,1-2.31-3.38,6,6,0,0,0,0-.91,2.76,2.76,0,0,1,2.53-3,2.79,2.79,0,0,1,3,2.53c0,.06,0,.13,0,.18a2.75,2.75,0,0,1-1.71,4.91Z"/><path class="cls-2" d="M595.14,1150.38c-23.35,0-42.34-20-42.34-44.59s19-44.6,42.34-44.6,42.34,20,42.34,44.6S618.48,1150.38,595.14,1150.38Zm0-83.69c-20.31,0-36.84,17.54-36.84,39.1s16.53,39.09,36.84,39.09S632,1127.35,632,1105.79,615.45,1066.69,595.14,1066.69Z"/><path class="cls-2" d="M595.14,1131.2c-13.34,0-24.2-11.39-24.2-25.41s10.86-25.41,24.2-25.41,24.19,11.4,24.19,25.41S608.48,1131.2,595.14,1131.2Zm0-45.32c-10.31,0-18.69,8.93-18.69,19.91s8.38,19.92,18.69,19.92,18.69-8.94,18.69-19.92S605.44,1085.88,595.14,1085.88Z"/><path class="cls-2" d="M1102.17,1600.56a2.75,2.75,0,0,1-2.75-2.67c-1-37.19-11.48-76.78-18.4-103-3.1-11.72-5.54-21-6.15-26.3a2.75,2.75,0,0,1,5.47-.62c.56,4.93,3,14,6,25.52,7,26.45,17.54,66.42,18.58,104.24a2.74,2.74,0,0,1-2.67,2.82Z"/><path class="cls-10" d="M712,531.68a1.76,1.76,0,1,0,1.75-2A1.88,1.88,0,0,0,712,531.68Z"/><path class="cls-2" d="M713.78,536.41a4.73,4.73,0,1,1,4.49-4.73A4.62,4.62,0,0,1,713.78,536.41Zm0-5.5a.93.93,0,0,0-1,.77c0,.83,2,.83,2,0A.93.93,0,0,0,713.78,530.91Z"/><path class="cls-10" d="M822.17,538.56a1.76,1.76,0,1,0,1.75-2A1.88,1.88,0,0,0,822.17,538.56Z"/><path class="cls-2" d="M823.92,543.29a4.73,4.73,0,1,1,4.49-4.73A4.62,4.62,0,0,1,823.92,543.29Zm0-5.5c-.54,0-1,.36-1,.77a1,1,0,0,0,2,0C824.92,538.15,824.45,537.79,823.92,537.79Z"/><path class="cls-5" d="M1500,706.88l-76.35,4.7s4.29,28.5,40.1,26.31C1499.93,735.67,1500,706.88,1500,706.88Z"/><path class="cls-2" d="M1459.92,740.76c-34.25,0-38.93-28.48-39-28.78a2.75,2.75,0,0,1,2.55-3.15l76.35-4.7a2.75,2.75,0,0,1,2.92,2.76c0,.31-.53,31.4-38.83,33.74C1462.55,740.72,1461.21,740.76,1459.92,740.76Zm-32.79-26.64c2.17,6.79,10,22.68,36.46,21,26.83-1.64,32.29-18.38,33.39-25.32Z"/><path class="cls-2" d="M1466.13,678.84a2.67,2.67,0,0,1-.56-.06,2.74,2.74,0,0,1-2.14-3.24,21.69,21.69,0,0,1,2.24-5.61c1.5-2.87,2.11-4.22,1-6.17-.23-.42-.48-.82-.73-1.21a14.47,14.47,0,0,1-1.89-3.86c-.1-.39-.24-1.46-.34-2.3l0-.4a2.64,2.64,0,0,1-.1-.74,2.84,2.84,0,0,1,2.6-2.84c2.6-.14,2.91,2.48,3,3.34.06.55.13,1.24.2,1.55a9.76,9.76,0,0,0,1.22,2.33c.3.46.59.94.87,1.43,2.6,4.63.64,8.39-.93,11.41a16.62,16.62,0,0,0-1.73,4.18A2.75,2.75,0,0,1,1466.13,678.84Z"/><path class="cls-2" d="M1528.79,589.35a2.76,2.76,0,0,1-2.29-1.22c-1.08-1.62-4-3.13-7.89-4-6.76-1.58-16.94-1.4-23.34,4.34a2.76,2.76,0,1,1-3.67-4.11c8-7.13,19.83-7.56,28.27-5.59,3.08.73,8.64,2.51,11.2,6.33a2.74,2.74,0,0,1-.75,3.81A2.7,2.7,0,0,1,1528.79,589.35Z"/><path class="cls-2" d="M1372.45,596.51a2.74,2.74,0,0,1-2.43-4c2.28-4.36,7.91-5.94,11.27-6.88a32.86,32.86,0,0,1,28.41,5.29,2.75,2.75,0,0,1-3.24,4.45,27.26,27.26,0,0,0-23.53-4.48c-2.66.74-6.86,1.92-8,4.17A2.74,2.74,0,0,1,1372.45,596.51Z"/><path class="cls-11" d="M1511.75,625.38a1.76,1.76,0,1,1-1.74-2A1.87,1.87,0,0,1,1511.75,625.38Z"/><path class="cls-2" d="M1510,630.11a4.73,4.73,0,1,1,4.49-4.73A4.62,4.62,0,0,1,1510,630.11Zm0-5.5a.93.93,0,0,0-1,.77c0,.83,2,.83,2,0A.93.93,0,0,0,1510,624.61Z"/><path class="cls-11" d="M1396.65,627.17a1.76,1.76,0,1,1-1.75-2A1.87,1.87,0,0,1,1396.65,627.17Z"/><path class="cls-2" d="M1394.9,631.89a4.73,4.73,0,1,1,4.5-4.72A4.62,4.62,0,0,1,1394.9,631.89Zm0-5.5a.93.93,0,0,0-1,.78c0,.86,2,.7,2,0A.93.93,0,0,0,1394.9,626.39Z"/><path class="cls-2" d="M1347.2,697.58l-.28,0c-6.17-.61-11.4-4.91-15.6-8.36l-.49-.41c-14.38-11.79-22.56-31.73-22.45-54.68,0-5.93,1-13.61,5.67-16.53,1.68-1.06,4.57-1.91,8.69,0a14,14,0,0,1,4.85,4,2.75,2.75,0,0,1-4.41,3.29,8.57,8.57,0,0,0-2.79-2.29c-1.5-.71-2.65-.83-3.41-.35-1.86,1.17-3.07,5.84-3.1,11.89-.11,21.3,7.34,39.67,20.44,50.41l.5.41c3.81,3.13,8.13,6.69,12.64,7.14a2.75,2.75,0,0,1-.26,5.49Z"/><path class="cls-2" d="M1337.24,670.23a2.74,2.74,0,0,1-2.21-1.11c-2.81-3.78-5.71-7.69-6.07-13.68a32.88,32.88,0,0,1,.39-6c.45-3.51.87-6.84-.78-9.06a2.75,2.75,0,1,1,4.42-3.28c3,4,2.35,8.8,1.82,13a28.15,28.15,0,0,0-.36,5c.25,4.07,2,6.77,5,10.74a2.76,2.76,0,0,1-.57,3.85A2.73,2.73,0,0,1,1337.24,670.23Z"/><path class="cls-2" d="M1450.72,798.84a81.61,81.61,0,0,1-35.26-8c-47.23-22.36-67.76-83.27-68.61-85.86a2.75,2.75,0,0,1,5.23-1.72c.2.61,20.66,61.28,65.76,82.61,20.47,9.69,43.1,9.87,67.23.56,92.58-35.74,78.93-187.05,78.78-188.57a2.75,2.75,0,0,1,2.47-3,2.72,2.72,0,0,1,3,2.47c.16,1.57,14.16,157-82.27,194.24A100.8,100.8,0,0,1,1450.72,798.84Z"/><path class="cls-2" d="M1329.84,622.29a2.75,2.75,0,0,1-1.61-5c12.77-9.15,30-27.82,48.22-47.59,43.57-47.25,97.81-106,132-78.54a2.75,2.75,0,0,1-3.45,4.29c-30.15-24.27-82.44,32.42-124.47,78-18.42,20-35.83,38.86-49,48.33A2.74,2.74,0,0,1,1329.84,622.29Z"/><path class="cls-2" d="M1566.55,596.87a2.72,2.72,0,0,1-2.41-1.43c-4.3-7.8-7.3-21.11-10.48-35.21-5.47-24.24-11.66-51.7-25.58-60.22-4.4-2.69-9.33-3.3-15.06-1.84a2.75,2.75,0,1,1-1.36-5.33c7.13-1.82,13.62-1,19.29,2.47,15.9,9.74,22.37,38.41,28.08,63.71,3.09,13.7,6,26.65,9.92,33.77a2.75,2.75,0,0,1-2.4,4.08Z"/><path class="cls-2" d="M1312.06,600.78a2.75,2.75,0,0,1-2.69-2.21c-.44-2.19-10.34-54.22,16.55-104.7,19-35.7,48.33-61.43,80.42-70.59,21.45-6.13,41.87-4.11,59.05,5.84a2.75,2.75,0,0,1-2.76,4.76c-15.85-9.19-34.81-11-54.78-5.31-30.66,8.75-58.76,33.5-77.08,67.89-26,48.76-16.11,100.52-16,101a2.76,2.76,0,0,1-2.17,3.23A2.47,2.47,0,0,1,1312.06,600.78Z"/><path class="cls-2" d="M1576.17,591.5a1.83,1.83,0,0,1-.33,0,2.75,2.75,0,0,1-2.41-3.06c8.24-68.55-23.89-123-59.39-146.5-16-10.59-31.62-13.89-40.82-8.63a2.75,2.75,0,1,1-2.74-4.78c11.18-6.41,28.6-3.11,46.6,8.82,36.91,24.47,70.34,80.87,61.81,151.75A2.74,2.74,0,0,1,1576.17,591.5Z"/><path class="cls-2" d="M1565.53,676.69a2.76,2.76,0,0,1-1.94-4.7c15.88-15.88,23.11-35.92,20.91-58l-.19-2.06c-.28-3.4-.61-7.25-2.12-9.77-1.93-3.22-5-5.28-7.69-5.21-2,.07-3.54,1.31-4.73,3.68a2.75,2.75,0,1,1-4.91-2.46c2.08-4.18,5.44-6.57,9.43-6.72,4.74-.16,9.64,2.91,12.61,7.88,2.18,3.61,2.56,8.14,2.89,12.14l.18,2c2.37,23.74-5.41,45.32-22.5,62.4A2.72,2.72,0,0,1,1565.53,676.69Z"/><path class="cls-2" d="M1560.06,841.35a2.75,2.75,0,0,1-1.89-.75c-17.6-16.61-19.83-38.3-22-59.27q-.32-3-.68-6c-.57-4.95-1.17-10.06-1.32-15.14,0-.49-.19-2.2-.36-4-.62-6.56-.64-6.82,1.14-7.69l2.31,5-1.1-2.52,2.73.11c0,.55.22,2.61.4,4.59s.36,3.82.38,4.35c.14,4.83.72,9.82,1.29,14.65q.36,3.06.68,6.11c2,20,4.17,40.62,20.29,55.82a2.76,2.76,0,0,1-1.89,4.76Z"/><path class="cls-2" d="M1383.61,795.27a2.8,2.8,0,0,1-1.27-.31,57.63,57.63,0,0,0-6.92-2.74c-9.23-3.24-21.87-7.69-24.48-20.15-2-9.32,4.29-21.62,6.25-25.17,0-.09,4.8-8.51,8.42-9.12a3.25,3.25,0,0,1,2.77.79,2.76,2.76,0,0,1-1.8,4.8,36.37,36.37,0,0,0-4.57,6.19c-3.4,6.15-6.93,15.45-5.69,21.38,2,9.43,12.48,13.13,20.92,16.1a61.21,61.21,0,0,1,7.65,3,2.75,2.75,0,0,1-1.28,5.19Z"/><path class="cls-2" d="M1468,1104.9h0a2.75,2.75,0,0,1-2.71-2.79c.91-55.54-21.27-106.4-42.73-155.59-4.12-9.45-8.23-18.89-12.19-28.34l-.91-2.19c-10.5-25.08-22.39-53.51-25.9-81.28a223.33,223.33,0,0,1-1.24-26.24c-.06-7.18-.12-14.6-.8-21.77a81.69,81.69,0,0,0-1.94-11.16c-.86-3.89-2-8.73-3-16.37a2.75,2.75,0,0,1,5.45-.77c1,7.42,2.06,12,3,15.94a88.22,88.22,0,0,1,2,11.84c.7,7.4.76,15,.82,22.25A217.12,217.12,0,0,0,1389,834c3.41,27,14.65,53.88,25.52,79.85l.91,2.18c3.94,9.43,8,18.85,12.16,28.27,21.68,49.73,44.11,101.15,43.18,157.88A2.74,2.74,0,0,1,1468,1104.9Z"/><path class="cls-2" d="M1455.36,1090.93a2.75,2.75,0,0,1-2.69-2.2c-2.69-13.07-16.86-40.53-26-47.86a2.75,2.75,0,0,1,3.44-4.3c10.37,8.31,25,36.7,28,51a2.75,2.75,0,0,1-2.14,3.25A2.6,2.6,0,0,1,1455.36,1090.93Z"/><path class="cls-2" d="M1435.85,1082.93a2.74,2.74,0,0,1-1.6-.51,79.64,79.64,0,0,0-10.53-6c-2.93-1.48-6-3-8.74-4.75a271.87,271.87,0,0,1-39.61-29.47c-1-.91-15.82-17.19-14.07-21.59a2.75,2.75,0,0,1,5.31,1c1,2.58,8.74,13.09,12.46,16.47a266.8,266.8,0,0,0,38.82,28.87c2.58,1.61,5.36,3,8.31,4.51a84.21,84.21,0,0,1,11.26,6.42,2.75,2.75,0,0,1-1.61,5Zm-69.43-60.27h0Z"/><path class="cls-2" d="M1375.2,1058.23a2.71,2.71,0,0,1-1.83-.7c-16.13-14.38-29.56-33.89-41.07-59.64-22.08-49.42-24.3-105-6.42-160.9,4.52-14.12,23.67-57.38,28.85-60.9a2.75,2.75,0,0,1,3.1,4.55c-3.33,2.89-21.24,41-26.71,58-17.46,54.53-15.31,108.81,6.21,157,11.18,25,24.16,43.94,39.7,57.78a2.76,2.76,0,0,1-1.83,4.81Z"/><path class="cls-2" d="M1493.57,1182.27a2.74,2.74,0,0,1-2.67-2.13c-2.23-9.69-5.66-27.81-7.13-36.94-2.63-16.41-5.39-32.82-8.15-49.22-2.19-13.08-4.39-26.16-6.52-39.23-6.73-41.18-17.08-94.92-37.52-145.28-6.31-15.54-14.22-30.43-21.86-44.83-9.81-18.48-20-37.58-26.82-58.25a2.75,2.75,0,1,1,5.22-1.73c6.72,20.22,16.76,39.12,26.46,57.4,7.71,14.52,15.68,29.54,22.09,45.34,20.66,50.87,31.08,105,37.85,146.46q3.21,19.61,6.53,39.2c2.75,16.43,5.51,32.84,8.15,49.28,1.45,9,4.85,27,7.06,36.56a2.75,2.75,0,0,1-2.06,3.3A2.7,2.7,0,0,1,1493.57,1182.27Z"/><path class="cls-2" d="M1624.7,1204.63a2.8,2.8,0,0,1-1.16-.26,2.74,2.74,0,0,1-1.35-3.62c.86-2.64-2.1-17.31-3.37-23.59-.72-3.58-1.29-6.41-1.46-7.85a2.75,2.75,0,1,1,5.46-.65c.15,1.22.73,4.09,1.4,7.42,3.17,15.76,4.43,23.81,3,27A2.74,2.74,0,0,1,1624.7,1204.63Z"/><path class="cls-2" d="M1619.24,1157.5a2.75,2.75,0,0,1-2.74-2.49c-.14-1.5-.64-5.08-1.13-8.57-.46-3.31-.91-6.54-1-7.94-5.56-56.85-12.65-122.87-26.35-187.08-4.65-21.8-9.4-44-15.47-65.43a2.75,2.75,0,0,1,5.29-1.5c6.12,21.58,10.89,43.89,15.49,65.47,13.84,64.8,20.94,131,26.51,188,.14,1.36.58,4.51,1,7.72.51,3.6,1,7.28,1.16,8.82a2.76,2.76,0,0,1-2.49,3Z"/><path class="cls-2" d="M1568.15,865.07a2.76,2.76,0,0,1-2.74-2.55l-.07-1c-1.08-14.9-1.15-15.79-6.73-20.88a2.75,2.75,0,0,1,3.7-4.07c7.21,6.57,7.41,9.32,8.52,24.55l.07,1a2.75,2.75,0,0,1-2.55,2.94Z"/><path class="cls-2" d="M1573.37,1003.8c-2.41,0-5-.62-5.86-3-2.88-7.68-6-29.21-6.51-33.87-.91-8.8-4.17-61.21-1-86.1.68-5.34,5.3-13.91,9.78-22.21,3.33-6.17,7.89-14.62,7.68-16.85-.3-3.21-7.64-14.25-16.48-20.31-3.21-2.2-7.88-4.57-12-3.43a2.75,2.75,0,0,1-1.5-5.3c4.82-1.37,10.56.08,16.56,4.19,9.53,6.53,18.33,18.84,18.85,24.34.34,3.7-2.94,10-8.32,20-4,7.48-8.61,16-9.16,20.28-3.09,24.43.14,76.15,1,84.85.55,5.32,3.48,24.57,6,31.87a14.14,14.14,0,0,0,6.13-1c-1.31-11-3.39-25.38-5.07-37.06l-.52-3.64c-3.33-23.28-6.42-50-.88-72.86,3.19-13.14,12.54-29.1,29.21-34.48,45.86-14.8,65.86,38.33,79.1,73.48,1,2.76,2,5.41,3,7.9,2.32,6,4.1,11.76,5.67,16.84,2.8,9.07,5.22,16.9,8.62,18.58.63.32,1.69.65,3.72-.09a2.75,2.75,0,0,1,1.88,5.17,9.88,9.88,0,0,1-8-.15c-5.52-2.73-8-10.76-11.43-21.89-1.54-5-3.3-10.66-5.54-16.47-1-2.51-2-5.17-3-7.95-12.51-33.19-31.41-83.37-72.27-70.18-14.51,4.68-22.71,18.85-25.55,30.54-5.32,21.87-2.28,48,1,70.79l.52,3.63c1.74,12.09,3.9,27.15,5.21,38.29.21,1.78-.71,4.19-6.28,5.54A19.66,19.66,0,0,1,1573.37,1003.8Z"/><path class="cls-2" d="M1699.78,971.81a2.75,2.75,0,0,1-.68-5.42l1.48-.37c1.74-.43,3.91-1,4.24-1.36s.13-2.27-.39-5.49c-3.89-24.14-27.71-74.63-34.12-84.59-14.86-23.11-36.84-42.37-71.28-62.44-14.11-8.23-42-21.3-56.87-18.16a2.75,2.75,0,0,1-1.14-5.38c20.3-4.33,56.7,16.41,60.78,18.78,35.23,20.54,57.79,40.35,73.14,64.22,6.75,10.51,30.85,61.41,34.92,86.69,1.56,9.68-.12,11.12-7.95,13.07l-1.45.36A2.71,2.71,0,0,1,1699.78,971.81Z"/><path class="cls-2" d="M1597.49,835.06a2.75,2.75,0,0,1-2.45-1.49c-9-17.39-35.81-28.41-51.62-31.58a2.75,2.75,0,1,1,1.08-5.39c14.5,2.9,44.75,13.83,55.43,34.44a2.76,2.76,0,0,1-2.44,4Z"/><path class="cls-2" d="M1735.25,1084.16a2.75,2.75,0,0,1-2.51-1.62c-6.33-14-11-29.64-15.53-44.73-2.27-7.56-4.61-15.37-7.09-22.73-1.19-3.5-2.86-8.67-4.7-14.34-3.51-10.8-7.49-23-9.89-29.51a2.75,2.75,0,0,1,5.16-1.91c2.44,6.56,6.43,18.86,10,29.72,1.83,5.65,3.5,10.8,4.68,14.28,2.51,7.45,4.87,15.31,7.15,22.91,4.47,14.92,9.1,30.34,15.28,44a2.76,2.76,0,0,1-1.38,3.64A2.69,2.69,0,0,1,1735.25,1084.16Z"/><path class="cls-2" d="M1742.91,1074.36h-.27a2.75,2.75,0,0,1-2.48-2.8,53.19,53.19,0,0,0-2.51-7.52l-.21-.56c-.81-2.61-1.57-5.22-2.34-7.84l-1.15-3.93c-1.19-4-2.37-8.06-3.55-12.09-4-13.58-8.09-27.63-12.72-41.22-2.55-7.46-8.8-24.37-11.89-31.54a2.75,2.75,0,1,1,5-2.17c3.19,7.4,9.41,24.21,12.05,31.93,4.67,13.71,8.8,27.81,12.79,41.46q1.77,6,3.55,12.07l1.16,4c.75,2.57,1.5,5.15,2.29,7.71,2.91,7.7,3,9.1,3,10.06A2.74,2.74,0,0,1,1742.91,1074.36Z"/><path class="cls-2" d="M1641.65,1173.74a46.42,46.42,0,0,1-12.25-1.32c-38.07-10.36-43.37-53.22-47.63-87.65-.74-6-1.44-11.66-2.28-16.86-1.29-8-9.46-60.62-9.57-65.55a2.75,2.75,0,0,1,2.69-2.81h.06a2.75,2.75,0,0,1,2.75,2.68c.09,4.09,7.63,53.17,9.51,64.81.85,5.29,1.56,11,2.31,17,4,32.81,9.1,73.63,43.6,83,4.44,1.21,9.47,1.21,14.65,1.08a2.75,2.75,0,1,1,.13,5.5C1644.29,1173.72,1643,1173.74,1641.65,1173.74Z"/><path class="cls-2" d="M1645,1165.23h-.16a123.43,123.43,0,0,1-13.58-1.62c-28.28-4.91-34.94-44.73-39.35-71.09l-.14-.86c-1-5.94-4-24.27-7-43-3.47-21.2-7-42.87-7.79-47.44a2.75,2.75,0,0,1,2.25-3.18,2.79,2.79,0,0,1,3.18,2.25c.77,4.57,4.32,26.26,7.79,47.48,3,18.69,6,37,7,43l.15.86c4.15,24.82,10.42,62.33,34.87,66.57a116.89,116.89,0,0,0,13,1.55,2.75,2.75,0,0,1-.16,5.49Z"/><path class="cls-2" d="M1656,1176.61a33,33,0,0,1-7-1l-1.56-.34A3,3,0,0,1,1645,1173c0-.11-1.77-11.47-.26-14.69a5.35,5.35,0,0,1,3.74-2.56c3.35-.89,12.08-1.23,14.76.64a10.66,10.66,0,0,1,4.28,7.84,11.36,11.36,0,0,1-2.84,9A11.68,11.68,0,0,1,1656,1176.61Zm-5.81-6.35c3.58.78,8,1.75,10.59-.89a6,6,0,0,0,1.3-4.59,5.19,5.19,0,0,0-2-3.85c-1.37-.58-8.18-.56-10.44.21A61.73,61.73,0,0,0,1650.18,1170.26Z"/><path class="cls-2" d="M1660.22,1200.71a2.7,2.7,0,0,1-2-.84,2.76,2.76,0,0,1,0-3.89c5.62-5.44,10.07-12.32,14.38-19,2.11-3.27,4.22-6.53,6.46-9.64,8.19-11.37,15.84-23.5,23.24-35.24,6.17-9.77,12.55-19.88,19.22-29.55a93.32,93.32,0,0,0,5.92-10.67c3.58-7.12,7.28-14.47,12.63-18.93,9.52-7.89,21-14.24,30.24-19.34.75-.42,1.54-.88,2.35-1.35,4.11-2.42,8.77-5.15,13.77-5.19h.24c5.12,0,10,1.18,15.38,2.59,1,.25,2.31.47,3.83.71,5.61.92,13.3,2.17,16.45,6.75a8.21,8.21,0,0,1,1.2,6.46c-1.57,7.62-14,10.5-22.18,12.4-1.39.32-2.59.6-3.51.85-1.2.34-2.56.6-4,.87-3,.58-6.47,1.24-8.19,2.84-6.31,5.81-12.12,12.63-17.74,19.23l-1.6,1.87c-.54.63-1.42,1.5-2.44,2.52-1.67,1.62-6.07,6-6.22,7.55a2.83,2.83,0,0,1-3,2.48,2.75,2.75,0,0,1-2.49-3c.31-3.34,3.59-6.79,7.84-11,.89-.87,1.66-1.62,2.12-2.17l1.6-1.86c5.72-6.72,11.64-13.67,18.18-19.71,2.88-2.66,7.14-3.47,10.89-4.19,1.27-.24,2.48-.47,3.54-.77s2.27-.57,3.74-.91c5.14-1.19,17.19-4,18-8.15a2.66,2.66,0,0,0-.34-2.23c-1.82-2.65-8.7-3.76-12.81-4.44-1.73-.28-3.24-.53-4.34-.82a61.07,61.07,0,0,0-14.18-2.4c-3.52,0-7.51,2.37-11,4.43l-2.47,1.43c-9,5-20.27,11.19-29.38,18.76-4.48,3.71-7.91,10.55-11.23,17.16a97,97,0,0,1-6.31,11.33c-6.62,9.57-13,19.63-19.09,29.35-7.45,11.81-15.15,24-23.43,35.53-2.19,3-4.25,6.22-6.31,9.41-4.48,6.91-9.1,14.06-15.16,19.93A2.76,2.76,0,0,1,1660.22,1200.71Z"/><path class="cls-2" d="M1777.56,1142.68a2.75,2.75,0,0,1-2.34-4.19c3.79-6.19,12.69-13,21.31-19.61,2.29-1.76,4.51-3.46,6.52-5.07.5-.39,1-.85,1.6-1.33,3.33-2.78,7.47-6.26,11.8-6.63a172.9,172.9,0,0,1,18.64-.21c3.61.08,7.19.17,10.71.12,3.84,0,8.45-1.12,9.51-3.36.48-1-.64-2.18-3-4.17-.45-.38-.87-.74-1.25-1.08-8-7.31-12-10.06-22-9.71-3,.1-6.15.06-9.32,0-7.73-.11-15.73-.21-22.7,1.83-3.42,1-6.35,3.32-9.46,5.76-1.56,1.23-3.12,2.45-4.74,3.53-3.4,2.26-7.31,4.34-11.09,6.35-5.2,2.76-10.57,5.63-14.67,9a2.75,2.75,0,1,1-3.47-4.27c4.51-3.67,10.13-6.66,15.56-9.55,3.83-2,7.44-4,10.63-6.08,1.5-1,2.94-2.13,4.38-3.26,3.38-2.66,6.87-5.42,11.31-6.72,7.76-2.27,16.18-2.16,24.32-2.06,3.09,0,6.14.09,9.07,0,12-.36,17.29,3.28,25.89,11.16.32.29.68.59,1.07.92,2.39,2,6.83,5.72,4.44,10.75-2.8,5.89-11.74,6.46-14.41,6.49-3.58.07-7.24,0-10.92-.12a174.57,174.57,0,0,0-18,.19c-2.59.23-6.13,3.2-8.72,5.37l-1.7,1.41c-2,1.63-4.3,3.36-6.62,5.14-7.83,6-16.7,12.79-20,18.12A2.76,2.76,0,0,1,1777.56,1142.68Z"/><path class="cls-2" d="M1792.1,1168.48a2.75,2.75,0,0,1-1.24-5.21c4.77-2.39,9.12-5.91,13.73-9.63,6.19-5,12.58-10.18,20.28-12.63,4.24-1.35,10.09-.69,16.32,0,12.73,1.43,21.94,1.85,24.85-5.76.45-1.19-.15-2-3.1-4.12l-1-.69c-6.19-4.63-10.28-7.69-17.48-7.85-3-.06-6.5-.49-10.15-.94-7.06-.9-15-1.89-20.29,0-5.07,1.8-9.93,4.82-14.63,7.74-1.76,1.1-3.51,2.19-5.28,3.22-1.26.74-2.72,1.5-4.26,2.3-4,2.06-8.48,4.39-10.42,7a2.75,2.75,0,0,1-4.41-3.3c2.7-3.61,7.8-6.25,12.29-8.58,1.45-.75,2.84-1.47,4-2.16,1.72-1,3.43-2.08,5.15-3.15,5-3.08,10.06-6.26,15.7-8.26,6.46-2.29,15.15-1.2,22.81-.25,3.51.44,6.82.85,9.59.92,9,.19,14.12,4.05,20.66,8.94l.86.62c2.48,1.79,7.1,5.1,5,10.55-4.64,12.18-19,10.58-30.61,9.27-5.6-.62-10.9-1.22-14-.23-6.71,2.14-12.43,6.76-18.49,11.66-4.63,3.75-9.42,7.62-14.72,10.28A2.74,2.74,0,0,1,1792.1,1168.48Z"/><path class="cls-2" d="M1801.15,1201.68a2.75,2.75,0,0,1-1.23-5.21c3.19-1.6,5.71-4.69,8.37-8,3.27-4,6.66-8.17,11.81-10.28,4.22-1.71,8.94-.74,13.1.12a38.76,38.76,0,0,0,5.35.86c7.22.48,19.74-2.69,22.7-8.42a1.89,1.89,0,0,0,0-1.92c-1.75-3.45-10.76-6.6-14.89-7.25l-3.5-.56c-9.39-1.53-22.24-3.62-30.77-1.41-4.82,1.25-9.67,3.79-14.36,6.25-1.36.71-2.7,1.41-4,2.07a2.75,2.75,0,1,1-2.46-4.91c1.3-.66,2.61-1.34,3.94-2,5-2.6,10.1-5.29,15.53-6.7,9.63-2.5,22.61-.39,33,1.31l3.47.56c3.16.5,15.64,3.67,19,10.19a7.36,7.36,0,0,1-.07,6.93c-4.86,9.4-21.26,11.81-27.88,11.39a41.93,41.93,0,0,1-6.18-1c-3.55-.73-7.23-1.5-9.9-.4-3.85,1.57-6.65,5-9.63,8.66s-5.92,7.27-10.16,9.4A2.89,2.89,0,0,1,1801.15,1201.68Z"/><path class="cls-2" d="M1820.81,1210.13a2.79,2.79,0,0,1-1.19-.27c-19.19-9.19-43.8-10-65.52-10.69l-4.78-.16c-23.41-.82-47.16,1.37-70.15,3.47-24.94,2.28-50.73,4.64-76.28,3.22-17.4-1-34.25-5.68-50.55-10.24-15.21-4.26-30.95-8.66-46.94-9.91-2.88-.23-6.48-.63-10.24-1-5.82-.63-11.84-1.3-16.17-1.44a2.75,2.75,0,0,1-2.65-2.85,2.79,2.79,0,0,1,2.84-2.65c4.54.15,10.66.83,16.58,1.48,3.69.4,7.24.79,10.07,1,16.52,1.29,32.52,5.77,48,10.1,16,4.48,32.56,9.11,49.36,10,25.15,1.4,50.74-1,75.48-3.21,23.15-2.12,47.11-4.3,70.83-3.48l4.78.15c22.26.72,47.49,1.53,67.71,11.23a2.75,2.75,0,0,1-1.18,5.23Z"/><path class="cls-2" d="M1438.45,1272a2.76,2.76,0,0,1-2.75-2.66c-1-29.55,12.46-52.8,26.4-74.07.11-.18,12.75-17.6,16.78-17.6a2.75,2.75,0,0,1,.92,5.34c-1.9,1.39-10,10.5-13.1,15.27-13.45,20.54-26.5,42.92-25.5,70.87a2.75,2.75,0,0,1-2.65,2.85Z"/><path class="cls-2" d="M1453.87,1281.37a2.75,2.75,0,0,1-2.67-2.09c-1.63-6.52,2.07-15.71,4.78-22.42.43-1.08.83-2.06,1.15-2.91,7.68-20.4,16.44-38,26-52.46.89-1.33,1.77-2.75,2.66-4.19,3.65-5.84,7.77-12.46,14-16.2a2.75,2.75,0,1,1,2.83,4.72c-5.09,3.06-8.68,8.82-12.16,14.39-.93,1.49-1.83,3-2.76,4.33-9.37,14.06-17.94,31.34-25.47,51.35-.33.88-.75,1.9-1.2,3-2.15,5.32-5.74,14.24-4.54,19a2.76,2.76,0,0,1-2,3.33A2.63,2.63,0,0,1,1453.87,1281.37Z"/><path class="cls-2" d="M1716.08,1348c-53.75,0-111-9.43-171.16-28.24-25.22-7.88-47.89-15.27-70.09-25.85-1.29-.62-3-1.3-4.91-2.07-7-2.81-15.68-6.31-18.35-11.43a2.75,2.75,0,1,1,4.87-2.55c1.74,3.32,10,6.67,15.54,8.88,2,.81,3.84,1.55,5.22,2.2,21.87,10.43,44.35,17.75,69.35,25.57,85.32,26.68,164.84,34.32,236.39,22.75l1.11-.18c25-4,59.29-9.6,77.94-27.35a2.75,2.75,0,1,1,3.8,4c-19.88,18.93-55.13,24.64-80.87,28.8l-1.1.18A423.58,423.58,0,0,1,1716.08,1348Z"/><path class="cls-2" d="M1870.42,1309.38a2.72,2.72,0,0,1-1.94-.8,2.76,2.76,0,0,1,0-3.89c11.19-11.24,12.3-29.68,13.28-46l.24-3.91c2.82-43.78-2.19-88.34-14.89-132.44-5.57-19.3-12.33-38.56-18.88-57.19-5.76-16.4-11.72-33.35-16.85-50.31l-3.52-11.73c-7.86-26.32-16-53.54-27.6-78.25-2.45-5.22-4.82-10.57-7.21-15.95-11.82-26.6-24-54.11-47.85-71.34-26.47-19.17-70-18.9-93.62-17-3.72.29-7.5.37-11.15.46-6.53.14-12.68.27-18.74,1.5a2.75,2.75,0,1,1-1.1-5.39c6.54-1.33,13.24-1.47,19.72-1.62,3.57-.07,7.27-.16,10.84-.44,24.34-1.92,69.38-2.14,97.28,18.06,25,18.1,37.53,46.3,49.65,73.56,2.37,5.35,4.73,10.66,7.16,15.85,11.78,25.08,20,52.5,27.89,79l3.52,11.71c5.09,16.84,11,33.73,16.77,50.07,6.57,18.7,13.36,38,19,57.5,12.88,44.71,18,89.9,15.1,134.32l-.24,3.88c-1,16.39-2.21,36.78-14.87,49.5A2.74,2.74,0,0,1,1870.42,1309.38Z"/><path class="cls-2" d="M1527.21,989.6a2.6,2.6,0,0,1-.94-.17,2.74,2.74,0,0,1-1.64-3.52c7.84-21.46,10.45-44.71,13-67.19,1.37-12.11,2.77-24.64,5-36.8.68-3.75,1.18-7.91,1.7-12.31,1.4-11.67,3-24.89,8.77-34.38a2.75,2.75,0,1,1,4.69,2.87c-5.16,8.46-6.66,21-8,32.16-.54,4.49-1,8.73-1.75,12.64-2.18,12-3.58,24.41-4.93,36.44-2.56,22.8-5.21,46.38-13.27,68.46A2.76,2.76,0,0,1,1527.21,989.6Z"/><path class="cls-2" d="M1570.87,1049.37a2.75,2.75,0,0,1-2.58-1.8c-2.08-5.67-6.42-11-10.61-16.1-1-1.28-2.08-2.53-3-3.76-8.05-10.25-17.11-21.09-28.53-34.1-25.21-28.73-51.9-59.53-76.59-92.51a286.7,286.7,0,0,0-27.86-32.3c-.74-.75-1.57-1.65-2.45-2.61-2.64-2.87-6.24-6.8-9.11-7.49a2.75,2.75,0,1,1,1.29-5.34c4.5,1.08,8.59,5.53,11.87,9.11.82.9,1.59,1.73,2.28,2.42a296.25,296.25,0,0,1,28.38,32.91c24.58,32.82,51.18,63.54,76.33,92.18,11.49,13.09,20.61,24,28.72,34.34.94,1.2,1.94,2.42,3,3.67,4.28,5.22,9.12,11.14,11.52,17.68a2.75,2.75,0,0,1-1.63,3.53A2.89,2.89,0,0,1,1570.87,1049.37Z"/><path class="cls-2" d="M1350.94,1212.6a2.73,2.73,0,0,1-2.12-1,2.86,2.86,0,0,1-.6-2.31c.27-1.48,1-2.22,7.83-6.07a93.39,93.39,0,0,1,13.84-6.19,81.53,81.53,0,0,0,13.55-6.12c16.93-10.29,36.59-10,55.67-9.74,2.92,0,5.83.08,8.71.09h0c3.14,0,6.39-.23,9.82-.47a96.57,96.57,0,0,1,15.94-.24,2.75,2.75,0,0,1-.54,5.48,92.52,92.52,0,0,0-15,.25c-3.38.23-6.87.48-10.2.48h0c-2.9,0-5.83,0-8.78-.09-18.25-.28-37.14-.53-52.74,8.95a87.53,87.53,0,0,1-14.44,6.55,86.37,86.37,0,0,0-12.68,5.6l-.41.23c-3.61,2-5,3-5.5,3.33a3.13,3.13,0,0,1-.57.65A2.74,2.74,0,0,1,1350.94,1212.6Z"/><path class="cls-2" d="M1309.5,1299.7a2.75,2.75,0,0,1-1.75-4.87c6.6-5.43,17.79-7.83,27.66-9.95,2.61-.56,5.07-1.08,7.22-1.63,22.5-5.7,48.78-12,75.86-15a207,207,0,0,1,21.39-1.38,26.39,26.39,0,0,1,5.24.45c2.59.33,5.28.67,7.14.24a2.75,2.75,0,1,1,1.23,5.37c-2.8.64-6,.24-9.06-.15a38.79,38.79,0,0,0-4.51-.41h0a203.47,203.47,0,0,0-20.81,1.35c-26.73,2.89-52.78,9.16-75.09,14.82-2.22.56-4.75,1.1-7.43,1.68-8.8,1.89-19.75,4.23-25.32,8.82A2.73,2.73,0,0,1,1309.5,1299.7Z"/><path class="cls-2" d="M1362.53,1280a2.77,2.77,0,0,1-2.65-2c-6.94-24.2-10.73-50.58-14.4-76.11-1.58-11-3.21-22.36-5-33.15-5.33-31.29-15-63.69-30.34-102-3.85-9.58-8.37-19-12.74-28.15-4-8.47-8.23-17.23-11.91-26.12-.36-.89-1-2.16-1.68-3.68-4.41-9.39-7.93-17.52-6.22-22a2.75,2.75,0,0,1,5.14,2c-1,2.68,4.13,13.61,6.06,17.72.76,1.61,1.4,3,1.79,3.92,3.62,8.76,7.77,17.44,11.79,25.84,4.41,9.21,9,18.74,12.87,28.48,15.53,38.65,25.26,71.41,30.66,103.09,1.86,10.86,3.49,22.27,5.08,33.3,3.64,25.34,7.4,51.54,14.24,75.37a2.74,2.74,0,0,1-2.64,3.51Z"/><path class="cls-2" d="M1256.81,1440.22a2.73,2.73,0,0,1-2-.89c-27.13-29.52-44.78-73.6-55.7-104.18-27.54-77.18-31.71-161.38-35.74-242.81-.72-14.6-1.44-29.13-2.29-43.55l-.37-6.21c-2.81-46.77-5.72-95.13,22.23-135.62,19.55-28.33,52.45-37,84.26-45.33,8.1-2.13,15.75-4.14,23.2-6.47l1.17-.36c10.84-3.39,24.33-7.61,33.38-13.35a2.75,2.75,0,1,1,2.94,4.64c-9.66,6.14-23.53,10.47-34.68,14l-1.16.36c-7.58,2.37-15.65,4.49-23.46,6.54-30.84,8.11-62.72,16.48-81.12,43.13-26.87,38.93-24,86.33-21.27,132.17l.37,6.22c.85,14.43,1.57,29,2.3,43.6,4,81,8.15,164.81,35.42,241.23,10.76,30.13,28.12,73.52,54.57,102.31a2.74,2.74,0,0,1-.17,3.88A2.7,2.7,0,0,1,1256.81,1440.22Z"/><path class="cls-2" d="M1320.81,1462.69a117,117,0,0,1-35.58-5.53l-1.26-.4c-5.75-1.79-14.45-4.49-17.3-10.17a2.75,2.75,0,0,1,4.92-2.47c1.8,3.59,9.74,6.06,14,7.39l1.29.4a113.58,113.58,0,0,0,62.24,1.79c6.29-1.53,12.6-3.28,19.29-5.35,31.48-9.72,62-24.34,91.47-38.47,15-7.17,30.42-14.58,45.8-21.25,7.23-3.13,18.43-7.39,31.4-12.32,31.4-11.93,74.39-28.28,89.77-40a2.75,2.75,0,1,1,3.33,4.38c-16,12.18-57.67,28-91.14,40.74-12.91,4.91-24,9.15-31.17,12.23-15.28,6.63-30.7,14-45.61,21.16-29.67,14.22-60.36,28.93-92.23,38.77-6.79,2.1-13.21,3.88-19.6,5.44A124.81,124.81,0,0,1,1320.81,1462.69Z"/><path class="cls-2" d="M1486,1603.94a2.74,2.74,0,0,1-2.72-2.42c-.47-3.87.51-7.83,1.45-11.66a45.56,45.56,0,0,0,1.31-6.68c.76-9.15.87-18.3.92-28.45.31-61.93,2.09-111.73,5.61-156.72a2.81,2.81,0,0,1,3-2.53,2.76,2.76,0,0,1,2.53,3c-3.51,44.85-5.29,94.52-5.6,156.31,0,10.27-.16,19.54-.94,28.88a48.65,48.65,0,0,1-1.45,7.54c-.83,3.36-1.68,6.82-1.33,9.69a2.75,2.75,0,0,1-2.4,3.06A1.88,1.88,0,0,1,1486,1603.94Z"/><path class="cls-2" d="M1638.32,1611.75a2.74,2.74,0,0,1-2.74-2.55c-.72-10.19,0-20.5.7-30.48.39-5.68.8-11.55.94-17.26l.17-7.37c.88-38.14,1.8-77.58.87-116.18-.11-4.51-.19-9-.27-13.58-.37-20.16-.75-41-3.6-60.95a92.91,92.91,0,0,0-2.15-9.81c-1.22-4.75-2.48-9.66-2.68-14.64a2.74,2.74,0,0,1,2.63-2.86,2.8,2.8,0,0,1,2.86,2.63c.18,4.4,1.32,8.82,2.52,13.5a102.84,102.84,0,0,1,2.27,10.4c2.9,20.28,3.28,41.3,3.64,61.63.09,4.53.17,9,.28,13.54.93,38.74,0,78.25-.88,116.45l-.17,7.36c-.13,5.85-.54,11.78-.94,17.52-.69,9.79-1.39,19.91-.7,29.71a2.76,2.76,0,0,1-2.56,2.94Z"/><path class="cls-2" d="M1830.46,1602.2a2.75,2.75,0,0,1-2.71-2.29c-5.53-33-9.81-66.89-13.94-99.65-3.52-27.9-7.16-56.75-11.56-84.93-1-6.42-1.75-13.18-2.54-20.35-2.08-18.86-4.24-38.38-11.32-53.85a2.75,2.75,0,1,1,5-2.29c7.45,16.28,9.65,36.24,11.79,55.54.78,7.1,1.52,13.81,2.51,20.1,4.41,28.26,8.06,57.15,11.58,85.09,4.12,32.71,8.39,66.52,13.91,99.42a2.75,2.75,0,0,1-2.26,3.17A2.45,2.45,0,0,1,1830.46,1602.2Z"/><path class="cls-2" d="M1200.06,1586.66a2.75,2.75,0,0,1-2.74-2.54c-.82-10.84,36-165.72,38.81-170.65a2.75,2.75,0,0,1,4.8,2.68c-2.83,6.48-38.82,158.38-38.12,167.55a2.75,2.75,0,0,1-2.54,3Z"/><path class="cls-2" d="M1412.31,1165.54c-23.35,0-42.34-20-42.34-44.6s19-44.6,42.34-44.6,42.33,20,42.33,44.6S1435.66,1165.54,1412.31,1165.54Zm0-83.7c-20.31,0-36.84,17.54-36.84,39.1s16.53,39.1,36.84,39.1,36.84-17.54,36.84-39.1S1432.62,1081.84,1412.31,1081.84Z"/><path class="cls-2" d="M1412.31,1146.35c-13.34,0-24.2-11.4-24.2-25.41s10.86-25.42,24.2-25.42,24.19,11.4,24.19,25.42S1425.65,1146.35,1412.31,1146.35Zm0-45.33c-10.31,0-18.7,8.94-18.7,19.92s8.39,19.91,18.7,19.91,18.69-8.93,18.69-19.91S1422.61,1101,1412.31,1101Z"/><path class="cls-2" d="M1395.81,1084.57a2.75,2.75,0,0,1-2.61-1.88l-2-5.92c-3-8.62-5.73-16.77-7.54-25.85a2.75,2.75,0,0,1,5.39-1.07c1.75,8.71,4.47,16.7,7.35,25.15l2,6a2.75,2.75,0,0,1-1.74,3.48A3,3,0,0,1,1395.81,1084.57Z"/><path class="cls-2" d="M1411.14,1079.88a2.78,2.78,0,0,1-2.47-1.52,107.74,107.74,0,0,1-5.45-13.36,2.75,2.75,0,0,1,5.2-1.8,102.34,102.34,0,0,0,5.18,12.7,2.75,2.75,0,0,1-2.46,4Z"/><path class="cls-2" d="M693.25,1275.47a2.74,2.74,0,0,1-2.68-2.14c-3-13.37-2.9-27.38-2.38-39.32.3-6.81-.06-13.89-.41-20.74-.33-6.58-.68-13.38-.46-20.09.34-10.78,1.18-21.72,2-32.3,1.08-14.13,2.19-28.74,2.14-43.06-.06-15.3-1.06-30.79-2-45.78-1.49-23.12-3-47-1.2-71a2.75,2.75,0,1,1,5.48.42c-1.79,23.62-.27,47.33,1.21,70.27,1,15.06,2,30.64,2,46.11.06,14.54-1.07,29.26-2.16,43.5-.8,10.52-1.63,21.39-2,32.06-.21,6.48.14,13.16.46,19.62.36,7,.73,14.2.42,21.28-.51,11.57-.64,25.12,2.24,37.85a2.74,2.74,0,0,1-2.07,3.29A2.6,2.6,0,0,1,693.25,1275.47Z"/><path class="cls-2" d="M700.88,1598.67a2.74,2.74,0,0,1-2.72-2.37c-1.1-7.85-8.34-84.8-6-94.41a2.76,2.76,0,0,1,5.35,1.32c-1.94,7.85,4.62,81.94,6.08,92.33a2.74,2.74,0,0,1-2.34,3.1A1.71,1.71,0,0,1,700.88,1598.67Z"/><path class="cls-2" d="M732.66,562.8l-.84,0-62.68-3.47a15.1,15.1,0,0,1-14.21-15.89l.81-14.6a2.75,2.75,0,0,1,5.49.3l-.81,14.61a9.58,9.58,0,0,0,9,10.08l62.67,3.47a9.58,9.58,0,0,0,10.09-9l.81-14.6a2.75,2.75,0,0,1,5.5.31l-.81,14.6A15.1,15.1,0,0,1,732.66,562.8Z"/><path class="cls-2" d="M861.22,570.63l-.84,0L794,566.92A15.1,15.1,0,0,1,779.82,551l.82-14.59a2.75,2.75,0,1,1,5.49.3l-.81,14.6a9.59,9.59,0,0,0,9,10.09l66.34,3.68a9.54,9.54,0,0,0,10.09-9l.81-14.6a2.75,2.75,0,0,1,5.49.31l-.81,14.6A15.11,15.11,0,0,1,861.22,570.63Z"/><path class="cls-2" d="M782.47,553.85a2.74,2.74,0,0,1-1.9-.76c-16.38-15.57-32.36-2.43-33-1.87A2.75,2.75,0,0,1,744,547c.2-.16,20.45-16.82,40.36,2.09a2.75,2.75,0,0,1-1.89,4.75Z"/><path class="cls-2" d="M657.64,541.72a2.75,2.75,0,0,1-2.31-1.25L638.5,514.78a2.76,2.76,0,0,1,4.61-3l16.83,25.7a2.76,2.76,0,0,1-2.3,4.26Z"/><path class="cls-2" d="M874.33,555.83a2.75,2.75,0,0,1-1.73-4.89l20.1-16.26a2.75,2.75,0,1,1,3.47,4.28l-20.11,16.26A2.75,2.75,0,0,1,874.33,555.83Z"/><path class="cls-2" d="M1360.94,659.19a15.11,15.11,0,0,1-15-14.25l-.79-14.6a2.74,2.74,0,0,1,2.59-2.9,2.85,2.85,0,0,1,2.9,2.6l.79,14.6a9.69,9.69,0,0,0,10.09,9l66.35-3.64a9.59,9.59,0,0,0,9-10.08l-.81-14.61a2.75,2.75,0,0,1,2.6-2.89,2.79,2.79,0,0,1,2.89,2.59l.81,14.61a15.08,15.08,0,0,1-14.22,15.87l-66.35,3.64Z"/><path class="cls-2" d="M1485.91,653a15.09,15.09,0,0,1-15-14.25l-.8-14.6a2.75,2.75,0,1,1,5.49-.3l.8,14.6a9.57,9.57,0,0,0,10.09,9l66.34-3.64a9.57,9.57,0,0,0,9-10.08l-.8-14.6a2.74,2.74,0,0,1,2.59-2.9,2.78,2.78,0,0,1,2.89,2.6l.81,14.6a15.09,15.09,0,0,1-14.22,15.88L1486.75,653Z"/><path class="cls-2" d="M1436.79,651.19a2.79,2.79,0,0,1-2-.85,2.76,2.76,0,0,1,.09-3.89c1.59-1.53,15.81-14.92,24-15.33s13.39,5.4,18.36,11l1.07,1.21a2.75,2.75,0,1,1-4.1,3.66l-1.09-1.22c-4.67-5.28-8.16-9.43-14-9.17-4.67.23-15,8.59-20.49,13.8A2.77,2.77,0,0,1,1436.79,651.19Z"/><path class="cls-2" d="M1346,642.41a2.73,2.73,0,0,1-2.07-.94L1327,622.13a2.75,2.75,0,1,1,4.15-3.61L1348,637.85a2.75,2.75,0,0,1-2.07,4.56Z"/><path class="cls-2" d="M1658,1204a2.75,2.75,0,0,1-2.27-4.3c.6-.89,1.17-1.8,1.73-2.7,2-3.29,4.18-6.69,7.87-9.18,9.63-6.51,28.06,1.6,35,6.3a2.75,2.75,0,1,1-3.09,4.55c-6.82-4.63-22.29-10.71-28.81-6.3-2.73,1.85-4.45,4.61-6.28,7.54-.6,1-1.2,1.93-1.85,2.88A2.74,2.74,0,0,1,1658,1204Z"/><path class="cls-2" d="M528,1472.06a2.81,2.81,0,0,1-.49,0c-9.4-1.69-38.42-11.75-40.65-13.23-3.08-2.07,1.18-17.94,1.81-19.09a2.75,2.75,0,0,1,4.81,2.68c-1,1.84-2,9.1-2.32,12.37,5.91,2.35,29.14,10.39,37.32,11.85a2.76,2.76,0,0,1-.48,5.47Z"/></g><g id="Layer_3" data-name="Layer 3"><ellipse class="cls-12" cx="685.77" cy="585.02" rx="23.96" ry="8.61"/><ellipse class="cls-12" cx="830.17" cy="591.63" rx="23.96" ry="8.61"/><ellipse class="cls-12" cx="1386.37" cy="675.34" rx="23.96" ry="8.61" transform="translate(-32.41 71.04) rotate(-2.9)"/><ellipse class="cls-12" cx="1530.64" cy="669.34" rx="23.96" ry="8.61" transform="translate(-31.92 78.34) rotate(-2.9)"/></g></g></svg>