<svg xmlns="http://www.w3.org/2000/svg" viewBox="0 0 1793.58 1283.56"><defs><style>.cls-1{fill:#fff;}.cls-1,.cls-2,.cls-3,.cls-4,.cls-5,.cls-6,.cls-8{fill-rule:evenodd;}.cls-2{fill:#f4877a;}.cls-3{fill:#cbe9e2;}.cls-4{fill:#7483a2;}.cls-5{fill:#e7e5e1;}.cls-6{fill:#e9e2e0;}.cls-7{fill:#495672;}.cls-8{fill:#515c75;}.cls-9{opacity:0.2;}.cls-10{fill:#807672;}.cls-11{fill:#ffb8d4;}</style></defs><g id="Layer_2" data-name="Layer 2"><g id="_Layer_" data-name="&lt;Layer&gt;"><path class="cls-1" d="M838.62,599.75s-5.13,1.75-7.77,5.56c-3.34,4.76-6.41,17.43-9.41,22.44-4.32,7.2-5.48,8.08-10.57,14.27a51.46,51.46,0,0,0-7.55,12.22,105.78,105.78,0,0,1-25,11.58c-19.27,6-45.67,10.67-61.72,16.51-17,6.18-33.73,11.27-47.65,23.44-22.69,19.86-31.61,47.9-37.8,75.56-5.37,23.94-9.85,59.55-12.75,84.36-5,42.26-13.48,88-21,128.3-5.15,27.48-12.28,83.32-4.46,110.69,3.75,13.13,9.34,21.73,20.61,27.78,30.93,16.67,121.08-20.87,121.08-20.87l.31,15.26h349.78l.41-16.08a323.71,323.71,0,0,0,42.33,18.84,223.54,223.54,0,0,0,50.81,11.11c8.65.68,20.3,1.92,31.45-6,18-12.89,16.91-44.92,15.66-63.46-1.28-19.24-1.44-26.62-4-45.72-4-29.43-12.13-70-17.36-99.13-10.06-56-11-97.31-23.68-152.44-4.62-20-13.11-46.44-29.79-60.34-25.1-20.9-73-30.71-87.68-35.78s-47.56-14.88-47.56-14.88-16.8-19.83-21.58-27c-6.92-10.39-8.37-36.89-21.94-40.29-9-2.25-5.81,9.12-8,15.08-8,21.89-21.66,32.81-44.08,38.93-30.34,8.26-56.73-6.21-71.29-30.49C845.53,614.37,838.62,599.75,838.62,599.75Z"/><path class="cls-1" d="M851.76,718.66s-14-60.77-15.63-78.87c-1-11.47,2.49-13.91,2.06-33.6a416.48,416.48,0,0,0-4.6-50s-21.85-2.73-32.43-14.18c-26.83-29.08-47.8-60.28-41.58-101.74,2.45-16.37,9.67-30.66,17.95-44.73,19.58-33.27,53.43-105.12,102.74-98.08,26,3.72,42.42,23.88,67,30.36,14.91,3.92,37.48,5.44,48.2,18,11.87,13.84,14.41,34.83,15.74,52.29,2.83,36.69,9.41,81.44.33,117.79-6.88,27.52-34.18,15.34-40.62,43.2-4.29,18.64-2.27,54.19-2.27,54.19s5.62,11.27,4.35,28.12-12.21,79.41-12.21,79.41-27.52,33.77-53.95,38.92c-12.62,2.46-26.72-16.17-34.2-20.85C868.43,736.26,851.76,718.66,851.76,718.66Z"/><path class="cls-1" d="M783,891.13s1.34,11.28,3,16.77c4,13.65,11.92,33.81,22.56,44.46,2.61,2.61,12.53,8.17,17.17,7.25,0,0,18.25-33.84,22.19-43.31,10.34-24.8,21.71-40.84,14.19-68.35-5.87-21.56-41.38-39-34.44-64.37,1.55-5.69,7-13,11-20.92A60.72,60.72,0,0,0,843.44,749s16.34-2,19.72-8.71,1.77-5.51,1.77-5.51,11.25-3.52,3.64-9.24-60.34-6.85-60.34-6.85a213.64,213.64,0,0,1-15.76,16.11,82.11,82.11,0,0,1-13.63,9.93,33.05,33.05,0,0,1-.11-11.32c.59-3.3,14.36-18.3,16.2-21.87,5.33-10.32,11-22.21,5.35-23-9.57-1.37-12.72,11.25-22.38,18.55-8.59,6.46-14.37,11.39-18.8,19-1.3,2.25-2.51,16.74-4.1,27.25-1.35,8.81-6.82,28.23-6.25,36.25,1,13.65,7,13.22,15,20.26,10.62,9.23,27.11,31.44,30,48.6,1,6-1,10.56-3.09,15.72C787.65,881.57,783,891.13,783,891.13Z"/><path class="cls-1" d="M984.71,956.45s-4.81-9.24-19.34-40.45c-10.43-22.41-22.58-43.33-14.81-68.56,5.64-18.34,34.66-38.8,36.34-58,.85-9.77-17.38-41.43-17.38-41.43s-43.72,2.39-29-20.24c4.72-7.28,10-4.86,18.72-7.63s27.09-2.2,27.09-2.2l19.05.59,16.91,16.58,13.79,9.3s1.78-7.16-3.24-15.82c-4.74-8.17-16.19-17.63-19.54-26-3-7.45-3.24-13.75-1.58-15.62,1.17-1.3,13.71,10,24.91,20.44,8.27,7.71,15.83,14.54,17.31,17.5,6.27,12.55,2.7,15.32,4.54,29.5,1.62,12.33,8.12,22,6.51,32.7-2,13.46-23.16,24.59-29.13,38.38-3.19,7.33-14.06,22.67-15.92,30.33-3.6,14.87,14.12,38.93,14.12,38.93s-12.11,46-31.62,55.78C995,954.27,984.71,956.45,984.71,956.45Z"/><path class="cls-2" d="M910.64,760.32s-14.06-14.83-24.1-20.63-20.87-3-20.87-3-3.58,6-7.16,8.27c-4.84,3-14.7,4.45-14.7,4.45s-16.75,33.25-18.18,39.78c-1.85,8.52,14.51,27.47,20.28,37.67,6.65,11.79,21.87,26.12,34.34,35.7,7.87,6,20.4,16.62,31.49,13.84,8.75-2.19,27.71-17,33.48-23.34,6-6.6,19.25-21.75,25.33-30.64,4.24-6.22,16.6-20.73,16.68-29.53,0-5.15-7.86-19.57-13-30.86a71.56,71.56,0,0,1-4.45-13.61s-10.14-1.29-15.45-3.82-5.8-6.31-5.8-6.31-13.13-.18-22.6,5.32S910.64,760.32,910.64,760.32Z"/><path class="cls-3" d="M891.12,870.39l10.94,54.86s9.41-29.14,9.9-31.29c1.47-6.7,3.87-20.49,3.87-20.49s-3,3.17-9,3.22C901.23,876.74,891.12,870.39,891.12,870.39Z"/><path class="cls-3" d="M778.88,899.85l-10.1,12.24c-2.4,2.91-10.07,9.42-10.07,9.42a276.09,276.09,0,0,0-5.17,30.67c-1.74,17.59.26,38.46,1.33,48.4,1.11,10.25,6.82,28.37,8,38.67.23,2,4.55,18.45,4.55,18.45s7.22-8.87,8.8-11.21c3.45-5.09,11-16.34,17.06-26.48,7.37-12.29,13.36-24.06,18.45-32.85S824,967.5,824,967.5c-10.69,1-26.7-14-33-23.46-5.83-8.75-6.54-12-9.34-22.22C779.87,915.3,778.88,899.85,778.88,899.85Z"/><path class="cls-3" d="M1028.87,888.9s-6,35.07-15.93,46.15c-3.55,4-12.53,12.26-17.91,14.06-2.69.9-12.83,3.21-12.83,3.21s14.75,31,18.9,38.64c7.36,13.45,19,33.62,25.09,42.08,2.3,3.18,15.55,18.51,15.55,18.51s6.8-25.62,7-31.47c.55-15.37,4.89-43.07,4.3-65.7a366.06,366.06,0,0,0-2.88-37.36Z"/><path class="cls-4" d="M817.52,636.18s-11.12,3.65-11.93,4.32a79.26,79.26,0,0,0-11.8,12.69c-8.87,11.53-12.22,26.43-17.38,39.71-3.19,8.2-8.14,24.82-8.14,24.82s8.28-7.08,14.81-13.5c4.89-4.83,8.35-8.82,8.93-11.7,1.28-6.36,3.12-12.66,4.82-18.9,2.4-8.8,7.15-18.23,11.55-26.14C810.61,643.48,817.52,636.18,817.52,636.18ZM753.31,817.76c-.76,11.39-1.12,23.58,0,34.89.18,1.77,2.29,12.81,2.29,12.81s16.54-3.36,17-3.67c0,0-1.09-7.86-1.53-13.33-.47-6,.07-22,0-28-.06-5.73-16.86-18.09-16.86-18.09S753.57,813.92,753.31,817.76Z"/><path class="cls-4" d="M989.09,621.94s2.54,11.71,5.92,17,10.88,10.86,10.88,10.86,3.18,5,7,12c4.58,8.6,6.78,22.4,6.78,22.4l13.22,22.72s19,10.05,22.34,22.51c2.2,8.22,2.47,22.27,4.59,33.08,2.27,11.71,5.4,19.68,5.37,27.33,0,3.48-6.07,16.7-6.07,16.7s3.77,18.35,4.65,23.87c1.49,9.27,1.06,16.27,3.57,25.28.57,2.06,3.4,3.66,6,4.41a5.91,5.91,0,0,0,6.51-2.72c2.07-4.6,1.43-6.89,1.68-11.87,1.29-24.34-6.77-58.68-8.64-70.91s-7.73-35.15-14.75-55.29c-7.7-22-24.21-59.74-41.16-76.68-5.05-5.06-11.41-11.12-17.37-15.09C997,625.79,989.09,621.94,989.09,621.94Z"/><path class="cls-5" d="M778.67,897.25C767.9,912.72,750,931.83,750,931.83c-4.58-.76-10.17-6-14.37-16.67-8.06-20.56,3.47-48.49,26.18-53.39a36.6,36.6,0,0,1,13.89-.45c5.24.78,12.31,4.44,17.4,8.66C793.09,870,789.45,881.79,778.67,897.25Z"/><path class="cls-5" d="M1070.9,862.69c2-1.85,4.58-.34,5.39,2,1.57,4.59,1.26,10.35,1.47,15.12,1,23.33,1.81,46.64,6.82,69.54,1.4,6.46,3.37,13,4.1,19.57.1.84,1.17,5.88-.17,6.26s-3-1.8-4-2.47c-6.57-4.35-7.29-14.93-9.1-22-5.35-20.72-7.12-42.89-7.11-64.22a128.78,128.78,0,0,1,1-17.24C1069.56,867.09,1069.26,864.21,1070.9,862.69Z"/><path class="cls-6" d="M863.15,312.86C846.56,329.47,837,350,829.49,364.39c-9.3,17.76-16.57,36.92-22.46,53.92-8.63,24.92-12,52.24-12,52.24,1.89,12.19,3.78,26.82,11.52,45.08a134.76,134.76,0,0,0,26.74,39.78l5.29,45.72s-17.38,5.84-29.06,1.26c-12.77-5-28.09-16.43-28.09-16.43s-22.88-7.14-31.93-17.71c-13.15-15.33-19-32-22.19-51.23-5.19-31.1,4.18-66.68,11.48-98.89C748,377.77,757,341.21,778.05,308.86c16.1-24.77,37.37-56.21,65.9-66.9,8.44-3.17,22.21-5.79,31.56-6.18a28,28,0,0,1,9.79,1.32s28.49-9.07,49.44-5.58c26.8,4.48,62.73,34.38,77.34,56.29,33.21,49.82,58.44,116.84,63.14,177.75,2.76,36,6.08,73.75-17.52,105.22-3.85,5.13-13.4,6.49-13.4,6.49s-5.33,15.54-29.52,23.44-28.87-6-28.87-6c-6.77,6.19-19.23.17-19.23.17l2-44.25s9.46-10.05,19-30.36,11.84-35,11.84-35A346.63,346.63,0,0,0,990,422.86c-2.55-10.21-9-52-16.82-52.47-11.09-.67-40.1-4.73-50.18-9.78-15.26-7.62-25.8-17.61-34.42-32-4.48-7.47-8.68-28.43-8.68-28.43C876.3,296.61,865.23,310.8,863.15,312.86Z"/><path class="cls-7" d="M898.77,586.91c-1.83,0-3.67,0-5.51-.16-33-1.93-58.74-19.79-81-56.17-14.06-23-18.33-57.5-18.37-57.84A2.44,2.44,0,0,1,796,470a2.47,2.47,0,0,1,2.72,2.13c0,.33,4.18,33.79,17.68,55.87,21.35,34.92,45.84,52,77.12,53.86,36.44,2.11,68.56-18.28,88.07-56,5.92-11.46,13.52-32.39,16-47.57a2.44,2.44,0,1,1,4.81.77c-2.54,15.67-10.36,37.23-16.46,49C966.49,565.73,934.94,586.91,898.77,586.91Z"/><path class="cls-7" d="M972.4,636.69a2.51,2.51,0,0,1-1.63-.6c-9.14-8.08-3.68-79.45-2.44-87.48a2.46,2.46,0,0,1,2.78-2.05,2.44,2.44,0,0,1,2,2.79c-2.29,14.9-4.9,78,.87,83.08a2.44,2.44,0,0,1-1.61,4.26Z"/><path class="cls-7" d="M835.92,634a2.48,2.48,0,0,1-.8-.13,2.44,2.44,0,0,1-1.5-3.1c7.16-20.86-2.19-74.5-2.29-75a2.44,2.44,0,0,1,4.8-.85c.39,2.26,9.66,55.44,2.1,77.49A2.44,2.44,0,0,1,835.92,634Z"/><path class="cls-7" d="M895.21,473.32H895a11.11,11.11,0,0,1-10.27-11.19c0-2.89,1.39-5.18,2.85-7.6a26,26,0,0,0,4.22-10.83,62,62,0,0,0,.56-10.95,2.43,2.43,0,1,1,4.86-.3,67.65,67.65,0,0,1-.58,11.92,31,31,0,0,1-4.89,12.68c-1.25,2.07-2.14,3.54-2.14,5.08a6.29,6.29,0,0,0,5.74,6.33,2.43,2.43,0,0,1-.17,4.86Z"/><path class="cls-7" d="M834.68,397.76a2.46,2.46,0,0,1-2.09-1.18,2.43,2.43,0,0,1,.84-3.34c6.55-3.94,14.23-5.18,23.52-3.76a2.45,2.45,0,0,1,2,2.77,2.47,2.47,0,0,1-2.77,2.05c-5.19-.79-12.93-1.31-20.3,3.12A2.45,2.45,0,0,1,834.68,397.76Z"/><path class="cls-7" d="M955,394.19a2.43,2.43,0,0,1-1.31-.38c-3.09-2-15.71-2.86-19.58-.84a2.44,2.44,0,1,1-2.25-4.32c5.47-2.85,20.11-1.78,24.48,1.06a2.45,2.45,0,0,1,.71,3.38A2.39,2.39,0,0,1,955,394.19Z"/><path class="cls-7" d="M901.22,522c-14.42,0-29.34-3.16-36.43-9.89a2.43,2.43,0,0,1,3.35-3.53c11.57,11,50.25,11,61.56,2.37a2.42,2.42,0,0,1,3.42.46,2.45,2.45,0,0,1-.46,3.42C926.5,519.46,914.06,522,901.22,522Z"/><path class="cls-8" d="M837.8,435.82a6.28,6.28,0,1,1,6.29,6.15A6.22,6.22,0,0,1,837.8,435.82Z"/><path class="cls-8" d="M941.31,434.46a6.28,6.28,0,1,1,6.28,6.14A6.22,6.22,0,0,1,941.31,434.46Z"/><path class="cls-7" d="M851.37,723.25a2.41,2.41,0,0,1-2.34-1.78c-4.52-16.38-21.29-85.51-14.5-99.1a2.44,2.44,0,1,1,4.36,2.19c-4.95,9.89,6.83,66.63,14.83,95.61a2.45,2.45,0,0,1-1.7,3A2.41,2.41,0,0,1,851.37,723.25Z"/><path class="cls-7" d="M901.66,932.28a2.42,2.42,0,0,1-2.41-2.16c-2.67-23.92-9.54-57.88-9.61-58.21a2.43,2.43,0,0,1,1.91-2.88,2.47,2.47,0,0,1,2.87,1.9c.07.34,7,34.52,9.67,58.64a2.43,2.43,0,0,1-2.15,2.69Z"/><path class="cls-7" d="M961.4,723.82a2.59,2.59,0,0,1-.47-.05,2.44,2.44,0,0,1-1.92-2.86l1.9-9.59c6.89-34.52,14-70.23,6.53-92.67a2.43,2.43,0,0,1,4.62-1.54c7.89,23.66.64,60-6.37,95.18l-1.9,9.55A2.44,2.44,0,0,1,961.4,723.82Z"/><path class="cls-7" d="M902.11,1126a2.44,2.44,0,0,1-2.42-2.23,95.41,95.41,0,0,1,1.44-28.57,75.51,75.51,0,0,0,1.32-23c-.82-9.53-2.39-18.11-3.9-26.4-2.17-12-4.44-24.3-4.32-39.16.37-52.21,4.32-76,10.14-95.7,8.14-27.62,9.06-33.48,9.14-34.65a2.74,2.74,0,0,1,0-.5,2.43,2.43,0,0,1,2.43-2.44,2.53,2.53,0,0,1,2,1c.82,1.12,1.69,2.28-8.84,38-5.7,19.29-9.56,42.73-9.95,94.36-.1,14.4,2,26,4.25,38.25,1.54,8.4,3.12,17.08,4,26.86a80.6,80.6,0,0,1-1.38,24.26,90.58,90.58,0,0,0-1.38,27.3,2.42,2.42,0,0,1-2.23,2.63Z"/><path class="cls-7" d="M793,696.89l-.34,0a2.43,2.43,0,0,1-2.08-2.73l.16-1.21c.88-6.67,3.21-24.43,11.16-40.35a38.14,38.14,0,0,1,7.15-9.68,57.51,57.51,0,0,0,8.23-10.6c2.33-3.86,3.76-8.55,5.13-13.08,2.54-8.35,5.16-17,13.6-20.77a2.43,2.43,0,1,1,2,4.44c-6.42,2.89-8.52,9.77-10.93,17.74-1.46,4.82-3,9.8-5.62,14.19a62.5,62.5,0,0,1-8.83,11.41,34.08,34.08,0,0,0-6.36,8.53c-7.6,15.19-9.84,32.34-10.69,38.81l-.16,1.23A2.42,2.42,0,0,1,793,696.89Z"/><path class="cls-7" d="M798.48,730.89a2.43,2.43,0,0,1-2-3.79c3.18-4.75,7.31-13.14,6.08-16.05,0,0-.49-1-4.83-1a2.44,2.44,0,0,1,0-4.87h0c3.26,0,7.78.44,9.28,4,2.72,6.37-5,18.33-6.5,20.67A2.42,2.42,0,0,1,798.48,730.89Z"/><path class="cls-7" d="M1020.78,694.28a2.41,2.41,0,0,1-2.42-2.25c-.55-7.57-5.2-32.16-14.69-40.29s-14.79-17.11-20.61-34.59c-2.75-8.23-8.94-19.25-12.6-18.51a2.43,2.43,0,0,1-1-4.77c10-2,17.38,19.31,18.19,21.75,5.51,16.52,10.53,25,19.16,32.42,11.61,9.94,15.93,37.38,16.38,43.64a2.45,2.45,0,0,1-2.26,2.6Z"/><path class="cls-7" d="M769.12,1057.63a2.4,2.4,0,0,1-1.76-.74,2.44,2.44,0,0,1,.07-3.45c21-20.24,60.78-95.05,82.36-148.39,9.93-24.56,13.87-35,11.88-47C859.49,845,851,835,842.79,825.39c-8-9.35-16.22-19-18.74-31.6-1.27-6.33,3.05-14.36,7.64-22.86,5.37-10,10.91-20.23,7.26-27a93.62,93.62,0,0,0-6.55,8.69,168.32,168.32,0,0,1-13.26,17.18,101.74,101.74,0,0,1-8.58,8.17c-6.64,5.8-9.4,8.2-7.07,18.5a2.43,2.43,0,0,1-4.75,1.07c-3-13.14,1.64-17.17,8.62-23.25a94.78,94.78,0,0,0,8.19-7.79,165.65,165.65,0,0,0,12.87-16.68c5.66-8.07,8.07-11.34,10.91-11.39a3.61,3.61,0,0,1,2.77,1.39c6.93,9.24,0,22.1-6.12,33.44-4,7.38-8.08,15-7.15,19.62,2.25,11.31,9.75,20.09,17.68,29.38,8.63,10.14,17.56,20.61,20,35,2.3,13.8-2.84,26.51-12.16,49.59-21.78,53.81-62.11,129.42-83.51,150.08A2.43,2.43,0,0,1,769.12,1057.63Z"/><path class="cls-7" d="M781.24,794a2.27,2.27,0,0,1-1-.2,2.42,2.42,0,0,1-1.29-3.19c2.13-5,3.89-10.24,5.6-15.32,3.27-9.79,5.88-17.51,10-20,3.85-2.31,7.86-6.26,12.1-10.42,5.48-5.41,11.14-11,17.14-13.55,3.84-1.65,8.32-1.48,12.66-1.32a43.21,43.21,0,0,0,6.78-.07c7.28-.91,11.79-1.36,19.66-.26,2.54.37,3.44,4,3.42,6.41,0,3.76-2.1,12.74-20.9,15.22a2.43,2.43,0,0,1-.64-4.82c8.62-1.14,14.34-3.93,16.1-7.84a6.27,6.27,0,0,0,.33-4.27c-6.66-.86-10.62-.44-17.37.4a47.45,47.45,0,0,1-7.56.1c-3.8-.14-7.73-.28-10.56.93-5.16,2.21-10.49,7.46-15.65,12.53-4.45,4.38-8.66,8.52-13,11.14-2.56,1.53-5.26,9.57-7.87,17.33-1.65,4.94-3.52,10.52-5.73,15.69A2.41,2.41,0,0,1,781.24,794Z"/><path class="cls-7" d="M762.65,784.48a2.49,2.49,0,0,1-1.09-.26,2.45,2.45,0,0,1-1.09-3.27c2.78-5.56,5.73-13.36,8.36-20.26,1.44-3.82,2.83-7.45,4.07-10.46,1.4-3.37,5.21-6.29,9.63-9.7a93.94,93.94,0,0,0,8.42-7c1.82-1.75,3.62-3.86,5.38-5.9,4-4.69,7.81-9.11,12.1-10,5.81-1.16,32.58-1.62,43.32,1.19.52.13,1.33.28,2.34.45,7.4,1.34,15.48,3.2,17.88,8.3.73,1.54,1.21,4.07-.61,7.31a2.44,2.44,0,1,1-4.25-2.38c.88-1.56.69-2.38.46-2.86-1.54-3.25-10.52-4.88-14.35-5.57-1.17-.21-2.11-.39-2.7-.54-9.74-2.55-35.9-2.17-41.15-1.13-2.63.54-6,4.52-9.35,8.37-1.82,2.12-3.7,4.32-5.68,6.23a98.8,98.8,0,0,1-8.84,7.37c-3.71,2.85-7.2,5.54-8.1,7.7-1.22,3-2.59,6.55-4,10.33-2.65,7-5.67,14.93-8.55,20.69A2.44,2.44,0,0,1,762.65,784.48Z"/><path class="cls-7" d="M762.7,921.66A2.4,2.4,0,0,1,761,921a2.45,2.45,0,0,1-.09-3.45c18-19,32.68-48.78,30.94-58-1.86-9.94-16.15-33.47-25.06-43.13a78.43,78.43,0,0,0-6.39-5.94c-4-3.43-8.06-7-10.86-11.61-4.66-7.77-2.43-16-.07-24.8a105.86,105.86,0,0,0,2.71-12c1.1-7.34,1.63-14.28,2-19.85a98.93,98.93,0,0,1,1.38-12.32c1.19-5.13,6.87-11.61,17.4-19.8a129.43,129.43,0,0,0,11.1-10.43c3.67-3.7,7.46-7.53,11-10.43,4-3.34,6.69-1.37,7.4-.68,3.86,3.73,1.39,15.52-5,23.8-2.45,3.17-4.82,5.92-7.11,8.59-3.88,4.49-7.23,8.37-9.3,12.5-.83,1.67-.73,4.28-.61,6.79a24.33,24.33,0,0,1-.35,6.79,2.43,2.43,0,1,1-4.71-1.19,21,21,0,0,0,.19-5.39c-.13-3.14-.27-6.39,1.13-9.18,2.33-4.67,5.87-8.76,10-13.5,2.25-2.62,4.59-5.32,7-8.39,5.51-7.16,6.41-15.19,5.58-17.07a4.36,4.36,0,0,0-1,.68c-3.35,2.75-7.05,6.49-10.63,10.12A131.46,131.46,0,0,1,776,713.94c-11.79,9.18-15,14.35-15.63,17.06a90.19,90.19,0,0,0-1.27,11.6c-.44,5.64-1,12.68-2.08,20.19a111.27,111.27,0,0,1-2.85,12.53c-2.26,8.39-4,15-.45,21,2.39,4,6,7.12,9.86,10.42a88.16,88.16,0,0,1,6.79,6.33c9.52,10.32,24.25,34.71,26.27,45.55,2.19,11.69-14.06,43.12-32.19,62.27A2.44,2.44,0,0,1,762.7,921.66Z"/><path class="cls-7" d="M1041.08,1054a2.47,2.47,0,0,1-1.7-.68c-21.67-20.92-58.43-91.61-80.08-145.13C950,885,944.78,872.26,947.1,858.41c2.41-14.48,11.37-25,20-35.16,8-9.33,15.47-18.14,17.75-29.5.92-4.65-3.2-12.29-7.19-19.69-6.14-11.39-13.09-24.29-6.14-33.56a3.33,3.33,0,0,1,2.77-1.39c2.86,0,5.27,3.33,10.95,11.42a167.68,167.68,0,0,0,12.91,16.76,96.78,96.78,0,0,0,8.23,7.81c7,6.11,11.62,10.14,8.64,23.32a2.44,2.44,0,0,1-4.76-1.07c2.35-10.35-.42-12.75-7.09-18.57a102.54,102.54,0,0,1-8.6-8.2,168.7,168.7,0,0,1-13.32-17.25,91.82,91.82,0,0,0-6.58-8.73c-3.67,6.82,1.89,17.14,7.28,27.15,4.6,8.53,9,16.59,7.67,23-2.52,12.61-10.8,22.31-18.81,31.72-8.24,9.66-16.76,19.65-19,32.8-2,12,2,22.49,11.93,47.14,21.44,53,57.73,123,78.94,143.44a2.45,2.45,0,0,1,.06,3.45A2.42,2.42,0,0,1,1041.08,1054Z"/><path class="cls-7" d="M1032.64,794.89a2.4,2.4,0,0,1-2.23-1.48c-2.22-5.18-4.1-10.79-5.76-15.75-2.62-7.79-5.32-15.85-7.89-17.39-4.54-2.72-9-7.16-13.43-11.44s-8.93-8.75-11.61-9.32a58.24,58.24,0,0,1-6.13-1.8c-4.61-1.54-9.33-3.11-14.71-2.41-2.29.29-4.57.38-6.77.46-6.52.24-10.28.54-11.62,4-.3.77-.14,1.06-.08,1.18.91,1.72,6.51,3,10.62,3.92,2.58.59,5.26,1.19,7.62,2a2.44,2.44,0,1,1-1.53,4.63c-2.15-.72-4.7-1.3-7.17-1.86-6.12-1.39-11.87-2.69-13.84-6.38A6.12,6.12,0,0,1,948,738c2.57-6.65,9.39-6.89,16-7.14,2.09-.08,4.24-.15,6.3-.42,6.48-.85,12,1,16.88,2.61,2,.66,3.86,1.28,5.62,1.67,4.06.86,8.67,5.37,14,10.6,4.16,4.09,8.48,8.32,12.52,10.74s6.7,10.22,10,20c1.71,5.09,3.48,10.37,5.61,15.38a2.42,2.42,0,0,1-1.28,3.19A2.33,2.33,0,0,1,1032.64,794.89Z"/><path class="cls-7" d="M1051.29,785.34a2.47,2.47,0,0,1-2.18-1.35c-2.88-5.79-5.9-13.74-8.57-20.74-1.44-3.8-2.82-7.41-4-10.4-.9-2.17-4.41-4.87-8.11-7.72a103,103,0,0,1-8.89-7.42c-2-1.91-3.87-4.12-5.7-6.26-3.33-3.85-6.76-7.84-9.4-8.38-5-1-25.36-1.43-37.09,1.23-14.86,3.37-23.53,7.59-24.4,10,0,.11-.08.21.18.55a2.44,2.44,0,0,1-3.87,3,5.33,5.33,0,0,1-.9-5.17c2.31-6.45,18.48-11,27.91-13.11,12.11-2.75,33.19-2.46,39.13-1.26,4.3.86,8.1,5.29,12.13,10,1.76,2.06,3.59,4.17,5.41,5.93a96.74,96.74,0,0,0,8.46,7.06c4.42,3.4,8.25,6.33,9.65,9.71,1.25,3,2.64,6.68,4.1,10.53,2.62,6.91,5.59,14.74,8.38,20.3a2.43,2.43,0,0,1-1.09,3.26A2.38,2.38,0,0,1,1051.29,785.34Z"/><path class="cls-7" d="M1053.75,925.43a2.44,2.44,0,0,1-1.78-.75c-17.12-18.08-37.08-52.8-34.8-64.9,2-10.87,16.82-35.37,26.37-45.7a81.65,81.65,0,0,1,6.82-6.36c3.84-3.33,7.49-6.46,9.88-10.47,3.61-6,1.82-12.67-.45-21.09a108.63,108.63,0,0,1-2.84-12.59c-1.12-7.53-1.66-14.58-2.09-20.24a94.37,94.37,0,0,0-1.28-11.66c-.62-2.73-3.86-7.91-15.7-17.12a135.9,135.9,0,0,1-11.63-10.89c-3.59-3.63-7.31-7.38-10.66-10.13a4.82,4.82,0,0,0-1.06-.72c-.84,1.89.05,10,5.6,17.17,2.37,3.1,4.72,5.81,7,8.44,4.09,4.75,7.64,8.85,10,13.53,1.91,3.81,2.17,15.74.79,17.44a2.44,2.44,0,0,1-4.23-2.22c.24-1.7.48-10.25-.92-13-2.06-4.13-5.42-8-9.31-12.51-2.31-2.69-4.7-5.46-7.16-8.66-6.39-8.29-8.85-20.12-5-23.87.7-.69,3.34-2.67,7.42.69,3.53,2.91,7.33,6.75,11,10.46a133.85,133.85,0,0,0,11.16,10.48c10.56,8.2,16.27,14.71,17.46,19.87a97.36,97.36,0,0,1,1.38,12.37c.43,5.59,1,12.55,2.06,19.91a103.46,103.46,0,0,0,2.73,12c2.36,8.78,4.61,17.08-.08,24.87-2.8,4.67-6.9,8.22-10.88,11.64a79.37,79.37,0,0,0-6.42,6c-8.95,9.68-23.29,33.31-25.17,43.29-1.64,8.81,15,41,33.56,60.65a2.43,2.43,0,0,1-.09,3.44A2.4,2.4,0,0,1,1053.75,925.43Z"/><path class="cls-7" d="M908.4,879.18h-.35c-21.09-1.75-48.5-32.86-62.95-51.25a2.44,2.44,0,1,1,3.83-3c8.78,11.17,39,47.71,59.53,49.41h.15c6.07,0,40.36-24.88,56.84-49.15a2.43,2.43,0,1,1,4,2.73C953,852.14,917.52,879.18,908.4,879.18Z"/><path class="cls-7" d="M910,764.75a2.43,2.43,0,0,1-2-1c-.23-.3-22.84-30.09-40.21-24.81a2.43,2.43,0,1,1-1.43-4.65C883.6,729,903.06,750,909.65,758c4.82-7.93,18.75-26.93,38.54-20.84a2.44,2.44,0,0,1-1.43,4.66c-20.31-6.2-34.44,21.33-34.59,21.61a2.45,2.45,0,0,1-1.95,1.34Z"/><path class="cls-7" d="M778.9,1080.74a10.84,10.84,0,0,1-3.9-.75c-7.07-2.73-8.52-13.62-9.93-24.17-.86-6.48-1.76-13.18-3.87-16.23-5.41-7.75-10.3-46.91-9.52-76.17.75-27.86,10.35-55.72,21.41-62.11a2.43,2.43,0,1,1,2.44,4.21c-8.38,4.84-18.22,29.86-19,58-.78,29.63,4.29,67,8.66,73.27,2.79,4,3.72,11,4.7,18.37,1.17,8.71,2.47,18.57,6.87,20.26a5.56,5.56,0,0,0,5.57-.77c12.9-9,19.36-60.91,19.2-69.62a2.43,2.43,0,0,1,2.39-2.47h0a2.43,2.43,0,0,1,2.44,2.38c.14,8-5.69,62.8-21.28,73.7A10.8,10.8,0,0,1,778.9,1080.74Z"/><path class="cls-7" d="M1028.36,1074.79l-.67,0c-14.1-.62-18.68-35.58-20.05-64.79a2.44,2.44,0,0,1,4.87-.23c1.69,36.2,7.73,59.82,15.39,60.16,7.23.44,9.91-7.81,12.92-19.32.5-1.88,1-3.7,1.48-5.39,4.19-14,4.55-26,4.92-38.64.19-5.9.37-12,.92-18.66,3.69-44.51,1-69.65-8.84-81.49a2.43,2.43,0,1,1,3.75-3.1c10.83,13.07,13.81,38.49,10,85-.55,6.54-.73,12.57-.89,18.41-.39,13-.76,25.29-5.15,39.9-.48,1.62-1,3.39-1.42,5.22C1042.85,1062.08,1039.52,1074.79,1028.36,1074.79Z"/><path class="cls-7" d="M633.85,1083.87h-.22a2.45,2.45,0,0,1-2.22-2.63c4.15-50,21.41-61.9,45.3-78.38l4.16-2.89c17.53-12.21,40.54-36.14,55.56-54.45,8.25-10,14.9-19.9,21.94-30.34l3.86-5.69c.32-.47.68-1,1.08-1.67,2.59-4.08,6.13-9.66,10.77-10.11a2.38,2.38,0,0,1,2.65,2.18,2.43,2.43,0,0,1-2.18,2.66c-2.28.22-5.55,5.39-7.12,7.87-.44.68-.83,1.29-1.17,1.8l-3.84,5.68c-7.13,10.55-13.83,20.5-22.22,30.72C725,967.17,701.56,991.48,683.65,1004l-4.19,2.9c-23.62,16.31-39.24,27.09-43.2,74.77A2.43,2.43,0,0,1,633.85,1083.87Z"/><path class="cls-7" d="M641.66,1138.83c-17.62,0-33.82-3.87-42.85-15-24.74-30.53-2.72-141.62,7.84-195l.41-2c4.3-21.74,7.21-45.65,10-68.77,6.86-56.43,13.95-114.78,42.11-145.56,21.13-23.09,56.24-31.93,87.22-39.72,14.42-3.63,28-7.05,39.41-11.61a2.45,2.45,0,0,1,1.82,4.54c-11.69,4.66-25.46,8.13-40,11.79-30.32,7.62-64.67,16.27-84.82,38.28-27.11,29.64-34.11,87.2-40.87,142.86-2.82,23.21-5.74,47.21-10.07,69.13l-.4,2c-9.62,48.54-32.14,162.23-8.85,191,17.31,21.36,68.8,12.84,99.17,1.9,5.66-2,14.8-6.27,25.38-11.18,12.43-5.76,26.51-12.29,38.06-16.64,18.72-7.06,25.13-26.4,28.6-42.45a2.44,2.44,0,1,1,4.77,1c-3.75,17.26-10.73,38.08-31.65,46-11.38,4.29-25.39,10.77-37.73,16.5-10.69,5-19.92,9.24-25.77,11.34C688.22,1132.71,663.81,1138.83,641.66,1138.83Z"/><path class="cls-7" d="M1183.54,1143.2c-17.32,0-39.81-4.89-67-14.67-5.64-2-15-7.16-25.82-13.09-13-7.18-27.85-15.31-39.08-19.53-19.94-7.53-27.92-15-35.51-33.26a2.43,2.43,0,1,1,4.49-1.87c7.06,17,14.1,23.54,32.74,30.57,11.55,4.36,26.51,12.57,39.72,19.82,10.2,5.59,19.83,10.88,25.09,12.78,50,18,83.14,19.3,95.75,3.74,21.83-27-1.7-145-11.74-195.42l-1.48-7.38c-4.21-21.32-7-44.67-9.8-67.24-6.58-54.12-13.38-110.09-39.72-138.89-19.54-21.35-53.38-29.58-83.24-36.84-11.28-2.74-21.93-5.33-31.6-8.49a2.44,2.44,0,0,1,1.53-4.63c9.47,3.1,20,5.67,31.22,8.39,30.53,7.42,65.13,15.84,85.68,38.28,27.41,30,34.3,86.7,41,141.59,2.74,22.49,5.57,45.74,9.74,66.88l1.48,7.38c11,55.41,34,170.7,10.74,199.44C1211,1139.06,1199.46,1143.2,1183.54,1143.2Z"/><path class="cls-7" d="M1180.67,1082.84a2.43,2.43,0,0,1-2.43-2.2c-4.41-46.91-19.89-57.35-43.34-73.16l-4.16-2.81c-17.77-12.1-41.07-35.79-56.29-53.92-8.39-10-15.13-19.75-22.26-30.08l-3.8-5.49c-.35-.5-.74-1.12-1.18-1.78-1.56-2.42-4.85-7.46-7.07-7.65a2.43,2.43,0,1,1,.44-4.85c4.58.4,8.13,5.86,10.71,9.85.41.61.78,1.18,1.11,1.65l3.8,5.49c7.06,10.23,13.74,19.9,22,29.73,15,17.87,37.91,41.18,55.3,53l4.14,2.8c23.7,16,40.83,27.53,45.47,76.74a2.45,2.45,0,0,1-2.2,2.66Z"/><path class="cls-7" d="M709.46,965.16a2.43,2.43,0,0,1-2.15-1.29c-10.11-18.83-11.27-57.15-6-79.75,2.57-11,4-36.71,2.78-49.11-1.78-17.91-19.65-78.26-37-108.8a2.43,2.43,0,1,1,4.23-2.39c18.28,32.17,35.8,92.69,37.6,110.71,1.28,12.79-.23,39.31-2.88,50.69-5.07,21.72-3.78,59,5.55,76.35a2.43,2.43,0,0,1-1,3.29A2.34,2.34,0,0,1,709.46,965.16Z"/><path class="cls-7" d="M1097,971.94a2.48,2.48,0,0,1-1-.19,2.44,2.44,0,0,1-1.29-3.2c8.71-20.5,10.12-46.65,4.17-77.74-2.24-11.68-7.35-38.34-5.61-56.95,2.23-23.82,19-82.19,33.2-109.26a2.43,2.43,0,1,1,4.3,2.27c-13.64,26.13-30.51,84.53-32.66,107.43-1.67,17.93,3.54,45.07,5.49,55.3,6.19,32.36,4.7,59.46-4.41,80.85A2.43,2.43,0,0,1,1097,971.94Z"/><path class="cls-7" d="M1084.75,1128.13a2.42,2.42,0,0,1-2.42-2.43c0-3.94.13-5.93.26-7.87s.27-3.74.27-7.49a2.44,2.44,0,0,1,4.87,0c0,3.93-.13,5.91-.28,7.84s-.26,3.76-.26,7.52A2.43,2.43,0,0,1,1084.75,1128.13Z"/><path class="cls-7" d="M734.67,1129.12a2.45,2.45,0,0,1-2.44-2.34l-.5-13.48a2.43,2.43,0,0,1,2.34-2.52,2.4,2.4,0,0,1,2.52,2.34l.52,13.47a2.44,2.44,0,0,1-2.35,2.53Z"/><path class="cls-7" d="M814.55,967.66a1.46,1.46,0,0,1-.29,0c-20.4-2.4-39.14-38.2-36.46-69.64a2.47,2.47,0,0,1,2.63-2.23,2.44,2.44,0,0,1,2.22,2.63c-2.44,28.61,14.42,62.31,32.18,64.4a2.44,2.44,0,0,1-.28,4.86Z"/><path class="cls-7" d="M985.46,953.39a26.38,26.38,0,0,1-3.86-.28,2.43,2.43,0,0,1,.69-4.81c8.57,1.21,17.71-2.64,25.69-10.88,13-13.37,19.2-34.4,15.87-53.54a2.42,2.42,0,0,1,2-2.82,2.45,2.45,0,0,1,2.81,2c3.61,20.64-3.13,43.31-17.15,57.77C1003.52,949,994.41,953.39,985.46,953.39Z"/><path class="cls-7" d="M1026.29,741.26a2.45,2.45,0,0,1-2.15-1.28c-4-7.47-5.31-14.4-3.94-21.17a2.43,2.43,0,1,1,4.76,1c-1.11,5.62,0,11.47,3.46,17.9a2.43,2.43,0,0,1-2.13,3.59Z"/><path class="cls-7" d="M923,1035.53a6.73,6.73,0,0,1-4.59-2c-4.48-4.16-6.91-15.18-1.23-22.06a6,6,0,0,0-2.23-1.41,2.44,2.44,0,0,1,1.18-4.73c5.24,1.31,11.31,10.1,13.25,17.1,1.66,6,0,9.26-1.64,10.93A6.75,6.75,0,0,1,923,1035.53Zm-2.53-20.27c-3.11,4.59-1.6,12.11,1.25,14.74,1,.91,1.63.89,2.57,0s1.19-3.3.4-6.18A28.35,28.35,0,0,0,920.48,1015.26Z"/><path class="cls-7" d="M923.82,1127.73a2.41,2.41,0,0,1-1.87-.89,14.61,14.61,0,0,1-3.37-11.29,9.48,9.48,0,0,1,4.52-6.67,2.42,2.42,0,0,1,3.35.81,2.46,2.46,0,0,1-.82,3.35,4.57,4.57,0,0,0-2.25,3.32,9.93,9.93,0,0,0,2.34,7.39,2.43,2.43,0,0,1-1.9,4Z"/><path class="cls-7" d="M933,1125.88a2.36,2.36,0,0,1-2.43-2.34v-.18a2.44,2.44,0,0,1,4.87,0A2.51,2.51,0,0,1,933,1125.88Z"/><path class="cls-7" d="M933,1125.73a2.44,2.44,0,0,1-2.44-2.37c-.14-5.58-7.68-14.31-10.72-16.13a2.44,2.44,0,1,1,2.51-4.18c3.89,2.34,12.88,12.39,13.09,20.18a2.44,2.44,0,0,1-2.37,2.5Z"/><path class="cls-7" d="M755.31,1102.44h0a2.44,2.44,0,0,1-2.39-2.49c.16-7.7-4.08-11.47-9-15.84-3-2.69-6.11-5.45-8.18-9.26-5.49-10.1-11.21-38.72-12-60-.14-3.67-.37-7.77-.59-12-.54-9.77-1.09-19.88-.72-27.29a2.51,2.51,0,0,1,2.57-2.3,2.43,2.43,0,0,1,2.3,2.55c-.37,7.15.18,17.13.71,26.77.23,4.25.47,8.38.6,12.08.82,22.3,6.8,49.44,11.41,57.91,1.66,3.06,4.31,5.43,7.13,7.94,5.07,4.52,10.82,9.64,10.61,19.59A2.42,2.42,0,0,1,755.31,1102.44Z"/><path class="cls-7" d="M1058.52,1097.49a2.43,2.43,0,0,1-1-4.66c8.44-3.75,9.38-12,10.49-21.53.56-4.85,1.13-9.86,2.82-14.41,7.76-21,12.32-66.34,6.58-89.31a2.43,2.43,0,0,1,4.72-1.18c6.13,24.42,1.32,70.39-6.74,92.17-1.48,4-2,8.72-2.55,13.28-1.16,10.1-2.36,20.55-13.35,25.44A2.65,2.65,0,0,1,1058.52,1097.49Z"/><path class="cls-7" d="M563.73,1128.93l-560.08-.21a2.44,2.44,0,0,1,0-4.87h0l560.08.21,39.56-.06h0a2.43,2.43,0,1,1,0,4.86Z"/><path class="cls-7" d="M700.29,1129.25a2.44,2.44,0,0,1,0-4.87l35.05-.27,381.42-.13a2.44,2.44,0,0,1,0,4.87l-381.4.13-35,.27Z"/><path class="cls-7" d="M1789.69,1129.32h0l-572-.35a2.44,2.44,0,0,1,0-4.87h0l572,.36a2.43,2.43,0,1,1,0,4.86Z"/><path class="cls-7" d="M701.36,1270.59a2.45,2.45,0,0,1-2.19-1.38,2.41,2.41,0,0,1,.29-2.57l72.92-91.93a2.44,2.44,0,0,1,1.9-.92L1023.1,1172h0a2.42,2.42,0,0,1,1.77.76l88.4,92.81a2.44,2.44,0,0,1-1.77,4.12l-410.16.88Zm74.12-91.94-69.06,87.06,399.43-.86-83.76-87.95Z"/><path class="cls-7" d="M1106.38,1283.56H705.79a2.44,2.44,0,1,1,0-4.87h400.59a2.44,2.44,0,0,1,0,4.87Z"/><path class="cls-7" d="M548.78,1247.05c-5.25,0-10.75-5-12.51-10.22-1.54-4.54-.51-10.47,7-13.42,11.65-4.61,119.47-33.66,130.35-33.66h.17c6.55.22,7.69,1.27,8.08,7.46l-2.4.54,2.43-.16c.18,2.67.37,5.69-58.3,25.79-29.22,10-62,20.37-72.68,23.39A8.36,8.36,0,0,1,548.78,1247.05Zm124.67-52.43c-9.35,0-115.66,28.26-128.42,33.32-3.88,1.53-5.28,4-4.14,7.33,1.36,4,5.91,7.57,8.66,6.8,25.94-7.32,119.5-38,127.4-44.91a13.34,13.34,0,0,0-.29-2.52,24.06,24.06,0,0,1-3.07,0Z"/><path class="cls-7" d="M681,1200.37a2.43,2.43,0,0,1-1.08-4.62l3.33-1.65-3.42.33a2.47,2.47,0,0,1-2.65-2.19,2.43,2.43,0,0,1,2.19-2.65L696,1188a2.44,2.44,0,0,1,1.31,4.61l-15.25,7.54A2.47,2.47,0,0,1,681,1200.37Z"/><path class="cls-7" d="M536.51,1239a2.48,2.48,0,0,1-1.25-.34c-5.29-3.15-5.77-7.1-5.22-9.85,2.12-10.76,24.77-22.43,33-23.67a17.16,17.16,0,0,1,9.89,1.51c2.64,1.11,3.25,1.37,6.39-4.67a2.44,2.44,0,1,1,4.33,2.26c-4.46,8.56-7.5,9-12.6,6.92a12.22,12.22,0,0,0-7.27-1.2c-6.84,1-27.37,11.77-28.95,19.78-.14.73-.53,2.68,2.94,4.74a2.44,2.44,0,0,1-1.25,4.52Z"/><path class="cls-7" d="M790.72,1196.24a2.44,2.44,0,0,1,0-4.87l225-1.18h0a2.44,2.44,0,0,1,0,4.88l-225,1.17Z"/><path class="cls-7" d="M773.76,1213.77a2.44,2.44,0,1,1,0-4.87l260.7-1.17h0a2.44,2.44,0,0,1,0,4.87l-260.69,1.17Z"/><path class="cls-7" d="M748.88,1243.81a2.44,2.44,0,0,1,0-4.88l308.3-1.17h0a2.44,2.44,0,0,1,0,4.87l-308.3,1.18Z"/><path class="cls-7" d="M770.72,715.29a2.53,2.53,0,0,1-.73-.11,2.44,2.44,0,0,1-1.6-3.06c1.28-4,2.71-9.43,4.23-15.15,2.59-9.78,5.28-19.89,7.87-26,11.42-26.83,24.36-33.68,36.66-37.07a2.43,2.43,0,1,1,1.3,4.69C805.6,642.17,795,649.37,785,672.91c-2.45,5.76-5.2,16.14-7.63,25.31-1.54,5.77-3,11.22-4.29,15.37A2.44,2.44,0,0,1,770.72,715.29Z"/><path class="cls-7" d="M757.1,868a2.61,2.61,0,0,1-1.18-.3c-8.56-4.28-4.48-63.81-4.3-66.34a2.44,2.44,0,1,1,4.86.34c-2.31,32.7-.81,55.13,1.25,60.7a13.69,13.69,0,0,1,4.91-2.21,46.3,46.3,0,0,1,6.53-.57l.49,0c-.08-.95-.17-2.1-.3-3.45-.73-8.55-2.1-24.47-.28-37.57a2.44,2.44,0,1,1,4.84.66c-1.75,12.56-.42,28.14.31,36.5.24,2.79.4,4.88.4,5.95,0,2.61-2.44,2.7-5.28,2.8a42.83,42.83,0,0,0-5.81.49,10.94,10.94,0,0,0-3.61,1.81A5.46,5.46,0,0,1,757.1,868Zm1.23-4.5h0Z"/><path class="cls-7" d="M743,927.29a2.46,2.46,0,0,1-1.85-.85,37.59,37.59,0,0,1-8.75-28.12A45.63,45.63,0,0,1,748.9,867.6c11.7-9.44,32.41-11.57,45.45,1.52a2.44,2.44,0,1,1-3.45,3.44c-11.13-11.17-28.88-9.3-38.92-1.16a40.76,40.76,0,0,0-14.76,27.36,32.47,32.47,0,0,0,7.62,24.51,2.46,2.46,0,0,1-.27,3.44A2.42,2.42,0,0,1,743,927.29Z"/><path class="cls-7" d="M763.05,919.12a2.18,2.18,0,0,1-.78-.14,14.45,14.45,0,0,1-9.54-10.65c-2.12-8.15.9-17.77,5-22.36,3.57-4,10.18-6.45,16-6.08A16,16,0,0,1,786.23,887a2.43,2.43,0,1,1-4,2.76,11.15,11.15,0,0,0-8.83-5c-4.9-.31-9.77,2-12,4.48-3.22,3.56-5.57,11.6-3.94,17.87a9.66,9.66,0,0,0,6.4,7.26,2.44,2.44,0,0,1-.8,4.75Z"/><path class="cls-7" d="M1081.46,852.55a2.45,2.45,0,0,1-2.44-2.45c0-16.2-1.46-26.69-4-43.81-6.78-44.91-15-82.4-33-119.44-5.88-12.12-15.21-29.79-28.07-43.33-3.93-4.15-15.89-16.74-24.54-18.9a2.43,2.43,0,0,1,1.18-4.72c9,2.24,19.66,12.64,26.89,20.26,13.33,14,22.88,32.15,28.92,44.56,18.29,37.59,26.59,75.5,33.45,120.84,2.61,17.36,4.08,28,4.08,44.54A2.44,2.44,0,0,1,1081.46,852.55Z"/><path class="cls-7" d="M1033.19,708.29a2.44,2.44,0,0,1-2.2-1.39,248.68,248.68,0,0,0-12.26-22.48,2.44,2.44,0,0,1,4.12-2.61,254,254,0,0,1,12.54,23,2.44,2.44,0,0,1-1.14,3.26A2.52,2.52,0,0,1,1033.19,708.29Z"/><path class="cls-7" d="M1073.88,863.05c-5.13,0-9.41-4.11-10.05-9.67-1.17-10.25-5.22-39.4-7.14-49a2.44,2.44,0,0,1,4.78-.94c1.94,9.72,6,39.11,7.2,49.42.4,3.44,3,5.52,5.36,5.34,2.91-.09,4.88-3.19,5.11-8.1a2.52,2.52,0,0,1,2.55-2.32,2.46,2.46,0,0,1,2.33,2.56c-.46,9.18-5.58,12.59-9.84,12.73Z"/><path class="cls-7" d="M1088.11,963.87a2.44,2.44,0,0,1-2.31-1.69c-9.25-28.5-12.45-63.27-9.52-103.34a2.42,2.42,0,0,1,2.61-2.26,2.45,2.45,0,0,1,2.25,2.62c-2.88,39.43.24,73.58,9.28,101.48a2.46,2.46,0,0,1-2.31,3.19Z"/><path class="cls-7" d="M1074.58,948.93a2.43,2.43,0,0,1-2.36-1.88c-5.54-23.54-8.37-46.31-5.4-87.08a2.44,2.44,0,1,1,4.86.35c-3.25,44.5.83,66.69,5.28,85.6a2.45,2.45,0,0,1-1.8,2.93A2.38,2.38,0,0,1,1074.58,948.93Z"/><path class="cls-7" d="M928.39,365.52a2.34,2.34,0,0,1-.64-.08c-22.87-6.24-51.91-40.57-47.29-82.29a2.44,2.44,0,0,1,4.84.54c-4.28,38.58,23.05,71.4,43.73,77a2.44,2.44,0,0,1-.64,4.79Z"/><path class="cls-7" d="M970.83,372.37c-8.05,0-25.45-9.77-33.05-15.32-17.35-12.69-36-40.66-36-72.08a2.44,2.44,0,0,1,4.87,0c0,28.4,17.14,55.78,34,68.14,8,5.85,24.05,14.39,30.12,14.39H971a2.44,2.44,0,0,1,.07,4.87Z"/><path class="cls-7" d="M884.89,268.17a2.43,2.43,0,0,1-2.41-2.12c-.71-5.49-1.45-21.6.89-28.84a2.44,2.44,0,0,1,4.64,1.51c-1.92,5.9-1.47,20.74-.7,26.71a2.43,2.43,0,0,1-2.12,2.73Z"/><path class="cls-7" d="M801.47,557.63a2.45,2.45,0,0,1-2.36-1.8c-16.38-60.08-5.32-127.52,32.9-200.43,7-13.32,26.36-41.8,31.92-46.9a2.43,2.43,0,0,1,3.27,3.6c-4.76,4.37-23.71,31.89-30.87,45.55-37.63,71.79-48.58,138-32.51,196.89a2.47,2.47,0,0,1-1.72,3A2.72,2.72,0,0,1,801.47,557.63Z"/><path class="cls-7" d="M988.58,568.24a2.49,2.49,0,0,1-1.49-.49,2.45,2.45,0,0,1-.43-3.43c6.89-9,11.77-30.76,12-45.49.76-49.35-4.91-73.36-15-111.55-7.84-29.65-16.67-49.54-26.25-59.13a2.39,2.39,0,0,1,0-3.43,2.42,2.42,0,0,1,3.43,0c10.34,10.33,19.35,30.4,27.52,61.31,10.19,38.61,15.93,62.88,15.16,112.88-.24,15.44-5.28,38.33-13,48.39A2.41,2.41,0,0,1,988.58,568.24Z"/><path class="cls-7" d="M800.48,599a2.35,2.35,0,0,1-.77-.13c-37.12-12.37-45.91-62.52-42.37-86.62a2.44,2.44,0,1,1,4.82.7c-3.34,22.7,4.71,69.83,39.1,81.3a2.43,2.43,0,0,1,1.54,3.08A2.45,2.45,0,0,1,800.48,599Z"/><path class="cls-7" d="M763,581.47a2.35,2.35,0,0,1-1.29-.37c-24.29-15.3-38-45.82-36.73-81.67,2.66-74.66,25.71-153.22,61.67-210.14,17.47-27.66,50.75-55.55,85.72-55.55a2.43,2.43,0,0,1,0,4.86c-33.12,0-64.85,26.77-81.6,53.29-35.51,56.22-58.3,133.88-60.93,207.72-.45,12.77.68,56.08,34.46,77.37a2.43,2.43,0,0,1-1.3,4.49Z"/><path class="cls-7" d="M976.79,597.25a17.64,17.64,0,0,1-5.53-.86,2.44,2.44,0,1,1,1.53-4.63c6.28,2.09,13.58-1.43,18.62-4.75,12.24-8.08,24.11-23.92,24.89-33.24a2.4,2.4,0,0,1,2.62-2.22,2.42,2.42,0,0,1,2.23,2.63c-.91,10.93-13.3,27.82-27.06,36.9C987.9,595.16,982,597.25,976.79,597.25Z"/><path class="cls-7" d="M1015.17,603.35a2.43,2.43,0,0,1-.74-4.75c34-10.94,44.32-70.49,38.48-107.46a2.43,2.43,0,1,1,4.8-.76c5.23,33-1.67,100-41.79,112.85A2.18,2.18,0,0,1,1015.17,603.35Z"/><path class="cls-7" d="M1058,571.91a2.44,2.44,0,0,1-1.3-4.5c15.59-9.87,18.88-55,16.75-93.95-2.16-39.76-19.31-94.64-25.74-112.43-14.37-39.81-71.81-148-144.8-123.64a2.43,2.43,0,0,1-1.54-4.62c76.69-25.55,136.15,85.64,150.93,126.6,6.5,18,23.83,73.47,26,113.83,1.07,19.56,2.85,84.47-19,98.33A2.43,2.43,0,0,1,1058,571.91Z"/><g class="cls-9"><path class="cls-10" d="M690,676.59h0a2.43,2.43,0,0,1-2.43-2.44L689,6.06a2.44,2.44,0,0,1,2.45-2.43h0a2.42,2.42,0,0,1,2.42,2.44l-1.41,668.09A2.44,2.44,0,0,1,690,676.59Z"/><path class="cls-10" d="M675.09,682.93a2.43,2.43,0,0,1-2.43-2.43L672,6.78a2.43,2.43,0,0,1,2.42-2.44h0a2.43,2.43,0,0,1,2.43,2.43l.71,673.72a2.44,2.44,0,0,1-2.44,2.44Z"/><path class="cls-10" d="M283.46,1127.48h0A2.44,2.44,0,0,1,281,1125l1.6-1113.93a2.43,2.43,0,0,1,2.43-2.43h0a2.44,2.44,0,0,1,2.44,2.44l-1.6,1113.93A2.43,2.43,0,0,1,283.46,1127.48Z"/><path class="cls-10" d="M267.23,1126.77h0a2.43,2.43,0,0,1-2.42-2.44L267.12,9.93a2.42,2.42,0,0,1,2.42-2.43h0A2.43,2.43,0,0,1,272,9.93l-2.31,1114.41A2.43,2.43,0,0,1,267.23,1126.77Z"/><path class="cls-10" d="M267.2,848.22l-19.08,0L5.58,848a2.49,2.49,0,0,1-2.5-2.43,2.38,2.38,0,0,1,2.36-2.44h.15l261.61.23a2.44,2.44,0,1,1,0,4.87Z"/><path class="cls-10" d="M604.22,848.51h0l-317.86-.28a2.44,2.44,0,0,1,0-4.87h0l317.88.28a2.44,2.44,0,0,1,0,4.87Z"/><path class="cls-10" d="M266.76,481.67l-24.75,0L3.45,481.41a2.44,2.44,0,1,1,0-4.87l11.82,0,251.24.25a2.55,2.55,0,0,1,2.56,2.43A2.33,2.33,0,0,1,266.76,481.67Z"/><path class="cls-10" d="M674.52,482.07h0l-389-.37a2.44,2.44,0,1,1,0-4.87h0l389,.38a2.43,2.43,0,0,1,0,4.86Z"/><path class="cls-10" d="M5.48,117.53a2.44,2.44,0,0,1,0-4.87l262.27-.25h0a2.44,2.44,0,0,1,0,4.87l-262.28.25Z"/><path class="cls-10" d="M285.33,117.26a2.44,2.44,0,1,1,0-4.87h2.17L673.83,112h0a2.43,2.43,0,1,1,0,4.86l-388.5.39Z"/><path class="cls-10" d="M4.08,103.18a2.44,2.44,0,1,1,0-4.87l264.1-.25h0a2.43,2.43,0,1,1,0,4.86l-264.1.26Z"/><path class="cls-10" d="M288.06,102.9h-2a2.44,2.44,0,1,1,0-4.87h2l385.42-.38h0a2.44,2.44,0,1,1,0,4.87Z"/><path class="cls-10" d="M2.42,468.68a2.43,2.43,0,0,1,0-4.85l265.64-.28a2.5,2.5,0,0,1,2.52,2.43,2.37,2.37,0,0,1-2.34,2.44l-24.66,0-241.14.23Z"/><path class="cls-10" d="M286,468.41a2.44,2.44,0,1,1,0-4.87l387.53-.39h0a2.44,2.44,0,1,1,0,4.87L286,468.41Z"/><path class="cls-10" d="M5.9,835.39a2.44,2.44,0,0,1,0-4.87l257.79-.39h0a2.44,2.44,0,0,1,0,4.87l-257.8.39Z"/><path class="cls-10" d="M609.6,834.78h0l-323,0a2.44,2.44,0,0,1,0-4.88h0l323,.06a2.44,2.44,0,0,1,0,4.87Z"/><path class="cls-10" d="M1340.78,1127.14a2.43,2.43,0,0,1-2.43-2.43V461a2.43,2.43,0,1,1,4.86,0v663.76A2.43,2.43,0,0,1,1340.78,1127.14Z"/><path class="cls-10" d="M1358.59,1125.33a2.44,2.44,0,0,1-2.43-2.44L1356,462a2.44,2.44,0,0,1,4.87,0l.15,660.89A2.45,2.45,0,0,1,1358.59,1125.33Z"/><path class="cls-10" d="M1790.88,462.76l-50-.05-399.83-.38a2.44,2.44,0,1,1,0-4.87h0l449.8.42a2.44,2.44,0,0,1,0,4.88Z"/><path class="cls-10" d="M1789.82,808.83h0l-428.42-.43a2.44,2.44,0,0,1,0-4.87h0l428.42.43a2.44,2.44,0,0,1,0,4.87Z"/><path class="cls-10" d="M1790.36,822.45l-44-.05L1362.25,822a2.44,2.44,0,0,1,0-4.88h0l428.11.44a2.44,2.44,0,0,1,0,4.87Z"/><path class="cls-10" d="M1790.33,478.27l-47.15,0-384.62-.36a2.44,2.44,0,1,1,0-4.87h0l431.77.41a2.44,2.44,0,0,1,0,4.87Z"/><path class="cls-10" d="M1791.14,1054.25h0l-431.85-.44a2.43,2.43,0,0,1,0-4.86h0l431.86.43a2.44,2.44,0,1,1,0,4.87Z"/><path class="cls-10" d="M1664.79,1128.48a2.42,2.42,0,0,1-2.42-2.42l-.15-649.44a2.44,2.44,0,1,1,4.87,0l.14,649.44A2.43,2.43,0,0,1,1664.79,1128.48Z"/><path class="cls-10" d="M1341.86,325.85h-244a2.43,2.43,0,0,1-2.44-2.43V2.44A2.44,2.44,0,0,1,1097.89,0h244a2.43,2.43,0,0,1,2.43,2.44v321A2.43,2.43,0,0,1,1341.86,325.85ZM1100.31,321h239.11V4.87H1100.31Z"/><path class="cls-10" d="M1326.58,310.15H1113.16a2.43,2.43,0,0,1-2.44-2.43V17.29a2.44,2.44,0,0,1,2.44-2.44h213.42a2.44,2.44,0,0,1,2.45,2.44V307.72A2.44,2.44,0,0,1,1326.58,310.15Zm-211-4.87h208.56V19.72H1115.59Z"/><path class="cls-10" d="M1662,256.18H1496.68a2.44,2.44,0,0,1-2.43-2.44V36.22a2.45,2.45,0,0,1,2.43-2.44H1662a2.45,2.45,0,0,1,2.45,2.44V253.74A2.44,2.44,0,0,1,1662,256.18Zm-162.9-4.87h160.47V38.66H1499.12Z"/><path class="cls-10" d="M1648.26,240.91H1510.45a2.44,2.44,0,0,1-2.44-2.43V50.92a2.44,2.44,0,0,1,2.44-2.43h137.81a2.43,2.43,0,0,1,2.44,2.43V238.48A2.43,2.43,0,0,1,1648.26,240.91ZM1512.89,236h132.95V53.36H1512.89Z"/><path class="cls-10" d="M1270.66,223.79a2.29,2.29,0,0,1-.52,0,2.43,2.43,0,0,1-1.9-2.68l8.68-68.84-9.76,30.07a2.43,2.43,0,0,1-4.74-.58l-1.61-22.3-25.69-.22a2.42,2.42,0,0,1-2.42-2.44l.09-23.26-26,88.17a2.43,2.43,0,0,1-4.74-1l9.92-70.29-12.35,34.08a2.42,2.42,0,0,1-2.74,1.56,2.46,2.46,0,0,1-2-2.45l.59-25-26.3-.37a2.53,2.53,0,0,1-1.75-.78,2.47,2.47,0,0,1-.65-1.78l1-20.79-26.77,86.14a2.43,2.43,0,0,1-4.74-1l9-72.39-14.6,37.73a2.39,2.39,0,0,1-2.68,1.52,2.45,2.45,0,0,1-2-2.33l-.73-26.91-10.42.18h0a2.43,2.43,0,0,1,0-4.86l12.81-.23h0a2.44,2.44,0,0,1,2.44,2.37l.47,17.19,17.38-44.9a2.44,2.44,0,0,1,4.69,1.18l-8.11,64.8,24.28-78.15a2.44,2.44,0,0,1,2.76-1.67,2.41,2.41,0,0,1,2,2.51l-1.78,37.36,26.25.38a2.49,2.49,0,0,1,1.73.75,2.42,2.42,0,0,1,.67,1.74l-.29,12.6,15.26-42.09a2.44,2.44,0,0,1,4.7,1.18l-8.53,60.43,21.37-72.6a2.43,2.43,0,0,1,4.77.68l-.14,38,25.51.23a2.44,2.44,0,0,1,2.42,2.26l.86,12.09,13.87-42.75a2.4,2.4,0,0,1,2.84-1.63,2.46,2.46,0,0,1,1.9,2.69l-8.53,67.51,24.68-78.55a2.45,2.45,0,0,1,4.77.89L1303.47,154l22.68-.25a2.52,2.52,0,0,1,2.46,2.42,2.43,2.43,0,0,1-2.41,2.45l-25.31.27a2.23,2.23,0,0,1-1.79-.76,2.44,2.44,0,0,1-.67-1.84l1.27-19.18-26.72,85A2.43,2.43,0,0,1,1270.66,223.79Z"/><path class="cls-10" d="M1622.84,807.47H1380.58a2.43,2.43,0,0,1-2.43-2.43v-24a2.43,2.43,0,0,1,2.43-2.44h242.26a2.43,2.43,0,0,1,2.43,2.44v24A2.42,2.42,0,0,1,1622.84,807.47ZM1383,802.6h237.39V783.5H1383Z"/><path class="cls-10" d="M1604.53,780.43H1394a2.43,2.43,0,0,1-2.44-2.43V754a2.43,2.43,0,0,1,2.44-2.43h210.56A2.43,2.43,0,0,1,1607,754v24A2.43,2.43,0,0,1,1604.53,780.43Zm-208.12-4.86h205.68V756.46H1396.41Z"/><path class="cls-10" d="M1596.45,752.83H1385.88a2.43,2.43,0,0,1-2.43-2.43v-24a2.43,2.43,0,0,1,2.43-2.44h210.57a2.43,2.43,0,0,1,2.43,2.44v24A2.43,2.43,0,0,1,1596.45,752.83ZM1388.31,748H1594V728.86h-205.7Z"/><path class="cls-10" d="M1614.56,727.19H1404a2.45,2.45,0,0,1-2.44-2.44v-24a2.45,2.45,0,0,1,2.44-2.44h210.56a2.44,2.44,0,0,1,2.44,2.44v24A2.44,2.44,0,0,1,1614.56,727.19Zm-208.12-4.87h205.69V703.21H1406.44Z"/><path class="cls-10" d="M1361.09,604.54a2.44,2.44,0,0,1,0-4.87l427.47-.3.3,2.44v2.44l-42.67,0-385.1.27Z"/><path class="cls-10" d="M1359.11,616a2.43,2.43,0,1,1,0-4.86l430.39-.3a2.47,2.47,0,0,1,2.48,2.43,2.4,2.4,0,0,1-2.39,2.43l-43.33,0-387.15.27Z"/><path class="cls-10" d="M1791,1064.71h0l-430.42-.42a2.44,2.44,0,0,1,0-4.87h0l430.4.42a2.44,2.44,0,1,1,0,4.87Z"/><path class="cls-10" d="M1393,1052.3a2.39,2.39,0,0,1-1.35-.41,2.51,2.51,0,0,1-1-1.56L1357,877.05a2.46,2.46,0,0,1,1.92-2.86l59.54-11.54a2.41,2.41,0,0,1,2.85,1.93l33.59,173.28a2.44,2.44,0,0,1-1.93,2.86l-59.52,11.53A2,2,0,0,1,1393,1052.3Zm-30.71-173.79,32.65,168.5,54.75-10.61L1417,867.9Z"/><path class="cls-10" d="M1468.85,1051.2a2.45,2.45,0,0,1-2.36-1.83l-43.86-171a2.44,2.44,0,0,1,1.74-3l58.75-15.07a2.38,2.38,0,0,1,1.85.26,2.42,2.42,0,0,1,1.12,1.49l43.86,171a2.48,2.48,0,0,1-.27,1.86,2.44,2.44,0,0,1-1.48,1.11l-58.74,15.06A2.55,2.55,0,0,1,1468.85,1051.2ZM1428,879.55l42.66,166.25,54-13.85L1482,865.69Z"/><path class="cls-10" d="M1534,1050.91a2.53,2.53,0,0,1-1.24-.33,2.4,2.4,0,0,1-1.1-1.5l-43.88-171a2.43,2.43,0,0,1,.27-1.86,2.47,2.47,0,0,1,1.48-1.11l58.74-15.06a2.42,2.42,0,0,1,3,1.75l43.87,171a2.45,2.45,0,0,1-1.76,3l-58.73,15.07A2.56,2.56,0,0,1,1534,1050.91Zm-40.89-171.65,42.65,166.26,54-13.87-42.65-166.24Z"/><path class="cls-10" d="M1653.84,1049.8h-.1l-60.59-2.3a2.44,2.44,0,0,1-2.35-2.53l6.72-176.38a2.43,2.43,0,0,1,2.43-2.34h.09l60.6,2.3a2.47,2.47,0,0,1,1.7.77,2.52,2.52,0,0,1,.64,1.76l-6.71,176.38a2.42,2.42,0,0,1-2.43,2.34Zm-58.08-7.08,55.73,2.12L1658,873.32l-55.72-2.11Z"/><path class="cls-10" d="M1396.19,993.15a2.4,2.4,0,0,1-1.36-.42,2.44,2.44,0,0,1-1-1.55l-16.72-86.31a2.39,2.39,0,0,1,.38-1.83,2.44,2.44,0,0,1,1.54-1l29.66-5.74a2.41,2.41,0,0,1,2.85,1.93l16.73,86.3a2.44,2.44,0,0,1-1.93,2.86l-29.65,5.75A2.38,2.38,0,0,1,1396.19,993.15Zm-13.88-86.81,15.81,81.53L1423,983l-15.8-81.52Z"/><path class="cls-10" d="M1470.25,995.27a2.4,2.4,0,0,1-2.34-1.81l-22.47-85a2.45,2.45,0,0,1,1.74-3l29.2-7.71a2.44,2.44,0,0,1,3,1.73l22.46,85a2.42,2.42,0,0,1-.26,1.84,2.33,2.33,0,0,1-1.48,1.13l-29.2,7.72A2.59,2.59,0,0,1,1470.25,995.27Zm-19.47-85.7L1472,989.86l24.5-6.48-21.23-80.28Z"/><path class="cls-10" d="M1536.38,997.57a2.46,2.46,0,0,1-2.36-1.82l-22.44-85a2.37,2.37,0,0,1,.24-1.84,2.45,2.45,0,0,1,1.49-1.13l29.19-7.72a2.43,2.43,0,0,1,3,1.73l22.47,85a2.46,2.46,0,0,1-1.74,3l-29.2,7.71A2.23,2.23,0,0,1,1536.38,997.57Zm-19.47-85.7,21.21,80.28,24.49-6.47-21.22-80.29Z"/><path class="cls-10" d="M1640.36,995.39h-.12l-30.16-1.59a2.53,2.53,0,0,1-1.7-.8,2.45,2.45,0,0,1-.61-1.76l4.6-87.79a2.64,2.64,0,0,1,2.56-2.31l30.17,1.58a2.41,2.41,0,0,1,2.3,2.56l-4.61,87.8A2.44,2.44,0,0,1,1640.36,995.39Zm-27.6-6.33,25.29,1.33,4.36-82.93-25.31-1.33Z"/><path class="cls-10" d="M1417,1022.45a8.51,8.51,0,1,1,8.83-8.51A8.67,8.67,0,0,1,1417,1022.45Zm0-12.13a3.65,3.65,0,1,0,4,3.62A3.81,3.81,0,0,0,1417,1010.32Z"/><path class="cls-10" d="M1489.15,1022.24a8.51,8.51,0,1,1,8.81-8.51A8.69,8.69,0,0,1,1489.15,1022.24Zm0-12.14a3.65,3.65,0,1,0,3.95,3.63A3.82,3.82,0,0,0,1489.15,1010.1Z"/><path class="cls-10" d="M1557.2,1023.54A8.51,8.51,0,1,1,1566,1015,8.69,8.69,0,0,1,1557.2,1023.54Zm0-12.14a3.65,3.65,0,1,0,4,3.63A3.82,3.82,0,0,0,1557.2,1011.4Z"/><path class="cls-10" d="M1624.29,1026.25a8.51,8.51,0,1,1,8.83-8.51A8.68,8.68,0,0,1,1624.29,1026.25Zm0-12.14a3.65,3.65,0,1,0,4,3.63A3.8,3.8,0,0,0,1624.29,1014.11Z"/><path class="cls-10" d="M1416,602.42h-16.17A18.89,18.89,0,0,1,1381,583.55V515.24a18.89,18.89,0,0,1,18.86-18.88H1416a18.9,18.9,0,0,1,18.88,18.88v68.31A18.9,18.9,0,0,1,1416,602.42Zm-16.17-101.19a14,14,0,0,0-14,14v68.31a14,14,0,0,0,14,14H1416a14,14,0,0,0,14-14V515.24a14,14,0,0,0-14-14Z"/><path class="cls-10" d="M1479.86,602.6h-13.62A16.3,16.3,0,0,1,1450,586.31V528.76a16.3,16.3,0,0,1,16.28-16.28h13.62a16.3,16.3,0,0,1,16.28,16.28v57.55A16.3,16.3,0,0,1,1479.86,602.6Zm-13.62-85.25a11.42,11.42,0,0,0-11.41,11.41v57.55a11.43,11.43,0,0,0,11.41,11.42h13.62a11.44,11.44,0,0,0,11.42-11.42V528.76a11.43,11.43,0,0,0-11.42-11.41Z"/><path class="cls-10" d="M1419.65,500H1397.6a6.69,6.69,0,1,1,0-13.37h22.05a6.69,6.69,0,0,1,0,13.37Zm-22.05-8.5a1.82,1.82,0,1,0,0,3.63h22.05a1.82,1.82,0,1,0,0-3.63Z"/><path class="cls-10" d="M1478,516.05h-8.51a9.92,9.92,0,1,1,0-19.83H1478a9.92,9.92,0,1,1,0,19.83Zm-8.51-15a5,5,0,1,0,0,10.09H1478a5,5,0,0,0,0-10.09Z"/><path class="cls-10" d="M1789,806.64h-90.21a2.43,2.43,0,0,1-2.44-2.43V770.34a2.44,2.44,0,0,1,2.44-2.44H1789a2.44,2.44,0,1,1,0,4.87h-87.78v29H1789a2.43,2.43,0,1,1,0,4.86Z"/><path class="cls-10" d="M1790.4,783.82h0l-89.17-.45a2.44,2.44,0,0,1,0-4.88h0l89.16.46a2.44,2.44,0,0,1,0,4.87Z"/><path class="cls-10" d="M1789.83,796h0l-91.39-.47a2.43,2.43,0,0,1,0-4.86h0l91.39.45a2.44,2.44,0,0,1,0,4.88Z"/><path class="cls-10" d="M1787.88,601.85h-81.59a2.43,2.43,0,0,1-2.43-2.43v-58a2.43,2.43,0,0,1,2.43-2.44h82.86a2.44,2.44,0,0,1,0,4.88h-80.43V597h79.16a2.43,2.43,0,0,1,0,4.86Z"/><path class="cls-10" d="M1787.52,563.72h0l-78-.1a2.44,2.44,0,1,1,0-4.87h0l78,.11a2.43,2.43,0,1,1,0,4.86Z"/><path class="cls-10" d="M1790.58,1051.68h0l-36.27-.45a27.88,27.88,0,0,1-27.83-27.86V917a27.88,27.88,0,0,1,27.86-27.85l36.48.25a2.44,2.44,0,0,1,0,4.88h0l-36.47-.27a23,23,0,0,0-23,23v106.37a23,23,0,0,0,23,23l36.31.46a2.43,2.43,0,0,1,0,4.86Z"/><path class="cls-10" d="M1789.65,947.94h0l-56.6-.12a2.44,2.44,0,0,1,0-4.88h0l56.59.13a2.44,2.44,0,0,1,0,4.87Z"/><path class="cls-10" d="M1789.28,1007.15h0l-59.66-.14a2.44,2.44,0,1,1,0-4.87h0l59.66.14a2.44,2.44,0,0,1,0,4.87Z"/><path class="cls-10" d="M1790.58,892.78h-25.21a14.1,14.1,0,1,1,0-28.2h24.28a2.44,2.44,0,0,1,0,4.87h-24.28a9.23,9.23,0,1,0,0,18.46h25.21a2.44,2.44,0,1,1,0,4.87Z"/><path class="cls-10" d="M531.24,440.22a2,2,0,0,1-.48-.05,2.45,2.45,0,0,1-1.92-2.87L548,341H388.76l18.44,95.44a2.43,2.43,0,1,1-4.78.92l-19-98.33a2.45,2.45,0,0,1,2.39-2.9H551a2.44,2.44,0,0,1,2.39,2.9l-19.73,99.25A2.46,2.46,0,0,1,531.24,440.22Z"/><path class="cls-10" d="M536.87,468.37h0l-138.39-.49a2.44,2.44,0,0,1-2.4-2l-4.76-26.63a2.39,2.39,0,0,1,.53-2,2.42,2.42,0,0,1,1.87-.86h10.45l136.91,1a2.47,2.47,0,0,1,2.4,2.82l-4.2,26.08A2.42,2.42,0,0,1,536.87,468.37ZM400.52,463l134.28.49,3.39-21.21-141.58-1Z"/><path class="cls-10" d="M440.81,337.67h-.12a2.43,2.43,0,0,1-2.33-2.54c.2-4.1-.41-11.81-1.16-21.58-2.63-33.4-7-89.28,12.29-108.74,5.16-5.18,11.63-7.53,19.35-7,10.74.75,19.58,5,26.25,12.76,10.16,11.74,14.77,31.08,13,54.45a2.48,2.48,0,0,1-2.63,2.25,2.45,2.45,0,0,1-2.24-2.62c1.69-22.07-2.52-40.14-11.82-50.89-5.79-6.71-13.5-10.44-22.9-11.1-6.27-.45-11.38,1.39-15.55,5.6-17.71,17.86-13.45,72.35-10.89,104.91.77,9.95,1.39,17.8,1.18,22.2A2.44,2.44,0,0,1,440.81,337.67Z"/><path class="cls-10" d="M502.86,337.42a2.43,2.43,0,0,1-2.43-2.32c-.1-2.28.49-12,1.46-27.67l.57-9.07a2.44,2.44,0,0,1,4.87.3l-.58,9.07c-.79,12.86-1.53,25-1.46,27.15a2.42,2.42,0,0,1-2.32,2.54Z"/><path class="cls-10" d="M510.15,301a9.75,9.75,0,0,1-7.59-3.25c-7-7.89-2.65-27.49.68-33.76a2.44,2.44,0,1,1,4.31,2.28c-3,5.56-6.29,22.69-1.35,28.24.65.74,2.64,3,8.95.52,10.74-4.21,26.16-15.56,36.32-31.47,3.13-4.89,2.94-9.69-.48-12.84-5.17-4.73-17-5-30.94,5.7a2.43,2.43,0,1,1-3-3.86c16.21-12.46,30.37-11.7,37.19-5.43,5.16,4.74,5.68,12.21,1.3,19C544.81,283,528.4,295,516.92,299.51A18.68,18.68,0,0,1,510.15,301Z"/><path class="cls-10" d="M456.75,338.8a2.43,2.43,0,0,1-2.43-2.44c0-16.08-.5-33-1-49.35s-1-33.47-1-49.73l0-3.09c-.06-10.69-.15-24,6.28-33.64a2.43,2.43,0,1,1,4.05,2.7c-5.6,8.4-5.51,20.89-5.45,30.91v3.12c0,16.19.51,33.17,1,49.58s1,33.35,1,49.5A2.43,2.43,0,0,1,456.75,338.8Z"/><path class="cls-10" d="M485.3,339.53a2.43,2.43,0,0,1-2.43-2.44c0-10.89.14-22.49.27-34.15.26-23,.54-46.88-.27-65.07-.1-2.15-.14-4.39-.19-6.64-.34-17.42-1.55-28.85-14.7-28.85a2.44,2.44,0,1,1,0-4.87c18.91,0,19.28,18.64,19.57,33.63.05,2.21.09,4.4.19,6.52.82,18.32.54,42.22.26,65.34-.12,11.62-.26,23.21-.26,34.09A2.44,2.44,0,0,1,485.3,339.53Z"/><path class="cls-10" d="M506,287a8.67,8.67,0,0,1-4-.95,2.44,2.44,0,1,1,2.18-4.36c2.32,1.17,4.79-.13,8.28-2.25q1-.6,1.89-1.11c10.1-5.61,18.91-14.62,27.43-23.34,1.68-1.72,3.34-3.41,5-5a2.43,2.43,0,0,1,3.43,3.44c-1.63,1.63-3.27,3.32-4.94,5-8.76,9-17.82,18.23-28.54,24.19-.56.31-1.14.66-1.74,1C512.55,285.13,509.41,287,506,287Z"/><path class="cls-10" d="M326.76,832.69a2.31,2.31,0,0,1-1.35-.41,2.42,2.42,0,0,1-1-1.56L284.73,626.24a2.46,2.46,0,0,1,1.94-2.86l70.24-13.62a2.42,2.42,0,0,1,1.83.38,2.37,2.37,0,0,1,1,1.55l39.65,204.49a2.43,2.43,0,0,1-1.93,2.85l-70.25,13.62A2.42,2.42,0,0,1,326.76,832.69ZM290,627.7l38.71,199.71,65.47-12.7L355.45,615Z"/><path class="cls-10" d="M416.28,831.4a2.44,2.44,0,0,1-2.36-1.83L362.15,627.81a2.43,2.43,0,0,1,1.75-3l69.32-17.79a2.45,2.45,0,0,1,3,1.75L488,810.57a2.44,2.44,0,0,1-1.75,3l-69.32,17.78A2.06,2.06,0,0,1,416.28,831.4ZM367.48,629,418,826l64.59-16.57-50.55-197Z"/><path class="cls-10" d="M493.21,831.06a2.45,2.45,0,0,1-2.36-1.82L439.09,627.48a2.45,2.45,0,0,1,1.75-3l69.32-17.78A2.52,2.52,0,0,1,512,607a2.45,2.45,0,0,1,1.12,1.49l51.77,201.76a2.45,2.45,0,0,1-1.76,3L493.82,831A2.49,2.49,0,0,1,493.21,831.06Zm-48.8-202.44,50.56,197,64.58-16.57L509,612.05Z"/><path class="cls-10" d="M620.52,835.61h-.15l-58.17-3.85a2.43,2.43,0,0,1-2.27-2.51l7.92-208.15a2.35,2.35,0,0,1,.77-1.69,2.81,2.81,0,0,1,1.75-.65l71.51,2.72a2.42,2.42,0,0,1,1.69.78,2.5,2.5,0,0,1,.66,1.75s-3.7,95-5.25,135.57a2.47,2.47,0,0,1-2.53,2.34,2.44,2.44,0,0,1-2.34-2.52c1.39-36.77,4.55-118.06,5.15-133.14l-66.64-2.54L564.9,827.05l55.79,3.69a2.43,2.43,0,0,1,2.27,2.59A2.46,2.46,0,0,1,620.52,835.61Z"/><path class="cls-10" d="M330.53,762.9a2.48,2.48,0,0,1-1.37-.42,2.46,2.46,0,0,1-1-1.55L308.39,659.08a2.46,2.46,0,0,1,.38-1.83,2.41,2.41,0,0,1,1.55-1l35-6.78a2.43,2.43,0,0,1,2.86,1.93L367.9,753.2a2.44,2.44,0,0,1-1.91,2.87l-35,6.78A1.75,1.75,0,0,1,330.53,762.9ZM313.64,660.54l18.81,97.07,30.22-5.87-18.82-97.06Z"/><path class="cls-10" d="M417.94,765.39a2.38,2.38,0,0,1-1.24-.33,2.42,2.42,0,0,1-1.12-1.49L389.09,663.28a2.42,2.42,0,0,1,1.72-3l34.46-9.1a2.37,2.37,0,0,1,1.84.24,2.41,2.41,0,0,1,1.14,1.49l26.5,100.3a2.43,2.43,0,0,1-1.73,3l-34.46,9.11A2.25,2.25,0,0,1,417.94,765.39Zm-23.53-101L419.67,760l29.74-7.86-25.25-95.59Z"/><path class="cls-10" d="M496,768.1a2.4,2.4,0,0,1-2.35-1.81L467.1,666a2.45,2.45,0,0,1,1.74-3l34.46-9.11a2.36,2.36,0,0,1,1.85.26,2.45,2.45,0,0,1,1.13,1.48l26.5,100.3a2.42,2.42,0,0,1-1.73,3L496.59,768A2.62,2.62,0,0,1,496,768.1Zm-23.54-101,25.26,95.59,29.75-7.87-25.25-95.58Z"/><path class="cls-10" d="M618,770.27h-.12l-35.59-1.87a2.43,2.43,0,0,1-2.31-2.56l5.43-103.6a2.42,2.42,0,0,1,.8-1.69,2.63,2.63,0,0,1,1.76-.62l35.59,1.86a2.47,2.47,0,0,1,1.69.81,2.42,2.42,0,0,1,.62,1.76L620.4,768A2.44,2.44,0,0,1,618,770.27Zm-33-6.6,30.73,1.6,5.19-98.74-30.73-1.61Z"/><path class="cls-10" d="M355,797.47a9.6,9.6,0,1,1,10-9.59A9.8,9.8,0,0,1,355,797.47Zm0-14.32a4.74,4.74,0,1,0,5.12,4.73A4.94,4.94,0,0,0,355,783.15Z"/><path class="cls-10" d="M440.22,797.22a9.6,9.6,0,1,1,10-9.6A9.81,9.81,0,0,1,440.22,797.22Zm0-14.33a4.74,4.74,0,1,0,5.11,4.73A4.94,4.94,0,0,0,440.22,782.89Z"/><path class="cls-10" d="M520.53,798.76a9.61,9.61,0,1,1,10-9.6A9.8,9.8,0,0,1,520.53,798.76Zm0-14.33a4.74,4.74,0,1,0,5.11,4.73A4.93,4.93,0,0,0,520.53,784.43Z"/><path class="cls-10" d="M599,806.69a9.61,9.61,0,1,1,10-9.6A9.8,9.8,0,0,1,599,806.69Zm0-14.33a4.74,4.74,0,1,0,5.11,4.73A5,5,0,0,0,599,792.36Z"/><path class="cls-10" d="M211.48,465.46a2.59,2.59,0,0,1-.55-.07l-25.28-5.93a2.44,2.44,0,0,1-1.82-2.93l55.92-238.44a2.49,2.49,0,0,1,2.94-1.81L268,222.21a2.42,2.42,0,0,1,1.82,2.92L213.85,463.57a2.43,2.43,0,0,1-2.37,1.89Zm-22.36-10.19,20.55,4.82L264.48,226.4,244,221.58Z"/><path class="cls-10" d="M166.34,463.62a2.82,2.82,0,0,1-.7-.1l-24.85-7.59a2.37,2.37,0,0,1-1.43-1.18,2.32,2.32,0,0,1-.18-1.86l71.48-234.23a2.45,2.45,0,0,1,3-1.63l24.84,7.59A2.38,2.38,0,0,1,240,225.8a2.41,2.41,0,0,1,.18,1.86L168.68,461.89A2.46,2.46,0,0,1,166.34,463.62ZM144.54,452l20.19,6.15,70.06-229.58-20.18-6.15Z"/><path class="cls-10" d="M135.35,463.62a2.77,2.77,0,0,1-.71-.1l-24.84-7.59a2.42,2.42,0,0,1-1.62-3l71.48-234.23a2.47,2.47,0,0,1,1.19-1.44,2.4,2.4,0,0,1,1.85-.19l24.84,7.59a2.45,2.45,0,0,1,1.63,3L137.68,461.89a2.49,2.49,0,0,1-1.18,1.44A2.37,2.37,0,0,1,135.35,463.62ZM113.55,452l20.18,6.15L203.8,228.56l-20.19-6.15Z"/><path class="cls-10" d="M103.51,467a2.83,2.83,0,0,1-.71-.1L78,459.28a2.43,2.43,0,0,1-1.62-3L147.83,222a2.44,2.44,0,0,1,3-1.63L175.71,228a2.53,2.53,0,0,1,1.45,1.18,2.55,2.55,0,0,1,.17,1.86L105.84,465.24a2.4,2.4,0,0,1-2.33,1.73ZM81.72,455.34l20.17,6.15L172,231.91l-20.18-6.15Z"/><path class="cls-10" d="M72,468.09a2.62,2.62,0,0,1-.72-.11L46.4,460.4A2.37,2.37,0,0,1,45,459.22a2.46,2.46,0,0,1-.19-1.86l71.49-234.24a2.45,2.45,0,0,1,3-1.62l24.83,7.58a2.43,2.43,0,0,1,1.62,3L74.28,466.36A2.43,2.43,0,0,1,72,468.09Zm-21.8-11.64,20.18,6.16L140.4,233l-20.18-6.16Z"/><path class="cls-10" d="M12.41,465.46a2.35,2.35,0,0,1-1-.22A2.42,2.42,0,0,1,10.18,462L108.8,240.56l-19.29-8.67-84.57,190a2.43,2.43,0,0,1-4.43-2L86.06,227.68a2.41,2.41,0,0,1,3.21-1.23L113,237.1a2.44,2.44,0,0,1,1.22,3.22L14.63,464A2.44,2.44,0,0,1,12.41,465.46Z"/><path class="cls-10" d="M560.56,1128.48H312.42a2.44,2.44,0,0,1-2.44-2.43v-46a2.45,2.45,0,0,1,2.44-2.44H560.56a2.44,2.44,0,0,1,2.44,2.44v46A2.43,2.43,0,0,1,560.56,1128.48Zm-245.71-4.86H558.12v-41.14H314.85Z"/><path class="cls-10" d="M575.19,1082.28H327.05a2.43,2.43,0,0,1-2.43-2.43v-46a2.42,2.42,0,0,1,2.43-2.42H575.19a2.42,2.42,0,0,1,2.43,2.42v46A2.43,2.43,0,0,1,575.19,1082.28Zm-245.7-4.87H572.76v-41.13H329.49Z"/><path class="cls-10" d="M543.64,1035.68H315.5a2.44,2.44,0,0,1-2.45-2.43v-46a2.44,2.44,0,0,1,2.45-2.43H543.64a2.43,2.43,0,0,1,2.44,2.43v46A2.43,2.43,0,0,1,543.64,1035.68Zm-225.71-4.87H541.21V989.69H317.93Z"/><path class="cls-10" d="M485.74,989.86H326.67a2.43,2.43,0,0,1-2.43-2.43V952.37a2.43,2.43,0,0,1,2.43-2.43H485.74a2.43,2.43,0,0,1,2.43,2.43v35.06A2.43,2.43,0,0,1,485.74,989.86ZM329.1,985H483.3V954.81H329.1Z"/><path class="cls-10" d="M98,833.16H73.61a27.25,27.25,0,0,1-27.22-27.22V703a27.24,27.24,0,0,1,27.22-27.21H98A27.23,27.23,0,0,1,125.19,703v103A27.24,27.24,0,0,1,98,833.16ZM73.61,680.62A22.37,22.37,0,0,0,51.26,703v103a22.37,22.37,0,0,0,22.35,22.35H98a22.37,22.37,0,0,0,22.35-22.35V703A22.37,22.37,0,0,0,98,680.62Z"/><path class="cls-10" d="M194.25,833.43H173.73a23.35,23.35,0,0,1-23.32-23.32V723.36A23.34,23.34,0,0,1,173.73,700h20.52a23.34,23.34,0,0,1,23.32,23.32v86.75A23.35,23.35,0,0,1,194.25,833.43ZM173.73,704.91a18.48,18.48,0,0,0-18.45,18.45v86.75a18.47,18.47,0,0,0,18.45,18.44h20.52a18.47,18.47,0,0,0,18.46-18.44V723.36a18.48,18.48,0,0,0-18.46-18.45Z"/><path class="cls-10" d="M103.49,678.74H70.26a8.85,8.85,0,1,1,0-17.69h33.23a8.85,8.85,0,1,1,0,17.69ZM70.26,665.92a4,4,0,1,0,0,8h33.23a4,4,0,1,0,0-8Z"/><path class="cls-10" d="M191.46,703H178.65a13.72,13.72,0,1,1,0-27.43h12.81a13.72,13.72,0,0,1,0,27.43Zm-12.81-22.57a8.85,8.85,0,1,0,0,17.7h12.81a8.85,8.85,0,1,0,0-17.7Z"/></g><ellipse class="cls-11" cx="826.29" cy="468.85" rx="17.04" ry="8.61"/><ellipse class="cls-11" cx="969.73" cy="469.98" rx="17.04" ry="8.61"/></g></g></svg>