<svg xmlns="http://www.w3.org/2000/svg" xmlns:xlink="http://www.w3.org/1999/xlink" viewBox="0 0 2328.84 2579.22"><defs><style>.cls-1{fill:none;}.cls-2{fill:#dde7fe;}.cls-3{fill:#b9caef;}.cls-4{fill:#2dca8c;}.cls-5{fill:#3bea9f;}.cls-6{fill:#060633;}.cls-7{fill:#c0f1f9;}.cls-8{fill:#a6d8dd;}.cls-9{fill:#ffbe3e;}.cls-10{fill:#ff715b;}.cls-11{fill:#50efab;}.cls-12{clip-path:url(#clip-path);}.cls-13{fill:#ff9391;}.cls-14{fill:#020231;}.cls-15{fill:#ff6868;}.cls-16{fill:#b5d1fa;}.cls-17,.cls-24{fill:#fff;}.cls-18{fill:#ff7367;}.cls-19{fill:#e4effd;}.cls-20{fill:#050356;}.cls-21{fill:#84b5c3;}.cls-22{fill:#110d27;}.cls-23{fill:#d9e7ff;}.cls-24{font-size:30px;font-family:Montserrat-SemiBold, Montserrat;font-weight:600;}.cls-25{letter-spacing:0em;}.cls-26{letter-spacing:-0.01em;}.cls-27{letter-spacing:0em;}.cls-28{letter-spacing:0.01em;}.cls-29{letter-spacing:-0.01em;}.cls-30{letter-spacing:0.01em;}.cls-31{letter-spacing:-0.02em;}.cls-32{letter-spacing:0em;}.cls-33{fill:#9ddeed;}</style><clipPath id="clip-path"><path class="cls-1" d="M706.45,1579.09s322.26,7,455.21,7.41,542.92-10.49,579-12.2S1870,588.88,1472.59,431.06c-180.65-71.73-496.53-24.31-624.53,145.82S690.6,1155.16,674.6,1297,706.45,1579.09,706.45,1579.09Z"/></clipPath></defs><g id="Layer_2" data-name="Layer 2"><g id="_ÎÓÈ_1" data-name="—ÎÓÈ_1"><path class="cls-2" d="M172.71,1467.33S-151.84,816.88,438.16,859c516.14,36.87,459.9-516.42,917.06-335.77,313.34,123.83,284.8,616,579.74,682.33S2167.22,1490,2167.22,1490Z"/><path class="cls-3" d="M2328.84,1490c0,16.87-55.4,32.71-152.36,46.39-273.29,38.55-735.57,47.34-1012.06,47.34-276.83,0-731.13-9-1003.86-46.2C58.53,1523.6,0,1507.36,0,1490s58.77-33.66,161.2-47.62c272.72-37.15,723.68-46.12,1003.22-46.12,278.46,0,733.22,8.57,1008.37,46.82C2272,1456.89,2328.84,1472.92,2328.84,1490Z"/><path class="cls-4" d="M945.71,1319s106.8-462.58-710.28-512.09c0,0,265.72,800.15,710.28,512.09Z"/><path class="cls-5" d="M234.11,805.92,948.89,1259.2c-2.61-126.2-79-414.77-714.78-453.28Z"/><path class="cls-6" d="M919.4,1242.93a3,3,0,0,1-2.27-.37L232.53,808.41a2.95,2.95,0,0,1,3.16-5l684.6,434.14a3,3,0,0,1-.89,5.36Z"/><path class="cls-6" d="M592.19,1035.42l-.19,0-221.95,38.06a2.95,2.95,0,0,1-1-5.81l222-38.06a2.95,2.95,0,0,1,1.19,5.77Z"/><path class="cls-6" d="M738.84,1128.42a2.94,2.94,0,0,1-3.27-1.43L628.84,933.39a2.94,2.94,0,0,1,1.16-4,3,3,0,0,1,4,1.16l106.72,193.58a3,3,0,0,1-1.16,4,3.39,3.39,0,0,1-.73.27Z"/><path class="cls-7" d="M1016.83,1333.74S856.29,1056.92,431.42,1409c0,0,499.35,271.33,585.41-75.21Z"/><path class="cls-8" d="M431.42,1409l585.41-75.21S985.65,1676.4,431.42,1409Z"/><path class="cls-9" d="M1388.65,1198.69a2.3,2.3,0,0,1-.42-.14,2.19,2.19,0,0,1-1-2.91C1525.09,913.5,1640.6,717.29,1712.5,643.15c1.59-1.65,2.74-2.83,3.21-3.45a2.18,2.18,0,1,1,3.48,2.61c-.64.84-1.74,2-3.57,3.87C1644,720,1528.81,915.81,1391.14,1197.54a2.15,2.15,0,0,1-2.49,1.15Z"/><path class="cls-9" d="M1755.57,634.54c-8.44,8.26-45.94,19.81-48.31,17.4s10-39.67,18.39-47.93a21.37,21.37,0,1,1,29.92,30.53Z"/><path class="cls-9" d="M1683.92,652.11c1.55,12-12.11,49.73-15.53,50.18s-26.28-32.56-27.84-44.54a21.87,21.87,0,0,1,43.37-5.64Z"/><path class="cls-9" d="M1714.1,727c-12-1.18-45.73-23-45.39-26.42s37.65-18.28,49.66-17.1A21.86,21.86,0,1,1,1714.1,727Z"/><path class="cls-9" d="M1549.78,832.1c4.77,19.7-11.2,85.18-16.83,86.55s-49.74-49.59-54.51-69.29a36.7,36.7,0,0,1,71.34-17.26Z"/><path class="cls-9" d="M1613.71,951.63c-20.26.2-80.47-30.1-80.53-35.88s59.51-37.32,79.79-37.52a36.7,36.7,0,1,1,.74,73.4Z"/><path class="cls-9" d="M1485.62,897.79c11,22.23,9.58,104.7,3.23,107.84s-72.75-45.79-83.74-68a44.91,44.91,0,1,1,80.51-39.82Z"/><path class="cls-9" d="M1579.15,1055.84c-24.69-2.3-94.16-46.76-93.5-53.82s77.14-37.92,101.83-35.62a44.91,44.91,0,1,1-8.33,89.44Z"/><path class="cls-9" d="M1437.58,989.29c11,22.23,9.58,104.7,3.23,107.83s-72.75-45.78-83.74-68a44.91,44.91,0,1,1,80.51-39.81Z"/><path class="cls-9" d="M1531.12,1147.33c-24.7-2.29-94.17-46.76-93.51-53.81s77.14-37.92,101.83-35.62a44.91,44.91,0,1,1-8.32,89.43Z"/><path class="cls-9" d="M1347.09,1099.33c18.64,16.36,48.74,93.16,44.07,98.48s-84.71-14.63-103.35-31a44.91,44.91,0,0,1,59.28-67.48Z"/><path class="cls-9" d="M1487,1238.38c-24.8.81-99.28-34.62-99.51-41.69s71.8-47.27,96.59-48.08a44.91,44.91,0,0,1,2.92,89.77Z"/><path class="cls-9" d="M1642.45,708.2c1.58,12.17-12.3,50.53-15.77,51s-26.71-33.08-28.29-45.25a22.22,22.22,0,0,1,44.06-5.73Z"/><path class="cls-9" d="M1671.44,784.78c-12.21-1.2-46.47-23.36-46.12-26.85s38.25-18.57,50.45-17.37a22.22,22.22,0,0,1-4.33,44.22Z"/><path class="cls-9" d="M1597.26,759.2c3.65,17-11.53,73-16.39,74s-41.67-43.73-45.33-60.78a31.56,31.56,0,1,1,61.72-13.24Z"/><path class="cls-9" d="M1646.21,869.33c-17.35-1.7-66-33.18-65.52-38.13s54.33-26.39,71.68-24.69a31.56,31.56,0,0,1-6.16,62.82Z"/><path class="cls-10" d="M1577,1413.37a2.31,2.31,0,0,1-.2-.24,1.5,1.5,0,0,1,.45-2.06c180.91-116.74,318.25-191,386.73-209,1.52-.4,2.61-.69,3.11-.89a1.49,1.49,0,1,1,1.11,2.77c-.67.26-1.72.54-3.46,1-68.18,18-205.22,92-385.87,208.63a1.49,1.49,0,0,1-1.87-.21Z"/><path class="cls-10" d="M1992.32,1212.28c-7.88,1.85-34-4.66-34.52-6.91s19.91-19.76,27.78-21.62a14.66,14.66,0,0,1,6.74,28.53Z"/><path class="cls-10" d="M1944,1197.2c-3.33,7.58-24.74,24.89-26.9,24s-3.89-28.43-.55-36A15,15,0,1,1,1944,1197.2Z"/><path class="cls-10" d="M1935.21,1251.85c-6.63-4.94-18.69-29.7-17.28-31.59s28.58,2.61,35.21,7.57a15,15,0,1,1-17.93,24Z"/><path class="cls-10" d="M1801.51,1255.3c-4.18,13.25-36.76,46-40.55,44.84s-11.62-46.74-7.44-60a25.16,25.16,0,1,1,48,15.15Z"/><path class="cls-10" d="M1796.68,1348.12c-12-7.07-36.57-46.19-34.56-49.61s48.16-.8,60.13,6.26a25.16,25.16,0,0,1-25.57,43.35Z"/><path class="cls-10" d="M1740.57,1271.12c-1.42,17-31.49,64.85-36.33,64.44s-26.46-52.66-25-69.61a30.79,30.79,0,1,1,61.37,5.17Z"/><path class="cls-10" d="M1739.45,1397c-13.67-10.11-38.69-60.82-35.8-64.73s58.71,5.08,72.39,15.19a30.79,30.79,0,1,1-36.59,49.54Z"/><path class="cls-10" d="M1680,1307.8c-1.43,16.94-31.49,64.84-36.33,64.43s-26.47-52.65-25-69.6a30.8,30.8,0,0,1,61.38,5.17Z"/><path class="cls-10" d="M1678.83,1433.71c-13.68-10.1-38.69-60.82-35.81-64.72s58.72,5.08,72.4,15.18a30.79,30.79,0,1,1-36.59,49.54Z"/><path class="cls-10" d="M1587.83,1340.31c5.14,16.22-4.41,72-9,73.42s-44.53-38.6-49.67-54.82a30.79,30.79,0,0,1,58.71-18.6Z"/><path class="cls-10" d="M1620.65,1471.51c-14.84-8.32-46-55.51-43.63-59.74s58.9-2.3,73.73,6a30.79,30.79,0,0,1-30.1,53.73Z"/><path class="cls-10" d="M1899.82,1215.42c-3.38,7.71-25.13,25.3-27.33,24.34s-4-28.89-.56-36.59a15.23,15.23,0,1,1,27.89,12.25Z"/><path class="cls-10" d="M1889.69,1270.64c-6.74-5-19-30.18-17.55-32.1s29,2.66,35.77,7.68a15.23,15.23,0,1,1-18.22,24.42Z"/><path class="cls-10" d="M1855.22,1229.34c-3.89,11.29-32.63,38.75-35.86,37.64s-8.95-40.44-5.06-51.74a21.64,21.64,0,0,1,40.92,14.1Z"/><path class="cls-10" d="M1844.92,1311.33c-9.58-7.15-27-42.87-25-45.61s41.25,3.78,50.83,10.92a21.64,21.64,0,0,1-25.88,34.69Z"/><path class="cls-4" d="M1357.31,1433.42s-60.69-309.7,483.26-324.44c0,0-194.31,525.69-483.26,324.44Z"/><path class="cls-11" d="M1841.47,1108.36l-484.95,285.27c4.54-83.78,61.73-273.8,485-285.27Z"/><path class="cls-6" d="M1376.47,1383.48a2,2,0,0,0,1.52-.2l464.47-273.23a2,2,0,1,0-2-3.38L1376,1379.9a2,2,0,0,0-.69,2.68,1.92,1.92,0,0,0,1.16.9Z"/><path class="cls-6" d="M1598.47,1252.88a.28.28,0,0,0,.13,0l146.61,30.22a2,2,0,0,0,.79-3.84l-146.61-30.21a2,2,0,0,0-.92,3.8Z"/><path class="cls-6" d="M1499,1311.41a1.94,1.94,0,0,0,2.2-.88l75.21-126.25a2,2,0,0,0-3.37-2l-75.2,126.24a2,2,0,0,0,.68,2.69,1.68,1.68,0,0,0,.48.2Z"/><path class="cls-11" d="M1309.73,1441.65s112.8-180.35,387.26,63c0,0-337.79,169.17-387.26-63Z"/><path class="cls-4" d="M1697,1504.62l-387.26-63s13.1,228.35,387.26,63Z"/><g class="cls-12"><path class="cls-13" d="M1336.82,2395.08s-1.41,98.1-.65,99.5-7.16,13.68-7.16,13.68l-30.94,5.55-28.24-13s2.49-91.2-.47-105.58S1336.82,2395.08,1336.82,2395.08Z"/><path class="cls-14" d="M1269.83,2500.82s35.66,12.48,66.15-8.17c0,0,118.76,44.51,115.13,78.36,0,0,5.06,10.08-46.4,7.9s-131.41-4.46-133.56-5.65S1258.93,2577.51,1269.83,2500.82Z"/><path class="cls-13" d="M974,2395.08s-1.41,98.1-.65,99.5-7.16,13.68-7.16,13.68l-30.94,5.55-28.24-13s2.49-91.2-.46-105.58S974,2395.08,974,2395.08Z"/><path class="cls-14" d="M907,2500.82s35.66,12.48,66.15-8.17c0,0,118.76,44.51,115.13,78.36,0,0,5.06,10.08-46.4,7.9s-131.42-4.46-133.56-5.65S896.1,2577.51,907,2500.82Z"/><polygon class="cls-14" points="943.75 1346.47 902.02 2484.69 982.32 2481.74 1167.91 1719.12 1264.85 2492.65 1349.04 2484.69 1385.75 1397.04 1280.68 1356.29 943.75 1346.47"/><path class="cls-13" d="M1618.06,1038.3s-2.69-46.74.08-63.84-7.23-35.74,2.65-37.56,18,30.52,18,30.52,20.87-28.41,26-38.12,18.6-24.75,26-21.58-20.3,48.09-20.3,48.09,27-35.53,34.48-34.06-20.31,51.72-20.31,51.72,27-39.3,31.78-40.54,6.58,4.87.41,21.1-16.67,31.23-16.67,31.23,21-26.2,24.65-28.46,10.26-2.74-1.43,20.34-45.1,68.85-71.08,84.95Z"/><path class="cls-15" d="M1209,658.1s6.42-14.17,14-10c19.23,10.54,4.9,30.38-5.88,36Z"/><path class="cls-13" d="M1205.14,610.25l-.1,0c-.17-1.35-.33-2.7-.55-4.06A105.78,105.78,0,0,0,1076.21,520c-50.17,11.51-85.15,58.55-81.7,109.91a105.72,105.72,0,0,0,17,51c13.61,22.87,25.49,42.39,37.31,58.31a151.08,151.08,0,0,1,29.32,91.28l-.19,25.79c69.67,23.82,93.82-12.67,93.82-12.67l-6.25-46.27a11.73,11.73,0,0,1,9.09-13l.11,0C1253.51,766.37,1210.92,646.1,1205.14,610.25Z"/><path class="cls-14" d="M1106.39,682.4a9.85,9.85,0,1,0-8.15,11.29A9.83,9.83,0,0,0,1106.39,682.4Z"/><path class="cls-14" d="M1190,651.18a9.85,9.85,0,1,0-8.15,11.29A9.85,9.85,0,0,0,1190,651.18Z"/><path class="cls-14" d="M1062.6,661a5.77,5.77,0,0,1-6.73-7.45c3-9.11,15.07-24.78,39-18.83a5.77,5.77,0,0,1-2.79,11.2c-19.64-4.9-25,10.61-25.24,11.27A5.79,5.79,0,0,1,1062.6,661Z"/><path class="cls-14" d="M1149.5,627.92a5.66,5.66,0,0,1-3-.35,5.77,5.77,0,0,1-3.22-7.49c3.57-8.92,16.53-23.84,40-16.47a5.77,5.77,0,0,1-3.45,11c-19.31-6.06-25.61,9.09-25.87,9.74A5.79,5.79,0,0,1,1149.5,627.92Z"/><polygon class="cls-14" points="987.46 648.6 1027.18 714.67 1045.56 707.82 1042.26 614.85 987.46 648.6"/><path class="cls-15" d="M1162,709.56a19.7,19.7,0,0,1-17.81,2.32,1.7,1.7,0,0,1-.92-2.23,1.72,1.72,0,0,1,2.24-.92c.42.17,10.55,4.17,18.46-5.75,1.29-1.62,1.9-2.86,1.8-3.7-.14-1.16-1.76-2.44-4-4.2-5.19-4.05-13.87-10.84-19.09-28.49a1.71,1.71,0,1,1,3.28-1c4.91,16.6,12.74,22.72,17.92,26.76,2.8,2.19,5,3.91,5.32,6.51.21,1.84-.57,3.76-2.53,6.22A22.92,22.92,0,0,1,1162,709.56Z"/><path class="cls-14" d="M1181.81,572.41s16.71,8.12,30.61,70.9c0,0-6.29-71.46-15.4-78S1181.81,572.41,1181.81,572.41Z"/><path class="cls-14" d="M1063.52,684a32.21,32.21,0,1,1,32.21,32.21A32.25,32.25,0,0,1,1063.52,684Zm2,0a30.26,30.26,0,1,0,30.26-30.26A30.29,30.29,0,0,0,1065.47,684Z"/><path class="cls-14" d="M1148.07,652.75a32.2,32.2,0,1,1,32.2,32.21A32.23,32.23,0,0,1,1148.07,652.75Zm2,0a30.26,30.26,0,1,0,30.25-30.25A30.29,30.29,0,0,0,1150,652.75Z"/><path class="cls-14" d="M1127,676.94c1.55-4.91,4.28-8.34,8.1-10.19,7.3-3.54,16.32-.18,16.41-.15l.7-1.82c-.41-.15-9.89-3.68-18,.21-4.33,2.09-7.4,5.91-9.11,11.36Z"/><polygon class="cls-14" points="1038.87 700.01 1067.59 698.3 1067.47 696.36 1038.75 698.06 1038.87 700.01"/><path class="cls-13" d="M1048.13,705.09a15.68,15.68,0,0,0-9.32-6.05c-7.68-1.75-20.9-2.87-28.24,7.28-10.75,14.89,20.53,44.73,43.31,23.72C1053.88,730,1060,721.58,1048.13,705.09Z"/><path class="cls-16" d="M1071.48,844.07l105.16-7.26,52.92,173.46,23.36,338.15s-93.3,53.43-224.63,1L1038,951.21Z"/><path class="cls-17" d="M1071.48,844.07s-154,78.11-182.23,123.43c-26,41.86-24.61,3.66-92.09,233.17a92.79,92.79,0,0,0,17.47,85.27,62.61,62.61,0,0,0,30.6,19.88l83.82,24.84-27,669.87h183.6Z"/><path class="cls-17" d="M1176.64,836.81S1339.94,893,1374.1,934s49.12,1053.35,49.12,1053.35h-154Z"/><polygon class="cls-18" points="1106.94 861.5 1127.6 891.7 1119.83 1339.54 1185.87 1431.36 1223.19 1329.99 1149.69 887.47 1161.01 855.06 1123.82 844.07 1106.94 861.5"/><polygon class="cls-16" points="1071.48 844.07 1078.16 826.24 1128.8 840.11 1168.42 818.49 1176.64 836.81 1170.16 869.79 1131.16 848.12 1096.57 877.13 1071.48 844.07"/><path class="cls-14" d="M1014.59,519.46c2.8-3.3,8.2-6.17,11-2.85,1.12,1.33,1.26,3.22,1.25,5a46.52,46.52,0,0,1-2.52,14.93c16.29-22,45.41-30.49,72.75-32s54.87,2.61,82.06-.61c10.78-1.28,23.69-2.94,30.65,5.39,4.86,5.81,4.46,14.83.44,21.25s-11,10.51-18.19,12.82A14.77,14.77,0,0,1,1212,563c-4.09,8.44-14.69,11-24,12.37a835.71,835.71,0,0,1-89,8.68l13.7,9.58a11.33,11.33,0,0,1,4,4c1.13,2.36.48,5.21-.78,7.5-3.26,5.92-10.06,9.15-16.75,10s-13.48-.15-20.2-.78a159.4,159.4,0,0,0-29.55,0,14.69,14.69,0,0,0-5.9,1.44c-2.4,1.33-3.89,3.82-5.5,6.05-9.6,13.31-25.82,19.82-41.16,25.66-4.77,1.81-11.14,3.21-14.14-.91a11.27,11.27,0,0,1-1.65-5.62,132.22,132.22,0,0,1,11.73-69.1c-2.57,5.5-9.73,7.3-13.42,1.36-4.69-7.55,4.72-14.71,10-18.31,4.87-3.3,9.64-4.25,13.08-9.44C1007.87,537.33,1007.79,527.46,1014.59,519.46Z"/><path class="cls-17" d="M1137.36,737.05,1192,719.79s-1.06,31-21.25,32.4S1137.36,737.05,1137.36,737.05Z"/><polygon class="cls-19" points="1011.56 876.7 1051.58 1002.97 1021.32 1018.14 1077.4 1266.83 1071.48 844.07 1011.56 876.7"/><path class="cls-17" d="M1333,903.88s54.54,25.26,81.17,87.62,64.75,159.92,107.62,172.08c34.17,9.69,83.22-137.29,83.22-137.29l79.66,21.71s-28.57,295-181.7,279.33c-97.33-10-143.54-219-143.54-219Z"/><polygon class="cls-19" points="1240.47 860.89 1218.19 991.46 1250.24 1002.33 1222.72 1271.76 1176.64 836.81 1240.47 860.89"/><path class="cls-20" d="M1166.08,1036l232.59,12.51a1.32,1.32,0,0,1,1.24,1.39L1382.58,1372a1.32,1.32,0,0,1-1.38,1.25l-232.59-12.52a1.31,1.31,0,0,1-1.24-1.39l17.32-322.1A1.31,1.31,0,0,1,1166.08,1036Z"/><rect class="cls-21" x="1230.6" y="1026.53" width="95.27" height="20.26" transform="translate(2498.95 2140.48) rotate(-176.92)"/><path class="cls-21" d="M1263.05,1025.7a15.75,15.75,0,1,1,14.89,16.58A15.75,15.75,0,0,1,1263.05,1025.7Z"/><path class="cls-13" d="M1074.28,1271.29s43.6-19.11,60.89-22.52,31.5-19.55,36.74-10.78-22.73,28-22.73,28,34.48,9.83,45.53,11.25,30.17,9,29.77,17.13-53-2.33-53-2.33,43.44,13.19,44.67,20.81-56.5-1-56.5-1,47,11.81,49.91,16-2.32,8-20,7.86-35.66-4.83-35.66-4.83,32.42,10.77,35.85,13.41,6.25,8.81-19.9,5.84-81.6-18.61-106.15-37.68Z"/><polygon class="cls-20" points="1154.18 1232.67 1152.34 1266.83 1184.72 1262.35 1187.3 1234.03 1177.28 1220.29 1154.18 1232.67"/><path class="cls-22" d="M1056.3,1349a2,2,0,0,0,1.89-1.51l19.94-85.12a1.94,1.94,0,0,0-1-2.2l-144.9-70.66,32.33-95.15a1.94,1.94,0,1,0-3.68-1.26L928,1189.84a2,2,0,0,0,1,2.38L1074,1263l-19.18,81.9-125.5-16.13a2,2,0,0,0-2.18,1.68,1.94,1.94,0,0,0,1.68,2.18L1056,1349Z"/></g><path class="cls-10" d="M1264.18,201.42c-6.74,78.87-183.81,115.91-322.76,104C802.16,293.54,694.75,220,701.48,141.29s173.76-151.92,313-140S1270.92,122.66,1264.18,201.42Z"/><circle class="cls-17" cx="1045.92" cy="70.46" r="32.9" transform="translate(598.68 1018.56) rotate(-68.6)"/><path class="cls-23" d="M1061.85,44h0a5.51,5.51,0,0,0-7.58,1.89l-25.61,42.63a5.52,5.52,0,0,0,1.89,7.58h0a5.53,5.53,0,0,0,7.58-1.89l25.61-42.63A5.53,5.53,0,0,0,1061.85,44Z"/><path class="cls-17" d="M900.75,222a23.45,23.45,0,1,0,13.72,30.2A23.45,23.45,0,0,0,900.75,222Z"/><path class="cls-23" d="M871.87,236.2h0a3.92,3.92,0,0,0,2.3,5.07l33.19,12.46a4,4,0,0,0,5.07-2.31h0a4,4,0,0,0-2.31-5.07L876.94,233.9A3.92,3.92,0,0,0,871.87,236.2Z"/><text class="cls-24" transform="translate(752.23 138.22)"><tspan class="cls-25">L</tspan><tspan x="17.82" y="0">o</tspan><tspan class="cls-26" x="37.17" y="0">r</tspan><tspan x="49.47" y="0">em ipsum dolor sit a</tspan><tspan class="cls-27" x="365.19" y="0">m</tspan><tspan x="396.93" y="0">e</tspan><tspan class="cls-28" x="415.59" y="0">t</tspan><tspan x="428.6" y="0">, </tspan><tspan class="cls-29" x="0" y="48">c</tspan><tspan x="17.19" y="48">onse</tspan><tspan class="cls-30" x="91.2" y="48">c</tspan><tspan class="cls-31" x="108.84" y="48">t</tspan><tspan x="121.02" y="48">etuer </tspan><tspan class="cls-32" x="212.37" y="48">a</tspan><tspan x="230.73" y="48">dipisci</tspan><tspan class="cls-27" x="330.8" y="48">n</tspan><tspan x="351.5" y="48">g elit</tspan></text><path class="cls-33" d="M2120.52,177.43c0,61.58-134.6,106.69-277.88,123.26a1031.9,1031.9,0,0,1-117.21,6.93,705.82,705.82,0,0,1-79-4.36c-138.38-15.62-240.75-71.35-240.75-137.71,0-57.73,109.54-119.8,237.76-148.58,20.2-4.53,40.87-8.24,61.64-11A611.83,611.83,0,0,1,1784.65.59C1961.23.59,2120.52,99,2120.52,177.43Z"/><path class="cls-17" d="M1858.45,222.08h0a17.82,17.82,0,0,0-25.12-2l-33.51,28.63a17.83,17.83,0,0,0-2,25.12h0a17.82,17.82,0,0,0,25.12,2l33.51-28.64A17.81,17.81,0,0,0,1858.45,222.08Z"/><path class="cls-18" d="M1858.45,222.08a17.82,17.82,0,0,0-25.12-2l-16.75,14.32,23.14,27.08,16.76-14.32A17.81,17.81,0,0,0,1858.45,222.08Z"/><path class="cls-17" d="M1683.25,60.59h0a12,12,0,0,0,5.06,16.15l26.23,13.72a12,12,0,0,0,16.15-5.06h0a12,12,0,0,0-5.06-16.14L1699.4,55.54A12,12,0,0,0,1683.25,60.59Z"/><path class="cls-18" d="M1683.25,60.59a12,12,0,0,0,5.06,16.15l13.12,6.86,11.08-21.2-13.11-6.86A12,12,0,0,0,1683.25,60.59Z"/><text class="cls-24" transform="translate(1534 141.77)"><tspan class="cls-25">L</tspan><tspan x="17.82" y="0">o</tspan><tspan class="cls-26" x="37.17" y="0">r</tspan><tspan x="49.47" y="0">em ipsum dolor sit a</tspan><tspan class="cls-27" x="365.19" y="0">m</tspan><tspan x="396.93" y="0">e</tspan><tspan class="cls-28" x="415.59" y="0">t</tspan><tspan x="428.6" y="0">, </tspan><tspan class="cls-29" x="0" y="48">c</tspan><tspan x="17.19" y="48">onse</tspan><tspan class="cls-30" x="91.2" y="48">c</tspan><tspan class="cls-31" x="108.84" y="48">t</tspan><tspan x="121.02" y="48">etuer </tspan><tspan class="cls-32" x="212.37" y="48">a</tspan><tspan x="230.73" y="48">dipisci</tspan><tspan class="cls-27" x="330.8" y="48">n</tspan><tspan x="351.5" y="48">g elit</tspan></text></g></g></svg>