<svg xmlns="http://www.w3.org/2000/svg" xmlns:xlink="http://www.w3.org/1999/xlink" viewBox="0 0 1491.49 957"><defs><style>.cls-1{fill:none;}.cls-2{clip-path:url(#clip-path);}.cls-3{fill:#f1eceb;}.cls-10,.cls-3,.cls-5,.cls-6,.cls-7,.cls-8,.cls-9{fill-rule:evenodd;}.cls-4{clip-path:url(#clip-path-2);}.cls-5{fill:#a89eb4;}.cls-6{fill:#edf6f4;}.cls-7{fill:#e7dfdd;}.cls-8{fill:#fff;}.cls-9{fill:#ffb8d4;}.cls-10{fill:#6d4b5c;}.cls-11{clip-path:url(#clip-path-3);}</style><clipPath id="clip-path" transform="translate(-257.11 -915.27)"><rect class="cls-1" width="2000" height="2000"/></clipPath><clipPath id="clip-path-2" transform="translate(-257.11 -915.27)"><rect class="cls-1" x="257.11" y="1031.18" width="665.32" height="733.18"/></clipPath><clipPath id="clip-path-3" transform="translate(-257.11 -915.27)"><rect class="cls-1" x="964.94" y="1012.77" width="783.66" height="742.49"/></clipPath></defs><g id="Layer_2" data-name="Layer 2"><g id="Layer_1-2" data-name="Layer 1"><g class="cls-2"><g id="Layer2"><path class="cls-3" d="M293.77,961.66c3.44,25.11,1.13,680.95,1.13,881.85a5.49,5.49,0,0,0,11,0c0-201.24,2.21-858.2-1.23-883.34a5.49,5.49,0,0,0-10.88,1.49Z" transform="translate(-257.11 -915.27)"/><path class="cls-3" d="M839.31,953.27c3.43,25.1,1.12,680.94,1.12,881.84a5.49,5.49,0,0,0,11,0c0-201.24,2.22-858.19-1.23-883.34a5.49,5.49,0,0,0-10.87,1.5Z" transform="translate(-257.11 -915.27)"/><path class="cls-3" d="M304.21,960.62l.21-.1a5.49,5.49,0,1,0-4.62-9.95l-.22.1a5.49,5.49,0,0,0,4.63,10Z" transform="translate(-257.11 -915.27)"/><path class="cls-3" d="M306.4,956.42a5.49,5.49,0,0,1-10.77-2c.54-3.83,3.48-7.12,8.39-9.1,6.77-2.73,18-3.21,21.87-3.85,33.65-5.61,68.11-7.34,102.6-10.22,99.74-8.31,198.15-1.85,297.63,5.8,29.65,2.28,59.37,2.41,88.72,5.34,9.65,1,22.4-.91,31.68,2.19a5.48,5.48,0,0,1-3.46,10.41c-8.59-2.86-20.39-.79-29.32-1.69-29.26-2.92-58.9-3-88.46-5.31-98.89-7.6-196.73-14.08-295.88-5.81-34.19,2.85-68.35,4.55-101.7,10.11-3,.51-11.08.78-17.23,2.44A22.53,22.53,0,0,0,306.4,956.42Z" transform="translate(-257.11 -915.27)"/><path class="cls-3" d="M306.76,1014.24c6.57-1.46,16.32-.09,23.23-.46,34.9-1.83,69.54-3.14,104.47-4.34,78.71-2.72,159.74-3.49,238,3.85,55.38,5.19,110.92,11.15,166.56,11.15a5.49,5.49,0,0,0,0-11c-55.29,0-110.5-6-165.53-11.11-78.67-7.38-160.19-6.62-239.37-3.89-35,1.21-69.71,2.53-104.66,4.36-7.47.39-18-.88-25.05.7a5.49,5.49,0,1,0,2.39,10.71Z" transform="translate(-257.11 -915.27)"/><path class="cls-3" d="M310.07,1847.19c2.06,1.21,8.23,4.76,9.77,5,13.53,1.69,27.55-.7,41,1.55,37.59,6.26,77.07-1.74,115,2.48,24.35,2.7,49.57,2.28,74.1,3,44.07,1.27,88.5,3.15,132.61,1.52,23.74-.88,47.35-5.42,71-6.55,24-1.15,47.3-6.62,70.6-9.53,3.42-.44,7.41-.41,11-1.14,2-.43,4-1,4.94-2.93a5.49,5.49,0,0,1,9.81,4.91,15.74,15.74,0,0,1-9.79,8c-4.49,1.46-10,1.43-14.58,2-23.58,3-47.14,8.45-71.44,9.61-23.66,1.12-47.3,5.66-71.08,6.55-44.35,1.64-89-.25-133.34-1.51-24.82-.71-50.35-.31-75-3-38.17-4.24-77.85,3.73-115.64-2.56-13.32-2.23-27.19.18-40.58-1.48-2.92-.37-13.39-5.32-16.47-8.11-4.31-3.92-2.48-7.87-.35-9.61a5.49,5.49,0,0,1,7.72.8A5.64,5.64,0,0,1,310.07,1847.19Zm-.13,5a5.41,5.41,0,0,1-1.14,1.45A5.1,5.1,0,0,0,309.94,1852.19Z" transform="translate(-257.11 -915.27)"/><path class="cls-3" d="M308.53,1776.47c1,.1,3.68.37,5.84.36,8.09,0,19-1.12,21.28-1.36,33.22-3.7,66.83-4,100.45-4,42.53,0,85.86,4.53,128.28,1.5,91-6.49,183.11-7,274.11-7a5.49,5.49,0,0,1,0,11c-90.74,0-182.62.47-273.34,6.94-42.67,3-86.27-1.47-129-1.47-33.22,0-66.42.29-99.24,3.94-3.07.34-21.2,2.05-28.95,1.13a13.25,13.25,0,0,1-5-1.45,6.37,6.37,0,0,1-2.78-3.22,5.48,5.48,0,0,1,8.41-6.36Z" transform="translate(-257.11 -915.27)"/><path class="cls-3" d="M1146.69,949.62c3.43,25.11,1.12,680.95,1.12,881.85a5.49,5.49,0,0,0,11,0c0-201.24,2.21-858.2-1.23-883.34a5.49,5.49,0,0,0-10.87,1.49Z" transform="translate(-257.11 -915.27)"/><path class="cls-3" d="M1692.22,941.23c3.43,25.1,1.12,680.94,1.12,881.84a5.49,5.49,0,0,0,11,0c0-201.24,2.21-858.2-1.23-883.34a5.49,5.49,0,0,0-10.87,1.5Z" transform="translate(-257.11 -915.27)"/><path class="cls-3" d="M1159.31,944.38a5.49,5.49,0,0,1-10.77-2c.54-3.83,3.48-7.12,8.39-9.1,6.77-2.73,18-3.21,21.88-3.85,33.64-5.61,68.1-7.34,102.59-10.22,99.74-8.32,198.15-1.85,297.63,5.8,29.65,2.28,59.37,2.41,88.72,5.34,9.65,1,22.4-.91,31.68,2.19A5.48,5.48,0,0,1,1696,942.9c-8.59-2.86-20.39-.79-29.31-1.69-29.27-2.92-58.91-3-88.47-5.31-98.89-7.6-196.73-14.08-295.88-5.81-34.19,2.84-68.35,4.55-101.69,10.11-3,.51-11.09.78-17.24,2.43A23.15,23.15,0,0,0,1159.31,944.38Z" transform="translate(-257.11 -915.27)"/><path class="cls-3" d="M1159.67,1002.2c6.57-1.46,16.32-.09,23.23-.46,34.9-1.83,69.54-3.14,104.47-4.34,78.71-2.72,159.74-3.49,238,3.85,55.38,5.19,110.92,11.15,166.56,11.15a5.49,5.49,0,0,0,0-11c-55.29,0-110.5-5.95-165.53-11.11-78.67-7.38-160.19-6.62-239.37-3.89-35,1.21-69.71,2.53-104.66,4.36-7.46.39-18-.88-25,.7a5.49,5.49,0,1,0,2.39,10.71Z" transform="translate(-257.11 -915.27)"/><path class="cls-3" d="M1163,1835.15c2.06,1.21,8.23,4.76,9.77,4.95,13.53,1.69,27.56-.7,41,1.55,37.59,6.26,77.07-1.74,115,2.48,24.35,2.7,49.57,2.28,74.1,3,44.07,1.27,88.5,3.15,132.61,1.52,23.74-.88,47.35-5.42,71-6.55,24-1.15,47.3-6.62,70.6-9.53,3.42-.44,7.42-.41,11-1.14,2-.43,4-1,4.94-2.93a5.49,5.49,0,0,1,9.81,4.91,15.72,15.72,0,0,1-9.79,8c-4.49,1.46-10,1.43-14.57,2-23.59,3-47.15,8.45-71.45,9.61-23.65,1.12-47.3,5.66-71.08,6.54-44.35,1.65-89-.24-133.34-1.51-24.82-.7-50.35-.31-75-3-38.17-4.24-77.85,3.73-115.64-2.56-13.32-2.23-27.19.18-40.58-1.48-2.92-.37-13.39-5.33-16.47-8.11-4.31-3.92-2.47-7.87-.34-9.61a5.48,5.48,0,0,1,7.71.8A5.64,5.64,0,0,1,1163,1835.15Zm-.13,5a5.41,5.41,0,0,1-1.14,1.45A5.1,5.1,0,0,0,1162.85,1840.15Z" transform="translate(-257.11 -915.27)"/><path class="cls-3" d="M1161.44,1764.43c1,.1,3.68.37,5.85.36,8.08,0,19-1.12,21.27-1.36,33.23-3.7,66.83-4,100.46-4,42.52,0,85.85,4.53,128.27,1.5,91-6.49,183.11-7,274.11-7a5.49,5.49,0,0,1,0,11c-90.74,0-182.62.47-273.34,6.94-42.67,3.05-86.27-1.47-129-1.47-33.23,0-66.43.29-99.25,3.94-3.07.34-21.2,2.05-29,1.13a13.25,13.25,0,0,1-5-1.45,6.37,6.37,0,0,1-2.78-3.22,5.48,5.48,0,0,1,8.41-6.36Z" transform="translate(-257.11 -915.27)"/></g><g id="Layer3"><rect class="cls-1" y="115.92" width="665.32" height="733.18"/><g class="cls-4"><path class="cls-5" d="M438,1790.39a348.64,348.64,0,0,1-5.76-45c-1.49-24.68,7.79-76.27,13.44-99.68a144.22,144.22,0,0,1,16-39.7l122.41-5.61s8.12,18.54,24.14,68,35.25,117.47,35.25,117.47Z" transform="translate(-257.11 -915.27)"/><path class="cls-6" d="M512,1308.23s-21.68,3.87-30.83,41.65-9.65,16.85-10.11,30.6,1.83,57.75.68,73.85-1.75,67.13-2.31,90.12-11.87,57.88-12.49,61.84,10.76,19.2,38.32,25,43.61,3.43,61.84-6,31.3-24.93,32-28.29,5-56.27,5-56.27,34.24-78.9,38.25-89.18,8.92-17.25,11.74-19.62,4.42-6,1.63-14.77S631,1363.44,631,1363.44s-7.06-42.14-23.9-59-42-26.33-62.67-18.48A82.64,82.64,0,0,0,512,1308.23Z" transform="translate(-257.11 -915.27)"/><path class="cls-7" d="M595.4,1209.86l94.32-39s13.06-1,16.25-5.13,1.81-13.78,4.1-19.15,3.19-13.19,3.77-16.06-1-14.81-6-20.23-14.86-9.93-14.86-9.93-.55-11.4-19.22-26.73-35.36-24-58.88-15.24-27.08,20.35-39.92,19.37-34.53-2-47.82-.9-26.09,3.85-30.16,24.42,2.62,38,1,46.25-2.39,14.79-12.39,21.52-16.64,17-16.64,17-26.11,32.76-26.14,51.34,3.75,24.6,6.38,36.49,3.67,14.48-7.88,23.37-19.13,17.25-21,28.53-1.86,28.82,6.9,36,11.16,9.69,14,15.69,5.47,9.09,14.54,8.58,13.67,7.91,18-1.67,3.07-10.1,9.06-26.15,16.28-33.64,25.28-44.27,26.49-19,36-22.85,30-5.2,40.53,3.6,16.13,19.92,16.62,28.13,1.72,11.64-.12,20.29-1.63,11.41,4.68,20.12,16.76,10.76,21.24,4.93,4-15.68,8.11-20.09,8.66-7.29,10.91-13,3.35-25.12,1.1-31.74-9.48-20.89-22.27-27.42-19.56-9.29-22.4-14.8-6.38-13.15-5.93-20.27S595.4,1209.86,595.4,1209.86Z" transform="translate(-257.11 -915.27)"/><path class="cls-8" d="M592.77,1199s-8.95-12.6-9.08-23.71,6.77-28.59,12.28-32,11.55-2.79,14.12,2,4,19.57,4,19.57,6.81,2,13.18.13a36.8,36.8,0,0,0,17.46-12.12c4-5.27,9.54-7.57,12.1-6.6s7,4.82,15.85,1.65a35.18,35.18,0,0,0,14.26-10s3.23,7.64,2.57,20.5-4.51,20.7-4.63,27.16-.39,7.86,3.9,11.69,7.56,3.43,3.82,6.06-4-1.11-9.64,9.83-11.19,23.57-16.2,27.4-25.74,5.85-29.55,5.77-9.8-.06-10.91,1.73-8.12,21.53-8.12,21.53-12.7-.77-18.26-13.18-4.84-21-3.34-33.35S592.77,1199,592.77,1199Z" transform="translate(-257.11 -915.27)"/><path class="cls-8" d="M558.66,1472.92s15.22,1.23,28.5-4.45,32.71-24.16,32.71-24.16l6.49,15.28a46.94,46.94,0,0,0,6.29-9.66c2.22-4.94,6.23-13.23,10.63-15.37s4.66,3.36,8.32,10.2,22.48,39.37,22.48,39.37,33.07-16.07,61.71-34.71S807,1413.35,807,1413.35A167.1,167.1,0,0,1,820.3,1389c7.52-11,23.59-34,28.83-31.71s1.84,15.78-.43,18.27,16.06-12.5,21.52-16.57,10.15-11.74,17.38-8.62,11,3.31,11.65,9.44-1.07,14.61-3.29,19.58-.44,9.41-14.43,22-30.89,24.81-41.49,30.8-20.13,9-22,11.56-92.78,77-92.78,77,22.27,3.74,44.38,5.86,31.71,4.41,38.11,1.45,20.68-13.77,40-19.65,26.55-8.36,27.45-4.86-2.62,6.42-11.25,10.74S847,1526.6,847,1526.6a69.48,69.48,0,0,0,26.08-4c12.9-4.88,22.22-10.79,31.38-14.33s13-.87,9.92,7.18-12.32,24.62-15.48,27.35,5.58-8.71-4,3.34-7,15.92-16.28,18.86-20.54,5.67-39.9,5.65-37.18-5.94-37.18-5.94-72.76,14.84-98,13.44-67-.68-79.43-7.27-29.63-32.79-42.2-49.66S558.66,1472.92,558.66,1472.92Z" transform="translate(-257.11 -915.27)"/><path class="cls-9" d="M616.65,1199.86a14.14,14.14,0,0,1-3.33-4.65c-1.18-2.93-.88-5.93,2.19-8.23a8.19,8.19,0,0,1,2.62-1.63c5.56-1.39,11.86,1.78,15.93,5.14,3.09,2.54,6.2,6.13,4.72,10.56-1.19,3.57-4.49,5-8.49,4.78-4.91-.26-10.81-3-13-5.25A7.38,7.38,0,0,1,616.65,1199.86Zm17.14.88a2.23,2.23,0,0,0,.76-1.1,3.07,3.07,0,0,0-.44-2.74,13.31,13.31,0,0,0-2.88-3c-3.08-2.54-7.73-5.28-12-4.27-.11.09-.78.65-1.09.88a2.43,2.43,0,0,0-.81,1,2.22,2.22,0,0,1,1.3,1.78,7.56,7.56,0,0,0,1.39,3.71,10.41,10.41,0,0,0,3.1,2c3.08,1.14,5.68.4,8.63.44A2.25,2.25,0,0,1,633.79,1200.74Z" transform="translate(-257.11 -915.27)"/><path class="cls-9" d="M616.07,1189.21v-.12a2.14,2.14,0,0,1,1.6-2.06,4.42,4.42,0,0,1,3.61.51,24,24,0,0,1,2.32,1.77,3.31,3.31,0,0,1,1.56-1.1,3.73,3.73,0,0,1,3.1.45c2.06,1.2,4.57,5,5,5.7l.17.27a20.73,20.73,0,0,1,2.56,3,3.75,3.75,0,0,1,.66,3.1,2.19,2.19,0,0,1-1,1.25,2.22,2.22,0,0,1-1.56.28,2.59,2.59,0,0,1-.85-.34,2.89,2.89,0,0,1-1.71.8c-1.43.21-4.56-.75-4.93-.88a23.27,23.27,0,0,1-7.93-5,10,10,0,0,1-3.14-6.05A2.22,2.22,0,0,1,616.07,1189.21Z" transform="translate(-257.11 -915.27)"/><path class="cls-10" d="M687.89,1128.16c-4.22,10.32-9.86,18.94-22.25,17.56-2.65-.29-5.07-1.35-7.52-2a14.1,14.1,0,0,0-10.35.85,16.51,16.51,0,0,0-6.16,5.69,64.3,64.3,0,0,1-3.73,5.41,24.88,24.88,0,0,1-12.36,7.39,14.22,14.22,0,0,1-8.63-.15,3.24,3.24,0,1,0-2.41,6,20.62,20.62,0,0,0,12.62.44,31.62,31.62,0,0,0,15.73-9.5,67.09,67.09,0,0,0,4.1-5.9,10.22,10.22,0,0,1,3.75-3.6c2.63-1.3,4.94-.65,7.29,0a40.14,40.14,0,0,0,6.95,1.73c15.79,1.75,23.61-8.42,29-21.56a3.24,3.24,0,1,0-6-2.46Z" transform="translate(-257.11 -915.27)"/><path class="cls-10" d="M614.38,1173.21c1.82-5.87,3.71-12.48,2.85-18.72-1.44-10.12-11.74-19.13-22.11-14.23-6.49,3.08-9.77,10.45-12,16.73-5.16,14.78-5,33.43,7.7,44.06a3.25,3.25,0,1,0,4.15-5c-10.64-8.86-10-24.57-5.72-36.91,1.67-4.76,3.71-10.66,8.63-13,6.27-3,12,3.16,12.89,9.27.75,5.31-1.07,10.89-2.62,15.88a3.25,3.25,0,0,0,6.21,1.93Z" transform="translate(-257.11 -915.27)"/><path class="cls-10" d="M600,1156.27a3.25,3.25,0,0,1-2.43-5.54,4.27,4.27,0,0,1,3-1.33,5.12,5.12,0,0,1,3.56,1.5c2,1.95,4,6.85,4.29,8.23,1,5.13-.31,12.23-1.3,17.26a26.42,26.42,0,0,1-2,6.36,3.26,3.26,0,0,1-6-.39s0-.18-.1-.34l-.05.06a12.88,12.88,0,0,0-1.78,3.6,7.71,7.71,0,0,0-.21,1.21,3.24,3.24,0,0,1-4.55,4.56c-1.47-1.14-2.27-3.25-1.86-5.88a18.49,18.49,0,0,1,3.45-7.69,8.33,8.33,0,0,1,2.66-2.37,7.19,7.19,0,0,1,4.11-.82c.83-4.26,2-10,1.19-14.29A31.67,31.67,0,0,0,600,1156.27Z" transform="translate(-257.11 -915.27)"/><path class="cls-10" d="M673.7,1159.32c-5.58,3.37-12.31,4.11-18.72,4.11a3.26,3.26,0,0,0,0,6.51c7.57,0,15.48-1.07,22.07-5.06a3.25,3.25,0,1,0-3.35-5.56Z" transform="translate(-257.11 -915.27)"/><path class="cls-10" d="M665.65,1191.92a3.25,3.25,0,0,1-6.5-.08,7.52,7.52,0,0,1,.8-3.12,16.74,16.74,0,0,0,1-2.06c1-3.71,1.7-7.49,2.74-11.17a3.25,3.25,0,1,1,6.25,1.77c-1,3.68-1.7,7.44-2.73,11.13a12,12,0,0,1-1,2.32C666,1191.11,665.69,1191.83,665.65,1191.92Z" transform="translate(-257.11 -915.27)"/><path class="cls-10" d="M690.82,1200.79a6.23,6.23,0,0,0-1.72-.58,11.93,11.93,0,0,1-2.86-1.35,9.54,9.54,0,0,1-3.44-4.47,14.59,14.59,0,0,1-.85-7.4c1.31-7.87,4-15.8,5.53-23.76,1.44-7.34,2-14.71-.78-22.08a3.25,3.25,0,1,1,6.09-2.28c3.19,8.57,2.73,17.12,1.07,25.62-1.56,7.9-4.19,15.76-5.5,23.58a7.68,7.68,0,0,0,.25,3.28,3.61,3.61,0,0,0,1.22,2.09,11.89,11.89,0,0,0,2.82,1.12,7.56,7.56,0,0,1,4.52,4,4.9,4.9,0,0,1,.14,3.79,16.09,16.09,0,0,1-2.42,4,18.2,18.2,0,0,1-4.55,3.71c-1.49.93-3.17,1.68-3.84,3.37-1.75,4.38-2.91,9.84-4.69,14.94-2,5.8-4.86,11.13-9.62,14.52-7.35,5.26-21.27,9.56-30.21,8.74a54.93,54.93,0,0,1-9.22-2.09,37.29,37.29,0,0,0-4.82-.93c.73.16-4.63,15.81-7.47,21.47-.77,1.53-4.21,0-5.25-1.64-.57-.9,8.27-19.9,7.55-20.58a3.16,3.16,0,0,1-.95-1.8,3.25,3.25,0,0,1,2.67-3.74,23.17,23.17,0,0,1,10,.94,47.5,47.5,0,0,0,8.11,1.9c7.67.7,19.55-3.06,25.85-7.55,3.68-2.64,5.67-6.89,7.24-11.38,1.81-5.2,3-10.76,4.81-15.22a11.39,11.39,0,0,1,4.21-5c1.72-1.24,3.83-2.09,5.14-3.71C690,1202,690.49,1201.29,690.82,1200.79Z" transform="translate(-257.11 -915.27)"/><path class="cls-10" d="M654.29,1220a4.33,4.33,0,0,1,2.42,0A9.14,9.14,0,0,1,661,1222a3.25,3.25,0,1,0,4.6-4.59,16.21,16.21,0,0,0-7.62-3.7,11.18,11.18,0,0,0-6.13.32,3.25,3.25,0,0,0,2.45,6Z" transform="translate(-257.11 -915.27)"/><path class="cls-10" d="M697.85,1100.37c2,1.1,6.6,2.7,7.4,3.22,4.15,2.68,7.2,7.06,9.21,11.54,5.24,11.68,3.22,21.19-1.28,32.46-1.09,2.71-.47,6.05-.42,9.28.09,4.66-.66,9.06-4.53,12.3-2.41,2-5.87,3.09-8.8,4a18.53,18.53,0,0,1-6.1,1.24,3.25,3.25,0,1,1,0-6.5,12.45,12.45,0,0,0,4.06-.9c2.19-.72,4.87-1.38,6.68-2.88,2.23-1.85,2.24-4.51,2.2-7.19-.07-4.11-.51-8.36.88-11.82,3.79-9.5,5.82-17.51,1.39-27.37-1.52-3.35-3.7-6.74-6.82-8.75-.6-.39-3.52-1.37-5.56-2.29a12,12,0,0,1-2.94-1.73,3.46,3.46,0,0,1-1.13-3.22,3.24,3.24,0,0,1,5.76-1.44Zm.67,2.31v.06h0Zm0-.2v0Z" transform="translate(-257.11 -915.27)"/><path class="cls-10" d="M694.36,1099.29a9.52,9.52,0,0,0-.81-7.4c-1.3-2.67-3.52-5.32-4.73-7.13a80.36,80.36,0,0,0-29.75-27.24,51.51,51.51,0,0,0-13.93-5.12,58.9,58.9,0,0,0-18.67-1.11c-10.88,1.28-19.74,5.89-28.47,12-5,3.56-8.71,7.29-14.83,9.16-8.74,2.66-18.24,3-27.27,2-12.63-1.4-25.17-4.58-37.55.38-5.84,2.34-11.48,7.67-15.84,12-3,3-5.56,8.6-7.33,12.41-2.38,5.09-4.72,10.69-5.11,16.37-.43,6.4,1,12.65,2.48,18.86,1.31,5.53,2.63,11,2.08,16.55-.62,6.18-3.76,8.86-7.67,11.18-3.25,2-7,3.66-10.53,6.29-2.19,1.62-6,4.45-7.78,7.44s-2,6.27,1,9.22a3.24,3.24,0,0,0,4.58-4.59c-.73-.74,0-1.49.64-2.22a29.62,29.62,0,0,1,5.41-4.61c3.38-2.49,6.9-4.11,10-5.94,5.59-3.33,9.92-7.27,10.81-16.12.62-6.24-.74-12.46-2.21-18.69-1.33-5.57-2.71-11.18-2.32-16.92.32-4.9,2.47-9.69,4.51-14.07,1.49-3.21,3.51-8.06,6-10.56,3.81-3.8,8.6-8.57,13.68-10.6,11.35-4.54,22.84-1.24,34.41,0,9.88,1.1,20.31.65,29.87-2.27,6.85-2.08,11.06-6.08,16.7-10.06,7.83-5.54,15.72-9.77,25.47-10.92a52.24,52.24,0,0,1,16.58,1,44.58,44.58,0,0,1,12.22,4.5,74.23,74.23,0,0,1,27.41,25.09c.93,1.41,2.53,3.32,3.72,5.35a9.16,9.16,0,0,1,1.05,2.32,1.85,1.85,0,0,1,.07,1.06,3.24,3.24,0,1,0,6.09,2.21Z" transform="translate(-257.11 -915.27)"/><path class="cls-10" d="M465.84,1187.69c-18.3,16.91-30.08,40.61-25.31,66.39.9,4.91,3.48,10.43,5.64,16,1.85,4.76,3.47,9.53,2.68,13.88a8.66,8.66,0,0,1-3.28,5.12,66.79,66.79,0,0,1-6.77,4.5c-6.45,4.16-13.67,10.36-17.15,17.34-8.33,16.65-13.9,38.52,1.45,53,4.07,3.82,9.39,5.65,13.82,8.87a3.35,3.35,0,0,1,1.21,2.49,14.73,14.73,0,0,0,1.24,4.4,17.19,17.19,0,0,0,13.49,9.53,37.37,37.37,0,0,0,6.37-.3,3.24,3.24,0,1,0-.59-6.45,30.67,30.67,0,0,1-5.1.29,10.67,10.67,0,0,1-8.35-6,11.78,11.78,0,0,1-.83-3.52,8.63,8.63,0,0,0-3.62-5.7c-4.22-3.06-9.32-4.73-13.17-8.36-6.35-6-8.18-13.49-7.62-21.2.58-8.28,3.82-16.78,7.5-24.12,3-6,9.34-11.21,14.88-14.79a77.72,77.72,0,0,0,7.4-5,14.85,14.85,0,0,0,5.51-9c.79-4.42-.14-9.21-1.8-14-2.14-6.26-5.5-12.62-6.53-18.14-4.35-23.51,6.65-45,23.34-60.46a3.24,3.24,0,1,0-4.41-4.76Z" transform="translate(-257.11 -915.27)"/><path class="cls-10" d="M591.14,1206.79c.72,3.79,2.19,7.58,3.12,11.29a14.79,14.79,0,0,1-.21,6.44c-.54,2.67-1.36,5.29-1.83,7.66-2.39,11.93,2.46,26.14,10.18,35.2a14.9,14.9,0,0,0,6.56,4.13,31.46,31.46,0,0,1,5.18,2c9.82,5.79,20.26,11.48,25.09,22.63a48.61,48.61,0,0,1,3.78,13.44c1,9.15,1.11,19.31-2.88,27.84a12.52,12.52,0,0,1-3.41,4,29.82,29.82,0,0,0-5.2,5.27c-3.8,5.42-3.12,9.4-4.53,15.49a11.56,11.56,0,0,1-3.53,5.78,2.75,2.75,0,0,1-1.91.88,2,2,0,0,1-1.13-.72,3.24,3.24,0,1,0-4.66,4.51c3.25,3.37,6.77,3.34,9.92,1.64,3.65-2,6.77-6.85,7.64-10.63a64,64,0,0,0,1-6.33,14.34,14.34,0,0,1,2.5-6.9,25.8,25.8,0,0,1,4.17-4.12,19.07,19.07,0,0,0,5-6.13c4.48-9.61,4.59-21,3.45-31.32a56.2,56.2,0,0,0-4.27-15.3c-5.43-12.48-16.77-19.18-27.76-25.64a36,36,0,0,0-6.28-2.53,8.74,8.74,0,0,1-3.81-2.23c-6.52-7.66-10.79-19.63-8.78-29.72,1-5.17,3.37-11.41,2-16.94-.9-3.59-2.33-7.26-3-10.92a3.25,3.25,0,0,0-6.39,1.2Z" transform="translate(-257.11 -915.27)"/><path class="cls-10" d="M516.57,1301c.34-.25,1.08-.79,1.49-1.13a18.87,18.87,0,0,1,1.83-1.44c2.58-1.54,6.85-3.65,8.76-4.66,1.65-.9,3.29-1.8,5-2.63,15-7.52,40.14-9.47,54.7.5a26.78,26.78,0,0,1,8.21,9.93c2.85,5.49,4.64,11.92,6.26,17.07,1.39,4.38,3,9.27,2.44,14a32.78,32.78,0,0,1-2.11,7.6,22,22,0,0,0-1.62,5.79,16.08,16.08,0,0,0,2.09,8.3,37.73,37.73,0,0,0,9.11,11.37,9.31,9.31,0,0,1,2.26,3.13c.21.46.63,1.25.73,1.44a3.24,3.24,0,0,1-3.07,5.71,6.71,6.71,0,0,1-2.94-3.12c-.23-.45-.45-.94-.67-1.41a2,2,0,0,0-.48-.77,44.75,44.75,0,0,1-10.74-13.42,22.61,22.61,0,0,1-2.76-11.72,28.39,28.39,0,0,1,2-7.56,25.44,25.44,0,0,0,1.75-6.06c.43-3.79-1-7.73-2.17-11.3a134.71,134.71,0,0,0-4.63-13.49c-1.78-4-4-7.83-7.31-10.08-12.83-8.78-34.9-6.69-48.15-.07-1.61.82-3.2,1.68-4.79,2.55-1.86,1-6,3-8.48,4.51-.79.48-2.31,2-3.61,2.77a5.14,5.14,0,0,1-4.12.54,3.24,3.24,0,0,1,1.06-6.31Z" transform="translate(-257.11 -915.27)"/><path class="cls-10" d="M469.71,1383.86a11.28,11.28,0,0,0,1.75-1.37,22,22,0,0,0,4.76-7c1.81-6.14,2.73-12.62,4.28-18.82,4.55-18.27,16.24-36,29-49.25a3.24,3.24,0,1,1,4.67,4.49c-12,12.53-23.08,29.14-27.38,46.34-1.57,6.27-2.5,12.85-4.35,19.07a27.78,27.78,0,0,1-5,8.19,17.24,17.24,0,0,1-5.53,4.57,6,6,0,0,1-4.46.29,5.8,5.8,0,0,1-3.48-3.48,3.25,3.25,0,0,1,5.7-3.06Z" transform="translate(-257.11 -915.27)"/><path class="cls-10" d="M509.29,1363.41a20.09,20.09,0,0,0,1.77,8c1.36,3.32,3.32,6.59,4.4,9.56,4.82,13.23,9.82,26.55,14.45,39.81,4,11.38,9,22.4,12.82,33.81,1,2.88,1.91,7.2,3.53,10.84a15.56,15.56,0,0,0,5.47,7c4.66,2.91,11.84,2.66,17,2.66,22.66,0,38.81-12.16,53-28.69a3.24,3.24,0,1,0-4.92-4.23c-12.9,15-27.44,26.43-48,26.43-2.24,0-4.92.12-7.55-.09a13.43,13.43,0,0,1-6-1.59,9,9,0,0,1-3-4.14c-1.52-3.43-2.38-7.52-3.3-10.25-3.81-11.44-8.84-22.49-12.85-33.89-4.64-13.27-9.66-26.65-14.47-39.89-1-2.58-2.5-5.39-3.82-8.27-1.07-2.31-2-4.65-2-6.92a3.25,3.25,0,0,0-6.49-.16Z" transform="translate(-257.11 -915.27)"/><path class="cls-10" d="M605.42,1374.46c2,15.52,5.4,30.82,7.61,46.27a61.7,61.7,0,0,0,2.79,10.15,27.9,27.9,0,0,1,1.82,8.78,3.25,3.25,0,0,0,6.49,0,34.78,34.78,0,0,0-2.13-10.81,52.73,52.73,0,0,1-2.53-9c-2.21-15.41-5.58-30.69-7.6-46.18a3.25,3.25,0,0,0-3.63-2.82A3.29,3.29,0,0,0,605.42,1374.46Z" transform="translate(-257.11 -915.27)"/><path class="cls-10" d="M622.35,1381c1.47,11,5.67,23.22,8.17,35.37,2.32,11.33,3.17,22.62-1.9,32.78a3.25,3.25,0,0,0,5.82,2.89c5.73-11.44,5.06-24.2,2.44-37-2.47-12-6.64-24-8.09-34.91a3.25,3.25,0,0,0-6.44.85Z" transform="translate(-257.11 -915.27)"/><path class="cls-10" d="M627.43,1365.24c1.9,15.58,9.38,31.49,14.11,46.45a58.43,58.43,0,0,1,2.45,10.1,13.28,13.28,0,0,1-.24,5.64A9.07,9.07,0,0,1,641,1431c-1.66,1.47-3.53,2.82-4.92,4.21a3.25,3.25,0,1,0,4.6,4.6c1.62-1.62,3.87-3.16,5.7-5a14,14,0,0,0,3.55-5.31c1.86-5.62-.51-14.47-2.17-19.75-4.61-14.6-12-30.1-13.87-45.3a3.24,3.24,0,1,0-6.44.8Z" transform="translate(-257.11 -915.27)"/><path class="cls-10" d="M466.07,1393.64c-.51,21.94,1.91,43.5,2.48,65.34.82,30.89-1.16,61.74-4.33,92.41-1.59,15.25-5.09,30.08-7.24,45.19-.23,1.7-1.88,4.51-2.78,7.12-1,2.85-1.13,5.56-.17,7.48,2.28,4.56,6.46,8.27,11.46,11.23,6.82,4.07,15.16,6.78,21.19,8.88,8.6,3,16.79,3.18,25.74,4.15,11.23,1.21,23.77,2.06,34.74-1.6,14.86-5,29.83-17.4,40.79-28.34a3.25,3.25,0,1,0-4.6-4.59c-10.28,10.28-24.27,22.1-38.25,26.76-10.11,3.37-21.65,2.42-32,1.31-8.44-.9-16.19-1-24.3-3.83-5.7-2-13.56-4.49-20-8.32-3.86-2.29-7.21-5-9-8.55-.12-.24,0-.55.06-.88a16.28,16.28,0,0,1,.92-2.86c1.08-2.67,2.35-5.33,2.6-7,2.17-15.19,5.67-30.1,7.26-45.43,3.2-31,5.18-62.08,4.36-93.24-.57-21.74-3-43.19-2.48-65a3.25,3.25,0,1,0-6.49-.16Z" transform="translate(-257.11 -915.27)"/><path class="cls-10" d="M588.52,1553.24c1.26,15.56-4.68,32.35-4.68,48.14a3.25,3.25,0,1,0,6.49,0c0-16,5.94-32.94,4.66-48.67a3.25,3.25,0,0,0-6.47.53Z" transform="translate(-257.11 -915.27)"/><path class="cls-10" d="M553.47,1473.18c.59,4,2.52,8,4.8,11.9,2,3.43,4.26,6.78,5.76,9.92,10,20.93,20,37.86,34.63,55.46,5.42,6.5,10.36,14.68,18.18,18.59a3.41,3.41,0,0,0,3-6.1c-7-3.5-11.15-11-16-16.86-14.27-17.13-24-33.63-33.71-54-1.57-3.28-3.93-6.81-6-10.43-1.83-3.12-3.48-6.31-4-9.48a3.4,3.4,0,1,0-6.73,1Z" transform="translate(-257.11 -915.27)"/><path class="cls-10" d="M616.12,1448.19q11.13,23.24,24.31,45.19c1.83,3.06,3.43,7.33,5.31,11.14a29.19,29.19,0,0,0,5,7.57,3.42,3.42,0,0,0,4.83-4.83c-1.85-1.84-3.27-4.72-4.63-7.65-1.59-3.45-3.06-7-4.68-9.73q-13-21.68-24-44.63a3.4,3.4,0,1,0-6.14,2.94Z" transform="translate(-257.11 -915.27)"/><path class="cls-10" d="M642.37,1432.55c1.08,5.62,6.48,12.67,9.42,17.75,5.4,9.32,9.7,19.33,14.83,28.73,1.08,2,2,4.77,3.2,7.24a19,19,0,0,0,3.4,5.25,3.4,3.4,0,1,0,4.81-4.82,15.27,15.27,0,0,1-2.58-4.53c-1-2.28-1.88-4.65-2.85-6.4-5.16-9.46-9.5-19.52-14.91-28.87-2.61-4.53-7.68-10.64-8.63-15.63a3.41,3.41,0,1,0-6.69,1.28Z" transform="translate(-257.11 -915.27)"/><path class="cls-10" d="M677.75,1489.31c28.42-20.35,60-36.56,90.66-53.2,13.39-7.27,27.28-15.69,41.8-20.53a3.41,3.41,0,0,0-2.14-6.48c-14.91,5-29.18,13.57-42.92,21-30.93,16.79-62.73,33.14-91.37,53.66a3.41,3.41,0,1,0,4,5.54Z" transform="translate(-257.11 -915.27)"/><path class="cls-10" d="M850.61,1360.32c-4.58,1.6-8.83,5.46-12,8.89-8.65,9.26-15.26,20.39-20.59,31.82-.73,1.55-2.32,4.07-3.51,6.44a8.75,8.75,0,0,0-1.13,2.83,3.41,3.41,0,0,1-6.8-.49,16.12,16.12,0,0,1,1.85-5.43c1.17-2.29,2.71-4.73,3.41-6.23,5.64-12.08,12.66-23.8,21.78-33.58,4.35-4.66,10.4-9.7,16.68-11.26a5.5,5.5,0,0,1,4.72.7,6.64,6.64,0,0,1,2.5,5.34,26.52,26.52,0,0,1-2.38,10.22,28.49,28.49,0,0,1-4.83,5.9,14.08,14.08,0,0,0-3.25,4.29,3.44,3.44,0,0,1-4.48,1.78,3.39,3.39,0,0,1-1.78-4.46,21.29,21.29,0,0,1,4.64-6.38,21.28,21.28,0,0,0,3.73-4.43,18.16,18.16,0,0,0,1.34-4.46C850.54,1361.36,850.59,1360.81,850.61,1360.32Z" transform="translate(-257.11 -915.27)"/><path class="cls-10" d="M884.66,1352.6a10.39,10.39,0,0,0-1.68.59c-2.73,1.37-5.53,3.86-6.88,4.68-6.44,4-12.12,9.2-17.87,14.09-3.76,3.2-8.72,6-11.89,9.78a3.41,3.41,0,0,1-5.21-4.39c3.4-4,8.65-7.14,12.68-10.59,6-5.1,12-10.58,18.74-14.7,1.73-1.06,5.72-4.51,9.14-5.72a7.36,7.36,0,0,1,6.67.44,6.87,6.87,0,0,1,3,7.49c-.52,2.81-2.55,5.9-3.7,7.57-6.19,8.94-16.9,16.79-25.35,23.54a3.4,3.4,0,1,1-4.25-5.31c8-6.38,18.16-13.67,24-22.11a19.4,19.4,0,0,0,2.42-4.25,4.54,4.54,0,0,0,.21-.94A1,1,0,0,0,884.66,1352.6Z" transform="translate(-257.11 -915.27)"/><path class="cls-10" d="M892.94,1355.2a.65.65,0,0,0-.21.07c-.37.11-.74.19-.9.42a3.41,3.41,0,1,1-5.42-4.15,10.19,10.19,0,0,1,7.87-3.22c2.81.23,5,1.75,5.43,4.94A14.67,14.67,0,0,1,899,1359a35.34,35.34,0,0,1-3,7.13c-6.35,10.9-17.1,17.88-25.82,26.6a3.4,3.4,0,0,1-4.82-4.81c8.31-8.32,18.7-14.84,24.77-25.22a29.1,29.1,0,0,0,2.37-5.63A16,16,0,0,0,892.94,1355.2Z" transform="translate(-257.11 -915.27)"/><path class="cls-10" d="M896.65,1364.28a3.41,3.41,0,0,1-1.28-6.48c2.85-1.34,4.78-1,6-.28a4.85,4.85,0,0,1,2.34,3.39,12.21,12.21,0,0,1-.36,5,52.13,52.13,0,0,1-3.3,8.63c-5.43,10.84-13.86,17-22.23,25.36a3.42,3.42,0,0,1-4.83-4.83c7.85-7.83,15.89-13.43,21-23.59a44,44,0,0,0,2.44-6A9.36,9.36,0,0,0,896.65,1364.28Z" transform="translate(-257.11 -915.27)"/><path class="cls-10" d="M728.88,1522.81c7.43-6.21,15.74-11.35,23.21-17.57,12.9-10.75,25.28-21.94,38.57-32.21,8.17-6.31,15.07-14,23.2-20.13a55.66,55.66,0,0,0,6.8-6.44,26.62,26.62,0,0,1,6-5,35.67,35.67,0,0,1,7-2.68,32,32,0,0,0,8.39-3.61c6.88-4.58,13.58-8.7,20.56-13.36a3.41,3.41,0,0,0-3.77-5.68c-7,4.66-13.69,8.78-20.57,13.38a26.35,26.35,0,0,1-6.64,2.78,41.44,41.44,0,0,0-8.37,3.27c-5.54,3.15-8.5,8.17-13.52,12-8.14,6.11-15.07,13.85-23.28,20.17-13.36,10.34-25.78,21.57-38.75,32.37-7.49,6.23-15.79,11.37-23.23,17.58a3.41,3.41,0,1,0,4.37,5.23Z" transform="translate(-257.11 -915.27)"/><path class="cls-10" d="M888.16,1386.61a3.41,3.41,0,0,1,.49-3.75,30.73,30.73,0,0,0,4.43-7c.45-.88.79-1.78,1.23-2.67.23-.44.62-1.55.82-1.88a3.55,3.55,0,0,1,.65-.83,3.29,3.29,0,0,1,3.12-.87,3.44,3.44,0,0,1,1.9,1.18,3.36,3.36,0,0,1,.79,2.29,18.11,18.11,0,0,1-2,7.47c-1.51,3.11-3.65,6.18-5,8.58-6.85,12.19-17.23,22.63-28.84,30.38a3.4,3.4,0,0,1-3.77-5.67C872.42,1406.85,881.84,1397.51,888.16,1386.61Z" transform="translate(-257.11 -915.27)"/><path class="cls-10" d="M659.82,1510.48l7,1.51c8.74,1.85,17.82,1.65,26.69,2.43,13,1.13,25.41,3.55,38.19,5.68,14.51,2.42,30.14,2.48,44.82,3.35,7.53.44,15.15,3.6,22.61,3.6a3.41,3.41,0,0,1,0,6.81c-7.59,0-15.35-3.17-23-3.61-14.91-.88-30.79-1-45.52-3.43-12.6-2.11-24.88-4.5-37.67-5.61-9.15-.8-18.49-.66-27.51-2.55-.69-.15-7.59-1.42-9.09-2.29a3.69,3.69,0,0,1-1.91-2.47,3.4,3.4,0,0,1,5.41-3.42Z" transform="translate(-257.11 -915.27)"/><path class="cls-10" d="M623.33,1573.64c3.54.77,6.75,2.7,10.39,3.3,18.45,3.08,37.48.61,56,2.29a204.89,204.89,0,0,0,49.64-1.6c14.53-2.42,28.77-4,43.44-5.85,6-.76,12.5-3.37,18.32-3.37a3.4,3.4,0,0,0,0-6.8c-6.08,0-12.93,2.63-19.16,3.4-14.78,1.84-29.1,3.46-43.71,5.9a198.33,198.33,0,0,1-47.92,1.54c-18.38-1.67-37.23.83-55.52-2.23-3.53-.59-6.62-2.5-10.07-3.23a3.4,3.4,0,0,0-1.44,6.65Z" transform="translate(-257.11 -915.27)"/><path class="cls-10" d="M871.45,1505.53h-.31a49.9,49.9,0,0,0-12.5,2.32,223.18,223.18,0,0,0-35.51,15.22c-5.76,3-12.17,8.59-18.46,10.14a3.41,3.41,0,0,1-1.64-6.61c5.82-1.44,11.63-6.81,17-9.58a228.83,228.83,0,0,1,36.57-15.66,56.36,56.36,0,0,1,14.18-2.63,12.2,12.2,0,0,1,4.67.6,5.09,5.09,0,0,1,2.78,2.42,6.5,6.5,0,0,1-.42,6.82,16.14,16.14,0,0,1-5.3,4.51c-6.1,3.55-11.79,7-18.12,10.2-.21.12-1,.46-1.93,1a57.91,57.91,0,0,0,9.08-1.26c5.79-1.14,10.4-4,15.66-6.42,4.71-2.15,9.86-3.32,14.29-6.09,5.44-3.4,13.81-9.43,20.37-10a5.5,5.5,0,0,1,5.41,3,9.6,9.6,0,0,1,.79,7,14.77,14.77,0,0,1-4.45,6.33,76.39,76.39,0,0,1-7.91,5.51c-4,2.71-7.88,5-12,7.53-6.8,4.14-14.29,7.56-20.86,11.94a3.41,3.41,0,1,1-3.78-5.67c6.64-4.42,14.22-7.9,21.09-12.09,4-2.43,7.8-4.69,11.67-7.34,1.85-1.26,4.16-2.56,6.2-4.13a9.55,9.55,0,0,0,3.55-4.24,1.91,1.91,0,0,0-.1-.91,20.78,20.78,0,0,0-5.57,2.17c-3.94,2-7.85,4.86-10.84,6.7-4.68,2.93-10.09,4.26-15.08,6.51-5.74,2.62-10.82,5.66-17.13,6.92-2.86.57-8.81,1.66-13.41,1.34a12,12,0,0,1-6.28-2,4,4,0,0,1-1.56-2.41,4.28,4.28,0,0,1,.71-3.38,11.3,11.3,0,0,1,3-2.75,56.37,56.37,0,0,1,6-3.33c6.2-3.09,11.76-6.51,17.72-10a15.07,15.07,0,0,0,2.39-1.64Z" transform="translate(-257.11 -915.27)"/><path class="cls-10" d="M912.28,1510.52a16.28,16.28,0,0,1-4,7.76c-2.24,2.73-4.94,5.18-7.24,7.62-7.64,8-15.5,13.19-25.67,17.94a3.41,3.41,0,0,0,2.88,6.18c11-5.14,19.49-10.75,27.73-19.43,5.18-5.46,11.75-11.21,13-19a3.41,3.41,0,0,0-6.73-1.08Z" transform="translate(-257.11 -915.27)"/><path class="cls-10" d="M908.26,1522.11c-1.74,2.48-2.77,5.47-4.58,7.91a69.58,69.58,0,0,1-23.4,19.39,3.41,3.41,0,0,0,3,6.1,76.61,76.61,0,0,0,25.8-21.4c1.87-2.49,2.93-5.54,4.71-8.1a3.4,3.4,0,1,0-5.57-3.9Z" transform="translate(-257.11 -915.27)"/><path class="cls-10" d="M808.3,1568.8c4.18.36,8.76,3,13.16,3.61,7.49,1.08,15.09,1.38,22.63,1.75,4.39.23,8.79.82,13.22-.06,4-.8,8.16-2.6,12.22-3.67,8.56-2.25,18.88-7.16,24.08-14.94a3.41,3.41,0,0,0-5.68-3.77c-4.3,6.45-13,10.25-20.14,12.13-3.92,1-7.91,2.79-11.82,3.58s-7.7.13-11.56-.07c-7.3-.37-14.71-.65-22-1.68-4.51-.66-9.23-3.3-13.55-3.67a3.41,3.41,0,0,0-.57,6.79Z" transform="translate(-257.11 -915.27)"/><path class="cls-10" d="M895.81,1552.43c2.24-2.86,4.27-5.88,6.45-8.79a3.41,3.41,0,1,0-5.45-4.09c-2.16,2.88-4.17,5.87-6.37,8.72a3.4,3.4,0,1,0,5.37,4.16Z" transform="translate(-257.11 -915.27)"/><path class="cls-10" d="M438.62,1782.76a3.26,3.26,0,0,1-2.85,4.84,3.33,3.33,0,0,1-3.22-2.36c-.6-1.55-.86-9.4-.95-10.64-.7-10-2.61-19.91-2.19-30,1.36-31,4.63-63.69,12.26-93.82,3.34-13.21,8.6-25.8,12.45-38.85a3.24,3.24,0,0,1,6.22,1.83c-3.82,13-9,25.49-12.37,38.6-7.54,29.72-10.73,61.93-12.07,92.52-.42,9.81,1.49,19.51,2.18,29.23.06.79.13,4.52.36,7.16C438.49,1781.81,438.57,1782.41,438.62,1782.76Zm-.36-.51a2.87,2.87,0,0,0-2.49-1.16A3.26,3.26,0,0,1,438.26,1782.25Z" transform="translate(-257.11 -915.27)"/><path class="cls-10" d="M584.27,1608.56c7,14.29,14.55,30.46,18.18,46,3.51,15.09,6.31,30.44,12,45,5.44,14,10.44,28.3,14.55,42.7,3.38,11.84,8.91,24.18,8.91,36.51a3.25,3.25,0,0,0,6.5,0c0-12.92-5.62-25.9-9.17-38.29-4.17-14.59-9.23-29.14-14.73-43.29s-8.25-29.32-11.7-44.11c-3.73-16-11.51-32.62-18.66-47.33a3.25,3.25,0,1,0-5.85,2.84Z" transform="translate(-257.11 -915.27)"/></g><rect class="cls-1" x="707.83" y="97.5" width="783.66" height="742.49"/><g class="cls-11"><path class="cls-7" d="M1327.66,1150.45s-19.56-5-24.76-22.19-5.25-39.19,18.26-62.51,52.46-28.52,63.12-26.69,2.45,2.7,25.57,1.12,47.41,12.07,60.14,31.53,15.42,32.16,15,50-13.68,31.36-13.68,31.36-5.59,8.93-10.47,15.85-12.87,15.38-21.63,22.89-15.66,14.24-18.59,20.32a25.38,25.38,0,0,1-8.54,9.52Z" transform="translate(-257.11 -915.27)"/><path class="cls-8" d="M1243.41,1797.74c1-3.69,19.32-95.45,24.56-133.43s26.27-130.75,26.27-130.75-29.7,20.26-47.15,24.61-40.62-10.22-64.84-26.75-66.92-44.25-66.92-44.25-1.68,6.41-7.29,6-14.9-8.11-22.55-14.4-20.62-10.51-20.44-22.38,10.69-40.74,10.69-40.74,25.28-41.18,31.2-45.79,17.45,2.09,34.58,17.33,89,65.48,89,65.48,25.68-14.88,41.1-29a405.34,405.34,0,0,0,29.33-30.38s3.35-24.77,14.73-49,28.55-52.36,28.55-52.36,3.13-7.34,2.48-12.1,6.42-11.8,17.65-18.66,44.38-18.52,47.82-17.22,6.44,4.8,8.89,11.67,33.56,50.54,42.7,78,8.9,75.38,4.86,127.17-6.06,70.33-7,90.87,7.57,57.41,7.57,57.41,11.14,49,16.27,74.27,17.71,111.55,17.71,111.55-92.09,12.88-151.88,9.57S1242.38,1801.42,1243.41,1797.74Z" transform="translate(-257.11 -915.27)"/><path class="cls-8" d="M1320.92,1142.28a159.87,159.87,0,0,1,.14,17.33c-.47,8.61,0,15.28-3.55,15.94s-9.49-.94-8.68,3.69,6.58,9.47,6.58,9.47,4.08,1.23,4.2,6.46.77,28.37,12.53,33.66a41.87,41.87,0,0,0,22.54,3.32l3,30.86s35.85-16.6,40.43-17.26,15.66-4.32,15.66-4.32l.17-23.6s-6.7-4.06-7.41-11.36-.43-12.58,1.43-14.37,7.82-8.06,10.06-16,3.37-31-1.11-36.67-9.24-5.44-12.69-.94-8.47,14.72-8.47,14.72-6.55-2.65-23.63-7.92-31.38-10.89-31.38-10.89-3.63,4.59-7.7,5.2S1320.92,1142.28,1320.92,1142.28Z" transform="translate(-257.11 -915.27)"/><path class="cls-8" d="M1077.26,1412.87l26.88-41.08s.35-6.4-1.2-10.87-8.48-37.41-10.26-50.75-1.32-28.42-3.37-36.34-3.69-14.4-5.88-13.73-5.14,1.79-5.42,13.32-2,42.17-2,42.17-17.27,4.77-26.32,12-18.49,19.2-18.6,28.29,2.72,17.31,8.05,22.72,20.17,23.16,25.71,27.91A33,33,0,0,0,1077.26,1412.87Z" transform="translate(-257.11 -915.27)"/><path class="cls-9" d="M1372.81,1167.61a21.38,21.38,0,0,1,4.39,1.23,9.41,9.41,0,0,1,5.2,4.55,7.87,7.87,0,0,1,.39,5.14c-1,4.26-5.46,6.06-9.22,6.62a37.78,37.78,0,0,1-13.07-.92c-3.31-.83-6.25-2.17-8-3.91-2.28-2.28-3-4.49-2.79-6.4a7.31,7.31,0,0,1,2.78-4.9,15.24,15.24,0,0,1,7.79-3.14,28.64,28.64,0,0,1,7.21.51A26,26,0,0,1,1372.81,1167.61Zm-1.35,4.25a38.85,38.85,0,0,0-9.55-.22,22.19,22.19,0,0,0-3.42.56,8.17,8.17,0,0,0-1.09.45,2.22,2.22,0,0,1-2.11,1.76,2.19,2.19,0,0,1-1.11-.25.78.78,0,0,0,0,.16c-.08.88.45,1.8,1.5,2.85,1.28,1.28,3.5,2.12,5.92,2.73a32.8,32.8,0,0,0,11.34.84,11.4,11.4,0,0,0,3.75-1.12,3.26,3.26,0,0,0,1.78-2.09,3.47,3.47,0,0,0-.14-2.22,2.25,2.25,0,0,1-2.34-.52A12.41,12.41,0,0,0,1371.46,1171.86Z" transform="translate(-257.11 -915.27)"/><path class="cls-9" d="M1367.5,1169a9.21,9.21,0,0,1,4.72.3,3.66,3.66,0,0,1,1.56,1.77,2.39,2.39,0,0,1,.09.45,19.6,19.6,0,0,1,2.87-.3,2.73,2.73,0,0,1,2.49,1.37,2.62,2.62,0,0,1,.27,1.63h.14a2.1,2.1,0,0,1,1.84,1.42,3.24,3.24,0,0,1,.14,1,.78.78,0,0,1,0,.22c-.23,2.09-2.08,4.2-4.55,5.4s-5.55,1.39-7.29.36a2.19,2.19,0,0,1-.62-.55c-3.19.11-5.91-.5-9.56-.56h-.81a2.17,2.17,0,0,1-2.09-1.63c0-.11-.06-.24-.08-.36a4.14,4.14,0,0,1-1.21-.81,2.17,2.17,0,0,1-.67-1.57,2.6,2.6,0,0,1-2-1.79,3.35,3.35,0,0,1,1.2-3.91,9.59,9.59,0,0,1,1.95-1C1360.06,1168.76,1363.14,1168.82,1367.5,1169Zm14.12,7.61v0Z" transform="translate(-257.11 -915.27)"/><path class="cls-10" d="M1389.07,1037.56c-10.72-4.17-23.23-.8-33.68,2.13-23.78,6.69-47.4,30.08-55.69,53-6.39,17.71-5,40.53,13.31,50.52a3.05,3.05,0,0,0,2.92-5.36c-15.58-8.47-15.9-28-10.48-43.08,7.67-21.24,29.54-43,51.58-49.2,9.27-2.59,20.33-6,29.83-2.3a3.06,3.06,0,0,0,2.21-5.7Z" transform="translate(-257.11 -915.27)"/><path class="cls-10" d="M1311.63,1110c-1.44,10.94,2,25.64,11.7,32.49a3.05,3.05,0,0,0,3.53-5c-7.9-5.61-10.36-17.75-9.17-26.71a3.06,3.06,0,1,0-6.06-.8Z" transform="translate(-257.11 -915.27)"/><path class="cls-10" d="M1319.91,1103a10.88,10.88,0,0,0,.37,4.72c.45,1.68,1.23,3.35,1.59,4.92,2.76,12.2,10.57,19.69,20.35,25,9.14,4.92,20,7.84,29.7,11.14a125.19,125.19,0,0,0,18.92,5.18,3.05,3.05,0,1,0,1.06-6,119.42,119.42,0,0,1-18-5c-9.36-3.2-19.93-6-28.79-10.74-8.23-4.44-14.93-10.64-17.29-20.93-.32-1.42-.93-2.92-1.43-4.46a6.29,6.29,0,0,1-.44-2.83,3.06,3.06,0,1,0-6-1Z" transform="translate(-257.11 -915.27)"/><path class="cls-10" d="M1399.6,1159.52a3.84,3.84,0,0,1-.47-2,33.48,33.48,0,0,1,.09-5.19,18.56,18.56,0,0,1,5.92-11.78c2-1.73,4.31-2.84,6.93-2.36a1.5,1.5,0,0,1,.84.58,8.38,8.38,0,0,1,1.31,2.2,35.65,35.65,0,0,1,2.2,9.48c1.18,10.67.21,19.34-4.31,29.26a61.61,61.61,0,0,1-2.66,5.71c-.76,1.33-1.58,2.61-2.84,3a3.06,3.06,0,0,0,1.91,5.81,10.85,10.85,0,0,0,5.36-4.41,50.84,50.84,0,0,0,3.8-7.61c5-11,6.11-20.62,4.81-32.45-.33-2.91-1.32-9.32-3.69-13.27a8.54,8.54,0,0,0-5.64-4.32c-4.5-.83-8.69.8-12.07,3.78a25.1,25.1,0,0,0-8,16,33.7,33.7,0,0,0,.08,7.41,8.92,8.92,0,0,0,1.6,3.93,3.06,3.06,0,0,0,4.79-3.8Z" transform="translate(-257.11 -915.27)"/><path class="cls-10" d="M1401.49,1166c-1.38-7-1.2-12.48,2.69-19a3.06,3.06,0,0,1,5.24,3.15c-3,5-3,9.3-1.9,14.77.06.3.11,2,.14,3a5.51,5.51,0,0,1,.61.37,6.27,6.27,0,0,1,2.51,3.83,10.73,10.73,0,0,1-1,7,11.56,11.56,0,0,1-4.53,5,3.05,3.05,0,1,1-2.94-5.35,5.34,5.34,0,0,0,2-2.35,4.35,4.35,0,0,0,.52-2.84c-.17-.72-.73-.74-1.09-1a6.9,6.9,0,0,1-1.14-.91,3.8,3.8,0,0,1-1-2.29C1401.51,1168.62,1401.49,1166.36,1401.49,1166Z" transform="translate(-257.11 -915.27)"/><path class="cls-10" d="M1397,1045.49c16.47-7.73,29.91-2.48,43.85,6.53,13.68,8.85,27.2,21.71,34.59,36.5,10.07,20.13,11.14,47.38-7.33,62.81A3.06,3.06,0,0,0,1472,1156c20.67-17.27,20.15-47.69,8.87-70.24-7.85-15.72-22.18-29.46-36.73-38.88-15.8-10.22-31.09-15.71-49.77-7a3.06,3.06,0,0,0,2.6,5.54Z" transform="translate(-257.11 -915.27)"/><path class="cls-10" d="M1467.26,1136.72c-.31,16.24-5.09,30.37-16.83,42.12-4.74,4.72-10.24,8-15.19,11.76-5.48,4.2-10.29,9-13.09,16.38a3.06,3.06,0,0,0,5.72,2.15c2.33-6.23,6.48-10.17,11.08-13.67,5.15-3.94,10.86-7.38,15.8-12.31,12.92-12.93,18.27-28.44,18.62-46.31a3.06,3.06,0,1,0-6.11-.12Z" transform="translate(-257.11 -915.27)"/><path class="cls-10" d="M1408.44,1200.73c0,.15-.18.92-.22,1.41-.1,1.82.11,3.86.11,4.66,0,4.09,1.63,6,4.86,8.44a3,3,0,0,1-3.67,4.87c-5-3.77-7.29-6.93-7.29-13.31a42.66,42.66,0,0,1,0-6.15,7.27,7.27,0,0,1,1.41-3.69,3.05,3.05,0,0,1,4.8,3.77Z" transform="translate(-257.11 -915.27)"/><path class="cls-10" d="M1415.52,1212.59a3.24,3.24,0,0,1-.15-1.43,3,3,0,0,1,.89-1.82,3.06,3.06,0,0,1,2.29-.9,2.89,2.89,0,0,1,2.58,1.63,5.33,5.33,0,0,1,.45,1.62c.17,1.32.41,4.35.41,5.22a3.05,3.05,0,1,1-6.1,0C1415.89,1216.25,1415.62,1213.53,1415.52,1212.59Zm4.78,1.39a2.72,2.72,0,0,0,1.13-2A3,3,0,0,1,1420.3,1214Z" transform="translate(-257.11 -915.27)"/><path class="cls-10" d="M1416.66,1220.37c0,.68,0,2.81,0,3.37v16.19a3.05,3.05,0,1,1-6.1,0v-16.19a27.56,27.56,0,0,1,.15-5,3.86,3.86,0,0,1,1.75-2.47,3,3,0,0,1,4.17,1.12A3,3,0,0,1,1416.66,1220.37Z" transform="translate(-257.11 -915.27)"/><path class="cls-10" d="M1315.58,1172.57c.08-.87.29-3.19.48-4,2.26-9,1.32-20.52,1.13-29.94a3.06,3.06,0,0,1,6.11-.1c.18,9.92,1.06,22-1.31,31.52-.22.84-.15,2.58-.42,3.86a5.76,5.76,0,0,1-1.39,2.87c-1.17,1.17-3.31,1.86-5.66,2.29a25.6,25.6,0,0,0-2.61.54,5.56,5.56,0,0,0-.89.4,1.33,1.33,0,0,0,.49,1.3,11.63,11.63,0,0,0,2.37,1.74,51.42,51.42,0,0,1,5.11,3.29,7.6,7.6,0,0,1,2.74,4c1.43,5.72,1.61,11.4,2.23,17,.57,5,1.5,10,4.48,14.74.65,1.05,1.25,2.2,2,3.26a5.45,5.45,0,0,0,1.74,1.77,32,32,0,0,0,8.28,3c3.74.83,6.75-.23,9.76-1.14a28,28,0,0,1,8-1.47,3.06,3.06,0,1,1,0,6.11c-2.87,0-5.43,1-8.07,1.74a21.33,21.33,0,0,1-11.05.71,37.71,37.71,0,0,1-9.93-3.6c-2.78-1.54-4.32-4.56-5.91-7.12-3.51-5.6-4.72-11.38-5.37-17.3-.6-5.33-.74-10.77-2.09-16.22-.06-.24-.31-.39-.54-.59a9.31,9.31,0,0,0-1.33-1c-1.62-1-3.52-2-5.08-3.18-3.13-2.31-4.91-5.2-3.61-9.09.76-2.29,2.82-3.67,5.5-4.36,1.22-.31,2.59-.49,3.79-.76A8.4,8.4,0,0,0,1315.58,1172.57Z" transform="translate(-257.11 -915.27)"/><path class="cls-10" d="M1350.74,1232.07c-.07,5.22,1,10.54,1.9,15.87.78,4.8,1.38,9.62.43,14.43a3,3,0,0,0,6,1.2c1.11-5.53.53-11.08-.38-16.61-.8-5-1.88-9.93-1.8-14.82a3.06,3.06,0,0,0-6.12-.07Z" transform="translate(-257.11 -915.27)"/><path class="cls-10" d="M1352.74,1273.75c10.48-12.28,30.57-18.82,45.33-24,2-.72,7.2-3.34,11.71-4.12a9.5,9.5,0,0,1,2.67-.15,1.77,1.77,0,0,1,1.49.69,5.84,5.84,0,0,1,.49,1.75c.2,1.09.36,2.21.57,3.07a14.89,14.89,0,0,1,.76,3.51,3.06,3.06,0,1,0,6.11,0,21.35,21.35,0,0,0-.94-5c-.47-1.89-.76-4.84-1.76-6.49-1.57-2.61-4.31-3.76-7.7-3.69-5.41.11-12.8,3.71-15.43,4.65-15.66,5.51-36.83,12.77-47.94,25.8a3.05,3.05,0,0,0,4.64,4Z" transform="translate(-257.11 -915.27)"/><path class="cls-10" d="M1346.16,1295.23c21.32-16.8,49.65-27.48,74.91-34.7a3.05,3.05,0,0,0-1.69-5.87c-26,7.42-55.06,18.5-77,35.78a3.05,3.05,0,0,0,3.78,4.79Z" transform="translate(-257.11 -915.27)"/><path class="cls-10" d="M1349.78,1276.47a12.12,12.12,0,0,0,0,2,47,47,0,0,0,2.12,8.66,3.05,3.05,0,0,1-5.79,1.94c-.62-1.88-2.55-8-2.51-12,0-3.11,1.36-5.2,3.25-6a3.05,3.05,0,0,1,3,5.29Z" transform="translate(-257.11 -915.27)"/><path class="cls-10" d="M1331.43,1142.16a56,56,0,0,1,8.31-3.88,9.83,9.83,0,0,1,8.32,1.28,43,43,0,0,1,8,6.87,3.05,3.05,0,0,0,4.32-4.32c-2.74-2.73-5.8-5.78-9.22-7.81-4-2.33-8.37-3.41-13.3-1.83a58.92,58.92,0,0,0-9.27,4.28,3.05,3.05,0,1,0,2.82,5.41Z" transform="translate(-257.11 -915.27)"/><path class="cls-10" d="M1335.58,1145.51a59.36,59.36,0,0,0,.7,14.58,3.06,3.06,0,0,0,6-1.2,52.88,52.88,0,0,1-.6-13.06,3.05,3.05,0,1,0-6.1-.32Z" transform="translate(-257.11 -915.27)"/><path class="cls-10" d="M1340.63,1193.11a46.52,46.52,0,0,1,6.33-3.55,4.53,4.53,0,0,1,3.54.06c1.78.89,2.83,2.93,2.46,5.74-.45,3.34-2.94,8.2-3.52,9.13-5.18,8.43-17,14.65-26.56,8.29a3.05,3.05,0,1,1,3.4-5.07c6.55,4.34,14.41-.63,18-6.41a27,27,0,0,0,2-4.43c-.61.37-1.23.72-1.64,1a11.13,11.13,0,0,1-2.26,1.11c-6.16,1.68-13.28,1.12-19.64,1.8a3.05,3.05,0,0,1-.65-6.07C1328.08,1194.06,1334.81,1194.66,1340.63,1193.11Z" transform="translate(-257.11 -915.27)"/><path class="cls-10" d="M1325,1204.68a31.26,31.26,0,0,0,4.54-.11,6.63,6.63,0,0,0,5.31-3.26c.56-1,.54-2.24,1-3.32a3.05,3.05,0,0,1,5.67,2.26,35.45,35.45,0,0,1-1.23,3.91,13.05,13.05,0,0,1-10.4,6.51,37.32,37.32,0,0,1-5.79,0,11.44,11.44,0,0,1-1.4-.43,3,3,0,0,1-2.4-1.78,3,3,0,0,1,1.55-4,3,3,0,0,1,1.29-.28A10.92,10.92,0,0,1,1325,1204.68Z" transform="translate(-257.11 -915.27)"/><path class="cls-10" d="M1343,1195.63a7.38,7.38,0,0,1,.77-.79,3.09,3.09,0,0,1,1.06-.46,3,3,0,0,1,2.68.6,2.94,2.94,0,0,1,1.12,2.4,3,3,0,0,1-.58,1.8c-.07.09-.25.27-.45.47a2.48,2.48,0,0,1-.55.52l-.07.07h0a5.2,5.2,0,0,0-.89,1.46,17.43,17.43,0,0,1-5.78,7.76c-.79.66-1.49,1.42-2.3,2a5,5,0,0,1-2,1.09c-.14,0-.36.08-.54.11a2.25,2.25,0,0,1-.52.07,2.33,2.33,0,0,1-1.36-.21s2.8-6.49.62-5.81a.94.94,0,0,0-.29.17l.29-.25c.77-.6,1.43-1.32,2.2-2a11.46,11.46,0,0,0,3.89-5.12,11.47,11.47,0,0,1,2.07-3.43Zm-5.76,16a3.25,3.25,0,0,1-.55.56A2.42,2.42,0,0,0,1337.25,1211.59Zm-1.54-4.76a3.48,3.48,0,0,1,.94.48A3,3,0,0,0,1335.71,1206.83Zm0,0,0,0,0,0Z" transform="translate(-257.11 -915.27)"/><path class="cls-10" d="M1338,1295.59a3.05,3.05,0,0,1,6.1.13,8.43,8.43,0,0,1-1.47,4.18c-1.38,2.17-3.78,4.65-4.46,5.91a157.53,157.53,0,0,0-9,18.48c-3.09,7.92-7.19,15.4-10.45,23.26-7.28,17.49-13.69,35.15-19.69,53.13a3.05,3.05,0,0,1-5.79-1.92c6-18.14,12.49-35.94,19.84-53.56,3.24-7.81,7.33-15.25,10.39-23.12a165.17,165.17,0,0,1,9.33-19.21c.64-1.17,2.61-3.35,4.1-5.43A16.8,16.8,0,0,0,1338,1295.59Z" transform="translate(-257.11 -915.27)"/><path class="cls-10" d="M1419.14,1262c8.7,10.75,14.32,23.8,22.08,35.12,10.39,15.2,20.21,32.68,23.76,51.15,7.35,38.16,4.4,82-1.06,120.23-3.75,26.28-3,53.39-5.9,79.77a3.05,3.05,0,0,0,6.07.67c2.92-26.33,2.12-53.34,5.87-79.58,5.55-38.84,8.49-83.45,1-122.24-3.71-19.29-13.87-37.58-24.72-53.46-7.85-11.46-13.57-24.63-22.39-35.5a3,3,0,0,0-4.73,3.84Z" transform="translate(-257.11 -915.27)"/><path class="cls-10" d="M1110.19,1489a4.58,4.58,0,0,0,.11-.56,32.46,32.46,0,0,1,.54-3.22,238.71,238.71,0,0,1,7.42-23.73c5.84-15.21,15.23-28.66,22.45-43.11,3.17-6.34,5.67-13.21,10.82-18.36a3,3,0,0,1,4.32,0,3.08,3.08,0,0,1,0,4.32c-4.67,4.67-6.79,11-9.68,16.78-7.13,14.26-16.43,27.53-22.21,42.57a238.18,238.18,0,0,0-7.24,23.13c-.37,1.39-.44,3.81-1.12,5.38a5,5,0,0,1-2.77,2.84,4.85,4.85,0,0,1-3.09.17c-9.11-2.29-18.71-9.63-25.46-15.7-3.34-3-10.31-6.75-15.71-11-4.27-3.4-7.53-7.23-8.31-11.13-.89-4.44.23-10.57,2.32-16.88,2.9-8.74,7.57-17.89,10-22.8,2.3-4.58,4.09-9.29,6.7-13.73,6.15-10.46,12.31-21.07,20.5-30.15,1.34-1.51,3.26-4.61,5.36-6.4a7.65,7.65,0,0,1,4.57-2,3.05,3.05,0,0,1,.17,6.1c-.29,0-.52.3-.78.53a9.17,9.17,0,0,0-1.31,1.33c-1.35,1.6-2.54,3.43-3.48,4.48-7.89,8.77-13.83,19-19.77,29.15-2.54,4.32-4.26,8.92-6.49,13.37-2.37,4.74-6.9,13.56-9.7,22-1.7,5.14-2.84,10.12-2.12,13.75.54,2.74,3.14,5.16,6.12,7.56,5.5,4.37,12.58,8.21,16,11.28C1094.19,1480.24,1102.29,1486.7,1110.19,1489Z" transform="translate(-257.11 -915.27)"/><path class="cls-10" d="M1109.94,1370a12.38,12.38,0,0,0,4.32,3.8c1.94,1.09,4.18,1.92,5.69,3,8.41,6,16.86,12,25.31,18,2.06,1.48,3.51,3.48,5.43,5.06,4.89,4,10.76,7.31,15.89,11.1,9.8,7.22,19.64,15,28.86,22.88,8.76,7.5,20.06,12.53,29.46,19.24a3,3,0,1,0,3.55-5c-9.26-6.61-20.41-11.53-29-18.92-9.34-8-19.3-15.86-29.21-23.16-5.06-3.72-10.84-6.93-15.63-10.9-2-1.67-3.6-3.75-5.77-5.3-8.45-6-16.89-12-25.29-18a45.37,45.37,0,0,0-5.31-2.86,7.81,7.81,0,0,1-3.1-2.26,3.06,3.06,0,1,0-5.17,3.27Z" transform="translate(-257.11 -915.27)"/><path class="cls-10" d="M1353.59,1327.74c-15.51,22-32.8,43.28-51.9,62.23-7.67,7.6-14.39,16-22.66,23.06-10.85,9.24-22.54,17.1-33.7,25.86a94,94,0,0,1-8.19,5.14c-3.34,2-6.43,4.37-8.44,7.38a3.06,3.06,0,0,0,5.09,3.4c1.53-2.32,4-4,6.54-5.58a97.37,97.37,0,0,0,8.76-5.55c11.22-8.81,23-16.71,33.91-26,8.37-7.13,15.2-15.67,23-23.39,19.36-19.2,36.9-40.76,52.59-63a3,3,0,1,0-5-3.52Z" transform="translate(-257.11 -915.27)"/><path class="cls-10" d="M1115.29,1491a6.56,6.56,0,0,1,2.63,1.64c1.38,1.17,2.68,2.46,3.8,3.24,8,5.68,16.52,11.1,24.94,16.11,9.68,5.75,19.86,11.11,29,17.67,9.71,6.95,19.1,14.11,29.61,19.65,8.93,4.68,15.93,10.75,26.48,11.51,14.64,1,27-4,39.69-10.73,7.68-4.06,15.81-8.31,22.59-13.91,6.59-5.42,14-9.47,20.89-14.52,7.19-5.3,13.43-11.74,20.5-17.05a3.05,3.05,0,1,0-3.68-4.87c-7,5.29-13.26,11.71-20.45,17-7,5.13-14.46,9.24-21.15,14.74-6.45,5.32-14.23,9.34-21.56,13.22-11.65,6.17-23,11-36.39,10-9.66-.69-15.91-6.53-24.07-10.83-10.28-5.41-19.43-12.42-28.91-19.2-9.33-6.65-19.64-12.13-29.48-18-8.28-4.91-16.67-10.25-24.53-15.83-1.24-.87-2.72-2.44-4.29-3.64a10.9,10.9,0,0,0-4.59-2.27,3.05,3.05,0,0,0-1.08,6Z" transform="translate(-257.11 -915.27)"/><path class="cls-10" d="M1288.84,1536.66c.38,1.68,0,3.86-.57,6.14-1,4.24-2.77,8.74-3.43,11.88-4.39,20.47-8.94,40.94-12.91,61.47-2.38,12.31-3.18,25-5.11,37.44-6.63,42.45-13.35,85.16-20.35,127.22a3.05,3.05,0,0,0,6,1c7-42.1,13.73-84.82,20.37-127.29,1.92-12.34,2.7-25,5.07-37.22,4-20.5,8.5-40.94,12.88-61.37.66-3.09,2.38-7.53,3.39-11.71.8-3.32,1.16-6.49.6-8.93a3.06,3.06,0,1,0-6,1.35Z" transform="translate(-257.11 -915.27)"/><path class="cls-10" d="M1412.76,1579.63c7,2.76,14.74,1.77,22.44.82,8.74-1.09,17.49-2.2,25.49.46a3.08,3.08,0,0,1,1.94,3.87,3.05,3.05,0,0,1-3.87,1.92c-7.16-2.38-15-1.18-22.81-.2-8.81,1.11-17.58,1.94-25.63-1.27a6.61,6.61,0,0,1-3-2.71,22.08,22.08,0,0,1-2.28-6.34c-1.23-6.2-1.1-13.56-.61-19.88a32,32,0,0,1,.67-6.5,6.19,6.19,0,0,1,2.39-3.47,13.13,13.13,0,0,1,5.3-1.72c2.46-.34,5.21-.35,7-.48,12.61-1,25.31.48,37.85,2.15a3.06,3.06,0,0,1-.81,6.06c-12.12-1.61-24.38-3.06-36.58-2.12-1.63.12-4.23.12-6.57.44a7.85,7.85,0,0,0-2.58.65,11.79,11.79,0,0,0-.32,1.43c-.17,1.46-.14,3-.22,4-.44,5.78-.61,12.53.53,18.2a16.75,16.75,0,0,0,.94,3.23A9.26,9.26,0,0,0,1412.76,1579.63Z" transform="translate(-257.11 -915.27)"/><path class="cls-10" d="M1457.91,1551.52c-2.38,20.66,4.17,42.85,8.49,62.76,4.48,20.65,8.69,41.31,13.35,62,6.18,27.29,11.56,54.87,16.17,82.47,1.84,11.08,1.41,24.54,4.93,35.12a3.06,3.06,0,1,0,5.8-1.94c-3.43-10.28-2.92-23.41-4.72-34.18-4.61-27.71-10-55.41-16.21-82.82-4.66-20.61-8.87-41.27-13.35-61.89-4.19-19.28-10.71-40.76-8.39-60.76a3.06,3.06,0,0,0-6.07-.71Z" transform="translate(-257.11 -915.27)"/><path class="cls-10" d="M1311.42,1647.67c3.41.43,6.9.77,10.31,1.06,10.27.88,20.55.33,30.81.53,28.53.55,57,.53,85.44.53a3.06,3.06,0,1,1,0,6.12c-28.54,0-57,0-85.54-.55-10.42-.2-20.84.35-31.23-.54-3.52-.31-7.12-.66-10.64-1.09a25.94,25.94,0,0,1-4.59-1.62,3,3,0,0,1-1.2-4.21,2.91,2.91,0,0,1,3.25-1.52,3.06,3.06,0,0,1,1.36.57Zm-3.12,4.71a3.05,3.05,0,0,1-1,.06A2.84,2.84,0,0,0,1308.3,1652.38Z" transform="translate(-257.11 -915.27)"/><path class="cls-10" d="M1302,1691.6c.8.43,4.41,2.38,5.1,2.69,21.78,9.53,44.6,9.4,68.39,7.57,20.9-1.61,41.45-3.41,62-7.5a3,3,0,0,1,1.2,6c-20.74,4.15-41.54,6-62.67,7.61-24.82,1.91-48.6,1.86-71.31-8.07a47.76,47.76,0,0,1-5.41-2.75,7.29,7.29,0,0,1-2.57-2.46,9.07,9.07,0,0,1-.89-4.5c0-1.65.45-3.37.57-4.92.57-7.28,1.54-14.63,2.73-21.84.65-3.84,1.48-7.31,2.49-11.08a20.73,20.73,0,0,1,1.83-4.09,4.57,4.57,0,0,1,1.14-1.24,3.11,3.11,0,0,1,4,.35,3.11,3.11,0,0,1,.88,2.75,3.07,3.07,0,0,1-1.22,2.11,13.07,13.07,0,0,0-.73,1.7,105.43,105.43,0,0,0-2.37,10.5c-1.18,7-2.12,14.2-2.68,21.3-.09,1.29-.38,2.66-.52,4A5,5,0,0,0,1302,1691.6Zm1.37-41.51v0Zm0-.2v0Zm0-.23v0Zm0-.1,0-.15S1303.3,1649.52,1303.3,1649.56Z" transform="translate(-257.11 -915.27)"/><path class="cls-10" d="M1437.47,1656a6,6,0,0,1,.86,3,60.94,60.94,0,0,1,.11,7.41c0,9.9-.81,19.78-.81,29.68a3.06,3.06,0,0,0,6.11,0c0-9.9.8-19.78.8-29.68a67.52,67.52,0,0,0-.15-8.13,11.88,11.88,0,0,0-2.23-6.13,3,3,0,1,0-4.69,3.9Z" transform="translate(-257.11 -915.27)"/><path class="cls-10" d="M1298,1696.07a158.72,158.72,0,0,0-3.32,28.16c-.39,11.31-1.41,23.73-.34,35.62,1.12,12.42,4.52,24.27,13,33.9a3.05,3.05,0,1,0,4.6-4c-7.58-8.65-10.48-19.32-11.48-30.44-1.06-11.65,0-23.79.37-34.87a152.1,152.1,0,0,1,3.16-27.07,3,3,0,1,0-6-1.29Z" transform="translate(-257.11 -915.27)"/><path class="cls-10" d="M1434.2,1699.54c-1.2,6.35-.08,13.24-.08,19.66,0,19.36,1.6,38.81-3.13,57.79a83.73,83.73,0,0,1-3.65,12.18,16.25,16.25,0,0,1-3.79,6,3.05,3.05,0,0,0,4.06,4.56,22.36,22.36,0,0,0,5.36-8.16,90.24,90.24,0,0,0,3.93-13.08c4.87-19.45,3.34-39.4,3.34-59.26,0-6.06-1.17-12.54,0-18.5a3.06,3.06,0,1,0-6-1.16Z" transform="translate(-257.11 -915.27)"/><path class="cls-10" d="M1083.56,1263.33a4.67,4.67,0,0,0-.83,1.09,16.6,16.6,0,0,0-.83,1.76c-2.83,8-2,17.37-2,25.61,0,8.44-.06,16.8-.67,25.2a3.05,3.05,0,0,1-6.09-.44c.6-8.27.66-16.48.66-24.76,0-8.91-.69-19.07,2.37-27.66.28-.79.69-1.54,1-2.29,1.4-3,4.15-4.91,6.67-4.8,1.82.08,3.86,1,5.38,3.87,1.82,3.43,2.51,7.35,3.14,11.11a89.29,89.29,0,0,1,1.13,8.93c1.63,26.25,3.79,53.64,11,78.94,1.09,3.83,1.21,7.85,2.47,11.62a3.05,3.05,0,1,1-5.79,1.93c-1.29-3.85-1.43-8-2.55-11.88-7.35-25.71-9.56-53.54-11.24-80.24a77.82,77.82,0,0,0-1.06-8.3c-.52-3.12-1-6.41-2.5-9.25A4.78,4.78,0,0,0,1083.56,1263.33Z" transform="translate(-257.11 -915.27)"/><path class="cls-10" d="M1075.07,1314a8.81,8.81,0,0,0-3.59.42c-1.2.37-2.45.94-3.42,1.2a53.78,53.78,0,0,0-15.84,6.45c-11.56,7-19.21,14.94-23,28.1-1.29,4.51-2,10.08-.61,14.69,2.66,9.05,9.47,17.06,16,23.54,1.76,1.79,2.78,4.06,4.45,5.87,4.24,4.6,8.87,8.75,12.91,13.53,2.82,3.33,6.89,5.33,9.89,8.35a3.05,3.05,0,1,0,4.31-4.32c-2.87-2.89-6.84-4.77-9.52-8-4.11-4.85-8.8-9.06-13.1-13.72-1.72-1.87-2.8-4.21-4.63-6.05-5.8-5.8-12-12.87-14.43-20.95-1-3.54-.35-7.83.63-11.3,3.31-11.54,10.15-18.38,20.28-24.56a48.31,48.31,0,0,1,14.23-5.76c.9-.23,2-.71,3.13-1.09a4,4,0,0,1,1.48-.39,3,3,0,0,0,3.44-2.59A3.07,3.07,0,0,0,1075.07,1314Z" transform="translate(-257.11 -915.27)"/><path class="cls-10" d="M1047.09,1357.45c3.81-5.32,8.79-9.89,13.2-14.73a3.05,3.05,0,0,0-4.52-4.1c-4.55,5-9.7,9.76-13.65,15.26a3.06,3.06,0,0,0,5,3.57Z" transform="translate(-257.11 -915.27)"/><path class="cls-10" d="M1244.76,1788.45c-.57,3.23-2.29,6.77-2.29,10a3.06,3.06,0,0,0,6.12,0c0-2.91,1.67-6,2.18-9a3.05,3.05,0,0,0-6-1.06Z" transform="translate(-257.11 -915.27)"/></g></g></g></g></g></svg>