<svg xmlns="http://www.w3.org/2000/svg" viewBox="0 0 771.99 900"><defs><style>.cls-1{fill:#ffbd3e;}.cls-2{fill:#3fa7bd;}.cls-3{fill:#308b9a;}.cls-4{fill:#422c4f;}.cls-5{fill:#fff;}.cls-6{fill:#ffc49f;}.cls-7{fill:#ba6c67;}.cls-8{fill:#a44f5a;}.cls-9{fill:#92c5d1;}.cls-10{fill:#e9a386;}.cls-11{fill:#e48680;}.cls-12{fill:#402d49;}.cls-13{fill:#f5db89;}.cls-14{fill:#1f3a70;}.cls-15{fill:#3c668b;}.cls-16{fill:#37c88f;}.cls-17{fill:#e2e2de;}.cls-18{fill:#eebd9a;}.cls-19{fill:#468095;}.cls-20{fill:#945351;}.cls-21{fill:#485475;}.cls-22{fill:#c5d0d5;}.cls-23{fill:#97a1ae;}.cls-24{fill:#797d97;}.cls-25{fill:#8a404c;}.cls-26{fill:#472948;}</style></defs><g id="Layer_2" data-name="Layer 2"><g id="Layer_1-2" data-name="Layer 1"><g id="Layer_2-2" data-name="Layer 2"><g id="OBJECTS"><path class="cls-1" d="M45.4,99.73c1.92-23,12.73-46,31.7-59.28s46.19-15.26,65.11-2c33.5,23.57,28.21,78.87,59.68,105,18.45,15.32,45.59,16.93,63.72,32.64,23,19.9,23.81,55.66,15.32,84.87s-24.32,56.22-29,86.24c-12.49,80.41,57.13,153.6,55.7,235a140.39,140.39,0,0,1-66.31,115.41,140.47,140.47,0,0,1-133,5.47A140.41,140.41,0,0,1,32.76,593.5c-4.82-48,15.64-95.84,11.73-144-3.15-38-21.15-72.62-33.33-108.62s-18-77.82,1.7-110.3c12-19.67,35.29-35.55,41.28-58.56C60,149.56,43.37,124.05,45.4,99.73Z"/><path class="cls-1" d="M208.21,119.65c7.12,9.16,18.43,17.56,29.46,14a22.34,22.34,0,0,0,12.91-12.77,59.49,59.49,0,0,0,3.89-18.25c1.29-13.67,1.76-27.74-2.48-40.79s-14.05-25-27.32-28.43c-16.53-4.31-34.58,8.49-36,25.26C186.83,79.91,195.28,103.14,208.21,119.65Z"/><ellipse class="cls-1" cx="174.19" cy="856.69" rx="172.28" ry="35.69"/><polygon class="cls-2" points="214.78 408.88 220.27 439.9 220.27 784.95 176 784.95 142.38 494.04 125.88 799.37 81.72 799.37 65.91 446.04 74.06 403.61 214.78 408.88"/><path class="cls-3" d="M66.71,456.21,65.91,446l8.15-42.43,140.72,5.27,5.51,31v24A391.6,391.6,0,0,1,66.71,456.21Z"/><path class="cls-3" d="M142.39,494l2.85-44.22L183.86,446,151,458.84h0c6.48,11.59,9.68,23.14,7.33,37.19l-9.6,46.15Z"/><path class="cls-4" d="M166.69,858.32l-67.88-3.53a9.31,9.31,0,0,1-8.69-8.42L93,827.09h16.51a7.45,7.45,0,0,1,4.46-7l12.51-5.25,19.61,16.69a40.78,40.78,0,0,0,12,7.1l7.24,2.73a17.14,17.14,0,0,1,10,10.12h0a8.41,8.41,0,0,1,.51,2.23h0A10.71,10.71,0,0,1,166.69,858.32Z"/><path class="cls-5" d="M89.4,851.59l.79-5.22a9.31,9.31,0,0,0,8.68,8.42l67.82,3.53a10.69,10.69,0,0,0,9.31-4.47h0a10.64,10.64,0,0,1-2,7.22l-.55.75a10.65,10.65,0,0,1-9.32,4.47l-66.18-4a9.31,9.31,0,0,1-8.66-9.92C89.34,852.11,89.37,851.85,89.4,851.59Z"/><path class="cls-6" d="M109.51,827.09H93l.36-27.72h30.42L126.57,815,114,820.12A7.45,7.45,0,0,0,109.51,827.09Z"/><path class="cls-4" d="M259.63,843.89l-67.88-3.51a9.31,9.31,0,0,1-8.69-8.44l2.88-19.25h16.51a7.42,7.42,0,0,1,4.46-6.88l12.51-5.25L239,817.24a40.81,40.81,0,0,0,12,7.11l7.24,2.72a17.16,17.16,0,0,1,10,10.12h0a8.59,8.59,0,0,1,.51,2.23h0A10.64,10.64,0,0,1,259.63,843.89Z"/><path class="cls-5" d="M182.28,837.19l.78-5.25a9.31,9.31,0,0,0,8.69,8.44l67.88,3.51a10.63,10.63,0,0,0,9.31-4.47h0a10.63,10.63,0,0,1-2,7.22l-.55.76a10.69,10.69,0,0,1-9.32,4.46l-66.18-4a9.31,9.31,0,0,1-8.73-9.86Q182.22,837.6,182.28,837.19Z"/><path class="cls-6" d="M202.45,812.69H185.94l.36-27.75h30.42l2.79,15.64L207,805.83A7.43,7.43,0,0,0,202.45,812.69Z"/><path class="cls-7" d="M188.33,203.83a78.34,78.34,0,0,0,32.86-16.7A26.61,26.61,0,0,0,228.4,157c-.2-.54-.42-1.05-.63-1.57A42.13,42.13,0,0,1,226.19,130c2.55-10.41,3.68-21.09,1-31.27a43.82,43.82,0,0,0-27.45-29,55.58,55.58,0,0,0-40.54,1.9c-6.7-5-17.87-3.62-24.68,1.18s-10.9,12.44-13.88,20.1a101.2,101.2,0,0,0-6.47,30.05,56.16,56.16,0,0,1-10,28.61l-.23.31a31.28,31.28,0,0,0,5.85,42.1A67.69,67.69,0,0,0,131,205.33C148.57,211.09,170.33,208.12,188.33,203.83Z"/><path class="cls-8" d="M177.16,87.51A88.75,88.75,0,0,1,196,94a86.89,86.89,0,0,1,17.24,10,45.07,45.07,0,0,1-19.79-4.47A45,45,0,0,1,177.16,87.51Z"/><path class="cls-8" d="M175.75,82.46a29.41,29.41,0,0,1,30.07,2.82,143.62,143.62,0,0,1-15.1-.9A139.87,139.87,0,0,1,175.75,82.46Z"/><path class="cls-8" d="M133.7,113.4a56.46,56.46,0,0,1,26.15-22A56.56,56.56,0,0,1,133.7,113.4Z"/><path class="cls-6" d="M157.06,209.24a47.24,47.24,0,0,1-28.26-12.42l11.69-2.64,1.45-30.73.58-12.37,34.31,25.62v17.19l13.09,4.94A47.09,47.09,0,0,1,157.06,209.24Z"/><path class="cls-9" d="M128.8,196.82a46.22,46.22,0,0,0,61,2l8.53,3.24a43.35,43.35,0,0,1-81.17-2.64Z"/><path class="cls-4" d="M151,180.05a69.2,69.2,0,0,1-9.07-16.6l.58-12.37,34.31,25.62v14.74a27.32,27.32,0,0,1-5.34.38C163.38,191.48,156,186.43,151,180.05Z"/><path class="cls-2" d="M78.24,379.84A93.83,93.83,0,0,0,81.5,330L71.11,279.84l16.11-73.71,29.93-6.7a43.37,43.37,0,0,0,81.16,2.64l22.88,8.71,11.16,63.59a83,83,0,0,1-12.84,49.52,49.29,49.29,0,0,0-7.26,21.78c-1.12,12.37,0,18.45,2.86,37,2.7,17.67,10.14,70.83,10.14,70.83s-69.08,7-102.34,5.4c-17.87-.8-71.16-8.82-71.16-8.82Z"/><path class="cls-3" d="M84,297.06V277.61l6.88-27.83,2.89,35.74,21.86-25.78,22.11-13.4,20.11,3.93,19,18.2L227.1,319s-6.12,9.81-13.22,19.72a32.35,32.35,0,0,1-26.35,13.54h-44a13.14,13.14,0,0,1-11.89-18.76l21.69-45.95-10.34,3a23.92,23.92,0,0,1-21.84-4.87l-2.73-2.37L83.31,343a94.69,94.69,0,0,0-1.77-13l-5-24.19Z"/><path class="cls-2" d="M221.19,210.78h0A46.52,46.52,0,0,1,248,241.07l3.28,11.72-22.13,3.11Z"/><path class="cls-10" d="M254.69,265.91l13.54,55A19.53,19.53,0,0,1,254,344.52a19.3,19.3,0,0,1-3.62.54h0a20.23,20.23,0,0,1-5.21-.4h0a41.89,41.89,0,0,1-31.07-28.1l-2.72-8.37,21-40.86Z"/><polygon class="cls-11" points="227.51 277.03 231.66 319.82 215.89 299.43 227.51 277.03"/><path class="cls-10" d="M191.79,150.32a11.48,11.48,0,1,0,11.53-11.44,11.48,11.48,0,0,0-11.53,11.44Z"/><path class="cls-11" d="M196.77,150.32a6.5,6.5,0,1,0,6.55-6.5,6.5,6.5,0,0,0-6.55,6.5Z"/><path class="cls-6" d="M117.19,150.32a11.48,11.48,0,1,0,11.53-11.44h-.07A11.46,11.46,0,0,0,117.19,150.32Z"/><path class="cls-10" d="M122.15,150.32a6.5,6.5,0,1,0,6.5-6.5h0A6.51,6.51,0,0,0,122.15,150.32Z"/><path class="cls-6" d="M208.81,129,200,161.51a28.07,28.07,0,0,1-13.54,17.2h0a32.1,32.1,0,0,1-17.73,3.88h0A32.08,32.08,0,0,1,150.2,175l-2-1.74a27.9,27.9,0,0,1-9.6-17.87L136.33,138h0a48.53,48.53,0,0,0,23-22.34l3.79-7.66L178,119.36a45.75,45.75,0,0,0,25.89,9.4Z"/><path class="cls-7" d="M168.76,123.54a13.64,13.64,0,0,1,11.17,4.69l-21.71,1.4A13.64,13.64,0,0,1,168.76,123.54Z"/><path class="cls-7" d="M198.45,124.65a9.89,9.89,0,0,0-9.14,4.11l17,2.5A10.56,10.56,0,0,0,198.45,124.65Z"/><path class="cls-4" d="M167.24,138.48a2.73,2.73,0,1,0,2.69-3.15A3,3,0,0,0,167.24,138.48Z"/><path class="cls-4" d="M193.38,138.88a2.7,2.7,0,1,0,2.68-3.13A2.94,2.94,0,0,0,193.38,138.88Z"/><path class="cls-10" d="M178.37,151l11.17,1.34a6.72,6.72,0,0,1-6,3.37A6.84,6.84,0,0,1,178.37,151Z"/><path class="cls-5" d="M157.8,155.59l26.64,8c-3,3.56-6.9,6.86-11.59,6.71a13.88,13.88,0,0,1-9.22-4.61C161.19,163,159.52,158.69,157.8,155.59Z"/><polygon class="cls-10" points="52.88 268.58 41.58 324.43 83.95 277.61 52.88 268.58"/><polygon class="cls-12" points="52.88 268.58 47.99 292.71 62.76 301.02 83.95 277.61 52.88 268.58"/><path class="cls-2" d="M87.17,206.16l-4,.93a32.43,32.43,0,0,0-23.83,22.56l-15.64,54,24.57,11.17,15.64-17.33,7.75-31.31a56.77,56.77,0,0,0-2.24-34.09Z"/><path class="cls-5" d="M126.73,215.6l39.71,39.74,2.55,4.8a.73.73,0,0,1-.33,1,.74.74,0,0,1-.68,0l-4.87-2.53-39.64-39.73a2.24,2.24,0,0,1-.11-3.16l.11-.11h0a2.23,2.23,0,0,1,3.15-.1Z"/><path class="cls-6" d="M160.66,251.79a4.19,4.19,0,0,0-1.81-5.32l-12.44-6.88a13.8,13.8,0,0,0-12-.2l-19.88,8.94a25.19,25.19,0,0,0-7.75,5.49l-61,63.55A17.66,17.66,0,0,0,46,342.16h0a17.71,17.71,0,0,0,27.66-3.35L117.19,267l6.52,2h0a4.67,4.67,0,0,0,2.5,6.11,4.61,4.61,0,0,0,1.84.36h6.85a10.5,10.5,0,0,0,9.72-6.7l6.14-15.34,5.43.8a4.18,4.18,0,0,0,4.47-2.48Z"/><path class="cls-10" d="M150.76,253.46l-10.34-8.17h.36a24.05,24.05,0,0,1,11.72,5.61l3.8,3.35Z"/><path class="cls-10" d="M123.71,269l7.62,2.54,3.1-4.15h0a16.28,16.28,0,0,1-9.67,1.74Z"/><path class="cls-10" d="M147.48,260.25l-4.67-4.75a12,12,0,0,0-9.27-3.78h0l.67.23a27.81,27.81,0,0,1,7.66,4.08Z"/><path class="cls-10" d="M144.46,266.46l-4.73-4a12.78,12.78,0,0,0-7.42-3h-.87l2,.61a18.71,18.71,0,0,1,5,2.23Z"/><path class="cls-13" d="M231.5,321l1.19-11.17-1.3-.4a12,12,0,0,1-7.89-15c.05-.16.11-.33.17-.49l7-19.36,20.55,6.23Z"/><path class="cls-14" d="M142.27,336a5.48,5.48,0,0,1-.56-5.78l43.2-88a12.91,12.91,0,0,1,11.57-7.3H258.6a5.58,5.58,0,0,1,4.09,1.8l4.75,5.1-3.57.33a6.07,6.07,0,0,1-.31.74L220.36,331a12.89,12.89,0,0,1-11.57,7.21H147.12l-.67,2.24-3.33-3.49a4.72,4.72,0,0,1-.82-.85Z"/><path class="cls-15" d="M145.85,334.52l43.19-88a12.9,12.9,0,0,1,11.6-7.15h62.11a5.51,5.51,0,0,1,5,8l-43.2,88a12.86,12.86,0,0,1-11.59,7.22H150.81a5.52,5.52,0,0,1-5-8Z"/><path class="cls-6" d="M258.55,265.91l4.05,9.62a15.16,15.16,0,0,1-1.37,14.27l-3.75,5.63c-3.86,5.81-9.36,6.48-16.28,5.86Z"/><path class="cls-6" d="M258.55,265.91a33.86,33.86,0,0,0-9.8-11.66,8.75,8.75,0,0,0-3.4-1.81,3.52,3.52,0,0,0-3.5,1.09,3.65,3.65,0,0,0-.14,3.73,12.33,12.33,0,0,0,2.44,3.08,48.92,48.92,0,0,1,10.23,16.49A23.4,23.4,0,0,0,258.55,265.91Z"/><path class="cls-6" d="M250.49,285.38a184.62,184.62,0,0,1-17.22-17.49,12.25,12.25,0,0,1-2.59-3.95,3.86,3.86,0,0,1,4.69-5.36,11.38,11.38,0,0,1,3.73,1.79,71,71,0,0,1,16.71,15.36C254.13,278.77,252.14,282.34,250.49,285.38Z"/><path class="cls-6" d="M247.12,295a65.16,65.16,0,0,1-19-12.68,10.61,10.61,0,0,1-2.53-3.24,4,4,0,0,1,.29-3.93,4.09,4.09,0,0,1,3.71-1.23,12.54,12.54,0,0,1,3.78,1.47l17.35,9.25C249.51,287.84,248.3,291.73,247.12,295Z"/><path class="cls-6" d="M244,301.73a33.9,33.9,0,0,1-18.54-8,7.18,7.18,0,0,1-2-2.39,2.69,2.69,0,0,1,.42-2.93c1-1,2.77-.58,4.16,0l18.09,6.39C245.29,296.82,244.77,299.7,244,301.73Z"/></g></g><g id="Layer_2-3" data-name="Layer 2"><g id="OBJECTS-2" data-name="OBJECTS"><path class="cls-16" d="M601.62.6c42.44-5.27,86.62,24.57,97.54,66,13.51,51.21-19.1,108.88,3.08,157,16.44,35.74,59.55,56.24,68.21,94.55,6.24,27.45-7.57,55.3-23.05,78.8s-33.66,46.91-37.65,74.76c-6,41.52,20.88,80.41,27.2,121.82,7.62,50.88-19.19,105.29-64.3,130S567.2,741.71,528.47,707.8c-25.38-22.09-40.76-53.56-52.4-85.23-8.94-24.57-16-52-7.35-76.68,11.73-33.51,48.4-52.16,63.5-84.16,14.88-31.52,5.67-69.45-10.85-100.13s-39.9-57.36-55.58-88.5S443,203.26,460.5,173c19.61-34,56.87-48.2,62.76-89.34S558.47,5.94,601.62.6Z"/><path class="cls-16" d="M460.25,431.08c4,9.94,10,20.35,20.11,23.52,13.4,4.16,27.6-6.83,32-20.1s1.38-27.7-2.12-41.21-7.64-26.8-16.4-37.26c-10.83-13-38.53-24.57-43.28-.93C445.67,379.53,451.16,408.28,460.25,431.08Z"/><ellipse class="cls-16" cx="574.99" cy="864.31" rx="172.28" ry="35.69"/><polygon class="cls-17" points="613.23 475.13 627.53 547.23 595.97 547.23 613.23 475.13"/><path class="cls-18" d="M543,826.78a3.29,3.29,0,0,1,1.47,4.41l-.13.24c-1.21,2-2.39,4-3.58,5.78a71.76,71.76,0,0,0,23.43-6.7,19.34,19.34,0,0,1-.4-5.63l1.45-18.09L529,804l-.92,11.41a21.8,21.8,0,0,1-2.05,7.55A38.5,38.5,0,0,1,543,826.78Z"/><path class="cls-5" d="M564.18,830.6a72,72,0,0,1-23.43,6.7c1.19-1.78,2.37-3.82,3.58-5.78a3.28,3.28,0,0,0-1.1-4.51l-.24-.14A38.5,38.5,0,0,0,526.06,823a21.52,21.52,0,0,1-9.54,9.92c-20.64,10.65-46.48,27.49-37,32.25,11,5.52,39.64,4,58.18-3.8a165.68,165.68,0,0,0,30.85-16.84,38.42,38.42,0,0,0-3.22-10.3A19.22,19.22,0,0,1,564.18,830.6Z"/><path class="cls-10" d="M563.94,822.83l1.29-16L529,804l-.92,11.41a2.45,2.45,0,0,1-.16,1.07A71.14,71.14,0,0,0,563.94,822.83Z"/><path class="cls-18" d="M663,826.78a3.28,3.28,0,0,1,1.48,4.41c0,.08-.09.16-.14.24-1.18,2-2.39,4-3.55,5.78a72.25,72.25,0,0,0,23.43-6.7,18.36,18.36,0,0,1-.42-5.63l1.45-18.09L649,803.87l-.91,11.41a22.51,22.51,0,0,1-2,7.55A38.23,38.23,0,0,1,663,826.78Z"/><path class="cls-5" d="M684.26,830.6a72.32,72.32,0,0,1-23.43,6.7c1.16-1.78,2.37-3.82,3.55-5.78a3.28,3.28,0,0,0-1.1-4.51l-.24-.14A38.36,38.36,0,0,0,646.13,823a21.61,21.61,0,0,1-9.56,9.92c-20.63,10.65-46.23,30.77-36.76,35.53,11,5.52,39.42.69,57.94-7.08a166.16,166.16,0,0,0,30.87-16.84,39.69,39.69,0,0,0-3.24-10.3A16.49,16.49,0,0,1,684.26,830.6Z"/><path class="cls-10" d="M684,822.83l1.27-16L649,804l-.91,11.41a3,3,0,0,1-.13,1.07A70.87,70.87,0,0,0,684,822.83Z"/><path class="cls-19" d="M528.62,812a68.37,68.37,0,0,1-9.42-2.48l12.22-219,13.51-195.8a22.62,22.62,0,0,1,4-10.12l2.23-3.06H672.47a22.79,22.79,0,0,1,8.08,14.41l12.85,173.5a219.44,219.44,0,0,0,5,32.75h0c5.1,22.11,6.71,82.93,4.74,105.56l-8.47,98a50,50,0,0,1-9.26,5.56,53.86,53.86,0,0,1-25.8,4.58,58.22,58.22,0,0,1-16.62-3.37L632.62,698.55c-1.54-13.4-2.23-65-2.23-78.6h0a357.58,357.58,0,0,0-4.07-53.6L611,484.15l-10.41,89.59a384,384,0,0,0-2.73,45h0c0,22.72-2,83.43-6,105.81l-15.08,85a97.86,97.86,0,0,1-25.12,4.27A102,102,0,0,1,528.62,812Z"/><path class="cls-4" d="M605,499.92c.35-4.62.82-9.85-2.24-13.4s-8.64-4.24-10.07-8.49c-1.3-3.82,1.85-7.93,1.09-11.9s-5.47-6.37-9.6-7.57-9.14-3-11-6.91l16.46,1.48a21.76,21.76,0,0,1,19.66,19l1.52,12-5,43.35C604.66,527.57,603.56,518.19,605,499.92Z"/><path class="cls-20" d="M423.29,343.66l-29-9.43L374,337.14h0a6.52,6.52,0,0,0,6.53,6.52H389l-19.65,6.88h0a23.8,23.8,0,0,0,13.8,6.52l22.6,2.55h0a31.51,31.51,0,0,0,25.8,8.93l4.6-.51Z"/><path class="cls-7" d="M436.8,350.67l-34-17.87a10.11,10.11,0,0,0,2.79,13.41l7.48,5.27a33.27,33.27,0,0,0,23.21,20.1l5.41,1.29,15.1-5.24a111.91,111.91,0,0,1-9.5-23.21Z"/><path class="cls-5" d="M556,181.19l-6.39,2.59a27,27,0,0,0-16.44,20.35L515.33,305.2l-68.12,39.46c1.47,13.52,10.25,27.54,14.27,34.89l88.25-44,11.68-38.66,18.86-63.21Z"/><path class="cls-17" d="M554.71,200.13c-17.87,15.63-21,27.5-23.54,144.76l18.67-9.32,11.57-38.66,18.86-63.21-18-39.11Z"/><path class="cls-9" d="M634.54,161.35l38.28,19.84,6.44,82.64-6.84,25.4,6.1,145.18-17.06,2.23A323.65,323.65,0,0,1,550,432.33l-7.53-1.61L551.14,277h0a37.51,37.51,0,0,1-8.53-27.74l2.23-22.2A166.45,166.45,0,0,1,556,181.08h0l41.14-19.73Z"/><polygon class="cls-5" points="642.38 165.42 627.53 271.4 636.75 472.27 658.24 552.88 703.85 552.88 685.31 342.83 688.71 207.39 676.91 183.38 642.38 165.42"/><path class="cls-17" d="M627.53,271.4l14.85-106,14.7,32.39A9,9,0,0,1,654,209l-6,4.16,7.77,15.32a8.94,8.94,0,0,1-1.07,9.78Z"/><path class="cls-17" d="M672.94,244.18,675,294a123.19,123.19,0,0,0,4.67,29l5.67,19.87,3.42-135.55Z"/><polygon class="cls-17" points="686.27 353.67 633.8 408.23 636.64 470.1 691.9 417.39 686.27 353.67"/><path class="cls-5" d="M592.68,163.5l-21.89,104L565.28,458.2A270.25,270.25,0,0,1,559.83,505L550,552.88H527.91l8.55-177.82,4.85-128.18,2.08-24.28a93.26,93.26,0,0,1,7.41-29.22l5.32-12.19Z"/><path class="cls-17" d="M592.68,163.5l-21.89,104-6.7-41a11.19,11.19,0,0,1,3.64-10.23l10.08-8.93-3.69-5.59a11.15,11.15,0,0,1,.23-12.73Z"/><path class="cls-21" d="M596,157.29a34.66,34.66,0,0,0-29.37,25.86l-.92,3.53a174.39,174.39,0,0,0-5.49,43.38V252.8h3.64V230.06a173.11,173.11,0,0,1,5.38-42.44l.92-3.51a31.06,31.06,0,0,1,26.31-23.29l2.23-.29-.44-3.62Z"/><path class="cls-22" d="M573.94,261.33a11.61,11.61,0,1,1,0-.13C574,261.25,574,261.29,573.94,261.33Z"/><path class="cls-23" d="M570.93,260.93a10.15,10.15,0,1,1,0-.05Z"/><path class="cls-24" d="M567.2,260.48a5.2,5.2,0,1,1-4.59-5.75h.12A5.2,5.2,0,0,1,567.2,260.48Z"/><path class="cls-21" d="M652.5,189.72l-1-11.17a24,24,0,0,0-19.18-21.46l-1.1-.25-.74,3.58,1.1.24a20.39,20.39,0,0,1,16.28,18.23l1,11.17a20.64,20.64,0,0,0-17.33,20.46v6.07h3.64v-6.14a17,17,0,0,1,34-.2v6.07h3.64v-6.09A20.69,20.69,0,0,0,652.5,189.72Z"/><path class="cls-22" d="M641.24,258.11a8.67,8.67,0,0,1-8.71-8.62h0l-.18-33h1.83l.18,33a6.88,6.88,0,0,0,6.88,6.7Z"/><path class="cls-23" d="M643.52,255.54l-2,.27a.34.34,0,0,0-.29.34v2a.36.36,0,0,0,.31.36l2,.22a1.63,1.63,0,0,0,.54-3.22,2.44,2.44,0,0,0-.54,0Z"/><path class="cls-22" d="M663.67,258a8.67,8.67,0,0,0,8.62-8.71h0l-.18-33H670.3l.18,33a6.85,6.85,0,0,1-6.81,6.88Z"/><path class="cls-23" d="M661.37,255.46l2,.22a.37.37,0,0,1,.32.36v2a.33.33,0,0,1-.29.33l-2,.27a1.64,1.64,0,0,1-1.82-1.46.76.76,0,0,1,0-.15,1.62,1.62,0,0,1,1.64-1.61Z"/><polygon class="cls-7" points="634.21 124.05 634.54 123.88 634.54 161.35 603.34 204.71 597.08 161.35 597.08 142.62 634.21 124.05"/><path class="cls-4" d="M616.27,150.28a30.19,30.19,0,0,1-19.21,4.46V142.61l37.15-18.56a82.17,82.17,0,0,1-4.47,10.7A40.18,40.18,0,0,1,616.27,150.28Z"/><path class="cls-8" d="M573.54,92.25a11.16,11.16,0,0,0-14.69,2.81,12.08,12.08,0,0,0-1.19,9.61,25.39,25.39,0,0,0,4.65,8.73c2.23,3.08,5.34,6.12,9.18,6.52,6.56.69,10.25-6.56,10.09-12.28S578.32,95.08,573.54,92.25Z"/><path class="cls-25" d="M572.36,113.38c.15,0,.42,0,.89-.49a7.68,7.68,0,0,0,1.74-5.07,13.6,13.6,0,0,0-4.82-9.9,4.89,4.89,0,0,0-2.5-.65,4,4,0,0,0-3.31,1.41A5.71,5.71,0,0,0,564,103a18.87,18.87,0,0,0,3.53,6.46c2.48,3.28,4,3.88,4.62,4Z"/><path class="cls-7" d="M568.32,104.58c1.69,11.32,5.65,22.71,13.62,31.09s20.62,13.15,31.81,9.76c9.49-2.88,16.39-10.88,21.55-19.19,8.13-13.15,13.4-28.45,12.17-43.8s-9.15-30.53-22.69-38.37-27.52-5.47-40.9.31C572.11,49.47,570,64.6,568.25,75.83A96.54,96.54,0,0,0,568.32,104.58Z"/><path class="cls-26" d="M610.55,82.64a15,15,0,0,0-11.66,5.63h23.37A15,15,0,0,0,610.55,82.64Z"/><path class="cls-4" d="M615.4,98.86A3.84,3.84,0,1,1,611.56,95a3.84,3.84,0,0,1,3.84,3.84Z"/><path class="cls-26" d="M579.28,83a9.89,9.89,0,0,1,8.22,5.62H571A9.78,9.78,0,0,1,579.28,83Z"/><path class="cls-4" d="M575.84,99.1c0,2.24,1.21,3.85,2.71,3.85s2.72-1.72,2.72-3.85-1.21-3.84-2.72-3.84S575.84,97,575.84,99.1Z"/><path class="cls-8" d="M601.93,112.91H584.06a13.44,13.44,0,0,0,8.69,3.91A14.32,14.32,0,0,0,601.93,112.91Z"/><path class="cls-5" d="M619.49,119.65a196.54,196.54,0,0,1-32.14,4,18.48,18.48,0,0,0,16.77,7.69A20.13,20.13,0,0,0,619.49,119.65Z"/><path class="cls-26" d="M650.76,98.88c3.39-14.2,4.46-29.57-1.14-43.11a47.84,47.84,0,0,0-73.29-19.88,17.36,17.36,0,0,0-5.27,5.81c-2.63,5.3-.24,12.09,4.31,15.88A26.83,26.83,0,0,0,592,62.79c5,.13,10.37-2.44,15.17-3.93a40.07,40.07,0,0,1,13.18-2.51,13.42,13.42,0,0,1,11.3,6.19c1.94,3.53,1.58,7.82,1.25,11.82s-.47,8.37,1.79,11.68c1.56,2.23,4.13,3.86,5,6.45a13.13,13.13,0,0,1-.67,7.44,8.64,8.64,0,0,0,.56,7.28,5.81,5.81,0,0,0,7.88.65C649.77,106.1,650,101.74,650.76,98.88Z"/><path class="cls-7" d="M648.17,92.25a11.16,11.16,0,0,1,14.67,2.81,12.21,12.21,0,0,1,1.21,9.61,26.18,26.18,0,0,1-4.65,8.73c-2.34,3.08-5.34,6.12-9.2,6.52-6.57.69-10.25-6.56-10.1-12.28S643.36,95.08,648.17,92.25Z"/><path class="cls-8" d="M649.35,113.38c-.18,0-.45,0-.92-.49a7.79,7.79,0,0,1-1.74-5.07,13.61,13.61,0,0,1,4.83-9.9,4.86,4.86,0,0,1,2.5-.65,4,4,0,0,1,3.3,1.41,5.57,5.57,0,0,1,.34,4.31,18.87,18.87,0,0,1-3.53,6.46c-2.48,3.28-4,3.88-4.62,4Z"/><path class="cls-7" d="M612.12,427.78a81.87,81.87,0,0,0-22.34-24.68c-1.61,4.46.31,11,3,15s6.21,7.38,8.76,11.44c-11.84,1.88-23.77,4.47-35.61,6.28-2.23.35-5,1.09-5.6,3.3a4.21,4.21,0,0,0,2.72,4.63,12.34,12.34,0,0,0,5.79.4l21.71-1.92c-5.68,1.63-11.51,5.31-17.16,6.94-2.52.72-5.29,1.61-5.78,4.85a6.57,6.57,0,0,0,1.14,4.47c3.82,5.85,11.37,8,18.11,7a37.17,37.17,0,0,0,16.73-7.95c5-3.78,9.45-8.18,14.45-11.91l13.4-7.91a51.22,51.22,0,0,1-9.69-18.62Z"/><path class="cls-5" d="M696.81,193.41l-24-12.22.12,63,18.69,113.06-69.8,61.94c-.67,14.18,12.47,27.11,16.95,32.56L718.37,390a43.5,43.5,0,0,0,16.7-37.84l-9.13-115.23A53.6,53.6,0,0,0,696.81,193.41Z"/></g></g></g></g></svg>