<svg xmlns="http://www.w3.org/2000/svg" viewBox="0 0 2380.45 1286.47"><defs><style>.cls-1{fill:#ffedde;}.cls-1,.cls-10,.cls-11,.cls-15,.cls-2,.cls-3,.cls-4,.cls-5,.cls-6,.cls-7,.cls-8,.cls-9{fill-rule:evenodd;}.cls-2{fill:#fff;}.cls-3{fill:#e9e2e0;}.cls-4{fill:#edbbb7;}.cls-5{fill:#f9ddae;}.cls-6{fill:#686f7d;}.cls-7{fill:#cbe9e2;}.cls-8{fill:#c6ccd3;}.cls-9{fill:#eaeaea;}.cls-10{fill:#818c92;}.cls-11{fill:#ffdf9f;}.cls-12{opacity:0.2;}.cls-13{fill:#807672;}.cls-14,.cls-15{fill:#384154;}.cls-16{fill:#383d54;}</style></defs><g id="Layer_2" data-name="Layer 2"><g id="_Layer_" data-name="&lt;Layer&gt;"><g id="_ÎÓÈ_4" data-name="—ÎÓÈ_4"><path class="cls-1" d="M1302,1052.62c10.06-6.85-3.4-31.76-7.9-41.51-6.74-14.61-12.41-39.87-27.24-47.78-13.21-7-26.35-18.4-39.9-13.88-8.6,2.87-31.08,36.07-39,43.48-7.57,7.05-17,7.65-24.1,17.26-3.09,4.17-6.92,13.24-9.85,17.16-5.55,7.41-10.14,16.34-11.25,21-.65,2.71,4.7,5.14,9.9,5.19,4.67,0,9.23-2.3,9.08-.66-.39,4.09,7.82,10.6,7.82,10.6s-1.93,8.59,2,11.14c.06,0,13.88,2.09,13.88,2.09s5.78,12.51,14.94,8.89c6.94-2.74,16.7-6.52,16.7-6.52s9.57,6.71,20.1,3.56c23.28-6.94,43-13.94,43-13.94S1293.19,1058.59,1302,1052.62Z"/><path class="cls-1" d="M763.34,984.05s-36.16,13.26-50.8,32.42c-1.59,2.07-8.88,11.77-11,20.15-2.21,8.61-.58,21.46-.58,21.46s15.58.77,22.81,1.41,37.87,4.59,45.48,6.72c18.23,5.1,29.91,10.13,48.26,18s22,6.31,38.09,9.61c9,1.85,20.44,4,29.24,3.13a33.89,33.89,0,0,0,11.13-3.44s15.19,4.13,19.35,3.3c5.68-1.14,18-.65,22.85-3.56,5.26-3.17,5.84-7,5.84-7s16.72-.37,21.17-6.78c4-5.73,18.13,6.19,20-2.63.63-3.06-1.13-10.46-5.75-16.73-6.24-8.48-16-15.8-16-15.8l-9-10.45s10.59-2.36,7-6.87c-9.27-11.59-23.23-29.42-36-36.71-14.49-8.28-21.54-9.41-37.2-10.53-15.36-1.09-40.72,6-56.2,6.79C808.62,987.71,763.34,984.05,763.34,984.05Z"/><path class="cls-1" d="M841.13,684.17c-6.88-14.28-2.35-34.19-12.87-46.82-15.22-18.25-43.86-32.3-54.62-53.84-3.57-7.12-3.22-17.64-3.22-17.64s-1.29-27.83-3.21-38.34c-2.83-15.49-7-22.29-12.09-24.18s-17-10.33-20.43-15.67c-4.73-7.39-8.28-17.71-7.34-24,2.86-19,22.71-35.48,33.8-50.27,31.29-41.72,68.29-93.42,127.18-74.9,2.72.85,11.86,4.1,15.61,7A155.94,155.94,0,0,1,932,373.62c6.46,8.45,16.05,9.47,18.93,27.74,2.92,18.5-.91,54.21-.91,54.21s7-1.65,10.33,2.49c3.06,3.82,2.53,13.15,1.49,19.66-2.41,15-19.19,31.67-19.19,31.67s-30.6,86.77-53.57,115.48c-12.52,15.66-20.79,35-34.33,49.94C851.43,678.5,843.38,688.85,841.13,684.17Z"/><path class="cls-1" d="M2056.59,700.85s6.11-25.19-3.22-40.75a331.87,331.87,0,0,0-23.25-38,347.92,347.92,0,0,1-23.33-39.25c-11.92-19.63-30.68-34.08-43.42-53.19-4.79-7.19-19-28.65-19-28.65s3.93-15.32,3.15-24.8c-.79-9.64-5.14-33.29-2.56-55.1,2.24-18.91,13.82-45.61,31.1-51.37,41.66-13.89,70.32,47.5,95.91,73.09,16.7,16.69,45.64,21.79,64.09,36.55,5.91,4.73,2.58,20.7,6.47,27.49,6.55,11.46,6.88,26.41,9.76,39.07,2.83,12.43,18.3,14.93,18.3,14.93s6.26,31.42,10.36,45.35c1.7,5.76,14,27.62,27.62,44.66,4.05,5.07-50.71,7.88-55.19,10.12-21.15,10.58-42,22.68-64,31.48C2081.47,695.63,2056.59,700.85,2056.59,700.85Z"/><path class="cls-1" d="M1811,784.43c-3-23.1,8.91-20.47.45-63.71-2.76-14.11-26.06-22.07-35.82-28.22-19.13-12-38.43-58.59-38.43-58.59a19.09,19.09,0,0,0,4.18-10.73c.22-4.25-2.75-10.54-3.5-12.84-4.47-13.77-3.77-18.3-2.92-29.94s8.26-25.63,8.26-25.63,50.66,8.76,69.31,19.42c27.62,15.77,63.65,15.77,79.37,39.51,7.62,11.52-1.38,43.1,4.21,57.09,6.13,15.32,11.85,38.22,5.43,54.28-8.27,20.68-36.69,37.7-55.36,47.75C1839.81,776.24,1812.15,793.46,1811,784.43Z"/><path class="cls-1" d="M1586.72,1030.75l-47-28s-17.39-15-22.46-18.53-16.25-6.73-16.25-6.73-16.21-9.07-21.47-9c-.88,0-6.19,6.23-6.19,6.23a29.45,29.45,0,0,0-8.45.36c-3.74.61-8.18,5.86-8.18,5.86s-1.93-.74-7.28,1.77c-4.64,2.17-4.14,10-4.14,10s-6.43,5.15-6.45,9.8c0,10,12.16,15.71,12.16,15.71s.66,22.37,3,30.09c.6,2,4.76,1.62,7.72-1,2.66-2.4,4.18-7,4.18-7l7.11,5.46,7,8.38s2.18,7.09,8.38,9.14c14.6,4.82,25.25,1.27,25.25,1.27s16.74,8.92,27.2,11.52a159.38,159.38,0,0,0,37.41,4.34Z"/><path class="cls-1" d="M1890,1090.6s-44-52.24-93.51-74.28c-9.25-4.12-15.83-3-25.27-2.62-7.7.31-18.3-.37-25.69-.52-4.27-.09-19.38,2.62-25.08,9.21-6.56,7.59-4.94,20.34-4.94,20.34s-2.83,2.45-3.89,8.4c-.75,4.15-.12,11.83-.12,11.83s-5.72,8.19-6,12c-.92,12.18,2.9,24.32,2.9,24.32s-6.06-17.23-12.56-24.18c-4.78-5.11-10.25-1.34-11.36,2.11-2,6.2-1.2,16.72,1.46,23,1.29,3,6.44,10.71,12,14.09a31.15,31.15,0,0,0,15.24,4.22s3.72,4.6,5.27,6.63c5.79,7.64,15.43,6.36,15.43,6.36s0,4.76,10.55,13.07,18.26,11.05,18.26,11.05,17,10.65,25.26,13c9.54,2.69,23-8.42,23-8.42s17.28,1.41,31,1.71c15.82.34,43.41,5.75,43.41,5.75s-5.05-15.36-6.9-27.53c-2-13-.72-23.07,1.27-29.71C1881.29,1105.42,1890,1090.6,1890,1090.6Z"/><path class="cls-2" d="M766.94,536.21c-6.94-3.53-26.11,28.07-26.11,28.07s-30.75,5.68-42.88,9c-19.37,5.28-26.38,10-45.15,17.46-16.64,6.66-32.85,8.62-49.47,15.39-21.91,8.93-40.68,15.72-59,30-12.14,9.47-26.74,29.19-35.64,42.85-8.2,12.57-19.5,38.54-24.69,52.39-14.31,38.15-38,117.54-43.78,158.09-5.72,40-2,16.85,13,57,6.43,17.13,9.68,22.21,20.26,36.46,18.49,24.92,91.51,84,91.51,84s37.14,1.19,57.9,3.17c9.43.9,21-6.18,21-6.18s18.07-3.53,23.09-6c32.6-16.29,43.21-60.66,80-72.93,10.46-3.48,19.66-2.39,30.45-1.66,16.9,1.15,35.54,3.62,52.41,2.94,17.42-.7,38.1-4.84,55.29-6.56,18.36-1.84,33.6,3.53,49.74,18.31,7.66,7,15.5,16.26,20.21,21.75,2.07,2.42,6.41,7.1,6.41,9.23,0,4.09-6.19,4.86-6.19,4.86l2.14,2.89,65.33.71s2.75-38.39,4.48-57.79c1.12-12.66,2.49-28.16,8.67-63.2.9-5.1,19.43-63.25,19.43-63.25s13.76,19.14,25.9,33c5.08,5.81,21.77,29.8,23.74,33.89,12.8,26.45,17.74,29.12,32,54.73,4.35,7.82,28.15,33.86,28.15,33.86s19.06-10.26,24.87-16.4c12.69-13.45,23.91-43.94,45.8-39.25,6.36,1.36,14.22,8.37,14.93,9.89.26.56,16,.26,21.55,10.62,4.27,8,5.24,9.34,5.24,9.34s28.74,50.11,27.76,62.07-27.74,26-27.74,26,22.78-2.78,32.43-10.44c5.07-4,16.48-14.78,18.81-30.12,2.11-13.87-4.77-40.24-11-50.63-9.44-15.74-25.65-40.62-35.24-51.75-6.87-8-16.48-18.61-21.39-26.14-10.3-15.83-19.8-51.15-31.39-68.3-15.79-23.35-35.11-54.14-51.55-79.29-13.68-20.92-28.21-50.71-42.23-71.21-15.49-22.64-28.7-44-51.66-59.76-36.89-25.24-81.9-38.22-122-56.72-9.41-4.34-29.06-11.69-29.06-11.69l-26.37,26.51s-19.72,54-34.55,71.16c-2.76,3.19-23.23,50.74-28.25,50.74-4.79,0-17-58.07-20.1-61.77-14.17-17-27.33-26.15-38.39-44.14-5-8.11-8.32-24.19-13.26-32.84C768,557,775,540.32,766.94,536.21Z"/><path class="cls-2" d="M942.68,512.17c-2.49-7.73-2.17,3.42-37.25-8.86-6.32-2.22-20.41-11.5-27-13.86-10.89-3.89-17.64-.75-27.29,2.39-11.05,3.59-25,7.67-37.68,9.65-17.49,2.73-29.38-8.22-37.48-1.59-8.77,7.18,1.51,17.07,2.73,25.89.83,6.09.22,24.08,1.84,30.14,3.6,13.4,6.57,10.5,15.45,17.14,8.25,6.16,32.22,29,54.71,31.1,18.53,1.68,45.35-11.67,59-24.42,7.88-7.32,12.86-9.37,19.1-18.29,5.81-8.29,9.55-22.26,10.55-29.27S945.25,520.1,942.68,512.17Z"/><path class="cls-2" d="M1796.4,647.17c.07-12.37-15.89,0-37.47-3.54-17.12-2.8-16.77-13.66-24.18-9-5.81,3.63-8.12,19.59-7.57,24.08.39,3.19,3,23.78,12.89,41.85,4,7.38,12.91,19.5,20.14,22.67,10,4.35,22.43,1.27,30.48-1.88,6.38-2.5,8.52-4.08,14.83-8.82,2.2-1.65,12.45-8.06,13.18-11,2.56-10.25-11-9-16.13-16.07C1796.6,677.1,1796.34,659.54,1796.4,647.17Z"/><path class="cls-2" d="M2032.74,519.69c.17-8.89-38.57,2.3-48.54-1a217.37,217.37,0,0,1-25.65-10.29c-10.21-5-19.2-10.63-19.62-10.21-.78.79-3.6,6-6.08,11.53-2.16,4.88-5.19,12.8-4.79,18.13,1.09,14.39,7.23,26.42,12.32,40.57,6.32,17.64,5.8,33.21,8.95,39.72,6.62,13.68,16.44,23.41,22.28,25.27,17.61,5.6,42.62-4.82,57.76-11,5-2.05,23.25-15.55,24.56-21,2.49-10.37-9.68-8.56-16.57-18.56-5.67-8.24-6-28.5-7-35.42C2029.07,538.19,2032.6,527.93,2032.74,519.69Z"/><path class="cls-2" d="M2212.85,651.85s-25.42-6-29.73-7c-26.06-6.52-65.66-.94-88.1,15.31-23.16,16.78-39.55,41.62-50.85,64.74-22.64,46.3-28.33,92.16-45.69,141.57-6,17.11-15.2,41.08-22.89,57.49-8,17.16-15.49,28.79-18.1,47.92-3,21.65,13.24,56.06,20.11,76,3.89,11.27,3.54,47.36,3.54,47.36s-23.89-3.71-35.08-4.6c-11.46-.92-34.51-4.25-46.11-2.81-12,1.5-22.2,19.35-22.2,36.24,0,4.44-.21,17,3.53,29.9,2.37,8.17,6.51,19,11.83,25.11,14.33,16.61,43.52,21.07,73.62,28.34,24.79,6,54.28,8.77,79.49,10.17,20.08,1.11,45,2.63,65.14,3.22,24.87.73,82.31.27,82.31.27l152,50.86c-11.67-35-17.24-74.87-19.41-107.46-1.16-17.43-7.14-74.16-8.21-91.6-3.72-60.81-5.25-117.42-6.53-169-.64-25.91,1.63-43.54-2-73.94-2.79-23.25-10.27-46-16.44-68.58-2.39-8.76-4.45-18.93-9.74-26.55-6.83-9.89-21.37-19.19-30.09-27.45-12.3-11.65-25.29-19.21-33.64-34.53-2.7-5-3.22-8.69-4.43-14.16C2215.1,658.2,2212.85,651.85,2212.85,651.85Z"/><path class="cls-3" d="M1944.49,448.52s-2-32.23,1.17-39.12a303.46,303.46,0,0,1,14.46-27.56c9.44-15.51,33.76-14.55,46.34,5.22,15.08,23.69,17.81,55.33,31.57,76.62,4.87,7.53,15.92,14.53,25.94,18.75,4.56,1.91,18.31,5,29.84,2.9,13.84-2.47,27.88-12.51,40.13-.27,12.69,12.69,3.49,29.38-2.46,40.09-4.27,7.7-12.13,13.54-12.13,13.54s3.22,14.09,14.29,19.42c18,8.67,43.93,3.67,55-5.53,7.2-6,8.09-8.27,8.09-8.27s.17,41,4,65.05c3.8,23.74,17.45,66.92,32.22,86.91,14.05,19,39.49,28.82,49.82,50.42,10,20.9,26.75,67.84,28.55,91.22,1.66,21.59,6.74,31.73-4.49,53.05-8,15.14,12.9,2.31,21.49-3.76,24.51-17.29,31.53-43.94,33.66-68.27,3-34.08-6.81-67.36-20.22-96.84-6.75-14.86-44.23-77.41-48.71-93.05-11-38.49-9.09-54-12.46-114.69-1.66-29.87-5.69-90.17-8.41-107.87s-12.47-41.49-24.43-50c-18.41-13.08-42.62-2.51-42.62-2.51s-23.51-30.28-45.85-39.22c-30.88-12.35-71.75-16.68-102.67-10.62-18.24,3.58-43.86,17.13-61.65,21.81-15.5,4.08-25.31,3.92-39.09,13.46-13.11,9.07-33.13,24.4-39.36,39.35-3.68,8.84-6.8,29.1-1.28,41.06C1924,438.7,1944.49,448.52,1944.49,448.52Z"/><path class="cls-4" d="M2004.33,852.51s-11.71-21-18.27-30.85c-3.26-4.89-5.13-9.74-7.69-15.51-3.73-8.4-7.76-14-9.75-23.18-4.22-19.38-14.31-33.25-29.07-48-8.86-8.86-27.89-19.41-40.92-14.61-18,6.62-50.38,37.76-50.38,37.76a71.71,71.71,0,0,1-5.8,7.74c-6.68,7.32-17.81,17.22-24,16.32-10.39-1.52,4.45-25.85,4.45-25.85A149.87,149.87,0,0,0,1805,769.6c-8.28,7.53-13.68,15.45-16.67,19.43-10.94,14.58-17.09,48.08-22.47,65.62-7.91,25.81-26.44,68.69-35.43,81.47a329.94,329.94,0,0,0-20.64,33.53c-4.08,7.71-15.34,9-25.55,12.13-20.94,6.51-56.4,16.21-78.59,21.29a165,165,0,0,1-40,3.7c-12.82-.32-20-5.37-23.07-2.88-1.43,1.15,18.68,18,24.61,21.52a66,66,0,0,0,18.11,7l-5.81,17.21-3,24.2s.31,14.74,10.61,16.65a443.73,443.73,0,0,0,51.35,6.74c8.74.59,45.51,2.4,45.51,2.4s-3.22-25.89,5.54-27c8.3-1.08,17.24,17,17.24,17l-.4-18.28,4.86-8.84s-1-6.64.17-10c1.29-3.63,4.93-12.13,4.93-12.13s-2-11.29,3.33-16.65c11.86-11.87,20.94-11.77,39.82-9,13,1.92,29.79-4.55,39.58,2.9s18.25,23.68,26.42,33.35c4.7,5.54,18.69,21.83,33.42,30a80.81,80.81,0,0,0,32.62,9.49s2.27-6.4,22.85-5.49c11.11.49,32.35,5.13,45.66,7.33a197.88,197.88,0,0,0,23.18,2.44s1.26-19.48-2.26-36.06c-3.35-15.74-11.43-28.44-14.14-34.89-1.76-4.18-7.22-16-8-22.62s-4.6-20.91.61-37.83c5.79-18.81,23.38-52.64,29.29-69.7S2004.33,852.51,2004.33,852.51Z"/><path class="cls-3" d="M1734.23,597.44s-25.29.17-29.42-25.64c-.73-4.58-1.6-15.3,3.16-23.22,5.93-9.87,18.14-17,21.48-21.48,8.72-11.63,16.94-25.88,28.07-32.86,12.48-7.83,28.76-11.49,41.16-11.94,17-.61,30.62,4.08,51.86,5.41,10,.63,37.47,2.22,46.64,6.39,12.7,5.78,31.44,24,31.44,24a42.42,42.42,0,0,0,0,13.86c2.44,13,14.06,33.79,15.39,48.5,1.1,12-3.62,30.06-3.62,30.06s2.9,29.86,5.25,42.78c4,22.09,5.66,29.26,16.65,48.8,7.6,13.5,25.67,38.39,32.88,54.25,6.49,14.3,6.26,39.17,7.37,45.54a158.78,158.78,0,0,0,7.47,26.61L2002.36,855s-10.92-1.15-16.26-10.71-6.08-28.87-6.08-28.87-3.1,5.63-6.91,7.42c-6.37,3-14.67,2.59-13.26.68,8.47-11.44,9-10.85,9.15-24.73.16-16.74-14.59-47.38-19.08-52.56-8.2-9.47-21-19.77-29.2-23.77s-17.83,1.39-23.16-4.82c-7.6-8.87-8-18.31-8-29.5,0-2.92,2-14.74,2-14.74s-18.76-5.82-21.95-11.57c-3.57-6.42,10-9.53,13-16,3.15-6.93,6.46-19.25,3.9-25.67-1.52-3.78-12-10.76-18.34-10.63-9.54.22-13,22.16-30.52,14.94-8.26-3.4-9.5-4.9-11-9.15-1.64-4.77-3-7.71-3-7.71s-25.89-4.76-38.36-9.29c-10-3.65-22.6-9.52-29.82-19.47-3.94-5.42-13-22.68-13-22.68s-4.34,4.51-6.36,14.1S1734.23,597.44,1734.23,597.44Z"/><path class="cls-5" d="M1784.64,723.71s-.31,22.33-.52,27.87c-.54,14.64,8.61,30.11,8.61,30.11s9-9.38,11.69-11.53c5.91-4.72,18.42-13.24,18.42-13.24a159.75,159.75,0,0,0-7-22.82,132.69,132.69,0,0,0-10.42-20Z"/><path class="cls-3" d="M735.52,444.93l-6.36-39.07a219.41,219.41,0,0,1-3.85-22.67c-1.17-11.3,3.56-15.53,5-28.24,1.09-9.59,4.06-32.85,7.91-40.18,7.75-14.72,21.13-25,32.94-30,5.1-2.16,21.22-1.34,40.08-8.35,24.83-9.22,50.58-23.34,73.42-16.81C893,262,908,274,915.07,279.55c16,12.64,27.18,14.44,36.46,29.9,10.83,18,22.82,24,24.28,43.32,1.18,15.59-2.17,41.33-6.29,57.81-1.75,7-10,45.22-10,45.22l-8.75-1.7a27.63,27.63,0,0,1-.48-8.51c1.7-14.58.48-40.6.48-40.6s-21.14-3.59-30.14-9c-12-7.21-17.95-11.28-24.46-19.77-6-7.81-11.94-22.54-24.84-25.12-6.81-1.36-23,2.73-32.49,4.77s-23.55,2.34-26.8,4.77c-23.65,17.74-18,41.75-36.57,65-2.7,3.37-4.68,17.52-12.43,20.95C752.32,451.34,735.52,444.93,735.52,444.93Z"/><path class="cls-6" d="M706.52,669l-4.15,31.06s-9.72,2.15-12.14,2.15c-6.65,0-16.92,13.38-16.92,13.38s-8.52,41.11-11.84,67.65c-1.3,10.42-6.3,34.06-6.3,44.75,0,4.16.31,9.83.31,9.83s11.93.44,12.14-.76c1.75-9.61,4.65-34.08,5.92-45.9,2-18.78,6-44.92,8.39-60.2,1.8-11.75,9.27-13.59,22.29-15.22A25,25,0,0,1,719,718.38s17.49-5.92,17.91-8c.51-2.55-19.14-10.1-19.14-10.1l3.07-26.6Z"/><path class="cls-6" d="M745.88,794.06l8.36,48,11.48-.45-3.88-33.56Z"/><path class="cls-6" d="M954.43,677a189.39,189.39,0,0,0,4.93,20.17c1.44,5,5.06,24.28,5.06,24.28L980.63,725s-2.58-11.92-4.83-22.12-7.19-30.17-7.19-30.17Z"/><path class="cls-6" d="M969.84,757.94s2.39,14.93,3.32,30c1.15,18.67.51,32.43,1.29,52.24.65,16.24,1.77,29.59,1.29,37.85-.39,6.88,15.38.85,15.38.85s1.07-29.73,1.07-39.56c0-22.93-3.83-46.77-5.27-69.88-.23-3.7-3.95-25.75-3.95-25.75Z"/><path class="cls-7" d="M843.84,886.81c-3.12-11.54-6.46-26.84-10.6-36.79-12.73-30.68-29.67-51.17-44-84.06-14-32.22-25.34-77.28-31.15-113.24-2.91-18.08-2.59-49.8-2.24-68.06.45-23.14,8.22-28.59,13.29-37.62,1.66-3,4.46,22.3,5.52,25.52,4,12.24,6.5,18.36,14,29.56A88.39,88.39,0,0,0,808,622.4c5.51,4.08,10.41,5.43,15,11.22,3.4,4.3,9.46,12.75,11.72,17.76,3.47,7.68,6,23.73,6,23.73.46,1.69,1,17.66,1.64,17.16,1.95-1.54,9.18-12.83,10-15.37,1.88-5.78,3.88-13.43,6.38-21,2.84-8.54,3.94-13.89,9.31-19.55,6.65-7,17.94-17.69,25.17-25.52,4.72-5.12,9.73-17.12,13.09-22.62.82-1.34.78,8.21,1.57,9.57,2.41,4.13,4.34,50.42,2.4,79.53-2.21,33.09-7.4,35.31-13.07,67.83-3.29,18.86-17.77,56.74-23.7,74.2S861.65,850.13,855.4,869c-1.08,3.26-9.83,27.61-9.83,27.61Z"/><path class="cls-8" d="M1276.05,980.64s-1,.69,4.65,12.83c1.41,3,7.48,9.18,9.13,13.44,1.58,4.07.22,9.07,2.25,14.37,1.26,3.31,6.34,9.31,7.71,13.09,2.44,6.76,5.25,11.31-1.06,19.06s-24.16,16.12-20.91,17.65c1.61.75,8.71,1.44,14.67.2a31,31,0,0,0,11.6-5.11c6.81-6.07,7.88-15.79,7.71-24.66-.21-10.65-8.1-36.3-15.6-44.71C1291.76,991.82,1276.05,980.64,1276.05,980.64Z"/><path class="cls-7" d="M728.44,979.58s-1.68-2.21-21.32,15.08c-8.86,7.8-10.51,17.26-25.68,30.48-5,4.37-23.51,11.67-35.71,17.78-9.88,4.95-13.74,8.8-17.86,12.27-1.1.92-4.76,4.84-4.76,4.84s20.94.52,26.92,1.11c11.85,1.17,39.83,3.41,52,.87,4-.84-3.47-7.62-2-17.41s4.38-19.07,14.51-29.55a121.49,121.49,0,0,1,24.74-19c4.43-2.37,10.17-6,11.29-7.18s10.29-4.45,10.29-4.45Z"/><path class="cls-9" d="M657,836.87s-3.2,27.87-5.52,38.47c-4.62,21.12-7.79,41.66-4.47,63.24,1.31,8.5,6.86,17.59,6.86,17.59l9.4,3.44,6.56-.6s-11.61-13.85-12.68-18.49c-2.95-12.78-1.48-26.23.7-39.28,2.66-16,6.76-64.52,6.76-64.52Z"/><path class="cls-9" d="M755.88,843.13s4.55,43.51,5.56,62.27c.83,15.5,4,38.1-5,52.42-5,7.93-19,9.39-19,9.39a9,9,0,0,0,.11,5.83c1.12,2.47,4.45,4.39,6.79,3.81,12.73-3.18,20.73-12.57,24.43-22.69,4.85-13.3,3.13-28.72,3.57-41.68.28-8-2-24.29-2.68-32.21-.44-5.52-3.7-31.39-6.12-38.63C762.74,839,755.88,843.13,755.88,843.13Z"/><path class="cls-9" d="M978.38,878.68l-1.83,34.54s-13.93,3-17.54,5.41c-15.48,10.32-21.57,20.86-18.52,39.7,5.76,35.49,57.25,38.73,70.91,6.29,5.51-13.08,4-23.22-4.38-34.73-4.41-6.06-18.36-15.08-18.36-15.08s4-27.41-.13-37.69C987.05,873.43,978.38,878.68,978.38,878.68Z"/><path class="cls-10" d="M976.35,926.67c-10.83,1.16-20.26,10.7-17.46,23.4s7.19,15.7,18.86,18.39c16.6,3.83,29.71-19.43,18.4-32.48C988.82,927.52,987.18,925.5,976.35,926.67Z"/><path class="cls-11" d="M739.35,965s-6.06-6.55-9.75-8c-5.63-2.26-4.92,13.86-4.92,13.86l12,3.17Z"/><path class="cls-11" d="M689.6,963.06s4.88-6.71,8.38-7.34c2.13-.38,3.88,6.57,4.95,8.71C705,968.52,689.6,963.06,689.6,963.06Z"/><path class="cls-10" d="M957.84,1038.67c-20.13-27.9-57.17-73.24-63.34-81.27S880,937.11,873.9,931.56c-2-1.79-6.62-.51-7.81,1.86-2,4,11.74,21.54,13,23.28,15.18,20.26,35.39,46.57,35.39,46.57s23,24.86,30.39,30.86C948,1036.61,964.05,1047.28,957.84,1038.67Z"/><path class="cls-10" d="M977.56,1080.76l8.73-3.12a32.57,32.57,0,0,1,5.45,7.95c2.66,5.76,5.65,14.24,2.13,10.72-1.62-1.62-10.08-6.7-10.08-6.7Z"/><path class="cls-3" d="M80.27,898.65s-1.17-7.76,3-11.52S96.8,883.6,96.8,883.6l423.45,12.31s8.08-1.12,13.8,3.09,9.12,13.73,9.12,13.73l31.42,216.14L754.7,1146s1.12,3.85-.36,6.79-5.56,5-5.56,5L586,1210l-7.85,6-445.39-23.31-8-10.6Z"/></g><g id="_ÎÓÈ_2_1_" data-name="—ÎÓÈ_2_1_" class="cls-12"><path class="cls-13" d="M1036.59,580.85a2.53,2.53,0,0,1-2.53-2.53l0-127.66a2.54,2.54,0,1,1,5.07,0l0,127.66A2.53,2.53,0,0,1,1036.59,580.85Z"/><path class="cls-13" d="M1739.58,817.94H1231.87a2.53,2.53,0,1,1,0-5.06h507.71a2.53,2.53,0,0,1,0,5.06Z"/><path class="cls-13" d="M1074.93,596.87a2.54,2.54,0,0,1-2.54-2.53V448.06a2.54,2.54,0,0,1,5.07,0V594.34A2.53,2.53,0,0,1,1074.93,596.87Z"/><path class="cls-13" d="M1748.47,788.2H1215.85a2.54,2.54,0,0,1,0-5.07h532.62a2.54,2.54,0,0,1,0,5.07Z"/><path class="cls-13" d="M1563,785.26h0a2.54,2.54,0,0,1-2.51-2.56l2.78-333a2.53,2.53,0,0,1,2.53-2.52h0a2.54,2.54,0,0,1,2.51,2.56l-2.78,333A2.53,2.53,0,0,1,1563,785.26Z"/><path class="cls-13" d="M1632.2,785.26h0a2.55,2.55,0,0,1-2.51-2.56l3.49-332.61a2.53,2.53,0,0,1,2.53-2.51h0a2.53,2.53,0,0,1,2.51,2.56l-3.48,332.61A2.54,2.54,0,0,1,1632.2,785.26Z"/><path class="cls-13" d="M1596,784.37h0a2.54,2.54,0,0,1-2.51-2.56l3.25-332.28a2.58,2.58,0,0,1,2.55-2.5,2.51,2.51,0,0,1,2.51,2.55l-3.24,332.28A2.53,2.53,0,0,1,1596,784.37Z"/><path class="cls-13" d="M1093.5,610.89a2.53,2.53,0,0,1-2.54-2.53V447.78a2.54,2.54,0,1,1,5.07,0V608.36A2.53,2.53,0,0,1,1093.5,610.89Z"/><path class="cls-13" d="M1561.82,772H1207a2.54,2.54,0,1,1,0-5.07h354.78a2.54,2.54,0,1,1,0,5.07Z"/><path class="cls-13" d="M1750.46,772h-117.2a2.54,2.54,0,0,1,0-5.07h117.2a2.54,2.54,0,1,1,0,5.07Z"/><path class="cls-13" d="M1706.88,450.35H1023.42a2.54,2.54,0,0,1-2.54-2.53V2.53a2.54,2.54,0,0,1,5.07,0V445.28h680.93a2.54,2.54,0,0,1,0,5.07Z"/><path class="cls-13" d="M693.41,561.41a2.54,2.54,0,0,1-2.54-2.54l-.39-526.95A2.54,2.54,0,0,1,693,29.38h0a2.53,2.53,0,0,1,2.53,2.53l.39,527a2.54,2.54,0,0,1-2.53,2.54Z"/><path class="cls-13" d="M438.43,828.49h0l-330.15-.84a2.53,2.53,0,1,1,0-5.06h0l330.16.84a2.53,2.53,0,1,1,0,5.06Z"/><path class="cls-13" d="M667.74,571.83a2.54,2.54,0,0,1-2.54-2.53L664.57,50a2.53,2.53,0,0,1,2.53-2.53h0A2.54,2.54,0,0,1,669.64,50l.63,519.31a2.54,2.54,0,0,1-2.53,2.54Z"/><path class="cls-13" d="M526.39,78.61a2.54,2.54,0,1,1,0-5.07l138.11-.17h0a2.54,2.54,0,1,1,0,5.07l-138.1.17Z"/><path class="cls-13" d="M666.77,370.18h0l-435.79,0a2.54,2.54,0,0,1,0-5.07h0l435.79,0a2.54,2.54,0,1,1,0,5.07Z"/><path class="cls-13" d="M400.55,676.58h0l-254.48-1.9a2.54,2.54,0,0,1,0-5.07h0l254.48,1.9a2.54,2.54,0,0,1,0,5.07Z"/><path class="cls-13" d="M355.5,874.78h0a2.54,2.54,0,0,1-2.53-2.54L353.58,183a2.54,2.54,0,0,1,2.54-2.53h0a2.54,2.54,0,0,1,2.53,2.54l0,28.86L358,872.24A2.54,2.54,0,0,1,355.5,874.78Z"/><path class="cls-13" d="M175.7,673.21a2.54,2.54,0,0,1-2.49-3c0-3.89-5.21-42.32-10.7-83l-.22-1.6a2.54,2.54,0,0,1,5-.68l.21,1.6c11.37,84.18,11.28,84.29,10.15,85.7A2.53,2.53,0,0,1,175.7,673.21Z"/><path class="cls-13" d="M214.72,673.65a31.77,31.77,0,0,1-7.63-1.54c-3.56-1-7.59-2.13-11.19-2.14h0a45.45,45.45,0,0,0-12.36,2.21c-4.51,1.28-8.41,2.39-10.07-.93a2.53,2.53,0,0,1,4.12-2.86,29.33,29.33,0,0,0,4.56-1.08,50,50,0,0,1,13.75-2.41,54.81,54.81,0,0,1,12.59,2.33,38.65,38.65,0,0,0,6,1.37c-.18-6.92-6-43.32-12.15-81.73-2.06-12.88-4.23-26.5-6.41-40.28a2.54,2.54,0,1,1,5-.79c2.17,13.78,4.35,27.39,6.41,40.26,11.34,70.9,13,82.85,11.82,85.19C218.22,673,216.68,673.65,214.72,673.65Zm2.12-3.53h0ZM178,669h0Z"/><path class="cls-13" d="M266.49,676c-2.67,0-6.64-3.77-24.56-50.41-10.21-26.54-23.09-62.46-35.35-98.53a2.53,2.53,0,1,1,4.8-1.63c25.82,76,50,138.8,55.93,145.33,3-.68,6.21-2.81,9.35-4.87,1.77-1.17,3.49-2.29,5.12-3.15l1.18-.62c7.23-3.81,10.32-5.71,9.57-7.89-8.52-24.73-19.86-55-36.77-98.1-7.3-18.6-14.84-37.56-21.73-54.68a2.52,2.52,0,0,1,1.4-3.29,2.54,2.54,0,0,1,3.3,1.4c6.89,17.13,14.44,36.11,21.74,54.72,16.94,43.18,28.31,73.5,36.85,98.3,2.25,6.52-4.35,10-12,14l-1.18.62c-1.49.79-3.07,1.83-4.7,2.9-3.71,2.44-7.92,5.2-12.2,5.81A6.34,6.34,0,0,1,266.49,676Z"/><path class="cls-13" d="M306,674.31a5.5,5.5,0,0,1-4.47-2.06c-5.88-7.09-14.54-34.53-14.91-35.69a2.54,2.54,0,0,1,4.84-1.52c2.41,7.67,9.62,28.72,14,34,1,1.14,6.71-1.93,10.14-3.76,2.18-1.16,4.48-2.39,6.83-3.47a62.23,62.23,0,0,1,7.25-2.61c2.94-.91,6.6-2.06,6.44-3.16-1.46-10.22-28.66-73.94-74.62-174.83a2.54,2.54,0,1,1,4.62-2.1c27.12,59.54,72.93,161.6,75,176.22.77,5.37-4.93,7.14-9.95,8.71a55.06,55.06,0,0,0-6.65,2.39c-2.26,1-4.47,2.21-6.55,3.32C313.59,672.06,309.39,674.31,306,674.31Z"/><path class="cls-13" d="M405.27,369.3a2.54,2.54,0,0,1-2.54-2.53V314.66a2.54,2.54,0,0,1,2.53-2.54l228-.06a2.53,2.53,0,0,1,2.53,2.53l0,52.11a2.53,2.53,0,0,1-2.54,2.54Zm2.52-52.11v47l222.92-.06v-47Z"/><path class="cls-13" d="M416.38,314.13a2.55,2.55,0,0,1-1.8-.75,2.53,2.53,0,0,1-.74-1.79V259.48a2.53,2.53,0,0,1,2.53-2.53l228-.07a2.54,2.54,0,0,1,2.54,2.53v52.12a2.53,2.53,0,0,1-2.53,2.53ZM418.9,262v47.05L641.84,309l0-47Z"/><path class="cls-13" d="M407.57,261.63a2.54,2.54,0,0,1-2.54-2.54V207a2.53,2.53,0,0,1,2.53-2.53l228-.07a2.51,2.51,0,0,1,1.79.75,2.49,2.49,0,0,1,.74,1.79l0,52.11a2.53,2.53,0,0,1-2.53,2.53Zm2.51-52.11,0,47L633,256.5V209.45Z"/><path class="cls-13" d="M583.31,595.4a2.55,2.55,0,0,1-2.34-1.56L518.72,444.4l-45.81,19a2.53,2.53,0,0,1-1.94-4.68l48.14-20a2.54,2.54,0,0,1,3.31,1.37l63.23,151.77a2.53,2.53,0,0,1-1.36,3.31A2.42,2.42,0,0,1,583.31,595.4Z"/><path class="cls-13" d="M471.47,604.89a2.54,2.54,0,0,1-2.35-1.6L411.84,459.45a2.51,2.51,0,0,1,0-1.94,2.59,2.59,0,0,1,1.39-1.35l48.41-19.27a2.52,2.52,0,0,1,3.29,1.4l63.69,157.92a2.54,2.54,0,1,1-4.71,1.89L461.2,442.52l-43.71,17.41,56.34,141.49a2.53,2.53,0,0,1-1.42,3.29A2.61,2.61,0,0,1,471.47,604.89Z"/><path class="cls-13" d="M413,672a2.53,2.53,0,0,1-2.45-1.91l-56-221a2.55,2.55,0,0,1,1.83-3.08l50.52-12.8a2.53,2.53,0,0,1,1.92.28,2.57,2.57,0,0,1,1.16,1.56L453.15,605.4a2.54,2.54,0,1,1-4.92,1.24L405.7,438.78l-45.61,11.55,55.38,218.55a2.52,2.52,0,0,1-1.83,3.08A2.72,2.72,0,0,1,413,672Z"/><path class="cls-13" d="M603.7,353.43a12.72,12.72,0,1,1,12.72-12.72A12.73,12.73,0,0,1,603.7,353.43Zm0-20.37a7.65,7.65,0,1,0,7.65,7.65A7.66,7.66,0,0,0,603.7,333.06Z"/><path class="cls-13" d="M445.69,299.41a12.72,12.72,0,1,1,12.72-12.72A12.73,12.73,0,0,1,445.69,299.41Zm0-20.37a7.65,7.65,0,1,0,7.66,7.65A7.65,7.65,0,0,0,445.69,279Z"/><path class="cls-13" d="M437,245a12.72,12.72,0,1,1,12.72-12.71A12.73,12.73,0,0,1,437,245Zm0-20.36a7.65,7.65,0,1,0,7.65,7.65A7.66,7.66,0,0,0,437,224.6Z"/><path class="cls-13" d="M615.41,245.42H487.09a2.53,2.53,0,0,1-2.53-2.53V221.58a2.54,2.54,0,0,1,2.53-2.54H615.41a2.54,2.54,0,0,1,2.53,2.54v21.31A2.53,2.53,0,0,1,615.41,245.42Zm-125.78-5.06H612.87V224.11H489.63Z"/><path class="cls-13" d="M623.93,297H495.61a2.53,2.53,0,0,1-2.53-2.53V273.19a2.53,2.53,0,0,1,2.53-2.53H623.93a2.53,2.53,0,0,1,2.53,2.53V294.5A2.53,2.53,0,0,1,623.93,297ZM498.15,292H621.4V275.73H498.15Z"/><path class="cls-13" d="M560.48,352.91H432.16a2.53,2.53,0,0,1-2.53-2.53V329.06a2.53,2.53,0,0,1,2.53-2.53H560.48a2.54,2.54,0,0,1,2.54,2.53v21.32A2.54,2.54,0,0,1,560.48,352.91ZM434.7,347.84H558V331.6H434.7Z"/></g><g id="_ÎÓÈ_1_1_" data-name="—ÎÓÈ_1_1_"><path class="cls-14" d="M575.8,1218.16h-.25l-436.17-22.28c-.39,0-7.06-.7-11.19-4.21s-5.4-9.77-5.45-10l-44-279.31c-.21-1-2.14-11.13,1.7-16.49,4-5.62,13.23-5,14.25-4.87L520,892.53c.5,0,12.14.42,18.7,6.84h0c6.54,6.42,7.43,18.24,7.47,18.74l41,283.16c.15.68,1.63,8.13-1.14,12.39S577.24,1218.16,575.8,1218.16Zm-448.07-37.38s.93,4.63,3.74,7c2.41,2,6.79,2.87,8.28,3l436,22.27c1.11-.09,4.88-.35,6.09-2.21s.83-6.73.41-8.73l-41.1-283.51c0-.29-.82-10.6-6-15.65h0c-4.28-4.2-12.5-5.32-15.3-5.4L94.35,886c-2.17-.17-7.83,0-9.83,2.77S83,898,83.69,901.43l44,279.35Z"/><path class="cls-14" d="M627.11,1072.88l-.29,0c-13.82-1.59-33.75-2.8-54.85-4.07l-4.93-.31a2.53,2.53,0,1,1,.31-5l4.93.29c21.17,1.29,41.16,2.51,55.12,4.11a2.53,2.53,0,0,1-.29,5.05Z"/><path class="cls-14" d="M440.46,895.32h-.1a2.54,2.54,0,0,1-2.43-2.64c1.18-29.63,38.56-157.76,60.18-199.3,17.48-33.58,37.18-65.15,85.68-82.55,13.51-4.84,21.56-7.34,30.09-10,6.37-2,12.82-4,21.78-7.05,4.18-1.43,9.53-3.65,15.72-6.23,18.47-7.67,43.75-18.17,70.87-21.84,7.55-1,13.37-2.83,17.8-5.56a2.53,2.53,0,1,1,2.66,4.31c-5,3.11-11.51,5.16-19.78,6.28-26.46,3.58-51.4,13.93-69.6,21.49-6.28,2.61-11.69,4.86-16,6.35-9,3.09-15.58,5.12-21.92,7.09-8.47,2.63-16.48,5.12-29.88,9.92-46.83,16.8-65.25,46.22-82.9,80.12C479.73,739.67,444.06,866.23,443,892.89A2.53,2.53,0,0,1,440.46,895.32Z"/><path class="cls-14" d="M629.92,1073.13l-.84,0a13.6,13.6,0,0,1-9.64-4.86,5.46,5.46,0,0,1-1.21-4.42c.88-6.24,11.66-14.63,20.55-20.56,4.85-3.23,10.55-5.32,16.59-7.53,9.32-3.41,19-6.94,27.06-15.16a122.87,122.87,0,0,0,10.38-12.87c10-13.57,22.51-30.47,46.71-34.46a2.5,2.5,0,0,1,2.91,2.09,2.53,2.53,0,0,1-2.09,2.91c-22.17,3.66-33.48,19-43.45,32.47A125.94,125.94,0,0,1,686,1024.13c-8.89,9-19.54,12.92-28.93,16.36-5.74,2.1-11.17,4.09-15.51,7-13,8.67-18,14.6-18.35,17a7.69,7.69,0,0,0,6.12,3.52c4.11.25,9.11-2.31,14.52-7.38a2.54,2.54,0,0,1,3.46,3.71C641.14,1070.18,635.28,1073.13,629.92,1073.13Z"/><path class="cls-14" d="M752.15,984.25a2.55,2.55,0,0,1-2.16-1.2c-3.66-5.89-35.83-11.62-59.32-15.81C678,965,666,962.84,657.41,960.69c-16-4-29.09-8.65-41.74-13.13-22.18-7.85-41.34-14.63-67.86-14.63a2.54,2.54,0,1,1,0-5.07c27.39,0,46.93,6.92,69.55,14.92,12.54,4.44,25.51,9,41.29,13,8.41,2.11,20.31,4.24,32.91,6.48,35,6.24,58.22,10.86,62.74,18.13a2.54,2.54,0,0,1-2.15,3.87Z"/><path class="cls-14" d="M2.53,1043.87a2.54,2.54,0,0,1,0-5.07l99.21-.36h0a2.54,2.54,0,1,1,0,5.07l-99.21.36Z"/><path class="cls-14" d="M1144.77,1040.9h0l-187.17-.48a2.53,2.53,0,1,1,0-5.06h0l187.17.47a2.54,2.54,0,0,1,0,5.07Z"/><path class="cls-14" d="M474.51,760.45a2.55,2.55,0,0,1-2.46-1.9c-5.61-21.89-12-44.55-19.49-69.29l-.83-2.7c-5.15-16.66-17.23-55.7-1.61-68.08,10-8,39-12.84,97-16.33l74.09-4a2.53,2.53,0,1,1,.28,5.06l-74.08,4c-34.78,2.1-82.4,5.95-94.1,15.24-12.9,10.23-1.12,48.29,3.31,62.62l.83,2.72c7.52,24.81,13.92,47.54,19.55,69.5a2.52,2.52,0,0,1-1.82,3.08A2.27,2.27,0,0,1,474.51,760.45Z"/><path class="cls-14" d="M463.76,795.68a2.52,2.52,0,0,1-2.46-1.94c-7.58-31.37-16.2-63.06-25.64-94.2l-.84-2.71c-5.15-16.67-17.22-55.69-1.61-68.08,11.73-9.3,19.28-12.07,19.6-12.18a2.53,2.53,0,0,1,1.71,4.77c-.07,0-7.17,2.66-18.16,11.38-12.9,10.23-1.13,48.29,3.31,62.61l.84,2.74c9.46,31.23,18.12,63,25.71,94.49a2.52,2.52,0,0,1-1.87,3.05A2.32,2.32,0,0,1,463.76,795.68Z"/><path class="cls-14" d="M593.15,1209.7a2.53,2.53,0,0,1-.77-5l155.24-49.56c.73-.31,3.6-1.81,4.55-3.51a6.05,6.05,0,0,0,.47-3.31L575.1,1130.93a2.53,2.53,0,0,1-2.27-2.77,2.57,2.57,0,0,1,2.77-2.28L755,1143.51a2.52,2.52,0,0,1,2.17,1.79c.16.52,1.45,5.11-.61,8.83-2,3.57-6.71,5.6-7.25,5.82l-155.43,49.63A2.63,2.63,0,0,1,593.15,1209.7Z"/><path class="cls-14" d="M584.93,1201.07a2.54,2.54,0,0,1-.74-5l167.75-51.47a2.5,2.5,0,0,1,3.16,1.68,2.53,2.53,0,0,1-1.68,3.16L585.67,1201A2.39,2.39,0,0,1,584.93,1201.07Z"/><path class="cls-14" d="M881.29,1099.3a88.94,88.94,0,0,1-16.13-1.88c-2.49-.45-4.9-.89-7.24-1.17l-5.48-.64c-8.47-1-16.46-1.87-25.39-4.79a252,252,0,0,1-25.1-10.24c-12.6-5.68-25.64-11.55-39.89-13.83l-1.61-.26c-20.14-3.23-39.16-6.3-57.77-5.81a2.45,2.45,0,0,1-2.6-2.47,2.52,2.52,0,0,1,2.47-2.59c19.05-.5,38.33,2.6,58.71,5.86l1.6.26c14.92,2.39,28.27,8.41,41.17,14.22a250.91,250.91,0,0,0,24.6,10c8.43,2.76,15.82,3.6,24.37,4.57l5.54.65c2.43.3,4.93.75,7.52,1.22,9.08,1.64,18.46,3.33,29.08-.67a2.53,2.53,0,1,1,1.78,4.74A43.69,43.69,0,0,1,881.29,1099.3Z"/><path class="cls-14" d="M911.49,1099.33a31.54,31.54,0,0,1-11.77-1.93c-9-3.6-23.44-8.58-32.36-10.69a2.53,2.53,0,0,1,1.17-4.93c9.15,2.17,23.87,7.24,33.07,10.92,5.39,2.15,11.94,1.62,18.27,1.1,1.49-.12,3-.24,4.37-.32,6.33-.37,14.55-1.94,17.73-7.35a2.53,2.53,0,1,1,4.37,2.56c-3.47,5.9-10.8,9.22-21.81,9.85-1.38.08-2.8.2-4.25.32C917.46,1099.08,914.48,1099.33,911.49,1099.33Z"/><path class="cls-14" d="M947.69,1087.23c-7.61,0-16.35-1.85-25.61-5.58-6.94-2.81-13.59-6.07-19.47-9-9.43-4.63-17.57-8.62-23-8.86a2.54,2.54,0,0,1-2.42-2.65,2.68,2.68,0,0,1,2.64-2.42c6.46.29,15,4.5,25,9.38,5.79,2.84,12.36,6.06,19.13,8.8,18.67,7.53,34.65,7,41.72-1.49a2.53,2.53,0,1,1,3.88,3.26C964.86,1084.36,957.16,1087.23,947.69,1087.23Z"/><path class="cls-14" d="M979.55,1081.85c-5.72,0-13.09-4.14-19.27-7.61-1.7-1-3.2-1.8-4.37-2.37-4.15-2-8.45-3.88-12.77-5.75-8.48-3.67-17.25-7.48-25-12.49a140.3,140.3,0,0,1-13.75-10.89c-7.36-6.3-15.7-13.43-25.59-19.43a2.53,2.53,0,1,1,2.63-4.33c10.24,6.22,18.75,13.49,26.26,19.91a137,137,0,0,0,13.19,10.48c7.44,4.79,16,8.5,24.3,12.1,4.39,1.9,8.76,3.8,13,5.84,1.24.6,2.84,1.5,4.64,2.51,5.32,3,15.23,8.56,18.55,6.59,1.1-.64,1.33-2.54,1.33-4,0-6.48-10.63-17.57-18-22.75-2.61-1.83-5.39-3.45-8.34-5.16-5.29-3.07-10.76-6.23-15.15-10.8l-2.09-2.16c-9.75-10.13-19-19.7-29.49-29.17a2.54,2.54,0,1,1,3.39-3.77c10.67,9.6,19.94,19.23,29.75,29.42l2.09,2.17c3.89,4,8.82,6.9,14,9.93,2.91,1.68,5.93,3.43,8.72,5.4,5.23,3.68,20.16,16.53,20.14,26.9,0,4.08-1.3,6.9-3.84,8.38A8.47,8.47,0,0,1,979.55,1081.85Z"/><path class="cls-14" d="M821.79,989.45c-10.75,0-21.52-.83-32.07-1.64-4.3-.34-8.59-.67-12.85-.94-3.51-.23-7.2-.41-11-.58-12.41-.59-26.47-1.26-38.17-4a2.53,2.53,0,0,1,1.17-4.93c11.24,2.67,24.46,3.3,37.24,3.9,3.81.18,7.53.36,11.07.59,4.28.28,8.59.61,12.91.94,15.89,1.23,32.32,2.49,48.14.84,4.79-.51,10.81-1.49,17.17-2.52,14.18-2.32,30.23-5,40.39-3.56a2.53,2.53,0,0,1,2.17,2.85,2.49,2.49,0,0,1-2.85,2.17c-9.4-1.25-25.07,1.28-38.89,3.54-6.44,1-12.52,2-17.46,2.56A163,163,0,0,1,821.79,989.45Z"/><path class="cls-14" d="M956.4,1036.22a2.53,2.53,0,0,1-.48-5c2.9-.55,3.3-1.29,3.3-1.29.45-1.41-4.45-6.55-7.09-9.31a99,99,0,0,1-6.66-7.46c-7.44-9.55-12.14-14.42-29.05-24.18a2.53,2.53,0,1,1,2.53-4.39c17.69,10.21,22.65,15.35,30.52,25.46,1.84,2.37,4.12,4.76,6.33,7.07,5.38,5.63,9.62,10.08,8.25,14.36-1.15,3.57-5.69,4.43-7.18,4.72A2.56,2.56,0,0,1,956.4,1036.22Z"/><path class="cls-14" d="M964.05,1048.66a2.52,2.52,0,0,1-2-1c-.78-1-78.23-99.64-87.75-112.63-1.68-2.29-3.65-2.44-4.86-1.58s-1.86,3.13,0,5.88c5.33,7.81,46.11,61.18,46.52,61.72a2.54,2.54,0,0,1-4,3.08c-1.68-2.2-41.27-54-46.68-61.94-3.62-5.31-2.12-10.51,1.24-12.88s8.35-2.09,11.88,2.73c9.47,12.92,86.87,111.5,87.65,112.5a2.53,2.53,0,0,1-2,4.09Z"/><path class="cls-14" d="M997.54,1102.09a2.48,2.48,0,0,1-1.53-.52l-14.38-11a2.33,2.33,0,0,1-.42-.41l-7.47-9.06a2.54,2.54,0,0,1,3.91-3.23l7.28,8.85,6.41,4.88-3.73-8.58-3.67-5.32a2.53,2.53,0,1,1,4.18-2.85l3.91,5.73,7.84,17.93a2.52,2.52,0,0,1-.76,3A2.55,2.55,0,0,1,997.54,1102.09Z"/><path class="cls-14" d="M1228.18,1085.49c-5.54,0-10.06-1.37-12.17-5.15a2.53,2.53,0,1,1,4.42-2.46c1.33,2.38,7.12,5.27,31.08-2.22l1-.29c13.88-4.25,21-7.48,34-14.41,4.26-2.27,12.11-10.61,12.63-15.15.81-7-1-9.67-3.82-13.64a41.29,41.29,0,0,1-5-8.65,25.76,25.76,0,0,1-1.57-8.68,31.67,31.67,0,0,0-.53-4.9c-.66-3.17-3-6-5.4-9a47,47,0,0,1-4.16-5.71,52.26,52.26,0,0,1-4.17-10c-1.51-4.48-2.94-8.7-6.1-12.26-2.6-2.93-6.46-3.94-10.55-5a38.64,38.64,0,0,1-8.42-2.93,35.36,35.36,0,0,1-6.2-4.61c-3-2.58-5.84-5-9-5.28-8.59-.63-13.91,5.56-19.48,12.2l-1.29,1.53c-1.94,2.29-3.92,4.56-5.92,6.84-8.67,9.92-17.64,20.17-22.67,32.3-1.1,2.63-2.13,5.3-3.17,8a161,161,0,0,1-7.83,18c-.59,1.1-1.27,2.31-2,3.58-3.51,6.22-8.32,14.73-6.4,19.26.68,1.59,2.26,2.68,4.84,3.35a2.53,2.53,0,1,1-1.28,4.9c-4.15-1.08-6.91-3.18-8.22-6.27-2.9-6.83,2.39-16.2,6.64-23.73.7-1.23,1.36-2.4,1.93-3.48a159.07,159.07,0,0,0,7.58-17.45c1-2.71,2.1-5.42,3.2-8.08,5.36-12.9,14.61-23.47,23.55-33.7,2-2.25,3.94-4.51,5.86-6.78l1.28-1.51c5.87-7,12.47-14.87,23.78-14,4.77.4,8.53,3.63,11.85,6.49a31.88,31.88,0,0,0,5.27,4,34.23,34.23,0,0,0,7.34,2.51c4.64,1.22,9.43,2.49,13,6.56,3.83,4.32,5.5,9.24,7.11,14a47.89,47.89,0,0,0,3.74,9,43.31,43.31,0,0,0,3.73,5.07c2.71,3.34,5.51,6.8,6.42,11.17a36.3,36.3,0,0,1,.63,5.65,21.2,21.2,0,0,0,1.2,7.06,36.6,36.6,0,0,0,4.42,7.65c3,4.21,5.74,8.17,4.7,17.13-.81,7.09-10.49,16.5-15.28,19-13.36,7.1-20.64,10.4-34.91,14.77l-.92.29C1245.23,1082.94,1235.76,1085.49,1228.18,1085.49Z"/><path class="cls-14" d="M1181.47,1079.53c-7.12,0-11.62-1.9-13.69-5.76-3.26-6.07.42-15.56,11.25-29,4.18-5.19,9.28-11.88,14.38-18.57s10.17-13.33,14.33-18.5A100,100,0,0,1,1224,991.49c3.91-3.27,8.34-7,14.65-13.19a2.54,2.54,0,0,1,3.55,3.62c-6.45,6.35-11,10.12-15,13.46a94.7,94.7,0,0,0-15.54,15.49c-4.14,5.15-9.19,11.77-14.25,18.4s-10.26,13.46-14.46,18.68c-12.63,15.67-11.72,21.6-10.74,23.42,1.36,2.55,6.12,3.56,13.39,2.88a2.59,2.59,0,0,1,2.76,2.29,2.53,2.53,0,0,1-2.29,2.76C1184.45,1079.46,1182.9,1079.53,1181.47,1079.53Z"/><path class="cls-14" d="M1195.74,1087.68a13.55,13.55,0,0,1-6.28-1.34,9.46,9.46,0,0,1-5-7.37c-1-7,7.74-14.79,14.8-21.08,1.8-1.6,3.43-3.05,4.62-4.26,3.23-3.29,6.36-6.87,9.39-10.32a179.66,179.66,0,0,1,14-14.84c8.79-8,18.81-14.36,28.49-20.54l4.47-2.86a2.53,2.53,0,1,1,2.74,4.26l-4.48,2.87c-9.51,6.07-19.35,12.34-27.81,20a175.46,175.46,0,0,0-13.64,14.43c-3.08,3.51-6.25,7.14-9.58,10.53-1.26,1.27-3,2.81-4.87,4.5-5.16,4.59-13.79,12.28-13.15,16.54a4.34,4.34,0,0,0,2.31,3.63c4.36,2.26,13.84-.86,19.15-3.5s12.16-7.4,18.75-12c5-3.45,9.66-6.72,13.63-9,6.28-3.67,10.14-6.26,13.87-8.76a208.57,208.57,0,0,1,19.35-11.72,2.53,2.53,0,1,1,2.41,4.45A206.39,206.39,0,0,0,1260,1052.8c-3.79,2.54-7.72,5.17-14.14,8.92-3.79,2.21-8.4,5.42-13.29,8.81-6.74,4.68-13.71,9.52-19.38,12.35C1212,1083.49,1203.32,1087.68,1195.74,1087.68Z"/><path class="cls-14" d="M1151.4,1055.9c-5,0-7.58-1.86-8.93-3.8-3.1-4.49-1.2-11.56,5.34-19.93a77.4,77.4,0,0,0,10.45-17c1.37-2.94,2.45-5.26,4.57-7.36,3.3-3.27,7.38-5.84,11.71-8.55,5.88-3.7,12.55-7.89,19.27-15a2.53,2.53,0,1,1,3.69,3.47c-7.16,7.61-14.12,12-20.27,15.84-4.25,2.68-7.93,5-10.84,7.87-1.47,1.46-2.29,3.22-3.54,5.89a81.75,81.75,0,0,1-11,18c-5.79,7.4-6.4,12.12-5.16,13.92s5.28,2.56,13.4,0a2.54,2.54,0,0,1,1.51,4.84A34.76,34.76,0,0,1,1151.4,1055.9Z"/><path class="cls-14" d="M1302.28,1070.14a2.51,2.51,0,0,1-2.06-1.07,2.54,2.54,0,0,1,.6-3.54c8.11-5.74,15.3-12.71,18.75-18.18,26-41.36-25.1-101-46.94-126.49-1.86-2.17-3.53-4.12-5-5.83-11.91-14.23-17.35-28.66-23.11-43.94-4.78-12.66-9.72-25.76-18.75-39.12-20.94-30.94-41.18-63.29-69.87-111.66a623,623,0,0,0-66.33-90.16c-19.47-21.77-55.58-33.59-84.59-43.09-16.52-5.41-30.78-10.08-40.14-15.7a2.54,2.54,0,0,1,2.61-4.35c8.87,5.33,22.88,9.92,39.1,15.23,29.59,9.69,66.42,21.75,86.79,44.54a627.66,627.66,0,0,1,66.92,91c28.64,48.28,48.83,80.55,69.7,111.4,9.38,13.85,14.42,27.23,19.3,40.17,5.6,14.87,10.9,28.91,22.26,42.48,1.42,1.69,3.07,3.63,4.92,5.78,22.57,26.33,75.42,88,47.38,132.49-4.53,7.17-13.36,14.84-20.11,19.62A2.59,2.59,0,0,1,1302.28,1070.14Z"/><path class="cls-14" d="M1021.8,1039.85h-.2a2.52,2.52,0,0,1-2.33-2.71c.53-6.94,1-14,1.51-21.05,2.38-34.36,4.84-69.89,13.09-102.84,3.28-13.14,7.52-27.43,12.6-42.46l1.24-3.6c23.6-68.13,33.61-131.63,29.75-188.74a2.54,2.54,0,0,1,5.06-.35c3.91,57.81-6.19,122-30,190.74l-1.23,3.57c-5,14.91-9.24,29.06-12.49,42.06-8.13,32.53-10.58,67.83-12.94,102-.5,7.1-1,14.13-1.52,21.08A2.53,2.53,0,0,1,1021.8,1039.85Z"/><path class="cls-14" d="M844.24,1134.49c-1,0-1.81,0-2.53-.07-4.16-.3-14.58-3.6-29-8.16-23.09-7.3-54.72-17.3-80.58-21.34-12.23-1.91-24.31-3.64-35.24-5.2-39.51-5.64-45.69-6.92-47.19-9.79a3.33,3.33,0,0,1,0-2.68C653,1080.5,729,1063.51,762.57,1062a2.48,2.48,0,0,1,2.65,2.41,2.53,2.53,0,0,1-2.42,2.64c-33.65,1.53-90.68,15.45-105.49,21.18,7.31,1.76,24,4.15,40.28,6.47,11,1.57,23.06,3.29,35.31,5.21,26.25,4.1,58.08,14.17,81.32,21.52,13,4.12,24.29,7.68,27.85,7.93,7.66.55,35.86-2,126.57-17.08,31.17-5.2,110.81-13.93,144.44-6a2.53,2.53,0,1,1-1.16,4.93c-30-7-102.72-.54-142.45,6.09C900.84,1128.71,858.77,1134.49,844.24,1134.49Z"/><path class="cls-14" d="M850.34,1143.74c-.35,0-.66,0-1,0-4.21-.18-15.73-3.51-33.16-8.55-20.52-5.93-48.63-14.05-76-20.05a714.1,714.1,0,0,0-72.48-11.83c-2.44-.28-4.57-.54-6.36-.76-14.21-1.81-16.7-3.37-16.9-6.2-.23-3.26,3.83-4.37,8.12-5.55.77-.21,1.44-.38,1.86-.54a2.55,2.55,0,0,1,2.14-.43,2.53,2.53,0,0,1,1.85,3.07c-.42,1.66-1.7,2-4.51,2.79l-1.2.33c1.94.43,4.87.94,9.27,1.5,1.79.23,3.9.47,6.32.76a726.13,726.13,0,0,1,73,11.91c27.48,6,55.68,14.18,76.26,20.13,15.86,4.58,28.38,8.2,32,8.36,6.67.33,31.57-3.44,60.48-7.76,20.58-3.07,43.9-6.56,65.37-9.32,22.77-2.93,49.68-4.71,73.43-6.27,29.21-1.93,56.81-3.75,63.06-7.06a2.54,2.54,0,0,1,2.37,4.49c-7.2,3.81-32.75,5.49-65.1,7.63-23.67,1.56-50.5,3.33-73.11,6.24-21.42,2.75-44.72,6.23-65.27,9.3C881.71,1140.27,858.44,1143.74,850.34,1143.74Z"/><path class="cls-14" d="M1114,1111.17a2.5,2.5,0,0,1-1.52-.52c-11.67-8.84-91.21-55.5-105.52-58.35-9.59-1.92-21.54-2.25-38.77-1a2.54,2.54,0,1,1-.35-5.06c17.69-1.23,30.06-.88,40.12,1.14,15.82,3.15,95.24,49.93,107.58,59.29a2.53,2.53,0,0,1-1.54,4.55Z"/><path class="cls-14" d="M1161,1056.8l-.34,0c-24.12-3.3-128-7.78-136.33-1.92a2.53,2.53,0,0,1-4.76-1.63c2.94-12.89,135-2.4,141.78-1.47a2.53,2.53,0,0,1-.35,5Z"/><path class="cls-14" d="M594.14,928.22a2.54,2.54,0,0,1-1.55-4.54c9.93-7.68,12.19-29.88,14.59-53.4,1-10.12,2.09-20.58,3.81-30.72.72-4.21,1.6-8.74,2.56-13.58,6.71-34.2,16.86-85.88-12.74-152.21a2.54,2.54,0,0,1,4.63-2.07c30.25,67.8,19.92,120.43,13.08,155.26-.94,4.79-1.83,9.28-2.53,13.45-1.69,10-2.75,20.35-3.77,30.38-2.62,25.7-4.88,47.89-16.53,56.9A2.57,2.57,0,0,1,594.14,928.22Z"/><path class="cls-14" d="M1156.27,1000.76a2.51,2.51,0,0,1-1.92-.89c-14.8-17.26-26.48-30.9-44.13-65.69-10.44-20.58-26.06-40.15-38.61-55.86-8.34-10.44-14.91-18.68-17.83-24.5a2.54,2.54,0,0,1,4.54-2.27c2.67,5.35,9.42,13.8,17.25,23.6,12.69,15.9,28.49,35.69,39.17,56.73,17.37,34.25,28.88,47.69,43.46,64.7a2.54,2.54,0,0,1-1.93,4.18Z"/><path class="cls-14" d="M1135.88,1113.86c-12.4,0-19.87-.67-22.89-2.44a2.53,2.53,0,1,1,2.57-4.37c4.89,2.87,36.36,1.62,69.68.28,9.79-.39,20.14-.81,30.76-1.17,47.73-1.61,96.9-3.06,127.54-1.75a2.54,2.54,0,0,1,2.42,2.65,2.66,2.66,0,0,1-2.64,2.42c-30.47-1.34-79.51.13-127.15,1.75-10.61.35-21,.77-30.73,1.16C1164.14,1113.25,1147.76,1113.86,1135.88,1113.86Z"/><path class="cls-14" d="M1113.77,1112a2.52,2.52,0,0,1-1.91-4.19c7-8,64.51-14.52,111.81-15.36,22.53-.33,70.2,5.77,101.72,9.85,5.27.68,10,1.3,14.12,1.81-10-6.58-37.88-20.31-66.63-30.13a2.53,2.53,0,1,1,1.65-4.79c18.37,6.27,75.4,29.61,73.5,37.91-.71,3.08-4.66,2.6-6,2.43-4.68-.56-10.61-1.33-17.34-2.21-31.37-4.06-78.92-10.19-101-9.8-56.7,1-103.92,8.82-108.08,13.61A2.5,2.5,0,0,1,1113.77,1112Z"/><path class="cls-14" d="M778.91,551.19a2.54,2.54,0,0,1-2-1c-.74-1-18.41-24.95-28.12-47.31a2.53,2.53,0,0,1,4.65-2c9.47,21.81,27.37,46.06,27.55,46.3a2.53,2.53,0,0,1-2,4Z"/><path class="cls-14" d="M756.93,505.7h-.27c-15.31-1.64-31.86-18.91-31.14-41.07.36-10.81,4.31-18.58,10.84-21.32,6-2.52,13.3-.39,20.08,5.84a2.53,2.53,0,0,1-3.43,3.73c-5.26-4.83-10.6-6.62-14.69-4.9-4.63,1.94-7.45,8.07-7.73,16.81-.62,18.83,13.54,34.47,26.61,35.87a2.53,2.53,0,0,1-.27,5.05Z"/><path class="cls-14" d="M942.56,511.42a2.53,2.53,0,0,1-1.55-4.54c.12-.09,11.79-9.26,17.54-27.77,2.84-9.17,2.67-16.5-.46-19.6-2-1.93-4.69-1.57-6.64-.95a2.53,2.53,0,0,1-1.56-4.82c4.65-1.51,8.83-.73,11.76,2.17,4.64,4.58,5.26,13.36,1.74,24.7-6.25,20.14-18.76,29.89-19.29,30.29A2.53,2.53,0,0,1,942.56,511.42Z"/><path class="cls-14" d="M869.37,487a2.53,2.53,0,0,1-2.51-2.21c-.79-6,.41-12.15,3.67-18.78a2.53,2.53,0,1,1,4.55,2.23c-2.84,5.79-3.86,10.84-3.2,15.89A2.52,2.52,0,0,1,869.7,487,1.84,1.84,0,0,1,869.37,487Z"/><path class="cls-14" d="M840.42,449.53a2.51,2.51,0,0,1-1.59-.56c-8.83-7.12-21.48-5.58-30.36-1.77a2.54,2.54,0,0,1-2-4.66c5-2.13,22.23-8.25,35.54,2.49a2.53,2.53,0,0,1-1.59,4.5Z"/><path class="cls-14" d="M929.92,451.81a2.51,2.51,0,0,1-1.91-.88c-3.9-4.52-16.59-9.24-28-2.58a2.54,2.54,0,1,1-2.56-4.38c13.35-7.81,28.79-2.8,34.36,3.65a2.52,2.52,0,0,1-.26,3.57A2.56,2.56,0,0,1,929.92,451.81Z"/><path class="cls-14" d="M753.86,482.7a2.54,2.54,0,0,1-2.44-1.86c-2.54-9.19-10.78-13.48-10.86-13.52a2.54,2.54,0,0,1,2.28-4.53c.42.21,10.32,5.29,13.46,16.7a2.54,2.54,0,0,1-1.76,3.12A2.71,2.71,0,0,1,753.86,482.7Z"/><path class="cls-14" d="M771.84,563.93a2.54,2.54,0,0,1-2.53-2.46c-.26-9-2.62-29.88-8-50.32a2.53,2.53,0,1,1,4.9-1.3c5.52,20.85,7.93,42.21,8.2,51.47a2.54,2.54,0,0,1-2.46,2.61Z"/><path class="cls-14" d="M945.5,479.27a2.63,2.63,0,0,1-.67-.09,2.54,2.54,0,0,1-1.78-3.11c1.78-6.56,5.5-36.43,5.62-55.59a2.5,2.5,0,0,1,2.55-2.52,2.54,2.54,0,0,1,2.52,2.55c-.12,18.74-3.7,49.15-5.8,56.89A2.52,2.52,0,0,1,945.5,479.27Z"/><path class="cls-14" d="M717.16,380.84a2.54,2.54,0,0,1-.65-5c8.82-2.36,10.14-11.45,11.71-27.31,1-10.36,2.18-22.09,7-33.21,11.39-26.42,46.58-43.22,64.56-36.48a2.53,2.53,0,0,1-1.78,4.74c-14.12-5.29-47.15,8.28-58.13,33.75-4.47,10.39-5.59,21.71-6.58,31.7-1.5,15.19-2.8,28.32-15.44,31.71A2.5,2.5,0,0,1,717.16,380.84Z"/><path class="cls-14" d="M735,446.82a2.53,2.53,0,0,1-2.49-2c-.28-1.43-7-35.31-5.92-47.1a2.53,2.53,0,1,1,5,.45c-1,11.07,5.79,45.32,5.85,45.66a2.53,2.53,0,0,1-2,3A2,2,0,0,1,735,446.82Z"/><path class="cls-14" d="M758.52,417.81a47.79,47.79,0,0,1-6.64-.49,2.53,2.53,0,1,1,.69-5c22.38,3.12,29.57-11.16,37.88-27.68,7.63-15.18,15.52-30.88,36.4-31.85a2.48,2.48,0,0,1,2.65,2.41,2.52,2.52,0,0,1-2.41,2.65c-17.93.84-24.82,14.55-32.11,29.06C787.32,402.12,779.44,417.81,758.52,417.81Z"/><path class="cls-14" d="M953.57,407c-34.91,0-49.92-19.48-62-35.2-10.39-13.48-17.91-23.2-34-17.76a2.53,2.53,0,1,1-1.62-4.8c19.58-6.61,29.34,6.06,39.67,19.47,12.28,15.92,26.29,34,60.13,33.19a2.54,2.54,0,0,1,.12,5.07Z"/><path class="cls-14" d="M961.77,446.16a2.56,2.56,0,0,1-2.49-3c1.9-10.19,4-19.8,6.1-29.09,9.64-43.48,16.6-74.89-14.85-95.62a2.53,2.53,0,0,1,2.79-4.23c34.36,22.65,26.7,57.2,17,100.95-2.05,9.25-4.17,18.81-6.07,28.92A2.52,2.52,0,0,1,961.77,446.16Z"/><path class="cls-14" d="M758,439.4a2.53,2.53,0,0,1-.32-5c6-.77,15-9.31,20-16.78a2.53,2.53,0,0,1,4.22,2.81c-4.5,6.75-14.88,17.87-23.57,19A1.83,1.83,0,0,1,758,439.4Z"/><path class="cls-15" d="M815,471.41c1.54-4.38,5.69-6.91,9.27-5.65s5.24,5.82,3.7,10.19-5.7,6.9-9.28,5.65S813.46,475.78,815,471.41Z"/><path class="cls-14" d="M829,334.54a2.53,2.53,0,0,1-2.5-2.16c-2-13.56-8-26.44-16.43-35.34a2.53,2.53,0,1,1,3.68-3.48c9.13,9.63,15.6,23.51,17.76,38.07a2.53,2.53,0,0,1-2.13,2.88A2.43,2.43,0,0,1,829,334.54Z"/><path class="cls-14" d="M840.59,354.15a2.54,2.54,0,0,1-2.53-2.54c0-12.25,13.59-20.14,23.39-21.12a2.53,2.53,0,1,1,.51,5c-7.7.77-18.84,6.94-18.84,16.08A2.54,2.54,0,0,1,840.59,354.15Z"/><path class="cls-15" d="M901.77,475.06c1.26-4.46,5.25-7.25,8.9-6.21s5.58,5.48,4.32,9.94-5.25,7.24-8.9,6.21S900.5,479.52,901.77,475.06Z"/><path class="cls-14" d="M955.67,302.14c-16.64,0-31.42-12-44.5-22.58-9.1-7.37-17.7-14.34-25.92-16.81-8.86-2.65-18.34-2.06-25.6-1.25-5.85.65-11.16,2.47-16.77,4.41l-2.54.87a67.74,67.74,0,0,0-20,10.43,2.53,2.53,0,0,1-3.11-4A72.52,72.52,0,0,1,838.71,262l2.51-.87c5.89-2,11.46-3.95,17.87-4.66,7.75-.86,17.89-1.47,27.61,1.44,9.18,2.75,18.16,10,27.66,17.73,13.45,10.89,27.34,22.15,42.75,21.41a2.53,2.53,0,1,1,.25,5.06C956.79,302.13,956.23,302.14,955.67,302.14Z"/><path class="cls-14" d="M854.42,606.82c-18.71,0-38.25-10.41-59.39-31.54a53.94,53.94,0,0,0-5.11-4.31c-2.92-2.27-5.95-4.62-8.27-7.87-5.17-7.24-5.17-16.74-5.18-25.92a80.34,80.34,0,0,0-.56-12,49.21,49.21,0,0,0-2-7.06c-1.66-5-3.38-10.12-2.66-14.64.61-3.9,2.16-6.59,4.61-8,3.83-2.23,8.88-.74,12.36.57h0c15.37,5.82,35.76,1.41,49.77-2.41,2.67-.73,6-2,9.49-3.39,6.44-2.52,13.09-5.12,18.49-5.43,10.16-.58,17.45,3.74,25.12,8.34,5.4,3.24,11,6.58,18.16,8.6,5.13,1.44,10.69,1.67,16.07,1.9,8.28.34,15.44.64,18.81,5.52,2.19,3.16,2.27,7.71.23,13.91-1.79,5.45-3.17,10.48-4.39,14.93-3.67,13.41-6.57,24-17.49,33.56-14,12.28-35.19,29.16-57.06,34A50.88,50.88,0,0,1,854.42,606.82ZM780.47,499.4a4.12,4.12,0,0,0-2.09.47c-1.06.61-1.78,2.1-2.15,4.42-.52,3.3,1.07,8.05,2.47,12.24a52.81,52.81,0,0,1,2.21,7.87,82.87,82.87,0,0,1,.63,12.78c0,8.38,0,17.05,4.24,23,1.88,2.64,4.49,4.66,7.25,6.81a58.36,58.36,0,0,1,5.58,4.72c24,24,45.46,33.46,65.69,29,20.74-4.61,41.22-21,54.82-32.88,9.77-8.55,12.36-18,16-31.09,1.23-4.5,2.62-9.6,4.46-15.18,1.48-4.52,1.62-7.7.42-9.44-1.94-2.8-8.22-3.06-14.86-3.34-5.41-.23-11.53-.49-17.23-2.08-7.82-2.2-14-5.88-19.39-9.13-7.29-4.37-13.58-8.14-22.22-7.64-4.6.28-11.16,2.84-17,5.1-3.64,1.42-7.07,2.76-10,3.56-14.69,4-36.16,8.59-52.9,2.26h0A18,18,0,0,0,780.47,499.4Z"/><path class="cls-14" d="M776.85,500.19a2.54,2.54,0,0,1-2.41-1.75c-.08-.23-7.84-23.76-14.87-39.05a2.53,2.53,0,0,1,4.6-2.12c7.15,15.56,15,39.35,15.09,39.59a2.54,2.54,0,0,1-1.62,3.2A2.42,2.42,0,0,1,776.85,500.19Z"/><path class="cls-14" d="M1286.5,1075a40.88,40.88,0,0,1-11.32-1.68,2.53,2.53,0,0,1,1.4-4.87c10.54,3,19.64,1.49,25.64-4.34,7.11-6.9,9-19.35,5.2-34.14-7.06-27.44-17.39-35.71-28.34-44.47-1.92-1.53-3.85-3.08-5.79-4.74a2.54,2.54,0,0,1,3.3-3.85c1.89,1.62,3.79,3.14,5.66,4.64,11.11,8.89,22.6,18.08,30.08,47.16,4.33,16.85,2,30.71-6.58,39C1300.82,1072.52,1294.11,1075,1286.5,1075Z"/><path class="cls-14" d="M980.53,728.34a2.54,2.54,0,0,1-2.49-2.09,464.68,464.68,0,0,0-12-51.82,2.53,2.53,0,1,1,4.85-1.46A468.37,468.37,0,0,1,983,725.37a2.53,2.53,0,0,1-2,2.93A2.28,2.28,0,0,1,980.53,728.34Z"/><path class="cls-14" d="M990.23,884.23a2.53,2.53,0,0,1-1.63-4.47c.72-.77.67-4.93.64-7.42,0-.94,0-1.89,0-2.83.16-19.85-.35-72-8.54-127a2.53,2.53,0,0,1,5-.74c8.25,55.33,8.76,107.77,8.6,127.75,0,.9,0,1.82,0,2.72.06,4.94.1,9.21-2.45,11.36A2.52,2.52,0,0,1,990.23,884.23Z"/><path class="cls-14" d="M964.88,724.56a2.53,2.53,0,0,1-2.49-2.08A377,377,0,0,0,952,679.13a2.53,2.53,0,0,1,4.84-1.5,379.44,379.44,0,0,1,10.53,43.94,2.54,2.54,0,0,1-2,2.95A3.42,3.42,0,0,1,964.88,724.56Z"/><path class="cls-14" d="M976.59,884.7a2.37,2.37,0,0,1-1.77-.79c-2.23-2.41-2.14-7.34-2-13l0-3c.12-41.89-1.57-77.62-5.15-109.22a2.53,2.53,0,0,1,5-.57c3.61,31.8,5.31,67.72,5.19,109.81l0,3.06c-.06,3.16-.16,8.47.69,9.51a2.57,2.57,0,0,1-2,4.22Z"/><path class="cls-14" d="M703.22,701.74H703a2.55,2.55,0,0,1-2.32-2.73c.84-10.1,2-20,3.52-29.42a2.54,2.54,0,0,1,5,.81c-1.48,9.29-2.65,19.06-3.47,29A2.54,2.54,0,0,1,703.22,701.74Z"/><path class="cls-14" d="M976.89,990.4a39.1,39.1,0,0,1-27.24-11,39.59,39.59,0,1,1,66.74-29.65h0a39.65,39.65,0,0,1-38.54,40.62Zm0-74.33h-.83a34.63,34.63,0,1,0,35.22,33.81h0a34.47,34.47,0,0,0-10.66-24.25A34.07,34.07,0,0,0,976.93,916.07Z"/><path class="cls-14" d="M978.89,970.51a22.93,22.93,0,0,1-16-6.43,23.37,23.37,0,0,1-.77-32.9A23,23,0,0,1,978.36,924c12.67-.43,23.39,9.91,23.7,22.73h0a23.21,23.21,0,0,1-6.39,16.6,22.9,22.9,0,0,1-16.22,7.21Zm0-41.47h-.42a18.16,18.16,0,0,0-17.65,18.63,18.13,18.13,0,0,0,5.6,12.75,17.57,17.57,0,0,0,12.91,5A17.9,17.9,0,0,0,992,959.82a18.17,18.17,0,0,0,5-13h0A18.18,18.18,0,0,0,978.9,929Z"/><path class="cls-14" d="M744.1,979a2.53,2.53,0,0,1-.62-5c6.54-1.64,13.71-7.06,17.13-11.32,7.33-9.13,10-23,8.86-46.49-1.07-22.47-3.32-44.09-7.52-72.28a2.53,2.53,0,1,1,5-.75c4.23,28.37,6.49,50.14,7.57,72.79,1.18,24.8-1.8,39.72-10,49.9-3.91,4.87-11.79,11-19.84,13.07A2.68,2.68,0,0,1,744.1,979Z"/><path class="cls-14" d="M655.51,839.66a2.53,2.53,0,0,1-2.35-1.59c-1.92-4.8-.42-15,1.9-28.85.59-3.51,1.14-6.83,1.51-9.57,5.6-42.27,11-75.51,13.53-82.73,2.85-8.24,10.59-14.41,21.8-17.37,16.68-4.38,36.84-1,46.93,7.91a2.53,2.53,0,0,1-3.35,3.8c-8.79-7.75-27.37-10.74-42.28-6.81-9.53,2.51-16,7.53-18.31,14.12-2.35,6.83-7.82,40.44-13.3,81.74-.37,2.8-.93,6.17-1.53,9.75-1.58,9.4-3.74,22.27-2.19,26.13a2.54,2.54,0,0,1-2.36,3.47Z"/><path class="cls-14" d="M765.43,845.14a2.27,2.27,0,0,1-.77-.13,2.52,2.52,0,0,1-1.64-3.18c1.1-3.44-1.52-16.52-3.25-25.18-.6-3-1.17-5.85-1.58-8.21a2.53,2.53,0,0,1,5-.88c.41,2.33,1,5.12,1.56,8.1,2.7,13.48,4.5,23.37,3.1,27.72A2.54,2.54,0,0,1,765.43,845.14Z"/><path class="cls-14" d="M656.22,959.25a2.55,2.55,0,0,1-1.69-.64c-9.72-8.64-12.92-23.62-10.37-48.56,1-9.47,2.61-21.15,4.7-35.95,1.47-10.47,3.15-22.36,4.91-35.8a2.53,2.53,0,0,1,5,.66c-1.76,13.46-3.44,25.36-4.92,35.85-2.07,14.74-3.72,26.38-4.67,35.75-2.34,22.85.43,36.91,8.7,44.26a2.54,2.54,0,0,1-1.68,4.43Z"/><path class="cls-14" d="M738.74,969.5a2.53,2.53,0,0,1-.2-5.06c11-.87,23.51-6.41,22.37-41.77-.52-16.2-3.29-47.89-8.14-79.14a2.53,2.53,0,1,1,5-.77c4.88,31.46,7.67,63.39,8.19,79.75,1,30.51-7.6,45.45-27,47Z"/><path class="cls-14" d="M666.83,841a2.53,2.53,0,0,1-2-4.15c1.65-2,1.9-6.15,2.36-13.68.18-2.91.38-6.33.72-10.37,3.23-39.37,9.88-77.24,11.89-84a20.21,20.21,0,0,1,11-12.57c8.45-4.09,20.34-4.16,30.29-.16a2.54,2.54,0,0,1-1.89,4.71c-8.54-3.44-19.07-3.43-26.19,0a15,15,0,0,0-8.39,9.44c-1.74,5.89-8.46,43.59-11.7,83-.33,4-.54,7.38-.71,10.27-.54,8.85-.81,13.29-3.51,16.58A2.54,2.54,0,0,1,666.83,841Z"/><path class="cls-14" d="M754.25,845.07a2.36,2.36,0,0,1-1.83-.84c-2-2.31-2.95-8.7-4.52-21.71-.49-4.08-1-8-1.47-11l-3.21-18.19a2.55,2.55,0,0,1,2.06-2.94,2.5,2.5,0,0,1,2.93,2.06l3.21,18.21c.52,3.08,1,7.1,1.51,11.26.79,6.48,2.1,17.33,3.35,19a2.56,2.56,0,0,1-2,4.12Z"/><path class="cls-14" d="M689.36,965.49l-.35,0c-19.94-2.81-39.86-10.7-36.4-48,1.36-14.56,5.11-43.93,9.51-78a2.54,2.54,0,1,1,5,.65c-4.4,34-8.15,63.33-9.49,77.81-3.21,34.62,14.86,40.1,32.05,42.52a2.53,2.53,0,0,1-.35,5Z"/><path class="cls-14" d="M702.69,969a2.5,2.5,0,0,1-.47-.05,2.53,2.53,0,0,1-2-3,10.57,10.57,0,0,0,.1-4.46c-.33-1.07-1-2.9-2.13-3.12-1.47-.28-4,1.53-5.85,3.37a9.56,9.56,0,0,1,.44,2,2.54,2.54,0,0,1-2.25,2.79,2.51,2.51,0,0,1-2.79-2.25,3.53,3.53,0,0,0-.48-1.53,2.63,2.63,0,0,1,.12-3.07c1-1.24,6.39-7.37,11.8-6.26,2.8.56,4.81,2.78,6,6.6a15.28,15.28,0,0,1,0,6.89A2.53,2.53,0,0,1,702.69,969Z"/><path class="cls-14" d="M725,971.79a2.53,2.53,0,0,1-2.52-2.4c-.34-6.21,1.1-13.3,6.15-14.56,7.17-1.8,12.33,7.8,12.89,8.9a2.53,2.53,0,1,1-4.5,2.32c-1.16-2.24-4.54-7-7.15-6.3-1.15.28-2.64,3.78-2.33,9.36a2.54,2.54,0,0,1-2.39,2.67Z"/><path class="cls-14" d="M739.16,977.36a2.5,2.5,0,0,1-1.36-.4,7.9,7.9,0,0,1-3.27-5.17c-.4-2.55.5-5.19,2.66-7.84a2.53,2.53,0,0,1,3.93,3.2c-.82,1-1.77,2.5-1.59,3.81a2.89,2.89,0,0,0,1.08,1.78,2.56,2.56,0,0,1,.64,3.51A2.52,2.52,0,0,1,739.16,977.36Z"/><path class="cls-14" d="M749.47,817.57a2.54,2.54,0,0,1-2.5-2.14,117.38,117.38,0,0,0-6.38-24.19,2.53,2.53,0,0,1,4.7-1.89,122.55,122.55,0,0,1,6.69,25.3,2.53,2.53,0,0,1-2.11,2.89Z"/><path class="cls-14" d="M670.39,819a2.92,2.92,0,0,1-.5-.05,2.53,2.53,0,0,1-2-3c6.88-34.33,23.64-52.11,30.67-55.33a25.7,25.7,0,0,1,21.2-.31,2.54,2.54,0,0,1-1.95,4.68,20.59,20.59,0,0,0-17.14.23c-6,2.76-21.38,19.63-27.81,51.73A2.54,2.54,0,0,1,670.39,819Z"/><path class="cls-14" d="M754.88,845.13a2.54,2.54,0,0,1-.77-5,16.39,16.39,0,0,0,1.75-.72c2.37-1.1,5.34-2.46,10.15.23a2.54,2.54,0,0,1-2.48,4.43c-2.55-1.43-3.55-1-5.55-.06a21.37,21.37,0,0,1-2.33,1A2.53,2.53,0,0,1,754.88,845.13Z"/><path class="cls-14" d="M666,840.61a2.53,2.53,0,0,1-1.34-.38c-3.09-1.94-5.54-1.8-8.47-1a2.54,2.54,0,0,1-1.41-4.87,14.34,14.34,0,0,1,12.56,1.51,2.54,2.54,0,0,1-1.34,4.69Z"/><path class="cls-14" d="M987.91,916.21a1.83,1.83,0,0,1-.33,0,2.54,2.54,0,0,1-2.18-2.85c1-7.71,1.23-19.08,1.38-28.22l.11-5.36a2.49,2.49,0,0,1,2.59-2.48,2.53,2.53,0,0,1,2.47,2.59l-.1,5.34c-.16,9.27-.36,20.8-1.43,28.81A2.52,2.52,0,0,1,987.91,916.21Z"/><path class="cls-14" d="M976.46,914.33l-.27,0a2.52,2.52,0,0,1-2.25-2.78,290.08,290.08,0,0,0,.87-30.24,2.54,2.54,0,0,1,2.46-2.61,2.7,2.7,0,0,1,2.61,2.46,296.84,296.84,0,0,1-.91,30.92A2.53,2.53,0,0,1,976.46,914.33Z"/><path class="cls-14" d="M990.61,882.68a2.53,2.53,0,0,1-2.39-1.71c-.07-.19-.21-.59-1.14-.85-2.6-.73-7,.68-7.91,1.47a2.53,2.53,0,1,1-3.24-3.89c2.13-1.78,8.2-3.67,12.51-2.47a6.47,6.47,0,0,1,4.57,4.09,2.53,2.53,0,0,1-1.57,3.22A2.37,2.37,0,0,1,990.61,882.68Z"/><path class="cls-14" d="M851.23,986.21a2.53,2.53,0,0,1-2.53-2.47c-1.59-60.21-11-116.8-17-132.9-5.51-14.94-14.15-28.88-22.49-42.35-7.63-12.31-15.51-25-21.16-38.67-10.72-25.93-24.22-64-33.44-128.52-3.95-27.65-4.2-50.72-.74-68.57,2.34-12.08,6.93-22.19,13.66-30a2.53,2.53,0,1,1,3.84,3.3c-6.14,7.17-10.36,16.48-12.53,27.7-3.35,17.29-3.08,39.8.79,66.89,9.14,64,22.49,101.64,33.11,127.29,5.48,13.26,13.26,25.81,20.77,37.94,8.49,13.69,17.26,27.85,22.94,43.27,6,16.42,15.68,73.77,17.28,134.52a2.54,2.54,0,0,1-2.47,2.6Z"/><path class="cls-14" d="M845.74,907.35a2.37,2.37,0,0,1-.52-.06,2.53,2.53,0,0,1-2-3c6.12-29.65,14.36-51.58,23.9-77,6.16-16.38,12.52-33.31,19.2-54.55A466.52,466.52,0,0,0,905,582.56a2.51,2.51,0,0,1,2.25-2.78A2.55,2.55,0,0,1,910,582,471,471,0,0,1,891.18,774.3c-6.72,21.38-13.1,38.38-19.28,54.82-9.47,25.19-17.64,46.94-23.68,76.21A2.55,2.55,0,0,1,845.74,907.35Z"/><path class="cls-14" d="M748.11,698a2.54,2.54,0,0,1-2.42-1.8h0s-2.33-5.67-17.92-15.12c-6.26-3.8-13.88-6.6-20.6-9.07-12.26-4.5-22.85-8.39-21.13-17,1.18-5.89,6.48-12.77,13.19-21.49,6-7.85,13.57-17.62,19.82-29.14,3.3-6.06,6.3-12.55,9.47-19.42,9.22-20,18.76-40.63,36.42-51.47a2.53,2.53,0,0,1,2.65,4.32c-16.35,10-25.56,30-34.47,49.27-3.06,6.64-6.24,13.51-9.61,19.72-6.45,11.87-14.11,21.82-20.27,29.81C696.93,644.79,692,651.26,691,656c-.87,4.36,8.25,7.71,17.91,11.26,6.93,2.55,14.79,5.43,21.47,9.48,17.48,10.6,19.93,17.26,20.15,18a2.55,2.55,0,0,1-1.69,3.17A2.65,2.65,0,0,1,748.11,698Z"/><path class="cls-14" d="M927.44,696a2.53,2.53,0,0,1-1.88-4.23c12-13.28,27-17.3,37-20l1.91-.52c2.88-.78,6-1.38,9-2,6.86-1.31,14-2.67,16.71-6,1.52-1.86-5.71-11.23-10.49-17.44-5-6.48-10.66-13.83-14.74-21.35a166.11,166.11,0,0,1-8.55-19.26c-4.69-12-10-25.6-24.63-48.17a2.54,2.54,0,0,1,4.26-2.75c14.88,23,20.31,36.85,25.09,49.07a157.68,157.68,0,0,0,8.29,18.7c3.88,7.16,9.41,14.33,14.29,20.67,8.4,10.89,14.47,18.76,10.4,23.74-3.91,4.78-11.57,6.24-19.68,7.79-2.93.56-6,1.14-8.64,1.87l-1.94.52c-9.39,2.51-23.57,6.3-34.56,18.47A2.54,2.54,0,0,1,927.44,696Z"/><path class="cls-14" d="M842,889a2.56,2.56,0,0,1-2.17-1.21c-14.74-24-46.45-50.17-67.44-67.49-5.22-4.3-9.8-8.09-13.35-11.19-15.81-13.83-48.19-52.49-58.83-65.19l-3-3.53c-.07-.08-6.12-7.49-3.24-12.08,1.94-3.11,6.45-4.64,10.08-5.87a32.81,32.81,0,0,0,3.13-1.15c3.09-1.44,6.15-2.79,9.19-4.12a174,174,0,0,0,20.47-10.06c7.25-4.35,12.51-15,17.15-24.41,1.85-3.74,3.59-7.28,5.38-10.25a2.53,2.53,0,1,1,4.34,2.61c-1.67,2.79-3.37,6.24-5.17,9.89-4.95,10-10.56,21.39-19.09,26.51a183.27,183.27,0,0,1-21,10.35c-3,1.32-6,2.65-9.09,4.07a37,37,0,0,1-3.64,1.36c-2.56.87-6.43,2.18-7.41,3.76-.29.87,1.26,4.27,2.81,6.12l3,3.54c10.58,12.63,42.77,51.07,58.28,64.64,3.52,3.07,8.06,6.82,13.24,11.09,21.24,17.54,53.35,44,68.53,68.74a2.53,2.53,0,0,1-.83,3.49A2.46,2.46,0,0,1,842,889Z"/><path class="cls-14" d="M846.36,909.53a2.51,2.51,0,0,1-1.3-.35,2.55,2.55,0,0,1-.88-3.48C859,880.83,879.67,860,899.63,839.94,916,823.41,931.54,807.8,942.82,791c15.37-22.92,29.26-39.86,35.94-48,2-2.4,3.31-4,3.85-4.8l.69-.93c3-4,3.08-5.18,3-5.5-5.56-4.17-12.48-5.41-19.82-6.71-5.11-.91-10.39-1.85-15.22-3.86-17-7.07-34.16-31.7-42.94-51.58a2.53,2.53,0,0,1,4.63-2.05c8.66,19.6,25.26,42.7,40.26,49,4.31,1.8,9.1,2.65,14.16,3.55,7.59,1.35,15.45,2.75,21.91,7.59a5.16,5.16,0,0,1,2,3.43c.47,3.39-2.29,7-3.95,9.23l-.58.79c-.58.82-2,2.55-4.08,5.1-6.63,8.09-20.42,24.91-35.66,47.62-11.54,17.21-27.21,33-43.79,49.69-19.75,19.89-40.16,40.45-54.7,64.79A2.52,2.52,0,0,1,846.36,909.53Z"/><path class="cls-14" d="M846.88,898.48a2.72,2.72,0,0,1-.63-.08,2.53,2.53,0,0,1-1.82-3.09c5.63-21.82,3.42-48,.61-81.13-1.59-18.85-3.4-40.21-3.89-63.62q-.18-9.3-.32-17.75c-.85-51.38-1.33-79.69-19.91-96.72-3.76-3.45-7.66-6.66-11.44-9.76-6-5-11.75-9.67-15.94-14.59-16.43-19.32-25.86-44.08-25.86-67.94a2.54,2.54,0,0,1,5.07,0c0,22.68,9,46.24,24.65,64.65,3.9,4.58,9.44,9.14,15.3,14,3.83,3.15,7.79,6.4,11.65,10,20.18,18.5,20.67,47.58,21.55,100.36q.14,8.44.32,17.73c.48,23.25,2.28,44.53,3.87,63.3,2.84,33.61,5.09,60.17-.76,82.83A2.53,2.53,0,0,1,846.88,898.48Z"/><path class="cls-14" d="M842.36,695.52a2.51,2.51,0,0,1-1.61-.58,2.54,2.54,0,0,1-.34-3.57c10.52-12.73,13.07-23.09,15.53-33.11,1.83-7.45,3.56-14.49,8.46-21.54,4-5.68,9-10.2,14.35-15,9.8-8.77,20-17.83,24.08-35.18a2.53,2.53,0,1,1,4.92,1.17c-4.49,18.9-15.72,28.94-25.62,37.79-5.12,4.58-10,8.9-13.56,14.09-4.37,6.28-5.92,12.57-7.71,19.86-2.47,10.08-5.28,21.51-16.54,35.13A2.56,2.56,0,0,1,842.36,695.52Z"/><path class="cls-14" d="M787.22,682a7.62,7.62,0,0,1-3.33-.75c-4.79-2.27-7.2-9.12-10.84-19.48a220.64,220.64,0,0,0-10.14-25.09c-11.62-23.62-9.94-39.82-7.83-60.33.35-3.29.7-6.71,1-10.29a2.47,2.47,0,0,1,2.74-2.3,2.52,2.52,0,0,1,2.3,2.74c-.31,3.61-.66,7-1,10.37-2,19.7-3.63,35.26,7.34,57.58a225.63,225.63,0,0,1,10.37,25.63c3,8.51,5.35,15.23,8.23,16.6a3.49,3.49,0,0,0,2.83-.08c3.38-1.22,6.56-7,9.93-13.13,6-10.89,13.44-24.43,28.44-25.6a2.46,2.46,0,0,1,2.72,2.32,2.52,2.52,0,0,1-2.33,2.72c-12.26,1-18.71,12.67-24.39,23-4,7.29-7.48,13.59-12.66,15.46A10,10,0,0,1,787.22,682Z"/><path class="cls-14" d="M897.21,678.49a6.24,6.24,0,0,1-3-.83c-4.49-2.45-7.1-8.81-9.85-15.55-4.77-11.67-8.83-19.86-17.58-18.8A2.48,2.48,0,0,1,864,641.1a2.54,2.54,0,0,1,2.22-2.82c13.23-1.58,18.58,11.44,22.86,21.91,2.3,5.62,4.68,11.44,7.59,13,.12.07.51.29.64.19,2.65-1.34,4.43-14.47,5.73-24,1.24-9.14,2.51-18.59,4.8-26.25a2.53,2.53,0,1,1,4.85,1.44c-2.17,7.29-3.42,16.54-4.63,25.49-2.19,16.19-3.67,25.47-8.46,27.89A5.13,5.13,0,0,1,897.21,678.49Z"/><path class="cls-14" d="M717.25,700.46a2.54,2.54,0,0,1-2.54-2.53c0-5.58,1-13.25,3-23.45a2.53,2.53,0,1,1,5,1c-2,9.88-2.93,17.22-2.93,22.46A2.53,2.53,0,0,1,717.25,700.46Z"/><path class="cls-14" d="M707.55,1063.24a9.25,9.25,0,0,1-8-4c-5.93-8.62,0-28.29,3-33,9.86-15.5,31.75-35.32,63.61-44.48a2.53,2.53,0,1,1,1.4,4.87c-39.38,11.32-57.5,37.25-60.73,42.34-2.59,4-7.21,21.42-3.12,27.36.74,1.08,2.18,2.42,5.94,1.63a2.54,2.54,0,0,1,1,5A15.53,15.53,0,0,1,707.55,1063.24Z"/><path class="cls-14" d="M700,1064.84c-2.26,0-4.7-.06-7.3-.14-1.93-.07-3.75-.13-5.33-.13-20-.09-52.16-1.14-63.78-2.08a2.53,2.53,0,0,1,.41-5c11.53.93,43.52,2,63.39,2.06,1.63,0,3.49.07,5.47.13,5.64.18,17.38.55,19-1.77a2.53,2.53,0,1,1,4.18,2.85C713.78,1064.06,708.05,1064.84,700,1064.84Z"/><path class="cls-15" d="M1977.18,484.59c-1-4.37-4.4-7.11-7.71-6.13s-5.22,5.33-4.27,9.7,4.4,7.12,7.7,6.13S1978.13,489,1977.18,484.59Z"/><path class="cls-14" d="M2195.31,636.16a2.53,2.53,0,0,1-2.11-1.12c-11.36-17-25.3-55.58-25.73-71.09a2.54,2.54,0,0,1,2.47-2.6h.07a2.53,2.53,0,0,1,2.53,2.46c.36,13.39,13.29,51,24.87,68.41a2.54,2.54,0,0,1-.7,3.52A2.49,2.49,0,0,1,2195.31,636.16Z"/><path class="cls-14" d="M2330,888.39a2.54,2.54,0,0,1-1.31-4.71c34.8-20.79,39.11-91.06,19.72-140-11.25-28.39-25.15-52.5-36.33-71.87-7.59-13.16-14.14-24.53-17.84-33.76-14.74-36.74-15.74-83.83-16.71-129.37-.59-27.19-1.13-52.88-4.52-75.45-.3-2-.6-4.24-.93-6.62-2.88-20.94-7.71-56-27.91-68.89-9.27-5.91-21.17-6.7-35.42-2.32a2.54,2.54,0,0,1-1.48-4.85c15.71-4.82,29-3.85,39.62,2.9,22.18,14.15,27.21,50.66,30.21,72.47.32,2.36.63,4.56.92,6.56,3.44,22.89,4,48.74,4.57,76.1,1,45.08,2,91.7,16.35,127.58,3.57,8.9,10,20.12,17.53,33.11,11.26,19.52,25.27,43.82,36.65,72.54,20.14,50.83,15.09,124.16-21.82,146.22A2.58,2.58,0,0,1,2330,888.39Z"/><path class="cls-14" d="M2265.42,723.61a2.44,2.44,0,0,1-.59-.07c-43.76-10.59-76-108.72-70.69-178.64a2.49,2.49,0,0,1,2.72-2.34,2.55,2.55,0,0,1,2.34,2.72c-5.15,68,25.28,163.28,66.82,173.33a2.54,2.54,0,0,1-.6,5Z"/><path class="cls-14" d="M2298.55,910.21a2.54,2.54,0,0,1-2-4.14c31.68-39,.3-136.94-22-169.57a2.53,2.53,0,1,1,4.18-2.86c22.91,33.58,54.87,134.75,21.71,175.63A2.55,2.55,0,0,1,2298.55,910.21Z"/><path class="cls-14" d="M1943.93,437.24h0a2.53,2.53,0,0,1-2.49-2.57c.38-27.05,12.78-55.52,28.22-64.81a2.54,2.54,0,0,1,2.61,4.35c-13.86,8.33-25.41,35.49-25.77,60.53A2.53,2.53,0,0,1,1943.93,437.24Z"/><path class="cls-14" d="M1945.08,501a2.53,2.53,0,0,1-1.79-4.32c1.2-1.2,2.75-7.62,2.36-14.57a2.53,2.53,0,0,1,2.38-2.67,2.47,2.47,0,0,1,2.67,2.39c.39,6.69-.83,15.43-3.83,18.43A2.49,2.49,0,0,1,1945.08,501Z"/><path class="cls-14" d="M1956.45,460.46a2.54,2.54,0,0,1-1-4.85c5-2.24,15.69-5.39,31.26-1.43a2.53,2.53,0,0,1-1.24,4.91c-14.09-3.58-23.56-.82-28,1.14A2.57,2.57,0,0,1,1956.45,460.46Z"/><path class="cls-14" d="M2097.38,549.56a2.54,2.54,0,0,1-.17-5.07c15.64-1.1,25.87-12.4,30.57-19,8.13-11.47,10.72-23.57,9.07-29.61-2-7.28-6.86-12.78-13-14.72-7.36-2.31-16.12.51-25.33,8.18a2.54,2.54,0,0,1-3.24-3.9c13.39-11.14,23.75-11.11,30.09-9.11,7.82,2.46,13.95,9.27,16.4,18.22,2.32,8.51-1.71,22.44-9.82,33.87-9,12.72-21.22,20.24-34.36,21.17Z"/><path class="cls-14" d="M2104.41,516.88a2.45,2.45,0,0,1-1.37-.4,2.52,2.52,0,0,1-.76-3.5c3-4.63,10.23-10,15.9-10.33a2.51,2.51,0,0,1,2.67,2.39,2.54,2.54,0,0,1-2.39,2.67c-3.49.19-9.5,4.23-11.92,8A2.53,2.53,0,0,1,2104.41,516.88Z"/><path class="cls-14" d="M1923.68,435.75a2.56,2.56,0,0,1-1.9-.86c-14-15.92-16.89-35.74-8.17-55.8,12.52-28.8,45.71-50.41,78.91-51.38a2.63,2.63,0,0,1,2.61,2.46,2.53,2.53,0,0,1-2.46,2.6c-31.34.92-62.63,21.25-74.41,48.34-7.9,18.16-5.3,36.07,7.33,50.43a2.53,2.53,0,0,1-1.91,4.21Z"/><path class="cls-14" d="M2083.49,487.51h0c-46.26,0-57.61-37.77-66.72-68.09-6.21-20.67-11.58-38.52-26-39.09a2.54,2.54,0,0,1-2.44-2.63,2.37,2.37,0,0,1,2.63-2.43c18.09.71,23.93,20.16,30.7,42.69,9.08,30.21,19.38,64.46,61.87,64.48a2.54,2.54,0,0,1,0,5.07Z"/><path class="cls-14" d="M2160.62,564.92a2.53,2.53,0,0,1-.17-5.06c22.48-1.48,37.36-18.93,45.88-33.3,20.89-35.22,26.5-90.92,12.26-121.62a2.53,2.53,0,1,1,4.59-2.14c15.12,32.58,9.51,89.25-12.49,126.35-13.11,22.11-30.37,34.48-49.9,35.77Z"/><path class="cls-14" d="M2212.52,380.38a2.54,2.54,0,0,1-2.49-2.12c-4.35-25.9-19-45.36-43.53-57.86-43.15-22-100.79-22.26-150.41-.73a2.53,2.53,0,1,1-2-4.65c51-22.12,110.28-21.78,154.73.87,26,13.26,41.6,34,46.23,61.53a2.54,2.54,0,0,1-2.08,2.92A2.09,2.09,0,0,1,2212.52,380.38Z"/><path class="cls-14" d="M2055.44,706.84a2.39,2.39,0,0,1-.87-.16,2.53,2.53,0,0,1-1.5-3.25c8.17-22.2.35-48.4-23.26-77.89l-.92-1.15a2.53,2.53,0,0,1,4-3.14l.9,1.13c24.79,31,32.88,58.82,24.05,82.8A2.53,2.53,0,0,1,2055.44,706.84Z"/><path class="cls-14" d="M2157.29,472.13a2.53,2.53,0,0,1-.27-5.05c20.24-2.17,41.91-26.49,49.34-55.37a2.53,2.53,0,0,1,4.91,1.26c-8.05,31.3-31.14,56.72-53.71,59.15Z"/><path class="cls-14" d="M1982.2,1068.91a2.53,2.53,0,0,1-2.51-2.26c-1.79-16.86-6.74-26.06-12-35.8-5.47-10.17-11.12-20.68-12.67-40-2.15-26.83,6.43-44.39,15.52-63,3.67-7.51,7.47-15.28,10.77-24,1.73-4.6,3.52-9.18,5.34-13.85,7.25-18.61,15.47-39.7,23.62-70.52.13-.48.35-1.4.66-2.7,15.53-65.18,34-101.92,46.83-121.26,34.56-52.24,84.71-67.43,153.3-46.37a2.53,2.53,0,0,1-1.48,4.84c-67.07-20.58-114-6.48-147.59,44.33-12.57,19-30.78,55.18-46.13,119.64-.33,1.35-.55,2.31-.69,2.82-8.22,31.1-16.5,52.32-23.8,71.06-1.82,4.66-3.59,9.22-5.32,13.8-3.39,9-7.24,16.85-11,24.47-9.15,18.73-17.06,34.9-15,60.35,1.46,18.25,6.62,27.84,12.08,38,5.24,9.74,10.66,19.82,12.55,37.66a2.54,2.54,0,0,1-2.25,2.79Z"/><path class="cls-14" d="M2097,1070.63a2.52,2.52,0,0,1-2.47-2c-23-104.8-43.41-252.48-33.83-329.08a2.53,2.53,0,0,1,5,.63c-9.51,76,10.83,223,33.74,327.36a2.52,2.52,0,0,1-1.93,3A2.48,2.48,0,0,1,2097,1070.63Z"/><path class="cls-14" d="M2345.7,1274.45a2.55,2.55,0,0,1-2.43-1.81c-22.86-76.4-26.66-177.09-30-265.92-1.12-29.76-2.18-57.87-3.87-84.13a2.53,2.53,0,0,1,2.37-2.69,2.51,2.51,0,0,1,2.69,2.36c1.69,26.34,2.76,54.48,3.88,84.26,3.34,88.53,7.12,188.88,29.8,264.67a2.53,2.53,0,0,1-1.7,3.15A2.64,2.64,0,0,1,2345.7,1274.45Z"/><path class="cls-14" d="M2008.85,1099.43h-.79c-27.7-.1-48-4-64.28-7.07s-29.3-5.6-43.31-3.37a2.57,2.57,0,0,1-2.9-2.11,2.54,2.54,0,0,1,2.11-2.9c14.88-2.35,28.19.18,45,3.4,16.09,3.07,36.12,6.88,63.35,7h.77c30.86,0,56-6.71,78.19-12.65,28.79-7.7,53.64-14.34,78.12-1.35a2.53,2.53,0,1,1-2.37,4.47c-22.72-12-45.55-5.95-74.44,1.78C2065.85,1092.62,2040.37,1099.43,2008.85,1099.43Z"/><path class="cls-14" d="M1890.12,1093.81h-.25c-25.4-2.48-47.13-15.39-64.59-38.37l-.43-.56a160.23,160.23,0,0,1-8.86-13.37c-7.22-11.73-14-22.81-26.19-23.89-5-.44-12-.43-18.72-.41-7.46,0-15.17,0-20.93-.55-9.18-.92-21.27.53-27.76,7.39-4,4.25-5.47,10.2-4.29,17.68a2.53,2.53,0,1,1-5,.79c-1.44-9.11.45-16.5,5.61-22,9.75-10.31,26.92-9.44,32-8.93,5.5.55,13.06.52,20.4.51,7.18,0,13.92,0,19.19.44,14.68,1.3,22.49,14,30,26.27,2.7,4.38,5.48,8.9,8.58,13l.43.57c16.58,21.81,37.11,34.06,61,36.39a2.54,2.54,0,0,1-.24,5.06Z"/><path class="cls-14" d="M1711.32,1065a2.54,2.54,0,0,1-2.5-2.14c-1.84-11.7,2.54-21.67,12-27.35,5.38-3.22,26.46-6.26,43.36-6.26a2.54,2.54,0,1,1,0,5.07c-17,0-36.59,3-40.76,5.54-7.6,4.56-11.1,12.65-9.6,22.21a2.53,2.53,0,0,1-2.11,2.9A2.6,2.6,0,0,1,1711.32,1065Z"/><path class="cls-14" d="M1707.83,1098.48a2.53,2.53,0,0,1-2.47-2c-3.27-15.56-2.86-25.16,1.32-31.1,2.66-3.78,6.86-6,12.82-6.86,11.13-1.56,27.85,1.79,35.89,3.4,1.68.34,3,.6,3.72.71a2.52,2.52,0,0,1,2.12,2.88,2.55,2.55,0,0,1-2.88,2.13c-.8-.12-2.16-.39-3.95-.75-7.77-1.55-24-4.77-34.2-3.36-4.56.64-7.54,2.15-9.37,4.76-3.26,4.64-3.42,13.26-.51,27.16a2.52,2.52,0,0,1-2,3A2.33,2.33,0,0,1,1707.83,1098.48Z"/><path class="cls-14" d="M1792.38,1170.3a41.53,41.53,0,0,1-25.5-8.72c-7.65-6.25-9.69-15.39-11-21.43-.25-1.15-.48-2.18-.72-3.06s-.56-1.74-.92-2.76c-1.81-5.09-4.84-13.62,2.7-16.86,10-4.31,17.65,8.08,20.17,12.15a60.33,60.33,0,0,1,4.46,9c1.49,3.51,2.77,6.54,5.69,9.92a49.18,49.18,0,0,0,8,7.55,2.54,2.54,0,0,1-2.89,4.17,54.36,54.36,0,0,1-9-8.41c-3.45-4-4.94-7.51-6.52-11.26a56.05,56.05,0,0,0-4.11-8.29c-7.87-12.75-12.38-10.79-13.86-10.16-2.68,1.15-2.08,4.44.07,10.51.41,1.14.78,2.19,1,3.09s.51,2.07.79,3.32c1.27,5.68,3,13.46,9.3,18.61,9.86,8,27.64,11.19,39.19,2.22a2.53,2.53,0,0,1,3.11,4A32.23,32.23,0,0,1,1792.38,1170.3Z"/><path class="cls-14" d="M1763.69,1158.49a2.46,2.46,0,0,1-.92-.17c-1.29-.5-31.78-12.58-33.19-35.21-.1-1.71-.24-3.45-.37-5.2-.81-11-1.52-20.53,2.41-24.73a6.43,6.43,0,0,1,4.81-2h.07c12.84.09,15,18.59,17,34.91.83,7,1.62,13.51,3.11,17.13a2.53,2.53,0,0,1-1.38,3.3,2.51,2.51,0,0,1-3.31-1.37c-1.75-4.26-2.58-11.16-3.45-18.46-1.62-13.54-3.63-30.38-12-30.45a1.48,1.48,0,0,0-1.14.45c-2.41,2.57-1.66,12.73-1,20.89.13,1.76.26,3.53.37,5.25,1.21,19.43,29.68,30.7,30,30.81a2.53,2.53,0,0,1-.91,4.89Z"/><path class="cls-14" d="M1733.78,1134.7h-.2a24.89,24.89,0,0,1-17.9-9.36c-6.47-8-9.09-20.53-7.19-34.21l.46-3.4c1.26-9.62,2.25-17.22,10.19-18.18a7.41,7.41,0,0,1,5.86,1.86c5,4.21,7.27,15,7.72,23.74.2,3.8.22,7,.23,10,0,5.58,0,10,1.33,15.22a2.53,2.53,0,0,1-4.92,1.21c-1.43-5.81-1.45-10.72-1.48-16.4,0-2.87,0-6-.21-9.74-.49-9.32-2.93-17.6-5.93-20.13a2.53,2.53,0,0,0-2-.7c-3.69.45-4.47,3.94-5.77,13.81l-.46,3.44c-1.71,12.31.52,23.36,6.12,30.33a19.71,19.71,0,0,0,14.34,7.49,2.53,2.53,0,0,1-.19,5.06Z"/><path class="cls-14" d="M1712.46,1121c-10.74,0-25.4-10.4-30.11-21.57-2.57-6.09-3.3-17.37-.25-23.82,1.54-3.27,3.69-4.5,5.22-5,4.25-1.28,10-.13,13.44,6.86,1,2,2,4.44,3,7,1.89,4.56,4.23,10.22,6,11.88a2.54,2.54,0,1,1-3.45,3.72c-2.59-2.41-4.86-7.88-7.25-13.66-1-2.45-2-4.82-2.92-6.7-2.42-4.9-5.69-4.78-7.44-4.25a3.84,3.84,0,0,0-2.09,2.26c-2.33,4.94-1.72,14.81.34,19.69,4,9.46,17.41,18.92,26.06,18.45a2.42,2.42,0,0,1,2.67,2.39,2.53,2.53,0,0,1-2.38,2.67C1713.07,1121,1712.77,1121,1712.46,1121Z"/><path class="cls-14" d="M2152.94,1224.53a2.53,2.53,0,1,1,0-5.06c42.06,0,83.83-2.28,92.27-29.41,4.93-15.9,6.72-44.61,5.45-87.75l-.46-16.81c-1.75-65.28-5-186.78-21.21-266.83a2.54,2.54,0,0,1,5-1c16.3,80.49,19.55,202.27,21.3,267.7l.47,16.81c1.28,43.71-.58,72.95-5.68,89.39C2240.59,1222,2196.89,1224.53,2152.94,1224.53Z"/><path class="cls-14" d="M1885.49,1170.62a2.43,2.43,0,0,1-.75-.11c-.18-.06-18.27-5.58-33.31-6.09-26-.91-50.34-2.19-62.71-7.78a2.54,2.54,0,1,1,2.09-4.62c12.48,5.64,41.55,6.66,60.8,7.33,15.72.54,33.86,6.08,34.62,6.32a2.53,2.53,0,0,1-.74,4.95Z"/><path class="cls-14" d="M2112.45,1223.63c-82.53,0-166.19-14.61-202.77-29.9-27.3-11.4-38.63-48.2-33.82-77.19,3.28-19.76,13.57-32.12,27.5-33a2.54,2.54,0,1,1,.34,5.06c-11.43.76-20,11.54-22.84,28.82-4.4,26.46,6.12,61.39,30.77,71.69,38.64,16.15,130.7,31.51,217.84,29.29a2.56,2.56,0,0,1,2.6,2.47,2.53,2.53,0,0,1-2.47,2.6C2123.91,1223.56,2118.17,1223.63,2112.45,1223.63Z"/><path class="cls-14" d="M2138.11,562a2.79,2.79,0,0,1-.8-.13c-9.35-3.12-19.34-10.49-19.34-21.82a2.54,2.54,0,1,1,5.07,0c0,8.64,8.2,14.45,15.87,17a2.53,2.53,0,0,1-.8,4.94Z"/><path class="cls-14" d="M1981,637a58.46,58.46,0,0,1-6.61-.36c-18.51-2.11-28.31-26.2-30.37-41.88-1.88-14.26-5.12-23.8-10-38.24l-1.15-3.37c-.48-1.44-1.07-3-1.71-4.74-3.45-9.3-7.75-20.88-4.4-29.38.84-2.15,1.59-4.16,2.29-6,2.35-6.33,4.2-11.33,7.4-15h0c1-1.19,2.47-2.56,4.4-2.58s3.22,1.34,4.31,2.54a10,10,0,0,0,2.82,2.39l5,2.57a219.83,219.83,0,0,0,22.47,10.57,54.49,54.49,0,0,0,28.19,3.11c.84-.15,2-.39,3.29-.67,11.1-2.35,22.29-4.22,26.77.9,1.7,1.95,1.33,5.46,0,15.33-1.32,10.07-3.12,23.86-.81,33.94,3.83,16.65,11.34,21.75,16.83,25.47,3.69,2.51,7.51,5.1,6.32,10.52-2.38,10.91-21,20.91-30.6,24.68C2008.12,633.6,1993.21,637,1981,637Zm-40.77-135.69c-2.59,3-4.3,7.59-6.47,13.43-.71,1.92-1.47,4-2.33,6.14-2.63,6.7,1.46,17.72,4.44,25.77.66,1.75,1.26,3.39,1.76,4.87l1.15,3.37c5,14.72,8.32,24.45,10.27,39.21,1.78,13.56,10.4,35.73,25.92,37.51,12.54,1.44,28.87-1.79,48.61-9.57,10.42-4.11,25.84-13.36,27.51-21.05.41-1.9-.37-2.64-4.22-5.24-5.83-4-14.65-9.94-18.92-28.53-2.52-11-.64-25.29.72-35.73.61-4.66,1.38-10.44,1-11.69-2.68-3-16.48,0-21.69,1.07-1.4.3-2.59.55-3.48.7a59.57,59.57,0,0,1-30.86-3.37,224.16,224.16,0,0,1-23-10.79l-5-2.56a14.61,14.61,0,0,1-4.27-3.51c-.18-.19-.39-.43-.58-.62a5.64,5.64,0,0,0-.56.59Z"/><path class="cls-14" d="M2055.16,602.46a2.53,2.53,0,0,1-1.29-4.71c28.31-16.78,47.71-36.27,54.62-54.86a2.53,2.53,0,1,1,4.75,1.76c-7.31,19.68-27.47,40.08-56.79,57.46A2.5,2.5,0,0,1,2055.16,602.46Z"/><path class="cls-14" d="M2032.66,521.62a2.53,2.53,0,0,1-.68-5c21.62-6,54.14-24.25,54.46-24.43a2.54,2.54,0,0,1,2.49,4.42c-1.35.76-33.38,18.69-55.58,24.89A2.72,2.72,0,0,1,2032.66,521.62Z"/><path class="cls-14" d="M1859.9,661a2.54,2.54,0,0,1,0-5.07,25.26,25.26,0,0,0,19.58-10.15c5-6.44,7-14.54,5.26-21.67-1.35-5.62-4.52-9.53-9.18-11.3a16.91,16.91,0,0,0-14.86,1.58,2.53,2.53,0,0,1-2.89-4.16,22,22,0,0,1,19.56-2.15c4.38,1.66,10.08,5.59,12.3,14.84,2.08,8.62-.23,18.33-6.19,26a30.33,30.33,0,0,1-23.53,12.1Z"/><path class="cls-14" d="M1861.3,641.17a2.54,2.54,0,0,1-2-4.06c5.29-7.07,11.11-9.15,11.36-9.24a2.54,2.54,0,0,1,1.67,4.79c-.08,0-4.69,1.76-9,7.49A2.54,2.54,0,0,1,1861.3,641.17Z"/><path class="cls-15" d="M1758.59,632.25c2.87.07,5.26-2.59,5.35-6s-2.17-6.13-5-6.21-5.26,2.59-5.35,5.95S1755.72,632.17,1758.59,632.25Z"/><path class="cls-14" d="M1738.24,636.22a2.46,2.46,0,0,1-1.52-.51,2.52,2.52,0,0,1-.51-3.54,13.05,13.05,0,0,0,1.46-13.14,2.53,2.53,0,0,1,4.62-2.08,18.13,18.13,0,0,1-2,18.25A2.52,2.52,0,0,1,1738.24,636.22Z"/><path class="cls-14" d="M1842.78,629.93a19.89,19.89,0,0,1-11.6-3.48c-5.13-3.58-8.41-9.58-9.49-17.35a2.54,2.54,0,0,1,2.16-2.86,2.56,2.56,0,0,1,2.86,2.16c.88,6.34,3.43,11.15,7.37,13.9,3.54,2.46,8.18,3.18,13.46,2a2.5,2.5,0,0,1,3,1.93,2.54,2.54,0,0,1-1.93,3A28,28,0,0,1,1842.78,629.93Z"/><path class="cls-14" d="M1890.1,675.24a2.69,2.69,0,0,1-.4,0,30.62,30.62,0,0,1-14.72-6.77,2.53,2.53,0,1,1,3.21-3.92,25.68,25.68,0,0,0,12.3,5.68,2.54,2.54,0,0,1-.39,5Z"/><path class="cls-14" d="M1928,521.78a2.52,2.52,0,0,1-2.14-1.17c-15.13-23.88-50.17-33-75.44-29.5a2.56,2.56,0,0,1-2.86-2.16,2.53,2.53,0,0,1,2.16-2.86c26.88-3.73,64.16,6.14,80.42,31.8a2.53,2.53,0,0,1-.79,3.5A2.48,2.48,0,0,1,1928,521.78Z"/><path class="cls-14" d="M1732.31,522.65a2.5,2.5,0,0,1-1.06-.23,2.54,2.54,0,0,1-1.24-3.36c9.72-21.06,37.45-35.51,59.84-38.89,17.47-2.65,31.68.94,39.92,10.1a2.54,2.54,0,0,1-3.77,3.39c-7.06-7.85-19.62-10.87-35.39-8.48-24.54,3.71-48.09,18.85-56,36A2.51,2.51,0,0,1,1732.31,522.65Z"/><path class="cls-14" d="M1839.8,611.06h-.09c-18.9-.68-65.25-5.09-87.34-31.34-9.66-11.48-13.41-25.72-11.13-42.33a2.53,2.53,0,1,1,5,.69c-2.06,15.13,1.3,28,10,38.37,21.37,25.4,69.42,29,83.64,29.55a2.53,2.53,0,0,1-.09,5.06Z"/><path class="cls-14" d="M1735.24,601.47a2.53,2.53,0,0,1-2.48-2c-2.93-14.54,2.88-39.92,8-47.54a2.53,2.53,0,0,1,4.22,2.8c-4.62,7-9.83,30.72-7.2,43.74a2.54,2.54,0,0,1-2,3A2.83,2.83,0,0,1,1735.24,601.47Z"/><path class="cls-14" d="M1705.47,576.23a2.54,2.54,0,0,1-2.34-1.55c-3-7.19-1.88-16.53,3.07-25.64,5.28-9.72,13.58-16.67,21.65-18.13a2.54,2.54,0,0,1,.9,5c-6.5,1.18-13.6,7.29-18.1,15.56-4.15,7.64-5.22,15.59-2.85,21.26a2.53,2.53,0,0,1-1.36,3.32A2.5,2.5,0,0,1,1705.47,576.23Z"/><path class="cls-14" d="M1823.36,767a2.54,2.54,0,0,1-2.54-2.46c-.69-22.37-17.46-48.46-17.63-48.72a2.53,2.53,0,0,1,4.25-2.76c.72,1.11,17.7,27.52,18.45,51.33a2.53,2.53,0,0,1-2.45,2.61Z"/><path class="cls-14" d="M1748.59,606.84a2.53,2.53,0,0,1-1.1-4.81c6-2.89,14.12-3.18,21.76-.78a2.53,2.53,0,0,1-1.52,4.83c-6.44-2-13.19-1.83-18,.51A2.52,2.52,0,0,1,1748.59,606.84Z"/><path class="cls-14" d="M1791.5,1014.75h-.09a2.53,2.53,0,0,1-2.44-2.62c.49-13.22,5.39-25.09,11.58-40.11,5.21-12.61,11.11-26.91,15.9-45.7,6.13-24,10.24-49.12,13.86-71.28,2.61-16,5.08-31.08,8-44.19,4.77-21.35,12.46-45.41,33.21-62.06a2.53,2.53,0,0,1,3.17,4c-19.54,15.67-26.85,38.73-31.43,59.22-2.9,13-5.36,28-8,43.9-3.64,22.26-7.77,47.49-14,71.72-4.88,19.14-10.85,33.61-16.12,46.37-6,14.56-10.75,26-11.2,38.36A2.54,2.54,0,0,1,1791.5,1014.75Z"/><path class="cls-14" d="M1872.52,1061.7a2.49,2.49,0,0,1-1.38-.4,2.54,2.54,0,0,1-.75-3.51c31.73-49.11,58.75-134.95,68.06-190.79a2.53,2.53,0,0,1,5,.83c-9.39,56.34-36.69,143-68.8,192.72A2.53,2.53,0,0,1,1872.52,1061.7Z"/><path class="cls-14" d="M1781.07,992.52a2.54,2.54,0,0,1-2.42-1.79c-5.22-17.12-3-43.7-1.17-65.07.45-5.4.88-10.45,1.14-14.87.79-13.31.41-32.68.11-48.25l-.18-10.28a2.53,2.53,0,0,1,2.49-2.57h0a2.53,2.53,0,0,1,2.53,2.5l.19,10.25c.3,15.66.68,35.15-.12,48.65-.27,4.47-.7,9.55-1.16,15-1.76,20.93-4,47,1,63.16a2.53,2.53,0,0,1-1.69,3.16A2.33,2.33,0,0,1,1781.07,992.52Z"/><path class="cls-14" d="M1819.22,785.42a10.5,10.5,0,0,1-7.78-3.68,2.53,2.53,0,1,1,3.7-3.46c1.73,1.85,3.15,2.07,4.08,2.07h0c5.51,0,13.64-8.85,24-20q2.77-3,5.81-6.26c28.54-30.48,52.17-42.28,70.19-35.06,17.47,7,29.53,22,34.08,27.68a2.53,2.53,0,0,1-4,3.17c-4.32-5.37-15.78-19.66-32-26.15-15.91-6.34-37.64,5-64.61,33.82-2,2.15-3.94,4.24-5.78,6.24-11.58,12.56-19.94,21.63-27.66,21.66Z"/><path class="cls-14" d="M1709,974.77a2.56,2.56,0,0,1-.93-.18,2.53,2.53,0,0,1-1.42-3.29c3.43-8.7,8.72-16.62,13.84-24.28a170.7,170.7,0,0,0,10.73-17.51c14.2-28.11,23.33-47.88,30.85-71.86,1.46-4.65,2.88-9.63,4.43-15.07,3.09-10.83,6.6-23.11,12-38.38,8.55-24.43,22.93-36.18,42.31-50.11a2.53,2.53,0,1,1,3,4.11c-19.21,13.81-32.41,24.59-40.49,47.67-5.3,15.13-8.78,27.34-11.86,38.1-1.56,5.49-3,10.51-4.46,15.19-7.63,24.32-16.84,44.29-31.17,72.64a176.28,176.28,0,0,1-11,18c-5,7.43-10.11,15.12-13.35,23.32A2.53,2.53,0,0,1,1709,974.77Z"/><path class="cls-14" d="M1574.74,1008.46a178.3,178.3,0,0,1-35.82-3.68,2.54,2.54,0,1,1,1-5c36.62,7.47,64,1.69,88.1-3.4l3.06-.65c11.42-2.4,23.35-6.67,33.87-10.45,12.36-4.43,23-8.26,30.68-8.44h0a2.54,2.54,0,0,1,0,5.07c-6.81.15-17.12,3.86-29.08,8.14-10.67,3.83-22.76,8.17-34.53,10.64l-3.05.65C1613,1004.77,1595.47,1008.46,1574.74,1008.46Z"/><path class="cls-14" d="M1678.94,1102.33c-3.38,0-8.77-.19-17.49-.77-32.27-2.16-70.92-6.28-79.49-10.22-3.49-1.6-5.83-5.31-7-11-3.07-15.54,3.59-43.66,10.42-51,6.37-6.84,15.5-4.75,25.17-2.53a91.37,91.37,0,0,0,15.7,2.64l.58,0c16.1.88,32.77,1.78,49.09-1.73,15.79-3.41,36.08-7.66,43.06-8.53a2.53,2.53,0,1,1,.63,5c-6.8.85-26.93,5.07-42.62,8.45-17,3.67-34,2.74-50.44,1.84l-.58,0a96.91,96.91,0,0,1-16.56-2.76c-10.18-2.34-16.14-3.45-20.32,1-5.3,5.69-12.07,31.84-9.16,46.56.55,2.77,1.71,6.3,4.11,7.41,6.63,3,40,7.25,77.71,9.76,16.83,1.13,20.41.72,21,.63a2.53,2.53,0,0,1,2.09,4.58C1684.48,1101.93,1683.8,1102.33,1678.94,1102.33Z"/><path class="cls-14" d="M1940.42,616.13a2.65,2.65,0,0,1-.68-.09,2.55,2.55,0,0,1-1.77-3.12c2.9-10.51,3-25,3-32.78a2.54,2.54,0,0,1,2.54-2.51h0a2.54,2.54,0,0,1,2.52,2.55c0,8-.15,22.93-3.22,34.09A2.54,2.54,0,0,1,1940.42,616.13Z"/><path class="cls-14" d="M1769.19,727.07c-1.06,0-2.14,0-3.23-.09-12.55-.67-27.47-22.27-34.1-41.9-6.19-18.32-8-30.25-5.59-37.55.47-1.46.89-2.83,1.28-4.11,1.34-4.39,2.39-7.85,4.47-10.55a4.94,4.94,0,0,1,3.43-2.22,4.73,4.73,0,0,1,3.62,1.75,5.87,5.87,0,0,0,1.72,1.31l3.47,1.53a149.13,149.13,0,0,0,15.28,6.1,35.55,35.55,0,0,0,18.45.92c.55-.13,1.28-.34,2.14-.58,7.53-2.07,15.18-3.8,18.69-.24,1.46,1.48,1.36,3.95.88,10.87-.47,6.69-1.11,15.85.79,22.33,3.12,10.61,9.78,14.35,14.64,17.09,3.55,2,7.21,4,6.55,8.31-1.24,7.91-16,16.05-22.23,19.19C1792,722.94,1782,727.07,1769.19,727.07Zm-33.39-90.79c-1.38,2-2.28,4.93-3.4,8.62-.4,1.31-.83,2.71-1.31,4.2-2,6-.09,17.59,5.57,34.36,6.64,19.65,20.73,38,29.56,38.46,13.24.75,23.49-3.48,31-7.23,9.2-4.6,18.85-11.38,19.48-15.44.12-.73-1.44-1.66-4-3.1-5.3-3-13.31-7.49-17-20.09-2.16-7.34-1.48-17-1-24.1a59,59,0,0,0,.27-7.18c-1.53-.87-6-.25-13.43,1.79-.94.26-1.74.48-2.33.62a40.73,40.73,0,0,1-21.13-1,150,150,0,0,1-15.81-6.3l-3.44-1.51A10,10,0,0,1,1735.8,636.28Zm-1.78-1.86h0Z"/><path class="cls-14" d="M1820.81,701.36a2.53,2.53,0,0,1-1-4.84c18.89-8.65,36.34-23.76,46.69-40.42a2.53,2.53,0,1,1,4.3,2.68c-10.84,17.47-29.12,33.3-48.89,42.35A2.58,2.58,0,0,1,1820.81,701.36Z"/><path class="cls-14" d="M1797.67,646.1a2.53,2.53,0,0,1-.83-4.93c14.11-4.88,51.3-27,51.68-27.24a2.53,2.53,0,0,1,2.59,4.35c-1.54.92-38,22.63-52.62,27.68A2.62,2.62,0,0,1,1797.67,646.1Z"/><path class="cls-14" d="M1439.79,1041.29h0l-111.16-1.14a2.54,2.54,0,0,1,0-5.07h0l111.16,1.15a2.53,2.53,0,0,1,0,5.06Z"/><path class="cls-14" d="M2377.92,1286.47a2.62,2.62,0,0,1-.82-.14l-183.59-62.87a2.53,2.53,0,0,1,1.65-4.79l183.58,62.87a2.53,2.53,0,0,1-.82,4.93Z"/><path class="cls-14" d="M1903,722.47a2.62,2.62,0,0,1-.62-.07c-11.32-2.84-14.11-17.67-14.77-26.25-.91-11.83,1-23.06,2.93-33.92,1.81-10.36,3.51-20.14,2.82-30.11-.79-11.28-3.32-19.22-5.57-26.22-1.88-5.91-3.67-11.48-4.08-18-.93-14.7-1.17-28.58,5.86-36.95a2.53,2.53,0,0,1,3.88,3.25c-5.82,6.94-5.5,20.29-4.68,33.38.37,5.88,2,10.92,3.85,16.77,2.33,7.27,5,15.52,5.79,27.4.74,10.59-1.1,21.14-2.87,31.34-1.84,10.55-3.74,21.46-2.88,32.66.45,5.82,2.41,19.58,10.95,21.72a2.53,2.53,0,0,1-.61,5Z"/><path class="cls-14" d="M2009.94,830.27a2.51,2.51,0,0,1-2.11-1.14c-5.42-8.21-6.64-20.47-7.92-33.45-1.35-13.64-2.87-29.1-9.5-42.34-7.07-14.15-15.14-26.49-22.26-37.36-6.21-9.5-11.57-17.69-15.43-25.62-8.83-18.11-11.44-41.34-14-63.8-1.39-12.38-2.7-24.07-5-34.45-7.53-34.16-16.49-44.23-22.67-46.66-3.61-1.42-7.45-.68-11.74,2.27a2.53,2.53,0,0,1-2.88-4.17c5.71-3.93,11.26-4.88,16.48-2.82,10.66,4.2,19.32,21.12,25.76,50.29,2.34,10.63,3.67,22.46,5.08,35,2.47,22,5,44.81,13.48,62.15,3.72,7.63,9,15.71,15.12,25.05,7.2,11,15.35,23.46,22.56,37.87,7,14.08,8.61,30,10,44.11,1.28,12.88,2.38,24,7.11,31.16a2.53,2.53,0,0,1-.72,3.51A2.49,2.49,0,0,1,2009.94,830.27Z"/><path class="cls-14" d="M1959.57,824.31a2.53,2.53,0,0,1-1.14-4.8c6.41-3.2,8.8-14.6,8.32-23.83-1.28-24.32-10.88-42.69-32.12-61.43a2.54,2.54,0,0,1,3.36-3.8c22,19.47,32.48,39.5,33.82,65,.54,10.37-2,24.09-11.11,28.63A2.55,2.55,0,0,1,1959.57,824.31Z"/><path class="cls-14" d="M2000.25,857.46a2.5,2.5,0,0,1-.75-.12c-7.34-2.29-13.18-7.49-16.91-15-6.28-12.68-5.33-28.91-1.79-38.62a2.53,2.53,0,0,1,4.76,1.73c-3.18,8.73-4,23.3,1.57,34.64,3.14,6.36,7.81,10.55,13.88,12.44a2.54,2.54,0,0,1-.76,5Z"/><path class="cls-14" d="M1791.38,781.61a2.53,2.53,0,0,1-2.17-1.23c-6.81-11.37-9.81-37.3-6.68-57.82a2.57,2.57,0,0,1,2.89-2.12,2.52,2.52,0,0,1,2.12,2.88c-2.93,19.19-.17,44.12,6,54.45a2.54,2.54,0,0,1-2.18,3.84Z"/><path class="cls-16" d="M1577.41,1081.9h-.11c-12.62-.51-25.87-1.33-37.19-3.81-9-2-19-7.47-27.89-12.33-6.32-3.47-12.3-6.75-16.81-8.15a2.54,2.54,0,0,1-1.67-3.18,2.51,2.51,0,0,1,3.17-1.66c5,1.55,11.2,5,17.75,8.55,8.55,4.69,18.24,10,26.52,11.83,11,2.4,24.53,3.2,36.33,3.68a2.54,2.54,0,0,1-.1,5.07Z"/><path class="cls-16" d="M1503.88,1069c-6.23,0-16.33-4-20.06-6.64a14.87,14.87,0,0,1-6.23-11.69,11.06,11.06,0,0,1,5.35-9.33c2.38-1.59,4.49-3.3,6.52-5,4.27-3.47,8.3-6.74,13.39-7.58a2.53,2.53,0,0,1,.83,5c-3.77.63-7.13,3.35-11,6.51-2.12,1.72-4.32,3.51-6.88,5.23a6.24,6.24,0,0,0-3.13,5.18,9.92,9.92,0,0,0,4.09,7.49c4.06,2.87,15.15,6.53,18.33,5.6a2.53,2.53,0,1,1,1.39,4.87A9.55,9.55,0,0,1,1503.88,1069Z"/><path class="cls-16" d="M1480.39,1056.59a2.59,2.59,0,0,1-1.47-.47c-5.38-3.84-10.64-10.49-9.28-17.64,1.33-7,7.42-14,12.29-18.56,1.5-1.42,2.9-3,4.31-4.62,3.62-4.12,7.37-8.39,12.9-10.27a2.53,2.53,0,0,1,1.65,4.79c-4.26,1.45-7.41,5-10.75,8.83-1.51,1.72-3,3.43-4.63,5-6.12,5.8-10,11.42-10.79,15.83-.91,4.8,3.33,9.77,7.24,12.56a2.53,2.53,0,0,1-1.47,4.6Z"/><path class="cls-16" d="M1471.17,1045.2a3.17,3.17,0,0,1-.53,0c-10.37-2.22-8.77-14.43-7.71-22.52,1.25-9.55,2.85-11.27,8.76-16.32l.85-.73a77.61,77.61,0,0,1,9.4-6.58,97.64,97.64,0,0,0,12.83-9.21,2.53,2.53,0,1,1,3.34,3.81,102.65,102.65,0,0,1-13.47,9.68,76.8,76.8,0,0,0-8.8,6.14l-.86.74c-5.17,4.43-6,5.11-7,13.13-1.36,10.39-1.16,15.86,3.74,16.9a2.53,2.53,0,0,1-.53,5Z"/><path class="cls-16" d="M1458,1051.54a7.75,7.75,0,0,1-5.55-2.38c-2.5-2.55-2.46-7.76-2.42-12.8a38,38,0,0,0-.11-4.69c-1.33-8.84-1.61-11.75.51-19.69,2.35-8.77,9.09-16.18,19-20.87a72.26,72.26,0,0,0,8.65-5.34c8.36-5.66,18.77-12.75,29-9.21,9.8,3.37,16.84,9.63,24.29,16.26,2.54,2.27,5.18,4.62,8,7,2.12,1.72,4.4,3.74,6.83,5.91,10.58,9.38,23.74,21.06,39.85,23.41a2.54,2.54,0,0,1,2.14,2.88,2.58,2.58,0,0,1-2.88,2.14c-17.6-2.57-32-15.32-42.47-24.64-2.38-2.12-4.61-4.09-6.67-5.78-2.93-2.39-5.62-4.79-8.22-7.1-7.37-6.56-13.73-12.22-22.57-15.26-7.82-2.69-16.68,3.32-24.5,8.62a76.4,76.4,0,0,1-9.31,5.72c-8.53,4-14.3,10.29-16.25,17.59-1.88,7-1.65,9.27-.41,17.65a37.49,37.49,0,0,1,.18,5.48c0,2.64-.07,8.15,1,9.2a2.66,2.66,0,0,0,2.67.76c2.1-.58,4-3.46,5-7.69a2.53,2.53,0,0,1,4.92,1.19c-2,8.41-6.26,10.74-8.59,11.39A8.19,8.19,0,0,1,1458,1051.54Z"/><path class="cls-16" d="M1476.72,990.15a2.55,2.55,0,0,1-2.43-1.81c-.31-1-2-7.22-2.12-9.49,0-.38-.07-.8-.12-1.24a10.82,10.82,0,0,1,.21-5,9.29,9.29,0,0,1,6.44-6.06c7-1.92,16.73,3.38,22.94,8.47a2.54,2.54,0,1,1-3.22,3.92c-6.63-5.45-14.38-8.58-18.39-7.5a4.25,4.25,0,0,0-3,2.92,7.85,7.85,0,0,0,.06,2.67c.07.57.13,1.12.15,1.62a64.83,64.83,0,0,0,1.92,8.27,2.53,2.53,0,0,1-1.7,3.15A2.64,2.64,0,0,1,1476.72,990.15Z"/><path class="cls-16" d="M1465.13,997.76a2.52,2.52,0,0,1-1.75-.7c-6.66-6.35-9.16-14-6.35-19.48,1.18-2.29,5.11-7.37,16.2-5.29a2.53,2.53,0,1,1-.94,5c-5.44-1-9.36-.06-10.75,2.63-1.7,3.33.49,8.88,5.34,13.5A2.53,2.53,0,0,1,1467,997,2.49,2.49,0,0,1,1465.13,997.76Z"/><path class="cls-16" d="M1454.06,1008.12a2.57,2.57,0,0,1-1.62-.59,25.88,25.88,0,0,1-9.29-18.06,10,10,0,0,1,3.41-7.71c2.8-2.58,6.77-3.62,11.19-2.92a2.53,2.53,0,0,1,2.11,2.9,2.58,2.58,0,0,1-2.91,2.11c-3.62-.58-5.8.57-7,1.64a5.08,5.08,0,0,0-1.79,3.59,20.55,20.55,0,0,0,7.48,14.55,2.54,2.54,0,0,1-1.62,4.49Z"/><path class="cls-16" d="M1451.08,1020.2h-.22c-6.21-.54-12.68-6.15-14.44-12.51-1-3.59-1.37-10.53,7.2-16.72a2.54,2.54,0,1,1,3,4.11c-4.58,3.31-6.4,7.2-5.29,11.25,1.33,4.81,6.33,8.51,10,8.82a2.53,2.53,0,0,1-.21,5.06Z"/><path class="cls-14" d="M1753.85,1100a2.54,2.54,0,0,1-1.25-.33c-3.8-2.17-9.2-4.53-14.43-6.82-3.68-1.6-7.22-3.15-10-4.55a2.53,2.53,0,1,1,2.26-4.53c2.73,1.36,6.2,2.87,9.79,4.44,5.35,2.34,10.88,4.75,14.91,7a2.54,2.54,0,0,1-1.26,4.74Z"/><path class="cls-14" d="M999.64,1102.18H999a2.53,2.53,0,0,1-2.46-2.6,2.6,2.6,0,0,1,2.6-2.47,48.22,48.22,0,0,0,7.4-.52,50.88,50.88,0,0,0,9.42-2.65c2-.72,4.11-1.44,6.33-2,2-.53,4,.29,5.68,1,.3.12.7.28,1,.39l.1-.12a5.61,5.61,0,0,1,3.87-2.27c2-.2,4.37.5,7,1.25a41.11,41.11,0,0,0,5,1.18c-.53-1.49-1-3.7.92-5.28a5.79,5.79,0,0,1,5.31-.91c3.08.8,6.23,3.34,7.17,5.79a2.53,2.53,0,1,1-4.72,1.82,6.69,6.69,0,0,0-3-2.47,4.24,4.24,0,0,0-.71-.24l.09.2c.47,1.17,1.59,3.89-.82,5.36-2.73,1.67-6.71.52-10.56-.59a21.78,21.78,0,0,0-5-1.07,2.41,2.41,0,0,0-.55.53,5.64,5.64,0,0,1-2.28,1.79c-1.49.58-3,0-4.57-.66a7.41,7.41,0,0,0-2.49-.76c-2.07.56-4,1.25-5.94,1.93a55.68,55.68,0,0,1-10.35,2.88A54.29,54.29,0,0,1,999.64,1102.18Z"/><path class="cls-14" d="M1295.37,1092.78a2.57,2.57,0,0,1-2.19-1.23c-.58-1-3.52-3.24-5.87-4.55a2.57,2.57,0,0,1-.19,1.64c-1.09,2.4-3.06,1.6-7.36-.12-1.43-.58-4-1.59-5.07-1.88a4.2,4.2,0,0,1-2.63,2.95c-1.91.71-3.73-.34-5.2-1.16a8.55,8.55,0,0,0-1.53-.76c-4.84-.2-19.65,1.32-19.8,1.33a2.5,2.5,0,0,1-2.77-2.26A2.54,2.54,0,0,1,1245,1084c.62-.06,15.28-1.46,20.52-1.36a8.44,8.44,0,0,1,3.81,1.42l.72.4a4.26,4.26,0,0,1,4.1-2.92c1.34-.09,3.06.55,7,2.14a3.07,3.07,0,0,1,.21-.79,3.28,3.28,0,0,1,1.61-1.59c4.53-1.82,13.22,5.5,14.53,7.71a2.54,2.54,0,0,1-2.18,3.81Z"/><path class="cls-14" d="M1134.37,1092.82a23,23,0,0,1-6.68-1.61c-1.89-.63-5.81-2-6.78-1.51a2.51,2.51,0,0,1-3.54-.4,2.56,2.56,0,0,1,.41-3.58c2.8-2.26,7.24-.76,11.53.69,1.07.36,2.47.84,3.57,1.11a3.27,3.27,0,0,1,.52-1.65c1.11-1.73,3.46-2.11,6.64-2.17h0a20.65,20.65,0,0,1,5.43.92,13.71,13.71,0,0,1,8.8-2.24,18.94,18.94,0,0,0,5.84.1c2.33-.24,5-.53,11.52.58a2.54,2.54,0,1,1-.84,5c-5.87-1-8-.77-10.15-.54a24.36,24.36,0,0,1-7.1-.12,8.32,8.32,0,0,0-5.14,1.36,3.36,3.36,0,0,1-2.13,1.77,2.71,2.71,0,0,1-2.83-1,2.14,2.14,0,0,1-.13-.19,12,12,0,0,0-3.18-.54c-.74,0-1.31,0-1.74.09a2.92,2.92,0,0,1-.42,2.16A3.94,3.94,0,0,1,1134.37,1092.82Z"/><path class="cls-14" d="M1108.5,1078h-.06a47.87,47.87,0,0,1-9.86-1.52c-3.64-.82-7.4-1.7-11-1.53a2.65,2.65,0,0,1-2.62-2.44,2.53,2.53,0,0,1,2.44-2.63,49.31,49.31,0,0,1,12.33,1.66,44.44,44.44,0,0,0,8.81,1.4c.6.12,2.17-.82,3.44-1.55a15.62,15.62,0,0,1,6.18-2.47,8.51,8.51,0,0,1,4.61,1.09c.51.24,1.18.61,1.48.54a4.68,4.68,0,0,0,1.64-1,7.86,7.86,0,0,1,5.67-2.27,11,11,0,0,1,4.64,1.83,6.36,6.36,0,0,0,2.62,1.13,19.06,19.06,0,0,0,4.2-.72,22.72,22.72,0,0,1,7.49-.91,2.54,2.54,0,0,1-.45,5.05,17.86,17.86,0,0,0-5.84.78,24.4,24.4,0,0,1-5.53.87,10.25,10.25,0,0,1-5.08-1.84,7.26,7.26,0,0,0-2.5-1.15c-.47,0-1.1.41-2,1.16a7.69,7.69,0,0,1-4.65,2.19,8.75,8.75,0,0,1-3.79-1,4.62,4.62,0,0,0-2-.64,12.15,12.15,0,0,0-4.12,1.81C1112.58,1076.9,1110.62,1078,1108.5,1078Z"/></g></g></g></svg>