<svg xmlns="http://www.w3.org/2000/svg" viewBox="0 0 563.28 307.62"><defs><style>.cls-1{fill:#ff715b;}.cls-2,.cls-4{fill:#fff;}.cls-3{fill:#d9e7ff;}.cls-4{font-size:30px;font-family:Montserrat-SemiBold, Montserrat;font-weight:600;}.cls-5{letter-spacing:0em;}.cls-6{letter-spacing:-0.01em;}.cls-7{letter-spacing:0em;}.cls-8{letter-spacing:0.01em;}.cls-9{letter-spacing:-0.01em;}.cls-10{letter-spacing:0.01em;}.cls-11{letter-spacing:-0.02em;}.cls-12{letter-spacing:0em;}</style></defs><g id="Layer_2" data-name="Layer 2"><g id="_ÎÓÈ_1" data-name="—ÎÓÈ_1"><path class="cls-1" d="M563,201.42c-6.74,78.87-183.81,115.91-322.76,104C101,293.54-6.43,220,.3,141.29s173.76-151.92,313-140S569.74,122.66,563,201.42Z"/><circle class="cls-2" cx="344.74" cy="70.46" r="32.9" transform="translate(153.34 365.72) rotate(-68.6)"/><path class="cls-3" d="M360.67,44h0a5.52,5.52,0,0,0-7.59,1.89l-25.6,42.63a5.52,5.52,0,0,0,1.89,7.58h0A5.53,5.53,0,0,0,337,94.16l25.61-42.63A5.53,5.53,0,0,0,360.67,44Z"/><path class="cls-2" d="M199.57,222a23.45,23.45,0,1,0,13.71,30.2A23.46,23.46,0,0,0,199.57,222Z"/><path class="cls-3" d="M170.69,236.2h0a3.92,3.92,0,0,0,2.3,5.07l33.19,12.46a4,4,0,0,0,5.07-2.31h0a4,4,0,0,0-2.31-5.07L175.76,233.9A3.92,3.92,0,0,0,170.69,236.2Z"/><text class="cls-4" transform="translate(51.05 138.22)"><tspan class="cls-5">L</tspan><tspan x="17.82" y="0">o</tspan><tspan class="cls-6" x="37.17" y="0">r</tspan><tspan x="49.47" y="0">em ipsum dolor sit a</tspan><tspan class="cls-7" x="365.19" y="0">m</tspan><tspan x="396.93" y="0">e</tspan><tspan class="cls-8" x="415.59" y="0">t</tspan><tspan x="428.6" y="0">, </tspan><tspan class="cls-9" x="0" y="48">c</tspan><tspan x="17.19" y="48">onse</tspan><tspan class="cls-10" x="91.2" y="48">c</tspan><tspan class="cls-11" x="108.84" y="48">t</tspan><tspan x="121.02" y="48">etuer </tspan><tspan class="cls-12" x="212.37" y="48">a</tspan><tspan x="230.73" y="48">dipisci</tspan><tspan class="cls-7" x="330.8" y="48">n</tspan><tspan x="351.5" y="48">g elit</tspan></text></g></g></svg>