<svg xmlns="http://www.w3.org/2000/svg" viewBox="0 0 714.8 307.03"><defs><style>.cls-1{fill:#9ddeed;}.cls-2,.cls-4{fill:#fff;}.cls-3{fill:#ff7367;}.cls-4{font-size:30px;font-family:Montserrat-SemiBold, Montserrat;font-weight:600;}.cls-5{letter-spacing:0em;}.cls-6{letter-spacing:-0.01em;}.cls-7{letter-spacing:0em;}.cls-8{letter-spacing:0.01em;}.cls-9{letter-spacing:-0.01em;}.cls-10{letter-spacing:0.01em;}.cls-11{letter-spacing:-0.02em;}.cls-12{letter-spacing:0em;}</style></defs><g id="Layer_2" data-name="Layer 2"><g id="_ÎÓÈ_1" data-name="—ÎÓÈ_1"><path class="cls-1" d="M714.8,176.84c0,61.58-134.59,106.69-277.88,123.25A1029.63,1029.63,0,0,1,319.71,307a703.4,703.4,0,0,1-79-4.37C102.37,287,0,231.31,0,165,0,107.23,109.54,45.15,237.76,16.38c20.2-4.54,40.87-8.24,61.64-11A611.84,611.84,0,0,1,378.94,0C555.51,0,714.8,98.37,714.8,176.84Z"/><path class="cls-2" d="M452.73,221.48h0a17.82,17.82,0,0,0-25.11-2l-33.51,28.64a17.81,17.81,0,0,0-2,25.11h0a17.81,17.81,0,0,0,25.11,2l33.51-28.63A17.82,17.82,0,0,0,452.73,221.48Z"/><path class="cls-3" d="M452.73,221.48a17.82,17.82,0,0,0-25.11-2l-16.76,14.32L434,260.92l16.76-14.32A17.82,17.82,0,0,0,452.73,221.48Z"/><path class="cls-2" d="M277.54,60h0a12,12,0,0,0,5,16.14l26.23,13.72a12,12,0,0,0,16.15-5h0a12,12,0,0,0-5.06-16.15L293.68,54.94A12,12,0,0,0,277.54,60Z"/><path class="cls-3" d="M277.54,60a12,12,0,0,0,5,16.14L295.71,83,306.8,61.8l-13.12-6.86A12,12,0,0,0,277.54,60Z"/><text class="cls-4" transform="translate(128.28 141.18)"><tspan class="cls-5">L</tspan><tspan x="17.82" y="0">o</tspan><tspan class="cls-6" x="37.17" y="0">r</tspan><tspan x="49.47" y="0">em ipsum dolor sit a</tspan><tspan class="cls-7" x="365.19" y="0">m</tspan><tspan x="396.93" y="0">e</tspan><tspan class="cls-8" x="415.59" y="0">t</tspan><tspan x="428.6" y="0">, </tspan><tspan class="cls-9" x="0" y="48">c</tspan><tspan x="17.19" y="48">onse</tspan><tspan class="cls-10" x="91.2" y="48">c</tspan><tspan class="cls-11" x="108.84" y="48">t</tspan><tspan x="121.02" y="48">etuer </tspan><tspan class="cls-12" x="212.37" y="48">a</tspan><tspan x="230.73" y="48">dipisci</tspan><tspan class="cls-7" x="330.8" y="48">n</tspan><tspan x="351.5" y="48">g elit</tspan></text></g></g></svg>