<svg xmlns="http://www.w3.org/2000/svg" viewBox="0 0 589.21 379.79"><defs><style>.cls-1{fill:#ffa750;}.cls-2,.cls-4{fill:#fff;}.cls-3{fill:#ff7367;}.cls-4{font-size:30px;font-family:Montserrat-SemiBold, Montserrat;font-weight:600;}.cls-5{letter-spacing:0em;}.cls-6{letter-spacing:-0.01em;}.cls-7{letter-spacing:0em;}.cls-8{letter-spacing:0.01em;}.cls-9{letter-spacing:-0.01em;}.cls-10{letter-spacing:0.01em;}.cls-11{letter-spacing:-0.02em;}.cls-12{letter-spacing:0em;}</style></defs><g id="Layer_2" data-name="Layer 2"><g id="_ÎÓÈ_1" data-name="—ÎÓÈ_1"><path class="cls-1" d="M587.06,119.45C576.26,14.22,386.17-14.92,204,6.66S14.83,69.53,19.53,193.78c1.55,40.79,12.76,73.14,30.91,98.65-11.16,38.17-56.09,46-49.85,52,32.1,30.82,88.63,2.54,102.25-5C190.73,391,330,383.49,430.55,369.31,564.12,350.47,598.89,234.81,587.06,119.45Z"/><path class="cls-2" d="M413.65,274.25h0a17.81,17.81,0,0,0-25.11-2L355,300.92a17.81,17.81,0,0,0-2,25.11h0a17.81,17.81,0,0,0,25.11,2l33.51-28.64A17.81,17.81,0,0,0,413.65,274.25Z"/><path class="cls-3" d="M413.65,274.25a17.81,17.81,0,0,0-25.11-2L371.78,286.6l23.15,27.08,16.75-14.32A17.81,17.81,0,0,0,413.65,274.25Z"/><path class="cls-2" d="M172.43,68.62h0a12,12,0,0,0,5.06,16.15l26.23,13.72a12,12,0,0,0,16.15-5.06h0a12,12,0,0,0-5.06-16.14L188.58,63.57A12,12,0,0,0,172.43,68.62Z"/><path class="cls-3" d="M172.43,68.62a12,12,0,0,0,5.06,16.15l13.11,6.86,11.09-21.2-13.11-6.86A12,12,0,0,0,172.43,68.62Z"/><text class="cls-4" transform="translate(80.15 169.7)"><tspan class="cls-5">L</tspan><tspan x="17.82" y="0">o</tspan><tspan class="cls-6" x="37.17" y="0">r</tspan><tspan x="49.47" y="0">em ipsum dolor sit a</tspan><tspan class="cls-7" x="365.19" y="0">m</tspan><tspan x="396.93" y="0">e</tspan><tspan class="cls-8" x="415.59" y="0">t</tspan><tspan x="428.6" y="0">, </tspan><tspan class="cls-9" x="0" y="48">c</tspan><tspan x="17.19" y="48">onse</tspan><tspan class="cls-10" x="91.2" y="48">c</tspan><tspan class="cls-11" x="108.84" y="48">t</tspan><tspan x="121.02" y="48">etuer </tspan><tspan class="cls-12" x="212.37" y="48">a</tspan><tspan x="230.73" y="48">dipisci</tspan><tspan class="cls-7" x="330.8" y="48">n</tspan><tspan x="351.5" y="48">g elit</tspan></text></g></g></svg>