<svg xmlns="http://www.w3.org/2000/svg" viewBox="0 0 589.21 379.79"><defs><style>.cls-1{fill:#ff715b;}.cls-2{font-size:30px;font-family:Montserrat-SemiBold, Montserrat;font-weight:600;}.cls-11,.cls-2{fill:#fff;}.cls-3{letter-spacing:0em;}.cls-4{letter-spacing:-0.01em;}.cls-5{letter-spacing:0em;}.cls-6{letter-spacing:0.01em;}.cls-7{letter-spacing:-0.01em;}.cls-8{letter-spacing:0.01em;}.cls-9{letter-spacing:-0.02em;}.cls-10{letter-spacing:0em;}.cls-12{fill:#d9e7ff;}</style></defs><g id="Layer_2" data-name="Layer 2"><g id="_ÎÓÈ_1" data-name="—ÎÓÈ_1"><path class="cls-1" d="M2.16,119.45C13,14.22,203-14.92,385.18,6.66s189.2,62.87,184.5,187.12c-1.55,40.79-12.75,73.14-30.91,98.65,11.17,38.17,56.09,46,49.85,52-32.09,30.82-88.63,2.54-102.25-5C398.48,391,259.19,383.49,158.66,369.31,25.09,350.47-9.67,234.81,2.16,119.45Z"/><text class="cls-2" transform="translate(79.15 179.7)"><tspan class="cls-3">L</tspan><tspan x="17.82" y="0">o</tspan><tspan class="cls-4" x="37.17" y="0">r</tspan><tspan x="49.47" y="0">em ipsum dolor sit a</tspan><tspan class="cls-5" x="365.19" y="0">m</tspan><tspan x="396.93" y="0">e</tspan><tspan class="cls-6" x="415.59" y="0">t</tspan><tspan x="428.6" y="0">, </tspan><tspan class="cls-7" x="0" y="48">c</tspan><tspan x="17.19" y="48">onse</tspan><tspan class="cls-8" x="91.2" y="48">c</tspan><tspan class="cls-9" x="108.84" y="48">t</tspan><tspan x="121.02" y="48">etuer </tspan><tspan class="cls-10" x="212.37" y="48">a</tspan><tspan x="230.73" y="48">dipisci</tspan><tspan class="cls-5" x="330.8" y="48">n</tspan><tspan x="351.5" y="48">g elit</tspan></text><circle class="cls-11" cx="173.5" cy="83.22" r="37.57" transform="translate(32.71 214.4) rotate(-68.6)"/><path class="cls-12" d="M191.69,52.94h0A6.31,6.31,0,0,0,183,55.1l-29.24,48.68a6.3,6.3,0,0,0,2.16,8.66h0a6.31,6.31,0,0,0,8.66-2.16L193.85,61.6A6.31,6.31,0,0,0,191.69,52.94Z"/><path class="cls-11" d="M370.43,287.9a26.78,26.78,0,1,0,15.66,34.48A26.78,26.78,0,0,0,370.43,287.9Z"/><path class="cls-12" d="M337.45,304.12h0a4.48,4.48,0,0,0,2.63,5.79L378,324.14a4.5,4.5,0,0,0,5.79-2.63h0a4.48,4.48,0,0,0-2.63-5.79l-37.89-14.23A4.5,4.5,0,0,0,337.45,304.12Z"/></g></g></svg>