<svg xmlns="http://www.w3.org/2000/svg" xmlns:xlink="http://www.w3.org/1999/xlink" viewBox="0 0 3710 4984.66"><defs><style>.cls-1{fill:none;}.cls-2,.cls-32{fill:#fff;}.cls-3{fill:#e0e0e0;}.cls-4{opacity:0.3;}.cls-5{fill:#d7413b;}.cls-6{clip-path:url(#clip-path);}.cls-7{fill:url(#linear-gradient);}.cls-8{fill:url(#linear-gradient-2);}.cls-9{fill:url(#linear-gradient-3);}.cls-10{fill:url(#linear-gradient-4);}.cls-11{fill:url(#linear-gradient-5);}.cls-12{fill:url(#linear-gradient-6);}.cls-13{fill:url(#linear-gradient-7);}.cls-14{fill:url(#linear-gradient-8);}.cls-15{fill:url(#linear-gradient-9);}.cls-16{fill:url(#linear-gradient-10);}.cls-17{fill:url(#linear-gradient-11);}.cls-18{fill:url(#linear-gradient-12);}.cls-19{fill:url(#linear-gradient-13);}.cls-20{fill:url(#linear-gradient-14);}.cls-21{fill:url(#linear-gradient-15);}.cls-22{fill:url(#linear-gradient-16);}.cls-23{fill:url(#linear-gradient-17);}.cls-24{fill:url(#linear-gradient-18);}.cls-25{fill:#891f1f;}.cls-26{fill:url(#linear-gradient-19);}.cls-27{fill:url(#linear-gradient-20);}.cls-28{fill:url(#linear-gradient-21);}.cls-29{fill:url(#linear-gradient-22);}.cls-30{fill:#ededed;}.cls-31{fill:#8e2828;}.cls-32{opacity:0.79;}</style><clipPath id="clip-path"><rect class="cls-1" x="526.39" y="1282.75" width="2682.61" height="1964.54"/></clipPath><linearGradient id="linear-gradient" x1="1378.77" y1="3856.87" x2="658.69" y2="6103.5" gradientUnits="userSpaceOnUse"><stop offset="0" stop-color="#fdf53f"/><stop offset="1" stop-color="#d93c65"/></linearGradient><linearGradient id="linear-gradient-2" x1="1538.27" y1="3859.96" x2="792.03" y2="6188.24" xlink:href="#linear-gradient"/><linearGradient id="linear-gradient-3" x1="1221.49" y1="3806.46" x2="501.42" y2="6053.09" xlink:href="#linear-gradient"/><linearGradient id="linear-gradient-4" x1="3288.67" y1="4420.39" x2="3232.66" y2="4686.03" gradientUnits="userSpaceOnUse"><stop offset="0" stop-color="#09005d"/><stop offset="1" stop-color="#1a0f91"/></linearGradient><linearGradient id="linear-gradient-5" x1="3380.04" y1="4375.55" x2="3296.83" y2="4617.18" gradientUnits="userSpaceOnUse"><stop offset="0" stop-color="#53d8ff"/><stop offset="1" stop-color="#3840f7"/></linearGradient><linearGradient id="linear-gradient-6" x1="3214.2" y1="4654.68" x2="3344.49" y2="5186.69" xlink:href="#linear-gradient-4"/><linearGradient id="linear-gradient-7" x1="3223.83" y1="4652.32" x2="3354.12" y2="5184.34" xlink:href="#linear-gradient-5"/><linearGradient id="linear-gradient-8" x1="3440.25" y1="3930.51" x2="2946.24" y2="4679.68" gradientUnits="userSpaceOnUse"><stop offset="0" stop-color="#febbba"/><stop offset="1" stop-color="#ff928e"/></linearGradient><linearGradient id="linear-gradient-9" x1="2641.45" y1="3355.74" x2="2122.09" y2="4143.35" gradientUnits="userSpaceOnUse"><stop offset="0" stop-color="#cb236d"/><stop offset="1" stop-color="#4c246d"/></linearGradient><linearGradient id="linear-gradient-10" x1="3084.31" y1="4658.39" x2="1625.41" y2="5068.37" xlink:href="#linear-gradient-8"/><linearGradient id="linear-gradient-11" x1="2856.78" y1="3787.42" x2="1359.41" y2="4208.21" xlink:href="#linear-gradient-9"/><linearGradient id="linear-gradient-12" x1="854.6" y1="3269.9" x2="1973.87" y2="2278.75" gradientUnits="userSpaceOnUse"><stop offset="0" stop-color="#ffbaaa"/><stop offset="0.78" stop-color="#fff"/></linearGradient><linearGradient id="linear-gradient-13" x1="1859.7" y1="2522.06" x2="2266.98" y2="2522.06" xlink:href="#linear-gradient-8"/><linearGradient id="linear-gradient-14" x1="1616.59" y1="1323.39" x2="1998.42" y2="931.64" gradientTransform="translate(221.09 393.24) rotate(15.65)" xlink:href="#linear-gradient-8"/><linearGradient id="linear-gradient-15" x1="-1315.89" y1="2010.94" x2="-1799.34" y2="2650.5" gradientTransform="matrix(0.8, -0.6, 0.6, 0.8, 1683.01, -865.04)" xlink:href="#linear-gradient-8"/><linearGradient id="linear-gradient-16" x1="-1685.11" y1="2163.2" x2="-1107.63" y2="2163.2" gradientTransform="matrix(0.8, -0.6, 0.6, 0.8, 1683.01, -865.04)" gradientUnits="userSpaceOnUse"><stop offset="0" stop-color="#691e26"/><stop offset="1" stop-color="#d7413b"/></linearGradient><linearGradient id="linear-gradient-17" x1="-2023.95" y1="2517.43" x2="-1636.19" y2="2119.59" gradientTransform="matrix(0.8, -0.6, 0.6, 0.8, 1683.01, -865.04)" xlink:href="#linear-gradient-8"/><linearGradient id="linear-gradient-18" x1="572.51" y1="2951.35" x2="1691.78" y2="1960.2" gradientUnits="userSpaceOnUse"><stop offset="0" stop-color="#ffbcaa"/><stop offset="0.61" stop-color="#fff"/></linearGradient><linearGradient id="linear-gradient-19" x1="1582.03" y1="-513.62" x2="1841.04" y2="-513.62" gradientTransform="matrix(0.07, -1, 1, 0.07, 1854.12, 4752.75)" xlink:href="#linear-gradient-8"/><linearGradient id="linear-gradient-20" x1="1751.37" y1="4061.96" x2="2566.82" y2="4061.96" gradientUnits="userSpaceOnUse"><stop offset="0" stop-color="#9cfffb"/><stop offset="1" stop-color="#9bfffa"/></linearGradient><linearGradient id="linear-gradient-21" x1="1845.54" y1="4061.96" x2="2660.99" y2="4061.96" xlink:href="#linear-gradient-20"/><linearGradient id="linear-gradient-22" x1="898" y1="4678.99" x2="3223.25" y2="1929.35" gradientUnits="userSpaceOnUse"><stop offset="0" stop-color="#090000"/><stop offset="1" stop-color="#d7413b"/></linearGradient></defs><g id="Layer_2" data-name="Layer 2"><g id="Background"><rect class="cls-2" width="3710" height="3710"/></g><g id="Illustration"><path class="cls-3" d="M2919.43,2854c-56,58.95-109,97-150.83,127-492,353-1074.27,250.14-1198,225-182.72-37.11-535.92-108.85-791.28-409.15C393,2342.55,453.13,1626.78,752.8,1154.29c54.81-86.43,344.35-566.11,932.85-643C2041.8,464.69,2457,558.59,2757.6,810.47,3388.68,1339.19,3343.76,2407.3,2919.43,2854Z"/><g class="cls-4"><path class="cls-5" d="M1351.8,1076.73a11.77,11.77,0,0,1,14.25,6.71c5.16,12.27,9.85,24.94,14,37.66a11.77,11.77,0,0,1-7.58,14.83l-.22.07a11.78,11.78,0,0,1-14.61-7.65c-3.91-12.09-8.37-24.13-13.26-35.78a11.77,11.77,0,0,1,6.29-15.42A9.13,9.13,0,0,1,1351.8,1076.73Zm28.94,98.44a12.26,12.26,0,0,1,1.36-.33,11.79,11.79,0,0,1,13.66,9.54c2.33,13.16,4.13,26.54,5.33,39.79a11.78,11.78,0,0,1-23.46,2.13c-1.14-12.59-2.85-25.3-5.06-37.81A11.77,11.77,0,0,1,1380.74,1175.17Zm6.55,102.36a11.8,11.8,0,0,1,15.17,11.86c-.65,13.31-1.89,26.77-3.68,40a11.78,11.78,0,1,1-23.34-3.17c1.7-12.55,2.88-25.32,3.49-38A11.8,11.8,0,0,1,1387.29,1277.53Zm-16.51,101.28a11.79,11.79,0,0,1,14.73,14.47c-3.61,12.85-7.83,25.69-12.52,38.17a11.78,11.78,0,1,1-22-8.3c4.46-11.85,8.46-24.05,11.9-36.25A11.78,11.78,0,0,1,1370.78,1378.81Zm-38.68,95.06a11.78,11.78,0,0,1,13.75,16.9c-6.36,11.69-13.31,23.28-20.66,34.43a11.78,11.78,0,0,1-19.67-13c7-10.6,13.6-21.61,19.64-32.73A11.73,11.73,0,0,1,1332.1,1473.87ZM1273.36,1558a11.78,11.78,0,0,1,12.26,19c-8.8,10-18.14,19.77-27.76,29a11.78,11.78,0,1,1-16.31-17c9.14-8.77,18-18,26.38-27.55A11.68,11.68,0,0,1,1273.36,1558Zm-405,151.64a11.75,11.75,0,0,1,5-.39c12.54,1.68,25.33,2.83,38,3.43a11.77,11.77,0,1,1-1.11,23.52c-13.34-.62-26.81-1.84-40-3.6a11.78,11.78,0,0,1-1.84-23ZM1197.49,1627a11.78,11.78,0,0,1,10.3,20.83c-10.81,7.8-22.09,15.23-33.53,22.08a11.78,11.78,0,1,1-12.1-20.21c10.86-6.5,21.57-13.56,31.84-21A11.73,11.73,0,0,1,1197.49,1627ZM970.9,1711.7a12.54,12.54,0,0,1,2.32-.46c12.61-1.17,25.34-2.9,37.82-5.14a11.78,11.78,0,1,1,4.16,23.19c-13.14,2.35-26.53,4.18-39.79,5.41a11.78,11.78,0,0,1-4.51-23Zm137.21-34.45a11.78,11.78,0,0,1,8,22.13c-12.26,5.18-24.92,9.91-37.62,14l-.24.08a11.78,11.78,0,0,1-7-22.48c12.06-3.92,24.08-8.41,35.74-13.33C1107.31,1677.52,1107.71,1677.37,1108.11,1677.25Z"/><path class="cls-5" d="M787.68,1691.28a11.72,11.72,0,0,1,7,.07c5.78,1.88,11.69,3.67,17.57,5.32a11.78,11.78,0,1,1-6.37,22.68c-6.19-1.74-12.4-3.62-18.48-5.59a11.78,11.78,0,0,1,.25-22.48Z"/></g><g class="cls-4"><path class="cls-5" d="M516.65,1455.73a11.78,11.78,0,0,1,14,6.13c2.65,5.46,5.46,11,8.35,16.34a11.78,11.78,0,0,1-20.74,11.16c-3-5.67-6-11.46-8.8-17.21a11.77,11.77,0,0,1,5.44-15.74A12.27,12.27,0,0,1,516.65,1455.73Z"/><path class="cls-5" d="M796,816q7.79-2.34,15.7-4.45a11.78,11.78,0,1,1,6,22.77c-12.18,3.24-24.2,7-35.87,11.12A11.78,11.78,0,0,1,774,823.23C781.21,820.65,788.62,818.22,796,816Zm76.75-16.27a12.64,12.64,0,0,1,2-.42c13-1.63,26.3-2.72,39.4-3.24a11.77,11.77,0,1,1,.94,23.53c-12.44.5-25,1.54-37.43,3.08a11.77,11.77,0,0,1-4.87-22.95ZM717.19,848A11.78,11.78,0,0,1,726,869.77c-11,5.73-22,12-32.53,18.7a11.78,11.78,0,1,1-12.6-19.91c11.11-7,22.64-13.65,34.26-19.7A11.76,11.76,0,0,1,717.19,848Zm256.57-49.72a11.83,11.83,0,0,1,4.54-.44c13.07,1.28,26.24,3.13,39.15,5.5a11.78,11.78,0,0,1-4.27,23.17c-12.25-2.26-24.76-4-37.17-5.23a11.78,11.78,0,0,1-2.25-23ZM633.36,904.21a11.78,11.78,0,0,1,11,20.28c-9.5,8-18.79,16.57-27.62,25.39a11.77,11.77,0,1,1-16.65-16.65c9.29-9.3,19.07-18.29,29.08-26.74A11.67,11.67,0,0,1,633.36,904.21Zm-69.47,73.21a11.78,11.78,0,0,1,12.8,18.39c-7.54,9.94-14.75,20.32-21.43,30.83A11.78,11.78,0,0,1,535.37,1014c7-11.06,14.62-22,22.55-32.43A11.75,11.75,0,0,1,563.89,977.42ZM512,1064a11.78,11.78,0,0,1,14.11,16.18c-5.2,11.35-10,23-14.21,34.76a11.78,11.78,0,1,1-22.15-8c4.44-12.32,9.47-24.63,15-36.57A11.72,11.72,0,0,1,512,1064ZM480.3,1159.9a11.61,11.61,0,0,1,5.84-.24,11.76,11.76,0,0,1,9.07,14c-2.59,12.21-4.69,24.66-6.24,37a11.78,11.78,0,0,1-23.37-2.93c1.63-13,3.84-26.13,6.57-39A11.77,11.77,0,0,1,480.3,1159.9Zm-9.92,100.52a12.07,12.07,0,0,1,3.26-.5,11.79,11.79,0,0,1,11.93,11.62c.16,12.45.85,25,2.07,37.47a11.78,11.78,0,1,1-23.45,2.29c-1.27-13.07-2-26.34-2.18-39.45A11.79,11.79,0,0,1,470.38,1260.42Zm12.4,100.18.7-.19a11.77,11.77,0,0,1,14.17,8.75c2.12,8.94,4.53,17.91,7.18,26.68q1.44,4.77,3,9.47a11.77,11.77,0,0,1-7.55,14.85,11.63,11.63,0,0,1-14.84-7.54c-1.08-3.31-2.13-6.62-3.13-10-2.79-9.22-5.33-18.67-7.56-28.07A11.78,11.78,0,0,1,482.78,1360.6Z"/><path class="cls-5" d="M1072.83,819.3a11.8,11.8,0,0,1,7.1.1c6,2,12.18,4.17,18.2,6.44a11.78,11.78,0,1,1-8.3,22c-5.73-2.16-11.55-4.22-17.3-6.12a11.78,11.78,0,0,1,.3-22.46Z"/></g><path class="cls-5" d="M1097.12,954.68a5.5,5.5,0,0,0-6.39.16l-53.51,40.32a291.67,291.67,0,0,0-92.66-18.84l-33.52-58a5.53,5.53,0,0,0-5.82-2.65l-78.88,15.37a5.5,5.5,0,0,0-4.4,4.64l-9.32,66.3a291.62,291.62,0,0,0-78.81,52.25L669.08,1037a5.51,5.51,0,0,0-6,2.24l-44.92,66.65a5.52,5.52,0,0,0,.17,6.39l40.32,53.5a291.73,291.73,0,0,0-18.84,92.66l-58,33.53a5.51,5.51,0,0,0-2.65,5.82l15.37,78.88a5.52,5.52,0,0,0,4.63,4.4l66.31,9.32a291.62,291.62,0,0,0,52.25,78.81l-17.29,64.73a5.48,5.48,0,0,0,2.24,6l66.65,44.91a5.48,5.48,0,0,0,6.38-.16l53.51-40.32a291.67,291.67,0,0,0,92.66,18.84l33.53,58a5.51,5.51,0,0,0,5.82,2.65l78.88-15.37a5.52,5.52,0,0,0,4.4-4.64l9.32-66.3a291.93,291.93,0,0,0,78.81-52.25l64.73,17.29a5.52,5.52,0,0,0,6-2.24l44.91-66.65a5.5,5.5,0,0,0-.17-6.39l-40.31-53.5a292,292,0,0,0,18.84-92.66l58-33.53a5.51,5.51,0,0,0,2.64-5.82l-15.36-78.88a5.52,5.52,0,0,0-4.64-4.4l-66.3-9.32a291.86,291.86,0,0,0-52.25-78.81l17.29-64.73a5.51,5.51,0,0,0-2.25-6Z"/><path class="cls-2" d="M909.94,1192.39a80.79,80.79,0,1,1-11.08,4.25A80.9,80.9,0,0,1,909.94,1192.39ZM951,1329.08a63.41,63.41,0,0,0,8.58-3.29,61.78,61.78,0,1,0-8.58,3.29Z"/><path class="cls-2" d="M874.62,1081.18a200.35,200.35,0,0,1,19.81-4.91h0q3.18-.62,6.38-1.14a199.79,199.79,0,0,1,31.7-2.56h1.66c.8,0,1.6,0,2.39,0a4.71,4.71,0,1,1-.19,9.42,189.22,189.22,0,1,0,32.22,374.91c102.44-20,169.48-119.49,149.54-221.89a189.53,189.53,0,0,0-44.9-90.23,4.71,4.71,0,0,1,7-6.3,198.58,198.58,0,0,1,47.13,94.73c21,107.51-49.51,212-157,232.94a198.69,198.69,0,0,1-228-137.14,203.78,203.78,0,0,1-4.91-19.84,198.67,198.67,0,0,1,137.17-228Z"/><g class="cls-4"><path class="cls-5" d="M1646.81,663.38a7.27,7.27,0,0,1,8.19,3c3.38,5.17,6.65,10.51,9.71,15.88a7.27,7.27,0,0,1-12.63,7.22c-2.92-5.12-6-10.21-9.26-15.14a7.28,7.28,0,0,1,2.11-10.07A7.47,7.47,0,0,1,1646.81,663.38Z"/><path class="cls-5" d="M1673,712.84a7.26,7.26,0,0,1,8.81,4.17,315.72,315.72,0,0,1,10.8,30.12c.65,2.14,1.27,4.3,1.88,6.47a7.53,7.53,0,0,1-5,9,7.28,7.28,0,0,1-9-5.05c-.58-2.07-1.18-4.14-1.8-6.18a301.42,301.42,0,0,0-10.29-28.74,7.26,7.26,0,0,1,3.91-9.51C1672.52,713,1672.76,712.91,1673,712.84Zm20.31,72.75a6.86,6.86,0,0,1,1-.23,7.27,7.27,0,0,1,8.28,6.1,314.16,314.16,0,0,1,3.45,38.57,7.27,7.27,0,1,1-14.54.4,302.87,302.87,0,0,0-3.29-36.79A7.27,7.27,0,0,1,1693.3,785.59Zm2.06,75.5a7.45,7.45,0,0,1,2.8-.27,7.28,7.28,0,0,1,6.54,7.94,313.52,313.52,0,0,1-6.15,38.26,7.27,7.27,0,0,1-14.19-3.19,298.19,298.19,0,0,0,5.85-36.48A7.3,7.3,0,0,1,1695.36,861.09Zm-16.57,73.7a7.28,7.28,0,0,1,8.94,9.43,316.89,316.89,0,0,1-15.31,35.58,7.28,7.28,0,0,1-13-6.58A301,301,0,0,0,1674,939.3,7.27,7.27,0,0,1,1678.79,934.79Zm-34.07,67.42a7.27,7.27,0,0,1,8.15,11,317.64,317.64,0,0,1-23.48,30.78,7.28,7.28,0,0,1-11-9.52,301.3,301.3,0,0,0,22.4-29.36A7.31,7.31,0,0,1,1644.72,1002.21Zm-49.39,57.1a7.28,7.28,0,0,1,7,12.36,312.86,312.86,0,0,1-30.28,24.11,7.27,7.27,0,1,1-8.34-11.92,297.7,297.7,0,0,0,28.86-23A7.38,7.38,0,0,1,1595.33,1059.31Zm-61.83,43.28A7.27,7.27,0,0,1,1539,1116a314.68,314.68,0,0,1-35.29,16,7.28,7.28,0,0,1-5.17-13.61,298.82,298.82,0,0,0,33.65-15.21A7.65,7.65,0,0,1,1533.5,1102.59Zm-107.85,33.54a7.21,7.21,0,0,1,1.26-.26,303.62,303.62,0,0,0,31.65-5.48c1.59-.36,3.14-.72,4.69-1.11a7.28,7.28,0,0,1,8.8,5.33,7.2,7.2,0,0,1-5.32,8.8c-1.65.41-3.3.8-5,1.17a314.29,314.29,0,0,1-33.15,5.73,7.27,7.27,0,0,1-3-14.18Z"/></g><g class="cls-4"><path class="cls-5" d="M1297,538.76a7.27,7.27,0,0,1,4.29,13.9,302.33,302.33,0,0,0-33.9,13,7.27,7.27,0,1,1-6-13.24,317.26,317.26,0,0,1,35.54-13.65Zm36.09-9.07a7.2,7.2,0,0,1,.77-.19,318.12,318.12,0,0,1,37.79-4.8,7.28,7.28,0,0,1,1,14.52,304,304,0,0,0-36.06,4.58,7.28,7.28,0,0,1-3.46-14.11Zm-103.68,39.87a7.28,7.28,0,0,1,5.91,13.17,299.81,299.81,0,0,0-29.76,20.84,7.28,7.28,0,0,1-9.06-11.39,317.12,317.12,0,0,1,31.21-21.85A7.61,7.61,0,0,1,1229.39,569.56Zm177.84-44.74a7.24,7.24,0,0,1,2.52-.3A310.36,310.36,0,0,1,1447.6,529,7.27,7.27,0,1,1,1445,543.3a301.32,301.32,0,0,0-36.09-4.26,7.27,7.27,0,0,1-1.69-14.22Zm-236,91a7.28,7.28,0,0,1,7.3,12.07,298.64,298.64,0,0,0-23.87,27.38,7.28,7.28,0,0,1-11.53-8.88,317.7,317.7,0,0,1,25-28.71A7.32,7.32,0,0,1,1171.26,615.79Zm-45.35,58.82a7.28,7.28,0,0,1,8.37,10.68,302.37,302.37,0,0,0-16.64,32.31,7.28,7.28,0,0,1-13.32-5.87,319.49,319.49,0,0,1,17.44-33.87A7.3,7.3,0,0,1,1125.91,674.61Zm-30,68a7.19,7.19,0,0,1,4.21,0,7.27,7.27,0,0,1,4.85,9.07,297.6,297.6,0,0,0-8.4,35.35,7.27,7.27,0,0,1-14.33-2.49,314,314,0,0,1,8.8-37.08A7.29,7.29,0,0,1,1096,742.61Z"/><path class="cls-5" d="M1480.69,538.11a7.2,7.2,0,0,1,4.26,0c6,1.85,11.86,3.88,17.59,6a7.28,7.28,0,0,1-5.13,13.62c-5.46-2.07-11.11-4-16.78-5.77a7.27,7.27,0,0,1,.06-13.91Z"/></g><path class="cls-5" d="M1502.08,629.82a3.68,3.68,0,0,0-4.28.11l-35.8,27a195.4,195.4,0,0,0-62-12.61l-22.43-38.78a3.68,3.68,0,0,0-3.89-1.77L1320.88,614a3.68,3.68,0,0,0-2.94,3.1l-6.24,44.37a195.06,195.06,0,0,0-52.73,35l-43.32-11.57a3.68,3.68,0,0,0-4,1.5L1181.59,731a3.68,3.68,0,0,0,.12,4.27l27,35.81a195,195,0,0,0-12.61,62l-38.79,22.44a3.68,3.68,0,0,0-1.77,3.89l10.28,52.78a3.7,3.7,0,0,0,3.11,3l44.36,6.23a195.38,195.38,0,0,0,35,52.74l-11.57,43.31a3.7,3.7,0,0,0,1.5,4l44.59,30.05a3.7,3.7,0,0,0,4.28-.11l35.8-27a195.4,195.4,0,0,0,62,12.61l22.43,38.78a3.69,3.69,0,0,0,3.9,1.77l52.78-10.28a3.69,3.69,0,0,0,2.94-3.1l6.24-44.37a195.51,195.51,0,0,0,52.74-35l43.31,11.56a3.65,3.65,0,0,0,4-1.5l30.06-44.59a3.7,3.7,0,0,0-.12-4.28l-27-35.8a195.56,195.56,0,0,0,12.61-62l38.78-22.44a3.68,3.68,0,0,0,1.77-3.89L1619,769.11a3.69,3.69,0,0,0-3.11-3l-44.36-6.24a195.53,195.53,0,0,0-35-52.73l11.56-43.32a3.68,3.68,0,0,0-1.5-4Z"/><path class="cls-2" d="M1376.62,787.93a55.08,55.08,0,1,1-7.62,2.92A56.07,56.07,0,0,1,1376.62,787.93Zm27.48,91.47a39.12,39.12,0,0,0,5.55-2.13A40.48,40.48,0,1,0,1375.19,804h0a40.48,40.48,0,0,0,28.91,75.38Z"/><path class="cls-2" d="M1352.13,710.49a139.22,139.22,0,0,1,13.53-3.35,137.48,137.48,0,0,1,27.81-2.55l1.25,0a7.28,7.28,0,1,1-.29,14.55,122.65,122.65,0,0,0-26,2.26h0l-1.41.28a121.25,121.25,0,0,0-54,26.12,123,123,0,0,0-22.13,24.45l-.15.23-.47.69a122.49,122.49,0,1,0,221.8,45q-1.2-6.13-3-12.08A122.11,122.11,0,0,0,1483,759.81a7.28,7.28,0,0,1,10.82-9.73,137,137,0,1,1-233.1,131.45,138.7,138.7,0,0,1-3.39-13.68C1243.81,798.29,1285.7,730.55,1352.13,710.49Z"/><g class="cls-6"><rect class="cls-7" x="1140.08" y="3943.5" width="94.45" height="1021.47"/><path class="cls-8" d="M776.17,4923.18h822.27a2.51,2.51,0,0,1,2.51,2.51v59a0,0,0,0,1,0,0H773.66a0,0,0,0,1,0,0v-59A2.51,2.51,0,0,1,776.17,4923.18Z"/><rect class="cls-9" x="683.57" y="3714.62" width="1040.15" height="295" rx="101.58"/><path class="cls-10" d="M3071.5,4809.78c42.35-20.57,366.88-136.09,447.95-259.5a28.78,28.78,0,0,0-14-5.65c-91.69-11.05-274.83-22-437.06,35.81l-86,73.68s-29,69.5,27.64,154.32C3024.16,4816,3046.07,4822.13,3071.5,4809.78Z"/><path class="cls-11" d="M3519.45,4550.28c-81.07,123.41-405.6,238.93-447.95,259.5-25.43,12.35-47.34,6.24-61.54-1.34l.28.44c14.32,21.37,41.84,29.55,65.76,20.1,91.28-36,324.05-133.4,444.67-233.18C3536,4583.09,3533.42,4560.82,3519.45,4550.28Z"/><path class="cls-12" d="M3060.3,4917.69c42.35-20.57,366.88-136.09,447.94-259.5a28.7,28.7,0,0,0-14-5.65c-91.69-11.05-274.83-22-437.06,35.81l-86,73.68s-28.95,69.5,27.64,154.32C3013,4923.93,3034.86,4930,3060.3,4917.69Z"/><path class="cls-13" d="M3508.24,4658.19c-81.06,123.41-405.59,238.93-447.94,259.5-25.44,12.35-47.34,6.24-61.54-1.34.1.15.17.3.28.45,14.32,21.36,41.84,29.54,65.76,20.09,91.27-36.05,324-133.39,444.67-233.18C3524.83,4691,3522.22,4668.73,3508.24,4658.19Z"/><path class="cls-14" d="M3001.16,4510.2c-12.45,30.74-39.53,68.41-97.79,99.65l84.79,59c31.72.93,52.09-8.2,65.15-19.7,18.61-16.39,21.06-44.68,6.06-64.43Q3030.48,4546.71,3001.16,4510.2Z"/><path class="cls-15" d="M3002.89,4483.44C2315,3635,1466,3414.09,1466,3414.09l21.53,210,1429.56,999.75c47.8-25.63,75-72.55,90.14-105.54A33.37,33.37,0,0,0,3002.89,4483.44Z"/><path class="cls-16" d="M2982.72,4587c-3.7,29.34-20.65,81.29-89.36,124.45,25.93,20,51,40.09,74.94,60.32a41,41,0,0,0,34.66,9c23.66-4.83,59.87-19.72,70.61-65.52a38.11,38.11,0,0,0-7.91-33.08C3051.34,4665.08,3023.07,4631.79,2982.72,4587Z"/><path class="cls-17" d="M2988,4575.16C2773.5,4340,2245.44,3828.05,1665.43,3615.52a197.3,197.3,0,0,1-109.75-100.12l-86.77-180.87S1046,3235.42,785.4,3508.27c0,0,15.88,259.54,343.17,354.41,305.51,88.57,1210.83,448.19,1744.8,851.15,12.25,9.24,29.24,9.68,41.37.27,42.45-32.93,69.05-74,80.36-103A34.75,34.75,0,0,0,2988,4575.16Z"/><path class="cls-18" d="M739.43,3504.8s86.28,37.75,234.19-30.61S1523.71,3399,1523.71,3399,1393.42,2911.37,1683,2562.51c0,0,233.2,436.49,397.09,501.63l73.4,3.37V2756.12s-62.25-384.41-456-671.47l-122.6-110.5s-431.11-86.92-724.27,427.34S739.43,3504.8,739.43,3504.8Z"/><path class="cls-19" d="M2178.22,2160.19c4.1-21.61,5.64-72.16-46.49-133.77C2062,1944,1972.48,1986,1972.48,1986c-79.28,44.4-112.78,189.38-112.78,189.38l83.83-44.74c12.7,36.88,136.51,76.64,136.51,76.64l.69-.26c1.19,80.19-.75,314.07-57.62,476.74-22.28,63.73-67.6,182.13,82,385l82.45-3.37S2372.32,2751.85,2178.22,2160.19Z"/><path class="cls-20" d="M1759.15,1684.82,1529.58,2009a54.24,54.24,0,0,0,4.76,68.49c30.93,33,83.09,79.54,139.32,90.16a43.76,43.76,0,0,0,44.92-18.91l122.09-187.42S1864.05,1666.9,1759.15,1684.82Z"/><path class="cls-21" d="M1911.59,1474.12c3.83,5.1,128,407.81,128,407.81l-231.45,66-174.42-364.2S1847.55,1388.77,1911.59,1474.12Z"/><path class="cls-22" d="M1725.61,1643.55l73.66,190.77a43.82,43.82,0,0,0,6.6,11.49c12.36,15.51,48.33,52.07,88.15,13,30.17-29.64,58.62-56.88,85.71-70.5,23.87-12,52.79,1.08,60.4,26.7,11.41,38.39,29.38,104.31,38.76,167.14a43.37,43.37,0,0,1-34,48.87c-47.12,9.86-129.33,24.24-201.37,22.56a43,43,0,0,1-37.38-24.11c-26.66-53.89-93.61-187.65-118.81-223.28-23.16-32.76-75.46-32.57-102.12-30.06a43.15,43.15,0,0,1-33.66-11.49c-21.27-20-49.76-60.2-9.19-110.18a43.72,43.72,0,0,0-2.6-58.23c-22.45-23.31-41-60.52-5.59-107.26,37.58-49.52,88.37-46.84,122.6-37,16.69,4.79,33.72-2.52,44.69-16a22.14,22.14,0,0,1,14.14-8c20.92-3.37,37-19.46,37.6-40.64.88-31.3,14.4-67.68,66-85.42,100.94-34.67,167.33,61.88,175.76,135.13s-103.15,104.61-169.38,101.58c-45.9-2.1-79.75,40-96.21,66A43.45,43.45,0,0,0,1725.61,1643.55Z"/><path class="cls-23" d="M1716.06,1878.28s-20.17-127-73.38-131.7S1539.12,1787,1593.93,1857C1662.1,1944.07,1716.06,1878.28,1716.06,1878.28Z"/><path class="cls-24" d="M1140.08,2021.23S677.32,2316.37,576,2659s125.42,410.08,341.31,440.43l16.24-261.65s-151.23,0-54.76-143,355.72-238.37,355.72-238.37S1891.39,1836.65,1140.08,2021.23Z"/><path class="cls-25" d="M933.57,2843.76c-2.65,0-65.15-.46-86.22-40.09-14.38-27.05-5.46-64.81,26.52-112.22,96.45-143,347.95-236.71,358.61-240.63a6,6,0,0,1,4.11,11.18c-2.58.95-258.56,96.35-352.83,236.11-29.32,43.46-38,77.08-25.9,99.94,17.68,33.32,75.14,33.79,75.72,33.79a6,6,0,0,1,0,11.92Z"/><path class="cls-26" d="M917.33,3099.45s-67.61-111.73,21.43-245.24l597.62,98.95s286.07-48.4,299.75-47.42,200.39,116,200.39,116-6.27,13.34-50.7,10.88-15.27,5.37-15.27,5.37l-1.61,22.44s-30.93,7.09-55.74-19.3-93.76-39.17-93.76-39.17-146.58,108.31-290.57,55.91Z"/><path class="cls-27" d="M1786.86,4984.66a34.77,34.77,0,0,1-14-3c-18-7.94-26.33-29.32-18.58-47.77l744.44-1772.66c7.75-18.44,28.61-27,46.64-19s26.32,29.32,18.58,47.76L1819.49,4962.66A35.49,35.49,0,0,1,1786.86,4984.66Z"/><path class="cls-28" d="M2625.5,4984.66a35.47,35.47,0,0,1-32.62-22L1848.44,3190c-7.75-18.44.57-39.83,18.58-47.76s38.88.58,46.63,19l744.44,1772.66c7.75,18.45-.57,39.83-18.58,47.77A34.73,34.73,0,0,1,2625.5,4984.66Z"/><path class="cls-29" d="M3176.16,3108.33c1.08-11-.39-22.36-4-31s-9-13.63-14.72-13.63h-1929c-7.49,0-14.46,7.5-18.5,19.9s-4.57,28-1.43,41.35l20.9,88.93c4.79,20.36,15.16,33.4,26.57,33.4H3144.19c10.62,0,19.75-14.8,21.76-35.29Z"/></g><path class="cls-30" d="M2341.81,967.23c-252.53,120.56-418.45,371.47-222.34,359.76,368.16-22,119.67,183.06,313.3,177s493.34-47.33,689.45-250.54,5.49-251.79-74-243.92C2786.51,1035.46,3132.84,589.59,2341.81,967.23Z"/><path class="cls-30" d="M2256.26,1603.87c.52,28.59,21.57,75.53,68.82,74.66s102.82-49.22,102.29-77.82-39.26-51.07-86.51-50.2S2255.73,1575.27,2256.26,1603.87Z"/><path class="cls-30" d="M2185.32,1719.12c.26,13.84,12.44,24.85,27.21,24.57s44-15,43.72-28.83-18.57-27.69-33.34-27.42S2185.07,1705.27,2185.32,1719.12Z"/><path class="cls-31" d="M2730.42,1194.38c-.39-4.8-5.29-9-13.59-12.28,9-5,14-10.3,13.59-15.53-1.28-15.81-51.37-24.68-111.88-19.8s-108.53,21.65-107.25,37.47c.38,4.8,5.28,9,13.58,12.28-9,5-14,10.3-13.58,15.53.38,4.79,5.28,8.94,13.58,12.27-9,5-14,10.31-13.58,15.53.38,4.8,5.28,9,13.58,12.28-9,5-14,10.3-13.58,15.53.56,7,10.68,12.63,27,16.32a140.21,140.21,0,0,0,.42,17.08c2.36,29.15,35.15,52,78.5,52s80.89-31.16,81.32-60.39a149.88,149.88,0,0,0-.85-19.08c20.74-6.93,33.38-15.39,32.72-23.6-.39-4.8-5.29-9-13.59-12.28,9-5,14-10.3,13.59-15.53-.39-4.79-5.29-8.94-13.59-12.27C2725.85,1204.93,2730.84,1199.6,2730.42,1194.38Z"/><path class="cls-2" d="M2590.54,1290.27c-18,0-34.41-1.32-48-3.92a1.46,1.46,0,0,1,.55-2.86c21.26,4.07,49.65,5,79.95,2.52,24.8-2,48-6,67.06-11.56a1.45,1.45,0,0,1,.81,2.79c-19.26,5.62-42.65,9.66-67.63,11.67C2612,1289.82,2601,1290.27,2590.54,1290.27Z"/><path class="cls-2" d="M2590.84,1262.44c-23.35,0-44.21-2.2-58.93-6.39a1.46,1.46,0,1,1,.8-2.8c21,6,54.74,7.83,90.33,5,35.21-2.84,68.05-10,87.84-19.11a1.45,1.45,0,1,1,1.22,2.64c-20.09,9.26-53.29,16.5-88.82,19.36C2612.19,1262,2601.27,1262.44,2590.84,1262.44Z"/><path class="cls-2" d="M2590.55,1234.65c-25.22,0-47.28-2.58-62.13-7.48a1.45,1.45,0,0,1,.91-2.76c20.67,6.82,55.7,9,93.71,6,35.21-2.84,68-10,87.84-19.11a1.45,1.45,0,1,1,1.22,2.64c-20.09,9.26-53.3,16.5-88.82,19.37C2612,1234.21,2601,1234.65,2590.55,1234.65Z"/><path class="cls-2" d="M2590.74,1206.83c-20,0-38.19-1.62-52.33-4.76a1.45,1.45,0,0,1,.63-2.84c21.27,4.73,51.88,6,84,3.36,34.9-2.81,67.56-9.88,87.39-18.9a1.45,1.45,0,1,1,1.2,2.64c-20.11,9.16-53.14,16.32-88.35,19.16C2612.15,1206.39,2601.2,1206.83,2590.74,1206.83Z"/><path class="cls-5" d="M2470.67,1054A204.65,204.65,0,0,0,2434,982.47c-36-45.4-94.79-137.73-102-263.75-10.52-183.29,152-275.06,300.38-262.6S2927.1,579,2911.07,749.55c-9.86,104.92-68.58,184.5-112.31,230.2A242.9,242.9,0,0,0,2740.47,1083c-13.12,47.38-44.35,106.42-118.57,110C2525.86,1197.7,2486,1108.18,2470.67,1054Z"/><path class="cls-2" d="M2646.43,1156.5l51.91-337.59c1.07-7,4.5-11.66,7.66-10.46s4.86,7.82,3.78,14.79c0,.19-.06.42-.09.6l-59.13,334.45c-.44,2.52-1.72,4.1-2.85,3.55S2646.06,1158.93,2646.43,1156.5Z"/><path class="cls-2" d="M2592.55,1159.18l-51.9-337.59c-1.07-7-4.5-11.66-7.67-10.46s-4.85,7.82-3.78,14.79l.1.6L2588.42,1161c.45,2.52,1.72,4.1,2.86,3.55S2592.93,1161.61,2592.55,1159.18Z"/><path class="cls-32" d="M2698,789.92a5.43,5.43,0,0,0-6.81-1.76l-28.9,13.5-10-28.59a6.11,6.11,0,0,0-3.52-3.53c-3.32-1.37-7.3-.15-8.88,2.74l-.05.09L2616,815.7,2594,754l0-.1a7,7,0,0,0-3.34-3.76c-3.7-2-8.58-1.06-10.91,2.15L2546.43,798a4,4,0,0,0,1.17,5.77,5.57,5.57,0,0,0,7.07-.77l29.25-32.63,26.35,58.68,0,0a4.59,4.59,0,0,0,2.32,2.27,5.5,5.5,0,0,0,6.89-1.78l25.42-40.79,9.57,20.63.08.18a3.75,3.75,0,0,0,.24.44,5.44,5.44,0,0,0,6.81,1.77l34.3-16A4.08,4.08,0,0,0,2698,789.92Z"/><path class="cls-32" d="M2799.89,934.7a5,5,0,0,1-4-8.07A384.09,384.09,0,0,0,2820,889.91a5.06,5.06,0,0,1,8.76,5.06A396.16,396.16,0,0,1,2804,932.66,5.05,5.05,0,0,1,2799.89,934.7Z"/><path class="cls-32" d="M2842.59,861.43a5.07,5.07,0,0,1-4.64-7.08c55-126.73,7.54-233.57,7.05-234.63a5.06,5.06,0,0,1,9.2-4.22c.51,1.11,49.93,111.86-7,242.88A5.05,5.05,0,0,1,2842.59,861.43Z"/><path class="cls-5" d="M2804.37,2098.61C2763.4,2001,2615,1705,2352.46,1796.38a4,4,0,0,0,.61,7.72c57.89,10.73,272.39,64.91,444.41,298.38A4,4,0,0,0,2804.37,2098.61Z"/><path class="cls-5" d="M2802.12,2104.71c-59-55.63-234.76-270.84-468.15-172.49a2.7,2.7,0,0,0,.72,5.17c57.68,6.09,344.06,42.37,466.31,172C2804.24,2112.87,2805.56,2108,2802.12,2104.71Z"/><path class="cls-5" d="M2796.58,2080.28c-5.61-73.59-38.49-351.44-217.43-408.75a1.44,1.44,0,0,0-1.63,2.19c21.55,30.4,178.43,255.07,216.26,407A1.42,1.42,0,0,0,2796.58,2080.28Z"/><path class="cls-5" d="M2814.39,2164.61a1.55,1.55,0,0,0,1.84-2.45c-31.61-31.49-162.49-147.21-328.65-90.22C2299.33,2136.49,2628.94,2064,2814.39,2164.61Z"/><path class="cls-5" d="M2810,2107c-.38,5.51-8.2,6.16-9.42.78-19.85-87.28-61.92-328,60.52-389.18C3006.06,1646.09,2829.73,1821.56,2810,2107Z"/><path class="cls-5" d="M2801.59,2106.34c20.57-53.59,99.86-220,264.88-130.09a3.17,3.17,0,0,1-1.29,6c-37.12,2.34-160.57,18.36-258.27,127.31A3.15,3.15,0,0,1,2801.59,2106.34Z"/><path class="cls-5" d="M2806,2119.79c7.59-33.09,47.07-99.47,247.93-38.67a1,1,0,0,1-.36,2c-39.47-4.1-172.85-13.16-238.22,42.35A5.79,5.79,0,0,1,2806,2119.79Z"/><path class="cls-5" d="M2863.85,3025.63l.07-6.78v-7.28l-.11-14.59-.19-29.17-.85-58.36c-.52-38.89-1.29-77.78-2.11-116.66-1.77-77.76-4-155.49-7.55-233.13s-8.28-155.21-15.75-232.48c-3.83-38.62-8.45-77.15-14.67-115.41s-14-76.32-26.76-112.86l3.46-1.42a419.6,419.6,0,0,1,19.29,55.45l3.92,14.15c1.24,4.74,2.29,9.51,3.45,14.26l3.39,14.28,3,14.34c7.76,38.32,13.76,77,18.47,115.71s8.39,77.6,11.57,116.47c3,38.89,5.19,77.82,7.13,116.76q2.53,58.41,3.86,116.86c.61,39,1.21,77.92,1,116.88q-.08,58.44-1.61,116.86l-2.07,58.41-1.28,29.19-.88,14.6-.49,7.31c-.21,2.46-.27,4.73-.75,7.79Z"/><path class="cls-5" d="M2931.76,2337.72c27.44-65.4,126.86-263.7,302.73-202.45a2.68,2.68,0,0,1-.41,5.17c-38.78,7.18-182.47,43.48-297.71,199.88A2.66,2.66,0,0,1,2931.76,2337.72Z"/><path class="cls-5" d="M2933.26,2341.81c39.54-37.26,157.27-181.43,313.61-115.55a1.81,1.81,0,0,1-.48,3.47c-38.64,4.08-230.48,28.38-312.37,115.25C2931.84,2347.28,2931,2344,2933.26,2341.81Z"/><path class="cls-5" d="M2937,2325.45c3.75-49.3,25.78-235.43,145.65-273.82a1,1,0,0,1,1.09,1.46c-14.44,20.37-119.53,170.88-144.87,272.66A1,1,0,0,1,2937,2325.45Z"/><path class="cls-5" d="M2925.05,2381.94a1,1,0,0,1-1.24-1.64c21.18-21.09,108.85-98.61,220.16-60.44C3270.08,2363.1,3049.28,2314.54,2925.05,2381.94Z"/><path class="cls-5" d="M2928,2343.32a3.2,3.2,0,0,0,6.31.52c13.3-58.47,41.48-219.7-40.54-260.71C2796.65,2034.59,2914.77,2152.13,2928,2343.32Z"/><path class="cls-5" d="M2933.62,2342.91c-13.78-35.91-66.9-147.38-177.44-87.15a2.13,2.13,0,0,0,.86,4c24.87,1.56,107.56,12.29,173,85.28A2.11,2.11,0,0,0,2933.62,2342.91Z"/><path class="cls-5" d="M2930.64,2351.92c-5.09-22.17-31.53-66.64-166.09-25.91a.7.7,0,0,0,.24,1.37c26.45-2.75,115.79-8.82,159.58,28.36A3.88,3.88,0,0,0,2930.64,2351.92Z"/><path class="cls-5" d="M2904.72,3026.81c-.4-2.46-.41-4.11-.57-6l-.35-5.47-.62-10.92c-.41-7.27-.67-14.55-.95-21.83l-1.44-43.68c-1-29.12-1-58.26-1.22-87.39s-.12-58.28.45-87.42,1.31-58.28,2.56-87.41,2.85-58.26,4.9-87.36c2.25-29.1,4.83-58.18,8.43-87.18l2.81-21.74,3.31-21.68c2.34-14.43,4.8-28.85,7.94-43.17q2.15-10.76,4.87-21.43c.91-3.55,1.74-7.11,2.71-10.65l3.06-10.57a306,306,0,0,1,15-41.39l3.47,1.41a400.54,400.54,0,0,0-11.33,41.8l-2.26,10.59c-.69,3.55-1.26,7.13-1.9,10.69l-1.94,10.66-1.69,10.73c-1.12,7.15-2.24,14.29-3.13,21.48s-2.07,14.32-2.83,21.54c-1.73,14.38-3.25,28.79-4.76,43.21-5.55,57.73-9.58,115.67-12.44,173.71s-4.76,116.15-6.25,174.29c-.78,29.07-1,58.15-1.6,87.23l-.53,43.63-.14,21.82,0,10.9.06,10.38Z"/><path class="cls-5" d="M2736.6,2458.7c-35.07-57.23-155-228.11-291.91-141.63-2,1.27-1.07,4.78,1.29,4.81,34,.45,161.59,11.26,287.21,140C2735.23,2464,2738.16,2461.25,2736.6,2458.7Z"/><path class="cls-5" d="M2736.08,2462.81c-40.1-28.71-165.59-145.54-285.18-57.86-1.31,1-.56,3.3,1,3.19,33.28-2.46,199.25-10.83,284.09,57.77C2738.27,2467.73,2738.42,2464.48,2736.08,2462.81Z"/><path class="cls-5" d="M2730,2448c-12.17-45.9-64.75-217.92-172.7-234.59a.9.9,0,0,0-.65,1.56c15.88,16.86,131.88,141.72,171.83,233.62A.82.82,0,1,0,2730,2448Z"/><path class="cls-5" d="M2750.33,2499.32c1,.37,1.61-1.08.74-1.74-21.68-16.45-109.68-75.29-196.42-21.11C2456.38,2537.84,2633.41,2456,2750.33,2499.32Z"/><path class="cls-5" d="M2740.82,2463.36c.46,3.52-3.87,4.79-5.22,1.52-21.88-53-75.09-200.52-13.52-252.6C2794.94,2150.64,2717,2280.82,2740.82,2463.36Z"/><path class="cls-5" d="M2736,2463.89c5-36.12,29.38-150,133.47-111.17,1.76.65,1.76,3.43,0,3.9-20.65,5.54-88.32,29.15-130.08,108.7C2738.37,2467.23,2735.67,2466.1,2736,2463.89Z"/><path class="cls-5" d="M2740.14,2471.91c.22-21.75,14.36-68,135.11-51.54.72.1.76,1.27,0,1.33-22.76,1.72-99.1,10.57-129.18,52.8C2744.18,2477.21,2740.1,2475.44,2740.14,2471.91Z"/><path class="cls-5" d="M2882.9,3038.13l-3.42-18-3.63-18.4L2868.4,2965,2853,2891.58q-7.86-36.67-16.23-73.24-8.13-36.6-16.84-73.06-17.52-72.9-38.19-144.87l-5.25-17.95-5.47-17.88c-3.65-11.91-7.36-23.81-11.49-35.55-8.26-23.47-16.84-46.88-28.36-68.89l3.21-1.93a287.42,287.42,0,0,1,18.3,33.14c2.75,5.67,5.48,11.36,7.85,17.19s4.89,11.61,7.13,17.49q13.83,35.11,24.77,71.2c14.74,48,26.76,96.72,38.18,145.52q8.47,36.63,16.36,73.37,7.56,36.81,14.64,73.71c4.7,24.6,9.32,49.22,13.44,73.93l6.14,37.06,2.89,18.57,1.35,9.3.64,4.67c.19,1.59.45,3,.56,5.13Z"/><path d="M2795.94,2794.76h159.89c10.48,0,18.24,15.8,15.88,32.34-10.23,71.79-22.49,144.64-47.58,218.58-4.63,13.66-13.45,22.22-23.07,22.22h-52.18c-9.47,0-18.17-8.43-22.66-21.94-20.09-60.5-39.43-132.62-49-214.47C2775,2812.44,2784,2794.76,2795.94,2794.76Z"/></g></g></svg>