<svg xmlns="http://www.w3.org/2000/svg" xmlns:xlink="http://www.w3.org/1999/xlink" viewBox="0 0 846.45 773.34"><defs><style>.cls-1{mask:url(#mask);filter:url(#luminosity-noclip-29);}.cls-10,.cls-12,.cls-14,.cls-16,.cls-18,.cls-2,.cls-20,.cls-22,.cls-24,.cls-26,.cls-28,.cls-30,.cls-32,.cls-34,.cls-36,.cls-38,.cls-4,.cls-40,.cls-42,.cls-44,.cls-46,.cls-48,.cls-50,.cls-52,.cls-54,.cls-56,.cls-6,.cls-8{mix-blend-mode:multiply;}.cls-2{fill:url(#linear-gradient);}.cls-3{mask:url(#mask-2);filter:url(#luminosity-noclip-34);}.cls-4{fill:url(#linear-gradient-2);}.cls-5{mask:url(#mask-3);filter:url(#luminosity-noclip-35);}.cls-6{fill:url(#linear-gradient-3);}.cls-7{mask:url(#mask-4);filter:url(#luminosity-noclip-36);}.cls-8{fill:url(#linear-gradient-4);}.cls-9{mask:url(#mask-5);filter:url(#luminosity-noclip-37);}.cls-10{fill:url(#linear-gradient-5);}.cls-11{mask:url(#mask-6);filter:url(#luminosity-noclip-38);}.cls-12{fill:url(#linear-gradient-6);}.cls-13{mask:url(#mask-7);filter:url(#luminosity-noclip-30);}.cls-14{fill:url(#linear-gradient-7);}.cls-15{mask:url(#mask-8);filter:url(#luminosity-noclip-39);}.cls-16{fill:url(#linear-gradient-8);}.cls-17{mask:url(#mask-9);filter:url(#luminosity-noclip-40);}.cls-18{fill:url(#linear-gradient-9);}.cls-19{mask:url(#mask-10);filter:url(#luminosity-noclip-41);}.cls-20{fill:url(#linear-gradient-10);}.cls-21{mask:url(#mask-11);filter:url(#luminosity-noclip-42);}.cls-22{fill:url(#linear-gradient-11);}.cls-23{mask:url(#mask-12);filter:url(#luminosity-noclip-43);}.cls-24{fill:url(#linear-gradient-12);}.cls-25{mask:url(#mask-13);filter:url(#luminosity-noclip-44);}.cls-26{fill:url(#linear-gradient-13);}.cls-27{mask:url(#mask-14);filter:url(#luminosity-noclip-45);}.cls-28{fill:url(#linear-gradient-14);}.cls-29{mask:url(#mask-15);filter:url(#luminosity-noclip-46);}.cls-30{fill:url(#linear-gradient-15);}.cls-31{mask:url(#mask-16);filter:url(#luminosity-noclip-47);}.cls-32{fill:url(#linear-gradient-16);}.cls-33{mask:url(#mask-17);filter:url(#luminosity-noclip-48);}.cls-34{fill:url(#linear-gradient-17);}.cls-35{mask:url(#mask-18);filter:url(#luminosity-noclip-31);}.cls-36{fill:url(#linear-gradient-18);}.cls-37{mask:url(#mask-19);filter:url(#luminosity-noclip-49);}.cls-38{fill:url(#linear-gradient-19);}.cls-39{mask:url(#mask-20);filter:url(#luminosity-noclip-50);}.cls-40{fill:url(#linear-gradient-20);}.cls-41{mask:url(#mask-21);filter:url(#luminosity-noclip-51);}.cls-42{fill:url(#linear-gradient-21);}.cls-43{mask:url(#mask-22);filter:url(#luminosity-noclip-52);}.cls-44{fill:url(#linear-gradient-22);}.cls-45{mask:url(#mask-23);filter:url(#luminosity-noclip-53);}.cls-46{fill:url(#linear-gradient-23);}.cls-47{mask:url(#mask-24);filter:url(#luminosity-noclip-54);}.cls-48{fill:url(#linear-gradient-24);}.cls-49{mask:url(#mask-25);filter:url(#luminosity-noclip-55);}.cls-50{fill:url(#linear-gradient-25);}.cls-51{mask:url(#mask-26);filter:url(#luminosity-noclip-56);}.cls-52{fill:url(#linear-gradient-26);}.cls-53{mask:url(#mask-27);filter:url(#luminosity-noclip-32);}.cls-54{fill:url(#linear-gradient-27);}.cls-55{mask:url(#mask-28);filter:url(#luminosity-noclip-33);}.cls-56{fill:url(#linear-gradient-28);}.cls-137,.cls-57,.cls-58{fill:#e92f32;}.cls-57{opacity:0.34;}.cls-58{opacity:0.45;}.cls-139,.cls-59{fill:#96a7ae;}.cls-59{opacity:0.36;}.cls-60{fill:url(#linear-gradient-29);}.cls-131,.cls-134,.cls-61,.cls-62,.cls-99{fill:#fff;}.cls-61{opacity:0.57;}.cls-63{fill:url(#linear-gradient-30);}.cls-64{mask:url(#mask-29);}.cls-128,.cls-143,.cls-145,.cls-147,.cls-151,.cls-153,.cls-155,.cls-159,.cls-161,.cls-163,.cls-167,.cls-169,.cls-171,.cls-175,.cls-177,.cls-179,.cls-183,.cls-185,.cls-187,.cls-191,.cls-193,.cls-195,.cls-65,.cls-67,.cls-69{opacity:0.29;}.cls-65{fill:url(#linear-gradient-31);}.cls-66{mask:url(#mask-30);}.cls-67{fill:url(#linear-gradient-32);}.cls-68{mask:url(#mask-31);}.cls-69{fill:url(#linear-gradient-33);}.cls-70{mask:url(#mask-32);}.cls-71{fill:url(#linear-gradient-34);}.cls-72{fill:url(#linear-gradient-35);}.cls-73{fill:url(#linear-gradient-36);}.cls-74{fill:url(#linear-gradient-37);}.cls-75{fill:url(#linear-gradient-38);}.cls-76{fill:url(#linear-gradient-39);}.cls-77{fill:url(#linear-gradient-40);}.cls-78{fill:url(#linear-gradient-41);}.cls-79{opacity:0.4;fill:url(#linear-gradient-42);}.cls-80{fill:url(#linear-gradient-43);}.cls-81{fill:url(#linear-gradient-44);}.cls-82{fill:url(#linear-gradient-45);}.cls-83{fill:url(#linear-gradient-46);}.cls-84{fill:url(#linear-gradient-47);}.cls-85{fill:url(#linear-gradient-48);}.cls-86{fill:url(#linear-gradient-49);}.cls-87{fill:url(#linear-gradient-50);}.cls-88{fill:url(#linear-gradient-51);}.cls-89{fill:#00203b;opacity:0.89;}.cls-90{fill:url(#linear-gradient-52);}.cls-91{fill:url(#linear-gradient-53);}.cls-92{fill:#ee9171;}.cls-93{fill:url(#linear-gradient-54);}.cls-94{fill:url(#linear-gradient-55);}.cls-95{fill:url(#linear-gradient-56);}.cls-96{fill:url(#linear-gradient-57);}.cls-97{fill:url(#linear-gradient-58);}.cls-98{opacity:0.86;}.cls-99{opacity:0;}.cls-100{fill:#edecec;opacity:0.01;}.cls-101{fill:#e0e0e0;opacity:0.02;}.cls-102{fill:#d5d5d6;opacity:0.03;}.cls-103{fill:#cacacb;opacity:0.04;}.cls-104{fill:#c0c0c1;opacity:0.05;}.cls-105{fill:#b6b6b8;opacity:0.06;}.cls-106{fill:#acadae;opacity:0.07;}.cls-107{fill:#a3a3a5;opacity:0.08;}.cls-108{fill:#9a9b9d;opacity:0.09;}.cls-109{fill:#919294;opacity:0.1;}.cls-110{fill:#888a8c;opacity:0.11;}.cls-111{fill:#808184;opacity:0.12;}.cls-112{fill:#787a7c;}.cls-112,.cls-134{opacity:0.13;}.cls-113{fill:#707275;opacity:0.14;}.cls-114{fill:#686b6e;opacity:0.15;}.cls-115{fill:#616467;opacity:0.16;}.cls-116{fill:#5a5d60;opacity:0.17;}.cls-117{fill:#54575a;opacity:0.18;}.cls-118{fill:#4d5154;opacity:0.19;}.cls-119{fill:#474b4e;opacity:0.2;}.cls-120{fill:#414548;opacity:0.21;}.cls-121{fill:#3b4042;opacity:0.22;}.cls-122{fill:#353a3d;opacity:0.23;}.cls-123{fill:#2f3538;opacity:0.24;}.cls-124{fill:#293032;opacity:0.25;}.cls-125{fill:#232b2d;opacity:0.26;}.cls-126{fill:#1d2528;opacity:0.27;}.cls-127{fill:#162022;opacity:0.28;}.cls-128{fill:#0e1a1d;}.cls-129{fill:#051317;opacity:0.3;}.cls-130{fill:#000c10;opacity:0.31;}.cls-131{opacity:0.93;}.cls-132{fill:url(#linear-gradient-59);}.cls-133{mask:url(#mask-33);}.cls-135{mask:url(#mask-34);}.cls-136{mask:url(#mask-35);}.cls-138{fill:#841e24;}.cls-139{opacity:0.5;}.cls-140{fill:url(#linear-gradient-60);}.cls-141{fill:url(#linear-gradient-61);}.cls-142{mask:url(#mask-36);}.cls-143{fill:url(#linear-gradient-62);}.cls-144{mask:url(#mask-37);}.cls-145{fill:url(#linear-gradient-63);}.cls-146{mask:url(#mask-38);}.cls-147{fill:url(#linear-gradient-64);}.cls-148{fill:url(#linear-gradient-65);}.cls-149{fill:url(#linear-gradient-66);}.cls-150{mask:url(#mask-39);}.cls-151{fill:url(#linear-gradient-67);}.cls-152{mask:url(#mask-40);}.cls-153{fill:url(#linear-gradient-68);}.cls-154{mask:url(#mask-41);}.cls-155{fill:url(#linear-gradient-69);}.cls-156{fill:url(#linear-gradient-70);}.cls-157{fill:url(#linear-gradient-71);}.cls-158{mask:url(#mask-42);}.cls-159{fill:url(#linear-gradient-72);}.cls-160{mask:url(#mask-43);}.cls-161{fill:url(#linear-gradient-73);}.cls-162{mask:url(#mask-44);}.cls-163{fill:url(#linear-gradient-74);}.cls-164{fill:url(#linear-gradient-75);}.cls-165{fill:url(#linear-gradient-76);}.cls-166{mask:url(#mask-45);}.cls-167{fill:url(#linear-gradient-77);}.cls-168{mask:url(#mask-46);}.cls-169{fill:url(#linear-gradient-78);}.cls-170{mask:url(#mask-47);}.cls-171{fill:url(#linear-gradient-79);}.cls-172{fill:url(#linear-gradient-80);}.cls-173{fill:url(#linear-gradient-81);}.cls-174{mask:url(#mask-48);}.cls-175{fill:url(#linear-gradient-82);}.cls-176{mask:url(#mask-49);}.cls-177{fill:url(#linear-gradient-83);}.cls-178{mask:url(#mask-50);}.cls-179{fill:url(#linear-gradient-84);}.cls-180{fill:url(#linear-gradient-85);}.cls-181{fill:url(#linear-gradient-86);}.cls-182{mask:url(#mask-51);}.cls-183{fill:url(#linear-gradient-87);}.cls-184{mask:url(#mask-52);}.cls-185{fill:url(#linear-gradient-88);}.cls-186{mask:url(#mask-53);}.cls-187{fill:url(#linear-gradient-89);}.cls-188{fill:url(#linear-gradient-90);}.cls-189{fill:url(#linear-gradient-91);}.cls-190{mask:url(#mask-54);}.cls-191{fill:url(#linear-gradient-92);}.cls-192{mask:url(#mask-55);}.cls-193{fill:url(#linear-gradient-93);}.cls-194{mask:url(#mask-56);}.cls-195{fill:url(#linear-gradient-94);}.cls-196{filter:url(#luminosity-noclip-28);}.cls-197{filter:url(#luminosity-noclip-27);}.cls-198{filter:url(#luminosity-noclip-26);}.cls-199{filter:url(#luminosity-noclip-25);}.cls-200{filter:url(#luminosity-noclip-24);}.cls-201{filter:url(#luminosity-noclip-23);}.cls-202{filter:url(#luminosity-noclip-22);}.cls-203{filter:url(#luminosity-noclip-21);}.cls-204{filter:url(#luminosity-noclip-20);}.cls-205{filter:url(#luminosity-noclip-19);}.cls-206{filter:url(#luminosity-noclip-18);}.cls-207{filter:url(#luminosity-noclip-17);}.cls-208{filter:url(#luminosity-noclip-16);}.cls-209{filter:url(#luminosity-noclip-15);}.cls-210{filter:url(#luminosity-noclip-14);}.cls-211{filter:url(#luminosity-noclip-13);}.cls-212{filter:url(#luminosity-noclip-12);}.cls-213{filter:url(#luminosity-noclip-11);}.cls-214{filter:url(#luminosity-noclip-10);}.cls-215{filter:url(#luminosity-noclip-9);}.cls-216{filter:url(#luminosity-noclip-8);}.cls-217{filter:url(#luminosity-noclip-7);}.cls-218{filter:url(#luminosity-noclip-6);}.cls-219{filter:url(#luminosity-noclip-5);}.cls-220{filter:url(#luminosity-noclip-4);}.cls-221{filter:url(#luminosity-noclip-3);}.cls-222{filter:url(#luminosity-noclip-2);}.cls-223{filter:url(#luminosity-noclip);}</style><filter id="luminosity-noclip" x="690.59" y="-8568.44" width="6.57" height="32766" filterUnits="userSpaceOnUse" color-interpolation-filters="sRGB"><feFlood flood-color="#fff" result="bg"/><feBlend in="SourceGraphic" in2="bg"/></filter><mask id="mask" x="690.59" y="-8568.44" width="6.57" height="32766" maskUnits="userSpaceOnUse"><g class="cls-223"/></mask><linearGradient id="linear-gradient" x1="-5135.15" y1="2045.82" x2="-5135.07" y2="2042.14" gradientTransform="matrix(0.58, -0.82, 0.82, 0.58, 2001.56, -4765.41)" gradientUnits="userSpaceOnUse"><stop offset="0"/><stop offset="0.12" stop-color="#070707"/><stop offset="0.31" stop-color="#1b1b1b"/><stop offset="0.53" stop-color="#3c3c3c"/><stop offset="0.77" stop-color="#696969"/><stop offset="1" stop-color="#999"/></linearGradient><filter id="luminosity-noclip-2" x="517.52" y="-8568.44" width="103" height="32766" filterUnits="userSpaceOnUse" color-interpolation-filters="sRGB"><feFlood flood-color="#fff" result="bg"/><feBlend in="SourceGraphic" in2="bg"/></filter><mask id="mask-2" x="517.52" y="-8568.44" width="103" height="32766" maskUnits="userSpaceOnUse"><g class="cls-222"/></mask><linearGradient id="linear-gradient-2" x1="-5099" y1="-40.63" x2="-5096.54" y2="-66.71" gradientTransform="matrix(-0.98, -0.2, -0.2, 0.98, -4434.67, -361.61)" gradientUnits="userSpaceOnUse"><stop offset="0"/><stop offset="0.24" stop-color="#040404"/><stop offset="0.46" stop-color="#0f0f0f"/><stop offset="0.68" stop-color="#222"/><stop offset="0.89" stop-color="#3c3c3c"/><stop offset="1" stop-color="#4d4d4d"/></linearGradient><filter id="luminosity-noclip-3" x="516.91" y="-8568.44" width="108.9" height="32766" filterUnits="userSpaceOnUse" color-interpolation-filters="sRGB"><feFlood flood-color="#fff" result="bg"/><feBlend in="SourceGraphic" in2="bg"/></filter><mask id="mask-3" x="516.91" y="-8568.44" width="108.9" height="32766" maskUnits="userSpaceOnUse"><g class="cls-221"/></mask><linearGradient id="linear-gradient-3" x1="-5094.46" y1="-66.86" x2="-5093.82" y2="-97.7" gradientTransform="matrix(-0.98, -0.2, -0.2, 0.98, -4434.67, -361.61)" xlink:href="#linear-gradient"/><filter id="luminosity-noclip-4" x="342.29" y="-8568.44" width="10.64" height="32766" filterUnits="userSpaceOnUse" color-interpolation-filters="sRGB"><feFlood flood-color="#fff" result="bg"/><feBlend in="SourceGraphic" in2="bg"/></filter><mask id="mask-4" x="342.29" y="-8568.44" width="10.64" height="32766" maskUnits="userSpaceOnUse"><g class="cls-220"/></mask><linearGradient id="linear-gradient-4" x1="-5262.89" y1="2264.37" x2="-5262.77" y2="2258.69" gradientTransform="translate(4201.36 4856.84) rotate(70.97)" xlink:href="#linear-gradient"/><filter id="luminosity-noclip-5" x="333.67" y="-8568.44" width="9.83" height="32766" filterUnits="userSpaceOnUse" color-interpolation-filters="sRGB"><feFlood flood-color="#fff" result="bg"/><feBlend in="SourceGraphic" in2="bg"/></filter><mask id="mask-5" x="333.67" y="-8568.44" width="9.83" height="32766" maskUnits="userSpaceOnUse"><g class="cls-219"/></mask><linearGradient id="linear-gradient-5" x1="-5263.69" y1="2273.79" x2="-5263.24" y2="2269.04" gradientTransform="translate(4201.36 4856.84) rotate(70.97)" xlink:href="#linear-gradient-2"/><filter id="luminosity-noclip-6" x="337.96" y="-8568.44" width="10.64" height="32766" filterUnits="userSpaceOnUse" color-interpolation-filters="sRGB"><feFlood flood-color="#fff" result="bg"/><feBlend in="SourceGraphic" in2="bg"/></filter><mask id="mask-6" x="337.96" y="-8568.44" width="10.64" height="32766" maskUnits="userSpaceOnUse"><g class="cls-218"/></mask><linearGradient id="linear-gradient-6" x1="-5262.89" y1="2268.95" x2="-5262.77" y2="2263.27" gradientTransform="translate(4201.36 4856.84) rotate(70.97)" xlink:href="#linear-gradient"/><filter id="luminosity-noclip-7" x="695.46" y="-8568.44" width="6.37" height="32766" filterUnits="userSpaceOnUse" color-interpolation-filters="sRGB"><feFlood flood-color="#fff" result="bg"/><feBlend in="SourceGraphic" in2="bg"/></filter><mask id="mask-7" x="695.46" y="-8568.44" width="6.37" height="32766" maskUnits="userSpaceOnUse"><g class="cls-217"/></mask><linearGradient id="linear-gradient-7" x1="-5135.67" y1="2051.92" x2="-5135.38" y2="2048.85" gradientTransform="matrix(0.58, -0.82, 0.82, 0.58, 2001.56, -4765.41)" xlink:href="#linear-gradient-2"/><filter id="luminosity-noclip-8" x="199.55" y="-8568.44" width="18.27" height="32766" filterUnits="userSpaceOnUse" color-interpolation-filters="sRGB"><feFlood flood-color="#fff" result="bg"/><feBlend in="SourceGraphic" in2="bg"/></filter><mask id="mask-8" x="199.55" y="-8568.44" width="18.27" height="32766" maskUnits="userSpaceOnUse"><g class="cls-216"/></mask><linearGradient id="linear-gradient-8" x1="-5247.66" y1="2281.66" x2="-5247.5" y2="2273.71" gradientTransform="matrix(0.48, 0.88, -0.88, 0.48, 4715.33, 4252.79)" xlink:href="#linear-gradient"/><filter id="luminosity-noclip-9" x="188.41" y="-8568.44" width="16.9" height="32766" filterUnits="userSpaceOnUse" color-interpolation-filters="sRGB"><feFlood flood-color="#fff" result="bg"/><feBlend in="SourceGraphic" in2="bg"/></filter><mask id="mask-9" x="188.41" y="-8568.44" width="16.9" height="32766" maskUnits="userSpaceOnUse"><g class="cls-215"/></mask><linearGradient id="linear-gradient-9" x1="-5248.79" y1="2294.84" x2="-5248.16" y2="2288.19" gradientTransform="matrix(0.48, 0.88, -0.88, 0.48, 4715.33, 4252.79)" xlink:href="#linear-gradient-2"/><filter id="luminosity-noclip-10" x="193.93" y="-8568.44" width="18.27" height="32766" filterUnits="userSpaceOnUse" color-interpolation-filters="sRGB"><feFlood flood-color="#fff" result="bg"/><feBlend in="SourceGraphic" in2="bg"/></filter><mask id="mask-10" x="193.93" y="-8568.44" width="18.27" height="32766" maskUnits="userSpaceOnUse"><g class="cls-214"/></mask><linearGradient id="linear-gradient-10" x1="-5247.66" y1="2288.07" x2="-5247.5" y2="2280.12" gradientTransform="matrix(0.48, 0.88, -0.88, 0.48, 4715.33, 4252.79)" xlink:href="#linear-gradient"/><filter id="luminosity-noclip-11" x="606.12" y="-8568.44" width="10.15" height="32766" filterUnits="userSpaceOnUse" color-interpolation-filters="sRGB"><feFlood flood-color="#fff" result="bg"/><feBlend in="SourceGraphic" in2="bg"/></filter><mask id="mask-11" x="606.12" y="-8568.44" width="10.15" height="32766" maskUnits="userSpaceOnUse"><g class="cls-213"/></mask><linearGradient id="linear-gradient-11" x1="-5297.97" y1="2061.65" x2="-5297.86" y2="2055.96" xlink:href="#linear-gradient"/><filter id="luminosity-noclip-12" x="613.64" y="-8568.44" width="9.84" height="32766" filterUnits="userSpaceOnUse" color-interpolation-filters="sRGB"><feFlood flood-color="#fff" result="bg"/><feBlend in="SourceGraphic" in2="bg"/></filter><mask id="mask-12" x="613.64" y="-8568.44" width="9.84" height="32766" maskUnits="userSpaceOnUse"><g class="cls-212"/></mask><linearGradient id="linear-gradient-12" x1="-5298.77" y1="2071.07" x2="-5298.33" y2="2066.32" gradientTransform="matrix(0.58, -0.82, 0.82, 0.58, 2001.56, -4765.41)" xlink:href="#linear-gradient-2"/><filter id="luminosity-noclip-13" x="609.85" y="-8568.44" width="10.15" height="32766" filterUnits="userSpaceOnUse" color-interpolation-filters="sRGB"><feFlood flood-color="#fff" result="bg"/><feBlend in="SourceGraphic" in2="bg"/></filter><mask id="mask-13" x="609.85" y="-8568.44" width="10.15" height="32766" maskUnits="userSpaceOnUse"><g class="cls-211"/></mask><linearGradient id="linear-gradient-13" x1="-5297.97" y1="2066.23" x2="-5297.86" y2="2060.54" xlink:href="#linear-gradient"/><filter id="luminosity-noclip-14" x="112.16" y="-8568.44" width="10.64" height="32766" filterUnits="userSpaceOnUse" color-interpolation-filters="sRGB"><feFlood flood-color="#fff" result="bg"/><feBlend in="SourceGraphic" in2="bg"/></filter><mask id="mask-14" x="112.16" y="-8568.44" width="10.64" height="32766" maskUnits="userSpaceOnUse"><g class="cls-210"/></mask><linearGradient id="linear-gradient-14" x1="-5356.76" y1="2324.23" x2="-5356.67" y2="2319.6" gradientTransform="matrix(0.48, 0.88, -0.88, 0.48, 4715.33, 4252.79)" xlink:href="#linear-gradient"/><filter id="luminosity-noclip-15" x="105.67" y="-8568.44" width="9.84" height="32766" filterUnits="userSpaceOnUse" color-interpolation-filters="sRGB"><feFlood flood-color="#fff" result="bg"/><feBlend in="SourceGraphic" in2="bg"/></filter><mask id="mask-15" x="105.67" y="-8568.44" width="9.84" height="32766" maskUnits="userSpaceOnUse"><g class="cls-209"/></mask><linearGradient id="linear-gradient-15" x1="-5357.42" y1="2331.9" x2="-5357.05" y2="2328.03" gradientTransform="matrix(0.48, 0.88, -0.88, 0.48, 4715.33, 4252.79)" xlink:href="#linear-gradient-2"/><filter id="luminosity-noclip-16" x="108.89" y="-8568.44" width="10.64" height="32766" filterUnits="userSpaceOnUse" color-interpolation-filters="sRGB"><feFlood flood-color="#fff" result="bg"/><feBlend in="SourceGraphic" in2="bg"/></filter><mask id="mask-16" x="108.89" y="-8568.44" width="10.64" height="32766" maskUnits="userSpaceOnUse"><g class="cls-208"/></mask><linearGradient id="linear-gradient-16" x1="-5356.76" y1="2327.96" x2="-5356.67" y2="2323.33" gradientTransform="matrix(0.48, 0.88, -0.88, 0.48, 4715.33, 4252.79)" xlink:href="#linear-gradient"/><filter id="luminosity-noclip-17" x="38.62" y="-8568.44" width="6.38" height="32766" filterUnits="userSpaceOnUse" color-interpolation-filters="sRGB"><feFlood flood-color="#fff" result="bg"/><feBlend in="SourceGraphic" in2="bg"/></filter><mask id="mask-17" x="38.62" y="-8568.44" width="6.38" height="32766" maskUnits="userSpaceOnUse"><g class="cls-207"/></mask><linearGradient id="linear-gradient-17" x1="-5527.57" y1="1524.63" x2="-5527.49" y2="1521.06" xlink:href="#linear-gradient"/><filter id="luminosity-noclip-18" x="693" y="-8568.44" width="6.57" height="32766" filterUnits="userSpaceOnUse" color-interpolation-filters="sRGB"><feFlood flood-color="#fff" result="bg"/><feBlend in="SourceGraphic" in2="bg"/></filter><mask id="mask-18" x="693" y="-8568.44" width="6.57" height="32766" maskUnits="userSpaceOnUse"><g class="cls-206"/></mask><linearGradient id="linear-gradient-18" x1="-5135.15" y1="2048.79" x2="-5135.07" y2="2045.11" xlink:href="#linear-gradient"/><filter id="luminosity-noclip-19" x="43.35" y="-8568.44" width="6.18" height="32766" filterUnits="userSpaceOnUse" color-interpolation-filters="sRGB"><feFlood flood-color="#fff" result="bg"/><feBlend in="SourceGraphic" in2="bg"/></filter><mask id="mask-19" x="43.35" y="-8568.44" width="6.18" height="32766" maskUnits="userSpaceOnUse"><g class="cls-205"/></mask><linearGradient id="linear-gradient-19" x1="-5528.07" y1="1530.55" x2="-5527.79" y2="1527.57" gradientTransform="matrix(0.58, -0.82, 0.82, 0.58, 2001.56, -4765.41)" xlink:href="#linear-gradient-2"/><filter id="luminosity-noclip-20" x="40.97" y="-8568.44" width="6.38" height="32766" filterUnits="userSpaceOnUse" color-interpolation-filters="sRGB"><feFlood flood-color="#fff" result="bg"/><feBlend in="SourceGraphic" in2="bg"/></filter><mask id="mask-20" x="40.97" y="-8568.44" width="6.38" height="32766" maskUnits="userSpaceOnUse"><g class="cls-204"/></mask><linearGradient id="linear-gradient-20" x1="-5527.57" y1="1527.51" x2="-5527.49" y2="1523.94" xlink:href="#linear-gradient"/><filter id="luminosity-noclip-21" x="277.25" y="-8568.44" width="5.83" height="32766" filterUnits="userSpaceOnUse" color-interpolation-filters="sRGB"><feFlood flood-color="#fff" result="bg"/><feBlend in="SourceGraphic" in2="bg"/></filter><mask id="mask-21" x="277.25" y="-8568.44" width="5.83" height="32766" maskUnits="userSpaceOnUse"><g class="cls-203"/></mask><linearGradient id="linear-gradient-21" x1="-5343.93" y1="1686.33" x2="-5343.86" y2="1683.07" xlink:href="#linear-gradient"/><filter id="luminosity-noclip-22" x="281.57" y="-8568.44" width="5.65" height="32766" filterUnits="userSpaceOnUse" color-interpolation-filters="sRGB"><feFlood flood-color="#fff" result="bg"/><feBlend in="SourceGraphic" in2="bg"/></filter><mask id="mask-22" x="281.57" y="-8568.44" width="5.65" height="32766" maskUnits="userSpaceOnUse"><g class="cls-202"/></mask><linearGradient id="linear-gradient-22" x1="-5344.39" y1="1691.74" x2="-5344.13" y2="1689.01" gradientTransform="matrix(0.58, -0.82, 0.82, 0.58, 2001.56, -4765.41)" xlink:href="#linear-gradient-2"/><filter id="luminosity-noclip-23" x="279.4" y="-8568.44" width="5.83" height="32766" filterUnits="userSpaceOnUse" color-interpolation-filters="sRGB"><feFlood flood-color="#fff" result="bg"/><feBlend in="SourceGraphic" in2="bg"/></filter><mask id="mask-23" x="279.4" y="-8568.44" width="5.83" height="32766" maskUnits="userSpaceOnUse"><g class="cls-201"/></mask><linearGradient id="linear-gradient-23" x1="-5343.93" y1="1688.96" x2="-5343.86" y2="1685.7" xlink:href="#linear-gradient"/><filter id="luminosity-noclip-24" x="751.47" y="-8568.44" width="17.08" height="32766" filterUnits="userSpaceOnUse" color-interpolation-filters="sRGB"><feFlood flood-color="#fff" result="bg"/><feBlend in="SourceGraphic" in2="bg"/></filter><mask id="mask-24" x="751.47" y="-8568.44" width="17.08" height="32766" maskUnits="userSpaceOnUse"><g class="cls-200"/></mask><linearGradient id="linear-gradient-24" x1="-5019.45" y1="1777.86" x2="-5019.3" y2="1770.43" gradientTransform="matrix(0.48, 0.88, -0.88, 0.48, 4715.33, 4252.79)" xlink:href="#linear-gradient"/><filter id="luminosity-noclip-25" x="741.05" y="-8568.44" width="15.79" height="32766" filterUnits="userSpaceOnUse" color-interpolation-filters="sRGB"><feFlood flood-color="#fff" result="bg"/><feBlend in="SourceGraphic" in2="bg"/></filter><mask id="mask-25" x="741.05" y="-8568.44" width="15.79" height="32766" maskUnits="userSpaceOnUse"><g class="cls-199"/></mask><linearGradient id="linear-gradient-25" x1="-5020.5" y1="1790.18" x2="-5019.91" y2="1783.96" gradientTransform="matrix(0.48, 0.88, -0.88, 0.48, 4715.33, 4252.79)" xlink:href="#linear-gradient-2"/><filter id="luminosity-noclip-26" x="746.21" y="-8568.44" width="17.08" height="32766" filterUnits="userSpaceOnUse" color-interpolation-filters="sRGB"><feFlood flood-color="#fff" result="bg"/><feBlend in="SourceGraphic" in2="bg"/></filter><mask id="mask-26" x="746.21" y="-8568.44" width="17.08" height="32766" maskUnits="userSpaceOnUse"><g class="cls-198"/></mask><linearGradient id="linear-gradient-26" x1="-5019.45" y1="1783.85" x2="-5019.3" y2="1776.41" gradientTransform="matrix(0.48, 0.88, -0.88, 0.48, 4715.33, 4252.79)" xlink:href="#linear-gradient"/><filter id="luminosity-noclip-27" x="476.93" y="-8568.44" width="149.97" height="32766" filterUnits="userSpaceOnUse" color-interpolation-filters="sRGB"><feFlood flood-color="#fff" result="bg"/><feBlend in="SourceGraphic" in2="bg"/></filter><mask id="mask-27" x="476.93" y="-8568.44" width="149.97" height="32766" maskUnits="userSpaceOnUse"><g class="cls-197"/></mask><linearGradient id="linear-gradient-27" x1="355.31" y1="310.9" x2="275.86" y2="324.58" gradientTransform="matrix(-1, 0, 0, 1, 831.28, 0)" gradientUnits="userSpaceOnUse"><stop offset="0"/><stop offset="0.07" stop-color="#272727"/><stop offset="0.24" stop-color="#828282"/><stop offset="0.38" stop-color="#c6c6c6"/><stop offset="0.48" stop-color="#efefef"/><stop offset="0.54" stop-color="#fff"/><stop offset="1" stop-color="#fff"/></linearGradient><filter id="luminosity-noclip-28" x="521.9" y="-8568.44" width="108.9" height="32766" filterUnits="userSpaceOnUse" color-interpolation-filters="sRGB"><feFlood flood-color="#fff" result="bg"/><feBlend in="SourceGraphic" in2="bg"/></filter><mask id="mask-28" x="521.9" y="-8568.44" width="108.9" height="32766" maskUnits="userSpaceOnUse"><g class="cls-196"/></mask><linearGradient id="linear-gradient-28" x1="-5094.46" y1="-91.53" x2="-5093.82" y2="-122.37" gradientTransform="matrix(-0.98, -0.2, -0.2, 0.98, -4434.67, -361.61)" xlink:href="#linear-gradient"/><linearGradient id="linear-gradient-29" x1="4911.82" y1="1749.93" x2="4911.82" y2="1800.3" gradientTransform="matrix(-0.54, 0.84, 0.87, 0.55, 1769.19, -4533.07)" gradientUnits="userSpaceOnUse"><stop offset="0" stop-color="#fcd6d4"/><stop offset="0.29" stop-color="#f15e39"/><stop offset="0.44" stop-color="#ef5137"/><stop offset="0.72" stop-color="#e92f32"/><stop offset="0.98" stop-color="#782f32"/></linearGradient><linearGradient id="linear-gradient-30" x1="-5133.97" y1="2041.94" x2="-5133.97" y2="2056.05" gradientTransform="matrix(0.58, -0.82, 0.82, 0.58, 2001.56, -4765.41)" gradientUnits="userSpaceOnUse"><stop offset="0" stop-color="#0a4b71"/><stop offset="0.07" stop-color="#0b4567"/><stop offset="0.34" stop-color="#0d2e41"/><stop offset="0.6" stop-color="#0f1e26"/><stop offset="0.83" stop-color="#101416"/><stop offset="1" stop-color="#101010"/></linearGradient><filter id="luminosity-noclip-29" x="690.59" y="598.56" width="6.57" height="11.7" filterUnits="userSpaceOnUse" color-interpolation-filters="sRGB"><feFlood flood-color="#fff" result="bg"/><feBlend in="SourceGraphic" in2="bg"/></filter><mask id="mask-29" x="690.59" y="598.56" width="6.57" height="11.7" maskUnits="userSpaceOnUse"><g class="cls-1"><path class="cls-2" d="M693,610s-.87-4.38,4.18-11.46l-6.25,8.78a2.21,2.21,0,0,0,.19,2.53A1.52,1.52,0,0,0,693,610Z"/></g></mask><linearGradient id="linear-gradient-31" x1="-5135.15" y1="2045.82" x2="-5135.07" y2="2042.14" gradientTransform="matrix(0.58, -0.82, 0.82, 0.58, 2001.56, -4765.41)" gradientUnits="userSpaceOnUse"><stop offset="0" stop-color="#d8eff4"/><stop offset="0.32" stop-color="#dff2f6"/><stop offset="0.78" stop-color="#f3fafc"/><stop offset="1" stop-color="#fff"/></linearGradient><filter id="luminosity-noclip-30" x="695.46" y="602.73" width="6.37" height="10.9" filterUnits="userSpaceOnUse" color-interpolation-filters="sRGB"><feFlood flood-color="#fff" result="bg"/><feBlend in="SourceGraphic" in2="bg"/></filter><mask id="mask-30" x="695.46" y="602.73" width="6.37" height="10.9" maskUnits="userSpaceOnUse"><g class="cls-13"><path class="cls-14" d="M698.51,612.88s-1.12-3,3.32-10.15l-6.31,8.84a1.65,1.65,0,0,0,.83,1.94A1.89,1.89,0,0,0,698.51,612.88Z"/></g></mask><linearGradient id="linear-gradient-32" x1="-5135.67" y1="2051.92" x2="-5135.38" y2="2048.85" gradientTransform="matrix(0.58, -0.82, 0.82, 0.58, 2001.56, -4765.41)" gradientUnits="userSpaceOnUse"><stop offset="0" stop-color="#d8eff4"/><stop offset="0.33" stop-color="#dcf1f5"/><stop offset="0.64" stop-color="#e7f5f8"/><stop offset="0.94" stop-color="#fafdfe"/><stop offset="1" stop-color="#fff"/></linearGradient><filter id="luminosity-noclip-31" x="693" y="600.27" width="6.57" height="11.7" filterUnits="userSpaceOnUse" color-interpolation-filters="sRGB"><feFlood flood-color="#fff" result="bg"/><feBlend in="SourceGraphic" in2="bg"/></filter><mask id="mask-31" x="693" y="600.27" width="6.57" height="11.7" maskUnits="userSpaceOnUse"><g class="cls-35"><path class="cls-36" d="M695.4,611.74s-.87-4.38,4.18-11.47l-6.25,8.78a2.19,2.19,0,0,0,.19,2.53A1.53,1.53,0,0,0,695.4,611.74Z"/></g></mask><linearGradient id="linear-gradient-33" x1="-5135.15" y1="2048.79" x2="-5135.07" y2="2045.11" xlink:href="#linear-gradient-31"/><filter id="luminosity-noclip-32" x="476.93" y="205.05" width="149.97" height="236.69" filterUnits="userSpaceOnUse" color-interpolation-filters="sRGB"><feFlood flood-color="#fff" result="bg"/><feBlend in="SourceGraphic" in2="bg"/></filter><mask id="mask-32" x="476.93" y="205.05" width="149.97" height="236.69" maskUnits="userSpaceOnUse"><g class="cls-53"><path class="cls-54" d="M517.6,218.23s-100.66,107,14.75,223.51L626.9,299.41l-62.19-94.36Z"/></g></mask><linearGradient id="linear-gradient-34" x1="355.31" y1="310.9" x2="275.86" y2="324.58" gradientTransform="matrix(-1, 0, 0, 1, 831.28, 0)" gradientUnits="userSpaceOnUse"><stop offset="0" stop-color="#f47937"/><stop offset="0.11" stop-color="#f16836"/><stop offset="0.39" stop-color="#eb3f33"/><stop offset="0.54" stop-color="#e92f32"/><stop offset="1" stop-color="#592f32"/></linearGradient><linearGradient id="linear-gradient-35" x1="8129.06" y1="332.25" x2="8160.36" y2="335.07" gradientTransform="translate(-7651.01 129.6) rotate(-1.39)" gradientUnits="userSpaceOnUse"><stop offset="0" stop-color="#000d2b"/><stop offset="0.22" stop-color="#041231"/><stop offset="0.49" stop-color="#0f2141"/><stop offset="0.69" stop-color="#192f50"/><stop offset="0.79" stop-color="#163355"/><stop offset="0.91" stop-color="#0c4063"/><stop offset="1" stop-color="#014f74"/></linearGradient><linearGradient id="linear-gradient-36" x1="8272.64" y1="354.57" x2="8295.4" y2="362.44" gradientTransform="matrix(0.92, -0.06, 0.06, 0.94, -7495.15, 240.54)" gradientUnits="userSpaceOnUse"><stop offset="0" stop-color="#e57553"/><stop offset="0.21" stop-color="#ec8c64"/><stop offset="0.53" stop-color="#f5aa7a"/><stop offset="0.8" stop-color="#fabc87"/><stop offset="1" stop-color="#fcc28c"/></linearGradient><linearGradient id="linear-gradient-37" x1="8396.6" y1="344.59" x2="8380.76" y2="332.69" gradientTransform="matrix(0.9, -0.06, 0.06, 0.9, -7458.9, 254.68)" gradientUnits="userSpaceOnUse"><stop offset="0" stop-color="#f68f64"/><stop offset="0.23" stop-color="#f69368"/><stop offset="0.46" stop-color="#f89f72"/><stop offset="0.69" stop-color="#fab384"/><stop offset="0.92" stop-color="#fecf9c"/><stop offset="1" stop-color="#ffdaa6"/></linearGradient><linearGradient id="linear-gradient-38" x1="8030.05" y1="366.62" x2="8003.86" y2="345.07" gradientTransform="matrix(0.96, -0.06, 0.06, 0.97, -7587.02, 230.65)" gradientUnits="userSpaceOnUse"><stop offset="0" stop-color="#f58963"/><stop offset="0.58" stop-color="#fab185"/><stop offset="1" stop-color="#fdc99a"/></linearGradient><linearGradient id="linear-gradient-39" x1="7928.69" y1="919.39" x2="7795.34" y2="796.68" gradientTransform="translate(-7690.31 388.73) rotate(-8.08)" gradientUnits="userSpaceOnUse"><stop offset="0" stop-color="#0b213e"/><stop offset="0.26" stop-color="#192f50"/><stop offset="0.5" stop-color="#163355"/><stop offset="0.78" stop-color="#0c4063"/><stop offset="1" stop-color="#014f74"/></linearGradient><linearGradient id="linear-gradient-40" x1="7800.29" y1="799.33" x2="7796.41" y2="795.73" gradientTransform="translate(-7690.31 388.73) rotate(-8.08)" gradientUnits="userSpaceOnUse"><stop offset="0.15" stop-color="#83abba"/><stop offset="0.19" stop-color="#90b4c1"/><stop offset="0.29" stop-color="#b2cbd4"/><stop offset="0.4" stop-color="#cedee4"/><stop offset="0.51" stop-color="#e4edf0"/><stop offset="0.64" stop-color="#f3f7f8"/><stop offset="0.79" stop-color="#fcfdfd"/><stop offset="1" stop-color="#fff"/></linearGradient><linearGradient id="linear-gradient-41" x1="-2648.98" y1="5007.66" x2="-2588.91" y2="5007.66" gradientTransform="matrix(-0.65, 0.76, 0.76, 0.65, -5244.55, -1107.5)" gradientUnits="userSpaceOnUse"><stop offset="0" stop-color="#f58963"/><stop offset="1" stop-color="#ffdaa6"/></linearGradient><linearGradient id="linear-gradient-42" x1="-2617.31" y1="5029.29" x2="-2603.87" y2="5022.86" gradientTransform="matrix(-0.65, 0.76, 0.76, 0.65, -5244.55, -1107.5)" gradientUnits="userSpaceOnUse"><stop offset="0" stop-color="#f2a891"/><stop offset="0.32" stop-color="#dc8373"/><stop offset="0.77" stop-color="#c1544d"/><stop offset="1" stop-color="#b7423e"/></linearGradient><linearGradient id="linear-gradient-43" x1="7889.45" y1="175.9" x2="7885.24" y2="178.22" gradientTransform="translate(-7651.01 129.6) rotate(-1.39)" gradientUnits="userSpaceOnUse"><stop offset="0" stop-color="#220f08"/><stop offset="0.3" stop-color="#26130c"/><stop offset="0.6" stop-color="#321f18"/><stop offset="0.91" stop-color="#47342c"/><stop offset="1" stop-color="#4e3b33"/></linearGradient><linearGradient id="linear-gradient-44" x1="7911.8" y1="181.77" x2="7914.01" y2="168.99" gradientTransform="translate(-7651.01 129.6) rotate(-1.39)" gradientUnits="userSpaceOnUse"><stop offset="0" stop-color="#34221c"/><stop offset="0.24" stop-color="#38261f"/><stop offset="0.49" stop-color="#443029"/><stop offset="0.74" stop-color="#594239"/><stop offset="0.99" stop-color="#755a4f"/><stop offset="1" stop-color="#765b50"/></linearGradient><linearGradient id="linear-gradient-45" x1="7922.49" y1="196.75" x2="7939.21" y2="196.86" xlink:href="#linear-gradient-44"/><linearGradient id="linear-gradient-46" x1="8077.58" y1="54.84" x2="8184.1" y2="118.06" gradientTransform="matrix(1, 0.03, -0.03, 1, -7617.49, 5.68)" gradientUnits="userSpaceOnUse"><stop offset="0" stop-color="#001432"/><stop offset="0.34" stop-color="#192f50"/><stop offset="0.55" stop-color="#163355"/><stop offset="0.8" stop-color="#0c4063"/><stop offset="1" stop-color="#014f74"/></linearGradient><linearGradient id="linear-gradient-47" x1="8077.28" y1="296.82" x2="8091.33" y2="413.46" gradientTransform="translate(-7651.01 129.6) rotate(-1.39)" gradientUnits="userSpaceOnUse"><stop offset="0.06" stop-color="#061d3e"/><stop offset="0.43" stop-color="#192f50"/><stop offset="0.7" stop-color="#183152"/><stop offset="0.83" stop-color="#12385a"/><stop offset="0.94" stop-color="#0a4367"/><stop offset="1" stop-color="#014f74"/></linearGradient><linearGradient id="linear-gradient-48" x1="8049.46" y1="252.99" x2="7938.34" y2="292.09" gradientTransform="translate(-7651.01 129.6) rotate(-1.39)" gradientUnits="userSpaceOnUse"><stop offset="0.15" stop-color="#83abba"/><stop offset="0.23" stop-color="#98b9c6"/><stop offset="0.39" stop-color="#bdd2da"/><stop offset="0.54" stop-color="#dae6ea"/><stop offset="0.7" stop-color="#eef4f6"/><stop offset="0.85" stop-color="#fbfcfd"/><stop offset="1" stop-color="#fff"/></linearGradient><linearGradient id="linear-gradient-49" x1="7918.5" y1="233.15" x2="7936.03" y2="233.15" xlink:href="#linear-gradient-48"/><linearGradient id="linear-gradient-50" x1="7912.4" y1="249.74" x2="7919.92" y2="249.74" xlink:href="#linear-gradient-48"/><linearGradient id="linear-gradient-51" x1="8031.41" y1="292.15" x2="8052.01" y2="252.28" gradientTransform="translate(-7651.01 129.6) rotate(-1.39)" gradientUnits="userSpaceOnUse"><stop offset="0" stop-color="#192f50"/><stop offset="0.37" stop-color="#13375a"/><stop offset="0.98" stop-color="#024e73"/><stop offset="1" stop-color="#014f74"/></linearGradient><linearGradient id="linear-gradient-52" x1="3712.43" y1="7536.29" x2="3727.69" y2="7538.36" gradientTransform="translate(-7812.92 2164.6) rotate(-76.7)" gradientUnits="userSpaceOnUse"><stop offset="0" stop-color="#f79672"/><stop offset="0.32" stop-color="#fab086"/><stop offset="0.76" stop-color="#fecf9d"/><stop offset="1" stop-color="#ffdaa6"/></linearGradient><linearGradient id="linear-gradient-53" x1="3719.8" y1="7538.01" x2="3749.53" y2="7538.01" gradientTransform="translate(-7812.92 2164.6) rotate(-76.7)" gradientUnits="userSpaceOnUse"><stop offset="0.18" stop-color="#f79672"/><stop offset="0.46" stop-color="#faac7f"/><stop offset="0.77" stop-color="#fcbe8a"/><stop offset="1" stop-color="#fdc48e"/></linearGradient><linearGradient id="linear-gradient-54" x1="8028.46" y1="1047" x2="8024.14" y2="1051.81" gradientTransform="matrix(0.99, -0.15, 0.15, 0.99, -7699.54, 432.81)" xlink:href="#linear-gradient-40"/><linearGradient id="linear-gradient-55" x1="7953.69" y1="991.12" x2="8102.05" y2="991.12" gradientTransform="matrix(0.99, -0.15, 0.15, 0.99, -7699.54, 432.81)" gradientUnits="userSpaceOnUse"><stop offset="0" stop-color="#192f50"/><stop offset="0.38" stop-color="#13375a"/><stop offset="1" stop-color="#034d72"/></linearGradient><linearGradient id="linear-gradient-56" x1="7918.87" y1="243.74" x2="7926.42" y2="258.1" gradientTransform="translate(-7651.01 129.6) rotate(-1.39)" gradientUnits="userSpaceOnUse"><stop offset="0" stop-color="#b32226"/><stop offset="0.27" stop-color="#b02225"/><stop offset="0.45" stop-color="#a72024"/><stop offset="0.62" stop-color="#971e21"/><stop offset="0.77" stop-color="#811a1d"/><stop offset="0.91" stop-color="#651617"/><stop offset="1" stop-color="#4e1213"/></linearGradient><linearGradient id="linear-gradient-57" x1="7892.36" y1="-77.1" x2="8051.93" y2="-77.1" gradientTransform="translate(-7615.51 -7.36) rotate(2.05)" xlink:href="#linear-gradient-56"/><linearGradient id="linear-gradient-58" x1="200.94" y1="176.29" x2="200.94" y2="611.35" gradientTransform="matrix(-1, 0, 0, 1, 831.28, 0)" xlink:href="#linear-gradient-29"/><linearGradient id="linear-gradient-59" x1="210.48" y1="617.74" x2="342.51" y2="590.62" gradientTransform="matrix(-1, 0, 0, 1, 831.28, 0)" gradientUnits="userSpaceOnUse"><stop offset="0" stop-color="#192f50"/><stop offset="0.01" stop-color="#192f4f"/><stop offset="0.67" stop-color="#121922"/><stop offset="1" stop-color="#101010"/></linearGradient><filter id="luminosity-noclip-33" x="521.9" y="540.33" width="108.9" height="47.71" filterUnits="userSpaceOnUse" color-interpolation-filters="sRGB"><feFlood flood-color="#fff" result="bg"/><feBlend in="SourceGraphic" in2="bg"/></filter><mask id="mask-33" x="521.9" y="540.33" width="108.9" height="47.71" maskUnits="userSpaceOnUse"><g class="cls-55"><path class="cls-56" d="M619.64,588S598.19,556,521.9,540.33l94.5,19.46s14.11,4,14.4,16.78C630.8,576.57,631.19,585,619.64,588Z"/></g></mask><filter id="luminosity-noclip-34" x="517.52" y="592.3" width="103" height="44.44" filterUnits="userSpaceOnUse" color-interpolation-filters="sRGB"><feFlood flood-color="#fff" result="bg"/><feBlend in="SourceGraphic" in2="bg"/></filter><mask id="mask-34" x="517.52" y="592.3" width="103" height="44.44" maskUnits="userSpaceOnUse"><g class="cls-3"><path class="cls-4" d="M601.61,636.7S590,611.49,517.52,592.3l95.31,19.52s11.09,6.4,6.63,16.66C619.46,628.48,616.11,637.33,601.61,636.7Z"/></g></mask><filter id="luminosity-noclip-35" x="516.91" y="564.49" width="108.9" height="47.71" filterUnits="userSpaceOnUse" color-interpolation-filters="sRGB"><feFlood flood-color="#fff" result="bg"/><feBlend in="SourceGraphic" in2="bg"/></filter><mask id="mask-35" x="516.91" y="564.49" width="108.9" height="47.71" maskUnits="userSpaceOnUse"><g class="cls-5"><path class="cls-6" d="M614.64,612.2s-21.44-32.06-97.73-47.71L611.41,584s14.1,3.95,14.4,16.78C625.81,600.73,626.19,609.17,614.64,612.2Z"/></g></mask><linearGradient id="linear-gradient-60" x1="5049.11" y1="1930.01" x2="5049.11" y2="2007.74" gradientTransform="matrix(-0.37, -0.93, -0.95, 0.39, 4147.19, 4532.67)" xlink:href="#linear-gradient-29"/><linearGradient id="linear-gradient-61" x1="-5261.08" y1="2258.38" x2="-5261.08" y2="2280.16" gradientTransform="translate(4201.36 4856.84) rotate(70.97)" xlink:href="#linear-gradient-59"/><filter id="luminosity-noclip-36" x="342.29" y="610.09" width="10.64" height="17.79" filterUnits="userSpaceOnUse" color-interpolation-filters="sRGB"><feFlood flood-color="#fff" result="bg"/><feBlend in="SourceGraphic" in2="bg"/></filter><mask id="mask-36" x="342.29" y="610.09" width="10.64" height="17.79" maskUnits="userSpaceOnUse"><g class="cls-7"><path class="cls-8" d="M342.29,612.33s6.28,2.84,10.63,15.54l-5.4-15.72a3.4,3.4,0,0,0-3.35-2A2.35,2.35,0,0,0,342.29,612.33Z"/></g></mask><linearGradient id="linear-gradient-62" x1="-5262.89" y1="2264.37" x2="-5262.77" y2="2258.69" gradientTransform="translate(4201.36 4856.84) rotate(70.97)" xlink:href="#linear-gradient-31"/><filter id="luminosity-noclip-37" x="333.67" y="613.09" width="9.83" height="16.9" filterUnits="userSpaceOnUse" color-interpolation-filters="sRGB"><feFlood flood-color="#fff" result="bg"/><feBlend in="SourceGraphic" in2="bg"/></filter><mask id="mask-37" x="333.67" y="613.09" width="9.83" height="16.9" maskUnits="userSpaceOnUse"><g class="cls-9"><path class="cls-10" d="M333.73,616.7S338.57,618,343.5,630l-5.44-15.87a2.54,2.54,0,0,0-3.17-.7S333.33,614.23,333.73,616.7Z"/></g></mask><linearGradient id="linear-gradient-63" x1="-5263.69" y1="2273.79" x2="-5263.24" y2="2269.04" gradientTransform="translate(4201.36 4856.84) rotate(70.97)" xlink:href="#linear-gradient-32"/><filter id="luminosity-noclip-38" x="337.96" y="611.58" width="10.64" height="17.79" filterUnits="userSpaceOnUse" color-interpolation-filters="sRGB"><feFlood flood-color="#fff" result="bg"/><feBlend in="SourceGraphic" in2="bg"/></filter><mask id="mask-38" x="337.96" y="611.58" width="10.64" height="17.79" maskUnits="userSpaceOnUse"><g class="cls-11"><path class="cls-12" d="M338,613.82s6.29,2.85,10.64,15.54l-5.41-15.72a3.4,3.4,0,0,0-3.35-2A2.36,2.36,0,0,0,338,613.82Z"/></g></mask><linearGradient id="linear-gradient-64" x1="-5262.89" y1="2268.95" x2="-5262.77" y2="2263.27" gradientTransform="translate(4201.36 4856.84) rotate(70.97)" xlink:href="#linear-gradient-31"/><linearGradient id="linear-gradient-65" x1="5031.63" y1="1917.37" x2="5031.63" y2="2026.17" gradientTransform="matrix(-0.52, -0.85, -0.88, 0.54, 4607.34, 3941.66)" xlink:href="#linear-gradient-29"/><linearGradient id="linear-gradient-66" x1="-5245.12" y1="2273.27" x2="-5245.12" y2="2303.76" gradientTransform="matrix(0.48, 0.88, -0.88, 0.48, 4715.33, 4252.79)" xlink:href="#linear-gradient-59"/><filter id="luminosity-noclip-39" x="199.55" y="718.38" width="18.27" height="22.68" filterUnits="userSpaceOnUse" color-interpolation-filters="sRGB"><feFlood flood-color="#fff" result="bg"/><feBlend in="SourceGraphic" in2="bg"/></filter><mask id="mask-39" x="199.55" y="718.38" width="18.27" height="22.68" maskUnits="userSpaceOnUse"><g class="cls-15"><path class="cls-16" d="M199.55,722.06s9.34,2.47,18.28,19l-11.1-20.46s-1.91-3-5.09-2C201.64,718.56,199.53,719.13,199.55,722.06Z"/></g></mask><linearGradient id="linear-gradient-67" x1="-5247.66" y1="2281.66" x2="-5247.5" y2="2273.71" gradientTransform="matrix(0.48, 0.88, -0.88, 0.48, 4715.33, 4252.79)" xlink:href="#linear-gradient-31"/><filter id="luminosity-noclip-40" x="188.41" y="724.51" width="16.9" height="21.64" filterUnits="userSpaceOnUse" color-interpolation-filters="sRGB"><feFlood flood-color="#fff" result="bg"/><feBlend in="SourceGraphic" in2="bg"/></filter><mask id="mask-40" x="188.41" y="724.51" width="16.9" height="21.64" maskUnits="userSpaceOnUse"><g class="cls-17"><path class="cls-18" d="M188.75,730.07s7,.73,16.55,16.09l-11.16-20.65s-2.32-2.08-4.55-.24C189.59,725.27,187.63,726.75,188.75,730.07Z"/></g></mask><linearGradient id="linear-gradient-68" x1="-5248.79" y1="2294.84" x2="-5248.16" y2="2288.19" gradientTransform="matrix(0.48, 0.88, -0.88, 0.48, 4715.33, 4252.79)" xlink:href="#linear-gradient-32"/><filter id="luminosity-noclip-41" x="193.93" y="721.44" width="18.27" height="22.68" filterUnits="userSpaceOnUse" color-interpolation-filters="sRGB"><feFlood flood-color="#fff" result="bg"/><feBlend in="SourceGraphic" in2="bg"/></filter><mask id="mask-41" x="193.93" y="721.44" width="18.27" height="22.68" maskUnits="userSpaceOnUse"><g class="cls-19"><path class="cls-20" d="M193.93,725.12s9.33,2.47,18.27,19l-11.09-20.47s-1.92-3-5.1-2C196,721.62,193.9,722.19,193.93,725.12Z"/></g></mask><linearGradient id="linear-gradient-69" x1="-5247.66" y1="2288.07" x2="-5247.5" y2="2280.12" gradientTransform="matrix(0.48, 0.88, -0.88, 0.48, 4715.33, 4252.79)" xlink:href="#linear-gradient-31"/><linearGradient id="linear-gradient-70" x1="5073.84" y1="1731.23" x2="5073.84" y2="1809.03" xlink:href="#linear-gradient-29"/><linearGradient id="linear-gradient-71" x1="-5296.16" y1="2055.65" x2="-5296.16" y2="2077.45" xlink:href="#linear-gradient-30"/><filter id="luminosity-noclip-42" x="606.12" y="736.52" width="10.15" height="18.07" filterUnits="userSpaceOnUse" color-interpolation-filters="sRGB"><feFlood flood-color="#fff" result="bg"/><feBlend in="SourceGraphic" in2="bg"/></filter><mask id="mask-42" x="606.12" y="736.52" width="10.15" height="18.07" maskUnits="userSpaceOnUse"><g class="cls-21"><path class="cls-22" d="M609.82,754.23s-1.35-6.77,6.45-17.71l-9.65,13.56a3.39,3.39,0,0,0,.3,3.91A2.34,2.34,0,0,0,609.82,754.23Z"/></g></mask><linearGradient id="linear-gradient-72" x1="-5297.97" y1="2061.65" x2="-5297.86" y2="2055.96" xlink:href="#linear-gradient-31"/><filter id="luminosity-noclip-43" x="613.64" y="742.96" width="9.84" height="16.83" filterUnits="userSpaceOnUse" color-interpolation-filters="sRGB"><feFlood flood-color="#fff" result="bg"/><feBlend in="SourceGraphic" in2="bg"/></filter><mask id="mask-43" x="613.64" y="742.96" width="9.84" height="16.83" maskUnits="userSpaceOnUse"><g class="cls-23"><path class="cls-24" d="M618.36,758.65s-1.73-4.72,5.12-15.69l-9.74,13.66a2.55,2.55,0,0,0,1.27,3S616.58,760.41,618.36,758.65Z"/></g></mask><linearGradient id="linear-gradient-73" x1="-5298.77" y1="2071.07" x2="-5298.33" y2="2066.32" xlink:href="#linear-gradient-32"/><filter id="luminosity-noclip-44" x="609.85" y="739.17" width="10.15" height="18.07" filterUnits="userSpaceOnUse" color-interpolation-filters="sRGB"><feFlood flood-color="#fff" result="bg"/><feBlend in="SourceGraphic" in2="bg"/></filter><mask id="mask-44" x="609.85" y="739.17" width="10.15" height="18.07" maskUnits="userSpaceOnUse"><g class="cls-25"><path class="cls-26" d="M613.55,756.88s-1.34-6.77,6.46-17.71l-9.66,13.56a3.41,3.41,0,0,0,.3,3.91A2.34,2.34,0,0,0,613.55,756.88Z"/></g></mask><linearGradient id="linear-gradient-74" x1="-5297.97" y1="2066.23" x2="-5297.86" y2="2060.54" xlink:href="#linear-gradient-31"/><linearGradient id="linear-gradient-75" x1="5145.14" y1="1996.01" x2="5145.14" y2="2059.35" gradientTransform="matrix(-0.52, -0.85, -0.88, 0.54, 4607.34, 3941.66)" xlink:href="#linear-gradient-29"/><linearGradient id="linear-gradient-76" x1="-5355.29" y1="2319.35" x2="-5355.29" y2="2337.1" gradientTransform="matrix(0.48, 0.88, -0.88, 0.48, 4715.33, 4252.79)" xlink:href="#linear-gradient-59"/><filter id="luminosity-noclip-45" x="112.16" y="648.74" width="10.64" height="13.2" filterUnits="userSpaceOnUse" color-interpolation-filters="sRGB"><feFlood flood-color="#fff" result="bg"/><feBlend in="SourceGraphic" in2="bg"/></filter><mask id="mask-45" x="112.16" y="648.74" width="10.64" height="13.2" maskUnits="userSpaceOnUse"><g class="cls-27"><path class="cls-28" d="M112.16,650.88s5.43,1.44,10.64,11.06L116.34,650a2.75,2.75,0,0,0-3-1.18A1.91,1.91,0,0,0,112.16,650.88Z"/></g></mask><linearGradient id="linear-gradient-77" x1="-5356.76" y1="2324.23" x2="-5356.67" y2="2319.6" gradientTransform="matrix(0.48, 0.88, -0.88, 0.48, 4715.33, 4252.79)" xlink:href="#linear-gradient-31"/><filter id="luminosity-noclip-46" x="105.67" y="652.31" width="9.84" height="12.6" filterUnits="userSpaceOnUse" color-interpolation-filters="sRGB"><feFlood flood-color="#fff" result="bg"/><feBlend in="SourceGraphic" in2="bg"/></filter><mask id="mask-46" x="105.67" y="652.31" width="9.84" height="12.6" maskUnits="userSpaceOnUse"><g class="cls-29"><path class="cls-30" d="M105.87,655.55s4.07.42,9.64,9.36l-6.5-12a2.07,2.07,0,0,0-2.65-.13A2.4,2.4,0,0,0,105.87,655.55Z"/></g></mask><linearGradient id="linear-gradient-78" x1="-5357.42" y1="2331.9" x2="-5357.05" y2="2328.03" gradientTransform="matrix(0.48, 0.88, -0.88, 0.48, 4715.33, 4252.79)" xlink:href="#linear-gradient-32"/><filter id="luminosity-noclip-47" x="108.89" y="650.52" width="10.64" height="13.2" filterUnits="userSpaceOnUse" color-interpolation-filters="sRGB"><feFlood flood-color="#fff" result="bg"/><feBlend in="SourceGraphic" in2="bg"/></filter><mask id="mask-47" x="108.89" y="650.52" width="10.64" height="13.2" maskUnits="userSpaceOnUse"><g class="cls-31"><path class="cls-32" d="M108.89,652.66s5.43,1.44,10.63,11.06l-6.45-11.91a2.77,2.77,0,0,0-3-1.18A1.9,1.9,0,0,0,108.89,652.66Z"/></g></mask><linearGradient id="linear-gradient-79" x1="-5356.76" y1="2327.96" x2="-5356.67" y2="2323.33" gradientTransform="matrix(0.48, 0.88, -0.88, 0.48, 4715.33, 4252.79)" xlink:href="#linear-gradient-31"/><linearGradient id="linear-gradient-80" x1="5276.65" y1="1225.03" x2="5276.65" y2="1273.89" xlink:href="#linear-gradient-29"/><linearGradient id="linear-gradient-81" x1="-5526.42" y1="1520.87" x2="-5526.42" y2="1534.56" gradientTransform="matrix(0.58, -0.82, 0.82, 0.58, 2001.56, -4765.41)" xlink:href="#linear-gradient-59"/><filter id="luminosity-noclip-48" x="38.62" y="616.94" width="6.38" height="11.35" filterUnits="userSpaceOnUse" color-interpolation-filters="sRGB"><feFlood flood-color="#fff" result="bg"/><feBlend in="SourceGraphic" in2="bg"/></filter><mask id="mask-48" x="38.62" y="616.94" width="6.38" height="11.35" maskUnits="userSpaceOnUse"><g class="cls-33"><path class="cls-34" d="M41,628.06s-.85-4.25,4-11.12l-6.06,8.52a2.13,2.13,0,0,0,.18,2.45A1.48,1.48,0,0,0,41,628.06Z"/></g></mask><linearGradient id="linear-gradient-82" x1="-5527.57" y1="1524.63" x2="-5527.49" y2="1521.06" xlink:href="#linear-gradient-31"/><filter id="luminosity-noclip-49" x="43.35" y="620.99" width="6.18" height="10.57" filterUnits="userSpaceOnUse" color-interpolation-filters="sRGB"><feFlood flood-color="#fff" result="bg"/><feBlend in="SourceGraphic" in2="bg"/></filter><mask id="mask-49" x="43.35" y="620.99" width="6.18" height="10.57" maskUnits="userSpaceOnUse"><g class="cls-37"><path class="cls-38" d="M46.31,630.84s-1.09-3,3.22-9.85l-6.12,8.58a1.6,1.6,0,0,0,.8,1.88A1.85,1.85,0,0,0,46.31,630.84Z"/></g></mask><linearGradient id="linear-gradient-83" x1="-5528.07" y1="1530.55" x2="-5527.79" y2="1527.57" xlink:href="#linear-gradient-32"/><filter id="luminosity-noclip-50" x="40.97" y="618.61" width="6.38" height="11.35" filterUnits="userSpaceOnUse" color-interpolation-filters="sRGB"><feFlood flood-color="#fff" result="bg"/><feBlend in="SourceGraphic" in2="bg"/></filter><mask id="mask-50" x="40.97" y="618.61" width="6.38" height="11.35" maskUnits="userSpaceOnUse"><g class="cls-39"><path class="cls-40" d="M43.29,629.73s-.84-4.25,4.05-11.12l-6.06,8.51a2.14,2.14,0,0,0,.19,2.46A1.47,1.47,0,0,0,43.29,629.73Z"/></g></mask><linearGradient id="linear-gradient-84" x1="-5527.57" y1="1527.51" x2="-5527.49" y2="1523.94" xlink:href="#linear-gradient-31"/><linearGradient id="linear-gradient-85" x1="5101.9" y1="1395.41" x2="5101.9" y2="1440.08" xlink:href="#linear-gradient-29"/><linearGradient id="linear-gradient-86" x1="-5342.89" y1="1682.89" x2="-5342.89" y2="1695.4" gradientTransform="matrix(0.58, -0.82, 0.82, 0.58, 2001.56, -4765.41)" xlink:href="#linear-gradient-59"/><filter id="luminosity-noclip-51" x="277.25" y="561.45" width="5.83" height="10.37" filterUnits="userSpaceOnUse" color-interpolation-filters="sRGB"><feFlood flood-color="#fff" result="bg"/><feBlend in="SourceGraphic" in2="bg"/></filter><mask id="mask-51" x="277.25" y="561.45" width="5.83" height="10.37" maskUnits="userSpaceOnUse"><g class="cls-41"><path class="cls-42" d="M279.38,571.62s-.78-3.89,3.7-10.17l-5.54,7.79a1.94,1.94,0,0,0,.17,2.24A1.35,1.35,0,0,0,279.38,571.62Z"/></g></mask><linearGradient id="linear-gradient-87" x1="-5343.93" y1="1686.33" x2="-5343.86" y2="1683.07" xlink:href="#linear-gradient-31"/><filter id="luminosity-noclip-52" x="281.57" y="565.15" width="5.65" height="9.66" filterUnits="userSpaceOnUse" color-interpolation-filters="sRGB"><feFlood flood-color="#fff" result="bg"/><feBlend in="SourceGraphic" in2="bg"/></filter><mask id="mask-52" x="281.57" y="565.15" width="5.65" height="9.66" maskUnits="userSpaceOnUse"><g class="cls-43"><path class="cls-44" d="M284.28,574.15s-1-2.7,2.94-9L281.63,573a1.46,1.46,0,0,0,.73,1.72A1.69,1.69,0,0,0,284.28,574.15Z"/></g></mask><linearGradient id="linear-gradient-88" x1="-5344.39" y1="1691.74" x2="-5344.13" y2="1689.01" xlink:href="#linear-gradient-32"/><filter id="luminosity-noclip-53" x="279.4" y="562.98" width="5.83" height="10.37" filterUnits="userSpaceOnUse" color-interpolation-filters="sRGB"><feFlood flood-color="#fff" result="bg"/><feBlend in="SourceGraphic" in2="bg"/></filter><mask id="mask-53" x="279.4" y="562.98" width="5.83" height="10.37" maskUnits="userSpaceOnUse"><g class="cls-45"><path class="cls-46" d="M281.52,573.14s-.77-3.89,3.7-10.16l-5.54,7.78a1.94,1.94,0,0,0,.17,2.24A1.35,1.35,0,0,0,281.52,573.14Z"/></g></mask><linearGradient id="linear-gradient-89" x1="-5343.93" y1="1688.96" x2="-5343.86" y2="1685.7" xlink:href="#linear-gradient-31"/><linearGradient id="linear-gradient-90" x1="4777.9" y1="1446.11" x2="4777.9" y2="1547.82" gradientTransform="matrix(-0.52, -0.85, -0.88, 0.54, 4607.34, 3941.66)" xlink:href="#linear-gradient-29"/><linearGradient id="linear-gradient-91" x1="-5017.08" y1="1770.02" x2="-5017.08" y2="1798.52" gradientTransform="matrix(0.48, 0.88, -0.88, 0.48, 4715.33, 4252.79)" xlink:href="#linear-gradient-59"/><filter id="luminosity-noclip-54" x="751.47" y="679.16" width="17.08" height="21.2" filterUnits="userSpaceOnUse" color-interpolation-filters="sRGB"><feFlood flood-color="#fff" result="bg"/><feBlend in="SourceGraphic" in2="bg"/></filter><mask id="mask-54" x="751.47" y="679.16" width="17.08" height="21.2" maskUnits="userSpaceOnUse"><g class="cls-47"><path class="cls-48" d="M751.47,682.6s8.72,2.32,17.08,17.76l-10.37-19.12s-1.79-2.78-4.76-1.91C753.42,679.33,751.45,679.87,751.47,682.6Z"/></g></mask><linearGradient id="linear-gradient-92" x1="-5019.45" y1="1777.86" x2="-5019.3" y2="1770.43" gradientTransform="matrix(0.48, 0.88, -0.88, 0.48, 4715.33, 4252.79)" xlink:href="#linear-gradient-31"/><filter id="luminosity-noclip-55" x="741.05" y="684.9" width="15.79" height="20.23" filterUnits="userSpaceOnUse" color-interpolation-filters="sRGB"><feFlood flood-color="#fff" result="bg"/><feBlend in="SourceGraphic" in2="bg"/></filter><mask id="mask-55" x="741.05" y="684.9" width="15.79" height="20.23" maskUnits="userSpaceOnUse"><g class="cls-49"><path class="cls-50" d="M741.37,690.09s6.54.68,15.47,15l-10.43-19.3s-2.17-1.94-4.25-.22C742.16,685.61,740.32,687,741.37,690.09Z"/></g></mask><linearGradient id="linear-gradient-93" x1="-5020.5" y1="1790.18" x2="-5019.91" y2="1783.96" gradientTransform="matrix(0.48, 0.88, -0.88, 0.48, 4715.33, 4252.79)" xlink:href="#linear-gradient-32"/><filter id="luminosity-noclip-56" x="746.21" y="682.02" width="17.08" height="21.2" filterUnits="userSpaceOnUse" color-interpolation-filters="sRGB"><feFlood flood-color="#fff" result="bg"/><feBlend in="SourceGraphic" in2="bg"/></filter><mask id="mask-56" x="746.21" y="682.02" width="17.08" height="21.2" maskUnits="userSpaceOnUse"><g class="cls-51"><path class="cls-52" d="M746.21,685.46s8.72,2.32,17.08,17.76l-10.37-19.13s-1.79-2.77-4.76-1.9C748.16,682.19,746.19,682.73,746.21,685.46Z"/></g></mask><linearGradient id="linear-gradient-94" x1="-5019.45" y1="1783.85" x2="-5019.3" y2="1776.41" gradientTransform="matrix(0.48, 0.88, -0.88, 0.48, 4715.33, 4252.79)" xlink:href="#linear-gradient-31"/></defs><g id="Layer_2" data-name="Layer 2"><g id="Layer_1-2" data-name="Layer 1"><polygon class="cls-57" points="563.34 351.63 170.34 29.43 185.34 11.12 54.98 0 90.8 126.44 105.59 108.39 499.95 431.7 563.34 351.63"/><polygon class="cls-58" points="540.94 507.79 348.38 349.91 355.73 340.94 291.85 335.49 309.4 397.44 316.65 388.6 509.88 547.02 540.94 507.79"/><polygon class="cls-58" points="611.5 246.49 379.15 56 388.02 45.18 310.95 38.6 332.13 113.35 340.87 102.69 574.02 293.83 611.5 246.49"/><path class="cls-59" d="M707.12,613.45c0,4.89-12.61,8.86-28.17,8.86s-28.18-4-28.18-8.86,12.61-8.87,28.18-8.87S707.12,608.55,707.12,613.45Z"/><path class="cls-60" d="M697.52,594.42a42.11,42.11,0,0,1-7.12-12.95c-3.75-10.48-22.17-17.25-31.6-5.14-9.92,12.74-.8,30.72,17,29.82,0,0,9.51.36,12,1.65,0,0,1.91,1.91,3.67-.86s6.82-9.45,6.82-9.45S699.42,596,697.52,594.42Z"/><path class="cls-61" d="M665.73,576.65c3.76,1,5.7,6,4.34,11.29s-5.52,8.73-9.29,7.75-5.7-6-4.33-11.29S662,575.67,665.73,576.65Z"/><path class="cls-62" d="M693.18,604.36A75.74,75.74,0,0,0,682.24,597h0a13.08,13.08,0,0,0-2.62-1.26,20.48,20.48,0,0,1-3.85,3h0a2,2,0,0,1-1.49.11l-.08,0-.06-.07a1.52,1.52,0,0,1-.32-1.41c.28-1,1.6-1.84,2.7-2.22a4.52,4.52,0,0,1,3-.09,27.82,27.82,0,0,0,4-5.26v0c.28-.38.55-.79.81-1.21l-.23-.43c-.78-1.47-1-3.38.32-4.35a.88.88,0,0,1,.73-.12,1,1,0,0,1,.78.82,6.16,6.16,0,0,1-.92,4.09c2.45,4.39,7.35,9.92,10.84,12.17l-.32.5c-3.48-2.25-8.33-7.67-10.87-12.09-.21.33-.43.64-.65,1a29,29,0,0,1-3.86,5.15,14.71,14.71,0,0,1,2.45,1.22,75.44,75.44,0,0,1,11,7.44Zm-8.45-20.13c-1,.76-.84,2.36-.17,3.61l.05.1a5.39,5.39,0,0,0,.67-3.37.41.41,0,0,0-.19-.28.56.56,0,0,0-.35-.07Zm-10.36,13.29a.86.86,0,0,0,.16.79,1.28,1.28,0,0,0,.93-.1,19.38,19.38,0,0,0,3.49-2.67,3.76,3.76,0,0,0-2.23.14h0a4.73,4.73,0,0,0-2.11,1.4A1.17,1.17,0,0,0,674.37,597.52Z"/><path class="cls-63" d="M704.72,601.22a1.72,1.72,0,0,0-1.88.06,1.79,1.79,0,0,0-.6-1.82,1.73,1.73,0,0,0-1.75-.05,1.7,1.7,0,0,0-.62-1.58,2.13,2.13,0,0,0-2.82.87l-5.9,8.3a2.13,2.13,0,0,0,.1,3,1.73,1.73,0,0,0,1.75,0,1.68,1.68,0,0,0,.63,1.58,1.74,1.74,0,0,0,1.91,0,1.72,1.72,0,0,0,.56,1.8,1.94,1.94,0,0,0,2.43-.49c2.08,1,4.9.09,6.57-2.26s1.62-5.33,0-7A1.93,1.93,0,0,0,704.72,601.22Z"/><g class="cls-64"><path class="cls-65" d="M693,610s-.87-4.38,4.18-11.46l-6.25,8.78a2.21,2.21,0,0,0,.19,2.53A1.52,1.52,0,0,0,693,610Z"/></g><g class="cls-66"><path class="cls-67" d="M698.51,612.88s-1.12-3,3.32-10.15l-6.31,8.84a1.65,1.65,0,0,0,.83,1.94A1.89,1.89,0,0,0,698.51,612.88Z"/></g><g class="cls-68"><path class="cls-69" d="M695.4,611.74s-.87-4.38,4.18-11.47l-6.25,8.78a2.19,2.19,0,0,0,.19,2.53A1.53,1.53,0,0,0,695.4,611.74Z"/></g><g class="cls-70"><path class="cls-71" d="M517.6,218.23s-100.66,107,14.75,223.51L626.9,299.41l-62.19-94.36Z"/></g><path class="cls-72" d="M508.88,246.14s4.47,10.77-30.69,40.39l3.62-31.15S501.89,239.56,508.88,246.14Z"/><path class="cls-73" d="M144.5,72.73s-6.88-5.18-7.53-7.24-2.07-6.95-4.14-8.13S118,48.65,116,49.55,106,62.36,106.19,68s9.26,12.25,12,11.11,7.11,9,17.53,6.94l3.58,3,9.13-12.14Z"/><path class="cls-74" d="M105.69,68.34s-1.06,3.5,5.16,7.73c5.36,3.65,6.81,3.16,7.11,3,.85-.32,2.17-1.56,2.15-2.63s2.21-1.61,2.63-3.23,1.72-1.76,1.89-3.5.53-.26,1.47-2.34,3.5-6.78,2.69-8.92.65-3.44-5.41-6.41-7.07-3.41-8.26-2S107.09,60,105.69,68.34Z"/><path class="cls-75" d="M129.4,76.94s-7.15-6.58-2.8-15.41c0,0-4.34,7.18-7.2,7.42-3.08.25-3.86-1.64-3.86-1.64s5.33-9.61,5.93-12,3.34-5.25,6.61-3.41a80.17,80.17,0,0,1,7,4.62s2.51,7.36,3.27,9,9.18,10.56,9.18,10.56L143,84.14S133.1,81.36,129.4,76.94Z"/><path class="cls-76" d="M137.43,92.85s61,49.77,68.78,55.6S286,211,286,211L292.06,159s-68.23-39.17-72.36-41.49-69.51-42.38-69.51-42.38Z"/><polygon class="cls-77" points="149.12 76.6 145.53 73.77 135.4 87.45 139.03 90.76 149.12 76.6"/><path class="cls-78" d="M250.41,115.7s-9.87,2.33-11.27,16.68c-1.42,14.61,3.77,37.22,3.77,37.22l10.59-2s21.06,15.9,17.82,26.86l31.31-21.06s-35.74-15.2-20.93-47C281.7,126.44,274,109,250.41,115.7Z"/><path class="cls-79" d="M253.5,167.6l5.42-1.3s9.09.62,25.39,19.42l-13,8.74S276.06,184.9,253.5,167.6Z"/><path class="cls-80" d="M235.68,107.85s-2.35,11,6.18,15.17l5.43-5.87Z"/><path class="cls-81" d="M290.14,130.55s2.77-21.53-19.77-23.75c-25.41-2.51-34.69,1-34.69,1s3,11.33,13,11.1,26,.81,28.15,9.58Z"/><path class="cls-82" d="M289.13,122.13s4.53,6.19-3.62,20.71c-6.31,11.22-5.92,10.19-10.25-2.44C266.8,115.76,285.65,115.13,289.13,122.13Z"/><path class="cls-83" d="M482.15,249.05c.87-2.3,11.21,6.64,11.1,25-.06,9.84,23.33,18.14,48.38,43.9s25.67,18.79,25.67,18.79l-28.4,27.7s-133.18-40.82-130.73-77.36Z"/><path class="cls-84" d="M442.64,227.19S350,298.86,342.56,305.43c-7.63,6.71-14.79,24.8,3.85,34.5s135.7,8,191.49,22.73l19.17-20.89s-116.53-49.2-140.42-29.65c0,0-1.28-1.13,19.62-7.54,23.21-7.12,51-27.19,54.73-38.72C494.71,254.54,495.21,224.79,442.64,227.19Z"/><path class="cls-85" d="M271.21,188.11s-1.54,28.16,26.56,45.64,87.17,38.18,87.17,38.18l43.81-33.82s-72.27-94.8-124.35-87.56l-18.35,3.52Z"/><polygon class="cls-86" points="271 181.22 283.82 190.1 287.87 153.72 280.01 151.47 271 181.22"/><polygon class="cls-87" points="264.84 178.94 271 181.22 272.79 196.46 266.38 187.76 264.84 178.94"/><path class="cls-88" d="M287.87,153.72s-10.53,31.59,22.48,50.72,86.5,23.82,105.45,29.34,50.36,22.25,56.54,48.68c0,0,21.49-45.25,36.54-36.32,0,0-16.05-22.2-68.68-42.18s-83.92-57.65-93.27-61.4C331.47,136.37,298.73,145.74,287.87,153.72Z"/><path class="cls-89" d="M140.63,92.63a1.48,1.48,0,0,0,3-.19A1.49,1.49,0,0,0,142,91.06,1.47,1.47,0,0,0,140.63,92.63Z"/><path class="cls-89" d="M144.48,95.52A1.48,1.48,0,1,0,145.85,94,1.48,1.48,0,0,0,144.48,95.52Z"/><path class="cls-90" d="M397.9,247.11,387,251.26s-19.81,13-20.82,13.13c0,0,.05,12.69-.08,13.24s.42,4,3.79,3.85a3.53,3.53,0,0,0,2.21,2.73,3.62,3.62,0,0,0,3.14.2s-.54,1.49,2.15,2.49,3.59-.33,3.59-.33-.34.95,2.09,1.44a4.6,4.6,0,0,0,3.35-.29l3.46-2.22L389.7,279a.8.8,0,0,0-1.06-.48L386,280.64s11.77-10,12.91-18.29l6.54-8.11Z"/><path class="cls-91" d="M366.17,264.39s-.31,8.79,19.79,16.25c0,0,11.31-8.11,12.9-16.91,0,0,1-12.35-10.87-12.89Z"/><path class="cls-92" d="M385.63,283.85s0,0,1.05-.58a6.91,6.91,0,0,0-.29-2.35s-.29,1.39-.36,1.66A5.15,5.15,0,0,1,385.63,283.85Z"/><path class="cls-92" d="M369.87,281.39l.17-9.33A28.36,28.36,0,0,1,369.87,281.39Z"/><path class="cls-92" d="M375.26,284.29l.23-8.1A21.42,21.42,0,0,1,375.26,284.29Z"/><path class="cls-92" d="M381.38,287l-.17-7.83C381.74,282.33,381.82,282.39,381.38,287Z"/><path class="cls-93" d="M385.87,248.4l-2.23,3.74L400,261.77l3.11-3.75S387.62,249,385.87,248.4Z"/><path class="cls-94" d="M310.64,146.09s6.61-8.74,41.56-4.24c32.85,4.23,78.83,11.27,100.46,20.89s-46.93,96.81-46.93,96.81-19.9-11.78-21.23-11.66l30-63.45s-71.94,10.33-91.32,1.05C306.86,177.69,300.2,159.11,310.64,146.09Z"/><path class="cls-89" d="M404.42,255.08a1.48,1.48,0,1,0,1.23-1.68A1.48,1.48,0,0,0,404.42,255.08Z"/><path class="cls-89" d="M407.66,250.93a1.48,1.48,0,1,0,1.24-1.68A1.48,1.48,0,0,0,407.66,250.93Z"/><polygon class="cls-95" points="271 181.22 272.01 194.83 279.43 197.71 281.73 188.13 271 181.22"/><path class="cls-96" d="M280.55,193S314.5,260,374,205c42.17-39,45.37-37.54,45.37-37.54l16.13,5-8,14.15s-8.79,1.56-20.4,10.36c-9.53,7.22-44.91,39.21-72.59,39.1C313.55,236,292,227.29,275,196Z"/><path class="cls-97" d="M482.88,443.94l6.5-59.41,18.34,8.55,13.82-39.91L563.8,339.1l-12.41-45,23.8-18.62-18.43-23.25L558.47,208l-42.25,10.62h0C547,194.21,588,180.82,636.41,188.8c142.7,23.48,194.84,186,74.22,280.21,0,0-59.12,55.42-67.17,77.34,0,0-.53,22.54-29,15.2s-102.36-20.46-102.36-20.46S496,538,498.39,517.56C498.39,517.56,497.32,487.94,482.88,443.94Z"/><g class="cls-98"><path class="cls-99" d="M749.12,667.32c0,8.38-98.9,15-252.4,15s-303.48-6.59-303.48-15,124.45-15.19,277.94-15.19S749.12,658.93,749.12,667.32Z"/><path class="cls-100" d="M744.94,667.1c0,8.22-96.4,14.68-245.81,14.68s-295.24-6.46-295.24-14.68S325,652.22,474.41,652.22,744.94,658.88,744.94,667.1Z"/><path class="cls-101" d="M740.75,666.89c0,8.05-93.9,14.37-239.21,14.37s-287-6.32-287-14.37,117.81-14.57,263.11-14.57S740.75,658.84,740.75,666.89Z"/><path class="cls-102" d="M736.57,666.68c0,7.88-91.41,14.07-232.63,14.07s-278.76-6.19-278.76-14.07,114.49-14.27,255.69-14.27S736.57,658.8,736.57,666.68Z"/><path class="cls-103" d="M732.38,666.46c0,7.71-88.91,13.78-226,13.78s-270.52-6.07-270.52-13.78,111.17-14,248.28-14S732.38,658.75,732.38,666.46Z"/><path class="cls-104" d="M728.2,666.25c0,7.54-86.42,13.48-219.44,13.48s-262.28-5.94-262.28-13.48,107.84-13.66,240.86-13.66S728.2,658.71,728.2,666.25Z"/><path class="cls-105" d="M724,666c0,7.37-83.92,13.18-212.85,13.18s-254-5.81-254-13.18,104.53-13.36,233.45-13.36S724,658.66,724,666Z"/><path class="cls-106" d="M719.83,665.82c0,7.21-81.42,12.89-206.26,12.89s-245.8-5.68-245.8-12.89,101.21-13,226-13S719.83,658.62,719.83,665.82Z"/><path class="cls-107" d="M715.65,665.61c0,7-78.93,12.59-199.67,12.59s-237.56-5.55-237.56-12.59S376.3,652.87,497,652.87,715.65,658.57,715.65,665.61Z"/><path class="cls-108" d="M711.46,665.4c0,6.87-76.43,12.28-193.07,12.28s-229.32-5.41-229.32-12.28S383.63,653,500.26,653,711.46,658.53,711.46,665.4Z"/><path class="cls-109" d="M707.28,665.18c0,6.7-73.94,12-186.48,12s-221.09-5.29-221.09-12S391,653.05,503.49,653.05,707.28,658.48,707.28,665.18Z"/><path class="cls-110" d="M703.09,665c0,6.53-71.43,11.69-179.89,11.69S310.36,671.5,310.36,665s87.93-11.83,196.37-11.83S703.09,658.44,703.09,665Z"/><path class="cls-111" d="M698.91,664.76c0,6.36-68.94,11.39-173.3,11.39s-204.6-5-204.6-11.39,84.6-11.52,189-11.52S698.91,658.39,698.91,664.76Z"/><path class="cls-112" d="M694.73,664.55c0,6.19-66.45,11.09-166.71,11.09s-196.36-4.9-196.36-11.09,81.28-11.22,181.53-11.22S694.73,658.35,694.73,664.55Z"/><path class="cls-113" d="M690.54,664.33c0,6-63.95,10.8-160.11,10.8s-188.13-4.77-188.13-10.8,78-10.91,174.12-10.91S690.54,658.31,690.54,664.33Z"/><path class="cls-114" d="M686.36,664.12c0,5.86-61.46,10.5-153.53,10.5S353,670,353,664.12s74.64-10.61,166.7-10.61S686.36,658.26,686.36,664.12Z"/><path class="cls-115" d="M682.17,663.91c0,5.68-58.95,10.19-146.93,10.19S363.6,669.59,363.6,663.91s71.32-10.31,159.28-10.31S682.17,658.22,682.17,663.91Z"/><path class="cls-116" d="M678,663.69c0,5.52-56.46,9.9-140.34,9.9s-163.4-4.38-163.4-9.9,68-10,151.86-10S678,658.17,678,663.69Z"/><path class="cls-117" d="M673.8,663.48c0,5.35-54,9.6-133.74,9.6s-155.17-4.25-155.17-9.6,64.68-9.69,144.46-9.69S673.8,658.13,673.8,663.48Z"/><path class="cls-118" d="M669.62,663.27c0,5.18-51.47,9.3-127.16,9.3s-146.92-4.12-146.92-9.3,61.36-9.39,137-9.39S669.62,658.08,669.62,663.27Z"/><path class="cls-119" d="M665.44,663.05c0,5-49,9-120.57,9s-138.68-4-138.68-9,58-9.08,129.62-9.08S665.44,658,665.44,663.05Z"/><path class="cls-120" d="M661.25,662.84c0,4.85-46.48,8.71-114,8.71s-130.44-3.86-130.44-8.71,54.71-8.77,122.2-8.77S661.25,658,661.25,662.84Z"/><path class="cls-121" d="M657.07,662.63c0,4.67-44,8.4-107.38,8.4s-122.21-3.73-122.21-8.4,51.4-8.47,114.79-8.47S657.07,658,657.07,662.63Z"/><path class="cls-122" d="M652.88,662.42c0,4.5-41.48,8.1-100.79,8.1s-114-3.6-114-8.1,48.08-8.17,107.37-8.17S652.88,657.9,652.88,662.42Z"/><path class="cls-123" d="M648.7,662.2c0,4.34-39,7.81-94.2,7.81s-105.72-3.47-105.72-7.81,44.75-7.86,100-7.86S648.7,657.86,648.7,662.2Z"/><path class="cls-124" d="M644.51,662c0,4.17-36.49,7.51-87.6,7.51s-97.49-3.34-97.49-7.51,41.44-7.56,92.55-7.56S644.51,657.81,644.51,662Z"/><path class="cls-125" d="M640.33,661.78c0,4-34,7.21-81,7.21s-89.25-3.21-89.25-7.21,38.12-7.25,85.13-7.25S640.33,657.77,640.33,661.78Z"/><path class="cls-126" d="M636.15,661.56c0,3.84-31.5,6.92-74.43,6.92s-81-3.08-81-6.92,34.8-6.94,77.71-6.94S636.15,657.73,636.15,661.56Z"/><path class="cls-127" d="M632,661.35c0,3.66-29,6.62-67.83,6.62s-72.76-3-72.76-6.62,31.47-6.64,70.29-6.64S632,657.68,632,661.35Z"/><path class="cls-128" d="M627.78,661.14c0,3.49-26.51,6.31-61.24,6.31S502,664.63,502,661.14s28.16-6.34,62.88-6.34S627.78,657.64,627.78,661.14Z"/><path class="cls-129" d="M623.59,660.92c0,3.33-24,6-54.64,6s-56.29-2.69-56.29-6,24.84-6,55.46-6S623.59,657.59,623.59,660.92Z"/><path class="cls-130" d="M619.41,660.71c0,3.16-21.52,5.72-48.06,5.72s-48-2.56-48-5.72,21.51-5.72,48-5.72S619.41,657.55,619.41,660.71Z"/></g><path class="cls-131" d="M579.29,554.82a2.66,2.66,0,0,1-2.1-3.12c5.84-30,20.73-78.23,31.93-103.26a1.12,1.12,0,0,0,0-.13,132.83,132.83,0,0,1,7.67-17.23,2.65,2.65,0,0,0-1.89-3.92A277.49,277.49,0,0,1,563,413.64l-.17-.06q-2.82-.78-5.63-1.63a2.66,2.66,0,0,0-3.4,3c6.9,40.86,5.12,96.74-4.64,128.87a2.67,2.67,0,0,1-3.38,1.76h0a2.65,2.65,0,0,1-1.72-3.3c10-33,11.47-91.71,3.49-132.28a2.65,2.65,0,0,0-1.63-1.95c-11.57-4.64-21.89-11.14-28.4-21.7a7.73,7.73,0,0,1,.61-9.4c1.06-1.28,3.35-3.23,5.65-3,14.45-.27,24.05,13.35,27.17,27,.21.85.41,1.71.61,2.58a2.69,2.69,0,0,0,1.74,1.94c3.69,1.26,7.41,2.34,11,3.34l.21.07a268.17,268.17,0,0,0,55.89,14,2.7,2.7,0,0,0,2.45-1c5-6.28,11.34-11.11,19.61-13.37,9.73-3.18,23.62-4.29,31.2.75a12.87,12.87,0,0,1,5.85,10.93l-.11.82-.19.54a2.54,2.54,0,0,1-.38.73,16.29,16.29,0,0,1-10.53,6.18l-.14,0a194.41,194.41,0,0,1-41.93.09,2.64,2.64,0,0,0-2.5,1.18c-3.89,6.09-6.93,13.21-9.65,20.46l0,.14C603,475.12,588.22,523,582.42,552.73a2.65,2.65,0,0,1-3.13,2.09ZM523.75,379a4.48,4.48,0,0,0-2,2.22,3,3,0,0,0,.35,2.8c5.57,9,14.33,14.73,23.9,18.79-.06-.29-.13-.58-.2-.86-2.67-11.7-10.46-23.31-21.9-22.95Zm143.06,32.69c-6.3-1.67-15.55-.62-22.45,1.64l-.13,0a30.35,30.35,0,0,0-11.76,6.24,2.68,2.68,0,0,0,1.52,4.72,184.91,184.91,0,0,0,33.31-.7,11.3,11.3,0,0,0,6-3.18A2.6,2.6,0,0,0,674,418a7.4,7.4,0,0,0-3.26-4.66A13,13,0,0,0,666.81,411.64Z"/><path class="cls-132" d="M489.59,599.1c1.07-5.19,6-8.91,12.49-10.16-5.43-3.79-8.46-9.26-7.38-14.57,1-4.88,5.28-8.51,11-10.09-4.4-3.69-6.73-8.57-5.75-13.33,1.67-8.06,12.2-12.69,23.54-10.36l89.33,18.46c11.33,2.35,19.17,10.78,17.5,18.84-1,4.88-5.25,8.51-11,10.09,4.39,3.69,6.71,8.57,5.73,13.32-1.09,5.32-6,9.14-12.54,10.46C618,615.49,621,620.85,620,626c-1.39,6.74-9.29,11-18.65,10.6-7.2,17.91-31.07,27.91-56.38,22.69s-43.34-23.94-42.83-43.27C493.6,612.65,488.23,605.73,489.59,599.1Z"/><g class="cls-133"><path class="cls-134" d="M619.64,588S598.19,556,521.9,540.33l94.5,19.46s14.11,4,14.4,16.78C630.8,576.57,631.19,585,619.64,588Z"/></g><g class="cls-135"><path class="cls-134" d="M601.61,636.7S590,611.49,517.52,592.3l95.31,19.52s11.09,6.4,6.63,16.66C619.46,628.48,616.11,637.33,601.61,636.7Z"/></g><g class="cls-136"><path class="cls-134" d="M614.64,612.2s-21.44-32.06-97.73-47.71L611.41,584s14.1,3.95,14.4,16.78C625.81,600.73,626.19,609.17,614.64,612.2Z"/></g><polygon class="cls-137" points="508.54 170.63 496.89 203.88 533.3 227.5 508.54 170.63"/><polygon class="cls-137" points="528.02 230.95 491.42 258.87 539.24 321.7 528.02 230.95"/><polygon class="cls-137" points="575.87 216.45 538.41 239.58 573.83 257.79 575.87 216.45"/><polygon class="cls-137" points="447.64 338.69 545.1 350.96 497 401.89 447.64 338.69"/><polygon class="cls-137" points="317.49 387.68 344.33 402 369.28 374.04 317.49 387.68"/><polygon class="cls-137" points="385.54 381.54 408.15 417.19 457.75 380 385.54 381.54"/><polygon class="cls-137" points="379.33 338.53 390.23 364.32 405.11 343.83 379.33 338.53"/><polygon class="cls-137" points="349.26 424.48 361.84 420.42 370.35 434.29 349.26 424.48"/><polygon class="cls-138" points="385.54 381.54 386.41 388.04 408.81 424.92 458.55 385.95 457.75 380 408.15 417.19 385.54 381.54"/><polygon class="cls-138" points="349.26 424.48 346.74 425.99 367.81 435.82 370.35 434.29 349.26 424.48"/><polygon class="cls-138" points="447.64 338.69 448.87 347.89 497.34 409.19 546.14 358.74 545.1 350.96 497 401.89 447.64 338.69"/><polygon class="cls-138" points="317.49 387.68 317.95 391.15 344.59 405.62 369.87 376.94 369.28 374.04 343.83 401.78 317.49 387.68"/><polygon class="cls-138" points="379.33 338.53 379.85 342.41 390.18 367.11 405.41 346.06 405.11 343.83 390.28 363.8 379.33 338.53"/><polygon class="cls-138" points="550.82 349.02 551.97 354 590.92 361.72 589.97 357.19 550.82 349.02"/><polygon class="cls-138" points="575.93 296.4 590.92 361.72 591.89 360.59 575.93 296.4"/><polygon class="cls-138" points="491.42 258.87 492.53 268.05 539.19 325.14 539.24 321.7 491.42 258.87"/><polygon class="cls-137" points="589.88 357.21 550.82 349.02 556.47 292.6 575.93 296.4 589.88 357.21"/><polygon class="cls-138" points="496.89 203.88 497.37 207.47 533.76 230.95 533.3 227.5 496.89 203.88"/><polygon class="cls-138" points="538.41 239.58 539.02 244.16 574.29 262.08 576.35 220.03 575.87 216.45 573.15 257.42 538.41 239.58"/><polygon class="cls-137" points="456.59 229.5 450.68 210.45 471.77 197.83 456.59 229.5"/><polygon class="cls-138" points="456.59 229.5 458.84 233.34 474.03 201.7 471.77 197.83 456.59 229.5"/><polygon class="cls-137" points="461.44 323.73 490.57 332.46 509.51 300.13 461.44 323.73"/><polygon class="cls-138" points="461.44 323.73 462.57 327.04 491.55 335.96 510.67 302.86 509.51 300.13 490.05 332.35 461.44 323.73"/><polygon class="cls-137" points="464.25 156.2 477.37 159.61 477.11 176.32 464.25 156.2"/><polygon class="cls-138" points="464.25 156.2 461.22 156.12 474.06 176.24 477.11 176.32 464.25 156.2"/><ellipse class="cls-139" cx="241.48" cy="747.51" rx="53.87" ry="22.02"/><ellipse class="cls-139" cx="370.93" cy="635.52" rx="43.76" ry="10.8"/><path class="cls-140" d="M357.8,632s9.51-1,22.64,2.69c16.52,4.7,41.56-12.32,34.84-35-7.08-23.9-37.85-28.6-52.73-5.41,0,0-9,11.62-12.85,13.57,0,0-4.11.69-2.22,5.38s5.74,17,5.74,17S354.1,633,357.8,632Z"/><path class="cls-61" d="M408.65,608.1c-4.6,3.84-12.69,1.74-18.06-4.69s-6-14.77-1.4-18.62,12.69-1.74,18.07,4.7S413.26,604.26,408.65,608.1Z"/><path class="cls-62" d="M349.21,617.66a116.59,116.59,0,0,0,19.08-7.1h0a20.88,20.88,0,0,0,3.94-2.15,31.56,31.56,0,0,1-.32-7.54v0a3,3,0,0,1,1.19-2l.11-.09h.14a2.29,2.29,0,0,1,2.05.85c1,1.24.88,3.66.36,5.39a7,7,0,0,1-2.53,3.78,42.63,42.63,0,0,0,3,9.73l0,0c.23.7.49,1.41.79,2.11l.75.1c2.54.34,5.11,1.81,5.16,4.31a1.28,1.28,0,0,1-.51,1,1.49,1.49,0,0,1-1.72.25,9.53,9.53,0,0,1-4.3-4.83c-7.72-.87-19.05.31-25,2.67l-.33-.85c5.94-2.35,17.11-3.56,24.93-2.79-.22-.55-.42-1.11-.62-1.67a44.32,44.32,0,0,1-3-9.47,23.52,23.52,0,0,1-3.73,2,117.42,117.42,0,0,1-19.25,7.17Zm32.86,7.48c0-2-2.21-3.17-4.38-3.46l-.16,0a8.2,8.2,0,0,0,3.62,3.86.57.57,0,0,0,.52,0,.87.87,0,0,0,.4-.38ZM374.7,600.2a1.35,1.35,0,0,0-1.13-.51,2.08,2.08,0,0,0-.73,1.26,29.79,29.79,0,0,0,.24,6.77,5.84,5.84,0,0,0,1.81-2.92v0a7.37,7.37,0,0,0,.14-3.91A2.28,2.28,0,0,0,374.7,600.2Z"/><path class="cls-141" d="M342.79,635a2.66,2.66,0,0,0,1.62-2.42,2.73,2.73,0,0,0,2.81.89,2.61,2.61,0,0,0,1.63-2.16,2.59,2.59,0,0,0,2.55.64c1.45-.5,2.09-2.43,1.44-4.31l-5.12-14.87c-.65-1.88-2.34-3-3.79-2.51a2.63,2.63,0,0,0-1.63,2.15,2.62,2.62,0,0,0-2.55-.64,2.73,2.73,0,0,0-1.67,2.43,2.66,2.66,0,0,0-2.76-.9c-1.2.41-1.83,1.88-1.57,3.48-3.14,1.71-4.51,6.07-3.06,10.28s5.23,6.82,8.76,6.23A3,3,0,0,0,342.79,635Z"/><g class="cls-142"><path class="cls-143" d="M342.29,612.33s6.28,2.84,10.63,15.54l-5.4-15.72a3.4,3.4,0,0,0-3.35-2A2.35,2.35,0,0,0,342.29,612.33Z"/></g><g class="cls-144"><path class="cls-145" d="M333.73,616.7S338.57,618,343.5,630l-5.44-15.87a2.54,2.54,0,0,0-3.17-.7S333.33,614.23,333.73,616.7Z"/></g><g class="cls-146"><path class="cls-147" d="M338,613.82s6.29,2.85,10.64,15.54l-5.41-15.72a3.4,3.4,0,0,0-3.35-2A2.36,2.36,0,0,0,338,613.82Z"/></g><path class="cls-148" d="M225.52,745.68s12.89-3.63,31.88-1.5c23.89,2.67,54.53-26.62,40-56.42-15.3-31.36-58.85-30.74-74,4.72,0,0-9.73,18.11-14.6,21.7,0,0-5.53,1.89-1.82,7.93s11.86,22.22,11.86,22.22S220.63,747.85,225.52,745.68Z"/><path class="cls-61" d="M290.19,700.89c-5.46,6.37-17.12,5.34-26-2.31s-11.69-19-6.22-25.37,17.12-5.34,26,2.31S295.66,694.52,290.19,700.89Z"/><path class="cls-62" d="M210.35,727.81A163,163,0,0,0,235,713.61l0,0a28.94,28.94,0,0,0,4.94-3.86,44.65,44.65,0,0,1-2.19-10.34v0a4.25,4.25,0,0,1,1.19-3l.13-.15.19,0a3.24,3.24,0,0,1,3,.7c1.64,1.49,2.06,4.86,1.74,7.37a9.75,9.75,0,0,1-2.62,5.79,59.45,59.45,0,0,0,6.41,12.74l0,.05c.48.9,1,1.82,1.58,2.71l1.05,0c3.59-.11,7.48,1.32,8.13,4.76a1.84,1.84,0,0,1-.47,1.53,2.09,2.09,0,0,1-2.32.73,13.25,13.25,0,0,1-7-5.67c-10.85.59-26.23,4.84-33.92,9.47l-.66-1.1c7.66-4.62,22.8-8.86,33.78-9.61-.44-.7-.85-1.43-1.24-2.16a61.76,61.76,0,0,1-6.32-12.39,32.08,32.08,0,0,1-4.69,3.59A164.43,164.43,0,0,1,210.86,729Zm47.08,2.74c-.48-2.74-3.78-3.86-6.84-3.76h-.23a11.45,11.45,0,0,0,5.9,4.5.82.82,0,0,0,.72-.09,1.17,1.17,0,0,0,.45-.61ZM241.5,697.83a1.92,1.92,0,0,0-1.69-.45,3,3,0,0,0-.71,1.91,43.4,43.4,0,0,0,1.89,9.3,8.19,8.19,0,0,0,1.83-4.46v0a10.24,10.24,0,0,0-.71-5.43A3,3,0,0,0,241.5,697.83Z"/><path class="cls-149" d="M205.48,753.19a3.74,3.74,0,0,0,1.68-3.71,3.8,3.8,0,0,0,4.08.58,3.7,3.7,0,0,0,1.76-3.35,3.67,3.67,0,0,0,3.67.29c1.87-1,2.31-3.84,1-6.29l-10.51-19.34c-1.33-2.45-3.93-3.62-5.81-2.59a3.68,3.68,0,0,0-1.75,3.34,3.67,3.67,0,0,0-3.67-.29,3.82,3.82,0,0,0-1.75,3.74,3.74,3.74,0,0,0-4-.61c-1.57.86-2.09,3-1.37,5.17-3.94,3.09-4.82,9.42-1.84,14.9s8.79,8.21,13.52,6.58C201.88,753.32,203.94,754,205.48,753.19Z"/><g class="cls-150"><path class="cls-151" d="M199.55,722.06s9.34,2.47,18.28,19l-11.1-20.46s-1.91-3-5.09-2C201.64,718.56,199.53,719.13,199.55,722.06Z"/></g><g class="cls-152"><path class="cls-153" d="M188.75,730.07s7,.73,16.55,16.09l-11.16-20.65s-2.32-2.08-4.55-.24C189.59,725.27,187.63,726.75,188.75,730.07Z"/></g><g class="cls-154"><path class="cls-155" d="M193.93,725.12s9.33,2.47,18.27,19l-11.09-20.47s-1.92-3-5.1-2C196,721.62,193.9,722.19,193.93,725.12Z"/></g><ellipse class="cls-139" cx="586.26" cy="759.45" rx="45.98" ry="13.89"/><path class="cls-156" d="M616.82,730.13s-6.38-7.13-11-20C600,694,571.59,683.48,557,702.19c-15.33,19.68-1.24,47.45,26.31,46.06,0,0,14.69.55,18.53,2.55,0,0,3,3,5.66-1.33s10.53-14.6,10.53-14.6S619.75,732.58,616.82,730.13Z"/><path class="cls-61" d="M567.72,702.68c5.81,1.51,8.81,9.32,6.7,17.44s-8.52,13.48-14.33,12-8.81-9.31-6.7-17.43S561.91,701.18,567.72,702.68Z"/><path class="cls-62" d="M610.12,745.49a116.94,116.94,0,0,0-16.89-11.39h0a20.82,20.82,0,0,0-4-2,31.6,31.6,0,0,1-5.95,4.66h0a3.06,3.06,0,0,1-2.29.18l-.14,0-.09-.11a2.35,2.35,0,0,1-.5-2.17c.44-1.52,2.48-2.84,4.18-3.43a7,7,0,0,1,4.55-.14,42.52,42.52,0,0,0,6.16-8.12l0,0c.42-.6.85-1.22,1.24-1.87l-.35-.67c-1.2-2.27-1.51-5.22.5-6.72a1.32,1.32,0,0,1,1.13-.18,1.5,1.5,0,0,1,1.2,1.26,9.49,9.49,0,0,1-1.42,6.31c3.79,6.79,11.35,15.33,16.75,18.8l-.5.78c-5.38-3.47-12.86-11.85-16.8-18.67-.31.5-.65,1-1,1.47a43.72,43.72,0,0,1-6,8,23.33,23.33,0,0,1,3.78,1.88,117.17,117.17,0,0,1,17,11.5Zm-13-31.09c-1.6,1.17-1.29,3.64-.26,5.57l.07.15a8.26,8.26,0,0,0,1-5.21.59.59,0,0,0-.29-.43.91.91,0,0,0-.54-.1Zm-16,20.51a1.39,1.39,0,0,0,.24,1.23,2.1,2.1,0,0,0,1.45-.15,30.49,30.49,0,0,0,5.38-4.13,5.84,5.84,0,0,0-3.44.22h0a7.3,7.3,0,0,0-3.26,2.17A1.94,1.94,0,0,0,581.07,734.91Z"/><path class="cls-157" d="M627.94,740.63a2.66,2.66,0,0,0-2.9.09,2.73,2.73,0,0,0-.92-2.8,2.42,2.42,0,0,1-3.67-2.52c-1.24-.89-3.19-.28-4.35,1.34L607,749.57c-1.16,1.62-1.09,3.66.16,4.54a2.43,2.43,0,0,1,3.67,2.53,2.72,2.72,0,0,0,2.95-.06,2.65,2.65,0,0,0,.87,2.77c1,.74,2.6.39,3.75-.75,3.22,1.56,7.56.13,10.15-3.5s2.5-8.22,0-10.75A3,3,0,0,0,627.94,740.63Z"/><g class="cls-158"><path class="cls-159" d="M609.82,754.23s-1.35-6.77,6.45-17.71l-9.65,13.56a3.39,3.39,0,0,0,.3,3.91A2.34,2.34,0,0,0,609.82,754.23Z"/></g><g class="cls-160"><path class="cls-161" d="M618.36,758.65s-1.73-4.72,5.12-15.69l-9.74,13.66a2.55,2.55,0,0,0,1.27,3S616.58,760.41,618.36,758.65Z"/></g><g class="cls-162"><path class="cls-163" d="M613.55,756.88s-1.34-6.77,6.46-17.71l-9.66,13.56a3.41,3.41,0,0,0,.3,3.91A2.34,2.34,0,0,0,613.55,756.88Z"/></g><ellipse class="cls-59" cx="137.54" cy="661.08" rx="33.77" ry="14.44"/><ellipse class="cls-59" cx="27.33" cy="628.29" rx="27.33" ry="11.69"/><path class="cls-164" d="M127.28,664.63s7.5-2.11,18.56-.87c13.9,1.56,31.74-15.49,23.28-32.84-8.9-18.26-34.26-17.9-43.1,2.75,0,0-5.66,10.54-8.5,12.63,0,0-3.22,1.1-1.06,4.62s6.91,12.93,6.91,12.93S124.43,665.9,127.28,664.63Z"/><path class="cls-61" d="M164.93,638.56c-3.19,3.71-10,3.11-15.15-1.34s-6.81-11.07-3.62-14.77,10-3.11,15.14,1.34S168.11,634.85,164.93,638.56Z"/><path class="cls-62" d="M118.44,654.23A94,94,0,0,0,132.82,646h0a16.81,16.81,0,0,0,2.87-2.25,26.21,26.21,0,0,1-1.27-6v0a2.47,2.47,0,0,1,.69-1.74l.08-.08.11,0a1.92,1.92,0,0,1,1.76.41c1,.87,1.2,2.83,1,4.29a5.73,5.73,0,0,1-1.53,3.37,34.4,34.4,0,0,0,3.73,7.42l0,0c.28.53.58,1.07.92,1.59l.61,0c2.09-.07,4.35.76,4.73,2.77a1,1,0,0,1-.27.89A1.24,1.24,0,0,1,145,657a7.76,7.76,0,0,1-4.11-3.31c-6.32.35-15.27,2.82-19.74,5.52l-.39-.64c4.46-2.69,13.27-5.16,19.67-5.6-.26-.41-.49-.83-.72-1.26a35.37,35.37,0,0,1-3.68-7.21,18.57,18.57,0,0,1-2.73,2.09,96.76,96.76,0,0,1-14.51,8.35Zm27.41,1.6c-.28-1.6-2.2-2.25-4-2.19h-.13a6.71,6.71,0,0,0,3.43,2.62.47.47,0,0,0,.42,0,.71.71,0,0,0,.27-.36Zm-9.27-19.05a1.09,1.09,0,0,0-1-.26,1.72,1.72,0,0,0-.41,1.11,24.65,24.65,0,0,0,1.1,5.41,4.75,4.75,0,0,0,1.06-2.59v0a5.93,5.93,0,0,0-.41-3.17A1.63,1.63,0,0,0,136.58,636.78Z"/><path class="cls-165" d="M115.61,669a2.17,2.17,0,0,0,1-2.16,2.23,2.23,0,0,0,2.38.33,2.16,2.16,0,0,0,1-1.95,2.11,2.11,0,0,0,2.13.17c1.1-.59,1.35-2.23.58-3.66l-6.11-11.26c-.78-1.42-2.29-2.1-3.39-1.51a2.16,2.16,0,0,0-1,1.95,2.11,2.11,0,0,0-2.13-.17,2.23,2.23,0,0,0-1,2.18,2.17,2.17,0,0,0-2.34-.36,2.48,2.48,0,0,0-.8,3c-2.29,1.79-2.8,5.48-1.07,8.67s5.12,4.78,7.87,3.82A2.44,2.44,0,0,0,115.61,669Z"/><g class="cls-166"><path class="cls-167" d="M112.16,650.88s5.43,1.44,10.64,11.06L116.34,650a2.75,2.75,0,0,0-3-1.18A1.91,1.91,0,0,0,112.16,650.88Z"/></g><g class="cls-168"><path class="cls-169" d="M105.87,655.55s4.07.42,9.64,9.36l-6.5-12a2.07,2.07,0,0,0-2.65-.13A2.4,2.4,0,0,0,105.87,655.55Z"/></g><g class="cls-170"><path class="cls-171" d="M108.89,652.66s5.43,1.44,10.63,11.06l-6.45-11.91a2.77,2.77,0,0,0-3-1.18A1.9,1.9,0,0,0,108.89,652.66Z"/></g><path class="cls-172" d="M45.34,612.93a40.89,40.89,0,0,1-6.9-12.56c-3.64-10.16-21.5-16.74-30.65-5-9.63,12.36-.77,29.8,16.53,28.93,0,0,9.22.34,11.63,1.6,0,0,1.85,1.85,3.56-.83s6.61-9.17,6.61-9.17S47.19,614.47,45.34,612.93Z"/><path class="cls-61" d="M14.51,595.69c3.65.95,5.53,5.85,4.21,10.95s-5.36,8.47-9,7.52-5.53-5.85-4.21-10.95S10.86,594.74,14.51,595.69Z"/><path class="cls-62" d="M41.13,622.58a73.37,73.37,0,0,0-10.6-7.16h0A12.75,12.75,0,0,0,28,614.19a20,20,0,0,1-3.74,2.92h0a1.93,1.93,0,0,1-1.44.11l-.09,0-.05-.07a1.47,1.47,0,0,1-.32-1.36A4.22,4.22,0,0,1,25,613.62a4.35,4.35,0,0,1,2.85-.09,26.81,26.81,0,0,0,3.88-5.1v0c.27-.37.54-.77.78-1.17-.07-.15-.15-.29-.22-.42-.75-1.43-.94-3.28.32-4.22a.81.81,0,0,1,.7-.12,1,1,0,0,1,.76.8,5.9,5.9,0,0,1-.9,4c2.39,4.26,7.13,9.62,10.52,11.81l-.31.48c-3.38-2.17-8.08-7.44-10.55-11.72l-.62.93a28,28,0,0,1-3.75,5,14.14,14.14,0,0,1,2.37,1.18,74.23,74.23,0,0,1,10.71,7.22Zm-8.19-19.53c-1,.73-.81,2.28-.17,3.5l0,.09a5.14,5.14,0,0,0,.65-3.27.37.37,0,0,0-.18-.27A.58.58,0,0,0,33,603Zm-10,12.88a.84.84,0,0,0,.15.77,1.28,1.28,0,0,0,.91-.09,19.06,19.06,0,0,0,3.38-2.6,3.62,3.62,0,0,0-2.16.15h0a4.6,4.6,0,0,0-2,1.36A1.33,1.33,0,0,0,22.89,615.93Z"/><path class="cls-173" d="M52.33,619.52a1.69,1.69,0,0,0-1.83.06,1.71,1.71,0,0,0-.57-1.76,1.66,1.66,0,0,0-1.7-.05,1.6,1.6,0,0,0-.61-1.53,2.05,2.05,0,0,0-2.73.84l-5.72,8a2.06,2.06,0,0,0,.1,2.86A1.64,1.64,0,0,0,41,628a1.64,1.64,0,0,0,.61,1.53,1.7,1.7,0,0,0,1.85,0,1.68,1.68,0,0,0,.55,1.74,1.9,1.9,0,0,0,2.36-.47c2,1,4.75.08,6.37-2.2s1.58-5.16,0-6.75A1.88,1.88,0,0,0,52.33,619.52Z"/><g class="cls-174"><path class="cls-175" d="M41,628.06s-.85-4.25,4-11.12l-6.06,8.52a2.13,2.13,0,0,0,.18,2.45A1.48,1.48,0,0,0,41,628.06Z"/></g><g class="cls-176"><path class="cls-177" d="M46.31,630.84s-1.09-3,3.22-9.85l-6.12,8.58a1.6,1.6,0,0,0,.8,1.88A1.85,1.85,0,0,0,46.31,630.84Z"/></g><g class="cls-178"><path class="cls-179" d="M43.29,629.73s-.84-4.25,4.05-11.12l-6.06,8.51a2.14,2.14,0,0,0,.19,2.46A1.47,1.47,0,0,0,43.29,629.73Z"/></g><ellipse class="cls-59" cx="272.22" cy="571.53" rx="21.81" ry="6.13"/><path class="cls-180" d="M283.4,557.79a37.36,37.36,0,0,1-6.31-11.49c-3.33-9.28-19.66-15.29-28-4.56-8.8,11.3-.71,27.24,15.11,26.44,0,0,8.43.32,10.63,1.47,0,0,1.7,1.69,3.25-.76s6.05-8.38,6.05-8.38S285.08,559.19,283.4,557.79Z"/><path class="cls-61" d="M255.21,542c3.34.87,5.06,5.35,3.85,10s-4.9,7.74-8.23,6.87-5.06-5.34-3.85-10S251.88,541.16,255.21,542Z"/><path class="cls-62" d="M279.55,566.6a67.2,67.2,0,0,0-9.69-6.53h0a12.39,12.39,0,0,0-2.32-1.13,18.51,18.51,0,0,1-3.41,2.68h0a1.72,1.72,0,0,1-1.32.11l-.08,0-.05-.06a1.31,1.31,0,0,1-.28-1.24,3.8,3.8,0,0,1,2.39-2,4,4,0,0,1,2.61-.07,24.35,24.35,0,0,0,3.54-4.67h0c.25-.35.5-.7.72-1.08-.07-.13-.14-.25-.2-.38-.69-1.3-.87-3,.29-3.86a.74.74,0,0,1,.64-.1.86.86,0,0,1,.69.72,5.46,5.46,0,0,1-.81,3.63c2.17,3.89,6.51,8.79,9.61,10.79l-.28.44c-3.09-2-7.39-6.8-9.65-10.71-.18.28-.37.57-.57.84a24.9,24.9,0,0,1-3.43,4.57,12.9,12.9,0,0,1,2.17,1.08,67.51,67.51,0,0,1,9.79,6.6Zm-7.49-17.85c-.92.68-.74,2.09-.15,3.2l0,.09a4.77,4.77,0,0,0,.59-3,.31.31,0,0,0-.16-.25.47.47,0,0,0-.31,0Zm-9.19,11.78a.79.79,0,0,0,.14.7,1.17,1.17,0,0,0,.83-.08,17.18,17.18,0,0,0,3.09-2.37,3.31,3.31,0,0,0-2,.13h0a4.22,4.22,0,0,0-1.87,1.24A1.4,1.4,0,0,0,262.87,560.53Z"/><path class="cls-181" d="M289.78,563.81a1.39,1.39,0,0,1-2.19-1.55,1.53,1.53,0,0,0-1.55,0,1.51,1.51,0,0,0-.56-1.4,1.89,1.89,0,0,0-2.5.77l-5.23,7.36a1.89,1.89,0,0,0,.09,2.61A1.4,1.4,0,0,1,280,573a1.55,1.55,0,0,0,1.69,0,1.53,1.53,0,0,0,.5,1.59,1.74,1.74,0,0,0,2.16-.43c1.84.9,4.34.07,5.82-2s1.44-4.72,0-6.17A1.71,1.71,0,0,0,289.78,563.81Z"/><g class="cls-182"><path class="cls-183" d="M279.38,571.62s-.78-3.89,3.7-10.17l-5.54,7.79a1.94,1.94,0,0,0,.17,2.24A1.35,1.35,0,0,0,279.38,571.62Z"/></g><g class="cls-184"><path class="cls-185" d="M284.28,574.15s-1-2.7,2.94-9L281.63,573a1.46,1.46,0,0,0,.73,1.72A1.69,1.69,0,0,0,284.28,574.15Z"/></g><g class="cls-186"><path class="cls-187" d="M281.52,573.14s-.77-3.89,3.7-10.16l-5.54,7.78a1.94,1.94,0,0,0,.17,2.24A1.35,1.35,0,0,0,281.52,573.14Z"/></g><path class="cls-62" d="M541.72,352.91c0-.05-.05-.1-.07-.16l-5.64-.41,5.69-1.28a.75.75,0,0,1,.07-.12l-2.26-2.62,3.1,1.79.41-6.78.88,6.76.14,0,3.07-2.12L545,350.77l.13.2,6.22.87-6.11,1-.11.2,1.83,3-2.72-2.22h0l-.58,7-.93-7-2.91,2.86Z"/><path class="cls-62" d="M385.19,382.57c-.05-.08-.09-.17-.13-.25l-9.08-.66,9.17-2.07c0-.07.07-.14.11-.2l-3.65-4.22,5,2.88.67-10.94,1.42,10.9.22.07,4.95-3.41-3.46,4.46a3.3,3.3,0,0,1,.22.3l10,1.42-9.86,1.53-.17.31,2.94,4.82-4.37-3.58h0l-.95,11.35L386.77,384l-4.69,4.62Z"/><path class="cls-62" d="M574.57,217.23l-.07-.15-5.16-.37,5.21-1.18.06-.11-2.07-2.4,2.85,1.64.37-6.22.81,6.2.13,0,2.81-1.94-2,2.53a1.09,1.09,0,0,1,.13.17l5.7.81-5.61.87a1.51,1.51,0,0,1-.09.18l1.67,2.73-2.48-2h0l-.54,6.45-.85-6.41-2.67,2.62Z"/><ellipse class="cls-59" cx="792.22" cy="698.97" rx="54.22" ry="23.19"/><path class="cls-188" d="M775.74,704.68s12-3.39,29.8-1.4c22.34,2.5,51-24.88,37.39-52.73-14.29-29.32-55-28.74-69.21,4.41,0,0-9.09,16.92-13.65,20.28,0,0-5.16,1.77-1.7,7.41s11.09,20.77,11.09,20.77S771.17,706.72,775.74,704.68Z"/><path class="cls-61" d="M836.2,662.82c-5.11,5.95-16,5-24.33-2.16s-10.93-17.77-5.81-23.72,16-5,24.32,2.16S841.31,656.86,836.2,662.82Z"/><path class="cls-62" d="M761.56,688a151.23,151.23,0,0,0,23.08-13.28l0,0a26.87,26.87,0,0,0,4.62-3.61,41.92,41.92,0,0,1-2-9.66v0a3.94,3.94,0,0,1,1.11-2.79l.13-.14.17,0a3.07,3.07,0,0,1,2.84.66c1.53,1.39,1.92,4.54,1.63,6.88a9.22,9.22,0,0,1-2.46,5.42,56.11,56.11,0,0,0,6,11.91l0,0c.45.84.94,1.71,1.48,2.54l1,0c3.36-.11,7,1.23,7.6,4.45a1.71,1.71,0,0,1-.43,1.43,2,2,0,0,1-2.18.69,12.43,12.43,0,0,1-6.59-5.31c-10.14.55-24.52,4.52-31.7,8.86l-.62-1c7.16-4.32,21.31-8.29,31.57-9-.4-.67-.79-1.34-1.16-2a57.32,57.32,0,0,1-5.9-11.58,30.46,30.46,0,0,1-4.39,3.36,152.77,152.77,0,0,1-23.3,13.4Zm44,2.56c-.45-2.56-3.53-3.61-6.4-3.52H799a10.77,10.77,0,0,0,5.52,4.21.78.78,0,0,0,.67-.09,1.1,1.1,0,0,0,.42-.58ZM790.68,660a1.77,1.77,0,0,0-1.58-.41,2.77,2.77,0,0,0-.66,1.78,40.06,40.06,0,0,0,1.77,8.69,7.63,7.63,0,0,0,1.71-4.17v0a9.58,9.58,0,0,0-.66-5.08A2.78,2.78,0,0,0,790.68,660Z"/><path class="cls-189" d="M757,711.7a3.49,3.49,0,0,0,1.57-3.46,3.59,3.59,0,0,0,3.82.54,3.17,3.17,0,0,1,5.07-2.86c1.75-1,2.16-3.59.92-5.88L758.57,682c-1.24-2.29-3.67-3.38-5.43-2.43a3.17,3.17,0,0,1-5.07,2.86,3.56,3.56,0,0,0-1.63,3.5,3.47,3.47,0,0,0-3.75-.57c-1.47.8-2,2.83-1.29,4.83-3.67,2.88-4.5,8.81-1.72,13.93s8.22,7.67,12.64,6.14C753.64,711.82,755.57,712.49,757,711.7Z"/><g class="cls-190"><path class="cls-191" d="M751.47,682.6s8.72,2.32,17.08,17.76l-10.37-19.12s-1.79-2.78-4.76-1.91C753.42,679.33,751.45,679.87,751.47,682.6Z"/></g><g class="cls-192"><path class="cls-193" d="M741.37,690.09s6.54.68,15.47,15l-10.43-19.3s-2.17-1.94-4.25-.22C742.16,685.61,740.32,687,741.37,690.09Z"/></g><g class="cls-194"><path class="cls-195" d="M746.21,685.46s8.72,2.32,17.08,17.76l-10.37-19.13s-1.79-2.77-4.76-1.9C748.16,682.19,746.19,682.73,746.21,685.46Z"/></g></g></g></svg>