<svg xmlns="http://www.w3.org/2000/svg" viewBox="0 0 665.53 632.47"><defs><style>.cls-1{isolation:isolate;}.cls-2{fill:#e92f32;}.cls-3{fill:#e21e1e;}.cls-4{fill:#ed7a7a;}.cls-5{fill:#fff;}.cls-6{fill:#c6cbcc;mix-blend-mode:multiply;}.cls-7{fill:#ffa78f;}.cls-8{fill:#ff8c80;}.cls-9{fill:#3c3854;}.cls-10{fill:#2d2b47;}.cls-11{fill:#2c2a3f;}.cls-12{fill:#ed4850;}.cls-13{fill:#d3dfe2;}.cls-14{fill:#ffbc15;}.cls-15{fill:#e6edef;}</style></defs><g class="cls-1"><g id="Layer_2" data-name="Layer 2"><g id="Layer_1-2" data-name="Layer 1"><path class="cls-2" d="M611.64,502.51l0,0c-15.1,9.48-35.84,16.77-63.8,20.52-12,1.61-51.2,3.46-76,24.49-15.13,12.84-34.13,34.86-88.52,43.73C277.82,608.46,138,547.74,114.4,459c-5.84-22-8.16-38.11-8.67-51-.54-13.6,1-23.52,2.46-32.71.69-4.23,1.39-8.29,1.9-12.49,1.58-13,1.37-27.24-6.36-51.19a188.16,188.16,0,0,1-5.18-19.3c-5.11-24.19-3.34-43.19,3-59.66,4.09-10.66,10.09-20.25,17.38-29.51.73-.93,1.47-1.85,2.2-2.75,45.43-55.79,91.4-53.59,147.68-24.25,34.59,18,61.05,23.94,97.73,9.82,37.38-14.38,79-19.1,111.37-7.9a86.68,86.68,0,0,1,20.48,10.19c16.88,11.5,29.14,29.56,33.7,55.59,18.4,105.12,80.54,85.34,108,157.84l.57,1.55a113.18,113.18,0,0,1,5.32,19.93C650.6,450.67,644.59,481.8,611.64,502.51Z"/><circle class="cls-3" cx="635.96" cy="313.52" r="29.57"/><circle class="cls-4" cx="245.38" cy="611.23" r="21.24" transform="translate(-360.33 352.53) rotate(-45)"/><circle class="cls-4" cx="73.84" cy="309.38" r="10.37"/><circle class="cls-4" cx="635.96" cy="233.74" r="11.74" transform="translate(287.34 814.72) rotate(-79.21)"/><circle class="cls-3" cx="566.4" cy="573.03" r="16.5"/><circle class="cls-4" cx="395.43" cy="124.5" r="18.69"/><path class="cls-5" d="M119.92,338.19a14.28,14.28,0,0,0-5.19.85A1.51,1.51,0,0,0,114,341a84.45,84.45,0,0,0,4.06,7.81c.45.84,1,.63,1.31-.29,0,0,1.34-5.6,1.61-8.31C121,339.4,120.69,338.25,119.92,338.19Z"/><path class="cls-5" d="M136.66,341a21.23,21.23,0,0,0-7-3.26,2.23,2.23,0,0,0-2.55,1.71,125.46,125.46,0,0,0-1.5,12.86c-.16,1.39.74,1.63,1.82.73,0,0,6.27-5.71,8.84-8.79C137,343.38,137.56,341.7,136.66,341Z"/><path class="cls-6" d="M189.45,265.34c-.73,9.69.53,14.46.84,16.23l0,.07c6,20.23,8.54,41.33-17.44,49.09-27.48,8.21-38.11-10.16-44.87-30.32l-.08,0c-2.58-3.58-15-24.52-34.79-36.62l-.08,0c1.89-11.81,5.66-22.24,9.42-31.82,4.08-10.42,10-19.82,17.15-28.9,29.07-36.93,58.31-49.88,90.27-46.94,3.7,21.57-1.23,45.19-9.35,63.55C191.28,240.41,190.17,255.65,189.45,265.34Z"/><path class="cls-7" d="M126.12,398.18c-.37,2.88-3.07,4.32-6,3.64-3.72-.9-9.82-8.06-12.64-10.53a40.54,40.54,0,0,1-3.73-3.79l-.54-.63c-1.31-1.52-2.57-3.09-3.82-4.63l-.63-.76c-.61-.74-1.22-1.46-1.83-2.15-2.51-2.85-6.62-6.91-7.39-9.27-1.59-4.87,2-6.08,3.31-5.89,3,.43,5.27,2.05,7.49,3.9l.56.48a82.52,82.52,0,0,1,6.42,5.85,59.84,59.84,0,0,1,4.71,5.57c2,2.69,5.06,8.61,7.64,10.75C121.46,392.16,126.42,395.8,126.12,398.18Z"/><path class="cls-8" d="M106.69,373.84c-.12,5.39-2.14,12.27-3.43,13-1.31-1.52-2.57-3.09-3.82-4.63l-.63-.76a39,39,0,0,0,1.45-13.5A84.83,84.83,0,0,1,106.69,373.84Z"/><path class="cls-9" d="M201.3,542.56c5.31,19.92,24,29.29,37.93,14.76a112.86,112.86,0,0,0,8.4-11.9c4.53-7.77,17.91-34,30.78-64.43,8.85-20.95,17.46-43.91,22.78-64.28,3.41-13,8.86-40.95-11-48.31-21-7.8-36.05,18-39.46,30.72C228.86,480.71,196.08,523,201.3,542.56Z"/><path class="cls-10" d="M243.58,544.4a2.16,2.16,0,0,0,4,1.09l0-.07c4.53-7.77,17.91-34,30.78-64.43C272.94,447,260,405.5,260,405.5c-29.83,23.87.1,88.56-4.9,96.56s-13.36-.45-13.5,15.67C241.53,528.08,243.42,537.23,243.58,544.4Z"/><path class="cls-9" d="M440.5,423.76c-1.83,12.84-10.58,25.69-12.65,42.56-2.29,18.73-4.87,38.87-8.07,58-3.39,20.37-8.22,45.32-13.39,60.57a31.8,31.8,0,0,1-3.27,2.18h0l-1.42.37a180.46,180.46,0,0,1-17.75,3.59A274.72,274.72,0,0,1,331.2,594q-8.86-.36-17.79-1.29-5.34-.55-10.69-1.33a317.91,317.91,0,0,1-34.32-7.12l-2.2-.6a135.57,135.57,0,0,1-20.59-7.4c21.93-60.65,11.78-122.56,9.64-163.77-.57-11,3.58-36,20.21-44.38,25.9-13,37-17.42,69.36-21.24,23.25-2.74,58.76,17.7,72.06,26.65,4.42,3,12.55,10.4,15.13,13.71C438.38,395.31,442.89,407,440.5,423.76Z"/><path class="cls-11" d="M267.74,244.69c.08,25.69,25.82,35.47,25.82,35.47V236.07Z"/><path class="cls-8" d="M324.73,333.48s1.79,6.69,2.13,8.4a32.15,32.15,0,0,1,.45,5.2c.22,6.15-1.5,11.29-4.15,16.47-4.83,9.43,14.52,15.66,32.13,11.52s17.93-15.51,17-21.27c-.45-2.68-4.76-25.7,3.41-43.55,1-2.19-9.68.55-11.55,0-7.27-2.15-28.58,13.23-37.57,17.81C323.85,329.43,324.17,332,324.73,333.48Z"/><path class="cls-12" d="M316.9,331.88c.53,1,1,1.92,1.42,2.86h0l.56.22c.57.22,1.13.43,1.71.63s1.44.47,2.16.67c.41.13.82.25,1.23.35l.38.1.93.23a31.44,31.44,0,0,1,1.56,5.26,27.92,27.92,0,0,1,.55,4.72,21.25,21.25,0,0,0,3.5,1.05,23,23,0,0,0,25.84-13.19c.06-.12.11-.26.17-.39a22.1,22.1,0,0,0,1.6-6.25c.2-2,.45-4.24.74-6.82-5.64,2.89-17.73,8.52-29.26,10-2.7.33-5.06.53-7.11.62A53,53,0,0,1,316.9,331.88Z"/><path class="cls-7" d="M387.15,266.21c0,.15,0,.28,0,.43a141,141,0,0,1-5.58,26.43c-.22.68-.46,1.35-.69,2-5.32,14.63-11.44,27.78-25.62,35.6a50.11,50.11,0,0,1-8.81,3.79,51.52,51.52,0,0,1-7,1.73c-.59.1-1.17.18-1.76.26l-1,.13c-.34,0-.69.08-1,.1a5.9,5.9,0,0,1-.59.06l-.57,0-1,.06a48.21,48.21,0,0,1-9-.41l-.18,0-1-.14a2.46,2.46,0,0,1-.45-.07,44.71,44.71,0,0,1-7.74-2.08c-.43-.16-.85-.32-1.27-.5a33.83,33.83,0,0,1-8.24-4.75l-.14-.11a35.14,35.14,0,0,1-10.8-15.6c-4.52-12.09-4.74-26.79-6.62-39.33-.88-5.88-2.26-11.56-3.32-17.17v-.1c-1.5-8-2.3-15.88,0-23.86,0,0,0,0,0-.05a35.27,35.27,0,0,1,3-7.29c6.69-12.28,19.41-21.52,33.11-23.73,15.85-2.55,34.09-2.78,47.89,6.65C386.35,220.31,389.52,244.25,387.15,266.21Z"/><path class="cls-8" d="M321.1,268.3a.68.68,0,0,0-1.33,0,45.44,45.44,0,0,1-4.8,11.23c-3.46,6.2-.41,10.11,6.35,10.54,4.81.31,3.94-3,1-2.69-4.14.43-7.72-2.63-4.47-7.84C320.56,275.09,321.51,271.24,321.1,268.3Z"/><path class="cls-11" d="M313.48,304.77a4.52,4.52,0,0,0,1,2.37l.25.24a10.06,10.06,0,0,0,4.77,2.81,28.54,28.54,0,0,0,13.88-1c.33-.1.64-.22.95-.34a10.74,10.74,0,0,0,5.27-4.14,11.7,11.7,0,0,0,1.66-4.32,16.5,16.5,0,0,0,.22-2.08v-.07a22.92,22.92,0,0,0-.83-6.67,1.25,1.25,0,0,0-1.83-.78c-.18.11-.36.21-.56.31-6.38,3.32-19.56,4.77-27.25,4-.78-.07-1.47-.3-1.78.06C308.47,296.1,312,296.38,313.48,304.77Z"/><path class="cls-13" d="M312.25,468.89c12.18-1.16,18.46-7.68,23.62-13.5,54-60.78,35.9-106.74,35.88-106.47-33.61,21.66-45.3,15.7-49.34-3.59C311.75,356,305.15,353,300.46,403,298.91,419.48,306.5,469.44,312.25,468.89Z"/><path class="cls-10" d="M216.12,492.78c22.73,5.41,27.78,14.73,21.22,19.39S216.12,492.78,216.12,492.78Z"/><path class="cls-10" d="M422.87,391.48c-16.42,4.35-53.4,23.75-17.46,101.3Z"/><path class="cls-9" d="M476.09,544.47q-1.86,1.37-3.62,2.86c-10.2,8.66-24,22-47.31,32.17-1.07-15.34-3-40.46-5.38-54.16-5.4-30.38-12.93-59.48-17.44-79.71-2.35-10.48-3.88-18.58-3.88-23.24,0-12.88,1.29-29.33,13.29-35.86,3.22-1.75,11.16-2.09,14.25-1.41s6.06,1.34,8.43,4.22C456.21,415.85,470.38,487.76,476.09,544.47Z"/><path class="cls-10" d="M393,589.47l.62-.13c1.16-.24,2.31-.49,3.44-.75l.75-.17c3.06-.71,6-1.47,8.86-2.29,7.6-15.86,9.76-40.56,13.13-60.79-5.4-30.38-12.93-59.48-17.44-79.71-5.25,14.39-4.62,25.34.54,38.34,3.35,8.46,5.82,25.74,5.7,43-21.36,23.54-52.4,4-51.79,27.79.5,19.3,11.59,26.82,17.28,29.42l-1.27.44c-7.66-1.17-24.7-3.28-49.34-3.52-29-.28-18.44,6.6.8,11.35-4.33.11-8.59.08-12.72-.11l1.87.36q8.89.93,17.78,1.29h.09c1.92.07,3.84.13,5.76.16l1.75,0c1.73,0,3.45,0,5.18,0h1c1.78,0,3.56,0,5.34-.1l1.81-.05c1.73-.06,3.45-.14,5.17-.23l.93,0c1.78-.1,3.57-.22,5.35-.36l1.69-.13c1.81-.15,3.62-.31,5.43-.5l.46,0c1.86-.2,3.71-.42,5.57-.65l1.5-.19c1.91-.25,3.82-.51,5.72-.81,1.36-.2,2.69-.43,4-.66l1.27-.22C390.5,590,391.75,589.71,393,589.47Z"/><path class="cls-12" d="M345.37,373.48C338.72,384.65,335,386,335,386s-7.64-.28-8.67-1.58c-2.19-7.06-3.25-13.63.08-18.46s11.05-2.62,11.05-2.62S348,369.11,345.37,373.48Z"/><path class="cls-12" d="M336.5,384c-2.44,20.92-2.71,58.42,1.62,71.25,0,0-16.27,17.52-25.61,15S301,447.73,301,447.73s16.43-54.11,26.35-66.75C330.59,376.8,336.21,381.69,336.5,384Z"/><path class="cls-5" d="M313.55,379.17c2.07,2.06,11.32-11.54,15.16-13.94s8.57-3.48,11.91,1.37c5.29,7.15,6.82,18,12.13,18.49,3.6.37,10.09-2.41,13.9-6.41,6.13-6.45,8.22-24,8.22-29.44-.16-2.6-3.29-6.85-4-7.38-5.58,10.49-21.26,18.95-34.13,18.62-5.23-.75-10.09-4.58-9.33-12.5a22,22,0,0,0-.6-6.11c-1.54-.36-6.11,5.39-7,6.71C315.21,355.56,305.35,371,313.55,379.17Z"/><path class="cls-10" d="M283.53,385.15c-4.07,45.1,15.42,74.07,26.88,86.07,1.45,1.52,4.47.44,3.63-3.43-.78-3.59-17.44-38.73-7.29-86.47,1.39-6.53,6-31.07,20.56-36.9a9.44,9.44,0,0,0-.58-2.84c-.34-.65-29.77,7.61-39.11,32.48-1.21,3.23,3.08,2.87,4.5,2.92C292.85,377,283.87,381.4,283.53,385.15Z"/><path class="cls-10" d="M303.46,491.73a6,6,0,1,0,6-6A6,6,0,0,0,303.46,491.73Z"/><path class="cls-10" d="M297.46,532.73a6,6,0,1,0,6-6A6,6,0,0,0,297.46,532.73Z"/><path class="cls-5" d="M302.46,489.73a6,6,0,1,0,6-6A6,6,0,0,0,302.46,489.73Z"/><path class="cls-5" d="M296.46,530.73a6,6,0,1,0,6-6A6,6,0,0,0,296.46,530.73Z"/><path class="cls-8" d="M386.63,254c.22,4.15.42,8.27.47,12.36v.33c.1,9.83-.68,19.51-4.14,29.06-4.77,13.15-11.26,25.85-23.71,33.19a59.48,59.48,0,0,1-12.9,5.66,55.65,55.65,0,0,1-7,1.63c-.59.1-1.17.18-1.76.26l-1,.13c-.34,0-.69.08-1,.1a5.9,5.9,0,0,1-.59.06l-.57,0-1,.06a48.21,48.21,0,0,1-9-.41l-.18,0-1-.14a2.46,2.46,0,0,1-.45-.07,44.71,44.71,0,0,1-7.74-2.08c-.43-.16-.85-.32-1.27-.5a34,34,0,0,1-7.85-4.44,1.67,1.67,0,0,1-.67-1.37,2.48,2.48,0,0,1,3.29-2.32,51.22,51.22,0,0,0,19.79,2.79c12.78-.85,27.13-6.1,34.6-16.43,4.76-6.58,8.36-13,11.44-30.45.89-5.06,1.1-10.48-.61-25.21,0-.17-11.95-5.59-13.57-24.5a1,1,0,0,0-1.4-.83c-10.74,5-31.78,5.11-43.09,3a1,1,0,0,0-1.15.74c-1,4.29-5.07,21.76-28.36,22.05l-1.61,0c-1.49-8-2.3-15.91,0-23.9l0-.06c.14-.23.31-.47.47-.69,5.37-7.29,15.64-12.38,23.49-16.41,7.12-3.65,14.51-6.69,21.65-10.3s18.22-2,25.82-.45,14.52,5.15,19.47,11C384.47,226.39,385.92,240.73,386.63,254Z"/><path class="cls-8" d="M353.45,244.06A60.08,60.08,0,0,0,334,245.67a1.93,1.93,0,0,1-2.48-1.87c.05-2,1.19-4.57,6.29-5.68,5.67-1.24,11.33-1.12,14.57.4a5.24,5.24,0,0,1,3.08,3.14A1.9,1.9,0,0,1,353.45,244.06Z"/><path class="cls-11" d="M353.08,242.1a59.84,59.84,0,0,0-19.42,1.61,1.93,1.93,0,0,1-2.48-1.87c.06-2,1.19-4.57,6.3-5.69,5.67-1.23,11.32-1.12,14.57.4a5.28,5.28,0,0,1,3.07,3.14A1.9,1.9,0,0,1,353.08,242.1Z"/><path class="cls-9" d="M254.1,235.11A30.91,30.91,0,0,0,261.58,247c2.71,2.64,6.21,4.82,10,4.81h1l1-.05c13.48-.7,27.8-7.63,33.3-20.2.22-.49.77-1.55,1.41-2.78,1.19-2.3,2.72-5.2,3.05-6.16l0-.06c.08.09.15.18.23.26a16.05,16.05,0,0,0,1.86,1.82,20.23,20.23,0,0,0,3.89,2.54,35.83,35.83,0,0,0,6.22,2.47l.14,0c9.15,2.67,37.63-7.23,39.89-9.92,1.7,6.93,2.35,12.95,5.5,18.17,2.64,4.37,5.8,10.38,10.75,12.47a1.26,1.26,0,0,1,.16.07c1.71,2.16-4,16.84-1.31,21.11,6.78,10.93,21.93,10.43,32.5,6.15C418.93,274.59,428.4,268,428,259c-.2-4.22-.79-7.25-2.54-10.49a19,19,0,0,0-6.22-6.67,7.55,7.55,0,0,1-2.7-9c10.15-25.69-4.84-60.52-52-53.21a7.83,7.83,0,0,1-7.22-2.76c-19.06-23.25-65.35-9.77-62.19,16.7a8.66,8.66,0,0,1-9.4,9.8c-5.53-.59-11.66-.56-16.52,1.23-7,2.61-11.47,6.45-14,10.86a20.5,20.5,0,0,0-2.68,9A26.75,26.75,0,0,0,254.1,235.11Z"/><path class="cls-8" d="M306.33,251a60,60,0,0,0-19.16,3.48,1.93,1.93,0,0,1-2.65-1.62c-.14-2,.74-4.67,5.71-6.27,5.53-1.78,11.17-2.21,14.54-1a5.27,5.27,0,0,1,3.37,2.83A1.9,1.9,0,0,1,306.33,251Z"/><path class="cls-11" d="M305.91,248.81a59.75,59.75,0,0,0-19.17,3.48,1.93,1.93,0,0,1-2.65-1.63c-.13-2,.75-4.66,5.72-6.26,5.52-1.78,11.16-2.21,14.54-1a5.25,5.25,0,0,1,3.36,2.83A1.89,1.89,0,0,1,305.91,248.81Z"/><path class="cls-5" d="M353.6,260.6c-2.06-10.76-13.15-7.21-13.62-1.56-.37,4.42,2.32,9.72,7.25,9.69C353.47,268.68,354.39,264.77,353.6,260.6Z"/><path class="cls-11" d="M344.25,262.38c.41,3.54,1.34,6.33,5.45,5.86,3.24-.38,4.42-3.37,4-6.91s-2.67-6.22-5.49-5.9S343.84,258.84,344.25,262.38Z"/><path class="cls-11" d="M354.2,258.23a1.76,1.76,0,0,0,1.1-.1c.68-.47.59-1.26.13-1.95a11,11,0,0,0-9.83-4.33c-3.43.44-6.4,1.8-7.35,5.06a1.8,1.8,0,0,0,1.18,2.35c1.81.91,2-4.22,6.7-4.66C348.86,254.34,350.53,255.33,354.2,258.23Z"/><path class="cls-5" d="M343.4,259.43a1.2,1.2,0,1,0,1-1.23A1.12,1.12,0,0,0,343.4,259.43Z"/><path class="cls-5" d="M308.46,263.41c-2.76-9.9-13-5.71-13.37-.08-.28,4.41,2.87,9.89,7.43,9.93C308.29,273.3,309.6,267.5,308.46,263.41Z"/><path class="cls-11" d="M299.55,266.91c.41,3.53,1.34,6.33,5.45,5.86,3.24-.38,4.42-3.37,4-6.91s-2.67-6.22-5.49-5.9S299.14,263.37,299.55,266.91Z"/><path class="cls-11" d="M309.34,262.51a1.75,1.75,0,0,0,1.1-.09c.68-.47.59-1.27.13-2a11,11,0,0,0-9.83-4.32c-3.43.43-6.39,1.79-7.35,5.06a1.79,1.79,0,0,0,1.18,2.34c1.81.91,2-4.21,6.7-4.66C304,258.63,305.67,259.62,309.34,262.51Z"/><path class="cls-5" d="M298.7,264a1.2,1.2,0,1,0,1-1.23A1.11,1.11,0,0,0,298.7,264Z"/><path class="cls-12" d="M314.94,306.73c-.26.36-.26.57-.18.65a10.24,10.24,0,0,0,4.8,2.88c4.06.93,9.65.34,13.85-1,.33-.1.64-.22.95-.34a11.6,11.6,0,0,0,5.38-3.8,9.73,9.73,0,0,0,1.93-6.22,17.14,17.14,0,0,0-.16-1.88C333.27,295.26,319.06,301,314.94,306.73Z"/><path class="cls-5" d="M311,295.11a10.36,10.36,0,0,0,10.73,4.71c7.33-1.13,14-3.39,16.53-8.68C331.91,294.46,318.73,295.91,311,295.11Z"/><path class="cls-11" d="M254.09,235.05a30.85,30.85,0,0,0,7.51,11.87c2.72,2.64,6.24,4.81,10.06,4.8l1,0,1,0c13.62-.58,28.69-6.18,34.68-18.54a36.49,36.49,0,0,0,2.58-7.31c12,10.86,30,6.91,42.17,2.79l.65-.22a22.43,22.43,0,0,0,7.39-4.23c2.25,12.11.63,14.36,8.16,24.49,2.53,3.42,6.06,6,8.8,6.79A20.58,20.58,0,0,0,378.9,273c3,5.56,10.74,6.48,16.81,6.92A37,37,0,0,0,416,275.73a28.12,28.12,0,0,0,8.26-7.06,2.94,2.94,0,0,0-3.56-4.44,15.24,15.24,0,0,1-2.41.91,24.33,24.33,0,0,1-11.16.41c-6.83-1.25-14-5-17.74-11a37,37,0,0,1-4.58-13.32,4.44,4.44,0,0,0-4-3.74c-8-.66-17.35-10.7-16.32-23.67a1,1,0,0,0-1.6-.8c-9.1,8-42.11,20.43-58.7-1.43a3,3,0,0,0-5.29,1.08c-2.53,10-8.14,16.33-11.21,18.08-12.46,7.12-33.59,4.31-32.44-15.26a20.14,20.14,0,0,0-2.7,9A26.56,26.56,0,0,0,254.09,235.05Z"/><path class="cls-8" d="M378.05,287.59c-1.84,10-.63,14.81,6.66,14.89,12.28.14,22.9-10.17,22.74-20.31-.2-12.94-10.15-18.43-18.92-14.28C380.44,271.73,379.31,280.71,378.05,287.59Z"/><path class="cls-12" d="M397.55,282a8.26,8.26,0,0,0-3.12-.4,6.16,6.16,0,0,0-2.8.89,9,9,0,0,0-2.23,1.95,11.9,11.9,0,0,0-.89,1.22,8,8,0,0,0-.66,1.24,2,2,0,1,1-3.77-1.45,3.17,3.17,0,0,1,.21-.41l.06-.08a12.24,12.24,0,0,1,1.32-1.59,15.14,15.14,0,0,1,1.45-1.32,11.82,11.82,0,0,1,3.45-1.93,8.36,8.36,0,0,1,3.92-.42,9.88,9.88,0,0,1,3.56,1.21.6.6,0,0,1-.43,1.11Z"/><path class="cls-7" d="M98.59,404.49c.77-3.89,1.46-3.48,1.74-7.56.53-7.69.36-18.86,1.26-25.61.88-6.59-.17-10.6.2-13.92a3.35,3.35,0,0,1,5.36-2.39c3.41,2.46,5,8.45,4.31,15.53-1,10.37-2.29,22.34,4.23,25.27l8.23,36.26c-3.57-1.72-8.16-5.67-11.55-7.93C101.17,416.68,98.07,407.11,98.59,404.49Z"/><path class="cls-7" d="M123.25,431.68c4.83,2.84,8.46,4.56,10.63,7.1.23.27.46.54.68.82a60.74,60.74,0,0,1,4.87,6.77,34.28,34.28,0,0,1,5,11.94s11.4-6.69,17.32-13.58h0c2.58-3,4.12-6.06,3.21-8.61-.35-1-2.57-3.91-4.77-7A25.68,25.68,0,0,1,156.1,420c-1.33-5.8-1.82-15.15-8.7-29.15-10.75-21.88-4.1-29.09-10.19-30s-9.49,6.31-6.46,15.42c1.16,3.5,5.16,15.07,1.47,15.29-8.53.52-12.82-1.47-14.56-1.11l-1.42,10.75-.41,2.55-4.21,9.83C110.51,420.47,112.48,425.36,123.25,431.68Z"/><path class="cls-8" d="M139.43,446.37l3.93,7.95,18.37-9.59h0c2.58-3,4.12-6.06,3.21-8.61-.54-1.51-4.68-5.66-8.27-14-2.26,11.75-13.23,16.64-22.11,17.51Z"/><path class="cls-8" d="M136.72,410.42c4.6,7.41,2.18,14,1.42,14.54C138.14,425,146.91,420.32,136.72,410.42Z"/><path class="cls-8" d="M110.82,378c2.81,3.73,4,6.64,6.93,10.56,1.36,1.79,5.64,4.06,15.18,2.82-3.58,6.88-1.07,12.32,3.29,18.42.38,1-.52-1.33-4.25-2.71-2.32-.86-12.17,1.08-16.14-3.3C109.45,396.78,110.82,378,110.82,378Z"/><path class="cls-8" d="M125.49,392.63c-7.38-1.25-18.49-1-23.92,6.16a1.86,1.86,0,0,0,1.83,3L123,397.88Z"/><path class="cls-7" d="M100.39,401.65c11.61-6.69,21.53-5.94,25.86-5,3.45.73,4.33,5.55,1,6.77s-11.81,1.36-15.79,3.86c-5.41,3.39-7.68,4.11-10.27,3.93-1.48-.1-2.64-.42-3.57-3.12C96.48,404.58,98.44,402.77,100.39,401.65Z"/><path class="cls-8" d="M118.29,402.69c-6.28,1.32-11.58,4.53-14.18,7.38-.66.72,1,11.19,7.89,8.61,5.29-2,11.06-4.66,16.56-7.08C131.15,410.45,134.56,399.26,118.29,402.69Z"/><path class="cls-7" d="M125.31,404.94c4,.42,3.69,4.56,2.27,5.44-2.34,1.44-7.29,1.11-11.81,3.51-1.74.92-7.25,6.49-10.61,5-4.38-1.93-3.52-5.75-2-7A32,32,0,0,1,125.31,404.94Z"/><path class="cls-5" d="M148.79,254.32c6.72,21.4,17,42.36,46,33.69,27.76-8.29,22.9-31.81,16.18-53.21s-22.49-25-39.83-19.5S142.06,232.91,148.79,254.32Z"/><path class="cls-14" d="M54.63,152.3c3.45,18,13.19,30.12,20.06,38.59A89.14,89.14,0,0,0,99.13,211.8c3,1.76,12.68,7.83,15.89,9.23,19.8,12.1,32.2,33,34.78,36.62.17.23,6.13,1,16.37-.68,2-.31,4.05-.71,6.29-1.23,2.69-.62,5.6-1.39,8.7-2.37,3.41-1.07,6.5-2.14,9.3-3.18,2.15-.8,4.12-1.6,5.93-2.36,11.32-4.82,15.89-8.66,15.83-9-.31-1.77-1.57-6.54-.84-16.23a126.68,126.68,0,0,1,11-45.74c9.52-21.52,14.65-50.28,6.66-74.48-15-45.53-64.72-66.66-110.65-52.93C70.75,63.73,45.32,103.56,54.63,152.3Z"/><path class="cls-5" d="M116.29,177.11c9,10.49,18.73,13.79,27.31,13.8,6.44,14.93,14,35.82,22.57,66.06,2-.31,4.05-.71,6.29-1.23-8.32-29.51-15.79-50.34-22.2-65.45a41.46,41.46,0,0,0,6.33-1.72,56.41,56.41,0,0,0,15.34-8.66c2.77,19.22,9.1,43.25,18.53,70.28,2.15-.8,4.12-1.6,5.93-2.36C185.18,215.72,179.71,192,177.68,175c10.78-10.26,18.41-23.35,18.67-32.31.19-6.53-3.44-9-5.62-10-5.1-2.15-9.88-1.47-13.46,1.93-6,5.73-8.19,18.83-6.25,38a53.16,53.16,0,0,1-16.58,10,33.42,33.42,0,0,1-6.81,1.7,227.72,227.72,0,0,0-11.38-22.19c-5.1-8.7-11.56-13.45-17.73-13a9.83,9.83,0,0,0-8.54,6.24C107.42,161.41,109.78,169.57,116.29,177.11Zm60.64-10.33c-1-16.07,1.55-24.55,4.72-27.55a5,5,0,0,1,2-1.2,6.59,6.59,0,0,1,4.64.52c.49.2,1.82.76,1.73,3.91C189.81,148.58,184.73,158.25,176.93,166.78Zm-61.07-9a3.58,3.58,0,0,1,2.23-2.19,3.65,3.65,0,0,1,.86-.16c2.79-.19,7.36,2.32,11.8,9.9,2.81,4.79,6.14,10.87,9.93,19.07-7.17-.83-13.73-4.65-19.58-11.43S114.67,160.58,115.86,157.75Z"/><path class="cls-15" d="M90.4.22C84.49,1.72,83.47,5.59,86.1,12c5.33,13,10.59,17.3,12.45,16.69C102.24,27.47,102.7-2.89,90.4.22Z"/><path class="cls-15" d="M222.57,3.38c-4.49-4.13-8.28-2.87-12.22,2.83-8,11.57-8.7,18.32-7.18,19.54C206.21,28.18,231.89,12,222.57,3.38Z"/><path class="cls-15" d="M268.82,95.66c1.11-6-2-8.54-8.9-8.83-14.05-.59-20.14,2.41-20.36,4.35C239.12,95,266.52,108.14,268.82,95.66Z"/><path class="cls-15" d="M.32,93.05C-1,99,2,101.67,8.86,102.23c14,1.15,20.56-1.57,20.52-3.53C29.25,93,3.11,80.69.32,93.05Z"/><path class="cls-15" d="M11.12,183.49c2.72,5.46,6.72,5.63,12.42,1.7,11.58-8,14.93-14.23,13.66-15.71C33.46,165.1,5.46,172.14,11.12,183.49Z"/><path class="cls-5" d="M68,122.64c4.42,2.07,10.53-3,17.52-16.86,3.18-6.31,8.13-16.39,6-19.62-4-5.86-11.52-5.88-15.89-.34C65.39,98.73,59.12,118.51,68,122.64Z"/><path class="cls-5" d="M60.12,140.26c.5,5.25,4.12,7,7.06,6s5.38-8.85,4.46-11.78a5.57,5.57,0,0,0-7-3.65C61.71,131.79,59.83,137.2,60.12,140.26Z"/><path class="cls-5" d="M164.49,431.18a95.78,95.78,0,0,1-26.9,19.64c-1.23.63.33,4.4,1.1,5.55l4.42,7.36,30.66-21.89S166.6,429,164.49,431.18Z"/><path class="cls-9" d="M170.13,436c5.86,6.78,13.89,17.06,19.11,23.48,40.3,49.6,64,88.56,42.74,103.15-11.48,7.87-19.93,4.51-29-2.63-29.43-23.2-64.31-103.64-64.31-103.64C151.64,450.81,162.61,445.41,170.13,436Z"/><path class="cls-10" d="M384.42,358.08c-2.75-7-7-11.42-10.13-14.84a19.28,19.28,0,0,0-3.49-3,5.65,5.65,0,0,0,.05,1.71,16.24,16.24,0,0,1,1.74,3.61c1,3.62,1.25,13.63-4,29.73C356.78,411.8,311,467.65,311,467.79c-.8,1.39.33,7.36,8.58,2.69,16.07-9.09,64.69-38.75,67.67-75.17.24-3-8.36-8.72-7.45-8.78,0,0,7.66,3.47,8,1.17A60,60,0,0,0,384.42,358.08Z"/></g></g></g></svg>