<svg xmlns="http://www.w3.org/2000/svg" viewBox="0 0 3200 2000"><defs><style>.cls-1{fill:#fff;}.cls-2{fill:#f9eded;}.cls-3{fill:#f7d5d5;}.cls-4{fill:#e92f32;}.cls-5{fill:#f2a0a0;}.cls-6{fill:#101010;}.cls-7{fill:#e09b9b;}.cls-8{fill:#f2bbbb;}.cls-9{fill:#f2c9c9;}.cls-10{fill:#fce0e0;}.cls-11{fill:#f9c0c0;}.cls-12{fill:#233862;}.cls-13{fill:#ffb27d;}.cls-14{fill:#470f0f;}.cls-15{fill:#a51624;}.cls-16{fill:#602424;}.cls-17{fill:#ed975d;}.cls-18{fill:#ebf3ff;}.cls-19{fill:#ed7d2b;}.cls-20{fill:#f99746;}.cls-21{fill:#4c1818;}.cls-22{fill:#4f1b1b;}</style></defs><g id="Layer_2" data-name="Layer 2"><g id="Слой_1" data-name="Слой 1"><rect class="cls-1" width="3200" height="2000"/><path class="cls-2" d="M417.73,1799.27s-336.33-405.14-172-822.22c107.14-271.87,509-420.84,735.85-271.87,96.6,63.45,406.53,2.14,572-260.54C1875.2-65.81,2997.49,244.19,2793.17,1027.91c-98.87,379.27,300.92,393,97.21,772.16Z"/><path class="cls-3" d="M666.68,1132.49s-33.92-39.57-2.09-64.71c0,0,23.25-14.07,42.2-12.93,0,0-26.86,45-18.17,49.52S714.94,1052,714.94,1052s52.9-5.13,69.92,3c0,0-45.23,37-35.7,39.21s58.38-34.12,58.38-34.12,49.24,8.38,46.61,38.42-19.59,39.31-27,38.51-51.08-17.45-52-11.34,25.31,26.08,43.7,27c0,0-34.72,38.29-57.79,27.24s-25-28.56-39.42-35.13-26.66-6.56-20.73.14,32,13.21,40.2,27.76,15.6,24.36-8.27,20.77-62.67-21.06-64.38-41.06Z"/><path class="cls-3" d="M830,1099.4s-133.74-5.16-163.28,33.09c0,0-6.53,19.56-26.63,37.38l-3.13,8.54s23.17-24.44,31.46-25.92C668.38,1152.49,655.42,1105.11,830,1099.4Z"/><path class="cls-3" d="M640.05,1169.87s-28.71,21.23-30.7,59.16l5.21.47s9.17-39.23,25.74-54.56S640.05,1169.87,640.05,1169.87Z"/><path class="cls-3" d="M548.09,1082.72s53.95-30.21,28.77-71.22c0,0-20.14-25.18-41.72-31.65,0,0,11.51,61.15,0,62.59s-7.92-69.07-7.92-69.07S470.39,946,448.09,948.19c0,0,35.25,59.71,23.74,58.27s-51.08-61.87-51.08-61.87-58.28-10.79-67.63,23.75,5.76,51.79,14.39,53.95,64,1.44,62.59,8.64-38.85,18.7-59.71,12.23c0,0,23,56.83,53.23,53.95s39.57-21.58,58.28-23,32.37,3.6,23,8.63-41,1.66-56.12,14.5-27.33,20.76.72,26.51,78.42,2.16,88.49-19.42Z"/><path class="cls-3" d="M379.74,979.13s151.08,48.92,168.35,103.59c0,0-.72,24.47,14.38,52.52V1146s-15.82-36.7-24.46-41.73C538,1104.31,571.83,1056.83,379.74,979.13Z"/><path class="cls-3" d="M562.47,1135.24s23.3,35.38,10,78.45l-6-1.61s5.82-47.43-6.37-71.29S562.47,1135.24,562.47,1135.24Z"/><path class="cls-3" d="M633.93,1041.05S562.8,1001.22,596,947.17c0,0,26.56-33.2,55-41.73,0,0-15.18,80.61,0,82.51s10.43-91.05,10.43-91.05,74.92-36,104.32-33.19c0,0-46.47,78.71-31.3,76.82S801.79,859,801.79,859s76.81-14.22,89.14,31.3-7.59,68.28-19,71.12-84.4,1.9-82.5,11.38,51.21,24.66,78.71,16.12c0,0-30.35,74.92-70.18,71.13s-52.16-28.45-76.81-30.35-42.68,4.74-30.35,11.38,54,2.18,74,19.11,36,27.36-.95,34.95S660.48,1098,647.21,1069.5Z"/><path class="cls-3" d="M855.84,904.49S656.69,969,633.93,1041.05c0,0,1,32.25-19,69.23v14.23s20.86-48.37,32.25-55C647.21,1069.5,602.63,1006.91,855.84,904.49Z"/><path class="cls-3" d="M615,1110.28s-30.71,46.64-13.2,103.41l7.9-2.12s-7.67-62.53,8.4-94S615,1110.28,615,1110.28Z"/><path class="cls-3" d="M631.53,1336.81a139.33,139.33,0,0,0,139.33-139.33H492.21A139.33,139.33,0,0,0,631.53,1336.81Z"/><path class="cls-4" d="M507.47,1326.71H755.59a17.19,17.19,0,0,1,17.19,17.19v0a0,0,0,0,1,0,0H490.28a0,0,0,0,1,0,0v0A17.19,17.19,0,0,1,507.47,1326.71Z"/><rect class="cls-5" x="487.63" y="1197.48" width="286.4" height="4.27"/><path class="cls-6" d="M1350.45,1796.37h.69c5.63-.1,10-4.7,9.45-10L1323,1411.29l-32.77,2.93,53.93,377.08A6.09,6.09,0,0,0,1350.45,1796.37Z"/><path class="cls-6" d="M988.83,1796.37h-.69c-5.63-.1-10-4.7-9.45-10l37.56-375.07,32.77,2.93L995.09,1791.3A6.1,6.1,0,0,1,988.83,1796.37Z"/><path class="cls-6" d="M1615.4,1796.37h.69c5.63-.1,10-4.7,9.45-10L1588,1411.29l-32.77,2.93,53.93,377.08A6.09,6.09,0,0,0,1615.4,1796.37Z"/><path class="cls-6" d="M1000,1356.74l-66.66-329.21c-8.56-44.57,28.37-85.33,76.33-84.23l128.57,2.93a101.57,101.57,0,0,1,95.24,73.32L1331,1356.74Z"/><path class="cls-6" d="M1040.34,1356.74l-66.66-329.21C965.12,983,1002.05,942.2,1050,943.3l128.57,2.93a101.57,101.57,0,0,1,95.24,73.32l97.53,337.19Z"/><path class="cls-6" d="M1018.59,1356.74h508.66a18.58,18.58,0,0,1,18.58,18.58v41.46a0,0,0,0,1,0,0H1018.59A18.58,18.58,0,0,1,1000,1398.2v-22.88A18.58,18.58,0,0,1,1018.59,1356.74Z" transform="translate(2545.84 2773.51) rotate(180)"/><rect class="cls-6" x="1242.32" y="1356.74" width="354.19" height="60.04" rx="14.97" transform="translate(2838.84 2773.51) rotate(180)"/><path class="cls-7" d="M848.24,1352.45v11.23c0,3.93-1.28,7.14-2.83,7.14H435.56c-1.56,0-2.83-3.21-2.83-7.14v-11.23c0-3.93,1.27-7.14,2.83-7.14H845.41C847,1345.31,848.24,1348.52,848.24,1352.45Z"/><path class="cls-8" d="M848.24,1352.45v11.23c0,3.93-1.17,7.14-2.6,7.14H520.26c-1.42,0-2.59-3.21-2.59-7.14v-11.23c0-3.93,1.17-7.14,2.59-7.14H845.64C847.07,1345.31,848.24,1348.52,848.24,1352.45Z"/><rect class="cls-9" x="453.53" y="1370.83" width="290.97" height="424.11"/><rect class="cls-10" x="535.07" y="1370.83" width="290.97" height="424.11"/><path class="cls-1" d="M810.41,1771.52H550.71V1382.81h259.7Zm-256.89-2.81H807.61v-383.1H553.52Z"/><rect class="cls-1" x="552.11" y="1511.4" width="256.9" height="2.8"/><rect class="cls-1" x="552.11" y="1642.49" width="256.9" height="2.8"/><path class="cls-1" d="M706.89,1407.88H659.22a4.22,4.22,0,0,1-4.21-4.21h0a4.22,4.22,0,0,1,4.21-4.21h47.67a4.22,4.22,0,0,1,4.2,4.21h0A4.22,4.22,0,0,1,706.89,1407.88Z"/><path class="cls-1" d="M706.89,1536.07H659.22a4.21,4.21,0,0,1-4.21-4.2h0a4.22,4.22,0,0,1,4.21-4.21h47.67a4.21,4.21,0,0,1,4.2,4.21h0A4.21,4.21,0,0,1,706.89,1536.07Z"/><path class="cls-1" d="M706.89,1669.71H659.22a4.22,4.22,0,0,1-4.21-4.21h0a4.21,4.21,0,0,1,4.21-4.2h47.67a4.21,4.21,0,0,1,4.2,4.2h0A4.21,4.21,0,0,1,706.89,1669.71Z"/><rect class="cls-11" x="1790.68" y="399.48" width="215.22" height="208.8" rx="15.39"/><rect class="cls-10" x="1800.01" y="408.52" width="196.58" height="190.71" rx="14.06"/><circle class="cls-1" cx="1898.29" cy="427.58" r="4.46"/><path class="cls-1" d="M1929.81,433.88a4.46,4.46,0,1,1,1.73,6.07A4.46,4.46,0,0,1,1929.81,433.88Z"/><path class="cls-1" d="M1960.63,458.37a4.46,4.46,0,1,1-1.33,6.16A4.45,4.45,0,0,1,1960.63,458.37Z"/><path class="cls-1" d="M1975.9,496.27a4.46,4.46,0,1,1-4.46,4.45A4.45,4.45,0,0,1,1975.9,496.27Z"/><path class="cls-1" d="M1968.1,540.25a4.45,4.45,0,1,1-6.3,0A4.45,4.45,0,0,1,1968.1,540.25Z"/><path class="cls-1" d="M1940.11,568.32a4.46,4.46,0,1,1-6.31,0A4.45,4.45,0,0,1,1940.11,568.32Z"/><path class="cls-1" d="M1893.84,582.78a4.46,4.46,0,1,1,4.45,4.46A4.45,4.45,0,0,1,1893.84,582.78Z"/><path class="cls-1" d="M1866.64,433.88a4.46,4.46,0,1,0-1.73,6.07A4.47,4.47,0,0,0,1866.64,433.88Z"/><path class="cls-1" d="M1835.82,458.37a4.46,4.46,0,1,0,1.33,6.16A4.46,4.46,0,0,0,1835.82,458.37Z"/><path class="cls-1" d="M1820.55,496.27a4.46,4.46,0,1,0,4.46,4.45A4.46,4.46,0,0,0,1820.55,496.27Z"/><path class="cls-1" d="M1828.35,540.25a4.45,4.45,0,1,0,6.3,0A4.44,4.44,0,0,0,1828.35,540.25Z"/><circle class="cls-1" cx="1859.49" cy="571.47" r="4.46"/><path class="cls-1" d="M1897.09,500.72a4.46,4.46,0,1,1,4.46,4.46A4.46,4.46,0,0,1,1897.09,500.72Z"/><rect class="cls-1" x="1900.94" y="445.03" width="1.22" height="55.7"/><rect class="cls-1" x="1896.98" y="487.23" width="37.54" height="3.65" transform="translate(106.86 1287.29) rotate(-38.13)"/><path class="cls-12" d="M1443.13,1287.84c-27.52,47.9-62.13,66.38-62.13,66.38H1237S1464.12,1251.31,1443.13,1287.84Z"/><path class="cls-13" d="M1620.72,1763.66c-1.55,15.11,19.46,19,43.83,20.49s17,6.39,50.3,12.8,46.84-2.59,49.31-7.08c2.19-4-13.28-10.41-29.76-17.67-2.07-.91-4.15-1.84-6.22-2.78-18.55-8.39-28.83-25.21-43.19-40.86-13.6-14.83-26.16-62-26.16-62l-45.31-10.19s12.3,42.43,16.53,60.53c2.49,10.65-1.48,22.48-5,31.48C1623.18,1753.33,1621.27,1758.34,1620.72,1763.66Z"/><path class="cls-14" d="M1664.55,1784.15c24.37,1.47,17,6.39,50.3,12.8s46.84-2.59,49.31-7.08c2.19-4-13.28-10.41-29.76-17.67l-.26.28a95.21,95.21,0,0,1-50.62.06c-22-6.24-43.27-19.68-58.45-24.11-1.89,4.9-3.8,9.91-4.35,15.23C1619.17,1778.77,1640.18,1782.67,1664.55,1784.15Z"/><path class="cls-15" d="M1552.09,1238.78c-24.38-17.11-185.64-47.63-267.94-56.46l-91-79s-77.43,114.68-78,202.41c-.28,40.9,18.56,45,18.56,45s291.59,2.17,304.37,3.48c20.92,2.16,48.51,54.28,55.41,101.75S1622,1696.51,1622,1696.51s25.36,8.13,37.08,7.44c12.61-.74,18.45-5,18.45-5S1607.06,1277.39,1552.09,1238.78Z"/><path class="cls-13" d="M1545.3,1763.66c-1.55,15.11,19.46,19,43.83,20.49s16.95,6.39,50.3,12.8,46.84-2.59,49.3-7.08c2.2-4-13.27-10.41-29.75-17.67-2.07-.91-4.15-1.84-6.22-2.78-18.55-8.39-28.83-25.21-43.19-40.86-13.6-14.83-26.16-62-26.16-62l-45.31-10.19s12.3,42.43,16.53,60.53c2.49,10.65-1.48,22.48-5,31.48C1547.75,1753.33,1545.85,1758.34,1545.3,1763.66Z"/><path class="cls-16" d="M1589.13,1784.15c24.37,1.47,16.95,6.39,50.3,12.8s46.84-2.59,49.3-7.08c2.2-4-13.27-10.41-29.75-17.67l-.26.28a95.21,95.21,0,0,1-50.62.06c-22-6.24-43.27-19.68-58.45-24.11-1.9,4.9-3.8,9.91-4.35,15.23C1543.75,1778.77,1564.76,1782.67,1589.13,1784.15Z"/><path class="cls-4" d="M1476,1238.78c-21.18-14.87-84.88-26.4-155.19-35a47.3,47.3,0,0,1-40.15-35.5h0l-163.55-65s-77.42,114.68-78,202.41c-.28,40.9,18.56,45,18.56,45s291.59,2.17,304.37,3.48c20.92,2.16,48.52,54.28,55.41,101.75s128.49,240.54,128.49,240.54,25.36,8.13,37.08,7.44c12.62-.74,18.45-5,18.45-5S1531,1277.39,1476,1238.78Z"/><path class="cls-4" d="M1257.15,626.92c-22.48-11.81-56.67-13.4-62.23-14.15-66.48-8.93-106.49,87.67-108.85,116.94-4.33,54-32.87,62.18-73,96-80.55,67.75-56.93,146.48-12.88,175.74,26.42,17.55,73,0,73,0,.66.46,127.4-70.85,189.87-105.25C1356.68,882.85,1314.42,657,1257.15,626.92Z"/><path class="cls-13" d="M1243.28,862.93c.3.15-29.54,13.72-51.07,6.6-20.26-6.67-38.1-37.17-37.82-37.22,8.8-1.27,17.73-9.95,20.23-61.35l3.89,1L1244,788.49s-2.59,20.74-3.66,40.35C1239.42,845.31,1239.61,861,1243.28,862.93Z"/><path class="cls-17" d="M1244,788.49s0,4.27-2.45,23.56c-37-9.34-53.35-21.61-64.86-35.66Z"/><path class="cls-13" d="M1258,791.1s-86.58,14.1-94.52-40-24.48-88.63,30.46-99.92,68.74,7.76,75.78,25.16S1280.26,786,1258,791.1Z"/><path class="cls-4" d="M1258,649s-39.31,62.06-74.41,76.76-52.34,7.23-52.34,7.23a147.78,147.78,0,0,0,20.13-56.71,26.6,26.6,0,0,1,16.43-21.39C1193,644.77,1241.75,628.86,1258,649Z"/><path class="cls-4" d="M1223.5,655s23,11.81,32.53,22.88c9.16,10.69,19.74,39.68,19,52.7,0,0,11.37-62.39-12.31-83.84C1237.59,624,1223.5,655,1223.5,655Z"/><path class="cls-1" d="M1312.54,995c-2.62,176-.72,139.2-20,155.9-4.64,4-17.67,6.42-34.84,7.55-54,3.58-148.81-5.3-152.42-15.28-12.45-34.5-3.66-45.22-14-98.05-1.09-5.62-2.43-11.7-4-18.32-8.66-36.28-17.08-48.63,13.63-106.91,27.86-52.8,60.62-95.7,63.22-94.15,73.49,43.63,76,7.06,76,7.06S1313.83,909.14,1312.54,995Z"/><path class="cls-1" d="M1240.13,832.77s75.22,12.75,84.1,45.31,61.13,224,61.13,224-38.44,6.91-56.2-10.85-61.8-164.77-61.8-164.77Z"/><path class="cls-18" d="M1257.73,1158.42c-54,3.58-148.81-5.3-152.42-15.28-12.45-34.5-3.66-45.22-14-98.05l26-73.28s-4.3,81.61,19.77,103.07,98.54,41.44,110.24,59.37C1252.94,1142.86,1256.65,1151.49,1257.73,1158.42Z"/><path class="cls-13" d="M1195.91,1124.1s53.23-11.85,61.82-7.13,29.59,21.93,32.21,27.92-19.12-4.55-26.19-6.45c-4.59-1.23-16.65,3-22.62,5-25.12,8.37-40.52,4.06-40.52,4.06Z"/><path class="cls-1" d="M1164.12,825.71s-75.34,4.4-100.09,38.91c-34.83,48.59-103.93,255.64-64.33,283.25,44.6,31.1,203,8.13,203,8.13s5.27-24.63-2.07-36.55-126.49-31.16-132-36.66,68.74-107.25,68.74-123.75S1164.12,825.71,1164.12,825.71Z"/><path class="cls-13" d="M1260.31,1131.79s11.15,14.38,14.81,16.1,6,1.29,6,1.29l-7.52-13.53Z"/><path class="cls-13" d="M1257.73,1117l32.43,15.75s-1.38,2.26-5.37,2.07-14.06-3.86-14.06-3.86Z"/><path class="cls-19" d="M1377.2,1154.3H1226.58a12,12,0,0,1,12-12H1377.2Z"/><polygon class="cls-19" points="1376.77 990.27 1609.63 990.27 1553.77 1154.3 1319.4 1154.3 1376.77 990.27"/><polygon class="cls-20" points="1613.06 990.26 1557.2 1154.3 1322.83 1154.3 1380.19 990.26 1613.06 990.26"/><path class="cls-1" d="M1487.51,1070.77c-1.44,6.27-7.7,11.35-14,11.35s-10.17-5.08-8.72-11.35,7.7-11.35,14-11.35S1489,1064.5,1487.51,1070.77Z"/><rect class="cls-21" x="1166.75" y="1154.3" width="1036.03" height="36.9" rx="7.77"/><path class="cls-21" d="M2220,1799.12l.44,0a9.38,9.38,0,0,0,8.27-10.43l-90.94-615.56-33.29,1,107,618.9A7.66,7.66,0,0,0,2220,1799.12Z"/><path class="cls-21" d="M1140.35,1799.12l-.44,0a9.38,9.38,0,0,1-8.27-10.43l90.94-615.56,33.29,1-107,618.9A7.64,7.64,0,0,1,1140.35,1799.12Z"/><path class="cls-21" d="M1350.87,1799.12l-.44,0a9.37,9.37,0,0,1-8.26-10.43l90.93-615.56,33.3,1-107,618.9A7.66,7.66,0,0,1,1350.87,1799.12Z"/><rect class="cls-6" x="200.52" y="1793.3" width="2834" height="10.89" rx="3.86"/><path class="cls-16" d="M1887.37,1798.62h180.46c8.68-10.59,5.48-49.67,4.17-62.43-.28-2.57-.46-4.07-.46-4.07s-61.62-49.29-70.09-11.55c-.26,1.18-.57,2.34-.91,3.48-10.66,35.3-58.5,51.35-86.12,55.81C1896.46,1782.78,1889.83,1792.11,1887.37,1798.62Z"/><path class="cls-18" d="M2379.77,1212.26c-6.52,0-309.11,56.81-359.16,118.77-25,31-28.73,388.41-28.73,388.41s30.94,38.35,97.75,16.08c0,0,49-244.56,45.37-318.74-1-20.51,206.74-3,244.77-12.81s130.93-92.56,110.45-132.85S2379.77,1212.26,2379.77,1212.26Z"/><path class="cls-13" d="M2021.9,1124.73s-61,.82-75.47,7-43.72,20.38-35.88,22.56,45.23-.89,53.31.34,18-.34,23-.34h28Z"/><path class="cls-13" d="M1950.54,978.25s-20.81-14.87-41-17.76c-11.52-1.65-22.73-3.7-29.5-6.09-18.65-6.57-56-40.11-53.13-44,9-12.61,52.6,14.08,60.2,11.21s-14.61-18.66-6.88-24.21c4-2.9,13.47,11.64,21.19,13.1,10.44,2,18.61,16.72,21.75,17.49,6.12,1.5,32.91,21.43,32.91,21.43Z"/><path class="cls-15" d="M2349.63,804.59s-46.46,14.4-92.24,140.46-63.17,132.87-79.81,137.82-162.7,34-162.7,34v37.41h225.06S2324.33,1074,2349.63,1020,2349.63,804.59,2349.63,804.59Z"/><path class="cls-22" d="M1807.62,1798.62h180.45c8.68-10.59,5.48-49.67,4.17-62.43-.27-2.57-.45-4.07-.45-4.07s-61.63-49.29-70.09-11.55c-.26,1.18-.57,2.34-.91,3.48-10.67,35.3-58.5,51.35-86.12,55.81C1816.71,1782.78,1810.07,1792.11,1807.62,1798.62Z"/><path class="cls-1" d="M2290.6,1212.26c-6.52,0-309.11,56.81-359.16,118.77-25,31-28.73,388.41-28.73,388.41s30.94,38.35,97.75,16.08c0,0,49-244.56,45.37-318.74-1-20.51,206.74-3,244.77-12.81s130.93-92.56,110.45-132.85S2290.6,1212.26,2290.6,1212.26Z"/><path class="cls-13" d="M2309.54,844.54c21.76-1.8,44.59-7.6,64.31-14,24.66-8,44.54-19.7,31.73-42.23-11.81-20.77-30.91-67.18-29.62-105.61l-45.88,37-31.17,25.12s.13,14.8,3.53,40.75c.63,4.73,1.35,9.84,2.21,15.29a11.11,11.11,0,0,1-5.12,11.17c-.24.14-.47.29-.7.44C2283.34,822.17,2291.3,846,2309.54,844.54Z"/><path class="cls-17" d="M2298.91,738.67s-1.6,5.38,1.14,25.23c27.79-4.53,53.77-26.69,53.77-26.69-14.15-3.89-19.3-19.17-29.83-17.75Z"/><path class="cls-13" d="M2273.21,743.2s106.88,17.76,116.91-49,30.59-109.39-37.23-123.55-84.93,9.31-93.7,30.77S2245.66,736.86,2273.21,743.2Z"/><path class="cls-4" d="M2243.47,571.92c-4.59,16.07,7.69,35.64,28.31,42.09,30.61,9.56,23.85,47.11,37.62,46.59s19.33-21.58,31.63-4.74c10.5,14.36-8.73,31.38-7.41,39.26,2.27,13.52,23.45,41.18,42.53,39.79s54.8-92.08,47.65-120.14-35.71-57.65-62.74-61.73-64.59,7.6-73.26,7.6S2246,563.24,2243.47,571.92Z"/><path class="cls-4" d="M2491.65,897.21c-15.45-62.18-58.15-127.43-87-127.37-49.19.09-119.92,13.07-148.47,83.51-21,51.88-49.08,350.31-17.38,371.53,72.47,48.52,240.46,147.57,270.3,46.56C2536.43,1178.9,2518.46,1005.12,2491.65,897.21Z"/><path class="cls-4" d="M2372.16,835.33A58.26,58.26,0,0,0,2282,810.22c-16.7,13-37.14,31.49-61.84,57.79-91.81,97.76-110.47,97.16-127.71,95.14s-162.93-32.94-162.93-32.94a44,44,0,0,0-11.85,14.4c-5.86,11.88-2.91,20-2.91,20-5.71-3.68,51.64,35.85,80.19,51.61,37.69,20.81,94.49,40.33,117.12,47.74a30.21,30.21,0,0,0,19.67-.3c33.58-12.1,146.35-56.2,238.14-132.73C2394.06,910.73,2385.17,869.18,2372.16,835.33Z"/><path class="cls-1" d="M2409.58,770.44l-11.13-25.1s-99.7,8.13-116.46,64.88C2282,810.22,2359.27,771.65,2409.58,770.44Z"/><path class="cls-6" d="M2651.64,1796.37h.69c5.63-.1,10-4.7,9.44-10l-37.55-375.07-32.77,2.93,53.92,377.08A6.11,6.11,0,0,0,2651.64,1796.37Z"/><path class="cls-6" d="M2458.33,1796.37h.69c5.63-.1,10-4.7,9.45-10l-37.56-375.07-32.77,2.93,53.93,377.08A6.09,6.09,0,0,0,2458.33,1796.37Z"/><path class="cls-6" d="M2095.43,1796.37h-.69c-5.62-.1-10-4.7-9.44-10l37.55-375.07,32.77,2.93L2101.7,1791.3A6.1,6.1,0,0,1,2095.43,1796.37Z"/><path class="cls-6" d="M2641,1358.16l35.64-313.26c4.67-45.15-10.43-89.35-75.58-92.77l-114.6-7c-67.93-2.8-98.6,53.73-107.2,97.25l-68,344.36Z"/><path class="cls-6" d="M2113.22,1356.74h527.24a0,0,0,0,1,0,0v41.46a18.58,18.58,0,0,1-18.58,18.58H2113.22a18.58,18.58,0,0,1-18.58-18.58v-22.88A18.58,18.58,0,0,1,2113.22,1356.74Z"/><path class="cls-6" d="M2325.68,1356.74h314.77a0,0,0,0,1,0,0v45.61a14.43,14.43,0,0,1-14.43,14.43H2325.68a14.43,14.43,0,0,1-14.43-14.43v-31.18A14.43,14.43,0,0,1,2325.68,1356.74Z"/></g></g></svg>