<svg xmlns="http://www.w3.org/2000/svg" viewBox="0 0 2000 2000"><defs><style>.cls-1{isolation:isolate;}.cls-2{fill:#fff;}.cls-3{fill:#ead3d3;}.cls-4{fill:#404647;mix-blend-mode:screen;}.cls-5{fill:#ffb27d;}.cls-6{fill:#e92f32;}.cls-7{fill:#ed975d;}.cls-8{fill:#2d2d2d;}.cls-9{fill:#fce8e8;}.cls-10{fill:#101010;}.cls-11{fill:#a9453d;}.cls-12{fill:#aa242b;}.cls-13{fill:#ed985f;}.cls-14{fill:#d88f8f;}.cls-15{fill:#edabab;}.cls-16{fill:#ebf3fa;}.cls-17{fill:#b5c1cf;}.cls-18{fill:#ed4a4a;}.cls-19{fill:#2e3552;}</style></defs><g class="cls-1"><g id="Layer_2" data-name="Layer 2"><g id="Layer_1-2" data-name="Layer 1"><rect class="cls-2" width="2000" height="2000"/><path class="cls-3" d="M237.94,1831s-222.19-606.78-38-1001.79C739.63-328.49,1827.48,255.51,1701.23,1093.53c-54.76,363.51,184.23,375.77,59.52,738.22Z"/><path class="cls-4" d="M400.5,502.35c-72.14,88.3-139.84,196.53-200.59,326.85C172.08,888.9,153.54,953.43,142.1,1020l1484.81-427A782.18,782.18,0,0,0,1496,403.63Z"/><path class="cls-4" d="M127.32,1245.28l1580.47-206.52a880,880,0,0,0,3.33-98.25,756.45,756.45,0,0,0-7.31-80.9l-1576.64,379Z"/><path class="cls-5" d="M955.91,1805l0-9.6s-44.41-49.29-58-74.37l-37.5-69.25-49.08,12.14,62.3,88.28Z"/><path class="cls-6" d="M682,534.5c8.57-35.27-3.86-51.7-15.08-60.44-5.32-13-11.39-22.34-17.6-25.87-11.32-6.44-24.89-7.14-34.38-6.58,2.45-2.52,7.25-3.44,7.25-3.44-5.88-.87-19,5-19,5-81.86-31.54-94.73,89-93,117s1.48,61-41.11,83c-81.26,42.1,27,200.74,27,200.74-2.07-22.63,102.34-142,156.81-177.81,13.26-19.52,18-54,18.33-56.72-2.29,27.34-7,42.68-11.15,51.32C684.87,637.83,688.55,583,682,534.5Z"/><path class="cls-5" d="M649.64,667.87c.27.12-26.3,13.92-46.29,8.45-18.8-5.12-31.09-29.5-30.83-29.56,8-1.58,10.26-12.52,10.09-59.54l3.6.71,60.52,12s-1.37,19-1.41,37C645.28,652,646.19,666.26,649.64,667.87Z"/><path class="cls-7" d="M646.73,599.92s-1.37,19-1.41,37c-33.87-1-51.77-31.85-59.11-49Z"/><path class="cls-8" d="M888,1696.82l-32.08,1-34.72,1.06S740.94,1609.56,696,1466.4c-1.05-3.33-2.15-6.7-3.33-10.11C668,1384.49,617,1294.37,590.05,1212.8c-4.28-13-8.12-25.23-11.57-36.8-1.11-3.71-2.19-7.35-3.21-10.94-19.82-68.88-25.56-114.1-30.85-162.43l194.25,1.56S770,1334.14,888,1696.82Z"/><path class="cls-9" d="M711.47,892.57C711,985,725,1024.66,725,1024.66s-83.17,42.26-182,11.16c-1.16-.37-63.6-17.07-63.6-17.07,1.65-3.74,16.36-66,18-69.47,20.87-44.82,18.47-66.18,21-80,4.59-25.73,4.69-52.34,2.4-77.44a621.26,621.26,0,0,0-24-121.62c26.93-6.13,52.15-16.9,80.19-27.41,6.45,8,26.16,16.43,43.26,16,19.69-.44,26.07-8.87,25-18.07,21,11.68,37.73,22.7,37.73,22.7,17.83,31,54,61.07,56.62,108.58C740.27,783.8,711.49,890,711.47,892.57Z"/><path class="cls-5" d="M658,616.91s-80.13,1.32-80.18-48.6S567.42,485,618.58,482s61.12,16.08,65.19,32.74S678.89,615.28,658,616.91Z"/><path class="cls-6" d="M655.08,480.78S633.14,539.34,599.47,548s-48.28-.36-48.28-.36,5.28-30.12,10.64-65.94C561.83,481.69,638.53,452.9,655.08,480.78Z"/><path class="cls-6" d="M649.64,485.53S666,498.6,670,511.31s5.79,38.88,13.42,38c0,0,16.53-39.8-2.05-62.32C661.69,463.11,649.64,485.53,649.64,485.53Z"/><path class="cls-5" d="M598,1792.94c-2.73-15-7.92-40.93-7.92-40.93l1.21-92H535.4l20.92,88.08a89.71,89.71,0,0,1-4.3,36.79s-5.37,24.46,18.72,24.91S600.74,1807.94,598,1792.94Z"/><path class="cls-6" d="M552,1784.85s-4.53,29.25-1.81,41.52c0,0,7.11.48,24.61.48,16.59,0,25.46-.48,25.46-.48s.51-31.47-3.92-42.15C596.36,1784.22,579.29,1809.84,552,1784.85Z"/><polygon class="cls-5" points="784.13 956.73 821.98 1072.12 800.39 1080.77 737.81 978.83 784.13 956.73"/><path class="cls-6" d="M984.47,1826.37s-48.35.92-56.53,0-14.51-15.72-23.37-33.45c-3.62-7.25-11.76-11.24-20.11-13.44l.39,46.89H872.59l-12.67-49.47c-7.87-14.45-1.9-27.48,3.64-38.89,6.43,0,25,4.32,57.82,41.28,10.79,12.13,22.69,16.47,34.51,16.1a3.35,3.35,0,0,0,.49.26C983.65,1807.92,984.47,1826.37,984.47,1826.37Z"/><path class="cls-8" d="M793.53,968s-5.85-15.05-13.64-34.07-27.35-204.22-40.26-231.82-57.54-45.32-57.54-45.32l-36.82-15.91S691.63,755.36,693,778.54s5.45,379,5.45,379-2.73,16.36,28.63,9.54,39.54-13.63,39.54-13.63-11.38-83.34-18.21-165.18C771,986.91,793.53,968,793.53,968Z"/><path class="cls-10" d="M855.88,1697.8l-34.72,1.06S740.94,1609.56,696,1466.4c-1.05-3.33-2.15-6.7-3.33-10.11C668,1384.49,617,1294.37,590.05,1212.8c-4.28-13-8.12-25.23-11.57-36.8-1.11-3.71-2.19-7.35-3.21-10.94l28.61-21.71s85.88,139.08,112.47,270C739.44,1527,831.94,1663.78,855.88,1697.8Z"/><path class="cls-8" d="M606.86,1425.49c.49,63.65-2.72,210-11,270.55H565.09c-17,0-25.49-.24-25.49-.24-20.79-105.33-35.58-192.48-46.35-267.58-8.84-61.63-16.69-114.46-22.73-160-6.08-45.77-10.31-84.09-11.82-116.48-.23-5.09-.41-10.06-.51-14.87s-.12-9.54-.08-14.11L626,1106.45C623.84,1218,606.59,1388.5,606.86,1425.49Z"/><path class="cls-10" d="M565.09,1696c-17,0-25.49-.24-25.49-.24-20.79-105.33-35.58-192.48-46.35-267.58-8.84-61.63-16.69-114.46-22.73-160-6.08-45.77-10.31-84.09-11.82-116.48L520.28,1188S481,1201.89,496,1306.87,544.21,1681.18,565.09,1696Z"/><path class="cls-8" d="M573,1150.76s-11.82,42.72-52.72,37.26-99.07-30-99.07-30,17.48-55.23,39.21-127.8c26.32-87.84,58.89-201.09,74.24-272.52C539,737.69,541.93,721,543,709L577,643.16s50.6,113.57,53.33,142.2S573,1150.76,573,1150.76Z"/><path class="cls-5" d="M532.17,781.09,577,643.16c-.12.06-56.57,16.8-85,31.15,0,0-17.75,22.88-28.73,75.66,0,0-11.6,126.74,14.3,173.09,0,0,81.81,16.37,212.7-28.63v-30s-143.16,7.5-172.48,10.91Z"/><path class="cls-10" d="M571.2,845.35c-1.83,46.36-12.74,136.34-110,184.51-.26.13-.52.26-.78.37,26.32-87.84,58.89-201.09,74.24-272.52C552.53,784.4,572.19,819.83,571.2,845.35Z"/><path class="cls-8" d="M577,643.16s-83,5.85-103,50.39-26.36,192.7-.91,236.33c0,0,35,10,97-1.61l2.29-.43s19.77-48.41,2-58c0,0-52.27,2.73-46.82-14.54S577,643.16,577,643.16Z"/><path class="cls-11" d="M785.12,883l-2.44,7.86L646.44,848.45a5.22,5.22,0,0,1-.92-4.82c1-3,3.37-3,3.37-3Z"/><polygon class="cls-11" points="794.97 890.4 785.12 882.97 782.68 890.83 794.97 890.4"/><path class="cls-5" d="M816.6,1069s34.56,19.1,39.11,33.65,1.42,45-4.07,44.57-13.67-32.74-18.22-35-10.91-9.09-10.91-4.09,4.55,14.1,2.27,15.46-9.55-12.73-14.55-15.46-7.1-25.21-12-31.25S816.6,1069,816.6,1069Z"/><path class="cls-5" d="M690.27,864.44s30.91-19,43.87-16.11,46,26.86,30.12,32-28.77-.25-34.88,3.51-10.63,10.65-39.11,10.55S690.27,864.44,690.27,864.44Z"/><path class="cls-5" d="M1000.16,862.46s-36.44-6.54-43.47-12-2.49-8.32-.27-17.61c4.32-18.11,1.57-8.4,8.92-9.19s1.65-5.42,1.61-9.1-1.59-7.5,5-6.82,22.49,21.69,35.79,29.67S1000.16,862.46,1000.16,862.46Z"/><path class="cls-12" d="M1342.92,650.69s38.84,163.65-106.17,290.2C1191.49,980.4,994.11,864,994.11,864s.42-19.53,19.1-27.7c0,0,155.51,23.58,173.94,25.15,16.36,1.4,49.46-132,89.6-176.58C1307.83,650.35,1342.92,650.69,1342.92,650.69Z"/><path class="cls-10" d="M1623.67,1719.6s22.93,20.92,18.46,35.79-25.16,24.77-28,42.93-14,28.08-24,28.08h-48s-7.41-12.78,10.48-16.64,24.64-25.2,23.52-45,1.68-46.24,1.68-46.24l38-8.81Z"/><path class="cls-10" d="M1343.34,1774.15s4.12,47.61-5.94,52.57l-128,.13s-.8-15.26,19.89-18.56,57-15.42,63.18-42.39S1343.34,1774.15,1343.34,1774.15Z"/><path class="cls-8" d="M1233.72,1100.75s6.79,83.45,14.77,183.77c10.86,136.26,23.91,303.65,25.2,335.36,2.23,55.06,11.18,143.14,11.18,143.14s21.24,20.92,63.74,12.1c0,0,37.87-125.73,48.69-258.76.17-2.18.34-4.38.5-6.57,10.07-135.43,25.72-420.6,25.72-420.6Z"/><path class="cls-10" d="M1233.72,1100.75s6.79,83.45,14.77,183.77l148.81,231.84c.17-2.18.34-4.38.5-6.57,10.07-135.43,25.72-420.6,25.72-420.6Z"/><path class="cls-8" d="M1264.74,1110.66s122.44,302.23,203,444.26,105.67,181.67,105.67,181.67,46.12-18.16,50.31-30.55c0,0-30.78-274.2-84.7-341-30.46-37.77-66.25-151.12-67.93-190.76s-10.9-118.08-10.9-118.08Z"/><path class="cls-5" d="M1425.84,644.9s-82.85,40-130.61,25.14a112.82,112.82,0,0,1,32.33-25.87c-1.65-9.58-2.94-17.9-3.68-25a230.45,230.45,0,0,1-2-25.5l32-25.14,30.31-24.06C1381.75,612.16,1425.84,644.9,1425.84,644.9Z"/><path class="cls-6" d="M1228.49,1107.64a7.45,7.45,0,0,0,5,2c18-.36,70.35,9.58,114.61,5.06,37.47-3.62,70.54-14.46,106-30,4.78-2.17,15.63-8,15.43-13-.19-5.79-.73-13.93-1.46-24.43-1.49-20.67-3.57-50-4.24-84.79-1.25-65.29,2.75-80.24,2.75-124.66.34-61.63-8.92-175-58.4-211.26-3.31-2.54-23.89,7.4-43,16.64-17.46,8.5-34.9,9.41-51.43,6.16l-16.53,14.46c-20,18.26-42.09,43.4-51.81,81.39-8.08,32.21-12.86,90.44-15.44,150.86-2.23,48.28-2.76,89.25-2.76,90.26C1226.29,1053.37,1227.19,1106.74,1228.49,1107.64Z"/><path class="cls-13" d="M1384.69,570.38s-20.94,38.16-60.81,48.83a230.45,230.45,0,0,1-2-25.5l32-25.14Z"/><path class="cls-5" d="M1307.29,592.61s79,12.93,86.45-35.66,22.62-79.64-27.53-90-62.8,6.78-69.29,22.4S1286.92,588,1307.29,592.61Z"/><path class="cls-10" d="M1422.47,461.19c.71-.83,2.37-1.49,6-1.69a14.94,14.94,0,0,0-6.88-1.94c-.77-5.12-3.49-14.18-12.31-16.39a11.06,11.06,0,0,1,5.36,8c-10.21-10.48-32.08-18.11-92.65-13.33-79.82,6.3-53.52,57.41-43.18,63.5s36.34-10.61,55.6-9.08,22.91,29.35,29.44,33.16,4-2.93,12.81-6.92,9.67,10.65,7.12,20.17,9.59,22.08,9.59,22.08l12.27-13.22c12.27-13.21,23.84-69.19,18.26-81.12Z"/><path class="cls-12" d="M1463.79,962.43c-.5-25.79-.22-54.57,1.66-85,.1-2,.21-4.11.3-6.18-7.51-37.22-18.88-70.24-35.61-71.32C1430.14,799.88,1380.31,878.19,1463.79,962.43Z"/><path class="cls-5" d="M1529.71,1097.47s-4.16,40.39-8.72,48-24,32-32.22,36.84,5-32.16,3.36-39.35-6.8,13.12-10.45,13.6-2.7-17.81-2.83-24.46,17.72-23.08,24-37.24S1529.71,1097.47,1529.71,1097.47Z"/><path class="cls-6" d="M1408.1,626.11s50,23.68,74,60.08c37.19,56.46,80.3,262.25,81.1,281.31s-31.47,153.59-31.47,153.59-32.71-2.15-41.15-18.67c0,0,6.53-138.23,2.39-147.11s-136.4-185.43-121.53-223.1S1408.1,626.11,1408.1,626.11Z"/><rect class="cls-14" x="956.34" y="737.53" width="165.19" height="227.83" transform="translate(223.23 -215.78) rotate(13.27)"/><rect class="cls-15" x="952.2" y="736.55" width="165.19" height="227.83" transform="translate(222.9 -214.86) rotate(13.27)"/><rect class="cls-16" x="963.53" y="752.18" width="142.53" height="196.58" transform="matrix(0.97, 0.23, -0.23, 0.97, 222.89, -214.85)"/><path class="cls-17" d="M1106.39,797a2.22,2.22,0,0,1-.57-.07L999.15,771.79a2.47,2.47,0,1,1,1.13-4.8L1107,792.15a2.47,2.47,0,0,1-.56,4.87Z"/><path class="cls-17" d="M1102,812.07a2.22,2.22,0,0,1-.57-.07L994.76,786.84a2.47,2.47,0,1,1,1.13-4.8l106.68,25.16a2.47,2.47,0,0,1-.57,4.87Z"/><path class="cls-17" d="M1097.34,827.12a2.22,2.22,0,0,1-.57-.07L990.1,801.89a2.47,2.47,0,1,1,1.13-4.8l106.67,25.16a2.47,2.47,0,0,1-.56,4.87Z"/><path class="cls-17" d="M1093,842.17a2.22,2.22,0,0,1-.57-.07L985.71,816.94a2.47,2.47,0,1,1,1.13-4.8l106.67,25.16a2.47,2.47,0,0,1-.56,4.87Z"/><path class="cls-18" d="M1083.37,767.85l-55.1-13a3.08,3.08,0,0,1-2.28-3.69l4.33-18.38a3.08,3.08,0,0,1,3.7-2.29l55.09,13a3.08,3.08,0,0,1,2.29,3.69l-4.34,18.38A3.08,3.08,0,0,1,1083.37,767.85Z"/><path class="cls-5" d="M969.59,832.73c1.88-6.6-5.39-25.59-9-27.91s-7.77,7.77-11.27,20.27-1.68,23.42,1.15,23.87S967.85,838.81,969.59,832.73Z"/><path class="cls-19" d="M1870.56,1835.23H129.44a4.65,4.65,0,0,1-4.64-4.64h0a4.65,4.65,0,0,1,4.64-4.63H1870.56a4.65,4.65,0,0,1,4.64,4.63h0A4.65,4.65,0,0,1,1870.56,1835.23Z"/></g></g></g></svg>