<svg xmlns="http://www.w3.org/2000/svg">
    <symbol id="ico-pharmacies" viewBox="0 0 29 29"><path fill="none" stroke="#1B1B1B" stroke-linecap="round" stroke-linejoin="round" d="M28 11H18V1h-7v10H1v7h10v10h7V18h10z"/></symbol>
    <symbol id="ico-supermarkets" viewBox="0 0 31 29"><path fill="none" stroke="#1B1B1B" stroke-linecap="round" stroke-linejoin="round" d="M11 19l18-2V5H6z"/><circle fill="none" stroke="#1B1B1B" stroke-linecap="round" stroke-linejoin="round" cx="13" cy="25" r="3"/><circle fill="none" stroke="#1B1B1B" stroke-linecap="round" stroke-linejoin="round" cx="27" cy="25" r="3"/><path fill="none" stroke="#1B1B1B" stroke-linecap="round" stroke-linejoin="round" d="M0 1h4.5L6 5"/></symbol>
    <symbol id="ico-churches" viewBox="0 0 18 30"><path fill="none" stroke="#1B1B1B" stroke-linecap="round" stroke-linejoin="round" d="M9 1v28M17 9H1"/></symbol>
    <symbol id="ico-government" viewBox="0 0 34 34"><path fill="none" stroke="#1B1B1B" stroke-linecap="round" stroke-linejoin="round" d="M4 14h26v19H4z"/><path fill="none" stroke="#1B1B1B" stroke-linecap="round" stroke-linejoin="round" d="M1 16L17 0l16 16M14 25h6v7h-6z"/><circle fill="none" stroke="#1B1B1B" stroke-linecap="round" stroke-linejoin="round" cx="17" cy="15" r="7"/><path fill="none" stroke="#1B1B1B" stroke-linecap="round" stroke-linejoin="round" d="M17 12v3M17 15l2 2"/></symbol>
    <symbol id="ico-kindergartens" viewBox="0 0 33 34"><path fill="none" stroke="#1B1B1B" stroke-linecap="round" stroke-linejoin="round" d="M16.5 1C25.1 1 32 8.2 32 17s-6.9 16-15.5 16S1 25.8 1 17 7.9 1 16.5 1z"/><path fill="none" stroke="#1B1B1B" stroke-linecap="round" stroke-linejoin="round" d="M8 14h0c.4-2 2-3.4 3.6-2.9 1.2.3 2.1 1.5 2.4 2.9M19 14h0c.4-2 2-3.4 3.6-2.9 1.2.3 2.1 1.5 2.4 2.9M11 23h0c2.5 3.5 6.9 4 9.9 1.2.4-.4.7-.8 1.1-1.2M13 2c.9 1.6 2.2 2.6 4 3"/></symbol>
    <symbol id="ico-medical_centers" viewBox="0 0 27 28"><path fill="none" stroke="#1B1B1B" stroke-linecap="round" stroke-linejoin="round" d="M14 3.8C10.7.7 7.4.2 4.1 2.3-.8 5.5-.2 19.2 7.9 28c0 0 .6-10.2 6.1-10.2M14 3.8c3-3.1 6.1-3.6 9.1-1.5 4.5 3.2 4 16.9-3.5 25.7 0 0-.5-10.2-5.6-10.2"/></symbol>
    <symbol id="ico-post_offices" viewBox="0 0 31 22"><path fill="none" stroke="#1B1B1B" stroke-linecap="round" stroke-linejoin="round" d="M1 20.9h29V.9H1z"/><path fill="none" stroke="#1B1B1B" stroke-linecap="round" stroke-linejoin="round" d="M28.9 1.4L15.5 14.9 2.1 1.4M20 10.4l8.9 9M10.8 10.4l-8.9 9"/></symbol>
    <symbol id="ico-schools" viewBox="0 0 28 33"><path fill="none" stroke="#1B1B1B" stroke-linecap="round" stroke-linejoin="round" d="M4 32h23V1H4z"/><path fill="none" stroke="#1B1B1B" stroke-linecap="round" stroke-linejoin="round" d="M9 13h13V6H9zM4 6H1.1M4 16H1.1M4 26H1.1"/></symbol>
    <symbol id="ico-shopping_centers" viewBox="0 0 23 32"><path fill="none" stroke="#1B1B1B" stroke-linecap="round" stroke-linejoin="round" d="M1 31h21V11H1zM17 7c0-3.3-2.5-6-5.5-6S6 3.7 6 7"/></symbol>
    <symbol id="ico-sports_centers" viewBox="0 0 32 32"><path fill="none" stroke="#1B1B1B" stroke-linecap="round" stroke-linejoin="round" d="M31 16c0 8.3-6.7 15-15 15S1 24.3 1 16 7.7 1 16 1s15 6.7 15 15z"/><path fill="none" stroke="#1B1B1B" stroke-linecap="round" stroke-linejoin="round" d="M27 27c-2.5-2.8-4-6.4-4-10.5S24.5 8.8 27 6M5 6c2.5 2.8 4 6.4 4 10.5S7.5 24.2 5 27M16 1v30M1 16h30"/></symbol>
    <symbol id="ico-veterinary_clinics" viewBox="0 0 32 25"><circle fill="none" stroke="#1B1B1B" stroke-linecap="round" stroke-linejoin="round" cx="16" cy="17" r="7"/><circle fill="none" stroke="#1B1B1B" stroke-linecap="round" stroke-linejoin="round" cx="21" cy="4" r="3"/><circle fill="none" stroke="#1B1B1B" stroke-linecap="round" stroke-linejoin="round" cx="28" cy="11" r="3"/><circle fill="none" stroke="#1B1B1B" stroke-linecap="round" stroke-linejoin="round" cx="4" cy="11" r="3"/><circle fill="none" stroke="#1B1B1B" stroke-linecap="round" stroke-linejoin="round" cx="11" cy="4" r="3"/></symbol>
    <symbol id="ico-watersport" viewBox="0 0 44 34"><path fill="none" stroke="#000" stroke-linecap="round" stroke-linejoin="round" d="M8.8 31.7C4.7 28.5 2.1 23.6 2.1 18 2.1 8.4 9.9.6 19.5.6S37 8.3 37 17.9c0 5.2-2.3 9.9-5.9 13.1"/><path fill="none" stroke="#000" stroke-linecap="round" stroke-linejoin="round" d="M15 14.4c-1.8 1.8-4.3 2.1-5.7.7s-1-3.9.7-5.7 4.3-2.1 5.7-.7c1.4 1.3 1.1 3.9-.7 5.7zM31.1 31L14.8 14.7M9.7 9.6L6.5 6.4M15.8 8.7s5-5.7 14-4.9M9.6 15.4s-5 4.9-3.4 13.8M37.7 27c2.7 0 4 1.4 5.3 2.7"/><path fill="none" stroke="#000" stroke-linecap="round" stroke-linejoin="round" d="M.5 29.8c1.3 1.4 2.7 2.7 5.3 2.7 5.3 0 5.3-5.5 10.6-5.5s5.3 5.5 10.6 5.5S32.3 27 37.6 27"/></symbol>
    <symbol id="ico-book" viewBox="0 0 28 33"><path fill="none" stroke="#000" stroke-linecap="round" stroke-linejoin="round" d="M4 32h23V1H4z"/><path fill="none" stroke="#000" stroke-linecap="round" stroke-linejoin="round" d="M9 13h13V6H9zM4 6H1.1M4 16H1.1M4 26H1.1"/></symbol>
    <symbol id="ico-museum" viewBox="0 0 33.3 30.8"><path fill="none" stroke="#000" stroke-linecap="round" stroke-linejoin="round" d="M6.3 6.3H27V.5H6.3zM3.8 6.3v24M29.4 6.3v24M7.1 16.2v-3.7c0-1.1.9-2.1 2.1-2.1s2.1.9 2.1 2.1v3.7M7.1 25.3v-3.7c0-1.1.9-2.1 2.1-2.1s2.1.9 2.1 2.1v3.7M22 25.3v-3.7c0-1.1.9-2.1 2.1-2.1 1.1 0 2.1.9 2.1 2.1v3.7M14.6 16.2v-3.7c0-1.1.9-2.1 2.1-2.1s2.1.9 2.1 2.1v3.7M22 16.2v-3.7c0-1.1.9-2.1 2.1-2.1 1.1 0 2.1.9 2.1 2.1v3.7M13.7 19.5v10.8M6.3.5v5.8M27 .5v5.8M19.5 19.5v10.8M13.7 19.5h5.8M19.5 30.3h13.3M.6 30.3h13.3M32.8 6.3H.5M28.6.5h-24"/></symbol>
    <symbol id="ico-cinema" viewBox="0 0 31 26"><path fill="none" stroke="#000" stroke-linecap="round" stroke-linejoin="round" d="M7.4 25.4v-4c0-1.6-1.3-3-3-3-1.6 0-3 1.3-3 3v4"/><path fill="none" stroke="#000" stroke-linecap="round" stroke-linejoin="round" d="M11.3 18.6v-1.2c0-1.6-1.3-3-3-3-1.6 0-3 1.3-3 3v1.2M18.9 18.6v-1.2c0-1.6-1.3-3-3-3-1.6 0-3 1.3-3 3v1.2M26.6 18.6v-1.2c0-1.6-1.3-3-3-3s-3 1.3-3 3v1.2"/><path fill="none" stroke="#000" stroke-linecap="round" stroke-linejoin="round" d="M15.1 25.4v-4c0-1.6-1.3-3-3-3s-3 1.3-3 3v4M22.7 25.4v-4c0-1.6-1.3-3-3-3-1.6 0-3 1.3-3 3v4M30.4 25.4v-4c0-1.6-1.3-3-3-3-1.6 0-3 1.3-3 3v4"/><path fill="none" stroke="#000" stroke-linecap="round" stroke-linejoin="round" d="M2.8 19V.5H29V19"/><path fill="none" stroke="#000" stroke-linecap="round" stroke-linejoin="round" d="M18.9 9.2l-5.3-3v6.1z"/></symbol>
    <symbol id="ico-theater" viewBox="0 0 35 34"><path fill="none" stroke="#000" stroke-linecap="round" stroke-linejoin="round" d="M20.1 1.5L.5 7s3.9 14.9 15.6 17.7c8.5-8.5 4-23.2 4-23.2z"/><path fill="none" stroke="#000" stroke-linecap="round" stroke-linejoin="round" d="M10.6 10.3c-.5-.9-1.7-1.3-2.7-1-1.1.3-1.8 1.3-1.9 2.3M10.1 17.4c.9 1.4 2.6 2.1 4.2 1.6s2.7-1.9 2.7-3.6M17.5 8.4c-.6-.9-1.7-1.4-2.8-1.1-1.1.3-1.8 1.3-1.8 2.4M13.4 23.8c.3 3.3 1.4 6.7 3.8 9.6 11.9-1.6 17.2-16.1 17.2-16.1l-13.2-5.2"/><path fill="none" stroke="#000" stroke-linecap="round" stroke-linejoin="round" d="M22.6 29.2c.1-1.6-.8-3.2-2.4-3.8-1.6-.6-3.3-.1-4.3 1.2M28.2 21.4c.1-1.1-.5-2.1-1.6-2.5-1.1-.4-2.2-.1-2.9.8"/></symbol>
    <symbol id="ico-train" viewBox="0 0 28.6 36.2"><path fill="none" stroke="#000" stroke-linecap="round" stroke-linejoin="round" d="M22.7 10.7v.3c0 4.2-3.5 9.5-8.4 9.5S5.9 15.3 5.9 11v-.3M12 24.6c0 1.1-.9 1.9-1.9 1.9-1.1 0-1.9-.9-1.9-1.9 0-1.1.9-1.9 1.9-1.9 1 0 1.9.9 1.9 1.9zM20.4 24.6c0 1.1-.9 1.9-1.9 1.9-1.1 0-1.9-.9-1.9-1.9 0-1.1.9-1.9 1.9-1.9 1.1 0 1.9.9 1.9 1.9z"/><path fill="none" stroke="#000" stroke-linecap="round" stroke-linejoin="round" d="M5.9 10.9c0-2 3.8-3.5 8.4-3.5 4.7 0 8.4 1.6 8.4 3.5M8.2 31.9L.5 35.7M20.4 31.9l7.7 3.8M9.7.5l4.6 3.8M18.9.5l-4.6 3.8M9.7.5h9.2M18.9.5c.8 0 1.5.7 1.5 1.5M8.2 2c0-.8.7-1.5 1.5-1.5"/><path fill="none" stroke="#000" stroke-linecap="round" stroke-linejoin="round" d="M25.8 8.9c0-2.5-5.1-4.5-11.5-4.5S2.8 6.5 2.8 8.9v12.3h0v.3c0 5.3 4.8 11.9 11.5 11.9s11.5-6.6 11.5-11.9v-.3h0V8.9z"/></symbol>
    <symbol id="ico-bus" viewBox="0 0 33 35"><path fill="none" stroke="#000" stroke-linecap="round" stroke-linejoin="round" d="M4.4 26.2V2.6c0-1.1 1-2.1 2.1-2.1h19.3c1 0 2.1 1 2.1 2.1v23.6"/><path fill="none" stroke="#000" stroke-linecap="round" stroke-linejoin="round" d="M4.4 15.7h23.5V6.8H4.4zM14.3 3.6h4.1M12.2 21.6c0 1.1-.9 2-2 2s-2-.9-2-2 .9-2 2-2c1.2 0 2 .9 2 2zM24 21.6c0 1.1-.9 2-2 2s-2-.9-2-2 .9-2 2-2 2 .9 2 2z"/><path fill="none" stroke="#000" stroke-linecap="round" stroke-linejoin="round" d="M31.8 14.2c0 1.1-.9 2-2 2s-2-.9-2-2 .9-2 2-2c1.1.1 2 1 2 2zM4.4 14.2c0 1.1-.9 2-2 2s-2-.9-2-2 .9-2 2-2c1.1.1 2 1 2 2zM27.5 30.2v2c0 .6-.7 1.3-1.3 1.3h-.7c-.6 0-1.3-.7-1.3-1.3v-2M8.2 30.2v2c0 .6-.7 1.3-1.3 1.3h-.7c-.6 0-1.3-.7-1.3-1.3v-2M28.8 28.8c0 .7-.6 1.3-1.3 1.3H4.8c-.7 0-1.3-.6-1.3-1.3s.6-1.3 1.3-1.3h22.7c.7 0 1.3.6 1.3 1.3z"/></symbol>
    <symbol id="ico-restaurant-cafe" viewBox="0 0 35 33"><path fill="none" stroke="#000" stroke-linecap="round" stroke-linejoin="round" d="M14.5 31.7c7.5 0 13.5-7 13.5-15.6H1c0 8.6 6 15.6 13.5 15.6z"/><path fill="none" stroke="#000" stroke-linecap="round" stroke-linejoin="round" d="M28 16.1h1.1c2.5 0 4.5 2 4.5 4.5s-2 4.5-4.5 4.5c-1.1 0-2.2-.4-3-1.1M27.7 31.7H1.3M16.7 6.8c.9.8 1.5 1.9 1.5 3.2 0 1.2-.6 2.3-1.5 3.2M16.7 6.8c-.9-.8-1.5-1.9-1.5-3.2 0-1.2.6-2.3 1.5-3.2M23.9 6.8c.9.8 1.5 1.9 1.5 3.2 0 1.2-.6 2.3-1.5 3.2M23.9 6.8c-.9-.8-1.5-1.9-1.5-3.2 0-1.2.6-2.3 1.5-3.2"/></symbol>
</svg>