<svg xmlns="http://www.w3.org/2000/svg" xmlns:xlink="http://www.w3.org/1999/xlink" viewBox="0 0 125.2 120.8"><defs><style>.cls-1{isolation:isolate;}.cls-2{fill:url(#linear-gradient);}.cls-13,.cls-14,.cls-17,.cls-18,.cls-21,.cls-22,.cls-24,.cls-25,.cls-27,.cls-28,.cls-3,.cls-4,.cls-6{mix-blend-mode:multiply;}.cls-3{fill:url(#linear-gradient-2);}.cls-4{fill:url(#linear-gradient-3);}.cls-5{fill:url(#linear-gradient-4);}.cls-6{fill:url(#linear-gradient-5);}.cls-7{fill:url(#linear-gradient-6);}.cls-15,.cls-19,.cls-8{fill:#fff;}.cls-8{opacity:0.85;}.cls-15,.cls-8{mix-blend-mode:overlay;}.cls-10,.cls-9{opacity:0.5;mix-blend-mode:color-dodge;}.cls-9{fill:url(#radial-gradient);}.cls-10{fill:url(#radial-gradient-2);}.cls-11{opacity:0.15;mix-blend-mode:color-burn;fill:url(#linear-gradient-7);}.cls-12{fill:url(#linear-gradient-8);}.cls-13{fill:url(#linear-gradient-9);}.cls-14{fill:url(#linear-gradient-10);}.cls-15{opacity:0.25;}.cls-16{fill:url(#linear-gradient-11);}.cls-17{fill:url(#linear-gradient-12);}.cls-18{fill:url(#linear-gradient-13);}.cls-20{fill:url(#linear-gradient-14);}.cls-21{fill:url(#linear-gradient-15);}.cls-22{fill:url(#linear-gradient-16);}.cls-23{fill:url(#linear-gradient-17);}.cls-24{fill:url(#linear-gradient-18);}.cls-25{fill:url(#linear-gradient-19);}.cls-26{fill:url(#linear-gradient-20);}.cls-27{fill:url(#linear-gradient-21);}.cls-28{fill:url(#linear-gradient-22);}</style><linearGradient id="linear-gradient" x1="10.86" y1="76.19" x2="10.86" y2="31.42" gradientUnits="userSpaceOnUse"><stop offset="0.01" stop-color="#ff871a"/><stop offset="0.18" stop-color="#ff911c"/><stop offset="0.47" stop-color="#ffad22"/><stop offset="0.85" stop-color="#ffdb2b"/><stop offset="0.99" stop-color="#ffee2f"/></linearGradient><linearGradient id="linear-gradient-2" x1="2.25" y1="53.8" x2="19.49" y2="53.8" xlink:href="#linear-gradient"/><linearGradient id="linear-gradient-3" x1="10.86" y1="76.19" x2="10.86" y2="36.55" gradientUnits="userSpaceOnUse"><stop offset="0" stop-color="#fff"/><stop offset="0.15" stop-color="#ffefde"/><stop offset="0.44" stop-color="#ffd19f"/><stop offset="0.69" stop-color="#ffbb72"/><stop offset="0.88" stop-color="#ffad55"/><stop offset="0.99" stop-color="#ffa84b"/></linearGradient><linearGradient id="linear-gradient-4" x1="17.63" y1="105.32" x2="61.29" y2="105.32" xlink:href="#linear-gradient"/><linearGradient id="linear-gradient-5" x1="20.97" y1="105.32" x2="57.95" y2="105.32" xlink:href="#linear-gradient"/><linearGradient id="linear-gradient-6" x1="-0.45" y1="33.48" x2="95.85" y2="79.56" gradientUnits="userSpaceOnUse"><stop offset="0" stop-color="#f50c76"/><stop offset="0.14" stop-color="#e90c70"/><stop offset="0.4" stop-color="#ca0b62"/><stop offset="0.73" stop-color="#980a4a"/><stop offset="1" stop-color="#6b0935"/></linearGradient><radialGradient id="radial-gradient" cx="52.69" cy="53.36" r="39.08" gradientTransform="translate(79.7 -16.6) rotate(65.8)" gradientUnits="userSpaceOnUse"><stop offset="0" stop-color="#cd0b63"/><stop offset="0.14" stop-color="#b60a58"/><stop offset="0.45" stop-color="#7a073b"/><stop offset="0.88" stop-color="#1c010d"/><stop offset="1"/></radialGradient><radialGradient id="radial-gradient-2" cx="45.58" cy="45.06" r="25.1" gradientTransform="translate(67.9 -15) rotate(65.8)" xlink:href="#radial-gradient"/><linearGradient id="linear-gradient-7" x1="104.09" y1="53.84" x2="27.83" y2="106.23" gradientUnits="userSpaceOnUse"><stop offset="0" stop-color="#b8105c"/><stop offset="0.02" stop-color="#b41060"/><stop offset="0.26" stop-color="#7e0a90"/><stop offset="0.49" stop-color="#5406b6"/><stop offset="0.7" stop-color="#3503d1"/><stop offset="0.88" stop-color="#2301e2"/><stop offset="1" stop-color="#1c00e8"/></linearGradient><linearGradient id="linear-gradient-8" x1="75.89" y1="104.4" x2="108.42" y2="104.4" xlink:href="#linear-gradient"/><linearGradient id="linear-gradient-9" x1="80.83" y1="105.52" x2="107.16" y2="105.52" xlink:href="#linear-gradient"/><linearGradient id="linear-gradient-10" x1="91.74" y1="118.2" x2="91.74" y2="90.6" xlink:href="#linear-gradient-3"/><linearGradient id="linear-gradient-11" x1="20.55" y1="84.43" x2="59.38" y2="84.43" gradientTransform="translate(6.1 -7.7) rotate(-0.7)" gradientUnits="userSpaceOnUse"><stop offset="0.01" stop-color="#ffee2f"/><stop offset="0.15" stop-color="#ffdb2b"/><stop offset="0.53" stop-color="#ffad22"/><stop offset="0.82" stop-color="#ff911c"/><stop offset="0.99" stop-color="#ff871a"/></linearGradient><linearGradient id="linear-gradient-12" x1="23.49" y1="86.21" x2="54.08" y2="86.21" gradientTransform="translate(6.1 -7.7) rotate(-0.7)" xlink:href="#linear-gradient"/><linearGradient id="linear-gradient-13" x1="26.94" y1="84.47" x2="59.38" y2="84.47" gradientTransform="translate(6.1 -7.7) rotate(-0.7)" xlink:href="#linear-gradient-3"/><linearGradient id="linear-gradient-14" x1="110.68" y1="79.61" x2="110.68" y2="34.68" gradientUnits="userSpaceOnUse"><stop offset="0.01" stop-color="#ff871a"/><stop offset="0.91" stop-color="#ffe52d"/><stop offset="0.99" stop-color="#ffee2f"/></linearGradient><linearGradient id="linear-gradient-15" x1="101.67" y1="55.96" x2="124.44" y2="55.96" xlink:href="#linear-gradient"/><linearGradient id="linear-gradient-16" x1="110.64" y1="79.61" x2="110.64" y2="47.51" xlink:href="#linear-gradient-3"/><linearGradient id="linear-gradient-17" x1="-1012.52" y1="298.14" x2="-1012.52" y2="274.83" gradientTransform="matrix(0.11, -0.99, 0.99, 0.11, -129.71, -995.37)" xlink:href="#linear-gradient-14"/><linearGradient id="linear-gradient-18" x1="-1017.19" y1="285.87" x2="-1005.38" y2="285.87" gradientTransform="matrix(0.11, -0.99, 0.99, 0.11, -129.71, -995.37)" xlink:href="#linear-gradient"/><linearGradient id="linear-gradient-19" x1="-1012.53" y1="298.14" x2="-1012.53" y2="281.49" gradientTransform="matrix(0.11, -0.99, 0.99, 0.11, -129.71, -995.37)" xlink:href="#linear-gradient-3"/><linearGradient id="linear-gradient-20" x1="90.21" y1="-18.12" x2="90.21" y2="-49" gradientTransform="matrix(1, 0.06, -0.06, 1, -29.68, 43.22)" gradientUnits="userSpaceOnUse"><stop offset="0.01" stop-color="#ff871a"/><stop offset="0.2" stop-color="#ffa11f"/><stop offset="0.55" stop-color="#ffcb28"/><stop offset="0.83" stop-color="#ffe42d"/><stop offset="0.99" stop-color="#ffee2f"/></linearGradient><linearGradient id="linear-gradient-21" x1="90.2" y1="-20.35" x2="90.2" y2="-46.76" gradientTransform="matrix(1, 0.06, -0.06, 1, -29.68, 43.22)" xlink:href="#linear-gradient"/><linearGradient id="linear-gradient-22" x1="92.16" y1="-18.12" x2="92.16" y2="-44.75" gradientTransform="matrix(1, 0.06, -0.06, 1, -29.68, 43.22)" xlink:href="#linear-gradient-3"/></defs><title>1</title><g class="cls-1"><g id="Layer_2" data-name="Layer 2"><g id="Layer_1-2" data-name="Layer 1"><path class="cls-2" d="M11.8,76.2S-1.9,72.3.2,54a28.8,28.8,0,0,1,.9-4.6c4.2-15.1,19-18,19-18a21.3,21.3,0,0,1,1.4,5.1C23.6,52.1,11.8,76.2,11.8,76.2Z"/><path class="cls-3" d="M18.2,36.1S4.1,38.7,2.4,53.9s9.2,17.7,9.2,17.7S23.3,47.6,18.2,36.1Z"/><path class="cls-4" d="M11.8,76.2S-1.9,72.3.2,54a28.8,28.8,0,0,1,.9-4.6c5.9.5,13.7-1.6,20.4-12.9C23.6,52.1,11.8,76.2,11.8,76.2Z"/><path class="cls-5" d="M17.7,89.8S15.5,113.5,34,119.2,61.3,115,61.3,115Z"/><path class="cls-6" d="M21,92.2s-1.8,20.1,13.8,24.9,23.1-3.6,23.1-3.6Z"/><path class="cls-7" d="M115.8,63.6a53.2,53.2,0,1,1-26-45.9A53.4,53.4,0,0,1,115.8,63.6Z"/><path class="cls-8" d="M21.6,94.9a56.6,56.6,0,0,1,4.1-70,53.4,53.4,0,0,0-6.9,69.4,53.7,53.7,0,0,0,25.5,19.5A57.9,57.9,0,0,1,21.6,94.9Z"/><ellipse class="cls-9" cx="52.7" cy="53.4" rx="39.7" ry="38.4" transform="translate(-17.6 79.5) rotate(-65.8)"/><ellipse class="cls-10" cx="45.6" cy="45.1" rx="25.5" ry="24.7" transform="translate(-14.2 68.1) rotate(-65.8)"/><path class="cls-11" d="M115.8,63.6a53.3,53.3,0,0,1-97,30.7c84.1,12.4,71.8-49.9,71-76.6A53.5,53.5,0,0,1,115.8,63.6Z"/><path class="cls-8" d="M96.2,22.2a53.4,53.4,0,0,1-69.5,81,53.4,53.4,0,1,0,69.5-81Z"/><path class="cls-12" d="M108.3,103.6c-.7,6.7-8.8,13-17.8,14.3a23.2,23.2,0,0,1-8.3-.2c-11.8-2.6-4.1-14.5-.7-17.2,17.9-13.9,24.1-10.7,26.1-5.2A20.6,20.6,0,0,1,108.3,103.6Z"/><path class="cls-13" d="M85.4,102.4c-2.8,2.1-9,11.8.6,13.9s20.3-4.4,21-11.4C107.5,100.1,107.4,85.3,85.4,102.4Z"/><path class="cls-14" d="M90.5,117.9a23.2,23.2,0,0,1-8.3-.2c-11.8-2.6-4.1-14.5-.7-17.2,17.9-13.9,24.1-10.7,26.1-5.2C90.2,94.7,89.9,111.5,90.5,117.9Z"/><path class="cls-15" d="M104.1,98.1c2.3,1.2,2.6,5.2.7,9.1s-5.5,6-7.8,4.8-2.7-5.3-.7-9.1S101.7,96.9,104.1,98.1Z"/><path class="cls-16" d="M66,82.5c-2.5,4.1-20.1,13.4-31.7,3.4l-1.7-1.6c-6.2-6.8-5.4-12.4-3.4-16.1a11.3,11.3,0,0,1,8.1-5.6,33.8,33.8,0,0,1,6.2-.3c3.3.2,6.4,1.3,11.1,3.2C63.3,69.2,68.6,78.3,66,82.5Z"/><path class="cls-17" d="M38.2,67.3a8.7,8.7,0,0,0-6.4,4.4c-1.6,2.9-2.2,7.3,2.8,12.7,9,9.8,24.2,1.9,26.2-1.4s-2-10.5-8.9-13.4S43.3,66.5,38.2,67.3Z"/><path class="cls-18" d="M66,82.5c-2.5,4.1-20.1,13.4-31.7,3.4,26.3-3.4,13.3-19.7,9.2-23.6,3.3.2,6.4,1.3,11.1,3.2C63.3,69.2,68.6,78.3,66,82.5Z"/><path class="cls-15" d="M45.8,71c.8,4-2.3,7.9-6.9,8.9s-9.1-1.5-9.9-5.5,2.3-7.9,6.9-8.8S45,67,45.8,71Z"/><path class="cls-19" d="M37.4,66.8c.6,1.1-.2,2.6-1.7,3.5s-3.2.8-3.8-.2.2-2.6,1.7-3.5S36.8,65.8,37.4,66.8Z"/><path class="cls-19" d="M106.2,97.6c1.1,0,2.2,1.3,2.2,3.1s-.8,3.2-2,3.2-3.7-1-3.8-2.7S105,97.7,106.2,97.6Z"/><path class="cls-20" d="M125.1,60c-.7,10.1-7.2,19.4-11.5,19.6s-16.2-4-17.3-21.3a39.5,39.5,0,0,1,.6-10.8c2.4-11.4,10-12.8,10-12.8,9.2,0,17.8,11.3,18.3,22.4A28.1,28.1,0,0,1,125.1,60Z"/><path class="cls-21" d="M110.1,38.3s-9.4,1.8-8.3,18.5c.8,13.6,9.9,16.9,13.6,16.8s9.4-8.9,9-17.6S117.3,38.3,110.1,38.3Z"/><path class="cls-22" d="M125.1,60c-.7,10.1-7.2,19.4-11.5,19.6s-16.2-4-17.3-21.3a39.5,39.5,0,0,1,.6-10.8C101.8,58.2,112.8,75.4,125.1,60Z"/><ellipse class="cls-15" cx="116.1" cy="52.5" rx="7.3" ry="12.3" transform="translate(-8.2 24.5) rotate(-11.6)"/><path class="cls-19" d="M113,43.5c1.6-.7,5.6-.2,6.6,2.1s-1.5,5.8-3.1,6.4-3.6-.7-4.6-3.1S111.5,44.1,113,43.5Z"/><path class="cls-23" d="M45.1,35.3c5.2,1,9.6,4.9,9.5,7.1s-3,8.1-12,7.7a19,19,0,0,1-5.5-.9c-5.8-1.9-6.1-6-6.1-6,.5-4.7,6.9-8.5,12.7-8.1Z"/><path class="cls-24" d="M33.1,41.8s.4,5,9,5.4,9.3-4.2,9.5-6.1-4.1-5.3-8.6-5.6S33.5,38.1,33.1,41.8Z"/><path class="cls-25" d="M45.1,35.3c5.2,1,9.6,4.9,9.5,7.1s-3,8.1-12,7.7a19,19,0,0,1-5.5-.9C42.9,47.3,52.4,42.6,45.1,35.3Z"/><path class="cls-15" d="M34.4,40.1c-.2-2.1,2.5-4,6-4.3s6.5,1.1,6.7,3.2-2.5,4-6,4.3S34.6,42.2,34.4,40.1Z"/><path class="cls-19" d="M35.9,40.6c-.2-.9.2-2.9,1.5-3.2s2.9,1,3.1,1.9-.6,1.8-1.8,2.2S36.2,41.5,35.9,40.6Z"/><path class="cls-26" d="M87,22.8c-2.4,5.4-18,10.5-33.2,6.9a92.3,92.3,0,0,1-8.9-2.6,13.3,13.3,0,0,1-4.4-2.8,10.7,10.7,0,0,1,.2-15.7A32.1,32.1,0,0,1,63.8,0,25.2,25.2,0,0,1,79.1,5.2C86.5,11,88.3,19.9,87,22.8Z"/><path class="cls-27" d="M47.4,25.4c-6.9-2.6-8.9-11-3.5-15.8A27.1,27.1,0,0,1,63.6,2.2C80.7,2.8,85.1,18,83.4,21.8S68,30.7,55.1,27.6A77.2,77.2,0,0,1,47.4,25.4Z"/><path class="cls-28" d="M87,22.8c-2.4,5.4-18,10.5-33.2,6.9a92.3,92.3,0,0,1-8.9-2.6,13.3,13.3,0,0,1-4.4-2.8C73.4,26.8,78.6,12.4,79.1,5.2,86.5,11,88.3,19.9,87,22.8Z"/><path class="cls-15" d="M70,5.9c1.4,4.1-3.5,9.2-10.9,11.3s-14.6.4-16-3.7S46.6,4.4,54,2.3,68.6,1.8,70,5.9Z"/><path class="cls-19" d="M57.3,8c.4,1.8-1.7,3.7-4.6,4.2s-7.6-.3-7.9-2.2,3.5-6,6.4-6.5S56.9,6.1,57.3,8Z"/><path class="cls-19" d="M65.3,10.6c.2,1.1-.9,2.1-2.5,2.4s-3.1-.3-3.3-1.3.9-2.1,2.5-2.4S65.1,9.6,65.3,10.6Z"/></g></g></g></svg>