<svg xmlns="http://www.w3.org/2000/svg" xmlns:xlink="http://www.w3.org/1999/xlink" viewBox="0 0 84.3 101.8"><defs><style>.cls-1{isolation:isolate;}.cls-2{fill:url(#linear-gradient);}.cls-3{fill:#e1ffff;}.cls-18,.cls-20,.cls-3{mix-blend-mode:overlay;}.cls-4{fill:url(#linear-gradient-2);}.cls-5{fill:#9185e7;}.cls-20,.cls-5{opacity:0.5;}.cls-10,.cls-16,.cls-21,.cls-23,.cls-24,.cls-5{mix-blend-mode:multiply;}.cls-6{fill:url(#linear-gradient-3);}.cls-7{fill:#ffc82c;}.cls-8{fill:url(#linear-gradient-4);}.cls-9{fill:url(#radial-gradient);}.cls-11{fill:url(#linear-gradient-5);}.cls-12{fill:url(#linear-gradient-6);}.cls-13{fill:url(#linear-gradient-7);}.cls-14{fill:url(#linear-gradient-8);}.cls-15{fill:url(#linear-gradient-9);}.cls-16{fill:url(#linear-gradient-10);}.cls-17{fill:url(#linear-gradient-11);}.cls-18,.cls-20,.cls-22{fill:#fff;}.cls-18{opacity:0.25;}.cls-19{fill:url(#linear-gradient-12);}.cls-21{fill:url(#linear-gradient-13);}.cls-23{fill:#9d99b5;}.cls-24{fill:url(#linear-gradient-14);}</style><linearGradient id="linear-gradient" x1="43.78" y1="83.78" x2="43.78" y2="68.75" gradientUnits="userSpaceOnUse"><stop offset="0" stop-color="#55fbff"/><stop offset="0.28" stop-color="#52f8fe"/><stop offset="0.49" stop-color="#48eef9"/><stop offset="0.68" stop-color="#38def2"/><stop offset="0.85" stop-color="#21c7e8"/><stop offset="0.99" stop-color="#0ab0dd"/></linearGradient><linearGradient id="linear-gradient-2" x1="32.04" y1="64.47" x2="59.39" y2="64.47" gradientTransform="translate(-1.9 0.8) rotate(0.1)" gradientUnits="userSpaceOnUse"><stop offset="0.01" stop-color="#f94e41"/><stop offset="0.12" stop-color="#f2483b"/><stop offset="0.68" stop-color="#d62e21"/><stop offset="1" stop-color="#cc2417"/></linearGradient><linearGradient id="linear-gradient-3" x1="0.01" y1="63.92" x2="19.11" y2="63.92" gradientUnits="userSpaceOnUse"><stop offset="0.01" stop-color="#ff871a"/><stop offset="0.27" stop-color="#fe7d21"/><stop offset="0.73" stop-color="#fb6134"/><stop offset="0.99" stop-color="#f94e41"/></linearGradient><linearGradient id="linear-gradient-4" x1="-504.5" y1="63.92" x2="-485.4" y2="63.92" gradientTransform="matrix(-1, 0, 0, 1, -420.21, 0)" xlink:href="#linear-gradient-3"/><radialGradient id="radial-gradient" cx="30.99" cy="22.15" r="47.11" gradientUnits="userSpaceOnUse"><stop offset="0" stop-color="#ffe6dc"/><stop offset="0.16" stop-color="#f5dddd"/><stop offset="0.44" stop-color="#d9c4e0"/><stop offset="0.81" stop-color="#ab9ce4"/><stop offset="0.99" stop-color="#9185e7"/></radialGradient><linearGradient id="linear-gradient-5" x1="42.13" y1="44.46" x2="43.58" y2="44.46" gradientUnits="userSpaceOnUse"><stop offset="0" stop-color="#fff"/><stop offset="0.16" stop-color="#edeafa"/><stop offset="0.54" stop-color="#c5bcef"/><stop offset="0.83" stop-color="#ada0e8"/><stop offset="1" stop-color="#a496e5"/></linearGradient><linearGradient id="linear-gradient-6" x1="10.08" y1="26.07" x2="30.53" y2="26.07" xlink:href="#linear-gradient-5"/><linearGradient id="linear-gradient-7" x1="56.38" y1="22.43" x2="74.1" y2="22.43" xlink:href="#linear-gradient-5"/><linearGradient id="linear-gradient-8" x1="17.55" y1="25.38" x2="66.72" y2="25.38" xlink:href="#linear-gradient-5"/><linearGradient id="linear-gradient-9" x1="41.78" y1="39.61" x2="41.78" y2="0.71" gradientUnits="userSpaceOnUse"><stop offset="0.01" stop-color="#826ccf"/><stop offset="0.21" stop-color="#ab94d3"/><stop offset="0.46" stop-color="#d9c0d8"/><stop offset="0.66" stop-color="#f5dcdb"/><stop offset="0.77" stop-color="#ffe6dc"/></linearGradient><linearGradient id="linear-gradient-10" x1="26.11" y1="21.24" x2="65.01" y2="21.24" xlink:href="#linear-gradient-5"/><linearGradient id="linear-gradient-11" x1="41.78" y1="38.71" x2="41.78" y2="1.61" gradientUnits="userSpaceOnUse"><stop offset="0" stop-color="#ffe6dc"/><stop offset="0.07" stop-color="#f3dadb"/><stop offset="0.37" stop-color="#c3abd6"/><stop offset="0.64" stop-color="#9f89d2"/><stop offset="0.85" stop-color="#8a74d0"/><stop offset="0.99" stop-color="#826ccf"/></linearGradient><linearGradient id="linear-gradient-12" x1="41.78" y1="35.38" x2="41.78" y2="4.94" gradientUnits="userSpaceOnUse"><stop offset="0.01" stop-color="#ffee2f"/><stop offset="0.15" stop-color="#ffdb2b"/><stop offset="0.53" stop-color="#ffad22"/><stop offset="0.82" stop-color="#ff911c"/><stop offset="0.99" stop-color="#ff871a"/></linearGradient><linearGradient id="linear-gradient-13" x1="41.78" y1="24.75" x2="41.78" y2="4.94" gradientUnits="userSpaceOnUse"><stop offset="0" stop-color="#fff"/><stop offset="0.15" stop-color="#ffefde"/><stop offset="0.44" stop-color="#ffd19f"/><stop offset="0.69" stop-color="#ffbb72"/><stop offset="0.88" stop-color="#ffad55"/><stop offset="0.99" stop-color="#ffa84b"/></linearGradient><linearGradient id="linear-gradient-14" x1="42.66" y1="74.91" x2="46.18" y2="74.91" xlink:href="#linear-gradient-13"/></defs><title>10</title><g class="cls-1"><g id="Layer_2" data-name="Layer 2"><g id="Layer_1-2" data-name="Layer 1"><path class="cls-2" d="M35.8,70.6s-1.3,5.6-.5,8l3.2-2.7,5.3,7.9L49,76.1l3.3,2.7A11.4,11.4,0,0,0,51,70.7C48.5,66.4,35.8,70.6,35.8,70.6Z"/><path class="cls-3" d="M37.6,70.2s-.9,4.2-.3,5.9l2.3-2,4,5.9,3.8-5.7,2.4,2a8.1,8.1,0,0,0-.9-6C47.1,67.1,37.6,70.2,37.6,70.2Z"/><path class="cls-4" d="M57.3,71.7a21.8,21.8,0,0,1-4.5,1.6C42.2,75.9,30,72.9,30,72.9l1.4-8.5,1.1-7.8,22.1-.3Z"/><path class="cls-5" d="M57.3,71.7a21.8,21.8,0,0,1-4.5,1.6c-6.6-4.3-17.7-7.8-21.4-8.9l1.1-7.8,22.1-.3Z"/><path class="cls-6" d="M19.1,55.6,15,68.2,5.6,97.1S-8.7,62.7,8.5,35.7a57.4,57.4,0,0,1,3.6-5Z"/><path class="cls-7" d="M13,33.8l-.9-3.1C-10.6,58.2,5.6,97.2,5.6,97.2h0C3.1,88.1-4,57.1,13,33.8Z"/><path class="cls-5" d="M19.1,55.6,15,68.2C14.7,57,10.4,41.7,8.5,35.7a57.4,57.4,0,0,1,3.6-5Z"/><path class="cls-8" d="M65.2,55.6l4.1,12.6,9.4,28.9S93,62.7,75.8,35.7a57.4,57.4,0,0,0-3.6-5Z"/><path class="cls-7" d="M71.3,33.8l.9-3.1c22.7,27.5,6.5,66.5,6.5,66.5h0C81.2,88.1,88.3,57.1,71.3,33.8Z"/><path class="cls-5" d="M65.2,55.6l4.1,12.6C69.6,57,74,41.7,75.8,35.7a57.4,57.4,0,0,0-3.6-5Z"/><path class="cls-9" d="M74.3,33A33,33,0,0,1,57.2,62.1a31.1,31.1,0,0,1-12.7,3.7H42.1a31.9,31.9,0,0,1-16.7-4.8A32.8,32.8,0,0,1,12.5,45.6a31.7,31.7,0,0,1-2.3-8.8c0-.6-.1-1.1-.1-1.6A16.2,16.2,0,0,1,10,33C10,14.7,24.4,0,42.1,0A32.4,32.4,0,0,1,73.9,27.9a10,10,0,0,1,.2,1.6C74.2,30.6,74.3,31.8,74.3,33Z"/><g class="cls-10"><path class="cls-11" d="M43.6,65.9H43l-.9-42.8h.6Z"/></g><g class="cls-10"><path class="cls-12" d="M30.5,15.4v.5c-.1,0-15.1.3-20.3,20.9a9.2,9.2,0,0,1-.1-1.6C15.6,15.6,30.4,15.4,30.5,15.4Z"/></g><g class="cls-10"><path class="cls-13" d="M74.1,29.5C67.7,16.1,56.5,15.9,56.4,15.9v-.5c.1,0,10.9.2,17.5,12.5A10,10,0,0,1,74.1,29.5Z"/></g><g class="cls-10"><path class="cls-14" d="M42.1,50.6c-13.5,0-24.5-11.3-24.5-25.2S28.6.2,42.1.2,66.7,11.5,66.7,25.4,55.7,50.6,42.1,50.6ZM42.1.7c-13.2,0-24,11.1-24,24.7S28.9,50,42.1,50A24.4,24.4,0,0,0,66.2,25.4C66.2,11.8,55.4.7,42.1.7Z"/></g><circle class="cls-15" cx="41.8" cy="20.2" r="19.5"/><circle class="cls-16" cx="45.6" cy="21.2" r="19.5"/><circle class="cls-17" cx="41.8" cy="20.2" r="18.6"/><path class="cls-18" d="M25.4,61.1A32.8,32.8,0,0,1,12.5,45.6c3-17.9,13.6-19.5,13.6-19.5L31,33.7C23.3,39.3,23.9,52.2,25.4,61.1Z"/><circle class="cls-19" cx="41.8" cy="20.2" r="15.2"/><path class="cls-20" d="M41.8,33.9A15.2,15.2,0,0,1,26.6,19.4v.8a15.2,15.2,0,0,0,30.4,0v-.8A15.3,15.3,0,0,1,41.8,33.9Z"/><path class="cls-21" d="M41.8,14.1A15.3,15.3,0,0,1,56.3,24.7a16.3,16.3,0,0,0,.7-4.5,15.2,15.2,0,1,0-30.4,0,13.3,13.3,0,0,0,.7,4.5A15.2,15.2,0,0,1,41.8,14.1Z"/><path class="cls-22" d="M39.8,29.6c-.6,1.1-2.6,1.2-4.3.1s-2.7-2.7-2.1-3.8,2.6-1.2,4.4-.2S40.5,28.4,39.8,29.6Z"/><path class="cls-22" d="M33.5,23.4c-.3.5-1.1.5-1.8.1s-1.2-1.1-.9-1.6,1.1-.5,1.8-.1S33.7,23,33.5,23.4Z"/><path class="cls-23" d="M57.2,62.1a31.1,31.1,0,0,1-12.7,3.7L43.1,48.1Z"/><path class="cls-7" d="M43.1,101.5v.3a4.5,4.5,0,0,0-.1-.8v-.4c-.7-7-4.1-42.8-3.3-50.1a11,11,0,0,1,3-2.4h.4a11,11,0,0,1,3,2.4C46.9,58.6,43.1,101.5,43.1,101.5Z"/><path class="cls-24" d="M43.1,101.5v.3a4.5,4.5,0,0,0-.1-.8v-.4l-.3-52.5h.4a11,11,0,0,1,3,2.4C46.9,58.6,43.1,101.5,43.1,101.5Z"/></g></g></g></svg>