<svg xmlns="http://www.w3.org/2000/svg" xmlns:xlink="http://www.w3.org/1999/xlink" viewBox="0 0 116.7 139.2"><defs><style>.cls-1{isolation:isolate;}.cls-2{fill:url(#linear-gradient);}.cls-19,.cls-23,.cls-25,.cls-26,.cls-3,.cls-4{opacity:0.5;}.cls-3{mix-blend-mode:multiply;fill:url(#linear-gradient-2);}.cls-4,.cls-5{fill:#fff;}.cls-23,.cls-25,.cls-26,.cls-4,.cls-5{mix-blend-mode:overlay;}.cls-5{opacity:0.85;}.cls-6{fill:url(#linear-gradient-3);}.cls-7{fill:url(#linear-gradient-4);}.cls-8{fill:url(#linear-gradient-5);}.cls-9{fill:url(#linear-gradient-6);}.cls-10{fill:url(#linear-gradient-7);}.cls-11{fill:url(#linear-gradient-8);}.cls-12{fill:url(#linear-gradient-9);}.cls-13{fill:url(#linear-gradient-10);}.cls-14{fill:url(#linear-gradient-11);}.cls-15{fill:url(#linear-gradient-12);}.cls-16{fill:url(#linear-gradient-13);}.cls-17{fill:url(#linear-gradient-14);}.cls-18{fill:url(#linear-gradient-15);}.cls-19,.cls-21{fill:#510071;}.cls-20,.cls-27{opacity:0.35;}.cls-22{fill:url(#linear-gradient-16);}.cls-23{fill:url(#linear-gradient-17);}.cls-24{fill:url(#linear-gradient-18);}.cls-25{fill:url(#linear-gradient-19);}.cls-26{fill:url(#linear-gradient-20);}.cls-27{mix-blend-mode:color-burn;fill:url(#linear-gradient-21);}.cls-28{opacity:0.25;mix-blend-mode:screen;fill:url(#radial-gradient);}</style><linearGradient id="linear-gradient" x1="-4.85" y1="37.45" x2="98.91" y2="90.86" gradientUnits="userSpaceOnUse"><stop offset="0" stop-color="#62f2fe"/><stop offset="0.17" stop-color="#63c1e8"/><stop offset="0.47" stop-color="#656fc4"/><stop offset="0.72" stop-color="#6733aa"/><stop offset="0.9" stop-color="#680e99"/><stop offset="0.99" stop-color="#680093"/></linearGradient><linearGradient id="linear-gradient-2" x1="7.53" y1="94.14" x2="51.88" y2="94.14" gradientUnits="userSpaceOnUse"><stop offset="0" stop-color="#fff7f5"/><stop offset="0.16" stop-color="#f9eff3"/><stop offset="0.41" stop-color="#e7d8ed"/><stop offset="0.73" stop-color="#cbb4e4"/><stop offset="1" stop-color="#ae8edb"/></linearGradient><linearGradient id="linear-gradient-3" x1="273.68" y1="-140.31" x2="296.53" y2="-140.31" gradientTransform="translate(-219.3 -36) rotate(38.7)" gradientUnits="userSpaceOnUse"><stop offset="0" stop-color="#440064"/><stop offset="0.18" stop-color="#44016a"/><stop offset="0.43" stop-color="#45057c"/><stop offset="0.71" stop-color="#460a99"/><stop offset="1" stop-color="#4711bd"/></linearGradient><linearGradient id="linear-gradient-4" x1="180.3" y1="-39.12" x2="203.69" y2="-39.12" gradientTransform="translate(-105.3 29.7) rotate(12.1)" gradientUnits="userSpaceOnUse"><stop offset="0" stop-color="#cf00ff"/><stop offset="0.1" stop-color="#b700e6"/><stop offset="0.25" stop-color="#9a00c8"/><stop offset="0.41" stop-color="#8400b0"/><stop offset="0.57" stop-color="#7400a0"/><stop offset="0.76" stop-color="#6b0096"/><stop offset="0.99" stop-color="#680093"/></linearGradient><linearGradient id="linear-gradient-5" x1="-731.42" y1="-824.65" x2="-714.8" y2="-808.4" gradientTransform="translate(-373.9 -981.9) rotate(-159.9)" gradientUnits="userSpaceOnUse"><stop offset="0" stop-color="#16c0ff"/><stop offset="1" stop-color="#440064"/></linearGradient><linearGradient id="linear-gradient-6" x1="14.09" y1="39.13" x2="38.29" y2="39.13" gradientUnits="userSpaceOnUse"><stop offset="0.01" stop-color="#1c67ff"/><stop offset="0.08" stop-color="#2579ff"/><stop offset="0.29" stop-color="#3ba4ff"/><stop offset="0.49" stop-color="#4cc6fe"/><stop offset="0.68" stop-color="#58defe"/><stop offset="0.85" stop-color="#5fedfe"/><stop offset="1" stop-color="#62f2fe"/></linearGradient><linearGradient id="linear-gradient-7" x1="-853.29" y1="-641.89" x2="-844.43" y2="-633.22" gradientTransform="translate(39.8 -1039.9) rotate(-128.2)" xlink:href="#linear-gradient-5"/><linearGradient id="linear-gradient-8" x1="198.08" y1="-88.33" x2="210.98" y2="-88.33" gradientTransform="matrix(0.95, 0.3, -0.3, 0.95, -159.21, 46.82)" xlink:href="#linear-gradient-6"/><linearGradient id="linear-gradient-9" x1="-34.01" y1="-1027.37" x2="-63.97" y2="-1006.02" gradientTransform="matrix(-0.67, 0.74, -0.74, -0.67, -758.07, -573.62)" xlink:href="#linear-gradient-5"/><linearGradient id="linear-gradient-10" x1="16.41" y1="85.65" x2="37.78" y2="85.65" gradientUnits="userSpaceOnUse"><stop offset="0.01" stop-color="#1c67ff"/><stop offset="0.03" stop-color="#1f6dff"/><stop offset="0.26" stop-color="#379cff"/><stop offset="0.48" stop-color="#4ac1fe"/><stop offset="0.68" stop-color="#57dcfe"/><stop offset="0.86" stop-color="#5fecfe"/><stop offset="1" stop-color="#62f2fe"/></linearGradient><linearGradient id="linear-gradient-11" x1="-103.8" y1="-1095.96" x2="-119.14" y2="-1085.03" gradientTransform="matrix(-0.85, 0.53, -0.53, -0.85, -618.83, -748.52)" xlink:href="#linear-gradient-3"/><linearGradient id="linear-gradient-12" x1="57.27" y1="119.79" x2="43.73" y2="129.43" gradientTransform="matrix(1, 0, 0, 1, 0, 0)" xlink:href="#linear-gradient-4"/><linearGradient id="linear-gradient-13" x1="84.56" y1="90.06" x2="103.63" y2="90.06" gradientTransform="translate(-4.4 -2.1) rotate(-0.3)" xlink:href="#linear-gradient-3"/><linearGradient id="linear-gradient-14" x1="-56.72" y1="139.88" x2="-35.98" y2="139.88" gradientTransform="translate(101.3 -60.2) rotate(-13.8)" xlink:href="#linear-gradient-4"/><linearGradient id="linear-gradient-15" x1="261.8" y1="-46.16" x2="274.27" y2="-46.16" gradientTransform="matrix(0.91, 0.42, -0.42, 0.91, -183.31, 48.57)" xlink:href="#linear-gradient-3"/><linearGradient id="linear-gradient-16" x1="58.27" y1="50.66" x2="67.87" y2="84.26" gradientUnits="userSpaceOnUse"><stop offset="0" stop-color="#4485d5"/><stop offset="0.17" stop-color="#4466bd"/><stop offset="0.43" stop-color="#443b9b"/><stop offset="0.66" stop-color="#441c83"/><stop offset="0.86" stop-color="#440974"/><stop offset="0.99" stop-color="#44026f"/></linearGradient><linearGradient id="linear-gradient-17" x1="48.51" y1="61.2" x2="70.42" y2="48.99" gradientUnits="userSpaceOnUse"><stop offset="0" stop-color="#440064"/><stop offset="0.01" stop-color="#61287c"/><stop offset="0.02" stop-color="#825597"/><stop offset="0.03" stop-color="#a07db0"/><stop offset="0.04" stop-color="#baa0c6"/><stop offset="0.06" stop-color="#cfbed7"/><stop offset="0.07" stop-color="#e1d6e6"/><stop offset="0.09" stop-color="#eee8f1"/><stop offset="0.11" stop-color="#f8f5f9"/><stop offset="0.14" stop-color="#fdfdfe"/><stop offset="0.19" stop-color="#fff"/><stop offset="0.28" stop-color="#ddd0e3"/><stop offset="0.38" stop-color="#b59ac1"/><stop offset="0.49" stop-color="#926ba5"/><stop offset="0.6" stop-color="#76448d"/><stop offset="0.7" stop-color="#60267b"/><stop offset="0.81" stop-color="#51116e"/><stop offset="0.91" stop-color="#470467"/><stop offset="1" stop-color="#440064"/></linearGradient><linearGradient id="linear-gradient-18" x1="54.26" y1="66.39" x2="55.51" y2="70.79" gradientUnits="userSpaceOnUse"><stop offset="0" stop-color="#680093"/><stop offset="0.4" stop-color="#cf00ff"/><stop offset="0.42" stop-color="#ca00fa"/><stop offset="0.6" stop-color="#a000ce"/><stop offset="0.76" stop-color="#8100ae"/><stop offset="0.9" stop-color="#6f009a"/><stop offset="0.99" stop-color="#680093"/></linearGradient><linearGradient id="linear-gradient-19" x1="58.35" y1="139.16" x2="58.35" y2="0.27" gradientUnits="userSpaceOnUse"><stop offset="0" stop-color="#440064"/><stop offset="0.07" stop-color="#61287c"/><stop offset="0.16" stop-color="#865a9b"/><stop offset="0.26" stop-color="#a686b5"/><stop offset="0.37" stop-color="#c2abcc"/><stop offset="0.47" stop-color="#d8cadf"/><stop offset="0.58" stop-color="#e9e1ed"/><stop offset="0.7" stop-color="#f5f2f7"/><stop offset="0.83" stop-color="#fdfcfd"/><stop offset="1" stop-color="#fff"/></linearGradient><linearGradient id="linear-gradient-20" x1="60.1" y1="37.61" x2="76.96" y2="96.63" xlink:href="#linear-gradient-19"/><linearGradient id="linear-gradient-21" x1="65.68" y1="146.02" x2="100.27" y2="53.08" gradientUnits="userSpaceOnUse"><stop offset="0" stop-color="#1c0067"/><stop offset="0.68" stop-color="#b9b1d0"/><stop offset="1" stop-color="#fff"/></linearGradient><radialGradient id="radial-gradient" cx="43.86" cy="71.63" r="19.48" gradientTransform="translate(107.7 17.1) rotate(81)" gradientUnits="userSpaceOnUse"><stop offset="0" stop-color="#fff"/><stop offset="0.23" stop-color="#fdfdfd"/><stop offset="0.37" stop-color="#f4f4f4"/><stop offset="0.48" stop-color="#e6e6e6"/><stop offset="0.58" stop-color="#d2d2d2"/><stop offset="0.67" stop-color="#b8b8b8"/><stop offset="0.75" stop-color="#989898"/><stop offset="0.83" stop-color="#727272"/><stop offset="0.9" stop-color="#464646"/><stop offset="0.97" stop-color="#161616"/><stop offset="1"/></radialGradient></defs><title>2</title><g class="cls-1"><g id="Layer_2" data-name="Layer 2"><g id="Layer_1-2" data-name="Layer 1"><path class="cls-2" d="M116.7,40v1.3a69.4,69.4,0,0,1-1.3,10.9c-2.4,11.9-13.2,64.3-19.2,69.4S81.9,137,63.5,138.9c-1.5.2-3.1.2-4.7.3l-5-.2a18.6,18.6,0,0,1-7.3-2.1l-1.6-1c-6.8-4.5-20.5-14.4-22.9-20.7C18.8,106.9-.4,66.1,0,55S4,28.2,15.6,23.8,46.7,8.2,55.5,1.8A10.9,10.9,0,0,1,59,.3c9.1-2.1,16.3,8.6,24.1,13.1,4.7,2.8,16.7,6.3,21.7,10.2,3.3,2.5,6.1,4.8,7.8,5.9l1.2.7C115.5,30.9,116.7,34.5,116.7,40Z"/><path class="cls-3" d="M7.7,61.6a5.1,5.1,0,0,1,6.8-6c10.1,3.9,28,17.6,28.2,21.3.4,5.6,1.2,38.8,4,44.7s8,12.4,3.2,11.2-11.6-11.2-19.5-16.3S13.6,87.4,7.7,61.6Z"/><path class="cls-4" d="M47.3,136.3c-6.8-4.5-20.5-14.4-22.9-20.6C21.2,107.3,2,66.5,2.4,55.4S6.4,28.6,18,24.2,47.1,9.8,56.4,3.3L59,.3a10.9,10.9,0,0,0-3.5,1.5c-8.8,6.4-28.3,17.6-39.9,22S.4,43.8,0,55s18.8,51.9,22,60.3c2.4,6.2,16.1,16.1,22.9,20.6a18.6,18.6,0,0,0,8.5,3.1A17.5,17.5,0,0,1,47.3,136.3Z"/><path class="cls-5" d="M113.8,30.2h-.2c1.4,3.5,1.6,10.7-.2,19.7-2.4,11.9-13.2,64.3-19.2,69.4s-17.5,19.3-42.4,17.4a18,18,0,0,1-8.9-3.1c-5.1-3.4-14.1-9.8-19.3-15.4,4.5,6.1,15.5,13.9,21.3,17.8a18,18,0,0,0,8.9,3.1c24.9,1.9,36.8-12.5,42.4-17.4S113,64.1,115.4,52.2,116.6,31.4,113.8,30.2Z"/><ellipse class="cls-6" cx="90.9" cy="32.8" rx="12.8" ry="8.9" transform="translate(-5.1 21.4) rotate(-13.1)"/><path class="cls-7" d="M87.3,27c6-2.5,12.8-1.4,15.8,2.3a6.1,6.1,0,0,0-.5-1.2c-2.6-4.3-10-5.7-16.4-3.1s-9.6,8.2-7,12.5a4.7,4.7,0,0,0,.6.9C78.3,34.2,81.4,29.3,87.3,27Z"/><path class="cls-8" d="M14.8,44.2c-3.1-5-.7-12.1,5.5-15.9S33.9,25.5,37,30.5s.6,12.1-5.5,15.9S17.9,49.2,14.8,44.2Z"/><path class="cls-9" d="M30.1,44.1c-5.7,3.5-12.6,2.9-16-1.3a6.1,6.1,0,0,0,.7,1.4c3.1,5,10.5,6,16.7,2.2S40,35.5,37,30.5l-.7-.9C38.2,34.4,35.7,40.7,30.1,44.1Z"/><ellipse class="cls-10" cx="62.6" cy="23.8" rx="7" ry="5.7" transform="translate(-3.9 15.9) rotate(-14)"/><path class="cls-11" d="M63.7,27.9c-3.5.9-6.9-.6-8-3.2.1.2.1.5.2.8.7,3,4.3,4.7,8.1,3.8s6.1-4.2,5.3-7.2c0-.2-.1-.4-.1-.6C69.4,24.3,67.1,27,63.7,27.9Z"/><ellipse class="cls-12" cx="26.9" cy="80.1" rx="10.7" ry="17" transform="translate(-9.2 3.7) rotate(-6.8)"/><path class="cls-13" d="M37.1,76.2a10.5,10.5,0,0,0-.5-1.9C38,82.8,35.1,91,29.8,93.1s-11-2.7-13.4-10.6l.3,1.6c2,9,8.3,14.6,13.9,12.4S39.2,85.2,37.1,76.2Z"/><ellipse class="cls-14" cx="51.7" cy="120.8" rx="7.6" ry="8.8" transform="translate(-27.3 15.8) rotate(-13.8)"/><path class="cls-15" d="M59.2,120a7.7,7.7,0,0,0-.8-2.7c.6,4.7-2.1,8.9-6.2,9.3s-6.6-1.8-8.1-5.2a.4.4,0,0,0,.1.3c.7,4.8,4.6,8.3,8.8,7.9S59.9,124.8,59.2,120Z"/><path class="cls-16" d="M97.3,76.8c3.5,3.2,3,10.6-.9,16.5s-10,8.2-13.4,5-3-10.6.9-16.6S93.9,73.6,97.3,76.8Z"/><path class="cls-17" d="M85.4,83.2c3.8-5.5,9.2-7.8,12.7-5.5a3.4,3.4,0,0,0-.8-.9c-3.4-3.2-9.4-1-13.4,4.9S79.5,95.1,83,98.3l.7.6C81.2,95.3,81.8,88.7,85.4,83.2Z"/><path class="cls-18" d="M86.6,114.7c1.2,2.8-1.2,7.1-5.2,9.5s-8.1,2.1-9.3-.7,1.2-7.2,5.2-9.6S85.5,111.8,86.6,114.7Z"/><path class="cls-19" d="M87.4,56.7c1.5.9,1.9,3.5,1,5.9s-2.9,3.6-4.3,2.8-1.9-3.5-1-5.9S86,55.9,87.4,56.7Z"/><path class="cls-19" d="M102.3,65.9c.7.4.9,1.7.4,2.8s-1.3,1.8-2,1.4a2.3,2.3,0,0,1-.5-2.9C100.6,66.1,101.6,65.5,102.3,65.9Z"/><path class="cls-19" d="M66.8,41.9c.1-.8,1.3-1.4,2.5-1.4s2.1.7,2,1.5-1.3,1.4-2.6,1.4S66.6,42.7,66.8,41.9Z"/><path class="cls-19" d="M32.5,105c1-.2,2.3.8,2.9,2.2s.3,2.8-.7,3.1-2.3-.8-2.9-2.2S31.5,105.2,32.5,105Z"/><g class="cls-20"><path class="cls-19" d="M64,9.1c-.2,1.1-1.6,2-3.3,2s-2.9-.9-2.7-1.9,1.6-2,3.3-2S64.2,8,64,9.1Z"/></g><g class="cls-20"><path class="cls-19" d="M9.6,52.9c1.5-.1,3.1,1.8,3.6,4s-.4,4.2-1.9,4.3-3.2-1.7-3.7-4S8,53,9.6,52.9Z"/></g><g class="cls-20"><path class="cls-21" d="M59.5,95.3c.7.4,1,1.8.5,3s-1.5,1.9-2.3,1.5-.9-1.8-.5-3.1S58.7,94.8,59.5,95.3Z"/></g><path class="cls-22" d="M50.6,58A6.6,6.6,0,0,1,49,51c1-2.6,3.3-5,8.3-4.2,10,1.6,15.2,10.8,14.4,16.3S64.9,81.9,58.9,76.3,54.8,62.3,50.6,58Z"/><path class="cls-23" d="M49.8,53.8c1-2.6,3.3-5,8.3-4.2A17.5,17.5,0,0,1,71.6,60.2,17.2,17.2,0,0,0,57.3,46.8C52.3,46,50,48.4,49,51a6.1,6.1,0,0,0,.4,5.3A4.4,4.4,0,0,1,49.8,53.8Z"/><path class="cls-24" d="M54.1,65.8c.3,1.3.7,2.7,1.1,4A38.4,38.4,0,0,0,54.1,65.8Z"/><path class="cls-25" d="M116.7,41.3a15.8,15.8,0,0,0-10.6,1.5C96,48.2,49.2,62.2,47.7,73.9c-1.4,10.2.5,47.7,15.8,65-1.5.2-3.1.2-4.7.3l-5-.2a18,18,0,0,1-8.9-3.1c-6.8-4.5-20.5-14.4-22.9-20.6C18.8,106.9-.4,66.1,0,55S4,28.2,15.6,23.8,46.7,8.2,55.5,1.8A10.9,10.9,0,0,1,59,.3c-6.3,7.1-18.7,23.2-13.1,32C53.4,44,71,56.8,92.8,43.4a155.3,155.3,0,0,0,19.8-13.9l1.2.7C115.7,31,116.8,35.1,116.7,41.3Z"/><path class="cls-26" d="M5.2,44.2S34.3,61.1,40.1,62.7s71.7-28,74.3-29.1.1.3.1.3S47.7,66.4,46.6,69.1s-.5,22.1-.5,22.1-.5-18.9-3.2-21.3S5.2,44.2,5.2,44.2Z"/><path class="cls-27" d="M116.7,40v1.3a69.4,69.4,0,0,1-1.3,10.9c-2.4,11.9-13.2,64.3-19.2,69.4S81.9,137,63.5,138.9c-1.5.2-3.1.2-4.7.3l-5-.2a18.6,18.6,0,0,1-7.3-2.1l5-.7c38.6-3.3,32.6-64.9,45.2-82.4A35.2,35.2,0,0,1,116.7,40Z"/><circle class="cls-28" cx="43.9" cy="71.6" r="19.5" transform="matrix(0.16, -0.99, 0.99, 0.16, -33.75, 103.72)"/></g></g></g></svg>