<svg xmlns="http://www.w3.org/2000/svg" xmlns:xlink="http://www.w3.org/1999/xlink" viewBox="0 0 108.5 107.1"><defs><style>.cls-1{isolation:isolate;}.cls-2{fill:url(#linear-gradient);}.cls-3{fill:#fff;opacity:0.65;mix-blend-mode:color-dodge;}.cls-4{fill:#87000d;}.cls-5{fill:url(#linear-gradient-2);}.cls-6{fill:#fcfe02;}.cls-7{fill:url(#linear-gradient-3);}.cls-8{fill:url(#linear-gradient-4);}.cls-9{fill:url(#linear-gradient-5);}.cls-10{opacity:0.35;mix-blend-mode:color-burn;fill:url(#linear-gradient-6);}.cls-11{fill:#fff7f5;opacity:0.5;mix-blend-mode:overlay;}</style><linearGradient id="linear-gradient" x1="-48.9" y1="-14.15" x2="51.51" y2="17.37" gradientTransform="translate(49.5 52.5) rotate(-7.5)" gradientUnits="userSpaceOnUse"><stop offset="0" stop-color="#ff5f06"/><stop offset="0.02" stop-color="#fd5c0a"/><stop offset="0.34" stop-color="#de353c"/><stop offset="0.62" stop-color="#c81861"/><stop offset="0.85" stop-color="#bb0678"/><stop offset="0.99" stop-color="#b60080"/></linearGradient><linearGradient id="linear-gradient-2" x1="-35.93" y1="25.73" x2="58.05" y2="25.73" gradientTransform="translate(49.5 52.5) rotate(-7.5)" gradientUnits="userSpaceOnUse"><stop offset="0.01" stop-color="#ffbb2f"/><stop offset="0.1" stop-color="#ffc626"/><stop offset="0.33" stop-color="#ffdd13"/><stop offset="0.48" stop-color="#ffe50c"/><stop offset="0.55" stop-color="#ffc00c"/><stop offset="0.64" stop-color="#ff9c0c"/><stop offset="0.73" stop-color="#ff800c"/><stop offset="0.81" stop-color="#ff6c0c"/><stop offset="0.9" stop-color="#ff600c"/><stop offset="0.98" stop-color="#ff5c0c"/></linearGradient><linearGradient id="linear-gradient-3" x1="-45.42" y1="-3.23" x2="52.95" y2="-3.23" xlink:href="#linear-gradient-2"/><linearGradient id="linear-gradient-4" x1="-31.92" y1="-39.61" x2="19.21" y2="-39.61" gradientTransform="translate(49.5 52.5) rotate(-7.5)" gradientUnits="userSpaceOnUse"><stop offset="0.01" stop-color="#ffbb2f"/><stop offset="0.1" stop-color="#ffc626"/><stop offset="0.33" stop-color="#ffdd13"/><stop offset="0.48" stop-color="#ffe50c"/><stop offset="0.52" stop-color="#ffdf11"/><stop offset="0.68" stop-color="#ffcb22"/><stop offset="0.84" stop-color="#ffbf2c"/><stop offset="1" stop-color="#ffbb2f"/></linearGradient><linearGradient id="linear-gradient-5" x1="-49.55" y1="-18.62" x2="32.95" y2="-18.62" xlink:href="#linear-gradient-2"/><linearGradient id="linear-gradient-6" x1="4.33" y1="55.62" x2="17.63" y2="-44.83" gradientTransform="translate(49.5 52.5) rotate(-7.5)" gradientUnits="userSpaceOnUse"><stop offset="0" stop-color="#1c0067"/><stop offset="0.1" stop-color="#1c007f"/><stop offset="0.29" stop-color="#1c00a5"/><stop offset="0.47" stop-color="#1c00c2"/><stop offset="0.65" stop-color="#1c00d7"/><stop offset="0.83" stop-color="#1c00e4"/><stop offset="1" stop-color="#1c00e8"/></linearGradient></defs><title>3</title><g class="cls-1"><g id="Layer_2" data-name="Layer 2"><g id="Layer_1-2" data-name="Layer 1"><path class="cls-2" d="M106.3,47.6c0,.4.1.8.1,1.2s.2,2.2.3,3.3v.6a47,47,0,0,1-1.1,12.5,14.2,14.2,0,0,1-.5,2.2A52.4,52.4,0,0,1,61,106.6l-1.3.2h-.9a51.2,51.2,0,0,1-24.1-3.5l-1.5-.6A51.1,51.1,0,0,1,20.6,95l-.4-.3-1.3-1.2-.9-.8-1.4-1.4a49,49,0,0,1-6.1-7.4l-.8-1.2c0-.1-.1-.1-.1-.2L8.5,80.7c-.2-.4-.5-.8-.7-1.3a4.3,4.3,0,0,1-.4-.7l-.3-.6a54,54,0,0,1-3.3-8.2l-.6-2.2a28,28,0,0,1-.6-2.8A21.4,21.4,0,0,1,2,61.4,51.6,51.6,0,0,1,5.7,34a26.4,26.4,0,0,1,1.8-3.8c0-.1,0-.2.1-.2a43.4,43.4,0,0,1,4.3-6.8l1-1.4.4-.5,3.5-3.9A52.2,52.2,0,0,1,47.2,2.3l4.2-.4h.5a66.3,66.3,0,0,1,10,.5l1.7.3a52.6,52.6,0,0,1,9.6,2.7l.4.2.4.2,1.5.6,1.2.6,2,1A48.4,48.4,0,0,1,89,15.1l1.2,1.1a54,54,0,0,1,5.6,6.1h0c1,1.2,1.8,2.5,2.7,3.8h-.1l.7,1.1.7,1.1.6,1.2A50.3,50.3,0,0,1,105,41,64.2,64.2,0,0,1,106.3,47.6Z"/><path class="cls-3" d="M106.3,47.6c0,.4.1.8.1,1.2s.2,2.2.3,3.3v.6a47,47,0,0,1-1.1,12.5,14.2,14.2,0,0,1-.5,2.2A52.4,52.4,0,0,1,61,106.6l-1.3.2h-.9a55.7,55.7,0,0,0,43.1-37,27.6,27.6,0,0,0,.8-2.7,8.3,8.3,0,0,0,.4-1.5l.6-2.3c.4-2.1.7-4.1.9-6.3a.6.6,0,0,1,.1-.4c0-.9.1-1.7.1-2.6s0-2.6,0-4a26.9,26.9,0,0,0-.3-4c0-.5-.1-.9-.1-1.4a28.7,28.7,0,0,1-.5-3.1,51.7,51.7,0,0,0-3.8-11.9,8.4,8.4,0,0,0-.6-1.4,20,20,0,0,0-1-2.1h-.1l.7,1.1.7,1.1.6,1.2A50.3,50.3,0,0,1,105,41,64.2,64.2,0,0,1,106.3,47.6Z"/><path class="cls-4" d="M63.6,2.7c.5,5.7-.1,14.3-7.5,18-10.7,5.4-33.6,14.4-44.2,2.5l1-1.4.4-.5a3.8,3.8,0,0,0,2,1c7.2,1.1,27.7,1.9,33.2-4.2s9.4-8,4.9-12.8a5.3,5.3,0,0,1-1.5-3.4,66.3,66.3,0,0,1,10,.5Z"/><path class="cls-4" d="M78.7,8a35.3,35.3,0,0,1,.4,4.2C79.3,21,77,37.3,56.5,41.8c-22.7,5-23.2,5.4-26.4,7.8s-11.4.3-15.6,2.2-9,7.4-11.3,15.9a28,28,0,0,1-.6-2.8A21.4,21.4,0,0,1,2,61.4,51.6,51.6,0,0,1,5.7,34l.7-1.5c-.9,5.9-.8,13.6,5.5,14.8a45.8,45.8,0,0,0,8.6,1.1h2.3a9.4,9.4,0,0,0,6.6-2.7c2.7-2.7,13.2-2.5,20.2-4.4s21.9-9.3,23.6-14S77,15.7,75.8,7.8l-.3-1.4,1.2.6Z"/><path class="cls-4" d="M100.5,29.6c-2.7.7-6.2,3.7-10.1,12.5C82.1,60.6,86.8,58.2,79,64.3S58.2,79.1,49.4,79.7c-7.3.4-29.5.1-38.9,4.2l-.8-1.2c-.7-1.1-1.3-2.2-1.9-3.3A21.5,21.5,0,0,1,17,77.5c12.6-.1,26.8.8,34.4-2.2S79.2,62.9,81.9,54.9s11-18.5,8-38.6a48.7,48.7,0,0,1,5.9,6.1h0a55.7,55.7,0,0,1,4,5.9Z"/><path class="cls-4" d="M106.7,52.7a47,47,0,0,1-1.1,12.5,14.2,14.2,0,0,1-.5,2.2c-3,2-5.8,4.5-7,7.3-3.3,7.5-11.2,18.4-28,21.4-15,2.7-27.2-1.1-35.4,7.3l-1.5-.6A51.1,51.1,0,0,1,20.6,95a75.3,75.3,0,0,0,16.7,1.4c11.9-.6,21.8-2.5,29.8-6.3S81,85,82.6,78s5.9-12.5,14.3-15.3A14.6,14.6,0,0,0,106.7,52.7Z"/><path class="cls-5" d="M106.4,48.8c2.3,4.4,3.7,10.4-.8,16.4-3.4,2.2-6.9,5-8.3,8.2C94,80.9,86.1,91.8,69.2,94.8c-15.3,2.8-27.7-1.3-36,8-8.1.7-15.1-6.5-14.3-9.3a76.3,76.3,0,0,0,17.6,1.6c11.9-.6,21.8-2.5,29.8-6.3s13.9-5.1,15.5-12.1,5.9-12.5,14.3-15.3C102.7,59.1,105.6,54.3,106.4,48.8Z"/><path class="cls-6" d="M19.6,94.6a76.5,76.5,0,0,0,17.6,1.5C49.1,95.5,59,93.6,67,89.9s13.9-5.2,15.5-12.2,5.9-12.4,14.3-15.3a14.7,14.7,0,0,0,10.3-12.2c-.2-.4-.4-.9-.7-1.4-.8,5.5-3.7,10.3-10.3,12.6-8.4,2.8-12.7,8.2-14.3,15.3S74.3,85,66.3,88.8s-17.9,5.7-29.8,6.3a76.3,76.3,0,0,1-17.6-1.6c-.3.9.2,2.2,1.3,3.5A3,3,0,0,1,19.6,94.6Z"/><path class="cls-7" d="M69.8,63.8l-.9.9ZM92.9,17.3a31.4,31.4,0,0,0-3.1-1.8l-.8-.4A50.5,50.5,0,0,1,87.7,37a57.1,57.1,0,0,1-3.5,9.2.8.8,0,0,1-.2.5,8.7,8.7,0,0,1-9.2,4.5c-3.5-.7-7.8-1.4-11.3-1.9a50.1,50.1,0,0,0-6-.7c-2.2,0-4.4,1.3-6.6,2.8s-5.2,4-7.8,4c-4.6.1-9,10-10.5,14.1-1,2.5-4,4.6-6.2,5.9a7.2,7.2,0,0,1-3.2.8c-2.2,0-4.5-.1-6.7,0a22.4,22.4,0,0,0-7.8,1.2,2.7,2.7,0,0,0-1.3,1.3,4.9,4.9,0,0,0-.1,1.2,3.6,3.6,0,0,0,1.6,2.4h1.5c9.5-4,31.2-3.6,38.4-4.1,8.7-.6,21.7-9.3,29.4-15.4s3.9-4.1,9-16.6l.6-1.6,1.7-3.8c3.9-8.8,7.5-11.8,10-12.6h.2C97.5,22,95.5,19.2,92.9,17.3Zm-58,50.1v-.3a8.9,8.9,0,0,1,1.2-2.9l.3-.5c.2-.2.3-.4.5-.5l.3-.4v-.2a45.2,45.2,0,0,0,3.1-4c1.1-1.9,4.5-1.1,7.4-2.8s6.1-3.5,8.7-5.4l.9-.7c.1-.2.3-.2.5-.3a13.8,13.8,0,0,1,4,.1l2.8.5h.2a8.2,8.2,0,0,1,3.4,1.6l.3.2.7.8c.1,0,.1.1.2.2l.3.3c.1.1.1.2.2.4s.2.2.2.3a.5.5,0,0,1,.2.4c.1.1.2.2.2.3l.3.7a.4.4,0,0,1,.1.3.4.4,0,0,1,.1.3,1.4,1.4,0,0,1,.2.7c.1.1.1.2.1.4a8.6,8.6,0,0,1,0,3.2c-.1.3-.1.5-.2.8s-.3.8-.4,1.1a9.5,9.5,0,0,1-1,1.7l-.9.9L67.3,66a165.7,165.7,0,0,1-16.5,8,39.8,39.8,0,0,1-8.9,1.8H40.5a3.5,3.5,0,0,1-1.4-.3l-.8-.3a6.9,6.9,0,0,1-3.5-7.3v-.4Z"/><path class="cls-6" d="M43,76.5a34,34,0,0,0,8.9-1.8,124.1,124.1,0,0,0,16.5-8,8.7,8.7,0,0,0-.1-15,8.8,8.8,0,0,1-1,14.3,145.9,145.9,0,0,1-16.5,8,39.8,39.8,0,0,1-8.9,1.8,7.3,7.3,0,0,1-3.6-.7A6.4,6.4,0,0,0,43,76.5Z"/><path class="cls-6" d="M90.2,16.2v.4a49.3,49.3,0,0,1-2.3,24.1c-.7,2.1-1.5,4-2.3,5.8l-.2.5a5.6,5.6,0,0,1-.5.8A8.5,8.5,0,0,1,76,51.9L64.9,50.1h-.2l-2.8-.5a13.8,13.8,0,0,0-4-.1,9,9,0,0,0-3.6,1.4c-3.4,1.9-6.8,5.3-10,5.4s-5,3-7,6.4v.2l-.3.4c-.2.1-.3.3-.5.5l-.3.5a8.9,8.9,0,0,0-1.2,2.9v.3c-.5,1.1-.9,2.1-1.2,2.9-.9,2.5-4,4.6-6.2,5.8a5.5,5.5,0,0,1-3.1.8H17.6a25.1,25.1,0,0,0-7.8,1.3,2.2,2.2,0,0,0-.9.7,2.1,2.1,0,0,0-.4,1.7h0a4.3,4.3,0,0,0,.8,1.8l-.4-.2a3.6,3.6,0,0,1-1.6-2.4,4.9,4.9,0,0,1,.1-1.2,2.7,2.7,0,0,1,1.3-1.3,22.4,22.4,0,0,1,7.8-1.2c2.2-.1,4.5,0,6.7,0a7.2,7.2,0,0,0,3.2-.8c2.2-1.3,5.2-3.4,6.2-5.9,1.5-4.1,5.9-14,10.5-14.1,2.6,0,5.2-2.1,7.8-4s4.4-2.8,6.6-2.8a50.1,50.1,0,0,1,6,.7c3.5.5,7.8,1.2,11.3,1.9A8.7,8.7,0,0,0,84,46.7a.8.8,0,0,0,.2-.5A57.1,57.1,0,0,0,87.7,37,50.5,50.5,0,0,0,89,15.1l.8.4a31.4,31.4,0,0,1,3.1,1.8l-2.8-1.5Z"/><path class="cls-8" d="M58.3.5,54.5,0C53.2-.1,52.7.7,52,1.4a2.8,2.8,0,0,0-.8,1.5c-.5,1.8-.4,3.7,1,5,3.7,3.6.4,5.2-4.4,9.9s-22.3,4.3-28.4,3.6a2.7,2.7,0,0,1-2.6-3.1c0-.4.1-.7,0-.9s-3.2,1-3.5,2.5a3.5,3.5,0,0,0,.8,3.2c9,9.3,30.9.9,40.2-3.4S62.3,6.2,62,2.9l.3-.6C62.3.4,59.7.7,58.3.5Z"/><path class="cls-6" d="M13.5,19.3a3,3,0,0,0,2.9,2.3c6.9.9,26.7,1.3,32.1-4s9.1-7.1,4.9-11.2c-1.5-1.3-1.7-3.2-1.3-5.1H52a2.8,2.8,0,0,0-.8,1.5c-.5,1.8-.4,3.7,1,5,3.7,3.6.4,5.2-4.4,9.9s-22.3,4.3-28.4,3.6a2.7,2.7,0,0,1-2.6-3.1c0-.4.1-.7,0-.9S14.4,18,13.5,19.3Z"/><path class="cls-9" d="M76.7,9a12.7,12.7,0,0,1,0-2,3.2,3.2,0,0,0-2.9-1.4h-.2a.4.4,0,0,0-.2.5c3,8.9.4,15.1-1.1,19.4a10.6,10.6,0,0,1-1,1.7A3.8,3.8,0,0,1,68,28.6c-3.5-.2-9.2-.6-11.4-1s-13.3,0-15,5.2-11.8,4.5-15.4,5.6A1.6,1.6,0,0,0,25,40c.2,3.3-2.2,6-5.4,5.7a45.5,45.5,0,0,1-6.5-.9c-5.8-1.2-6.4-7.7-5.7-13.3,0-.3.1-.7.1-1a.7.7,0,0,1,.1-.5c-.1,0-.1.1-.1.2s-.2-.3-.3-.3-4.3,5.7-5.4,8.7S-2,58.4,2.6,64.9c1.7-9.6,9.9-14.2,13-15.6a14.7,14.7,0,0,1,4.9-.9h2.3c3.4,0,6.7,0,8.5-1.3s3.8-2,26.3-7.7S77.8,15.6,76.9,10.5A10.4,10.4,0,0,1,76.7,9ZM27.8,40.4c.1-.7,1.3-1,1.9-1.2a51.3,51.3,0,0,1,7.5-1.3c3.8-.7,8.3-2.1,9.3-4.7s6.1-4.1,8.4-4.2h0a3.9,3.9,0,0,1,1.7,7.5,38.7,38.7,0,0,1-5.9,2.1c-3.5,1-7.2,1.2-10.8,1.7a34.2,34.2,0,0,0-7.8,1.9c-1.1.4-2,1.1-3.1.5A2.2,2.2,0,0,1,27.8,40.4Z"/><path class="cls-6" d="M29.2,44c1.2.7,2.1-.1,3.2-.5a44.6,44.6,0,0,1,8-2c3.7-.5,7.5-.7,11.1-1.7a45.6,45.6,0,0,0,6-2.2,4.1,4.1,0,0,0,.7-7,3.9,3.9,0,0,1-1.6,5.9,38.7,38.7,0,0,1-5.9,2.1c-3.5,1-7.2,1.2-10.8,1.7a34.2,34.2,0,0,0-7.8,1.9c-1.1.4-2,1.1-3.1.5a2.4,2.4,0,0,1-1-1A2.5,2.5,0,0,0,29.2,44Z"/><path class="cls-6" d="M6.9,30.8c.2-.1.3,0,.3.2v.4a3.6,3.6,0,0,1-.2,1c-.6,5.8,0,12.5,5.9,13.7,2.6.5,4.7.8,6.6,1s5.8-2.5,5.6-5.9a1.5,1.5,0,0,1,1.2-1.7,34.2,34.2,0,0,1,4.7-.7l5.1-.7c2.8-.7,5.2-1.9,6-4.3,1.6-5.4,12-6.2,15.3-5.4a104.3,104.3,0,0,0,11.6,1.1A3.9,3.9,0,0,0,72.4,28a6.9,6.9,0,0,0,1.1-1.7c1.6-4.4,4.2-10.9,1.1-20.1-.1-.2.1-.4.3-.5H73.8c-.3,0-.5.2-.4.5,3,8.9.4,15.1-1.1,19.4a10.6,10.6,0,0,1-1,1.7A3.8,3.8,0,0,1,68,28.6a105.2,105.2,0,0,1-11.4-1c-3.2-.8-13.3,0-15,5.2s-11.8,4.5-15.4,5.6A1.6,1.6,0,0,0,25,40c.2,3.3-2.2,6-5.4,5.7a45.5,45.5,0,0,1-6.5-.9c-5.8-1.2-6.4-7.7-5.7-13.3,0-.3.1-.7.1-1a.9.9,0,0,1,.1-.5c-.1,0-.1.1-.1.2s-.2-.3-.3-.3-4.3,5.7-5.4,8.7a2,2,0,0,0-.2.9C2.7,36.3,6.3,31,6.9,30.8Z"/><path class="cls-10" d="M106.3,47.6c0,.4.1.8.1,1.2s.2,2.2.3,3.3v.6a47,47,0,0,1-1.1,12.5,14.2,14.2,0,0,1-.5,2.2A52.4,52.4,0,0,1,61,106.6l-1.3.2h-.9a51.2,51.2,0,0,1-24.1-3.5l-1.5-.6A51.1,51.1,0,0,1,20.6,95l-.4-.3-1.3-1.2-.9-.8-2.5-2.5h.4a51.7,51.7,0,0,0,26.3,3.3A52.6,52.6,0,0,0,86.3,54.4a22.5,22.5,0,0,0,.5-2.2,29.3,29.3,0,0,0,.5-2.9c.2-1,.3-2.1.4-3.1a7.6,7.6,0,0,0,.1-1.5c.1-1.3.1-2.7.1-4V39.6a22.8,22.8,0,0,0-.2-2.6,4.9,4.9,0,0,0-.1-1.2c0-.4-.1-.8-.1-1.3a51.6,51.6,0,0,0-5.9-18l-.7-1.3c-.5-1-1.2-2-1.8-3L77,9.3h0L76.7,9l-.9-1.2L74,5.8l1.5.6,1.2.6,2,1A48.4,48.4,0,0,1,89,15.1l1.2,1.1a54,54,0,0,1,5.6,6.1h0c1,1.2,1.8,2.5,2.7,3.8h-.1l.7,1.1.7,1.1.6,1.2A50.3,50.3,0,0,1,105,41,64.2,64.2,0,0,1,106.3,47.6Z"/><path class="cls-11" d="M105,41l-1.1.6c-4,2.1-9.3,3.4-15.2,4.4l-1,.2h-.5l-1.6.2h-.1l-1.5.2c-6.3.9-13.3,1.6-20.5,2.6l-1.6.2-5.4.9-2.2.4-3.4.6a118.5,118.5,0,0,0-11.7,3.1c-21.8,7.3-21,19.4-35.4,15.4l-.6-2.2a28,28,0,0,1-.6-2.8C-2,58.4.8,41.7,1.8,38.6s4.7-8.5,5.4-8.7.2.1.3.3,0-.2.1-.2a43.4,43.4,0,0,1,4.3-6.8l1-1.4.4-.5,3.5-3.9A52.2,52.2,0,0,1,47.2,2.3l4.2-.4h.5a66.3,66.3,0,0,1,10,.5l1.7.3a52.6,52.6,0,0,1,9.6,2.7l.4.2h.2A3.2,3.2,0,0,1,76.7,7l2,1A48.4,48.4,0,0,1,89,15.1l.8.4a31.4,31.4,0,0,1,3.1,1.8c2.6,1.9,4.6,4.7,6.9,11l.6,1.2A50.3,50.3,0,0,1,105,41Z"/></g></g></g></svg>