<svg xmlns="http://www.w3.org/2000/svg" xmlns:xlink="http://www.w3.org/1999/xlink" viewBox="0 0 107 107"><defs><style>.cls-1{isolation:isolate;}.cls-2{fill:url(#linear-gradient);}.cls-3{fill:url(#linear-gradient-2);}.cls-4{fill:url(#linear-gradient-3);}.cls-5{fill:url(#linear-gradient-4);}.cls-6{fill:url(#linear-gradient-5);}.cls-7{fill:url(#linear-gradient-6);}.cls-12,.cls-13,.cls-8{fill:#fff;}.cls-8{opacity:0.65;}.cls-11,.cls-13,.cls-8{mix-blend-mode:color-dodge;}.cls-9{mix-blend-mode:color-burn;fill:url(#linear-gradient-7);}.cls-10{fill:#fff7f5;mix-blend-mode:overlay;}.cls-10,.cls-11,.cls-13{opacity:0.5;}.cls-11{fill:url(#radial-gradient);}</style><linearGradient id="linear-gradient" x1="2.13" y1="12.88" x2="86.07" y2="79.25" gradientUnits="userSpaceOnUse"><stop offset="0" stop-color="#ff91a7"/><stop offset="0.1" stop-color="#fc8aa9"/><stop offset="0.24" stop-color="#f275ae"/><stop offset="0.42" stop-color="#e353b7"/><stop offset="0.62" stop-color="#ce25c3"/><stop offset="0.76" stop-color="#bd00cc"/><stop offset="1" stop-color="#8b00cc"/></linearGradient><linearGradient id="linear-gradient-2" x1="72.57" y1="105.9" x2="72.57" y2="0.2" gradientUnits="userSpaceOnUse"><stop offset="0" stop-color="#e56ccb"/><stop offset="0.57" stop-color="#f592dd"/><stop offset="1" stop-color="#ffabe9"/></linearGradient><linearGradient id="linear-gradient-3" x1="84.4" y1="26.93" x2="93.72" y2="26.93" gradientUnits="userSpaceOnUse"><stop offset="0" stop-color="#e56ccb"/><stop offset="0.34" stop-color="#e369c9"/><stop offset="0.64" stop-color="#dc5ec2"/><stop offset="0.93" stop-color="#d04cb6"/><stop offset="1" stop-color="#cc46b2"/></linearGradient><linearGradient id="linear-gradient-4" x1="71.31" y1="82.62" x2="106.46" y2="82.62" xlink:href="#linear-gradient-3"/><linearGradient id="linear-gradient-5" x1="23.88" y1="98.74" x2="23.88" y2="30.17" gradientUnits="userSpaceOnUse"><stop offset="0" stop-color="#cc4db0"/><stop offset="0.26" stop-color="#db70c0"/><stop offset="0.76" stop-color="#f5aede"/><stop offset="1" stop-color="#ffc7e9"/></linearGradient><linearGradient id="linear-gradient-6" x1="40.31" y1="105.32" x2="40.31" y2="0.97" xlink:href="#linear-gradient-5"/><linearGradient id="linear-gradient-7" x1="14.68" y1="54.8" x2="107.02" y2="54.8" gradientUnits="userSpaceOnUse"><stop offset="0" stop-color="#fff7f5"/><stop offset="0.16" stop-color="#f9eff3"/><stop offset="0.41" stop-color="#e7d8ed"/><stop offset="0.73" stop-color="#cbb4e4"/><stop offset="1" stop-color="#ae8edb"/></linearGradient><radialGradient id="radial-gradient" cx="41.64" cy="43.53" r="34.07" gradientUnits="userSpaceOnUse"><stop offset="0" stop-color="#fff"/><stop offset="0.12" stop-color="#e8e8e8"/><stop offset="0.37" stop-color="#acacac"/><stop offset="0.72" stop-color="#4e4e4e"/><stop offset="1"/></radialGradient></defs><title>4</title><g class="cls-1"><g id="Layer_2" data-name="Layer 2"><g id="Layer_1-2" data-name="Layer 1"><path class="cls-2" d="M107,53.5c0,1,0,2.1-.1,3.1s-.2,3.1-.4,4.6a1.3,1.3,0,0,0-.1.6,53.1,53.1,0,0,1-4.6,14.8A53.8,53.8,0,0,1,71.3,104a52.4,52.4,0,0,1-17.8,3,56,56,0,0,1-10.9-1.1l-1.4-.3-1.1-.3-4.6-1.4a52.1,52.1,0,0,1-10.6-5.2h-.2L22.3,97a60.4,60.4,0,0,1-7.2-6.2l-1.8-2A51.8,51.8,0,0,1,4.4,74.7a26.2,26.2,0,0,1-1.5-3.9,36.4,36.4,0,0,1-1.4-4.7,54.1,54.1,0,0,1,0-25.3c.5-1.8,1-3.5,1.6-5.2A53.1,53.1,0,0,1,14.3,17.1,39.4,39.4,0,0,1,19,12.7a43.6,43.6,0,0,1,6.5-4.8A51.9,51.9,0,0,1,39.8,1.8L43.4,1A47.4,47.4,0,0,1,53.5,0l4.6.2a46.3,46.3,0,0,1,6.5,1,52.8,52.8,0,0,1,29.1,17,52.2,52.2,0,0,1,10.1,17l.2.5A54.9,54.9,0,0,1,107,53.5Z"/><path class="cls-3" d="M104,35.7C94,40.5,95.5,43,83.3,71.1c-9.8,22.3-31.4,31.7-40.7,34.8l-1.4-.3C83.8,82.5,82.9,50.4,79.9,26.7,78,11.8,66.6,4,58.1.2a46.3,46.3,0,0,1,6.5,1C92,15.6,82.9,62.5,80.4,70.3s3.7-3.6,8.8-19.9c4.1-13,11.7-14.9,14.6-15.2Z"/><path class="cls-4" d="M93.7,18.2c-2.3,5.5-3.4,15.7-4.2,22.9-1.1,9.1-.5-4.6-.5-17.3,0-5-2.1-9.9-4.6-14A53.1,53.1,0,0,1,93.7,18.2Z"/><path class="cls-5" d="M90.5,76.5c-1.4,7.3.6,7.3,11.3.1A54.1,54.1,0,0,1,71.3,104a26.8,26.8,0,0,0,5.8-7.6c7.7-15.5,13.6-28.5,29.4-35.1a.7.7,0,0,0-.1.5C101.1,64.7,91.6,70.7,90.5,76.5Z"/><path class="cls-6" d="M47.4,69c-.6,7.2-3.4,20.8-22.5,29.7h-.2A32.7,32.7,0,0,0,39.1,80.9c6.3-19,3.7-37.5-11.6-35.1,0,0-5.5,1.2-6.5,12.4s2.8,25.1-7.7,30.6A51.8,51.8,0,0,1,4.4,74.7a8.9,8.9,0,0,0,7-3.1c4.8-5.2,6.2-9.1,7-14.6A56.2,56.2,0,0,1,21,46.1c1-2.9-3.6-7.4-9.8-.7S2.3,56.7,1.5,66A51.6,51.6,0,0,1,0,53.5,53,53,0,0,1,3.1,35.6c6.3-4.7,15-7.8,25.5-3C49.5,42.3,48.2,59.7,47.4,69Z"/><path class="cls-7" d="M60,84c-3.8,9.5-11.4,16.4-19.9,21.3l-4.6-1.4c11.4-8.6,21.3-22.5,21.6-44.7.6-41.6-29.4-43.4-42.8-42.1A39.4,39.4,0,0,1,19,12.7c28.4-2.3,39.8,22.4,39.8,22.4C56.6,11.6,46.3,4.2,39.8,1.8L43.4,1C68,15,71.6,55.7,60,84Z"/><path class="cls-8" d="M106.1,43.4a55.5,55.5,0,0,1,.6,8.2,52.9,52.9,0,0,1-.6,8c0,.2-.1.4-.1.6a52.7,52.7,0,0,1-4.7,15.2,55.1,55.1,0,0,1-49.9,31.4H47.9A53.9,53.9,0,0,0,71.3,104a54.1,54.1,0,0,0,30.5-27.4,53.1,53.1,0,0,0,4.6-14.8.7.7,0,0,1,.1-.5,68.1,68.1,0,0,0,.5-7.8A56.6,56.6,0,0,0,106.1,43.4Z"/><path class="cls-9" d="M104,35.7l-.2-.5A54.1,54.1,0,0,0,84.4,9.8,54,54,0,0,0,70,2.6l1.4,1.5a53.7,53.7,0,0,1,10,17,.8.8,0,0,1,.2.4,53,53,0,0,1,3.1,17.9,49,49,0,0,1-.6,7.7c0,.2-.1.4-.1.6a53.1,53.1,0,0,1-4.6,14.8A53.5,53.5,0,0,1,48.9,89.9a54.5,54.5,0,0,1-17.8,3,56,56,0,0,1-10.9-1.1l-1.4-.3-1.1-.3-3-.9.4.5A53.5,53.5,0,0,0,22.3,97l2.4,1.6h.2a52.1,52.1,0,0,0,10.6,5.2l4.6,1.4,1.1.3,1.4.3A56,56,0,0,0,53.5,107a52.4,52.4,0,0,0,17.8-3,54.1,54.1,0,0,0,30.5-27.4,53.1,53.1,0,0,0,4.6-14.8.7.7,0,0,1,.1-.5,68.1,68.1,0,0,0,.5-7.8A54.5,54.5,0,0,0,104,35.7Z"/><path class="cls-10" d="M107,53.5c0,1,0,2.1-.1,3.1C94.6,71.1,54.1,59,29.6,43.7,19,37.1,9.4,37.6,1.5,40.8c.5-1.8,1-3.5,1.6-5.2A53.1,53.1,0,0,1,14.3,17.1,39.4,39.4,0,0,1,19,12.7,51.3,51.3,0,0,1,39.8,1.8L43.4,1A47.4,47.4,0,0,1,53.5,0l4.6.2a46.3,46.3,0,0,1,6.5,1,52.8,52.8,0,0,1,29.1,17,53.2,53.2,0,0,1,10.1,17l.2.5A54.5,54.5,0,0,1,107,53.5Z"/><circle class="cls-11" cx="41.6" cy="43.5" r="34.1"/><path class="cls-12" d="M32.3,36.3c-3.3,6.5-9,10.1-12.8,8.2s-4.1-8.7-.8-15.1,9-10.1,12.7-8.2S35.5,29.9,32.3,36.3Z"/><path class="cls-12" d="M31.9,55.3c-1.2,1.8-3,2.7-4.1,2s-.9-2.7.4-4.5,3-2.7,4-2S33.1,53.6,31.9,55.3Z"/><path class="cls-13" d="M2.9,70.8a36.4,36.4,0,0,1-1.4-4.7,54.1,54.1,0,0,1,0-25.3c.5-1.8,1-3.5,1.6-5.2A53.1,53.1,0,0,1,14.3,17.1,39.4,39.4,0,0,1,19,12.7a43.6,43.6,0,0,1,6.5-4.8C12.4,18.9-2.2,38.8,2.9,70.8Z"/></g></g></g></svg>