<svg xmlns="http://www.w3.org/2000/svg" xmlns:xlink="http://www.w3.org/1999/xlink" viewBox="0 0 106.2 106.2"><defs><style>.cls-1{isolation:isolate;}.cls-2{fill:url(#linear-gradient);}.cls-3,.cls-5,.cls-8{opacity:0.5;}.cls-3,.cls-4,.cls-5,.cls-6,.cls-7{mix-blend-mode:color-burn;}.cls-3{fill:url(#linear-gradient-2);}.cls-10,.cls-4,.cls-6{opacity:0.65;}.cls-4{fill:url(#linear-gradient-3);}.cls-5{fill:url(#linear-gradient-4);}.cls-6{fill:url(#linear-gradient-5);}.cls-7{fill:url(#linear-gradient-6);}.cls-8{fill:#fff7f5;mix-blend-mode:overlay;}.cls-10,.cls-9{fill:#fff;}.cls-10{mix-blend-mode:color-dodge;}</style><linearGradient id="linear-gradient" x1="7.8" y1="42.31" x2="111.11" y2="66.9" gradientUnits="userSpaceOnUse"><stop offset="0" stop-color="#78f7f4"/><stop offset="0.12" stop-color="#80bff1"/><stop offset="0.24" stop-color="#878dee"/><stop offset="0.36" stop-color="#8d61eb"/><stop offset="0.48" stop-color="#923ee9"/><stop offset="0.61" stop-color="#9623e7"/><stop offset="0.73" stop-color="#990fe6"/><stop offset="0.86" stop-color="#9a04e5"/><stop offset="0.99" stop-color="#9b00e5"/></linearGradient><linearGradient id="linear-gradient-2" x1="0.81" y1="38.52" x2="91.36" y2="38.52" gradientUnits="userSpaceOnUse"><stop offset="0" stop-color="#b046e7"/><stop offset="0.04" stop-color="#ad4aea"/><stop offset="0.18" stop-color="#a853f0"/><stop offset="0.43" stop-color="#a755f2"/><stop offset="0.66" stop-color="#a141eb"/><stop offset="0.97" stop-color="#9820e0"/></linearGradient><linearGradient id="linear-gradient-3" x1="26.94" y1="77.26" x2="106.19" y2="77.26" xlink:href="#linear-gradient-2"/><linearGradient id="linear-gradient-4" x1="3.69" y1="23.4" x2="74.41" y2="23.4" xlink:href="#linear-gradient-2"/><linearGradient id="linear-gradient-5" x1="0.13" y1="58.87" x2="103.53" y2="58.87" xlink:href="#linear-gradient-2"/><linearGradient id="linear-gradient-6" x1="13.54" y1="54.48" x2="106.19" y2="54.48" gradientUnits="userSpaceOnUse"><stop offset="0" stop-color="#fff7f5"/><stop offset="0.16" stop-color="#f9eff3"/><stop offset="0.41" stop-color="#e7d8ed"/><stop offset="0.73" stop-color="#cbb4e4"/><stop offset="1" stop-color="#ae8edb"/></linearGradient></defs><title>5</title><g class="cls-1"><g id="Layer_2" data-name="Layer 2"><g id="Layer_1-2" data-name="Layer 1"><path class="cls-2" d="M106.2,53.1A53.1,53.1,0,0,1,13.5,88.4,54.7,54.7,0,0,1,4.6,74.7,53.6,53.6,0,0,1,.1,56.8c0-.7-.1-1.4-.1-2.1A56.6,56.6,0,0,1,.8,43.8a61.7,61.7,0,0,1,1.9-7.4,10.7,10.7,0,0,1,.7-1.9A53.2,53.2,0,0,1,69,2.4l1.1.4a50.7,50.7,0,0,1,13.7,7,48.2,48.2,0,0,1,6.9,5.8,62.1,62.1,0,0,1,6.1,7.3,50.8,50.8,0,0,1,6.1,11.8c.6,1.5,1,3,1.5,4.5a69.3,69.3,0,0,1,1.6,9.1C106.1,49.9,106.2,51.5,106.2,53.1Z"/><path class="cls-3" d="M90.7,15.6a48.2,48.2,0,0,0-6.9-5.8c7.7,10.6-.6,24.8-7.7,28.1S64.5,43.1,61.4,48.2,50.9,55.6,47.7,56s-6.2-1.6-10.6.7a22.3,22.3,0,0,1-8.3,2.7c-20.2,0-25-15.9-26.1-23A61.7,61.7,0,0,0,.8,43.8c2,17.2,9.3,22.4,12.3,22.5S23.6,62.7,31,65.2s17.2,3.7,20.6-2.3,12.9-8.5,19.1-7.6,11.9-1.1,12.5-6.4-.2-3.4,5.2-16.1C92.3,23.7,91.5,18.1,90.7,15.6Zm-74,47.3c-.9,1.7-3.6,1.9-6,.6S7.3,59.7,8.3,58s3.6-2,6-.6S17.7,61.2,16.7,62.9ZM40,61.1c-1.1.4-2.2,0-2.4-.7s.4-1.7,1.4-2.1a1.9,1.9,0,0,1,2.5.8A1.8,1.8,0,0,1,40,61.1ZM76.5,49c-2.7,1.8-5.7,1.9-6.9.2s.2-4.4,2.9-6.2,5.7-1.8,6.8-.2S79.1,47.3,76.5,49Z"/><path class="cls-4" d="M106,48.3a53.5,53.5,0,0,0-1.1,8.8c-1.6,28-23.1,34.8-30.4,34S62,98.4,50.8,102.2c-6,2.1-15.9-.3-23.9-3a53,53,0,0,0,79.3-46.1C106.2,51.5,106.1,49.9,106,48.3ZM62.5,103.2c-1.1.6-2.2.5-2.6-.1s.2-1.6,1.2-2.2,2.2-.6,2.6,0S63.5,102.6,62.5,103.2ZM71.6,99c-2.1,1.2-4.4,1.1-5.1-.1s.4-3.3,2.5-4.5,4.4-1.2,5.1.1S73.7,97.8,71.6,99Z"/><path class="cls-5" d="M73.7,9.4a12.6,12.6,0,0,0-9.5-8.2A51,51,0,0,0,53.1,0,53.1,53.1,0,0,0,3.8,33.3a1.6,1.6,0,0,0,1.1,2.2c5.6,1.5,7.1-2.9,10.3,2.9S21,50.6,33.7,44a8.9,8.9,0,0,1,5.4-2.1c9.6.1,4.9-6.6,8.7-11.3s10.7-4.5,17.8-6.3C70.7,23,76.4,16.9,73.7,9.4Zm-61.8,23c-.7.5-1.9,0-2.7-1s-.8-2.4-.1-2.9a2.1,2.1,0,0,1,2.7,1C12.6,30.6,12.6,31.9,11.9,32.4Zm16.4,8.5c-1.6.3-3-.3-3.2-1.4s.9-2.2,2.4-2.5,3,.4,3.2,1.4S29.8,40.6,28.3,40.9Zm12.8-3.8c-2.3,1.6-5,1.6-6.1,0s-.1-4.1,2.2-5.7,5-1.6,6.1,0S43.4,35.5,41.1,37.1Zm11.1-14c-7.9,2.7-10.6,2.2-15.8,2.4S26.4,40.8,16.3,31,31.5,9.1,31.5,9.1s16.3-8,28.6-5.6S60.1,20.4,52.2,23.1ZM71.1,12c-.2,2-1.2,3.5-2.3,3.4s-1.8-1.8-1.6-3.8,1.3-3.5,2.3-3.4S71.3,10,71.1,12Z"/><path class="cls-6" d="M102.7,41.7c-.9-4.3-.5-6.2.2-7a50.8,50.8,0,0,0-6.1-11.8h-.2c8.5,21.2-.2,30.6-5.6,32.6S81,60,79.2,66.3s-4.4,5.1-14.9-.7S52.2,72.3,50.7,79.7s-10.3,5.5-17,1.5-12.3-1.7-18.7,0S3,64.9.1,56.8A53.6,53.6,0,0,0,4.6,74.7a86,86,0,0,1,9.5,10.8C25,99.7,45.3,95,48.4,89.5s6-4.9,12.7-1.3,9.8-.5,5.4-6.8-1.4-6.7,6.3-4.2,14.9,0,15.1-8.9,4.2-11.6,9.6-12.9S104.7,50.6,102.7,41.7ZM28.8,86.1c-.4,1.6-3.2,2.4-6.1,1.7s-5.1-2.6-4.7-4.3,3.1-2.4,6.1-1.7S29.1,84.4,28.8,86.1Zm6.4,5.2c-1.6-.2-2.8-1-2.7-1.9s1.4-1.4,3-1.3,2.7,1,2.7,1.9S36.7,91.4,35.2,91.3ZM55.9,76.6c-1.6-.9-1.8-3.9-.4-6.7s4-4.5,5.6-3.7,1.9,3.8.4,6.7S57.6,77.4,55.9,76.6Zm7.4,7.9c-.9,1.1-2,1.5-2.7,1s-.4-1.7.4-2.7,2.1-1.6,2.7-1.1S64.1,83.4,63.3,84.5ZM84.9,64.4c-.8,1-2,1.5-2.6,1s-.4-1.7.4-2.8,2-1.5,2.6-1S85.8,63.3,84.9,64.4Z"/><path class="cls-7" d="M106.2,53.1A53.1,53.1,0,0,1,13.5,88.4C87,85.5,76,24,70.1,2.8a50.7,50.7,0,0,1,13.7,7,48.2,48.2,0,0,1,6.9,5.8,62.1,62.1,0,0,1,6.1,7.3,50.8,50.8,0,0,1,6.1,11.8A51.8,51.8,0,0,1,106,48.3C106.1,49.9,106.2,51.5,106.2,53.1Z"/><path class="cls-8" d="M104.4,39.2C96.6,51.6,74.7,66.5,43.1,57.3,23.1,51.4,7.6,46.5,0,54.7A56.6,56.6,0,0,1,.8,43.8a61.7,61.7,0,0,1,1.9-7.4,10.7,10.7,0,0,1,.7-1.9A53.2,53.2,0,0,1,69,2.4l1.1.4a50.7,50.7,0,0,1,13.7,7,48.2,48.2,0,0,1,6.9,5.8,62.1,62.1,0,0,1,6.1,7.3,50.8,50.8,0,0,1,6.1,11.8C103.5,36.2,103.9,37.7,104.4,39.2Z"/><ellipse class="cls-9" cx="19.1" cy="35.6" rx="11.1" ry="7.1" transform="translate(-21.1 38.9) rotate(-66.6)"/><path class="cls-9" d="M29.4,54.3c-1.1,2.4-3,3.9-4.2,3.3s-1.2-2.9-.1-5.3,3.1-3.9,4.2-3.3S30.5,51.9,29.4,54.3Z"/><path class="cls-10" d="M106,48.3a69.3,69.3,0,0,0-1.6-9.1c-.5-1.5-.9-3-1.5-4.5a50.8,50.8,0,0,0-6.1-11.8,62.1,62.1,0,0,0-6.1-7.3,48.2,48.2,0,0,0-6.9-5.8,50.7,50.7,0,0,0-13.7-7L69,2.4l-3.9-1,2.4.6,1.1.4a53.7,53.7,0,0,1,13.7,7,48.2,48.2,0,0,1,6.9,5.8,60.5,60.5,0,0,1,6.1,7.3,50.8,50.8,0,0,1,6.1,11.8,35.3,35.3,0,0,1,1.5,4.6,52.4,52.4,0,0,1,1.6,9.1c.1,1.5.2,3.1.2,4.7a53.1,53.1,0,0,1-54,53.1,51.7,51.7,0,0,1-11.9-1.6,52.9,52.9,0,0,0,67.4-51.1C106.2,51.5,106.1,49.9,106,48.3Z"/></g></g></g></svg>