<svg xmlns="http://www.w3.org/2000/svg" xmlns:xlink="http://www.w3.org/1999/xlink" viewBox="0 0 122.1 122.8"><defs><style>.cls-1{isolation:isolate;}.cls-2{fill:url(#linear-gradient);}.cls-3{fill:url(#radial-gradient);}.cls-4{fill:url(#linear-gradient-2);}.cls-5,.cls-7,.cls-8{fill:#fff;}.cls-5{opacity:0.35;}.cls-5,.cls-7{mix-blend-mode:overlay;}.cls-10,.cls-12,.cls-19,.cls-6{mix-blend-mode:multiply;}.cls-6{fill:url(#linear-gradient-3);}.cls-7{opacity:0.25;}.cls-9{fill:url(#linear-gradient-4);}.cls-10,.cls-16,.cls-19{opacity:0.5;}.cls-11{fill:#9185e7;}.cls-12{opacity:0.65;fill:url(#linear-gradient-5);}.cls-13{fill:url(#linear-gradient-6);}.cls-14{fill:url(#linear-gradient-7);}.cls-15{fill:url(#linear-gradient-8);}.cls-16{mix-blend-mode:color-dodge;fill:url(#linear-gradient-9);}.cls-17{fill:url(#linear-gradient-10);}.cls-18{fill:#c0ffff;}.cls-19{fill:url(#linear-gradient-11);}</style><linearGradient id="linear-gradient" x1="61.03" y1="22.84" x2="61.03" gradientUnits="userSpaceOnUse"><stop offset="0.01" stop-color="#0ab0dd"/><stop offset="0.32" stop-color="#2fd5ee"/><stop offset="0.6" stop-color="#4bf1fa"/><stop offset="0.77" stop-color="#55fbff"/></linearGradient><radialGradient id="radial-gradient" cx="43.6" cy="13.75" r="29.11" gradientUnits="userSpaceOnUse"><stop offset="0.3" stop-color="#ffe6dc"/><stop offset="0.41" stop-color="#f5dddd"/><stop offset="0.61" stop-color="#d9c4e0"/><stop offset="0.86" stop-color="#ab9ce4"/><stop offset="0.99" stop-color="#9185e7"/></radialGradient><linearGradient id="linear-gradient-2" x1="15.24" y1="54.82" x2="106.82" y2="54.82" gradientUnits="userSpaceOnUse"><stop offset="0.01" stop-color="#ff871a"/><stop offset="0.18" stop-color="#ff911c"/><stop offset="0.47" stop-color="#ffad22"/><stop offset="0.85" stop-color="#ffdb2b"/><stop offset="0.99" stop-color="#ffee2f"/></linearGradient><linearGradient id="linear-gradient-3" x1="15.3" y1="44.46" x2="106.82" y2="44.46" gradientUnits="userSpaceOnUse"><stop offset="0" stop-color="#fff"/><stop offset="0.15" stop-color="#ffefde"/><stop offset="0.44" stop-color="#ffd19f"/><stop offset="0.69" stop-color="#ffbb72"/><stop offset="0.88" stop-color="#ffad55"/><stop offset="0.99" stop-color="#ffa84b"/></linearGradient><linearGradient id="linear-gradient-4" y1="67.26" x2="122.06" y2="67.26" gradientUnits="userSpaceOnUse"><stop offset="0" stop-color="#998ce6"/><stop offset="0.3" stop-color="#ffe6dc"/><stop offset="0.41" stop-color="#f5dddd"/><stop offset="0.61" stop-color="#d9c4e0"/><stop offset="0.86" stop-color="#ab9ce4"/><stop offset="0.99" stop-color="#9185e7"/></linearGradient><linearGradient id="linear-gradient-5" x1="79.67" y1="62" x2="114.23" y2="62" gradientUnits="userSpaceOnUse"><stop offset="0" stop-color="#fff"/><stop offset="0.16" stop-color="#edeafa"/><stop offset="0.54" stop-color="#c5bcef"/><stop offset="0.83" stop-color="#ada0e8"/><stop offset="1" stop-color="#a496e5"/></linearGradient><linearGradient id="linear-gradient-6" x1="0.54" y1="77.24" x2="121.52" y2="77.24" gradientUnits="userSpaceOnUse"><stop offset="0" stop-color="#7a35bc"/><stop offset="0.99" stop-color="#9185e7"/></linearGradient><linearGradient id="linear-gradient-7" x1="61.03" y1="87.49" x2="61.03" y2="66.99" gradientUnits="userSpaceOnUse"><stop offset="0.01" stop-color="#9185e7"/><stop offset="1" stop-color="#7a35bc"/></linearGradient><linearGradient id="linear-gradient-8" x1="0.54" y1="71.57" x2="121.52" y2="71.57" gradientUnits="userSpaceOnUse"><stop offset="0.23" stop-color="#55fbff"/><stop offset="0.4" stop-color="#4bf1fa"/><stop offset="0.68" stop-color="#2fd5ee"/><stop offset="0.99" stop-color="#0ab0dd"/></linearGradient><linearGradient id="linear-gradient-9" x1="61.15" y1="130.92" x2="61.15" y2="89.73" gradientUnits="userSpaceOnUse"><stop offset="0"/><stop offset="0" stop-color="#010202"/><stop offset="0.08" stop-color="#123637"/><stop offset="0.17" stop-color="#216365"/><stop offset="0.26" stop-color="#2f8c8f"/><stop offset="0.35" stop-color="#3aaeb1"/><stop offset="0.45" stop-color="#44cace"/><stop offset="0.56" stop-color="#4bdfe4"/><stop offset="0.67" stop-color="#50eef3"/><stop offset="0.81" stop-color="#53f7fc"/><stop offset="1" stop-color="#54faff"/></linearGradient><linearGradient id="linear-gradient-10" x1="61.03" y1="86.8" x2="61.03" y2="78.09" xlink:href="#linear-gradient-8"/><linearGradient id="linear-gradient-11" x1="40.15" y1="31.19" x2="81.44" y2="31.19" gradientUnits="userSpaceOnUse"><stop offset="0.01" stop-color="#f94e41"/><stop offset="0.12" stop-color="#f2483b"/><stop offset="0.68" stop-color="#d62e21"/><stop offset="1" stop-color="#cc2417"/></linearGradient></defs><title>6</title><g class="cls-1"><g id="Layer_2" data-name="Layer 2"><g id="Layer_1-2" data-name="Layer 1"><path class="cls-2" d="M67.1,11.4c0,6.3-2.7,11.4-6.1,11.4s-6-5.1-6-11.4S57.7,0,61,0,67.1,5.1,67.1,11.4Z"/><path class="cls-3" d="M74.1,13.7l-1.8-1-.9-.3A26.6,26.6,0,0,0,61,10.8h-.5a26.4,26.4,0,0,0-10.3,1.6l-.9.3-1.8,1c-9.3,5.5-7.4,18.7-7.4,18.7H81.4S83.4,19.2,74.1,13.7Z"/><path class="cls-4" d="M106.8,54.8a18.9,18.9,0,0,1-.8,5.3c-4,13.1-22.6,23-45,23-25.3,0-45.8-12.7-45.8-28.3,0-.4.1-.9.1-1.3a22.5,22.5,0,0,1,.6-3.6c2.6-8.8,11.7-16.3,24.3-20.3A71.5,71.5,0,0,1,61,26.5a68,68,0,0,1,17.9,2.3l2.5.7C96.5,34.1,106.8,43.7,106.8,54.8Z"/><path class="cls-5" d="M100.2,54.8a14.3,14.3,0,0,1-.7,4.6C96,70.6,80.1,79,61,79,39.4,79,21.9,68.2,21.9,54.8V53.7a15.5,15.5,0,0,1,.6-3.1c3.2-11.4,19.2-20,38.5-20a61.6,61.6,0,0,1,15.3,1.9C90.4,36.2,100.2,44.8,100.2,54.8Z"/><path class="cls-6" d="M106.8,54.8a18.9,18.9,0,0,1-.8,5.3c-26.5-1.7-67.1-4.4-90.7-6.6a22.5,22.5,0,0,1,.6-3.6c39-1.3,55.9-13,63-21.1C95.3,33.1,106.8,43.1,106.8,54.8Z"/><path class="cls-7" d="M57.6,32.7c1.2,3.5-4.4,8.6-12.4,11.2s-15.6,2-16.7-1.6,4.4-8.6,12.4-11.2S56.5,29.1,57.6,32.7Z"/><path class="cls-8" d="M46.8,34.6c.6,1.7-1.5,4-4.8,5.1s-6.3.7-6.9-1,1.6-4,4.8-5.1S46.2,32.9,46.8,34.6Z"/><path class="cls-8" d="M57,32.5c.3.9-.8,2-2.4,2.6s-3.3.4-3.6-.5.8-2,2.5-2.6S56.7,31.6,57,32.5Z"/><path class="cls-9" d="M122.1,74.7l-.6.2c-39.5,16-72.1,14-93.6,8.9a116.9,116.9,0,0,1-21-7.1A53.6,53.6,0,0,1,.5,73.4L0,73.1,11.1,56.8a11.4,11.4,0,0,1,7-4.8l3.8-.8c4.3-.9,8.5-1.6,12.5-2.2l1.6-.2c4.7-.6,9.2-1.1,13.5-1.4l10.8-.3h1.3a165.9,165.9,0,0,1,18.1.9l6.2.7,1.6.2c5.8.8,10.5,1.8,13.9,2.6l2.2.6a11.7,11.7,0,0,1,6.7,4.8Z"/><g class="cls-10"><path class="cls-11" d="M36,48.8,19.8,80l-1.1-.6L34.4,49Z"/><path class="cls-11" d="M103.4,79.4l-1.2.6L85.9,48.6l1.6.2Z"/><path class="cls-11" d="M62,83.6H60.7l-.4-36.6h1.3Z"/></g><path class="cls-12" d="M114.2,76.1l-31.6-1L79.7,47.9a155.6,155.6,0,0,1,21.7,3.5Z"/><path class="cls-7" d="M54.2,84.6l-26.3-.8a116.9,116.9,0,0,1-21-7.1l15-25.5a213.8,213.8,0,0,1,27.6-3.8Z"/><path class="cls-13" d="M121.5,74.9C53.7,102.5,6,76.6.5,73.4,23.8,68.4,72.7,61.2,121.5,74.9Z"/><path class="cls-14" d="M121.5,74.9C53.7,102.5,6,76.6.5,73.4,23.8,68.4,72.7,61.2,121.5,74.9Z"/><path class="cls-15" d="M118.3,76.1l3.2-1.2C72.7,61.2,23.8,68.4.5,73.4l3,1.6C27.1,70.2,72.5,64.2,118.3,76.1Z"/><path class="cls-16" d="M82.5,81.6l8,36.5S62,129,31.8,117.5l7.3-35.1Z"/><path class="cls-17" d="M83,82.4c0,2.4-9.8,4.4-22,4.4s-21.9-2-21.9-4.4,9.8-4.3,21.9-4.3S83,80,83,82.4Z"/><path class="cls-18" d="M61,85.5c-11,0-20.1-1.6-21.7-3.7a1.4,1.4,0,0,0-.2.6c0,2.4,9.8,4.4,21.9,4.4s22-2,22-4.4a.9.9,0,0,0-.3-.6C81.1,83.9,72,85.5,61,85.5Z"/><path class="cls-19" d="M81.4,30c0,3.2-9.2,5.8-20.6,5.8S40.1,33.2,40.1,30a.6.6,0,0,1,.1-.4A71.5,71.5,0,0,1,61,26.5a68,68,0,0,1,17.9,2.3l2.5.7Z"/></g></g></g></svg>