<svg xmlns="http://www.w3.org/2000/svg" xmlns:xlink="http://www.w3.org/1999/xlink" viewBox="0 0 87.6 118.7"><defs><style>.cls-1{isolation:isolate;}.cls-2{fill:url(#linear-gradient);}.cls-3{fill:url(#linear-gradient-2);}.cls-4,.cls-6,.cls-7,.cls-8,.cls-9{fill:#fff;}.cls-21,.cls-4{opacity:0.35;}.cls-4,.cls-6,.cls-7,.cls-8{mix-blend-mode:overlay;}.cls-5{mix-blend-mode:color-burn;fill:url(#linear-gradient-3);}.cls-6{opacity:0.25;}.cls-12,.cls-23,.cls-7{opacity:0.5;}.cls-8{opacity:0.85;}.cls-10{fill:url(#linear-gradient-4);}.cls-11,.cls-14,.cls-16,.cls-18,.cls-20{mix-blend-mode:multiply;}.cls-11{fill:url(#linear-gradient-5);}.cls-13{fill:#2c2660;}.cls-14{fill:url(#linear-gradient-6);}.cls-15{fill:url(#linear-gradient-7);}.cls-16{fill:url(#linear-gradient-8);}.cls-17{fill:url(#linear-gradient-9);}.cls-18{fill:url(#linear-gradient-10);}.cls-19{fill:url(#linear-gradient-11);}.cls-20{fill:url(#linear-gradient-12);}.cls-21,.cls-23{mix-blend-mode:color-dodge;}.cls-21{fill:url(#radial-gradient);}.cls-22{fill:url(#linear-gradient-13);}.cls-23{fill:url(#radial-gradient-2);}.cls-24{fill:url(#linear-gradient-14);}</style><linearGradient id="linear-gradient" x1="43.87" y1="85.72" x2="43.87" y2="49.99" gradientUnits="userSpaceOnUse"><stop offset="0" stop-color="#55fbff"/><stop offset="0.28" stop-color="#52f8fe"/><stop offset="0.49" stop-color="#48eef9"/><stop offset="0.68" stop-color="#38def2"/><stop offset="0.85" stop-color="#21c7e8"/><stop offset="0.99" stop-color="#0ab0dd"/></linearGradient><linearGradient id="linear-gradient-2" x1="12.57" y1="15.57" x2="144.52" y2="15.57" gradientUnits="userSpaceOnUse"><stop offset="0" stop-color="#55fbff"/><stop offset="0.34" stop-color="#3dcff3"/><stop offset="0.99" stop-color="#0b73db"/></linearGradient><linearGradient id="linear-gradient-3" x1="12.57" y1="17.63" x2="144.52" y2="17.63" gradientUnits="userSpaceOnUse"><stop offset="0" stop-color="#fff"/><stop offset="0.15" stop-color="#dfdfe5"/><stop offset="0.47" stop-color="#8f8ca2"/><stop offset="0.95" stop-color="#0f0939"/><stop offset="0.98" stop-color="#060032"/></linearGradient><linearGradient id="linear-gradient-4" x1="13.68" y1="54.41" x2="73.96" y2="54.41" gradientUnits="userSpaceOnUse"><stop offset="0.23" stop-color="#ffe6dc"/><stop offset="0.34" stop-color="#f5dcdb"/><stop offset="0.54" stop-color="#d9c0d8"/><stop offset="0.79" stop-color="#ab94d3"/><stop offset="0.99" stop-color="#826ccf"/></linearGradient><linearGradient id="linear-gradient-5" x1="13.68" y1="54.28" x2="73.96" y2="54.28" gradientUnits="userSpaceOnUse"><stop offset="0" stop-color="#fff"/><stop offset="0.16" stop-color="#edeafa"/><stop offset="0.54" stop-color="#c5bcef"/><stop offset="0.83" stop-color="#ada0e8"/><stop offset="1" stop-color="#a496e5"/></linearGradient><linearGradient id="linear-gradient-6" x1="15.76" y1="64.43" x2="41.17" y2="64.43" xlink:href="#linear-gradient-5"/><linearGradient id="linear-gradient-7" y1="83.12" x2="28.44" y2="83.12" gradientUnits="userSpaceOnUse"><stop offset="0.01" stop-color="#ff871a"/><stop offset="0.27" stop-color="#fe7d21"/><stop offset="0.73" stop-color="#fb6134"/><stop offset="0.99" stop-color="#f94e41"/></linearGradient><linearGradient id="linear-gradient-8" x1="10.66" y1="85.48" x2="28.44" y2="85.48" gradientUnits="userSpaceOnUse"><stop offset="0.01" stop-color="#ffa84b"/><stop offset="0.12" stop-color="#ffad55"/><stop offset="0.31" stop-color="#ffbb72"/><stop offset="0.56" stop-color="#ffd19f"/><stop offset="0.85" stop-color="#ffefde"/><stop offset="1" stop-color="#fff"/></linearGradient><linearGradient id="linear-gradient-9" x1="-817.91" y1="83.12" x2="-789.47" y2="83.12" gradientTransform="matrix(-1, 0, 0, 1, -730.27, 0)" xlink:href="#linear-gradient-7"/><linearGradient id="linear-gradient-10" x1="-807.26" y1="85.48" x2="-789.47" y2="85.48" gradientTransform="matrix(-1, 0, 0, 1, -730.27, 0)" xlink:href="#linear-gradient-8"/><linearGradient id="linear-gradient-11" x1="9.61" y1="26.9" x2="78.03" y2="26.9" gradientUnits="userSpaceOnUse"><stop offset="0" stop-color="#826ccf"/><stop offset="0.02" stop-color="#9a84d2"/><stop offset="0.05" stop-color="#bea7d5"/><stop offset="0.08" stop-color="#dbc3d8"/><stop offset="0.12" stop-color="#efd6da"/><stop offset="0.15" stop-color="#fbe2dc"/><stop offset="0.18" stop-color="#ffe6dc"/><stop offset="0.3" stop-color="#f5dcdb"/><stop offset="0.51" stop-color="#d9c0d8"/><stop offset="0.78" stop-color="#ab94d3"/><stop offset="0.99" stop-color="#826ccf"/></linearGradient><linearGradient id="linear-gradient-12" x1="55.73" y1="26.89" x2="74.81" y2="26.89" xlink:href="#linear-gradient-5"/><radialGradient id="radial-gradient" cx="21.29" cy="39.2" r="4.93" gradientUnits="userSpaceOnUse"><stop offset="0" stop-color="#55fbff"/><stop offset="1"/></radialGradient><linearGradient id="linear-gradient-13" x1="19.74" y1="39.06" x2="22.85" y2="39.06" gradientUnits="userSpaceOnUse"><stop offset="0" stop-color="#55fbff"/><stop offset="0.23" stop-color="#53f8fe"/><stop offset="0.4" stop-color="#4eeffc"/><stop offset="0.55" stop-color="#46dff8"/><stop offset="0.68" stop-color="#3ac9f2"/><stop offset="0.81" stop-color="#2aacea"/><stop offset="0.92" stop-color="#178ae1"/><stop offset="0.99" stop-color="#0b73db"/></linearGradient><radialGradient id="radial-gradient-2" cx="65.69" cy="39.2" r="4.93" gradientUnits="userSpaceOnUse"><stop offset="0" stop-color="#55fbff"/><stop offset="0.08" stop-color="#4de4e7"/><stop offset="0.42" stop-color="#2d8486"/><stop offset="0.7" stop-color="#153d3e"/><stop offset="0.9" stop-color="#061111"/><stop offset="1"/></radialGradient><linearGradient id="linear-gradient-14" x1="64.38" y1="39.06" x2="67.49" y2="39.06" xlink:href="#linear-gradient-13"/></defs><title>7</title><g class="cls-1"><g id="Layer_2" data-name="Layer 2"><g id="Layer_1-2" data-name="Layer 1"><path class="cls-2" d="M25.6,73.7s2.5,12.1,18.4,12S62.2,72.1,62.2,72.1L44.2,50Z"/><path class="cls-3" d="M75.1,24.1c-8.1,5.3-19.6,7-30.7,7H43.3c-8.6,0-17.5-1-24.8-3.9a36.6,36.6,0,0,1-5.9-3.1,10.6,10.6,0,0,1,.2-1.7,28.2,28.2,0,0,1,1-3.4C16.1,12.3,23.1,1.3,43.3.1h1.1a41.4,41.4,0,0,1,16.3,4A26.1,26.1,0,0,1,75.1,24.1Z"/><path class="cls-4" d="M69,23.8c-6.6,4.8-16.1,6.3-25.4,6.3h-.8c-9.3-.1-18.8-1.6-25.4-6.4a8.6,8.6,0,0,1,.2-1.5c.8-4.7,5-18.8,25.2-20.1h.8A33.5,33.5,0,0,1,57.1,5.8,23.8,23.8,0,0,1,69,23.8Z"/><path class="cls-5" d="M75.1,24.1c-8.1,5.3-19.6,7-30.7,7H43.3c-11.2,0-22.6-1.7-30.7-6.9h0a10.6,10.6,0,0,1,.2-1.7c30.3,2.4,42.8-9.9,47.9-18.3a27.4,27.4,0,0,1,10.3,9A25.9,25.9,0,0,1,75.1,24.1Z"/><path class="cls-6" d="M22.8,10.9a5.8,5.8,0,0,0,1.4,6.6c1.8,1.6,4.6,2,7.1,1.9a26.6,26.6,0,0,0,12.6-3.6c2.7-1.6,5.2-4.2,4.7-7-.7-4.6-8.3-6.7-12.8-6.1S24.5,6.6,22.8,10.9Z"/><path class="cls-7" d="M25.1,10.6a4.1,4.1,0,0,0,1,4.6A7,7,0,0,0,31,16.5,18.7,18.7,0,0,0,39.7,14c1.9-1.1,3.6-2.9,3.3-4.8S37.3,4.6,34.1,5,26.3,7.6,25.1,10.6Z"/><path class="cls-8" d="M75.1,24.1c-8.1,5.3-19.6,7-30.7,7H43.3c-11.2,0-22.6-1.7-30.7-6.9a89,89,0,0,1,12,.3c34,1.9,43.7-5.8,46.4-11.4A25.9,25.9,0,0,1,75.1,24.1Z"/><path class="cls-9" d="M37,6.1c.7,1.2-.2,2.9-2.1,3.9s-4,.9-4.7-.3.2-2.9,2-3.9S36.2,4.9,37,6.1Z"/><path class="cls-9" d="M41.9,12.4c.2.7-.4,1.5-1.5,1.8a2,2,0,0,1-2.5-.6c-.2-.7.5-1.5,1.6-1.8A1.9,1.9,0,0,1,41.9,12.4Z"/><polygon class="cls-10" points="74 27.7 70.7 80.8 57.7 80.8 51.4 80.9 50.9 80.9 41.2 80.9 36.7 81 36.2 81 18.1 81.1 15.8 52.6 14.2 33.6 13.7 27.7 74 27.7"/><path class="cls-11" d="M74,27.7,70.7,80.8h-13c3.6-40.3-33.1-46.3-43.5-47.2l-.5-5.9Z"/><g class="cls-12"><path class="cls-13" d="M36.7,81h-.5c.6-26.7-5.6-44.7-9.5-53.3h.5C31.1,36.4,37.3,54.5,36.7,81Z"/></g><g class="cls-12"><path class="cls-13" d="M51.4,80.9h-.5c-.5-26.5,5.6-44.5,9.5-53.2H61C57.1,36.3,50.8,54.3,51.4,80.9Z"/></g><path class="cls-14" d="M41.2,80.9H18.1L15.8,52.6V47.8S35.1,50.7,41.2,80.9Z"/><path class="cls-15" d="M28.4,78.4a6.9,6.9,0,0,1-1.2,4.2c-3.1,4.6-11,17.6-13.2,33.8a1.4,1.4,0,0,1-.2.7,1.8,1.8,0,0,1-.6.9,2.7,2.7,0,0,1-4.1-.7C1.8,103.6-9.2,72.9,14,48.4a2.8,2.8,0,0,1,3-.6l1.7.9a14.3,14.3,0,0,1,4.7,5.2C26,58.4,28.3,65.8,28.4,78.4Z"/><path class="cls-6" d="M5.6,81.4A115.8,115.8,0,0,0,13.2,118a2.7,2.7,0,0,1-4.1-.7C1.8,103.6-9.2,72.9,14,48.4a2.8,2.8,0,0,1,3-.6l1.7.9C14.2,54.4,5.1,67.7,5.6,81.4Z"/><path class="cls-16" d="M28.4,78.4a6.9,6.9,0,0,1-1.2,4.2c-3.1,4.6-11,17.6-13.2,33.8a1.4,1.4,0,0,1-.2.7c-9.2-30.4,4.2-55,9.6-63.2C26,58.4,28.3,65.8,28.4,78.4Z"/><path class="cls-17" d="M59.2,78.4a7.7,7.7,0,0,0,1.3,4.2c3.1,4.6,10.9,17.6,13.1,33.8a6.4,6.4,0,0,0,.2.7,3.1,3.1,0,0,0,.7.9,2.7,2.7,0,0,0,4.1-.7c7.2-13.7,18.3-44.4-5-68.9a2.6,2.6,0,0,0-2.9-.6l-1.8.9a16.3,16.3,0,0,0-4.7,5.2C61.6,58.4,59.3,65.8,59.2,78.4Z"/><path class="cls-6" d="M82,81.4A116,116,0,0,1,74.5,118a2.7,2.7,0,0,0,4.1-.7c7.2-13.7,18.3-44.4-5-68.9a2.6,2.6,0,0,0-2.9-.6l-1.8.9C73.4,54.4,82.5,67.7,82,81.4Z"/><path class="cls-18" d="M59.2,78.4a7.7,7.7,0,0,0,1.3,4.2c3.1,4.6,10.9,17.6,13.1,33.8a6.4,6.4,0,0,0,.2.7c9.3-30.4-4.1-55-9.6-63.2C61.6,58.4,59.3,65.8,59.2,78.4Z"/><polygon class="cls-19" points="78 23 75.9 30.8 73 30.8 56.9 30.7 45.1 30.7 15.7 30.6 12 30.5 9.6 23 78 23"/><polygon class="cls-6" points="45.4 23 45.1 30.7 36.8 30.6 21 30.6 15.7 30.6 14.8 23 45.4 23"/><polygon class="cls-8" points="37.2 23 36.8 30.6 21 30.6 20.4 23 37.2 23"/><path class="cls-20" d="M74.8,23c-.6,2.4-1.2,5.3-1.8,7.8H56.9L55.7,23Z"/><path class="cls-21" d="M26.2,39.2a4.9,4.9,0,1,1-4.9-4.9A4.9,4.9,0,0,1,26.2,39.2Z"/><path class="cls-22" d="M21.3,42.1a1.6,1.6,0,0,1-1.6-1.6V37.6A1.6,1.6,0,0,1,21.3,36a1.6,1.6,0,0,1,1.5,1.6v2.9A1.6,1.6,0,0,1,21.3,42.1Z"/><path class="cls-23" d="M70.6,39.2a4.9,4.9,0,1,1-4.9-4.9A4.9,4.9,0,0,1,70.6,39.2Z"/><path class="cls-24" d="M65.9,42.1a1.6,1.6,0,0,1-1.5-1.6V37.6A1.6,1.6,0,0,1,65.9,36a1.6,1.6,0,0,1,1.6,1.6v2.9A1.6,1.6,0,0,1,65.9,42.1Z"/></g></g></g></svg>