<svg xmlns="http://www.w3.org/2000/svg" xmlns:xlink="http://www.w3.org/1999/xlink" viewBox="0 0 85.2 93.2"><defs><style>.cls-1{isolation:isolate;}.cls-2{fill:url(#linear-gradient);}.cls-3{fill:url(#linear-gradient-2);}.cls-4{fill:url(#linear-gradient-3);}.cls-5{fill:url(#linear-gradient-4);}.cls-6{fill:url(#linear-gradient-5);}.cls-7{fill:url(#linear-gradient-6);}.cls-8{fill:#9185e7;}.cls-12,.cls-18,.cls-8{opacity:0.5;}.cls-11,.cls-12,.cls-16,.cls-8{mix-blend-mode:multiply;}.cls-9{fill:url(#linear-gradient-7);}.cls-10,.cls-17,.cls-18{fill:#fff;}.cls-10{opacity:0.25;}.cls-10,.cls-18{mix-blend-mode:overlay;}.cls-11{fill:url(#linear-gradient-8);}.cls-12{fill:#61379d;}.cls-13{fill:url(#linear-gradient-9);}.cls-14{fill:url(#linear-gradient-10);}.cls-15{fill:url(#linear-gradient-11);}.cls-16{fill:url(#linear-gradient-12);}</style><linearGradient id="linear-gradient" x1="43.14" y1="93.24" x2="43.14" y2="36.19" gradientUnits="userSpaceOnUse"><stop offset="0" stop-color="#55fbff"/><stop offset="0.28" stop-color="#52f8fe"/><stop offset="0.49" stop-color="#48eef9"/><stop offset="0.68" stop-color="#38def2"/><stop offset="0.85" stop-color="#21c7e8"/><stop offset="0.99" stop-color="#0ab0dd"/></linearGradient><linearGradient id="linear-gradient-2" x1="42.61" y1="90.11" x2="42.61" y2="76.77" gradientUnits="userSpaceOnUse"><stop offset="0.01" stop-color="#f94e41"/><stop offset="0.12" stop-color="#f2483b"/><stop offset="0.68" stop-color="#d62e21"/><stop offset="1" stop-color="#cc2417"/></linearGradient><linearGradient id="linear-gradient-3" x1="75.82" y1="85.73" x2="75.82" y2="70.94" xlink:href="#linear-gradient-2"/><linearGradient id="linear-gradient-4" x1="8.56" y1="85.73" x2="8.56" y2="70.94" xlink:href="#linear-gradient-2"/><linearGradient id="linear-gradient-5" y1="39.94" x2="85.23" y2="39.94" gradientUnits="userSpaceOnUse"><stop offset="0.23" stop-color="#ffe6dc"/><stop offset="0.34" stop-color="#f5dcdb"/><stop offset="0.54" stop-color="#d9c0d8"/><stop offset="0.79" stop-color="#ab94d3"/><stop offset="0.99" stop-color="#826ccf"/></linearGradient><linearGradient id="linear-gradient-6" y1="75.92" x2="85.23" y2="75.92" gradientUnits="userSpaceOnUse"><stop offset="0" stop-color="#8365bf"/><stop offset="1" stop-color="#61379d"/></linearGradient><linearGradient id="linear-gradient-7" x1="41.77" y1="15.93" x2="41.77" y2="0" xlink:href="#linear-gradient-6"/><linearGradient id="linear-gradient-8" x1="35.69" y1="39.95" x2="85.23" y2="39.95" gradientUnits="userSpaceOnUse"><stop offset="0" stop-color="#fff"/><stop offset="0.16" stop-color="#edeafa"/><stop offset="0.54" stop-color="#c5bcef"/><stop offset="0.83" stop-color="#ada0e8"/><stop offset="1" stop-color="#a496e5"/></linearGradient><linearGradient id="linear-gradient-9" x1="41.51" y1="70.68" x2="41.51" y2="26.61" gradientUnits="userSpaceOnUse"><stop offset="0.3" stop-color="#b98fbd"/><stop offset="1" stop-color="#8365bf"/></linearGradient><linearGradient id="linear-gradient-10" x1="41.51" y1="69.57" x2="41.51" y2="27.72" xlink:href="#linear-gradient-6"/><linearGradient id="linear-gradient-11" x1="41.51" y1="63.99" x2="41.51" y2="33.3" gradientTransform="translate(79.3 -2.9) rotate(76.7)" gradientUnits="userSpaceOnUse"><stop offset="0.01" stop-color="#ff871a"/><stop offset="0.18" stop-color="#ff911c"/><stop offset="0.47" stop-color="#ffad22"/><stop offset="0.85" stop-color="#ffdb2b"/><stop offset="0.99" stop-color="#ffee2f"/></linearGradient><linearGradient id="linear-gradient-12" x1="41.51" y1="53.52" x2="41.51" y2="33.3" gradientUnits="userSpaceOnUse"><stop offset="0" stop-color="#fff"/><stop offset="0.18" stop-color="#ffded4"/><stop offset="0.46" stop-color="#ffae95"/><stop offset="0.7" stop-color="#ff8b68"/><stop offset="0.89" stop-color="#ff754b"/><stop offset="0.99" stop-color="#ff6d41"/></linearGradient></defs><title>8</title><g class="cls-1"><g id="Layer_2" data-name="Layer 2"><g id="Layer_1-2" data-name="Layer 1"><path class="cls-2" d="M13.9,74.1s4,19.3,29.5,19.1S72.3,71.5,72.3,71.5L43.7,36.2Z"/><path class="cls-3" d="M50,76.8s-.4,1-.9,2.5-.6,1.5-.9,2.4c-1.6,3.8-3.9,8.5-6.1,8.4s-3.9-4.6-5.3-8.3L36,79.4a17.2,17.2,0,0,1-.7-2.2Z"/><path class="cls-4" d="M82.9,70.9s-.1,1.5-.3,3.4-.2,1.7-.4,2.6c-.6,4-1.8,8.5-3.8,8.8s-4.7-3.3-6.8-6.5a21.2,21.2,0,0,1-1.5-2.1l-1.4-2.4Z"/><path class="cls-5" d="M15.7,74.7S15,76,13.9,77.6l-1.4,2.1c-2.1,3-4.8,6.3-6.5,6s-3-4.1-3.7-7.8L2,75.5c-.4-2.5-.5-4.6-.5-4.6Z"/><path class="cls-6" d="M85.2,74.3a164.4,164.4,0,0,1-45,5.6H35.7A206.3,206.3,0,0,1,8,77L0,75.3A162.4,162.4,0,0,1,27,14.9,136.8,136.8,0,0,1,37.5,1.7,4.8,4.8,0,0,1,40.6,0h.7a4.8,4.8,0,0,1,3.4,1.4A134.4,134.4,0,0,1,56.6,14.8C78.4,43,85.2,74.3,85.2,74.3Z"/><path class="cls-7" d="M84.7,71.9c-39.4,11-78,2.7-84.2,1.3-.2.7-.3,1.4-.5,2.1s42.3,11,85.2-1Z"/><path class="cls-8" d="M13.9,77.6l-1.4,2.1L2.3,77.9,2,75.5C4.5,76.1,8.6,76.9,13.9,77.6Z"/><path class="cls-8" d="M49.1,79.3q-.5,1-.9,2.4c-4,.2-7.7.2-11.4.1L36,79.4C40.1,79.5,44.5,79.5,49.1,79.3Z"/><path class="cls-8" d="M82.6,74.3c-.1.8-.2,1.7-.4,2.6-3.6.9-7.1,1.7-10.6,2.3a21.2,21.2,0,0,1-1.5-2.1A112.2,112.2,0,0,0,82.6,74.3Z"/><path class="cls-9" d="M56.6,14.8c-11.2,1.9-22.7,1-29.6.1A136.8,136.8,0,0,1,37.5,1.7a4.9,4.9,0,0,1,7.2-.3A134.4,134.4,0,0,1,56.6,14.8Z"/><path class="cls-10" d="M40.2,79.9A203.4,203.4,0,0,1,8,77l-.6-.6C6.4,49.4,34,9.1,40.6,0h.8C33.7,26.1,38.2,65.7,40.2,79.9Z"/><path class="cls-11" d="M85.2,74.3c-3.8,1-7.7,1.9-11.5,2.7a167.4,167.4,0,0,1-33.5,2.9H35.8C83.4,56.3,49.3,9.8,41.4,0a4.7,4.7,0,0,1,3.3,1.4A134.4,134.4,0,0,1,56.6,14.8,143.7,143.7,0,0,1,68.9,33.6,162.5,162.5,0,0,1,85.2,74.3Z"/><circle class="cls-12" cx="43.7" cy="52.2" r="22"/><circle class="cls-13" cx="41.5" cy="48.6" r="22"/><circle class="cls-14" cx="41.5" cy="48.6" r="20.9"/><circle class="cls-15" cx="41.5" cy="48.6" r="15.3" transform="translate(-15.4 77.9) rotate(-76.7)"/><path class="cls-16" d="M41.9,41.9A15.5,15.5,0,0,1,56.4,52.3a22.1,22.1,0,0,0,.4-3.7A15.3,15.3,0,1,0,27,53.5,15.3,15.3,0,0,1,41.9,41.9Z"/><path class="cls-17" d="M34.7,57.2c1.6,1.3,2.5,2.9,2,3.6s-2.3.2-4-1.1-2.5-2.8-1.9-3.5S33.1,56,34.7,57.2Z"/><path class="cls-18" d="M73.7,77c8.3-8.8,2.8-27.1-4.8-43.4A162.5,162.5,0,0,1,85.2,74.3C81.4,75.3,77.5,76.2,73.7,77Z"/><path class="cls-17" d="M55.3,52c-.2,1.1-.8,2-1.3,1.9s-.8-1.1-.6-2.2.8-1.9,1.3-1.8S55.5,50.9,55.3,52Z"/></g></g></g></svg>