<svg xmlns="http://www.w3.org/2000/svg" xmlns:xlink="http://www.w3.org/1999/xlink" viewBox="0 0 101.8 87.7"><defs><style>.cls-1{isolation:isolate;}.cls-2{fill:url(#linear-gradient);}.cls-3{fill:#ff7c76;}.cls-4{fill:#9185e7;}.cls-10,.cls-4{opacity:0.5;}.cls-15,.cls-16,.cls-17,.cls-4{mix-blend-mode:multiply;}.cls-5{fill:url(#linear-gradient-2);}.cls-6{fill:url(#linear-gradient-3);}.cls-10,.cls-11,.cls-12,.cls-7,.cls-9{fill:#fff;}.cls-7{opacity:0.35;}.cls-10,.cls-11,.cls-7,.cls-9{mix-blend-mode:overlay;}.cls-8{mix-blend-mode:color-burn;fill:url(#linear-gradient-4);}.cls-9{opacity:0.25;}.cls-11{opacity:0.85;}.cls-13{fill:url(#linear-gradient-5);}.cls-14{fill:url(#linear-gradient-6);}.cls-15{fill:#9378c9;}.cls-16{fill:url(#linear-gradient-7);}.cls-17{fill:url(#linear-gradient-8);}.cls-18,.cls-20,.cls-22{opacity:0.55;mix-blend-mode:color-dodge;}.cls-18{fill:url(#radial-gradient);}.cls-19{fill:url(#linear-gradient-9);}.cls-20{fill:url(#radial-gradient-2);}.cls-21{fill:url(#linear-gradient-10);}.cls-22{fill:url(#radial-gradient-3);}.cls-23{fill:url(#linear-gradient-11);}.cls-24{fill:#391160;}.cls-25{fill:url(#linear-gradient-12);}</style><linearGradient id="linear-gradient" x1="12.98" y1="72.9" x2="27.7" y2="72.9" gradientUnits="userSpaceOnUse"><stop offset="0.01" stop-color="#f94e41"/><stop offset="0.12" stop-color="#f2483b"/><stop offset="0.68" stop-color="#d62e21"/><stop offset="1" stop-color="#cc2417"/></linearGradient><linearGradient id="linear-gradient-2" x1="-1013.28" y1="72.9" x2="-998.56" y2="72.9" gradientTransform="matrix(-1, 0, 0, 1, -924.48, 0)" xlink:href="#linear-gradient"/><linearGradient id="linear-gradient-3" x1="17.71" y1="16.38" x2="159.64" y2="16.38" gradientUnits="userSpaceOnUse"><stop offset="0" stop-color="#55fbff"/><stop offset="0.34" stop-color="#3dcff3"/><stop offset="0.99" stop-color="#0b73db"/></linearGradient><linearGradient id="linear-gradient-4" x1="17.71" y1="18.55" x2="159.64" y2="18.55" gradientUnits="userSpaceOnUse"><stop offset="0" stop-color="#fff"/><stop offset="0.15" stop-color="#dfdfe5"/><stop offset="0.47" stop-color="#8f8ca2"/><stop offset="0.95" stop-color="#0f0939"/><stop offset="0.98" stop-color="#060032"/></linearGradient><linearGradient id="linear-gradient-5" x1="-5.06" y1="39.3" x2="96.05" y2="51.03" gradientUnits="userSpaceOnUse"><stop offset="0" stop-color="#998ce6"/><stop offset="0.3" stop-color="#ffe6dc"/><stop offset="0.41" stop-color="#f5dddd"/><stop offset="0.61" stop-color="#d9c4e0"/><stop offset="0.86" stop-color="#ab9ce4"/><stop offset="0.99" stop-color="#9185e7"/></linearGradient><linearGradient id="linear-gradient-6" y1="58.13" x2="101.78" y2="58.13" gradientUnits="userSpaceOnUse"><stop offset="0" stop-color="#7a35bc"/><stop offset="0.99" stop-color="#9185e7"/></linearGradient><linearGradient id="linear-gradient-7" x1="79.82" y1="71.12" x2="79.82" y2="48.87" gradientUnits="userSpaceOnUse"><stop offset="0" stop-color="#fff"/><stop offset="0.16" stop-color="#edeafa"/><stop offset="0.54" stop-color="#c5bcef"/><stop offset="0.83" stop-color="#ada0e8"/><stop offset="1" stop-color="#a496e5"/></linearGradient><linearGradient id="linear-gradient-8" x1="28.37" y1="47.24" x2="101.78" y2="47.24" xlink:href="#linear-gradient-7"/><radialGradient id="radial-gradient" cx="52.11" cy="52.63" r="4.06" gradientUnits="userSpaceOnUse"><stop offset="0" stop-color="#fff"/><stop offset="1"/></radialGradient><linearGradient id="linear-gradient-9" x1="52.11" y1="50.66" x2="52.11" y2="54.59" gradientUnits="userSpaceOnUse"><stop offset="0" stop-color="#55fbff"/><stop offset="0.23" stop-color="#53f8fe"/><stop offset="0.4" stop-color="#4eeffc"/><stop offset="0.55" stop-color="#46dff8"/><stop offset="0.68" stop-color="#3ac9f2"/><stop offset="0.81" stop-color="#2aacea"/><stop offset="0.92" stop-color="#178ae1"/><stop offset="0.99" stop-color="#0b73db"/></linearGradient><radialGradient id="radial-gradient-2" cx="13.53" cy="49.07" r="4.06" xlink:href="#radial-gradient"/><linearGradient id="linear-gradient-10" x1="13.53" y1="47.11" x2="13.53" y2="51.04" xlink:href="#linear-gradient-9"/><radialGradient id="radial-gradient-3" cx="86.72" cy="49.09" r="4.06" xlink:href="#radial-gradient"/><linearGradient id="linear-gradient-11" x1="86.72" y1="47.12" x2="86.72" y2="51.05" xlink:href="#linear-gradient-9"/><linearGradient id="linear-gradient-12" x1="48.35" y1="75.36" x2="55.17" y2="75.36" xlink:href="#linear-gradient"/></defs><title>9</title><g class="cls-1"><g id="Layer_2" data-name="Layer 2"><g id="Layer_1-2" data-name="Layer 1"><path class="cls-2" d="M27.7,65.2a23.6,23.6,0,0,0-6.5,6.6A17.5,17.5,0,0,0,18.3,85a.9.9,0,0,1-1.7.6c-2.6-4.7-5.3-12-2.4-19.3a20.9,20.9,0,0,1,4.3-6.5Z"/><path class="cls-3" d="M19.9,61.5,27,65.7l.7-.5-9.2-5.4C9.7,69,13.2,79.5,16.6,85.6a.7.7,0,0,0,.7.4C14.2,79.9,11.7,70.2,19.9,61.5Z"/><path class="cls-4" d="M27.7,65.2a23.6,23.6,0,0,0-6.5,6.6,36.8,36.8,0,0,0-7-5.5,20.9,20.9,0,0,1,4.3-6.5Z"/><path class="cls-5" d="M74.1,65.2a25.2,25.2,0,0,1,6.5,6.6A17.5,17.5,0,0,1,83.5,85a.9.9,0,0,0,1.7.6c2.6-4.7,5.2-12,2.3-19.3a18.9,18.9,0,0,0-4.2-6.5Z"/><path class="cls-3" d="M81.9,61.5l-7.1,4.2-.7-.5,9.1-5.4c8.9,9.2,5.4,19.7,2,25.8a.8.8,0,0,1-.7.4C87.6,79.9,90.1,70.2,81.9,61.5Z"/><path class="cls-4" d="M74.1,65.2a25.2,25.2,0,0,1,6.5,6.6,36.6,36.6,0,0,1,6.9-5.5,18.9,18.9,0,0,0-4.2-6.5Z"/><path class="cls-6" d="M84.9,25.4c-8.6,5.6-21,7.3-33,7.3H50.8c-9.3-.1-18.8-1.1-26.7-4.2a42.5,42.5,0,0,1-6.4-3.2l.3-1.8A29.6,29.6,0,0,1,19,20C21.5,12.9,29,1.4,50.8.1h1.1A45,45,0,0,1,69.5,4.3C84.1,11.6,84.9,25.4,84.9,25.4Z"/><path class="cls-7" d="M78.4,25.1c-7.1,5-17.3,6.6-27.3,6.6h-.9c-9.9,0-20.2-1.6-27.3-6.6a9.1,9.1,0,0,1,.2-1.6c.9-5,5.4-19.8,27.1-21.2h.9A34.8,34.8,0,0,1,65.6,6.2,24.5,24.5,0,0,1,78.4,25.1Z"/><path class="cls-8" d="M84.9,25.4c-8.6,5.6-21,7.3-33,7.3H50.8c-12-.1-24.4-1.8-33-7.4h-.1l.3-1.8C50.5,26.1,64,13.2,69.5,4.3a28.6,28.6,0,0,1,11,9.5A25.1,25.1,0,0,1,84.9,25.4Z"/><path class="cls-9" d="M28.7,11.4a6.3,6.3,0,0,0,1.5,7.1c2,1.6,4.9,2,7.6,1.9a28.9,28.9,0,0,0,13.6-3.8c2.9-1.7,5.6-4.3,5.1-7.3-.7-4.9-9-7.1-13.8-6.4S30.6,6.9,28.7,11.4Z"/><path class="cls-10" d="M31.2,11.2A4,4,0,0,0,32.3,16c1.3,1.1,3.4,1.4,5.3,1.4a20,20,0,0,0,9.3-2.6c2-1.2,3.9-3.1,3.6-5.2s-6.2-4.8-9.6-4.4S32.5,8,31.2,11.2Z"/><path class="cls-11" d="M84.9,25.4c-8.6,5.6-21,7.3-33,7.3H50.8c-12-.1-24.4-1.8-33-7.4,2.5-.1,6.7,0,12.8.3,36.7,2.1,47.1-6,49.9-11.9A25.1,25.1,0,0,1,84.9,25.4Z"/><path class="cls-12" d="M43.9,6.4c.8,1.2-.2,3.1-2.2,4.1s-4.3.9-5.1-.3.2-3.1,2.3-4.1S43.2,5.2,43.9,6.4Z"/><path class="cls-12" d="M49.3,13c.2.7-.5,1.6-1.7,2s-2.3,0-2.6-.7.5-1.6,1.6-1.9S49,12.3,49.3,13Z"/><path class="cls-13" d="M101.8,46.1l-4,3.7-1.9,1.7-7.7,7.2A41.9,41.9,0,0,1,61.2,70l-3.7.2H50.9c-3.8,0-7.2,0-10.4-.2A41.9,41.9,0,0,1,13.6,58.7L9.9,55.2,4,49.8,0,46.1l11.1-19a5.7,5.7,0,0,1,5.8-2.7l3.4.5q4.1.6,8.1.9l6.4.5c5.4.3,10.5.3,15.5.3a4.9,4.9,0,0,1,1.2-.1q4.2.2,8.7,0A185.1,185.1,0,0,0,80.9,25l3.9-.6a5.7,5.7,0,0,1,5.9,2.7l11.1,19Z"/><path class="cls-11" d="M14.7,25.4l3.7.5c2.8.4,5.7.7,8.5.9l6.9.5c5.7.3,11.2.4,16.4.3H60.8c7.1-.2,14.6-.7,22.1-1.6l4.2-.6h2a5.4,5.4,0,0,0-4.3-1l-3.9.6a185.1,185.1,0,0,1-20.7,1.5H51.5a4.9,4.9,0,0,0-1.2-.1c-5,.1-10.1.1-15.5-.2l-6.4-.5q-4-.3-8.1-.9l-3.4-.5a5.5,5.5,0,0,0-4.3,1Z"/><path class="cls-9" d="M34.8,26.3l-.4,34L9.9,55.2,4,49.8,20.3,24.9l2,.2,5.2.6Z"/><path class="cls-11" d="M27.5,25.7,25,54.7,8.9,50.9S19.6,32.8,23.5,25.4Z"/><path class="cls-14" d="M101.8,46.1,88.5,58.5l-1.2,1.1a40.5,40.5,0,0,1-7.1,5.2,38.5,38.5,0,0,1-15.9,5l-1.4.2-12,.2L38.8,70h0a39.3,39.3,0,0,1-14.3-3.7,41.7,41.7,0,0,1-10-6.7L9.4,54.8,0,46.1l5.5,1.4a166.2,166.2,0,0,0,29,4.4c4.1.2,8.6.4,13.4.4h3.6q6.9,0,12.9-.3a165.1,165.1,0,0,0,31-4.3c2.8-.6,4.9-1.3,6.4-1.6Z"/><path class="cls-15" d="M5.5,48.8a168.4,168.4,0,0,0,29,4.3c4.1.3,8.6.4,13.4.4h3.6c4.6,0,8.9,0,12.9-.2a183.9,183.9,0,0,0,31-4.3l4.6-1.2,1.8-1.7c-1.5.3-3.6,1-6.4,1.6a165.1,165.1,0,0,1-31,4.3q-6,.3-12.9.3H47.9c-4.8,0-9.3-.2-13.4-.4a166.2,166.2,0,0,1-29-4.4L0,46.1l1.8,1.7Z"/><path class="cls-9" d="M38.8,70a39.3,39.3,0,0,1-14.3-3.7L5.5,47.5a166.2,166.2,0,0,0,29,4.4Z"/><path class="cls-16" d="M95.4,47.7,80.2,64.8a38.5,38.5,0,0,1-15.9,5V52A165.1,165.1,0,0,0,95.4,47.7Z"/><path class="cls-17" d="M101.8,46.1l-4,3.7-1.9,1.7-7.7,7.2A41.9,41.9,0,0,1,61.2,70l-3.7.2a34.1,34.1,0,0,0,7.6-16.3c2.3-15-20.5-23.8-36.7-28.1l6.4.5c5.4.3,10.5.3,15.5.3a4.9,4.9,0,0,1,1.2-.1q4.2.2,8.7,0A185.1,185.1,0,0,0,80.9,25l3.9-.6a5.7,5.7,0,0,1,5.9,2.7l11.1,19Z"/><path class="cls-18" d="M56.2,52.6a4.1,4.1,0,1,1-4.1-4A4.1,4.1,0,0,1,56.2,52.6Z"/><circle class="cls-19" cx="52.1" cy="52.6" r="2"/><path class="cls-10" d="M52.7,53.8a1.2,1.2,0,0,1-1.5.2,1,1,0,0,1-.5-1.4.9.9,0,0,1,1.4-.2A1,1,0,0,1,52.7,53.8Z"/><circle class="cls-20" cx="13.5" cy="49.1" r="4.1"/><circle class="cls-21" cx="13.5" cy="49.1" r="2"/><path class="cls-10" d="M14.1,50.2a1,1,0,0,1-1.5.2,1.1,1.1,0,0,1-.5-1.4c.2-.4.9-.5,1.5-.2S14.4,49.8,14.1,50.2Z"/><path class="cls-22" d="M90.8,49.1A4.1,4.1,0,1,1,86.7,45,4,4,0,0,1,90.8,49.1Z"/><path class="cls-23" d="M88.7,49.1a1.9,1.9,0,0,1-2,1.9,1.8,1.8,0,0,1-1.9-1.9,1.9,1.9,0,0,1,1.9-2A2,2,0,0,1,88.7,49.1Z"/><path class="cls-10" d="M87.3,50.2a1.1,1.1,0,0,1-1.5.3,1.1,1.1,0,0,1-.5-1.5c.2-.4.9-.5,1.5-.2S87.6,49.8,87.3,50.2Z"/><path class="cls-9" d="M88.5,58.5l-1.2,1.1a40.5,40.5,0,0,1-7.1,5.2,38.5,38.5,0,0,1-15.9,5l-1.4.2-12,.2L38.8,70h0a39.3,39.3,0,0,1-14.3-3.7,41.7,41.7,0,0,1-10-6.7L9.4,54.8c8.4,1.2,19.8,3.6,28.7,8.7S72.2,63.4,88.5,58.5Z"/><ellipse class="cls-24" cx="51.8" cy="65" rx="4.9" ry="3.1"/><path class="cls-25" d="M55.1,67,52.8,87.1a.7.7,0,0,1-.9.6,1,1,0,0,1-.5-.6l-3-20A3.5,3.5,0,0,1,51.5,63H52A3.4,3.4,0,0,1,55.1,67Z"/><path class="cls-4" d="M55.1,67,52.8,87.1a.7.7,0,0,1-.9.6c.5-5.4-.1-20.4-.4-24.7H52A3.4,3.4,0,0,1,55.1,67Z"/></g></g></g></svg>