<?xml version="1.0" encoding="utf-8"?>
<!-- Generator: Adobe Illustrator 24.0.0, SVG Export Plug-In . SVG Version: 6.00 Build 0)  -->
<svg version="1.1" id="Layer_1" xmlns="http://www.w3.org/2000/svg" xmlns:xlink="http://www.w3.org/1999/xlink" x="0px" y="0px"
	 viewBox="0 0 32.2 13.5" style="enable-background:new 0 0 32.2 13.5;" xml:space="preserve">
<title></title>
<g id="Apple_Pay">
	<path id="_Compound_Path_" d="M6,1.8c-0.4,0.5-1,0.7-1.6,0.7c0-0.6,0.2-1.2,0.6-1.6c0.4-0.5,1-0.7,1.6-0.8C6.6,0.7,6.4,1.3,6,1.8
		 M6.6,2.6c-0.9,0-1.6,0.5-2,0.5s-1-0.5-1.7-0.5C1.9,2.7,1.1,3.2,0.7,4c-0.9,1.6-0.2,4,0.7,5.3c0.4,0.6,1,1.4,1.7,1.3
		s0.9-0.4,1.7-0.4s1,0.4,1.7,0.4S7.6,10,8.1,9.3c0.3-0.5,0.6-1,0.7-1.5C7.9,7.5,7.4,6.6,7.4,5.7c0-0.8,0.4-1.6,1.1-2
		C8.1,3.1,7.4,2.7,6.6,2.6 M11.6,0.8v9.7h1.6V7.2h2.1c1.7,0.1,3.2-1.2,3.2-2.9c0-0.1,0-0.2,0-0.3c0.1-1.7-1.2-3.1-2.9-3.2
		c-0.1,0-0.2,0-0.3,0L11.6,0.8z M13.2,2.1h1.7c1-0.1,1.9,0.5,2,1.5c0,0.1,0,0.3,0,0.4c0.1,1-0.7,1.9-1.7,2c-0.1,0-0.2,0-0.4,0h-1.7
		V2.1z M21.2,10.6c0.9,0,1.8-0.5,2.2-1.2l0,0v1.2h1.4V5.7c0-1.4-1.1-2.3-2.9-2.3s-2.8,0.9-2.8,2.2h1.4c0.2-0.6,0.8-1.1,1.4-1
		c0.9,0,1.4,0.4,1.4,1.2v0.5l-1.9,0.1c-1.8,0.1-2.7,0.8-2.7,2.1c0,1.2,1,2.1,2.2,2.1C21.1,10.6,21.1,10.6,21.2,10.6z M21.6,9.4
		c-0.8,0-1.3-0.4-1.3-1s0.5-1,1.4-1l1.7-0.1v0.5c0,0.9-0.8,1.6-1.7,1.6C21.7,9.5,21.7,9.5,21.6,9.4L21.6,9.4z M26.7,13.2
		c1.5,0,2.2-0.6,2.8-2.3l2.7-7.4h-1.5l-1.8,5.8l0,0l-1.8-5.8h-1.6l2.6,7.1L27.9,11c-0.1,0.6-0.7,1-1.3,1h-0.5v1.2
		C26.3,13.2,26.5,13.2,26.7,13.2L26.7,13.2z"/>
</g>
</svg>
