<svg xmlns="http://www.w3.org/2000/svg" viewBox="0 0 620.32 550.85"><defs><style>.cls-1{fill:#111;}.cls-2{fill:#fff;}.cls-3{fill:#e5dddb;}</style></defs><g id="Layer_2" data-name="Layer 2"><g id="Layer_24" data-name="Layer 24"><ellipse class="cls-1" cx="447.82" cy="501.23" rx="172.5" ry="20.32"/><ellipse class="cls-1" cx="313.82" cy="537.23" rx="58.5" ry="6.89"/><ellipse class="cls-1" cx="37.82" cy="510.76" rx="37.5" ry="4.42"/><path class="cls-2" d="M510.76,8.73a11.11,11.11,0,0,1,11.17,10.94L522,89.46a11.19,11.19,0,0,1-11,11l-174.76.26a11,11,0,0,1-10.61-8.83l19.74,0,.12,0,91.3,0a4.21,4.21,0,0,0,1.33-.29,4.3,4.3,0,0,0-1.33-8.44l-9.42.08.06-51A4.25,4.25,0,0,0,423.2,28a4.07,4.07,0,0,0-1.21.25,4.26,4.26,0,0,0-3.08,4.16l-.1,50.82H388.63l.1-50.82A4.26,4.26,0,0,0,384.45,28a4.31,4.31,0,0,0-4.32,4.28l-.23,50.87-30.06,0L350,32.46a4.32,4.32,0,0,0-4.4-4.28,4.11,4.11,0,0,0-4.33,4.27l-.1,50.83-15.91-.09L325,20A11.18,11.18,0,0,1,336.14,9Zm-5.63,23.45a4.3,4.3,0,1,0-8.6,0l-.12,55.13a4.15,4.15,0,0,0,4.27,4.32,5.79,5.79,0,0,0,1.51-.21A4.21,4.21,0,0,0,505,87.3Zm-38.74.09A4.36,4.36,0,0,0,462.11,28c-.13,0-.13,0-.17-.09a4.44,4.44,0,0,0-4.28,4.4l-.06,51-.17-.09a4.07,4.07,0,0,0-1.21.25,4.25,4.25,0,0,0-3.07,4.16,4.14,4.14,0,0,0,4.27,4.32h17.46a3.78,3.78,0,0,0,1.21-.25,4.31,4.31,0,0,0-1.33-8.44l-8.56.09Z"/><path class="cls-1" d="M510.77,0a19.77,19.77,0,0,1,19.76,19.72l.18,69.61A19.77,19.77,0,0,1,511,109.09l-12.29,0c9,18.37,18.27,23.92,30.79,31.13a179.13,179.13,0,0,1,16.58,10.45c16.58,11.75,22.29,29.19,22.22,41.66l3.48,280.3C570.14,511.81,469,514.58,425.64,514c-3.69.07-7.52.18-11.39.16-53.75.14-131.81-5.79-133.35-40.2l.79-281.26c-.28-12.21,5.45-29.69,22.16-41.59a192.24,192.24,0,0,1,16.31-10.49c12.64-7.29,21.83-12.87,30.7-31.23l-14.58,0a19.86,19.86,0,0,1-19.76-19.71l0-69.66A19.61,19.61,0,0,1,336.05.39Zm11.16,19.67A11.11,11.11,0,0,0,510.76,8.73L336.14,9A11.18,11.18,0,0,0,325,20l.22,63.17,15.91.09.1-50.83a4.11,4.11,0,0,1,4.33-4.27,4.32,4.32,0,0,1,4.4,4.28l-.14,50.69,30.06,0,.23-50.87A4.31,4.31,0,0,1,384.45,28a4.26,4.26,0,0,1,4.28,4.33l-.1,50.82h30.18l.1-50.82A4.26,4.26,0,0,1,422,28.2,4.07,4.07,0,0,1,423.2,28a4.25,4.25,0,0,1,4.27,4.32l-.06,51,9.42-.08a4.3,4.3,0,0,1,1.33,8.44,4.21,4.21,0,0,1-1.33.29l-91.3,0-.12,0-19.74,0a11,11,0,0,0,10.61,8.83L511,100.49a11.19,11.19,0,0,0,11-11Zm37.64,172.68c.18-10.36-4.56-24.84-18.48-34.59a182.39,182.39,0,0,0-15.86-10c-14.14-8.25-25.46-14.85-36.12-38.69l-128.66.34c-.13,0-.09.17-.05.3-10.57,23.64-21.75,30.16-35.77,38.47-4.91,2.89-10.09,5.88-15.79,9.89a43.24,43.24,0,0,0-18.59,34.56l-.12,61.27,269.58-.39c.3,0,.38.3.68.35l-.19-12.39-45.15.19a4.27,4.27,0,0,1-4.28-4.33,4.34,4.34,0,0,1,4.29-4.4l45-.15Zm2.29,172.23L560.48,262c-.3,0-.39.13-.65.22l-.13,0-125.6.05-144,.21-.15,83.9,49.06,0A4.3,4.3,0,1,1,339,355l-49,.16-.09,8.9,144.31-.16,125.74-.1A5.17,5.17,0,0,1,561.86,364.58ZM563,456.35l-1.13-84.76a5.12,5.12,0,0,1-1.34.72,1.45,1.45,0,0,1-.69.08l-270,.39-.29,101c.88,20.6,54.47,33.1,136.14,31.69,82.6,1,136.63-11.81,137.48-32.84l-.1-4.68c-8.82,7.6-30,20.13-75.65,25a.46.46,0,0,1-.43,0,4.3,4.3,0,0,1-4.28-3.89,4.14,4.14,0,0,1,3.77-4.67c60.84-6.46,74.88-26.94,75-27.11C561.84,456.73,562.52,456.65,563,456.35Z"/><path class="cls-3" d="M541.09,157.76c13.92,9.75,18.66,24.23,18.48,34.59l.51,40.46-45,.15a4.34,4.34,0,0,0-4.29,4.4,4.27,4.27,0,0,0,4.28,4.33l45.15-.19.19,12.39c-.3,0-.38-.31-.68-.35l-269.58.39.12-61.27a43.24,43.24,0,0,1,18.59-34.56c5.7-4,10.88-7,15.79-9.89,14-8.31,25.2-14.83,35.77-38.47,0-.13-.08-.26.05-.3l128.66-.34c10.66,23.84,22,30.44,36.12,38.69A182.39,182.39,0,0,1,541.09,157.76Zm-38.61,79.6A4.16,4.16,0,0,0,498.2,233l-11.31,0a4.37,4.37,0,0,0,0,8.73l11.26-.11A4.16,4.16,0,0,0,502.48,237.36Zm-154.22-84.3a4.33,4.33,0,0,0,.59-6.06,4.58,4.58,0,0,0-6.19-.54,4.43,4.43,0,0,0-.59,6.06,3.94,3.94,0,0,0,3.39,1.6,4.44,4.44,0,0,0,2.84-.93Zm-15.67,9.85a4.36,4.36,0,0,0,2.14-5.7,4.3,4.3,0,0,0-5.75-2.27,4.39,4.39,0,0,0-2.14,5.71,4.16,4.16,0,0,0,3.86,2.6A4.74,4.74,0,0,0,332.59,162.91Zm-14.36,7.71a4.46,4.46,0,0,0,.85-6.15,4.38,4.38,0,0,0-6.1-.72,4.48,4.48,0,0,0-.85,6.15,4.9,4.9,0,0,0,3.52,1.57A4.69,4.69,0,0,0,318.23,170.62Zm-9.35,11.64a4.38,4.38,0,0,0-8-3.52,4.63,4.63,0,0,0,2.33,5.82,3.27,3.27,0,0,0,1.68.31A4.28,4.28,0,0,0,308.88,182.26ZM306,197.51a4.33,4.33,0,0,0-8.65-.17,4.16,4.16,0,0,0,4.28,4.32l0,.13A4.26,4.26,0,0,0,306,197.51Zm-.23,17.25a4.21,4.21,0,0,0-4.27-4.33,4.37,4.37,0,1,0,4.27,4.33ZM306,232a4.38,4.38,0,0,0-4.4-4.28,4.45,4.45,0,0,0-4.29,4.41,4.34,4.34,0,0,0,4.41,4.28,4.07,4.07,0,0,0,1.21-.25A4.25,4.25,0,0,0,306,232Z"/><path class="cls-1" d="M500.86,27.85a4.16,4.16,0,0,1,4.27,4.33L505,87.3a4.21,4.21,0,0,1-2.82,4.07,5.79,5.79,0,0,1-1.51.21,4.15,4.15,0,0,1-4.27-4.32l.12-55.13A4.16,4.16,0,0,1,500.86,27.85Z"/><path class="cls-2" d="M560.48,262l1.38,102.57a5.17,5.17,0,0,0-2-.79l-125.74.1,0-11.31a8.13,8.13,0,0,0,8.08-8.08V331.34l13.16,0a8.12,8.12,0,0,0,8.08-8.08l-.07-19a8.12,8.12,0,0,0-8.08-8.08H442.17l0-13a8.27,8.27,0,0,0-8.13-8.21l0-12.6,125.6-.05.13,0C560.09,262.14,560.18,262,560.48,262Z"/><path class="cls-1" d="M462.11,28a4.36,4.36,0,0,1,4.28,4.32l-.19,51,8.56-.09a4.31,4.31,0,0,1,1.33,8.44,3.78,3.78,0,0,1-1.21.25H457.42a4.14,4.14,0,0,1-4.27-4.32,4.25,4.25,0,0,1,3.07-4.16,4.07,4.07,0,0,1,1.21-.25l.17.09.06-51a4.44,4.44,0,0,1,4.28-4.4C462,28,462,28,462.11,28Z"/><path class="cls-3" d="M561.87,371.59,563,456.35c-.48.3-1.16.38-1.55.94-.09.17-14.13,20.65-75,27.11a4.14,4.14,0,0,0-3.77,4.67A4.3,4.3,0,0,0,487,493a.46.46,0,0,0,.43,0c45.61-4.91,66.83-17.44,75.65-25l.1,4.68c-.85,21-54.88,33.85-137.48,32.84-81.67,1.41-135.26-11.09-136.14-31.69l.29-101,270-.39a1.45,1.45,0,0,0,.69-.08A5.12,5.12,0,0,0,561.87,371.59Zm-93.53,118.6a4.29,4.29,0,0,0-4.53-4.23c-5.21.27-10.88.41-16.73.46a4.26,4.26,0,0,0-4.32,4.28,4.32,4.32,0,0,0,4.4,4.28c6,0,11.7-.11,17.07-.29A4.38,4.38,0,0,0,468.34,490.19Z"/><path class="cls-1" d="M498.2,233a4.3,4.3,0,1,1-.05,8.6l-11.26.11a4.37,4.37,0,0,1,0-8.73Z"/><path class="cls-1" d="M455.33,296.15a8.12,8.12,0,0,1,8.08,8.08l.07,19a8.12,8.12,0,0,1-8.08,8.08l-13.16,0V344.5a8.13,8.13,0,0,1-8.08,8.08l-18.75,0a8.08,8.08,0,0,1-8.21-8l0-13-13,0a8.18,8.18,0,0,1-8.26-8.17l0-18.87a8.27,8.27,0,0,1,8.21-8.13l13,0,0-13.16a8,8,0,0,1,8.09-8.08l18.83-.16a8.27,8.27,0,0,1,8.13,8.21l0,13Zm-.49,26.48-.12-17.84-16.85.08a4.21,4.21,0,0,1-4.28-4.32l-.08-16.86-17.76-.05.12,17a4.48,4.48,0,0,1-4.32,4.28l-16.86.08-.05,17.76,16.9.05a4.33,4.33,0,0,1,4.41,4.28L415.9,344l17.72-.08L433.53,327a4.36,4.36,0,0,1,4.46-4.32Z"/><path class="cls-2" d="M434.1,262.32l0,12.6-18.83.16a8,8,0,0,0-8.09,8.08l0,13.16-13,0a8.27,8.27,0,0,0-8.21,8.13l0,18.87a8.18,8.18,0,0,0,8.26,8.17l13,0,0,13a8.08,8.08,0,0,0,8.21,8l18.75,0,0,11.31-144.31.16.09-8.9,49-.16a4.3,4.3,0,1,0,.05-8.6l-49.06,0,.15-83.9Z"/><path class="cls-1" d="M463.81,486a4.29,4.29,0,0,1,4.53,4.23,4.38,4.38,0,0,1-4.11,4.5c-5.37.18-11.05.32-17.07.29a4.32,4.32,0,0,1-4.4-4.28,4.26,4.26,0,0,1,4.32-4.28C452.93,486.37,458.6,486.23,463.81,486Z"/><path class="cls-1" d="M348.85,147a4.33,4.33,0,0,1-.59,6.06l0,.13a4.44,4.44,0,0,1-2.84.93,3.94,3.94,0,0,1-3.39-1.6,4.43,4.43,0,0,1,.59-6.06A4.58,4.58,0,0,1,348.85,147Z"/><path class="cls-1" d="M334.73,157.21a4.36,4.36,0,0,1-2.14,5.7,4.74,4.74,0,0,1-1.89.34,4.16,4.16,0,0,1-3.86-2.6,4.39,4.39,0,0,1,2.14-5.71A4.3,4.3,0,0,1,334.73,157.21Z"/><path class="cls-1" d="M319.08,164.47a4.46,4.46,0,0,1-.85,6.15,4.69,4.69,0,0,1-2.58.85,4.9,4.9,0,0,1-3.52-1.57,4.48,4.48,0,0,1,.85-6.15A4.38,4.38,0,0,1,319.08,164.47Z"/><path class="cls-1" d="M306.59,176.58a4.44,4.44,0,0,1,2.29,5.68,4.28,4.28,0,0,1-4,2.61,3.27,3.27,0,0,1-1.68-.31,4.63,4.63,0,0,1-2.33-5.82A4.44,4.44,0,0,1,306.59,176.58Z"/><path class="cls-1" d="M301.86,193.15a4.32,4.32,0,0,1-.18,8.64l0-.13a4.16,4.16,0,0,1-4.28-4.32A4.34,4.34,0,0,1,301.86,193.15Z"/><path class="cls-1" d="M301.51,210.43a4.21,4.21,0,0,1,4.27,4.33,4.28,4.28,0,1,1-4.27-4.33Z"/><path class="cls-1" d="M301.59,227.72A4.38,4.38,0,0,1,306,232a4.25,4.25,0,0,1-3.07,4.16,4.07,4.07,0,0,1-1.21.25,4.34,4.34,0,0,1-4.41-4.28A4.45,4.45,0,0,1,301.59,227.72Z"/><polygon class="cls-3" points="164.96 420.53 178.81 426.09 191.3 438.83 196.58 458.1 196.66 484.11 183.38 509.07 163.9 521.21 145.41 521.95 133 516.84 120.36 507.52 105.63 502.21 83.72 502.96 11.13 503.18 4.95 497.72 4.89 478.49 11.71 469.62 35.68 469.55 76.77 469.42 97.3 464.57 110.26 450.15 121.98 424.93 139.62 419.24 164.96 420.53"/><path class="cls-1" d="M0,492.34l0-10.86a15.55,15.55,0,0,1,15.48-15.59l62.46-.19a31.15,31.15,0,0,0,29.66-21.19,62.08,62.08,0,0,1,6.94-14.69A30.53,30.53,0,0,1,140,416.25l25-.07A29.53,29.53,0,0,1,182,421.12c7.07,4.86,12.4,12.7,15.84,23.31,3.83,11.82,7.08,29.55.76,46.87-6.17,16.94-19.88,29.45-36.66,33.46-12.77,3-25.39.57-32.92-6.48a35.36,35.36,0,0,0-3.28-2.7,43.86,43.86,0,0,0-26.09-8l-84,.25A15.56,15.56,0,0,1,0,492.34Zm193.46-22.25a76.44,76.44,0,0,0-3.91-23c-2.83-8.76-7.05-15.11-12.51-18.87a21.06,21.06,0,0,0-12-3.42l-25,.08a21.89,21.89,0,0,0-18.31,9.7,53.3,53.3,0,0,0-5.95,12.64A39.78,39.78,0,0,1,78,474.33l-62.46.19a6.91,6.91,0,0,0-6.88,6.93l0,10.87a6.92,6.92,0,0,0,6.93,6.89l84-.25a52.33,52.33,0,0,1,31.16,9.63,41.92,41.92,0,0,1,4.12,3.39c5.45,5.09,15,6.78,25,4.39,6.7-1.6,23.1-7.54,30.57-28A52.74,52.74,0,0,0,193.49,470.09Z"/><path class="cls-1" d="M120.11,425.68a4.31,4.31,0,0,1,1.77-3.49A30.76,30.76,0,0,1,140,416.25l25-.07A29.53,29.53,0,0,1,182,421.12a31.37,31.37,0,0,1,3.39,2.71,4.29,4.29,0,0,1,1,5.06,17.43,17.43,0,0,1-15.76,10L137,439a17.56,17.56,0,0,1-16.64-11.94A4.39,4.39,0,0,1,120.11,425.68Zm56.45,2.21A21.33,21.33,0,0,0,165,424.8l-25,.08a22.53,22.53,0,0,0-9.88,2.34,8.86,8.86,0,0,0,6.79,3.15l33.59-.1A8.84,8.84,0,0,0,176.56,427.89Z"/><path class="cls-1" d="M24.58,503.5l-.1-33.32a4.31,4.31,0,1,1,8.62,0l.1,33.32a4.31,4.31,0,1,1-8.62,0Z"/><circle class="cls-1" cx="153.64" cy="493.81" r="5.62"/><polygon class="cls-3" points="317.85 523.4 327.79 512.26 333.31 495.3 329.46 475.69 317.97 452.37 294.98 435.92 272.13 433.71 255.24 441.26 246.4 451.35 239.22 465.32 228.39 476.63 208.43 485.71 143.31 517.79 140.21 525.43 148.71 542.68 158.76 547.59 180.26 536.99 217.12 518.83 237.66 514.05 255.69 521.2 277.39 538.58 295.73 535.83 317.85 523.4"/><path class="cls-1" d="M145.27,511.62,220.6,474.5a43.86,43.86,0,0,0,19.81-18.76,34.55,34.55,0,0,0,1.74-3.88c3.61-9.66,13.81-17.5,26.6-20.44,16.82-3.88,34.66,1.23,47.72,13.66,13.36,12.71,18.34,30,20.16,42.32,1.64,11,.35,20.43-3.82,27.92a29.57,29.57,0,0,1-13,12l-22.4,11a30.52,30.52,0,0,1-28.86-.83,61.84,61.84,0,0,1-12.75-10.07,31.17,31.17,0,0,0-36-5.79l-56,27.61a15.55,15.55,0,0,1-20.8-7.08l-4.81-9.74A15.56,15.56,0,0,1,145.27,511.62Zm165.25-60.29c-15.79-15-33.12-13.05-39.84-11.51-10,2.31-17.84,8.08-20.46,15.07a40.55,40.55,0,0,1-2.18,4.86,52.33,52.33,0,0,1-23.63,22.48l-75.33,37.12a6.93,6.93,0,0,0-3.15,9.26l4.81,9.75a6.92,6.92,0,0,0,9.25,3.15l56-27.6a39.77,39.77,0,0,1,45.93,7.45A53.24,53.24,0,0,0,272.89,530a21.91,21.91,0,0,0,20.72.55l22.4-11a21,21,0,0,0,9.26-8.42c3.23-5.8,4.18-13.36,2.83-22.46a76.7,76.7,0,0,0-6.73-22.34A52.71,52.71,0,0,0,310.52,451.33Z"/><path class="cls-1" d="M275,537.4a17.54,17.54,0,0,1,9.6-18.09l30.13-14.85a17.46,17.46,0,0,1,18.57,2,4.32,4.32,0,0,1,1.36,5,31.53,31.53,0,0,1-1.83,3.93,29.57,29.57,0,0,1-13,12l-22.4,11a30.83,30.83,0,0,1-18.89,2.75,4.31,4.31,0,0,1-3.14-2.35A4.58,4.58,0,0,1,275,537.4Zm43.55-25.2L288.4,527.05a8.82,8.82,0,0,0-4.68,5.84,22.53,22.53,0,0,0,9.89-2.3l22.4-11a21.25,21.25,0,0,0,9-7.89A8.8,8.8,0,0,0,318.53,512.2Z"/><path class="cls-1" d="M155.22,511.52,170,541.41a4.31,4.31,0,0,0,7.74-3.81L163,507.71a4.31,4.31,0,1,0-7.74,3.81Z"/><circle class="cls-1" cx="275.12" cy="462.8" r="5.62"/></g></g></svg>