<svg xmlns="http://www.w3.org/2000/svg" viewBox="0 0 599.9 449.9"><title>ic-pay-3</title><g style="isolation:isolate"><g id="aaa6f126-fb31-4334-a2b1-f0549a2bcf5b" data-name="Layer 2"><g id="b4f58772-2c5b-445c-bd4c-15a253610179" data-name="OBJECTS"><path d="M458.8,449.9H234.7a15,15,0,0,1-14.9-15h0A14.9,14.9,0,0,1,234.7,420H458.8a14.9,14.9,0,0,1,14.9,14.9h0A15,15,0,0,1,458.8,449.9Z" opacity="0.05" style="mix-blend-mode:multiply"/><path d="M448.8,443.4H244.7a9.5,9.5,0,0,1-9.4-9.5h0a9.4,9.4,0,0,1,9.4-9.4H448.8a9.4,9.4,0,0,1,9.4,9.4h0A9.5,9.5,0,0,1,448.8,443.4Z" opacity="0.05" style="mix-blend-mode:multiply"/><polygon points="413.5 412 280 412 296.4 350.6 397.1 350.6 413.5 412" fill="#87abc7"/><path d="M346.7,406.2a282.9,282.9,0,0,1-63.3-6.9L280,412H413.5l-3.4-12.7A283.1,283.1,0,0,1,346.7,406.2Z" opacity="0.1" style="mix-blend-mode:multiply"/><path d="M346.7,359.2a286.7,286.7,0,0,1,54,4.9l-3.6-13.5H296.4l-3.6,13.5A286.4,286.4,0,0,1,346.7,359.2Z" opacity="0.1" style="mix-blend-mode:multiply"/><rect x="93.6" y="53.4" width="506.4" height="298.03" rx="13.9" fill="#98c1e0"/><rect x="104.5" y="63.3" width="484.5" height="278.3" rx="3.6" fill="#b9dcf7"/><path d="M585.4,63.3H419.9V341.6H585.4A3.6,3.6,0,0,0,589,338V66.9A3.6,3.6,0,0,0,585.4,63.3Z" fill="#87abc7"/><path d="M435.7,165.7l16.7-5.2H561.7a8,8,0,0,0,7.9-7.9V121.8a7.9,7.9,0,0,0-7.9-7.9H448.2a7.9,7.9,0,0,0-7.9,7.9v28l-2.5,4.9h0l-4.4,8.2A2,2,0,0,0,435.7,165.7Z" opacity="0.1" style="mix-blend-mode:multiply"/><path d="M561.7,255a7.9,7.9,0,0,0,7.9-7.9V232.9a8,8,0,0,0-7.9-7.9H448.2a8,8,0,0,0-7.9,7.9v11.4l-2.5,4.9h0l-4.4,8.3a1.9,1.9,0,0,0,2.3,2.7l16.7-5.2Z" opacity="0.1" style="mix-blend-mode:multiply"/><path d="M569.6,201.2V182a8,8,0,0,0-7.9-7.9H448.2a8,8,0,0,0-7.9,7.9v22a7.9,7.9,0,0,0,7.9,7.9H557.5l16.7,5.2a1.9,1.9,0,0,0,2.3-2.7l-4.4-8.3h0Z" opacity="0.1" style="mix-blend-mode:multiply"/><path d="M572.1,298.9h0l-2.5-4.8V274.9a7.9,7.9,0,0,0-7.9-7.9H448.2a7.9,7.9,0,0,0-7.9,7.9v22a8,8,0,0,0,7.9,7.9H557.5l16.7,5.2a2,2,0,0,0,2.3-2.8Z" opacity="0.1" style="mix-blend-mode:multiply"/><path d="M585.4,63.3H419.9V98.2H585.4c2,0,3.6-.2,3.6-.4V66.9A3.6,3.6,0,0,0,585.4,63.3Z" fill="#6992b3"/><path d="M442.6,141.2l-9.2,17.5a2,2,0,0,0,2.3,2.8l20.7-6.5Z" fill="#fff"/><path d="M442.6,141.2l-4.8,9.3a8.4,8.4,0,0,0,7.8,7.9l10.8-3.4Z" opacity="0.15" style="mix-blend-mode:multiply"/><rect x="440.3" y="109.7" width="129.2" height="46.64" rx="7.9" fill="#fff"/><line x1="452.2" y1="120.5" x2="557.7" y2="120.5" fill="none" stroke="#d3e2ed" stroke-linecap="round" stroke-linejoin="round" stroke-width="2.09"/><line x1="452.2" y1="128.8" x2="557.7" y2="128.8" fill="none" stroke="#d3e2ed" stroke-linecap="round" stroke-linejoin="round" stroke-width="2.09"/><line x1="452.2" y1="137.1" x2="557.7" y2="137.1" fill="none" stroke="#d3e2ed" stroke-linecap="round" stroke-linejoin="round" stroke-width="2.09"/><line x1="452.2" y1="145.5" x2="533.8" y2="145.5" fill="none" stroke="#d3e2ed" stroke-linecap="round" stroke-linejoin="round" stroke-width="2.09"/><path d="M442.6,235.7l-9.2,17.5a2,2,0,0,0,2.3,2.8l20.7-6.4Z" fill="#fff"/><path d="M442.6,235.7l-4.8,9.3a8.4,8.4,0,0,0,7.8,7.9l10.8-3.3Z" opacity="0.15" style="mix-blend-mode:multiply"/><rect x="440.3" y="220.8" width="129.2" height="30" rx="7.9" fill="#fff"/><line x1="452.2" y1="231.7" x2="557.7" y2="231.7" fill="none" stroke="#d3e2ed" stroke-linecap="round" stroke-linejoin="round" stroke-width="2.09"/><line x1="452.2" y1="240" x2="533.8" y2="240" fill="none" stroke="#d3e2ed" stroke-linecap="round" stroke-linejoin="round" stroke-width="2.09"/><path d="M567.3,192.6l9.2,17.5a2,2,0,0,1-2.3,2.8l-20.7-6.4Z" fill="#fff"/><path d="M567.3,192.6l4.8,9.3a8.4,8.4,0,0,1-7.8,7.9l-10.8-3.3Z" opacity="0.15" style="mix-blend-mode:multiply"/><rect x="440.3" y="169.9" width="129.2" height="37.76" rx="7.9" transform="translate(1009.9 377.6) rotate(180)" fill="#fff"/><line x1="557.7" y1="180.7" x2="452.2" y2="180.7" fill="none" stroke="#d3e2ed" stroke-linecap="round" stroke-linejoin="round" stroke-width="2.09"/><line x1="557.7" y1="189.1" x2="452.2" y2="189.1" fill="none" stroke="#d3e2ed" stroke-linecap="round" stroke-linejoin="round" stroke-width="2.09"/><line x1="557.7" y1="197" x2="476.1" y2="197" fill="none" stroke="#d3e2ed" stroke-linecap="round" stroke-linejoin="round" stroke-width="2.09"/><path d="M567.3,285.5l9.2,17.5a2,2,0,0,1-2.3,2.8l-20.7-6.5Z" fill="#fff"/><path d="M567.3,285.5l4.8,9.2a8.4,8.4,0,0,1-7.8,8l-10.8-3.4Z" opacity="0.15" style="mix-blend-mode:multiply"/><rect x="440.3" y="262.8" width="129.2" height="37.76" rx="7.9" transform="translate(1009.9 563.3) rotate(180)" fill="#fff"/><line x1="557.7" y1="273.6" x2="452.2" y2="273.6" fill="none" stroke="#d3e2ed" stroke-linecap="round" stroke-linejoin="round" stroke-width="2.09"/><line x1="557.7" y1="281.9" x2="452.2" y2="281.9" fill="none" stroke="#d3e2ed" stroke-linecap="round" stroke-linejoin="round" stroke-width="2.09"/><line x1="557.7" y1="289.8" x2="476.1" y2="289.8" fill="none" stroke="#d3e2ed" stroke-linecap="round" stroke-linejoin="round" stroke-width="2.09"/><rect x="255.9" y="412" width="181.7" height="24.98" rx="12.3" fill="#b9dcf7"/><path d="M425.3,428.7H268.2a12.4,12.4,0,0,1-11.6-8.4,14.1,14.1,0,0,0-.7,4.1v.3A12.4,12.4,0,0,0,268.2,437H425.3a12.4,12.4,0,0,0,12.3-12.3v-.3a14.1,14.1,0,0,0-.7-4.1A12.4,12.4,0,0,1,425.3,428.7Z" opacity="0.05" style="mix-blend-mode:multiply"/><path d="M332.6,53.4V66.6a14.2,14.2,0,0,0,28.3,0V53.4Z" fill="#98c1e0"/><circle cx="346.7" cy="69.3" r="6.1" fill="#e0f4ff"/><circle cx="346.7" cy="69.3" r="2.8" fill="#fff"/><path d="M93.6,319.5v18a14,14,0,0,0,13.9,14H586a14,14,0,0,0,13.9-14v-18Z" fill="#b9dcf7"/><rect x="556.2" y="326.2" width="18.5" height="18.54" rx="2.6" fill="#fff"/><rect x="557.7" y="327.8" width="15.4" height="15.44" rx="2.2" fill="#98c1e0"/><path d="M558.7,333.1a8.7,8.7,0,0,0,13.5,0v-2.5a1.9,1.9,0,0,0-1.9-1.9h-9.7a1.9,1.9,0,0,0-1.9,1.9Z" fill="#fff" opacity="0.2"/><rect x="541" y="331.2" width="8.5" height="8.52" rx="1.2" fill="#e0f4ff"/><rect x="542" y="332.2" width="6.5" height="6.51" rx="0.9" fill="#98c1e0"/><rect x="528.3" y="331.2" width="8.5" height="8.52" rx="1.2" fill="#e0f4ff"/><rect x="529.3" y="332.2" width="6.5" height="6.51" rx="0.9" fill="#98c1e0"/><rect x="515.5" y="331.2" width="8.5" height="8.52" rx="1.2" fill="#e0f4ff"/><rect x="516.5" y="332.2" width="6.5" height="6.51" rx="0.9" fill="#98c1e0"/><text transform="translate(435.4 87.1)" font-size="16.38" fill="#fff" font-family="OpenSans-Regular, Open Sans">ONLINE DOCTOR</text><polygon points="104.5 306.6 589 313.9 589 319.5 104.5 319.5 104.5 306.6" opacity="0.05" style="mix-blend-mode:multiply"/><path d="M106.9,264h2.7l2-.2h.5l2.1-.3h0l2.1-.4h.4l2-.5h.4l1.8-.5.3-.2,2-.7.4-.2,2-.8h.1l1.8-.9.5-.2,1.8-1,.4-.2,1.6-.9.3-.2,1.8-1.1.4-.3,1.8-1.2h.1l1.6-1.2.4-.3,1.6-1.2.4-.3,1.4-1.1.3-.3,1.5-1.3.4-.3,1.5-1.3h.1l1.4-1.3.4-.3,1.4-1.4a.2.2,0,0,1,.2-.2L150,242l.3-.2,1.3-1.3.2-.3,1.3-1.4h0l1.2-1.3.2-.2,1.1-1.3.2-.2,1-1.2h.1l1-1.2v-.2l.8-.9-.3,6.3a2.4,2.4,0,0,0,2.6,2.5h2.4l-.3,4.2a2.7,2.7,0,0,0,.5,1.5l-.2,72.8H285.8l.2-2.1,9.4-85.9,2.9,4.2h.1l.7.9h.1l.7,1h.1a7.6,7.6,0,0,0,.8,1.1v.2l.9,1,.2.2.9,1.1h.1l1,1.1.2.3,1,1.1.3.2a6.9,6.9,0,0,0,1.1,1.3h.1l1.2,1.2c0,.1.1.2.2.3l1.2,1.2.3.2,1.4,1.2v.2l1.3,1.1.3.3,1.4,1.1.3.3,1.5,1.2h.2l1.4,1.1.3.2,1.6,1.1.4.2,1.6,1.1.3.2,1.6.9.3.2,1.7.9.4.3,1.8.9h.3l1.8.8h.3l1.9.7.4.2,2,.7h.3l2,.5h.1l2.1.5h.5l2.1.3h.3l2.2.2h.1l2.3.2h5.4l1.7-.3h.5l1.4-.3h.4l1.8-.4h.4l1.5-.4h.5l1.9-.6h0l2-.7.5-.2,1.6-.7h.5l2-.9.4-.2,1.7-.7.6-.3,1.9-.9a.1.1,0,0,1,.1-.1l2.1-1.1.6-.3,1.6-.8.6-.3,2.1-1.2.4-.2,1.7-1,.7-.4,1.9-1.1h.2l2.1-1.3.6-.4,1.7-1,.5-.4,2.1-1.3.4-.3,1.7-1.1.6-.4,1.9-1.3h.2l2.1-1.4.5-.3,1.7-1.2.4-.3,2-1.4.3-.2,1.8-1.3.4-.3,1.9-1.4h0l2-1.5.3-.2,1.7-1.3.2-.2,3.7-2.8.3-.2,3.4-2.7h.1c8.5-6.7,14.1-11.6,14.1-11.6v-.3a20.2,20.2,0,0,0,4.3.4c5.5,0,9.6-2,12.4-5.2,6.6-1.5,13.2-5.1,12.1-8.9s-3.7-3.2-7.3-2.9v-.3c4.8-2.5,8.3-5.8,7-8.8s-4-3-7.5-2.4a1.9,1.9,0,0,1-.2-.7c3.5-2.7,5.6-5.6,4.3-8.2s-4.3-2.8-7.9-2.1c8.5-8.3,24.1-24.9,16.2-26.2s-27.7,19.3-33.7,26.2c-4.3-2.6-9.6-3.2-13.6,1.9a19.1,19.1,0,0,0-3.8,8.4c-52.6,25.1-63.7,31.1-63.7,31.1s-21.6-29.6-43.8-50c-12.1-11.2-34.7-16.8-34.7-16.8h0a45.4,45.4,0,0,0-6.6-1.6l-.5-.6h-.1a44.3,44.3,0,0,0-8.8-8l.8,3.4-5-2.9h0V141h4.2c-1.3-.9-2.7-1.7-4.1-2.5v-1.2c13.8-5.8,24.4-17.4,27.7-31.4,13.2,3.8,21.6-24.2,10.1-26.4a13.1,13.1,0,0,0-2.7-.3,32,32,0,0,0-.6-15.9H189.9a34.2,34.2,0,0,0-2.5,15.9l-2.6.3c-11.8,2.2-6.5,30.2,7,26.4,1.8,14,11.2,25.6,24.3,31.3v1.3c-1.5.8-3,1.6-4.5,2.6h4.4v.4l-6.4,3.4,2.1-3.8a59.2,59.2,0,0,0-9.6,7.9h0l-.6.6a40.6,40.6,0,0,0-7.8,2,65.5,65.5,0,0,0-34.8,14.4c-19.5,16.2-48.5,54.1-48.5,54.1s-1.4-2.3-5.7-8.3v51.8h.3Z" opacity="0.05" style="mix-blend-mode:multiply"/><path d="M200,121.6a39,39,0,0,1,23.1-7.8,39.5,39.5,0,0,1,22.9,7.6" fill="none" stroke="#49547a" stroke-linecap="round" stroke-linejoin="round" stroke-width="4.22"/><path d="M262.6,132.6s23,6,35.7,17.9c23.3,21.9,46.6,53.7,46.6,53.7s11-6.6,64-34.4L426.3,202s-50.9,50.4-79.2,53.1c-33.4,3.2-58.1-36.5-58.1-36.5S286.4,161.4,262.6,132.6Z" fill="#f7fdff"/><path d="M346,249.1c-20.6,2-41.4-18.4-55.2-27.8,6.3,8.8,28.2,36.5,56.3,33.8,19.7-1.8,50.5-27,67.3-42C391.2,225.4,361.3,247.7,346,249.1Z" opacity="0.03" style="mix-blend-mode:multiply"/><path d="M421.9,162.2s23.2-32.6,34-30.6-19.3,33.2-19.3,33.2Z" fill="#e6ae9c"/><path d="M446.8,181.1c0,11.7-4.7,21.1-16.3,21.1a21.2,21.2,0,1,1,0-42.3C442.1,159.9,446.8,169.4,446.8,181.1Z" fill="#e6ae9c"/><path d="M449.2,162.1c4.4,8-21.5,20.5-25.3,13.7S444.3,153.2,449.2,162.1Z" fill="#ffc2ad"/><path d="M453.2,174.2c3.7,7.8-21.4,17.9-24.5,11.3S449.2,165.6,453.2,174.2Z" fill="#ffc2ad"/><path d="M454.2,187c2.5,7.6-21.5,14.2-23.7,7.8S451.4,178.8,454.2,187Z" fill="#ffc2ad"/><path d="M411.8,191s-10.4-16.3-1.6-29.2,25.8,7.8,21.2,11.9-11.7-1.6-11.7-1.6S428.3,185.3,411.8,191Z" fill="#ffc2ad"/><path d="M182.6,132.9a59.6,59.6,0,0,0-34,15.5c-18.6,17.4-45.5,58.1-45.5,58.1s-8.8-14.1-45.9-61.1l-29,22.4s36.4,78.4,69.3,85,59.8-41.1,59.8-41.1S158.7,161.8,182.6,132.9Z" fill="#f7fdff"/><path d="M98.6,246.8c-22.4-4.5-52.2-51-68.4-75,7.9,16.1,38.9,75.3,67.3,81,26.3,5.3,48.8-24.2,56.7-36.2C141.1,227.7,119.9,251.1,98.6,246.8Z" opacity="0.03" style="mix-blend-mode:multiply"/><path d="M68.1,129.2c-6.2-.5-10.6,12.4-11.7,16.1-1.9-2.9-4.1-8-7.6-13.1h0c-4.7-11.3-12.2-27.4-16.8-28-8.3-1.2,2,21.9,6.6,31.5h-.3c-7.4-10.2-19.6-25.2-26.5-24.1s7.9,19.5,18,30.9l-.6.8C21.1,135.9,8.8,126,2.8,127.9s12,17.6,22.1,25.2c-.1.6-.3,1.3-.4,1.9-8-6.2-18.7-13.3-23.3-10.8-8,4.1,27.9,26.1,27.9,26.1h0a17,17,0,0,0,4,2.4,20.1,20.1,0,0,0,20.6-2.9h0s8.1-3.7,14.2-21.4C67.9,148.4,75.3,129.7,68.1,129.2Z" fill="#ffc2ad"/><path d="M283.9,319.5l7.4-146.6a43,43,0,0,0-42.8-42.8H197.8a43,43,0,0,0-42.9,42.8l7.4,146.6Z" fill="#6992b3"/><rect x="204.3" y="73.7" width="37.5" height="76.38" rx="18.8" fill="#ffc2ad"/><path d="M223.1,73.7h0a18.8,18.8,0,0,0-18.8,18.7V119a45,45,0,0,0,27.1,9h.1a44.8,44.8,0,0,0,10.4-1.2V92.4A18.8,18.8,0,0,0,223.1,73.7Z" fill="#e6ae9c"/><polygon points="223.1 286.6 235.7 271.5 228.9 163.4 223.1 157.4 217.3 163.4 210.5 271.5 223.1 286.6" fill="#385973"/><circle cx="223.1" cy="157.4" r="8.3" fill="#477191"/><path d="M204.3,122s4.8,16.9,18.8,21.5V150l-10.3,14.8s-20.7-8.2-22-34.7Z" fill="#87abc7"/><path d="M241.9,122s-4.8,16.9-18.8,21.5V150l10.3,14.8s20.7-8.2,22-34.7Z" fill="#87abc7"/><path d="M255.6,130.7c1.3,6,10.5,54.1-32.5,89.4-43-35.3-33.8-83.4-32.5-89.4a43.1,43.1,0,0,0-35.7,42.2l7.4,146.6H283.9l7.4-146.6A43,43,0,0,0,255.6,130.7Z" fill="#fff"/><path d="M223.7,219.6l-.6.5-.6-.5c-.5,9.8-.9,32.7-.9,59.3,0,15.4.1,29.5.3,40.6h2.4c.2-11.1.3-25.2.3-40.6C224.6,252.3,224.3,229.4,223.7,219.6Z" fill="#dce7eb"/><path d="M221.8,315.1a305.2,305.2,0,0,1-60-5.9l.5,10.3H283.9l.6-10.9A302.9,302.9,0,0,1,221.8,315.1Z" opacity="0.05" style="mix-blend-mode:multiply"/><path d="M190.6,131.6a54.6,54.6,0,0,0-6.6,1.9c-.2.4-13.8,14.8-14.8,57.8l14.2,5L175,213.7s15.4,27.9,48.1,37.9V221.8C175.6,188.6,189.2,137.8,190.6,131.6Z" fill="#dce7eb"/><path d="M255.6,131.6a45.8,45.8,0,0,1,6.6,1.9c.3.4,13.9,14.8,14.8,57.8l-14.2,5,8.5,17.4s-15.5,27.9-48.2,37.9V221.8C270.7,188.6,257.1,137.8,255.6,131.6Z" fill="#dce7eb"/><path d="M190.6,130.7a56.6,56.6,0,0,0-5.9,1.5c-.2.4-13.1,23.2-13.1,56.9l15.7,5.8-9.6,19.6a107.1,107.1,0,0,0,45.4,34.8V220.1C180.1,184.8,189.3,136.7,190.6,130.7Z" fill="#f7fdff"/><path d="M255.6,130.7a56.6,56.6,0,0,1,5.9,1.5c.3.4,13.2,23.2,13.2,56.9L259,194.9l9.5,19.6a106.3,106.3,0,0,1-45.4,34.8V220.1C266.1,184.8,256.9,136.7,255.6,130.7Z" fill="#f7fdff"/><circle cx="233.2" cy="256.8" r="2.9" fill="#dce7eb"/><path d="M236,273.6a2.9,2.9,0,1,1-2.8-2.8A2.9,2.9,0,0,1,236,273.6Z" fill="#dce7eb"/><path d="M236,290.4a2.9,2.9,0,1,1-5.7,0,2.9,2.9,0,0,1,5.7,0Z" fill="#dce7eb"/><circle cx="233.2" cy="307.2" r="2.9" fill="#dce7eb"/><path d="M263.2,65.3s.3-12.5,13.2-9.9,3,39.5-13.2,25.7Z" fill="#e6ae9c"/><path d="M183,65.3s-.2-12.5-13.2-9.9-3,39.5,13.2,25.7Z" fill="#e6ae9c"/><rect x="177.7" y="5.1" width="90.8" height="116.44" rx="45.4" fill="#ffc2ad"/><path d="M263.8,23.9s19.7,18.7,4.7,46.7l-.7-.8c-2.5-3-10.6-14.6-8.9-37Z" fill="#49547a"/><path d="M239.2,87.7a2.7,2.7,0,0,1,2.7,3,19.1,19.1,0,0,1-37.7,0,2.6,2.6,0,0,1,2.6-3Z" fill="#fff"/><path d="M223,77.4a9.4,9.4,0,0,1-8.4-5.3v1.4a8.5,8.5,0,0,0,16.9,0V72.1A9.6,9.6,0,0,1,223,77.4Z" fill="#e6ae9c"/><path d="M194.3,66.7V61.2a7.2,7.2,0,0,1,7-7.3h0a7.2,7.2,0,0,1,7.1,7.3v5.5" fill="none" stroke="#49547a" stroke-linecap="round" stroke-linejoin="round" stroke-width="2.31"/><path d="M237.9,66.7V61.2a7.2,7.2,0,0,1,7-7.3h0a7.2,7.2,0,0,1,7.1,7.3v5.5" fill="none" stroke="#49547a" stroke-linecap="round" stroke-linejoin="round" stroke-width="2.31"/><path d="M177.7,70.6a3,3,0,0,0,.7-.8c2.5-3,10.6-14.6,8.9-37,0,0,15.3,7.8,52,7.2,27.3-.4,34-13.5,31.5-29.7,0,0-7.9,2.4-31.8-6.5-26.1-9.7-56-.2-56.6,20.1C182.4,23.9,162.7,42.6,177.7,70.6Z" fill="#49547a"/><path d="M209.4,49.1a2.3,2.3,0,0,1-1.7-.7c-.9-.9-3.1-2-6.4-2s-5.5,1.1-6.4,2a2.3,2.3,0,1,1-3.3-3.2c2-2.1,5.7-3.4,9.7-3.4s7.7,1.3,9.8,3.4a2.3,2.3,0,0,1-1.7,3.9Z" fill="#49547a"/><path d="M253,49.1a2.3,2.3,0,0,1-1.7-.7c-.9-.9-3.1-2-6.4-2s-5.5,1.1-6.4,2a2.3,2.3,0,1,1-3.3-3.2c2-2.1,5.7-3.4,9.7-3.4s7.7,1.3,9.8,3.4a2.3,2.3,0,0,1-1.7,3.9Z" fill="#49547a"/><path d="M160.6,228.8h-5.5a2.7,2.7,0,0,1-2.7-2.8V195.2a15.2,15.2,0,0,1,15.1-15.1H185a15.2,15.2,0,0,1,15.1,15.1V226a2.7,2.7,0,0,1-2.7,2.8h-5.6" fill="none" stroke="#49547a" stroke-linecap="round" stroke-linejoin="round" stroke-width="3.16"/><path d="M165.5,233.4H163a4.7,4.7,0,0,1-4.6-4.6h0a4.6,4.6,0,0,1,4.6-4.6h2.5a4.6,4.6,0,0,1,4.6,4.6h0A4.7,4.7,0,0,1,165.5,233.4Z" fill="#6270a3"/><path d="M160.6,236.3h0a3,3,0,0,1-3-3v-9a3,3,0,0,1,3-3.1h0a3,3,0,0,1,3,3.1v9A3,3,0,0,1,160.6,236.3Z" fill="#49547a"/><path d="M246,121.4c15.2,10.9,25.6,32.1,25.6,56.6v36.8" fill="none" stroke="#49547a" stroke-linecap="round" stroke-linejoin="round" stroke-width="4.22"/><path d="M174.6,178c0-24.4,10.3-45.6,25.4-56.4" fill="none" stroke="#49547a" stroke-linecap="round" stroke-linejoin="round" stroke-width="4.22"/><path d="M185.1,224.2h2.5a4.6,4.6,0,0,1,4.6,4.6h0a4.7,4.7,0,0,1-4.6,4.6h-2.5a4.6,4.6,0,0,1-4.6-4.6h0A4.5,4.5,0,0,1,185.1,224.2Z" fill="#6270a3"/><path d="M190,221.2h0a3.1,3.1,0,0,1,3,3.1v9a3.1,3.1,0,0,1-3,3h0a3.1,3.1,0,0,1-3.1-3v-9A3.1,3.1,0,0,1,190,221.2Z" fill="#49547a"/><circle cx="271.6" cy="214.8" r="10" fill="#6270a3"/><circle cx="271.6" cy="214.8" r="8.1" transform="translate(-61.3 119.6) rotate(-22.4)" fill="#49547a"/><circle cx="271.6" cy="214.8" r="5.4" fill="#9ba6cf"/></g></g></g></svg>