<svg xmlns="http://www.w3.org/2000/svg" xmlns:xlink="http://www.w3.org/1999/xlink" viewBox="0 0 427.9 376.1"><defs><linearGradient id="bb31964d-a6f1-4929-8967-a4dfc6e3e176" x1="143.52" y1="376.07" x2="143.52" y2="362.98" gradientUnits="userSpaceOnUse"><stop offset="0" stop-color="#c8c8c8" stop-opacity="0"/><stop offset="1" stop-color="#c8c8c8"/></linearGradient><linearGradient id="bdb9854f-3e70-41f8-b3c3-1e61d8ee4d0c" x1="143.52" y1="337.26" x2="143.52" y2="355.97" gradientUnits="userSpaceOnUse"><stop offset="0" stop-color="#f0a87e" stop-opacity="0"/><stop offset="1" stop-color="#f0a87e"/></linearGradient><linearGradient id="ada70976-885d-4d33-b056-5efa0e52559d" x1="143.52" y1="362.98" x2="143.52" y2="355.97" gradientUnits="userSpaceOnUse"><stop offset="0" stop-color="#969696" stop-opacity="0"/><stop offset="1" stop-color="#969696"/></linearGradient><linearGradient id="a970c033-d26b-4ce8-8d57-0045ae8b9039" x1="199.13" y1="282.43" x2="199.13" y2="134.27" gradientUnits="userSpaceOnUse"><stop offset="0" stop-color="#fad2b4"/><stop offset="1" stop-color="#fad2b4" stop-opacity="0"/></linearGradient><linearGradient id="a2d94cb6-fb03-4e27-b9e3-2012c2e66900" x1="143.52" y1="190" x2="143.52" y2="163.93" gradientUnits="userSpaceOnUse"><stop offset="0" stop-color="#fad2b4" stop-opacity="0"/><stop offset="1" stop-color="#fad2b4"/></linearGradient><linearGradient id="eebdd0be-c374-4f15-8ccf-534050acb204" x1="94.02" y1="20.78" x2="94.02" y2="144.22" gradientUnits="userSpaceOnUse"><stop offset="0" stop-color="#e6844b" stop-opacity="0"/><stop offset="1" stop-color="#e6844b"/></linearGradient><linearGradient id="f5becf26-c468-427a-be47-410884d0f3c2" x1="197.71" y1="131.32" x2="197.71" y2="105.22" xlink:href="#a2d94cb6-fb03-4e27-b9e3-2012c2e66900"/><linearGradient id="e033228f-8da0-440c-a210-83f95d1e3c96" x1="1924.21" y1="131.32" x2="1924.21" y2="105.22" gradientTransform="matrix(-1, 0, 0, 1, 2013.55, 0)" xlink:href="#a2d94cb6-fb03-4e27-b9e3-2012c2e66900"/><linearGradient id="ad2eab32-8375-40cf-815f-85691823075e" x1="87.92" y1="280.68" x2="87.92" y2="136.38" xlink:href="#a970c033-d26b-4ce8-8d57-0045ae8b9039"/><linearGradient id="a7c89843-ec9b-4603-8069-db2f1f4aef64" x1="143.52" y1="169.8" x2="143.52" y2="43.52" xlink:href="#a2d94cb6-fb03-4e27-b9e3-2012c2e66900"/><linearGradient id="a736c616-dafd-42cd-9dd9-2d3df128e660" x1="143.52" y1="283.07" x2="143.52" y2="371.93" gradientUnits="userSpaceOnUse"><stop offset="0" stop-color="#7ecdbf" stop-opacity="0"/><stop offset="1" stop-color="#7ecdbf"/></linearGradient><linearGradient id="ac76c6bd-41e0-44fd-a6aa-c581edb84cc8" x1="143.52" y1="156.51" x2="143.52" y2="144.14" gradientUnits="userSpaceOnUse"><stop offset="0" stop-color="#eb5959" stop-opacity="0"/><stop offset="1" stop-color="#eb5959"/></linearGradient><linearGradient id="ec5602d0-1585-4036-95d5-144ec986df45" x1="42.83" y1="282.43" x2="42.83" y2="134.27" xlink:href="#a970c033-d26b-4ce8-8d57-0045ae8b9039"/><linearGradient id="a2b555e3-e160-4cce-9629-f18a290fe5f1" x1="72.28" y1="282.46" x2="72.28" y2="134.38" xlink:href="#a970c033-d26b-4ce8-8d57-0045ae8b9039"/><linearGradient id="b4bed1c8-de37-4d43-99ad-adfb4a35614a" x1="50.46" y1="282.43" x2="50.46" y2="134.27" xlink:href="#a970c033-d26b-4ce8-8d57-0045ae8b9039"/><linearGradient id="b4ad9331-4087-41f5-84cd-5bb04d4a98e5" x1="55.36" y1="282.43" x2="55.36" y2="134.27" xlink:href="#a970c033-d26b-4ce8-8d57-0045ae8b9039"/><linearGradient id="bbbba407-4f43-4ad9-96fb-2600b77307a7" x1="59.96" y1="282.43" x2="59.96" y2="134.27" xlink:href="#a970c033-d26b-4ce8-8d57-0045ae8b9039"/><linearGradient id="abc0dab6-7c61-45a8-8307-570e75208ecb" x1="143.52" y1="25.25" x2="143.52" y2="119.12" xlink:href="#a736c616-dafd-42cd-9dd9-2d3df128e660"/><linearGradient id="f1d44d7e-acfe-49d5-b960-a8abc787bb78" x1="163.5" y1="164.19" x2="163.5" y2="175.42" xlink:href="#ada70976-885d-4d33-b056-5efa0e52559d"/><linearGradient id="a9fbb705-6c5b-4049-84a9-e9fff5fbc884" x1="90.38" y1="106.4" x2="90.38" y2="129.85" xlink:href="#ada70976-885d-4d33-b056-5efa0e52559d"/><linearGradient id="e30f67c7-9451-4e06-8f5d-668248296b35" x1="196.67" y1="106.4" x2="196.67" y2="129.85" xlink:href="#ada70976-885d-4d33-b056-5efa0e52559d"/><linearGradient id="e1b5a6cf-018b-41ce-86cb-c843d86bd465" x1="143.53" y1="33.98" x2="143.53" y2="113.23" xlink:href="#eebdd0be-c374-4f15-8ccf-534050acb204"/><linearGradient id="a92ba6b4-e70b-4a49-b461-3eeda6b20c90" x1="68.69" y1="282.43" x2="68.69" y2="134.27" xlink:href="#a970c033-d26b-4ce8-8d57-0045ae8b9039"/><linearGradient id="af099a95-e762-4e61-bfa7-4dc686adc48f" y1="168.56" x2="46.8" y2="168.56" gradientUnits="userSpaceOnUse"><stop offset="0" stop-color="#afd7d0" stop-opacity="0"/><stop offset="1" stop-color="#afd7d0"/></linearGradient><linearGradient id="af4b25f2-a8c7-4fc5-9297-e41fac73190d" x1="229.07" y1="282.46" x2="229.07" y2="134.37" xlink:href="#a970c033-d26b-4ce8-8d57-0045ae8b9039"/><linearGradient id="fc3ac382-3fd9-4004-9992-88e46708fc09" x1="213.53" y1="282.43" x2="213.53" y2="134.27" xlink:href="#a970c033-d26b-4ce8-8d57-0045ae8b9039"/><linearGradient id="ec689b27-210e-43c1-b059-133d87117f0c" x1="181.88" y1="283.07" x2="181.88" y2="371.93" xlink:href="#a736c616-dafd-42cd-9dd9-2d3df128e660"/><linearGradient id="e7bf5718-b57d-4c15-bbb9-703697b84058" x1="114.23" y1="283.07" x2="114.23" y2="371.93" xlink:href="#a736c616-dafd-42cd-9dd9-2d3df128e660"/><linearGradient id="f98e532c-d0b5-41b7-9f01-9f66f0fd66aa" x1="217.43" y1="282.52" x2="217.43" y2="301.23" gradientUnits="userSpaceOnUse"><stop offset="0" stop-color="#f5cbb2" stop-opacity="0"/><stop offset="1" stop-color="#f5cbb2"/></linearGradient><linearGradient id="a83bd6f5-de9b-4d45-9a71-69562ea4caf5" x1="381.13" y1="376.07" x2="381.13" y2="301.23" xlink:href="#bb31964d-a6f1-4929-8967-a4dfc6e3e176"/><linearGradient id="bbe31cec-3f51-4d7d-bbc3-928c556a7757" x1="53.73" y1="376.07" x2="53.73" y2="301.23" xlink:href="#bb31964d-a6f1-4929-8967-a4dfc6e3e176"/><linearGradient id="fc97caa2-56e6-4ed0-977b-d1f3b46dd44e" x1="233.8" y1="275.51" x2="233.8" y2="282.52" gradientUnits="userSpaceOnUse"><stop offset="0" stop-color="#e1e1e1" stop-opacity="0"/><stop offset="1" stop-color="#e1e1e1"/></linearGradient><linearGradient id="abdd46e3-d73c-4cea-bf04-84ce453d9ccc" x1="322.67" y1="114.15" x2="322.67" y2="245.11" xlink:href="#bb31964d-a6f1-4929-8967-a4dfc6e3e176"/><linearGradient id="ae4f9abb-7a74-4925-8917-5f3cac27a897" x1="327.34" y1="179.63" x2="327.34" y2="275.51" xlink:href="#bb31964d-a6f1-4929-8967-a4dfc6e3e176"/><linearGradient id="a0dec69f-6e4d-4589-9850-5fca95c5acd3" x1="322.67" y1="275.51" x2="322.67" y2="282.52" xlink:href="#bb31964d-a6f1-4929-8967-a4dfc6e3e176"/></defs><title>ic-pay-1</title><g style="isolation:isolate"><g id="f4095201-8dc6-43b9-b8e8-eb5312b72b3d" data-name="Layer 2"><g id="f620cb26-c690-4ea8-ae1b-de2d3a9534cd" data-name="BACKGROUND"><path d="M78,376.1H349.9a212.3,212.3,0,0,0,76.6-163.5C426.5,95.2,331.4,0,214,0S1.4,95.2,1.4,212.6A212.3,212.3,0,0,0,78,376.1Z" fill="#dcebe6"/></g><g id="e90f10aa-b8fa-4041-ad7b-50d01f7146f9" data-name="OBJECTS"><rect x="134.2" y="363" width="18.7" height="13.08" fill="#c8c8c8"/><rect x="134.2" y="363" width="18.7" height="13.08" opacity="0.5" fill="url(#bb31964d-a6f1-4929-8967-a4dfc6e3e176)" style="mix-blend-mode:multiply"/><path d="M204.3,356H82.7a4.7,4.7,0,0,1-4.7-4.7h0a14,14,0,0,1,14.1-14H195a14,14,0,0,1,14,14h0A4.7,4.7,0,0,1,204.3,356Z" fill="#f0a87e"/><path d="M204.3,356H82.7a4.7,4.7,0,0,1-4.7-4.7h0a14,14,0,0,1,14.1-14H195a14,14,0,0,1,14,14h0A4.7,4.7,0,0,1,204.3,356Z" opacity="0.5" fill="url(#bdb9854f-3e70-41f8-b3c3-1e61d8ee4d0c)" style="mix-blend-mode:multiply"/><path d="M162.9,363H124.2a2.6,2.6,0,0,1-2.3-1.6l-1.8-5.4h46.8l-1.8,5.4A2.4,2.4,0,0,1,162.9,363Z" fill="#969696"/><path d="M162.9,363H124.2a2.6,2.6,0,0,1-2.3-1.6l-1.8-5.4h46.8l-1.8,5.4A2.4,2.4,0,0,1,162.9,363Z" opacity="0.5" fill="url(#ada70976-885d-4d33-b056-5efa0e52559d)" style="mix-blend-mode:multiply"/><path d="M223.9,261.5l-24.8,13.9a4.6,4.6,0,0,1-6.3-1.7,253.4,253.4,0,0,1-18.4-39.4s15.7-9.5,27.5-19.2Z" fill="#fad2b4"/><path d="M223.9,261.5l-24.8,13.9a4.6,4.6,0,0,1-6.3-1.7,253.4,253.4,0,0,1-18.4-39.4s15.7-9.5,27.5-19.2Z" opacity="0.5" fill="url(#a970c033-d26b-4ce8-8d57-0045ae8b9039)" style="mix-blend-mode:multiply"/><path d="M184.1,243c0,1,.1,6.7,0,14.2a207.6,207.6,0,0,1-9.7-22.9s5.6-3.4,12.6-8.2A57.6,57.6,0,0,1,184.1,243Z" fill="#fad2b4" opacity="0.5" style="mix-blend-mode:multiply"/><path d="M201.9,215.1l-4.4,3.5-5.8,35.1h28.5C215.8,244.4,208.3,228.4,201.9,215.1Z" fill="#fad2b4" opacity="0.5" style="mix-blend-mode:multiply"/><path d="M200.6,212.2c.4,1,.9,1.9,1.3,2.9-11.8,9.7-27.5,19.2-27.5,19.2V182.6C184.6,186.4,190.9,191.7,200.6,212.2Z" fill="#fafafa"/><path d="M177,201.3s6.6,9.6,9.1,19.7c6.9-5.7,13-11.7,13.1-11.7l1.4,2.9c.4,1,.9,1.9,1.3,2.9-11.8,9.7-27.5,19.2-27.5,19.2v-33Z" fill="#e1e1e1" opacity="0.5" style="mix-blend-mode:multiply"/><path d="M176.6,183.5l-2.2-.9v4.3C175.3,185.5,176.1,184.4,176.6,183.5Z" fill="#e1e1e1" opacity="0.5" style="mix-blend-mode:multiply"/><path d="M173.2,235.9a7.6,7.6,0,0,0-.4-1.1v-.5a159.2,159.2,0,0,0,27.6-26.4q.9,1.7,1.8,3.6c.8,1.6,1.5,3.3,2.3,5A90.7,90.7,0,0,1,173.2,235.9Z" fill="#fafafa"/><path d="M187,226c0,.2,0,1.5-.2,3.6a74,74,0,0,1-13.6,6.3,7.6,7.6,0,0,0-.4-1.1v-.5c3.4-2.6,8.4-6.6,13.8-11.6C186.7,223.8,186.9,224.9,187,226Z" fill="#e1e1e1" opacity="0.3" style="mix-blend-mode:multiply"/><path d="M204.4,216.5c-.8-1.7-1.5-3.4-2.3-5s-1.2-2.5-1.8-3.6l-1.3,1.6L196.8,223A82.7,82.7,0,0,0,204.4,216.5Z" fill="#e1e1e1" opacity="0.3" style="mix-blend-mode:multiply"/><path d="M168.3,180.4l-13.1-4.8V163.9H131.8v11.7l-13.1,4.8a36.8,36.8,0,0,0,49.6,0Z" fill="#fad2b4"/><path d="M168.3,180.4l-13.1-4.8V163.9H131.8v11.7l-13.1,4.8a36.8,36.8,0,0,0,49.6,0Z" opacity="0.5" fill="url(#a2d94cb6-fb03-4e27-b9e3-2012c2e66900)" style="mix-blend-mode:multiply"/><path d="M155.2,163.9H131.8v10.6c5.9.9,14.8,1.2,23.4-2.1Z" fill="#fad2b4" opacity="0.5" style="mix-blend-mode:multiply"/><path d="M135.1,37.2s-8.9-20.2-32-15.8S75.6,53.8,73,80.7,67.7,136,52.9,136c0,0,11.7,9.2,24.7,0,0,0-3.7,4.9-5.9,6.6,0,0,21.8,7.8,40.8-11.2S115.5,37.2,135.1,37.2Z" fill="#e6844b"/><path d="M135.1,37.2s-8.9-20.2-32-15.8S75.6,53.8,73,80.7,67.7,136,52.9,136c0,0,11.7,9.2,24.7,0,0,0-3.7,4.9-5.9,6.6,0,0,21.8,7.8,40.8-11.2S115.5,37.2,135.1,37.2Z" opacity="0.5" fill="url(#eebdd0be-c374-4f15-8ccf-534050acb204)" style="mix-blend-mode:multiply"/><path d="M86.9,66.2c-6.1,15.9-3.9,28.4-.8,36.4a9.4,9.4,0,0,0-4.7,2.5c-4.5,4.3-3.5,14-.9,18.5s4.7,5.8,7.1,6.8a27.7,27.7,0,0,1-15.9,12.2s21.8,7.8,40.8-11.2,3-94.2,22.6-94.2a29.9,29.9,0,0,0-3.5-5.6,34,34,0,0,0-7.6,3.7C121,35.2,98.8,35.5,86.9,66.2Z" fill="#e6844b" opacity="0.5" style="mix-blend-mode:multiply"/><g opacity="0.5" style="mix-blend-mode:multiply"><path d="M132.5,36.3S115.2,25.7,99.7,34,79.1,68.3,77.3,87.9s.8,39.2-16.7,50.1" fill="none" stroke="#e6844b" stroke-linecap="round" stroke-linejoin="round" stroke-width="0.83"/><path d="M76,133.3s8.3-10.1,7.3-41.8,4.6-45.1,4.6-45.1" fill="none" stroke="#e6844b" stroke-linecap="round" stroke-linejoin="round" stroke-width="0.83"/><path d="M82.8,141s20.6-5.8,17.3-44.1S98,48.5,106.7,40.5s23.1-3.1,23.1-3.1" fill="none" stroke="#e6844b" stroke-linecap="round" stroke-linejoin="round" stroke-width="0.83"/></g><path d="M189.4,111c1.5-4.6,8.6-8.4,13.8-3.4s3.3,12.6.8,17c-5.1,8.7-12,7.6-14.6,4.3Z" fill="#fad2b4"/><path d="M201.9,112a4.8,4.8,0,0,0-3.5-1.9,4.5,4.5,0,0,0-3.5,1.8,15.7,15.7,0,0,0-1.9,3.9,31.2,31.2,0,0,0-.9,4.4l-.5-.3h0a9.7,9.7,0,0,1,3.6-2.3,4.5,4.5,0,0,1,2.3-.3,4.1,4.1,0,0,1,2.1,1,2.4,2.4,0,0,1,.8.9,2.2,2.2,0,0,1,.5,1.1,3.8,3.8,0,0,1-.3,2.4,6.2,6.2,0,0,1-1.4,1.8,3.4,3.4,0,0,1-2.2.7.3.3,0,0,1-.3-.3q0-.2.3-.3h0a3.4,3.4,0,0,0,2.5-2.4,3,3,0,0,0,.2-1.6.9.9,0,0,0-.3-.7l-.6-.7a3.3,3.3,0,0,0-3.3-.7,13.3,13.3,0,0,0-3.5,1.9h-.4v-.2h0a14.4,14.4,0,0,1,.5-4.6,10.3,10.3,0,0,1,1.9-4.3,9.5,9.5,0,0,1,1.9-1.6,5.4,5.4,0,0,1,2.5-.6,5,5,0,0,1,2.4.9,6.9,6.9,0,0,1,1.6,1.8c0,.1,0,.3-.1.3Z" fill="#dcaa8c"/><path d="M189.4,111c1.5-4.6,8.6-8.4,13.8-3.4s3.3,12.6.8,17c-5.1,8.7-12,7.6-14.6,4.3Z" opacity="0.5" fill="url(#f5becf26-c468-427a-be47-410884d0f3c2)" style="mix-blend-mode:multiply"/><path d="M194.4,118.4c3.5-10.1,8.8-10.8,8.8-10.8-5.2-5-12.3-1.2-13.8,3.4v17.9a6,6,0,0,0,3.2,2.1Z" fill="#fad2b4" opacity="0.5" style="mix-blend-mode:multiply"/><path d="M97.7,111c-1.6-4.6-8.7-8.4-13.9-3.4s-3.3,12.6-.7,17c5,8.7,11.9,7.6,14.6,4.3Z" fill="#fad2b4"/><path d="M84.7,111.7a5.5,5.5,0,0,1,1.6-1.8,5,5,0,0,1,2.3-.9,5.1,5.1,0,0,1,2.5.6,6,6,0,0,1,1.9,1.6,12,12,0,0,1,2,4.3,18,18,0,0,1,.5,4.6h0c0,.1-.1.2-.3.2H95a10.8,10.8,0,0,0-3.5-1.9,3.3,3.3,0,0,0-3.3.7l-.6.7-.3.7a3,3,0,0,0,.2,1.6,3.5,3.5,0,0,0,2.6,2.4h0a.5.5,0,0,1,.2.4.2.2,0,0,1-.2.2,3.4,3.4,0,0,1-2.2-.7,4.9,4.9,0,0,1-1.4-1.8,4.7,4.7,0,0,1-.4-2.4,3.7,3.7,0,0,1,.5-1.1,3.6,3.6,0,0,1,.8-.9,4.4,4.4,0,0,1,2.2-1,4.1,4.1,0,0,1,2.2.3,9.7,9.7,0,0,1,3.6,2.3h0l-.5.3a31.2,31.2,0,0,0-.9-4.4,10.9,10.9,0,0,0-1.9-3.9,4.5,4.5,0,0,0-3.4-1.8,4.8,4.8,0,0,0-3.6,1.9h-.4A.2.2,0,0,1,84.7,111.7Z" fill="#dcaa8c"/><path d="M97.7,111c-1.6-4.6-8.7-8.4-13.9-3.4s-3.3,12.6-.7,17c5,8.7,11.9,7.6,14.6,4.3Z" opacity="0.5" fill="url(#e033228f-8da0-440c-a210-83f95d1e3c96)" style="mix-blend-mode:multiply"/><path d="M92.7,118.4c-3.5-10.1-8.9-10.8-8.9-10.8,5.2-5,12.3-1.2,13.9,3.4v17.9a6.4,6.4,0,0,1-3.2,2.1Z" fill="#fad2b4" opacity="0.5" style="mix-blend-mode:multiply"/><path d="M63.2,261.5l24.7,13.9a4.6,4.6,0,0,0,6.3-1.7,242.9,242.9,0,0,0,18.5-39.4,285.5,285.5,0,0,1-27.6-19.2C75.5,235.3,63.2,261.5,63.2,261.5Z" fill="#fad2b4"/><path d="M63.2,261.5l24.7,13.9a4.6,4.6,0,0,0,6.3-1.7,242.9,242.9,0,0,0,18.5-39.4,285.5,285.5,0,0,1-27.6-19.2C75.5,235.3,63.2,261.5,63.2,261.5Z" opacity="0.5" fill="url(#ad2eab32-8375-40cf-815f-85691823075e)" style="mix-blend-mode:multiply"/><path d="M103,243c-.1,1-.1,6.7,0,14.2a228.8,228.8,0,0,0,9.7-22.9s-5.6-3.4-12.6-8.2A57.6,57.6,0,0,0,103,243Z" fill="#fad2b4" opacity="0.5" style="mix-blend-mode:multiply"/><path d="M66.9,253.7H95.3l-5.8-35.1-4.4-3.5C78.8,228.4,71.2,244.4,66.9,253.7Z" fill="#fad2b4" opacity="0.5" style="mix-blend-mode:multiply"/><path d="M86.4,212.2c-.4,1-.8,1.9-1.3,2.9a285.5,285.5,0,0,0,27.6,19.2V182.6C102.5,186.4,96.2,191.7,86.4,212.2Z" fill="#fafafa"/><path d="M110.1,201.3s-6.7,9.6-9.2,19.7c-6.9-5.7-13-11.7-13-11.7l-1.5,2.9c-.4,1-.8,1.9-1.3,2.9a285.5,285.5,0,0,0,27.6,19.2v-33Z" fill="#e1e1e1" opacity="0.5" style="mix-blend-mode:multiply"/><path d="M112.7,182.6l-2.3.9c.5.9,1.3,2,2.3,3.4Z" fill="#e1e1e1" opacity="0.5" style="mix-blend-mode:multiply"/><path d="M113.8,235.9a3.6,3.6,0,0,0,.4-1.1v-.5a162.9,162.9,0,0,1-27.6-26.4c-.6,1.1-1.1,2.3-1.7,3.6l-2.4,5A90.7,90.7,0,0,0,113.8,235.9Z" fill="#fafafa"/><path d="M100.1,226a24.8,24.8,0,0,0,.1,3.6,77.2,77.2,0,0,0,13.6,6.3,3.6,3.6,0,0,0,.4-1.1v-.5c-3.4-2.6-8.4-6.6-13.8-11.6A18.6,18.6,0,0,0,100.1,226Z" fill="#e1e1e1" opacity="0.3" style="mix-blend-mode:multiply"/><path d="M88.1,209.5l-1.4-1.6c-.6,1.1-1.1,2.3-1.7,3.6l-2.4,5c2,1.9,4.6,4.1,7.7,6.5Z" fill="#e1e1e1" opacity="0.3" style="mix-blend-mode:multiply"/><path d="M143.5,169.8c18.9,0,30.6-4.7,37.5-9.4a22.7,22.7,0,0,0,10-17.1l3.8-43.9a51.5,51.5,0,0,0-51.3-55.9h0A51.4,51.4,0,0,0,92.3,99.4l3.8,43.9a22.6,22.6,0,0,0,9.9,17.1C113,165.1,124.7,169.8,143.5,169.8Z" fill="#fad2b4"/><path d="M143.5,169.8c18.9,0,30.6-4.7,37.5-9.4a22.7,22.7,0,0,0,10-17.1l3.8-43.9a51.5,51.5,0,0,0-51.3-55.9h0A51.4,51.4,0,0,0,92.3,99.4l3.8,43.9a22.6,22.6,0,0,0,9.9,17.1C113,165.1,124.7,169.8,143.5,169.8Z" opacity="0.5" fill="url(#a7c89843-ec9b-4603-8069-db2f1f4aef64)" style="mix-blend-mode:multiply"/><path d="M143.5,43.5h0A51.5,51.5,0,0,0,92.1,93.3H101s10.4-15.5,22.5-23.8c0,0,9.3,15.9,32,22.9s32.2,12.8,32.2,12.8h6.6l.5-5.8A51.5,51.5,0,0,0,143.5,43.5Z" fill="#fad2b4" opacity="0.5" style="mix-blend-mode:multiply"/><path d="M107.5,283.3S96.8,309,96.8,328.1l41.6,11.5h10.3l41.6-11.5c0-19.1-10.8-44.8-10.8-44.8Z" fill="#7ecdbf"/><path d="M107.5,283.3S96.8,309,96.8,328.1l41.6,11.5h10.3l41.6-11.5c0-19.1-10.8-44.8-10.8-44.8Z" opacity="0.5" fill="url(#a736c616-dafd-42cd-9dd9-2d3df128e660)" style="mix-blend-mode:multiply"/><path d="M107.5,283.3a182.7,182.7,0,0,0-6.5,19.2l4.8,1.6a56.9,56.9,0,0,0-5.6,8.6v16.4l38.2,10.5h10.3l41.6-11.5c0-19.1-10.8-44.8-10.8-44.8Zm49.8,27.8v22.8h-9.2a11.2,11.2,0,0,1-4.6,3.4v-9.4c0-4.9-1.6-14.4-1.7-18.8h1.7a167.1,167.1,0,0,0,16.8-.9A18.4,18.4,0,0,0,157.3,311.1Z" fill="#7ecdbf" opacity="0.5" style="mix-blend-mode:multiply"/><path d="M106.3,283.3s-3.1,7.6-6.1,17.6a262.2,262.2,0,0,0,86.6,0,178.5,178.5,0,0,0-6.1-17.6c1.8-17.2,1.4-42.2,1.4-42.2a53.3,53.3,0,0,0,2.8-16.4c-.9-11.7-7.9-23.4-7.9-23.4l-2.6-18.7-6.1-2.2a36.8,36.8,0,0,1-49.6,0l-6,2.2-2.6,18.7s-7.1,11.7-8,23.4a57.2,57.2,0,0,0,2.8,16.4S104.6,266.1,106.3,283.3Z" fill="#fafafa"/><line x1="143.5" y1="194.1" x2="143.5" y2="302.2" fill="none" stroke="#e1e1e1" stroke-linecap="round" stroke-linejoin="round" stroke-width="0.41"/><path d="M137.4,200.7a1.9,1.9,0,1,0,1.9-1.9A1.9,1.9,0,0,0,137.4,200.7Z" fill="#e1e1e1"/><path d="M137.4,219.4a1.9,1.9,0,1,0,1.9-1.9A2,2,0,0,0,137.4,219.4Z" fill="#e1e1e1"/><path d="M137.4,238.1a1.9,1.9,0,1,0,1.9-1.9A2,2,0,0,0,137.4,238.1Z" fill="#e1e1e1"/><circle cx="139.3" cy="256.8" r="1.9" fill="#e1e1e1"/><path d="M137.4,275.5a1.9,1.9,0,1,0,1.9-1.9A2,2,0,0,0,137.4,275.5Z" fill="#e1e1e1"/><path d="M137.4,294.2a1.9,1.9,0,1,0,1.9-1.8A1.9,1.9,0,0,0,137.4,294.2Z" fill="#e1e1e1"/><path d="M155.3,204l.4-.2c9-4.4,15.7-12.6,19.2-17.6l-.5-3.6-6.1-2.2a36.8,36.8,0,0,1-49.6,0l-6,2.2-.5,3.6c3.5,5,10.2,13.2,19.2,17.6l.4.2a28.1,28.1,0,0,0,11.7-12.3A28,28,0,0,0,155.3,204Z" fill="#e1e1e1" opacity="0.5" style="mix-blend-mode:multiply"/><path d="M143.5,156.5c15.9,0,18.4-7.6,18.7-11.1a1.1,1.1,0,0,0-1.4-1.2,78.1,78.1,0,0,1-17.3,1.7,79,79,0,0,1-17.3-1.7,1.1,1.1,0,0,0-1.4,1.2C125.1,148.9,127.6,156.5,143.5,156.5Z" fill="#eb5959"/><path d="M143.5,156.5c15.9,0,18.4-7.6,18.7-11.1a1.1,1.1,0,0,0-1.4-1.2,78.1,78.1,0,0,1-17.3,1.7,79,79,0,0,1-17.3-1.7,1.1,1.1,0,0,0-1.4,1.2C125.1,148.9,127.6,156.5,143.5,156.5Z" opacity="0.5" fill="url(#ac76c6bd-41e0-44fd-a6aa-c581edb84cc8)" style="mix-blend-mode:multiply"/><path d="M157.3,153.3c-2.8-1.8-7.1-3.1-13.8-3.1s-11,1.3-13.7,3.1c2.7,1.9,7,3.2,13.7,3.2S154.5,155.2,157.3,153.3Z" fill="#faaaaa"/><path d="M143.3,138a25.6,25.6,0,0,1-.4-4.7,24.9,24.9,0,0,1,.4-4.7c0-.1.1-.2.3-.2l.2.2a24.8,24.8,0,0,1,.3,4.7,25.3,25.3,0,0,1-.3,4.7c-.1.1-.2.2-.3.1Z" fill="#dcaa8c"/><path d="M114.9,112.2c0,3.9,1.1,7,4.7,7s4.6-3.1,4.6-7-1.1-7-4.6-7S114.9,108.4,114.9,112.2Z" fill="#784b41"/><path d="M117.2,108.4l-1.5-.4-1.3-.6a6.9,6.9,0,0,1-2.3-1.9.6.6,0,0,1,.1-.7.6.6,0,0,1,.7.1h0a5.7,5.7,0,0,0,2.1,1.3l1.2.3,1.1.2h.1a.9.9,0,0,1,.8.8.9.9,0,0,1-.9.9Z" fill="#784b41"/><circle cx="105.5" cy="128.6" r="9.4" fill="#faaaaa" opacity="0.5" style="mix-blend-mode:multiply"/><path d="M154.9,96.4a10.8,10.8,0,0,1,5.5-4.6,19.6,19.6,0,0,1,7.1-1.5,16.9,16.9,0,0,1,7,1.5,11.8,11.8,0,0,1,5.6,4.5,1.1,1.1,0,0,1-.3,1.2,1,1,0,0,1-.9-.1h0a20.1,20.1,0,0,0-5.5-2.3,29.5,29.5,0,0,0-5.9-.6,28.8,28.8,0,0,0-5.9.6,18.9,18.9,0,0,0-5.5,2.3h0a1,1,0,0,1-1.2-.3A1.1,1.1,0,0,1,154.9,96.4Z" fill="#784b41"/><path d="M107,96.4a10.8,10.8,0,0,1,5.5-4.6,19.1,19.1,0,0,1,7-1.5,17.4,17.4,0,0,1,7.1,1.5,11.1,11.1,0,0,1,5.5,4.5.9.9,0,0,1-.3,1.2.8.8,0,0,1-.8-.1h-.1a17.8,17.8,0,0,0-5.5-2.3,28.8,28.8,0,0,0-11.7,0,17.8,17.8,0,0,0-5.5,2.3h-.1a.8.8,0,0,1-1.1-.3A.6.6,0,0,1,107,96.4Z" fill="#784b41"/><path d="M172.2,112.2c0,3.9-1.2,7-4.7,7s-4.7-3.1-4.7-7,1.2-7,4.7-7S172.2,108.4,172.2,112.2Z" fill="#784b41"/><path d="M169.7,106.7l1.2-.2,1.2-.3a6.3,6.3,0,0,0,2-1.3h0a.6.6,0,0,1,.8,0,.6.6,0,0,1,0,.6,6,6,0,0,1-2.3,1.9l-1.3.6-1.5.4c-.4,0-.9-.3-.9-.7a.8.8,0,0,1,.7-1Z" fill="#784b41"/><circle cx="181.5" cy="128.6" r="9.4" fill="#faaaaa" opacity="0.5" style="mix-blend-mode:multiply"/><path d="M50.9,179.8a22,22,0,0,0-10-1.9,3.7,3.7,0,0,0-2.8,1.6,33.3,33.3,0,0,0-3.1,6.3,3.3,3.3,0,0,0,0,2.4c.8,2.1,2.5,6.4,3.8,6.4s2.9-4.2,1.6-7.8l1.7-3,4.4,1.4Z" fill="#fad2b4"/><path d="M50.9,179.8a22,22,0,0,0-10-1.9,3.7,3.7,0,0,0-2.8,1.6,33.3,33.3,0,0,0-3.1,6.3,3.3,3.3,0,0,0,0,2.4c.8,2.1,2.5,6.4,3.8,6.4s2.9-4.2,1.6-7.8l1.7-3,4.4,1.4Z" opacity="0.5" fill="url(#ec5602d0-1585-4036-95d5-144ec986df45)" style="mix-blend-mode:multiply"/><path d="M50.9,179.8a22,22,0,0,0-10-1.9,3.7,3.7,0,0,0-2.8,1.6,33.3,33.3,0,0,0-3.1,6.3,3.3,3.3,0,0,0,0,2.4c.8,2.1,2.5,6.4,3.8,6.4s2.9-4.2,1.6-7.8l1.7-3,4.4,1.4Z" fill="#fad2b4" opacity="0.5" style="mix-blend-mode:multiply"/><path d="M58.1,203s2.3,41.6,3.1,55,8.9,19.4,16.1,23.5a6.3,6.3,0,0,0,4,.9c7.5-.6,11.2-4.6,16.9-15.8,0,0-8.4-38.5-18-74.5,0,0-.1-9.4-2.1-16.6,0,0-3.3-8.1-8.7-12.4l-23,21.3s1.5,9.3,4.4,13.6A11.1,11.1,0,0,0,58.1,203Z" fill="#fad2b4"/><path d="M58.1,203s2.3,41.6,3.1,55,8.9,19.4,16.1,23.5a6.3,6.3,0,0,0,4,.9c7.5-.6,11.2-4.6,16.9-15.8,0,0-8.4-38.5-18-74.5,0,0-.1-9.4-2.1-16.6,0,0-3.3-8.1-8.7-12.4l-23,21.3s1.5,9.3,4.4,13.6A11.1,11.1,0,0,0,58.1,203Z" opacity="0.5" fill="url(#a2b555e3-e160-4cce-9629-f18a290fe5f1)" style="mix-blend-mode:multiply"/><path d="M63.8,194.8l12.9-18.1a106.5,106.5,0,0,1-8.1-12.9L46.4,184.4s.5,3,1.4,6.4c0,0,1.8-1.2,1.9-4.5,0,0,.9,1.6,2.1,1s2.3-2.6,2.4-4.7c0,0,1,1.2,2.1.7s3-2.7,3-7.2l1.9,1.3S58.4,187.4,63.8,194.8Z" fill="#fad2b4" opacity="0.5" style="mix-blend-mode:multiply"/><path d="M59.9,171.9a24.6,24.6,0,0,0-12-2.2,3.9,3.9,0,0,0-2.8,1.6,31.2,31.2,0,0,0-3.8,7.8,3.3,3.3,0,0,0,0,2.4c.8,2.5,2.9,7.7,4.4,7.7s3.4-5,2-9.2l1.9-3.4,5.2,1.5Z" fill="#fad2b4"/><path d="M59.9,171.9a24.6,24.6,0,0,0-12-2.2,3.9,3.9,0,0,0-2.8,1.6,31.2,31.2,0,0,0-3.8,7.8,3.3,3.3,0,0,0,0,2.4c.8,2.5,2.9,7.7,4.4,7.7s3.4-5,2-9.2l1.9-3.4,5.2,1.5Z" opacity="0.5" fill="url(#b4bed1c8-de37-4d43-99ad-adfb4a35614a)" style="mix-blend-mode:multiply"/><path d="M47.9,169.7h-.5a36.1,36.1,0,0,0-2.4,5.1,4,4,0,0,0,.2,3.2c1.1,1.8,2.9,5.1,3.1,7.9a12.8,12.8,0,0,0-.6-6l1.9-3.4,5.2,1.5,5.1-6.2A24.6,24.6,0,0,0,47.9,169.7Z" fill="#fad2b4" opacity="0.5" style="mix-blend-mode:multiply"/><path d="M64.8,167.1a24.6,24.6,0,0,0-12-2.2,3.4,3.4,0,0,0-2.8,1.6,31.9,31.9,0,0,0-3.8,7.7,3.6,3.6,0,0,0,0,2.5c.9,2.4,2.9,7.7,4.4,7.7s3.4-5,2-9.2l1.9-3.5,5.2,1.6Z" fill="#fad2b4"/><path d="M64.8,167.1a24.6,24.6,0,0,0-12-2.2,3.4,3.4,0,0,0-2.8,1.6,31.9,31.9,0,0,0-3.8,7.7,3.6,3.6,0,0,0,0,2.5c.9,2.4,2.9,7.7,4.4,7.7s3.4-5,2-9.2l1.9-3.5,5.2,1.6Z" opacity="0.5" fill="url(#b4ad9331-4087-41f5-84cd-5bb04d4a98e5)" style="mix-blend-mode:multiply"/><path d="M52.8,164.9a25.3,25.3,0,0,0-3,5.9,3.3,3.3,0,0,0,.3,3,49,49,0,0,1,3.2,6.5,13.1,13.1,0,0,0-.7-5.1l1.9-3.5,5.2,1.6,5.1-6.2A24.6,24.6,0,0,0,52.8,164.9Z" fill="#fad2b4" opacity="0.5" style="mix-blend-mode:multiply"/><path d="M69.4,163.1a24.6,24.6,0,0,0-12-2.2,3.4,3.4,0,0,0-2.8,1.6,31.9,31.9,0,0,0-3.8,7.7,3.6,3.6,0,0,0,0,2.5c.9,2.4,2.9,7.7,4.4,7.7s3.4-5,2-9.2l1.9-3.5,5.2,1.6Z" fill="#fad2b4"/><path d="M69.4,163.1a24.6,24.6,0,0,0-12-2.2,3.4,3.4,0,0,0-2.8,1.6,31.9,31.9,0,0,0-3.8,7.7,3.6,3.6,0,0,0,0,2.5c.9,2.4,2.9,7.7,4.4,7.7s3.4-5,2-9.2l1.9-3.5,5.2,1.6Z" opacity="0.5" fill="url(#bbbba407-4f43-4ad9-96fb-2600b77307a7)" style="mix-blend-mode:multiply"/><path d="M68.6,164c-.2-.6-.5-1.1-.7-1.6a25.3,25.3,0,0,0-10.5-1.5,2.7,2.7,0,0,0-1.7.6,10.7,10.7,0,0,0,1.2,3.4l2,3.2c.1-.1.1-.3.2-.4l5.2,1.6Z" fill="#fad2b4" opacity="0.5" style="mix-blend-mode:multiply"/><path d="M201.3,117.8a3.1,3.1,0,0,0,2.8-1.5,2.4,2.4,0,0,0,.2-.8v-1l.4-2q.6-4.1.9-8.1a109.5,109.5,0,0,0,0-16.2c-.9-10.7-3.5-21.3-8.7-30.6a54.8,54.8,0,0,0-9.7-12.3,49.2,49.2,0,0,0-12.9-8.8c-9.5-4.6-20.2-6.3-30.9-6.3s-21.4,1.7-30.8,6.3a47.6,47.6,0,0,0-12.9,8.8,54.8,54.8,0,0,0-9.7,12.3,74,74,0,0,0-8.7,30.6,87.7,87.7,0,0,0,0,16.2q.3,4,.9,8.1l.3,2v1l.3.8a3,3,0,0,0,2.7,1.5v1.3a4.3,4.3,0,0,1-4.1-2.1,3.3,3.3,0,0,1-.5-1.2l-.2-1-.4-2c-.6-2.7-1-5.4-1.4-8.2A101.5,101.5,0,0,1,78.3,88c.5-11.1,2.9-22.3,8.2-32.3a53.7,53.7,0,0,1,24.1-23.5c10.3-5.1,21.7-6.8,32.9-7s22.7,1.9,33,7a54.7,54.7,0,0,1,24.1,23.5A76,76,0,0,1,208.7,88a101.5,101.5,0,0,1-.8,16.6c-.3,2.8-.8,5.5-1.3,8.2l-.5,2-.2,1a3.3,3.3,0,0,1-.5,1.2,4.2,4.2,0,0,1-4.1,2.1Z" fill="#7ecdbf"/><path d="M201.3,117.8a3.1,3.1,0,0,0,2.8-1.5,2.4,2.4,0,0,0,.2-.8v-1l.4-2q.6-4.1.9-8.1a109.5,109.5,0,0,0,0-16.2c-.9-10.7-3.5-21.3-8.7-30.6a54.8,54.8,0,0,0-9.7-12.3,49.2,49.2,0,0,0-12.9-8.8c-9.5-4.6-20.2-6.3-30.9-6.3s-21.4,1.7-30.8,6.3a47.6,47.6,0,0,0-12.9,8.8,54.8,54.8,0,0,0-9.7,12.3,74,74,0,0,0-8.7,30.6,87.7,87.7,0,0,0,0,16.2q.3,4,.9,8.1l.3,2v1l.3.8a3,3,0,0,0,2.7,1.5v1.3a4.3,4.3,0,0,1-4.1-2.1,3.3,3.3,0,0,1-.5-1.2l-.2-1-.4-2c-.6-2.7-1-5.4-1.4-8.2A101.5,101.5,0,0,1,78.3,88c.5-11.1,2.9-22.3,8.2-32.3a53.7,53.7,0,0,1,24.1-23.5c10.3-5.1,21.7-6.8,32.9-7s22.7,1.9,33,7a54.7,54.7,0,0,1,24.1,23.5A76,76,0,0,1,208.7,88a101.5,101.5,0,0,1-.8,16.6c-.3,2.8-.8,5.5-1.3,8.2l-.5,2-.2,1a3.3,3.3,0,0,1-.5,1.2,4.2,4.2,0,0,1-4.1,2.1Z" opacity="0.5" fill="url(#abc0dab6-7c61-45a8-8307-570e75208ecb)" style="mix-blend-mode:multiply"/><path d="M163.6,170.6l-.2-1.6a97.2,97.2,0,0,0,17.1-4.2,27.3,27.3,0,0,0,17.7-20.2,128.3,128.3,0,0,0,2.3-22.5h1.6a132.1,132.1,0,0,1-2.3,22.8A29.1,29.1,0,0,1,181,166.4,98.6,98.6,0,0,1,163.6,170.6Z" fill="#7ecdbf"/><ellipse cx="163.5" cy="169.8" rx="6.5" ry="5.6" fill="#969696"/><path d="M87.5,125.4h-.3a2.5,2.5,0,0,1-2.5-2,37.4,37.4,0,0,1-.5-4.8c-.2-2.1-.2-3.8-.2-4.9a2.2,2.2,0,0,1,2.1-2.3h.3Z" fill="#afd7d0"/><path d="M199.5,125.4h.3a2.5,2.5,0,0,0,2.5-2q.3-1.6.6-4.8c.1-2.1.2-3.8.2-4.9a2.3,2.3,0,0,0-2.2-2.3h-.3Z" fill="#afd7d0"/><path d="M92.5,129.7H91.1a3.4,3.4,0,0,1-3.7-3c-.3-2-.6-4.9-.9-8.3s-.4-6.4-.4-8.4a3.4,3.4,0,0,1,3.2-3.6h1.4a2.4,2.4,0,0,1,2.5,2.2l1.5,18.6A2.4,2.4,0,0,1,92.5,129.7Z" fill="#969696"/><path d="M194.5,129.7h1.4a3.5,3.5,0,0,0,3.8-3c.2-2,.6-4.9.9-8.3s.3-6.4.4-8.4a3.6,3.6,0,0,0-3.3-3.6h-1.4a2.4,2.4,0,0,0-2.5,2.2l-1.4,18.6A2.3,2.3,0,0,0,194.5,129.7Z" fill="#969696"/><ellipse cx="163.5" cy="169.8" rx="6.5" ry="5.6" opacity="0.5" fill="url(#f1d44d7e-acfe-49d5-b960-a8abc787bb78)" style="mix-blend-mode:multiply"/><path d="M92.5,129.7H91.1a3.4,3.4,0,0,1-3.7-3c-.3-2-.6-4.9-.9-8.3s-.4-6.4-.4-8.4a3.4,3.4,0,0,1,3.2-3.6h1.4a2.4,2.4,0,0,1,2.5,2.2l1.5,18.6A2.4,2.4,0,0,1,92.5,129.7Z" opacity="0.5" fill="url(#a9fbb705-6c5b-4049-84a9-e9fff5fbc884)" style="mix-blend-mode:multiply"/><path d="M194.5,129.7h1.4a3.5,3.5,0,0,0,3.8-3c.2-2,.6-4.9.9-8.3s.3-6.4.4-8.4a3.6,3.6,0,0,0-3.3-3.6h-1.4a2.4,2.4,0,0,0-2.5,2.2l-1.4,18.6A2.3,2.3,0,0,0,194.5,129.7Z" opacity="0.5" fill="url(#e30f67c7-9451-4e06-8f5d-668248296b35)" style="mix-blend-mode:multiply"/><path d="M163.5,173.1c-3.2,0-5.9-1.5-6.4-4.5a4.9,4.9,0,0,0-.1,1.2c0,3.7,2.9,5.6,6.5,5.6s6.6-1.9,6.6-5.6a5,5,0,0,0-.2-1.2C169.4,171.6,166.7,173.1,163.5,173.1Z" fill="#969696" opacity="0.5" style="mix-blend-mode:multiply"/><path d="M93.2,108.6a2.4,2.4,0,0,0-1.1-1.9l1.4,18.2a2.3,2.3,0,0,1-2.1,2.5H90a3.3,3.3,0,0,1-2.6-.9v.2a3.4,3.4,0,0,0,3.7,3h1.4a2.4,2.4,0,0,0,2.2-2.5Z" fill="#969696" opacity="0.5" style="mix-blend-mode:multiply"/><path d="M197.1,127.5h-1.4a2.4,2.4,0,0,1-2.2-2.5l1.5-18.2a2.5,2.5,0,0,0-1.2,1.9l-1.4,18.6a2.3,2.3,0,0,0,2.1,2.5h1.4a3.5,3.5,0,0,0,3.8-3v-.2A3.5,3.5,0,0,1,197.1,127.5Z" fill="#969696" opacity="0.5" style="mix-blend-mode:multiply"/><path d="M124.8,40.1s-23.3-2.2-35.5,29.4c-10.4,27,4.3,43.7,4.3,43.7s3.7-25.8,31.2-48.9c0,0,10.4,13.5,25.2,20.9s36.2,12.5,43.4,28c0,0,14.8-16.7,4.3-43.7s-33.8-34.6-46.8-35.4C133.9,33,124.8,40.1,124.8,40.1Z" fill="#e6844b"/><path d="M124.8,40.1s-23.3-2.2-35.5,29.4c-10.4,27,4.3,43.7,4.3,43.7s3.7-25.8,31.2-48.9c0,0,10.4,13.5,25.2,20.9s36.2,12.5,43.4,28c0,0,14.8-16.7,4.3-43.7s-33.8-34.6-46.8-35.4C133.9,33,124.8,40.1,124.8,40.1Z" opacity="0.5" fill="url(#e1b5a6cf-018b-41ce-86cb-c843d86bd465)" style="mix-blend-mode:multiply"/><path d="M124.7,40.5s-2.4,12.6,0,23.3a27.5,27.5,0,0,1-2.6-12.1C122.1,44.6,124.7,40.5,124.7,40.5Z" fill="#e6844b" opacity="0.5" style="mix-blend-mode:multiply"/><g opacity="0.5" style="mix-blend-mode:multiply"><path d="M91.5,98.8A58.3,58.3,0,0,1,110.7,68" fill="none" stroke="#e6844b" stroke-linecap="round" stroke-linejoin="round" stroke-width="0.83"/><path d="M120.5,51s-17,6.4-24,34.6" fill="none" stroke="#e6844b" stroke-linecap="round" stroke-linejoin="round" stroke-width="0.83"/><path d="M113.4,48.4S99.3,55.2,92.8,73.1" fill="none" stroke="#e6844b" stroke-linecap="round" stroke-linejoin="round" stroke-width="0.83"/><path d="M126.5,59.2s8.6,13.3,32.5,19.7c30.2,8.2,34.9,20.7,34.9,20.7" fill="none" stroke="#e6844b" stroke-linecap="round" stroke-linejoin="round" stroke-width="0.83"/><path d="M129.8,63.1A98.6,98.6,0,0,1,155.5,68c19.5,6.6,27,20.5,27,20.5" fill="none" stroke="#e6844b" stroke-linecap="round" stroke-linejoin="round" stroke-width="0.83"/><path d="M125.9,45.6a42,42,0,0,1,36.9-3.8" fill="none" stroke="#e6844b" stroke-linecap="round" stroke-linejoin="round" stroke-width="0.83"/><path d="M141.1,47.3s27.1-5,44.3,15.8" fill="none" stroke="#e6844b" stroke-linecap="round" stroke-linejoin="round" stroke-width="0.83"/><path d="M155.5,47.2s31.5,12,35.7,34.7" fill="none" stroke="#e6844b" stroke-linecap="round" stroke-linejoin="round" stroke-width="0.83"/></g><path d="M41.3,181.5a3.3,3.3,0,0,1,0-2.4,5.8,5.8,0,0,1,.5-1.4,8.6,8.6,0,0,1-1-1.6l-4.2,2.7a13.2,13.2,0,0,0,3.6,3.1l1.5.7A7.6,7.6,0,0,1,41.3,181.5Z" fill="#afd7d0"/><path d="M48,181.1l.3,1.7h.5C48.6,182.2,48.3,181.7,48,181.1Z" fill="#afd7d0"/><path d="M54.2,179.8l-.9-1.4v2.1Z" fill="#afd7d0"/><path d="M60.6,158.7a10.3,10.3,0,0,0-6.1-6.3,7.9,7.9,0,0,0-2.2-.5,8.7,8.7,0,0,0-2.3-.1,9.8,9.8,0,0,0-4.4,1.3,11.4,11.4,0,0,0-3.5,3,15.3,15.3,0,0,0-2.5,3.9l4.7,1.6a7.9,7.9,0,0,1,1.3-2.8,9.3,9.3,0,0,1,2.1-2.3,5.4,5.4,0,0,1,2.7-1.1H52l1.5.3a7.2,7.2,0,0,1,4.5,4.2,14.2,14.2,0,0,1,.8,6.8,15.2,15.2,0,0,1-1.5,5,15.8,15.8,0,0,1,.6,4.2,20.4,20.4,0,0,0,3.5-8.8A15.7,15.7,0,0,0,60.6,158.7Z" fill="#afd7d0"/><path d="M41.3,181.5a3.3,3.3,0,0,1,0-2.4,5.8,5.8,0,0,1,.5-1.4,8.6,8.6,0,0,1-1-1.6l-4.2,2.7a13.2,13.2,0,0,0,3.6,3.1l1.5.7A7.6,7.6,0,0,1,41.3,181.5Z" fill="#afd7d0" opacity="0.5" style="mix-blend-mode:multiply"/><path d="M48,181.1l.3,1.7h.5C48.6,182.2,48.3,181.7,48,181.1Z" fill="#afd7d0" opacity="0.5" style="mix-blend-mode:multiply"/><path d="M54.2,179.8l-.9-1.4v2.1Z" fill="#afd7d0" opacity="0.5" style="mix-blend-mode:multiply"/><path d="M60.6,158.7a9.8,9.8,0,0,0-2-3.4,3.9,3.9,0,0,0-2.1,2.1,9.7,9.7,0,0,1,1.5,2.4,14.2,14.2,0,0,1,.8,6.8,15.2,15.2,0,0,1-1.5,5,15.8,15.8,0,0,1,.6,4.2,20.4,20.4,0,0,0,3.5-8.8A15.7,15.7,0,0,0,60.6,158.7Z" fill="#afd7d0" opacity="0.5" style="mix-blend-mode:multiply"/><path d="M47.3,152.4l-1.7.7a11.4,11.4,0,0,0-3.5,3,15.3,15.3,0,0,0-2.5,3.9l4.7,1.6a7.9,7.9,0,0,1,1.3-2.8,9,9,0,0,1,1.5-1.8Z" fill="#afd7d0" opacity="0.5" style="mix-blend-mode:multiply"/><path d="M80.2,192.1l-13.1,6.4s-3.8-2.5-5.1-8.6.8-13.9.8-13.9-1.8-6.6-2.8-8c-2.3-3.2-4.4-10.5-1.1-12.1s4.7,4.3,7.6,7.4a54.2,54.2,0,0,0,10.2,13.4A70.6,70.6,0,0,1,80.2,192.1Z" fill="#fad2b4"/><path d="M80.2,192.1l-13.1,6.4s-3.8-2.5-5.1-8.6.8-13.9.8-13.9-1.8-6.6-2.8-8c-2.3-3.2-4.4-10.5-1.1-12.1s4.7,4.3,7.6,7.4a54.2,54.2,0,0,0,10.2,13.4A70.6,70.6,0,0,1,80.2,192.1Z" opacity="0.5" fill="url(#a92ba6b4-e70b-4a49-b461-3eeda6b20c90)" style="mix-blend-mode:multiply"/><path d="M23.4,146.3C10.5,146.3-.5,148.5,0,151l6.8,36.1a2,2,0,0,0,1.6,1.8c2.1.7,6.8,1.9,15,1.9s12.9-1.2,15-1.9a2,2,0,0,0,1.6-1.8L46.8,151C47.3,148.5,36.3,146.3,23.4,146.3Z" fill="#afd7d0"/><path d="M23.4,146.3C10.5,146.3-.5,148.5,0,151l6.8,36.1a2,2,0,0,0,1.6,1.8c2.1.7,6.8,1.9,15,1.9s12.9-1.2,15-1.9a2,2,0,0,0,1.6-1.8L46.8,151C47.3,148.5,36.3,146.3,23.4,146.3Z" opacity="0.5" fill="url(#af099a95-e762-4e61-bfa7-4dc686adc48f)" style="mix-blend-mode:multiply"/><path d="M45.6,151c0,2.3-9.9,4.1-22.2,4.1S1.2,153.3,1.2,151s9.9-4.1,22.2-4.1S45.6,148.8,45.6,151Z" fill="#fafafa" opacity="0.3" style="mix-blend-mode:overlay"/><path d="M4.5,153.2c3.9,1.1,10.9,1.9,18.9,1.9s15-.8,18.9-1.9c-3.9-1.2-10.9-2-18.9-2S8.4,152,4.5,153.2Z" fill="#784b41"/><path d="M7.1,157.2l-2.7-.6,5.3,27.9a2.2,2.2,0,0,0,1.7,1.9,49.9,49.9,0,0,0,5.9.8C12.2,177.5,8.6,163.7,7.1,157.2Z" fill="#fafafa" opacity="0.3" style="mix-blend-mode:overlay"/><path d="M267.4,170.3a11.3,11.3,0,0,0-4.4.2,134.8,134.8,0,0,0-14.7,5.5,170.6,170.6,0,0,1,16.5-16.3,2.3,2.3,0,0,0-1.4-4.1,9.9,9.9,0,0,0-5.2,1.5c-4.3,2.4-11.9,8.2-15.6,11.1a225.1,225.1,0,0,1,12.5-21,2.3,2.3,0,0,0-2.3-3.6,10.2,10.2,0,0,0-5.2,3c-4.2,4.1-12.2,14.9-14.3,17.7a177.6,177.6,0,0,1,6.6-21.3,2.3,2.3,0,0,0-3.2-2.9,9.9,9.9,0,0,0-3.9,3.8c-3.6,5.5-9.4,19.6-9.4,19.6-5.4,4.3-14.4,12-14.4,12-2.1,7.2-2.1,16.6-2.1,16.6-9.7,36-18,74.5-18,74.5,5.6,11.2,9.4,15.2,16.9,15.8a6.1,6.1,0,0,0,3.9-.9c7.2-4.1,15.4-8.7,16.2-23.5s3-55,3-55,9.3-9,18.4-16.4c0,0,11.5-7.7,20.6-11.9A2.3,2.3,0,0,0,267.4,170.3Z" fill="#fad2b4"/><path d="M267.4,170.3a11.3,11.3,0,0,0-4.4.2,134.8,134.8,0,0,0-14.7,5.5,170.6,170.6,0,0,1,16.5-16.3,2.3,2.3,0,0,0-1.4-4.1,9.9,9.9,0,0,0-5.2,1.5c-4.3,2.4-11.9,8.2-15.6,11.1a225.1,225.1,0,0,1,12.5-21,2.3,2.3,0,0,0-2.3-3.6,10.2,10.2,0,0,0-5.2,3c-4.2,4.1-12.2,14.9-14.3,17.7a177.6,177.6,0,0,1,6.6-21.3,2.3,2.3,0,0,0-3.2-2.9,9.9,9.9,0,0,0-3.9,3.8c-3.6,5.5-9.4,19.6-9.4,19.6-5.4,4.3-14.4,12-14.4,12-2.1,7.2-2.1,16.6-2.1,16.6-9.7,36-18,74.5-18,74.5,5.6,11.2,9.4,15.2,16.9,15.8a6.1,6.1,0,0,0,3.9-.9c7.2-4.1,15.4-8.7,16.2-23.5s3-55,3-55,9.3-9,18.4-16.4c0,0,11.5-7.7,20.6-11.9A2.3,2.3,0,0,0,267.4,170.3Z" opacity="0.5" fill="url(#af4b25f2-a8c7-4fc5-9297-e41fac73190d)" style="mix-blend-mode:multiply"/><path d="M223.9,181.2c-.8-5.1-4.3-11-4.3-11v-3.6L209,175.5l9.1,22.1C223.3,191.4,224.6,186.2,223.9,181.2Z" fill="#fad2b4" opacity="0.5" style="mix-blend-mode:multiply"/><path d="M206.9,192.1l11.2,5.5s4-4.6,4-13.9c0-4.9-4.4-12.7-4.4-12.7s-.3-6.7-.1-8.5c.5-4.7.6-11.7-3.2-11.7s-3.1,5.5-4.5,9.5a130.7,130.7,0,0,0-4,12.5,22.2,22.2,0,0,0-.9,8.1A81.6,81.6,0,0,0,206.9,192.1Z" fill="#fad2b4"/><path d="M206.9,192.1l11.2,5.5s4-4.6,4-13.9c0-4.9-4.4-12.7-4.4-12.7s-.3-6.7-.1-8.5c.5-4.7.6-11.7-3.2-11.7s-3.1,5.5-4.5,9.5a130.7,130.7,0,0,0-4,12.5,22.2,22.2,0,0,0-.9,8.1A81.6,81.6,0,0,0,206.9,192.1Z" opacity="0.5" fill="url(#fc3ac382-3fd9-4004-9992-88e46708fc09)" style="mix-blend-mode:multiply"/><path d="M143.5,191.7a46.7,46.7,0,0,1-11.4,10.7c-12.8-6.3-20.9-21-20.9-21l7.9-2.9.7.7a36.2,36.2,0,0,0,23.7,9.2,35.8,35.8,0,0,0,23.7-9.2l.7-.7,8,2.9s-8.2,14.7-21,21A48.8,48.8,0,0,1,143.5,191.7Z" fill="#fafafa"/><path d="M168.1,352.2a114.5,114.5,0,0,0-8.6,23.9h43.3c1-2.4,2.9-7.3,6.1-16.3,5.1-14.3,6.8-24.2,6.8-30.3s-1.5-12.8-3.9-20.2c-1.9-5.8-14.9-9.1-26.1-8.1s-22.3,2.3-32.5,14.1c-7.7,8.8-4.5,24.3-4.5,24.3C155.9,348.5,168.1,352.2,168.1,352.2Z" fill="#7ecdbf"/><path d="M168.1,352.2a114.5,114.5,0,0,0-8.6,23.9h43.3c1-2.4,2.9-7.3,6.1-16.3,5.1-14.3,6.8-24.2,6.8-30.3s-1.5-12.8-3.9-20.2c-1.9-5.8-14.9-9.1-26.1-8.1s-22.3,2.3-32.5,14.1c-7.7,8.8-4.5,24.3-4.5,24.3C155.9,348.5,168.1,352.2,168.1,352.2Z" opacity="0.5" fill="url(#ec689b27-210e-43c1-b059-133d87117f0c)" style="mix-blend-mode:multiply"/><path d="M84.9,376.1h45.7c1-2.4,2.9-7.3,6.1-16.3,5-14.3,6.8-21.4,6.8-30.3,0-7-2.3-13.1-3.9-20.2s-16.5-10.1-26.5-7-17.2,13.8-19,27.5c-1.5,11.6,2.7,16.6,2.7,16.6S89.5,357.4,84.9,376.1Z" fill="#7ecdbf"/><path d="M84.9,376.1h45.7c1-2.4,2.9-7.3,6.1-16.3,5-14.3,6.8-21.4,6.8-30.3,0-7-2.3-13.1-3.9-20.2s-16.5-10.1-26.5-7-17.2,13.8-19,27.5c-1.5,11.6,2.7,16.6,2.7,16.6S89.5,357.4,84.9,376.1Z" opacity="0.5" fill="url(#e7bf5718-b57d-4c15-bbb9-703697b84058)" style="mix-blend-mode:multiply"/><path d="M96.8,346.4c4.8-7.8,7.6-19.5,7.6-19.5a140,140,0,0,1-6.9,12.7c-3.3-3.3-3.4-9.8-3.4-9.8C92.6,341.4,96.8,346.4,96.8,346.4Z" fill="#7ecdbf" opacity="0.5" style="mix-blend-mode:multiply"/><path d="M166.6,347.9s-6.7.7-10.4-1.6a49,49,0,0,0,11.9,5.9s4.9-12.9,10-20.7C178.1,331.5,172.6,336.8,166.6,347.9Z" fill="#7ecdbf" opacity="0.5" style="mix-blend-mode:multiply"/><path d="M143.5,241.1c18.4,4.4,31.4,0,31.4,0s-9.5,4.4-16.8,4.4-9.9-1.2-14.6-1.2-7.3,1.2-14.6,1.2-16.7-4.4-16.7-4.4S125.2,245.5,143.5,241.1Z" fill="#e1e1e1" opacity="0.5" style="mix-blend-mode:multiply"/><rect x="7" y="282.5" width="420.9" height="18.71" rx="2.3" fill="#f5cbb2"/><rect x="7" y="282.5" width="420.9" height="18.71" rx="2.3" opacity="0.5" fill="url(#f98e532c-d0b5-41b7-9f01-9f66f0fd66aa)" style="mix-blend-mode:multiply"/><rect x="371.8" y="301.2" width="18.7" height="74.83" fill="#c8c8c8"/><rect x="44.4" y="301.2" width="18.7" height="74.83" fill="#c8c8c8"/><rect x="371.8" y="301.2" width="18.7" height="74.83" opacity="0.5" fill="url(#a83bd6f5-de9b-4d45-9a71-69562ea4caf5)" style="mix-blend-mode:multiply"/><rect x="44.4" y="301.2" width="18.7" height="74.83" opacity="0.5" fill="url(#bbe31cec-3f51-4d7d-bbc3-928c556a7757)" style="mix-blend-mode:multiply"/><path d="M425.6,296.6H9.3A2.3,2.3,0,0,1,7,294.2v4.7a2.3,2.3,0,0,0,2.3,2.3H425.6a2.3,2.3,0,0,0,2.3-2.3v-4.7A2.3,2.3,0,0,1,425.6,296.6Z" fill="#f5cbb2" opacity="0.5" style="mix-blend-mode:multiply"/><rect x="371.8" y="301.2" width="18.7" height="14.03" fill="#c8c8c8" opacity="0.5" style="mix-blend-mode:multiply"/><rect x="44.4" y="301.2" width="18.7" height="14.03" fill="#c8c8c8" opacity="0.5" style="mix-blend-mode:multiply"/><path d="M275,282.5H192.6a.9.9,0,0,1-.9-.9v-2.9a.9.9,0,0,1,.9-.9l27.1-2.3H275a.9.9,0,0,1,.9.9v5.2A.9.9,0,0,1,275,282.5Z" fill="#e1e1e1"/><path d="M275,282.5H192.6a.9.9,0,0,1-.9-.9v-2.9a.9.9,0,0,1,.9-.9l27.1-2.3H275a.9.9,0,0,1,.9.9v5.2A.9.9,0,0,1,275,282.5Z" opacity="0.5" fill="url(#fc97caa2-56e6-4ed0-977b-d1f3b46dd44e)" style="mix-blend-mode:multiply"/><path d="M218.8,282.5H192.6a.9.9,0,0,1-.9-.9v-2.9a.9.9,0,0,1,.9-.9l26.2-2.2a.9.9,0,0,1,1,.9v5.1A1,1,0,0,1,218.8,282.5Z" fill="#fafafa" opacity="0.3" style="mix-blend-mode:overlay"/><rect x="229.1" y="114.1" width="187.1" height="130.96" rx="4.7" fill="#c8c8c8"/><rect x="229.1" y="114.1" width="187.1" height="130.96" rx="4.7" opacity="0.5" fill="url(#abdd46e3-d73c-4cea-bf04-84ce453d9ccc)" style="mix-blend-mode:multiply"/><path d="M339,178.9H318a2.3,2.3,0,0,0-2.3,2.4v63.8h25.7V181.3A2.4,2.4,0,0,0,339,178.9Z" fill="#c8c8c8" opacity="0.5" style="mix-blend-mode:multiply"/><path d="M233.8,245.1h0a4.7,4.7,0,0,1-4.7-4.7V118.8a4.7,4.7,0,0,1,4.7-4.7h0a4.7,4.7,0,0,1,4.7,4.7V240.4A4.7,4.7,0,0,1,233.8,245.1Z" fill="#fafafa" opacity="0.3" style="mix-blend-mode:overlay"/><path d="M339,275.5H315.7V182a2.3,2.3,0,0,1,2.3-2.4h18.7A2.3,2.3,0,0,1,339,182Z" fill="#c8c8c8"/><path d="M339,275.5H315.7V182a2.3,2.3,0,0,1,2.3-2.4h18.7A2.3,2.3,0,0,1,339,182Z" opacity="0.5" fill="url(#ae4f9abb-7a74-4925-8917-5f3cac27a897)" style="mix-blend-mode:multiply"/><path d="M320.3,275.5h-4.6V182a2.3,2.3,0,0,1,2.3-2.4h0a2.3,2.3,0,0,1,2.3,2.4Z" fill="#fafafa" opacity="0.3" style="mix-blend-mode:overlay"/><path d="M361.3,282.5H284.1a3.4,3.4,0,0,1-3.5-3.5h0a3.5,3.5,0,0,1,3.5-3.5h77.2a3.5,3.5,0,0,1,3.5,3.5h0A3.5,3.5,0,0,1,361.3,282.5Z" fill="#c8c8c8"/><path d="M361.3,282.5H284.1a3.4,3.4,0,0,1-3.5-3.5h0a3.5,3.5,0,0,1,3.5-3.5h77.2a3.5,3.5,0,0,1,3.5,3.5h0A3.5,3.5,0,0,1,361.3,282.5Z" opacity="0.5" fill="url(#a0dec69f-6e4d-4589-9850-5fca95c5acd3)" style="mix-blend-mode:multiply"/><path d="M300.4,282.5H284.1a3.4,3.4,0,0,1-3.5-3.5h0a3.5,3.5,0,0,1,3.5-3.5h16.3A3.6,3.6,0,0,1,304,279h0A3.5,3.5,0,0,1,300.4,282.5Z" fill="#fafafa" opacity="0.3" style="mix-blend-mode:overlay"/><polygon points="320.3 275.5 339 275.5 339 266.2 320.3 274.3 320.3 275.5" fill="#c8c8c8" opacity="0.5" style="mix-blend-mode:multiply"/><path d="M258.1,235.8h0a1,1,0,0,1-.9-1v-7.5a.9.9,0,0,1,.9-.9h0a1,1,0,0,1,1,.9v7.5A1.1,1.1,0,0,1,258.1,235.8Z" fill="#969696"/><path d="M261.9,235.8h0a1,1,0,0,1-1-1v-7.5a.9.9,0,0,1,1-.9h0a.9.9,0,0,1,.9.9v7.5A1,1,0,0,1,261.9,235.8Z" fill="#969696"/><path d="M265.6,235.8h0a1,1,0,0,1-.9-1v-7.5a.9.9,0,0,1,.9-.9h0a.9.9,0,0,1,.9.9v7.5A1,1,0,0,1,265.6,235.8Z" fill="#969696"/><path d="M269.3,235.8h0a1,1,0,0,1-.9-1v-7.5a.9.9,0,0,1,.9-.9h0a.9.9,0,0,1,1,.9v7.5A1,1,0,0,1,269.3,235.8Z" fill="#969696"/></g></g></g></svg>