<svg xmlns="http://www.w3.org/2000/svg" xmlns:xlink="http://www.w3.org/1999/xlink" viewBox="0 0 370.7 320.8"><defs><clipPath id="b45ee95e-2b43-43e2-bd6e-a38efa602751"><path d="M52.7,125.4v1.3c-.7,12.4-.5,24.8-.2,37.3s-.8,23.8,2.2,34.6a3.9,3.9,0,0,0,1.1,2.1,5.2,5.2,0,0,0,1.9.8,61.8,61.8,0,0,0,12.9,1c16.6.3,33.1.2,49.7-1,7.9-.5,5.6-15,5.4-20.4a240.9,240.9,0,0,0-4.6-37.8c-2.9-14.8-7.2-35.1-24.3-38.9a42.5,42.5,0,0,0-8.7-.6c-6.8-.1-13.7.1-20.2,2.3a25.8,25.8,0,0,0-11,7.1C53.8,116.8,53,120.9,52.7,125.4Z" fill="#00add0"/></clipPath><clipPath id="ef1b1397-44d9-49d8-9f2a-b08645651053"><path d="M189.1,129.8c-.5,3.2-1.7,6.1-2.5,9.2s-.9,4.3-1.6,6.5-3.4,17.6-2.1,17.6c-12.3.1-24.7-.3-37.1-1.1.3-7.3.5-14.7-1.4-21.6-.9-3.1-2.1-6-3-9.1-1.8-6.7-1.7-13.7-1.6-20.7s2.9-9.1,9-10.8a62.2,62.2,0,0,1,17.7-2.1,37.5,37.5,0,0,1,17.2,4,8.2,8.2,0,0,1,2.9,2.3,8.6,8.6,0,0,1,1.3,3.8C189.2,115.1,190.4,122.5,189.1,129.8Z" fill="#ef7c3c"/></clipPath><clipPath id="b694e2b3-8c38-4aa6-a325-f03dd151ab1b"><path d="M329,183.4c2.1,8.1,1.5,16.6.4,24.9-1.6,11.4-4.4,22.7-7.2,34-1.6,6.7-3.3,13.5-5,20.3H272.1c-7.1-23.3-12.8-47.7-9.2-71.8a172.8,172.8,0,0,1,6.1-24.3c2-6.7,3.5-12.6,2.6-19.6s-2.2-13.5-1.9-20.3c.2-4.9,2.6-7.2,6.4-10.1a39.8,39.8,0,0,1,8.3-4.6c3.4-1.4,6.3-1.3,9.9-1.2a55.6,55.6,0,0,1,12.2,1.3c6.5,1.7,13.3,4.9,14.8,12a30.4,30.4,0,0,1,.4,7.4c0,9-1.2,18.6-.3,27.6S326.9,175.1,329,183.4Z" fill="#e76983"/></clipPath><clipPath id="e1c6c6a7-0891-45ac-8af5-543df7cd6c53"><path d="M165.4,84.5a8,8,0,0,1-8.8-6.1V78s2.7,1.1,8.2,1,7.8-1.4,7.8-1.4-.1.5-.1.6a7.2,7.2,0,0,1-1.9,3.9A7.1,7.1,0,0,1,165.4,84.5Z" fill="#820b0b"/></clipPath><clipPath id="a8e272d8-7346-496c-b780-ddc47d6b70d7"><path d="M290.1,98.7a7.9,7.9,0,0,1-8-7.1v-.5s2.6,1.5,8,2,8-.5,8-.5-.2.5-.2.5a7.8,7.8,0,0,1-2.3,3.8A8.6,8.6,0,0,1,290.1,98.7Z" fill="#820b0b"/></clipPath><clipPath id="a08a738a-4f2d-4ba0-8ad9-a2d789a96a24"><path d="M46.8,212a7,7,0,0,1-7.6-5.3v-.4s2.3,1,7.1.9S53,206,53,206v.5a7.6,7.6,0,0,1-1.6,3.4A7.6,7.6,0,0,1,46.8,212Z" fill="#820b0b"/></clipPath><clipPath id="fa565d1a-f55c-4653-b189-8f7ea9ece84a"><path d="M320.6,141.2a7,7,0,0,0,8.8-3.1h.1v-.2a19.3,19.3,0,0,1-7.1-1.1c-4.6-1.4-6.2-3-6.2-3v.5a6.8,6.8,0,0,0,.6,3.7A7,7,0,0,0,320.6,141.2Z" fill="#820b0b"/></clipPath></defs><title>ic-pay-2</title><g id="ba6ec396-eb98-49d2-bf4a-e1df333cf5ee" data-name="Layer 2"><g id="f68a4f34-a867-4c65-b792-e086c12ef208" data-name="OBJECTS"><path d="M50.7,223c5.2,4.2,11,7.8,17.6,9.2,1.9.4,5.5-.4,6.9,1.2s.2,5.9-1.4,7.3S70,242.2,68,242c-8.8-.9-19.4-6-20.4-16C47.4,223.9,48,220.9,50.7,223Z" fill="#77b250"/><ellipse cx="178" cy="309" rx="178" ry="11.9" fill="#231f20" opacity="0.1"/><path d="M239,295.1c-3.6,0-5.7.3-6.9,3.9s-.8,6.1-.7,8.9a3.1,3.1,0,0,0,.6,1.9,2.6,2.6,0,0,0,1.5.7c5.8,1.5,11.8,1.1,17.7.6a3.1,3.1,0,0,0,2.1-.6,3.2,3.2,0,0,0,.6-1.7,25,25,0,0,0-1.3-12.7,1.5,1.5,0,0,0-.5-.7,1.3,1.3,0,0,0-.9-.2Z" fill="#5e3628"/><path d="M120.7,292.5c-6.9-1.1-13.6-.1-20.5-.3-.9,0-2.1,0-2.7.7s-.5,6.3-.5,8.4a3.4,3.4,0,0,0,.6,2.4,2.9,2.9,0,0,0,1.8,1,44.1,44.1,0,0,0,7.3.8c6.5.2,13.8,1,20.2-.2a3.5,3.5,0,0,0,1.3-.5c.8-.5.9-1.6.9-2.6a8.7,8.7,0,0,0-.4-3.6C127.7,295.1,124.1,293.1,120.7,292.5Z" fill="#343a4a"/><path d="M64.3,291.4c6.8-1.2,13.6-.2,20.4-.3a3.8,3.8,0,0,1,2.8.7c1.5,1.8.5,6.2.5,8.3a3.2,3.2,0,0,1-.6,2.4,3.5,3.5,0,0,1-1.9,1,34.5,34.5,0,0,1-7.2.8c-6.5.2-13.8,1-20.2-.2l-1.3-.4a3.6,3.6,0,0,1-1-2.7,14.7,14.7,0,0,1,.4-3.6C57.3,293.9,60.9,292,64.3,291.4Z" fill="#343a4a"/><path d="M191,306.5h3.6l23.7.2a2.2,2.2,0,0,0,1.4-.3,2.5,2.5,0,0,0,.5-1.3,29.1,29.1,0,0,0,.1-10.2,1.6,1.6,0,0,0-.5-.9c-.2-.3-.6-.3-1-.3H208.5c-4.8-.1-9.6,0-14.2,1.3a13.5,13.5,0,0,0-5.9,3.4,5.5,5.5,0,0,0-1.5,5.3C187.4,305.7,189.1,306.3,191,306.5Z" fill="#5e3628"/><path d="M122.2,248.8c-.9,13.7-2.4,27.4-3.2,40.9a5.4,5.4,0,0,1-.5,2.2c-.7,1.2-2.2,1.5-3.6,1.7-6.1.9-18.8,1.8-18.8,1.8s-.1-9.7-.2-14.2l-.3-6.3c-.5-13.9-1.5-27.8-2.9-41.6-.7-6.8-1.5-13.6-2.4-20.3-.4-3.4-4.1-15.1-.2-16.7s7.6-1.7,11.5-1.7,7.7.1,11.5.3a75.2,75.2,0,0,0,10.6-.4c.5,9.3.7,18.6.4,27.9S122.6,240,122.2,248.8Z" fill="#876655"/><path d="M91.5,249.6c1-8.9,2.2-17.8,2.6-26.8s1.3-15.4.9-23.1a1.3,1.3,0,0,0-.1-.6.8.8,0,0,0-.7-.3,71.8,71.8,0,0,0-14.7-1.4H63.8c-1.4,0-2.8,0-3.9.9s-1.6,3.6-1.4,5.6c2,25.4,7.5,50.2,8.4,75.7.1,2.5-.1,4.9,0,7.4s-.2,4.7,1.8,6.2a10.3,10.3,0,0,0,3.8,1.4,70.1,70.1,0,0,0,9.1.9H89S90.4,259.8,91.5,249.6Z" fill="#967254"/><path d="M201.5,26.4c-.4,9.7,2.6,20.3,11.5,25.3a34.1,34.1,0,0,0,6.9,2.7A36.2,36.2,0,0,0,234.5,56a20.9,20.9,0,0,0,13.1-6.1,25.1,25.1,0,0,0,4.6-7.3,89.5,89.5,0,0,0,5.6-14.4c.7-2.5,1.1-5.7-1-7.3a9.5,9.5,0,0,1-1.6-1.2,3,3,0,0,1-.7-1.5c-.7-2.3-1.2-4.7-2.5-6.7s-5.2-4.5-8.3-5.9-5.2-2.3-8.4-1.8A48.4,48.4,0,0,0,227,6c-3.2,1.2-6.2,3.1-9.6,3.8s-9.4-.1-11.8,3.3A26.3,26.3,0,0,0,201.5,26.4Z" fill="#343a4a"/><rect x="74.8" y="89.4" width="18.2" height="16.54" transform="translate(167.7 195.3) rotate(180)" fill="#f79765"/><path d="M119.4,127.6a22.4,22.4,0,0,0,10.4,7c4,1.3,7,3.9,10.6,6,5.8,3.5,13.3,3.2,19.6.8s11.8-6.8,16.9-11.2,11.8-10.8,15.5-17.8c2.6-5,4.1-10.4,5.5-15.8s2.9-11.2,1.8-16.7-5.5-11.8-4.6-17.9c.3-1.6.8-3,1.2-4.5a20.8,20.8,0,0,0-6.6-20.6,8.4,8.4,0,0,0-3.3-1.9,24.4,24.4,0,0,0-3.9-.5c-4.2-.9-6.9-5.1-10.9-6.9s-9.8-1.1-14.5.6A99.3,99.3,0,0,0,141.4,35c-4.4,2.4-8.7,8.1-11,12.3s-3.9,11.5-1.4,16.6c.8,1.7,2,3.2,2.2,5.1.3,3.6-3.4,6.1-6.4,8.1s-6.9,5.5-8,9.6,1.4,10.2,4.5,14.3a5.8,5.8,0,0,1,1.4,2.4,4.8,4.8,0,0,1-.9,3.6c-1.9,3.2-5.2,5.5-6.3,9S116.6,124.4,119.4,127.6Z" fill="#5e3628"/><path d="M122.4,112.5l2.7,1.4c8.9,5.6,16.5,12.9,24.1,20.1,2.6,2.4,5.2,5,6.7,8.3s1.6,7.4-.7,10.1-8,3.4-11.9,1.7-7-4.9-10.4-7.5c-6-4.7-14.5-6.5-20-11.3s-7-10.5-9.3-15.5a53.4,53.4,0,0,1-1.8-5.2c-.8-2.7-1.7-5.4-2.5-8.1,0-.1-.1-.2,0-.4s.3-.2.5-.2a29.4,29.4,0,0,1,12.1,2.1A97.5,97.5,0,0,1,122.4,112.5Z" fill="#007594"/><path d="M200.6,223.8c.9,22.2,1.5,44.4,2.4,66.6a6.5,6.5,0,0,0,.8,3.1,5.2,5.2,0,0,0,2.7,1.5,28.1,28.1,0,0,0,11.9,1.1,3.8,3.8,0,0,0,1.7-.4c1.4-.9,1.4-2.8,1.3-4.5-2.1-39.6,9.7-79.2,5.9-118.6a2.9,2.9,0,0,0-.7-1.9,2.6,2.6,0,0,0-1.5-.4l-20.2-1.5c-1.3-.1-2.4-.5-3.2.6s-.4,3.4-.6,4.6c-.4,3.3-.6,6.7-.8,10.1C199.5,197.4,200.6,210.5,200.6,223.8Z" fill="#84879b"/><path d="M256.2,260.5c.4-13.1.6-26.3,1-39.5.1-4,3.5-51.4,1.6-51.4l-34.5.7c-.7.1-1.6.1-2.1.7a3.3,3.3,0,0,0-.4,1.7c-.8,40.1,6.9,80.6,11.7,120.3a3.3,3.3,0,0,0,.8,2.2,2.1,2.1,0,0,0,1.3.7,30.7,30.7,0,0,0,14.7,1.6,2.9,2.9,0,0,0,1.6-.4c3.5-2.4,2.9-10.1,3.2-13.6C255.6,275.8,256,268.2,256.2,260.5Z" fill="#9193a8"/><rect x="157.8" y="86.1" width="12" height="11.96" fill="#f99d6e"/><path d="M52.7,125.4v1.3c-.7,12.4-.5,24.8-.2,37.3s-.8,23.8,2.2,34.6a3.9,3.9,0,0,0,1.1,2.1,5.2,5.2,0,0,0,1.9.8,61.8,61.8,0,0,0,12.9,1c16.6.3,33.1.2,49.7-1,7.9-.5,5.6-15,5.4-20.4a240.9,240.9,0,0,0-4.6-37.8c-2.9-14.8-7.2-35.1-24.3-38.9a42.5,42.5,0,0,0-8.7-.6c-6.8-.1-13.7.1-20.2,2.3a25.8,25.8,0,0,0-11,7.1C53.8,116.8,53,120.9,52.7,125.4Z" fill="#00add0"/><g clip-path="url(#b45ee95e-2b43-43e2-bd6e-a38efa602751)"><path d="M74.5,105.5c3,3.8,9.4,6.5,14.1,4.7s8.7-6.8,9.8-11.7c-7.3-2.2-15.2-1.8-22.8-1.3-1.4.1-4,.4-4.2,2.3S73.5,104.3,74.5,105.5Z" fill="#f79765"/><path d="M67.9,102.1a19.1,19.1,0,0,0,16.7,13.4,15.4,15.4,0,0,0,6.4-1c5.6-2.2,8.7-8.1,11-13.7" fill="none" stroke="#007594" stroke-miterlimit="10"/><path d="M49.8,130.2c12.4.4,24.8.6,37.2.1s24.8-1,36.5-4.4" fill="none" stroke="#007594" stroke-miterlimit="10"/><path d="M49.5,136.4c12.4.5,24.9.6,37.3.1s24.8-1,36.5-4.3" fill="none" stroke="#007594" stroke-miterlimit="10"/></g><path d="M153.1,300.4a28.4,28.4,0,0,0,15.7,3.3,3.5,3.5,0,0,0,1.8-.6c.8-.8.4-2.3-.5-3A7.6,7.6,0,0,0,167,299c-2.5-.5-6.7-1.9-6.2-5.2a18.4,18.4,0,0,0,.5-2.5.6.6,0,0,0-.1-.4h-.4l-9.4-2.5c-.9,2.7-1.8,5.4-1.7,8.2a3,3,0,0,0,.6,2,4.5,4.5,0,0,0,1.3,1Z"/><rect x="219.6" y="53.8" width="18.2" height="22" fill="#f99d6e"/><path d="M197.1,125.8a73.4,73.4,0,0,0,9.3-22.6,93.2,93.2,0,0,0,2.3-21,14.4,14.4,0,0,0-.9-6.2c-.2-.3-.4-.7-.8-.8a1.7,1.7,0,0,0-1-.1,24.4,24.4,0,0,0-13,7.2c-6.2,6.9-10.6,15.1-14,23.7a14,14,0,0,0-1,3.9,10.7,10.7,0,0,0,2.6,6.3,36.3,36.3,0,0,0,12.7,11,2.7,2.7,0,0,0,1.4.5C195.8,127.7,196.5,126.7,197.1,125.8Z" fill="#4daa82"/><path d="M263.4,121.7a131.3,131.3,0,0,1,.7,14,253.7,253.7,0,0,1-1.8,30.2,6,6,0,0,1-.8,2.9,5.2,5.2,0,0,1-2.1,1.4,32.9,32.9,0,0,1-11,3.1,48.3,48.3,0,0,1-7.6.2l-30.7-.3c-3.2,0-7-.3-9-2.8s-1.7-4.5-1.8-6.9l-1.2-36c-.4-11-.7-21.9-.1-32.9.3-4.7.8-9.5,2.5-13.9s3.9-5.3,8-6.6a41.7,41.7,0,0,1,9.3-1.3c5.8-.5,11.6-.9,17.4-1.1a74,74,0,0,1,8.2.3,27,27,0,0,1,13.1,5.3c3.9,3.1,4.6,7.6,4.9,12.4C262.2,100.3,262.1,111.2,263.4,121.7Z" fill="#5abd95"/><ellipse cx="163.8" cy="65.1" rx="20.9" ry="25.9" fill="#fac39a"/><path d="M197.1,113.8a52,52,0,0,1,4.6,5.9c2,2.6,3.1,5.7,4.2,8.8a1.7,1.7,0,0,1,.1,1c-.5,1.6-5.6,3.6-7,4.3a51.3,51.3,0,0,1-9.7,4.1c-3.4-9.4-6.9-19.1-7-29.1-.1-3.6,2.2-7.9,5.8-4.5S194.1,110.6,197.1,113.8Z" fill="#dc6b3f"/><ellipse cx="224.6" cy="36.3" rx="27.1" ry="20.9" transform="translate(175.9 258.5) rotate(-86.8)" fill="#fac39a"/><path d="M164,291.5a65.1,65.1,0,0,1,2.7,7.8c.3,1.1.6,2.3,0,3.2a4.4,4.4,0,0,1-2.3,1.3,84.2,84.2,0,0,1-22.9,3,3.5,3.5,0,0,1-2.5-.6c-2.4-2,3.4-5.2,4.7-5.8a38.8,38.8,0,0,1,7.2-2.6c2.3-.6,6.2-.4,4.3-4.1-.2-.4-.5-.8-.4-1.2S162.8,291.4,164,291.5Z" fill="#2d322e"/><path d="M189.1,129.8c-.5,3.2-1.7,6.1-2.5,9.2s-.9,4.3-1.6,6.5-3.4,17.6-2.1,17.6c-12.3.1-24.7-.3-37.1-1.1.3-7.3.5-14.7-1.4-21.6-.9-3.1-2.1-6-3-9.1-1.8-6.7-1.7-13.7-1.6-20.7s2.9-9.1,9-10.8a62.2,62.2,0,0,1,17.7-2.1,37.5,37.5,0,0,1,17.2,4,8.2,8.2,0,0,1,2.9,2.3,8.6,8.6,0,0,1,1.3,3.8C189.2,115.1,190.4,122.5,189.1,129.8Z" fill="#ef7c3c"/><g clip-path="url(#ef1b1397-44d9-49d8-9f2a-b08645651053)"><path d="M163.5,120l.3.2c2,1.2,3.9-.5,5.2-2.2a74.7,74.7,0,0,0,5.1-7.4c2.5-4.8,6.5-16.8.9-20.5a30,30,0,0,0-10.1-4.7,16,16,0,0,0-10.8,1.2,11.4,11.4,0,0,0-5.5,7c-.9,3,.6,5.7,1.9,8.5a52.9,52.9,0,0,0,8.3,12.6C160.1,116.3,161.7,118.8,163.5,120Z" fill="#fff"/><path d="M164.1,114a1.9,1.9,0,0,0,1,.5c.3,0,.6-.3.8-.5a25,25,0,0,0,8.3-17.1,3.6,3.6,0,0,0-.3-1.8c-.5-1.2-1.9-1.6-3.2-1.8a70.8,70.8,0,0,0-11.3-.9,13,13,0,0,0-4.4.6c-5.2,2.1-1.4,7.2.6,10.5A47.2,47.2,0,0,0,164.1,114Z" fill="#f99d6e"/></g><path d="M52.6,114.7l-.2.2c-12.1,13.8-21.5,31.4-25,49.5a70.1,70.1,0,0,0-.8,10.2c-.1,4.7.2,10,3.6,13.3a.9.9,0,0,0,.6.3c.3.1.7-.2,1-.4,8-7.6,16.3-16.1,20.7-26.5,2.7-6.4,5.9-12.5,8.3-19a87,87,0,0,0,4.9-21.2c.2-2.9,2-11.6-2-12.7a3.6,3.6,0,0,0-2.3.2A19.5,19.5,0,0,0,52.6,114.7Z" fill="#007594"/><path d="M190.4,202.6c-.1,2.4-.3,4.7-.5,7.1-1.5,13.8-6.6,26.7-11.3,39.7s-9.3,26.6-14,40a7,7,0,0,1-1.2,3.4c-1.2,1.1-1.9,0-2.9-.5s-4.2-1-6.1-1.3l-6.7-1.2c3.3-9.6,6.5-19.4,9.3-29.2.6-2.1,1.4-4.1,2.1-6.1a38.8,38.8,0,0,0,1.1-7.5c.6-4.9.9-9.8,1.5-14.7,1.1-9.5.1-19,1.1-28.6.6-6.1,2-12.2,2.3-18.5s-.7-14.6.9-21.7a4.3,4.3,0,0,1,.9-2.2,4.7,4.7,0,0,1,2.5-1.1c3.2-.5,9.8-1.2,12.2,1.4s2.1,4.4,2.8,6.3A82.6,82.6,0,0,1,190.4,202.6Z" fill="#47719e"/><path d="M165.8,266.3c0-8.4-.1-16.8-.1-25.2-.1-13.9,0-27.7.4-41.5q.3-10.3.9-20.7c.2-3.4.5-6.9.7-10.3s.8-5.7.5-8.3c-6.4-.6-13-.2-19.4-.3a2.9,2.9,0,0,0-1.6.3,3.1,3.1,0,0,0-1.1.8c-6.2,6.4-11.6,14.8-12.7,23.8-2.5,19.6,2.3,39.1,7.3,57.9,2.6,9.6,5.2,19.1,7.2,28.7.5,2.7,5.2,23.1,5.2,23.1h13.8S165.9,275.8,165.8,266.3Z" fill="#4f77aa"/><path d="M147.1,60.3a45.9,45.9,0,0,1,9.2-5.1c4.9-2,10-3.6,14.8-5.8,2.8-1.3,5.9-3.4,6.1-6.5a6.7,6.7,0,0,0-2.9-5.4,16.7,16.7,0,0,0-5.7-2.3c-4.7-1.2-9.7-2-14.1-.2a20,20,0,0,0-5.8,4.2,38.6,38.6,0,0,0-4.9,5.8,24.1,24.1,0,0,0-3.5,6.5c-1.9,5.1-1.6,10.7-1.2,16.2,0,1,.3,2.3,1.3,2.6s1.7-3.7,2.2-4.8A13.3,13.3,0,0,1,147.1,60.3Z" fill="#5e3628"/><path d="M108.6,64.3C109,74,105.9,84.5,97,89.5a31.1,31.1,0,0,1-6.8,2.7,38.1,38.1,0,0,1-14.6,1.7,21.4,21.4,0,0,1-13.1-6.1,29.4,29.4,0,0,1-4.7-7.3A94,94,0,0,1,52.3,66c-.7-2.5-1.1-5.7,1-7.3a16.7,16.7,0,0,0,1.6-1.2,5.2,5.2,0,0,0,.7-1.5c.7-2.3,1.1-4.7,2.4-6.7s5.2-4.5,8.4-5.9,5.1-2.3,8.4-1.7a40.4,40.4,0,0,1,8.3,2.1c3.2,1.2,6.2,3.1,9.6,3.9s9.3-.2,11.7,3.3A24.9,24.9,0,0,1,108.6,64.3Z" fill="#ddcacc"/><path d="M31.9,308.9c2.3.8,9.3,2.7,11,.3s.1-4.7-2-6a14.6,14.6,0,0,0-6.1-1.6,7.7,7.7,0,0,0-4,.6C27.1,304,28.8,307.8,31.9,308.9Z" fill="#1c995d"/><path d="M47.2,309.2c2.4.6,9.5,2,11-.6s-.3-4.7-2.5-5.8a13.2,13.2,0,0,0-6.2-1.1,6.5,6.5,0,0,0-3.9.9C42.1,304.7,44,308.3,47.2,309.2Z" fill="#1c995d"/><path d="M139,76.6a8,8,0,0,1-2.2-4.4,6.1,6.1,0,0,1,4.9-6.4,2.5,2.5,0,0,1,2.5.6,3.4,3.4,0,0,1,.6,1.5c.5,1.8,1.1,3.6,1.6,5.5s1.9,5.3-.1,6.2S140.5,78.1,139,76.6Z" fill="#fac39a"/><path d="M270.8,67.1a15,15,0,0,1,.2-5.6,6,6,0,0,1,3.2-4.2,27.9,27.9,0,0,1,.5-4.6,12.2,12.2,0,0,1,2.4-4.3,11.2,11.2,0,0,1,4-2.8c1.5-.7,3.4-.5,4.5-1.6s6.3-2.1,9.1-1.4a10.9,10.9,0,0,1,3.2-9.7c4.1-4.1,10.3-4,15.1-1.5s8.4,6.2,10,11,.5,10.8-3.5,13.9c3.3,1.7,4.4,5.9,5.1,9.6a29.1,29.1,0,0,1,.8,9.3c-.6,4.8-3.3,9-6,13a8.8,8.8,0,0,1-2.4,2.7,7.7,7.7,0,0,1-3.4.7c-12.2.6-23.8-4.9-34.8-10.2-2.6-1.3-4.5-2.1-5.7-4.8A28.7,28.7,0,0,1,270.8,67.1Z" fill="#ceb3b4"/><path d="M222.8,172.8c.2-27.4-.2-54.8,1.7-82.2.3-3.8.6-7.6.7-11.5" fill="none" stroke="#008571" stroke-miterlimit="10"/><path d="M247.8,42.7c3.1-9.5,2.7-18.5,1.8-28.4-.2-2.7-1.7-4.2-3.6-6.2a17.9,17.9,0,0,0-4.8-3.9c-5.4-2.5-11.9,1-17.7-.6-2.3-.6-4.3-2-6.6-2.8A14.3,14.3,0,0,0,202,4.3a7.4,7.4,0,0,0-1.4,2.2,6.8,6.8,0,0,0,.5,5.4c2.1,4.4,5.6,5.4,9.7,7s7.2,1.6,10.8,1.6,7.6-.7,11.4,1.2c1.3.7,2.5,1.6,3.8,2.4a19.2,19.2,0,0,1,3.8,2.5c1.4,1.5,1.8,3.7,2.2,5.8.7,3.6,1.5,7.1,2.5,10.6.1.5.3,1.1.8,1.2S247.5,43.5,247.8,42.7Z" fill="#343a4a"/><path d="M269.9,86c8.2,6.4,16.6,13.8,21.3,23.1a11.9,11.9,0,0,1-.1,11.7c-1.6,3.3-4.7,6.2-8.6,6.6s-5.2-1-7.5-2.2c-5.9-3.1-11.7-6.5-16.4-11.2-9.2-9.3-11.3-26.2-8.7-38.6a3.6,3.6,0,0,1,.4-.9,1.7,1.7,0,0,1,1.8.1,60.1,60.1,0,0,1,13.5,8.2Z" fill="#5abd95"/><rect x="287.1" y="101.4" width="16" height="14.05" fill="#f99d6e"/><path d="M250.9,38.8a5.5,5.5,0,0,1,2.3,4.2,5.1,5.1,0,0,1-1.3,3.5,9.4,9.4,0,0,1-6.4,4c-1.9.3-4.7.2-5.1-2.2s1.4-5.1,2.6-6.8S247.9,36.6,250.9,38.8Z" fill="#fac39a"/><path d="M64.6,75.2c.8,15,10.8,26.6,22.3,25.9s20.2-13.3,19.4-28.2S95.4,46.4,83.9,47,63.7,60.3,64.6,75.2Z" fill="#f9b689"/><path d="M62.3,80.6C59.2,71,59.5,62,60.5,52.1c.2-2.7,1.7-4.2,3.6-6.2A16.5,16.5,0,0,1,68.9,42c5.4-2.5,11.9,1,17.7-.6s8.6-4,13.7-2.5c1.6.5,3.4,1.1,4.4,2.5s.9,5.7-1.1,7.7-5,2.8-7.8,3.4a69.3,69.3,0,0,1-16.4,1.1c-2-.1-4.1-.3-5.8.7a7.6,7.6,0,0,0-2.7,3.8c-1.4,3.7-1.5,7.9-3.1,11.7s-2,7.4-3,11.1c-.2.5-.3,1-.8,1.2S62.5,81.4,62.3,80.6Z" fill="#ddcacc"/><path d="M59.1,76.6a6.8,6.8,0,0,0-1.8,2.3,7.5,7.5,0,0,0-.5,1.6c-.2,1.6.8,3,1.8,4.2a13.1,13.1,0,0,0,2.3,2.4c2.1,1.4,8.1,2.6,8.7-1,.4-2.1-1.3-5.1-2.5-6.8S62.1,74.4,59.1,76.6Z" fill="#f9b689"/><ellipse cx="294.8" cy="78.2" rx="27.1" ry="20.9" transform="translate(179.3 360.5) rotate(-82.6)" fill="#fac39a"/><path d="M304,67.5l-10.8-.7-10.7-.6A55.7,55.7,0,0,1,304,67.5Z" fill="#e59a7f"/><path d="M301,64.1l-7.8-.7-7.7-.6a29,29,0,0,1,7.8-.4A26,26,0,0,1,301,64.1Z" fill="#e59a7f"/><path d="M29.1,303.1l7-.8a67.9,67.9,0,0,0,5.4-33,2.9,2.9,0,0,0-.5-1.8,3.5,3.5,0,0,0-2.4-1c-2.5-.3-7.3-1-9,1.6s-.5,7.4-.5,10S29.5,303,29.1,303.1Z" fill="#9193a8"/><path d="M297,307.1a4.4,4.4,0,0,1-2.1-2.7,8.6,8.6,0,0,1-.1-1.6c0-4.3,1.5-8.8,6.4-5.6s11.2,5.7,15.7,10-2.7,5.2-6.1,4.8a40.4,40.4,0,0,1-9.7-3A21.2,21.2,0,0,1,297,307.1Z" fill="#35669e"/><path d="M44,303.6l6.9-1.3A68.5,68.5,0,0,0,53.7,269a3.6,3.6,0,0,0-.7-1.8,3.5,3.5,0,0,0-2.4-.8c-2.6-.1-7.4-.4-8.9,2.3s.1,7.4.3,10S44.4,303.5,44,303.6Z" fill="#9193a8"/><polygon points="219.3 71.3 225.1 79.8 237.8 70.4 219.3 71.3" fill="#f99d6e"/><path d="M20.1,266.2c-.3,1.2.8,2.3,1.8,3s2.3,1.4,2.5,2.6a1.7,1.7,0,0,1-1.7,0c-1.5-.6-2.3-.6-2.4,1l-.3,4.5c0,.6-.1,1.3-.6,1.5a1.4,1.4,0,0,1-1.1-.2,2.7,2.7,0,0,1-.7-.8c0,.6-.1,1.4-.7,1.5a.9.9,0,0,1-1-.3,4.2,4.2,0,0,1-.4-1,1.7,1.7,0,0,1-1.4-.3,1.5,1.5,0,0,1-.4-1.3c-.3.2-.7-.1-.9-.4a2,2,0,0,1,0-1.1c.5-3.5,2.9-6,4-9.3" fill="#fac39a"/><path d="M288.2,305.5a4.4,4.4,0,0,0,2.1-2.7,8.1,8.1,0,0,0,.1-1.6c0-4.3-1.5-8.8-6.4-5.6s-11.2,5.7-15.7,10,2.7,5.2,6.1,4.8a40.4,40.4,0,0,0,9.7-3A21.2,21.2,0,0,0,288.2,305.5Z" fill="#35669e"/><path d="M24.1,244.6c.1-6.2-.2-15.2,4.4-19.5a17.8,17.8,0,0,1,16.8-4.3,14.1,14.1,0,0,1,6.2,3.4c4.2,4,5.5,10.6,6.3,16.7a263.6,263.6,0,0,1,2.1,28.2c0,.7-17.1,1.5-18.7,1.5-5.5.2-11,.2-16.5.2C24.1,262.1,24,253.3,24.1,244.6Z" fill="#87c661"/><path d="M312.5,258.7c-.3,2.6-1.7,5.1-2.3,7.6l-2.7,9.6c-1.9,6.8-3.7,13.2-4.4,20.2-.3,3.2,2.3,2.8,4,5a2.2,2.2,0,0,1-1.3,3.7,7,7,0,0,1-5.7-1.6,16.7,16.7,0,0,1-3.6-3.4c-1.1-1.6-.6-3.5-.7-5.3-1-13.2-2.5-26.2-4.4-39.2" fill="#f99d6e"/><path d="M25.9,227.4a9.5,9.5,0,0,1,3.5-3.1,1.1,1.1,0,0,1,1.2,0c.2.1.3.4.4.7a28.7,28.7,0,0,1,1.6,11.6A13,13,0,0,1,32,241c-.8,1.7-2,3.4-2.9,5.1A71.4,71.4,0,0,0,21.9,268a50.8,50.8,0,0,1-7.8.1c-1.4,0,2.6-19.7,3-21.4C18.9,239.9,21.5,233,25.9,227.4Z" fill="#87c661"/><path d="M272.8,257.2c.2,2.5,1.6,5.1,2.3,7.5s1.7,6.4,2.6,9.7c1.9,6.7,3.7,13.2,4.4,20.1.3,3.2-2.3,2.8-4,5a2.2,2.2,0,0,0,1.3,3.7,7,7,0,0,0,5.7-1.6,17.2,17.2,0,0,0,3.7-3.4c1.1-1.6.5-3.5.6-5.3,1-13.1,2.5-26.2,4.4-39.2" fill="#f99d6e"/><polygon points="225.2 79.3 237.8 68.4 244.6 72.2 230.9 86.1 225.2 79.3" fill="#008571"/><polygon points="219.6 69.8 225.2 79.3 218.6 86.1 211.9 73.4 219.6 69.8" fill="#008571"/><path d="M289.6,57.2c1.9,6.2,8.2,7.9,14.1,7.2a6.7,6.7,0,0,0,2.5,5.5,19.7,19.7,0,0,0,5.3,3l-.6,8.7a14.7,14.7,0,0,0,.5,5.9c.4,1.2,1.8,3.4,3.2,2.8s2.6-3.3,3.2-4.4A21.7,21.7,0,0,0,320.4,75c-.2-5-2.1-9.7-3.9-14.4a26.5,26.5,0,0,0-3.3-6.5c-3.4-4.5-9.2-6.4-14.6-7.6C291.5,44.8,287.6,50.8,289.6,57.2Z" fill="#ceb3b4"/><path d="M144.1,141.1a26.4,26.4,0,0,1,3.5-4,47.4,47.4,0,0,1,13.4-8.2,89.6,89.6,0,0,1,16-5.7c2.6-.6,5.1-1.6,7.7-2.4,5.2-1.6,10.6-2.8,16-2.3s10.9,3.3,13.6,8a17.6,17.6,0,0,1,1.5,11.3,34.8,34.8,0,0,1-4.3,10.6,57.7,57.7,0,0,1-24.6,23.1,49.9,49.9,0,0,1-10.7,3.6c-7.5,1.6-16,2.5-23.5.5-4.6-1.3-8.6-5.5-10.7-9.6A24,24,0,0,1,144.1,141.1Z" fill="#d9dcf4"/><path d="M191.2,121.9c4.8-1.1,11.2.4,13.9,4.9s1.6,9.8-1.5,13.7c-4.9,6.3-15.9,6.8-21.2.6S183.3,123.7,191.2,121.9Z" fill="#fac39a"/><path d="M45.5,223a3.5,3.5,0,0,1-3.1,2.1c-7.8,1-5.5-8.8-5.5-13.2h9.2v6.2A13.2,13.2,0,0,1,45.5,223Z" fill="#f99d6e"/><path d="M329,183.4c2.1,8.1,1.5,16.6.4,24.9-1.6,11.4-4.4,22.7-7.2,34-1.6,6.7-3.3,13.5-5,20.3H272.1c-7.1-23.3-12.8-47.7-9.2-71.8a172.8,172.8,0,0,1,6.1-24.3c2-6.7,3.5-12.6,2.6-19.6s-2.2-13.5-1.9-20.3c.2-4.9,2.6-7.2,6.4-10.1a39.8,39.8,0,0,1,8.3-4.6c3.4-1.4,6.3-1.3,9.9-1.2a55.6,55.6,0,0,1,12.2,1.3c6.5,1.7,13.3,4.9,14.8,12a30.4,30.4,0,0,1,.4,7.4c0,9-1.2,18.6-.3,27.6S326.9,175.1,329,183.4Z" fill="#e76983"/><g clip-path="url(#b694e2b3-8c38-4aa6-a325-f03dd151ab1b)"><path d="M288.1,120.5a13.2,13.2,0,0,0,4,1.1,16.4,16.4,0,0,0,8.2-.8,10.6,10.6,0,0,0,5.7-5.7,20,20,0,0,0,.7-6.9,6.5,6.5,0,0,0-.4-1.9,5.2,5.2,0,0,0-1.1-1c-5.3-3.8-15.2-4.3-19.8.4S281.8,117.4,288.1,120.5Z" fill="#f99d6e"/><path d="M278.7,98.9a69.4,69.4,0,0,0,2.5,19.8c1.7,6.2,5,21.5,14.4,19.1,6.7-1.7,10-12.3,11.5-18.1a64.1,64.1,0,0,0,1.3-24.3" fill="none" stroke="#efa335" stroke-miterlimit="10"/></g><path d="M287.6,198.7c2.3.6,5.2.9,6.5-.8a3.1,3.1,0,0,0,.6-1.3l.5-1.5a4.3,4.3,0,0,0,.2-1.2c-.2-2.4-5.4-2.6-7-2.6s-4.2.4-5.6,1.7.7,4.1,2.8,5Z" fill="#604e40"/><path d="M309.1,191.6a12.3,12.3,0,0,1-3.6-2.3c-2-1.8-1.2-4.2,1.4-4.6s6.5,1.1,9,1.9a8.2,8.2,0,0,1-.4-3.5,1.5,1.5,0,0,1,.4-1.1,1.3,1.3,0,0,1,1.8.5,10.8,10.8,0,0,1,.8,1.9,4.2,4.2,0,0,0,2.9,2.6l1.3.4a3.4,3.4,0,0,1,.9.8,11.1,11.1,0,0,1,1.8,3.4,1.7,1.7,0,0,1-.1,1.4c-.3.5-1,.5-1.6.5a31,31,0,0,0-4.3-.2,18.4,18.4,0,0,0-2.5.5C314.3,194,311.4,192.6,309.1,191.6Z" fill="#fac39a"/><path d="M301.4,210.3c2.4-.2,5.3-.8,6-2.9a6.1,6.1,0,0,0,.1-1.4c0-.5-.1-1-.1-1.5a2.7,2.7,0,0,0-.2-1.3c-1-2.2-5.9-.7-7.5-.1s-3.8,1.7-4.7,3.5,2,3.5,4.3,3.7Z" fill="#604e40"/><path d="M122.8,161.1a20.8,20.8,0,0,0,3.4,2.4,183.6,183.6,0,0,0,16.3,10.1c2.7,1.4,18.9,10.5,19.6,4.6a3.5,3.5,0,0,0-1-2.9,16.4,16.4,0,0,0-2.5-1.9,63.2,63.2,0,0,1-10.5-8.2,115.2,115.2,0,0,0-9.3-9.2c-1-.8-2.6-2-3-3.3s.2-3.9.5-5.5c.8-3.9,2.2-7.7,3.3-11.5a3.9,3.9,0,0,0,.2-1.5,3.5,3.5,0,0,0-.8-1.3c-1.5-1.7-3.3-2.3-5.2-3.2s-3.3-2.5-5.1-1.9-2.8,3.8-3.3,5.1c-1.9,4.4-1.9,8.7-2.8,13.3-.4,2.4-.7,4.8-1,7.2s-.8,4.4.3,6.4A3.8,3.8,0,0,0,122.8,161.1Z" fill="#fac39a"/><path d="M297.1,187.6a31.5,31.5,0,0,0,5.3.1c2.1.1,4,.9,6.1-.2s4.3-5.6,1.9-8.3-6.3-3.3-9.5-4c-6-1.3-12.3-2.9-17.3-6.7s-7.7-10.3-9.2-16.5c-2.4-10.7-.6-24.1.8-34.9-6.7,2.5-12.1,9-15,15.2a38.8,38.8,0,0,0-2.4,26.4c2,7.5,7.2,14.3,13.2,19.1a46.1,46.1,0,0,0,8.5,5.2C285.1,185.5,291.1,186.6,297.1,187.6Z" fill="#d75575"/><path d="M300,197.9c-1-6.5.5-13.4,5.6-17.8a2.6,2.6,0,0,1,1.1-.7l1.3.3a95.1,95.1,0,0,1,9,4.6c-3.7,2.2-7.7,4.8-9.1,8.9a17.6,17.6,0,0,0-.7,5.6c0,1.1.9,3.9-.2,4.5a3.2,3.2,0,0,1-1.7.3h-1.6l-1.6-.4a3.2,3.2,0,0,1-1.4-2A16.5,16.5,0,0,1,300,197.9Z" fill="#567991"/><path d="M134.4,108a10.9,10.9,0,0,0-1.3,1.7c-2.5,3.5-4.1,7.5-5.7,11.4s-2.3,5.7-3.5,8.5c-.2.7-1.3,3.6-1.3,3.6l17.4,5.5s4.9-12.5,5-18.1a63.2,63.2,0,0,0-.6-7.5l-1.2-11A17.1,17.1,0,0,0,134.4,108Z" fill="#ef7c3c"/><path d="M334.8,194c4.5-1.6,7.6-5.8,9.6-10.1a33.7,33.7,0,0,0,2.7-14.7c-.3-15.9-8.9-28.5-18.4-40.6-3.3-4.2-6.6-8.4-11.2-11a1.2,1.2,0,0,0-1-.3c-.3.1-.5.4-.7.6-2.9,3.5-3.9,7.9-3.8,12.4a31.6,31.6,0,0,0,2.4,12.2c2,4.7,5.3,8.6,8.7,12.4s7,6.9,8.8,11.7,1.5,7.7-.3,11.1a10.8,10.8,0,0,1-6,5.1c-.9.4-1.9.6-2.7,1a2.8,2.8,0,0,0-1.4,3.9,13,13,0,0,0,2.2,4.6C326.2,195.7,331.3,195.2,334.8,194Z" fill="#d75575"/><path d="M290.3,186.5c1.3-6.4,5-12.5,11.2-15a3,3,0,0,1,1.3-.2,2.6,2.6,0,0,1,1.1.7,96.1,96.1,0,0,1,7,7.3c-4.2.9-8.8,2-11.5,5.4a16.2,16.2,0,0,0-2.5,5.1c-.4,1-.5,3.9-1.7,4.2a3,3,0,0,1-1.8-.4L292,193a6.7,6.7,0,0,1-1.4-.9,3.7,3.7,0,0,1-.7-2.3C290,188.7,290.1,187.6,290.3,186.5Z" fill="#567991"/><path d="M168.4,181.2a17.6,17.6,0,0,0,7.8-1.9,7.4,7.4,0,0,0,3.6-5,54.3,54.3,0,0,1-9.9.5,18,18,0,0,1-4-.3,24.6,24.6,0,0,0,4.5-2.5c.5-.4,1-.8,1-1.4a1.1,1.1,0,0,0-1-.9,2.3,2.3,0,0,0-1.4.2,42.3,42.3,0,0,0-4.8,2.3c-1.9.9-4.4,1.5-6.4.7a2.1,2.1,0,0,0-1.9.2,1.5,1.5,0,0,0-.6.9,8.1,8.1,0,0,0-.7,4c0,.2.1.3.1.4l.4.4C158.8,181.8,163.9,181.5,168.4,181.2Z" fill="#fac39a"/><path d="M333.6,157a17.7,17.7,0,0,0-15.4-7.9c-4.8.2-7.2,5.5-9.3,9.4s-4.4,8.5-8.5,11,4.6,11,7.1,12.6a37.7,37.7,0,0,0,11.4,4c1.5.3,1.7.4,2.7-.7s2.5-1.6,4.3-2.2c4.3-1.5,5.1-5.1,7.4-8.4,1.1-1.6,1.6-4.2,2-6.1C336.1,164.7,336,160.5,333.6,157Z" fill="#face48"/><path d="M320.9,151.1c-.1,1.3.9,2.2,2.2,2.7a19.6,19.6,0,0,0,4.2.9l1.8-.3c.9-.5.8-1.3,1-2.2s.5-2.3.7-3.4,1.1-4.5,1.6-6.7l-9-2.1-.9,4.1c-.4,1.8-1,3.6-1.3,5.4A11,11,0,0,0,320.9,151.1Z" fill="#f99d6e"/><path d="M52.2,180.7a27.2,27.2,0,0,0,2.8,9.6,19.2,19.2,0,0,1,1.7,3.9c.4,1.2.7,2.7,1.7,3.7s.5,0,.7-.2a8.5,8.5,0,0,0,3.1-4.7,17.5,17.5,0,0,0,.5-5.6,13,13,0,0,0-3.7-7.8,8.1,8.1,0,0,0-3.7-2.6,2,2,0,0,0-1.7.1C52.3,177.7,52.1,179.3,52.2,180.7Z" fill="#604e40"/><ellipse cx="43.5" cy="197.4" rx="17.9" ry="20.9" fill="#fac39a"/><path d="M49.6,183.9a33.5,33.5,0,0,0,6.3-.5,6.3,6.3,0,0,0,4.4-3.2,5,5,0,0,0,.6-2.4c.1-3.9-2.5-7.5-5.9-9.4s-9.9-2.9-14.5-2.6c-8.9.6-17.7,8.2-19.8,16.8a42.7,42.7,0,0,0-.9,10.1c0,3-.1,5.4,1.5,8.1a16.4,16.4,0,0,0,5.9,6.1,42.1,42.1,0,0,0,2.4-14,15.9,15.9,0,0,1,.6-5.8c1.1-2.6,4.4-4.2,7.2-4.2S45.5,183.7,49.6,183.9Z" fill="#604e40"/><path d="M19.1,198.4c-1.4,1.1-1.6,3.8-1.1,5.8s2.2,4.6,5.6,4.9,4.8.2,5.1-2.4-3.3-7.7-6.8-8.6A2.9,2.9,0,0,0,19.1,198.4Z" fill="#fac39a"/><path d="M313.6,121.6c3.2-1,7.1-4.4,7.9-6.5a14.2,14.2,0,0,0,.2-8.4,6.4,6.4,0,0,0-1.1-2.7c-1.7-2.1-6.1-1.9-8.2-.3a6.7,6.7,0,0,0-1.4,1.5c-2.6,3.8-2.4,8.7-2.2,13.2S311.1,122.3,313.6,121.6Z" fill="#5e3628"/><path d="M313.2,111.3a2.9,2.9,0,0,0,1.1,1.8c2,1.5,5.7-1.5,6.8-3.3s1.9-5.2-.9-5.8S312.6,108,313.2,111.3Z" fill="#5abd95"/><path d="M311.9,114.9a15.2,15.2,0,0,0-1.5,12.3c1.5-7,6.9-12.4,12.7-16.6a3.3,3.3,0,0,0,1.4-1.7c.4-1.5-1.4-2.4-2.6-2.6s-2.3.6-3.5,1.5A23.2,23.2,0,0,0,311.9,114.9Z" fill="#5e3628"/><ellipse cx="327.6" cy="127.4" rx="20.9" ry="17.9" transform="translate(130.6 418.6) rotate(-77.2)" fill="#fac39a"/><path d="M352.1,122.7a27.8,27.8,0,0,1-1.8,11.8,19.9,19.9,0,0,1-2.9,5.6c-1.3,1.7-2.7,3.4-5,2.1a1,1,0,0,1-.5-.4c-.8-1,.4-3.4.9-4.4a13.5,13.5,0,0,0,1-5.3,33.5,33.5,0,0,1,.3-7.1,18,18,0,0,1-5.6-1.6c-1.9-1-2.7-3-3.1-4.9-3,1.6-7,.9-9.8-1.2l-.6-.5a18.3,18.3,0,0,1-4.9-8.1,3.5,3.5,0,0,1-.1-2,3.1,3.1,0,0,1,1.6-1.8,21.5,21.5,0,0,1,19-1C347.8,107.3,351.5,115.1,352.1,122.7Z" fill="#5e3628"/><path d="M349.6,156.8c1.2-.3,1.6-1.8,1.6-3s.1-2.7,1.1-3.5a1.5,1.5,0,0,1,.8,1.5,3.4,3.4,0,0,0,.5,1.7l.4.2.4-.2,3.8-2.4c.5-.4,1.3-.7,1.7-.2s-.6,1.9-1.2,2.1-.9.4-.9.9-.1.1,0,.1h.2a28,28,0,0,0,3.1-.9h1.1a.8.8,0,0,1,.8.6c-.2.6-.8.9-1.4,1.2l-2.7.8c-.3.1-.5.2-.5.4l2.4.4a1.8,1.8,0,0,1,1.7.8c-.1.4-.7.6-1.1.7H358c-.2.1-.3.3-.2.4s.1.2.2.3l1.8,1.4c.1.1.3.2.3.4s-.9.6-1.2.4a8.3,8.3,0,0,1-1.6-.9c-2-1.1-4.4-.7-6.6-.2" fill="#fac39a"/><path d="M329,154.8c.5-1.2,2.3-1.2,3.6-1,3.1.5,6.2,1.1,9.3,1.3s6.5.2,8.5-1.4c2.3,2,2.7,6.5.5,8.7a5.6,5.6,0,0,1-2,1.1c-3.3,1.1-7.2.7-10.6.9a6.5,6.5,0,0,0-3.1.5c-.6.3-3.9,1.9-3.7,2.8a16.1,16.1,0,0,1-.6-4.4,7,7,0,0,0-.3-2.9C330,158.9,328.3,156.5,329,154.8Z" fill="#face48"/><path d="M349.4,135.9c1.2,1.4.8,4.1-.2,5.9s-3.2,4-6.5,3.5-4.8-.9-4.4-3.5,4.9-6.7,8.5-6.9A3.3,3.3,0,0,1,349.4,135.9Z" fill="#fac39a"/><path d="M296.6,150.7c-1.1-.3-1.4-1.9-1.3-3.1s.1-2.7-.8-3.6-.8.9-1,1.4a3.2,3.2,0,0,1-.6,1.7.5.5,0,0,1-.4.2.5.5,0,0,1-.4-.3l-3.5-2.7c-.5-.4-1.3-.8-1.7-.3s.4,1.9,1,2.2.8.4.8.9.1.1,0,.1-.2.1-.3.1l-2.9-1.1a2.3,2.3,0,0,0-1.1-.3,1.2,1.2,0,0,0-.9.5c.1.6.8,1,1.3,1.3l2.7,1.1c.2.1.4.2.4.5h-2.4a1.9,1.9,0,0,0-1.8.6c.1.5.6.7,1.1.8l2.8.4h.5c.2.1.3.4.2.5l-.2.3-2,1.2c-.1.1-.3.2-.3.4s.8.7,1.2.5l1.6-.8c2.1-.9,4.5-.2,6.6.4" fill="#fac39a"/><path d="M363.3,113.3c3.4,1.5,5.7,5,6.7,8.7s.7,7.5.6,11.2a5.9,5.9,0,0,1-.5,2.3c-.9,1.6-3.1,1.8-4.9,1.8a38.2,38.2,0,0,1-8.3-.6,1.1,1.1,0,0,1-.8-.3,1.6,1.6,0,0,1-.3-1.2,69,69,0,0,0-.7-11.1c-.5-2.5-3.1-7.4-1.2-9.7S360.9,112.3,363.3,113.3Z" fill="#5e3628"/><path d="M349.9,121.4c.3,1.9.6,4.2,2.8,4.1s3.2-2,3.3-3.8-.5-5.5-2.9-6.3a2.8,2.8,0,0,0-2.8.4C348.4,117.4,349.6,119.5,349.9,121.4Z" fill="#67a58a"/><path d="M317.3,150.7c-.4-1.3-2.2-1.5-3.5-1.4a58.7,58.7,0,0,1-9.4.4c-2.4-.1-6.5-.3-8.3-2.1-2.5,1.8-3.3,6.3-1.3,8.6a5,5,0,0,0,1.9,1.3,18.5,18.5,0,0,0,7.4,1.1,26.1,26.1,0,0,0,6.2-.3,9.4,9.4,0,0,0,4.4-2.3C315.8,154.9,317.8,152.3,317.3,150.7Z" fill="#face48"/><path d="M171.8,58.6a3.2,3.2,0,0,1,1.7-1.1,5,5,0,0,1,2.1-.1,4,4,0,0,1,1.8.7,2.9,2.9,0,0,1,1.4,1.5h-1.9l-1.7-.2-1.6-.3Z" fill="#af735f"/><path d="M181.4,70.9c.1,1.3-1.7,2.4-3.9,2.5s-4.1-1-4.1-2.3,1.7-2.5,4-2.5S181.4,69.6,181.4,70.9Z" fill="#f78b7c"/><path d="M172.4,64.4c.1,1.5.9,2.7,1.8,2.7s1.7-1.3,1.7-2.8-.9-2.7-1.8-2.7S172.4,62.9,172.4,64.4Z" fill="#3d2217"/><path d="M155.5,58.8l-1.8.5-1.6.4-1.6.2-1.9.2a2.9,2.9,0,0,1,1.3-1.6,4.2,4.2,0,0,1,1.8-.8,6.7,6.7,0,0,1,2,0A3.1,3.1,0,0,1,155.5,58.8Z" fill="#af735f"/><path d="M146.4,71.5c0,1.3,1.8,2.3,4.1,2.3s4-1.2,3.9-2.5-1.8-2.4-4-2.3S146.4,70.1,146.4,71.5Z" fill="#f78b7c"/><path d="M155.1,64.5c0,1.5-.7,2.7-1.7,2.7s-1.7-1.2-1.7-2.7.7-2.7,1.6-2.7S155.1,63,155.1,64.5Z" fill="#3d2217"/><path d="M166.3,73.1c0,.6-1.1,1-2.4,1s-2.3-.4-2.3-1,1-1.1,2.3-1.1S166.3,72.4,166.3,73.1Z" fill="#e59a7f"/><path d="M165.4,84.5a8,8,0,0,1-8.8-6.1V78s2.7,1.1,8.2,1,7.8-1.4,7.8-1.4-.1.5-.1.6a7.2,7.2,0,0,1-1.9,3.9A7.1,7.1,0,0,1,165.4,84.5Z" fill="#820b0b"/><g clip-path="url(#e1c6c6a7-0891-45ac-8af5-543df7cd6c53)"><path d="M169.4,79.7a15,15,0,0,1-4.7.8,20.9,20.9,0,0,1-4.3-.4c-1-.2-2.3-.6-2.4-1.8a1,1,0,0,1,1-1.3l11-.2a1.1,1.1,0,0,1,1.1,1.1C171.2,78.8,170.3,79.4,169.4,79.7Z" fill="#fcffff"/><path d="M168.2,86.5h-7a1.8,1.8,0,0,1-1.8-1.6,1.6,1.6,0,0,1,1-1.5,8.6,8.6,0,0,1,2.1-.7,14,14,0,0,1,5,.1c1,.2,2.4.6,2.4,1.9A1.7,1.7,0,0,1,168.2,86.5Z" fill="#f799ab"/></g><path d="M299.4,73.6a3.1,3.1,0,0,1,1.8-.9,4.4,4.4,0,0,1,2,.1,5.1,5.1,0,0,1,1.8.9,3.5,3.5,0,0,1,1.2,1.7l-1.9-.3-1.6-.4-1.6-.5Z" fill="#af735f"/><path d="M307.6,86.9c-.2,1.3-2.1,2.2-4.3,2s-3.9-1.4-3.8-2.7,2.1-2.3,4.3-2.1S307.7,85.6,307.6,86.9Z" fill="#f78b7c"/><path d="M299.3,79.4c-.1,1.5.6,2.8,1.5,2.9s1.8-1,2-2.5-.6-2.8-1.5-2.9S299.5,77.9,299.3,79.4Z" fill="#3d2217"/><path d="M283.2,72l-1.9.3-1.6.2h-3.6a4.3,4.3,0,0,1,1.5-1.5,4.1,4.1,0,0,1,1.9-.5,4.4,4.4,0,0,1,2,.2A3.7,3.7,0,0,1,283.2,72Z" fill="#af735f"/><path d="M273.9,83.7c-.1,1.3,1.3,2.5,3.2,2.7s3.5-.8,3.6-2.1-1.3-2.6-3.2-2.7S274,82.3,273.9,83.7Z" fill="#f78b7c"/><path d="M282.1,77.6c-.1,1.5-1,2.6-1.9,2.5s-1.6-1.3-1.5-2.8,1-2.7,1.9-2.6S282.2,76.1,282.1,77.6Z" fill="#3d2217"/><path d="M292.3,87.4c-.1.6-1.2.9-2.5.8s-2.3-.8-2.2-1.4,1.2-.9,2.5-.8S292.3,86.8,292.3,87.4Z" fill="#e59a7f"/><path d="M290.1,98.7a7.9,7.9,0,0,1-8-7.1v-.5s2.6,1.5,8,2,8-.5,8-.5-.2.5-.2.5a7.8,7.8,0,0,1-2.3,3.8A8.6,8.6,0,0,1,290.1,98.7Z" fill="#820b0b"/><g clip-path="url(#a8e272d8-7346-496c-b780-ddc47d6b70d7)"><path d="M294.7,94.4a13.5,13.5,0,0,1-4.9.1,18.6,18.6,0,0,1-4.1-.8c-1-.3-2.3-.8-2.3-2.1a1.2,1.2,0,0,1,1.2-1.2l10.9,1.1a1.1,1.1,0,0,1,1.1,1.2C296.5,93.6,295.6,94.1,294.7,94.4Z" fill="#fcffff"/><path d="M292.7,100.9l-7-.6a1.7,1.7,0,0,1-1.6-1.9,1.8,1.8,0,0,1,1.2-1.3,7.1,7.1,0,0,1,2.2-.5,13.9,13.9,0,0,1,4.9.7c1,.3,2.3.8,2.1,2.1A1.6,1.6,0,0,1,292.7,100.9Z" fill="#f799ab"/></g><path d="M286.5,78.4a7.8,7.8,0,0,1-8.5,6.8,7.9,7.9,0,0,1-6.8-8.6,7.7,7.7,0,0,1,8.6-6.7A7.6,7.6,0,0,1,286.5,78.4Z" fill="none" stroke="#3d2217" stroke-miterlimit="10"/><circle cx="300.7" cy="80.1" r="7.7" transform="translate(128.7 339.4) rotate(-71.4)" fill="none" stroke="#3d2217" stroke-miterlimit="10"/><path d="M286.6,78a5.7,5.7,0,0,1,6.6.7" fill="none" stroke="#3d2217" stroke-miterlimit="10"/><line x1="308.3" y1="81" x2="314.4" y2="82.3" fill="none" stroke="#3d2217" stroke-miterlimit="10"/><path d="M320,81.9a5.3,5.3,0,0,1,1.8,5.4c-.5,2.1-2.5,3.9-4.3,4.9s-8.3,2.1-8.6-1.6c-.3-2.1,1.7-5,3-6.5S317.2,79.5,320,81.9Z" fill="#fac39a"/><path d="M229.7,30.8a3.8,3.8,0,0,1,1.8-1.1,4.4,4.4,0,0,1,2,.1,4.6,4.6,0,0,1,1.9.8,3.3,3.3,0,0,1,1.2,1.6l-1.9-.2-1.6-.3-1.6-.4Z" fill="#343a4a"/><path d="M238.5,43.7c0,1.3-1.9,2.3-4.1,2.2s-4-1.3-3.9-2.6,1.9-2.3,4.1-2.2S238.6,42.3,238.5,43.7Z" fill="#f78b7c"/><path d="M230,36.6c-.1,1.5.6,2.7,1.6,2.8s1.7-1.2,1.8-2.7-.7-2.7-1.6-2.8S230,35.1,230,36.6Z" fill="#3d2217"/><path d="M213.4,29.9l-1.8.3-1.6.3-1.7.2h-1.8a2.8,2.8,0,0,1,1.3-1.5,4.9,4.9,0,0,1,1.9-.7,5,5,0,0,1,2.1.2A3.1,3.1,0,0,1,213.4,29.9Z" fill="#343a4a"/><path d="M204.8,42c-.1,1.3,1.4,2.4,3.2,2.5s3.5-.9,3.6-2.2-1.4-2.5-3.3-2.6S204.8,40.6,204.8,42Z" fill="#f78b7c"/><path d="M212.7,35.5c-.1,1.5-.9,2.7-1.9,2.7s-1.6-1.4-1.6-2.9.9-2.6,1.9-2.6S212.7,34,212.7,35.5Z" fill="#3d2217"/><path d="M223.3,44.8c-.1.6-1.2,1-2.5.9s-2.3-.6-2.2-1.2,1.1-1,2.4-.9S223.3,44.2,223.3,44.8Z" fill="#e59a7f"/><path d="M221.7,56.2c-4.2.1-7.8-2.5-8.4-6.7-.1,0-.1-.1-.1-.2v-.2s2.6,1.3,8.1,1.6,7.9-.9,7.9-.9-.1.5-.1.5a9.4,9.4,0,0,1-2.2,3.9A7.7,7.7,0,0,1,221.7,56.2Z" fill="#fff"/><path d="M82.7,66.9l-2.6.6-2.5.5-2.4.3-2.7.2a7.2,7.2,0,0,1,2.2-1.7,7.9,7.9,0,0,1,2.6-.8,6.6,6.6,0,0,1,2.8,0A6.2,6.2,0,0,1,82.7,66.9Z" fill="#56575b"/><path d="M71.5,79.9c.1,1.4,2,2.4,4.2,2.3s4-1.3,3.9-2.6-1.9-2.4-4.1-2.3S71.5,78.6,71.5,79.9Z" fill="#f78b7c"/><path d="M80.1,72.9c.1,1.5-.7,2.7-1.6,2.8s-1.8-1.2-1.8-2.7.6-2.7,1.6-2.8S80,71.3,80.1,72.9Z" fill="#3d2217"/><path d="M94.9,66.2A6.3,6.3,0,0,1,97,65a9.7,9.7,0,0,1,2.4-.2,6.2,6.2,0,0,1,2.3.7,4.5,4.5,0,0,1,1.9,1.5h-2.3l-2.1-.2-2-.2Z" fill="#56575b"/><path d="M105.3,78.2c.1,1.4-1.4,2.5-3.3,2.6s-3.4-.9-3.5-2.2,1.4-2.5,3.3-2.6S105.3,76.9,105.3,78.2Z" fill="#f78b7c"/><path d="M97.4,71.8c.1,1.5.9,2.7,1.8,2.6s1.7-1.3,1.6-2.8S100,68.9,99,69,97.3,70.3,97.4,71.8Z" fill="#3d2217"/><path d="M86.8,81.1c0,.6,1.1,1,2.4.9s2.3-.6,2.3-1.2-1.1-1-2.4-1S86.8,80.5,86.8,81.1Z" fill="#e59a7f"/><path d="M88.4,92.5a8,8,0,0,0,8.4-6.7v-.2a.4.4,0,0,0,.1-.3s-2.6,1.4-8.1,1.6-7.9-.8-7.9-.8v.5a7,7,0,0,0,2.2,3.8A7.3,7.3,0,0,0,88.4,92.5Z" fill="#fff"/><path d="M52.9,192.5a2.7,2.7,0,0,1,1.5-1.1,3.7,3.7,0,0,1,1.8-.1,4.4,4.4,0,0,1,1.6.6,3.6,3.6,0,0,1,1.2,1.5H57.3l-1.4-.2-1.4-.2Z" fill="#af735f"/><path d="M60.4,203.2c0,1.1-1.4,2.1-3,2.1s-3.1-.9-3.1-2,1.3-2.1,3-2.2S60.3,202,60.4,203.2Z" fill="#f78b7c"/><path d="M53.4,197.5c.1,1.3.8,2.3,1.6,2.3s1.5-1,1.4-2.3-.7-2.4-1.5-2.4S53.4,196.2,53.4,197.5Z" fill="#3d2217"/><path d="M38.8,192.7l-1.6.5-1.4.3-1.4.2H32.8a2.8,2.8,0,0,1,1-1.5,3.6,3.6,0,0,1,1.7-.7,3.3,3.3,0,0,1,1.7,0A2.9,2.9,0,0,1,38.8,192.7Z" fill="#af735f"/><path d="M30.9,203.6c0,1.2,1.6,2.1,3.5,2s3.5-1,3.5-2.1-1.7-2.1-3.6-2S30.8,202.5,30.9,203.6Z" fill="#f78b7c"/><path d="M38.4,197.6c0,1.3-.6,2.3-1.4,2.4s-1.5-1.1-1.6-2.4.6-2.4,1.5-2.4S38.4,196.3,38.4,197.6Z" fill="#3d2217"/><path d="M48.1,203c0,.5-.9,1-2,1s-2.1-.5-2.1-1,1-.9,2.1-.9S48.1,202.5,48.1,203Z" fill="#e59a7f"/><path d="M46.8,212a7,7,0,0,1-7.6-5.3v-.4s2.3,1,7.1.9S53,206,53,206v.5a7.6,7.6,0,0,1-1.6,3.4A7.6,7.6,0,0,1,46.8,212Z" fill="#820b0b"/><g clip-path="url(#a08a738a-4f2d-4ba0-8ad9-a2d789a96a24)"><path d="M50.3,207.8a11.7,11.7,0,0,1-4.1.6,11.6,11.6,0,0,1-3.7-.3c-.9-.1-2-.5-2.1-1.6a.9.9,0,0,1,.9-1.1l9.5-.2a1,1,0,0,1,1,1C51.8,207,51.1,207.5,50.3,207.8Z" fill="#fcffff"/><path d="M49.3,213.7H43.1a1.6,1.6,0,0,1-1.5-1.5,1.7,1.7,0,0,1,.9-1.3,5.3,5.3,0,0,1,1.8-.5,10.4,10.4,0,0,1,4.3.1c.9.1,2.1.5,2.1,1.6A1.5,1.5,0,0,1,49.3,213.7Z" fill="#f799ab"/></g><path d="M320.1,120.8H317l-1.4-.3a5.8,5.8,0,0,1-1.6-.5,3.1,3.1,0,0,1,1.5-1,3.7,3.7,0,0,1,1.8-.2,5.2,5.2,0,0,1,1.6.6A2.6,2.6,0,0,1,320.1,120.8Z" fill="#af735f"/><path d="M310,129c-.4,1.1.7,2.4,2.3,2.9s3.2,0,3.5-1.1-.7-2.4-2.3-2.9S310.3,127.9,310,129Z" fill="#f78b7c"/><path d="M318.2,125.4c-.4,1.3-1.4,2.1-2.1,1.9s-1.1-1.5-.8-2.7,1.4-2.1,2.2-1.9A2.2,2.2,0,0,1,318.2,125.4Z" fill="#3d2217"/><path d="M333.6,124.8a2.5,2.5,0,0,1,1.8-.6,4.7,4.7,0,0,1,1.7.4l1.4,1.1a3.5,3.5,0,0,1,.6,1.8l-1.6-.5-1.3-.6-1.2-.7Z" fill="#af735f"/><path d="M338.2,137.5c-.3,1.1-2.1,1.5-3.9,1s-3.1-2-2.7-3.1,2.1-1.5,3.9-.9S338.6,136.4,338.2,137.5Z" fill="#f78b7c"/><path d="M332.6,129.6c-.4,1.3,0,2.5.8,2.7s1.7-.6,2.1-1.8,0-2.5-.7-2.7S333,128.4,332.6,129.6Z" fill="#3d2217"/><path d="M321.8,132.2c-.1.5.6,1.1,1.7,1.5s2.1.1,2.2-.4-.6-1.2-1.7-1.5S322,131.7,321.8,132.2Z" fill="#e59a7f"/><path d="M320.6,141.2a7,7,0,0,0,8.8-3.1h.1v-.2a19.3,19.3,0,0,1-7.1-1.1c-4.6-1.4-6.2-3-6.2-3v.5a6.8,6.8,0,0,0,.6,3.7A7,7,0,0,0,320.6,141.2Z" fill="#820b0b"/><g clip-path="url(#fa565d1a-f55c-4653-b189-8f7ea9ece84a)"><path d="M318.4,136.2a13,13,0,0,0,3.8,1.7,15.3,15.3,0,0,0,3.6.7c.9.1,2.1.1,2.5-.9s0-1.2-.6-1.3l-9.1-2.8a.9.9,0,0,0-1.2.6A1.9,1.9,0,0,0,318.4,136.2Z" fill="#fcffff"/><path d="M317.8,142.1l5.9,1.8a1.5,1.5,0,0,0,1.8-1,1.3,1.3,0,0,0-.5-1.4,4.6,4.6,0,0,0-1.6-1.1,10.1,10.1,0,0,0-4.2-1.1c-.9-.1-2.1-.1-2.4,1A1.4,1.4,0,0,0,317.8,142.1Z" fill="#f799ab"/></g><path d="M245.9,173.4a19.7,19.7,0,0,0,4.4,9.2,12.4,12.4,0,0,0,3.6,2.9,7,7,0,0,0,4.5.5" fill="none" stroke="#84879b" stroke-miterlimit="10"/><path d="M201.4,182a6,6,0,0,0,3.9-.7c3.1-1.3,5.8-3.8,6.4-7" fill="none" stroke="#9193a8" stroke-miterlimit="10"/><rect x="237.8" y="100.1" width="15.5" height="5.04" fill="#008571"/><path d="M185.8,132.8a9,9,0,0,0,1,2.2,8.6,8.6,0,0,0,1.4,1.8,11.4,11.4,0,0,0,1.5,1.6,10.4,10.4,0,0,0,2,1.5,3.9,3.9,0,0,1-2.8-.1,7.2,7.2,0,0,1-2.3-1.7,4.9,4.9,0,0,1-1.2-2.5A3.8,3.8,0,0,1,185.8,132.8Z" fill="#ec573b"/><path d="M199.2,136.4a1.5,1.5,0,0,1-1.6.2,2.8,2.8,0,0,1-1.3-.9,3.8,3.8,0,0,1-.5-1.5,2.2,2.2,0,0,1,.6-1.5l.9,1,.7.8.5.8A9,9,0,0,0,199.2,136.4Z" fill="#753301"/><path d="M194,129.4a1.4,1.4,0,0,1-1.6.3,3,3,0,0,1-1.3-.9,3,3,0,0,1-.5-1.5,1.8,1.8,0,0,1,.6-1.5l.9,1,.6.8a2.2,2.2,0,0,1,.5.8Z" fill="#753301"/><path d="M60.2,214.9a17.6,17.6,0,0,0,17.2-11.2" fill="none" stroke="#876655" stroke-miterlimit="10"/><path d="M114.1,202a24.1,24.1,0,0,0,3,6,10.3,10.3,0,0,0,2.8,2.7,4.5,4.5,0,0,0,3.7.6" fill="none" stroke="#967254" stroke-miterlimit="10"/><path d="M76.9,61a55.7,55.7,0,0,1,21.5-1.3l-10.7.6Z" fill="#e59a7f"/><path d="M79.9,57.6a29.5,29.5,0,0,1,7.7-1.7,29,29,0,0,1,7.8.4l-7.7.6Z" fill="#e59a7f"/><circle cx="312.9" cy="93.3" r="2.6" fill="#efa335"/></g></g></svg>