<svg xmlns="http://www.w3.org/2000/svg" viewBox="0 0 1253.32 308.93"><defs><style>.cls-1{fill:#fff;}.cls-2{fill:#e76650;}.cls-3{fill:#d4ebe5;}</style></defs><title>logo-w</title><g id="Layer_2" data-name="Layer 2"><g id="Layer_4" data-name="Layer 4"><path class="cls-1" d="M104.54,146.66A57,57,0,0,1,126.74,169q8,14.37,8,33.46t-8,33.47a57,57,0,0,1-22.2,22.31,63.08,63.08,0,0,1-31.4,7.94q-23.68,0-37.26-14.95v57.73H0V140.56H34.27v14.26q13.33-16.09,38.87-16.1a63.08,63.08,0,0,1,31.4,7.94m-15,80.73q8.85-9.31,8.85-25t-8.85-25q-8.86-9.31-22.66-9.32t-22.65,9.32q-8.87,9.32-8.86,25t8.86,25q8.85,9.31,22.65,9.32t22.66-9.32"/><path class="cls-2" d="M194,256.26a80.24,80.24,0,0,1-31.51-29.79q-11.38-19-11.39-42.67t11.39-42.66A80.24,80.24,0,0,1,194,111.35q20.13-10.81,45.2-10.81t45.08,10.81a81.33,81.33,0,0,1,31.51,29.79q11.51,19,11.5,42.66t-11.5,42.67a81.33,81.33,0,0,1-31.51,29.79q-20,10.82-45.08,10.81T194,256.26m71-27.49A47,47,0,0,0,283,210.49a53.78,53.78,0,0,0,6.55-26.69A53.77,53.77,0,0,0,283,157.12,47,47,0,0,0,265,138.84a53.86,53.86,0,0,0-51.52,0,47,47,0,0,0-18.06,18.28,53.77,53.77,0,0,0-6.55,26.68,53.78,53.78,0,0,0,6.55,26.69,47,47,0,0,0,18.06,18.28,53.86,53.86,0,0,0,51.52,0"/><path class="cls-3" d="M216.67,89.69q.68-31.81-15.65-56.22,25.33,20.37,21.47,56.28,34.32-66.91-62.57-86.56c18.74,23.68-16.55,76.51,56.75,86.5"/><path class="cls-3" d="M325.81,0q-98.49,0-85.34,89.06,11-49.29,53.76-64.9-32.61,25-46,67.42a145,145,0,0,0,27.28,2.93h.14c70.1-.05,54.82-71.38,86.65-92A288.88,288.88,0,0,0,326.07,0Z"/><path class="cls-1" d="M404.47,143.32a64.57,64.57,0,0,1,25.19-4.6v33.12c-4-.3-6.67-.46-8.05-.46q-15.42,0-24.16,8.63t-8.74,25.88v58.42H352.83V140.56H387.1v16.33a39.88,39.88,0,0,1,17.37-13.57"/><path class="cls-1" d="M535.23,258.33a36.78,36.78,0,0,1-13,5.86,65.8,65.8,0,0,1-16.21,2q-22.08,0-34.16-11.27t-12.07-33.12V170.92H440.7v-27.6h19.09V113.19h35.88v30.13h30.82v27.6H495.67V221.3q0,7.81,4,12.07t11.39,4.26a23.05,23.05,0,0,0,14.49-4.6Z"/><path class="cls-1" d="M575.37,258a60.7,60.7,0,0,1-24.27-22.65q-8.75-14.49-8.74-32.9t8.74-32.89a60.7,60.7,0,0,1,24.27-22.65q15.52-8.16,35.07-8.17t35,8.17a60.9,60.9,0,0,1,24.15,22.65,66.27,66.27,0,0,1,0,65.79A60.9,60.9,0,0,1,645.41,258q-15.42,8.17-35,8.17T575.37,258m57.73-30.59q8.85-9.31,8.85-25t-8.85-25q-8.86-9.31-22.66-9.32t-22.77,9.32q-9,9.32-9,25t9,25q9,9.31,22.77,9.32t22.66-9.32"/><polygon class="cls-1" points="755.35 215.78 738.1 232.8 738.1 264.31 702.22 264.31 702.22 93.64 738.1 93.64 738.1 190.25 790.54 140.56 833.32 140.56 781.8 193 837.92 264.31 794.45 264.31 755.35 215.78"/><path class="cls-1" d="M945.8,152.41q15.41,13.68,15.41,41.28v70.62H927.63V248.9q-10.12,17.25-37.73,17.25-14.25,0-24.72-4.83a36.89,36.89,0,0,1-16-13.34,34.7,34.7,0,0,1-5.52-19.32q0-17.25,13-27.15t40.14-9.89h28.52q0-11.73-7.13-18.05t-21.39-6.33a62.45,62.45,0,0,0-19.44,3.11,51.54,51.54,0,0,0-16.22,8.39l-12.88-25.07a77.93,77.93,0,0,1,24.27-11,109,109,0,0,1,29.1-3.91q28.74,0,44.16,13.69m-30.59,85.33a23.29,23.29,0,0,0,10.12-12.53V212.56H900.72q-22.1,0-22.09,14.49A12.9,12.9,0,0,0,884,238q5.4,4,14.84,4a31.24,31.24,0,0,0,16.33-4.26"/><rect class="cls-1" x="993.64" y="93.64" width="35.88" height="170.67"/><rect class="cls-1" x="1062.87" y="93.64" width="35.88" height="170.67"/><path class="cls-1" d="M1252.63,212.56H1159a29.15,29.15,0,0,0,12,18.17q9.43,6.68,23.46,6.67a47.45,47.45,0,0,0,17.14-2.88,41.5,41.5,0,0,0,13.92-9.08l19.09,20.7q-17.49,20-51.07,20-20.92,0-37-8.17a59.86,59.86,0,0,1-24.84-22.65q-8.75-14.49-8.74-32.89a63.25,63.25,0,0,1,8.63-32.78,60.33,60.33,0,0,1,23.69-22.77,73.31,73.31,0,0,1,66.58-.35A57.1,57.1,0,0,1,1244.92,169q8.4,14.61,8.4,33.93,0,.69-.69,9.66m-84-39.8q-8.28,6.9-10.12,18.86h61q-1.83-11.73-10.12-18.74t-20.24-7q-12.2,0-20.47,6.9"/></g></g></svg>