<?xml version="1.0" encoding="utf-8"?>
<!-- Generator: Adobe Illustrator 24.0.0, SVG Export Plug-In . SVG Version: 6.00 Build 0)  -->
<svg version="1.1" id="Layer_1" xmlns="http://www.w3.org/2000/svg" xmlns:xlink="http://www.w3.org/1999/xlink" x="0px" y="0px"
	 viewBox="0 0 63.7 17.6" style="enable-background:new 0 0 63.7 17.6;" xml:space="preserve">
<style type="text/css">
	.st0{fill:#139AD6;}
	.st1{fill:#263B80;}
	.st2{fill:#232C65;}
</style>
<g>
	<g>
		<path class="st0" d="M48.9,4.8h-3.4c-0.2,0-0.4,0.2-0.5,0.4L43.6,14c0,0.2,0.1,0.3,0.3,0.3h1.8c0.2,0,0.3-0.1,0.3-0.3l0.4-2.5
			c0-0.2,0.2-0.4,0.5-0.4H48c2.3,0,3.6-1.1,3.9-3.3c0.2-0.9,0-1.7-0.4-2.2C50.9,5.1,50,4.8,48.9,4.8 M49.3,8.1
			c-0.2,1.2-1.1,1.2-2,1.2h-0.6L47.1,7c0-0.1,0.1-0.2,0.3-0.2h0.2c0.6,0,1.2,0,1.5,0.4C49.3,7.3,49.3,7.6,49.3,8.1"/>
	</g>
	<g>
		<path class="st1" d="M24.4,4.8H21c-0.2,0-0.4,0.2-0.5,0.4L19.1,14c0,0.2,0.1,0.3,0.3,0.3H21c0.2,0,0.4-0.2,0.5-0.4l0.4-2.4
			c0-0.2,0.2-0.4,0.5-0.4h1.1c2.3,0,3.6-1.1,3.9-3.3c0.2-0.9,0-1.7-0.4-2.2C26.4,5.1,25.6,4.8,24.4,4.8 M24.8,8.1
			c-0.2,1.2-1.1,1.2-2,1.2h-0.5L22.7,7c0-0.1,0.1-0.2,0.3-0.2h0.2c0.6,0,1.2,0,1.5,0.4C24.8,7.3,24.9,7.6,24.8,8.1"/>
	</g>
	<g>
		<path class="st1" d="M34.7,8h-1.6c-0.1,0-0.3,0.1-0.3,0.2l-0.1,0.5l-0.1-0.2c-0.4-0.5-1.1-0.7-1.9-0.7c-1.8,0-3.4,1.4-3.7,3.3
			c-0.2,1,0.1,1.9,0.6,2.5s1.2,0.8,2.1,0.8c1.5,0,2.3-0.9,2.3-0.9L31.9,14c0,0.2,0.1,0.3,0.3,0.3h1.5c0.2,0,0.4-0.2,0.5-0.4l0.9-5.6
			C35,8.2,34.8,8,34.7,8 M32.4,11.2c-0.2,0.9-0.9,1.6-1.9,1.6c-0.5,0-0.9-0.2-1.1-0.4c-0.2-0.3-0.3-0.7-0.3-1.2
			c0.1-0.9,0.9-1.6,1.8-1.6c0.5,0,0.8,0.2,1.1,0.4C32.3,10.3,32.4,10.8,32.4,11.2"/>
	</g>
	<g>
		<path class="st0" d="M59.1,8h-1.6c-0.1,0-0.3,0.1-0.3,0.2l-0.1,0.5L57,8.5c-0.4-0.5-1.1-0.7-1.9-0.7c-1.8,0-3.4,1.4-3.7,3.3
			c-0.2,1,0.1,1.9,0.6,2.5s1.2,0.8,2.1,0.8c1.5,0,2.3-0.9,2.3-0.9L56.3,14c0,0.2,0.1,0.3,0.3,0.3h1.5c0.2,0,0.4-0.2,0.5-0.4l0.9-5.6
			C59.4,8.2,59.3,8,59.1,8 M56.8,11.2c-0.2,0.9-0.9,1.6-1.9,1.6c-0.5,0-0.9-0.2-1.1-0.4c-0.2-0.3-0.3-0.7-0.3-1.2
			c0.1-0.9,0.9-1.6,1.8-1.6c0.5,0,0.8,0.2,1.1,0.4C56.8,10.3,56.9,10.8,56.8,11.2"/>
	</g>
	<g>
		<g>
			<path class="st1" d="M43.4,8h-1.7c-0.2,0-0.3,0.1-0.4,0.2l-2.2,3.4l-1-3.2c-0.1-0.2-0.2-0.3-0.5-0.3H36c-0.2,0-0.3,0.2-0.3,0.4
				l1.8,5.3l-1.7,2.4c-0.1,0.2,0,0.5,0.2,0.5h1.6c0.2,0,0.3-0.1,0.4-0.2l5.5-7.9C43.8,8.3,43.6,8,43.4,8"/>
		</g>
		<g>
			<path class="st0" d="M61,5.1l-1.4,9c0,0.2,0.1,0.3,0.3,0.3h1.4c0.2,0,0.4-0.2,0.5-0.4l1.4-8.8c0-0.2-0.1-0.3-0.3-0.3h-1.6
				C61.2,4.8,61.1,4.9,61,5.1"/>
		</g>
		<g>
			<path class="st1" d="M11.7,1.8C11,1,9.7,0.6,7.9,0.6h-5c-0.3,0-0.6,0.3-0.7,0.6l-2,13.1c0,0.3,0.2,0.5,0.4,0.5h3.1l0.8-4.9v0.2
				c0.1-0.3,0.4-0.6,0.7-0.6h1.5c2.9,0,5.1-1.2,5.8-4.5c0-0.1,0-0.2,0-0.3c-0.1,0-0.1,0,0,0C12.6,3.4,12.4,2.6,11.7,1.8"/>
		</g>
	</g>
	<g>
		<path class="st0" d="M12.4,4.7L12.4,4.7c0,0.1,0,0.2,0,0.3c-0.7,3.4-2.9,4.5-5.8,4.5H5.1c-0.3,0-0.6,0.3-0.7,0.6l-1,6.1
			c0,0.2,0.1,0.4,0.4,0.4h2.6c0.3,0,0.6-0.2,0.6-0.5V16l0.5-3.1v-0.2c0-0.3,0.3-0.5,0.6-0.5h0.4c2.5,0,4.5-1,5-4
			c0.2-1.2,0.1-2.3-0.5-3C12.9,5,12.7,4.8,12.4,4.7"/>
	</g>
	<g>
		<path class="st2" d="M11.7,4.4c-0.1,0-0.2-0.1-0.3-0.1s-0.2,0-0.3-0.1c-0.4-0.1-0.8-0.1-1.3-0.1H5.9c-0.1,0-0.2,0-0.3,0.1
			C5.4,4.3,5.3,4.5,5.3,4.7L4.5,9.9v0.2c0.1-0.3,0.4-0.6,0.7-0.6h1.5c2.9,0,5.1-1.2,5.8-4.5c0-0.1,0-0.2,0.1-0.3
			c-0.2-0.1-0.3-0.2-0.5-0.2C11.8,4.4,11.8,4.4,11.7,4.4"/>
	</g>
</g>
</svg>
