<svg xmlns="http://www.w3.org/2000/svg" viewBox="0 0 95.92 95.92"><defs><style>.cls-1{fill:#dff0f7;}.cls-2{fill:none;}.cls-2,.cls-3{stroke:#444b56;stroke-linecap:round;stroke-linejoin:round;stroke-width:4.5px;}.cls-3{fill:#fbe295;}</style></defs><title>1_1</title><g id="Layer_2" data-name="Layer 2"><g id="Layer_5" data-name="Layer 5"><circle class="cls-1" cx="48.07" cy="47.93" r="36.9" transform="translate(-0.66 0.67) rotate(-0.8)"/><path class="cls-2" d="M84.75,48A36.81,36.81,0,0,1,63.68,81.24"/><path class="cls-2" d="M48,11.17A36.82,36.82,0,0,1,80.45,30.68"/><path class="cls-2" d="M12.69,37.49a36.9,36.9,0,0,1,19-22.56"/><path class="cls-2" d="M48,84.75A36.77,36.77,0,0,1,11.17,48"/><circle class="cls-2" cx="47.96" cy="47.96" r="45.71"/><path class="cls-3" d="M60.14,65.52c2.39-1.46,4.81-4.13,5.34-6.93.88-4.67-1.81-10-6.8-8-2,.83-3.38,2.88-5.77,2.88s-3.11-1.19-4.43-2.9c-1.64-2.13-2.76-6.06-5.52-7.1-3.16-1.2-8.52,0-11,1.85-3.66,2.7-5.41,8.68-2.69,13s8.42,8.38,13.11,9.32C54.26,70.05,60.14,65.52,60.14,65.52Z"/><path class="cls-2" d="M39.31,46.36a20.15,20.15,0,0,1-1.26-9.74"/><path class="cls-2" d="M33.09,48.72a33.33,33.33,0,0,1-6.72-5.55"/><path class="cls-2" d="M31.74,56.45s-5.2,5.44-6,6"/><line class="cls-2" x1="37.29" y1="62.49" x2="34.77" y2="70.73"/><path class="cls-2" d="M44.09,64.34c0,2.17.76,8.91.76,8.91"/><path class="cls-2" d="M53.42,64.34s4.06,6.26,4.88,7.9"/><path class="cls-2" d="M59.81,62.66S67.11,65.43,68,66"/><path class="cls-2" d="M62.66,58.63s7.18-4.72,7.56-5.38"/><line class="cls-2" x1="61.15" y1="53.59" x2="63.67" y2="44.85"/><path class="cls-2" d="M45,50.65s.92-7.44,1.79-9.16"/><line class="cls-2" x1="53.59" y1="56.45" x2="54.26" y2="49.22"/><path class="cls-2" d="M51.66,23.6s5.43-.25,6.64,4"/><path class="cls-2" d="M37.26,23.85a2,2,0,0,1,.51,1.52"/><path class="cls-2" d="M59.49,37.49A13.31,13.31,0,0,1,65,36"/><path class="cls-2" d="M72.88,43.05c.74-.85,1.52-1.68,2.27-2.53"/></g></g></svg>