<svg xmlns="http://www.w3.org/2000/svg" viewBox="0 0 90.36 96.4"><defs><style>.cls-1{fill:#4d9df4;}.cls-2{fill:#fff;}.cls-3{fill:#c2e5f9;}.cls-4{fill:none;stroke:#444b56;stroke-linecap:round;stroke-linejoin:round;stroke-width:4.5px;}</style></defs><title>2_1</title><g id="Layer_2" data-name="Layer 2"><g id="Layer_5" data-name="Layer 5"><path class="cls-1" d="M45.52,21.37a21.76,21.76,0,0,1,4.32-11.28H45.45a.9.9,0,0,1-.81-.5,8.24,8.24,0,0,0-14.82,0,.89.89,0,0,1-.81.5H20.12V21.16H45A.84.84,0,0,1,45.52,21.37Z"/><path class="cls-2" d="M67.3,3.15A20.06,20.06,0,1,0,87.36,23.21,20.09,20.09,0,0,0,67.3,3.15Z"/><path class="cls-3" d="M45.43,23.21c0-.14,0-.27,0-.41A.81.81,0,0,1,45,23H19.22a.9.9,0,0,1-.9-.9V15.24H3.3v78H67.61A6.4,6.4,0,0,0,74,86.85V44a21.51,21.51,0,0,1-6.7,1.06A21.89,21.89,0,0,1,45.43,23.21Z"/><path class="cls-4" d="M50,9.2H45.3a9.13,9.13,0,0,0-16.43,0h-9.8V22.06H44.83"/><path class="cls-4" d="M19.07,14.34H2.25V94.15H67.47a7.32,7.32,0,0,0,7.29-7.29V43.68"/><polyline class="cls-4" points="13.98 46.5 17.09 51.01 27.46 41.36"/><polyline class="cls-4" points="13.98 60.66 17.09 65.17 27.46 55.52"/><polyline class="cls-4" points="13.98 74.83 17.09 79.33 27.46 69.67"/><line class="cls-4" x1="36.14" y1="51" x2="61.63" y2="51"/><line class="cls-4" x1="36.14" y1="63.88" x2="61.63" y2="63.88"/><line class="cls-4" x1="36.14" y1="76.75" x2="61.63" y2="76.75"/><line class="cls-4" x1="67.15" y1="13.41" x2="67.15" y2="33.01"/><line class="cls-4" x1="76.94" y1="23.21" x2="57.36" y2="23.21"/><path class="cls-4" d="M88.11,23.21a21,21,0,1,1-21-21A21,21,0,0,1,88.11,23.21Z"/></g></g></svg>