<svg xmlns="http://www.w3.org/2000/svg" viewBox="0 0 96.19 85.93"><defs><style>.cls-1{fill:#b7d9f7;}.cls-1,.cls-2,.cls-3{stroke:#444b56;}.cls-1,.cls-2,.cls-3,.cls-4{stroke-linecap:round;stroke-linejoin:round;stroke-width:4.5px;}.cls-2,.cls-4{fill:none;}.cls-3{fill:#4d9df4;}.cls-4{stroke:#fff;}</style></defs><title>3_1</title><g id="Layer_2" data-name="Layer 2"><g id="Layer_5" data-name="Layer 5"><path class="cls-1" d="M2.25,2.25V73.68H87.11a6.85,6.85,0,0,0,6.83-6.84V2.25Z"/><line class="cls-2" x1="16.84" y1="73.68" x2="16.84" y2="83.68"/><line class="cls-2" x1="79.34" y1="73.68" x2="79.34" y2="83.68"/><rect class="cls-3" x="12" y="10.97" width="72.5" height="40.9"/><path class="cls-2" d="M18.3,63.07a1.71,1.71,0,1,1-1.71-1.71A1.7,1.7,0,0,1,18.3,63.07Z"/><path class="cls-2" d="M30.17,63.07a1.71,1.71,0,1,1-1.71-1.71A1.71,1.71,0,0,1,30.17,63.07Z"/><path class="cls-2" d="M42,63.07a1.71,1.71,0,1,1-1.71-1.71A1.7,1.7,0,0,1,42,63.07Z"/><line class="cls-2" x1="67.67" y1="63" x2="69.53" y2="63"/><line class="cls-2" x1="78.58" y1="63" x2="84.26" y2="63"/><polyline class="cls-4" points="22.77 34.56 38.76 34.56 44.49 26.7 48.77 41.1 54.3 21.73 58.56 37.93 63.39 29.67 65.44 34.56 73.42 34.56"/></g></g></svg>