<svg xmlns="http://www.w3.org/2000/svg" viewBox="0 0 95.78 78.01"><defs><style>.cls-1{fill:#f2767a;}.cls-2{fill:none;stroke:#444b56;stroke-linecap:round;stroke-linejoin:round;stroke-width:4.5px;}</style></defs><title>4_1</title><g id="Layer_2" data-name="Layer 2"><g id="Layer_5" data-name="Layer 5"><path class="cls-1" d="M32.41,25.82a2.7,2.7,0,0,1,4.63.44l3,8.12,4.13-13.3A4.68,4.68,0,0,1,48,18.38c1.63-.19,3.84,1.62,4.23,2.72L56.9,34.77l3.63-3.44a2.7,2.7,0,0,1,4.34.91L67,37.31H90.9c.06-.11.13-.22.19-.34,1.58-3,2.85-6.1,2.77-9.52a26.67,26.67,0,0,0-10-20.83A21.33,21.33,0,0,0,55.45,8.1a24.76,24.76,0,0,0-4.64,6.7c-.29-.56-.48-.91-.66-1.27A21.06,21.06,0,0,0,27.53,2.22,22.16,22.16,0,0,0,12.07,13.06c-4.75,7.79-6.13,15.85-1.39,22.45H25.36Z"/><path class="cls-1" d="M62.72,41.06l-1.31-3.12-3.82,3.62a2.7,2.7,0,0,1-4.4-1.07l-5-14.17L43.06,42.61a2.71,2.71,0,0,1-2.4,1.88h-.18A2.7,2.7,0,0,1,38,42.94l-3.95-8.45L28.92,41.6a2.7,2.7,0,0,1-2.18,1.11H14.19a77.25,77.25,0,0,0,6.49,7.85A198.05,198.05,0,0,0,50.21,75.72c.67.48,1,.13,1.43-.18A203.3,203.3,0,0,0,78.91,52.69a85.44,85.44,0,0,0,8.58-10H65.21A2.7,2.7,0,0,1,62.72,41.06Z"/><path class="cls-2" d="M78.69,52.68A201.45,201.45,0,0,1,51.63,75.34c-.43.31-.74.66-1.42.18A206.37,206.37,0,0,1,24.27,54"/><path class="cls-2" d="M9,32.69c-2-6.65-.4-13.08,3.42-19.34A22,22,0,0,1,27.71,2.6,20.88,20.88,0,0,1,50.15,13.82c.18.36.36.7.66,1.26a24.75,24.75,0,0,1,4.6-6.65A21.18,21.18,0,0,1,83.6,7a26.52,26.52,0,0,1,9.93,20.67c.08,3.4-1.19,6.49-2.76,9.45a50.94,50.94,0,0,1-4.39,6.83"/><polyline class="cls-2" points="2.25 44.35 26.84 44.35 34.7 33.55 40.58 53.34 48.18 24.48 54.04 47.54 60.69 37.63 63.51 44.35 86 44.35"/></g></g></svg>