<svg xmlns="http://www.w3.org/2000/svg" viewBox="0 0 96.13 96.13"><defs><style>.cls-1{fill:#e7dfdd;}.cls-1,.cls-2,.cls-3,.cls-4{stroke:#444b56;stroke-linecap:round;stroke-linejoin:round;stroke-width:4.5px;}.cls-2{fill:#fff;}.cls-3,.cls-4{fill:none;}.cls-4{stroke-dasharray:0.3 11.83;}</style></defs><title>5</title><g id="Layer_2" data-name="Layer 2"><g id="Layer_5" data-name="Layer 5"><path class="cls-1" d="M48.07,75.33,34.21,89.19a16,16,0,0,1-22.62,0L6.94,84.55a16,16,0,0,1,0-22.62L20.8,48.07Z"/><path class="cls-1" d="M75.33,48.06,89.2,34.2a16,16,0,0,0,0-22.61L84.55,6.94a16,16,0,0,0-22.62,0L48.07,20.8Z"/><path class="cls-2" d="M61.93,89.19a16,16,0,0,0,22.62,0l4.65-4.64a16,16,0,0,0,0-22.62l-55-55a16,16,0,0,0-22.62,0L6.94,11.58a16,16,0,0,0,0,22.62Z"/><line class="cls-3" x1="35.21" y1="35.21" x2="35.31" y2="35.31"/><line class="cls-4" x1="43.68" y1="43.67" x2="56.64" y2="56.64"/><line class="cls-3" x1="60.82" y1="60.82" x2="60.92" y2="60.92"/><line class="cls-3" x1="28.66" y1="41.75" x2="28.76" y2="41.85"/><line class="cls-4" x1="37.13" y1="50.22" x2="50.09" y2="63.18"/><line class="cls-3" x1="54.27" y1="67.37" x2="54.38" y2="67.47"/><line class="cls-3" x1="41.76" y1="28.66" x2="41.86" y2="28.76"/><line class="cls-4" x1="50.22" y1="37.13" x2="63.19" y2="50.09"/><line class="cls-3" x1="67.37" y1="54.27" x2="67.47" y2="54.37"/></g></g></svg>