<svg xmlns="http://www.w3.org/2000/svg" viewBox="0 0 42.6 37.1"><defs><style>.cls-1{fill:#d70010;}</style></defs><title>favicon</title><g id="Layer_2" data-name="Layer 2"><g id="Layer_1-2" data-name="Layer 1"><path class="cls-1" d="M0,36.6c0-.5,20.9-3.5,18-19.9C17.4,13.2,5.4,24.6,5,24S13.5,13.4,21.3,9.1C30.6,4,41.7-.4,41.9,0s-11.1,5.8-15,10.7a17.8,17.8,0,0,0-4,9.6s6.8-7,12-5.6S28,29.9,33.3,34c2.9,2.3,9.1-2.4,9.3-1.9s-7.3,6-12.1,4.9c-6.4-1.6.4-13.2-.5-15.5s-8.6,8.4-15.9,12C5,37.9,0,37,0,36.6Z"/><path class="cls-1" d="M20.8,2.8a4.3,4.3,0,0,1-1.1,5.8,4.1,4.1,0,0,1-5.5-1.8A4.3,4.3,0,0,1,15.3,1,4.1,4.1,0,0,1,20.8,2.8Z"/></g></g></svg>