<svg xmlns="http://www.w3.org/2000/svg" xmlns:xlink="http://www.w3.org/1999/xlink" viewBox="0 0 2500 2000"><defs><style>.cls-1{fill:none;}.cls-2{clip-path:url(#clip-path);}.cls-3{fill:#cacaca;}.cls-4{fill:#ede8e7;}.cls-5{font-size:74.68px;font-family:Roboto-Regular, Roboto;}.cls-6{letter-spacing:-0.01em;}.cls-7{letter-spacing:-0.01em;}.cls-8{font-size:55.15px;fill:#726676;font-family:Roboto-Medium, Roboto;font-weight:500;}.cls-9{letter-spacing:-0.01em;}.cls-10{font-size:200px;}.cls-10,.cls-11{fill:#f55c47;}</style><clipPath id="clip-path"><circle class="cls-1" cx="2009.23" cy="491.48" r="121.91"/></clipPath></defs><title>4</title><g id="Layer_4" data-name="Layer 4"><g class="cls-2"><image width="704" height="885" transform="translate(1859.41 313.7) scale(0.41)" xlink:href="../../../content/advantages-pic-3.2.png"/></g><path class="cls-3" d="M500.53,139.72h1270.8a49.75,49.75,0,0,1,49.75,49.75v376a49.75,49.75,0,0,1-49.75,49.75h-1221a49.75,49.75,0,0,1-49.75-49.75V139.72a0,0,0,0,1,0,0Z" transform="translate(2321.61 754.92) rotate(-180)"/><path class="cls-4" d="M500.53,123.12h1270.8a49.75,49.75,0,0,1,49.75,49.75v376a49.75,49.75,0,0,1-49.75,49.75h-1221a49.75,49.75,0,0,1-49.75-49.75V123.12a0,0,0,0,1,0,0Z" transform="translate(2321.61 721.7) rotate(-180)"/><text class="cls-5" transform="translate(641.6 259.54)">I wo<tspan class="cls-6" x="137.52" y="0">k</tspan><tspan x="174.64" y="0">e up with my typical UTI </tspan><tspan x="0" y="114.9">symp</tspan><tspan class="cls-6" x="181.2" y="114.9">t</tspan><tspan x="204.87" y="114.9">oms. I seem </tspan><tspan class="cls-6" x="629.96" y="114.9">t</tspan><tspan x="653.63" y="114.9">o get them </tspan><tspan x="0" y="229.8">all the time. Can </tspan><tspan class="cls-7" x="553.57" y="229.8">y</tspan><tspan x="588.36" y="229.8">ou help?</tspan></text><text class="cls-8" transform="translate(1632.68 713.45)">1:00PM</text><text class="cls-5" transform="translate(601.29 1402.46)">A doc<tspan class="cls-6" x="191.01" y="0">t</tspan><tspan x="214.68" y="0">or will be with </tspan><tspan class="cls-7" x="688.24" y="0">y</tspan><tspan x="723.03" y="0">ou </tspan><tspan x="120.72" y="89.62">in app</tspan><tspan class="cls-6" x="322.97" y="89.62">r</tspan><tspan class="cls-9" x="347.51" y="89.62">o</tspan><tspan x="389.34" y="89.62">ximately:</tspan><tspan class="cls-10"><tspan x="103.84" y="329.62">2 mins</tspan></tspan></text><path class="cls-11" d="M880.87,1026.06l69.51,65.77,9.94,9.41c4.6,4.35,12.42,4.84,17,0l51.19-54.44L1110.09,960l18.75-20c10.58-11.25-6.36-28.26-17-17l-51.18,54.44-81.61,86.79-18.76,20h17l-69.5-65.77-9.95-9.41c-11.21-10.62-28.21,6.32-17,17Z"/></g></svg>