<svg xmlns="http://www.w3.org/2000/svg" xmlns:xlink="http://www.w3.org/1999/xlink" viewBox="0 0 2500 2000"><defs><style>.cls-1{fill:none;}.cls-2{fill:#cacaca;}.cls-3{fill:#ede8e7;}.cls-4{clip-path:url(#clip-path);}.cls-5{clip-path:url(#clip-path-2);}.cls-6{font-size:74.68px;font-family:Roboto-Regular, Roboto;}.cls-7{letter-spacing:-0.01em;}.cls-8{letter-spacing:-0.01em;}.cls-9{font-size:55.15px;fill:#726676;font-family:Roboto-Medium, Roboto;font-weight:500;}.cls-10{fill:#cbe9e2;}.cls-11{letter-spacing:0.01em;}.cls-12{letter-spacing:-0.01em;}.cls-13{letter-spacing:-0.01em;}.cls-14{letter-spacing:-0.01em;}.cls-15{letter-spacing:-0.01em;}.cls-16{letter-spacing:-0.08em;}.cls-17{clip-path:url(#clip-path-3);}</style><clipPath id="clip-path"><circle class="cls-1" cx="2208.41" cy="610.79" r="121.91"/></clipPath><clipPath id="clip-path-2"><circle class="cls-1" cx="2208.41" cy="1678.79" r="121.91"/></clipPath><clipPath id="clip-path-3"><circle class="cls-1" cx="275.25" cy="1151.99" r="121.77"/></clipPath></defs><title>5</title><g id="Layer_5" data-name="Layer 5"><path class="cls-2" d="M1632.23,1568.37h349.25a49.75,49.75,0,0,1,49.75,49.75v111.14a49.75,49.75,0,0,1-49.75,49.75H1682a49.75,49.75,0,0,1-49.75-49.75V1568.37A0,0,0,0,1,1632.23,1568.37Z" transform="translate(3663.47 3347.38) rotate(-180)"/><path class="cls-3" d="M1632.23,1561h349.25a49.75,49.75,0,0,1,49.75,49.75V1721.9a49.75,49.75,0,0,1-49.75,49.75H1682a49.75,49.75,0,0,1-49.75-49.75V1561A0,0,0,0,1,1632.23,1561Z" transform="translate(3663.47 3332.66) rotate(-180)"/><circle class="cls-2" cx="1835.23" cy="1670.01" r="28.5"/><circle class="cls-2" cx="1749.23" cy="1670.01" r="28.5"/><circle class="cls-2" cx="1921.23" cy="1670.01" r="28.5"/><g class="cls-4"><image width="704" height="885" transform="translate(2058.59 433.01) scale(0.41)" xlink:href="../../../content/advantages-pic-3.2.png"/></g><g class="cls-5"><image width="740" height="797" transform="translate(2045.27 1512.46) scale(0.42)" xlink:href="../../../content/advantages-pic-1.3.png"/></g><path class="cls-2" d="M699.71,259h1270.8a49.75,49.75,0,0,1,49.75,49.75v376a49.75,49.75,0,0,1-49.75,49.75h-1221a49.75,49.75,0,0,1-49.75-49.75V259a0,0,0,0,1,0,0Z" transform="translate(2719.97 993.55) rotate(-180)"/><path class="cls-3" d="M699.71,242.43h1270.8a49.75,49.75,0,0,1,49.75,49.75v376a49.75,49.75,0,0,1-49.75,49.75h-1221a49.75,49.75,0,0,1-49.75-49.75V242.43a0,0,0,0,1,0,0Z" transform="translate(2719.97 960.33) rotate(-180)"/><text class="cls-6" transform="translate(840.78 378.86)">I wo<tspan class="cls-7" x="137.52" y="0">k</tspan><tspan x="174.64" y="0">e up with my typical UTI </tspan><tspan x="0" y="114.9">symp</tspan><tspan class="cls-7" x="181.2" y="114.9">t</tspan><tspan x="204.87" y="114.9">oms. I seem </tspan><tspan class="cls-7" x="629.96" y="114.9">t</tspan><tspan x="653.63" y="114.9">o get them </tspan><tspan x="0" y="229.8">all the time. Can </tspan><tspan class="cls-8" x="553.57" y="229.8">y</tspan><tspan x="588.36" y="229.8">ou help?</tspan></text><text class="cls-9" transform="translate(1831.86 832.76)">1:00PM</text><path class="cls-2" d="M506.06,910.54h1408.5a49.75,49.75,0,0,1,49.75,49.75V1226a49.75,49.75,0,0,1-49.75,49.75H456.31a0,0,0,0,1,0,0V960.29a49.75,49.75,0,0,1,49.75-49.75Z"/><path class="cls-10" d="M506.06,897.78h1408.5a49.75,49.75,0,0,1,49.75,49.75v265.74a49.75,49.75,0,0,1-49.75,49.75H456.31a0,0,0,0,1,0,0V947.53a49.75,49.75,0,0,1,49.75-49.75Z"/><text class="cls-6" transform="translate(547.96 1040.84)">Sor<tspan class="cls-11" x="112.17" y="0">r</tspan><tspan x="138.1" y="0">y </tspan><tspan class="cls-8" x="191.93" y="0">y</tspan><tspan x="226.72" y="0">ou’</tspan><tspan class="cls-12" x="325.4" y="0">r</tspan><tspan x="349.97" y="0">e not </tspan><tspan class="cls-13" x="534.72" y="0">f</tspan><tspan x="559.77" y="0">eeling well. Can </tspan><tspan class="cls-8" x="1095.76" y="0">y</tspan><tspan x="1130.55" y="0">ou </tspan><tspan x="0" y="114.9">tell me mo</tspan><tspan class="cls-12" x="350.26" y="114.9">r</tspan><tspan x="374.84" y="114.9">e about </tspan><tspan class="cls-14" x="642.07" y="114.9">y</tspan><tspan x="676.86" y="114.9">our symp</tspan><tspan class="cls-15" x="985.59" y="114.9">t</tspan><tspan x="1009.26" y="114.9">oms?</tspan></text><text class="cls-9" transform="translate(455.86 1361.76)">1:02PM</text><text class="cls-9" transform="translate(737.86 1361.76)">D<tspan class="cls-16" x="36.25" y="0">r</tspan><tspan x="51.03" y="0">. Smith</tspan></text><g class="cls-17"><image width="362" height="362" transform="translate(-88.56 971.97) scale(1.41 1.41)" xlink:href="../../../content/team-ava-5.png"/></g></g></svg>