<svg xmlns="http://www.w3.org/2000/svg" xmlns:xlink="http://www.w3.org/1999/xlink" viewBox="0 0 2500 2000"><defs><style>.cls-1,.cls-11{fill:none;}.cls-2{fill:#4a1a4d;}.cls-3{font-size:58.95px;}.cls-10,.cls-15,.cls-3{fill:#fff;}.cls-15,.cls-19,.cls-3,.cls-9{font-family:Roboto-Regular, Roboto;}.cls-4{fill:#cacaca;}.cls-5{fill:#00aeb2;}.cls-6{fill:#e9e2e0;}.cls-15,.cls-7{font-size:90.69px;}.cls-13,.cls-7{fill:#65476a;font-family:Roboto-Medium, Roboto;font-weight:500;}.cls-8{letter-spacing:0.01em;}.cls-9{font-size:63.48px;fill:#6b6b6b;}.cls-11{stroke:#fff;stroke-linecap:round;stroke-linejoin:round;stroke-width:5px;}.cls-12{fill:#6ad2c2;}.cls-13{font-size:54.41px;}.cls-14{letter-spacing:-0.01em;}.cls-16{letter-spacing:-0.03em;}.cls-17{letter-spacing:-0.01em;}.cls-18{fill:#cbe9e2;}.cls-19{font-size:67.73px;}.cls-20{letter-spacing:-0.01em;}.cls-21{letter-spacing:-0.01em;}.cls-22{letter-spacing:-0.01em;}.cls-23{letter-spacing:-0.01em;}.cls-24{clip-path:url(#clip-path);}</style><clipPath id="clip-path"><circle class="cls-1" cx="401.08" cy="275.99" r="110.43"/></clipPath></defs><title>6</title><g id="Layer_6" data-name="Layer 6"><rect class="cls-2" x="461.06" y="1727.9" width="1591.54" height="218.55" rx="105.5"/><text class="cls-3" transform="translate(1163.96 1854.4)">Submit</text><rect class="cls-4" x="462.39" y="485.63" width="1588.63" height="436.07" rx="82.28"/><path class="cls-5" d="M1976.53,469.6H824c-199.63,0-361.46,161.83-361.46,361.45l55.3,2.73,1458.71,71.89a74.62,74.62,0,0,0,74.62-74.62V544.21A74.61,74.61,0,0,0,1976.53,469.6Z"/><path class="cls-6" d="M1711.41,469.37H537.27A74.62,74.62,0,0,0,462.65,544V830.83a74.61,74.61,0,0,0,74.62,74.61h1439.4a74.61,74.61,0,0,0,74.61-74.61V811.75Z"/><text class="cls-7" transform="translate(601.02 787.9)">Urina<tspan class="cls-8" x="217.42" y="0">r</tspan><tspan x="249.79" y="0">y tract infection</tspan></text><text class="cls-9" transform="translate(601.02 629.47)">Diagnosis:</text><path class="cls-10" d="M1962.5,592.54c12.36,0,23.2-10.43,28.29-27.23a4.72,4.72,0,0,0-9-2.74c-3.78,12.47-11.34,20.52-19.25,20.52-7.62,0-15-7.62-18.91-19.41a4.73,4.73,0,1,0-9,3C1939.86,582.61,1950.54,592.54,1962.5,592.54Z"/><path class="cls-11" d="M1987.92,561.41l4.65-19.87a13.28,13.28,0,0,0-2.28-11l-5.16-6.93"/><circle class="cls-11" cx="1979.74" cy="519.84" r="5.32"/><path class="cls-11" d="M1937.06,561.41l-4.66-19.87a13.32,13.32,0,0,1,2.28-11l5.17-6.93"/><circle class="cls-11" cx="1945.23" cy="519.84" r="5.32"/><path class="cls-11" d="M1927.27,631.12h0a17.6,17.6,0,0,0,17.61,17.61h.19a17.61,17.61,0,0,0,17.62-17.61v-42.2"/><circle class="cls-11" cx="1927.27" cy="627" r="4.45"/><rect class="cls-4" x="459.67" y="1029.04" width="1588.63" height="587.32" rx="82.28"/><path class="cls-12" d="M1973.81,1014.7H821.26c-199.63,0-361.46,161.83-361.46,361.46l18.9,2.82,1569.72,94.45V1089.31A74.61,74.61,0,0,0,1973.81,1014.7Z"/><path class="cls-6" d="M1710.5,1014.4H534.55c-41.21,0-74.62,45-74.62,100.49v386.34c0,55.5,33.41,100.49,74.62,100.49H1974c41.2,0,74.61-45,74.61-100.49V1348.57Z"/><text class="cls-7" transform="translate(598.3 1354.69)">Macrobid</text><text class="cls-13" transform="translate(598.3 1505.7)">100mg, 2 times daily for 7 d<tspan class="cls-14" x="679.56" y="0">a</tspan><tspan x="708.74" y="0">ys</tspan></text><text class="cls-15" transform="translate(1896.92 1159.54)">Px</text><text class="cls-9" transform="translate(598.3 1174.5)"><tspan class="cls-16">Y</tspan><tspan x="36.11" y="0">our p</tspan><tspan class="cls-17" x="180.12" y="0">r</tspan><tspan x="201.01" y="0">escription for:</tspan></text><path class="cls-4" d="M615,57H1669.87a49.75,49.75,0,0,1,49.75,49.75V338.5a49.75,49.75,0,0,1-49.75,49.75H565.27a0,0,0,0,1,0,0V106.77A49.75,49.75,0,0,1,615,57Z"/><path class="cls-18" d="M615,45.45H1669.87a49.75,49.75,0,0,1,49.75,49.75V326.93a49.75,49.75,0,0,1-49.75,49.75H565.27a0,0,0,0,1,0,0V95.21A49.75,49.75,0,0,1,615,45.45Z"/><text class="cls-19" transform="translate(648.38 175.19)">Definitely a UTI. Gi<tspan class="cls-20" x="550.83" y="0">v</tspan><tspan x="583.2" y="0">e me a minute </tspan><tspan class="cls-21" x="0" y="104.2">t</tspan><tspan x="21.46" y="104.2">o write </tspan><tspan class="cls-22" x="241.88" y="104.2">y</tspan><tspan x="273.43" y="104.2">ou a p</tspan><tspan class="cls-23" x="457.76" y="104.2">r</tspan><tspan x="480.05" y="104.2">escription.</tspan></text><g class="cls-24"><image width="246" height="246" transform="translate(71.14 112.73) scale(1.88 1.88)" xlink:href="../../../content/ava-3.png"/></g></g></svg>