<svg xmlns="http://www.w3.org/2000/svg" viewBox="0 0 2500 2000"><defs><style>.cls-1,.cls-2{fill:none;stroke:#e9e2e0;stroke-miterlimit:10;}.cls-1{stroke-width:10px;}.cls-2{stroke-width:5px;}.cls-3{fill:#e9e2e0;}.cls-4{fill:#4a1a4d;}.cls-5{font-size:78.12px;fill:#fff;font-family:Roboto-Medium, Roboto;font-weight:500;}.cls-6{letter-spacing:-0.05em;}.cls-7{font-size:66.4px;font-family:Roboto-Regular, Roboto;font-weight:400;}.cls-8{letter-spacing:-0.01em;}.cls-9{fill:#f55c47;}</style></defs><title>7</title><g id="Layer_7" data-name="Layer 7"><g id="Body"><path class="cls-1" d="M1563.82,1922.14h-683a118.1,118.1,0,0,1-118-118V223A118.09,118.09,0,0,1,880.83,105h683a118.08,118.08,0,0,1,118,118V1804.18A118.09,118.09,0,0,1,1563.82,1922.14Zm-683-1814.56A115.5,115.5,0,0,0,765.46,223V1804.18a115.5,115.5,0,0,0,115.37,115.38h683a115.5,115.5,0,0,0,115.37-115.38V223a115.5,115.5,0,0,0-115.37-115.37Z"/></g><path class="cls-2" d="M1330.21,187.88A12.79,12.79,0,1,1,1343,175.1,12.8,12.8,0,0,1,1330.21,187.88Zm0-23a10.2,10.2,0,1,0,10.2,10.2A10.21,10.21,0,0,0,1330.21,164.9Z"/><path class="cls-3" d="M1363.2,1843.51H1081.45a5.82,5.82,0,0,1-5.81-5.8h0a5.82,5.82,0,0,1,5.81-5.81H1363.2a5.83,5.83,0,0,1,5.81,5.81h0A5.83,5.83,0,0,1,1363.2,1843.51Z"/><path class="cls-3" d="M1289.42,181.06H1155.87c-1.52,0-2.75-2.61-2.75-5.81h0c0-3.19,1.23-5.8,2.75-5.8h133.55c1.52,0,2.75,2.61,2.75,5.8h0C1292.17,178.45,1290.94,181.06,1289.42,181.06Z"/><rect class="cls-4" x="441.12" y="648.73" width="1559.33" height="745.29" rx="99.13"/><text class="cls-5" transform="translate(568.17 1058.75)"><tspan class="cls-6">Y</tspan><tspan x="44.55" y="0">ou’re all set!</tspan><tspan class="cls-7"><tspan x="0" y="101.56">Lo</tspan><tspan class="cls-8" x="73.6" y="101.56">r</tspan><tspan x="95.46" y="101.56">em ipsum dolor sit amet, consectetur </tspan><tspan x="0" y="203.12">adipiscing elit. Donec sollicitudin nullt.</tspan></tspan></text><path class="cls-9" d="M618,834.06a27.17,27.17,0,0,1,10.58,10.63,35.07,35.07,0,0,1,0,31.91A27.24,27.24,0,0,1,618,887.23,30.06,30.06,0,0,1,603,891q-11.28,0-17.76-7.12V911.4h-17.1V831.15h16.34V838q6.35-7.68,18.52-7.68a30.06,30.06,0,0,1,15,3.79m-7.13,38.48q4.23-4.44,4.22-11.9t-4.22-11.89a15.34,15.34,0,0,0-21.59,0q-4.23,4.44-4.23,11.89t4.23,11.9a15.34,15.34,0,0,0,21.59,0"/><path class="cls-9" d="M660.65,886.3a38.2,38.2,0,0,1-15-14.2,40.79,40.79,0,0,1,0-40.67,38.13,38.13,0,0,1,15-14.2,47.52,47.52,0,0,1,43,0,39.14,39.14,0,0,1,0,69.07,47.52,47.52,0,0,1-43,0m33.82-13.1a22.55,22.55,0,0,0,8.61-8.72,27.47,27.47,0,0,0,0-25.43,22.48,22.48,0,0,0-8.61-8.72,25.65,25.65,0,0,0-24.56,0,22.48,22.48,0,0,0-8.61,8.72,27.47,27.47,0,0,0,0,25.43,22.55,22.55,0,0,0,8.61,8.72,25.73,25.73,0,0,0,24.56,0"/><path class="cls-9" d="M671.45,806.9A45.37,45.37,0,0,0,664,780.1q12.07,9.72,10.23,26.83Q690.59,775,644.4,765.67c8.93,11.29-7.89,36.47,27.05,41.23"/><path class="cls-9" d="M723.47,764.15q-47,0-40.68,42.45,5.25-23.49,25.63-30.93-15.55,11.91-21.93,32.13a68.27,68.27,0,0,0,13,1.4h.07c33.41,0,26.13-34,41.3-43.84a138.83,138.83,0,0,0-17.27-1.21Z"/><path class="cls-9" d="M761,832.47a30.74,30.74,0,0,1,12-2.2v15.79c-1.9-.14-3.18-.22-3.84-.22q-7.35,0-11.51,4.11t-4.17,12.34v27.85h-17.1v-59h16.33v7.79a19.05,19.05,0,0,1,8.28-6.47"/><path class="cls-9" d="M823.29,887.28a17.47,17.47,0,0,1-6.19,2.8,31.42,31.42,0,0,1-7.73.93q-10.53,0-16.28-5.37t-5.76-15.79V845.62h-9.1V832.47h9.1V818.1h17.1v14.37h14.69v13.15H804.43v24a8,8,0,0,0,1.92,5.76,7.13,7.13,0,0,0,5.43,2,10.93,10.93,0,0,0,6.9-2.2Z"/><path class="cls-9" d="M842.42,887.12a28.92,28.92,0,0,1-11.57-10.8,31.61,31.61,0,0,1,0-31.35,28.92,28.92,0,0,1,11.57-10.8,37.68,37.68,0,0,1,33.39,0A29,29,0,0,1,887.32,845a31.61,31.61,0,0,1,0,31.35,29,29,0,0,1-11.51,10.8,37.77,37.77,0,0,1-33.39,0m27.52-14.58q4.21-4.44,4.22-11.9t-4.22-11.89a14.25,14.25,0,0,0-10.8-4.44,14.42,14.42,0,0,0-10.85,4.44Q844,853.19,844,860.64t4.28,11.9A14.42,14.42,0,0,0,859.14,877a14.25,14.25,0,0,0,10.8-4.44"/><polygon class="cls-9" points="928.21 867 919.99 875.12 919.99 890.13 902.88 890.13 902.88 808.79 919.99 808.79 919.99 854.83 944.99 831.15 965.38 831.15 940.82 856.15 967.57 890.13 946.85 890.13 928.21 867"/><path class="cls-9" d="M1019,836.8q7.34,6.53,7.34,19.68v33.66h-16v-7.35q-4.83,8.22-18,8.22a27.84,27.84,0,0,1-11.79-2.3,17.51,17.51,0,0,1-7.62-6.36,16.56,16.56,0,0,1-2.63-9.21,15.38,15.38,0,0,1,6.19-12.94q6.19-4.71,19.14-4.71h13.59c0-3.73-1.13-6.59-3.4-8.61s-5.66-3-10.19-3a29.66,29.66,0,0,0-9.27,1.48,24.64,24.64,0,0,0-7.73,4l-6.14-12a37.13,37.13,0,0,1,11.57-5.26,51.91,51.91,0,0,1,13.87-1.87q13.69,0,21,6.53m-14.58,40.67a11.1,11.1,0,0,0,4.82-6v-6H997.5q-10.53,0-10.53,6.9a6.14,6.14,0,0,0,2.58,5.21,11.59,11.59,0,0,0,7.07,1.92,14.86,14.86,0,0,0,7.79-2"/><rect class="cls-9" x="1041.79" y="808.79" width="17.1" height="81.35"/><rect class="cls-9" x="1074.79" y="808.79" width="17.1" height="81.35"/><path class="cls-9" d="M1165.24,865.47h-44.62a13.88,13.88,0,0,0,5.7,8.66,18.85,18.85,0,0,0,11.18,3.18,22.75,22.75,0,0,0,8.17-1.37,19.91,19.91,0,0,0,6.63-4.33l9.1,9.86q-8.33,9.54-24.34,9.54a38.44,38.44,0,0,1-17.65-3.89,28.46,28.46,0,0,1-11.84-10.8,29.72,29.72,0,0,1-4.17-15.68,30.15,30.15,0,0,1,4.12-15.62,28.74,28.74,0,0,1,11.29-10.85,34.92,34.92,0,0,1,31.74-.17,27.31,27.31,0,0,1,11,10.69,31.94,31.94,0,0,1,4,16.17c0,.22-.11,1.76-.33,4.61m-40-19a14,14,0,0,0-4.82,9h29a14.1,14.1,0,0,0-4.82-8.93,14.42,14.42,0,0,0-9.65-3.35,14.74,14.74,0,0,0-9.76,3.29"/></g></svg>